<svg id="Layer_1" data-name="Layer 1" xmlns="http://www.w3.org/2000/svg" viewBox="0 0 45.8 30.6"><defs><style>.cls-1{fill:#fff;}.cls-2{fill:#1e88e5;}.cls-3{fill:#64b5f6;}.cls-4{fill:#2196f3;}</style></defs><g id="Group_241" data-name="Group 241"><path id="Rectangle_136-2" data-name="Rectangle 136-2" class="cls-1" d="M5.9.3h34a5,5,0,0,1,5,5v20a5,5,0,0,1-5,5H5.9a5,5,0,0,1-5-5V5.3A5,5,0,0,1,5.9.3Z"/><g id="mail"><path id="Path_404" data-name="Path 404" class="cls-2" d="M44.71,28.88a4.8,4.8,0,0,1-3.7,1.7H4.81a4.8,4.8,0,0,1-3.7-1.7l17.5-14.6,1.8,1.2a4.54,4.54,0,0,0,5,0l1.8-1.2Z"/><path id="Path_405" data-name="Path 405" class="cls-3" d="M45,2.08l-17.8,12.2-1.8,1.2a4.54,4.54,0,0,1-5,0l-1.8-1.2L.81,2.08A4.84,4.84,0,0,1,4.71,0h36.4A4.84,4.84,0,0,1,45,2.08Z"/><g id="Group_240" data-name="Group 240"><path id="Path_406" data-name="Path 406" class="cls-4" d="M18.61,14.27,1.11,28.87A4.89,4.89,0,0,1,0,25.77v-21a5,5,0,0,1,.8-2.7Z"/><path id="Path_407" data-name="Path 407" class="cls-4" d="M45.81,4.77v21a5.1,5.1,0,0,1-1.1,3.1l-17.5-14.6L45,2.07A5,5,0,0,1,45.81,4.77Z"/></g></g></g></svg>