<svg id="Layer_1" data-name="Layer 1" xmlns="http://www.w3.org/2000/svg" viewBox="0 0 42.53 42.47"><defs><style>.cls-1{fill:#fbc3c3;}.cls-2{fill:#f99;}.cls-3{fill:#ff405c;}.cls-4{fill:#b60000;}.cls-5{fill:#801919;}.cls-6{fill:#c1126b;opacity:0.35;isolation:isolate;}</style></defs><g id="Group_245" data-name="Group 245"><g id="phone"><path id="Path_408" data-name="Path 408" class="cls-1" d="M39.34,0H23.68A3.19,3.19,0,0,0,20.5,3.19h0V9.82A3.18,3.18,0,0,0,23.68,13h1.54l1.9,3.29a.7.7,0,0,0,1,.26.69.69,0,0,0,.25-.26L30.24,13h9.1a3.18,3.18,0,0,0,3.19-3.18h0V3.19A3.19,3.19,0,0,0,39.34,0Z"/><path id="Path_409" data-name="Path 409" class="cls-2" d="M39.34,0H31.47V13h7.87a3.19,3.19,0,0,0,3.19-3.19h0V3.19A3.19,3.19,0,0,0,39.34,0Z"/><g id="Group_243" data-name="Group 243"><g id="Group_242" data-name="Group 242"><path id="Path_410-2" data-name="Path 410-2" class="cls-3" d="M2.35,9.32l3.7-3.71a1.16,1.16,0,0,1,1.62-.19.71.71,0,0,1,.15.15l7.75,7.75a1.28,1.28,0,0,1,0,1.81l-4.35,4.34a1.61,1.61,0,0,0,0,2.26L21.36,31.86a1.36,1.36,0,0,0,1.92,0h0l4.63-4.63a1.28,1.28,0,0,1,1.81,0L37.48,35a1.28,1.28,0,0,1,0,1.81l-2.62,2.62a10.31,10.31,0,0,1-4.62,2.7l-.24.06a10.34,10.34,0,0,1-9.72-2.77L2.92,22.05A9.91,9.91,0,0,1,.16,16.88,8.59,8.59,0,0,1,2.49,9.17"/></g></g><circle id="Ellipse_35" data-name="Ellipse 35" class="cls-4" cx="26.57" cy="6.43" r="1.29"/><circle id="Ellipse_36" data-name="Ellipse 36" class="cls-4" cx="31.47" cy="6.43" r="1.29"/><circle id="Ellipse_37" data-name="Ellipse 37" class="cls-5" cx="36.38" cy="6.43" r="1.29"/><path id="Path_411" data-name="Path 411" class="cls-5" d="M32.76,6.43a1.3,1.3,0,0,0-1.29-1.3V7.72A1.29,1.29,0,0,0,32.76,6.43Z"/><path id="Path_412" data-name="Path 412" class="cls-6" d="M37.49,35l-7.77-7.77a1.28,1.28,0,0,0-1.81,0l-4.63,4.63a1.36,1.36,0,0,1-1.92,0h0l-5.13-5.12-4.31,4.31,8.38,8.38a10.3,10.3,0,0,0,9.6,2.78l.21-.06a10.33,10.33,0,0,0,4.77-2.74l2.61-2.6A1.5,1.5,0,0,0,37.49,35Z"/></g></g></svg>