<?xml version="1.0" encoding="utf-8"?>
<!-- Generator: Adobe Illustrator 24.0.1, SVG Export Plug-In . SVG Version: 6.00 Build 0)  -->
<svg version="1.1" id="Layer_1" xmlns="http://www.w3.org/2000/svg" xmlns:xlink="http://www.w3.org/1999/xlink" x="0px" y="0px"
	 viewBox="0 0 1080 614" style="enable-background:new 0 0 1080 614;" xml:space="preserve">
<style type="text/css">
	.st0{fill:#1F3765;}
	.st1{fill:#F4FAFE;}
	.st2{fill:#CDEAF9;}
	.st3{fill:#4173B9;}
	.st4{fill:#3FBBED;}
	.st5{fill:#F6FBFF;}
	.st6{fill:#96C670;}
	.st7{fill:#AACF7E;}
	.st8{fill:#E4EBF8;}
	.st9{fill:#4692CF;}
	.st10{fill:#CBD0E0;}
	.st11{fill:#1D3E7F;}
	.st12{fill:#FFFFFF;}
	.st13{fill:#FBC68B;}
	.st14{fill:#F8B068;}
	.st15{fill:#544F9C;}
	.st16{fill:#5CC5EE;}
	.st17{fill:#3771B8;}
	.st18{fill:#FFDC50;}
	.st19{fill:#F4C738;}
	.st20{fill:#2A427B;}
	.st21{fill:#EB5D75;}
	.st22{fill:#6B55A0;}
	.st23{fill:#D5C8E4;}
</style>
<g>
	<g>
		<g>
			<polygon class="st0" points="694.7,566 568,566 584.5,490.9 678.2,490.9 			"/>
			<g>
				<path class="st0" d="M877.1,478.2H385.6v-271c0-20.4,16.5-36.9,36.9-36.9h417.8c20.4,0,36.9,16.5,36.9,36.9V478.2z"/>
				<g>
					<g>
						<g>
							<rect x="409.7" y="195.2" class="st1" width="443.3" height="264.8"/>
						</g>
					</g>
				</g>
				<rect x="682" y="336.9" class="st2" width="121.1" height="95.3"/>
				<rect x="515.2" y="336.9" class="st2" width="146.6" height="41.5"/>
				<rect x="515.2" y="389.4" class="st2" width="146.6" height="41.5"/>
				<rect x="459.6" y="234.1" class="st2" width="343.5" height="48.1"/>
				<rect x="459.6" y="297.8" class="st2" width="343.5" height="19.8"/>
				<path class="st3" d="M385.6,478.2v27.1c0,13.1,10.6,23.6,23.6,23.6h444.2c13.1,0,23.6-10.6,23.6-23.6v-27.1H385.6z"/>
			</g>
			<path class="st3" d="M751.7,580.4H510.9l0,0c0-11.8,9.6-21.4,21.4-21.4h197.9C742.1,559,751.7,568.6,751.7,580.4L751.7,580.4z"/>
			<circle class="st4" cx="631.3" cy="503.6" r="9"/>
		</g>
		<g>
			<path class="st0" d="M442,43.1l-237.7,80.4c0,386.9,237.7,457,237.7,457s237.7-70.1,237.7-457L442,43.1z"/>
			<path class="st5" d="M442.1,558.5c-15.8-6.2-60.8-27.2-105.3-77.3c-32.3-36.4-58-80.8-76.5-132.1c-22-61-33.8-131.8-35.1-210.8
				L442,64.9l216.9,73.3c-1.3,79.8-13.3,151.3-35.8,212.7c-18.8,51.4-44.9,95.9-77.6,132.2C501.2,532.3,457.6,552.5,442.1,558.5z"/>
			<path class="st6" d="M442.1,547.3c-18.5-7.8-58-28.4-97.6-73c-31.4-35.4-56.5-78.7-74.5-128.7c-20.9-57.9-32.4-125.1-34.3-200
				L442,75.9l206.4,69.8c-1.9,75.6-13.7,143.5-35,201.8c-18.3,50.2-43.8,93.5-75.6,128.8C498.4,519.9,460,539.8,442.1,547.3z"/>
			<path class="st7" d="M442.1,547.3c17.9-7.5,56.3-27.4,95.7-71.1c31.8-35.3,57.3-78.6,75.6-128.8c21.3-58.3,33.1-126.2,35-201.8
				L442,75.9L442.1,547.3C442,547.3,442.1,547.3,442.1,547.3z"/>
			<g>
				<path class="st5" d="M420.8,373.3l-75.5-60.9c-7.7-6.2-8.9-17.6-2.7-25.3l0,0c6.2-7.7,17.6-8.9,25.3-2.7l49.5,40
					c7.3,5.9,18,5.2,24.4-1.7l91.9-97.9c6.8-7.2,18.2-7.6,25.4-0.8v0c7.2,6.8,7.6,18.2,0.8,25.4L445.2,371.6
					C438.8,378.5,428.1,379.2,420.8,373.3z"/>
			</g>
		</g>
		<g>
			<g>
				<path class="st2" d="M192.1,408h-149v-82.3c0-27.2,22.1-49.4,49.4-49.4h50.2c27.2,0,49.4,22.1,49.4,49.4V408z M71.7,379.4h91.8
					v-53.7c0-11.5-9.3-20.8-20.8-20.8H92.4c-11.5,0-20.8,9.3-20.8,20.8V379.4z"/>
			</g>
			<g>
				<path class="st4" d="M142.7,297.5H92.4c-11.5,0-20.8,9.3-20.8,20.8v7.4c0-11.5,9.3-20.8,20.8-20.8h50.2
					c11.5,0,20.8,9.3,20.8,20.8v-7.4C163.5,306.8,154.1,297.5,142.7,297.5z"/>
				<rect x="43.1" y="400.6" class="st8" width="149" height="7.4"/>
			</g>
			<path class="st9" d="M206.3,580.4H28.8C12.9,580.4,0,567.5,0,551.6V380.2c0-15.9,12.9-28.8,28.8-28.8h177.6
				c15.9,0,28.8,12.9,28.8,28.8v171.4C235.1,567.5,222.2,580.4,206.3,580.4z"/>
			<path class="st0" d="M135,453.1c0-9.6-7.8-17.4-17.4-17.4c-9.6,0-17.4,7.8-17.4,17.4c0,7.3,4.5,13.5,10.8,16.1v20.3
				c0,3.6,2.9,6.6,6.6,6.6s6.6-2.9,6.6-6.6v-20.3C130.5,466.6,135,460.4,135,453.1z"/>
		</g>
		<g>
			<g>
				<g>
					<rect x="179.3" y="421.8" class="st10" width="30.3" height="23.6"/>
					<g>
						<g>
							<rect x="187.8" y="430.2" class="st11" width="4.8" height="6.7"/>
							<rect x="196.4" y="430.2" class="st11" width="4.8" height="6.7"/>
						</g>
					</g>
				</g>
				<path class="st12" d="M207.6,580.4h-26.2c-8,0-14.5-6.5-14.5-14.5V459.8c0-8,6.5-14.5,14.5-14.5h26.2c8,0,14.5,6.5,14.5,14.5
					v106.1C222.1,573.9,215.6,580.4,207.6,580.4z"/>
				<path class="st7" d="M204.4,565.1h-20c-4.1,0-7.5-3.3-7.5-7.5v-70.6c0-4.1,3.3-7.5,7.5-7.5h20c4.1,0,7.5,3.3,7.5,7.5v70.6
					C211.9,561.8,208.6,565.1,204.4,565.1z"/>
			</g>
			<g>
				<path class="st13" d="M289.6,401.8c6.5-5.1,4.1-39.2,4.1-39.2s2.9-10.2,1.3-13.5c-1.6-3.3-3.7-4-5.9-4c-2.2,0-5.2,0.9-6.5,2.9
					c-1.2,2-1.5,4.6-1,6.9c1,5.1,3.4,7.1,3.4,8.4c0,3.1-9.7,32.1-10.7,32.3C274.4,395.6,283.1,406.8,289.6,401.8z"/>
				<path class="st4" d="M246.8,366.8c-5.7-1-17.4,0.3-13.1,12.3c5.2,14.6,42.6,23.1,42.6,23.1l0,0c3.7,0.9,7.1,1.3,9.8,0.9
					c1,0,2.1-0.3,3.1-0.9c0,0,0.1,0,0.1-0.1c1-0.6,1.6-1.3,1.8-2.1c4.8-8.9,3.3-37.5,3.3-37.5l-9.9,0.8c0,1.9-3.5,13.7-6.4,22.5
					C278.1,385.8,252.5,367.8,246.8,366.8z"/>
				<path class="st0" d="M219.3,565.3l-4.4,8.5c1.9,2.3,20.4,10,21.4,9.7c1-0.3-8.9-12.5-8.9-12.5L219.3,565.3z"/>
				<path class="st0" d="M248.5,573.3l-0.3,10.1h23.5c0.8-0.7-13.1-10.1-13.1-10.1H248.5z"/>
				<path class="st11" d="M253.2,504l-0.1-0.6l0-0.3l0,0l-5.3-36.7l15-30.2l-46.9,0.9c-8.1,17.4-0.4,29.5,6.2,45
					c5,11.8,6,17.3,6.2,19.2l-0.1,0c0,0-3.1,7.9,2.5,24.3c5.6,16.4,17.7,47.7,17.7,47.7h10.1L253.2,504L253.2,504z"/>
				<path class="st0" d="M277.2,479.4c-3.6-16.4-14.4-43.2-14.4-43.2L246.1,469l10.7,35.1c-2.7,1.6-8.7,6.1-15,17.2
					c-8.6,15.1-22.5,43.9-22.5,43.9l8.1,5.7l43.7-46.9c4.8-5.4,6-10.2,6-10.2S281.4,498.9,277.2,479.4z"/>
				<path class="st4" d="M232.2,362.5c0,0-17.9-5.5-24.9,3.4c-7.1,8.9,8.9,43.9,8.9,43.9l-1.1,29.2c0,0,11.5,3.3,24.3,2.7
					c12.8-0.7,24.2-4.6,24.2-4.6s-1.7-36.8-5.7-53.5c-2.7-11.3-7.7-14.8-11.1-17.4C240.8,361.8,232.2,362.5,232.2,362.5z"/>
				<path class="st13" d="M181.1,416.9c4.5,6.9,41.6,7.3,41.6,7.3s7,2.6,10.4,1.3c3.4-1.3,4.4-3.2,4.6-5.4c0.2-2.2-0.4-4.4-2.6-5.2
					c-1.9-0.7-5.5-0.2-5.5-0.2l1.6,0c0,0,0.5-2.5-2.7-2.4c-5.6,0.1-7.4,2.7-8.7,2.6c-3.1-0.2-31.2-11.6-31.3-12.6
					C188.5,402.1,176.5,410,181.1,416.9z"/>
				<path class="st11" d="M227.9,356.9c0,0-2.6,0.7-7.5-3.2c-3.8-3-7.3-6.9-7.7-11.3c-0.4-4.4,1.1-6,1.1-6s-2.2-5.4,3.4-9.4
					c8.6-6.2,16.5,1.1,25.5-0.3c10.4-1.6-1.2,10.5-1.2,10.5L227.9,356.9z"/>
				<path class="st13" d="M227.2,354.2c0,0-4,7.9-3.9,8.2c0.1,0.3,1.7,2.7,5.8,3c5.1,0.5,8.7-1.2,8.7-1.2s-1.9-3-1.9-4
					c0-1,1.9-4.8,1.9-4.8L227.2,354.2z"/>
				<path class="st14" d="M235.9,360.2c0-1,1.9-4.8,1.9-4.8l-10.6-1.3c0,0-0.7,1.3-1.5,2.9c1.8,2.2,4.6,4.5,8.2,4
					c0.7-0.1,1.4-0.3,2-0.5C236,360.4,235.9,360.3,235.9,360.2z"/>
				<path class="st13" d="M240.2,334.9c0,0,1.8,1.3,2.5,8.8c0.6,7.5-1.3,14.5-8.2,15.5c-6.9,1-10.6-7.8-10.6-7.8s-1.7,0.6-3.9-0.6
					c-2.2-1.2-2-4.2-1.6-5.2c0.5-1,2.3-2,4-0.9c1.7,1.1,2.1,3.3,2.7,4.3c0.6,1,0.9,1.2,0.9,0.5c0-0.7-0.2-3.6,0.6-4.5
					c0.8-0.9,7.6-3.9,10.2-7.3C239.6,334.3,240.2,334.9,240.2,334.9z"/>
				<g>
					
						<rect x="286.7" y="335.6" transform="matrix(0.9539 -0.3001 0.3001 0.9539 -89.5239 107.2565)" class="st5" width="35.4" height="18.9"/>
				</g>
				<g>
					<path class="st0" d="M302.8,350.6l-6.9-3.1c-0.7-0.3-1-1.1-0.7-1.9l0,0c0.3-0.7,1.1-1,1.9-0.7l4.6,2c0.7,0.3,1.5,0,1.8-0.6
						l5-9.3c0.4-0.7,1.2-0.9,1.9-0.6l0,0c0.7,0.4,0.9,1.2,0.6,1.9l-6.2,11.6C304.3,350.7,303.5,350.9,302.8,350.6z"/>
				</g>
				<path class="st13" d="M284,346.6c0,0,4.5-3.2,6.2-1.4c1.7,1.8-3.5,6.1-3.5,6.1L284,346.6z"/>
				<path class="st4" d="M219.3,376.9c1.4-5.6,1.1-17.4-11.2-14.1c-15,4-26.4,40.6-26.4,40.6l0,0c-1.2,3.6-1.8,7-1.7,9.7
					c-0.1,1,0.1,2.1,0.7,3.1c0,0,0,0.1,0,0.1c0.5,1.1,1.2,1.7,2,2c8.5,5.4,37.1,6.3,37.1,6.3v-9.9c-1.9-0.1-13.4-4.5-21.9-8.1
					C197.9,406.6,217.9,382.5,219.3,376.9z"/>
			</g>
		</g>
		<g>
			<g>
				<path class="st13" d="M948.7,512.3c5.1,5.7,38.9,0.8,38.9,0.8s6.8,1.4,9.7-0.3c2.9-1.7,3.6-3.5,3.4-5.6
					c-0.2-2.1-0.9-3.9-3.1-4.4c-1.9-0.4-5.1,0.6-5.1,0.6l1.5-0.2c0,0,0.1-2.3-2.8-1.8c-5.1,0.9-6.4,3.5-7.6,3.5
					c-2.9,0.2-30.1-6.2-30.3-7.1C953.4,497.8,943.6,506.6,948.7,512.3z"/>
				<path class="st15" d="M925.3,481c0,0,0-0.1,0-0.1c1.1-4,6.2-6.7,10-5.4c4.7,1.6,12.5,14.5,12.5,14.5l0,0
					c3.1,4.3,5.1,7.6,5.6,7.9c0,0,0.1,0.1,0.1,0.1c1.9,1.2,27.7,6.5,30.4,6.3l2,9.9c0,0-27,3.3-35.5-0.5c-5-2-11.2-8.1-16.4-14.9
					l0,0c0,0-5.6-6.2-8.2-12.9c0,0,0,0,0-0.1c0,0,0-0.1-0.1-0.1c-0.2-0.4-0.3-0.8-0.4-1.1c0-0.1,0-0.1-0.1-0.2c0,0,0,0,0-0.1
					c-0.1-0.3-0.2-0.6-0.2-0.9c0-0.1,0-0.1,0-0.2c-0.1-0.7,0-1.3,0.1-1.8C925.3,481.1,925.3,481.1,925.3,481z"/>
			</g>
			<g>
				<path class="st11" d="M1023.6,506.9H989c-1.1,0-1.9-1.1-1.6-2.2l8.5-27c0.2-0.7,0.9-1.2,1.6-1.2h33.4c1.1,0,1.9,1,1.6,2.1
					l-7.4,27C1025,506.4,1024.4,506.9,1023.6,506.9z"/>
				<polygon class="st16" points="1022.8,504.8 990,504.8 998.2,478.7 1029.9,478.7 				"/>
				<polygon class="st11" points="1023.6,506.9 972.8,506.9 974.3,503.9 1024.9,503.9 				"/>
			</g>
			<path class="st0" d="M985.1,509.5L936,529.7l0.2,3.4l-7.2,15.5c0,0-0.6,20.9,15.6,17c12-2.9,25.4-17.8,30.7-22.5
				c9.9-8.9,14.3-10.9,15.4-11.3c2.4,2.4,5.7,5.2,10.3,8.1c13.6,8.5,37,26.3,37,26.3l12.2-4.2l-46.3-51.2
				C998.4,505.1,985.1,509.5,985.1,509.5z"/>
			<path class="st13" d="M954.8,451.1c0,0,4.3,16.7-2.5,19.4c-5.3,2.1-11.6-3.5-11.6-3.5S946.4,448.6,954.8,451.1z"/>
			<path class="st14" d="M951.1,470.8c-2.5-2.2-2.5-7.1-2.5-7.1s-4.6-3.6-6.8,0.3c-0.3,0.7-0.5,1.2-0.7,1.7c0,0.1-0.1,0.3-0.1,0.4
				c-0.1,0.4-0.1,0.8-0.1,1.2C942.1,468.2,946.7,471.7,951.1,470.8z"/>
			<path class="st13" d="M938.4,464.3c0,0-4.1,10.2-4.2,12.6c0,0.3,3,2.2,6.7,2c6.2-0.4,6.2-1.8,6.2-1.8s-0.4-3.6-0.4-7.7
				c0-3.3,0.4-4.6,0.4-4.6L938.4,464.3z"/>
			<path class="st11" d="M946.1,467.1c0,0-3.6,1.6-9.1,0c-5.5-1.6-10.4-8.5-9.2-15.3c1.2-6.3,4.2-6.7,4.2-6.7s2.2-11.5,16.4-7.6
				c9.9,2.7,12.8,12.9,5.8,20.2C947.1,464.8,946.1,467.1,946.1,467.1z"/>
			<path class="st11" d="M949.5,458.3c0,0,0.9,5.8,1.6,6c0.7,0.2,0-7.9,0-7.9L949.5,458.3z"/>
			<path class="st13" d="M950.2,461.8c0,0-0.4-2.9-2.4-1.9c-2,1-0.7,3.3,0.7,3.8C949.9,464.2,950.2,461.8,950.2,461.8z"/>
			<path class="st11" d="M1008.6,552.1L1008.6,552.1l-0.4-0.1l-0.4-0.1l0,0l-70.1-8.9l-0.2,1.8l-19.1-1.8c0,0-7.3,36.1,27.4,37.3
				c6.4,0.2,10.9-0.5,14-1.8c7.1-1.6,14.3-4.2,21-4.9c11.8-1.3,15.7-0.7,18.6-0.3l0,0.1c0,0,6.1,4.8,22.1,4.3
				c16-0.5,46.8-2.8,46.8-2.8l2.7-8.9L1008.6,552.1z"/>
			<path class="st11" d="M1065.5,575l2.5-9c0,0,3.1-3.4,6.2-5.9c3.1-2.5,5.8-4.1,5.8-4.1l-5.1,22.2
				C1074.9,578.2,1066.1,575.9,1065.5,575z"/>
			<path class="st4" d="M942,475.1c0,0-12-4.7-18.1,5.6c-3,5-1.2,38-1.2,38l-6.3,37.3c0,0,13.5,11,22.5,3.3
				c16.3-13.9,26.6-12.6,26.6-12.6s-4.2-28.6-2.6-49.2c0.8-10.6-4.1-12.8-6.9-15.5C951.2,477.2,942,475.1,942,475.1z"/>
			<g>
				<path class="st13" d="M972.9,518.5c5.8,5,37.4-4.5,37.4-4.5s7.8-0.8,11-2.2c3.1-1.3,3.6-2.6,3.2-4.6c-0.4-2-2.9-0.6-5.1-0.6
					c-5.1,0.1-3.7-1.4-3.7-1.4s1.2-0.3,1.8-1.3c0.6-1-0.9-2.3-3.7-1.4c-4.9,1.5-5.9,4.2-7.1,4.5c-2.8,0.6-30.6-2.4-30.9-3.3
					C975.8,503.6,967.1,513.5,972.9,518.5z"/>
				<path class="st4" d="M945.8,490.4c0,0,0-0.1,0-0.1c0.6-4.1,5.3-7.4,9.2-6.5c4.8,1,14.2,12.8,14.2,12.8l0,0
					c3.6,3.9,6,6.9,6.5,7.1c0,0,0.1,0,0.1,0.1c2.1,1,28.3,3,31,2.5l3.2,9.5c0,0-26.4,6.6-35.3,3.8c-5.2-1.4-12.1-6.7-18.1-12.8l0,0
					c0,0-6.4-5.5-9.7-11.8c0,0,0,0,0-0.1c0,0,0-0.1-0.1-0.1c-0.2-0.4-0.4-0.7-0.5-1.1c0-0.1,0-0.1-0.1-0.2c0,0,0,0,0-0.1
					c-0.1-0.3-0.2-0.6-0.3-0.9c0-0.1,0-0.1,0-0.2c-0.2-0.7-0.2-1.3-0.1-1.8C945.8,490.5,945.8,490.4,945.8,490.4z"/>
			</g>
		</g>
		<g>
			<g>
				<rect x="710.1" y="440.7" class="st9" width="213.2" height="139.7"/>
				<polygon class="st6" points="710.1,440.7 816.7,507.8 923.3,440.7 				"/>
				<polygon class="st6" points="710.1,440.7 816.7,373.6 923.3,440.7 				"/>
				<polygon class="st12" points="900.1,455.3 816.7,507.8 733.3,455.3 733.3,368.9 900.1,368.9 				"/>
				<g>
					<rect x="751.8" y="391.3" class="st2" width="127.7" height="7.5"/>
					<rect x="751.8" y="410.3" class="st2" width="127.7" height="7.5"/>
					<rect x="751.8" y="429.2" class="st2" width="127.7" height="7.5"/>
					<rect x="751.8" y="448.1" class="st2" width="127.7" height="7.5"/>
					<polygon class="st2" points="869.6,474.5 881.5,467 751.9,467 763.8,474.5 					"/>
					<polygon class="st2" points="836.6,495.3 848.5,487.8 784.9,487.8 796.7,495.3 					"/>
				</g>
			</g>
			<polygon class="st17" points="816.7,507.8 710.1,580.4 923.3,580.4 			"/>
		</g>
		<g>
			<g>
				<path class="st18" d="M902.5,338.3l-58,19.6c0,94.3,58,111.4,58,111.4s58-17.1,58-111.4L902.5,338.3z"/>
				<path class="st12" d="M902.5,459.9c-4.4-1.9-13.9-7-23.2-17.6c-16-18.2-24.9-45.1-25.9-78l49-16.6l49,16.6
					C949.4,434.6,912.6,455.5,902.5,459.9z"/>
				<path class="st18" d="M902.5,453c-4.3-2.2-11.5-6.8-18.6-14.9c-14.2-16.2-22.5-40.2-24.1-69.6l42.7-14.4l42.7,14.4
					C942.1,426.6,914.4,446.9,902.5,453z"/>
			</g>
			<path class="st19" d="M945.1,368.6l-42.7-14.4c0,0,1,47.1,1.6,98.1C916.6,445.2,942.2,424.3,945.1,368.6z"/>
		</g>
		<g>
			<path class="st13" d="M795,96.8c0,0-7.7-29-21.7-31.3c-0.4-0.1-0.8,0-1.1,0c0.8,0.3,1.4,0.7,1.9,1c10.7,5.8,7.2,37.8,6.7,42.1
				c2,4.9,3.9,9.3,5.2,12.2c-9.7,1.5-27.4,22.6-27.4,22.6s37.3-1.7,43.9-7.8c0.4-0.4,1.4-1.8,1.4-1.9
				C807.8,126.5,801.9,109.5,795,96.8z"/>
			<path class="st11" d="M751.5,55.4c0,0-7.8-6.2-7.5-17.4c0.3-10.7,5.6-10.7,5.6-10.7s5.6-8.4,17.7-4.3c15.2,5.2,6.5,29.8-0.1,33.5
				C760.7,60.2,751.5,55.4,751.5,55.4z"/>
			<polygon class="st0" points="732.2,141.2 730.3,147.8 758.6,158.5 758.6,143.6 			"/>
			<polygon class="st0" points="784.9,141.2 786.8,147.8 758.5,158.5 758.5,143.6 			"/>
			<path class="st0" d="M725.1,143.1c-7.5-2.8-17-3.6-20.4,5.6c-3.5,9.5,1.1,20.3,26.9,25.3c18.4,3.5,59.6,6.7,59.6,6.7l1.9-9.9
				C793,170.6,730.1,144.9,725.1,143.1z"/>
			<path class="st11" d="M791.1,169.8c0,0,8,0.3,15.1,3.7c7.1,3.4,7.7,6.3,7.5,6.8c-0.6,1.3-3.7,2.7-9.6,3c-5.9,0.3-15.7-3-15.7-3
				S792.3,176.2,791.1,169.8z"/>
			<path class="st20" d="M792.2,143.1c7.5-2.8,17-3.6,20.4,5.6c3.5,9.5-1.1,20.3-26.9,25.3c-18.4,3.5-59.6,6.7-59.6,6.7l-1.9-9.9
				C724.3,170.6,787.2,144.9,792.2,143.1z"/>
			<path class="st11" d="M726.2,169.8c0,0-8,0.3-15.1,3.7c-7.1,3.4-7.7,6.3-7.5,6.8c0.6,1.3,3.7,2.7,9.6,3c5.9,0.3,15.7-3,15.7-3
				S725,176.2,726.2,169.8z"/>
			<path class="st12" d="M774.2,66.8c-4.3-3.6-24.3-4-31.1,0c-12.2,5.8-6.6,42.6-6.6,42.6c-4.2,18.3-5.9,34.5-5.9,34.5
				s13.1,5.9,27,5.6c0.4,0,0.8,0,1.2,0c0.4,0,0.8,0,1.2,0c13.8,0.3,27-5.6,27-5.6s-1.8-16.2-5.9-34.5
				C780.8,109.4,785.7,73,774.2,66.8z"/>
			<path class="st13" d="M763.1,53.5l-3.6,0.2l-3.6-0.2c0,0-4.5,11.4-4.2,11.7c0,0,2.7,2.5,7.1,2.9c0.2,0,0.4,0,0.5,0v0
				c0.1,0,0.1,0,0.2,0c0.1,0,0.1,0,0.2,0v0c0.2,0,0.3,0,0.5,0c4.4-0.4,7.1-2.9,7.1-2.9C767.6,64.9,763.1,53.5,763.1,53.5z"/>
			<path class="st14" d="M759.9,62.4c2.3,0.2,4.2-0.8,5.8-2.2c-1.2-3.2-2.6-6.8-2.6-6.8l-3.6,0.2l-3.6-0.2c0,0-1.2,3.2-2.4,6.2
				C755.1,61.4,757.3,62.6,759.9,62.4z"/>
			<path class="st13" d="M775.6,44.2c-0.5-1.2-2.1-2.4-4-1.1c-1.9,1.3-0.5,2.9-1.8,4.2c-0.9,0.9,0.1-9.3-3.1-9.6c0,0-3.8,3.7-11.7,4
				c-3.4,0.1-4.1,3.9-4.1,4.8c0,0.8-0.4,1.2-1.1,0.1c-0.7-1.2-0.2-2.1-2-3.4c-1.9-1.3-3.5-0.2-4,1.1s-0.5,5,1.8,6.4
				c2.3,1.4,3.3,0.3,3.3,0.3s3.7,9.9,10.7,9.4c7,0.5,10.7-9.4,10.7-9.4s1,1.1,3.3-0.3C776.2,49.2,776.1,45.5,775.6,44.2z"/>
			<path class="st21" d="M769,64.8c0,0,10-0.6,16,8.2c6,8.8,10.7,23.1,10.7,23.1s-10.9,4.6-14.2,5.1
				C781.5,101.2,784.3,70.9,769,64.8z"/>
			<path class="st13" d="M723.4,96.8c0,0,7.7-29,21.7-31.3c0.4-0.1,0.8,0,1.1,0c-0.8,0.3-1.4,0.7-1.9,1c-10.7,5.8-7.2,37.8-6.7,42.1
				c-2,4.9-3.9,9.3-5.2,12.2c9.7,1.5,27.4,22.6,27.4,22.6s-37.3-1.7-43.9-7.8c-0.4-0.4-1.4-1.8-1.4-1.9
				C710.7,126.5,716.6,109.5,723.4,96.8z"/>
			<path class="st21" d="M749.7,64.7c0,0-10-0.6-16,8.2S723,95.9,723,95.9s10.7,4.7,14,5.2C736.9,101.2,734.6,70.7,749.7,64.7z"/>
			<path class="st22" d="M790.8,141c0,2.8-2.4,5-5.4,5h-53.1c-3,0-5.4-2.2-5.4-5v-33.1c0-2.8,2.4-5,5.4-5h53.1c3,0,5.4,2.2,5.4,5
				V141z"/>
			<path class="st23" d="M762.2,123.8c0,2.2-1.6,4.1-3.6,4.1s-3.6-1.8-3.6-4.1s1.6-4.1,3.6-4.1S762.2,121.6,762.2,123.8z"/>
		</g>
		<g>
			<path class="st11" d="M696.6,391.2c0,0,0.1-10.1-1.8-14c-1.9-3.9-6.8-11.8-12.6-13.4c-3.2-0.9-6.1-13.7,1.1-17.6
				c7.2-3.9,19.3,0.7,19.3,0.7s14.2-8.8,23.9,22.8c8.4,27.2,25.5,38.7,23.9,47.6c-1.6,8.9-2.7,10-9.8,8
				C733.6,423.4,696.6,391.2,696.6,391.2z"/>
			<path class="st13" d="M707.3,449.4c-6,5-39.9-4.8-39.9-4.8s-7.1,0.4-9.8-1.7c-2.7-2.2-3.2-4.1-2.7-6.2c0.5-2.1,1.5-3.9,3.8-4
				c2-0.1,3.6,0.9,3.6,0.9s9.1,3,10.3,3.3c2.9,0.7,31.6-1.9,32-2.9C704.6,434,713.4,444.4,707.3,449.4z"/>
			<path class="st4" d="M689,405.9c0.2-5.5,2.1-13.2,8.5-13c14.7,0.4,12.8,44.2,12.8,44.2l0,0c0.1,3.6-0.3,6.9-1.1,9.3
				c-0.2,1-0.7,1.9-1.5,2.7c0,0,0,0.1-0.1,0.1c-0.7,0.8-1.5,1.2-2.3,1.3c-9.2,2.6-35.5-4.5-35.5-4.5l2.7-9
				c1.8,0.4,13.5-0.4,22.2-1.3C694.9,435.5,688.8,411.4,689,405.9z"/>
			<path class="st0" d="M713.6,451.4c16.4,17.4,6.2,31.6,2.7,46.3c-3.5,14.7-2.5,17.9-2.5,17.9s3.9,6.5,1.5,21.9
				c-2.5,15.4-8.4,44.9-8.4,44.9l-9,1.5l-5.8-62.9l-1.8-66.4L713.6,451.4z"/>
			<path class="st11" d="M716.3,524.5l-23.6-67.3l31.9-7.6c13.7,10.5,6.2,29.4,7.4,44.5c1.2,15.1,3.1,17.9,3.1,17.9s5.7,5,8.1,20.4
				c2.4,15.4,5.7,45.3,5.7,45.3l-8.1,4.2L716.3,524.5z"/>
			<path class="st0" d="M706.8,582.4l-9.1,0.4c0,0-3.9,2.2-6.9,4.6c-3,2.4-5.2,4.6-5.2,4.6h22.2
				C707.8,592.1,707.6,583.2,706.8,582.4z"/>
			<path class="st0" d="M748.4,574.9l-8.2,4c0,0-2.7,3.6-4.5,7c-1.8,3.4-2.9,6.3-2.9,6.3l20.3-8.9
				C753.2,583.3,749.5,575.3,748.4,574.9z"/>
			<path class="st4" d="M691.1,394.6c0,0-10.4,4.8-12,15.9c-1.5,11.1,8.2,14.6,8.2,14.6L691.1,394.6z"/>
			<path class="st4" d="M708.7,384.4c0,0,10-2.6,17.7,4.9c7.7,7.5-1.7,35.9-1.7,35.9l7.8,32.1c0,0-11.7,4-23.7,4.9
				c-12,0.9-19.7,0-19.7,0s-5.4-40.2-3.6-56.2c1.2-10.8,2.1-8.6,3.9-12.2C694.4,383.4,708.7,384.4,708.7,384.4z"/>
			<path class="st13" d="M686,428.6c5.5-2.1,11.5,1.7,13.5,3.2l0.1-0.4c2.8,1,31.6,1.8,32.1,0.9c0,0,7.4,11.4,0.9,15.7
				c-6.6,4.3-35.1-7.9-35.1-7.9l0.3-1.3c-2,1.5-8.1,1.6-8.5-0.1c-0.5-1.8,4.7,0.3,2.8-2.4c-1.9-2.7-8.7,2-10.4,1.3
				C680,436.9,679.3,431.2,686,428.6z"/>
			<path class="st16" d="M714.4,398.5c0.9-5.4,5.6-15.5,15.1-8c11.5,9.2,7.6,45.4,7.6,45.4l0,0c-0.4,3.6-1.1,6.8-2.2,9.1
				c-0.3,0.9-0.9,1.8-1.8,2.5c0,0-0.1,0.1-0.1,0.1c-0.8,0.8-1.7,1-2.5,1c-9.5,1.5-34.7-8.6-34.7-8.6l3.8-8.7
				c1.7,0.6,13.4,1.1,22.2,1.3C721.8,432.6,713.6,403.9,714.4,398.5z"/>
			<polygon class="st9" points="659.6,416.3 683.4,443.2 659.9,443.2 634.7,415.9 			"/>
			<path class="st13" d="M654.9,437.1c0,0,2-3.6,5.2-2.7c3.2,0.9-1,7.9-1,7.9S654.9,440.7,654.9,437.1z"/>
			<path class="st13" d="M700.2,375.5l1.2,14.4c0,0,9.4,1.1,12.1-3c2.8-4.1-5.8-13.1-5.8-13.1L700.2,375.5z"/>
			<path class="st14" d="M709.3,376.4c0,0-3.8,4.2-8.6,5.2l-0.5-6.2l5-6L709.3,376.4z"/>
			<path class="st13" d="M688.6,358.1c0,0-2.5,19.6,5.7,21.8c6.4,1.6,13.5-6,13.5-6S697.7,354,688.6,358.1z"/>
			<path class="st13" d="M700.2,366.8c0.2,1.9,2.1,3.2,4.1,2.9c2-0.3,3.5-2,3.2-3.8c-0.2-1.9-2.1-3.2-4.1-2.9
				C701.4,363.2,699.9,364.9,700.2,366.8z"/>
			<path class="st11" d="M707.8,373.9c0,0,8.3,13,6.2,19.5c-2.1,6.5,2.7,3.3,8.2,0.7c5.5-2.6,13.4,1.6,16.9,8.8
				c3.4,7.2-3.2-15.2-13.6-19.8C715,378.5,707.8,373.9,707.8,373.9z"/>
		</g>
		<path class="st5" d="M1011.1,483.5l-8,2.5c-3.4,11.8,3.3,14,3.3,14s7.9-2.1,11.3-14L1011.1,483.5z"/>
	</g>
</g>
</svg>
