<svg id="Layer_1" data-name="Layer 1" xmlns="http://www.w3.org/2000/svg" viewBox="0 0 967.61 472.39"><defs><style>.cls-1{fill:#566181;}.cls-2{fill:#434b60;}.cls-3{fill:#7483bf;}.cls-4{fill:#c42a29;}.cls-5{fill:#ef4537;}.cls-22,.cls-6{fill:none;}.cls-6{stroke:#010101;stroke-linecap:round;stroke-linejoin:round;stroke-width:2px;}.cls-7{fill:#fcb316;}.cls-8{fill:#fcc011;}.cls-9{fill:#f19c23;}.cls-10{fill:#010101;}.cls-11{fill:#6c7d87;}.cls-12{fill:#576b76;}.cls-13{fill:#df9b5f;}.cls-14{fill:#d18c53;}.cls-15{fill:#c7c6c5;}.cls-16{fill:#b7b7b8;}.cls-17{fill:#ededee;}.cls-18{fill:#dbdada;}.cls-19{fill:#4d4947;}.cls-20{fill:#3e3a39;}.cls-21{fill:#edaf6c;}.cls-22{stroke:#000;stroke-miterlimit:10;stroke-width:8px;}.cls-23{font-size:19.88px;font-family:MyriadPro-Regular, Myriad Pro;}.cls-23,.cls-28{fill:#231f20;}.cls-24{letter-spacing:-0.01em;}.cls-25{letter-spacing:-0.08em;}.cls-26{letter-spacing:-0.08em;}.cls-27{letter-spacing:0em;}</style></defs><path class="cls-1" d="M893,172.43H752a10,10,0,0,1-10-10V129.69a10,10,0,0,1,10-10H893a10,10,0,0,1,10,10v32.72A10,10,0,0,1,893,172.43Z"/><path class="cls-2" d="M893,225.18H752a10,10,0,0,1-10-10V182.45a10,10,0,0,1,10-10H893a10,10,0,0,1,10,10v32.71A10,10,0,0,1,893,225.18Z"/><path class="cls-1" d="M893,277.93H752a10,10,0,0,1-10-10V235.2a10,10,0,0,1,10-10H893a10,10,0,0,1,10,10v32.71A10,10,0,0,1,893,277.93Z"/><circle class="cls-3" cx="768.33" cy="146.05" r="9.72"/><circle class="cls-3" cx="878" cy="141.89" r="2.78"/><circle class="cls-3" cx="866.9" cy="141.89" r="2.78"/><circle class="cls-3" cx="883.55" cy="150.22" r="2.78"/><circle class="cls-3" cx="872.45" cy="150.22" r="2.78"/><circle class="cls-3" cx="855.79" cy="141.89" r="2.78"/><circle class="cls-3" cx="861.34" cy="150.22" r="2.78"/><circle class="cls-3" cx="844.68" cy="141.89" r="2.78"/><circle class="cls-3" cx="850.24" cy="150.22" r="2.78"/><circle class="cls-3" cx="833.58" cy="141.89" r="2.78"/><circle class="cls-3" cx="839.13" cy="150.22" r="2.78"/><circle class="cls-3" cx="768.33" cy="198.8" r="9.72"/><circle class="cls-3" cx="878" cy="194.64" r="2.78"/><circle class="cls-3" cx="866.9" cy="194.64" r="2.78"/><circle class="cls-3" cx="883.55" cy="202.97" r="2.78"/><circle class="cls-3" cx="872.45" cy="202.97" r="2.78"/><circle class="cls-3" cx="855.79" cy="194.64" r="2.78"/><circle class="cls-3" cx="861.34" cy="202.97" r="2.78"/><circle class="cls-3" cx="844.68" cy="194.64" r="2.78"/><circle class="cls-3" cx="850.24" cy="202.97" r="2.78"/><circle class="cls-3" cx="833.58" cy="194.64" r="2.78"/><circle class="cls-3" cx="839.13" cy="202.97" r="2.78"/><circle class="cls-3" cx="768.33" cy="251.56" r="9.72"/><circle class="cls-3" cx="878" cy="247.39" r="2.78"/><circle class="cls-3" cx="866.9" cy="247.39" r="2.78"/><circle class="cls-3" cx="883.55" cy="255.72" r="2.78"/><circle class="cls-3" cx="872.45" cy="255.72" r="2.78"/><circle class="cls-3" cx="855.79" cy="247.39" r="2.78"/><circle class="cls-3" cx="861.34" cy="255.72" r="2.78"/><circle class="cls-3" cx="844.68" cy="247.39" r="2.78"/><circle class="cls-3" cx="850.24" cy="255.72" r="2.78"/><circle class="cls-3" cx="833.58" cy="247.39" r="2.78"/><circle class="cls-3" cx="839.13" cy="255.72" r="2.78"/><path class="cls-4" d="M345.63,186.74h59.58a4.59,4.59,0,0,1,4.59,4.58v32.09a4.59,4.59,0,0,1-4.59,4.58H345.63a4.58,4.58,0,0,1-4.59-4.58V191.32A4.58,4.58,0,0,1,345.63,186.74Z"/><path class="cls-4" d="M345.63,67.56h59.58a4.6,4.6,0,0,1,4.59,4.59v32.08a4.6,4.6,0,0,1-4.59,4.59H345.63a4.59,4.59,0,0,1-4.59-4.59V72.15A4.59,4.59,0,0,1,345.63,67.56Z"/><path class="cls-4" d="M432.71,67.56h82.51a4.59,4.59,0,0,1,4.58,4.59v32.08a4.59,4.59,0,0,1-4.58,4.59H432.71a4.59,4.59,0,0,1-4.58-4.59V72.15A4.59,4.59,0,0,1,432.71,67.56Z"/><path class="cls-5" d="M464.8,133.71v-2a4.61,4.61,0,0,0-4.58-4.58H345.63a4.61,4.61,0,0,0-4.59,4.58v32.09a4.59,4.59,0,0,0,4.59,4.58h92.95l3.3-22.92Z"/><path class="cls-4" d="M606.89,131.73v32.09a4.59,4.59,0,0,1-4.58,4.58H510.64l-4.59-27.5-22.92-4.58v-4.59a4.61,4.61,0,0,1,4.59-4.58H602.31A4.6,4.6,0,0,1,606.89,131.73Z"/><path class="cls-5" d="M412.87,246.32l-1.7,16.41-2.61,24.85H345.63A4.61,4.61,0,0,1,341,283V250.91a4.59,4.59,0,0,1,4.59-4.58h67.24Z"/><path class="cls-4" d="M606.89,250.91V283a4.6,4.6,0,0,1-4.58,4.59H544.69l.51-41.26h57.11A4.6,4.6,0,0,1,606.89,250.91Z"/><path class="cls-4" d="M542.72,67.56h59.59a4.59,4.59,0,0,1,4.58,4.59v32.08a4.59,4.59,0,0,1-4.58,4.59H542.72a4.59,4.59,0,0,1-4.58-4.59V72.15A4.59,4.59,0,0,1,542.72,67.56Z"/><path class="cls-6" d="M478.23,228H474.1"/><path class="cls-4" d="M542.72,186.74h59.59a4.58,4.58,0,0,1,4.58,4.58v32.09a4.58,4.58,0,0,1-4.58,4.58H542.72a4.58,4.58,0,0,1-4.58-4.58V191.32A4.58,4.58,0,0,1,542.72,186.74Z"/><path class="cls-5" d="M345.63,186.74h45.83a4.58,4.58,0,0,1,4.58,4.58v32.09a4.58,4.58,0,0,1-4.58,4.58H345.63a4.58,4.58,0,0,1-4.59-4.58V191.32A4.58,4.58,0,0,1,345.63,186.74Z"/><path class="cls-5" d="M345.63,67.56h45.83A4.59,4.59,0,0,1,396,72.15v32.08a4.59,4.59,0,0,1-4.58,4.59H345.63a4.59,4.59,0,0,1-4.59-4.59V72.15A4.59,4.59,0,0,1,345.63,67.56Z"/><path class="cls-5" d="M432.71,67.56h68.76a4.59,4.59,0,0,1,4.58,4.59v32.08a4.59,4.59,0,0,1-4.58,4.59H432.71a4.59,4.59,0,0,1-4.58-4.59V72.15A4.59,4.59,0,0,1,432.71,67.56Z"/><path class="cls-5" d="M593.14,131.73v32.09a4.59,4.59,0,0,1-4.58,4.58H483.13V131.73a4.61,4.61,0,0,1,4.59-4.58H588.56A4.61,4.61,0,0,1,593.14,131.73Z"/><path class="cls-5" d="M593.14,250.91V283a4.61,4.61,0,0,1-4.58,4.59H544.69l.51-41.26h43.36A4.61,4.61,0,0,1,593.14,250.91Z"/><path class="cls-5" d="M542.72,67.56h45.84a4.59,4.59,0,0,1,4.58,4.59v32.08a4.59,4.59,0,0,1-4.58,4.59H542.72a4.59,4.59,0,0,1-4.58-4.59V72.15A4.59,4.59,0,0,1,542.72,67.56Z"/><path class="cls-5" d="M542.72,186.74h45.84a4.58,4.58,0,0,1,4.58,4.58v32.09a4.58,4.58,0,0,1-4.58,4.58H542.72a4.58,4.58,0,0,1-4.58-4.58V191.32A4.58,4.58,0,0,1,542.72,186.74Z"/><path class="cls-7" d="M547.17,272.68a65.38,65.38,0,0,1-2.48,14.9A56,56,0,0,1,529,313.38a70.46,70.46,0,0,1-26.36,15.72h-.05a78.12,78.12,0,0,1-25.76,4.31,66.89,66.89,0,0,1-6.78-.32c-.55,0-1.14-.09-1.69-.14-29-3-52.62-21.31-59.82-45.37a52.56,52.56,0,0,1-2.29-15.45,54,54,0,0,1,5.82-24.29c.23-.51.5-1,.78-1.52a51.37,51.37,0,0,1,8.34-11.82,28,28,0,0,0,7.15-9.72,13.31,13.31,0,0,0,.55-2.06,12.88,12.88,0,0,0-.78-7,22.76,22.76,0,0,0-12.19-11.41c-.46-.18-3.16-1.1-6.14-2-4-1.15-8.53-2.2-9.13-1.38a25.43,25.43,0,0,1,9.13-9.49A33.41,33.41,0,0,1,425,186.74c.36-.05.78-.05,1.19-.09a56.46,56.46,0,0,1,6.1.13,1.38,1.38,0,0,1,.45,0h7.2a58.91,58.91,0,0,1-1.33-18.34,37.82,37.82,0,0,1,26.22-34.69,27.83,27.83,0,0,1,2.79-.83,23,23,0,0,1,3.08-.6,42,42,0,0,1,12.46-.18,58.59,58.59,0,0,1,8.53,1.51c.78.19,10.13,3.67,10.63,3.67-9.94,8.62-10.17,20.35-6,31.12a55.38,55.38,0,0,0,11.64,17.93l.41.41c3.85,4,7.75,8.07,11.46,12.24a129.68,129.68,0,0,1,16.41,22.09,83.77,83.77,0,0,1,9,25.26,145.57,145.57,0,0,1,1.93,16.27A82.68,82.68,0,0,1,547.17,272.68Z"/><path class="cls-8" d="M533.42,272.68a65.38,65.38,0,0,1-2.48,14.9,56,56,0,0,1-15.68,25.8,70.34,70.34,0,0,1-26.35,15.72h-.05a76,76,0,0,1-18.79,4c-.55,0-1.15-.09-1.7-.14-29-3-52.62-21.31-59.81-45.37a52.56,52.56,0,0,1-2.29-15.45,54,54,0,0,1,5.82-24.29c.23-.51.5-1,.78-1.52a51.37,51.37,0,0,1,8.34-11.82,28,28,0,0,0,7.15-9.72,13.31,13.31,0,0,0,.55-2.06,12.88,12.88,0,0,0-.78-7,22.76,22.76,0,0,0-12.19-11.41c-.46-.18-3.16-1.1-6.14-2-4-1.15-8.53-2.2-9.13-1.38a25.43,25.43,0,0,1,9.13-9.49A33.41,33.41,0,0,1,425,186.74h1.19v-.09a56.46,56.46,0,0,1,6.1.13,1.35,1.35,0,0,1,.45,0h7.2a58.91,58.91,0,0,1-1.33-18.34,37.82,37.82,0,0,1,26.22-34.69,27.83,27.83,0,0,1,2.79-.83,23.12,23.12,0,0,1,3.07-.6,53.77,53.77,0,0,1,7.25,1.33c.78.19,10.13,3.67,10.63,3.67-10,8.62-10.17,20.35-6,31.12a55.38,55.38,0,0,0,11.64,17.93l.41.41c3.85,4,7.75,8.07,11.46,12.24a129.68,129.68,0,0,1,16.41,22.09,84,84,0,0,1,9,25.26,148,148,0,0,1,1.93,16.27A82.68,82.68,0,0,1,533.42,272.68Z"/><path class="cls-5" d="M502.66,329.1h-.05a78.12,78.12,0,0,1-25.76,4.31,72.9,72.9,0,0,1-8.48-.46v-.18c-16.08-7.24-33.23-20.07-33.41-37.08a25.67,25.67,0,0,1,1.28-8.11,31.38,31.38,0,0,1,9.86-14.4c5.18-4.35,11.5-7.47,16.68-11.87.69-.59,1.38-1.19,2-1.78A28,28,0,0,0,473.14,246a69.68,69.68,0,0,0,1-18c0-1.05,0-2.06,0-3.12,0,.37,2.66,1.88,2.93,2.11s.83.64,1.24,1a49.82,49.82,0,0,1,5.64,5.13,39.83,39.83,0,0,1,11.46,24.07c.73,9.62-4.4,18.19-9.77,26.35,9.77,7,28,2.07,28-9.62,0,1,2.34,3.3,2.84,4.17a43.65,43.65,0,0,1,4.17,9.49,12.61,12.61,0,0,1,.55,1.78C525.35,305.59,516.73,319.48,502.66,329.1Z"/><path class="cls-9" d="M502.61,329.1a1.24,1.24,0,0,1-.18.14"/><path class="cls-10" d="M345.63,113.4h59.58a9.19,9.19,0,0,0,9.17-9.17V72.15A9.19,9.19,0,0,0,405.21,63H345.63a9.19,9.19,0,0,0-9.17,9.17v32.08A9.19,9.19,0,0,0,345.63,113.4Zm0-41.25h59.58v32.08H345.63Z"/><path class="cls-10" d="M368.54,81.31h-9.16a4.59,4.59,0,1,0,0,9.17h9.16a4.59,4.59,0,1,0,0-9.17Z"/><path class="cls-10" d="M515.22,113.4a9.19,9.19,0,0,0,9.17-9.17V72.15A9.19,9.19,0,0,0,515.22,63H432.71a9.17,9.17,0,0,0-9.16,9.17v32.08a9.17,9.17,0,0,0,9.16,9.17ZM432.71,72.15h82.51v32.08H432.71Z"/><path class="cls-10" d="M469.38,81.31H446.46a4.59,4.59,0,0,0,0,9.17h22.92a4.59,4.59,0,1,0,0-9.17Z"/><path class="cls-10" d="M382.29,140.9H359.38a4.59,4.59,0,1,0,0,9.17h22.91a4.59,4.59,0,1,0,0-9.17Z"/><path class="cls-10" d="M602.31,122.57H487.72a9,9,0,0,0-7.88,4.67,45.23,45.23,0,0,0-11.26.78,9.16,9.16,0,0,0-8.36-5.45H345.63a9.17,9.17,0,0,0-9.17,9.16v32.09a9.18,9.18,0,0,0,9.17,9.17h88.25a63.74,63.74,0,0,0,.56,9.16h-1.73c-.27,0-.54,0-.82,0A42.8,42.8,0,0,0,412,185.26a9.14,9.14,0,0,0-6.83-3.11H345.63a9.19,9.19,0,0,0-9.17,9.17v32.09a9.17,9.17,0,0,0,9.17,9.16h59.58a9.17,9.17,0,0,0,9.17-9.16V208.69a18,18,0,0,1,9.5,8.79,8.13,8.13,0,0,1,.53,4.39,10.45,10.45,0,0,1-.39,1.43,23.41,23.41,0,0,1-5.78,7.68l-.35.36a54.33,54.33,0,0,0-7.69,10.4H345.63a9.19,9.19,0,0,0-9.17,9.17V283a9.18,9.18,0,0,0,9.17,9.17H405.3c8.87,24.32,33.54,42.37,62.56,45.35a79.4,79.4,0,0,0,9,.49,82.68,82.68,0,0,0,26.37-4.29,4.35,4.35,0,0,0,.78-.23l.11,0a75.33,75.33,0,0,0,28.07-16.75,60.89,60.89,0,0,0,15.74-24.54h54.39a9.17,9.17,0,0,0,9.16-9.17V250.91a9.17,9.17,0,0,0-9.16-9.17H548.84c-.74-3.17-1.58-6.24-2.58-9.17h56a9.16,9.16,0,0,0,9.16-9.16V191.32a9.17,9.17,0,0,0-9.16-9.17H542.72a9.19,9.19,0,0,0-9.17,9.17V208.6c-2.88-3.93-6.24-8.07-10.32-12.67-3.26-3.66-6.65-7.21-10-10.75l-2-2A52.65,52.65,0,0,1,503.64,173h98.67a9.17,9.17,0,0,0,9.16-9.17V131.73A9.16,9.16,0,0,0,602.31,122.57Zm-256.68,9.16H457.42a41.84,41.84,0,0,0-22.77,32.09h-89Zm0,91.68V191.32l56.72.18a28.7,28.7,0,0,0-5.58,7.06,4.58,4.58,0,0,0,5.45,6.75,27.24,27.24,0,0,1,3,.59v17.51Zm0,27.5h60.15a58.4,58.4,0,0,0-4.09,21.22A57.36,57.36,0,0,0,402.75,283H345.63ZM470.05,328.5c-7.36-3.34-30.31-15.18-30.51-32.81a21.7,21.7,0,0,1,1.07-6.74,26.7,26.7,0,0,1,8.44-12.25,77.18,77.18,0,0,1,7.79-5.52,86.53,86.53,0,0,0,8.94-6.4c.73-.63,1.46-1.27,2.18-1.94a32.35,32.35,0,0,0,9.64-15.77,52.67,52.67,0,0,0,1.22-12.52c.57.54,1.14,1.12,1.71,1.71a35.49,35.49,0,0,1,10.23,21.28c.61,8.07-3.92,15.72-9,23.49a4.59,4.59,0,0,0,1.17,6.25,25.55,25.55,0,0,0,25.56,1.24,19.6,19.6,0,0,0,5.87-4.52,39.11,39.11,0,0,1,2,5.22,9.76,9.76,0,0,1,.4,1.3c4.39,16.91-7.89,28.67-16.05,34.39a73.5,73.5,0,0,1-23.8,3.92C474.46,328.83,472.24,328.71,470.05,328.5ZM602.31,283H550.43a72.49,72.49,0,0,0,1.31-10.06,87.84,87.84,0,0,0,0-10.64c-.28-4.07-.7-7.78-1.2-11.38h51.81Zm-59.59-91.67h59.59v32.09h-59.6Zm-36.15.2c3.31,3.45,6.63,6.93,9.8,10.5a123,123,0,0,1,15.84,21.29,78.65,78.65,0,0,1,8.47,23.82,141.88,141.88,0,0,1,1.87,15.77,77.71,77.71,0,0,1,0,9.53,60.82,60.82,0,0,1-2.31,13.92,51.74,51.74,0,0,1-14.44,23.72c-.68.65-1.45,1.22-2.16,1.85a35.44,35.44,0,0,0,1.91-23.6,13.16,13.16,0,0,0-.61-2,47.82,47.82,0,0,0-4.6-10.49,16,16,0,0,0-1.43-1.92c-.33-.4-.71-.83-1-1.22a4.59,4.59,0,0,0-9,1.26,7.54,7.54,0,0,1-4.72,6.45,17.41,17.41,0,0,1-12,1.26,41.46,41.46,0,0,0,7.68-24.75A44,44,0,0,0,487.19,230a52.23,52.23,0,0,0-5.92-5.4c-.49-.44-1-.83-1.37-1.13-.13-.11-.58-.42-1.17-.79-.36-.22-.83-.51-1.2-.76a4.58,4.58,0,0,0-8.06,3c0,1.12,0,2.2,0,3.21l0,1.76a58.28,58.28,0,0,1-.88,15.09,23.32,23.32,0,0,1-7,11.23c-.6.56-1.25,1.11-1.87,1.65a78.46,78.46,0,0,1-8,5.68,86.66,86.66,0,0,0-8.69,6.19,35.8,35.8,0,0,0-11.25,16.44,30.18,30.18,0,0,0-1.51,9.61,35.4,35.4,0,0,0,10.79,24,58.29,58.29,0,0,1-28.23-33.53,48.51,48.51,0,0,1-2.09-14.11,50.16,50.16,0,0,1,5.41-22.41c.16-.34.35-.69.66-1.25a47,47,0,0,1,7.9-11.11,30.74,30.74,0,0,0,7.85-11,18.28,18.28,0,0,0,.76-2.84,17.43,17.43,0,0,0-1-9.42,27.18,27.18,0,0,0-14.74-14c-.76-.31-3.69-1.28-6.59-2.12l-1.69-.48a23.32,23.32,0,0,1,2.84-2.09,31.83,31.83,0,0,1,19.68-4.05,1.15,1.15,0,0,0,.19,0l.18,0a4.6,4.6,0,0,0,.64-.05h7c.11,0,.21,0,.32-.06a5.65,5.65,0,0,0,.71,0,2.92,2.92,0,0,0,.36-.17,5,5,0,0,0,1.54-.85,4.22,4.22,0,0,0,1.39-2.15,4.1,4.1,0,0,0,.19-.91c0-.14.07-.25.07-.39a3.06,3.06,0,0,0-.1-.51,4.56,4.56,0,0,0,0-.52,54.2,54.2,0,0,1-1.23-16.89A33.51,33.51,0,0,1,466.3,138q1.2-.42,2.43-.72a37.53,37.53,0,0,1,14-.65,52.31,52.31,0,0,1,7.76,1.37c.48.14,2,.7,3.77,1.32a31.55,31.55,0,0,0-2.22,30.7l.05.09,0,.08a60.23,60.23,0,0,0,12.6,19.34Zm95.74-27.7H499.56a20.83,20.83,0,0,1,5.74-23.07,4.59,4.59,0,0,0-2.13-8c-.54-.16-1.72-.57-3.05-1.05H602.31v32.09Z"/><path class="cls-10" d="M382.29,260.08H359.38a4.58,4.58,0,1,0,0,9.16h22.91a4.58,4.58,0,1,0,0-9.16Z"/><path class="cls-10" d="M602.31,63H542.72a9.19,9.19,0,0,0-9.17,9.17v32.08a9.19,9.19,0,0,0,9.17,9.17h59.59a9.17,9.17,0,0,0,9.16-9.17V72.15A9.17,9.17,0,0,0,602.31,63Zm-59.59,41.25V72.15h59.59v32.08Z"/><path class="cls-10" d="M588.56,81.31H584a4.59,4.59,0,0,0,0,9.17h4.59a4.59,4.59,0,0,0,0-9.17Z"/><path class="cls-10" d="M368.54,200.49h-9.16a4.59,4.59,0,1,0,0,9.17h9.16a4.59,4.59,0,1,0,0-9.17Z"/><path class="cls-10" d="M588.56,200.49H584a4.59,4.59,0,0,0,0,9.17h4.59a4.59,4.59,0,0,0,0-9.17Z"/><path class="cls-11" d="M178.15,269.92c-.11-.56-6.89-34.62-7-35a13.22,13.22,0,0,0-6.25-8.91,15.19,15.19,0,0,0-4.3-1.74l-23.12-8.08a3.37,3.37,0,0,1-2.28-3.19V206a29.07,29.07,0,0,1-26.38.12v7a3.38,3.38,0,0,1-2.29,3.19l-9.5,3.26h0L83.46,224.3l-1.79.53a13.61,13.61,0,0,0-7.61,6.7c-1.09,2.2-.77,1.43-6,27.93-2,10.12-2.38,10.86-2.14,13.12.68,6.32,7.18,5.66,7.36,5.74h97.62C170.92,278.3,179.43,278.94,178.15,269.92Z"/><path class="cls-12" d="M73.87,269.92l7-38.15a13.25,13.25,0,0,1,5.75-8.58c-5.85,2.07-4,1.24-5.83,2A13.33,13.33,0,0,0,73.43,233c-.51,1.47-.18.17-5.42,26.45-2,10.12-2.38,10.86-2.14,13.12.68,6.32,7.18,5.66,7.36,5.74h7.94C75.57,278.32,73.15,275,73.87,269.92Z"/><path class="cls-13" d="M87.6,278.32H73.23c-.18-.08-7.6.66-7.41-7.06,0-1.65.25-1.72,2.19-11.8l.12-.57H87.6Z"/><path class="cls-14" d="M75.88,258.89H68.13l-.12.57c-2,10.11-2.15,10.15-2.19,11.8-.18,7.7,7.26,7,7.41,7.06h7.94c-5.16,0-7.51-2.72-7.41-7.06C73.77,270.75,74,269.7,75.88,258.89Z"/><path class="cls-13" d="M108.85,204.85v13.3h0v.48a7.35,7.35,0,0,0,5,7,26.77,26.77,0,0,0,16.33,0,7.35,7.35,0,0,0,5-7v-.48h0v-13.3A27.65,27.65,0,0,1,108.85,204.85Z"/><path class="cls-14" d="M116.8,220.79h0V208.62a29.13,29.13,0,0,1-7.94-2.84v12.37h0v.48a7.35,7.35,0,0,0,5,7,23.52,23.52,0,0,0,4.67,1.06A9.39,9.39,0,0,1,116.8,220.79Z"/><path class="cls-12" d="M87.6,251.1a2.39,2.39,0,0,0-2.38,2.38v24.84H90V253.48A2.38,2.38,0,0,0,87.6,251.1Z"/><path class="cls-15" d="M199.16,278.32H122a5.83,5.83,0,0,1-5.83-5.83h0a3.34,3.34,0,0,1,3.34-3.34h82.1a3.34,3.34,0,0,1,3.33,3.34h0A5.82,5.82,0,0,1,199.16,278.32Z"/><path class="cls-16" d="M131.22,272.49h0a3.34,3.34,0,0,1,3.34-3.34h-15a3.34,3.34,0,0,0-3.34,3.34h0a5.83,5.83,0,0,0,5.83,5.83h15A5.83,5.83,0,0,1,131.22,272.49Z"/><path class="cls-17" d="M194.11,218.15h-67a3.82,3.82,0,0,0-3.81,3.82v43.37a3.82,3.82,0,0,0,3.81,3.81h67a3.82,3.82,0,0,0,3.81-3.81V222A3.83,3.83,0,0,0,194.11,218.15Z"/><path class="cls-18" d="M131.22,265.34V222a3.82,3.82,0,0,1,3.81-3.82h-7.94a3.82,3.82,0,0,0-3.81,3.82v43.37a3.82,3.82,0,0,0,3.81,3.81H135A3.82,3.82,0,0,1,131.22,265.34Z"/><circle class="cls-18" cx="160.6" cy="243.65" r="5.51"/><path class="cls-15" d="M160.6,238.15a5.5,5.5,0,1,0,4.76,8.25A5.5,5.5,0,0,1,160.6,238.15Z"/><path class="cls-19" d="M121.32,120.52a38.12,38.12,0,0,0-37.84,38.11v14.45h76.23V151.47c0-14.76-9.08-18.16-9.08-18.16-11.29-13.92-29.3-12.79-29.3-12.79"/><path class="cls-20" d="M126.47,120.75a38.24,38.24,0,0,0-43,36.38c-.06,1.54,0,1,0,16h9.08V158.63A38.11,38.11,0,0,1,126.47,120.75Z"/><path class="cls-13" d="M92.86,168.54c-4.78-1.7-10,1.46-10,6.09s5.19,7.79,10,6.08Z"/><path class="cls-13" d="M150.32,168.54c4.78-1.7,10,1.46,10,6.09s-5.19,7.79-10,6.08Z"/><path class="cls-14" d="M83.59,171.83c-2.79,5.3,3.09,11.09,9.27,8.88v-5.59A7.63,7.63,0,0,1,83.59,171.83Z"/><path class="cls-14" d="M150.32,175.12v5.59c6.18,2.21,12.06-3.58,9.27-8.88C158.42,174.05,153.93,176.4,150.32,175.12Z"/><path class="cls-21" d="M149.32,156.48a1.44,1.44,0,0,1,1.31,1.43c0,24.44,0,22.6,0,23.74a29,29,0,0,1-8.73,19.3c-18.13,17.67-48.37,5.14-49.28-19.64,0-1.1,0-13.76,0-13.72a9.33,9.33,0,0,1,10.68-9.23c8.88,1.28,21.83.79,33.13-8.87a2.4,2.4,0,0,1,3.67.66A11.73,11.73,0,0,0,149.32,156.48Z"/><path class="cls-13" d="M100.53,181.31c0-.94,0-18.09,0-22.94a9.33,9.33,0,0,0-7.94,9.22s0,12.62,0,13.72c.67,18.27,17.29,29.88,33.24,27.64C112.72,207.14,101.08,196.54,100.53,181.31Z"/><line class="cls-22" x1="233.48" y1="173.08" x2="296.51" y2="173.08"/><polygon points="280.57 186.64 294.14 173.07 280.57 159.51 292.09 159.51 305.65 173.07 292.09 186.64 280.57 186.64"/><line class="cls-22" x1="293.04" y1="197.24" x2="230.01" y2="197.24"/><polygon points="245.95 183.68 232.38 197.24 245.95 210.81 234.43 210.81 220.87 197.24 234.43 183.68 245.95 183.68"/><line class="cls-22" x1="650.87" y1="171.63" x2="713.9" y2="171.63"/><polygon points="697.97 185.19 711.53 171.63 697.97 158.06 709.48 158.06 723.04 171.63 709.48 185.19 697.97 185.19"/><line class="cls-22" x1="710.43" y1="195.8" x2="647.4" y2="195.8"/><polygon points="663.34 182.23 649.77 195.8 663.34 209.36 651.82 209.36 638.26 195.8 651.82 182.23 663.34 182.23"/><text class="cls-23" transform="translate(234.12 113.68)"><tspan class="cls-24">D</tspan><tspan class="cls-25" x="12.96" y="0">A</tspan><tspan class="cls-26" x="23.6" y="0">T</tspan><tspan x="31.99" y="0">A </tspan><tspan x="-10.06" y="23.86">T</tspan><tspan class="cls-27" x="-0.18" y="23.86">R</tspan><tspan x="10.62" y="23.86">AFFIC</tspan></text><path class="cls-28" d="M63.87,310.72v7.93c0,3,1.33,4.28,3.12,4.28,2,0,3.26-1.32,3.26-4.28v-7.93H72v7.81c0,4.12-2.17,5.81-5.07,5.81-2.74,0-4.81-1.57-4.81-5.73v-7.89Z"/><path class="cls-28" d="M74.58,322.33a4.6,4.6,0,0,0,2.31.69c1.27,0,1.87-.63,1.87-1.43s-.5-1.29-1.79-1.77c-1.73-.61-2.54-1.57-2.54-2.72,0-1.55,1.25-2.82,3.32-2.82a4.78,4.78,0,0,1,2.36.59l-.44,1.28a3.69,3.69,0,0,0-2-.56c-1,0-1.62.59-1.62,1.31s.58,1.15,1.83,1.63c1.67.64,2.53,1.47,2.53,2.9,0,1.69-1.31,2.89-3.6,2.89a5.44,5.44,0,0,1-2.7-.66Z"/><path class="cls-28" d="M83.67,319.63A3.09,3.09,0,0,0,87,323a6.26,6.26,0,0,0,2.66-.5l.3,1.25a7.73,7.73,0,0,1-3.2.6c-3,0-4.73-1.95-4.73-4.85s1.71-5.19,4.51-5.19c3.14,0,4,2.76,4,4.53a6.64,6.64,0,0,1-.06.82Zm5.13-1.26c0-1.11-.46-2.84-2.43-2.84-1.77,0-2.54,1.63-2.68,2.84Z"/><path class="cls-28" d="M92.66,317.5c0-1.14,0-2.11-.08-3h1.53l.06,1.88h.08a2.87,2.87,0,0,1,2.66-2.1,1.9,1.9,0,0,1,.5.06V316a2.64,2.64,0,0,0-.6-.06,2.46,2.46,0,0,0-2.35,2.24,5,5,0,0,0-.07.82v5.13H92.66Z"/><path class="cls-28" d="M103.43,310.9a18,18,0,0,1,3.32-.28,5.52,5.52,0,0,1,3.88,1.09,3.36,3.36,0,0,1,1.05,2.55,3.52,3.52,0,0,1-2.52,3.42v.06a3.34,3.34,0,0,1,2,2.7,20.7,20.7,0,0,0,1,3.68h-1.79a17.32,17.32,0,0,1-.9-3.2c-.39-1.85-1.11-2.55-2.68-2.61h-1.63v5.81h-1.73Zm1.73,6.1h1.77c1.85,0,3-1,3-2.54,0-1.73-1.25-2.49-3.08-2.51a7.12,7.12,0,0,0-1.71.16Z"/><path class="cls-28" d="M115.12,319.63a3.09,3.09,0,0,0,3.3,3.34,6.35,6.35,0,0,0,2.67-.5l.29,1.25a7.73,7.73,0,0,1-3.2.6c-3,0-4.73-1.95-4.73-4.85s1.71-5.19,4.51-5.19c3.15,0,4,2.76,4,4.53a6.64,6.64,0,0,1-.06.82Zm5.13-1.26c0-1.11-.46-2.84-2.43-2.84-1.77,0-2.54,1.63-2.68,2.84Z"/><path class="cls-28" d="M130.67,322.63h0a3.44,3.44,0,0,1-3.14,1.71c-2.25,0-4.08-1.95-4.08-4.87,0-3.6,2.33-5.19,4.35-5.19a3.16,3.16,0,0,1,3,1.67h0l.06-1.45h1.65c0,.81-.06,1.65-.06,2.64v10.91h-1.75Zm0-4.24a2.92,2.92,0,0,0-.08-.73,2.55,2.55,0,0,0-2.51-2c-1.81,0-2.9,1.53-2.9,3.7,0,1.9.91,3.58,2.84,3.58a2.61,2.61,0,0,0,2.51-1.91,3,3,0,0,0,.14-.84Z"/><path class="cls-28" d="M143.35,321.49c0,1,0,1.87.08,2.63h-1.55l-.1-1.57h0a3.63,3.63,0,0,1-3.18,1.79c-1.51,0-3.32-.84-3.32-4.22V314.5H137v5.32c0,1.83.56,3.07,2.15,3.07a2.53,2.53,0,0,0,2.3-1.59,2.57,2.57,0,0,0,.16-.9v-5.9h1.75Z"/><path class="cls-28" d="M147.23,319.63a3.09,3.09,0,0,0,3.3,3.34,6.26,6.26,0,0,0,2.66-.5l.3,1.25a7.77,7.77,0,0,1-3.2.6c-3,0-4.73-1.95-4.73-4.85s1.71-5.19,4.51-5.19c3.14,0,4,2.76,4,4.53a6.64,6.64,0,0,1-.06.82Zm5.13-1.26c0-1.11-.46-2.84-2.43-2.84-1.77,0-2.54,1.63-2.68,2.84Z"/><path class="cls-28" d="M156,322.33a4.6,4.6,0,0,0,2.31.69c1.27,0,1.87-.63,1.87-1.43s-.5-1.29-1.79-1.77c-1.73-.61-2.54-1.57-2.54-2.72,0-1.55,1.25-2.82,3.32-2.82a4.75,4.75,0,0,1,2.36.59l-.44,1.28a3.69,3.69,0,0,0-2-.56c-1,0-1.61.59-1.61,1.31s.57,1.15,1.83,1.63c1.67.64,2.52,1.47,2.52,2.9,0,1.69-1.31,2.89-3.6,2.89a5.44,5.44,0,0,1-2.7-.66Z"/><path class="cls-28" d="M166.19,311.73v2.77h2.51v1.33h-2.51V321c0,1.19.34,1.87,1.32,1.87a3.89,3.89,0,0,0,1-.12l.08,1.31a4.29,4.29,0,0,1-1.55.24,2.42,2.42,0,0,1-1.89-.74,3.55,3.55,0,0,1-.68-2.5v-5.25H163V314.5h1.49v-2.31Z"/><path class="cls-28" d="M177,311.73v2.77h2.5v1.33H177V321c0,1.19.34,1.87,1.31,1.87a3.92,3.92,0,0,0,1-.12l.07,1.31a4.21,4.21,0,0,1-1.55.24,2.43,2.43,0,0,1-1.89-.74,3.6,3.6,0,0,1-.67-2.5v-5.25h-1.49V314.5h1.49v-2.31Z"/><path class="cls-28" d="M190.05,319.23c0,3.56-2.46,5.11-4.79,5.11-2.6,0-4.61-1.91-4.61-4.95,0-3.22,2.1-5.11,4.77-5.11S190.05,316.28,190.05,319.23Zm-7.63.1c0,2.1,1.21,3.69,2.92,3.69s2.92-1.57,2.92-3.73c0-1.63-.81-3.7-2.88-3.7S182.42,317.5,182.42,319.33Z"/><path class="cls-28" d="M46.85,335.59v2.76h2.51v1.33H46.85v5.19c0,1.2.34,1.87,1.31,1.87a3.92,3.92,0,0,0,1-.12l.08,1.32a4.56,4.56,0,0,1-1.55.23,2.4,2.4,0,0,1-1.89-.73,3.56,3.56,0,0,1-.68-2.51v-5.25H43.65v-1.33h1.49v-2.3Z"/><path class="cls-28" d="M51.32,333.86h1.75v6h0a3.31,3.31,0,0,1,1.26-1.23,3.56,3.56,0,0,1,1.79-.5c1.29,0,3.36.8,3.36,4.12V348H57.77v-5.52c0-1.55-.58-2.86-2.23-2.86a2.52,2.52,0,0,0-2.35,1.74,2.13,2.13,0,0,0-.12.84V348H51.32Z"/><path class="cls-28" d="M63.33,343.48a3.08,3.08,0,0,0,3.3,3.34,6.35,6.35,0,0,0,2.67-.5l.29,1.26a7.76,7.76,0,0,1-3.2.59c-3,0-4.73-1.94-4.73-4.85s1.71-5.19,4.51-5.19c3.15,0,4,2.77,4,4.54a6.61,6.61,0,0,1-.06.81Zm5.13-1.25c0-1.11-.46-2.84-2.42-2.84-1.77,0-2.55,1.63-2.69,2.84Z"/><path class="cls-28" d="M77.23,338.35l1.27,4.89c.28,1.08.54,2.07.72,3.06h.06c.21-1,.53-2,.85-3l1.57-4.91h1.47l1.49,4.81c.36,1.16.64,2.17.86,3.14h.06a31.84,31.84,0,0,1,.73-3.12l1.38-4.83h1.73L86.31,348H84.72l-1.47-4.59a31.85,31.85,0,0,1-.85-3.16h0a28.28,28.28,0,0,1-.88,3.18L79.93,348H78.34l-2.9-9.62Z"/><path class="cls-28" d="M91.94,343.48a3.08,3.08,0,0,0,3.3,3.34,6.26,6.26,0,0,0,2.66-.5l.3,1.26a7.76,7.76,0,0,1-3.2.59c-3,0-4.73-1.94-4.73-4.85s1.71-5.19,4.51-5.19c3.14,0,4,2.77,4,4.54a6.61,6.61,0,0,1-.06.81Zm5.13-1.25c0-1.11-.46-2.84-2.43-2.84-1.77,0-2.54,1.63-2.68,2.84Z"/><path class="cls-28" d="M100.85,348c0-.65.08-1.62.08-2.48V333.86h1.73v6h0a3.58,3.58,0,0,1,3.28-1.77c2.38,0,4.07,2,4,4.91,0,3.44-2.17,5.15-4.31,5.15a3.41,3.41,0,0,1-3.22-1.81h-.06l-.08,1.59Zm1.81-3.85a3.19,3.19,0,0,0,.08.63,2.68,2.68,0,0,0,2.62,2.05c1.83,0,2.92-1.49,2.92-3.7,0-1.92-1-3.57-2.86-3.57a2.78,2.78,0,0,0-2.66,2.14,3.47,3.47,0,0,0-.1.72Z"/><path class="cls-28" d="M121.78,348l-.14-1.21h-.06a3.57,3.57,0,0,1-2.94,1.43,2.74,2.74,0,0,1-2.94-2.76c0-2.33,2.06-3.6,5.78-3.58v-.2a2,2,0,0,0-2.18-2.22,4.78,4.78,0,0,0-2.51.71l-.4-1.15a6,6,0,0,1,3.16-.86c3,0,3.66,2,3.66,3.94v3.6a13.39,13.39,0,0,0,.16,2.3Zm-.26-4.91c-1.91,0-4.07.3-4.07,2.17a1.55,1.55,0,0,0,1.65,1.67,2.38,2.38,0,0,0,2.32-1.61,1.84,1.84,0,0,0,.1-.56Z"/><path class="cls-28" d="M126,341.49c0-1.23,0-2.22-.07-3.14h1.57l.08,1.65h0a3.77,3.77,0,0,1,3.41-1.87c2.33,0,4.08,2,4.08,4.89,0,3.46-2.11,5.17-4.37,5.17a3.37,3.37,0,0,1-3-1.51h0v5.23H126Zm1.73,2.57a3.85,3.85,0,0,0,.08.71,2.7,2.7,0,0,0,2.63,2.05c1.85,0,2.92-1.51,2.92-3.72,0-1.92-1-3.57-2.86-3.57a2.8,2.8,0,0,0-2.65,2.16,2.85,2.85,0,0,0-.12.72Z"/><path class="cls-28" d="M137.35,341.49c0-1.23,0-2.22-.08-3.14h1.57l.08,1.65h0a3.78,3.78,0,0,1,3.42-1.87c2.32,0,4.07,2,4.07,4.89,0,3.46-2.11,5.17-4.37,5.17a3.35,3.35,0,0,1-3-1.51h0v5.23h-1.73Zm1.73,2.57a3.85,3.85,0,0,0,.08.71,2.68,2.68,0,0,0,2.62,2.05c1.85,0,2.92-1.51,2.92-3.72,0-1.92-1-3.57-2.86-3.57a2.78,2.78,0,0,0-2.64,2.16,2.85,2.85,0,0,0-.12.72Z"/><path class="cls-28" d="M148.66,333.86h1.75V348h-1.75Z"/><path class="cls-28" d="M155.3,335.65a1.09,1.09,0,0,1-2.17,0,1.07,1.07,0,0,1,1.09-1.1A1,1,0,0,1,155.3,335.65Zm-2,12.32v-9.62h1.75V348Z"/><path class="cls-28" d="M164.86,347.62a6.44,6.44,0,0,1-2.76.55,4.57,4.57,0,0,1-4.79-4.91,4.89,4.89,0,0,1,5.17-5.11,5.82,5.82,0,0,1,2.42.5l-.4,1.35a4,4,0,0,0-2-.45,3.62,3.62,0,0,0-.06,7.23,4.9,4.9,0,0,0,2.14-.48Z"/><path class="cls-28" d="M172.24,348l-.14-1.21H172a3.57,3.57,0,0,1-2.94,1.43,2.75,2.75,0,0,1-2.95-2.76c0-2.33,2.07-3.6,5.79-3.58v-.2a2,2,0,0,0-2.19-2.22,4.75,4.75,0,0,0-2.5.71l-.4-1.15a5.93,5.93,0,0,1,3.16-.86c2.94,0,3.66,2,3.66,3.94v3.6a13.39,13.39,0,0,0,.16,2.3Zm-.26-4.91c-1.91,0-4.08.3-4.08,2.17a1.55,1.55,0,0,0,1.65,1.67,2.39,2.39,0,0,0,2.33-1.61,1.84,1.84,0,0,0,.1-.56Z"/><path class="cls-28" d="M178.52,335.59v2.76H181v1.33h-2.5v5.19c0,1.2.34,1.87,1.31,1.87a3.92,3.92,0,0,0,1-.12l.08,1.32a4.58,4.58,0,0,1-1.56.23,2.39,2.39,0,0,1-1.88-.73,3.56,3.56,0,0,1-.68-2.51v-5.25h-1.49v-1.33h1.49v-2.3Z"/><path class="cls-28" d="M184.94,335.65a1.09,1.09,0,0,1-2.17,0,1.07,1.07,0,0,1,1.1-1.1A1,1,0,0,1,184.94,335.65ZM183,348v-9.62h1.75V348Z"/><path class="cls-28" d="M196.35,343.08c0,3.56-2.46,5.11-4.79,5.11-2.6,0-4.61-1.9-4.61-4.95,0-3.22,2.11-5.11,4.77-5.11S196.35,340.14,196.35,343.08Zm-7.63.1c0,2.11,1.21,3.7,2.92,3.7s2.92-1.57,2.92-3.74c0-1.63-.81-3.69-2.88-3.69S188.72,341.35,188.72,343.18Z"/><path class="cls-28" d="M198.56,341c0-1,0-1.81-.08-2.61H200l.1,1.59h0a3.55,3.55,0,0,1,3.18-1.81c1.33,0,3.4.8,3.4,4.1V348H205v-5.54c0-1.55-.58-2.84-2.23-2.84a2.48,2.48,0,0,0-2.34,1.78,2.53,2.53,0,0,0-.12.82V348h-1.75Z"/><path class="cls-28" d="M771,326.13a6.12,6.12,0,0,0,3.1.87c1.77,0,2.8-.93,2.8-2.28s-.71-2-2.52-2.67c-2.19-.77-3.54-1.91-3.54-3.79,0-2.09,1.73-3.64,4.34-3.64a6.2,6.2,0,0,1,3,.65l-.48,1.41a5.45,5.45,0,0,0-2.54-.63c-1.83,0-2.53,1.09-2.53,2,0,1.25.82,1.87,2.67,2.58,2.26.88,3.41,2,3.41,3.94s-1.53,3.86-4.69,3.86a6.91,6.91,0,0,1-3.42-.86Z"/><path class="cls-28" d="M782.1,323.74a3.08,3.08,0,0,0,3.3,3.34,6.5,6.5,0,0,0,2.67-.49l.3,1.25a7.77,7.77,0,0,1-3.2.6c-3,0-4.74-1.95-4.74-4.86s1.71-5.19,4.52-5.19c3.14,0,4,2.77,4,4.54a6.44,6.44,0,0,1-.06.81Zm5.13-1.25c0-1.11-.45-2.84-2.42-2.84-1.77,0-2.55,1.63-2.69,2.84Z"/><path class="cls-28" d="M791.09,321.62c0-1.14,0-2.11-.08-3h1.53l.06,1.89h.08a2.89,2.89,0,0,1,2.66-2.11,2.45,2.45,0,0,1,.5.06v1.65a3.42,3.42,0,0,0-.59-.05,2.45,2.45,0,0,0-2.35,2.24,5,5,0,0,0-.08.82v5.13h-1.73Z"/><path class="cls-28" d="M798.76,318.61l1.89,5.41a24.75,24.75,0,0,1,.78,2.47h.06c.22-.8.49-1.59.81-2.47l1.87-5.41H806l-3.78,9.63h-1.67l-3.66-9.63Z"/><path class="cls-28" d="M808.43,323.74a3.08,3.08,0,0,0,3.3,3.34,6.48,6.48,0,0,0,2.66-.49l.3,1.25a7.77,7.77,0,0,1-3.2.6c-3,0-4.73-1.95-4.73-4.86s1.71-5.19,4.51-5.19c3.14,0,4,2.77,4,4.54a6.44,6.44,0,0,1-.06.81Zm5.12-1.25c0-1.11-.45-2.84-2.42-2.84a2.89,2.89,0,0,0-2.68,2.84Z"/><path class="cls-28" d="M817.41,321.62c0-1.14,0-2.11-.08-3h1.53l.06,1.89H819a2.9,2.9,0,0,1,2.67-2.11,2.43,2.43,0,0,1,.49.06v1.65a3.42,3.42,0,0,0-.59-.05,2.45,2.45,0,0,0-2.35,2.24,5,5,0,0,0-.08.82v5.13h-1.73Z"/><path class="cls-28" d="M836.84,323.35a4.71,4.71,0,0,1-4.8,5.11c-2.6,0-4.61-1.91-4.61-4.95,0-3.23,2.11-5.12,4.77-5.12S836.84,320.4,836.84,323.35Zm-7.64.1c0,2.1,1.21,3.69,2.92,3.69s2.93-1.57,2.93-3.73c0-1.64-.82-3.7-2.89-3.7S829.2,321.62,829.2,323.45Z"/><path class="cls-28" d="M839.22,328.24V320h-1.35v-1.34h1.35v-.45a4.54,4.54,0,0,1,1.11-3.36,3.36,3.36,0,0,1,2.35-.9,4,4,0,0,1,1.49.28l-.24,1.35a2.58,2.58,0,0,0-1.11-.22c-1.49,0-1.87,1.32-1.87,2.79v.51h2.33V320H841v8.29Z"/><path class="cls-28" d="M851.17,315.85v2.76h2.5V320h-2.5v5.19c0,1.19.34,1.86,1.31,1.86a4.53,4.53,0,0,0,1-.11l.07,1.31a4.21,4.21,0,0,1-1.55.24,2.39,2.39,0,0,1-1.88-.74,3.56,3.56,0,0,1-.68-2.51V320H848v-1.34h1.49v-2.3Z"/><path class="cls-28" d="M855.64,314.12h1.75v6h0a3.31,3.31,0,0,1,1.25-1.24,3.61,3.61,0,0,1,1.79-.5c1.3,0,3.36.8,3.36,4.12v5.73h-1.75v-5.53c0-1.55-.57-2.86-2.22-2.86a2.51,2.51,0,0,0-2.35,1.75,2.08,2.08,0,0,0-.12.83v5.81h-1.75Z"/><path class="cls-28" d="M867.65,323.74a3.08,3.08,0,0,0,3.3,3.34,6.44,6.44,0,0,0,2.66-.49l.3,1.25a7.73,7.73,0,0,1-3.2.6c-3,0-4.73-1.95-4.73-4.86s1.71-5.19,4.51-5.19c3.14,0,4,2.77,4,4.54a6.44,6.44,0,0,1-.06.81Zm5.13-1.25c0-1.11-.46-2.84-2.43-2.84-1.77,0-2.54,1.63-2.68,2.84Z"/><path class="cls-28" d="M758.09,342.47l1.27,4.89c.28,1.08.54,2.07.72,3.06h.06c.21-1,.53-2,.85-3l1.57-4.91H764l1.49,4.81c.36,1.16.64,2.17.86,3.14h.06a31.84,31.84,0,0,1,.73-3.12l1.38-4.83h1.73l-3.11,9.62h-1.59l-1.47-4.59a31.85,31.85,0,0,1-.85-3.16h0a28.28,28.28,0,0,1-.88,3.18l-1.55,4.57H759.2l-2.9-9.62Z"/><path class="cls-28" d="M772.8,347.6a3.08,3.08,0,0,0,3.3,3.34,6.26,6.26,0,0,0,2.66-.5l.3,1.26a7.93,7.93,0,0,1-3.2.59c-3,0-4.73-2-4.73-4.85s1.71-5.19,4.51-5.19c3.14,0,4,2.77,4,4.54a6.61,6.61,0,0,1-.06.81Zm5.13-1.25c0-1.12-.46-2.84-2.43-2.84-1.77,0-2.54,1.63-2.68,2.84Z"/><path class="cls-28" d="M781.71,352.09c0-.65.08-1.63.08-2.48V338h1.73v6h0a3.61,3.61,0,0,1,3.29-1.77c2.38,0,4.07,2,4,4.91,0,3.44-2.17,5.15-4.31,5.15a3.41,3.41,0,0,1-3.22-1.81h-.06l-.08,1.59Zm1.81-3.85a3.2,3.2,0,0,0,.07.63,2.7,2.7,0,0,0,2.63,2.05c1.83,0,2.92-1.49,2.92-3.7,0-1.93-1-3.58-2.86-3.58a2.79,2.79,0,0,0-2.66,2.15,3.47,3.47,0,0,0-.1.72Z"/><path class="cls-28" d="M802.64,352.09l-.14-1.21h-.06a3.57,3.57,0,0,1-2.94,1.43,2.74,2.74,0,0,1-2.94-2.76c0-2.33,2.06-3.6,5.78-3.58v-.2a2,2,0,0,0-2.18-2.23,4.79,4.79,0,0,0-2.51.72l-.4-1.15a6,6,0,0,1,3.16-.86c3,0,3.66,2,3.66,3.94v3.6a13.39,13.39,0,0,0,.16,2.3Zm-.26-4.91c-1.91,0-4.07.3-4.07,2.17A1.55,1.55,0,0,0,800,351a2.4,2.4,0,0,0,2.32-1.61,1.84,1.84,0,0,0,.1-.56Z"/><path class="cls-28" d="M806.89,345.61c0-1.23,0-2.22-.07-3.14h1.57l.08,1.65h0a3.77,3.77,0,0,1,3.42-1.87c2.32,0,4.07,2,4.07,4.89,0,3.46-2.11,5.17-4.37,5.17a3.37,3.37,0,0,1-3-1.51h0V356h-1.73Zm1.73,2.57a3.85,3.85,0,0,0,.08.71,2.7,2.7,0,0,0,2.63,2.05c1.85,0,2.92-1.51,2.92-3.72,0-1.93-1-3.58-2.86-3.58a2.81,2.81,0,0,0-2.65,2.17,2.85,2.85,0,0,0-.12.72Z"/><path class="cls-28" d="M818.21,345.61c0-1.23,0-2.22-.08-3.14h1.57l.08,1.65h0a3.78,3.78,0,0,1,3.42-1.87c2.32,0,4.07,2,4.07,4.89,0,3.46-2.1,5.17-4.37,5.17a3.35,3.35,0,0,1-3-1.51h0V356h-1.73Zm1.73,2.57a3.85,3.85,0,0,0,.08.71,2.68,2.68,0,0,0,2.62,2.05c1.85,0,2.92-1.51,2.92-3.72,0-1.93-1-3.58-2.86-3.58a2.79,2.79,0,0,0-2.64,2.17,2.85,2.85,0,0,0-.12.72Z"/><path class="cls-28" d="M829.52,338h1.75v14.11h-1.75Z"/><path class="cls-28" d="M836.16,339.77a1.09,1.09,0,0,1-2.17,0,1.07,1.07,0,0,1,1.1-1.1A1,1,0,0,1,836.16,339.77Zm-1.95,12.32v-9.62H836v9.62Z"/><path class="cls-28" d="M845.72,351.74a6.6,6.6,0,0,1-2.76.55,4.57,4.57,0,0,1-4.79-4.91,4.89,4.89,0,0,1,5.17-5.11,5.82,5.82,0,0,1,2.42.5l-.4,1.35a4,4,0,0,0-2-.46,3.63,3.63,0,0,0-.06,7.24,4.9,4.9,0,0,0,2.14-.48Z"/><path class="cls-28" d="M853.1,352.09l-.14-1.21h-.06a3.57,3.57,0,0,1-2.94,1.43,2.75,2.75,0,0,1-3-2.76c0-2.33,2.07-3.6,5.79-3.58v-.2a2,2,0,0,0-2.19-2.23,4.75,4.75,0,0,0-2.5.72l-.4-1.15a6,6,0,0,1,3.16-.86c2.94,0,3.66,2,3.66,3.94v3.6a13.39,13.39,0,0,0,.16,2.3Zm-.26-4.91c-1.91,0-4.08.3-4.08,2.17a1.55,1.55,0,0,0,1.65,1.67,2.4,2.4,0,0,0,2.33-1.61,1.84,1.84,0,0,0,.1-.56Z"/><path class="cls-28" d="M859.38,339.71v2.76h2.51v1.33h-2.51V349c0,1.19.34,1.87,1.31,1.87a3.92,3.92,0,0,0,1-.12l.08,1.31a4.31,4.31,0,0,1-1.56.24,2.42,2.42,0,0,1-1.88-.73,3.57,3.57,0,0,1-.68-2.51V343.8h-1.49v-1.33h1.49v-2.31Z"/><path class="cls-28" d="M865.8,339.77a1.09,1.09,0,0,1-2.17,0,1.07,1.07,0,0,1,1.1-1.1A1,1,0,0,1,865.8,339.77Zm-1.95,12.32v-9.62h1.75v9.62Z"/><path class="cls-28" d="M877.21,347.2c0,3.56-2.46,5.11-4.79,5.11-2.6,0-4.61-1.91-4.61-4.95,0-3.22,2.11-5.11,4.77-5.11S877.21,344.26,877.21,347.2Zm-7.63.1c0,2.11,1.21,3.7,2.92,3.7s2.92-1.57,2.92-3.74c0-1.63-.81-3.7-2.88-3.7S869.58,345.47,869.58,347.3Z"/><path class="cls-28" d="M879.42,345.08c0-1,0-1.81-.08-2.61h1.55l.1,1.59h0a3.55,3.55,0,0,1,3.18-1.81c1.33,0,3.4.8,3.4,4.1v5.74h-1.75v-5.54c0-1.55-.58-2.85-2.23-2.85a2.49,2.49,0,0,0-2.34,1.79,2.53,2.53,0,0,0-.12.82v5.78h-1.75Z"/><path class="cls-28" d="M348.62,393.1v5.6h6.49v-5.6h1.75v13.4h-1.75v-6.28h-6.49v6.28H346.9V393.1Z"/><path class="cls-28" d="M365.13,406.5l-.14-1.22h-.06a3.58,3.58,0,0,1-2.94,1.44A2.75,2.75,0,0,1,359,404c0-2.32,2.07-3.6,5.79-3.58v-.19a2,2,0,0,0-2.19-2.23,4.84,4.84,0,0,0-2.5.71l-.4-1.15a5.93,5.93,0,0,1,3.16-.85c2.94,0,3.66,2,3.66,3.93v3.6a13.51,13.51,0,0,0,.16,2.31Zm-.26-4.91c-1.91,0-4.08.3-4.08,2.16a1.55,1.55,0,0,0,1.65,1.67,2.4,2.4,0,0,0,2.33-1.61,1.72,1.72,0,0,0,.1-.55Z"/><path class="cls-28" d="M369.38,399.88c0-1.14,0-2.11-.08-3h1.53l.06,1.89H371a2.89,2.89,0,0,1,2.67-2.1,1.88,1.88,0,0,1,.49.06v1.65a2.61,2.61,0,0,0-.59-.06,2.45,2.45,0,0,0-2.35,2.24,5,5,0,0,0-.08.82v5.13h-1.73Z"/><path class="cls-28" d="M376,399.48c0-1,0-1.81-.08-2.61h1.53l.08,1.56h.06a3.31,3.31,0,0,1,3-1.77,2.84,2.84,0,0,1,2.73,1.92h0a4,4,0,0,1,1.07-1.25,3.27,3.27,0,0,1,2.13-.67c1.27,0,3.16.83,3.16,4.17v5.67H388v-5.45c0-1.85-.68-3-2.09-3a2.27,2.27,0,0,0-2.07,1.59,2.83,2.83,0,0,0-.14.87v5.95H382v-5.77c0-1.53-.67-2.64-2-2.64a2.61,2.61,0,0,0-2.31,2.6v5.81H376Z"/><path class="cls-28" d="M392.72,406.5v-8.29h-1.35v-1.34h1.35v-.45a4.55,4.55,0,0,1,1.11-3.36,3.34,3.34,0,0,1,2.35-.9,4,4,0,0,1,1.49.28l-.24,1.35a2.58,2.58,0,0,0-1.11-.22c-1.49,0-1.87,1.32-1.87,2.79v.51h2.33v1.34h-2.33v8.29Z"/><path class="cls-28" d="M406.4,403.87c0,1,0,1.87.08,2.63h-1.55l-.1-1.57h0a3.63,3.63,0,0,1-3.18,1.79c-1.51,0-3.32-.84-3.32-4.22v-5.63H400v5.33c0,1.83.55,3.06,2.14,3.06a2.52,2.52,0,0,0,2.31-1.59,2.48,2.48,0,0,0,.16-.89v-5.91h1.75Z"/><path class="cls-28" d="M409.3,392.38h1.75V406.5H409.3Z"/><path class="cls-28" d="M418.21,399.88c0-1.14,0-2.11-.08-3h1.53l.06,1.89h.08a2.88,2.88,0,0,1,2.66-2.1,1.9,1.9,0,0,1,.5.06v1.65a2.64,2.64,0,0,0-.6-.06,2.44,2.44,0,0,0-2.34,2.24,5,5,0,0,0-.08.82v5.13h-1.73Z"/><path class="cls-28" d="M425.48,402a3.08,3.08,0,0,0,3.3,3.34,6.33,6.33,0,0,0,2.67-.49l.3,1.25a7.77,7.77,0,0,1-3.2.6c-3,0-4.74-1.95-4.74-4.85s1.71-5.19,4.52-5.19c3.14,0,4,2.76,4,4.53a6.28,6.28,0,0,1-.06.81Zm5.13-1.25c0-1.11-.45-2.84-2.42-2.84-1.77,0-2.55,1.63-2.69,2.84Z"/><path class="cls-28" d="M441,405h0a3.44,3.44,0,0,1-3.14,1.71c-2.25,0-4.08-2-4.08-4.87,0-3.6,2.33-5.19,4.36-5.19a3.15,3.15,0,0,1,3,1.67h0l.06-1.46h1.65c0,.82-.06,1.65-.06,2.65v10.91H441Zm0-4.24A2.87,2.87,0,0,0,441,400a2.55,2.55,0,0,0-2.5-2c-1.81,0-2.91,1.53-2.91,3.7,0,1.9.92,3.57,2.85,3.57a2.6,2.6,0,0,0,2.5-1.9,3,3,0,0,0,.14-.84Z"/><path class="cls-28" d="M453.71,403.87c0,1,0,1.87.08,2.63h-1.55l-.1-1.57h0a3.62,3.62,0,0,1-3.18,1.79c-1.51,0-3.32-.84-3.32-4.22v-5.63h1.75v5.33c0,1.83.56,3.06,2.15,3.06a2.53,2.53,0,0,0,2.31-1.59,2.48,2.48,0,0,0,.15-.89v-5.91h1.75Z"/><path class="cls-28" d="M457.59,402a3.08,3.08,0,0,0,3.3,3.34,6.28,6.28,0,0,0,2.66-.49l.3,1.25a7.73,7.73,0,0,1-3.2.6c-3,0-4.73-1.95-4.73-4.85s1.71-5.19,4.51-5.19c3.14,0,4,2.76,4,4.53a6.28,6.28,0,0,1-.06.81Zm5.13-1.25c0-1.11-.46-2.84-2.43-2.84-1.77,0-2.54,1.63-2.68,2.84Z"/><path class="cls-28" d="M466.34,404.71a4.57,4.57,0,0,0,2.3.69c1.28,0,1.87-.63,1.87-1.43s-.49-1.29-1.79-1.77c-1.73-.61-2.54-1.57-2.54-2.72,0-1.55,1.25-2.82,3.32-2.82a4.83,4.83,0,0,1,2.37.59l-.44,1.27a3.86,3.86,0,0,0-2-.55c-1,0-1.61.59-1.61,1.31s.58,1.15,1.83,1.63c1.67.64,2.52,1.47,2.52,2.9,0,1.69-1.31,2.89-3.6,2.89a5.47,5.47,0,0,1-2.7-.66Z"/><path class="cls-28" d="M476.56,394.11v2.76h2.5v1.34h-2.5v5.19c0,1.19.33,1.86,1.31,1.86a3.92,3.92,0,0,0,1-.11l.08,1.31a4.25,4.25,0,0,1-1.55.24,2.43,2.43,0,0,1-1.89-.74,3.6,3.6,0,0,1-.67-2.5v-5.25h-1.49v-1.34h1.49v-2.3Z"/><path class="cls-28" d="M480.79,404.71a4.57,4.57,0,0,0,2.31.69c1.27,0,1.87-.63,1.87-1.43s-.5-1.29-1.79-1.77c-1.73-.61-2.55-1.57-2.55-2.72,0-1.55,1.25-2.82,3.32-2.82a4.8,4.8,0,0,1,2.37.59l-.44,1.27a3.83,3.83,0,0,0-2-.55c-1,0-1.61.59-1.61,1.31s.58,1.15,1.83,1.63c1.67.64,2.53,1.47,2.53,2.9,0,1.69-1.32,2.89-3.6,2.89a5.48,5.48,0,0,1-2.71-.66Z"/><path class="cls-28" d="M498.45,406.5l-.14-1.22h-.06a3.59,3.59,0,0,1-2.95,1.44,2.75,2.75,0,0,1-2.94-2.77c0-2.32,2.07-3.6,5.79-3.58v-.19A2,2,0,0,0,496,398a4.84,4.84,0,0,0-2.5.71l-.4-1.15a5.93,5.93,0,0,1,3.16-.85c2.94,0,3.66,2,3.66,3.93v3.6a13.51,13.51,0,0,0,.16,2.31Zm-.26-4.91c-1.91,0-4.08.3-4.08,2.16a1.55,1.55,0,0,0,1.65,1.67,2.4,2.4,0,0,0,2.33-1.61,1.72,1.72,0,0,0,.1-.55Z"/><path class="cls-28" d="M502.7,399.88c0-1.14,0-2.11-.08-3h1.53l.06,1.89h.08a2.88,2.88,0,0,1,2.66-2.1,1.9,1.9,0,0,1,.5.06v1.65a2.64,2.64,0,0,0-.6-.06,2.45,2.45,0,0,0-2.34,2.24,5,5,0,0,0-.08.82v5.13H502.7Z"/><path class="cls-28" d="M510,402a3.08,3.08,0,0,0,3.3,3.34,6.28,6.28,0,0,0,2.66-.49l.3,1.25a7.77,7.77,0,0,1-3.2.6c-3,0-4.73-1.95-4.73-4.85s1.71-5.19,4.51-5.19c3.14,0,4,2.76,4,4.53a6.28,6.28,0,0,1-.06.81Zm5.13-1.25c0-1.11-.46-2.84-2.43-2.84-1.77,0-2.54,1.63-2.68,2.84Z"/><path class="cls-28" d="M525.13,394.17a1.09,1.09,0,0,1-2.17,0,1.06,1.06,0,0,1,1.09-1.09A1,1,0,0,1,525.13,394.17Zm-2,12.33v-9.63h1.75v9.63Z"/><path class="cls-28" d="M536.14,392.38V404c0,.86,0,1.83.08,2.49h-1.57l-.08-1.67h0a3.57,3.57,0,0,1-3.28,1.89c-2.33,0-4.12-2-4.12-4.89,0-3.21,2-5.17,4.32-5.17a3.21,3.21,0,0,1,2.9,1.47h0v-5.75Zm-1.75,8.41a3,3,0,0,0-.08-.73,2.57,2.57,0,0,0-2.52-2c-1.81,0-2.89,1.59-2.89,3.72,0,1.94,1,3.55,2.85,3.55a2.62,2.62,0,0,0,2.56-2.08,3.06,3.06,0,0,0,.08-.76Z"/><path class="cls-28" d="M540,402a3.08,3.08,0,0,0,3.3,3.34,6.32,6.32,0,0,0,2.66-.49l.3,1.25a7.77,7.77,0,0,1-3.2.6c-3,0-4.74-1.95-4.74-4.85s1.71-5.19,4.52-5.19c3.14,0,4,2.76,4,4.53a6.28,6.28,0,0,1-.06.81Zm5.12-1.25c0-1.11-.45-2.84-2.42-2.84a2.89,2.89,0,0,0-2.68,2.84Z"/><path class="cls-28" d="M549,399.48c0-1,0-1.81-.08-2.61h1.55l.1,1.6h0a3.53,3.53,0,0,1,3.18-1.81c1.34,0,3.4.79,3.4,4.09v5.75h-1.75V401c0-1.55-.57-2.84-2.22-2.84a2.57,2.57,0,0,0-2.47,2.6v5.79H549Z"/><path class="cls-28" d="M562.06,394.11v2.76h2.51v1.34h-2.51v5.19c0,1.19.34,1.86,1.32,1.86a4,4,0,0,0,1-.11l.08,1.31a4.29,4.29,0,0,1-1.55.24A2.42,2.42,0,0,1,561,406a3.55,3.55,0,0,1-.68-2.5v-5.25h-1.49v-1.34h1.49v-2.3Z"/><path class="cls-28" d="M568.48,394.17a1,1,0,0,1-1.11,1.07,1,1,0,0,1-1-1.07,1.06,1.06,0,0,1,1.09-1.09A1,1,0,0,1,568.48,394.17Zm-1.94,12.33v-9.63h1.75v9.63Z"/><path class="cls-28" d="M571.37,406.5v-8.29H570v-1.34h1.36v-.51a3.86,3.86,0,0,1,4.19-4.2,4.8,4.8,0,0,1,2.45.64l-.5,1.33a3.66,3.66,0,0,0-2-.56c-1.85,0-2.38,1.3-2.38,2.83v.47h5.58v9.63H577v-8.29H573.1v8.29Z"/><path class="cls-28" d="M582.56,402a3.08,3.08,0,0,0,3.3,3.34,6.28,6.28,0,0,0,2.66-.49l.3,1.25a7.73,7.73,0,0,1-3.2.6c-3,0-4.73-1.95-4.73-4.85s1.71-5.19,4.51-5.19c3.14,0,4,2.76,4,4.53a6.28,6.28,0,0,1-.06.81Zm5.13-1.25c0-1.11-.46-2.84-2.43-2.84-1.77,0-2.54,1.63-2.68,2.84Z"/><path class="cls-28" d="M599.86,392.38V404c0,.86,0,1.83.08,2.49h-1.57l-.08-1.67h0a3.57,3.57,0,0,1-3.28,1.89c-2.33,0-4.12-2-4.12-4.89,0-3.21,2-5.17,4.31-5.17a3.21,3.21,0,0,1,2.91,1.47h0v-5.75Zm-1.75,8.41a3,3,0,0,0-.08-.73,2.58,2.58,0,0,0-2.53-2c-1.81,0-2.88,1.59-2.88,3.72,0,1.94,1,3.55,2.84,3.55a2.63,2.63,0,0,0,2.57-2.08,3.06,3.06,0,0,0,.08-.76Z"/><path class="cls-28" d="M429.09,430.35l-.14-1.21h-.06a3.56,3.56,0,0,1-2.94,1.43,2.74,2.74,0,0,1-2.94-2.76c0-2.33,2.07-3.6,5.78-3.58V424a2,2,0,0,0-2.18-2.23,4.79,4.79,0,0,0-2.51.72l-.4-1.15a6,6,0,0,1,3.17-.86c2.94,0,3.65,2,3.65,3.94v3.6a13.39,13.39,0,0,0,.16,2.3Zm-.26-4.91c-1.9,0-4.07.3-4.07,2.17a1.55,1.55,0,0,0,1.65,1.67,2.37,2.37,0,0,0,2.32-1.61,1.84,1.84,0,0,0,.1-.56Z"/><path class="cls-28" d="M433.35,423.34c0-1,0-1.81-.08-2.61h1.55l.1,1.59h0a3.54,3.54,0,0,1,3.18-1.81c1.33,0,3.4.8,3.4,4.1v5.74h-1.75v-5.54c0-1.55-.58-2.85-2.23-2.85a2.48,2.48,0,0,0-2.34,1.79,2.53,2.53,0,0,0-.12.82v5.78h-1.75Z"/><path class="cls-28" d="M452.69,416.24v11.63c0,.85,0,1.83.08,2.48H451.2l-.08-1.67h0a3.55,3.55,0,0,1-3.28,1.89c-2.33,0-4.12-2-4.12-4.89,0-3.2,2-5.17,4.32-5.17a3.23,3.23,0,0,1,2.9,1.47h0v-5.74Zm-1.75,8.41a3.11,3.11,0,0,0-.08-.74,2.57,2.57,0,0,0-2.52-2c-1.81,0-2.89,1.58-2.89,3.71,0,1.95,1,3.56,2.85,3.56a2.62,2.62,0,0,0,2.56-2.09,2.93,2.93,0,0,0,.08-.75Z"/><path class="cls-28" d="M459.73,430.35c0-.65.08-1.63.08-2.48V416.24h1.73v6h0a3.58,3.58,0,0,1,3.28-1.77c2.38,0,4.07,2,4.05,4.91,0,3.44-2.16,5.15-4.31,5.15a3.41,3.41,0,0,1-3.22-1.81h-.06l-.08,1.59Zm1.81-3.85a3.19,3.19,0,0,0,.08.63,2.68,2.68,0,0,0,2.62,2.05c1.83,0,2.92-1.49,2.92-3.7,0-1.93-1-3.58-2.86-3.58a2.79,2.79,0,0,0-2.66,2.15,3.47,3.47,0,0,0-.1.72Z"/><path class="cls-28" d="M471.12,416.24h1.75v14.11h-1.75Z"/><path class="cls-28" d="M484.52,425.46c0,3.56-2.47,5.11-4.79,5.11-2.61,0-4.61-1.91-4.61-4.95,0-3.22,2.1-5.11,4.77-5.11S484.52,422.52,484.52,425.46Zm-7.64.1c0,2.11,1.22,3.7,2.93,3.7s2.92-1.57,2.92-3.74c0-1.63-.82-3.69-2.88-3.69S476.88,423.73,476.88,425.56Z"/><path class="cls-28" d="M493.58,430a6.41,6.41,0,0,1-2.76.55,4.57,4.57,0,0,1-4.79-4.91,4.89,4.89,0,0,1,5.17-5.11,5.78,5.78,0,0,1,2.42.5l-.39,1.35a4.07,4.07,0,0,0-2-.46,3.63,3.63,0,0,0-.06,7.24,5,5,0,0,0,2.15-.48Z"/><path class="cls-28" d="M497.36,425.15h0c.24-.34.58-.76.86-1.1l2.82-3.32h2.11l-3.72,4,4.23,5.66h-2.12l-3.32-4.61-.9,1v3.61h-1.73V416.24h1.73Z"/><path class="cls-28" d="M505.93,425.86a3.08,3.08,0,0,0,3.3,3.34,6.26,6.26,0,0,0,2.66-.5l.3,1.26a7.76,7.76,0,0,1-3.2.59c-3,0-4.73-1.95-4.73-4.85s1.71-5.19,4.51-5.19c3.15,0,4,2.77,4,4.54a6.61,6.61,0,0,1-.06.81Zm5.13-1.25c0-1.11-.46-2.84-2.43-2.84-1.77,0-2.54,1.63-2.68,2.84Z"/><path class="cls-28" d="M523.23,416.24v11.63c0,.85,0,1.83.08,2.48h-1.57l-.08-1.67h0a3.55,3.55,0,0,1-3.28,1.89c-2.33,0-4.12-2-4.12-4.89,0-3.2,2-5.17,4.31-5.17a3.23,3.23,0,0,1,2.91,1.47h0v-5.74Zm-1.75,8.41a3.11,3.11,0,0,0-.08-.74,2.58,2.58,0,0,0-2.53-2c-1.81,0-2.88,1.58-2.88,3.71,0,1.95,1,3.56,2.84,3.56a2.63,2.63,0,0,0,2.57-2.09,2.93,2.93,0,0,0,.08-.75Z"/><path class="cls-28" d="M525.51,429.32a1.18,1.18,0,0,1,1.2-1.25,1.25,1.25,0,1,1-1.2,1.25Z"/><path class="cls-28" d="M336.59,358.23h2.86l3.61,12.6,2.43-12.6h3.66l-4.35,18.88h-3.35l-3.35-13.19-3.51,13.19h-3.35l-4.35-18.88h3.67l2.42,12.6Z"/><path class="cls-28" d="M352.37,376.6a4.85,4.85,0,0,1-2.11-2.07,6.85,6.85,0,0,1-.72-3.26v-1.52a7.78,7.78,0,0,1,.69-3.42,4.86,4.86,0,0,1,2-2.15,6.46,6.46,0,0,1,3.21-.74,5.13,5.13,0,0,1,3,.88,5.42,5.42,0,0,1,1.91,2.57,11.09,11.09,0,0,1,.66,4.05v.89h-9.22v-2.41h6l0-.31a3.1,3.1,0,0,0-.73-1.8,2,2,0,0,0-1.58-.64,2.57,2.57,0,0,0-2,.77,3.08,3.08,0,0,0-.71,2.17v1.71a2.85,2.85,0,0,0,.77,2.13,3,3,0,0,0,2.17.75,4.11,4.11,0,0,0,1.41-.25,4.31,4.31,0,0,0,1.27-.72l2.33,2.06a7.72,7.72,0,0,1-2.37,1.49,7,7,0,0,1-2.64.52A7.32,7.32,0,0,1,352.37,376.6Z"/><path class="cls-28" d="M364.18,358.23h3.56v18.88h-3.56Zm4.65,18.47a3.55,3.55,0,0,1-1.27-1.71l.18-3.07a2.62,2.62,0,0,0,.23,1.13,1.63,1.63,0,0,0,.69.71,2.16,2.16,0,0,0,1.08.25,1.91,1.91,0,0,0,1.55-.66,2.86,2.86,0,0,0,.55-1.87v-2.15a2.94,2.94,0,0,0-.55-1.91,1.86,1.86,0,0,0-1.55-.68,2.16,2.16,0,0,0-1.08.25,1.68,1.68,0,0,0-.69.73,2.74,2.74,0,0,0-.23,1.17l-.27-3a4.53,4.53,0,0,1,1.43-1.83,3.29,3.29,0,0,1,2-.64,4,4,0,0,1,4,2.7,8.6,8.6,0,0,1,.53,3.18v2.16a8.42,8.42,0,0,1-.53,3.14,4.32,4.32,0,0,1-1.55,2,4.27,4.27,0,0,1-2.45.68A3.46,3.46,0,0,1,368.83,376.7Z"/><path class="cls-28" d="M391.45,358.23h2.26l7.22,18.88H397.1l-4.52-12.89-4.52,12.89h-3.83Zm-3.75,12.43h9.93v3.43H387.7Z"/><path class="cls-28" d="M403,363.63h3.55v19H403Zm4.64,13.07a3.55,3.55,0,0,1-1.27-1.71l.18-3.07a2.48,2.48,0,0,0,.24,1.13,1.56,1.56,0,0,0,.68.71,2.16,2.16,0,0,0,1.08.25,1.93,1.93,0,0,0,1.56-.66,2.91,2.91,0,0,0,.55-1.87v-2.15a3,3,0,0,0-.55-1.91,1.88,1.88,0,0,0-1.56-.68,2.16,2.16,0,0,0-1.08.25,1.6,1.6,0,0,0-.68.73,2.6,2.6,0,0,0-.24,1.17l-.27-3a4.46,4.46,0,0,1,1.44-1.83,3.24,3.24,0,0,1,2-.64,4,4,0,0,1,4,2.7,8.4,8.4,0,0,1,.53,3.18v2.16a8.22,8.22,0,0,1-.53,3.14,4,4,0,0,1-4,2.68A3.5,3.5,0,0,1,407.65,376.7Z"/><path class="cls-28" d="M417.47,363.63H421v19h-3.56Zm4.65,13.07a3.49,3.49,0,0,1-1.27-1.71l.18-3.07a2.62,2.62,0,0,0,.23,1.13,1.61,1.61,0,0,0,.68.71A2.17,2.17,0,0,0,423,374a1.92,1.92,0,0,0,1.55-.66,2.86,2.86,0,0,0,.55-1.87v-2.15a2.94,2.94,0,0,0-.55-1.91,1.87,1.87,0,0,0-1.55-.68,2.17,2.17,0,0,0-1.09.25,1.66,1.66,0,0,0-.68.73,2.74,2.74,0,0,0-.23,1.17l-.27-3a4.53,4.53,0,0,1,1.43-1.83,3.27,3.27,0,0,1,2-.64,4.22,4.22,0,0,1,2.44.69,4.32,4.32,0,0,1,1.56,2,8.6,8.6,0,0,1,.53,3.18v2.16a8.42,8.42,0,0,1-.53,3.14,4.34,4.34,0,0,1-1.56,2,4.22,4.22,0,0,1-2.44.68A3.46,3.46,0,0,1,422.12,376.7Z"/><path class="cls-28" d="M435.49,372.66a1,1,0,0,0,.28.76,1.15,1.15,0,0,0,.8.26h.6v3.43h-1.82a3.34,3.34,0,0,1-2.52-.93,3.67,3.67,0,0,1-.9-2.64V358.23h3.56Z"/><path class="cls-28" d="M439.44,358.23H443v3.56h-3.56Zm0,5.4H443v13.48h-3.56Z"/><path class="cls-28" d="M448.72,376.57a4.89,4.89,0,0,1-2.09-2.13,7.46,7.46,0,0,1-.71-3.38v-1.44a7.26,7.26,0,0,1,.71-3.34,4.79,4.79,0,0,1,2.09-2.11,6.86,6.86,0,0,1,3.29-.73,8.23,8.23,0,0,1,2.08.25,6.06,6.06,0,0,1,1.76.74,4.85,4.85,0,0,1,1.3,1.16l-2.3,2.24a3.47,3.47,0,0,0-1.15-.71,3.88,3.88,0,0,0-1.39-.25,2.87,2.87,0,0,0-2.09.72,2.67,2.67,0,0,0-.74,2v1.44a2.76,2.76,0,0,0,.74,2.08,2.83,2.83,0,0,0,2.09.74,3.5,3.5,0,0,0,1.4-.28,3.33,3.33,0,0,0,1.14-.77l2.3,2.36a5,5,0,0,1-1.31,1.15,6.85,6.85,0,0,1-1.75.72,8.72,8.72,0,0,1-2.08.24A6.86,6.86,0,0,1,448.72,376.57Z"/><path class="cls-28" d="M460,376.27a4.16,4.16,0,0,1-1.07-3.13,3.66,3.66,0,0,1,1.2-3,5.51,5.51,0,0,1,3.61-1h3.37l.18,2.71h-3.54a1.94,1.94,0,0,0-1.21.32,1.15,1.15,0,0,0-.4,1,1.07,1.07,0,0,0,.51,1,2.91,2.91,0,0,0,1.53.32,5.17,5.17,0,0,0,2.12-.33,1.07,1.07,0,0,0,.7-1l.27,2a1.83,1.83,0,0,1-.67,1.23,3.84,3.84,0,0,1-1.48.76,6.78,6.78,0,0,1-1.88.25A4.52,4.52,0,0,1,460,376.27Zm7-7.7a1.72,1.72,0,0,0-.63-1.44,2.7,2.7,0,0,0-1.76-.51,4.58,4.58,0,0,0-1.5.25,4.4,4.4,0,0,0-1.31.68l-2.21-2.16a5.29,5.29,0,0,1,2.13-1.44,8.14,8.14,0,0,1,2.94-.51,7,7,0,0,1,3,.59,4.17,4.17,0,0,1,1.9,1.71,5.26,5.26,0,0,1,.66,2.71v8.66H467Z"/><path class="cls-28" d="M472.67,363.63h6.59v3h-6.59Zm2.21,12.64a3.83,3.83,0,0,1-.83-2.67V359.71h3.56v13a1.27,1.27,0,0,0,.2.76.66.66,0,0,0,.57.27h.88v3.43h-1.79A3.32,3.32,0,0,1,474.88,376.27Z"/><path class="cls-28" d="M482.18,358.23h3.56v3.56h-3.56Zm0,5.4h3.56v13.48h-3.56Z"/><path class="cls-28" d="M491.33,376.62a4.65,4.65,0,0,1-2-2,6.9,6.9,0,0,1-.68-3.17v-2.2a6.73,6.73,0,0,1,.68-3.13,4.61,4.61,0,0,1,2-2,7.64,7.64,0,0,1,6.3,0,4.53,4.53,0,0,1,2,2,6.61,6.61,0,0,1,.69,3.13v2.24a6.65,6.65,0,0,1-.69,3.14,4.61,4.61,0,0,1-2,2,7.64,7.64,0,0,1-6.3,0Zm4.81-3.37a2.46,2.46,0,0,0,.6-1.77v-2.24a2.41,2.41,0,0,0-.6-1.75,2.2,2.2,0,0,0-1.67-.62,2.16,2.16,0,0,0-1.66.62,2.45,2.45,0,0,0-.59,1.75v2.24a2.5,2.5,0,0,0,.58,1.77,2.17,2.17,0,0,0,1.67.63A2.2,2.2,0,0,0,496.14,373.25Z"/><path class="cls-28" d="M503.54,363.63h3.56v13.48h-3.56Zm7.79,5.31a2.05,2.05,0,0,0-.56-1.53,2.24,2.24,0,0,0-1.61-.54,2,2,0,0,0-1.52.55,2.12,2.12,0,0,0-.54,1.55l-.27-3a5.06,5.06,0,0,1,1.46-1.91,3.47,3.47,0,0,1,2.13-.63,4,4,0,0,1,3.3,1.43,6.27,6.27,0,0,1,1.17,4.06v8.18h-3.56Z"/><path class="cls-28" d="M525.8,358.23h3.55v18.88H525.8Zm1.29,0H538.2v3.43H527.09Zm0,8h9.68v3.43h-9.68Z"/><path class="cls-28" d="M540.6,358.23h3.56v3.56H540.6Zm0,5.4h3.56v13.48H540.6Z"/><path class="cls-28" d="M547.47,363.63h3.81v13.48h-3.81Zm6.94,3.37a2.57,2.57,0,0,0-.87-.13,2.09,2.09,0,0,0-1.67.69,2.91,2.91,0,0,0-.59,1.93L551,366a4.8,4.8,0,0,1,1.45-1.87,3.14,3.14,0,0,1,1.95-.67,4.34,4.34,0,0,1,1.53.26,3.4,3.4,0,0,1,1.19.79l-2.08,2.9A1.5,1.5,0,0,0,554.41,367Z"/><path class="cls-28" d="M561,376.6a4.85,4.85,0,0,1-2.11-2.07,6.85,6.85,0,0,1-.72-3.26v-1.52a7.78,7.78,0,0,1,.69-3.42,4.8,4.8,0,0,1,2-2.15,6.4,6.4,0,0,1,3.21-.74,5.1,5.1,0,0,1,3,.88,5.44,5.44,0,0,1,1.92,2.57,11.1,11.1,0,0,1,.65,4.05v.89h-9.21v-2.41h6l0-.31a3.17,3.17,0,0,0-.73-1.8,2,2,0,0,0-1.58-.64,2.57,2.57,0,0,0-2,.77,3,3,0,0,0-.71,2.17v1.71a2.85,2.85,0,0,0,.77,2.13,3,3,0,0,0,2.16.75,4.13,4.13,0,0,0,1.42-.25,4.31,4.31,0,0,0,1.27-.72l2.32,2.06a7.79,7.79,0,0,1-2.36,1.49,7.06,7.06,0,0,1-2.65.52A7.25,7.25,0,0,1,561,376.6Z"/><path class="cls-28" d="M571.12,363.63h3.42l2.39,8.33,2.84-8.33h2.1l2.85,8.33,2.39-8.33h3.41l-4.15,13.48h-2.65l-2.9-8.79-2.89,8.79h-2.65Z"/><path class="cls-28" d="M593.28,376.27a4.16,4.16,0,0,1-1.07-3.13,3.66,3.66,0,0,1,1.2-3,5.5,5.5,0,0,1,3.6-1h3.38l.18,2.71H597a1.94,1.94,0,0,0-1.21.32,1.15,1.15,0,0,0-.4,1,1.09,1.09,0,0,0,.5,1,3,3,0,0,0,1.54.32,5.17,5.17,0,0,0,2.12-.33,1.06,1.06,0,0,0,.69-1l.28,2a1.88,1.88,0,0,1-.67,1.23,3.91,3.91,0,0,1-1.48.76,6.83,6.83,0,0,1-1.88.25A4.5,4.5,0,0,1,593.28,376.27Zm7-7.7a1.74,1.74,0,0,0-.62-1.44,2.72,2.72,0,0,0-1.77-.51,4.53,4.53,0,0,0-1.49.25,4.4,4.4,0,0,0-1.31.68l-2.21-2.16A5.29,5.29,0,0,1,595,364a8.1,8.1,0,0,1,2.94-.51,7.06,7.06,0,0,1,3,.59,4.22,4.22,0,0,1,1.9,1.71,5.26,5.26,0,0,1,.66,2.71v8.66h-3.24Z"/><path class="cls-28" d="M610.57,372.66a1,1,0,0,0,.28.76,1.13,1.13,0,0,0,.8.26h.59v3.43h-1.81a3.31,3.31,0,0,1-2.52-.93,3.67,3.67,0,0,1-.9-2.64V358.23h3.56Z"/><path class="cls-28" d="M618.27,372.66a1,1,0,0,0,.28.76,1.13,1.13,0,0,0,.8.26h.59v3.43h-1.81a3.31,3.31,0,0,1-2.52-.93,3.67,3.67,0,0,1-.9-2.64V358.23h3.56Z"/><text class="cls-23" transform="translate(653.68 111.07)"><tspan class="cls-24">D</tspan><tspan class="cls-25" x="12.96" y="0">A</tspan><tspan class="cls-26" x="23.6" y="0">T</tspan><tspan x="31.99" y="0">A </tspan><tspan x="-10.06" y="23.86">T</tspan><tspan class="cls-27" x="-0.18" y="23.86">R</tspan><tspan x="10.62" y="23.86">AFFIC</tspan></text></svg>