<svg xmlns="http://www.w3.org/2000/svg" xmlns:xlink="http://www.w3.org/1999/xlink" viewBox="0 0 2074.58 1100.26"><defs><style>.cls-1{fill:none;}.cls-2{clip-path:url(#clip-path);}.cls-3{fill:#db5958;}.cls-4{fill:#fff;}</style><clipPath id="clip-path" transform="translate(99.58 -3.05)"><rect class="cls-1" width="1920" height="1077"/></clipPath></defs><title>Asset 2</title><g id="Layer_2" data-name="Layer 2"><g id="Layer_1-2" data-name="Layer 1"><g class="cls-2"><circle class="cls-3" cx="1833.82" cy="154.62" r="22.06"/><circle class="cls-3" cx="89.18" cy="766.79" r="17.87"/><path class="cls-4" d="M-28.27,768.73v2.21H-21c.31,10.1,4.84,17.87,10.56,17.87S-.14,781,.16,770.94H7.47v-2.21H.16c-.3-10.1-4.83-17.86-10.56-17.86S-20.65,758.63-21,768.73Zm9.52,2.21h7.25v15.51C-15.36,785.38-18.48,778.8-18.75,770.94Zm9.45,15.51V770.94H-2C-2.31,778.8-5.43,785.38-9.3,786.45ZM-2,768.73H-9.3v-15.5C-5.43,754.3-2.31,760.87-2,768.73Zm-9.46-15.5v15.5h-7.25C-18.48,760.87-15.36,754.3-11.5,753.23Z" transform="translate(99.58 -3.05)"/><path class="cls-4" d="M1748,701.75h-46.4v25.41H1748ZM1743,722.26h-36.58V706.65H1743Z" transform="translate(99.58 -3.05)"/><path class="cls-4" d="M1701.55,795.61H1748V770.19h-46.4Zm4.91-20.51H1743v15.6h-36.58Z" transform="translate(99.58 -3.05)"/><path class="cls-4" d="M1852.37,753.87H1696.66a13.27,13.27,0,0,0-13.25,13.25v31.55a13.27,13.27,0,0,0,13.25,13.26h155.71a13.27,13.27,0,0,0,13.25-13.26V767.12A13.27,13.27,0,0,0,1852.37,753.87Zm8.34,44.8a8.36,8.36,0,0,1-8.34,8.35H1696.66a8.36,8.36,0,0,1-8.34-8.35V767.12a8.35,8.35,0,0,1,8.34-8.34h155.71a8.35,8.35,0,0,1,8.34,8.34Z" transform="translate(99.58 -3.05)"/><path class="cls-4" d="M1915.53,669.72a26.41,26.41,0,0,0-25,25l4.9.25a21.52,21.52,0,0,1,42.33-4.28l.68,2.64,2.56-1a21.53,21.53,0,0,1,29.06,20.16H1975A26.43,26.43,0,0,0,1941.77,687a26.28,26.28,0,0,0-20.29-16.94A32.27,32.27,0,0,0,1875,658.42a26.42,26.42,0,0,0-45.79-6.86,23.51,23.51,0,0,0-35.43,13.3,23.3,23.3,0,0,0-11.17-2.82A23.55,23.55,0,0,0,1759,685.43h-62.38a13.27,13.27,0,0,0-13.25,13.25v31.55a13.27,13.27,0,0,0,13.25,13.25h155.71a13.26,13.26,0,0,0,13.25-13.25V698.68a13.26,13.26,0,0,0-13.25-13.25H1764A18.63,18.63,0,0,1,1782.56,667a18.43,18.43,0,0,1,11.37,3.89l3.45,2.67.49-4.34a18.6,18.6,0,0,1,28.69-13.45,26.17,26.17,0,0,0-2.83,11.87h4.91a21.52,21.52,0,0,1,42.56-4.54l.87,4,3.13-2.67a27.33,27.33,0,0,1,40.33,5.32Zm-54.82,29v31.55a8.35,8.35,0,0,1-8.34,8.34H1696.66a8.35,8.35,0,0,1-8.34-8.34V698.68a8.35,8.35,0,0,1,8.34-8.34h155.71A8.35,8.35,0,0,1,1860.71,698.68Z" transform="translate(99.58 -3.05)"/><circle class="cls-3" cx="1772.3" cy="714.45" r="10.26" transform="translate(8.02 290.07) rotate(-9.22)"/><circle class="cls-3" cx="1806.1" cy="714.45" r="10.26" transform="translate(8.46 295.49) rotate(-9.22)"/><circle class="cls-3" cx="1839.91" cy="714.45" r="10.26" transform="translate(8.89 300.9) rotate(-9.22)"/><circle class="cls-3" cx="1772.3" cy="782.9" r="10.26" transform="translate(-2.94 290.96) rotate(-9.22)"/><circle class="cls-3" cx="1806.1" cy="782.9" r="10.26" transform="translate(-2.51 296.37) rotate(-9.22)"/><circle class="cls-3" cx="1839.91" cy="782.9" r="10.26" transform="translate(-2.07 301.78) rotate(-9.22)"/><polygon class="cls-4" points="264.52 746.71 175.28 746.71 175.28 755.84 159.66 742.33 175.28 728.81 175.28 737.94 264.52 737.94 264.52 735.13 178.09 735.13 178.09 722.67 155.38 742.33 178.09 761.98 178.09 749.52 264.52 749.52 264.52 746.71"/><polygon class="cls-4" points="288.96 759.43 203.56 759.43 203.56 762.23 291.76 762.23 291.76 753.11 307.38 766.62 291.76 780.14 291.76 771.01 203.56 771.01 203.56 773.82 288.96 773.82 288.96 786.27 311.67 766.62 288.96 746.97 288.96 759.43"/><path class="cls-4" d="M184.39,760.33a17.46,17.46,0,0,0-10.76-25.65,17.28,17.28,0,0,0,.8-5.21,17.47,17.47,0,0,0-33.07-7.85,17.38,17.38,0,0,0-13.93,8.61,17.53,17.53,0,0,0-15.53,2l1.57,2.33a14.64,14.64,0,0,1,14-1.29l1.23.54.59-1.21a14.6,14.6,0,0,1,12.94-8.22h.9l.36-.83a14.67,14.67,0,0,1,26.93,11.63l-.7,1.65,1.77.28A14.66,14.66,0,0,1,182,758.92Z" transform="translate(99.58 -3.05)"/><path class="cls-4" d="M90.94,767.66a14.63,14.63,0,0,1,4-10.09l-2-1.93a17.46,17.46,0,0,0,12.67,29.48h63.66v-2.8H105.6A14.68,14.68,0,0,1,90.94,767.66Z" transform="translate(99.58 -3.05)"/><rect class="cls-3" x="161.81" y="784.22" width="18.12" height="2.81"/><path class="cls-4" d="M1606.51,913.15h-5.83a13.17,13.17,0,0,0,13.16,13.15H1696v-5.83h-82.13A7.33,7.33,0,0,1,1606.51,913.15Z" transform="translate(99.58 -3.05)"/><path class="cls-4" d="M1793.6,1022.15h-33.83l-101.65-81.06h49.72a26,26,0,1,0-9.14-50.39,26,26,0,0,0-33.52-16.44,26,26,0,0,0-49.36-.15,26.06,26.06,0,0,0-16.3,16.31,26,26,0,0,0,8.34,50.67h32.62l-90.79,63.07h-12.1a14.74,14.74,0,0,0-14.72,14.72v69.7a14.73,14.73,0,0,0,14.72,14.72h26a14.74,14.74,0,0,0,14.72-14.72v-69.7a14.75,14.75,0,0,0-14.72-14.72h-3.72l86.31-60-6.61,62.77h-32.23a14.74,14.74,0,0,0-14.72,14.72v45.06a14.73,14.73,0,0,0,14.72,14.72h69.7a14.73,14.73,0,0,0,14.72-14.72v-45.06a14.74,14.74,0,0,0-14.72-14.72h-31.61l6.66-63.2,98.29,78.38H1723.9a14.74,14.74,0,0,0-14.72,14.72v29.88a14.74,14.74,0,0,0,14.72,14.72h69.7a14.73,14.73,0,0,0,14.72-14.72v-29.88A14.73,14.73,0,0,0,1793.6,1022.15Zm-221.08-3.27v69.7a8.9,8.9,0,0,1-8.89,8.89h-26a8.89,8.89,0,0,1-8.89-8.89v-69.7a8.9,8.9,0,0,1,8.89-8.89h26A8.9,8.9,0,0,1,1572.52,1018.88Zm113.45,2.81v45.06a8.9,8.9,0,0,1-8.89,8.89h-69.7a8.9,8.9,0,0,1-8.89-8.89v-45.06a8.9,8.9,0,0,1,8.89-8.89h69.7A8.9,8.9,0,0,1,1686,1021.69Zm-98.3-106.62a20.21,20.21,0,0,1,14.94-19.5l1.62-.43,0-.08H1626v-5.83h-19.64a20.17,20.17,0,0,1,12.53-10l1.63-.44.43-1.62a20.2,20.2,0,0,1,39.37,1.62l.71,3.91,3.51-1.86a20.21,20.21,0,0,1,29.29,14.43l.69,4,3.59-2a20.19,20.19,0,1,1,9.71,37.9h-100A20.22,20.22,0,0,1,1587.67,915.07ZM1715,1066.75v-29.88a8.9,8.9,0,0,1,8.89-8.89h8.26v47.66h-8.26A8.9,8.9,0,0,1,1715,1066.75Zm87.48,0a8.9,8.9,0,0,1-8.89,8.89H1738V1028h55.62a8.9,8.9,0,0,1,8.89,8.89Z" transform="translate(99.58 -3.05)"/><rect class="cls-4" x="1635.48" y="1021.35" width="29.41" height="5.83"/><rect class="cls-4" x="1635.48" y="1072.6" width="29.41" height="5.83"/><rect class="cls-4" x="1705.74" y="1021.35" width="72.13" height="5.83"/><rect class="cls-4" x="1705.74" y="1057.89" width="72.13" height="5.83"/><rect class="cls-4" x="1884.57" y="1036.73" width="5.83" height="24.08"/><path class="cls-3" d="M1889.31,1062.25h-5.83a23.29,23.29,0,0,1,23.26-23.26v5.83A17.45,17.45,0,0,0,1889.31,1062.25Z" transform="translate(99.58 -3.05)"/><path class="cls-3" d="M1872.1,1062.25h-5.83a40.52,40.52,0,0,1,40.47-40.47v5.83A34.68,34.68,0,0,0,1872.1,1062.25Z" transform="translate(99.58 -3.05)"/><path class="cls-3" d="M1856.83,1062.25H1851a55.8,55.8,0,0,1,55.74-55.74v5.83A50,50,0,0,0,1856.83,1062.25Z" transform="translate(99.58 -3.05)"/><rect class="cls-3" x="1850.84" y="895.72" width="5.83" height="24.62"/><rect class="cls-3" x="1850.84" y="957.53" width="5.83" height="21.05"/><rect class="cls-3" x="1875.91" y="915.22" width="5.83" height="42.3"/><rect class="cls-3" x="1902.07" y="879.58" width="5.83" height="28.45"/><rect class="cls-3" x="1902.07" y="937.62" width="5.83" height="53.31"/><rect class="cls-3" x="2017.65" y="983.66" width="14.44" height="5.83"/><rect class="cls-3" x="2035.22" y="1022.89" width="20.65" height="5.83"/><rect class="cls-3" x="1702.5" y="1091.08" width="134.88" height="5.83"/><rect class="cls-3" x="1864.74" y="1091.08" width="35.54" height="5.83"/><path class="cls-4" d="M193.06,972l-39.43-19.71v39.43Zm-35.47-13.3L184.21,972l-26.62,13.31Z" transform="translate(99.58 -3.05)"/><path class="cls-4" d="M88.42,1025.9H255.83v-17.5H88.42Zm118.42-4H190.39l9-9.58h16.44Zm14.4-9.58h16.44l-9,9.58H212.27ZM185,1021.94H168.52l9-9.58h16.45Zm-21.87,0H146.65l9-9.58h16.45Zm-21.88,0H124.78l9-9.58H150.2Zm-21.87,0H102.91l9-9.58h16.44Zm132.52,0H234.14l9-9.58h8.76Zm-159.49-9.58h14.07l-9,9.58h-5.1Z" transform="translate(99.58 -3.05)"/><rect class="cls-4" x="182.01" y="880.02" width="10.18" height="3.96"/><rect class="cls-4" x="102.16" y="886.84" width="3.96" height="10.18" transform="translate(-500.62 331.84) rotate(-45)"/><rect class="cls-4" x="208.63" y="900.42" width="3.96" height="10.18"/><rect class="cls-4" x="99.05" y="923.2" width="10.18" height="3.96" transform="translate(-524.13 341.58) rotate(-45)"/><rect class="cls-4" x="182.01" y="927.04" width="10.18" height="3.96"/><rect class="cls-4" x="68.92" y="920.09" width="3.96" height="10.18" transform="translate(-533.84 318.05) rotate(-45)"/><rect class="cls-4" x="161.61" y="900.42" width="3.96" height="10.18"/><rect class="cls-4" x="65.81" y="889.96" width="10.18" height="3.96" transform="translate(-510.35 308.33) rotate(-45)"/><path class="cls-4" d="M187.37,876.81a16.91,16.91,0,0,0-2.57.19A19.24,19.24,0,0,0,147,873.7a13.93,13.93,0,0,0-10.62,9.45,14,14,0,0,0,4.31,27.38h46.72a16.86,16.86,0,0,0,0-33.72Zm0,29.76H140.65a10.07,10.07,0,0,1-2.26-19.88l1.21-.27.28-1.22a10,10,0,0,1,8.9-7.76l1.51-.14.26-1.5a15.28,15.28,0,0,1,30.34,2.64c0,.31,0,.61,0,.92l-.2,2.9,2.78-.88a12.71,12.71,0,0,1,3.93-.61,12.9,12.9,0,0,1,0,25.8Z" transform="translate(99.58 -3.05)"/><path class="cls-4" d="M185.14,897.44H146v4h39.16c9.48,0,9.48-7.53,9.48-11.14h-4C190.66,895.9,189.48,897.44,185.14,897.44Z" transform="translate(99.58 -3.05)"/><path class="cls-4" d="M59.41,948.74l9.14-9.14-14-14-9.14,9.13A43.49,43.49,0,0,0,32,929.21V916.28H16.22V890.85h-4v38.36a43.49,43.49,0,0,0-13.38,5.53l-7.16-7.15v-14h-4v14l-12,12,9.14,9.14a43.46,43.46,0,0,0-5.54,13.37h-9V890.85h-4v91h12.92a43.46,43.46,0,0,0,5.54,13.37l-9.14,9.14,14,14,9.14-9.13a43.49,43.49,0,0,0,13.38,5.53v12.93H32V1014.8a43.49,43.49,0,0,0,13.38-5.53l9.14,9.13,14-14-9.14-9.14A43.22,43.22,0,0,0,65,981.9H77.87V962.11H65A43.22,43.22,0,0,0,59.41,948.74Zm14.5,29.2H61.7l-.3,1.61a39.7,39.7,0,0,1-6.16,14.88l-.92,1.35,8.63,8.63-8.39,8.39-8.63-8.63-1.36.92a39.47,39.47,0,0,1-14.88,6.16l-1.61.31v12.21H16.22v-12.21l-1.61-.31a39.53,39.53,0,0,1-14.88-6.16l-1.35-.92-8.64,8.63-8.39-8.39,8.63-8.63-.92-1.35a39.52,39.52,0,0,1-6.15-14.88l-.31-1.61H-29.61V966.07H-17.4l.31-1.61a39.52,39.52,0,0,1,6.15-14.88l.92-1.35-8.63-8.63,8.39-8.39,8.64,8.63,1.35-.92a39.53,39.53,0,0,1,14.88-6.16l1.61-.31V920.24H28.08v12.21l1.61.31a39.47,39.47,0,0,1,14.88,6.16l1.36.92,8.63-8.63L63,939.6l-8.63,8.63.92,1.35a39.7,39.7,0,0,1,6.16,14.88l.3,1.61H73.91Z" transform="translate(99.58 -3.05)"/><rect class="cls-4" x="321.65" y="894.34" width="3.96" height="63.26"/><rect class="cls-4" x="179.36" y="905.17" width="3.96" height="85.47" transform="translate(-660.97 734.47) rotate(-66.58)"/><rect class="cls-4" x="121.77" y="949.23" width="3.96" height="32.25" transform="matrix(0.83, -0.56, 0.56, 0.83, -415.44, 228.01)"/><rect class="cls-4" x="97.84" y="984.71" width="30.93" height="3.96" transform="matrix(0.99, -0.15, 0.15, 0.99, -44.68, 24.45)"/><circle class="cls-3" cx="22.15" cy="972" r="23.25" transform="translate(-840.87 832.22) rotate(-80.61)"/><rect class="cls-3" x="281.34" y="927" width="21.75" height="3.96"/><rect class="cls-3" x="335.49" y="988.65" width="19.03" height="3.96"/><rect class="cls-3" x="301.82" y="988.65" width="13.53" height="3.96"/><circle class="cls-3" cx="323.63" cy="888.89" r="8.28"/><circle class="cls-3" cx="224.05" cy="966.41" r="8.28" transform="translate(-654.07 795.32) rotate(-67.19)"/><circle class="cls-3" cx="136.88" cy="928.65" r="8.28" transform="translate(-111.98 53.99) rotate(-13.4)"/><circle class="cls-3" cx="111.03" cy="947.53" r="8.28" transform="translate(-705.88 679.56) rotate(-67.19)"/><circle class="cls-3" cx="234.4" cy="979.92" r="8.28"/><circle class="cls-3" cx="92.61" cy="988.54" r="8.28" transform="translate(-58.59 24.82) rotate(-9.28)"/><path class="cls-4" d="M25.21,614.47A53.55,53.55,0,0,0-15,613l-.08,0a11.44,11.44,0,0,0-6.38,6.2,10.58,10.58,0,0,0-.17,8.43,11.41,11.41,0,0,0,14.49,6.55c1.06-.38,2.22-.75,3.75-1.19l.09,0,.53-.09c.45-.08.89-.16,1.34-.22l.19,0a29.39,29.39,0,0,1,5.48-.46c.4.07.83.11,1.26.16.61,0,1.22.13,1.81.21a36.46,36.46,0,0,1,3.58.69l1.13.29.35.1.09,0c1.1.41,2.27.85,3.39,1.36s2,1,2.95,1.5l.75.5a4.1,4.1,0,0,0,.43.26l.48.33c1,.7,1.94,1.46,2.85,2.25.39.34.76.68,1.13,1l.39.38.08.07,0,0,.32.33.37.39c.4.47.79.95,1.17,1.43a36.28,36.28,0,0,1,2.16,3c.28.43.54.88.8,1.32l.19.31a.05.05,0,0,0,0,0l.32.74c.45,1,.88,1.94,1.25,2.91a11.63,11.63,0,0,0,6.35,6.48,10.54,10.54,0,0,0,7.87.28l.42-.17A11.44,11.44,0,0,0,52.66,644,53.64,53.64,0,0,0,25.21,614.47ZM44.2,654a5.7,5.7,0,0,1-4.45-.11,6.82,6.82,0,0,1-3.68-3.71c-.42-1.1-.89-2.15-1.35-3.17l0-.06a4.93,4.93,0,0,0-.39-1,4.16,4.16,0,0,0-.63-.9c-.21-.35-.42-.7-.64-1-.75-1.17-1.57-2.33-2.43-3.43-.43-.54-.87-1.08-1.32-1.6l-.17-.19-.27-.33h0l-.05,0a1.14,1.14,0,0,0-.19-.19l-.3-.28-.14-.13-.41-.4c-.45-.42-.86-.79-1.27-1.15-1-.89-2.11-1.75-3.22-2.54l-.86-.59-.73-.49,0,0-.48-.3c-1.07-.6-2.19-1.18-3.33-1.69s-2.55-1.07-3.74-1.52L13.9,629h0l-.11,0a6.39,6.39,0,0,0-.91-.25l-.89-.23c-1.33-.31-2.68-.57-4-.76-.67-.1-1.36-.18-2-.25l-.19,0v0a8.46,8.46,0,0,0-1.53-.13,34.66,34.66,0,0,0-6.2.51l-.19,0-1.24.2a5,5,0,0,0-1.13.13,3.85,3.85,0,0,0-1.11.41c-1.23.37-2.24.7-3.2,1a6.56,6.56,0,0,1-8.28-3.85,5.76,5.76,0,0,1,.14-4.54,6.63,6.63,0,0,1,3.6-3.56h0a48.63,48.63,0,0,1,36.53,1.3,48.65,48.65,0,0,1,24.9,26.77C49.42,649.27,47.16,652.7,44.2,654Z" transform="translate(99.58 -3.05)"/><path class="cls-4" d="M53.69,589.34a91,91,0,0,0-51.26-15.7,88.69,88.69,0,0,0-30.09,5.57h0a11.52,11.52,0,0,0-6.43,6.25,10.56,10.56,0,0,0-.15,8.39,11.54,11.54,0,0,0,14.5,6.55c1.9-.7,3.67-1.28,5.38-1.78l1.91-.52,1-.26.33-.09.32-.06.49-.09A75,75,0,0,1,.82,596.26c.91,0,1.83,0,2.8,0s1.67,0,2.54,0l.41,0,.5,0c1,.08,2.1.18,3.13.29a75.31,75.31,0,0,1,10.76,2l1.41.39.29.11.46.14,1,.33c1.76.61,3.52,1.29,5.22,2s3.21,1.46,4.78,2.27c.83.43,1.66.89,2.46,1.34l1,.61.68.42.29.16a77.78,77.78,0,0,1,7.83,5.84c1.34,1.15,2.67,2.36,3.93,3.61.21.2.42.41.62.62l.29.28.27.29.51.56c.36.4.7.8,1,1.2a75.43,75.43,0,0,1,7.27,10.09c.06.11.15.31.26.54a11.57,11.57,0,0,0,1.5,2.62c.18.37.36.74.53,1.11.91,1.9,1.76,3.91,2.6,6.14a11.66,11.66,0,0,0,6.32,6.47,10.6,10.6,0,0,0,7.91.29l.42-.17a11.46,11.46,0,0,0,6.54-14.51A88.72,88.72,0,0,0,53.69,589.34Zm24.32,52a5.66,5.66,0,0,1-4.47-.12,6.81,6.81,0,0,1-3.66-3.69c-.89-2.36-1.79-4.49-2.76-6.51-.22-.46-.44-.92-.67-1.38l-.24-.48a5.1,5.1,0,0,0-.86-1.33l-.26-.54a10.21,10.21,0,0,0-.47-.92,78,78,0,0,0-7.77-10.8c-.37-.43-.73-.85-1.11-1.27l-.2-.22a.81.81,0,0,0-.09-.1h0l-.12-.13c-.05-.06-.11-.12-.16-.19l-.19-.19-.1-.11h0l-.11-.12L54.5,613l-.66-.65c-1.35-1.33-2.77-2.63-4.2-3.85a83.52,83.52,0,0,0-8.84-6.55l-.09-.06-.15-.1,0,0c-.11-.06-.22-.14-.34-.2-.47-.29-1-.59-1.16-.7-.85-.49-1.74-1-2.62-1.42-1.67-.87-3.39-1.68-5.09-2.42s-3.68-1.51-5.56-2.16l-1.05-.33v0h0l-.94-.27c-.52-.15-1-.3-1.55-.43a79.44,79.44,0,0,0-11.47-2.17c-1.09-.12-2.22-.22-3.34-.3l-.35,0a5.07,5.07,0,0,0-.95-.11,3.91,3.91,0,0,0-1,.09H3.66c-1,0-2,0-3.06,0a80.87,80.87,0,0,0-11.9,1.43h0a7.88,7.88,0,0,0-1.85.39h0v0l-.59.16c-.68.18-1.35.35-2,.55-1.83.53-3.69,1.14-5.71,1.89a6.54,6.54,0,0,1-8.27-3.86,5.7,5.7,0,0,1,.13-4.52A6.68,6.68,0,0,1-26,583.83h0a84,84,0,0,1,28.4-5.27,86.17,86.17,0,0,1,48.49,14.86,83.81,83.81,0,0,1,30.94,39.7C83.22,636.67,81,640.1,78,641.36Z" transform="translate(99.58 -3.05)"/><path class="cls-4" d="M74.79,558.58A128.18,128.18,0,0,0,2.24,536.33a126.34,126.34,0,0,0-42.93,7.93h0a11.5,11.5,0,0,0-6.44,6.26,10.58,10.58,0,0,0-.14,8.38,11.51,11.51,0,0,0,14.5,6.55c2.84-1.06,5.64-2,8.32-2.74,1.35-.39,2.76-.77,4.17-1.12l.67-.15c.14,0,.33-.07.54-.14h0l.2,0,1.09-.22A113,113,0,0,1-.7,559c1.65-.07,3.28-.05,5,0,1.11,0,2.27,0,3.42,0h.17l1.92.12c1.47.11,3,.24,4.43.41a112.47,112.47,0,0,1,16.16,3c1,.26,2,.54,2.92.82l.52.15.75.24c.7.22,1.39.46,2.08.71,2.57.89,5.13,1.89,7.63,3s5,2.27,7.38,3.53c1.2.63,2.41,1.29,3.58,2l1.64,1,.93.58.36.21,0,0,.08.06c2.47,1.63,4.72,3.19,6.79,4.72s4,3.06,5.78,4.6c2.08,1.78,4.12,3.67,6.06,5.6.46.45.91.91,1.35,1.36a10.2,10.2,0,0,0,.82.79c.51.52,1,1.15,1.56,1.8l.79.94a112.37,112.37,0,0,1,11,15.23c.45.75.89,1.51,1.32,2.27l.57,1,.1.2.32.6c.17.31.33.62.39.74.4.79.79,1.59,1.17,2.39,1.39,2.9,2.72,6,3.94,9.29a11.62,11.62,0,0,0,6.32,6.47,10.6,10.6,0,0,0,7.91.29l.42-.16a11.48,11.48,0,0,0,6.54-14.52A126.31,126.31,0,0,0,74.79,558.58ZM113,628.33a5.69,5.69,0,0,1-4.48-.12,6.7,6.7,0,0,1-3.64-3.68c-1.28-3.4-2.66-6.65-4.11-9.68-.4-.84-.81-1.68-1.22-2.5-.07-.12-.25-.46-.43-.81a1.4,1.4,0,0,1-.09-.17,1,1,0,0,1-.08-.18h0a.69.69,0,0,1-.09-.15l-.06-.12-.09-.14-.16-.3-.5-.89c-.45-.79-.92-1.58-1.39-2.37a115.78,115.78,0,0,0-11.44-15.9l-.72-.87c-.59-.71-1.19-1.44-1.86-2.12-.21-.23-.44-.43-.66-.63a1.59,1.59,0,0,0-.13-.13l-1.4-1.42c-2-2-4.17-4-6.34-5.85a128.17,128.17,0,0,0-13.75-10.15h0v0c-.35-.23-.74-.46-.9-.56l-1.71-1c-1.23-.71-2.49-1.39-3.75-2-2.52-1.31-5.11-2.55-7.7-3.67s-5.28-2.18-8-3.12L36.12,559l-.38-.12h0l-.64-.19H35l-.33-.1c-1-.29-2-.58-3-.85a115.49,115.49,0,0,0-16.87-3.16c-1.53-.18-3.09-.32-4.63-.43L8.25,554l-.64,0H7.06v0c-.91,0-1.83,0-2.73,0-1.7,0-3.47,0-5.24.05a116.5,116.5,0,0,0-17.84,2.16l-1.12.22-.22,0-.16,0-.13,0-.17,0h0l-.16,0h0l-.76.18c-1.48.36-2.94.75-4.37,1.16-2.78.8-5.7,1.76-8.66,2.86a6.19,6.19,0,0,1-4.82-.21A7,7,0,0,1-42.78,557a5.68,5.68,0,0,1,.14-4.51,6.62,6.62,0,0,1,3.64-3.6h0a121.19,121.19,0,0,1,41.24-7.62A123.36,123.36,0,0,1,72,562.65a121.33,121.33,0,0,1,44.78,57.43A6.57,6.57,0,0,1,113,628.33Z" transform="translate(99.58 -3.05)"/><rect class="cls-3" x="95.78" y="649.39" width="26.55" height="4.92" transform="translate(-121.19 76.08) rotate(-20.44)"/><rect class="cls-3" x="44.24" y="668.59" width="26.55" height="4.92" transform="translate(-131.15 59.29) rotate(-20.44)"/><circle class="cls-3" cx="102.9" cy="659.32" r="16.35"/><path class="cls-4" d="M1650.56,412.43l47.59,20.08L1731,354.7l-47.59-20.08Zm35.72-70.7,37.59,15.86-28.61,67.81-37.59-15.86Z" transform="translate(99.58 -3.05)"/><rect class="cls-4" x="1699.11" y="343.57" width="5.43" height="27.59" transform="translate(810.63 1783.41) rotate(-67.13)"/><rect class="cls-4" x="1694.76" y="353.87" width="5.43" height="27.59" transform="translate(798.49 1785.7) rotate(-67.13)"/><circle class="cls-3" cx="1681.6" cy="405.29" r="6.72" transform="translate(754.12 1794.07) rotate(-67.13)"/><rect class="cls-4" x="1611.65" y="103.12" width="3.86" height="9.92" transform="translate(869.68 1484.84) rotate(-62.39)"/><rect class="cls-4" x="1622.89" y="116.56" width="3.86" height="9.92" transform="matrix(0.95, -0.3, 0.3, 0.95, 137.55, 488.25)"/><rect class="cls-4" x="1618.3" y="137.04" width="9.92" height="3.86" transform="translate(847.5 1509.99) rotate(-62.39)"/><rect class="cls-4" x="1604.86" y="148.28" width="9.92" height="3.86" transform="translate(128.29 485.07) rotate(-17.39)"/><rect class="cls-4" x="1590.44" y="143.69" width="3.86" height="9.92" transform="translate(822.35 1487.81) rotate(-62.39)"/><rect class="cls-4" x="1579.21" y="130.25" width="3.86" height="9.92" transform="translate(131.46 475.81) rotate(-17.39)"/><rect class="cls-4" x="1577.74" y="115.83" width="9.92" height="3.86" transform="translate(844.53 1462.66) rotate(-62.39)"/><rect class="cls-4" x="1591.18" y="104.59" width="9.92" height="3.86" transform="matrix(0.95, -0.3, 0.3, 0.95, 140.72, 478.98)"/><path class="cls-4" d="M42.5,470.73v0H84.65v-17h-163v17h117v0Zm38.29-3.89H42.5v-9.33H80.79Zm-106.72-9.33H-6.2l-9.73,9.33H-35.66Zm-15.31,9.33H-61l9.73-9.33H-31.5Zm40.62-9.33H19.11l-9.74,9.33H-10.36Zm-73.88,0h17.69l-9.73,9.33h-8ZM15,466.84l9.73-9.33h14v9.33Z" transform="translate(99.58 -3.05)"/><polygon class="cls-4" points="1844.22 154.78 1833.65 154.78 1830.46 141.27 1826.71 142.15 1830.6 158.63 1844.22 158.63 1844.22 154.78"/><path class="cls-4" d="M1815.62,225.28H1773v17.19h42.59ZM1811,237.82h-33.29v-7.9H1811Z" transform="translate(99.58 -3.05)"/><path class="cls-4" d="M1815.62,247.38H1773v17.2h42.59ZM1811,259.93h-33.29V252H1811Z" transform="translate(99.58 -3.05)"/><path class="cls-4" d="M1710,221v93h51.69v7.66H1827V314h51.69V221H1827v-7.66h-65.29V221Zm4.65,88.36V225.63h47v83.72ZM1874,225.63v83.72h-47V225.63ZM1766.32,218h56v99h-56V218Z" transform="translate(99.58 -3.05)"/><path class="cls-4" d="M1719.67,246.51h37V231.17h-37Zm4.64-10.69H1752v6h-27.69Z" transform="translate(99.58 -3.05)"/><path class="cls-4" d="M1719.67,265.35h37V250h-37Zm4.64-10.69H1752v6h-27.69Z" transform="translate(99.58 -3.05)"/><path class="cls-4" d="M1710.28,102.93h48.57V23.5h-48.57Zm5.1-74.32h38.37V97.82h-38.37Z" transform="translate(99.58 -3.05)"/><path class="cls-4" d="M1869,231.17h-37v15.34h37Zm-4.65,10.69h-27.68v-6h27.68Z" transform="translate(99.58 -3.05)"/><path class="cls-4" d="M1869,250h-37v15.34h37Zm-4.65,10.7h-27.68v-6h27.68Z" transform="translate(99.58 -3.05)"/><rect class="cls-4" x="1821.17" y="30.87" width="25.95" height="5.11"/><rect class="cls-4" x="1821.17" y="41.39" width="25.95" height="5.11"/><rect class="cls-4" x="1813.02" y="100.33" width="47.66" height="3.86" transform="translate(317.08 972.24) rotate(-31.52)"/><rect class="cls-4" x="1878.16" y="84.67" width="3.86" height="42.92" transform="translate(499.64 1267.35) rotate(-41.42)"/><rect class="cls-4" x="1901.95" y="116.03" width="40.6" height="3.86" transform="translate(179.91 677.31) rotate(-20.49)"/><circle class="cls-3" cx="1929.07" cy="380.91" r="31.26"/><path class="cls-4" d="M1798.24,382v3.85H1811c.54,17.68,8.46,31.26,18.48,31.26s17.94-13.58,18.48-31.26h12.78V382H1848c-.54-17.68-8.46-31.27-18.48-31.27S1811.56,364.35,1811,382Zm16.64,3.85h12.69V413C1820.81,411.14,1815.35,399.64,1814.88,385.88ZM1831.43,413V385.88h12.68C1843.64,399.64,1838.18,411.14,1831.43,413Zm12.68-31h-12.68V354.89C1838.18,356.77,1843.64,368.27,1844.11,382Zm-16.54-27.14V382h-12.69C1815.35,368.27,1820.81,356.77,1827.57,354.89Z" transform="translate(99.58 -3.05)"/><path class="cls-3" d="M1649.44,120.18h-5.11a37.24,37.24,0,0,0-37.2-37.2V77.87A42.36,42.36,0,0,1,1649.44,120.18Z" transform="translate(99.58 -3.05)"/><path class="cls-3" d="M1666.9,120.18h-5.1a54.74,54.74,0,0,0-54.67-54.67v-5.1A59.83,59.83,0,0,1,1666.9,120.18Z" transform="translate(99.58 -3.05)"/><path class="cls-3" d="M1685.61,120.18h-5.1a73.46,73.46,0,0,0-73.38-73.37V41.7A78.57,78.57,0,0,1,1685.61,120.18Z" transform="translate(99.58 -3.05)"/><path class="cls-3" d="M1700.87,120.18h-5.1a88.75,88.75,0,0,0-88.64-88.64v-5.1A93.84,93.84,0,0,1,1700.87,120.18Z" transform="translate(99.58 -3.05)"/><circle class="cls-3" cx="1738.16" cy="293.85" r="7.51" transform="translate(1269.25 1959.45) rotate(-80.78)"/><circle class="cls-3" cx="1850.49" cy="293.85" r="7.51" transform="translate(76.4 297.17) rotate(-9.22)"/><path class="cls-3" d="M1685.7,294.45h-4.64a18.56,18.56,0,0,1,18.54-18.54v4.65A13.91,13.91,0,0,0,1685.7,294.45Z" transform="translate(99.58 -3.05)"/><path class="cls-3" d="M1672,294.45h-4.64a32.29,32.29,0,0,1,32.26-32.26v4.65A27.64,27.64,0,0,0,1672,294.45Z" transform="translate(99.58 -3.05)"/><path class="cls-3" d="M1659.81,294.45h-4.65A44.49,44.49,0,0,1,1699.6,250v4.65A39.84,39.84,0,0,0,1659.81,294.45Z" transform="translate(99.58 -3.05)"/><rect class="cls-3" x="1859.13" y="104.31" width="3.86" height="15.21" transform="translate(1268.06 1839.88) rotate(-71.64)"/><rect class="cls-3" x="1870.44" y="127.45" width="3.86" height="17.08" transform="translate(1252.96 1867.1) rotate(-71.64)"/><rect class="cls-3" x="1841.02" y="118.83" width="3.86" height="14.78" transform="translate(1242.08 1832.49) rotate(-71.64)"/><rect class="cls-3" x="1821.12" y="116.1" width="30.33" height="5.11"/><rect class="cls-3" x="1724.22" y="190.17" width="13.66" height="3.86"/><rect class="cls-3" x="1900.14" y="81.79" width="3.86" height="21.18" transform="translate(1314.69 1865.42) rotate(-71.64)"/><rect class="cls-3" x="1778.24" y="204.51" width="43.32" height="4.65"/><rect class="cls-3" x="1768.83" y="21.85" width="18.8" height="5.11"/><rect class="cls-3" x="1769.24" y="222.5" width="17.12" height="4.65"/><circle class="cls-3" cx="1811.01" cy="117.2" r="8.06" transform="translate(1228.77 1796) rotate(-71.64)"/><circle class="cls-3" cx="1863.2" cy="85.95" r="8.06" transform="matrix(0.32, -0.95, 0.95, 0.32, 1294.18, 1824.13)"/><circle class="cls-3" cx="1899.09" cy="124.54" r="8.06" transform="translate(1573.81 1976.64) rotate(-80.85)"/><circle class="cls-3" cx="1946.1" cy="107.65" r="8.06" transform="translate(1330.36 1917.67) rotate(-71.64)"/><circle class="cls-3" cx="1893.9" cy="295.38" r="8.81"/><circle class="cls-3" cx="1834.14" cy="82.34" r="6.32"/><path class="cls-4" d="M253.76,926.27h48.58V846.84H253.76ZM258.87,852h38.36v69.21H258.87Z" transform="translate(99.58 -3.05)"/><rect class="cls-4" x="364.65" y="854.21" width="25.95" height="5.11"/><rect class="cls-4" x="364.65" y="864.73" width="25.95" height="5.11"/><path class="cls-3" d="M333.92,1088.52h-5.1a37.25,37.25,0,0,0-37.21-37.2v-5.11A42.36,42.36,0,0,1,333.92,1088.52Z" transform="translate(99.58 -3.05)"/><path class="cls-3" d="M351.39,1088.52h-5.11a54.73,54.73,0,0,0-54.67-54.67v-5.1A59.84,59.84,0,0,1,351.39,1088.52Z" transform="translate(99.58 -3.05)"/><path class="cls-3" d="M370.1,1088.52H365a73.47,73.47,0,0,0-73.38-73.38V1010A78.58,78.58,0,0,1,370.1,1088.52Z" transform="translate(99.58 -3.05)"/><path class="cls-3" d="M385.36,1088.52h-5.11a88.74,88.74,0,0,0-88.64-88.64v-5.1A93.85,93.85,0,0,1,385.36,1088.52Z" transform="translate(99.58 -3.05)"/><rect class="cls-3" x="312.32" y="845.19" width="18.8" height="5.11"/><circle class="cls-3" cx="377.63" cy="905.68" r="6.32"/><rect class="cls-3" x="1907.77" y="176.56" width="9.01" height="3.86"/><path class="cls-4" d="M1549.73,46.58l-11.93-15.1-14.56,1.08-5.84,5,12.65,17.84,6.75-5.58L1546,79.12l-8.73-.73-.21,21.86,7.68.81,12.56-7.42,1.19-19.2Zm-5.88,50.55-3-.31.14-14.28,10.29.86-12.56-40.11-8,6.58-8.25-11.64,2.26-2,11.27-.83,10.23,13,8.31,26.52-1,16.48Z" transform="translate(99.58 -3.05)"/><path class="cls-4" d="M112.56,353.13a29,29,0,0,0,21.73-9.81H252V306.51h-3.82v33h-111a28.87,28.87,0,0,0,4.37-13.5h65.35v-3.82H141.52a28.93,28.93,0,0,0-7.83-18V273.57h39.59v-3.82H129.87v31a28.79,28.79,0,0,0-6.31-3.56V262.75l51.9-51.89V192.38h-3.82v16.89L120.3,260.61l-.56.56V296a28.83,28.83,0,0,0-7.18-.9h0v-74h26.9V192.38h-3.82v24.85h-26.9v78.09a28.69,28.69,0,0,0-7.88,2.2,29.93,29.93,0,0,0-1.25-3.71V192.38H95.78V287.2a29.08,29.08,0,0,0-34.29-9,29,29,0,0,0-55.76-1,29.1,29.1,0,0,0-19.15,19.14,28.94,28.94,0,0,0-8.7,4.43V264.84H-68.51v3.82h42.57v35.52A29,29,0,0,0-30,309.7V286.4H-88.16v3.82h54.31v33.87h0a29.05,29.05,0,0,0,14.66,25.22H-52.85v-36h-3.82v39.8H-2.89V379H-59.18v3.82H.93V353.13H12.59v46.29H-45.92v3.82H16.41V353.13H74.47V377h-39v3.82H78.29V353.13H95.78v19.66h81V369H99.6V353.13ZM-4.82,349.31A25.24,25.24,0,0,1-30,324.09a25.24,25.24,0,0,1,18.65-24.35l1.07-.28.28-1.07A25.25,25.25,0,0,1,7.76,280.6l1.07-.29.28-1.06a25.23,25.23,0,0,1,49.17,2l.46,2.57,2.31-1.22a25.22,25.22,0,0,1,36.57,18l.45,2.64,2.35-1.29a25.22,25.22,0,1,1,12.14,47.33H-4.82Z" transform="translate(99.58 -3.05)"/><path class="cls-4" d="M-17.9,322.62h-3.82A20.72,20.72,0,0,0-1,343.32H84.18V339.5H-1A16.89,16.89,0,0,1-17.9,322.62Z" transform="translate(99.58 -3.05)"/><rect class="cls-4" x="197.27" y="336.45" width="14" height="3.82"/><polygon class="cls-4" points="316.91 298.59 252.95 298.59 252.95 302.41 318.49 302.41 347.76 273.14 388.39 273.14 388.39 269.32 346.18 269.32 316.91 298.59"/><rect class="cls-3" x="338.27" y="388.39" width="22.7" height="3.82"/><rect class="cls-3" x="298.13" y="388.39" width="9.46" height="3.82"/><rect class="cls-3" x="250.67" y="250.05" width="13.53" height="3.82"/><rect class="cls-3" x="414.33" y="258.72" width="14.07" height="3.82"/><circle class="cls-3" cx="-73.79" cy="266.75" r="7.98" transform="translate(42.53 -12.56) rotate(-11.99)"/><circle class="cls-3" cx="281.11" cy="367.83" r="7.98"/><circle class="cls-3" cx="277.75" cy="268.62" r="7.98"/><circle class="cls-3" cx="197.27" cy="183.35" r="7.98"/><circle class="cls-3" cx="273.12" cy="183.35" r="7.98"/><circle class="cls-3" cx="237.12" cy="183.35" r="7.98"/><circle class="cls-3" cx="7.98" cy="285.26" r="7.98"/><circle class="cls-3" cx="-54.76" cy="308.98" r="7.98" transform="translate(27.12 -7.36) rotate(-13.28)"/><circle class="cls-3" cx="212.56" cy="324.09" r="7.98" transform="translate(-67.33 242.18) rotate(-45)"/><circle class="cls-3" cx="212.56" cy="324.09" r="7.98" transform="translate(-67.33 242.18) rotate(-45)"/><circle class="cls-3" cx="250.04" cy="302.85" r="7.98" transform="translate(54.29 40.92) rotate(-9.22)"/><circle class="cls-3" cx="394.04" cy="271.23" r="7.98"/><circle class="cls-3" cx="-65.81" cy="380.94" r="7.98" transform="translate(-292.99 171.32) rotate(-67.5)"/><circle class="cls-3" cx="31.28" cy="378.86" r="7.98" transform="translate(13.37 14.28) rotate(-13.28)"/><circle class="cls-3" cx="-52.9" cy="401.33" r="7.98" transform="translate(5.96 -4.46) rotate(-13.28)"/><rect class="cls-4" x="200.59" y="28.4" width="3.82" height="35.69"/><rect class="cls-4" x="134.89" y="20.42" width="62.05" height="3.82"/><rect class="cls-3" x="149.26" y="38.71" width="9.36" height="3.82"/><rect class="cls-3" x="176.54" y="45.39" width="15.53" height="3.82"/><rect class="cls-3" x="177.02" y="69.2" width="3.82" height="11.04"/><rect class="cls-3" x="131.34" y="115.58" width="3.82" height="9.27"/><rect class="cls-3" x="147.3" y="80.01" width="13.05" height="3.82"/><circle class="cls-3" cx="102.93" cy="72.24" r="7.98" transform="translate(96.01 136.07) rotate(-67.19)"/><circle class="cls-3" cx="202.5" cy="22.33" r="7.98"/><circle class="cls-3" cx="129.15" cy="22.33" r="7.98"/><path class="cls-4" d="M59.34,144.25H95.69V84.81H59.34Zm3.82-55.62H91.87v51.8H63.16Z" transform="translate(99.58 -3.05)"/><rect class="cls-4" x="167.39" y="89.56" width="19.41" height="3.82"/><rect class="cls-4" x="167.39" y="97.43" width="19.41" height="3.82"/><circle class="cls-3" cx="177.09" cy="128.07" r="4.73"/><rect class="cls-3" x="131.34" y="59.94" width="3.82" height="27.53"/><path class="cls-4" d="M179.39,522.06l-19.88,19.88,13.76,13.76,19.88-19.88-3-3,6.91-6.91a26.71,26.71,0,0,0,14.55,4.32c.64,0,1.28,0,1.92-.07a26.68,26.68,0,1,0-24.27-12.06L182.37,525Zm-6.12,28.81-8.92-8.93,15-15,8.93,8.92Zm21.93-63.74a23.25,23.25,0,1,1,2.7,35.21h0a23.08,23.08,0,0,1-2.7-2.32,22.5,22.5,0,0,1-1.78-2c-.19-.23-.37-.46-.54-.7A23.4,23.4,0,0,1,195.2,487.13Zm-3.85,33.76,0,0,.44.49c.09.09.17.19.25.28l.72.74c.24.25.49.48.74.72l.32.28.46.41,0,0-6.56,6.57-3-3Z" transform="translate(99.58 -3.05)"/><path class="cls-4" d="M170.23,484.79a14.19,14.19,0,1,0-3.92,27.83h10.9V509.2h-10.9a10.77,10.77,0,1,1,0-21.54,10.53,10.53,0,0,1,4.08.81l1.52.62.68-1.48a10.82,10.82,0,0,1,9.78-6.25h.18l1.46.07.29-1.43a10.81,10.81,0,0,1,10.55-8.59,10.46,10.46,0,0,1,3.74.68l2.14.8.17-2.28a10.77,10.77,0,0,1,21.43-.56l.21,1.72,1.72-.25a11.66,11.66,0,0,1,1.55-.11,10.78,10.78,0,0,1,10.7,9.51l.27,2.31,2.12-.94a10.58,10.58,0,0,1,4.36-.93,10.77,10.77,0,0,1,9.9,6.52l.71,1.64,1.61-.78a10.59,10.59,0,0,1,4.7-1.08,10.77,10.77,0,0,1,0,21.54H245.55v3.42h14.63a14.19,14.19,0,0,0,0-28.38,14,14,0,0,0-4.64.78,14.17,14.17,0,0,0-12.28-7.08,14,14,0,0,0-3.76.51A14.16,14.16,0,0,0,225.42,468a14.19,14.19,0,0,0-27.62.3,14.47,14.47,0,0,0-3-.3,14.25,14.25,0,0,0-13.56,10A14.24,14.24,0,0,0,170.23,484.79Z" transform="translate(99.58 -3.05)"/><circle class="cls-3" cx="311.22" cy="500.53" r="15.67"/><rect class="cls-3" x="337.29" y="439.95" width="21.32" height="3.42"/><rect class="cls-3" x="314.14" y="439.95" width="11.54" height="3.42"/><rect class="cls-3" x="384.75" y="461.94" width="3.42" height="12.95"/><rect class="cls-3" x="345.13" y="460.23" width="18.78" height="3.42"/><rect class="cls-3" x="264.57" y="457.34" width="17.38" height="3.42"/><rect class="cls-3" x="345.13" y="520.83" width="18.78" height="3.42"/><rect class="cls-3" x="323.82" y="534.64" width="24.13" height="3.42"/><rect class="cls-3" x="303.36" y="534.64" width="9.46" height="3.42"/><rect class="cls-3" x="337.29" y="548.21" width="7.84" height="3.42"/><rect class="cls-3" x="253.4" y="517.61" width="11.74" height="3.42"/><rect class="cls-3" x="244.92" y="550.65" width="11.74" height="3.42"/><rect class="cls-3" x="233.24" y="531.63" width="20.17" height="3.42"/><rect class="cls-3" x="384.75" y="484.91" width="3.42" height="22.96"/><rect class="cls-3" x="320.97" y="54.85" width="4.26" height="108.14"/><path class="cls-4" d="M270.51,6.58H219.44V42.87h51.07Zm-8,4.26L245,25.64,227.4,10.84ZM223.7,38.61V13.28L245,31.2l21.28-17.92V38.61Z" transform="translate(99.58 -3.05)"/><path class="cls-4" d="M385.44,38.62l-16-32.55L323.59,28.65l16,32.55ZM341.57,55.5l-11.2-22.71,27,6.66L368.54,14l11.2,22.71Zm-9-26.55,31.53-15.54-9.22,21Z" transform="translate(99.58 -3.05)"/><path class="cls-4" d="M346.53,92.49,299.19,73.31,285.57,107l47.34,19.17Zm-9,1-21.84,7.12L305,80.25ZM291.12,104.6l9.5-23.47,13,24.59,26.45-8.62-9.51,23.48Z" transform="translate(99.58 -3.05)"/><path class="cls-4" d="M315.84,210.27a15.68,15.68,0,0,0,2.49-31.17,15.8,15.8,0,0,0-14.89-10.75,15.54,15.54,0,0,0-5.66,1.06,15.67,15.67,0,0,0-27-7.94l3.13,2.88a11.42,11.42,0,0,1,19.84,7.72c0,.22,0,.44,0,.66l-.15,4.19,3.47-2.35a11.36,11.36,0,0,1,6.39-2,11.49,11.49,0,0,1,11.15,8.92l.35,1.56,1.6.1a11.42,11.42,0,0,1-.7,22.82H231.92a11.42,11.42,0,0,1-6.36-20.91l2.63-1.77-2.62-1.77a11.4,11.4,0,0,1-5.07-9.49h-4.26A15.67,15.67,0,0,0,221,183.33a15.68,15.68,0,0,0,10.91,26.94Z" transform="translate(99.58 -3.05)"/><rect class="cls-4" x="373.46" y="191.85" width="35.02" height="4.26"/><rect class="cls-4" x="342.87" y="191.85" width="17.51" height="4.26"/><path class="cls-3" d="M245.83,160.3c-1.43-11.12-2.76-40,15.58-67.86,20-30.44,50-39.94,62-42.62l.93,4.16c-11.46,2.56-40.17,11.66-59.36,40.8-17.56,26.68-16.28,54.33-14.92,65Z" transform="translate(99.58 -3.05)"/><path class="cls-3" d="M261.1,163.57c-1-4.42-1.94-13.11,2.37-21.67,6.16-12.22,20.29-19.35,36-18.14l-.32,4.25c-14-1.07-26.51,5.13-31.88,15.8-3.72,7.39-2.86,15-2,18.85Z" transform="translate(99.58 -3.05)"/><rect class="cls-3" x="340.74" y="51.93" width="4.26" height="31.89"/><rect class="cls-3" x="329.6" y="51.93" width="4.26" height="13.96"/><rect class="cls-3" x="351.87" y="51.93" width="4.26" height="13.96"/><rect class="cls-3" x="541.26" y="8.14" width="37.32" height="4.26"/><rect class="cls-3" x="502.25" y="24.62" width="61.41" height="4.26"/><rect class="cls-3" x="287.1" y="16.43" width="22.11" height="4.26" transform="translate(173.78 213.22) rotate(-45)"/><rect class="cls-3" x="280.34" y="42.64" width="22.11" height="4.26" transform="translate(153.28 216.13) rotate(-45)"/><rect class="cls-3" x="492.81" y="8.14" width="23.52" height="4.26"/><rect class="cls-3" x="396.3" y="140.83" width="41.77" height="4.26"/><path class="cls-4" d="M523.29,37.33,485.43,3.05,461.07,30l37.86,34.28Zm-8.76-2.19-23-.83-3.1-22.76Zm-47.44-5.49,17-18.77,3.75,27.56,27.8,1-17,18.77Z" transform="translate(99.58 -3.05)"/><path class="cls-4" d="M1922.75,454.42a16.91,16.91,0,0,0-2.57.2,19.25,19.25,0,0,0-37.85-3.31,13.93,13.93,0,0,0-10.61,9.45,14,14,0,0,0,4.31,27.38h46.72a16.86,16.86,0,0,0,0-33.72Zm0,29.76H1876a10.07,10.07,0,0,1-2.26-19.88L1875,464l.28-1.22a10,10,0,0,1,8.9-7.76l1.51-.14.26-1.5a15.29,15.29,0,0,1,30.34,2.64c0,.31,0,.62,0,.92l-.2,2.9,2.78-.88a12.9,12.9,0,1,1,3.93,25.19Z" transform="translate(99.58 -3.05)"/><path class="cls-4" d="M1811.16,511.91l9.14-9.14-14-14-9.14,9.14a43.32,43.32,0,0,0-13.37-5.54V479.46H1768V454h-4v38.36a43.27,43.27,0,0,0-13.38,5.54l-7.15-7.16V476.81h-4v13.95l-12,12,9.14,9.14a43.52,43.52,0,0,0-5.54,13.38h-9V454h-4v91.05h12.92a43.52,43.52,0,0,0,5.54,13.38l-9.14,9.14,14,14,9.14-9.14A43.52,43.52,0,0,0,1764,578V590.9h19.79V578a43.56,43.56,0,0,0,13.37-5.54l9.14,9.14,14-14-9.14-9.14a43.27,43.27,0,0,0,5.54-13.38h12.92V525.29H1816.7A43.27,43.27,0,0,0,1811.16,511.91Zm14.5,29.2h-12.21l-.3,1.61A39.63,39.63,0,0,1,1807,557.6l-.92,1.36,8.63,8.63-8.39,8.39-8.63-8.63-1.36.92a39.45,39.45,0,0,1-14.88,6.15l-1.61.31v12.21H1768V574.73l-1.61-.31a39.52,39.52,0,0,1-14.88-6.15l-1.35-.92-8.64,8.63-8.39-8.39,8.63-8.63-.92-1.36a39.52,39.52,0,0,1-6.15-14.88l-.31-1.61h-12.21V529.25h12.21l.31-1.61a39.45,39.45,0,0,1,6.15-14.88l.92-1.36-8.63-8.63,8.39-8.39,8.64,8.63,1.35-.92a39.7,39.7,0,0,1,14.88-6.16l1.61-.3V483.42h11.86v12.21l1.61.3a39.63,39.63,0,0,1,14.88,6.16l1.36.92,8.63-8.63,8.39,8.39-8.63,8.63.92,1.36a39.63,39.63,0,0,1,6.16,14.88l.3,1.61h12.21Z" transform="translate(99.58 -3.05)"/><circle class="cls-3" cx="1773.9" cy="535.18" r="23.25" transform="translate(1056.04 2194.94) rotate(-80.61)"/></g></g></g></svg>