<svg id="Layer_1" data-name="Layer 1" xmlns="http://www.w3.org/2000/svg" xmlns:xlink="http://www.w3.org/1999/xlink" viewBox="0 0 757.99 519.71"><defs><style>.cls-1{fill:none;}.cls-2{opacity:0.36;}.cls-3{fill:#c4c4cc;}.cls-25,.cls-26,.cls-4{fill:#e84242;}.cls-5{fill:url(#linear-gradient);}.cls-6{fill:url(#linear-gradient-2);}.cls-7{fill:#fff;}.cls-8{fill:#8a8fa2;}.cls-9{fill:#dcddf2;}.cls-10{fill:#c9cbdb;}.cls-11{fill:#06001f;}.cls-12{fill:url(#linear-gradient-3);}.cls-13{fill:url(#linear-gradient-4);}.cls-14{fill:url(#linear-gradient-5);}.cls-15,.cls-24{fill:#c8c7d4;}.cls-16{fill:url(#linear-gradient-6);}.cls-17{fill:url(#linear-gradient-7);}.cls-18{fill:url(#linear-gradient-8);}.cls-19{fill:url(#linear-gradient-9);}.cls-20{fill:url(#linear-gradient-10);}.cls-21{fill:#e6e6ff;}.cls-22{fill:url(#linear-gradient-11);}.cls-23,.cls-24{opacity:0.51;}.cls-24,.cls-25,.cls-26{isolation:isolate;}.cls-25{opacity:0.1;}.cls-26{opacity:0.4;}.cls-27{fill:#f32222;}.cls-28{fill:url(#linear-gradient-12);}.cls-29{fill:url(#linear-gradient-13);}.cls-30{fill:url(#linear-gradient-14);}.cls-31{fill:url(#linear-gradient-15);}.cls-32{fill:url(#linear-gradient-16);}.cls-33{fill:url(#linear-gradient-17);}.cls-34{opacity:0.11;}.cls-35{clip-path:url(#clip-path);}.cls-36{fill:url(#linear-gradient-18);}.cls-37{fill:url(#linear-gradient-19);}.cls-38{opacity:0.8;}.cls-39{fill:url(#linear-gradient-20);}.cls-40{fill:url(#linear-gradient-21);}.cls-41{fill:url(#linear-gradient-22);}.cls-42{fill:url(#linear-gradient-23);}.cls-43{fill:url(#linear-gradient-24);}.cls-44{fill:url(#linear-gradient-25);}.cls-45{clip-path:url(#clip-path-2);}.cls-46{fill:url(#linear-gradient-26);}.cls-47{fill:url(#linear-gradient-27);}</style><linearGradient id="linear-gradient" x1="-558.38" y1="798.87" x2="-557.38" y2="798.87" gradientTransform="matrix(304.33, 0, 0, -171.5, 175929.8, 137178.63)" gradientUnits="userSpaceOnUse"><stop offset="0" stop-color="#c4c5d7"/><stop offset="0.3" stop-color="#c8c9dc"/><stop offset="0.66" stop-color="#d4d5ea"/><stop offset="1" stop-color="#e6e6ff"/></linearGradient><linearGradient id="linear-gradient-2" x1="-558.06" y1="798.91" x2="-557.06" y2="798.91" gradientTransform="matrix(304.51, 0, 0, -175.8, 176036.04, 140616.06)" gradientUnits="userSpaceOnUse"><stop offset="0" stop-color="#e0e0f6"/><stop offset="0.4" stop-color="#e5e5f7"/><stop offset="0.88" stop-color="#f3f3fc"/><stop offset="1" stop-color="#f8f8fd"/></linearGradient><linearGradient id="linear-gradient-3" x1="-495.59" y1="794.3" x2="-494.59" y2="794.3" gradientTransform="matrix(77.94, 0, 0, -44.98, 44710.66, 35870.35)" xlink:href="#linear-gradient-2"/><linearGradient id="linear-gradient-4" x1="-549.46" y1="799.41" x2="-548.46" y2="799.41" gradientTransform="matrix(215.43, 0, 0, -255.42, 124458.51, 204312.97)" xlink:href="#linear-gradient-2"/><linearGradient id="linear-gradient-5" x1="-402.16" y1="798.57" x2="-401.16" y2="798.57" gradientTransform="matrix(37, 0, 0, -144.91, 20967.02, 115902.82)" xlink:href="#linear-gradient"/><linearGradient id="linear-gradient-6" x1="-579.48" y1="798.87" x2="-578.48" y2="798.87" gradientTransform="matrix(304.26, 0, 0, -171.52, 176345.5, 137196.93)" xlink:href="#linear-gradient"/><linearGradient id="linear-gradient-7" x1="-579.15" y1="798.91" x2="-578.15" y2="798.91" gradientTransform="matrix(304.5, 0, 0, -175.8, 176486.16, 140611.87)" xlink:href="#linear-gradient-2"/><linearGradient id="linear-gradient-8" x1="-578.77" y1="794.3" x2="-577.77" y2="794.3" gradientTransform="matrix(78.05, 0, 0, -45, 45288.68, 35883.63)" xlink:href="#linear-gradient-2"/><linearGradient id="linear-gradient-9" x1="-578.86" y1="799.41" x2="-577.86" y2="799.41" gradientTransform="matrix(215.44, 0, 0, -255.42, 124826.9, 204312.97)" xlink:href="#linear-gradient-2"/><linearGradient id="linear-gradient-10" x1="-578.18" y1="798.57" x2="-577.18" y2="798.57" gradientTransform="matrix(36.98, 0, 0, -144.91, 21502.51, 115902.82)" xlink:href="#linear-gradient"/><linearGradient id="linear-gradient-11" x1="-576.16" y1="798.45" x2="-576.16" y2="799.2" gradientTransform="matrix(173.68, 0, 0, -157.11, 100532.84, 125773.69)" xlink:href="#linear-gradient-2"/><linearGradient id="linear-gradient-12" x1="-576.16" y1="798.45" x2="-576.16" y2="799.2" gradientTransform="matrix(173.68, 0, 0, -157.11, 100532.84, 125675.27)" xlink:href="#linear-gradient-2"/><linearGradient id="linear-gradient-13" x1="-554.62" y1="799.43" x2="-553.62" y2="799.43" gradientTransform="matrix(219.2, 0, 0, -259.98, 126976.9, 208133.06)" xlink:href="#linear-gradient-2"/><linearGradient id="linear-gradient-14" x1="-432.31" y1="798.61" x2="-431.31" y2="798.61" gradientTransform="matrix(37.66, 0, 0, -147.55, 21682.99, 118186.83)" xlink:href="#linear-gradient"/><linearGradient id="linear-gradient-15" x1="-562.04" y1="798.9" x2="-561.04" y2="798.9" gradientTransform="matrix(309.71, 0, 0, -174.56, 179499.33, 139867.9)" xlink:href="#linear-gradient"/><linearGradient id="linear-gradient-16" x1="-561.71" y1="798.94" x2="-560.71" y2="798.94" gradientTransform="matrix(309.86, 0, 0, -178.9, 179588.51, 143332.43)" xlink:href="#linear-gradient-2"/><linearGradient id="linear-gradient-17" x1="-509.86" y1="794.41" x2="-508.86" y2="794.41" gradientTransform="matrix(79.31, 0, 0, -45.8, 46024.04, 36807.43)" xlink:href="#linear-gradient-2"/><clipPath id="clip-path"><polygon class="cls-1" points="611.57 176.18 428.6 281.83 451.27 415.61 634.13 310.04 611.57 176.18"/></clipPath><linearGradient id="linear-gradient-18" x1="-561.71" y1="798.94" x2="-560.71" y2="798.94" gradientTransform="matrix(309.9, 0, 0, -178.79, 179493.85, 143178.07)" xlink:href="#linear-gradient-2"/><linearGradient id="linear-gradient-19" x1="-509.86" y1="794.42" x2="-508.86" y2="794.42" gradientTransform="matrix(79.31, 0, 0, -45.88, 45834.03, 36759.33)" xlink:href="#linear-gradient-2"/><linearGradient id="linear-gradient-20" x1="-578.01" y1="798.88" x2="-577.01" y2="798.88" gradientTransform="matrix(291.95, 0, 0, -171.92, 168761.53, 137773.48)" gradientUnits="userSpaceOnUse"><stop offset="0" stop-color="#c4c5d7"/><stop offset="0.14" stop-color="#c6c1d2"/><stop offset="0.29" stop-color="#cab5c5"/><stop offset="0.45" stop-color="#d2a1af"/><stop offset="0.62" stop-color="#dc8690"/><stop offset="0.79" stop-color="#ea6268"/><stop offset="0.96" stop-color="#fb3738"/><stop offset="1" stop-color="#ff2c2c"/></linearGradient><linearGradient id="linear-gradient-21" x1="-580.49" y1="799.43" x2="-579.49" y2="799.43" gradientTransform="matrix(219.26, 0, 0, -260.01, 126712.63, 208153.63)" xlink:href="#linear-gradient-2"/><linearGradient id="linear-gradient-22" x1="-587.65" y1="798.61" x2="-586.66" y2="798.61" gradientTransform="matrix(37.75, 0, 0, -147.55, 21614.96, 118186.83)" xlink:href="#linear-gradient"/><linearGradient id="linear-gradient-23" x1="-579.86" y1="798.9" x2="-578.86" y2="798.9" gradientTransform="matrix(309.64, 0, 0, -174.56, 179011.37, 139869.51)" xlink:href="#linear-gradient"/><linearGradient id="linear-gradient-24" x1="-579.53" y1="798.94" x2="-578.53" y2="798.94" gradientTransform="matrix(309.94, 0, 0, -178.9, 179185.8, 143333.26)" xlink:href="#linear-gradient-2"/><linearGradient id="linear-gradient-25" x1="-578.43" y1="794.41" x2="-577.43" y2="794.41" gradientTransform="matrix(79.31, 0, 0, -45.78, 45495.2, 36786.22)" xlink:href="#linear-gradient-2"/><clipPath id="clip-path-2"><polygon class="cls-1" points="146.44 176.18 329.41 281.83 306.71 415.61 123.88 310.04 146.44 176.18"/></clipPath><linearGradient id="linear-gradient-26" x1="-580.29" y1="798.94" x2="-579.29" y2="798.94" gradientTransform="matrix(309.87, 0, 0, -178.79, 179264.22, 143177.97)" xlink:href="#linear-gradient-2"/><linearGradient id="linear-gradient-27" x1="-583.25" y1="794.42" x2="-582.25" y2="794.42" gradientTransform="matrix(79.31, 0, 0, -45.89, 45684.17, 36768.3)" xlink:href="#linear-gradient-2"/></defs><g id="sip"><g id="Layer_2" data-name="Layer 2"><g id="Ñëîé_1" data-name="Ñëîé 1"><g id="Group_344" data-name="Group 344" class="cls-2"><path id="Path_5067" data-name="Path 5067" class="cls-3" d="M378.83,454.42l-275.4-159,275.4-159,275.4,159Z"/></g><g id="Group_345" data-name="Group 345"><path id="Path_5068" data-name="Path 5068" class="cls-4" d="M115.94,278.44a16.66,16.66,0,0,1-8.42-2.18l-97-56a4.86,4.86,0,0,1-1.81-6.63,4.77,4.77,0,0,1,1.81-1.81L186,110.47a.92.92,0,0,1,1,0l.81.46L291.89,171a4.84,4.84,0,0,1,1.82,6.61,4.92,4.92,0,0,1-1.82,1.83L124.36,276.19A16.73,16.73,0,0,1,115.94,278.44Zm70.56-166-174.93,101A2.87,2.87,0,0,0,10.11,216a2.94,2.94,0,0,0,1.46,2.54l97,56a15.28,15.28,0,0,0,14.91,0L291,177.79a2.94,2.94,0,0,0,1-4,2.88,2.88,0,0,0-1-1Z"/></g><path id="Path_5069" data-name="Path 5069" class="cls-5" d="M304.47,143.84l-10.17,5.31L192.21,90.22a7.42,7.42,0,0,0-6.56.26L9.5,192.14C7.81,191.2.14,187.5.14,187.5l3.74,9.71h0a2.17,2.17,0,0,0,1,1.16l107.49,62.08a7.46,7.46,0,0,0,6.56-.29l180.15-104a3.22,3.22,0,0,0,1.51-1.6h0Z"/><path id="Path_5070" data-name="Path 5070" class="cls-6" d="M302.89,145.5,118.26,252.12a7.62,7.62,0,0,1-6.82.28L1.25,188.77c-1.75-1-1.53-2.78.48-3.94L186.37,78.23a7.6,7.6,0,0,1,6.84-.28l110.23,63.61C305.14,142.57,304.93,144.3,302.89,145.5Z"/><path id="Path_5071" data-name="Path 5071" class="cls-7" d="M302.89,144.45,118.26,251.05a7.61,7.61,0,0,1-6.83.28L1.25,187.72a2.21,2.21,0,0,1-1.07-1.2,1.84,1.84,0,0,0,1.07,2.19l110.19,63.62a7.62,7.62,0,0,0,6.82-.28L302.89,145.43c1.38-.76,1.88-1.84,1.57-2.73A3.32,3.32,0,0,1,302.89,144.45Z"/><path id="Path_5072" data-name="Path 5072" class="cls-8" d="M62.57,229.05v-2c0-.17,0-.26.26-.2L70,231a.69.69,0,0,1,.26.5v2c0,.2-.13.28-.26.2l-7.07-4.09a.63.63,0,0,1-.35-.53Z"/><path id="Path_5073" data-name="Path 5073" class="cls-8" d="M73.26,235.21v-2c0-.18.11-.26.24-.2l7.15,4.13a.63.63,0,0,1,.26.5v2c0,.2,0,.29-.26.2l-7.15-4.11A.64.64,0,0,1,73.26,235.21Z"/><path id="Path_5074" data-name="Path 5074" class="cls-9" d="M63.37,203.33l153.44-88.6a3.3,3.3,0,0,1,3.3,0l54.66,31.62a1.17,1.17,0,0,1,0,2L121.41,236.94a3.32,3.32,0,0,1-3.31,0L63.44,205.37a1.19,1.19,0,0,1-.47-1.61,1.17,1.17,0,0,1,.4-.43Z"/><path id="Path_5075" data-name="Path 5075" class="cls-10" d="M63.37,205.28l.55.33,152.89-88.27a3.3,3.3,0,0,1,3.3,0l54.1,31.33.54-.33a1.17,1.17,0,0,0,0-2l-54.66-31.62a3.3,3.3,0,0,0-3.3,0L63.37,203.33a1.2,1.2,0,0,0-.3,1.65A1.22,1.22,0,0,0,63.37,205.28Z"/><path id="Path_5076" data-name="Path 5076" class="cls-11" d="M224.24,122.67,82.9,204.25l-7-2.8,142.41-82.21Z"/><path id="Path_5077" data-name="Path 5077" class="cls-11" d="M238.76,131l-125,72.18-5.92-3.41,125-72.18Z"/><path id="Path_5078" data-name="Path 5078" class="cls-11" d="M248.23,136.51l-147.18,85-5.93-3.41,147.18-85Z"/><path id="Path_5079" data-name="Path 5079" class="cls-11" d="M257.69,142l-147.2,85-5.92-3.42,147.2-85Z"/><path id="Path_5080" data-name="Path 5080" class="cls-11" d="M267.14,147.44,120,232.41,114,229l147.18-85Z"/><path id="Path_5081" data-name="Path 5081" class="cls-11" d="M82.9,204.25,77,207.68l-5.93-3.43L77,200.84Z"/><path id="Path_5082" data-name="Path 5082" class="cls-11" d="M121,199.07l-29.46,17-5.92-3.43,29.65-17.12Z"/><path id="Path_5083" data-name="Path 5083" class="cls-12" d="M118,163.54l41.37-23.88a1.78,1.78,0,0,0,1.1-2.28,1.81,1.81,0,0,0-1.1-1.11l-28.3-16.33a6.57,6.57,0,0,0-5.86,0l-41.37,23.9c-1.62.92-1.62,2.43,0,3.37l28.3,16.33A6.57,6.57,0,0,0,118,163.54Z"/><path id="Path_5084" data-name="Path 5084" class="cls-10" d="M83.84,145.22l41.37-23.9a6.5,6.5,0,0,1,5.86,0l28.29,16.42a2.61,2.61,0,0,1,1,1c.42-.81,0-1.73-1-2.38l-28.29-16.42a6.57,6.57,0,0,0-5.86,0l-41.37,23.9c-1.12.63-1.44,1.55-1,2.36A2.71,2.71,0,0,1,83.84,145.22Z"/><path id="Path_5085" data-name="Path 5085" class="cls-13" d="M304.18,141.1,280.83,2.63l1.88-.79L279.89.22h0a2.2,2.2,0,0,0-2.19.16L91.19,108.09a5.27,5.27,0,0,0-2.43,4.72L112.29,252.4a1.78,1.78,0,0,0,1,1.42h0l2.76,1.6.48-2.58h-.16l185.4-107.15A5.28,5.28,0,0,0,304.18,141.1Z"/><path id="Path_5086" data-name="Path 5086" class="cls-14" d="M92.24,111.87l-3.09-1.36a4.44,4.44,0,0,0-.39,2.3L112.29,252.4a1.78,1.78,0,0,0,1,1.42h0l2.76,1.6.48-2.58h-.16l9.38-5.42Z"/><path id="Path_5087" data-name="Path 5087" class="cls-15" d="M304.68,147.51,118.15,255.2c-1.44.85-2.67.37-2.93-1.14L91.69,114.49a5.31,5.31,0,0,1,2.43-4.74L280.65,2.17c1.45-.83,2.67-.35,2.93,1.14l23.53,139.46a5.27,5.27,0,0,1-2.42,4.74Z"/><g id="Group_346" data-name="Group 346"><path id="Path_5088" data-name="Path 5088" class="cls-4" d="M642.07,278.44a16.69,16.69,0,0,1-8.42-2.18L466.12,179.48a4.85,4.85,0,0,1,0-8.44l105-60.57a.94.94,0,0,1,1,0l175.47,101.3a4.86,4.86,0,0,1,1.81,6.63,4.91,4.91,0,0,1-1.81,1.81l-97,56A16.76,16.76,0,0,1,642.07,278.44Zm-70.56-166-.33.18-104.1,60.11a2.93,2.93,0,0,0-1.07,4,3,3,0,0,0,1.07,1.07l167.54,96.71h0a15.19,15.19,0,0,0,14.89,0l97-55.87A3,3,0,0,0,748,216.1a2.89,2.89,0,0,0-1.44-2.53Z"/></g><path id="Path_5089" data-name="Path 5089" class="cls-16" d="M453.55,143.84l10.16,5.31L565.83,90.22a7.45,7.45,0,0,1,6.56.26L748.45,192.14c1.68-.94,9.36-4.64,9.36-4.64l-3.72,9.71h0a2.17,2.17,0,0,1-1.05,1.16L645.55,260.45a7.43,7.43,0,0,1-6.67-.29l-180.2-104a3.35,3.35,0,0,1-1.53-1.6h0Z"/><path id="Path_5090" data-name="Path 5090" class="cls-17" d="M455.1,145.5,639.75,252.12a7.64,7.64,0,0,0,6.83.28l110.18-63.63c1.75-1,1.53-2.78-.48-3.94L571.62,78.24A7.53,7.53,0,0,0,564.8,78l-110.18,63.6C452.87,142.57,453.09,144.3,455.1,145.5Z"/><path id="Path_5091" data-name="Path 5091" class="cls-7" d="M455.1,144.45l184.65,106.6a7.61,7.61,0,0,0,6.83.28l110.18-63.6a2.21,2.21,0,0,0,1.07-1.2,1.85,1.85,0,0,1-1.07,2.18L646.58,252.33a7.61,7.61,0,0,1-6.83-.28L455.1,145.5c-1.36-.77-1.88-1.84-1.55-2.74A3.36,3.36,0,0,0,455.1,144.45Z"/><path id="Path_5092" data-name="Path 5092" class="cls-8" d="M695.45,229.05v-2c0-.17-.13-.26-.26-.2L688,231a.67.67,0,0,0-.27.5v2c0,.2.13.28.27.2l7.15-4.12a.69.69,0,0,0,.26-.5Z"/><path id="Path_5093" data-name="Path 5093" class="cls-8" d="M684.75,235.21v-2c0-.18-.11-.26-.26-.2l-7.15,4.13a.63.63,0,0,0-.26.5v2c0,.2.11.29.26.2l7.13-4.11a.59.59,0,0,0,.28-.5Z"/><path id="Path_5094" data-name="Path 5094" class="cls-9" d="M694.64,203.33,541.21,114.65a3.3,3.3,0,0,0-3.3,0l-54.67,31.62a1.18,1.18,0,0,0-.42,1.61,1.13,1.13,0,0,0,.42.42l153.37,88.56a3.3,3.3,0,0,0,3.3,0l54.66-31.58a1.18,1.18,0,0,0,.36-1.63,1.23,1.23,0,0,0-.29-.31Z"/><path id="Path_5095" data-name="Path 5095" class="cls-10" d="M694.64,205.28l-.55.33L541.21,117.34a3.3,3.3,0,0,0-3.3,0l-54.1,31.33-.55-.33a1.19,1.19,0,0,1-.42-1.62,1.27,1.27,0,0,1,.42-.41l54.67-31.62a3.3,3.3,0,0,1,3.3,0l153.41,88.64a1.2,1.2,0,0,1,.3,1.65,1.22,1.22,0,0,1-.3.3Z"/><path id="Path_5096" data-name="Path 5096" class="cls-11" d="M533.77,122.67l141.34,81.58,7-2.8L539.7,119.24Z"/><path id="Path_5097" data-name="Path 5097" class="cls-11" d="M519.25,131l125,72.18,5.92-3.41-125-72.18Z"/><path id="Path_5098" data-name="Path 5098" class="cls-11" d="M509.78,136.51l147.18,85,5.93-3.41-147.17-85Z"/><path id="Path_5099" data-name="Path 5099" class="cls-11" d="M500.32,142l147.2,85,5.92-3.42-147.2-85Z"/><path id="Path_5100" data-name="Path 5100" class="cls-11" d="M490.85,147.44l147.2,85L644,229l-147.2-85Z"/><path id="Path_5101" data-name="Path 5101" class="cls-11" d="M675.11,204.25l5.93,3.44,5.92-3.44L681,200.84Z"/><path id="Path_5102" data-name="Path 5102" class="cls-11" d="M637.06,199.07l29.44,17,5.92-3.43-29.65-17.12Z"/><path id="Path_5103" data-name="Path 5103" class="cls-18" d="M640,163.54l-41.4-23.88a1.78,1.78,0,0,1-1.1-2.28,1.81,1.81,0,0,1,1.1-1.11l28.43-16.33a6.4,6.4,0,0,1,5.84,0l41.37,23.9c1.62.92,1.62,2.42,0,3.36l-28.38,16.34a6.57,6.57,0,0,1-5.86,0Z"/><path id="Path_5104" data-name="Path 5104" class="cls-10" d="M674.15,145.21l-41.37-23.9a6.59,6.59,0,0,0-5.84,0l-28.31,16.43a2.61,2.61,0,0,0-1,1c-.42-.81,0-1.73,1-2.38l28.42-16.42a6.4,6.4,0,0,1,5.84,0l41.37,23.9c1.14.63,1.44,1.55,1,2.36a2.74,2.74,0,0,0-1.14-1Z"/><path id="Path_5105" data-name="Path 5105" class="cls-19" d="M453.83,141.1,477.16,2.63l-1.86-.79L478.12.22h0a2.2,2.2,0,0,1,2.19.16L666.85,108.09a5.19,5.19,0,0,1,2.4,4.72L645.72,252.4a1.75,1.75,0,0,1-1,1.42h0l-2.78,1.6-.45-2.58h.15L456.28,145.69A5.25,5.25,0,0,1,453.83,141.1Z"/><path id="Path_5106" data-name="Path 5106" class="cls-20" d="M665.77,111.87l3.07-1.36a4.05,4.05,0,0,1,.39,2.3L645.7,252.4a1.77,1.77,0,0,1-1,1.42h0l-2.78,1.6-.46-2.58h.16l-9.38-5.42Z"/><path id="Path_5107" data-name="Path 5107" class="cls-15" d="M453.33,147.51,639.86,255.2c1.45.85,2.67.37,2.93-1.14l23.62-139.57a5.31,5.31,0,0,0-2.43-4.74L477.35,2.17c-1.44-.83-2.66-.35-2.92,1.14L450.9,142.77a5.27,5.27,0,0,0,2.42,4.74Z"/><path id="Path_5108" data-name="Path 5108" class="cls-21" d="M379,311.85,205.33,211.58,379,111.3,552.69,211.58Z"/><path id="Path_5109" data-name="Path 5109" class="cls-15" d="M379,284.46,252.75,211.58,379,138.68l126.25,72.9Z"/><path id="Path_5110" data-name="Path 5110" class="cls-7" d="M379,143.62l122,70.43,4.26-2.47L379,138.68l-126.26,72.9L257,214Z"/><path id="Path_5111" data-name="Path 5111" class="cls-22" d="M552.69,211.58v56.83L379,368.68V311.85Z"/><path id="Path_5112" data-name="Path 5112" class="cls-11" d="M205.33,211.58v56.83L379,368.68V311.85Z"/><g id="Group_347" data-name="Group 347" class="cls-23"><path id="Path_5113" data-name="Path 5113" class="cls-15" d="M217.09,237.09V255l150.15,86.7V323.79Z"/></g><path id="Path_5114" data-name="Path 5114" class="cls-7" d="M379,308.59,208.15,209.94l-2.82,1.64L379,311.85,552.69,211.58l-2.83-1.64Z"/><path id="Path_5115" data-name="Path 5115" class="cls-15" d="M526.64,251.39v10.19L405,331.77V321.6Z"/><path id="Path_5116" data-name="Path 5116" class="cls-24" d="M205.33,211.58v56.83L379,368.68V311.85Z"/><path id="Path_5117" data-name="Path 5117" class="cls-4" d="M328.3,308.84l-31.44-18.17v3.76l31.44,18.14Z"/><path id="Path_5118" data-name="Path 5118" class="cls-4" d="M292.31,288.08l-8.51-4.92,0,3.77,8.53,4.92Z"/><path id="Path_5119" data-name="Path 5119" class="cls-4" d="M252.4,265,235,255v3.74L252.4,268.8Z"/><path id="Path_5120" data-name="Path 5120" class="cls-4" d="M268.3,274.22l-12.6-7.28,0,3.76L268.3,278Z"/><path id="Path_5121" data-name="Path 5121" class="cls-4" d="M280.13,281.07l-8.53-4.92v3.73l8.53,4.92Z"/><path id="Path_5122" data-name="Path 5122" class="cls-4" d="M379.18,163.71l-5.51-3.19,5.51-3.19,5.51,3.19Z"/><path id="Path_5123" data-name="Path 5123" class="cls-25" d="M390.22,170.08l-5.53-3.2,5.53-3.17,5.51,3.17Z"/><path id="Path_5124" data-name="Path 5124" class="cls-26" d="M401.24,176.44l-5.51-3.19,5.51-3.17,5.51,3.17Z"/><path id="Path_5125" data-name="Path 5125" class="cls-4" d="M412.28,182.8l-5.53-3.17,5.53-3.19,5.51,3.19Z"/><path id="Path_5126" data-name="Path 5126" class="cls-26" d="M423.31,189.19,417.8,186l5.51-3.19,5.51,3.19Z"/><path id="Path_5127" data-name="Path 5127" class="cls-4" d="M434.33,195.55l-5.51-3.19,5.51-3.18,5.53,3.18Z"/><path id="Path_5128" data-name="Path 5128" class="cls-4" d="M445.37,201.91l-5.51-3.19,5.51-3.17,5.51,3.17Z"/><path id="Path_5129" data-name="Path 5129" class="cls-4" d="M456.39,208.27l-5.51-3.17,5.51-3.19,5.53,3.19Z"/><path id="Path_5130" data-name="Path 5130" class="cls-25" d="M467.43,214.64l-5.51-3.17,5.51-3.19,5.51,3.19Z"/><path id="Path_5131" data-name="Path 5131" class="cls-4" d="M368.12,170.1l-5.53-3.2,5.53-3.17,5.51,3.17Z"/><path id="Path_5132" data-name="Path 5132" class="cls-4" d="M379.14,176.46l-5.51-3.17,5.51-3.19,5.51,3.19Z"/><path id="Path_5133" data-name="Path 5133" class="cls-4" d="M390.16,182.82l-5.51-3.17,5.51-3.19,5.53,3.19Z"/><path id="Path_5134" data-name="Path 5134" class="cls-4" d="M401.2,189.2,395.69,186l5.51-3.19,5.51,3.19Z"/><path id="Path_5135" data-name="Path 5135" class="cls-4" d="M412.22,195.57l-5.51-3.19,5.51-3.17,5.53,3.17Z"/><path id="Path_5136" data-name="Path 5136" class="cls-4" d="M423.26,201.93l-5.51-3.17,5.51-3.19,5.51,3.19Z"/><path id="Path_5137" data-name="Path 5137" class="cls-4" d="M434.28,208.32l-5.51-3.19,5.51-3.2,5.53,3.2Z"/><path id="Path_5138" data-name="Path 5138" class="cls-4" d="M445.32,214.68l-5.51-3.19,5.51-3.17,5.51,3.17Z"/><path id="Path_5139" data-name="Path 5139" class="cls-4" d="M456.35,221l-5.51-3.19,5.51-3.17,5.53,3.17Z"/><path id="Path_5140" data-name="Path 5140" class="cls-4" d="M357,176.48l-5.51-3.17,5.51-3.19,5.51,3.19Z"/><path id="Path_5141" data-name="Path 5141" class="cls-4" d="M368.07,182.86l-5.53-3.19,5.53-3.19,5.51,3.19Z"/><path id="Path_5142" data-name="Path 5142" class="cls-4" d="M379.09,189.23l-5.51-3.2,5.51-3.17L384.6,186Z"/><path id="Path_5143" data-name="Path 5143" class="cls-25" d="M390.13,195.59l-5.53-3.19,5.53-3.17,5.51,3.17Z"/><path id="Path_5144" data-name="Path 5144" class="cls-26" d="M401.16,202l-5.51-3.17,5.51-3.2,5.51,3.2Z"/><path id="Path_5145" data-name="Path 5145" class="cls-26" d="M412.18,208.34l-5.51-3.19,5.51-3.19,5.53,3.19Z"/><path id="Path_5146" data-name="Path 5146" class="cls-4" d="M423.22,214.7l-5.51-3.19,5.51-3.17,5.51,3.17Z"/><path id="Path_5147" data-name="Path 5147" class="cls-4" d="M434.24,221.07l-5.51-3.17,5.51-3.2,5.51,3.2Z"/><path id="Path_5148" data-name="Path 5148" class="cls-4" d="M445.28,227.43l-5.51-3.17,5.51-3.19,5.51,3.19Z"/><path id="Path_5149" data-name="Path 5149" class="cls-26" d="M345.94,182.89l-5.5-3.19,5.5-3.2,5.54,3.2Z"/><path id="Path_5150" data-name="Path 5150" class="cls-26" d="M357,189.25l-5.51-3.19,5.51-3.17,5.51,3.17Z"/><path id="Path_5151" data-name="Path 5151" class="cls-25" d="M368,195.61l-5.51-3.17,5.51-3.19,5.53,3.19Z"/><path id="Path_5152" data-name="Path 5152" class="cls-4" d="M379.05,202l-5.51-3.19,5.51-3.19,5.51,3.19Z"/><path id="Path_5153" data-name="Path 5153" class="cls-4" d="M390.07,208.36l-5.51-3.19,5.51-3.17,5.53,3.17Z"/><path id="Path_5154" data-name="Path 5154" class="cls-4" d="M401.11,214.72l-5.51-3.19,5.51-3.17,5.51,3.17Z"/><path id="Path_5155" data-name="Path 5155" class="cls-26" d="M412.13,221.09l-5.51-3.17,5.51-3.2,5.53,3.2Z"/><path id="Path_5156" data-name="Path 5156" class="cls-4" d="M423.17,227.47l-5.51-3.19,5.51-3.2,5.51,3.2Z"/><path id="Path_5157" data-name="Path 5157" class="cls-4" d="M434.19,233.83l-5.5-3.19,5.5-3.17,5.51,3.17Z"/><path id="Path_5158" data-name="Path 5158" class="cls-4" d="M334.88,189.27l-5.51-3.17,5.51-3.19,5.51,3.19Z"/><path id="Path_5159" data-name="Path 5159" class="cls-4" d="M345.92,195.64l-5.53-3.17,5.53-3.2,5.51,3.2Z"/><path id="Path_5160" data-name="Path 5160" class="cls-4" d="M356.94,202l-5.51-3.19,5.51-3.19,5.51,3.19Z"/><path id="Path_5161" data-name="Path 5161" class="cls-4" d="M368,208.38l-5.51-3.19L368,202l5.53,3.17Z"/><path id="Path_5162" data-name="Path 5162" class="cls-4" d="M379,214.75l-5.51-3.18,5.51-3.19,5.51,3.19Z"/><path id="Path_5163" data-name="Path 5163" class="cls-4" d="M390,221.13l-5.51-3.2,5.51-3.19,5.53,3.19Z"/><path id="Path_5164" data-name="Path 5164" class="cls-4" d="M401.07,227.49l-5.51-3.19,5.51-3.17,5.51,3.17Z"/><path id="Path_5165" data-name="Path 5165" class="cls-4" d="M412.09,233.86l-5.51-3.19,5.51-3.17,5.53,3.17Z"/><path id="Path_5166" data-name="Path 5166" class="cls-4" d="M423.13,240.22l-5.51-3.17,5.51-3.19,5.51,3.19Z"/><path id="Path_5167" data-name="Path 5167" class="cls-4" d="M323.8,195.68l-5.51-3.19,5.51-3.19,5.53,3.19Z"/><path id="Path_5168" data-name="Path 5168" class="cls-4" d="M334.84,202l-5.51-3.19,5.51-3.17,5.51,3.17Z"/><path id="Path_5169" data-name="Path 5169" class="cls-26" d="M345.88,208.41l-5.53-3.2,5.53-3.17,5.51,3.17Z"/><path id="Path_5170" data-name="Path 5170" class="cls-4" d="M356.9,214.77l-5.51-3.17,5.51-3.19,5.51,3.19Z"/><path id="Path_5171" data-name="Path 5171" class="cls-25" d="M367.92,221.15,362.41,218l5.51-3.19,5.53,3.19Z"/><path id="Path_5172" data-name="Path 5172" class="cls-4" d="M379,227.52l-5.51-3.2,5.51-3.17,5.51,3.17Z"/><path id="Path_5173" data-name="Path 5173" class="cls-4" d="M390,233.88l-5.51-3.17,5.51-3.19,5.51,3.19Z"/><path id="Path_5174" data-name="Path 5174" class="cls-4" d="M401,240.24l-5.51-3.17,5.51-3.19,5.51,3.19Z"/><path id="Path_5175" data-name="Path 5175" class="cls-4" d="M412.05,246.63l-5.51-3.19,5.51-3.2,5.5,3.2Z"/><path id="Path_5176" data-name="Path 5176" class="cls-4" d="M312.73,202.07l-5.51-3.18,5.51-3.19,5.51,3.19Z"/><path id="Path_5177" data-name="Path 5177" class="cls-4" d="M323.75,208.43l-5.51-3.17,5.51-3.2,5.53,3.2Z"/><path id="Path_5178" data-name="Path 5178" class="cls-26" d="M334.79,214.81l-5.51-3.19,5.51-3.19,5.51,3.19Z"/><path id="Path_5179" data-name="Path 5179" class="cls-4" d="M345.81,221.18,340.3,218l5.51-3.17,5.53,3.17Z"/><path id="Path_5180" data-name="Path 5180" class="cls-4" d="M356.86,227.54l-5.51-3.19,5.51-3.17,5.51,3.17Z"/><path id="Path_5181" data-name="Path 5181" class="cls-25" d="M367.88,233.9l-5.51-3.17,5.51-3.19,5.53,3.19Z"/><path id="Path_5182" data-name="Path 5182" class="cls-26" d="M378.92,240.29l-5.51-3.2,5.51-3.19,5.51,3.19Z"/><path id="Path_5183" data-name="Path 5183" class="cls-4" d="M389.94,246.65l-5.51-3.19,5.51-3.17,5.53,3.17Z"/><path id="Path_5184" data-name="Path 5184" class="cls-25" d="M401,253l-5.51-3.17,5.51-3.19,5.51,3.19Z"/><path id="Path_5185" data-name="Path 5185" class="cls-4" d="M301.67,208.45l-5.54-3.17,5.54-3.19,5.51,3.19Z"/><path id="Path_5186" data-name="Path 5186" class="cls-26" d="M312.69,214.83l-5.51-3.19,5.51-3.19,5.51,3.19Z"/><path id="Path_5187" data-name="Path 5187" class="cls-4" d="M323.71,221.2,318.2,218l5.51-3.18,5.53,3.18Z"/><path id="Path_5188" data-name="Path 5188" class="cls-4" d="M334.75,227.56l-5.51-3.17,5.51-3.19,5.51,3.19Z"/><path id="Path_5189" data-name="Path 5189" class="cls-4" d="M345.77,234l-5.51-3.2,5.51-3.19,5.53,3.19Z"/><path id="Path_5190" data-name="Path 5190" class="cls-4" d="M356.81,240.31l-5.51-3.19,5.51-3.18,5.51,3.18Z"/><path id="Path_5191" data-name="Path 5191" class="cls-4" d="M367.83,246.67l-5.51-3.19,5.51-3.17,5.51,3.17Z"/><path id="Path_5192" data-name="Path 5192" class="cls-26" d="M378.87,253l-5.53-3.17,5.53-3.19,5.51,3.19Z"/><path id="Path_5193" data-name="Path 5193" class="cls-4" d="M389.89,259.42l-5.51-3.19,5.51-3.2,5.51,3.2Z"/><path id="Path_5194" data-name="Path 5194" class="cls-4" d="M290.58,214.86l-5.51-3.19,5.51-3.18,5.51,3.18Z"/><path id="Path_5195" data-name="Path 5195" class="cls-25" d="M301.6,221.22l-5.51-3.17,5.51-3.19,5.53,3.19Z"/><path id="Path_5196" data-name="Path 5196" class="cls-4" d="M312.64,227.58l-5.51-3.17,5.51-3.19,5.51,3.19Z"/><path id="Path_5197" data-name="Path 5197" class="cls-4" d="M323.66,234l-5.51-3.2,5.51-3.19,5.54,3.19Z"/><path id="Path_5198" data-name="Path 5198" class="cls-4" d="M334.71,240.33l-5.51-3.19,5.51-3.17,5.51,3.17Z"/><path id="Path_5199" data-name="Path 5199" class="cls-4" d="M345.73,246.69l-5.51-3.17,5.51-3.19,5.53,3.19Z"/><path id="Path_5200" data-name="Path 5200" class="cls-26" d="M356.77,253.08l-5.51-3.19,5.51-3.2,5.51,3.2Z"/><path id="Path_5201" data-name="Path 5201" class="cls-4" d="M367.79,259.44l-5.51-3.19,5.51-3.17,5.53,3.17Z"/><path id="Path_5202" data-name="Path 5202" class="cls-4" d="M378.83,265.8l-5.51-3.19,5.51-3.17,5.51,3.17Z"/><path id="Path_5203" data-name="Path 5203" class="cls-21" d="M379,213.43,205.33,113.16,379,12.88,552.69,113.16Z"/><path id="Path_5204" data-name="Path 5204" class="cls-27" d="M379,186,252.75,113.16,379,40.26l126.25,72.9Z"/><path id="Path_5205" data-name="Path 5205" class="cls-7" d="M379,45.2l122,70.43,4.26-2.47L379,40.26l-126.26,72.9,4.27,2.45Z"/><path id="Path_5206" data-name="Path 5206" class="cls-28" d="M552.69,113.16V170L379,270.26V213.43Z"/><path id="Path_5207" data-name="Path 5207" class="cls-11" d="M205.33,113.16V170L379,270.26V213.43Z"/><g id="Group_348" data-name="Group 348" class="cls-23"><path id="Path_5208" data-name="Path 5208" class="cls-15" d="M217.09,138.7v17.88l150.15,86.7V225.37Z"/></g><path id="Path_5209" data-name="Path 5209" class="cls-7" d="M379,210.18,208.15,111.52l-2.82,1.64L379,213.43,552.69,113.16l-2.83-1.64Z"/><path id="Path_5210" data-name="Path 5210" class="cls-15" d="M526.64,153v10.19L405,233.35V223.19Z"/><path id="Path_5211" data-name="Path 5211" class="cls-24" d="M205.33,113.16V170L379,270.26V213.43Z"/><path id="Path_5212" data-name="Path 5212" class="cls-4" d="M328.3,210.42l-31.44-18.17V196l31.44,18.15Z"/><path id="Path_5213" data-name="Path 5213" class="cls-4" d="M292.31,189.67l-8.51-4.92,0,3.76,8.53,4.92Z"/><path id="Path_5214" data-name="Path 5214" class="cls-4" d="M252.4,166.62,235,156.56v3.74l17.45,10.08Z"/><path id="Path_5215" data-name="Path 5215" class="cls-4" d="M268.3,175.8l-12.59-7.28,0,3.76,12.62,7.29Z"/><path id="Path_5216" data-name="Path 5216" class="cls-4" d="M280.13,182.65l-8.53-4.92v3.74l8.53,4.92Z"/><g id="Group_349" data-name="Group 349"><path id="Path_5217" data-name="Path 5217" class="cls-4" d="M566,519.36a17.25,17.25,0,0,1-8.57-2.19L458.68,460.1a4.94,4.94,0,0,1-1.82-6.74,5.07,5.07,0,0,1,1.82-1.83l178.56-103.1a1,1,0,0,1,1,0l106.9,61.67a4.94,4.94,0,0,1,1.8,6.75,5,5,0,0,1-1.8,1.8L574.57,517a17.09,17.09,0,0,1-8.59,2.32Zm71.81-169L459.69,453.17a3,3,0,0,0-1.08,4.1,2.94,2.94,0,0,0,1.08,1.08l98.7,57a15.52,15.52,0,0,0,15.17,0l170.55-98.4a3,3,0,0,0,1.13-4.07,3.11,3.11,0,0,0-1.13-1.12Z"/></g><path id="Path_5218" data-name="Path 5218" class="cls-29" d="M638,308.62,614.24,167.69l1.92-.81-2.88-1.64h0a2.22,2.22,0,0,0-2.19.15L421.27,275a5.32,5.32,0,0,0-2.47,4.83l23.94,142.12a1.81,1.81,0,0,0,1,1.44h0l2.82,1.62.48-2.62h-.15L635.58,313.45a5.36,5.36,0,0,0,2.4-4.83Z"/><path id="Path_5219" data-name="Path 5219" class="cls-30" d="M422.3,278.86l-3.13-1.38a4.26,4.26,0,0,0-.39,2.36L442.72,422a1.78,1.78,0,0,0,1,1.44h0l2.82,1.62.48-2.62h-.15l9.53-5.51Z"/><path id="Path_5220" data-name="Path 5220" class="cls-11" d="M638.51,315.13,448.67,424.75c-1.46.85-2.71.35-3-1.16L421.75,281.46a5.41,5.41,0,0,1,2.47-4.83L614.06,167c1.47-.86,2.71-.38,3,1.15L641,310.32A5.37,5.37,0,0,1,638.51,315.13Z"/><g id="Group_350" data-name="Group 350" class="cls-23"><path id="Path_5221" data-name="Path 5221" class="cls-15" d="M611.57,176.18l-183,105.65,22.67,133.78L634.14,310Z"/></g><path id="Path_5222" data-name="Path 5222" class="cls-31" d="M757.83,382.39l-10.34,5.4-103.89-60a7.55,7.55,0,0,0-6.77.28L457.65,431.55c-1.72-1-9.53-4.73-9.53-4.73l3.78,9.89h0a2.24,2.24,0,0,0,1.05,1.16L562.28,501a7.51,7.51,0,0,0,6.78-.28L752.41,394.9a3.18,3.18,0,0,0,1.53-1.62h0Z"/><path id="Path_5223" data-name="Path 5223" class="cls-32" d="M756.23,384.1,568.34,492.57a7.71,7.71,0,0,1-7,.29L449.26,428.13c-1.79-1-1.55-2.82.5-4l187.9-108.47a7.67,7.67,0,0,1,7-.29l112.13,64.72C758.51,381.1,758.24,382.89,756.23,384.1Z"/><path id="Path_5224" data-name="Path 5224" class="cls-7" d="M756.23,383,568.34,491.51a7.77,7.77,0,0,1-7,.28L449.26,427a2.14,2.14,0,0,1-1.09-1.2,1.9,1.9,0,0,0,1.09,2.3l112.19,64.72a7.7,7.7,0,0,0,7-.28L756.3,384.1c1.38-.81,1.92-1.88,1.6-2.8A3.39,3.39,0,0,1,756.23,383Z"/><path id="Path_5225" data-name="Path 5225" class="cls-8" d="M511.66,469.11v-2.05c0-.2.11-.29.27-.2l7.26,4.17a.68.68,0,0,1,.26.53v2.05c0,.2,0,.29-.26.2l-7.26-4.2A.62.62,0,0,1,511.66,469.11Z"/><path id="Path_5226" data-name="Path 5226" class="cls-8" d="M522.53,475.39v-2.06c0-.2.11-.28.26-.2l7.26,4.18a.61.61,0,0,1,.26.52v2.06c0,.2-.1.28-.26.2l-7.26-4.2A.63.63,0,0,1,522.53,475.39Z"/><path id="Path_5227" data-name="Path 5227" class="cls-9" d="M478.49,422l156.15-90.15a3.36,3.36,0,0,1,3.36,0L693.6,364a1.2,1.2,0,0,1,.44,1.64,1.16,1.16,0,0,1-.44.44L537.53,456.19a3.43,3.43,0,0,1-3.37,0l-55.67-32a1.21,1.21,0,0,1,0-2.19Z"/><path id="Path_5228" data-name="Path 5228" class="cls-10" d="M478.49,424.18l.55.33,155.6-89.83a3.38,3.38,0,0,1,3.37,0l55,31.86.56-.33a1.2,1.2,0,0,0,.44-1.64,1.16,1.16,0,0,0-.44-.44L638,331.93a3.33,3.33,0,0,0-3.37,0L478.49,422a1.19,1.19,0,0,0-.59,1.59,1.23,1.23,0,0,0,.59.6Z"/><path id="Path_5229" data-name="Path 5229" class="cls-11" d="M642.2,340.06l-135.63,78.3-6-3.48,135.63-78.3Z"/><path id="Path_5230" data-name="Path 5230" class="cls-11" d="M657,348.61,529.77,422.06l-6-3.48L651,345.11Z"/><path id="Path_5231" data-name="Path 5231" class="cls-11" d="M666.6,354.16,516.83,440.64l-6-3.47,149.78-86.48Z"/><path id="Path_5232" data-name="Path 5232" class="cls-11" d="M676.25,359.72,526.45,446.2l-6-3.48,149.77-86.48Z"/><path id="Path_5233" data-name="Path 5233" class="cls-11" d="M685.87,365.27l-149.78,86.5-6-3.5,149.78-86.48Z"/><path id="Path_5234" data-name="Path 5234" class="cls-11" d="M498.37,423.11l-6,3.48-6-3.48,6-3.48Z"/><path id="Path_5235" data-name="Path 5235" class="cls-11" d="M519.65,427.9l-12.53,7.23-6-3.5,12.53-7.21Z"/><path id="Path_5236" data-name="Path 5236" class="cls-33" d="M640.65,443.86l42.09-24.32c1.66-.94,1.66-2.47,0-3.43L654,399.49a6.55,6.55,0,0,0-6,0l-42.09,24.32a1.81,1.81,0,0,0,0,3.43l28.77,16.62A6.61,6.61,0,0,0,640.65,443.86Z"/><path id="Path_5237" data-name="Path 5237" class="cls-10" d="M605.91,425.23,648,400.91a6.55,6.55,0,0,1,6,0l28.77,16.71a2.42,2.42,0,0,1,1,1c.44-.83,0-1.77-1-2.43L654,399.58a6.55,6.55,0,0,0-6,0l-42.09,24.31c-1.14.66-1.49,1.58-1,2.41A2.52,2.52,0,0,1,605.91,425.23Z"/><g id="Group_352" data-name="Group 352" class="cls-34"><g class="cls-35"><g id="Group_351" data-name="Group 351"><path id="Path_5238" data-name="Path 5238" class="cls-36" d="M637.85,315.42,449.94,423.89a7.77,7.77,0,0,1-6.95.29L330.86,359.45c-1.77-1.05-1.55-2.84.5-4L519.27,247.06a7.69,7.69,0,0,1,6.94-.3L638.33,311.5C640.17,312.42,639.91,314.22,637.85,315.42Z"/><path id="Path_5239" data-name="Path 5239" class="cls-37" d="M449.37,334.86l42.11-24.38a1.82,1.82,0,0,0,0-3.44l-28.8-16.62a6.55,6.55,0,0,0-5.94,0l-42.12,24.43a1.82,1.82,0,0,0,0,3.43l28.8,16.62a6.57,6.57,0,0,0,5.95,0Z"/><path id="Path_5240" data-name="Path 5240" class="cls-10" d="M414.63,316.2l42.11-24.31a6.57,6.57,0,0,1,5.95,0l28.8,16.62a2.7,2.7,0,0,1,1,1c.44-.83.11-1.77-1-2.42l-28.8-16.62a6.57,6.57,0,0,0-5.95,0l-42.11,24.36c-1.14.65-1.47,1.57-1,2.4A2.54,2.54,0,0,1,414.63,316.2Z"/><path id="Path_5241" data-name="Path 5241" class="cls-9" d="M396.13,372.84l156.14-90.16a3.36,3.36,0,0,1,3.36,0l55.61,32.17a1.19,1.19,0,0,1,.59,1.59,1.21,1.21,0,0,1-.59.59L455.17,407.14a3.43,3.43,0,0,1-3.37,0L396.13,375a1.19,1.19,0,0,1-.56-1.6,1.15,1.15,0,0,1,.56-.57Z"/><path id="Path_5242" data-name="Path 5242" class="cls-10" d="M396.12,374.91l.55.33,155.6-89.82a3.33,3.33,0,0,1,3.37,0l55,31.83.57-.3a1.2,1.2,0,0,0,.6-1.59,1.17,1.17,0,0,0-.6-.6l-55.6-32.05a3.33,3.33,0,0,0-3.37,0L396.12,372.86a1.22,1.22,0,0,0,0,2.06Z"/><path id="Path_5243" data-name="Path 5243" class="cls-11" d="M596.68,312.66l-136,78.54,5.4,3.13,136-78.54Z"/><path id="Path_5244" data-name="Path 5244" class="cls-11" d="M582.36,304.4l-129.3,74.65,5.38,3.1,129.3-74.65Z"/><path id="Path_5245" data-name="Path 5245" class="cls-11" d="M443.4,384.62l-12.07,7,5.38,3.1,12.07-7Z"/><path id="Path_5246" data-name="Path 5246" class="cls-11" d="M454.07,395l-8.42,4.85,5.4,3.13,8.4-4.86Z"/><path id="Path_5247" data-name="Path 5247" class="cls-11" d="M573.37,299.21l-151,87.2,5.38,3.1,151-87.2Z"/><path id="Path_5248" data-name="Path 5248" class="cls-11" d="M564.39,294l-151,87.18,5.4,3.13,151-87.2Z"/><path id="Path_5249" data-name="Path 5249" class="cls-11" d="M555.42,288.85,404.39,376l5.38,3.13,151-87.2Z"/></g></g></g><g id="Group_353" data-name="Group 353" class="cls-38"><path id="Path_5250" data-name="Path 5250" class="cls-39" d="M192,519.71a17.67,17.67,0,0,1-8.75-2.32h0L12.73,419a5.29,5.29,0,0,1,0-9.16l107.43-62,.66.39,178.57,103.1a5.31,5.31,0,0,1,0,9.17l-98.68,57a17.47,17.47,0,0,1-8.68,2.3Zm-7.41-4.62a15,15,0,0,0,14.82,0l98.7-57a2.67,2.67,0,0,0,0-4.59L120.22,350.75h-.17L14.11,412a2.67,2.67,0,0,0,0,4.59Z"/></g><path id="Path_5251" data-name="Path 5251" class="cls-40" d="M120,308.62l23.81-140.93-1.93-.81,2.87-1.64h0a2.05,2.05,0,0,1,2.18.16L336.78,275a5.36,5.36,0,0,1,2.47,4.83L315.2,422a1.84,1.84,0,0,1-1,1.44h0l-2.8,1.62-.48-2.63h.16L122.48,313.43a5.37,5.37,0,0,1-2.47-4.81Z"/><path id="Path_5252" data-name="Path 5252" class="cls-41" d="M335.71,278.86l3.13-1.38a4.36,4.36,0,0,1,.39,2.36L315.18,422a1.84,1.84,0,0,1-1,1.44h0l-2.8,1.62-.48-2.62h.16l-9.54-5.51Z"/><path id="Path_5253" data-name="Path 5253" class="cls-11" d="M119.5,315.13,309.34,424.75c1.47.85,2.71.35,3-1.16l23.94-142.13a5.42,5.42,0,0,0-2.47-4.84L144,167.12c-1.47-.85-2.71-.37-3,1.16L116.92,310.41a5.34,5.34,0,0,0,2.58,4.72Z"/><g id="Group_354" data-name="Group 354" class="cls-23"><path id="Path_5254" data-name="Path 5254" class="cls-15" d="M146.44,176.18l183,105.65-22.7,133.78L123.88,310Z"/></g><path id="Path_5255" data-name="Path 5255" class="cls-42" d="M.16,382.39l10.28,5.4,103.88-60a7.6,7.6,0,0,1,6.78.29L300.27,431.55c1.72-1,9.53-4.73,9.53-4.73L306,436.71h0a2.24,2.24,0,0,1-1.07,1.16L195.62,501a7.5,7.5,0,0,1-6.78-.28L5.5,394.9a3.32,3.32,0,0,1-1.56-1.62h0Z"/><path id="Path_5256" data-name="Path 5256" class="cls-43" d="M1.69,384.1,189.74,492.57a7.68,7.68,0,0,0,6.95.29l112.13-64.73c1.77-1,1.55-2.82-.5-4l-188-108.47a7.7,7.7,0,0,0-7-.29L1.28,380.07C-.49,381.1-.28,382.89,1.69,384.1Z"/><path id="Path_5257" data-name="Path 5257" class="cls-7" d="M1.69,383l188.05,108.5a7.77,7.77,0,0,0,6.95.28l112.12-64.74a2.23,2.23,0,0,0,1.1-1.2,1.89,1.89,0,0,1-1.1,2.3L196.69,492.86a7.68,7.68,0,0,1-6.95-.29L1.69,384.1c-1.4-.81-1.92-1.88-1.6-2.8a3.24,3.24,0,0,0,1.6,1.7Z"/><path id="Path_5258" data-name="Path 5258" class="cls-8" d="M246.35,469.11v-2.05c0-.2,0-.29-.27-.2L238.83,471a.66.66,0,0,0-.27.53v2.05c0,.2,0,.29.27.2l7.25-4.2A.6.6,0,0,0,246.35,469.11Z"/><path id="Path_5259" data-name="Path 5259" class="cls-8" d="M235.48,475.39v-2.06c0-.2,0-.28-.26-.2L228,477.31a.68.68,0,0,0-.29.52v2.06c0,.2.14.28.29.2l7.26-4.2A.63.63,0,0,0,235.48,475.39Z"/><path id="Path_5260" data-name="Path 5260" class="cls-9" d="M279.52,422,123.37,331.9a3.36,3.36,0,0,0-3.36,0L64.4,364.09a1.2,1.2,0,0,0-.44,1.64,1.32,1.32,0,0,0,.44.44l156.08,90.11a3.46,3.46,0,0,0,3.36,0l55.67-32.1a1.2,1.2,0,0,0,.6-1.59,1.17,1.17,0,0,0-.6-.6Z"/><path id="Path_5261" data-name="Path 5261" class="cls-10" d="M279.52,424.18l-.57.33L123.37,334.64a3.36,3.36,0,0,0-3.36,0L65,366.5l-.57-.33a1.2,1.2,0,0,1-.44-1.64,1.32,1.32,0,0,1,.44-.44L120,331.93a3.36,3.36,0,0,1,3.36,0L279.52,422a1.21,1.21,0,0,1,.6,1.59,1.25,1.25,0,0,1-.6.6Z"/><path id="Path_5262" data-name="Path 5262" class="cls-11" d="M128.86,347.6,261,423.91l5.71-3.67L134.92,344.15Z"/><path id="Path_5263" data-name="Path 5263" class="cls-11" d="M120.29,359.72l120,69.29,4.11-4.59L126.33,356.24Z"/><path id="Path_5264" data-name="Path 5264" class="cls-11" d="M91.38,354.16l149.8,86.48,6-3.47L97.42,350.69Z"/><path id="Path_5265" data-name="Path 5265" class="cls-11" d="M81.76,359.72l149.8,86.48,6-3.48L87.8,356.24Z"/><path id="Path_5266" data-name="Path 5266" class="cls-11" d="M72.14,365.27l149.78,86.5,6-3.5L78.18,361.79Z"/><path id="Path_5267" data-name="Path 5267" class="cls-11" d="M259.64,423.11l6,3.47,6-3.48-6-3.47Z"/><path id="Path_5268" data-name="Path 5268" class="cls-11" d="M238.37,427.9l12.52,7.23,6-3.5-12.51-7.21Z"/><path id="Path_5269" data-name="Path 5269" class="cls-44" d="M117.36,443.86l-42.12-24.3a1.82,1.82,0,0,1,0-3.43L104,399.51a6.61,6.61,0,0,1,6,0l42.09,24.32a1.81,1.81,0,0,1,0,3.43l-28.8,16.6A6.55,6.55,0,0,1,117.36,443.86Z"/><path id="Path_5270" data-name="Path 5270" class="cls-10" d="M152.1,425.23,110,400.91a6.55,6.55,0,0,0-6,0L75.25,417.62a2.61,2.61,0,0,0-1,1c-.44-.83-.11-1.77,1-2.42l28.8-16.62a6.55,6.55,0,0,1,6,0l42.09,24.31c1.14.66,1.46,1.58,1,2.41a2.53,2.53,0,0,0-1-1.07Z"/><g id="Group_356" data-name="Group 356" class="cls-34"><g class="cls-45"><g id="Group_355" data-name="Group 355"><path id="Path_5271" data-name="Path 5271" class="cls-46" d="M120.16,315.42,308.07,423.89a7.79,7.79,0,0,0,7,.29l112.12-64.73c1.77-1.05,1.55-2.84-.5-4L238.74,247.06a7.73,7.73,0,0,0-7-.3l-112,64.63C117.88,312.42,118.1,314.22,120.16,315.42Z"/><path id="Path_5272" data-name="Path 5272" class="cls-47" d="M308.62,334.86l-42.09-24.38a1.82,1.82,0,0,1,0-3.44l28.77-16.62a6.61,6.61,0,0,1,6,0l42.11,24.43a1.81,1.81,0,0,1,0,3.43l-28.8,16.62a6.56,6.56,0,0,1-6,0Z"/><path id="Path_5273" data-name="Path 5273" class="cls-10" d="M343.39,316.2l-42.14-24.31a6.55,6.55,0,0,0-6,0l-28.77,16.62a2.71,2.71,0,0,0-1.05,1c-.42-.83,0-1.77,1.05-2.42l28.77-16.62a6.55,6.55,0,0,1,6,0l42.13,24.36c1.14.65,1.47,1.57,1,2.4A2.58,2.58,0,0,0,343.39,316.2Z"/><path id="Path_5274" data-name="Path 5274" class="cls-9" d="M361.89,372.84,205.74,282.68a3.38,3.38,0,0,0-3.37,0l-55.6,32.17a1.2,1.2,0,0,0,0,2.19l156.08,90.1a3.43,3.43,0,0,0,3.37,0L361.89,375a1.2,1.2,0,0,0,.56-1.6,1.22,1.22,0,0,0-.56-.56Z"/><path id="Path_5275" data-name="Path 5275" class="cls-10" d="M361.89,374.91l-.57.33L205.74,285.42a3.33,3.33,0,0,0-3.37,0l-55,31.83-.57-.3a1.21,1.21,0,0,1-.6-1.59,1.17,1.17,0,0,1,.6-.6l55.6-32.16a3.38,3.38,0,0,1,3.37,0l156.14,90.15a1.19,1.19,0,0,1,.56,1.6,1.09,1.09,0,0,1-.56.56Z"/><path id="Path_5276" data-name="Path 5276" class="cls-11" d="M161.31,312.66,297.36,391.2l-5.4,3.13-136-78.54Z"/><path id="Path_5277" data-name="Path 5277" class="cls-11" d="M175.65,304.4,305,379.05l-5.38,3.1L170.25,307.5Z"/><path id="Path_5278" data-name="Path 5278" class="cls-11" d="M314.61,384.62l12.07,7-5.38,3.1-12.09-7Z"/><path id="Path_5279" data-name="Path 5279" class="cls-11" d="M303.94,395l8.4,4.85L307,403l-8.42-4.86Z"/><path id="Path_5280" data-name="Path 5280" class="cls-11" d="M184.64,299.21l151,87.2-5.4,3.1-151-87.19Z"/><path id="Path_5281" data-name="Path 5281" class="cls-11" d="M193.61,294l151,87.18-5.38,3.13-151-87.2Z"/><path id="Path_5282" data-name="Path 5282" class="cls-11" d="M202.59,288.85l151,87.18-5.38,3.13-151-87.2Z"/></g></g></g><path id="Path_5283" data-name="Path 5283" class="cls-11" d="M115.81,340.06l6,3.48,6-3.48-6-3.48Z"/><path id="Path_5284" data-name="Path 5284" class="cls-11" d="M101,348.61l12.5,7.22,6-3.48-12.51-7.24Z"/></g></g></g></svg>