<?xml version="1.0" encoding="iso-8859-1"?>
<!-- Generator: Adobe Illustrator 18.0.0, SVG Export Plug-In . SVG Version: 6.00 Build 0)  -->
<!DOCTYPE svg PUBLIC "-//W3C//DTD SVG 1.1//EN" "http://www.w3.org/Graphics/SVG/1.1/DTD/svg11.dtd">
<svg version="1.1" id="Capa_1" xmlns="http://www.w3.org/2000/svg" xmlns:xlink="http://www.w3.org/1999/xlink" x="0px" y="0px"
	 viewBox="0 0 284.082 284.082" style="enable-background:new 0 0 284.082 284.082;" xml:space="preserve">
<g>
	<path d="M254.595,43.139L153.524,2.236c-7.366-2.981-15.602-2.981-22.967,0L29.487,43.139
		C16.806,48.271,9.079,61.222,10.556,74.821c9.649,88.835,69.779,209.261,131.485,209.261c61.706,0,121.836-120.426,131.485-209.261
		C275.005,61.202,267.294,48.278,254.595,43.139z M241.192,89.736c-6.656,67.673-48.406,162.8-99.152,162.8
		c-50.747,0-92.497-95.127-99.153-162.8C41.871,79.4,47.89,69.641,57.593,65.934l76.215-29.122c2.65-1.013,5.442-1.519,8.232-1.519
		c2.791,0,5.581,0.506,8.232,1.519l76.213,29.122C236.204,69.647,242.21,79.384,241.192,89.736z"/>
	<path d="M64.732,84.616c-1.278,0.488-2.076,1.789-1.941,3.163c3.179,32.323,14.939,70.313,30.69,99.146
		c15.602,28.56,33.755,45.611,48.559,45.611h0V55.293c-0.376,0-0.744,0.068-1.094,0.202L64.732,84.616z"/>
</g>
<g>
</g>
<g>
</g>
<g>
</g>
<g>
</g>
<g>
</g>
<g>
</g>
<g>
</g>
<g>
</g>
<g>
</g>
<g>
</g>
<g>
</g>
<g>
</g>
<g>
</g>
<g>
</g>
<g>
</g>
</svg>
