<svg id="Layer_1" enable-background="new 0 0 512 512" height="512" viewBox="0 0 512 512" width="512" xmlns="http://www.w3.org/2000/svg"><path d="m464 80h-256v-32c0-8.84-7.16-16-16-16h-176c-8.84 0-16 7.16-16 16v416c0 8.84 7.16 16 16 16h176c8.84 0 16-7.16 16-16v-16h208c8.84 0 16-7.16 16-16s-7.16-16-16-16h-50.88l-9.6-48h108.48c26.47 0 48-21.53 48-48v-192c0-26.47-21.53-48-48-48zm-384 296c0-13.23 10.77-24 24-24s24 10.77 24 24-10.77 24-24 24-24-10.77-24-24zm48-88h-48c-8.84 0-16-7.16-16-16s7.16-16 16-16h48c8.84 0 16 7.16 16 16s-7.16 16-16 16zm-96-64v-32h144v32zm144-112v32h-144v-32zm32 256h44.48l-9.6 48h-34.88zm0-64c0-19.333 0-166.877 0-192h256c8.82 0 16 7.18 16 16v176z"/></svg>