<?xml version="1.0" encoding="iso-8859-1"?>
<!-- Generator: Adobe Illustrator 16.0.0, SVG Export Plug-In . SVG Version: 6.00 Build 0)  -->
<!DOCTYPE svg PUBLIC "-//W3C//DTD SVG 1.1//EN" "http://www.w3.org/Graphics/SVG/1.1/DTD/svg11.dtd">
<svg version="1.1" id="Capa_1" xmlns="http://www.w3.org/2000/svg" xmlns:xlink="http://www.w3.org/1999/xlink" x="0px" y="0px"
	 width="400px" height="400px" viewBox="0 0 400 400" style="enable-background:new 0 0 400 400;" xml:space="preserve">
<g>
	<g>
		<path d="M56.965,135.967c17.806,0,33.698-8.174,44.145-20.97h64.801l41.265-35.994L165.91,43.008h-64.8
			c-10.447-12.795-26.34-20.97-44.146-20.97C25.504,22.038,0,47.541,0,79.003C0,110.463,25.504,135.967,56.965,135.967z
			 M56.495,48.875h8.919v60.255H54.183V61.057l-9.311,5.026l-2.454-9.673L56.495,48.875z"/>
		<path d="M56.965,257.127c17.879,0,33.828-8.244,44.271-21.132h161.087L303.588,200l-41.265-35.995H100.982
			c-10.447-12.704-26.285-20.808-44.018-20.808C25.504,143.197,0,168.699,0,200.162C0,231.622,25.504,257.127,56.965,257.127z
			 M37.515,223.542l6.425-6.24c14.438-13.74,20.479-20.729,20.559-28.478c0-4.354-1.69-9.559-9.747-9.559
			c-4.978,0-9.059,2.78-11.048,4.437l-1.46,1.219l-3.661-8.108l0.834-0.706c4.632-3.911,10.634-6.067,16.896-6.067
			c12.927,0,18.714,8.964,18.714,17.846c0,11.297-8.24,20.108-19.88,31.322l-2.005,1.852h23.272v9.228H37.515V223.542z"/>
		<path d="M400,320.997l-41.266-35.994H101.11c-10.447-12.796-26.34-20.97-44.146-20.97C25.504,264.033,0,289.535,0,320.997
			c0,31.461,25.504,56.965,56.965,56.965c17.806,0,33.698-8.175,44.145-20.97h257.625L400,320.997z M54.161,351.597
			c-6.848,0-12.606-2.184-15.457-4.054l-0.947-0.621l3.066-8.69l1.536,0.982c1.8,1.153,6.563,3.331,11.716,3.331
			c3.878,0,6.85-1.023,8.833-3.044c1.618-1.648,2.521-3.986,2.475-6.416c-0.08-7.271-6.835-9.859-13.13-9.859h-5.698v-8.621h5.698
			c4.477,0,11.134-2.155,11.134-8.098c0-4.484-3.077-7.058-8.445-7.058c-4.129,0-8.203,1.866-10.438,3.463l-1.555,1.11l-3.007-8.367
			l0.868-0.639c3.128-2.3,9.167-4.619,15.608-4.619c12.147,0,17.585,7.48,17.585,14.896c0,5.562-2.87,10.188-7.995,13.093
			c6.278,2.538,10.163,8.062,10.163,14.846C76.171,342.374,69.366,351.597,54.161,351.597z"/>
	</g>
</g>
<g>
</g>
<g>
</g>
<g>
</g>
<g>
</g>
<g>
</g>
<g>
</g>
<g>
</g>
<g>
</g>
<g>
</g>
<g>
</g>
<g>
</g>
<g>
</g>
<g>
</g>
<g>
</g>
<g>
</g>
</svg>
