<svg id="Layer_2" data-name="Layer 2" xmlns="http://www.w3.org/2000/svg" xmlns:xlink="http://www.w3.org/1999/xlink" width="421.031" height="346.848" viewBox="0 0 421.031 346.848">
  <defs>
    <linearGradient id="linear-gradient" x1="-0.215" y1="3.985" x2="-0.202" y2="3.985" gradientUnits="objectBoundingBox">
      <stop offset="0" stop-color="#e6e7f5"/>
      <stop offset="0.36" stop-color="#fff"/>
      <stop offset="0.69" stop-color="#fff"/>
      <stop offset="1" stop-color="#e6e7f5"/>
    </linearGradient>
    <linearGradient id="linear-gradient-2" x1="-5.814" y1="9.373" x2="-5.8" y2="9.373" xlink:href="#linear-gradient"/>
    <linearGradient id="linear-gradient-3" x1="-5.814" y1="3.985" x2="-5.8" y2="3.985" xlink:href="#linear-gradient"/>
    <linearGradient id="linear-gradient-4" x1="-0.215" y1="9.373" x2="-0.202" y2="9.373" xlink:href="#linear-gradient"/>
    <radialGradient id="radial-gradient" cx="0.083" cy="0.38" r="0.644" gradientTransform="matrix(1.574, 0, 0, -1, 0.509, 3.141)" gradientUnits="objectBoundingBox">
      <stop offset="0" stop-color="#e6e7f5"/>
      <stop offset="1" stop-color="#e6e7f5"/>
    </radialGradient>
    <linearGradient id="linear-gradient-5" x1="-0.698" y1="3.303" x2="-0.695" y2="3.3" xlink:href="#linear-gradient"/>
    <linearGradient id="linear-gradient-6" x1="-1.663" y1="1.671" x2="-1.654" y2="1.671" gradientUnits="objectBoundingBox">
      <stop offset="0" stop-color="#e6e7f5"/>
      <stop offset="1" stop-color="#fff"/>
    </linearGradient>
    <radialGradient id="radial-gradient-2" cx="0.037" cy="0.065" r="1.054" gradientTransform="matrix(1.04, 0, 0, -1, 0.12, 4.007)" gradientUnits="objectBoundingBox">
      <stop offset="0" stop-color="#e6e7f5"/>
      <stop offset="0.31" stop-color="#e6e7f5"/>
      <stop offset="0.75" stop-color="#e6e7f5"/>
      <stop offset="1" stop-color="#e6e7f5"/>
    </radialGradient>
    <linearGradient id="linear-gradient-8" x1="-1.492" y1="2.17" x2="-1.487" y2="2.161" gradientUnits="objectBoundingBox">
      <stop offset="0" stop-color="#e6e7f5"/>
      <stop offset="0.3" stop-color="#fff"/>
      <stop offset="0.58" stop-color="#fff"/>
      <stop offset="0.84" stop-color="#e6e7f5"/>
    </linearGradient>
    <radialGradient id="radial-gradient-3" cx="0.038" cy="0.064" r="1.054" gradientTransform="matrix(1.039, 0, 0, -1, 0.238, 8.265)" xlink:href="#radial-gradient-2"/>
    <linearGradient id="linear-gradient-9" x1="-3.082" y1="4.084" x2="-3.077" y2="4.075" xlink:href="#linear-gradient-8"/>
    <radialGradient id="radial-gradient-4" cx="0.037" cy="0.064" r="1.056" gradientTransform="matrix(1.04, 0, 0, -1, -0.007, 8.261)" xlink:href="#radial-gradient-2"/>
    <linearGradient id="linear-gradient-10" x1="0.098" y1="4.084" x2="0.103" y2="4.075" xlink:href="#linear-gradient-8"/>
  </defs>
  <g id="Ñëîé_1" data-name="Ñëîé 1" transform="translate(0 0)">
    <path id="Path_884" data-name="Path 884" d="M522.426,155.637l-.3-.173-33.461-19.322,33.764-19.494.293.173,33.459,19.322Zm-31.367-19.494,31.367,18.112L553.8,136.143l-31.378-18.08Z" transform="translate(-250.416 -59.777)" fill="#fff"/>
    <path id="Path_889" data-name="Path 889" d="M388.826,155.626l-.293-.173-33.46-19.322,33.764-19.5.3.173L422.6,136.132Zm-31.378-19.494,31.378,18.112L420.2,136.132l-31.378-18.081Z" transform="translate(-181.958 -59.766)" fill="#fff"/>
    <path id="Path_890" data-name="Path 890" d="M455.63,194.2l-.3-.173L421.866,174.71l33.764-19.494.3.173,33.461,19.321ZM424.252,174.71l31.378,18.166,31.378-18.166L455.63,156.6Z" transform="translate(-216.186 -79.541)" fill="#fff"/>
    <path id="Path_891" data-name="Path 891" d="M522.426,232.782l-.3-.173-33.461-19.332,33.764-19.494,33.764,19.494Zm-31.378-19.5L522.426,231.4,553.8,213.277l-31.378-18.112Z" transform="translate(-250.416 -99.305)" fill="#fff"/>
    <path id="Path_898" data-name="Path 898" d="M388.826,232.782l-.293-.173-33.46-19.332,33.764-19.494.3.173L422.6,213.277Zm-31.378-19.5L388.826,231.4,420.2,213.277l-31.378-18.112Z" transform="translate(-181.958 -99.305)" fill="#fff"/>
    <path id="Path_899" data-name="Path 899" d="M455.643,271.4l-.293-.173-33.46-19.319,33.753-19.453.3.173,33.461,19.332Zm-31.378-19.516L455.643,270l31.378-18.112-31.378-18.123Z" transform="translate(-216.199 -119.125)" fill="#fff"/>
    <path id="Path_900" data-name="Path 900" d="M522.414,309.927,488.64,290.433l33.774-19.494,33.764,19.494Zm-31.378-19.494,31.378,18.112,31.378-18.112-31.378-18.112Z" transform="translate(-250.405 -138.843)" fill="#fff"/>
    <path id="Path_903" data-name="Path 903" d="M722.887,425.65l-.293-.173-33.461-19.322L722.9,386.662l.3.173,33.461,19.321Zm-31.378-19.494,31.378,18.112,31.378-18.112-31.378-18.123Z" transform="translate(-353.148 -198.146)" fill="#fff"/>
    <path id="Path_909" data-name="Path 909" d="M388.825,309.927l-.293-.173-33.461-19.321,33.764-19.494.3.173L422.6,290.433Zm-31.378-19.494,31.378,18.112L420.2,290.433l-31.378-18.112Z" transform="translate(-181.957 -138.843)" fill="#fff"/>
    <path id="Path_910" data-name="Path 910" d="M455.631,348.494,421.868,329l33.763-19.494L489.405,329ZM424.253,329l31.378,18.112L487.009,329l-31.378-18.112Z" transform="translate(-216.187 -158.607)" fill="#fff"/>
    <path id="Path_911" data-name="Path 911" d="M522.426,387.07l-.3-.173-33.461-19.334,33.764-19.494.293.173,33.459,19.322Zm-31.378-19.507,31.378,18.123L553.8,367.563l-31.378-18.112Z" transform="translate(-250.416 -178.369)" fill="#fff"/>
    <path id="Path_920" data-name="Path 920" d="M388.825,387.07l-33.774-19.507,33.764-19.494,33.776,19.494Zm-31.378-19.507,31.378,18.123,31.368-18.123-31.378-18.112Z" transform="translate(-181.947 -178.369)" fill="#fff"/>
    <path id="Path_921" data-name="Path 921" d="M455.631,425.639l-33.763-19.494,33.763-19.5.3.173,33.461,19.332Zm-31.378-19.494,31.378,18.114,31.378-18.112-31.378-18.125Z" transform="translate(-216.187 -198.135)" fill="#fff"/>
    <path id="Path_932" data-name="Path 932" d="M455.631,502.795l-33.763-19.5L455.631,463.8l.3.173,33.461,19.321Zm-31.378-19.5,31.378,18.123,31.378-18.123-31.378-18.112Z" transform="translate(-216.187 -237.673)" fill="#fff"/>
    <path id="Path_937" data-name="Path 937" d="M188.4,425.639l-.293-.173-33.46-19.322,33.763-19.5.3.173,33.461,19.332Zm-31.378-19.494L188.4,424.259l31.378-18.112L188.4,388.022Z" transform="translate(-79.248 -198.135)" fill="#fff"/>
    <path id="Path_941" data-name="Path 941" d="M455.631,579.94l-33.763-19.494,33.763-19.494.3.173,33.461,19.322Zm-31.378-19.494,31.378,18.112,31.378-18.112-31.378-18.113Z" transform="translate(-216.187 -277.212)" fill="#fff"/>
    <path id="Path_952" data-name="Path 952" d="M43.176,444.466a11.273,11.273,0,0,0-1.835,1.349c-.259-8.279-6.241-11.582-13.6-7.329-5.99,3.465-11.075,10.869-12.9,18.134a8.147,8.147,0,0,0-5.127,1.263C4.318,460.981,0,468.515,0,474.711s4.318,8.713,9.715,5.613l33.461-19.289a15.878,15.878,0,0,0,7.178-12.422C50.311,444.034,47.095,442.177,43.176,444.466Z" transform="translate(0 -223.751)" fill="#e6e7f5"/>
    <path id="Path_953" data-name="Path 953" d="M613.59,554.419a6.983,6.983,0,0,1-3.152,5.46c-1.738,1-3.152.183-3.152-1.824a6.963,6.963,0,0,1,3.152-5.4C612.176,551.6,613.59,552.412,613.59,554.419Z" transform="translate(-311.205 -282.973)" fill="#e6e7f5"/>
    <path id="Path_954" data-name="Path 954" d="M634.544,542.273a6.951,6.951,0,0,1-3.152,5.461c-1.738,1-3.141.183-3.141-1.824a6.984,6.984,0,0,1,3.141-5.461C633.142,539.466,634.544,540.286,634.544,542.273Z" transform="translate(-321.949 -276.741)" fill="#e6e7f5"/>
    <path id="Path_955" data-name="Path 955" d="M655.5,530.215a6.962,6.962,0,0,1-3.152,5.451c-1.748,1-3.152.2-3.152-1.813a6.953,6.953,0,0,1,3.152-5.461C654.086,527.387,655.5,528.208,655.5,530.215Z" transform="translate(-332.682 -270.556)" fill="#e6e7f5"/>
    <path id="Path_956" data-name="Path 956" d="M676.444,518.115a6.962,6.962,0,0,1-3.152,5.461c-1.738,1-3.152.195-3.152-1.813a6.962,6.962,0,0,1,3.152-5.46C675.03,515.3,676.444,516.109,676.444,518.115Z" transform="translate(-343.415 -264.359)" fill="#e6e7f5"/>
    <path id="Path_957" data-name="Path 957" d="M311.883,669.943a6.951,6.951,0,0,1-3.152,5.461c-1.738,1-3.141.183-3.141-1.824a6.95,6.95,0,0,1,3.141-5.4C310.48,667.126,311.883,667.936,311.883,669.943Z" transform="translate(-156.6 -342.174)" fill="#e6e7f5"/>
    <path id="Path_958" data-name="Path 958" d="M329.716,659.614a6.983,6.983,0,0,1-3.152,5.461c-1.738,1-3.152.183-3.152-1.824a6.962,6.962,0,0,1,3.152-5.451C328.3,656.807,329.716,657.617,329.716,659.614Z" transform="translate(-165.733 -336.874)" fill="#e6e7f5"/>
    <path id="Path_959" data-name="Path 959" d="M311.883,649.334a6.941,6.941,0,0,1-3.152,5.461c-1.738,1-3.141.2-3.141-1.824a6.951,6.951,0,0,1,3.141-5.451C310.48,646.517,311.883,647.326,311.883,649.334Z" transform="translate(-156.6 -331.603)" fill="#e6e7f5"/>
    <path id="Path_960" data-name="Path 960" d="M329.716,639.027a6.962,6.962,0,0,1-3.152,5.461c-1.738,1-3.152.195-3.152-1.813a6.963,6.963,0,0,1,3.152-5.494C328.3,636.21,329.716,637.019,329.716,639.027Z" transform="translate(-165.733 -326.315)" fill="#e6e7f5"/>
    <path id="Path_961" data-name="Path 961" d="M252.007,148.786l-6.3,3.636v-7.274l6.3-3.638Z" transform="translate(-125.912 -72.518)" fill="#e6e7f5"/>
    <path id="Path_962" data-name="Path 962" d="M269.94,138.291l-6.3,3.639v-7.275l6.3-3.638Z" transform="translate(-135.102 -67.14)" fill="#e6e7f5"/>
    <path id="Path_963" data-name="Path 963" d="M252.118,168.136l-6.3,3.638V164.5l6.3-3.638Z" transform="translate(-125.969 -82.434)" fill="#e6e7f5"/>
    <path id="Path_964" data-name="Path 964" d="M269.94,157.841l-6.3,3.648V154.2l6.3-3.638Z" transform="translate(-135.102 -77.158)" fill="#e6e7f5"/>
    <path id="Path_965" data-name="Path 965" d="M726.818,4.1a12.1,12.1,0,0,0-3.076,2.644c-.162-6.066-4.48-8.5-9.877-5.4a17.917,17.917,0,0,0-4.749,4.134C706.731,1.3,701.787.343,696.055,3.646c-8.093,4.652-14.572,15.975-14.572,25.28a17.445,17.445,0,0,0,.151,2.159,5.473,5.473,0,0,0-4.091.821A15.435,15.435,0,0,0,670.56,44c0,4.458,3.13,6.261,6.984,4.037L726.818,19.6a14.821,14.821,0,0,0,6.694-11.624C733.512,3.689,730.51,1.952,726.818,4.1Z" transform="translate(-343.63 0)" fill="#e6e7f5" opacity="0.2" style="isolation: isolate"/>
    <path id="Path_966" data-name="Path 966" d="M744.8,20.037a11.748,11.748,0,0,0-3.077,2.644c-.151-6.077-4.5-8.5-9.865-5.4a17.881,17.881,0,0,0-4.738,4.134c-2.386-4.177-7.329-5.149-13.061-1.835-8.063,4.653-14.594,15.976-14.594,25.28a17.275,17.275,0,0,0,.14,2.159,5.535,5.535,0,0,0-4.091.829,15.424,15.424,0,0,0-6.973,12.124c0,4.458,3.12,6.261,6.972,4.037L744.8,35.56a14.854,14.854,0,0,0,6.714-11.625C751.51,19.595,748.5,17.879,744.8,20.037Z" transform="translate(-352.843 -8.166)" fill="#e6e7f5" opacity="0.5" style="isolation: isolate"/>
    <path id="Path_967" data-name="Path 967" d="M762.807,35.846a11.958,11.958,0,0,0-3.087,2.644c-.14-6.077-4.491-8.5-9.854-5.4a17.688,17.688,0,0,0-4.738,4.134c-2.4-4.177-7.34-5.149-13.072-1.835-8.063,4.652-14.594,15.975-14.594,25.28a17.28,17.28,0,0,0,.151,2.159,5.535,5.535,0,0,0-4.091.829,15.435,15.435,0,0,0-6.984,12.091c0,4.458,3.13,6.261,6.984,4.037l49.285-28.442a14.863,14.863,0,0,0,6.7-11.626C769.511,35.436,766.51,33.7,762.807,35.846Z" transform="translate(-362.068 -16.267)" fill="#e6e7f5"/>
    <path id="Path_968" data-name="Path 968" d="M233.344,451.96a1.6,1.6,0,0,1-.766-.205,1.533,1.533,0,0,1-.756-1.316V430.922a1.522,1.522,0,0,1,.756-1.316l16.914-9.769a1.533,1.533,0,0,1,1.522,0,1.512,1.512,0,0,1,.756,1.316v19.483a1.5,1.5,0,0,1-.756,1.316L234.1,451.722a1.558,1.558,0,0,1-.756.237Zm1.522-20.174v16.008l13.859-8V423.788Z" transform="translate(-118.798 -215.043)" fill="#e6e7f5"/>
    <path id="Path_969" data-name="Path 969" d="M185.493,651.8l-24.384-14.086,24.384-14.076,24.386,14.076Z" transform="translate(-82.561 -319.588)" fill="#c6c6c6"/>
    <path id="Path_970" data-name="Path 970" d="M183.52,630.09a1.9,1.9,0,0,1-.926-.248L158.208,615.81a1.857,1.857,0,0,1,0-3.238l24.384-14.032a1.845,1.845,0,0,1,1.857,0l24.384,14.032a1.857,1.857,0,0,1,0,3.238L184.45,629.842A1.9,1.9,0,0,1,183.52,630.09Zm-20.669-15.932L183.523,626.1,204.2,614.159,183.52,602.22Z" transform="translate(-80.588 -306.595)" fill="#e62c2b"/>
    <path id="Path_971" data-name="Path 971" d="M235.506,578.678l-24.384,14.075V564.6l24.384-14.086Z" transform="translate(-108.19 -282.113)" fill="#e6e7f5"/>
    <path id="Path_972" data-name="Path 972" d="M185.493,549.808l-24.384-14.086,24.384-14.076,24.386,14.076Z" transform="translate(-82.561 -267.319)" fill="url(#linear-gradient)"/>
    <path id="Path_973" data-name="Path 973" d="M185.493,592.753l-24.384-14.075V550.516L185.493,564.6Z" transform="translate(-82.561 -282.113)" fill="#fff"/>
    <path id="Path_974" data-name="Path 974" d="M185.983,593.484l-6.853-3.958v-7.906l6.853,3.948Z" transform="translate(-91.796 -298.052)" fill="#e62c2b"/>
    <path id="Path_975" data-name="Path 975" d="M745.489,340.745,721.1,326.669l24.384-14.086,24.384,14.086Z" transform="translate(-369.532 -160.184)" fill="#c6c6c6"/>
    <path id="Path_976" data-name="Path 976" d="M743.506,318.982a1.812,1.812,0,0,1-.926-.248L718.2,304.7a1.846,1.846,0,0,1,0-3.238l24.384-14.086a1.9,1.9,0,0,1,1.857,0L768.82,301.5a1.846,1.846,0,0,1,0,3.238l-24.386,14.032a1.76,1.76,0,0,1-.926.216ZM722.834,303.05l20.672,11.938,20.681-11.938-20.681-11.938Z" transform="translate(-367.55 -147.143)" fill="#e62c2b"/>
    <path id="Path_977" data-name="Path 977" d="M795.5,267.63l-24.384,14.076V253.554L795.5,239.479Z" transform="translate(-395.162 -122.722)" fill="#e6e7f5"/>
    <path id="Path_978" data-name="Path 978" d="M745.489,238.76,721.1,224.684l24.384-14.076,24.384,14.076Z" transform="translate(-369.532 -107.927)" fill="url(#linear-gradient-2)"/>
    <path id="Path_979" data-name="Path 979" d="M745.489,281.705,721.1,267.63V239.479l24.384,14.075Z" transform="translate(-369.532 -122.722)" fill="#fff"/>
    <path id="Path_980" data-name="Path 980" d="M745.948,282.482l-6.822-3.929v-7.88l6.822,3.94Z" transform="translate(-378.767 -138.707)" fill="#e62c2b"/>
    <path id="Path_981" data-name="Path 981" d="M757.148,235.413l6.768-4.015,6.865,3.852-6.768,4.026Z" transform="translate(-388.003 -118.58)" fill="#e6e7f5"/>
    <path id="Path_982" data-name="Path 982" d="M745.489,651.8,721.1,637.719l24.384-14.076,24.384,14.076Z" transform="translate(-369.532 -319.588)" fill="#c6c6c6"/>
    <path id="Path_983" data-name="Path 983" d="M743.517,630.09a1.93,1.93,0,0,1-.927-.248L718.207,615.81a1.857,1.857,0,0,1,0-3.238l24.384-14.032a1.845,1.845,0,0,1,1.857,0l24.384,14.032a1.856,1.856,0,0,1,0,3.238l-24.384,14.032a1.866,1.866,0,0,1-.926.248Zm-20.672-15.932L743.517,626.1,764.2,614.158,743.517,602.22Z" transform="translate(-367.561 -306.595)" fill="#e62c2b"/>
    <path id="Path_984" data-name="Path 984" d="M795.5,578.678l-24.384,14.075V564.6L795.5,550.516Z" transform="translate(-395.162 -282.113)" fill="#e6e7f5"/>
    <path id="Path_985" data-name="Path 985" d="M745.489,549.808,721.1,535.722l24.384-14.076,24.384,14.076Z" transform="translate(-369.532 -267.319)" fill="url(#linear-gradient-3)"/>
    <path id="Path_986" data-name="Path 986" d="M745.489,592.753,721.1,578.678V550.516L745.489,564.6Z" transform="translate(-369.532 -282.113)" fill="#fff"/>
    <path id="Path_987" data-name="Path 987" d="M745.948,593.542l-6.822-3.94v-7.869l6.822,3.929Z" transform="translate(-378.767 -298.111)" fill="#e62c2b"/>
    <path id="Path_988" data-name="Path 988" d="M185.493,340.745l-24.384-14.075,24.384-14.086,24.386,14.086Z" transform="translate(-82.561 -160.184)" fill="#c6c6c6"/>
    <path id="Path_989" data-name="Path 989" d="M183.508,318.971a1.792,1.792,0,0,1-.926-.248L158.2,304.69a1.846,1.846,0,0,1,0-3.238l24.383-14.1a1.9,1.9,0,0,1,1.857,0l24.384,14.13a1.846,1.846,0,0,1,0,3.238l-24.383,14.032a1.794,1.794,0,0,1-.926.216Zm-20.672-15.932,20.672,11.938,20.681-11.938L183.508,291.1Z" transform="translate(-80.576 -147.132)" fill="#e62c2b"/>
    <path id="Path_990" data-name="Path 990" d="M235.506,267.63l-24.384,14.076V253.554l24.384-14.075Z" transform="translate(-108.19 -122.722)" fill="#e6e7f5"/>
    <path id="Path_991" data-name="Path 991" d="M185.493,238.76l-24.384-14.075,24.384-14.076,24.386,14.076Z" transform="translate(-82.561 -107.927)" fill="url(#linear-gradient-4)"/>
    <path id="Path_992" data-name="Path 992" d="M185.493,281.705,161.109,267.63V239.479l24.384,14.075Z" transform="translate(-82.561 -122.722)" fill="#fff"/>
    <path id="Path_993" data-name="Path 993" d="M185.951,282.482l-6.821-3.929v-7.88l6.821,3.94Z" transform="translate(-91.796 -138.707)" fill="#e62c2b"/>
    <rect id="Rectangle_145" data-name="Rectangle 145" width="82.269" height="3.72" transform="translate(292.551 177.041) rotate(-30.001)" fill="#e6e7f5"/>
    <path id="Path_994" data-name="Path 994" d="M411.964,489.324l-62.53-36.052c-2.3-1.316-2.008-3.627.637-5.16l66.286-38.362c2.644-1.533,6.649-1.695,8.937-.378l62.541,36.106c2.289,1.328,2,3.638-.647,5.168L420.9,489.011C418.257,490.489,414.252,490.651,411.964,489.324Z" transform="translate(-178.273 -209.328)" fill="#c6c6c6"/>
    <path id="Path_995" data-name="Path 995" d="M413.905,460.177a9.717,9.717,0,0,1-4.827-1.079L346.55,422.991a4.49,4.49,0,0,1-2.483-3.843,5.46,5.46,0,0,1,3.12-4.523l66.286-38.373c3.238-1.846,7.945-2.008,10.794-.367l62.53,36.106a4.49,4.49,0,0,1,2.483,3.843,5.4,5.4,0,0,1-3.12,4.522l-66.274,38.3A12.292,12.292,0,0,1,413.905,460.177Zm-2.968-4.318c1.716.993,5.03.821,7.092-.378L484.3,417.119c.926-.54,1.263-1.079,1.263-1.316s-.195-.39-.615-.637l-62.53-36.127c-1.716-.993-5.03-.809-7.092.378l-66.306,38.362c-.926.54-1.263,1.079-1.263,1.316s.2.39.615.637Z" transform="translate(-176.318 -192.044)" fill="#e62c2b"/>
    <path id="Path_996" data-name="Path 996" d="M430.712,140.349s-34.336,3.238-55.049,4.857l54.845,156.2,72.547-41.838h0l.13-.076h0a4.038,4.038,0,0,0,1.479-3.583V103.2a11.019,11.019,0,0,0-1.253-4.866Z" transform="translate(-192.51 -50.394)" fill="url(#radial-gradient)"/>
    <path id="Path_997" data-name="Path 997" d="M484.522,51.47,420.73,14.608a2.893,2.893,0,0,0-2.9-.248h0L344.977,56.381l3.432,12.7,18.263,52.006,3.444,1.986L487.77,55.151a9.012,9.012,0,0,0-3.249-3.681Z" transform="translate(-176.784 -7.216)" fill="url(#linear-gradient-5)"/>
    <path id="Path_998" data-name="Path 998" d="M410.127,302.208l-63.8-36.84c-2.483-1.425-4.49-5.266-4.49-8.581V104.116c0-3.315,2.008-4.835,4.49-3.4l63.8,36.84c2.483,1.425,4.49,5.266,4.49,8.635V298.808C414.617,302.121,412.642,303.643,410.127,302.208Z" transform="translate(-175.173 -51.335)" fill="#dadada"/>
    <path id="Path_999" data-name="Path 999" d="M413.949,135.93l-63.8-36.872c-1.436-.829-2.709-.669-3.53.259a3.335,3.335,0,0,1,2.159.508l63.8,36.84c2.483,1.425,4.49,5.266,4.49,8.635v152.66a4.641,4.641,0,0,1-.961,3.141c1.392-.216,2.331-1.641,2.331-3.907V144.522C418.439,141.209,416.432,137.366,413.949,135.93Z" transform="translate(-177.624 -50.486)" fill="#e6e7f5"/>
    <path id="Path_1000" data-name="Path 1000" d="M411.033,301.321l-55.772-32.2c-2.159-1.252-3.929-4.609-3.929-7.5V119.83c0-2.893,1.76-4.221,3.929-2.968l55.773,32.2c2.159,1.252,3.929,4.609,3.929,7.557V298.353C414.908,301.246,413.191,302.584,411.033,301.321Z" transform="translate(-180.041 -59.645)" fill="url(#linear-gradient-6)"/>
    <path id="Path_1001" data-name="Path 1001" d="M411.033,301.321l-55.772-32.2c-2.159-1.252-3.929-4.609-3.929-7.5V119.83c0-2.893,1.76-4.221,3.929-2.968l55.773,32.2c2.159,1.252,3.929,4.609,3.929,7.557V298.353C414.908,301.246,413.191,302.584,411.033,301.321Z" transform="translate(-180.041 -59.645)" fill="url(#linear-gradient-6)"/>
    <path id="Path_1002" data-name="Path 1002" d="M411.033,301.321l-55.772-32.2c-2.159-1.252-3.929-4.609-3.929-7.5V119.83c0-2.893,1.76-4.221,3.929-2.968l55.773,32.2c2.159,1.252,3.929,4.609,3.929,7.557V298.353C414.908,301.246,413.191,302.584,411.033,301.321Z" transform="translate(-180.041 -59.645)" fill="#e62c2b"/>
    <path id="Path_1003" data-name="Path 1003" d="M412.781,300.249l-55.741-32.2c-2.159-1.252-3.929-4.609-3.929-7.557V118.747a4.52,4.52,0,0,1,.561-2.364c-1.4,0-2.386,1.273-2.386,3.443V261.617c0,2.893,1.76,6.25,3.929,7.5l55.794,32.2c1.436.829,2.677.529,3.368-.594a3.292,3.292,0,0,1-1.6-.475Z" transform="translate(-180.018 -59.641)" fill="#e6e7f5"/>
    <path id="Path_1004" data-name="Path 1004" d="M417.251,349.605l-20.725-11.96-33.062,19.084,57.716,33.322V357.118C421.126,354.225,419.41,350.857,417.251,349.605Z" transform="translate(-186.258 -173.027)" fill="#e62c2b"/>
    <path id="Path_1005" data-name="Path 1005" d="M417.251,290.017l-20.725-11.971L363.464,297.13l57.716,33.332V297.519C421.126,294.68,419.41,291.269,417.251,290.017Z" transform="translate(-186.258 -142.485)" fill="#e62c2b"/>
    <path id="Path_1006" data-name="Path 1006" d="M417.251,230.417l-20.725-11.971L363.464,237.53l57.716,33.332V237.919C421.126,234.993,419.41,231.669,417.251,230.417Z" transform="translate(-186.258 -111.943)" fill="#e62c2b"/>
    <path id="Path_1007" data-name="Path 1007" d="M417.194,170.816l-20.725-11.969-33.116,19.095,57.716,33.321V178.32C421.069,175.427,419.353,172.07,417.194,170.816Z" transform="translate(-186.201 -81.401)" fill="#e62c2b"/>
    <path id="Path_1008" data-name="Path 1008" d="M417.194,155.546l-45.952-26.5-7.889,4.566,57.716,33.321v-3.886C421.069,160.157,419.353,156.8,417.194,155.546Z" transform="translate(-186.201 -66.13)" fill="#e62c2b"/>
    <path id="Path_1009" data-name="Path 1009" d="M421.069,171.733l-57.716-33.321v18.361L421.069,190.1Z" transform="translate(-186.201 -70.929)" fill="#dadada"/>
    <path id="Path_1010" data-name="Path 1010" d="M421.069,231.332l-57.716-33.321v18.361l57.716,33.321Z" transform="translate(-186.201 -101.471)" fill="#dadada"/>
    <path id="Path_1011" data-name="Path 1011" d="M421.069,290.921l-57.716-33.332V275.96l57.716,33.321Z" transform="translate(-186.201 -132.002)" fill="#dadada"/>
    <path id="Path_1012" data-name="Path 1012" d="M421.069,350.52l-57.716-33.332v18.371l57.716,33.323Z" transform="translate(-186.201 -162.544)" fill="#dadada"/>
    <path id="Path_1013" data-name="Path 1013" d="M421.069,410.109l-57.716-33.321v18.361l57.716,33.332Z" transform="translate(-186.201 -193.086)" fill="#dadada"/>
    <path id="Path_1014" data-name="Path 1014" d="M423.256,192.939l-43.468-25.1a5.32,5.32,0,0,1-2.224-4.253v-4.909c0-1.641.993-2.4,2.224-1.684l43.468,25.1a5.32,5.32,0,0,1,2.224,4.253v4.924C425.48,192.9,424.476,193.651,423.256,192.939Z" transform="translate(-193.484 -80.316)" fill="#e62c2b"/>
    <path id="Path_1015" data-name="Path 1015" d="M381.983,166.927a5.32,5.32,0,0,1-2.224-4.253V157.75a2.837,2.837,0,0,1,.086-.7h-.057c-1.231-.712-2.224,0-2.224,1.684v4.913a5.32,5.32,0,0,0,2.224,4.253l43.468,25.095a1.338,1.338,0,0,0,2.159-.972Z" transform="translate(-193.484 -80.339)" fill="#181818" opacity="0.3" style="isolation: isolate"/>
    <path id="Path_1016" data-name="Path 1016" d="M414.98,185.186l-26.154-15.1a1.878,1.878,0,0,1-.788-1.489h0c0-.585.356-.842.788-.594l26.154,15.114a1.878,1.878,0,0,1,.788,1.5h0C415.811,185.175,415.412,185.434,414.98,185.186Z" transform="translate(-198.851 -86.045)" fill="#e6e7f5"/>
    <path id="Path_1017" data-name="Path 1017" d="M423.256,252.163l-43.468-25.1a5.322,5.322,0,0,1-2.224-4.242V217.9c0-1.641.993-2.386,2.224-1.684l43.468,25.109a5.289,5.289,0,0,1,2.224,4.242v4.924C425.48,252.119,424.476,252.875,423.256,252.163Z" transform="translate(-193.484 -110.666)" fill="#e62c2b"/>
    <path id="Path_1018" data-name="Path 1018" d="M381.983,226.189a5.32,5.32,0,0,1-2.224-4.253v-4.944a2.856,2.856,0,0,1,.086-.712h-.057c-1.231-.7-2.224,0-2.224,1.684v4.924a5.322,5.322,0,0,0,2.224,4.242l43.468,25.1a1.338,1.338,0,0,0,2.159-.972Z" transform="translate(-193.484 -110.695)" fill="#181818" opacity="0.3" style="isolation: isolate"/>
    <path id="Path_1019" data-name="Path 1019" d="M414.98,244.418,388.826,229.3a1.877,1.877,0,0,1-.788-1.489h0c0-.585.356-.842.788-.594l26.154,15.114a1.879,1.879,0,0,1,.788,1.5h0C415.811,244.4,415.412,244.666,414.98,244.418Z" transform="translate(-198.851 -116.392)" fill="#e6e7f5"/>
    <path id="Path_1020" data-name="Path 1020" d="M423.256,311.948,379.789,286.84a5.322,5.322,0,0,1-2.224-4.242v-4.924c0-1.641.993-2.386,2.224-1.684L423.256,301.1a5.31,5.31,0,0,1,2.224,4.242v4.924C425.48,311.894,424.476,312.65,423.256,311.948Z" transform="translate(-193.484 -141.297)" fill="#e62c2b"/>
    <path id="Path_1021" data-name="Path 1021" d="M381.983,286a5.32,5.32,0,0,1-2.224-4.253v-4.911a2.925,2.925,0,0,1,.086-.712h-.057c-1.231-.7-2.224,0-2.224,1.684v4.924a5.322,5.322,0,0,0,2.224,4.242l43.468,25.1a1.338,1.338,0,0,0,2.159-.972Z" transform="translate(-193.484 -141.362)" fill="#181818" opacity="0.3" style="isolation: isolate"/>
    <path id="Path_1022" data-name="Path 1022" d="M414.98,304.2l-26.154-15.114a1.878,1.878,0,0,1-.788-1.488h0c0-.572.356-.842.788-.594l26.154,15.114a1.879,1.879,0,0,1,.788,1.49h0C415.811,304.176,415.412,304.446,414.98,304.2Z" transform="translate(-198.851 -147.028)" fill="#e6e7f5"/>
    <path id="Path_1023" data-name="Path 1023" d="M423.256,372.278,379.789,347.17a5.322,5.322,0,0,1-2.224-4.242V338c0-1.641.993-2.386,2.224-1.684l43.468,25.109a5.321,5.321,0,0,1,2.224,4.242v4.924C425.48,372.236,424.476,372.98,423.256,372.278Z" transform="translate(-193.484 -172.213)" fill="#e62c2b"/>
    <path id="Path_1024" data-name="Path 1024" d="M381.983,346.263a5.321,5.321,0,0,1-2.224-4.253V337.1a2.926,2.926,0,0,1,.086-.712h-.057c-1.231-.7-2.224,0-2.224,1.684V343a5.322,5.322,0,0,0,2.224,4.242l43.468,25.109a1.339,1.339,0,0,0,2.159-.982Z" transform="translate(-193.484 -172.244)" fill="#181818" opacity="0.3" style="isolation: isolate"/>
    <path id="Path_1025" data-name="Path 1025" d="M414.98,364.524,388.826,349.41a1.878,1.878,0,0,1-.788-1.489h0c0-.572.356-.842.788-.594l26.154,15.114a1.879,1.879,0,0,1,.788,1.49h0C415.811,364.5,415.412,364.773,414.98,364.524Z" transform="translate(-198.851 -177.941)" fill="#e6e7f5"/>
    <path id="Path_1026" data-name="Path 1026" d="M423.256,431.419l-43.468-25.1a5.31,5.31,0,0,1-2.224-4.242v-4.924c0-1.63.993-2.386,2.224-1.684l43.468,25.1a5.321,5.321,0,0,1,2.224,4.242v4.924C425.48,431.354,424.476,432.12,423.256,431.419Z" transform="translate(-193.484 -202.522)" fill="#e62c2b"/>
    <path id="Path_1027" data-name="Path 1027" d="M381.983,405.4a5.321,5.321,0,0,1-2.224-4.242V396.23a2.926,2.926,0,0,1,.086-.712h-.057c-1.231-.7-2.224,0-2.224,1.684v4.924a5.31,5.31,0,0,0,2.224,4.242l43.468,25.109a1.339,1.339,0,0,0,2.159-.982Z" transform="translate(-193.484 -202.546)" fill="#181818" opacity="0.3" style="isolation: isolate"/>
    <path id="Path_1028" data-name="Path 1028" d="M414.98,423.66l-26.154-15.114a1.878,1.878,0,0,1-.788-1.489h0c0-.572.356-.842.788-.594l26.154,15.114a1.878,1.878,0,0,1,.829,1.468h0C415.811,423.639,415.412,423.908,414.98,423.66Z" transform="translate(-198.851 -208.246)" fill="#e6e7f5"/>
    <path id="Path_1029" data-name="Path 1029" d="M363.353,138.412l4.544,2.623V159.4l-4.544-2.623Z" transform="translate(-186.201 -70.929)" fill="#e62c2b" opacity="0.5" style="isolation: isolate"/>
    <path id="Path_1030" data-name="Path 1030" d="M363.353,198.011l4.544,2.623v18.361l-4.544-2.623Z" transform="translate(-186.201 -101.471)" fill="#e62c2b" opacity="0.5" style="isolation: isolate"/>
    <path id="Path_1031" data-name="Path 1031" d="M363.353,257.589l4.544,2.623v18.371l-4.544-2.623Z" transform="translate(-186.201 -132.002)" fill="#e62c2b" opacity="0.5" style="isolation: isolate"/>
    <path id="Path_1032" data-name="Path 1032" d="M363.353,317.188l4.544,2.623v18.371l-4.544-2.623Z" transform="translate(-186.201 -162.544)" fill="#e62c2b" opacity="0.5" style="isolation: isolate"/>
    <path id="Path_1033" data-name="Path 1033" d="M363.353,376.788l4.544,2.623v18.361l-4.544-2.623Z" transform="translate(-186.201 -193.086)" fill="#e62c2b" opacity="0.5" style="isolation: isolate"/>
    <ellipse id="Ellipse_47" data-name="Ellipse 47" cx="0.758" cy="1.311" rx="0.758" ry="1.311" transform="translate(219.934 100.083) rotate(-29.887)" fill="#e6e7f5"/>
    <path id="Path_1034" data-name="Path 1034" d="M459.945,209.884c0,.585-.41.821-.918.529a2.018,2.018,0,0,1-.918-1.587c0-.594.41-.829.918-.54A2.062,2.062,0,0,1,459.945,209.884Z" transform="translate(-234.76 -106.674)" fill="#e6e7f5"/>
    <path id="Path_1035" data-name="Path 1035" d="M467.95,214.51c0,.585-.41.821-.918.529a2.039,2.039,0,0,1-.926-1.6c0-.585.421-.821.926-.529A2.029,2.029,0,0,1,467.95,214.51Z" transform="translate(-238.857 -109.044)" fill="#e6e7f5"/>
    <path id="Path_1036" data-name="Path 1036" d="M451.921,264.833c0,.585-.41.821-.917.529a2.04,2.04,0,0,1-.926-1.6c0-.585.421-.82.926-.529A2.029,2.029,0,0,1,451.921,264.833Z" transform="translate(-230.643 -134.832)" fill="#e6e7f5"/>
    <path id="Path_1037" data-name="Path 1037" d="M459.945,269.45c0,.594-.41.829-.918.54a2.04,2.04,0,0,1-.918-1.6c0-.585.41-.82.918-.529a2.018,2.018,0,0,1,.918,1.586Z" transform="translate(-234.76 -137.203)" fill="#e6e7f5"/>
    <path id="Path_1038" data-name="Path 1038" d="M467.95,274.071c0,.594-.41.829-.918.529a2.039,2.039,0,0,1-.926-1.587c0-.594.421-.829.926-.529a2.018,2.018,0,0,1,.918,1.586Z" transform="translate(-238.857 -139.568)" fill="#e6e7f5"/>
    <path id="Path_1039" data-name="Path 1039" d="M451.921,324.853c0,.585-.41.821-.917.529a2.039,2.039,0,0,1-.926-1.6c0-.585.421-.821.926-.529A2.029,2.029,0,0,1,451.921,324.853Z" transform="translate(-230.643 -165.589)" fill="#e6e7f5"/>
    <path id="Path_1040" data-name="Path 1040" d="M459.945,329.464c0,.594-.41.829-.918.54a2.062,2.062,0,0,1-.918-1.6c0-.594.41-.829.918-.529A2.018,2.018,0,0,1,459.945,329.464Z" transform="translate(-234.76 -167.955)" fill="#e6e7f5"/>
    <path id="Path_1041" data-name="Path 1041" d="M467.95,334.087c0,.585-.41.821-.918.529a2.04,2.04,0,0,1-.926-1.587c0-.594.421-.829.926-.54A2.04,2.04,0,0,1,467.95,334.087Z" transform="translate(-238.857 -170.322)" fill="#e6e7f5"/>
    <path id="Path_1042" data-name="Path 1042" d="M451.921,383.991c0,.585-.41.821-.917.529a2.039,2.039,0,0,1-.926-1.6c0-.585.421-.82.926-.529A2.04,2.04,0,0,1,451.921,383.991Z" transform="translate(-230.643 -195.894)" fill="#e6e7f5"/>
    <path id="Path_1043" data-name="Path 1043" d="M459.945,388.615c0,.585-.41.82-.918.529a2.029,2.029,0,0,1-.918-1.6c0-.585.41-.821.918-.529A2.029,2.029,0,0,1,459.945,388.615Z" transform="translate(-234.76 -198.264)" fill="#e6e7f5"/>
    <path id="Path_1044" data-name="Path 1044" d="M467.95,393.225c0,.594-.41.829-.918.529a2.039,2.039,0,0,1-.926-1.587c0-.594.421-.829.926-.529a2.018,2.018,0,0,1,.918,1.586Z" transform="translate(-238.857 -200.629)" fill="#e6e7f5"/>
    <path id="Path_1045" data-name="Path 1045" d="M451.921,443.941c0,.585-.41.82-.917.529a2.039,2.039,0,0,1-.926-1.6c0-.585.421-.82.926-.529A2.029,2.029,0,0,1,451.921,443.941Z" transform="translate(-230.643 -226.616)" fill="#e6e7f5"/>
    <path id="Path_1046" data-name="Path 1046" d="M459.945,448.552c0,.594-.41.829-.918.54a2.062,2.062,0,0,1-.918-1.6c0-.594.41-.829.918-.529A2.018,2.018,0,0,1,459.945,448.552Z" transform="translate(-234.76 -228.982)" fill="#e6e7f5"/>
    <path id="Path_1047" data-name="Path 1047" d="M467.95,453.176c0,.585-.41.82-.918.529a2.039,2.039,0,0,1-.926-1.587c0-.594.421-.829.926-.54a2.061,2.061,0,0,1,.918,1.6Z" transform="translate(-238.857 -231.349)" fill="#e6e7f5"/>
    <path id="Path_1048" data-name="Path 1048" d="M510.824,302.447v-130l.27-.162,54.337-31.367V270.928l-.27.151ZM511.9,173.058V300.579l52.448-30.223V142.781Z" transform="translate(-261.773 -72.212)" fill="#e62c2b"/>
    <path id="Path_1049" data-name="Path 1049" d="M565.156,238.038,540.8,252.071c-1.63.95-2.957-.054-2.957-2.234V236.365A7.114,7.114,0,0,1,540.8,230.7l24.362-14.032c1.641-.95,2.968,0,2.968,2.234v13.482a7.069,7.069,0,0,1-2.968,5.656Z" transform="translate(-275.617 -110.843)" fill="#e62c2b"/>
    <path id="Path_1050" data-name="Path 1050" d="M565.974,216.354a3.869,3.869,0,0,1,.227,1.328V231.2a7.069,7.069,0,0,1-2.968,5.656l-24.362,14.032a2.543,2.543,0,0,1-.594.259,1.716,1.716,0,0,0,2.742.885L565.381,238a7.068,7.068,0,0,0,2.979-5.635V218.847C568.36,216.937,567.334,215.933,565.974,216.354Z" transform="translate(-275.842 -110.822)" fill="#dadada"/>
    <path id="Path_1051" data-name="Path 1051" d="M583.89,244.1a.507.507,0,0,1,.821.464v3.076a1.792,1.792,0,0,1-.821,1.414.5.5,0,0,1-.81-.464v-3.076a1.781,1.781,0,0,1,.809-1.414Z" transform="translate(-298.798 -125.031)" fill="#e6e7f5"/>
    <path id="Path_1052" data-name="Path 1052" d="M576.718,249.014a.509.509,0,0,1,.821.475v2.688a1.793,1.793,0,0,1-.821,1.414.5.5,0,0,1-.809-.464v-2.7A1.824,1.824,0,0,1,576.718,249.014Z" transform="translate(-295.123 -127.551)" fill="#e6e7f5"/>
    <path id="Path_1053" data-name="Path 1053" d="M569.557,247c.443-.259.809-.054.809.475v5.688a1.824,1.824,0,0,1-.809,1.414.507.507,0,0,1-.82-.464v-5.7a1.8,1.8,0,0,1,.82-1.414Z" transform="translate(-291.448 -126.518)" fill="#e6e7f5"/>
    <path id="Path_1054" data-name="Path 1054" d="M562.382,244.409a.5.5,0,0,1,.809.464v8.981a1.793,1.793,0,0,1-.809,1.414.509.509,0,0,1-.82-.475v-8.971a1.792,1.792,0,0,1,.82-1.414Z" transform="translate(-287.771 -125.191)" fill="#e6e7f5"/>
    <path id="Path_1055" data-name="Path 1055" d="M555.227,250.475a.509.509,0,0,1,.821.475v8.031a1.8,1.8,0,0,1-.821,1.414c-.453.259-.809.054-.809-.475v-8.03A1.792,1.792,0,0,1,555.227,250.475Z" transform="translate(-284.113 -128.3)" fill="#e6e7f5"/>
    <path id="Path_1056" data-name="Path 1056" d="M548.045,262.143a.509.509,0,0,1,.821.475v4.318a1.8,1.8,0,0,1-.821,1.414.5.5,0,0,1-.809-.475v-4.318A1.824,1.824,0,0,1,548.045,262.143Z" transform="translate(-280.429 -134.279)" fill="#e6e7f5"/>
    <path id="Path_1057" data-name="Path 1057" d="M583.109,239.45c0,.508.356.712.8.464a1.791,1.791,0,0,0,.8-1.392c0-.508-.356-.723-.8-.464A1.771,1.771,0,0,0,583.109,239.45Z" transform="translate(-298.816 -121.937)" fill="#e6e7f5"/>
    <ellipse id="Ellipse_48" data-name="Ellipse 48" cx="1.134" cy="0.659" rx="1.134" ry="0.659" transform="translate(283.946 114.802) rotate(-60)" fill="#e6e7f5"/>
    <rect id="Rectangle_146" data-name="Rectangle 146" width="3.713" height="71.921" transform="translate(374.111 44.836)" fill="#e6e7f5"/>
    <path id="Path_1058" data-name="Path 1058" d="M441.866,658.412,404.618,636.9c-2.289-1.316-2-3.627.647-5.149l35.966-20.77c2.644-1.522,6.638-1.684,8.916-.367l37.261,21.513c2.277,1.316,2,3.627-.647,5.149l-35.966,20.77C448.138,659.567,444.144,659.729,441.866,658.412Z" transform="translate(-206.556 -312.455)" fill="#c6c6c6"/>
    <path id="Path_1059" data-name="Path 1059" d="M443.516,635.084a9.921,9.921,0,0,1-4.944-1.187h0l-37.261-21.5a4.76,4.76,0,0,1-2.6-4.07,5.7,5.7,0,0,1,3.238-4.749l35.977-20.735c3.325-1.922,8.074-2.083,11.032-.367l37.261,21.5a4.76,4.76,0,0,1,2.6,4.07,5.7,5.7,0,0,1-3.238,4.749L449.6,633.573A12.491,12.491,0,0,1,443.516,635.084Zm-2.806-4.847c1.651.95,4.827.777,6.811-.367l35.966-20.77c.907-.529,1.079-1,1.079-1.079a1.681,1.681,0,0,0-.488-.4l-37.238-21.541c-1.641-.939-4.814-.777-6.8.378l-35.966,20.769a2.465,2.465,0,0,0-1.134,1.08,1.516,1.516,0,0,0,.488.4Z" transform="translate(-204.32 -297.882)" fill="#e62c2b"/>
    <path id="Path_1060" data-name="Path 1060" d="M488.927,588.591h0V575.746H460.1l-9.963-5.753c-2.277-1.316-6.271-1.155-8.916.367l-9.294,5.395H403.071v13.223a2.59,2.59,0,0,0,1.533,2.385l37.261,21.448c2.289,1.316,6.282,1.155,8.927-.367l35.955-20.735C488.279,590.793,489,589.66,488.927,588.591Z" transform="translate(-206.555 -291.638)" fill="#e6e7f5"/>
    <path id="Path_1061" data-name="Path 1061" d="M446,568.98a10.36,10.36,0,0,0-4.782,1.252l-9.294,5.4H403.071v13.223a2.59,2.59,0,0,0,1.533,2.385l37.261,21.513a8.139,8.139,0,0,0,4.144.885Z" transform="translate(-206.555 -291.575)" fill="url(#radial-gradient-2)"/>
    <path id="Path_1062" data-name="Path 1062" d="M406.375,582.618h-3.238v13.223a2.591,2.591,0,0,0,1.533,2.386l1.738,1Z" transform="translate(-206.589 -298.564)" fill="#e6e7f5"/>
    <path id="Path_1063" data-name="Path 1063" d="M483.814,643.471a10.136,10.136,0,0,0,7.124-.086v-15h-7.124Z" transform="translate(-247.932 -322.015)" fill="#dadada"/>
    <path id="Path_1064" data-name="Path 1064" d="M441.866,580.566l-37.249-21.513c-2.289-1.316-2-3.627.647-5.148l35.966-20.77c2.644-1.522,6.638-1.695,8.916-.367L487.4,554.281c2.277,1.316,2,3.627-.648,5.148l-35.966,20.757C448.138,581.711,444.144,581.883,441.866,580.566Z" transform="translate(-206.556 -272.56)" fill="url(#linear-gradient-8)"/>
    <path id="Path_1065" data-name="Path 1065" d="M486.8,581.5l-35.966,20.77c-2.644,1.522-6.638,1.684-8.927.367l-37.249-21.5a3.509,3.509,0,0,1-1.079-1.015c-.788,1.263-.432,2.633,1.079,3.541l37.261,21.512c2.289,1.316,6.282,1.144,8.927-.378l35.966-20.769c2.051-1.176,2.677-2.839,1.781-4.134A4.951,4.951,0,0,1,486.8,581.5Z" transform="translate(-206.606 -297.17)" fill="#e6e7f5"/>
    <path id="Path_1066" data-name="Path 1066" d="M547.886,614.912a3.3,3.3,0,0,1-1.5,2.6c-.829.488-1.511.086-1.511-.863a3.346,3.346,0,0,1,1.511-2.612C547.216,613.553,547.886,613.952,547.886,614.912Z" transform="translate(-279.222 -314.56)" fill="#e6e7f5"/>
    <path id="Path_1067" data-name="Path 1067" d="M557.827,609.183a3.315,3.315,0,0,1-1.511,2.6c-.829.487-1.5.1-1.5-.863a3.336,3.336,0,0,1,1.5-2.612C557.146,607.834,557.827,608.223,557.827,609.183Z" transform="translate(-284.316 -311.626)" fill="#e6e7f5"/>
    <path id="Path_1068" data-name="Path 1068" d="M567.746,603.449a3.3,3.3,0,0,1-1.5,2.6c-.829.488-1.512.1-1.512-.864a3.346,3.346,0,0,1,1.512-2.612C567.076,602.1,567.746,602.489,567.746,603.449Z" transform="translate(-289.4 -308.688)" fill="#e6e7f5"/>
    <path id="Path_1069" data-name="Path 1069" d="M467.98,580.462,450.548,570.4c-1.079-.615-.939-1.695.292-2.418l16.836-9.714a4.631,4.631,0,0,1,4.167-.173l17.434,10.07c1.079.615.939,1.695-.293,2.407l-16.837,9.715A4.631,4.631,0,0,1,467.98,580.462Z" transform="translate(-230.512 -285.787)" fill="#dadada"/>
    <path id="Path_1070" data-name="Path 1070" d="M487.926,583.792l-2.407-1.393c-.151-.075-.13-.227,0-.324l2.321-1.349a.656.656,0,0,1,.585,0l2.407,1.392c.151.086.13.237,0,.334l-2.324,1.338a.66.66,0,0,1-.585,0Z" transform="translate(-248.752 -297.56)" fill="#e6e7f5"/>
    <path id="Path_1071" data-name="Path 1071" d="M450.62,570.358h0l.248-.173,16.839-9.715a4.631,4.631,0,0,1,4.167-.173l17.389,10.039c.982-.712,1.079-1.673,0-2.234l-17.432-10.071a4.631,4.631,0,0,0-4.167.173l-16.839,9.715C449.659,568.663,449.541,569.742,450.62,570.358Z" transform="translate(-230.54 -285.753)" fill="#e6e7f5"/>
    <path id="Path_1072" data-name="Path 1072" d="M721.9,463.764l-37.207-21.5c-2.289-1.328-2.008-3.627.637-5.149l35.966-20.77c2.644-1.533,6.639-1.695,8.927-.378l37.249,21.513c2.289,1.316,2,3.627-.637,5.149L730.861,463.4C728.186,464.919,724.192,465.081,721.9,463.764Z" transform="translate(-350.082 -212.708)" fill="#c6c6c6"/>
    <path id="Path_1073" data-name="Path 1073" d="M723.559,440.4a9.95,9.95,0,0,1-4.955-1.187h0l-37.229-21.5a4.73,4.73,0,0,1-2.6-4.07,5.711,5.711,0,0,1,3.238-4.749l35.965-20.768c3.335-1.921,8.074-2.083,11.042-.367l37.249,21.512a4.73,4.73,0,0,1,2.6,4.07,5.7,5.7,0,0,1-3.238,4.738l-36,20.725a12.3,12.3,0,0,1-6.077,1.6Zm-2.839-4.835c1.641.95,4.814.777,6.8-.367L763.5,414.431c.9-.529,1.079-.993,1.079-1.079a1.22,1.22,0,0,0-.488-.41l-37.249-21.5c-1.641-.95-4.827-.777-6.8.367l-35.977,20.77c-.907.518-1.079.993-1.079,1.079a1.249,1.249,0,0,0,.488.4Z" transform="translate(-347.84 -198.101)" fill="#e62c2b"/>
    <path id="Path_1074" data-name="Path 1074" d="M768.936,393.953h0V381.1H740.115l-9.963-5.753c-2.288-1.316-6.282-1.155-8.927.378l-9.291,5.395H683.091v13.223a2.568,2.568,0,0,0,1.576,2.31l37.248,21.513c2.289,1.316,6.282,1.155,8.916-.367l35.977-20.769C768.288,396.144,769.022,395.011,768.936,393.953Z" transform="translate(-350.052 -191.89)" fill="#e6e7f5"/>
    <path id="Path_1075" data-name="Path 1075" d="M726.008,374.441a10.1,10.1,0,0,0-4.782,1.252l-9.292,5.4H683.091v13.223a2.569,2.569,0,0,0,1.576,2.331l37.248,21.513a8.092,8.092,0,0,0,4.134.885Z" transform="translate(-350.052 -191.883)" fill="url(#radial-gradient-3)"/>
    <path id="Path_1076" data-name="Path 1076" d="M686.372,387.99h-3.237v13.223a2.569,2.569,0,0,0,1.554,2.375l1.727,1Z" transform="translate(-350.074 -198.826)" fill="#e6e7f5"/>
    <path id="Path_1077" data-name="Path 1077" d="M763.812,448.82a10.155,10.155,0,0,0,7.135-.086v-15h-7.135Z" transform="translate(-391.418 -222.266)" fill="#dadada"/>
    <path id="Path_1078" data-name="Path 1078" d="M721.9,385.92,684.7,364.408c-2.289-1.316-2.008-3.627.637-5.149L721.3,338.489c2.644-1.522,6.639-1.684,8.927-.367l37.249,21.5c2.289,1.328,2,3.627-.637,5.16l-35.974,20.76C728.186,387.075,724.192,387.237,721.9,385.92Z" transform="translate(-350.082 -172.815)" fill="url(#linear-gradient-9)"/>
    <path id="Path_1079" data-name="Path 1079" d="M766.8,386.857l-35.977,20.77c-2.633,1.522-6.628,1.695-8.916.367l-37.207-21.5a3.325,3.325,0,0,1-1.144-1.015c-.788,1.263-.432,2.633,1.144,3.541l37.249,21.513c2.289,1.316,6.282,1.155,8.916-.378L766.837,389.4c2.051-1.187,2.666-2.839,1.781-4.144a5.039,5.039,0,0,1-1.824,1.609Z" transform="translate(-350.081 -197.424)" fill="#e6e7f5"/>
    <path id="Path_1080" data-name="Path 1080" d="M827.9,420.267a3.3,3.3,0,0,1-1.5,2.6c-.829.488-1.5.1-1.5-.863a3.336,3.336,0,0,1,1.5-2.612C827.226,418.918,827.9,419.307,827.9,420.267Z" transform="translate(-422.72 -214.815)" fill="#e6e7f5"/>
    <path id="Path_1081" data-name="Path 1081" d="M837.825,414.533a3.3,3.3,0,0,1-1.5,2.6c-.829.488-1.511.1-1.511-.863a3.345,3.345,0,0,1,1.511-2.612C837.155,413.184,837.825,413.573,837.825,414.533Z" transform="translate(-427.802 -211.877)" fill="#e6e7f5"/>
    <path id="Path_1082" data-name="Path 1082" d="M847.755,408.8a3.3,3.3,0,0,1-1.5,2.6c-.829.488-1.5.1-1.5-.863a3.3,3.3,0,0,1,1.5-2.6C847.086,407.455,847.755,407.845,847.755,408.8Z" transform="translate(-432.897 -208.943)" fill="#e6e7f5"/>
    <path id="Path_1083" data-name="Path 1083" d="M748.068,385.8l-17.432-10.06c-1.079-.615-.939-1.695.3-2.407l16.828-9.715a4.653,4.653,0,0,1,4.177-.173l17.432,10.071c1.079.615.939,1.695-.3,2.407l-16.828,9.715a4.62,4.62,0,0,1-4.177.162Z" transform="translate(-374.044 -186.037)" fill="#dadada"/>
    <path id="Path_1084" data-name="Path 1084" d="M767.937,389.181l-2.418-1.371c-.151-.086-.13-.237,0-.334l2.331-1.349a.638.638,0,0,1,.572,0l2.418,1.392a.189.189,0,0,1,.08.255.191.191,0,0,1-.08.08l-2.331,1.338A.6.6,0,0,1,767.937,389.181Z" transform="translate(-392.238 -197.837)" fill="#e6e7f5"/>
    <path id="Path_1085" data-name="Path 1085" d="M730.64,375.707h.054a1.462,1.462,0,0,1,.248-.173l16.828-9.714a4.653,4.653,0,0,1,4.177-.173l17.379,10.039c.993-.7,1.079-1.662.054-2.234l-17.432-10.071a4.652,4.652,0,0,0-4.177.173l-16.828,9.715C729.7,374.012,729.572,375.092,730.64,375.707Z" transform="translate(-374.048 -186.004)" fill="#e6e7f5"/>
    <path id="Path_1086" data-name="Path 1086" d="M161.849,463.764l-37.272-21.5c-2.277-1.328-2-3.627.647-5.149l35.966-20.77c2.644-1.533,6.638-1.695,8.926-.378l37.249,21.513c2.289,1.316,2,3.627-.647,5.149L170.763,463.4C168.121,464.919,164.127,465.081,161.849,463.764Z" transform="translate(-63.051 -212.708)" fill="#c6c6c6"/>
    <path id="Path_1087" data-name="Path 1087" d="M163.483,440.4a9.94,9.94,0,0,1-4.944-1.187h0l-37.293-21.5a4.749,4.749,0,0,1-2.6-4.07,5.721,5.721,0,0,1,3.238-4.749l36.063-20.768c3.335-1.921,8.074-2.083,11.042-.367l37.249,21.512a4.73,4.73,0,0,1,2.6,4.07,5.7,5.7,0,0,1-3.238,4.738l-36.03,20.725a12.317,12.317,0,0,1-6.088,1.6Zm-2.828-4.835c1.641.95,4.814.777,6.8-.367l35.966-20.769a2.529,2.529,0,0,0,1.134-1.079,1.327,1.327,0,0,0-.488-.41l-37.249-21.513c-1.651-.95-4.827-.777-6.811.367l-35.966,20.769a2.465,2.465,0,0,0-1.134,1.079,1.515,1.515,0,0,0,.488.4Z" transform="translate(-60.799 -198.101)" fill="#e62c2b"/>
    <path id="Path_1088" data-name="Path 1088" d="M208.94,393.953h0V381.1H180.12l-9.963-5.753c-2.289-1.316-6.282-1.155-8.926.378l-9.294,5.395H123.095v13.223a2.569,2.569,0,0,0,1.511,2.31l37.261,21.513c2.277,1.316,6.271,1.155,8.916-.367l35.966-20.769C208.292,396.144,209.026,395.011,208.94,393.953Z" transform="translate(-63.08 -191.89)" fill="#e6e7f5"/>
    <path id="Path_1089" data-name="Path 1089" d="M166.012,374.441a10.1,10.1,0,0,0-4.782,1.252l-9.294,5.4H123.095v13.223a2.568,2.568,0,0,0,1.511,2.331l37.261,21.513a8.076,8.076,0,0,0,4.134.885Z" transform="translate(-63.08 -191.883)" fill="url(#radial-gradient-4)"/>
    <path id="Path_1090" data-name="Path 1090" d="M126.377,387.99h-3.238v13.223a2.569,2.569,0,0,0,1.489,2.375l1.738,1Z" transform="translate(-63.103 -198.826)" fill="#e6e7f5"/>
    <path id="Path_1091" data-name="Path 1091" d="M203.816,448.82a10.137,10.137,0,0,0,7.124-.086v-15h-7.124Z" transform="translate(-104.446 -222.266)" fill="#dadada"/>
    <path id="Path_1092" data-name="Path 1092" d="M161.849,385.92l-37.272-21.513c-2.277-1.316-2-3.627.647-5.149l35.966-20.769c2.644-1.522,6.638-1.684,8.926-.367l37.249,21.5c2.289,1.328,2,3.627-.647,5.16l-35.953,20.76C168.121,387.075,164.127,387.237,161.849,385.92Z" transform="translate(-63.051 -172.815)" fill="url(#linear-gradient-10)"/>
    <path id="Path_1093" data-name="Path 1093" d="M206.787,386.854l-35.966,20.769c-2.644,1.522-6.638,1.695-8.916.367l-37.272-21.5a3.4,3.4,0,0,1-1.079-1.015c-.788,1.263-.432,2.633,1.079,3.541l37.263,21.51c2.277,1.316,6.271,1.155,8.916-.378l35.966-20.757c2.051-1.187,2.677-2.839,1.781-4.144a4.856,4.856,0,0,1-1.77,1.609Z" transform="translate(-63.107 -197.421)" fill="#e6e7f5"/>
    <path id="Path_1094" data-name="Path 1094" d="M267.889,420.267a3.3,3.3,0,0,1-1.5,2.6c-.829.488-1.511.1-1.511-.863a3.345,3.345,0,0,1,1.511-2.612C267.219,418.918,267.889,419.307,267.889,420.267Z" transform="translate(-135.737 -214.815)" fill="#e6e7f5"/>
    <path id="Path_1095" data-name="Path 1095" d="M277.829,414.533a3.315,3.315,0,0,1-1.511,2.6c-.829.488-1.5.1-1.5-.863a3.335,3.335,0,0,1,1.5-2.612C277.148,413.184,277.829,413.573,277.829,414.533Z" transform="translate(-140.831 -211.877)" fill="#e6e7f5"/>
    <path id="Path_1096" data-name="Path 1096" d="M287.748,408.8a3.3,3.3,0,0,1-1.5,2.6c-.829.488-1.511.1-1.511-.863a3.315,3.315,0,0,1,1.511-2.6C287.078,407.455,287.748,407.845,287.748,408.8Z" transform="translate(-145.914 -208.943)" fill="#e6e7f5"/>
    <path id="Path_1097" data-name="Path 1097" d="M188.071,385.8l-17.432-10.06c-1.079-.615-.939-1.695.292-2.407l16.839-9.715a4.652,4.652,0,0,1,4.177-.173l17.432,10.071c1.079.615.926,1.695-.3,2.407l-16.84,9.715A4.6,4.6,0,0,1,188.071,385.8Z" transform="translate(-87.071 -186.037)" fill="#dadada"/>
    <path id="Path_1098" data-name="Path 1098" d="M207.929,389.18l-2.407-1.371c-.151-.086-.13-.237,0-.334l2.321-1.349a.66.66,0,0,1,.585,0l2.407,1.392c.151.086.13.237,0,.334l-2.334,1.336a.627.627,0,0,1-.572-.011Z" transform="translate(-105.266 -197.836)" fill="#e6e7f5"/>
    <path id="Path_1099" data-name="Path 1099" d="M170.633,375.707h0l.248-.173,16.839-9.714a4.653,4.653,0,0,1,4.177-.173l17.379,10.039c.982-.7,1.079-1.662,0-2.234l-17.432-10.071a4.652,4.652,0,0,0-4.177.173l-16.839,9.714C169.694,374.012,169.564,375.092,170.633,375.707Z" transform="translate(-87.066 -186.004)" fill="#e6e7f5"/>
  </g>
</svg>
