<svg id="Layer_1" data-name="Layer 1" xmlns="http://www.w3.org/2000/svg" viewBox="0 0 1080 1080"><defs><style>.cls-1{fill:#e5e4e4;}.cls-2{fill:#171930;}.cls-3{fill:#fde4c4;}.cls-4{fill:#edcdab;}.cls-5{fill:#fff;}.cls-6{fill:#e84242;}.cls-7{fill:#e62c2b;}.cls-8{fill:#b4b7bc;}.cls-9{fill:#fbcdac;}.cls-10{fill:#efefef;}.cls-11{fill:#975128;}.cls-12{fill:#ea5141;}.cls-13{fill:#d35a50;}.cls-14{fill:#ee7360;}.cls-15{fill:#c8e6eb;}.cls-16{fill:#def0f2;}.cls-17{fill:#a2d7da;}.cls-18{fill:#f7b8af;}.cls-19{fill:#f2948d;}.cls-20{fill:#ffdc8d;}.cls-21{fill:#bde1e4;}.cls-22{fill:#9e693e;}.cls-23{fill:#855531;}.cls-24{fill:#cbe8ef;}</style></defs><path class="cls-1" d="M832.55,853.8c52-30.15,51.85-105.3-.29-135.23L817,709.78a215.74,215.74,0,0,0-215.6.47L329.84,867.73c-52,30.15-51.83,105.29.3,135.21l15.21,8.73a215.73,215.73,0,0,0,215.57-.44Z"/><path class="cls-1" d="M893.1,584.65c2.26-50.88,34.63-76.82,62.7-119.32,70.79-107.19,14.16-256.85-80.9-271C778.13,179.91,834,38.37,674.53,17.21,443.31-13.46,305.79,128.1,270.06,285.72c-24.63,108.65-6.85,130.19-80.51,186.8C31,594.35,142.63,841.15,280.55,867.38c172.79,32.85,84.09,21.51,252.22-22.62,111-29.13,212.69,25.06,295.61-47.75S890.84,635.7,893.1,584.65Z"/><path class="cls-2" d="M752.94,268.19C749,307.52,733.67,412.69,737.13,430c3.93,19.65,54.88,114.08,132.31,113.35,36.8-.35,60.75-29.35,60.75-61.44,0-24.77,1.39-81.23,2.09-111.44s1.18-104.11-24.76-124c-37.15-28.5-70.37-33.92-85.67-35.36C799.32,209,758.44,213.18,752.94,268.19Z"/><path class="cls-3" d="M775,230.39c-21.7,12.44-43.21,46.55-49.47,98.63l-48,60.15,25.6,12.8s47.12-45.37,54.1-56.42S775,230.39,775,230.39Z"/><path class="cls-4" d="M748.44,336c3.89-.64,6.79,4,10.21,6,6.93-21.39,16.3-111.58,16.3-111.58-20.7,11.87-41.22,43.47-48.5,91.58C728.87,327.15,743.26,336.86,748.44,336Z"/><path class="cls-5" d="M762.1,327.17c6.23-33,12.85-96.78,12.85-96.78-19.31,11.08-42.4,36.75-51.66,79C734.18,325.82,748.25,326.35,762.1,327.17Z"/><path class="cls-6" d="M805.05,230.74l68.58,38.36a29,29,0,0,1,14.82,25.06c.49,61.37-2.94,54.12-6.87,153.31a17.52,17.52,0,0,1-9.87,15.12c-11.23,5.38-31.41,12.72-54.79,10.58-22-2-62.49-24-85.94-45.78A19.45,19.45,0,0,1,724.82,412c1.73-28.67,24.4-52.84,22.51-128.61C747.33,271.77,762.61,209.8,805.05,230.74Z"/><ellipse class="cls-5" cx="818.18" cy="260.58" rx="26.78" ry="16.34"/><path class="cls-4" d="M804.43,265.91c10,5.91,19.54,4.58,28.81-1a9.64,9.64,0,0,0,4.69-8.21V209.76l-39.3,8.37v37.34A12.08,12.08,0,0,0,804.43,265.91Z"/><path class="cls-3" d="M802.28,259.05c9.38-1.11,21.93-10,31.65-18.23,2.14-1.79,17.3-19.43,17.3-29,0-23.22-18.87-37.17-38.39-37.17-12.2,0-24.84,1.84-31.37,12.13-2.51,4-2.81,15.46-2.52,21.72C779.11,212,781.25,261.53,802.28,259.05Z"/><path class="cls-2" d="M859.85,169.19c-12.19-25.27-43.31-27.09-65.77-15.86-17.79,8.9-53.12,25-15.47,53.39,17.24,13,52.45-11,52.45-11-4.41,4-3.57,16.26,4.33,23.39l10.05-7.73-2.56,12.15c-8.33,8.88-4.82,24.28-4.82,24.28,0-6.91,16.18-22.4,20.45-31.8C862.5,207.28,868.69,187.54,859.85,169.19Z"/><path class="cls-4" d="M835.31,219.6c0,6.64,1.24,12.15,5.38,12.15s9.07-8.82,9.07-15.46-1.26-9-5.4-9S835.31,213,835.31,219.6Z"/><path class="cls-3" d="M834.1,216.73c0,6.64,1.24,12.15,5.39,12.15s10.18-7.92,10.18-14.56-2.37-9.95-6.52-9.95S834.1,210.1,834.1,216.73Z"/><path class="cls-1" d="M484.79,856c6.53-3.86,7.76-11.23,3.34-14.2L428,810l-16.19,4.58c-5.16,3.19-2.19,11.2,1.38,14.1,10.46,8.48,35.9,23.47,35.9,23.47C467,862.57,477.11,860.5,484.79,856Z"/><path class="cls-5" d="M486.32,851.71c2.38-1.81,4.64-8.39.22-11.36l-57.06-34.62-17.67,8.82c-2.36,3-1.38,10.26,2.57,12.62,0,0,20,15,41.81,25.25C469.6,858.73,478.65,857.57,486.32,851.71Z"/><path class="cls-7" d="M487.44,841.11c-2.09-8.79-9.73-13.13-23-23-11.85-8.84-18.38-17.9-22-25.07a235.65,235.65,0,0,0-27.77,5.85c0,.28,0,.58,0,.86-.11,1.3-2.91,2.81-3,4.06-.64,8.2-.89,12.74,1.23,16.8,4.66,9,44.51,29.07,53.25,32.13S489.52,849.87,487.44,841.11Z"/><path class="cls-7" d="M420.92,809.43c3.66,1.83,6.66,3.13,6.44,0a43.6,43.6,0,0,1-.31-4.87c.53-3,2-4.24,4.95-4.94,5.34-1.29,8.12-1.22,13.29-1.59-6.84-10.71-7.36-18.78-7.36-18.78L412,768.63a173.58,173.58,0,0,1,1.23,35.91A68.48,68.48,0,0,0,420.92,809.43Z"/><path class="cls-1" d="M417.58,899.77c4.36-3.2,6.34-9.67,1.84-12.69l-58.22-31.3a1.75,1.75,0,0,0-1.65-.08l-15.82,2.78c-5.44,2.64-4.3,12.44.29,16.39,8.22,7.08,18.64,16.72,40.77,26.31C395.81,906,407.47,907.17,417.58,899.77Z"/><path class="cls-5" d="M417.58,897.33c4.69-2.7,5.3-8.81.81-11.83L361.2,850.8a1.75,1.75,0,0,0-1.65-.08L344.62,858c-5.45,2.64-5.19,10.52-.6,14.47,8.22,7.08,18.93,16.12,41.06,25.7C396.1,902.91,405.78,904.11,417.58,897.33Z"/><path class="cls-7" d="M419,888c-.44-2-4-8-11-13.8-3.88-3.22-8.42-6.69-13.25-10.06a72.55,72.55,0,0,1-22.06-25.27c-6.22,1.27-12.95,1.28-19.08,2.28-2.85.46-5.76.9-8.68,1.39,0,.26,0,.52,0,.78-.1,1.11-2.77,3-2.86,4-.71,8.75-1,15,1.24,19.27,4.65,8.93,39,28.82,47.92,31.27C404.9,901.68,421,896.78,419,888Z"/><path class="cls-7" d="M343.88,849.25c4.32,2.64,7.31,5.58,12.54,6.63.09-3.58-2-4.45.14-8,3.12-5.29,15.07-7.59,18.31-5.33a91.75,91.75,0,0,1-12-32.73l-20.28,5A162.71,162.71,0,0,1,343.88,849.25Z"/><polygon class="cls-2" points="402.59 550.53 459.49 436.2 355.8 454.28 402.59 550.53"/><path class="cls-8" d="M403.16,438.64c-7.91,25.5,1.28,193.47,4.16,222.56s37.57-16.72,47.21-29.66,19.28-133.93,12.83-184.07C461.22,399.74,416.94,394.2,403.16,438.64Z"/><path class="cls-1" d="M447,484.27s-.74-52.59-1.74-73.7c-15.27-6.94-34,1.87-42.11,28.07-5.41,17.43-2.9,114.55,1.19,175.47,2.11-23,3.34-31.62,7.43-37.47A111,111,0,0,0,429,536.22S432.86,491.77,447,484.27Z"/><path class="cls-8" d="M465.74,560.55s-23,166-22.69,217.63c-9.8,7.58-27.45,8.3-32.76,3.18-1.64-15.39-8.13-102.58-4.23-125.19,5.1-29.59,15.7-60.33,15.7-60.33Z"/><path class="cls-8" d="M384.13,617.58C372.56,792.45,367.21,783.1,372,819.18c-6.21,13.2-30.77,9.07-36.77,2.75-1.48-1.56-12.18-113.8-7.24-135.08C333.18,664.52,351,636,351,636Z"/><path class="cls-8" d="M338.69,456.36c-9.54,24.94-13,205.8-12,235s49,6.44,51.22-9.54c14.66-103.67,41.89-159.6,33.47-207S355.31,412.9,338.69,456.36Z"/><path class="cls-8" d="M406.75,545.74,418,538.09a22.36,22.36,0,0,0,9.23-13.5l2.49-12A22.9,22.9,0,0,0,420.18,489l-10.12-6.85Z"/><path class="cls-9" d="M512.58,328.88,457.33,215.17c-18.71-28.15-48.53,17.33-27.66,43,19.81,33.94,39.6,63.79,69.51,97.22C505.7,342.61,504.21,340.67,512.58,328.88Z"/><path class="cls-9" d="M590.7,281.82l-88.53,37.69c-3,13.89-3.13,20.08-4,34.18l2.73,1.27c28.46-9.8,64.53-33.95,101.64-60.06Z"/><path class="cls-1" d="M334.24,438.35c.43,14.46,1,30.32,1.65,48.06,0,0,26.28,19.11,59.55,15.82,22.32-2.21,50.39-10.75,73.42-37.91,0,0-7.7-9.18-8.51-25.33Z"/><path class="cls-2" d="M424.15,253.18l18.4,26a117,117,0,0,1,11.28-8.52c8.47-5.55,17.15-11,25.88-16.33a21.62,21.62,0,0,1,1.38-1.72l-26.33-42.46c-2.31-4-3.4.77-6,4.55C440.1,227.23,432.47,240.45,424.15,253.18Z"/><path class="cls-5" d="M439.72,280.28l5.27,7.85a2.92,2.92,0,0,0,3.38.41c6.47-3.08,26.55-13.67,38.6-31.73a2.45,2.45,0,0,0-.1-3.07L482.19,246c-1.07-1.17-3.19-1-4.49.33-5.91,6.11-21.66,21.61-36.81,29.71C439.13,277,438.57,279.07,439.72,280.28Z"/><path class="cls-2" d="M410.94,194.82c-45.28,12.19-70.05,43-79.82,58.07a38.22,38.22,0,0,0-5.9,16.89c-8.42,81.79,3.71,146.78,4.94,197.69a17.38,17.38,0,0,0,9.89,15.15c11.25,5.39,31.47,12.74,54.89,10.6a133.66,133.66,0,0,0,35.51-8c2.92-1.11,11.74-5.22,13.21-6a113.52,113.52,0,0,0,23.73-16.89c4.35-4,.24-10-.12-15.88-1.73-28.73-2.9-111.79-1-187.7C466.26,247.09,464.58,180.37,410.94,194.82Z"/><path class="cls-9" d="M587.29,285.53s17.06-17.18,24.43-19.81c5.19-1.85,19-7.8,23.47-2.05,4.17,5.34,5.29,27.73-2.18,33.64-6.35,5-34.91-.16-34.91-.16Z"/><path class="cls-1" d="M374.24,496.52s-6.54,32.72-36.29,44l5.47-4.9a34.58,34.58,0,0,0,11.49-26.39l-.3-16.3Z"/><path class="cls-10" d="M372.38,817.17c-10.23,8-27.23,7.8-36.8,3.56a2.71,2.71,0,0,0-3.8,2.22c-1.25,14.07,1.76,26.16,2.23,26.65,7.56,8,35.58,8.27,43.41-8.35-1.15-8.68-1.84-15.65-2.1-22.78A1.79,1.79,0,0,0,372.38,817.17Z"/><path class="cls-8" d="M443.24,759.26c-9.69,8-25.8,7.8-34.87,3.56a2.57,2.57,0,0,0-3.6,2.22c-1.18,14.07,1.67,26.16,2.11,26.66C414,799.65,440.6,800,448,783.34c-1.1-8.68-1.75-15.65-2-22.78A1.69,1.69,0,0,0,443.24,759.26Z"/><path class="cls-4" d="M412.16,225.85c-10.35,6.12-20.23,4.75-29.83-1a9.93,9.93,0,0,1-4.86-8.49v-48.6l40.7,8.67V215A12.5,12.5,0,0,1,412.16,225.85Z"/><path class="cls-3" d="M423,208.84c-9.77.17-24.14-9.71-34.21-18.2-2.21-1.87-.72-17.67-3.07-19.53-9.11-7.18-22-.62-22-10.49,0-24.05,19.54-38.49,39.75-38.49,12.64,0,25.72,1.91,32.49,12.56,2.6,4.11,5.52,13.88,5.22,20.36C441,158.67,437.26,208.59,423,208.84Z"/><path class="cls-11" d="M397.83,146s6.44,9.88,18.19,9.88c34.31,0,44.19-27.55,35.35-40.55-9.83-14.44-18.51-2.86-29.63-8.31C407.16,99.84,371,93.92,358.38,120.1c-9.16,19-6.35,35.78-2.22,44.85,4.42,9.73,21.18,25.77,21.18,32.93l4.4-14.22.55-14,7.43-1.92h0a9.93,9.93,0,0,0,7.87-9.51Z"/><path class="cls-4" d="M393.81,168.08c0,6.91-1.35,12.65-5.83,12.65s-9.8-9.19-9.8-16.1,1.36-9.43,5.84-9.43S393.81,161.16,393.81,168.08Z"/><path class="cls-3" d="M395.11,165.09c0,6.91-1.34,12.66-5.82,12.66s-11-8.26-11-15.17,2.57-10.36,7.05-10.36S395.11,158.18,395.11,165.09Z"/><polygon class="cls-7" points="608.27 478.75 594.29 471.06 594.29 741.55 608.27 749.24 608.27 478.75"/><polygon class="cls-1" points="608.27 478.75 622.11 471.06 622.11 741.44 608.27 749.24 608.27 478.75"/><polygon class="cls-7" points="795.11 585.68 780.88 577.99 780.88 848.47 795.11 856.16 795.11 585.68"/><polygon class="cls-1" points="795.11 585.68 808.71 577.99 808.71 848.36 795.11 856.16 795.11 585.68"/><polygon class="cls-7" points="295.81 657.12 281.82 649.43 281.82 919.92 295.81 927.61 295.81 657.12"/><polygon class="cls-1" points="295.81 657.12 309.65 649.43 309.65 919.8 295.81 927.61 295.81 657.12"/><polygon class="cls-7" points="482.65 764.05 468.42 756.36 468.42 1026.84 482.65 1034.53 482.65 764.05"/><polygon class="cls-1" points="482.65 764.05 496.24 756.36 496.24 1026.73 482.65 1034.53 482.65 764.05"/><path class="cls-1" d="M832.55,574.35c52-30.14,51.85-105.3-.29-135.22L817,430.34a215.74,215.74,0,0,0-215.6.47L275.11,614.09c-52,30.15-51.83,105.29.3,135.22L290.62,758a215.71,215.71,0,0,0,215.57-.45Z"/><path class="cls-5" d="M832.55,557.58c52-30.14,51.85-105.3-.29-135.22L817,413.56a215.71,215.71,0,0,0-215.6.48L297,589.93c-52,30.15-73.7,112.68-21.57,142.6l15.21,8.73a215.73,215.73,0,0,0,215.57-.44Z"/><path class="cls-7" d="M939.66,429.1c8.68-4.47,19.74-8.3,14.21-16.63-5.18-7.8-18.36-11.08-30.84-9.35-14.95,2.07-70.6,41.05-76.49,48.33s-4.16,17,2.08,20.79,13.16,3.46,21.13,0S928.23,435,939.66,429.1Z"/><path class="cls-2" d="M939.66,423.4c8.68-4.47,19.74-8.3,14.21-16.63-5.18-7.8-18.36-11.09-30.84-9.35-14.95,2.07-70.6,41.05-76.49,48.33s-4.16,17,2.08,20.79,13.16,3.46,21.13,0S928.23,429.29,939.66,423.4Z"/><path class="cls-3" d="M684.38,380.75l-35.82,30.51,4.31,14.93s61-29.19,73.64-47.43Z"/><polygon class="cls-1" points="775.92 514.08 658.17 448.06 841.97 468.9 841.92 474.35 775.92 514.08"/><polygon class="cls-7" points="775.92 508.6 658.17 442.58 724.17 402.86 841.92 468.87 775.92 508.6"/><path class="cls-3" d="M857.79,357c1.41,22.65,5.42,47.25,10.32,56.07l34.33,6.72c1.82-22.58-1.26-49.42-2.48-67.06Z"/><path class="cls-4" d="M901.32,370c-.5-6.33-1-12.21-1.36-17.32L857.79,357c.27,4.32.63,8.71,1.08,13C874.53,375.48,889.12,377,901.32,370Z"/><path class="cls-3" d="M781.71,435.11s-19.75-8.51-22.53-8.65a8.24,8.24,0,0,0-5.15,1.93s-.83.56.28,1.12,8.08,3.62,8.08,3.62c-.8,4.25-17.27.7-17.27.7s4.32,17.69,5.85,19.36,13.64,2.78,16.62,2.1C777,453.13,781,452.5,781,452.5Z"/><path class="cls-3" d="M879.77,397.12s-87.26,37.55-103.85,39.17c-4.34,5.95-3.06,9.61.56,16,0,0,77.69,5.24,125.72-32.77Z"/><polygon class="cls-1" points="779.21 510.25 775.98 514.05 629.94 361.43 633.21 357.37 750.95 423.39 779.21 510.25"/><polygon class="cls-7" points="775.92 514.08 658.17 448.06 629.92 361.21 747.66 427.22 775.92 514.08"/><path class="cls-3" d="M638.28,396.67s11.93,2.11,16.14,8.42a17.85,17.85,0,0,1,1.78,3.55c2.93,7.72.87,16.47-4.6,22.66l-2.54,2.88s-7.27-5.22-9.37-10.84S633.37,396,638.28,396.67Z"/><path class="cls-5" d="M855.52,359.12c16.16,8.66,32,8.36,47.51,0a324.27,324.27,0,0,0-12.57-68.83c-3.57-12.36-15.55-15.25-27.08-9.54h0A17.34,17.34,0,0,0,854,299.28S853.7,329.31,855.52,359.12Z"/><path class="cls-5" d="M856,357.31c27,14.47,42.8,2.54,47.51,0"/><path class="cls-3" d="M709.77,588s-72.5-36.28-86.9-42.28L614,558s38.15,37.43,90.8,59.55Z"/><path class="cls-12" d="M718.82,560.4c-3.39,13.55-9.35,17-17.43,13.68C680.17,565.4,654.62,553.19,635,549a6.3,6.3,0,0,0-4.47.75c-5.45,3.19-9.65,7.71-11.33,12.78a7.51,7.51,0,0,0,1.87,7.62c10.13,10.27,47.74,45.77,90,53Z"/><ellipse class="cls-1" cx="709.74" cy="965" rx="94.3" ry="51.24"/><path class="cls-2" d="M669.37,918.32c-5.6-3.23-10.14-.73-10.14,5.59s4.54,14.05,10.14,17.28,10.13.72,10.13-5.59S675,921.54,669.37,918.32Z"/><path class="cls-2" d="M667.62,946.7c5.88-.62,9-3.16,10.12-5.68L663.4,917.08c-3.2.77-9,3.5-10.54,7.06Z"/><path class="cls-2" d="M662.17,922.49c-5.6-3.23-10.14-.72-10.14,5.59s4.54,14.06,10.14,17.29,10.13.72,10.13-5.6S667.77,925.72,662.17,922.49Z"/><ellipse class="cls-5" cx="662.17" cy="933.93" rx="6.1" ry="10.57" transform="matrix(0.86, -0.52, 0.52, 0.86, -387.54, 476.99)"/><ellipse class="cls-2" cx="777.08" cy="928.13" rx="14.17" ry="8.18" transform="translate(-419.16 1113.32) rotate(-58.86)"/><path class="cls-2" d="M778.83,945.08c-5.88-.62-9-3.16-10.12-5.69l14.34-23.93c3.2.77,9,3.5,10.54,7.06Z"/><path class="cls-2" d="M784.29,920.87c5.59-3.23,10.13-.72,10.13,5.59s-4.54,14.06-10.13,17.29-10.14.72-10.14-5.6S778.69,924.1,784.29,920.87Z"/><path class="cls-5" d="M784.29,924.38c3.88-2.24,7-.51,7,3.87s-3.15,9.75-7,12-7,.5-7-3.88S780.41,926.61,784.29,924.38Z"/><path class="cls-2" d="M650.07,987c5.6-3.23,10.14-.73,10.14,5.59s-4.54,14.06-10.14,17.28-10.13.73-10.13-5.59S644.47,990.23,650.07,987Z"/><path class="cls-2" d="M651.82,1015.39c-5.88-.62-9-3.16-10.12-5.68L656,985.77c3.2.77,9,3.5,10.54,7.06Z"/><path class="cls-2" d="M657.27,991.18c5.6-3.23,10.14-.72,10.14,5.6s-4.54,14.05-10.14,17.28-10.13.72-10.13-5.6S651.68,994.41,657.27,991.18Z"/><path class="cls-5" d="M657.27,994.75c3.85-2.22,7-.5,7,3.85s-3.13,9.67-7,11.89-7,.5-7-3.85S653.42,997,657.27,994.75Z"/><path class="cls-2" d="M788.18,978.8c-5.6-3.23-10.14-.72-10.14,5.59s4.54,14.06,10.14,17.28,10.13.73,10.13-5.59S793.77,982,788.18,978.8Z"/><path class="cls-2" d="M786.43,1007.18c5.88-.62,9-3.16,10.12-5.68l-14.34-23.94c-3.2.77-9,3.51-10.54,7.06Z"/><path class="cls-2" d="M781,983c-5.59-3.22-10.13-.72-10.13,5.6s4.54,14,10.13,17.28,10.14.72,10.14-5.6S786.57,986.2,781,983Z"/><path class="cls-5" d="M781,986.11c-4.06-2.35-7.36-.53-7.36,4.06s3.3,10.2,7.36,12.55,7.36.52,7.36-4.07S785,988.45,781,986.11Z"/><path class="cls-4" d="M738.53,558.26c-9.58,8.83-20.26,9.36-31.6,5a11.18,11.18,0,0,1-6.93-8.31l-10.41-53.25,44.66,1.13,8.28,42.36A14.14,14.14,0,0,1,738.53,558.26Z"/><path class="cls-3" d="M665.12,504.28c5.15,26.35,13.61,44.33,29.4,41.92,15.37-2.34,1.93-32.17,11.15-43.64,2-2.51,19.44-3.15,21.62-5.68,8.44-9.82-7.83-54.2-30-49.87-13.85,2.71-27.78,7.6-32.91,20.73C662.44,472.79,664.42,500.75,665.12,504.28Z"/><path class="cls-4" d="M688.39,507.35c2,7.46,5.06,13.28,9.9,12s8-12.72,6-20.18-4.15-9.79-9-8.51S686.42,499.89,688.39,507.35Z"/><path class="cls-3" d="M686.13,504.5c2,7.46,5.06,13.28,9.89,12s9.54-12.06,7.56-19.52-5.72-10.45-10.56-9.17S684.16,497,686.13,504.5Z"/><path class="cls-1" d="M583.56,972.5c3.71-2.13,4.19-7,.65-9.35L539,935.74a1.37,1.37,0,0,0-1.3-.06l-11.8,5.72c-4.3,2.08-4.1,8.31-.47,11.43,4.15,3.57,11.8,11.37,32.44,20.31C566.59,976.91,574.25,977.85,583.56,972.5Z"/><path class="cls-1" d="M652.69,922.46c3.79-2.19,4.29-7.13.66-9.58l-46.29-28.07a1.37,1.37,0,0,0-1.33-.06l-12.08,5.85c-4.41,2.13-4.2,8.51-.49,11.71,4.26,3.66,12.1,11.64,33.23,20.8C635.31,927,643.14,927.94,652.69,922.46Z"/><path class="cls-13" d="M654.57,913.15c-.34-1.59,1-12.81-4.62-17.5-3.14-2.6-9.85-8-14.57-8.37-10.07-.69-32.39-14.53-40.29-5.86-4.31,4.72-2.6,12.82-1.75,14.44,3.76,7.23,31.57,23.33,38.77,25.31C643.14,924.21,656.13,920.25,654.57,913.15Z"/><path class="cls-13" d="M585.75,962.71c-.35-1.59,1-12.81-4.63-17.5-3.14-2.6-9.84-8-14.57-8.37-10.06-.69-32.38-14.53-40.29-5.86-4.31,4.72-2.59,12.82-1.74,14.44,3.76,7.23,31.56,23.33,38.77,25.31C574.31,973.77,587.3,969.81,585.75,962.71Z"/><path class="cls-3" d="M566.94,957.86a16.13,16.13,0,0,1-7.84-12.13C555.51,919,539.21,794.34,543.59,769.5c4.92-27.86,25.4-36,40.15-35.24s11.48,68.84,11.48,68.84l-13,10.25a136.94,136.94,0,0,1,8.21,37.46c1.54,21-12,46.12-9.28,100.84C581.51,958,574.7,962.12,566.94,957.86Z"/><path class="cls-3" d="M612.61,771.48c1.85,51.14,19.92,124.57,19.92,124.57,5,16.73,16.23,11.26,16.93,4.34,4-39.66,4.83-41.9,5-71.8a300.55,300.55,0,0,0-5.5-56.81Z"/><path class="cls-7" d="M587.84,732.63,608.33,740c20.48,7.38,136.84,54.08,136.84,54.08l51.55-27.16c11.89,93.32-31.58,94.72-54.08,102.83-10.72,3.85-86.79-19.13-105.63-26.5s-47.86-25.5-47.86-25.5C568.09,794.11,569,759.09,587.84,732.63Z"/><path class="cls-14" d="M736.41,537.38c-57.74,15.55-73.57,49.27-73.57,49.27-6.63,88.55-4.44,132.21-3.24,182,.15,6.13,12.61,11.5,18.14,14.15,10.65,5.1,21.46,28.83,43.54,26.18,36.21-4.35,61.31-22.59,68.52-29.26,4.12-3.81,13-13.51,13.43-27.42.85-30.29,2.87-95.51-6-166.54C797.26,574.75,787.14,523.71,736.41,537.38Z"/><path class="cls-12" d="M688,577c-8.79-2.66-24.11,4.61-29.15,12.29-3.75,4.51-7.44,9.05-.25,7.24V696.83c16.88-21.19,32-59,45.74-84.59C711.59,598.7,702.71,581.43,688,577Z"/><path class="cls-3" d="M602,685.42S527.09,651.87,515.68,641l-8.37,12.84s33.9,44.69,89.76,61.14Z"/><path class="cls-14" d="M611.09,657.78c-3.39,13.55-9.35,17-17.43,13.68-22-9-56.88-17.63-68.66-25.49-6.51,3.2-11.64,8.23-13.55,14a7.56,7.56,0,0,0,1.88,7.63c10.13,10.26,47.74,45.76,89.95,53Z"/><path class="cls-14" d="M604.39,674.41c7.49-24.68,29.85-55.5,54.45-85.14,5-7.68,20.36-14.95,29.15-12.29,14.72,4.45,23.6,21.72,16.34,35.26-19.49,36.39-52.91,90.06-109.9,111.43C594.43,723.67,601,680.63,604.39,674.41Z"/><path class="cls-3" d="M519.32,644.67s2.45-12.95.85-16.76c-.51-1.2-1.44-3.62-6.62-.53-1.2.71-1.3-2.61-12.64-8-1.51-.72-6.75.17-7.08,3.51s-6.3,4.26-6.71,7.26c-.37,2.71-2.26,2.94-4.06,4.92-1.2,1.33.63,3.83,0,5.17a6.87,6.87,0,0,0,.25,4.74c2,3.34,15.66,10.15,25,9.82S519.32,644.67,519.32,644.67Z"/><path class="cls-2" d="M797.38,976.24l-38.69-29.13a8.5,8.5,0,0,1,.58-14l32.86-20.66s-.7-4.16-7.45-4.68c-6.26-.48-48.09,16.09-54.33,18.57a34.71,34.71,0,0,0-9.78-1.35,37.69,37.69,0,0,0-4.31.25l.12-.19s-44.17-17.67-51.67-15.79-8.56,8-8.56,8L685.42,932a8.49,8.49,0,0,1,1.29,14.38l-42.58,32.05A7.17,7.17,0,0,0,646.39,989h0a7.16,7.16,0,0,0,8.42-1l48.74-22.54a47.82,47.82,0,0,1,40.52.17l42.63,20.15a7.17,7.17,0,0,0,10.68-9.49Z"/><ellipse class="cls-7" cx="720.57" cy="933.76" rx="7.49" ry="4.07"/><rect class="cls-7" x="713.08" y="878.77" width="14.99" height="54.95"/><path class="cls-2" d="M705.22,860.89,602.28,824.13S634,864,665.85,876.37s56.18,11.5,75.2,7.08C768.71,877,789.27,860,789.27,860Z"/><path class="cls-2" d="M830.35,612.2c-13.76-6.84-48.52,6.86-85.67,35.36-25.93,19.9-27.11,44-24.76,74.27s1.32,80.35,1.32,105.12c0,32.09-26.33,30.3-26.33,30.3,22.4,23.19,55.94,23.55,72.69,16.66,30.31-12.49,62.21-33.36,72.89-74.29,4.46-17.08,7.35-76.68,10.93-116C854.84,646.1,848.52,621.24,830.35,612.2Z"/><path class="cls-7" d="M645.37,852.76l-16.28-6.62a33,33,0,0,1-20.54-30.53V728.16h10.52v87.45a22.42,22.42,0,0,0,14,20.78l6.52,2.66a10.52,10.52,0,0,1,5.79,13.71Z"/><path class="cls-7" d="M603.34,750.4c-9.84-5.07-22.38-9.42-16.11-18.86,5.88-8.85,20.83-12.57,35-10.61,16.95,2.35,105.9,61.89,112.58,70.14s4.71,19.26-2.36,23.58-14.93,3.93-24,0S616.31,757.08,603.34,750.4Z"/><path class="cls-2" d="M603.34,743.94c-9.84-5.08-22.38-9.42-16.11-18.87,5.88-8.85,20.83-12.57,35-10.61,16.95,2.36,105.9,61.89,112.58,70.14s4.71,19.26-2.36,23.58-14.93,3.93-24,0S616.31,750.62,603.34,743.94Z"/><path class="cls-2" d="M797.34,554.65c-4.59-24.29-27.56-38.07-37.41-45.95s-13.78-35.44-13.78-35.44l-.23.2a89.29,89.29,0,0,0-11.39-28.21c-7.5-11.76-36.74-17.05-56.47.78-19.79,11.33-37-17.71-37,3.63,0,34.46,25,34.42,31.83,36.31s7.89,18.81,8.39,23.92c0,0,3.47,1.56,4.63-4.75s9.64-14.48,13.49-12.67c3.27,1.54,9,7,.41,21.14,1.06,5.83,2.24,12.5,3.44,18.95C701,548.82,689.9,577.22,691,593.37c1.31,19,34.79,41.35,64.33,32.82S801.94,578.93,797.34,554.65Z"/><path class="cls-15" d="M599.89,481.33l-20.78-11.54L555.26,481s17.6,10.35,19.21,11.11c6.75,3.21,17.58,3.67,27.15-1.34,1.76-.92,3-2.25,3.06-3.79C604.68,484.92,602.76,482.89,599.89,481.33Z"/><path class="cls-16" d="M592.69,421.9H544l7.56,54.53h.06c.59,4.29,7.85,7.69,16.75,7.69s16.15-3.4,16.74-7.69h.06Z"/><ellipse class="cls-5" cx="568.33" cy="421.9" rx="24.36" ry="11.97"/><ellipse class="cls-17" cx="568.33" cy="421.9" rx="20.27" ry="8.63"/><path class="cls-2" d="M550.87,450.35l3.22,23.29c0,3.87,6.37,7,14.24,7s14.24-3.13,14.24-7l3.21-23.29Z"/><path class="cls-2" d="M585.78,450.35c0,4.73-7.81,8.57-17.45,8.57s-17.46-3.84-17.46-8.57,7.82-8.58,17.46-8.58S585.78,445.61,585.78,450.35Z"/><path class="cls-15" d="M633.77,589.19,613,577.65l-23.85,11.19s17.6,10.34,19.2,11.11c6.75,3.21,17.59,3.66,27.16-1.34,1.75-.92,3-2.26,3-3.79C638.56,592.78,636.65,590.74,633.77,589.19Z"/><path class="cls-16" d="M626.58,529.75H577.85l7.56,54.53h.06c.59,4.3,7.85,7.69,16.74,7.69s16.15-3.39,16.75-7.69H619Z"/><ellipse class="cls-5" cx="602.21" cy="529.75" rx="24.36" ry="11.97"/><ellipse class="cls-17" cx="602.21" cy="529.75" rx="20.27" ry="8.63"/><path class="cls-18" d="M584.76,558.2,588,581.5c0,3.86,6.38,7,14.24,7s14.24-3.14,14.24-7l3.22-23.3Z"/><path class="cls-19" d="M619.67,558.2c0,4.74-7.82,8.58-17.46,8.58s-17.45-3.84-17.45-8.58,7.81-8.57,17.45-8.57S619.67,553.47,619.67,558.2Z"/><path class="cls-15" d="M531.19,711.15,512.94,701,492,710.84s15.46,9.08,16.86,9.75c5.93,2.82,15.45,3.22,23.85-1.17,1.54-.81,2.68-2,2.68-3.33C535.4,714.3,533.72,712.51,531.19,711.15Z"/><path class="cls-16" d="M524.87,659H482.08l6.64,47.89h0c.52,3.77,6.89,6.75,14.7,6.75s14.19-3,14.71-6.75h.05Z"/><ellipse class="cls-5" cx="503.47" cy="658.95" rx="21.4" ry="10.51"/><ellipse class="cls-17" cx="503.47" cy="658.95" rx="17.8" ry="7.58"/><path class="cls-17" d="M514.89,705c0,3.1-5.11,5.61-11.42,5.61s-11.41-2.51-11.41-5.61,5.11-5.6,11.41-5.6S514.89,701.87,514.89,705Z"/><path class="cls-7" d="M508.76,705.36c-1.66,2.45-4.08,2.88-6.93,2.19l-19.39-61,6.93-2.19Z"/><path class="cls-20" d="M489.37,644.3l-7.82-10.92.89,13.12C485.27,646.85,487.62,646.21,489.37,644.3Z"/><path class="cls-1" d="M484.24,637.13l-2.69-3.75.29,4.18A1.8,1.8,0,0,0,484.24,637.13Z"/><path class="cls-1" d="M500.4,707.18c-2.68,1.24-5,.35-7.06-1.7l15-62.29,7.06,1.7Z"/><path class="cls-20" d="M515.36,644.89l-1-13.39-6,11.69C510.54,645,512.88,645.62,515.36,644.89Z"/><path class="cls-1" d="M514.68,636.1l-.36-4.6-1.92,3.73A1.81,1.81,0,0,0,514.68,636.1Z"/><path class="cls-2" d="M500.11,707c-2.86.75-5-.53-6.65-2.92l25.73-58.66,6.65,2.92Z"/><path class="cls-20" d="M525.84,648.29l1.35-13.37-8,10.45C521.08,647.5,523.27,648.57,525.84,648.29Z"/><path class="cls-1" d="M526.72,639.51l.47-4.59-2.55,3.33A1.78,1.78,0,0,0,526.72,639.51Z"/><path class="cls-5" d="M521.57,658.6a2.27,2.27,0,0,1,0,.35c0,3-7.07,7.26-18.15,7.26s-18.14-4.3-18.14-7.26a2.27,2.27,0,0,1,.05-.35H482.1c0,.12,0,.23,0,.35,0,5.81,9.58,10.51,21.39,10.51s21.4-4.7,21.4-10.51c0-.12,0-.23,0-.35Z"/><path class="cls-1" d="M463.57,488.66,400.8,524.38s0,2.8,0,3.83a3.24,3.24,0,0,0,1.61,3l87.22,51.21a3.27,3.27,0,0,0,3.36,0l61.57-37.51a3.24,3.24,0,0,0,1.57-2.6c.07-1.16,0-4.31,0-4.31l-89.24-49.3A3.24,3.24,0,0,0,463.57,488.66Z"/><path class="cls-2" d="M463.57,484.59l-61.19,36.89a3.28,3.28,0,0,0,0,5.63l87.22,51.2a3.29,3.29,0,0,0,3.36,0l61.57-37.51a3.27,3.27,0,0,0-.06-5.63l-87.61-50.59A3.29,3.29,0,0,0,463.57,484.59Z"/><path class="cls-5" d="M466.61,494.16l-48.69,29.36a2.6,2.6,0,0,0,0,4.47l69.4,40.75a2.61,2.61,0,0,0,2.67,0l49-29.85a2.61,2.61,0,0,0,0-4.48l-69.71-40.25A2.6,2.6,0,0,0,466.61,494.16Z"/><polygon class="cls-7" points="471.34 502.44 459.51 537.01 432.67 525.18 471.34 502.44"/><polygon class="cls-1" points="471.34 502.44 506.74 532.4 432.67 525.18 471.34 502.44"/><path class="cls-2" d="M486.29,538.44c-6.35,0-11.52,3.48-11.52,7.75s5.17,7.74,11.52,7.74,11.52-3.47,11.52-7.74S492.64,538.44,486.29,538.44Z"/><circle class="cls-2" cx="213.89" cy="564.22" r="5.81"/><circle class="cls-2" cx="213.89" cy="548.84" r="13.02"/><circle class="cls-2" cx="213.89" cy="527.19" r="16.47"/><path class="cls-2" d="M240.41,504.75a16,16,0,1,1-16-16A16,16,0,0,1,240.41,504.75Z"/><path class="cls-2" d="M256.73,494.61a11.14,11.14,0,1,1-11.14-11.14A11.14,11.14,0,0,1,256.73,494.61Z"/><path class="cls-2" d="M278.38,507.73a8.94,8.94,0,1,0,8.94-8.94A8.95,8.95,0,0,0,278.38,507.73Z"/><path class="cls-2" d="M281.46,517.28a8.94,8.94,0,1,0,8.94-8.94A8.94,8.94,0,0,0,281.46,517.28Z"/><circle class="cls-2" cx="278.07" cy="501.3" r="8.16"/><circle class="cls-2" cx="292.85" cy="526.86" r="8.16"/><path class="cls-2" d="M249.82,498.79a13.5,13.5,0,1,0,13.5-13.49A13.49,13.49,0,0,0,249.82,498.79Z"/><circle class="cls-2" cx="237.74" cy="491.1" r="7.06"/><path class="cls-2" d="M264.89,489.85a7.69,7.69,0,1,1-7.69-7.69A7.69,7.69,0,0,1,264.89,489.85Z"/><path class="cls-2" d="M215.93,511.81a6.12,6.12,0,1,1-6.12-6.12A6.12,6.12,0,0,1,215.93,511.81Z"/><polygon class="cls-1" points="338.36 622.32 456.54 691.72 373.3 740.25 255.01 670.64 338.36 622.32"/><polygon class="cls-1" points="451.4 686.32 451.4 690.59 371.85 737.21 257.93 669.96 257.93 665.69 451.4 686.32"/><polygon class="cls-7" points="371.85 732.95 371.85 737.21 257.93 669.96 257.93 665.69 371.85 732.95"/><polygon class="cls-1" points="337.6 619.26 451.4 686.32 371.85 732.95 257.93 665.69 337.6 619.26"/><polygon class="cls-7" points="336.14 625.24 441.22 687.16 399.02 711.9 293.83 649.79 336.14 625.24"/><polygon class="cls-7" points="326.07 672.46 365.2 695.52 339.66 710.5 300.48 687.37 326.07 672.46"/><polygon class="cls-1" points="337.91 688.87 338.4 689.11 320.83 699.44 320.3 699.13 337.91 688.87"/><polygon class="cls-21" points="337.6 523.99 340.87 522.64 340.87 503.7 337.6 505.71 337.6 523.99"/><polygon class="cls-21" points="340.87 503.7 340.87 617.25 454.67 684.18 454.67 570.63 340.87 503.7"/><polygon class="cls-1" points="451.4 572.64 451.4 686.19 454.67 684.18 454.67 570.63 451.4 572.64"/><polygon class="cls-2" points="337.6 505.71 337.6 619.26 451.4 686.19 451.4 572.64 337.6 505.71"/><path class="cls-5" d="M340.61,618.42l105.22,61.26a1.94,1.94,0,0,0,2.91-1.68V580.82a1.91,1.91,0,0,0-1-1.67L342.56,517.62a1.94,1.94,0,0,0-2.92,1.67v97.46A1.92,1.92,0,0,0,340.61,618.42Z"/><path class="cls-7" d="M424,572.88l15.75,9.21a1.64,1.64,0,0,1,.81,1.42V589a1.65,1.65,0,0,1-2.47,1.43l-15.57-9.06a1.48,1.48,0,0,1-.72-1.27v-6A1.46,1.46,0,0,1,424,572.88Z"/><path class="cls-7" d="M419.67,571.17v6a1.45,1.45,0,0,1-2.18,1.25l-16.91-9.84a1.45,1.45,0,0,1-.72-1.26v-6.07A1.45,1.45,0,0,1,402,560L419,569.92A1.45,1.45,0,0,1,419.67,571.17Z"/><path class="cls-7" d="M397.11,558.26v6.18a1.3,1.3,0,0,1-2,1.12L372.7,552.49a1.74,1.74,0,0,1-.87-1.51v-6.23a1.3,1.3,0,0,1,2-1.13l22.45,13.13A1.74,1.74,0,0,1,397.11,558.26Z"/><path class="cls-7" d="M348.63,551.29l89.47,52.08a1.65,1.65,0,0,0,2.47-1.43v-5.51a1.64,1.64,0,0,0-.81-1.42l-89.47-52.32a1.65,1.65,0,0,0-2.48,1.42v5.75A1.68,1.68,0,0,0,348.63,551.29Z"/><path class="cls-2" d="M348.63,564.21l89.47,52.08a1.65,1.65,0,0,0,2.47-1.43v-5.51a1.64,1.64,0,0,0-.81-1.42l-89.47-52.32a1.65,1.65,0,0,0-2.48,1.42v5.75A1.68,1.68,0,0,0,348.63,564.21Z"/><path class="cls-2" d="M418.42,608.37l21.34,12.48a1.64,1.64,0,0,1,.81,1.42v5.51a1.65,1.65,0,0,1-2.47,1.43l-20.86-12.15A2.41,2.41,0,0,1,416,615v-5.24A1.58,1.58,0,0,1,418.42,608.37Z"/><path class="cls-2" d="M350.29,568.53l62.27,36.41a2.45,2.45,0,0,1,1.22,2.13v5.38a1.49,1.49,0,0,1-2.24,1.29l-62.91-36.61a1.68,1.68,0,0,1-.82-1.43V570A1.65,1.65,0,0,1,350.29,568.53Z"/><path class="cls-1" d="M348.63,590l89.47,52.09a1.65,1.65,0,0,0,2.47-1.43v-5.51a1.64,1.64,0,0,0-.81-1.42l-89.47-52.32a1.65,1.65,0,0,0-2.48,1.42v5.75A1.65,1.65,0,0,0,348.63,590Z"/><path class="cls-7" d="M369.81,607a.76.76,0,0,1,1.15-.66l68.8,40.36a1.64,1.64,0,0,1,.81,1.42v5.51a1.65,1.65,0,0,1-2.47,1.43l-67-39.16a2.51,2.51,0,0,1-1.25-2.16Z"/><path class="cls-7" d="M350.29,594.37l16.22,9.49a2.52,2.52,0,0,1,1.26,2.18v6a1.19,1.19,0,0,1-1.79,1L348.63,603a1.65,1.65,0,0,1-.82-1.42v-5.75A1.65,1.65,0,0,1,350.29,594.37Z"/><path class="cls-1" d="M348.63,615.88,438.1,668a1.64,1.64,0,0,0,2.47-1.42V661a1.64,1.64,0,0,0-.81-1.42l-89.47-52.32a1.65,1.65,0,0,0-2.48,1.42v5.75A1.65,1.65,0,0,0,348.63,615.88Z"/><path class="cls-2" d="M394.5,541.89c-.38-.24-.69.13-.69.83a2.18,2.18,0,0,0,.69,1.68c.39.24.69-.14.69-.83A2.13,2.13,0,0,0,394.5,541.89Z"/><path class="cls-2" d="M398.47,703.33l-3.58,2a.76.76,0,0,0,0,1.31l3.85,2.27a1.41,1.41,0,0,0,1.39,0l3.52-2a.76.76,0,0,0,0-1.31l-3.79-2.25A1.36,1.36,0,0,0,398.47,703.33Z"/><path class="cls-2" d="M390.53,698.66l-3.58,2a.76.76,0,0,0,0,1.31l3.85,2.27a1.41,1.41,0,0,0,1.39,0l3.51-2a.75.75,0,0,0,0-1.3l-3.79-2.26A1.38,1.38,0,0,0,390.53,698.66Z"/><path class="cls-2" d="M382.59,694,379,696a.76.76,0,0,0,0,1.31l3.85,2.27a1.41,1.41,0,0,0,1.39,0l3.52-2a.75.75,0,0,0,0-1.3L384,694A1.38,1.38,0,0,0,382.59,694Z"/><path class="cls-2" d="M327.05,661.3l-3.58,2a.76.76,0,0,0,0,1.32l3.85,2.26a1.36,1.36,0,0,0,1.38,0l3.52-2a.76.76,0,0,0,0-1.31l-3.79-2.26A1.36,1.36,0,0,0,327.05,661.3Z"/><path class="cls-2" d="M319.11,656.64l-3.57,2a.76.76,0,0,0,0,1.32l3.85,2.26a1.38,1.38,0,0,0,1.39,0l3.52-2a.76.76,0,0,0,0-1.31l-3.79-2.26A1.38,1.38,0,0,0,319.11,656.64Z"/><path class="cls-2" d="M311.18,652l-3.58,2a.76.76,0,0,0,0,1.32l3.84,2.26a1.38,1.38,0,0,0,1.39,0l3.52-2a.76.76,0,0,0,0-1.31L312.56,652A1.39,1.39,0,0,0,311.18,652Z"/><path class="cls-2" d="M303.24,647.3l-3.57,2a.76.76,0,0,0,0,1.32l3.85,2.26a1.38,1.38,0,0,0,1.39,0l3.52-2a.76.76,0,0,0,0-1.31l-3.79-2.26A1.41,1.41,0,0,0,303.24,647.3Z"/><path class="cls-2" d="M333.65,665.91l-3.58,2a.76.76,0,0,0,0,1.31L374.7,695a1.41,1.41,0,0,0,1.39,0l3.51-2a.75.75,0,0,0,0-1.3L335,665.94A1.36,1.36,0,0,0,333.65,665.91Z"/><path class="cls-2" d="M406.4,698.45l-3.58,2a.76.76,0,0,0,0,1.31l3.85,2.27a1.41,1.41,0,0,0,1.39,0l3.52-2a.75.75,0,0,0,0-1.3l-3.79-2.26A1.38,1.38,0,0,0,406.4,698.45Z"/><path class="cls-2" d="M398.47,693.78l-3.58,2a.76.76,0,0,0,0,1.31l3.85,2.27a1.41,1.41,0,0,0,1.39,0l3.52-2a.75.75,0,0,0,0-1.3l-3.79-2.26A1.36,1.36,0,0,0,398.47,693.78Z"/><path class="cls-2" d="M390.53,689.11l-3.58,2a.76.76,0,0,0,0,1.31l3.85,2.27a1.41,1.41,0,0,0,1.39,0l3.51-2a.75.75,0,0,0,0-1.3l-3.79-2.26A1.38,1.38,0,0,0,390.53,689.11Z"/><path class="cls-2" d="M382.59,684.44l-3.57,2a.76.76,0,0,0,0,1.31l3.85,2.27a1.38,1.38,0,0,0,1.39,0l3.52-2a.75.75,0,0,0,0-1.3L384,684.47A1.38,1.38,0,0,0,382.59,684.44Z"/><path class="cls-2" d="M374.66,679.77l-3.58,2a.76.76,0,0,0,0,1.31l3.85,2.27a1.38,1.38,0,0,0,1.39,0l3.51-2a.76.76,0,0,0,0-1.31l-3.79-2.26A1.38,1.38,0,0,0,374.66,679.77Z"/><path class="cls-2" d="M366.72,675.1l-3.57,2a.76.76,0,0,0,0,1.31l3.85,2.27a1.38,1.38,0,0,0,1.39,0l3.52-2a.76.76,0,0,0,0-1.31l-3.79-2.26A1.38,1.38,0,0,0,366.72,675.1Z"/><path class="cls-2" d="M358.79,670.43l-3.58,2a.76.76,0,0,0,0,1.32l3.85,2.26a1.36,1.36,0,0,0,1.38,0l3.52-2a.76.76,0,0,0,0-1.31l-3.78-2.26A1.38,1.38,0,0,0,358.79,670.43Z"/><path class="cls-2" d="M350.85,665.76l-3.57,2a.76.76,0,0,0,0,1.32l3.85,2.26a1.38,1.38,0,0,0,1.39,0l3.52-2a.76.76,0,0,0,0-1.31l-3.79-2.26A1.38,1.38,0,0,0,350.85,665.76Z"/><path class="cls-2" d="M342.92,661.09l-3.58,2a.76.76,0,0,0,0,1.32l3.85,2.26a1.36,1.36,0,0,0,1.38,0l3.52-2a.76.76,0,0,0,0-1.31l-3.79-2.26A1.36,1.36,0,0,0,342.92,661.09Z"/><path class="cls-2" d="M335,656.43l-3.57,2a.76.76,0,0,0,0,1.32l3.85,2.26a1.38,1.38,0,0,0,1.39,0l3.52-2a.76.76,0,0,0,0-1.31l-3.79-2.26A1.38,1.38,0,0,0,335,656.43Z"/><path class="cls-2" d="M327.05,651.76l-3.58,2a.76.76,0,0,0,0,1.32l3.85,2.26a1.36,1.36,0,0,0,1.38,0l3.52-2a.76.76,0,0,0,0-1.31l-3.79-2.26A1.39,1.39,0,0,0,327.05,651.76Z"/><path class="cls-2" d="M319.11,647.09l-3.57,2a.76.76,0,0,0,0,1.32l3.85,2.26a1.36,1.36,0,0,0,1.39,0l3.52-2a.76.76,0,0,0,0-1.31l-3.79-2.26A1.41,1.41,0,0,0,319.11,647.09Z"/><path class="cls-2" d="M311.18,642.42l-3.58,2a.76.76,0,0,0,0,1.32l3.84,2.26a1.36,1.36,0,0,0,1.39,0l3.52-2a.76.76,0,0,0,0-1.31l-3.79-2.26A1.39,1.39,0,0,0,311.18,642.42Z"/><path class="cls-2" d="M414.34,693.57l-3.58,2a.76.76,0,0,0,0,1.31l3.85,2.27a1.41,1.41,0,0,0,1.39,0l3.52-2a.75.75,0,0,0,0-1.3l-3.79-2.26A1.36,1.36,0,0,0,414.34,693.57Z"/><path class="cls-2" d="M406.4,688.9l-3.58,2a.76.76,0,0,0,0,1.31l3.85,2.27a1.38,1.38,0,0,0,1.39,0l3.52-2a.75.75,0,0,0,0-1.3l-3.79-2.26A1.38,1.38,0,0,0,406.4,688.9Z"/><path class="cls-2" d="M398.47,684.23l-3.58,2a.76.76,0,0,0,0,1.31l3.85,2.27a1.38,1.38,0,0,0,1.39,0l3.52-2a.76.76,0,0,0,0-1.31l-3.79-2.26A1.36,1.36,0,0,0,398.47,684.23Z"/><path class="cls-2" d="M390.53,679.56l-3.58,2a.76.76,0,0,0,0,1.31l3.85,2.27a1.38,1.38,0,0,0,1.39,0l3.51-2a.76.76,0,0,0,0-1.31l-3.79-2.26A1.38,1.38,0,0,0,390.53,679.56Z"/><path class="cls-2" d="M382.59,674.89l-3.57,2a.76.76,0,0,0,0,1.32l3.85,2.26a1.38,1.38,0,0,0,1.39,0l3.52-2a.76.76,0,0,0,0-1.31L384,674.92A1.38,1.38,0,0,0,382.59,674.89Z"/><path class="cls-2" d="M374.66,670.22l-3.58,2a.76.76,0,0,0,0,1.32l3.85,2.26a1.38,1.38,0,0,0,1.39,0l3.51-2a.76.76,0,0,0,0-1.31l-3.79-2.26A1.38,1.38,0,0,0,374.66,670.22Z"/><path class="cls-2" d="M366.72,665.55l-3.57,2a.76.76,0,0,0,0,1.32l3.85,2.26a1.38,1.38,0,0,0,1.39,0l3.52-2a.76.76,0,0,0,0-1.31l-3.79-2.26A1.38,1.38,0,0,0,366.72,665.55Z"/><path class="cls-2" d="M358.79,660.89l-3.58,2a.76.76,0,0,0,0,1.32l3.85,2.26a1.36,1.36,0,0,0,1.38,0l3.52-2a.76.76,0,0,0,0-1.31l-3.78-2.26A1.38,1.38,0,0,0,358.79,660.89Z"/><path class="cls-2" d="M350.85,656.22l-3.57,2a.76.76,0,0,0,0,1.32l3.85,2.26a1.38,1.38,0,0,0,1.39,0l3.52-2a.76.76,0,0,0,0-1.31l-3.79-2.26A1.41,1.41,0,0,0,350.85,656.22Z"/><path class="cls-2" d="M342.92,651.55l-3.58,2a.76.76,0,0,0,0,1.32l3.85,2.26a1.36,1.36,0,0,0,1.38,0l3.52-2a.76.76,0,0,0,0-1.31l-3.79-2.26A1.39,1.39,0,0,0,342.92,651.55Z"/><path class="cls-2" d="M335,646.88l-3.57,2a.76.76,0,0,0,0,1.32l3.85,2.26a1.36,1.36,0,0,0,1.39,0l3.52-2a.76.76,0,0,0,0-1.31l-3.79-2.26A1.41,1.41,0,0,0,335,646.88Z"/><path class="cls-2" d="M327.05,642.21l-3.58,2a.76.76,0,0,0,0,1.31l3.85,2.27a1.36,1.36,0,0,0,1.38,0l3.52-2a.76.76,0,0,0,0-1.31l-3.79-2.26A1.39,1.39,0,0,0,327.05,642.21Z"/><path class="cls-2" d="M319.11,637.54l-3.57,2a.76.76,0,0,0,0,1.31l3.85,2.27a1.38,1.38,0,0,0,1.39,0l3.52-2a.76.76,0,0,0,0-1.31l-3.79-2.26A1.41,1.41,0,0,0,319.11,637.54Z"/><path class="cls-2" d="M422.27,688.69l-3.58,2a.76.76,0,0,0,0,1.31l3.85,2.27a1.38,1.38,0,0,0,1.39,0l3.52-2a.75.75,0,0,0,0-1.3l-3.79-2.26A1.38,1.38,0,0,0,422.27,688.69Z"/><path class="cls-2" d="M414.34,684l-3.58,2a.76.76,0,0,0,0,1.31l3.85,2.27a1.38,1.38,0,0,0,1.39,0l3.52-2a.76.76,0,0,0,0-1.31l-3.79-2.26A1.36,1.36,0,0,0,414.34,684Z"/><path class="cls-2" d="M406.4,679.35l-3.58,2a.76.76,0,0,0,0,1.31l3.85,2.27a1.38,1.38,0,0,0,1.39,0l3.52-2a.76.76,0,0,0,0-1.31l-3.79-2.26A1.38,1.38,0,0,0,406.4,679.35Z"/><path class="cls-2" d="M398.47,674.68l-3.58,2a.76.76,0,0,0,0,1.32l3.85,2.26a1.38,1.38,0,0,0,1.39,0l3.52-2a.76.76,0,0,0,0-1.31l-3.79-2.26A1.36,1.36,0,0,0,398.47,674.68Z"/><path class="cls-2" d="M390.53,670,387,672a.76.76,0,0,0,0,1.32l3.85,2.26a1.38,1.38,0,0,0,1.39,0l3.51-2a.76.76,0,0,0,0-1.31L391.92,670A1.38,1.38,0,0,0,390.53,670Z"/><path class="cls-2" d="M382.59,665.34l-3.57,2a.76.76,0,0,0,0,1.32l3.85,2.26a1.38,1.38,0,0,0,1.39,0l3.52-2a.76.76,0,0,0,0-1.31L384,665.37A1.41,1.41,0,0,0,382.59,665.34Z"/><path class="cls-2" d="M374.66,660.68l-3.58,2a.76.76,0,0,0,0,1.32l3.85,2.26a1.38,1.38,0,0,0,1.39,0l3.51-2a.76.76,0,0,0,0-1.31l-3.79-2.26A1.41,1.41,0,0,0,374.66,660.68Z"/><path class="cls-2" d="M366.72,656l-3.57,2a.76.76,0,0,0,0,1.32l3.85,2.26a1.38,1.38,0,0,0,1.39,0l3.52-2a.76.76,0,0,0,0-1.31L368.11,656A1.41,1.41,0,0,0,366.72,656Z"/><path class="cls-2" d="M358.79,651.34l-3.58,2a.76.76,0,0,0,0,1.32l3.85,2.26a1.34,1.34,0,0,0,1.38,0l3.52-2a.76.76,0,0,0,0-1.31l-3.78-2.26A1.41,1.41,0,0,0,358.79,651.34Z"/><path class="cls-2" d="M350.85,646.67l-3.57,2a.76.76,0,0,0,0,1.32l3.85,2.26a1.36,1.36,0,0,0,1.39,0l3.52-2a.76.76,0,0,0,0-1.31l-3.79-2.26A1.41,1.41,0,0,0,350.85,646.67Z"/><path class="cls-2" d="M342.92,642l-3.58,2a.76.76,0,0,0,0,1.31l3.85,2.27a1.36,1.36,0,0,0,1.38,0l3.52-2a.76.76,0,0,0,0-1.31L344.3,642A1.39,1.39,0,0,0,342.92,642Z"/><path class="cls-2" d="M335,637.33l-3.57,2a.76.76,0,0,0,0,1.31l3.85,2.27a1.38,1.38,0,0,0,1.39,0l3.52-2a.76.76,0,0,0,0-1.31l-3.79-2.26A1.41,1.41,0,0,0,335,637.33Z"/><path class="cls-2" d="M327.05,632.66l-3.58,2a.76.76,0,0,0,0,1.31l3.85,2.27a1.36,1.36,0,0,0,1.38,0l3.52-2a.76.76,0,0,0,0-1.31l-3.79-2.26A1.39,1.39,0,0,0,327.05,632.66Z"/><path class="cls-2" d="M430.21,684.23l-3.58,2a.76.76,0,0,0,0,1.31l3.85,2.27a1.38,1.38,0,0,0,1.39,0l3.52-2a.76.76,0,0,0,0-1.31l-3.79-2.26A1.36,1.36,0,0,0,430.21,684.23Z"/><path class="cls-2" d="M422.27,679.56l-3.58,2a.76.76,0,0,0,0,1.31l3.85,2.27a1.38,1.38,0,0,0,1.39,0l3.52-2a.76.76,0,0,0,0-1.31l-3.79-2.26A1.38,1.38,0,0,0,422.27,679.56Z"/><path class="cls-2" d="M414.34,674.89l-3.58,2a.76.76,0,0,0,0,1.32l3.85,2.26a1.38,1.38,0,0,0,1.39,0l3.52-2a.76.76,0,0,0,0-1.31l-3.79-2.26A1.36,1.36,0,0,0,414.34,674.89Z"/><path class="cls-2" d="M406.4,670.22l-3.58,2a.76.76,0,0,0,0,1.32l3.85,2.26a1.38,1.38,0,0,0,1.39,0l3.52-2a.76.76,0,0,0,0-1.31l-3.79-2.26A1.38,1.38,0,0,0,406.4,670.22Z"/><path class="cls-2" d="M398.47,665.55l-3.58,2a.76.76,0,0,0,0,1.32l3.85,2.26a1.38,1.38,0,0,0,1.39,0l3.52-2a.76.76,0,0,0,0-1.31l-3.79-2.26A1.36,1.36,0,0,0,398.47,665.55Z"/><path class="cls-2" d="M390.53,660.89l-3.58,2a.76.76,0,0,0,0,1.32l3.85,2.26a1.38,1.38,0,0,0,1.39,0l3.51-2a.76.76,0,0,0,0-1.31l-3.79-2.26A1.38,1.38,0,0,0,390.53,660.89Z"/><path class="cls-2" d="M382.59,656.22l-3.57,2a.76.76,0,0,0,0,1.32l3.85,2.26a1.38,1.38,0,0,0,1.39,0l3.52-2a.76.76,0,0,0,0-1.31L384,656.24A1.41,1.41,0,0,0,382.59,656.22Z"/><path class="cls-2" d="M374.66,651.55l-3.58,2a.76.76,0,0,0,0,1.32l3.85,2.26a1.38,1.38,0,0,0,1.39,0l3.51-2a.76.76,0,0,0,0-1.31l-3.79-2.26A1.41,1.41,0,0,0,374.66,651.55Z"/><path class="cls-2" d="M366.72,646.88l-3.57,2a.76.76,0,0,0,0,1.32l3.85,2.26a1.36,1.36,0,0,0,1.39,0l3.52-2a.76.76,0,0,0,0-1.31l-3.79-2.26A1.41,1.41,0,0,0,366.72,646.88Z"/><path class="cls-2" d="M358.79,642.21l-3.58,2a.76.76,0,0,0,0,1.31l3.85,2.27a1.36,1.36,0,0,0,1.38,0l3.52-2a.76.76,0,0,0,0-1.31l-3.78-2.26A1.41,1.41,0,0,0,358.79,642.21Z"/><path class="cls-2" d="M350.85,637.54l-3.57,2a.76.76,0,0,0,0,1.31l3.85,2.27a1.38,1.38,0,0,0,1.39,0l3.52-2a.76.76,0,0,0,0-1.31l-3.79-2.26A1.41,1.41,0,0,0,350.85,637.54Z"/><path class="cls-2" d="M342.92,632.87l-3.58,2a.76.76,0,0,0,0,1.31l3.85,2.27a1.36,1.36,0,0,0,1.38,0l3.52-2a.76.76,0,0,0,0-1.31l-3.79-2.26A1.39,1.39,0,0,0,342.92,632.87Z"/><path class="cls-2" d="M335,628.2l-3.57,2a.76.76,0,0,0,0,1.31l3.85,2.27a1.38,1.38,0,0,0,1.39,0l3.52-2a.76.76,0,0,0,0-1.31l-3.79-2.26A1.41,1.41,0,0,0,335,628.2Z"/><path class="cls-22" d="M247,647.68s68.28-34.23,82.67-40.22c1.38-11.42,4.1-25.62,7.91-28.81l.83,19.79c.22,3.29.94,4.73,4.21,5.15,2.95.39,4-2.29,9-3,1.42,5-12,16.11-12,16.11s-35,38.32-87.65,60.44Z"/><path class="cls-7" d="M255.4,633.71c21.15-8.65,46.61-20.8,66.21-25a6.55,6.55,0,0,1,4.67.71c5.43,3.18,9.62,7.68,11.31,12.73a7.53,7.53,0,0,1-1.84,7.66c-6.72,6.81-25.6,24.79-49.91,38.21-19.57,10.81-42.54-9.42-33.77-30C253,635.78,254.14,634.23,255.4,633.71Z"/><ellipse class="cls-1" cx="247.05" cy="1024.63" rx="94.3" ry="51.24"/><path class="cls-2" d="M287.42,978c5.6-3.23,10.14-.73,10.14,5.59s-4.54,14.05-10.14,17.28-10.13.72-10.13-5.59S281.82,981.18,287.42,978Z"/><path class="cls-2" d="M289.17,1006.34c-5.88-.62-9-3.16-10.12-5.69l14.34-23.93c3.2.77,9,3.5,10.54,7.06Z"/><path class="cls-2" d="M294.62,982.13c5.6-3.23,10.14-.72,10.14,5.59s-4.54,14.06-10.14,17.29-10.13.72-10.13-5.6S289,985.36,294.62,982.13Z"/><path class="cls-5" d="M294.62,985c4.18-2.41,7.56-.54,7.56,4.17s-3.38,10.48-7.56,12.89-7.55.54-7.55-4.17S290.45,987.44,294.62,985Z"/><path class="cls-2" d="M179.71,976.33c-5.6-3.22-10.14-.72-10.14,5.6s4.54,14.05,10.14,17.28,10.13.72,10.13-5.59S185.3,979.56,179.71,976.33Z"/><path class="cls-2" d="M178,1004.72c5.88-.62,8.95-3.16,10.12-5.69L173.74,975.1c-3.2.77-9,3.5-10.54,7.06Z"/><path class="cls-2" d="M172.5,980.51c-5.59-3.23-10.13-.72-10.13,5.59s4.54,14.06,10.13,17.28,10.14.73,10.14-5.59S178.1,983.74,172.5,980.51Z"/><path class="cls-5" d="M172.5,984c-3.88-2.23-7-.5-7,3.88s3.14,9.75,7,12,7,.5,7-3.88S176.39,986.25,172.5,984Z"/><path class="cls-2" d="M306.72,1046.65c-5.6-3.23-10.13-.73-10.13,5.59s4.53,14,10.13,17.28,10.14.73,10.14-5.59S312.32,1049.87,306.72,1046.65Z"/><path class="cls-2" d="M305,1075c5.88-.62,9-3.16,10.12-5.68l-14.33-23.94c-3.21.77-9,3.5-10.54,7.06Z"/><path class="cls-2" d="M299.52,1050.82c-5.6-3.23-10.14-.72-10.14,5.59s4.54,14.06,10.14,17.29,10.13.72,10.13-5.6S305.12,1054.05,299.52,1050.82Z"/><path class="cls-5" d="M299.52,1054.39c-3.85-2.22-7-.5-7,3.85s3.12,9.67,7,11.89,7,.49,7-3.85S303.37,1056.61,299.52,1054.39Z"/><path class="cls-2" d="M168.62,1038.44c5.59-3.23,10.13-.72,10.13,5.59s-4.54,14.06-10.13,17.28-10.14.73-10.14-5.59S163,1041.67,168.62,1038.44Z"/><path class="cls-2" d="M170.36,1066.82c-5.88-.62-9-3.16-10.12-5.68l14.34-23.94c3.2.77,9,3.5,10.54,7.06Z"/><path class="cls-2" d="M175.82,1042.61c5.6-3.22,10.13-.72,10.13,5.6s-4.53,14-10.13,17.28-10.14.72-10.14-5.6S170.22,1045.84,175.82,1042.61Z"/><path class="cls-5" d="M175.82,1045.74c4.06-2.34,7.36-.52,7.36,4.07s-3.3,10.2-7.36,12.55-7.36.52-7.36-4.07S171.75,1048.09,175.82,1045.74Z"/><path class="cls-22" d="M218.26,617.9c9.58,8.83,20.26,9.35,31.6,5a11.21,11.21,0,0,0,6.94-8.31l10.41-53.25-44.67,1.13-8.28,42.36A14.14,14.14,0,0,0,218.26,617.9Z"/><path class="cls-22" d="M291.67,563.92c-5.15,26.35-13.61,44.33-29.4,41.92-15.37-2.34-1.93-32.17-11.15-43.64-2-2.51-19.43-3.15-21.61-5.68-8.44-9.82,7.82-54.2,30-49.87,13.84,2.71,27.77,7.6,32.9,20.73C294.35,532.43,292.37,560.38,291.67,563.92Z"/><path class="cls-2" d="M285,545.38c-6.84,1.84-9,19-9.46,24.15,0,0-3.46,1.56-4.62-4.75s-7.94-16.07-10.63-7.41-9.21,26.82-13.25,32.24c-2.62,3.52-12,6.86-24.38,1.71a18.06,18.06,0,0,1-10.41-20.93c4.31-17.43-9.21-35.34,10-65.5,7.51-11.76,36.74-17.05,56.47.78C283.76,508.6,314.85,537.38,285,545.38Z"/><path class="cls-23" d="M268.4,567c-2,7.46-5.06,13.27-9.89,12s-8-12.72-6-20.18,4.15-9.79,9-8.51S270.37,559.52,268.4,567Z"/><path class="cls-22" d="M270.66,564.14c-2,7.46-5.05,13.27-9.89,12s-9.53-12.06-7.56-19.52,5.73-10.45,10.56-9.17S272.64,556.67,270.66,564.14Z"/><path class="cls-1" d="M373.23,1032.14c-3.71-2.13-4.19-7-.65-9.35l45.19-27.41a1.37,1.37,0,0,1,1.3-.06l11.8,5.71c4.31,2.09,4.1,8.32.48,11.44-4.16,3.57-11.81,11.37-32.45,20.31C390.2,1036.55,382.55,1037.49,373.23,1032.14Z"/><path class="cls-2" d="M371.39,1023.05c0-1.59-1-17.19,4.55-21.77,3.06-2.54,9.58-3.17,14.19-3.48,9.83-.68,31.62-14.2,39.34-5.73,4.2,4.61,2.53,12.51,1.7,14.1-3.67,7.06-30.82,22.78-37.85,24.71C382.55,1033.85,371.26,1033.42,371.39,1023.05Z"/><path class="cls-1" d="M304.11,982.09c-3.8-2.18-4.3-7.12-.66-9.57l46.28-28.07a1.4,1.4,0,0,1,1.33-.07l12.08,5.86c4.41,2.13,4.2,8.51.49,11.71-4.26,3.66-12.09,11.64-33.23,20.8C321.49,986.61,313.65,987.58,304.11,982.09Z"/><path class="cls-2" d="M302.22,972.79c.35-1.59-1-17.61,4.66-22.3,3.14-2.6,9.81-3.24,14.54-3.57,10.06-.69,32.38-14.53,40.29-5.86,4.3,4.72,2.59,12.81,1.74,14.44-3.76,7.23-31.56,23.33-38.77,25.31C313.65,983.85,300.67,979.89,302.22,972.79Z"/><path class="cls-1" d="M400.1,1008.47c2.31-17,17.71-153.22,13.1-179.33-4.92-27.86-25.4-36.06-40.15-35.24s-11.47,68.84-11.47,68.84L374.52,873a136.94,136.94,0,0,0-8.21,37.46c-1.54,21,6.57,45.42,3.86,100.14C381,1022.14,399.93,1009.76,400.1,1008.47Z"/><path class="cls-1" d="M344.19,831.12c-1.86,51.14-8.48,124.77-8.48,124.77-3.85,8.52-28,11.52-34.74,4.14,4.21-37.94,1.53-41.9,1.34-71.8a300.55,300.55,0,0,1,5.5-56.81Z"/><path class="cls-1" d="M376.33,794.72s-7.38-2.45-27.86,4.92-136.85,54.08-136.85,54.08l-51.55-27.16c-11.89,93.31,31.58,94.72,54.09,102.82,10.71,3.86,86.78-19.12,105.63-26.49s56.54-32.78,56.54-32.78C397.38,846.47,395.14,821.18,376.33,794.72Z"/><path class="cls-7" d="M220.38,597C278.12,612.57,294,646.29,294,646.29c6.62,88.55,4.85,139.56,3.65,189.33-.15,6.13-16.74,17.81-22.27,20.46-10.65,5.1-17.74,15.17-39.83,12.52C199.3,864.25,174.2,846,167,839.34c-4.12-3.81-13-13.51-13.42-27.42-.86-30.3-2.88-95.51,6-166.55C159.53,634.39,169.65,583.35,220.38,597Z"/><path class="cls-7" d="M268.8,636.62c8.79-2.66,24.11,4.61,29.15,12.29,3.75,4.51,7.44,9.05.25,7.24V756.47c-16.88-21.2-32-59-45.74-84.59C245.2,658.33,254.09,641.06,268.8,636.62Z"/><path class="cls-22" d="M354.76,745.06s74.94-33.55,86.35-44.47l8.37,12.84s-33.9,44.68-89.76,61.14Z"/><path class="cls-7" d="M345.7,717.42c3.39,13.55,9.35,17,17.43,13.67,22-9,58.83-23.25,67.88-26.86,6.51,3.21,12.43,9.61,14.33,15.35a7.54,7.54,0,0,1-1.88,7.62c-10.13,10.27-47.74,45.76-89.95,53Z"/><path class="cls-7" d="M352.41,734.05c-7.5-24.68-29.86-55.5-54.46-85.14-5-7.68-20.36-14.95-29.15-12.29-14.71,4.44-23.6,21.71-16.34,35.26,19.49,36.39,52.91,90.06,109.9,111.43C362.36,783.31,355.75,740.27,352.41,734.05Z"/><path class="cls-22" d="M437.48,704.31s-2.46-12.95-.86-16.77c.51-1.19,1.44-3.61,6.62-.53,1.2.72,1.3-2.6,12.65-8,1.5-.72,6.74.17,7.07,3.51s6.3,4.26,6.71,7.26c.37,2.71,2.27,2.94,4.06,4.92,1.2,1.33-.62,3.83,0,5.17a6.93,6.93,0,0,1-.24,4.74c-2,3.34-15.67,10.15-25,9.82S437.48,704.31,437.48,704.31Z"/><path class="cls-2" d="M159.41,1035.87l38.69-29.12a8.5,8.5,0,0,0-.58-14l-32.86-20.67s.7-4.15,7.46-4.67c6.25-.49,48.09,16.09,54.32,18.57a34.71,34.71,0,0,1,9.78-1.35,38,38,0,0,1,4.32.25l-.12-.19s44.16-17.67,51.66-15.79,8.57,8,8.57,8l-29.28,14.71a8.5,8.5,0,0,0-1.29,14.39l42.58,32a7.17,7.17,0,0,1-2.26,10.52h0a7.16,7.16,0,0,1-8.42-1L253.24,1025a47.86,47.86,0,0,0-40.52.17l-42.63,20.16a7.18,7.18,0,0,1-10.68-9.5Z"/><path class="cls-7" d="M228.73,993.4c0,2.25,3.35,4.07,7.49,4.07s7.49-1.82,7.49-4.07-3.35-4.07-7.49-4.07S228.73,991.15,228.73,993.4Z"/><rect class="cls-7" x="228.71" y="938.41" width="14.99" height="54.95" transform="translate(472.42 1931.76) rotate(180)"/><path class="cls-2" d="M251.57,920.53l102.94-36.76S322.79,923.63,290.94,936s-56.18,11.5-75.2,7.08c-27.66-6.43-48.21-23.45-48.21-23.45Z"/><path class="cls-2" d="M105.37,743.22c3.59,39.36,10.93,116,14.39,133.35,3.93,19.65,39.12,44.49,69.43,57,16.75,6.9,50.29,6.54,72.69-16.65,0,0-26.33,1.79-26.33-30.3,0-24.77-1-74.86,1.32-105.12s1.18-54.37-24.76-74.27C175,678.7,140.2,665,126.44,671.84,108.27,680.87,102,705.74,105.37,743.22Z"/><path class="cls-7" d="M311.42,912.4l16.28-6.62a33,33,0,0,0,20.55-30.53V787.8H337.72v87.45a22.43,22.43,0,0,1-14,20.78l-6.53,2.66a10.54,10.54,0,0,0-5.79,13.71Z"/><path class="cls-7" d="M353.45,810c9.84-5.07,22.38-9.42,16.11-18.86-5.87-8.85-20.83-12.58-35-10.61-17,2.35-105.9,61.89-112.59,70.14s-4.71,19.26,2.36,23.58,14.94,3.93,24,0S340.48,816.72,353.45,810Z"/><path class="cls-2" d="M353.45,803.57c9.84-5.07,22.38-9.41,16.11-18.86-5.87-8.85-20.83-12.57-35-10.61-17,2.36-105.9,61.89-112.59,70.14s-4.71,19.26,2.36,23.58,14.94,3.93,24,0S340.48,810.25,353.45,803.57Z"/><path class="cls-2" d="M452.16,472.4c-14.32-14.62-39.15-42.88-50.68-58.5-3.16-21.65-10.39-54.87-18.71-83.51.75-.36,1.5-.71,2.25-1.11a3.06,3.06,0,0,0,1.54-3.12L385,315.51a3,3,0,0,0-3.27-2.53l-11.25-46.1c-1.89-9.53-8.11-20.9-17.79-21.78-16.18-1.47-30.9,17.34-27.55,33.24,1.55,7.4,5.84,29.12,8.31,41.73a3,3,0,0,0-1.34,2.94l1.95,11.12a3,3,0,0,0,2.55,2.53l1.17.16c9,39.37,21.38,67.75,25.86,77.29l.19.13C384.27,450.19,417,472.39,435.52,483,441.6,480,449,477.28,452.16,472.4Z"/><path class="cls-3" d="M514.39,497.45c.11-1.77-8.43-10.35-12.28-16.78,3.95,1.55,7.94,2.72,7.45.91-1.17-4.34-13.48-10.69-17.17-12.51a8.93,8.93,0,0,0-1.67-.83c-3-1-11.31,2.93-20.54.7-11.74-9.36-45.21-42.25-60.82-61.27-12.81-2.47-37.53,2.27-37.53,2.27,30,47.15,82.79,68.77,89,71.54,5.51,3.64,20.26,17.72,23.19,19.22,4.15,2.11,12.11-.6,14.12-.48S514.18,500.79,514.39,497.45Z"/><path class="cls-3" d="M410.83,415.1c-5.42-32.53-26.78-106.31-43.15-133.84-4.64-7.79-9.75-13.55-18.85-12.47-11,1.3-18.35,12.23-16.49,23.16,10.36,60.58,32.78,105.66,39.4,118C371.93,410.33,400.14,424.42,410.83,415.1Z"/><path class="cls-2" d="M387.29,317.09,371,262.6c-2.38-9.42-9.18-20.45-18.89-20.83-16.24-.64-30,18.92-25.8,34.62,2.79,10.53,12.78,50.48,12.78,50.48C356.3,327.32,372.54,324.56,387.29,317.09Z"/><path class="cls-5" d="M335.54,320.64l2.53,11a3,3,0,0,0,2.67,2.4c7,.64,29.09,1.54,47.94-9.87a3.08,3.08,0,0,0,1.38-3.2L388,310.41a3,3,0,0,0-4-2.29c-7.93,2.8-28.71,9.44-45.44,8.86A3,3,0,0,0,335.54,320.64Z"/><path class="cls-3" d="M580.05,545.59c1.93.37,4,2.38,4.71,6.31a6.9,6.9,0,0,1-2.3,6.3,5.8,5.8,0,0,1,3.32,5.75c-.11,2.34-2.48,5.15-2.48,5.15s2.46,2.71,2.67,4.25-1.39,3.69-2.47,4.3c-2.26,1.29-8.69,2.08-7.67-7,.35-3.06-3.33-5.61-2.46-9.76.68-3.3,2.24-3.58,2.3-6.05s-1.54-3.07-1.15-5.91C574.86,546.4,578.46,545.29,580.05,545.59Z"/><polygon class="cls-1" points="628.09 317.1 630.48 315.68 628.09 312.2 628.09 317.1"/><polygon class="cls-5" points="600.51 244.78 604.67 242.34 603.6 238.08 600.51 239.88 600.51 244.78"/><path class="cls-1" d="M602.39,297.79a3.75,3.75,0,0,0,1.85,3.23L629,315.57a1.67,1.67,0,0,0,2.52-1.44V256a3.73,3.73,0,0,0-1.85-3.23l-24.55-14.44a1.8,1.8,0,0,0-2.72,1.55Z"/><path class="cls-5" d="M626.61,254l-1.52-.95-22.7-7.47v-5.77a1.8,1.8,0,0,1,2.72-1.55l24.55,14.44h0a.79.79,0,0,1-.09,1.38l-.25.09A2.88,2.88,0,0,1,626.61,254Z"/><path class="cls-2" d="M599.79,299.32a3.76,3.76,0,0,0,1.85,3.24l24.74,14.55a1.68,1.68,0,0,0,2.53-1.45V257.49a3.75,3.75,0,0,0-1.85-3.23l-24.62-14.48a1.76,1.76,0,0,0-2.65,1.52Z"/><path class="cls-1" d="M602.1,297.88l24.71,14.32a.31.31,0,0,0,.47-.27V260a1.11,1.11,0,0,0-.55-1l-24.52-14.21a.43.43,0,0,0-.65.37v51.71A1.11,1.11,0,0,0,602.1,297.88Z"/><polygon class="cls-2" points="629.22 278.21 631.35 277.05 631.35 276.25 629.22 277.42 629.22 278.21"/><polygon class="cls-2" points="629.22 279.97 631.35 278.81 631.35 278.02 629.22 279.18 629.22 279.97"/><polygon class="cls-2" points="629.22 281.73 631.35 280.57 631.35 279.78 629.22 280.94 629.22 281.73"/><polygon class="cls-2" points="629.22 283.5 631.35 282.33 631.35 281.54 629.22 282.71 629.22 283.5"/><polygon class="cls-2" points="629.22 285.26 631.35 284.09 631.35 283.3 629.22 284.47 629.22 285.26"/><path class="cls-1" d="M630,274.07l.76-.44a.27.27,0,0,0,.12-.22v-5.19a.25.25,0,0,0-.38-.22l-.75.44a.25.25,0,0,0-.13.22v5.19A.25.25,0,0,0,630,274.07Z"/><polygon class="cls-1" points="629.77 274.06 630.1 274.27 630.1 273.63 629.77 273.42 629.77 274.06"/><polygon class="cls-1" points="630.78 268.64 631.11 268.85 631.11 268.21 630.78 268 630.78 268.64"/><path class="cls-24" d="M630.35,274.28l.76-.44a.27.27,0,0,0,.12-.22v-5.2a.26.26,0,0,0-.38-.22l-.75.44a.26.26,0,0,0-.13.22v5.2A.25.25,0,0,0,630.35,274.28Z"/><path class="cls-9" d="M588.77,285.68s2.09-11.11,8.1-16.58c3.63-3.3,9.53-2.23,13.21-3.5a2,2,0,0,1,2.46,2.64l-13.17,15.38Z"/></svg>