<svg xmlns="http://www.w3.org/2000/svg" xmlns:xlink="http://www.w3.org/1999/xlink" viewBox="0 0 1080 1080"><defs><style>.cls-1{isolation:isolate;}.cls-2{fill:#171930;}.cls-3{fill:url(#Áåçûìÿííûé_ãðàäèåíò_10);}.cls-4{fill:url(#Áåçûìÿííûé_ãðàäèåíò_6);}.cls-14,.cls-36,.cls-5{fill:#fff;}.cls-6{fill:url(#Áåçûìÿííûé_ãðàäèåíò_9);}.cls-7,.cls-8{opacity:0.7;mix-blend-mode:lighten;}.cls-7{fill:url(#Áåçûìÿííûé_ãðàäèåíò_8);}.cls-8{fill:url(#Áåçûìÿííûé_ãðàäèåíò_8-2);}.cls-9{fill:url(#Áåçûìÿííûé_ãðàäèåíò_5);}.cls-10{fill:url(#Áåçûìÿííûé_ãðàäèåíò_7);}.cls-11{fill:url(#Áåçûìÿííûé_ãðàäèåíò_4);}.cls-12{fill:url(#Áåçûìÿííûé_ãðàäèåíò_5-2);}.cls-13{fill:url(#Áåçûìÿííûé_ãðàäèåíò_7-2);}.cls-14{opacity:0.2;}.cls-15{fill:url(#Áåçûìÿííûé_ãðàäèåíò_5-3);}.cls-16{fill:url(#Áåçûìÿííûé_ãðàäèåíò_7-3);}.cls-17{fill:url(#Áåçûìÿííûé_ãðàäèåíò_4-2);}.cls-18{fill:url(#Áåçûìÿííûé_ãðàäèåíò_5-4);}.cls-19{fill:url(#Áåçûìÿííûé_ãðàäèåíò_7-4);}.cls-20{fill:url(#Áåçûìÿííûé_ãðàäèåíò_5-5);}.cls-21{fill:url(#Áåçûìÿííûé_ãðàäèåíò_7-5);}.cls-22{fill:url(#Áåçûìÿííûé_ãðàäèåíò_4-3);}.cls-23{fill:url(#Áåçûìÿííûé_ãðàäèåíò_5-6);}.cls-24{fill:url(#Áåçûìÿííûé_ãðàäèåíò_7-6);}.cls-25,.cls-43{fill:#e5e4e4;}.cls-26{fill:url(#Áåçûìÿííûé_ãðàäèåíò_5-7);}.cls-27{fill:url(#Áåçûìÿííûé_ãðàäèåíò_7-7);}.cls-28{fill:url(#Áåçûìÿííûé_ãðàäèåíò_4-4);}.cls-29{fill:url(#Áåçûìÿííûé_ãðàäèåíò_5-8);}.cls-30{fill:url(#Áåçûìÿííûé_ãðàäèåíò_7-8);}.cls-31{fill:#e62c2b;}.cls-32{fill:url(#Áåçûìÿííûé_ãðàäèåíò_4-5);}.cls-33{fill:url(#Áåçûìÿííûé_ãðàäèåíò_5-9);}.cls-34{fill:url(#Áåçûìÿííûé_ãðàäèåíò_7-9);}.cls-35{fill:url(#Áåçûìÿííûé_ãðàäèåíò_4-6);}.cls-36,.cls-43,.cls-62{opacity:0.5;}.cls-37{fill:url(#Áåçûìÿííûé_ãðàäèåíò_4-7);}.cls-38{fill:url(#Áåçûìÿííûé_ãðàäèåíò_4-8);}.cls-39{fill:url(#Áåçûìÿííûé_ãðàäèåíò_7-10);}.cls-40{fill:url(#Áåçûìÿííûé_ãðàäèåíò_5-10);}.cls-41{fill:url(#Áåçûìÿííûé_ãðàäèåíò_7-11);}.cls-42{fill:url(#Áåçûìÿííûé_ãðàäèåíò_7-12);}.cls-44{fill:url(#Áåçûìÿííûé_ãðàäèåíò_4-9);}.cls-45{fill:url(#Áåçûìÿííûé_ãðàäèåíò_4-10);}.cls-46{fill:url(#Áåçûìÿííûé_ãðàäèåíò_7-13);}.cls-47{fill:url(#Áåçûìÿííûé_ãðàäèåíò_5-11);}.cls-48{fill:url(#Áåçûìÿííûé_ãðàäèåíò_7-14);}.cls-49{fill:url(#Áåçûìÿííûé_ãðàäèåíò_7-15);}.cls-50{fill:url(#Áåçûìÿííûé_ãðàäèåíò_4-11);}.cls-51{fill:url(#Áåçûìÿííûé_ãðàäèåíò_4-12);}.cls-52{fill:url(#Áåçûìÿííûé_ãðàäèåíò_7-16);}.cls-53{fill:url(#Áåçûìÿííûé_ãðàäèåíò_5-12);}.cls-54{fill:url(#Áåçûìÿííûé_ãðàäèåíò_7-17);}.cls-55{fill:url(#Áåçûìÿííûé_ãðàäèåíò_7-18);}.cls-56{fill:url(#Áåçûìÿííûé_ãðàäèåíò_4-13);}.cls-57{fill:url(#Áåçûìÿííûé_ãðàäèåíò_4-14);}.cls-58{fill:url(#Áåçûìÿííûé_ãðàäèåíò_7-19);}.cls-59{fill:url(#Áåçûìÿííûé_ãðàäèåíò_5-13);}.cls-60{fill:url(#Áåçûìÿííûé_ãðàäèåíò_7-20);}.cls-61{fill:url(#Áåçûìÿííûé_ãðàäèåíò_7-21);}.cls-63{fill:#e0e0e0;}.cls-64{fill:url(#Áåçûìÿííûé_ãðàäèåíò_6-2);}.cls-65{fill:url(#Áåçûìÿííûé_ãðàäèåíò_4-15);}.cls-66{fill:url(#Áåçûìÿííûé_ãðàäèåíò_5-14);}.cls-67{fill:url(#Áåçûìÿííûé_ãðàäèåíò_4-16);}.cls-68{fill:url(#Áåçûìÿííûé_ãðàäèåíò_4-17);}.cls-69{fill:url(#Áåçûìÿííûé_ãðàäèåíò_4-18);}</style><radialGradient id="Áåçûìÿííûé_ãðàäèåíò_10" cx="505.45" cy="21.92" r="159.89" gradientUnits="userSpaceOnUse"><stop offset="0" stop-color="#e5e4e4"/><stop offset="1" stop-color="#e62c2b"/></radialGradient><linearGradient id="Áåçûìÿííûé_ãðàäèåíò_6" x1="16.77" y1="293.5" x2="335.55" y2="293.5" gradientUnits="userSpaceOnUse"><stop offset="0" stop-color="#e5e4e4"/><stop offset="1" stop-color="#e5e4e4"/></linearGradient><linearGradient id="Áåçûìÿííûé_ãðàäèåíò_9" x1="57.73" y1="427.66" x2="377.98" y2="427.66" gradientTransform="matrix(0.87, -0.5, 0, 1.15, 20.53, -98.56)" gradientUnits="userSpaceOnUse"><stop offset="0" stop-color="#171930"/><stop offset="1" stop-color="#171930"/></linearGradient><linearGradient id="Áåçûìÿííûé_ãðàäèåíò_8" x1="503.16" y1="686.18" x2="111.02" y2="362.73" xlink:href="#Áåçûìÿííûé_ãðàäèåíò_9"/><linearGradient id="Áåçûìÿííûé_ãðàäèåíò_8-2" x1="353.59" y1="248.38" x2="297.48" y2="202.1" gradientTransform="matrix(1, 0, 0, 1, 0, 0)" xlink:href="#Áåçûìÿííûé_ãðàäèåíò_9"/><linearGradient id="Áåçûìÿííûé_ãðàäèåíò_5" x1="-3240.97" y1="373.77" x2="-3177.48" y2="417.54" gradientTransform="matrix(-1, 0, 0, 1, -3031.07, 0)" gradientUnits="userSpaceOnUse"><stop offset="0" stop-color="#e62c2b"/><stop offset="1" stop-color="#e62c2b"/></linearGradient><linearGradient id="Áåçûìÿííûé_ãðàäèåíò_7" x1="-3223.85" y1="352.17" x2="-3152.41" y2="382.86" gradientTransform="matrix(-1, 0, 0, 1, -3031.07, 0)" xlink:href="#Áåçûìÿííûé_ãðàäèåíò_6"/><linearGradient id="Áåçûìÿííûé_ãðàäèåíò_4" x1="-3192.4" y1="384.71" x2="-3124.63" y2="405.14" xlink:href="#Áåçûìÿííûé_ãðàäèåíò_5"/><linearGradient id="Áåçûìÿííûé_ãðàäèåíò_5-2" x1="-3574.71" y1="556.02" x2="-3488.76" y2="556.02" xlink:href="#Áåçûìÿííûé_ãðàäèåíò_5"/><linearGradient id="Áåçûìÿííûé_ãðàäèåíò_7-2" x1="-3513.29" y1="505.13" x2="-3194.17" y2="505.13" gradientTransform="matrix(-1, 0, 0, 1, -3031.07, 0)" xlink:href="#Áåçûìÿííûé_ãðàäèåíò_6"/><linearGradient id="Áåçûìÿííûé_ãðàäèåíò_5-3" x1="-3322.3" y1="326.64" x2="-3258.81" y2="370.4" xlink:href="#Áåçûìÿííûé_ãðàäèåíò_5"/><linearGradient id="Áåçûìÿííûé_ãðàäèåíò_7-3" x1="-3305.17" y1="305.03" x2="-3233.73" y2="335.72" gradientTransform="matrix(-1, 0, 0, 1, -3031.07, 0)" xlink:href="#Áåçûìÿííûé_ãðàäèåíò_6"/><linearGradient id="Áåçûìÿííûé_ãðàäèåíò_4-2" x1="-3273.72" y1="337.57" x2="-3205.95" y2="358" xlink:href="#Áåçûìÿííûé_ãðàäèåíò_5"/><linearGradient id="Áåçûìÿííûé_ãðàäèåíò_5-4" x1="-3656.03" y1="508.88" x2="-3570.08" y2="508.88" xlink:href="#Áåçûìÿííûé_ãðàäèåíò_5"/><linearGradient id="Áåçûìÿííûé_ãðàäèåíò_7-4" x1="-3594.62" y1="457.99" x2="-3275.49" y2="457.99" gradientTransform="matrix(-1, 0, 0, 1, -3031.07, 0)" xlink:href="#Áåçûìÿííûé_ãðàäèåíò_6"/><linearGradient id="Áåçûìÿííûé_ãðàäèåíò_5-5" x1="-3403.62" y1="279.5" x2="-3340.13" y2="323.27" xlink:href="#Áåçûìÿííûé_ãðàäèåíò_5"/><linearGradient id="Áåçûìÿííûé_ãðàäèåíò_7-5" x1="-3386.49" y1="257.89" x2="-3315.05" y2="288.58" gradientTransform="matrix(-1, 0, 0, 1, -3031.07, 0)" xlink:href="#Áåçûìÿííûé_ãðàäèåíò_6"/><linearGradient id="Áåçûìÿííûé_ãðàäèåíò_4-3" x1="-3355.04" y1="290.43" x2="-3287.27" y2="310.86" xlink:href="#Áåçûìÿííûé_ãðàäèåíò_5"/><linearGradient id="Áåçûìÿííûé_ãðàäèåíò_5-6" x1="-3737.35" y1="461.74" x2="-3651.4" y2="461.74" xlink:href="#Áåçûìÿííûé_ãðàäèåíò_5"/><linearGradient id="Áåçûìÿííûé_ãðàäèåíò_7-6" x1="-3675.94" y1="410.85" x2="-3356.81" y2="410.85" gradientTransform="matrix(-1, 0, 0, 1, -3031.07, 0)" xlink:href="#Áåçûìÿííûé_ãðàäèåíò_6"/><linearGradient id="Áåçûìÿííûé_ãðàäèåíò_5-7" x1="-3871.3" y1="574.7" x2="-3612.14" y2="753.36" xlink:href="#Áåçûìÿííûé_ãðàäèåíò_5"/><linearGradient id="Áåçûìÿííûé_ãðàäèåíò_7-7" x1="-3801.4" y1="486.51" x2="-3509.79" y2="611.78" gradientTransform="matrix(-1, 0, 0, 1, -3031.07, 0)" xlink:href="#Áåçûìÿííûé_ãðàäèåíò_6"/><linearGradient id="Áåçûìÿííûé_ãðàäèåíò_4-4" x1="-3673.02" y1="619.34" x2="-3396.39" y2="702.73" xlink:href="#Áåçûìÿííûé_ãðàäèåíò_5"/><linearGradient id="Áåçûìÿííûé_ãðàäèåíò_5-8" x1="-3871.3" y1="427.43" x2="-3612.14" y2="606.09" xlink:href="#Áåçûìÿííûé_ãðàäèåíò_5"/><linearGradient id="Áåçûìÿííûé_ãðàäèåíò_7-8" x1="-3801.4" y1="339.23" x2="-3509.79" y2="464.51" gradientTransform="matrix(-1, 0, 0, 1, -3031.07, 0)" xlink:href="#Áåçûìÿííûé_ãðàäèåíò_6"/><linearGradient id="Áåçûìÿííûé_ãðàäèåíò_4-5" x1="-3673.02" y1="472.06" x2="-3396.39" y2="555.46" xlink:href="#Áåçûìÿííûé_ãðàäèåíò_5"/><linearGradient id="Áåçûìÿííûé_ãðàäèåíò_5-9" x1="-3858.39" y1="311.08" x2="-3626.77" y2="470.76" xlink:href="#Áåçûìÿííûé_ãðàäèåíò_5"/><linearGradient id="Áåçûìÿííûé_ãðàäèåíò_7-9" x1="-3801.4" y1="241.1" x2="-3509.79" y2="366.38" gradientTransform="matrix(-1, 0, 0, 1, -3031.07, 0)" xlink:href="#Áåçûìÿííûé_ãðàäèåíò_6"/><linearGradient id="Áåçûìÿííûé_ãðàäèåíò_4-6" x1="-3662.32" y1="350.04" x2="-3408.51" y2="426.56" xlink:href="#Áåçûìÿííûé_ãðàäèåíò_5"/><linearGradient id="Áåçûìÿííûé_ãðàäèåíò_4-7" x1="-3643.24" y1="610.61" x2="-3325.38" y2="706.44" xlink:href="#Áåçûìÿííûé_ãðàäèåíò_5"/><linearGradient id="Áåçûìÿííûé_ãðàäèåíò_4-8" x1="-3619.95" y1="645.76" x2="-3292.34" y2="699.5" xlink:href="#Áåçûìÿííûé_ãðàäèåíò_5"/><linearGradient id="Áåçûìÿííûé_ãðàäèåíò_7-10" x1="-3578.26" y1="509.77" x2="-3375.28" y2="596.05" gradientTransform="matrix(-1, 0, 0, 1, -3031.07, 0)" xlink:href="#Áåçûìÿííûé_ãðàäèåíò_6"/><linearGradient id="Áåçûìÿííûé_ãðàäèåíò_5-10" x1="-3634.17" y1="694.74" x2="-3456.38" y2="771.85" xlink:href="#Áåçûìÿííûé_ãðàäèåíò_5"/><linearGradient id="Áåçûìÿííûé_ãðàäèåíò_7-11" x1="-3445.47" y1="600.28" x2="-3369.93" y2="640.95" gradientTransform="matrix(-1, 0, 0, 1, -3031.07, 0)" xlink:href="#Áåçûìÿííûé_ãðàäèåíò_6"/><linearGradient id="Áåçûìÿííûé_ãðàäèåíò_7-12" x1="-3541.46" y1="748.41" x2="-3393.77" y2="748.41" gradientTransform="matrix(-1, 0, 0, 1, -3031.07, 0)" xlink:href="#Áåçûìÿííûé_ãðàäèåíò_6"/><linearGradient id="Áåçûìÿííûé_ãðàäèåíò_4-9" x1="-3579.94" y1="647.11" x2="-3262.08" y2="742.94" xlink:href="#Áåçûìÿííûé_ãðàäèåíò_5"/><linearGradient id="Áåçûìÿííûé_ãðàäèåíò_4-10" x1="-3556.65" y1="682.26" x2="-3229.04" y2="735.99" xlink:href="#Áåçûìÿííûé_ãðàäèåíò_5"/><linearGradient id="Áåçûìÿííûé_ãðàäèåíò_7-13" x1="-3514.96" y1="546.27" x2="-3311.98" y2="632.54" gradientTransform="matrix(-1, 0, 0, 1, -3031.07, 0)" xlink:href="#Áåçûìÿííûé_ãðàäèåíò_6"/><linearGradient id="Áåçûìÿííûé_ãðàäèåíò_5-11" x1="-3570.88" y1="731.23" x2="-3393.09" y2="808.34" xlink:href="#Áåçûìÿííûé_ãðàäèåíò_5"/><linearGradient id="Áåçûìÿííûé_ãðàäèåíò_7-14" x1="-3382.17" y1="636.78" x2="-3306.63" y2="677.45" gradientTransform="matrix(-1, 0, 0, 1, -3031.07, 0)" xlink:href="#Áåçûìÿííûé_ãðàäèåíò_6"/><linearGradient id="Áåçûìÿííûé_ãðàäèåíò_7-15" x1="-3478.16" y1="784.91" x2="-3330.47" y2="784.91" gradientTransform="matrix(-1, 0, 0, 1, -3031.07, 0)" xlink:href="#Áåçûìÿííûé_ãðàäèåíò_6"/><linearGradient id="Áåçûìÿííûé_ãðàäèåíò_4-11" x1="-6695.71" y1="610.61" x2="-6377.85" y2="706.44" gradientTransform="translate(7313.96)" xlink:href="#Áåçûìÿííûé_ãðàäèåíò_5"/><linearGradient id="Áåçûìÿííûé_ãðàäèåíò_4-12" x1="-6672.42" y1="645.76" x2="-6344.8" y2="699.5" gradientTransform="translate(7313.96)" xlink:href="#Áåçûìÿííûé_ãðàäèåíò_5"/><linearGradient id="Áåçûìÿííûé_ãðàäèåíò_7-16" x1="-6630.72" y1="509.77" x2="-6427.75" y2="596.05" gradientTransform="translate(7313.96)" xlink:href="#Áåçûìÿííûé_ãðàäèåíò_6"/><linearGradient id="Áåçûìÿííûé_ãðàäèåíò_5-12" x1="-6686.64" y1="694.74" x2="-6508.85" y2="771.85" gradientTransform="translate(7313.96)" xlink:href="#Áåçûìÿííûé_ãðàäèåíò_5"/><linearGradient id="Áåçûìÿííûé_ãðàäèåíò_7-17" x1="-6497.93" y1="600.28" x2="-6422.4" y2="640.95" gradientTransform="translate(7313.96)" xlink:href="#Áåçûìÿííûé_ãðàäèåíò_6"/><linearGradient id="Áåçûìÿííûé_ãðàäèåíò_7-18" x1="-6593.92" y1="748.41" x2="-6446.23" y2="748.41" gradientTransform="translate(7313.96)" xlink:href="#Áåçûìÿííûé_ãðàäèåíò_6"/><linearGradient id="Áåçûìÿííûé_ãðàäèåíò_4-13" x1="-6632.41" y1="647.11" x2="-6314.55" y2="742.94" gradientTransform="translate(7313.96)" xlink:href="#Áåçûìÿííûé_ãðàäèåíò_5"/><linearGradient id="Áåçûìÿííûé_ãðàäèåíò_4-14" x1="-6609.12" y1="682.26" x2="-6281.51" y2="735.99" gradientTransform="translate(7313.96)" xlink:href="#Áåçûìÿííûé_ãðàäèåíò_5"/><linearGradient id="Áåçûìÿííûé_ãðàäèåíò_7-19" x1="-6567.43" y1="546.27" x2="-6364.45" y2="632.54" gradientTransform="translate(7313.96)" xlink:href="#Áåçûìÿííûé_ãðàäèåíò_6"/><linearGradient id="Áåçûìÿííûé_ãðàäèåíò_5-13" x1="-6623.34" y1="731.23" x2="-6445.55" y2="808.34" gradientTransform="translate(7313.96)" xlink:href="#Áåçûìÿííûé_ãðàäèåíò_5"/><linearGradient id="Áåçûìÿííûé_ãðàäèåíò_7-20" x1="-6434.64" y1="636.78" x2="-6359.1" y2="677.45" gradientTransform="translate(7313.96)" xlink:href="#Áåçûìÿííûé_ãðàäèåíò_6"/><linearGradient id="Áåçûìÿííûé_ãðàäèåíò_7-21" x1="-6530.62" y1="784.91" x2="-6382.93" y2="784.91" gradientTransform="translate(7313.96)" xlink:href="#Áåçûìÿííûé_ãðàäèåíò_6"/><linearGradient id="Áåçûìÿííûé_ãðàäèåíò_6-2" x1="875.96" y1="119.13" x2="755.45" y2="26.03" xlink:href="#Áåçûìÿííûé_ãðàäèåíò_6"/><linearGradient id="Áåçûìÿííûé_ãðàäèåíò_4-15" x1="876.44" y1="163.54" x2="943.87" y2="163.54" gradientTransform="matrix(1, 0, 0, 1, 0, 0)" xlink:href="#Áåçûìÿííûé_ãðàäèåíò_5"/><linearGradient id="Áåçûìÿííûé_ãðàäèåíò_5-14" x1="791.59" y1="158.51" x2="876.44" y2="158.51" gradientTransform="matrix(1, 0, 0, 1, 0, 0)" xlink:href="#Áåçûìÿííûé_ãðàäèåíò_5"/><linearGradient id="Áåçûìÿííûé_ãðàäèåíò_4-16" x1="807.03" y1="111.75" x2="843.78" y2="111.75" gradientTransform="matrix(1, 0, 0, 1, 0, 0)" xlink:href="#Áåçûìÿííûé_ãðàäèåíò_5"/><linearGradient id="Áåçûìÿííûé_ãðàäèåíò_4-17" x1="830.36" y1="125.21" x2="867.11" y2="125.21" gradientTransform="matrix(1, 0, 0, 1, 0, 0)" xlink:href="#Áåçûìÿííûé_ãðàäèåíò_5"/><linearGradient id="Áåçûìÿííûé_ãðàäèåíò_4-18" x1="853.72" y1="138.7" x2="890.47" y2="138.7" gradientTransform="matrix(1, 0, 0, 1, 0, 0)" xlink:href="#Áåçûìÿííûé_ãðàäèåíò_5"/></defs><g class="cls-1"><g id="Layer_1" data-name="Layer 1"><path class="cls-2" d="M291.66,262.73,81.86,633.9a119.53,119.53,0,0,0,37.22,157.91l321.33,216.75a119.54,119.54,0,0,0,93.81,17.36L970,925a119.51,119.51,0,0,0,92.55-116.23l.64-366.31A119.52,119.52,0,0,0,969.41,325.5l-548-120.68A119.52,119.52,0,0,0,291.66,262.73Z"/><path class="cls-3" d="M525.25,169.92l43.53-75.3a18.61,18.61,0,0,0-12.37-27.55L479.77,51.34A16.56,16.56,0,0,0,460,65.65L449.57,155.4a16.56,16.56,0,0,0,14.86,18.39l44.89,4.33A16.56,16.56,0,0,0,525.25,169.92Z"/><path class="cls-4" d="M335.55,202.08l-54.3-31.55v0c-8.11-4.83-19.37-4.22-31.84,3a70.85,70.85,0,0,0-11.75,8.62L215.79,169.5h0c-12-8.45-29.42-8.08-48.78,3.1-24.49,14.14-45.84,42-57.13,71.42a26.63,26.63,0,0,0-12.33,3.9c-16,9.23-28.93,31.67-28.93,50.12,0,.4,0,.76.05,1.15a34.94,34.94,0,0,0-14.9,5c-20.44,11.8-37,40.5-37,64.1,0,11.7,4.07,19.94,10.67,23.85h0l.17.09,0,0,53.59,31.11,11.71-56.3,156.5-90.36c20-11.55,36.93-36.5,42.63-60.72Z"/><path class="cls-5" d="M18.24,369.56c0-23.6,16.57-52.31,37-64.11a34.91,34.91,0,0,1,14.9-5c0-.39-.05-.75-.05-1.15,0-18.46,13-40.9,28.94-50.12a26.56,26.56,0,0,1,12.32-3.9C122.65,215.83,144,188,168.49,173.87c19.36-11.17,36.76-11.54,48.78-3.09h0l21.88,12.64a71.78,71.78,0,0,1,11.75-8.61c12.47-7.2,23.74-7.8,31.84-3h0l52.35,30.42.47-.15-54.3-31.55v0c-8.11-4.83-19.37-4.22-31.84,3a70.85,70.85,0,0,0-11.75,8.62L215.79,169.5h0c-12-8.45-29.42-8.08-48.78,3.1-24.49,14.14-45.84,42-57.13,71.42a26.63,26.63,0,0,0-12.33,3.9c-16,9.23-28.93,31.67-28.93,50.12,0,.4,0,.76.05,1.15a34.94,34.94,0,0,0-14.9,5c-20.44,11.8-37,40.5-37,64.1,0,10.63,3.38,18.36,8.94,22.62C21,386.45,18.24,379.2,18.24,369.56Z"/><path class="cls-6" d="M303.18,204.73a79.26,79.26,0,0,0-19.57,16.5c-8.21-26.35-33.23-34.52-62.83-17.43-24.49,14.14-45.84,42-57.13,71.42a26.59,26.59,0,0,0-12.33,3.9c-16,9.23-28.94,31.67-28.94,50.13,0,.39,0,.76.06,1.14a35.08,35.08,0,0,0-14.9,5c-20.44,11.8-37,40.5-37,64.11s16.57,33.17,37,21.37l195.64-113c24.68-14.24,44.68-48.89,44.68-77.38S327.86,190.48,303.18,204.73Z"/><path class="cls-7" d="M303.18,204.73a79.26,79.26,0,0,0-19.57,16.5c-8.21-26.35-33.23-34.52-62.83-17.43-24.49,14.14-45.84,42-57.13,71.42a26.59,26.59,0,0,0-12.33,3.9c-16,9.23-28.94,31.67-28.94,50.13,0,.39,0,.76.06,1.14a35.08,35.08,0,0,0-14.9,5c-20.44,11.8-37,40.5-37,64.11s16.57,33.17,37,21.37l195.64-113c24.68-14.24,44.68-48.89,44.68-77.38S327.86,190.48,303.18,204.73Z"/><path class="cls-5" d="M303.18,204.73a79.26,79.26,0,0,0-19.57,16.5c-8.21-26.35-33.23-34.52-62.83-17.43-24.49,14.14-45.84,42-57.13,71.42a26.59,26.59,0,0,0-12.33,3.9c-16,9.23-28.94,31.67-28.94,50.13,0,.39,0,.76.06,1.14a35.08,35.08,0,0,0-14.9,5c-20.44,11.8-37,40.5-37,64.11s16.57,33.17,37,21.37l195.64-113c24.68-14.24,44.68-48.89,44.68-77.38S327.86,190.48,303.18,204.73Z"/><path class="cls-8" d="M286,224.21a79.09,79.09,0,0,1,19.57-16.51c15.15-8.75,28.51-7.74,36.59.91-7.65-11.31-22.22-13.55-39-3.88a78.4,78.4,0,0,0-18.65,15.52C285.05,221.53,285.55,222.83,286,224.21Z"/><polygon class="cls-9" points="154.84 420.12 205.44 390.9 205.44 368.46 154.84 397.68 154.84 420.12"/><polygon class="cls-10" points="154.84 397.68 205.44 368.46 154.85 339.25 104.25 368.46 154.84 397.68"/><polygon class="cls-11" points="104.25 390.9 154.84 420.12 154.84 397.68 104.25 368.46 104.25 390.9"/><polygon class="cls-2" points="154.84 396.55 204.47 367.9 205.44 368.46 154.84 397.68 104.25 368.46 105.22 367.9 154.84 396.55"/><polygon class="cls-5" points="164.59 401.65 193.95 384.51 218.69 404.32 220.78 421.41 220.78 437 451.65 573.14 476.07 587.56 472.35 598.73 455.37 605.47 316.84 532.12 257.42 494.92 205.44 466.08 190.89 454.91 189.96 431.18 188.1 416.76 164.59 401.65"/><path class="cls-5" d="M454.13,609.41a28.21,28.21,0,0,0,28.09-28.15v-79a3.84,3.84,0,0,0-7.67,0v79A20.43,20.43,0,0,1,443.91,599l-242.46-140a14.53,14.53,0,0,1-7.24-12.54V428.8a22.2,22.2,0,0,0-11.07-19.18l-14.29-8.25A3.84,3.84,0,1,0,165,408l14.28,8.24a14.53,14.53,0,0,1,7.24,12.54v17.58a22.23,22.23,0,0,0,11.07,19.19l242.47,140A28,28,0,0,0,454.13,609.41Z"/><path class="cls-5" d="M192.53,385.92a3.82,3.82,0,0,1,5.24-1.4l14.29,8.24A22.23,22.23,0,0,1,223.13,412v17.58a14.54,14.54,0,0,0,7.24,12.54l248,143.21a20.61,20.61,0,0,0,8.34,2.67c-.26,2.54-.16,5.12-.37,7.68a28.12,28.12,0,0,1-11.8-3.7l-248-143.22a22.2,22.2,0,0,1-11.07-19.18V412a14.53,14.53,0,0,0-7.24-12.54l-14.28-8.25A3.83,3.83,0,0,1,192.53,385.92Z"/><path class="cls-12" d="M465.18,607.1l11.68-14.6,1.65-17.27V533.36l-.11-15.56L509,523V508.78a3.84,3.84,0,1,1,7.67,0v58.81a27.82,27.82,0,0,1-14,24.34,29.42,29.42,0,0,1-4.89,2.24h0Z"/><path class="cls-13" d="M454.13,609.41a28.21,28.21,0,0,0,28.09-28.15v-79a3.84,3.84,0,0,0-7.67,0v79A20.43,20.43,0,0,1,443.91,599l-242.46-140a14.53,14.53,0,0,1-7.24-12.54V428.8a22.2,22.2,0,0,0-11.07-19.18l-14.29-8.25A3.84,3.84,0,1,0,165,408l14.28,8.24a14.53,14.53,0,0,1,7.24,12.54v17.58a22.23,22.23,0,0,0,11.07,19.19l242.47,140A28,28,0,0,0,454.13,609.41Z"/><polygon class="cls-14" points="144.17 409.36 149.33 412.34 149.33 401.96 144.17 398.98 144.17 409.36"/><polygon class="cls-14" points="135.56 404.39 140.73 407.37 140.73 397 135.56 394.01 135.56 404.39"/><polygon class="cls-14" points="126.96 399.42 132.13 402.4 132.13 392.03 126.96 389.05 126.96 399.42"/><polygon class="cls-5" points="118.36 394.46 123.53 397.44 123.53 387.06 118.36 384.08 118.36 394.46"/><polygon class="cls-5" points="109.76 389.49 114.92 392.47 114.92 382.1 109.76 379.12 109.76 389.49"/><polygon class="cls-15" points="236.17 372.98 286.77 343.76 286.77 321.33 236.17 350.54 236.17 372.98"/><polygon class="cls-16" points="236.17 350.54 286.77 321.32 236.17 292.11 185.57 321.33 236.17 350.54"/><polygon class="cls-17" points="185.57 343.76 236.17 372.98 236.17 350.54 185.57 321.33 185.57 343.76"/><polygon class="cls-2" points="236.17 349.42 285.79 320.76 286.77 321.32 236.17 350.54 185.57 321.33 186.54 320.76 236.17 349.42"/><polygon class="cls-5" points="245.91 354.52 275.27 337.37 300.01 357.18 302.1 374.28 302.1 389.86 532.97 526 557.39 540.42 553.67 551.59 536.69 558.34 513.2 551.36 453.78 514.16 286.77 418.94 272.21 407.77 271.28 384.05 269.42 369.62 245.91 354.52"/><path class="cls-5" d="M535.45,562.27a28.21,28.21,0,0,0,28.1-28.14v-79a3.84,3.84,0,1,0-7.68,0v79a20.42,20.42,0,0,1-30.63,17.68l-242.47-140a14.52,14.52,0,0,1-7.23-12.54V381.66a22.21,22.21,0,0,0-11.08-19.18l-14.28-8.25a3.84,3.84,0,1,0-3.84,6.65l14.28,8.24a14.52,14.52,0,0,1,7.24,12.54v17.58a22.22,22.22,0,0,0,11.08,19.19l242.46,140A28,28,0,0,0,535.45,562.27Z"/><path class="cls-5" d="M273.85,338.78a3.85,3.85,0,0,1,5.25-1.4l14.28,8.24a22.24,22.24,0,0,1,11.08,19.19v17.58a14.53,14.53,0,0,0,7.23,12.54l248,143.21a20.37,20.37,0,0,0,8.34,2.67c-.27,2.54-.17,5.13-.38,7.68a28.12,28.12,0,0,1-11.8-3.7l-248-143.21a22.22,22.22,0,0,1-11.08-19.19V364.81a14.51,14.51,0,0,0-7.24-12.54L275.26,344A3.83,3.83,0,0,1,273.85,338.78Z"/><path class="cls-18" d="M546.51,560l11.67-14.59,1.66-17.28V486.22l-.12-15.56,30.58,5.2V461.64a3.84,3.84,0,0,1,7.68,0v58.81a27.84,27.84,0,0,1-14.05,24.34A29.08,29.08,0,0,1,579,547h0Z"/><path class="cls-19" d="M535.45,562.27a28.21,28.21,0,0,0,28.1-28.14v-79a3.84,3.84,0,1,0-7.68,0v79a20.42,20.42,0,0,1-30.63,17.68l-242.47-140a14.52,14.52,0,0,1-7.23-12.54V381.66a22.21,22.21,0,0,0-11.08-19.18l-14.28-8.25a3.84,3.84,0,1,0-3.84,6.65l14.28,8.24a14.52,14.52,0,0,1,7.24,12.54v17.58a22.22,22.22,0,0,0,11.08,19.19l242.46,140A28,28,0,0,0,535.45,562.27Z"/><polygon class="cls-14" points="225.49 362.22 230.65 365.2 230.65 354.82 225.49 351.84 225.49 362.22"/><polygon class="cls-14" points="216.89 357.25 222.05 360.23 222.05 349.86 216.89 346.88 216.89 357.25"/><polygon class="cls-5" points="208.28 352.28 213.45 355.27 213.45 344.89 208.28 341.91 208.28 352.28"/><polygon class="cls-5" points="199.68 347.32 204.85 350.3 204.85 339.93 199.68 336.94 199.68 347.32"/><polygon class="cls-5" points="191.08 342.35 196.25 345.33 196.25 334.96 191.08 331.98 191.08 342.35"/><polygon class="cls-20" points="317.49 325.84 368.09 296.63 368.09 274.19 317.49 303.4 317.49 325.84"/><polygon class="cls-21" points="317.49 303.4 368.09 274.19 317.49 244.97 266.89 274.19 317.49 303.4"/><polygon class="cls-22" points="266.89 296.63 317.49 325.84 317.49 303.4 266.89 274.19 266.89 296.63"/><polygon class="cls-2" points="317.49 302.28 367.12 273.63 368.09 274.19 317.49 303.4 266.89 274.19 267.86 273.63 317.49 302.28"/><polygon class="cls-5" points="327.23 307.38 356.6 290.23 381.33 310.04 383.42 327.14 383.42 342.72 614.29 478.86 638.72 493.29 634.99 504.45 618.01 511.2 594.52 504.22 535.1 467.02 368.09 371.8 353.53 360.63 352.6 336.91 350.74 322.49 327.23 307.38"/><path class="cls-5" d="M616.77,515.13A28.21,28.21,0,0,0,644.87,487V408a3.84,3.84,0,0,0-7.68,0v79a20.42,20.42,0,0,1-30.63,17.68l-242.46-140a14.5,14.5,0,0,1-7.24-12.54V334.52a22.21,22.21,0,0,0-11.08-19.18l-14.28-8.25a3.84,3.84,0,0,0-3.84,6.65L341.94,322a14.49,14.49,0,0,1,7.24,12.53V352.1a22.22,22.22,0,0,0,11.08,19.19l242.46,140A28,28,0,0,0,616.77,515.13Z"/><path class="cls-5" d="M355.18,291.64a3.84,3.84,0,0,1,5.24-1.4l14.28,8.25a22.21,22.21,0,0,1,11.08,19.18v17.58A14.51,14.51,0,0,0,393,347.79L641,491a20.41,20.41,0,0,0,8.34,2.67c-.27,2.54-.17,5.13-.38,7.69a28.28,28.28,0,0,1-11.8-3.71l-248-143.21a22.24,22.24,0,0,1-11.08-19.19V317.67a14.51,14.51,0,0,0-7.24-12.54l-14.28-8.24A3.84,3.84,0,0,1,355.18,291.64Z"/><path class="cls-23" d="M627.83,512.83l11.67-14.6L641.16,481V439.09L641,423.53l30.58,5.2V414.5a3.84,3.84,0,1,1,7.68,0v58.82a27.81,27.81,0,0,1-14,24.33,28.73,28.73,0,0,1-4.9,2.24h0Z"/><path class="cls-24" d="M616.77,515.13A28.21,28.21,0,0,0,644.87,487V408a3.84,3.84,0,0,0-7.68,0v79a20.42,20.42,0,0,1-30.63,17.68l-242.46-140a14.5,14.5,0,0,1-7.24-12.54V334.52a22.21,22.21,0,0,0-11.08-19.18l-14.28-8.25a3.84,3.84,0,0,0-3.84,6.65L341.94,322a14.49,14.49,0,0,1,7.24,12.53V352.1a22.22,22.22,0,0,0,11.08,19.19l242.46,140A28,28,0,0,0,616.77,515.13Z"/><polygon class="cls-14" points="306.81 315.08 311.98 318.06 311.98 307.69 306.81 304.7 306.81 315.08"/><polygon class="cls-5" points="298.21 310.11 303.37 313.09 303.37 302.72 298.21 299.74 298.21 310.11"/><polygon class="cls-5" points="289.61 305.15 294.77 308.13 294.77 297.75 289.61 294.77 289.61 305.15"/><polygon class="cls-5" points="281 300.18 286.17 303.16 286.17 292.79 281 289.81 281 300.18"/><polygon class="cls-5" points="272.4 295.21 277.57 298.19 277.57 287.82 272.4 284.84 272.4 295.21"/><polygon class="cls-25" points="615.48 935.22 808.91 823.55 615.49 711.88 422.06 823.55 615.48 935.22"/><polygon class="cls-26" points="615.48 763.87 822.02 644.62 822.02 553.03 615.48 672.27 615.48 763.87"/><polygon class="cls-27" points="615.48 672.27 822.02 553.03 615.49 433.79 408.95 553.03 615.48 672.27"/><polygon class="cls-5" points="615.48 643.81 772.73 553.03 615.49 462.25 458.24 553.03 615.48 643.81"/><polygon class="cls-28" points="408.95 644.62 615.48 763.87 615.48 672.27 408.95 553.03 408.95 644.62"/><polygon class="cls-29" points="615.48 616.59 822.02 497.35 822.02 405.76 615.48 525 615.48 616.59"/><polygon class="cls-30" points="615.48 525 822.02 405.75 615.49 286.51 408.95 405.76 615.48 525"/><polygon class="cls-2" points="615.48 520.41 818.05 403.46 822.02 405.75 615.48 525 408.95 405.76 412.92 403.46 615.48 520.41"/><polygon class="cls-2" points="615.48 667.68 818.05 550.73 822.02 553.03 615.48 672.27 408.95 553.03 412.92 550.74 615.48 667.68"/><polygon class="cls-5" points="615.49 332.13 760.22 415.69 615.48 499.26 470.75 415.69 615.49 332.13"/><polygon class="cls-31" points="615.49 332.13 470.75 415.69 453.53 405.76 615.49 312.25 777.43 405.75 760.22 415.69 615.49 332.13"/><polygon class="cls-32" points="408.95 497.35 615.48 616.59 615.48 525 408.95 405.76 408.95 497.35"/><path class="cls-5" d="M543.41,529.18c0,7.53,5.28,16.69,11.8,20.45s11.81.72,11.81-6.81-5.29-16.69-11.81-20.45S543.41,521.66,543.41,529.18Z"/><path class="cls-5" d="M500.41,504.36c0,7.53,5.28,16.68,11.8,20.45S524,525.52,524,518s-5.28-16.68-11.81-20.45S500.41,496.83,500.41,504.36Z"/><path class="cls-5" d="M457.41,479.53c0,7.53,5.29,16.69,11.81,20.45s11.8.71,11.8-6.81-5.28-16.69-11.8-20.45S457.41,472,457.41,479.53Z"/><path class="cls-2" d="M549.39,520.85a11.38,11.38,0,0,0-.89,4.64c0,7.53,5.29,16.68,11.81,20.45a10,10,0,0,0,5.82,1.52c-1.76,3.95-6,5-10.92,2.17-6.52-3.76-11.8-12.92-11.8-20.45C543.41,524.11,545.83,521.14,549.39,520.85Z"/><path class="cls-2" d="M506.39,496a11.45,11.45,0,0,0-.89,4.64c0,7.53,5.29,16.69,11.81,20.45a9.94,9.94,0,0,0,5.82,1.52c-1.76,4-6,5-10.92,2.18-6.52-3.77-11.8-12.92-11.8-20.45C500.41,499.29,502.83,496.32,506.39,496Z"/><path class="cls-2" d="M463.39,471.2a11.39,11.39,0,0,0-.88,4.64c0,7.53,5.28,16.68,11.8,20.45a10,10,0,0,0,5.83,1.52c-1.77,3.95-6,5-10.92,2.17-6.52-3.76-11.81-12.92-11.81-20.45C457.41,474.46,459.84,471.49,463.39,471.2Z"/><path class="cls-5" d="M543.41,676.46c0,7.53,5.28,16.68,11.8,20.45s11.81.71,11.81-6.82-5.29-16.69-11.81-20.45S543.41,668.93,543.41,676.46Z"/><path class="cls-5" d="M500.41,651.63c0,7.53,5.28,16.69,11.8,20.45s11.81.71,11.81-6.82-5.28-16.68-11.81-20.44S500.41,644.1,500.41,651.63Z"/><path class="cls-5" d="M457.41,626.81c0,7.52,5.29,16.68,11.81,20.44s11.8.72,11.8-6.81-5.28-16.69-11.8-20.45S457.41,619.28,457.41,626.81Z"/><path class="cls-2" d="M549.39,668.12a11.45,11.45,0,0,0-.89,4.64c0,7.53,5.29,16.69,11.81,20.45a10,10,0,0,0,5.82,1.52c-1.76,3.95-6,5-10.92,2.18-6.52-3.77-11.8-12.92-11.8-20.45C543.41,671.39,545.83,668.41,549.39,668.12Z"/><path class="cls-2" d="M506.39,643.29a11.47,11.47,0,0,0-.89,4.65c0,7.53,5.29,16.68,11.81,20.45a10.1,10.1,0,0,0,5.82,1.52c-1.76,4-6,5-10.92,2.17-6.52-3.77-11.8-12.92-11.8-20.45C500.41,646.56,502.83,643.59,506.39,643.29Z"/><path class="cls-2" d="M463.39,618.47a11.39,11.39,0,0,0-.88,4.64c0,7.53,5.28,16.69,11.8,20.45a10,10,0,0,0,5.83,1.52c-1.77,3.95-6,5-10.92,2.17-6.52-3.76-11.81-12.92-11.81-20.44C457.41,621.73,459.84,618.76,463.39,618.47Z"/><path class="cls-5" d="M687.65,530c0,7.52-5.29,16.68-11.81,20.44s-11.81.72-11.81-6.81,5.29-16.69,11.81-20.45S687.65,522.48,687.65,530Z"/><path class="cls-5" d="M730.65,505.18c0,7.53-5.29,16.68-11.81,20.45s-11.81.71-11.81-6.82,5.29-16.68,11.81-20.45S730.65,497.65,730.65,505.18Z"/><path class="cls-5" d="M773.64,480.35c0,7.53-5.28,16.69-11.8,20.45S750,501.52,750,494s5.29-16.69,11.81-20.45S773.64,472.83,773.64,480.35Z"/><path class="cls-2" d="M681.66,521.67a11.22,11.22,0,0,1,.89,4.64c0,7.53-5.29,16.68-11.81,20.45a10,10,0,0,1-5.82,1.52c1.76,4,6,5,10.92,2.17,6.52-3.76,11.81-12.92,11.81-20.45C687.65,524.93,685.22,522,681.66,521.67Z"/><path class="cls-2" d="M724.66,496.84a11.3,11.3,0,0,1,.89,4.65c0,7.52-5.29,16.68-11.81,20.44a10,10,0,0,1-5.82,1.53c1.76,3.95,6,5,10.92,2.17,6.52-3.77,11.81-12.92,11.81-20.45C730.65,500.11,728.22,497.14,724.66,496.84Z"/><path class="cls-2" d="M767.66,472a11.22,11.22,0,0,1,.89,4.64c0,7.53-5.29,16.68-11.81,20.45a10,10,0,0,1-5.82,1.52c1.76,3.95,6,5,10.92,2.17,6.52-3.76,11.8-12.92,11.8-20.45C773.64,475.28,771.22,472.31,767.66,472Z"/><path class="cls-5" d="M687.65,677.28c0,7.53-5.29,16.68-11.81,20.45s-11.81.71-11.81-6.82,5.29-16.68,11.81-20.45S687.65,669.75,687.65,677.28Z"/><path class="cls-5" d="M730.65,652.45c0,7.53-5.29,16.69-11.81,20.45s-11.81.71-11.81-6.82,5.29-16.68,11.81-20.44S730.65,644.92,730.65,652.45Z"/><path class="cls-5" d="M773.64,627.63c0,7.53-5.28,16.68-11.8,20.45s-11.81.71-11.81-6.82,5.29-16.68,11.81-20.45S773.64,620.1,773.64,627.63Z"/><path class="cls-2" d="M681.66,668.94a11.29,11.29,0,0,1,.89,4.64c0,7.53-5.29,16.69-11.81,20.45a9.91,9.91,0,0,1-5.82,1.52c1.76,4,6,5,10.92,2.18,6.52-3.77,11.81-12.92,11.81-20.45C687.65,672.21,685.22,669.23,681.66,668.94Z"/><path class="cls-2" d="M724.66,644.11a11.3,11.3,0,0,1,.89,4.65c0,7.53-5.29,16.68-11.81,20.45a10,10,0,0,1-5.82,1.52c1.76,3.95,6,5,10.92,2.17,6.52-3.76,11.81-12.92,11.81-20.45C730.65,647.38,728.22,644.41,724.66,644.11Z"/><path class="cls-2" d="M767.66,619.29a11.29,11.29,0,0,1,.89,4.64c0,7.53-5.29,16.69-11.81,20.45a10,10,0,0,1-5.82,1.52c1.76,4,6,5,10.92,2.18,6.52-3.77,11.8-12.92,11.8-20.45C773.64,622.56,771.22,619.58,767.66,619.29Z"/><polygon class="cls-33" points="615.48 464.23 822.02 344.99 822.02 307.62 615.48 426.87 615.48 464.23"/><polygon class="cls-34" points="615.48 426.86 822.02 307.62 615.49 188.38 408.95 307.62 615.48 426.86"/><polygon class="cls-2" points="615.48 422.28 818.05 305.33 822.02 307.62 615.48 426.86 408.95 307.62 412.92 305.33 615.48 422.28"/><polygon class="cls-35" points="408.95 344.99 615.48 464.23 615.48 426.87 408.95 307.62 408.95 344.99"/><polygon class="cls-36" points="822.02 497.35 822.02 553.03 615.48 672.27 615.48 616.59 822.02 497.35"/><polygon class="cls-36" points="408.95 497.35 408.95 553.03 615.48 672.27 615.48 616.59 408.95 497.35"/><path class="cls-37" d="M366.11,487.56v224l194,112v-224Zm23.15,40.1,147.68,85.27V783.45L389.26,698.18Z"/><path class="cls-38" d="M339.54,502.76v224l194,112v-224Zm23.16,40.1,147.68,85.26V798.64L362.7,713.38Z"/><polygon class="cls-39" points="339.54 502.76 366.11 487.56 560.09 599.56 533.53 614.76 339.54 502.76"/><polygon class="cls-40" points="560.09 599.56 533.53 614.76 533.53 838.75 560.09 823.55 560.09 599.56"/><polygon class="cls-41" points="389.26 698.18 362.7 713.38 362.7 542.86 389.24 558.19 389.26 698.18"/><polygon class="cls-42" points="389.26 698.18 362.7 713.38 510.38 798.64 510.39 768.12 389.26 698.18"/><polygon class="cls-43" points="376.92 705.25 376.92 551.16 510.38 628.12 510.38 781.02 376.92 705.25"/><path class="cls-44" d="M302.81,524.06v224l194,112v-224ZM326,564.16l147.68,85.26V819.94L326,734.68Z"/><path class="cls-45" d="M276.24,539.25v224l194,112v-224Zm23.16,40.11,147.68,85.26V835.14L299.4,749.88Z"/><polygon class="cls-46" points="276.25 539.25 302.81 524.06 496.8 636.05 470.23 651.25 276.25 539.25"/><polygon class="cls-47" points="496.8 636.05 470.23 651.25 470.23 875.24 496.8 860.04 496.8 636.05"/><polygon class="cls-48" points="325.96 734.68 299.4 749.88 299.4 579.36 325.94 594.68 325.96 734.68"/><polygon class="cls-49" points="325.96 734.68 299.4 749.88 447.08 835.14 447.09 804.61 325.96 734.68"/><polygon class="cls-43" points="313.62 741.74 313.62 587.65 447.08 664.62 447.08 817.51 313.62 741.74"/><polygon class="cls-2" points="470.23 651.25 276.25 539.25 280.82 536.74 474.81 648.74 474.81 872.73 470.23 875.24 470.23 651.25"/><polygon class="cls-2" points="533.53 614.76 339.54 502.76 344.12 500.25 538.11 612.24 538.11 836.23 533.53 838.75 533.53 614.76"/><polygon class="cls-2" points="299.4 579.36 303.98 582 303.98 747.36 447.08 829.98 447.08 835.14 299.4 749.88 299.4 579.36"/><polygon class="cls-36" points="302.81 524.06 339.54 502.76 533.53 614.76 533.53 838.75 496.8 860.04 496.8 636.05 302.81 524.06"/><polygon class="cls-36" points="533.53 614.76 496.8 636.05 302.81 524.06 339.54 502.76 533.53 614.76"/><path class="cls-50" d="M670.33,599.56v224l194-112v-224Zm170.83,98.62L693.48,783.45V612.93l147.68-85.27Z"/><path class="cls-51" d="M696.89,614.76v224l194-112v-224Zm170.84,98.62L720.05,798.64V628.12l147.68-85.26Z"/><polygon class="cls-52" points="890.88 502.76 864.32 487.56 670.33 599.56 696.89 614.76 890.88 502.76"/><polygon class="cls-53" points="670.33 599.56 696.89 614.76 696.89 838.75 670.33 823.55 670.33 599.56"/><polygon class="cls-54" points="841.16 698.18 867.73 713.38 867.73 542.86 841.18 558.19 841.16 698.18"/><polygon class="cls-55" points="841.16 698.18 867.73 713.38 720.05 798.64 720.03 768.12 841.16 698.18"/><polygon class="cls-43" points="853.5 705.25 853.5 551.16 720.05 628.12 720.05 781.02 853.5 705.25"/><path class="cls-56" d="M733.63,636.05V860l194-112v-224Zm170.83,98.63L756.78,819.94V649.42l147.68-85.26Z"/><path class="cls-57" d="M760.19,651.25v224l194-112v-224ZM931,749.88,783.34,835.14V664.62L931,579.36Z"/><polygon class="cls-58" points="954.18 539.25 927.61 524.06 733.63 636.05 760.19 651.25 954.18 539.25"/><polygon class="cls-59" points="733.63 636.05 760.19 651.25 760.19 875.24 733.63 860.04 733.63 636.05"/><polygon class="cls-60" points="904.46 734.68 931.02 749.88 931.02 579.36 904.48 594.68 904.46 734.68"/><polygon class="cls-61" points="904.46 734.68 931.02 749.88 783.34 835.14 783.33 804.61 904.46 734.68"/><polygon class="cls-43" points="916.8 741.74 916.8 587.65 783.34 664.62 783.34 817.51 916.8 741.74"/><polygon class="cls-2" points="760.19 651.25 954.18 539.25 949.6 536.74 755.61 648.74 755.61 872.73 760.19 875.24 760.19 651.25"/><polygon class="cls-2" points="696.89 614.76 890.88 502.76 886.3 500.25 692.32 612.24 692.32 836.23 696.89 838.75 696.89 614.76"/><polygon class="cls-2" points="931.02 579.36 926.45 582 926.45 747.36 783.34 829.98 783.34 835.14 931.02 749.88 931.02 579.36"/><polygon class="cls-36" points="927.61 524.06 890.88 502.76 696.89 614.76 696.89 838.75 733.63 860.04 733.63 636.05 927.61 524.06"/><polygon class="cls-36" points="696.89 614.76 733.63 636.05 927.61 524.06 890.88 502.76 696.89 614.76"/><g class="cls-62"><polygon class="cls-63" points="876.44 270.01 791.59 221.03 859.01 182.1 943.87 231.08 876.44 270.01"/><polygon class="cls-64" points="876.44 156.73 791.59 107.75 859.01 68.82 943.87 117.8 876.44 156.73"/><polygon class="cls-65" points="943.87 170.35 943.87 117.8 876.44 156.73 876.44 209.28 943.87 170.35"/><polygon class="cls-66" points="791.59 107.75 791.59 160.3 876.44 209.28 876.44 156.73 791.59 107.75"/><polygon class="cls-5" points="843.76 95.46 807.03 116.67 807.03 128.03 817.93 134.33 817.93 122.96 854.66 101.75 843.76 95.46"/><polygon class="cls-5" points="867.1 108.92 830.36 130.13 830.36 141.5 841.26 147.79 841.26 136.43 878 115.22 867.1 108.92"/><polygon class="cls-5" points="890.46 122.41 853.72 143.62 853.72 154.98 864.62 161.28 864.62 149.91 901.36 128.7 890.46 122.41"/><polygon class="cls-2" points="843.76 95.46 843.76 100.04 850.76 104 854.66 101.75 843.76 95.46"/><polygon class="cls-2" points="810.98 125.68 807.03 128.03 817.93 134.33 817.93 129.6 810.98 125.68"/><polygon class="cls-67" points="843.76 95.46 807.03 116.67 807.03 128.03 810.98 125.68 810.98 118.97 843.78 100.04 843.76 95.46"/><polygon class="cls-2" points="867.1 108.92 867.1 113.5 874.1 117.47 878 115.22 867.1 108.92"/><polygon class="cls-2" points="834.31 139.15 830.36 141.5 841.26 147.79 841.26 143.06 834.31 139.15"/><polygon class="cls-68" points="867.1 108.92 830.36 130.13 830.36 141.5 834.31 139.15 834.31 132.44 867.11 113.5 867.1 108.92"/><polygon class="cls-2" points="890.46 122.41 890.46 126.99 897.46 130.95 901.36 128.7 890.46 122.41"/><polygon class="cls-2" points="857.67 152.63 853.72 154.98 864.62 161.28 864.62 156.55 857.67 152.63"/><polygon class="cls-69" points="890.46 122.41 853.72 143.62 853.72 154.98 857.67 152.63 857.67 145.92 890.47 126.99 890.46 122.41"/></g></g></g></svg>