<svg id="Layer_1" data-name="Layer 1" xmlns="http://www.w3.org/2000/svg" xmlns:xlink="http://www.w3.org/1999/xlink" viewBox="0 0 1038.31 693.58"><defs><style>.cls-1,.cls-2,.cls-3,.cls-4{fill:#b9bdc9;}.cls-1,.cls-11,.cls-6{opacity:0.4;}.cls-1,.cls-11,.cls-2,.cls-3,.cls-30,.cls-6,.cls-7{isolation:isolate;}.cls-2{opacity:0.6;}.cls-3,.cls-7{opacity:0.8;}.cls-30,.cls-5,.cls-6,.cls-7{fill:#bcced3;}.cls-8{fill:url(#linear-gradient);}.cls-9{fill:url(#radial-gradient);}.cls-10{fill:#fff;}.cls-11{fill:#686773;}.cls-12{fill:url(#linear-gradient-2);}.cls-13{fill:url(#radial-gradient-2);}.cls-14{fill:url(#linear-gradient-3);}.cls-15{fill:url(#radial-gradient-3);}.cls-16{fill:url(#linear-gradient-4);}.cls-17{fill:url(#radial-gradient-4);}.cls-18{fill:url(#linear-gradient-5);}.cls-19{fill:url(#radial-gradient-5);}.cls-20{fill:url(#linear-gradient-6);}.cls-21{fill:url(#radial-gradient-6);}.cls-22{fill:url(#radial-gradient-7);}.cls-23{fill:#db0909;}.cls-24{fill:url(#linear-gradient-7);}.cls-25{fill:url(#radial-gradient-8);}.cls-26{fill:url(#linear-gradient-8);}.cls-27{fill:url(#radial-gradient-9);}.cls-28{fill:url(#linear-gradient-9);}.cls-29{fill:url(#radial-gradient-10);}.cls-30{opacity:0.2;}.cls-31{fill:url(#linear-gradient-10);}.cls-32{fill:url(#radial-gradient-11);}.cls-33{fill:url(#linear-gradient-11);}.cls-34{fill:url(#radial-gradient-12);}.cls-35{fill:url(#linear-gradient-12);}.cls-36{fill:url(#radial-gradient-13);}</style><linearGradient id="linear-gradient" x1="-438.4" y1="886.25" x2="-437.7" y2="886.25" gradientTransform="matrix(265.24, 0, 0, -153.61, 116637.35, 136484.76)" gradientUnits="userSpaceOnUse"><stop offset="0" stop-color="#dcecef"/><stop offset="0.59" stop-color="#c5ced6"/><stop offset="1" stop-color="#b9bdc9"/></linearGradient><radialGradient id="radial-gradient" cx="-437.32" cy="886.82" r="2.72" gradientTransform="matrix(153.56, 0, 0, -153.59, 67551.76, 136409.25)" gradientUnits="userSpaceOnUse"><stop offset="0" stop-color="#dcecef"/><stop offset="0.37" stop-color="#d2dee4"/><stop offset="1" stop-color="#b9bdc9"/></radialGradient><linearGradient id="linear-gradient-2" x1="-438.4" y1="886.25" x2="-437.7" y2="886.25" gradientTransform="matrix(265.24, 0, 0, -153.62, 116637.35, 136389)" xlink:href="#linear-gradient"/><radialGradient id="radial-gradient-2" cx="-438.53" cy="886.82" r="2.72" gradientTransform="matrix(265.21, 0, 0, -153.6, 116623.12, 136319.69)" xlink:href="#radial-gradient"/><linearGradient id="linear-gradient-3" x1="-438.4" y1="886.25" x2="-437.7" y2="886.25" gradientTransform="matrix(265.24, 0, 0, -153.6, 116637.35, 136278.14)" xlink:href="#linear-gradient"/><radialGradient id="radial-gradient-3" cx="-438.53" cy="886.82" r="2.72" gradientTransform="matrix(265.25, 0, 0, -153.6, 116641.83, 136221.26)" xlink:href="#radial-gradient"/><linearGradient id="linear-gradient-4" x1="-438.4" y1="886.25" x2="-437.7" y2="886.25" gradientTransform="matrix(265.24, 0, 0, -153.62, 116443.8, 136604)" xlink:href="#linear-gradient"/><radialGradient id="radial-gradient-4" cx="-438.53" cy="886.82" r="2.72" gradientTransform="matrix(265.25, 0, 0, -153.6, 116444.89, 136531.11)" xlink:href="#radial-gradient"/><linearGradient id="linear-gradient-5" x1="-438.4" y1="886.25" x2="-437.7" y2="886.25" gradientTransform="matrix(265.24, 0, 0, -153.62, 116442.49, 136506.42)" xlink:href="#linear-gradient"/><radialGradient id="radial-gradient-5" cx="-438.53" cy="886.82" r="2.72" gradientTransform="matrix(265.25, 0, 0, -153.62, 116444.89, 136449.55)" xlink:href="#radial-gradient"/><linearGradient id="linear-gradient-6" x1="-438.4" y1="886.25" x2="-437.7" y2="886.25" gradientTransform="matrix(265.24, 0, 0, -153.66, 116442.49, 136439.96)" xlink:href="#linear-gradient"/><radialGradient id="radial-gradient-6" cx="-438.53" cy="886.82" r="2.72" gradientTransform="matrix(265.25, 0, 0, -153.59, 116444.89, 136323.62)" xlink:href="#radial-gradient"/><radialGradient id="radial-gradient-7" cx="-437.18" cy="886.65" r="1.87" gradientTransform="matrix(153.58, 0, 0, -153.59, 67366.33, 136323.62)" gradientUnits="userSpaceOnUse"><stop offset="0" stop-color="#f9636b"/><stop offset="1" stop-color="#ff2626"/></radialGradient><linearGradient id="linear-gradient-7" x1="-438.4" y1="886.25" x2="-437.7" y2="886.25" gradientTransform="matrix(265.24, 0, 0, -153.61, 116831.95, 136597.64)" xlink:href="#linear-gradient"/><radialGradient id="radial-gradient-8" cx="-437.32" cy="886.82" r="2.72" gradientTransform="matrix(153.58, 0, 0, -153.55, 67756.83, 136491.92)" xlink:href="#radial-gradient"/><linearGradient id="linear-gradient-8" x1="-438.4" y1="886.25" x2="-437.7" y2="886.25" gradientTransform="matrix(265.24, 0, 0, -153.6, 116831.95, 136489.47)" xlink:href="#linear-gradient"/><radialGradient id="radial-gradient-9" cx="-438.53" cy="886.82" r="2.72" gradientTransform="matrix(265.25, 0, 0, -153.6, 116835.35, 136431.68)" xlink:href="#radial-gradient"/><linearGradient id="linear-gradient-9" x1="-438.4" y1="886.25" x2="-437.7" y2="886.25" gradientTransform="matrix(265.24, 0, 0, -153.61, 116831.95, 136399.02)" xlink:href="#linear-gradient"/><radialGradient id="radial-gradient-10" cx="-438.53" cy="886.82" r="2.72" gradientTransform="matrix(265.25, 0, 0, -153.59, 116835.35, 136323.5)" xlink:href="#radial-gradient"/><linearGradient id="linear-gradient-10" x1="-438.4" y1="886.25" x2="-437.7" y2="886.25" gradientTransform="matrix(265.24, 0, 0, -153.58, 116637.08, 136679.61)" xlink:href="#linear-gradient"/><radialGradient id="radial-gradient-11" cx="-438.53" cy="886.82" r="2.72" gradientTransform="matrix(265.24, 0, 0, -153.63, 116638.77, 136674.21)" xlink:href="#radial-gradient"/><linearGradient id="linear-gradient-11" x1="-438.4" y1="886.25" x2="-437.7" y2="886.25" gradientTransform="matrix(265.24, 0, 0, -153.6, 116637.08, 136599.82)" xlink:href="#linear-gradient"/><radialGradient id="radial-gradient-12" cx="-437.32" cy="886.82" r="2.72" gradientTransform="matrix(153.58, 0, 0, -153.58, 67560.81, 136525.15)" xlink:href="#radial-gradient"/><linearGradient id="linear-gradient-12" x1="-438.4" y1="886.25" x2="-437.7" y2="886.25" gradientTransform="matrix(265.24, 0, 0, -153.6, 116637.08, 136499.59)" xlink:href="#linear-gradient"/><radialGradient id="radial-gradient-13" cx="-438.53" cy="886.82" r="2.72" gradientTransform="matrix(265.24, 0, 0, -153.6, 116638.77, 136446.27)" xlink:href="#radial-gradient"/></defs><g id="Layer_2" data-name="Layer 2"><g id="Layer_1-2" data-name="Layer 1"><path id="Path_5286" data-name="Path 5286" class="cls-1" d="M422.22,308.5a4.78,4.78,0,1,1-4.78-4.78,4.78,4.78,0,0,1,4.78,4.78Z"/><path id="Path_5287" data-name="Path 5287" class="cls-2" d="M137.37,128.9a7.08,7.08,0,1,1-7.08-7.08,7.08,7.08,0,0,1,7.08,7.08Z"/><path id="Path_5288" data-name="Path 5288" class="cls-3" d="M133.22,128.9a2.94,2.94,0,1,1-.86-2.08A2.92,2.92,0,0,1,133.22,128.9Z"/><path id="Path_5289" data-name="Path 5289" class="cls-1" d="M491.9,238A18.93,18.93,0,1,1,473,219h0A18.92,18.92,0,0,1,491.9,238Z"/><circle id="Ellipse_145" data-name="Ellipse 145" class="cls-3" cx="472.97" cy="237.95" r="7.86"/><path id="Path_5290" data-name="Path 5290" class="cls-4" d="M514.74,375.13,471.87,237l351.24,49.19-.22,1.54-348.8-48.84,42.13,135.78Z"/><rect id="Rectangle_161" data-name="Rectangle 161" class="cls-4" x="895.74" y="420.27" width="1.62" height="31.95"/><rect id="Rectangle_162" data-name="Rectangle 162" class="cls-5" x="895.74" y="459.7" width="1.62" height="10.24"/><rect id="Rectangle_163" data-name="Rectangle 163" class="cls-5" x="113.33" y="396.34" width="1.62" height="31.93"/><rect id="Rectangle_164" data-name="Rectangle 164" class="cls-4" x="113.33" y="435.62" width="1.62" height="9.12"/><rect id="Rectangle_165" data-name="Rectangle 165" class="cls-4" x="113.33" y="452.38" width="1.62" height="9.12"/><rect id="Rectangle_166" data-name="Rectangle 166" class="cls-4" x="332.41" width="1.62" height="31.93"/><rect id="Rectangle_167" data-name="Rectangle 167" class="cls-5" x="332.41" y="39.28" width="1.62" height="9.12"/><rect id="Rectangle_168" data-name="Rectangle 168" class="cls-5" x="332.41" y="56.04" width="1.62" height="9.12"/><rect id="Rectangle_169" data-name="Rectangle 169" class="cls-5" x="332.41" y="72.81" width="1.62" height="25.9"/><rect id="Rectangle_170" data-name="Rectangle 170" class="cls-4" x="697.37" y="674.78" width="1.62" height="10.24"/><rect id="Rectangle_171" data-name="Rectangle 171" class="cls-4" x="697.37" y="593.48" width="1.62" height="32.39"/><rect id="Rectangle_172" data-name="Rectangle 172" class="cls-4" x="918.69" y="274.24" width="1.62" height="10.24"/><rect id="Rectangle_173" data-name="Rectangle 173" class="cls-5" x="918.69" y="234.8" width="1.62" height="31.93"/><rect id="Rectangle_174" data-name="Rectangle 174" class="cls-4" x="918.69" y="192.94" width="1.62" height="32.39"/><rect id="Rectangle_175" data-name="Rectangle 175" class="cls-4" x="918.69" y="144.83" width="1.62" height="32.39"/><circle id="Ellipse_146" data-name="Ellipse 146" class="cls-6" cx="166.7" cy="98.44" r="17.81"/><circle id="Ellipse_147" data-name="Ellipse 147" class="cls-7" cx="166.7" cy="98.44" r="8.75"/><path id="Path_5291" data-name="Path 5291" class="cls-6" d="M298,620.38a12,12,0,1,1-12-12,12,12,0,0,1,12,12Z"/><circle id="Ellipse_148" data-name="Ellipse 148" class="cls-7" cx="285.97" cy="620.39" r="5.9"/><circle id="Ellipse_149" data-name="Ellipse 149" class="cls-6" cx="725.13" cy="476.76" r="12.51"/><circle id="Ellipse_150" data-name="Ellipse 150" class="cls-7" cx="725.13" cy="476.76" r="6.15"/><path id="Path_5292" data-name="Path 5292" class="cls-6" d="M407.9,210a9.66,9.66,0,1,1-2.83-6.85A9.68,9.68,0,0,1,407.9,210Z"/><circle id="Ellipse_151" data-name="Ellipse 151" class="cls-7" cx="398.22" cy="209.9" r="4.76"/><circle id="Ellipse_152" data-name="Ellipse 152" class="cls-6" cx="762.4" cy="600.68" r="5.24"/><path id="Path_5293" data-name="Path 5293" class="cls-6" d="M725.4,311.77a2.94,2.94,0,1,1-2.94-2.94h0A2.94,2.94,0,0,1,725.4,311.77Z"/><path id="Path_5294" data-name="Path 5294" class="cls-6" d="M325.65,547.72a2.94,2.94,0,1,1-2.95-2.93h0A3,3,0,0,1,325.65,547.72Z"/><path id="Path_5295" data-name="Path 5295" class="cls-5" d="M504.12,458.33a33.71,33.71,0,0,1-16.43-3.92L377.27,390.67c-4.54-2.65-7.1-6.23-7.1-10.08s2.52-7.44,7.1-10.08L487.1,306.64c9.08-5.22,23.84-5.22,32.85,0L630.37,370.4c4.54,2.64,7.1,6.22,7.1,10.06s-2.52,7.44-7.1,10.08L520.54,454.41a33.67,33.67,0,0,1-16.42,3.92Zm-.59-153.58a31.47,31.47,0,0,0-15.39,3.67L378.3,372.29c-3.92,2.27-6.08,5.21-6.08,8.3s2.16,6,6.07,8.3l110.42,63.75c8.49,4.9,22.3,4.9,30.79,0l109.84-63.87c3.92-2.27,6.08-5.22,6.08-8.3s-2.16-6-6.07-8.29L518.92,308.42a31.48,31.48,0,0,0-15.39-3.68Z"/><path id="Path_5296" data-name="Path 5296" class="cls-8" d="M637,345.62h0V292.68l-67,8.93-50.09-28.92c-8.78-5.08-23-5.08-31.78,0l-7.79,4.95-108.62,14.5V346h0c.13,3.23,2.27,6.44,6.54,8.9L488.7,418.69c8.79,5.07,23,5.07,31.78,0l109.84-63.88c4.25-2.45,6.39-5.67,6.54-8.86h0Z"/><path id="Path_5297" data-name="Path 5297" class="cls-9" d="M630.4,283.1,520,219.36c-8.78-5.07-23-5.07-31.78,0L378.37,283.22c-8.78,5.07-8.78,13.3,0,18.37l110.42,63.75c8.79,5.07,23,5.07,31.78,0l109.84-63.86C639.19,296.4,639.19,288.18,630.4,283.1Z"/><path id="Path_5298" data-name="Path 5298" class="cls-10" d="M630.4,298.27,520.56,362.14c-8.79,5.07-23,5.07-31.78,0L378.36,298.38c-3.69-2.12-5.8-4.81-6.4-7.58-.82,3.83,1.29,7.84,6.4,10.79l110.42,63.75c8.79,5.07,23,5.07,31.78,0L630.4,301.48c5.1-3,7.22-7,6.39-10.8C636.2,293.45,634.08,296.2,630.4,298.27Z"/><path id="Path_5299" data-name="Path 5299" class="cls-10" d="M535.4,379.48l-5.22,3v-6l5.22-3Z"/><path id="Path_5300" data-name="Path 5300" class="cls-10" d="M546.34,373.15l-5.23,3v-6l5.23-3Z"/><path id="Path_5301" data-name="Path 5301" class="cls-10" d="M557.28,366.84l-5.23,3v-6l5.23-3Z"/><path id="Path_5302" data-name="Path 5302" class="cls-10" d="M548.34,384.23l-5.23,3v-6l5.23-3Z"/><path id="Path_5303" data-name="Path 5303" class="cls-10" d="M558,378.68l-5.22,3v-6l5.22-3Z"/><path id="Path_5304" data-name="Path 5304" class="cls-10" d="M592.35,346.59l-5.22,3v-6l5.22-3Z"/><path id="Path_5305" data-name="Path 5305" class="cls-10" d="M622.48,329.2l-5.22,3v-6l5.22-3Z"/><path id="Path_5306" data-name="Path 5306" class="cls-10" d="M568.21,360.54l-5.22,3v-6l5.22-3Z"/><path id="Path_5307" data-name="Path 5307" class="cls-11" d="M498.11,338.41l-74.29-42.89c-3-1.75-2.63-4.79.85-6.81l72.64-41.91c3.5-2,8.76-2.27,11.79-.49l74.27,42.9c3,1.74,2.64,4.79-.85,6.81l-72.63,41.91C506.41,339.94,501.13,340.15,498.11,338.41Z"/><path id="Path_5308" data-name="Path 5308" class="cls-10" d="M468.89,384.83l-61.28-35.4a6.33,6.33,0,0,1-2.65-5.06v-4.54c0-1.95,1.14-2.85,2.65-2l61.28,35.4a6.32,6.32,0,0,1,2.64,5.06v4.54C471.53,384.79,470.35,385.68,468.89,384.83Z"/><path id="Path_5309" data-name="Path 5309" class="cls-12" d="M637,246.26h0v-52.9l-67,8.92-50.1-28.91c-8.78-5.07-23-5.07-31.77,0l-7.8,5L371.74,192.81v53.91h0c.13,3.23,2.27,6.43,6.54,8.9L488.7,319.38c8.79,5.07,23,5.07,31.78,0L630.32,255.5c4.25-2.45,6.39-5.67,6.54-8.87h0Z"/><path id="Path_5310" data-name="Path 5310" class="cls-13" d="M630.4,183.78,520,120c-8.78-5.07-23-5.07-31.78,0L378.37,183.9c-8.78,5.08-8.78,13.29,0,18.37L488.79,266c8.79,5.08,23,5.08,31.78,0l109.84-63.87C639.19,197.08,639.19,188.85,630.4,183.78Z"/><path id="Path_5311" data-name="Path 5311" class="cls-11" d="M577.8,187.64l-64.34-37.15c-5.13-3-13.42-3-18.54,0l-64,37.22c-5.13,3-5.13,7.75,0,10.71l64.34,37.14c5.12,2.95,13.41,2.95,18.53,0l64-37.22C582.92,195.39,582.92,190.66,577.8,187.64Z"/><path id="Path_5312" data-name="Path 5312" class="cls-10" d="M630.4,198.94,520.56,262.81c-8.79,5.07-23,5.07-31.78,0L378.36,199.07c-3.69-2.14-5.8-4.81-6.4-7.58-.82,3.83,1.29,7.84,6.4,10.78L488.78,266c8.79,5.08,23,5.08,31.78,0L630.4,202.15c5.1-2.93,7.22-7,6.39-10.79C636.2,194.14,634.08,196.82,630.4,198.94Z"/><path id="Path_5313" data-name="Path 5313" class="cls-10" d="M535.4,280.15l-5.22,3v-6l5.22-3Z"/><path id="Path_5314" data-name="Path 5314" class="cls-10" d="M546.34,273.84l-5.23,3v-6l5.23-3Z"/><path id="Path_5315" data-name="Path 5315" class="cls-10" d="M557.28,267.52l-5.23,3v-6l5.23-3Z"/><path id="Path_5316" data-name="Path 5316" class="cls-10" d="M548.34,284.92l-5.23,3v-6l5.23-3Z"/><path id="Path_5317" data-name="Path 5317" class="cls-10" d="M558,279.36l-5.22,3v-6l5.22-3Z"/><path id="Path_5318" data-name="Path 5318" class="cls-10" d="M592.35,247.27l-5.22,3v-6l5.22-3Z"/><path id="Path_5319" data-name="Path 5319" class="cls-10" d="M622.48,229.88l-5.22,3v-6l5.22-3Z"/><path id="Path_5320" data-name="Path 5320" class="cls-10" d="M568.21,261.21l-5.22,3v-6l5.22-3Z"/><path id="Path_5321" data-name="Path 5321" class="cls-14" d="M637,147h0V94.05L570,103,520,74.05c-8.78-5.08-23-5.08-31.78,0l-7.8,5L371.74,93.5v53.9h0c.13,3.22,2.27,6.43,6.54,8.9L488.7,220c8.79,5.07,23,5.07,31.78,0l109.84-63.87c4.25-2.45,6.39-5.67,6.54-8.86h0Z"/><path id="Path_5322" data-name="Path 5322" class="cls-15" d="M630.4,84.47,520,20.71c-8.78-5.07-23-5.07-31.78,0L378.32,84.58c-8.78,5.07-8.78,13.3,0,18.37L488.75,166.7c8.78,5.07,23,5.07,31.77,0l109.84-63.87C639.19,97.76,639.19,89.54,630.4,84.47Z"/><path id="Path_5323" data-name="Path 5323" class="cls-10" d="M630.4,99.63,520.56,163.5c-8.79,5.07-23,5.07-31.78,0L378.36,99.74c-3.69-2.12-5.8-4.81-6.4-7.58-.82,3.83,1.29,7.84,6.4,10.79L488.78,166.7c8.79,5.07,23,5.07,31.78,0L630.4,102.83c5.1-2.94,7.22-7,6.39-10.78C636.2,94.82,634.08,97.5,630.4,99.63Z"/><path id="Path_5324" data-name="Path 5324" class="cls-10" d="M535.4,180.83l-5.22,3v-6l5.22-3Z"/><path id="Path_5325" data-name="Path 5325" class="cls-10" d="M546.34,174.52l-5.23,3v-6l5.23-3Z"/><path id="Path_5326" data-name="Path 5326" class="cls-10" d="M557.28,168.21l-5.23,3v-6l5.23-3Z"/><path id="Path_5327" data-name="Path 5327" class="cls-10" d="M548.34,185.6l-5.23,3v-6l5.23-3Z"/><path id="Path_5328" data-name="Path 5328" class="cls-10" d="M558,180l-5.22,3v-6l5.22-3Z"/><path id="Path_5329" data-name="Path 5329" class="cls-10" d="M592.35,148l-5.22,3v-6l5.22-3Z"/><path id="Path_5330" data-name="Path 5330" class="cls-10" d="M622.48,130.57l-5.22,3v-6l5.22-3Z"/><path id="Path_5331" data-name="Path 5331" class="cls-10" d="M568.21,161.89l-5.22,3v-6l5.22-3Z"/><path id="Path_5332" data-name="Path 5332" class="cls-5" d="M308.8,571.34a33.54,33.54,0,0,1-16.42-3.9L182,503.69c-4.54-2.65-7.1-6.22-7.1-10.08s2.52-7.43,7.1-10.08l109.83-63.86c9.08-5.23,23.83-5.23,32.84,0l110.43,63.78c4.54,2.64,7.1,6.22,7.1,10.08s-2.52,7.42-7.1,10.08L325.23,567.43a33.47,33.47,0,0,1-16.43,3.9Zm-.59-153.6a31.48,31.48,0,0,0-15.36,3.68L183,485.29c-3.92,2.27-6.08,5.21-6.08,8.3s2.16,6,6.07,8.3L293.4,565.65c8.49,4.89,22.3,4.89,30.79,0L434,501.77c3.92-2.27,6.08-5.21,6.08-8.3s-2.16-6-6.08-8.3L323.61,421.42a31.49,31.49,0,0,0-15.4-3.68Z"/><path id="Path_5333" data-name="Path 5333" class="cls-16" d="M441.68,458.62h0V405.69l-66.9,8.92-50.16-28.93c-8.78-5.07-23-5.07-31.77,0l-7.8,5-108.62,14.5v53.91h0c.13,3.23,2.27,6.43,6.55,8.9l110.41,63.74c8.8,5.07,23,5.07,31.78,0L435,467.83c4.25-2.46,6.4-5.67,6.53-8.87h.06Z"/><path id="Path_5334" data-name="Path 5334" class="cls-17" d="M435.08,396.07,324.62,332.36c-8.78-5.08-23-5.08-31.77,0L183,396.23c-8.78,5.07-8.78,13.29,0,18.36l110.42,63.75c8.8,5.08,23,5.08,31.77,0L435,414.47C443.88,409.4,443.88,401.17,435.08,396.07Z"/><path id="Path_5335" data-name="Path 5335" class="cls-10" d="M435.08,411.26,325.25,475.13c-8.78,5.08-23,5.08-31.78,0L183,411.39c-3.68-2.14-5.8-4.81-6.39-7.58-.82,3.83,1.29,7.84,6.39,10.78l110.42,63.76c8.8,5.07,23,5.07,31.77,0L435,414.47c5.11-3,7.23-7,6.4-10.79C440.89,406.45,438.77,409.14,435.08,411.26Z"/><path id="Path_5336" data-name="Path 5336" class="cls-10" d="M340.09,492.47l-5.22,3v-6l5.22-3Z"/><path id="Path_5337" data-name="Path 5337" class="cls-10" d="M351,486.16l-5.23,3v-6l5.23-3Z"/><path id="Path_5338" data-name="Path 5338" class="cls-10" d="M362,479.84l-5.22,3v-6l5.22-3Z"/><path id="Path_5339" data-name="Path 5339" class="cls-10" d="M353,497.24l-5.23,3v-6l5.23-3Z"/><path id="Path_5340" data-name="Path 5340" class="cls-10" d="M362.65,491.68l-5.23,3v-6l5.23-3Z"/><path id="Path_5341" data-name="Path 5341" class="cls-10" d="M397,459.6l-5.22,3v-6l5.22-3Z"/><path id="Path_5342" data-name="Path 5342" class="cls-10" d="M427.17,442.2l-5.23,3v-6l5.23-3Z"/><path id="Path_5343" data-name="Path 5343" class="cls-10" d="M372.9,473.53l-5.22,3v-6l5.22-3Z"/><path id="Path_5344" data-name="Path 5344" class="cls-11" d="M302.8,451.42l-74.29-42.87c-3-1.73-2.64-4.79.85-6.81L302,359.83c3.5-2,8.77-2.27,11.78-.49l74.29,42.89c3,1.75,2.65,4.79-.84,6.81L314.59,451C311.1,452.94,305.82,453.15,302.8,451.42Z"/><path id="Path_5345" data-name="Path 5345" class="cls-10" d="M273.56,497.83l-61.28-35.38a6.35,6.35,0,0,1-2.65-5.07v-4.53c0-2,1.14-2.85,2.65-2l61.28,35.4a6.32,6.32,0,0,1,2.64,5.06v4.54C276.22,497.79,275,498.68,273.56,497.83Z"/><path id="Path_5346" data-name="Path 5346" class="cls-18" d="M441.68,359.31h0v-52.9l-66.9,8.92-50.15-29c-8.79-5.07-23-5.07-31.78,0l-7.8,5L176.43,305.82v53.93h0c.13,3.23,2.27,6.43,6.55,8.9l110.45,63.73c8.8,5.07,23,5.07,31.77,0L435,368.51c4.26-2.45,6.4-5.67,6.54-8.86h.06Z"/><path id="Path_5347" data-name="Path 5347" class="cls-19" d="M435.08,296.79,324.62,233c-8.78-5.07-23-5.07-31.77,0L183,296.9c-8.78,5.08-8.78,13.3,0,18.38L293.43,379c8.8,5.07,23,5.07,31.77,0L435,315.17C443.88,310.08,443.88,301.87,435.08,296.79Z"/><path id="Path_5348" data-name="Path 5348" class="cls-11" d="M382.5,300.65,318.16,263.5c-5.12-3-13.42-3-18.54,0l-64,37.24c-5.12,2.95-5.12,7.74,0,10.7L300,348.59c5.12,3,13.42,3,18.53,0l64-37.24C387.61,308.39,387.61,303.6,382.5,300.65Z"/><path id="Path_5349" data-name="Path 5349" class="cls-10" d="M435.08,312,325.25,375.81c-8.79,5.07-23,5.07-31.78,0L183,312.09c-3.68-2.14-5.8-4.82-6.39-7.58-.82,3.83,1.29,7.84,6.39,10.79L293.43,379c8.8,5.08,23,5.08,31.77,0L435,315.17c5.11-2.94,7.23-6.94,6.4-10.78C440.89,307.14,438.77,309.82,435.08,312Z"/><path id="Path_5350" data-name="Path 5350" class="cls-10" d="M340.09,393.15l-5.22,3v-6l5.22-3Z"/><path id="Path_5351" data-name="Path 5351" class="cls-10" d="M351,386.84l-5.23,3v-6l5.23-3Z"/><path id="Path_5352" data-name="Path 5352" class="cls-10" d="M362,380.53l-5.22,3v-6l5.22-3Z"/><path id="Path_5353" data-name="Path 5353" class="cls-10" d="M353,397.92l-5.23,3v-6l5.23-3Z"/><path id="Path_5354" data-name="Path 5354" class="cls-10" d="M362.65,392.36l-5.23,3v-6l5.23-3Z"/><path id="Path_5355" data-name="Path 5355" class="cls-10" d="M397,360.27l-5.22,3v-6l5.22-3Z"/><path id="Path_5356" data-name="Path 5356" class="cls-10" d="M427.17,342.88l-5.23,3v-6l5.23-3Z"/><path id="Path_5357" data-name="Path 5357" class="cls-10" d="M372.9,374.21l-5.22,3v-6l5.22-3Z"/><path id="Path_5358" data-name="Path 5358" class="cls-20" d="M441.68,260h0V207L374.78,216l-50.15-28.93c-8.79-5.08-23-5.08-31.78,0l-7.8,5L176.43,206.54v53.91h0c.13,3.22,2.27,6.44,6.55,8.9L293.39,333.1c8.8,5.07,23,5.07,31.78,0L435,269.23c4.26-2.46,6.4-5.68,6.54-8.87h0Z"/><path id="Path_5359" data-name="Path 5359" class="cls-21" d="M435.08,197.47,324.62,133.72c-8.78-5.07-23-5.07-31.77,0L183,197.58c-8.78,5.07-8.78,13.3,0,18.37L293.43,279.7c8.8,5.07,23,5.07,31.77,0L435,215.84C443.88,210.77,443.88,202.54,435.08,197.47Z"/><path id="Path_5360" data-name="Path 5360" class="cls-22" d="M435.08,197.47,324.62,133.72c-8.78-5.07-23-5.07-31.77,0L183,197.58c-8.78,5.07-8.78,13.3,0,18.37L293.43,279.7c8.8,5.07,23,5.07,31.77,0L435,215.84C443.88,210.77,443.88,202.54,435.08,197.47Z"/><path id="Path_5361" data-name="Path 5361" class="cls-23" d="M309.24,259A23,23,0,0,1,298,256.32l-73.17-42.24c-3.28-1.9-5.08-4.54-5.08-7.33s1.8-5.44,5.08-7.33l72.77-42.31c6.32-3.65,16.21-3.65,22.53,0l73.15,42.24c3.28,1.9,5.09,4.54,5.09,7.33s-1.8,5.44-5.09,7.33L320.5,256.33A22.92,22.92,0,0,1,309.23,259Zm-.38-101.8a20.17,20.17,0,0,0-9.83,2.34L226.26,201.9c-2.36,1.36-3.65,3.08-3.65,4.85s1.29,3.48,3.64,4.84l73.17,42.24c5.41,3.12,14.23,3.12,19.64,0l72.78-42.32c2.35-1.36,3.66-3.07,3.66-4.84s-1.31-3.49-3.66-4.85l-73.16-42.24A20.1,20.1,0,0,0,308.86,157.24Z"/><path id="Path_5362" data-name="Path 5362" class="cls-10" d="M435.08,212.63,325.25,276.5c-8.78,5.07-23,5.07-31.78,0L183.06,212.74c-3.69-2.12-5.8-4.81-6.4-7.58-.81,3.85,1.3,7.84,6.4,10.79l110.41,63.76c8.8,5.06,23,5.07,31.78,0l109.83-63.87c5.11-3,7.23-7,6.4-10.79C440.89,207.82,438.77,210.51,435.08,212.63Z"/><path id="Path_5363" data-name="Path 5363" class="cls-10" d="M340.09,293.84l-5.22,3v-6l5.22-3Z"/><path id="Path_5364" data-name="Path 5364" class="cls-10" d="M351,287.52l-5.23,3v-6l5.23-3Z"/><path id="Path_5365" data-name="Path 5365" class="cls-10" d="M362,281.21l-5.22,3v-6l5.22-3Z"/><path id="Path_5366" data-name="Path 5366" class="cls-10" d="M353,298.61l-5.23,3v-6l5.23-3Z"/><path id="Path_5367" data-name="Path 5367" class="cls-10" d="M362.65,293l-5.23,3v-6l5.23-3Z"/><path id="Path_5368" data-name="Path 5368" class="cls-10" d="M397,261l-5.22,3v-6l5.22-3Z"/><path id="Path_5369" data-name="Path 5369" class="cls-10" d="M427.17,243.56l-5.23,3v-6l5.23-3Z"/><path id="Path_5370" data-name="Path 5370" class="cls-10" d="M372.9,274.9l-5.22,3v-6l5.22-3Z"/><path id="Path_5371" data-name="Path 5371" class="cls-5" d="M698.72,571.22a33.33,33.33,0,0,1-16.42-3.93L571.88,503.55c-4.54-2.64-7.1-6.22-7.1-10.07s2.52-7.43,7.1-10.08l109.83-63.86c9.08-5.24,23.83-5.24,32.84,0L825,483.28c4.54,2.65,7.1,6.23,7.1,10.08s-2.51,7.42-7.1,10.08L715.14,567.3a33.43,33.43,0,0,1-16.42,3.92Zm-.59-153.59a31.37,31.37,0,0,0-15.39,3.68L572.91,485.16c-3.93,2.27-6.08,5.21-6.08,8.3s2.15,6,6.07,8.3l110.42,63.76c8.49,4.9,22.3,4.9,30.79,0L824,501.61c3.93-2.27,6.09-5.21,6.09-8.3s-2.16-6-6.09-8.3L713.55,421.27a31.45,31.45,0,0,0-15.42-3.64Z"/><path id="Path_5372" data-name="Path 5372" class="cls-24" d="M831.59,458.48h0v-52.9l-67,8.92-50.09-28.92c-8.78-5.07-23-5.07-31.78,0l-7.8,5L566.35,405v53.91h0c.13,3.23,2.27,6.43,6.54,8.9l110.42,63.75c8.78,5.08,23,5.08,31.78,0l109.84-63.87c4.24-2.45,6.39-5.67,6.54-8.87h0Z"/><path id="Path_5373" data-name="Path 5373" class="cls-25" d="M825,396,714.59,332.24c-8.79-5.07-23-5.07-31.78,0L572.93,396.07c-8.78,5.07-8.78,13.29,0,18.36l110.43,63.76c8.78,5.07,23,5.07,31.77,0L825,414.32C833.79,409.29,833.79,401.06,825,396Z"/><path id="Path_5374" data-name="Path 5374" class="cls-10" d="M825,411.15,715.16,475c-8.78,5.07-23,5.07-31.77,0L572.93,411.28c-3.68-2.14-5.8-4.82-6.4-7.59-.81,3.84,1.3,7.85,6.4,10.79l110.42,63.75c8.79,5.08,23,5.08,31.78,0L825,414.36c5.1-2.94,7.22-7,6.39-10.79C830.77,406.35,828.69,409,825,411.15Z"/><path id="Path_5375" data-name="Path 5375" class="cls-10" d="M730,492.36l-5.22,3v-6l5.22-3Z"/><path id="Path_5376" data-name="Path 5376" class="cls-10" d="M741,486.05l-5.23,3v-6l5.23-3Z"/><path id="Path_5377" data-name="Path 5377" class="cls-10" d="M751.89,479.73l-5.23,3v-6l5.23-3Z"/><path id="Path_5378" data-name="Path 5378" class="cls-10" d="M743,497.13l-5.24,3v-6l5.24-3Z"/><path id="Path_5379" data-name="Path 5379" class="cls-10" d="M752.57,491.57l-5.22,3v-6l5.22-3Z"/><path id="Path_5380" data-name="Path 5380" class="cls-10" d="M787,459.49l-5.22,3v-6l5.22-3Z"/><path id="Path_5381" data-name="Path 5381" class="cls-10" d="M817.09,442.09l-5.22,3v-6l5.22-3Z"/><path id="Path_5382" data-name="Path 5382" class="cls-10" d="M762.82,473.42l-5.22,3v-6l5.22-3Z"/><path id="Path_5383" data-name="Path 5383" class="cls-11" d="M692.72,451.3l-74.29-42.9c-3-1.73-2.65-4.79.85-6.81l72.63-41.91c3.5-2,8.76-2.27,11.79-.49L778,402.08c3,1.75,2.63,4.79-.85,6.81L704.51,450.8C701,452.81,695.72,453,692.72,451.3Z"/><path id="Path_5384" data-name="Path 5384" class="cls-10" d="M663.5,497.73l-61.29-35.4a6.38,6.38,0,0,1-2.64-5.07v-4.53c0-2,1.14-2.85,2.64-2l61.29,35.4a6.35,6.35,0,0,1,2.64,5.06v4.54C666.14,497.67,665,498.57,663.5,497.73Z"/><path id="Path_5385" data-name="Path 5385" class="cls-26" d="M831.59,359.2h0V306.25l-67,8.93-50.09-28.92c-8.78-5.08-23-5.08-31.78,0l-7.8,5L566.35,305.71v53.9h0c.13,3.22,2.27,6.43,6.54,8.89l110.42,63.75c8.78,5.07,23,5.07,31.78,0l109.84-63.87c4.24-2.45,6.39-5.67,6.54-8.86h0Z"/><path id="Path_5386" data-name="Path 5386" class="cls-27" d="M825,296.68,714.59,232.92c-8.79-5.07-23-5.07-31.78,0L572.93,296.79c-8.78,5.07-8.78,13.3,0,18.37l110.43,63.75c8.78,5.07,23,5.07,31.77,0L825,315C833.79,310,833.79,301.75,825,296.68Z"/><path id="Path_5387" data-name="Path 5387" class="cls-11" d="M772.41,300.54l-64.34-37.15c-5.13-3-13.42-3-18.54,0l-64,37.21c-5.13,3-5.13,7.74,0,10.71l64.34,37.1c5.12,3,13.41,3,18.53,0l64-37.22C777.53,308.28,777.53,303.49,772.41,300.54Z"/><path id="Path_5388" data-name="Path 5388" class="cls-10" d="M825,311.84,715.17,375.71c-8.79,5.07-23,5.07-31.78,0L573,312c-3.69-2.12-5.8-4.81-6.4-7.58-.82,3.84,1.29,7.84,6.4,10.79l110.42,63.75c8.78,5.07,23,5.07,31.77,0L825,315c5.1-2.94,7.22-7,6.39-10.78C830.77,307,828.69,309.7,825,311.84Z"/><path id="Path_5389" data-name="Path 5389" class="cls-10" d="M730,393l-5.22,3v-6l5.22-3Z"/><path id="Path_5390" data-name="Path 5390" class="cls-10" d="M741,386.73l-5.23,3v-6l5.23-3Z"/><path id="Path_5391" data-name="Path 5391" class="cls-10" d="M751.89,380.42l-5.23,3v-6l5.23-3Z"/><path id="Path_5392" data-name="Path 5392" class="cls-10" d="M743,397.8l-5.24,3v-6l5.24-3Z"/><path id="Path_5393" data-name="Path 5393" class="cls-10" d="M752.57,392.24l-5.22,3v-6l5.22-3Z"/><path id="Path_5394" data-name="Path 5394" class="cls-10" d="M787,360.16l-5.22,3v-6l5.22-3Z"/><path id="Path_5395" data-name="Path 5395" class="cls-10" d="M817.09,342.77l-5.22,3v-6l5.22-3Z"/><path id="Path_5396" data-name="Path 5396" class="cls-10" d="M762.82,374.1l-5.22,3v-6l5.22-3Z"/><path id="Path_5397" data-name="Path 5397" class="cls-28" d="M831.59,259.88h0V206.94l-67,8.92-50.09-28.93c-8.78-5.07-23-5.07-31.78,0l-7.8,5-108.61,14.5v53.9h0c.13,3.24,2.27,6.44,6.54,8.9l110.42,63.75c8.78,5.07,23,5.07,31.78,0l109.84-63.86c4.24-2.46,6.39-5.68,6.54-8.88h0Z"/><path id="Path_5398" data-name="Path 5398" class="cls-29" d="M825,197.35,714.59,133.61c-8.79-5.08-23-5.08-31.78,0L572.93,197.47c-8.78,5.07-8.78,13.29,0,18.36l110.43,63.76c8.78,5.07,23,5.07,31.77,0L825,215.72C833.79,210.65,833.79,202.43,825,197.35Z"/><path id="Path_5399" data-name="Path 5399" class="cls-10" d="M825,212.51,715.17,276.38c-8.79,5.08-23,5.08-31.78,0L573,212.64c-3.69-2.13-5.8-4.81-6.4-7.58-.82,3.84,1.29,7.84,6.4,10.78L683.39,279.6c8.78,5.07,23,5.07,31.77,0L825,215.73c5.1-2.95,7.22-7,6.39-10.8C830.77,207.68,828.69,210.39,825,212.51Z"/><path id="Path_5400" data-name="Path 5400" class="cls-10" d="M730,293.72l-5.22,3v-6l5.22-3Z"/><path id="Path_5401" data-name="Path 5401" class="cls-10" d="M741,287.4l-5.23,3v-6l5.23-3Z"/><path id="Path_5402" data-name="Path 5402" class="cls-10" d="M751.89,281.09l-5.23,3v-6l5.23-3Z"/><path id="Path_5403" data-name="Path 5403" class="cls-10" d="M743,298.49l-5.24,3v-6l5.24-3Z"/><path id="Path_5404" data-name="Path 5404" class="cls-10" d="M752.57,292.93l-5.22,3v-6l5.22-3Z"/><path id="Path_5405" data-name="Path 5405" class="cls-10" d="M787,260.85l-5.22,3v-6l5.22-3Z"/><path id="Path_5406" data-name="Path 5406" class="cls-10" d="M817.09,243.45l-5.22,3v-6l5.22-3Z"/><path id="Path_5407" data-name="Path 5407" class="cls-10" d="M762.82,274.78l-5.22,3v-6l5.22-3Z"/><path id="Path_5408" data-name="Path 5408" class="cls-5" d="M503.4,684.22A33.52,33.52,0,0,1,487,680.3L376.57,616.55c-4.54-2.65-7.1-6.22-7.1-10.07s2.52-7.43,7.1-10.08L486.4,532.54c9.08-5.24,23.83-5.24,32.84,0l110.42,63.74c4.54,2.64,7.1,6.23,7.1,10.08s-2.52,7.43-7.1,10.08L519.82,680.31A33.75,33.75,0,0,1,503.4,684.22Zm-.6-153.58a31.37,31.37,0,0,0-15.39,3.68L377.58,598.18c-3.93,2.27-6.09,5.2-6.09,8.3s2.16,6,6.08,8.3L488,678.53c8.49,4.9,22.3,4.9,30.79,0l109.84-63.87c3.92-2.27,6.08-5.21,6.08-8.3s-2.16-6-6.07-8.3L518.25,534.32a31.38,31.38,0,0,0-15.45-3.68Z"/><path id="Path_5409" data-name="Path 5409" class="cls-30" d="M601.83,599.21l-86.48-49.94c-6.89-4-18-4-25,0l-86,50c-6.88,4-6.88,10.42,0,14.39l86.49,49.93c6.87,4,18,4,25,0l86-50C608.72,609.59,608.72,603.15,601.83,599.21Z"/><path id="Path_5410" data-name="Path 5410" class="cls-31" d="M636.28,571.52h0V518.63l-66.9,8.92-50.09-28.91c-8.79-5.08-23-5.08-31.78,0l-7.8,5L371,518V572h0c.12,3.23,2.27,6.42,6.55,8.9L488,644.6c8.8,5.08,23,5.08,31.78,0l109.83-63.87c4.25-2.45,6.4-5.67,6.53-8.86h0Z"/><path id="Path_5411" data-name="Path 5411" class="cls-32" d="M629.69,509,519.28,445.24c-8.79-5.07-23-5.07-31.78,0L377.62,509.11c-8.78,5.07-8.78,13.3,0,18.37L488,591.26c8.8,5.08,23,5.08,31.78,0l109.83-63.87C638.48,522.29,638.48,514.09,629.69,509Z"/><path id="Path_5412" data-name="Path 5412" class="cls-10" d="M629.69,524.16,519.82,588c-8.78,5.07-23,5.07-31.78,0L377.62,524.31c-3.69-2.14-5.81-4.82-6.4-7.58-.81,3.83,1.3,7.84,6.4,10.79L488,591.26c8.8,5.08,23,5.08,31.78,0l109.83-63.87c5.11-2.94,7.23-6.94,6.4-10.78C635.5,519.35,633.38,522,629.69,524.16Z"/><path id="Path_5413" data-name="Path 5413" class="cls-10" d="M534.7,605.36l-5.22,3v-6l5.22-3Z"/><path id="Path_5414" data-name="Path 5414" class="cls-10" d="M545.64,599.05l-5.23,3v-6l5.23-3Z"/><path id="Path_5415" data-name="Path 5415" class="cls-10" d="M556.57,592.73l-5.22,3v-6l5.22-3Z"/><path id="Path_5416" data-name="Path 5416" class="cls-10" d="M547.64,610.12l-5.24,3v-6l5.24-3Z"/><path id="Path_5417" data-name="Path 5417" class="cls-10" d="M557.26,604.57l-5.23,3v-6l5.23-3Z"/><path id="Path_5418" data-name="Path 5418" class="cls-10" d="M591.65,572.48l-5.22,3v-6l5.22-3Z"/><path id="Path_5419" data-name="Path 5419" class="cls-10" d="M621.78,555.08l-5.23,3v-6l5.23-3Z"/><path id="Path_5420" data-name="Path 5420" class="cls-10" d="M567.51,586.42l-5.22,3v-6l5.22-3Z"/><path id="Path_5421" data-name="Path 5421" class="cls-11" d="M497.41,564.3l-74.29-42.89c-3-1.74-2.64-4.79.85-6.81l72.63-41.91c3.5-2,8.76-2.27,11.78-.49l74.29,42.89c3,1.75,2.64,4.79-.84,6.81L509.2,563.81C505.7,565.82,500.43,566.05,497.41,564.3Z"/><path id="Path_5422" data-name="Path 5422" class="cls-10" d="M468.19,610.73l-61.28-35.4a6.33,6.33,0,0,1-2.65-5.06v-4.54c0-2,1.14-2.85,2.65-2l61.28,35.4a6.35,6.35,0,0,1,2.64,5.06v4.54C470.83,610.67,469.65,611.57,468.19,610.73Z"/><path id="Path_5423" data-name="Path 5423" class="cls-33" d="M636.28,472.2h0V419.25l-66.9,8.93-50.09-28.92c-8.79-5.08-23-5.08-31.78,0l-7.8,5L371,418.76v53.91h0c.12,3.22,2.27,6.44,6.55,8.9L488,545.25c8.8,5.07,23,5.07,31.78,0l109.83-63.87c4.25-2.45,6.4-5.68,6.53-8.87h0Z"/><path id="Path_5424" data-name="Path 5424" class="cls-34" d="M629.69,409.69,519.28,345.94c-8.79-5.07-23-5.07-31.78,0L377.62,409.79c-8.78,5.07-8.78,13.3,0,18.37L488,491.91c8.8,5.07,23,5.07,31.78,0l109.83-63.86C638.48,423,638.48,414.75,629.69,409.69Z"/><path id="Path_5425" data-name="Path 5425" class="cls-11" d="M577.1,413.53l-64.35-37.14c-5.12-3-13.41-3-18.53,0L430.17,413.6c-5.12,2.95-5.12,7.75,0,10.7l64.34,37.15c5.12,3,13.41,3,18.53,0l64-37.22C582.24,421.28,582.24,416.49,577.1,413.53Z"/><path id="Path_5426" data-name="Path 5426" class="cls-10" d="M629.69,424.84,519.82,488.71c-8.78,5.07-23,5.07-31.77,0L377.62,425c-3.69-2.12-5.81-4.81-6.4-7.58-.81,3.84,1.3,7.84,6.4,10.79L488,491.92c8.8,5.06,23,5.06,31.78,0l109.83-63.87c5.11-2.95,7.23-7,6.4-10.79C635.5,420,633.38,422.71,629.69,424.84Z"/><path id="Path_5427" data-name="Path 5427" class="cls-10" d="M534.7,506.05l-5.22,3v-6l5.22-3Z"/><path id="Path_5428" data-name="Path 5428" class="cls-10" d="M545.64,499.73l-5.23,3v-6l5.23-3Z"/><path id="Path_5429" data-name="Path 5429" class="cls-10" d="M556.57,493.42l-5.22,3v-6l5.22-3Z"/><path id="Path_5430" data-name="Path 5430" class="cls-10" d="M547.64,510.81l-5.24,3v-6l5.24-3Z"/><path id="Path_5431" data-name="Path 5431" class="cls-10" d="M557.26,505.25l-5.23,3v-6l5.23-3Z"/><path id="Path_5432" data-name="Path 5432" class="cls-10" d="M591.65,473.16l-5.22,3v-6l5.22-3Z"/><path id="Path_5433" data-name="Path 5433" class="cls-10" d="M621.78,455.77l-5.23,3v-6l5.23-3Z"/><path id="Path_5434" data-name="Path 5434" class="cls-10" d="M567.51,487.11l-5.22,3v-6l5.22-3Z"/><path id="Path_5435" data-name="Path 5435" class="cls-35" d="M636.28,372.88h0V319.94l-66.9,8.92L519.28,300c-8.78-5.08-23-5.08-31.78,0l-7.8,4.95L371,319.38v53.91h0c.12,3.24,2.27,6.44,6.55,8.9L488,445.93c8.8,5.08,23,5.08,31.78,0l109.83-63.87c4.25-2.45,6.4-5.67,6.53-8.86h0Z"/><path id="Path_5436" data-name="Path 5436" class="cls-36" d="M629.69,310.35,519.28,246.61c-8.79-5.08-23-5.08-31.78,0L377.62,310.48c-8.78,5.07-8.78,13.29,0,18.36L488,392.59c8.8,5.08,23,5.08,31.78,0l109.83-63.86C638.48,323.65,638.48,315.42,629.69,310.35Z"/><path id="Path_5437" data-name="Path 5437" class="cls-10" d="M629.69,325.51,519.82,389.38c-8.78,5.08-23,5.08-31.78,0L377.62,325.64c-3.69-2.14-5.81-4.81-6.4-7.58-.81,3.83,1.3,7.84,6.4,10.78L488,392.59c8.8,5.08,23,5.08,31.78,0l109.83-63.87c5.11-2.93,7.23-6.94,6.4-10.79C635.5,320.71,633.38,323.44,629.69,325.51Z"/><path id="Path_5438" data-name="Path 5438" class="cls-10" d="M534.7,406.72l-5.22,3v-6l5.22-3Z"/><path id="Path_5439" data-name="Path 5439" class="cls-10" d="M545.64,400.41l-5.23,3v-6l5.23-3Z"/><path id="Path_5440" data-name="Path 5440" class="cls-10" d="M556.57,394.09l-5.22,3v-6l5.22-3Z"/><path id="Path_5441" data-name="Path 5441" class="cls-10" d="M547.64,411.49l-5.24,3v-6l5.24-3Z"/><path id="Path_5442" data-name="Path 5442" class="cls-10" d="M557.26,405.93,552,409v-6l5.23-3Z"/><path id="Path_5443" data-name="Path 5443" class="cls-10" d="M591.65,373.85l-5.22,3v-6l5.22-3Z"/><path id="Path_5444" data-name="Path 5444" class="cls-10" d="M621.78,356.45l-5.23,3v-6l5.23-3Z"/><path id="Path_5445" data-name="Path 5445" class="cls-10" d="M567.51,387.78l-5.22,3v-6l5.22-3Z"/><rect id="Rectangle_176" data-name="Rectangle 176" class="cls-5" x="861.07" y="481.49" width="2.05" height="219.47" transform="translate(-80.97 1042.22) rotate(-60)"/><path id="Path_5446" data-name="Path 5446" class="cls-5" d="M1037.32,600.46l-60.74-35.07a50,50,0,0,0-20.7-5.9l-65.18-5.12a52.18,52.18,0,0,1-21.57-6.18L808.4,513.13l1-1.78,60.73,35.06a49.79,49.79,0,0,0,20.67,5.9L956,557.44a52.25,52.25,0,0,1,21.56,6.18l60.73,35.06Z"/><path id="Path_5447" data-name="Path 5447" class="cls-5" d="M876,693.58l-60.73-35.06c-5.91-3.4-9.81-7.95-11-12.85L795.42,608c-1-4.3-4.54-8.4-10-11.53l-60.74-35.07,1-1.78,60.77,35.06c5.93,3.41,9.81,7.95,11,12.85l8.87,37.63c1,4.32,4.54,8.41,10,11.53l60.72,35.07Z"/><path id="Path_5448" data-name="Path 5448" class="cls-5" d="M916.31,670.3l-64.69-37.37a27,27,0,0,1-7.86-6.6l-26.1-33.52a24.75,24.75,0,0,0-7.31-6.08l-64.69-37.38,1-1.78,64.69,37.37a26.69,26.69,0,0,1,7.86,6.6l26.1,33.52a24.47,24.47,0,0,0,7.28,6.07l64.68,37.37Z"/><path id="Path_5449" data-name="Path 5449" class="cls-5" d="M997,623.73l-64.68-37.37a42.84,42.84,0,0,0-10.73-4.26l-58.09-15.05a45.46,45.46,0,0,1-11.23-4.54l-64.68-37.37,1-1.77,64.69,37.37A42.93,42.93,0,0,0,864,565l58.06,15a45,45,0,0,1,11.22,4.47l64.69,37.38Z"/><rect id="Rectangle_177" data-name="Rectangle 177" class="cls-5" x="-14.63" y="566.93" width="226.69" height="2.05" transform="translate(-270.44 125.19) rotate(-29.96)"/><rect id="Rectangle_178" data-name="Rectangle 178" class="cls-5" x="13.44" y="583.14" width="226.69" height="2.05" transform="translate(-274.79 141.37) rotate(-29.96)"/><rect id="Rectangle_179" data-name="Rectangle 179" class="cls-5" x="41.53" y="599.35" width="226.69" height="2.05" transform="translate(-279.13 157.57) rotate(-29.96)"/><rect id="Rectangle_180" data-name="Rectangle 180" class="cls-5" x="69.59" y="615.56" width="226.69" height="2.05" transform="translate(-283.48 173.75) rotate(-29.96)"/></g></g></svg>