<?xml version="1.0" encoding="utf-8"?>
<!-- Generator: Adobe Illustrator 24.0.1, SVG Export Plug-In . SVG Version: 6.00 Build 0)  -->
<svg version="1.1" id="Layer_1" xmlns="http://www.w3.org/2000/svg" xmlns:xlink="http://www.w3.org/1999/xlink" x="0px" y="0px"
	 viewBox="0 0 645.2 687.9" style="enable-background:new 0 0 645.2 687.9;" xml:space="preserve">
<style type="text/css">
	.st0{opacity:0.2;}
	.st1{fill:#040506;fill-opacity:0;}
	.st2{opacity:9.000000e-02;fill:#040506;enable-background:new    ;}
	.st3{opacity:0.18;fill:#040506;enable-background:new    ;}
	.st4{opacity:0.27;fill:#040506;enable-background:new    ;}
	.st5{opacity:0.36;fill:#040506;enable-background:new    ;}
	.st6{opacity:0.46;fill:#040506;enable-background:new    ;}
	.st7{opacity:0.55;fill:#040506;enable-background:new    ;}
	.st8{opacity:0.64;fill:#040506;enable-background:new    ;}
	.st9{opacity:0.73;fill:#040506;enable-background:new    ;}
	.st10{opacity:0.82;fill:#040506;enable-background:new    ;}
	.st11{opacity:0.91;fill:#040506;enable-background:new    ;}
	.st12{fill:#040506;}
	.st13{fill:url(#Path_7637_1_);}
	.st14{fill:url(#Path_7638_1_);}
	.st15{opacity:0.2;fill:url(#Path_7639_1_);enable-background:new    ;}
	.st16{fill:url(#Path_7640_1_);}
	.st17{fill:url(#Path_7641_1_);}
	.st18{fill:url(#Path_7642_1_);}
	.st19{fill:url(#Path_7643_1_);}
	.st20{fill:url(#Path_7644_1_);}
	.st21{fill:url(#Path_7645_1_);}
	.st22{fill:url(#Path_7646_1_);}
	.st23{fill:url(#Path_7647_1_);}
	.st24{fill:url(#Path_7648_1_);}
	.st25{fill:url(#Path_7649_1_);}
	.st26{fill:url(#Path_7650_1_);}
	.st27{fill:url(#Path_7651_1_);}
	.st28{fill:url(#Path_7652_1_);}
	.st29{fill:url(#Path_7653_1_);}
	.st30{fill:url(#Path_7654_1_);}
	.st31{fill:url(#Path_7655_1_);}
	.st32{fill:url(#Path_7656_1_);}
	.st33{fill:url(#Path_7657_1_);}
	.st34{fill:url(#Path_7658_1_);}
	.st35{fill:url(#Path_7659_1_);}
	.st36{fill:url(#Path_7660_1_);}
	.st37{fill:url(#Path_7661_1_);}
	.st38{fill:url(#Path_7662_1_);}
	.st39{fill:url(#Path_7663_1_);}
	.st40{fill:url(#Path_7664_1_);}
	.st41{fill:url(#Path_7665_1_);}
	.st42{fill:url(#Path_7666_1_);}
	.st43{fill:url(#Path_7667_1_);}
	.st44{fill:url(#Path_7668_1_);}
	.st45{fill:url(#Path_7669_1_);}
	.st46{fill:url(#Path_7670_1_);}
	.st47{fill:url(#Ellipse_158_1_);}
	.st48{fill:url(#Path_7671_1_);}
	.st49{fill:url(#Path_7672_1_);}
	.st50{fill:#DEE2F3;}
	.st51{fill:url(#Path_7673_1_);}
	.st52{fill:url(#Path_7674_1_);}
	.st53{fill:url(#Path_7688_1_);}
	.st54{fill:url(#Path_7689_1_);}
	.st55{opacity:0.2;fill:url(#Path_7690_1_);enable-background:new    ;}
	.st56{opacity:0.82;fill:url(#Path_7691_1_);enable-background:new    ;}
	.st57{fill:#FFFFFF;}
	.st58{fill:url(#Path_7693_1_);}
	.st59{fill:url(#Path_7694_1_);}
	.st60{fill:url(#Path_7696_1_);}
	.st61{fill:url(#Path_7697_1_);}
	.st62{fill:#DEE2F3;fill-opacity:0;}
	.st63{opacity:9.000000e-02;fill:#DEE2F3;enable-background:new    ;}
	.st64{opacity:0.18;fill:#DEE2F3;enable-background:new    ;}
	.st65{opacity:0.27;fill:#DEE2F3;enable-background:new    ;}
	.st66{opacity:0.36;fill:#DEE2F3;enable-background:new    ;}
	.st67{opacity:0.46;fill:#DEE2F3;enable-background:new    ;}
	.st68{opacity:0.55;fill:#DEE2F3;enable-background:new    ;}
	.st69{opacity:0.64;fill:#DEE2F3;enable-background:new    ;}
	.st70{opacity:0.73;fill:#DEE2F3;enable-background:new    ;}
	.st71{opacity:0.82;fill:#DEE2F3;enable-background:new    ;}
	.st72{opacity:0.91;fill:#DEE2F3;enable-background:new    ;}
	.st73{fill:url(#Path_7722_1_);}
	.st74{fill:url(#Path_7723_1_);}
	.st75{opacity:0.2;fill:url(#Path_7724_1_);enable-background:new    ;}
	.st76{fill:#FCFDFD;}
	.st77{opacity:0.3;fill:#FFFFFF;enable-background:new    ;}
	.st78{fill:url(#Path_7729_1_);}
	.st79{fill:url(#Path_7730_1_);}
	.st80{fill:url(#Path_7731_1_);}
	.st81{fill:url(#Path_7732_1_);}
	.st82{fill:url(#Path_7733_1_);}
	.st83{fill:url(#Path_7746_1_);}
	.st84{opacity:0.6;fill:url(#Path_7747_1_);enable-background:new    ;}
	.st85{fill:url(#Path_7749_1_);}
	.st86{fill:url(#Path_7750_1_);}
	.st87{fill:url(#Path_7752_1_);}
	.st88{fill:url(#Path_7753_1_);}
	.st89{fill:url(#Path_7754_1_);}
	.st90{fill:url(#Path_7755_1_);}
</style>
<g id="Group_1233">
	<g id="Group_1210">
		<g id="Group_1201" class="st0">
			<path id="Path_7625" class="st1" d="M130,440.1c-5.2,0.1-10.2-1.1-14.8-3.6l-59.9-36.6c-5.4-3.1-8.5-8-8.5-13.5
				c0-6,3.7-11.6,10.3-15.4l89-51.4c5.5-3,11.7-4.6,18-4.6c5.2-0.1,10.3,1.1,14.8,3.6l59.8,36.5c5.4,3.1,8.5,8.1,8.5,13.5
				c0,6-3.7,11.6-10.3,15.4l-89,51.4C142.4,438.6,136.2,440.1,130,440.1z"/>
			<path id="Path_7626" class="st2" d="M143.6,322c5.5-3,11.6-4.6,17.9-4.4c2.7,0,5.3,0.4,7.9,1c2.3,0.6,4.6,1.5,6.7,2.7l57.4,35.1
				c0.1,0,2.1,1.2,2.1,1.3c5.3,3.2,7.7,8.1,7.4,13.4c-0.3,5.5-4.3,11.1-10.2,14.5l-79.2,45.9c-0.1,0.1-6.3,3.6-6.5,3.7
				c-5.3,2.9-11.3,4.3-17.4,4.3c-5,0.1-9.9-1.1-14.3-3.4l-59.1-36.1l-0.9-0.5c-5.4-3.2-7.8-8.2-7.5-13.5c0.3-5.4,4.3-11.1,10.1-14.5
				L143.6,322z"/>
			<path id="Path_7627" class="st3" d="M141.2,324.2c5.4-3,11.6-4.5,17.8-4.3c2.7,0.1,5.3,0.5,7.9,1.2c2.3,0.7,4.5,1.6,6.6,2.8
				l57.1,34.8c0.1,0.1,2,1.2,2.1,1.3c5.1,3.2,6.8,8.1,6.3,13.4c-0.5,4.9-4.8,10.6-10.2,13.7l-76.2,44.3c-0.2,0.1-6,3.4-6.2,3.5
				c-5.2,2.7-10.9,4.1-16.7,4c-4.8,0.1-9.5-1.1-13.7-3.4l-59.2-36.1l-0.9-0.5c-5.4-3.2-7.1-8.2-6.4-13.5c0.5-4.9,4.7-10.5,10-13.6
				L141.2,324.2z"/>
			<path id="Path_7628" class="st4" d="M138.7,326.5c5.4-3,11.5-4.4,17.7-4.2c2.6,0.1,5.2,0.5,7.8,1.3c2.3,0.8,4.4,1.7,6.5,2.9
				l56.7,34.6c0.2,0.1,1.9,1.2,2.1,1.3c5,3.3,6.1,8.1,5.2,13.3c-0.7,4.3-5.4,10.1-10.1,12.8l-73.1,42.7c-0.4,0.2-5.6,3.2-6,3.3
				c-5,2.5-10.5,3.8-16.1,3.7c-4.6,0.1-9.2-1-13.2-3.2l-59.3-36.2l-0.9-0.5c-5.4-3.3-7.3-8.4-5.5-13.5c0-4.4,5.2-10,10-12.7
				L138.7,326.5z"/>
			<path id="Path_7629" class="st5" d="M136.3,328.7c5.4-2.9,11.5-4.3,17.6-4c2.6,0.1,5.2,0.6,7.7,1.4c2.2,0.8,4.4,1.8,6.4,3
				l56.4,34.4c0.3,0.2,1.8,1.1,2,1.3c4.9,3.3,6.4,8.4,4.1,13.2c0,3.8-6,9.6-10.1,12l-70,41c-0.5,0.3-5.2,3-5.8,3.1
				c-4.8,2.4-10.1,3.5-15.5,3.4c-4.4,0-8.8-1-12.6-3.1l-59.3-36.2c-0.1-0.1-0.7-0.4-0.9-0.5c-5.4-3.3-7-8.5-4.5-13.5
				c0-3.8,5.7-9.4,9.9-11.8L136.3,328.7z"/>
			<path id="Path_7630" class="st6" d="M133.9,331c5.4-2.9,11.4-4.3,17.5-4c2.6,0.2,5.2,0.7,7.6,1.5c2.2,0.9,4.3,1.9,6.4,3.1
				l56.1,34.2c0.3,0.2,1.8,1.1,2,1.3c4.8,3.4,5.8,8.5,3,13.1c0,3.3-6.5,9.1-10.1,11.1l-67,39.4c-0.6,0.3-4.9,2.7-5.6,3
				c-4.6,2.2-9.7,3.3-14.8,3.2c-4.2,0-8.4-1-12.1-3l-59.4-36.2l-0.9-0.5c-5.3-3.4-6.6-8.7-3.5-13.5c0-3.3,6.2-8.9,9.8-11L133.9,331z
				"/>
			<path id="Path_7631" class="st7" d="M131.4,333.2c5.3-2.9,11.4-4.2,17.4-3.8c2.6,0.2,5.1,0.8,7.5,1.6c2.1,0.9,4.2,2,6.3,3.2
				l55.7,34c0.7,0.4,1.4,0.9,2,1.3c4.7,3.4,5.3,8.5,1.9,13c0,2.7-7.1,8.5-10.1,10.3l-63.9,37.8c-0.7,0.4-4.5,2.5-5.3,2.8
				c-4.5,2-9.3,3-14.2,2.9c-4,0-8-1-11.5-2.9l-59.5-36.3l-0.9-0.5c-5.3-3.4-6.2-8.8-2.5-13.5c0-2.7,6.7-8.4,9.7-10.1L131.4,333.2z"
				/>
			<path id="Path_7632" class="st8" d="M129,335.5c5.3-2.9,11.3-4.2,17.4-3.7c2.6,0.3,5.1,0.8,7.5,1.7c0.9,0.3,5.4,2.8,6.2,3.2
				l55.4,33.8c0.7,0.4,1.3,0.8,2,1.3c4.5,3.5,4.8,8.6,0.8,12.9c0,2.2-7.7,8.1-10,9.4l-60.9,36.2c-1.7,0.9-3.4,1.8-5.1,2.6
				c-4.3,1.8-8.9,2.7-13.6,2.6c-3.8,0-7.6-1-11-2.8L58,396.5c-0.2-0.1-0.7-0.4-0.9-0.5c-5.3-3.4-5.8-9-1.5-13.5
				c0-2.2,7.2-7.8,9.6-9.2L129,335.5z"/>
			<path id="Path_7633" class="st9" d="M126.6,337.8c5.3-2.9,11.3-4.1,17.3-3.6c2.5,0.3,5,0.9,7.4,1.9c0.6,0.2,5.5,3,6.1,3.3
				l55,33.6c0.7,0.4,1.3,0.8,2,1.3c4.4,3.5,4.3,8.7-0.3,12.8c0,1.6-8.2,7.6-10,8.6l-57.8,34.6c-1.6,0.9-3.2,1.7-4.9,2.4
				c-4.1,1.7-8.5,2.5-13,2.3c-3.7,0-7.2-1-10.5-2.7L58.2,396c-0.2-0.1-0.6-0.4-0.9-0.5c-5.3-3.5-5.4-9.1-0.5-13.4
				c0-1.6,7.8-7.3,9.5-8.3L126.6,337.8z"/>
			<path id="Path_7634" class="st10" d="M124.1,340.1c5.2-2.8,11.2-4.1,17.2-3.5c2.5,0.3,5,1,7.3,2c0.4,0.2,5.6,3.2,6,3.4l54.7,33.4
				c0.7,0.4,1.3,0.8,1.9,1.4c4.3,3.6,3.7,8.8-1.4,12.8c0,1.1-8.8,7.1-10,7.7l-54.7,32.9c-1.5,0.9-3.1,1.6-4.7,2.2
				c-3.9,1.5-8.1,2.2-12.4,2c-3.5-0.1-6.9-0.9-9.9-2.6l-59.7-36.5c-0.2-0.1-0.6-0.4-0.9-0.5c-5.3-3.5-5-9.2,0.6-13.4
				c0-1.1,8.3-6.7,9.4-7.4L124.1,340.1z"/>
			<path id="Path_7635" class="st11" d="M121.7,342.3c5.2-2.8,11.2-4,17.1-3.3c2.5,0.4,4.9,1.1,7.2,2.1c0.2,0.1,5.7,3.4,5.9,3.5
				l54.3,33.1c0.7,0.4,1.3,0.8,1.9,1.4c4.1,3.6,3.2,8.9-2.6,12.7c0,0.5-9.4,6.6-9.9,6.9L144.1,430c-1.4,0.8-2.9,1.5-4.4,2.1
				c-3.8,1.4-7.7,1.9-11.7,1.8c-3.3-0.1-6.5-0.9-9.4-2.5l-59.7-36.5c-0.3-0.2-0.6-0.4-0.9-0.5c-5.3-3.6-4.6-9.4,1.6-13.4
				c0-0.5,8.8-6.2,9.4-6.5L121.7,342.3z"/>
			<path id="Path_7636" class="st12" d="M118.9,430.8L59,394.3c-6.2-3.6-5.4-9.8,1.7-13.9l58.5-35.8c7.1-4.1,18-4.6,24.2-1
				l59.8,36.5c6.2,3.6,5.4,9.8-1.7,13.9L143,429.9C135.9,433.9,125.1,434.4,118.9,430.8z"/>
		</g>
		<g id="Group_1202">
			
				<linearGradient id="Path_7637_1_" gradientUnits="userSpaceOnUse" x1="-607.2678" y1="-117.3862" x2="-606.4129" y2="-117.3862" gradientTransform="matrix(175.91 0 0 119.15 106883.4375 14367.1758)">
				<stop  offset="4.000000e-02" style="stop-color:#DEE2F3"/>
				<stop  offset="0.3" style="stop-color:#DEE2F3"/>
				<stop  offset="0.34" style="stop-color:#DEE2F3"/>
				<stop  offset="0.41" style="stop-color:#E8EAF6"/>
				<stop  offset="0.49" style="stop-color:#FFFFFF"/>
				<stop  offset="0.59" style="stop-color:#FFFFFF"/>
				<stop  offset="1" style="stop-color:#FFFFFF"/>
			</linearGradient>
			<path id="Path_7637" class="st13" d="M206,368.7h-1.5c-0.9-1.1-1.9-2-3.2-2.7L143,332.4c-6.9-4-19-3.5-26.9,1.1l-53.9,31.1
				c-1.9,1-3.5,2.4-4.8,4.1h-1.8V389h0c0.2,2.3,1.7,4.5,4.6,6.2l58.3,33.7c6.9,4,19,3.5,26.9-1.1l53.9-31.1c3.8-2.2,5.9-4.9,6.4-7.6
				h0.1L206,368.7z"/>
			
				<linearGradient id="Path_7638_1_" gradientUnits="userSpaceOnUse" x1="-606.6395" y1="-117.8655" x2="-606.9302" y2="-116.5575" gradientTransform="matrix(175.92 0 0 101.56 106883.2734 12254.8438)">
				<stop  offset="0" style="stop-color:#DEE2F3"/>
				<stop  offset="0.2" style="stop-color:#E4E7F5"/>
				<stop  offset="0.48" style="stop-color:#F6F7FC"/>
				<stop  offset="0.58" style="stop-color:#FFFFFF"/>
				<stop  offset="1" style="stop-color:#FFFFFF"/>
			</linearGradient>
			<path id="Path_7638" class="st14" d="M118.5,409.6l-58.3-33.7c-6.9-4-6-10.9,1.9-15.5l53.9-31.1c8-4.6,20-5.1,26.9-1.1l58.3,33.7
				c6.9,4,6,10.9-1.9,15.5l-53.9,31.1C137.5,413.1,125.5,413.6,118.5,409.6z"/>
			
				<linearGradient id="Path_7639_1_" gradientUnits="userSpaceOnUse" x1="-607.2662" y1="-115.4965" x2="-606.4113" y2="-115.4965" gradientTransform="matrix(175.91 0 0 62.7 106881.5469 7662.1855)">
				<stop  offset="4.000000e-02" style="stop-color:#DEE2F3"/>
				<stop  offset="0.3" style="stop-color:#DEE2F3"/>
				<stop  offset="0.34" style="stop-color:#DEE2F3"/>
				<stop  offset="0.41" style="stop-color:#E8EAF6"/>
				<stop  offset="0.49" style="stop-color:#FFFFFF"/>
				<stop  offset="0.59" style="stop-color:#FFFFFF"/>
				<stop  offset="1" style="stop-color:#FFFFFF"/>
			</linearGradient>
			<path id="Path_7639" class="st15" d="M205.9,393.7c-0.1,3-2.3,6.2-6.6,8.7l-53.9,31.1c-8,4.6-20,5.1-26.9,1.1L60.2,401
				c-3.3-1.9-4.8-4.5-4.6-7.3h0v11.1h0.1c0.2,2.3,1.7,4.5,4.6,6.2l58.3,33.7c6.9,4,19,3.5,26.9-1.1l53.9-31.1
				c3.8-2.2,5.9-4.9,6.4-7.6h0.1L205.9,393.7L205.9,393.7z"/>
			
				<radialGradient id="Path_7640_1_" cx="-598.178" cy="-114.6103" r="1.0686" gradientTransform="matrix(52.24 0 0 52.15 31377.2793 6366.4541)" gradientUnits="userSpaceOnUse">
				<stop  offset="0" style="stop-color:#FFFFFF"/>
				<stop  offset="1" style="stop-color:#000000"/>
			</radialGradient>
			<path id="Path_7640" class="st16" d="M199.4,376.1l-53.9,31.1c-8,4.6-20,5.1-26.9,1.1l-58.3-33.7c-2.8-1.6-4.3-3.7-4.6-5.9
				c-0.4,2.9,1.1,5.7,4.6,7.7l58.3,33.7c6.9,4,18.9,3.5,26.9-1.1l53.9-31.1c4.8-2.8,7-6.3,6.5-9.7
				C205.5,371,203.2,373.9,199.4,376.1z"/>
			
				<linearGradient id="Path_7641_1_" gradientUnits="userSpaceOnUse" x1="-606.9692" y1="-117.1757" x2="-606.1141" y2="-117.1757" gradientTransform="matrix(162.76 0 0 110.24 98849.6563 13277.1846)">
				<stop  offset="0" style="stop-color:#DEE2F3"/>
				<stop  offset="0.5" style="stop-color:#DD131F"/>
				<stop  offset="1" style="stop-color:#DEE2F3"/>
			</linearGradient>
			<path id="Path_7641" class="st17" d="M200.3,348.7H199c-0.8-1-1.8-1.8-2.9-2.5l-53.9-31.1c-6.4-3.7-17.6-3.2-24.9,1.1l-49.8,28.8
				c-1.7,0.9-3.2,2.2-4.5,3.8h-1.7v18.8h0c0.2,2.1,1.6,4.2,4.3,5.7l54,31.2c6.4,3.7,17.5,3.2,24.9-1l49.9-28.8c3.5-2,5.5-4.5,6-7
				h0.1L200.3,348.7z"/>
			
				<linearGradient id="Path_7642_1_" gradientUnits="userSpaceOnUse" x1="-606.9692" y1="-117.1744" x2="-606.1141" y2="-117.1744" gradientTransform="matrix(162.76 0 0 110.24 98849.6563 13273.8174)">
				<stop  offset="0" style="stop-color:#DEE2F3"/>
				<stop  offset="0.26" style="stop-color:#DEE2F3"/>
				<stop  offset="0.9" style="stop-color:#DEE2F3"/>
			</linearGradient>
			<path id="Path_7642" class="st18" d="M200.3,345.5H199c-0.8-1-1.8-1.8-2.9-2.5l-54-31.2c-6.4-3.7-17.5-3.2-24.9,1l-49.8,28.8
				c-1.7,0.9-3.2,2.2-4.5,3.8h-1.7v18.8h0c0.2,2.1,1.6,4.2,4.3,5.7l54,31.2c6.4,3.7,17.5,3.2,24.9-1l49.9-28.8c3.5-2,5.5-4.5,6-7
				h0.1L200.3,345.5z"/>
		</g>
		<g id="Group_1203">
			
				<linearGradient id="Path_7643_1_" gradientUnits="userSpaceOnUse" x1="-607.2678" y1="-117.3735" x2="-606.4129" y2="-117.3735" gradientTransform="matrix(175.91 0 0 119.15 106883.4375 14333.4336)">
				<stop  offset="4.000000e-02" style="stop-color:#DEE2F3"/>
				<stop  offset="0.3" style="stop-color:#DEE2F3"/>
				<stop  offset="0.34" style="stop-color:#DEE2F3"/>
				<stop  offset="0.41" style="stop-color:#E8EAF6"/>
				<stop  offset="0.49" style="stop-color:#FFFFFF"/>
				<stop  offset="0.59" style="stop-color:#FFFFFF"/>
				<stop  offset="1" style="stop-color:#FFFFFF"/>
			</linearGradient>
			<path id="Path_7643" class="st19" d="M206,336.4h-1.5c-0.9-1.1-1.9-2-3.2-2.7L143,300.1c-6.9-4-19-3.5-26.9,1.1l-53.9,31.1
				c-1.9,1-3.5,2.4-4.8,4.1h-1.8v20.3h0c0.2,2.3,1.7,4.5,4.6,6.2l58.3,33.7c6.9,4,19,3.5,26.9-1.1l53.9-31.1
				c3.8-2.2,5.9-4.9,6.4-7.6h0.1L206,336.4z"/>
			
				<linearGradient id="Path_7644_1_" gradientUnits="userSpaceOnUse" x1="-606.6667" y1="-117.8195" x2="-606.9575" y2="-116.5115" gradientTransform="matrix(175.91 0 0 101.56 106881.6172 12218.9453)">
				<stop  offset="0" style="stop-color:#DEE2F3"/>
				<stop  offset="0.2" style="stop-color:#E4E7F5"/>
				<stop  offset="0.48" style="stop-color:#F6F7FC"/>
				<stop  offset="0.58" style="stop-color:#FFFFFF"/>
				<stop  offset="1" style="stop-color:#FFFFFF"/>
			</linearGradient>
			<path id="Path_7644" class="st20" d="M118.5,377.4l-58.3-33.7c-6.9-4-6-10.9,1.9-15.5L116,297c8-4.6,20-5.1,26.9-1.1l58.3,33.7
				c6.9,4,6,10.9-1.9,15.5l-53.9,31.1C137.5,380.9,125.5,381.4,118.5,377.4z"/>
			
				<radialGradient id="Path_7645_1_" cx="-606.8369" cy="-114.5053" r="1.0599" gradientTransform="matrix(175.88 0 0 52.15 106861.2266 6328.7158)" gradientUnits="userSpaceOnUse">
				<stop  offset="0" style="stop-color:#FFFFFF"/>
				<stop  offset="1" style="stop-color:#000000"/>
			</radialGradient>
			<path id="Path_7645" class="st21" d="M199.4,343.9l-53.9,31.1c-8,4.6-20,5.1-26.9,1.1l-58.3-33.7c-2.8-1.6-4.3-3.7-4.6-5.9
				c-0.4,2.9,1.1,5.7,4.6,7.7l58.3,33.7c6.9,4,18.9,3.5,26.9-1.1l53.9-31.1c4.8-2.8,7-6.4,6.5-9.7
				C205.5,338.8,203.2,341.7,199.4,343.9z"/>
			
				<linearGradient id="Path_7646_1_" gradientUnits="userSpaceOnUse" x1="-606.9692" y1="-117.1291" x2="-606.1141" y2="-117.1291" gradientTransform="matrix(162.76 0 0 110.24 98849.6563 13239.8252)">
				<stop  offset="0" style="stop-color:#DEE2F3"/>
				<stop  offset="0.5" style="stop-color:#DD131F"/>
				<stop  offset="1" style="stop-color:#DEE2F3"/>
			</linearGradient>
			<path id="Path_7646" class="st22" d="M200.3,316.5H199c-0.8-1-1.8-1.8-2.9-2.5l-53.9-31.1c-6.4-3.7-17.5-3.2-24.9,1l-49.9,28.8
				c-1.7,0.9-3.2,2.2-4.5,3.8h-1.7v18.8h0c0.2,2.1,1.6,4.2,4.3,5.7l54,31.2c6.4,3.7,17.5,3.2,24.9-1l49.9-28.8c3.5-2,5.5-4.5,6-7
				h0.1L200.3,316.5z"/>
			
				<linearGradient id="Path_7647_1_" gradientUnits="userSpaceOnUse" x1="-606.9692" y1="-117.1192" x2="-606.1141" y2="-117.1192" gradientTransform="matrix(162.76 0 0 110.24 98849.6563 13235.5361)">
				<stop  offset="0" style="stop-color:#DEE2F3"/>
				<stop  offset="0.26" style="stop-color:#DEE2F3"/>
				<stop  offset="0.9" style="stop-color:#DEE2F3"/>
			</linearGradient>
			<path id="Path_7647" class="st23" d="M200.3,313.3H199c-0.8-1-1.8-1.8-2.9-2.5l-53.9-31.1c-6.4-3.7-17.5-3.2-24.9,1l-49.9,28.8
				c-1.7,0.9-3.2,2.2-4.5,3.8h-1.7v18.8h0c0.2,2.1,1.6,4.2,4.3,5.7l54,31.2c6.4,3.7,17.5,3.2,24.9-1l49.9-28.8c3.5-2,5.5-4.5,6-7
				h0.1L200.3,313.3z"/>
		</g>
		<g id="Group_1204">
			
				<linearGradient id="Path_7648_1_" gradientUnits="userSpaceOnUse" x1="-607.2678" y1="-117.315" x2="-606.4129" y2="-117.315" gradientTransform="matrix(175.91 0 0 119.15 106883.4375 14294.2461)">
				<stop  offset="4.000000e-02" style="stop-color:#DEE2F3"/>
				<stop  offset="0.3" style="stop-color:#DEE2F3"/>
				<stop  offset="0.34" style="stop-color:#DEE2F3"/>
				<stop  offset="0.41" style="stop-color:#E8EAF6"/>
				<stop  offset="0.49" style="stop-color:#FFFFFF"/>
				<stop  offset="0.59" style="stop-color:#FFFFFF"/>
				<stop  offset="1" style="stop-color:#FFFFFF"/>
			</linearGradient>
			<path id="Path_7648" class="st24" d="M206,304.2h-1.5c-0.9-1.1-1.9-2-3.2-2.7L143,267.9c-6.9-4-19-3.5-26.9,1.1l-53.9,31.1
				c-1.9,1-3.5,2.4-4.8,4.1h-1.8v20.4h0c0.2,2.3,1.7,4.5,4.6,6.2l58.3,33.7c6.9,4,19,3.5,26.9-1.1l53.9-31.1
				c3.8-2.2,5.9-4.9,6.4-7.6h0.1L206,304.2z"/>
			
				<linearGradient id="Path_7649_1_" gradientUnits="userSpaceOnUse" x1="-606.6411" y1="-117.7595" x2="-606.9317" y2="-116.4514" gradientTransform="matrix(175.92 0 0 101.56 106883.2734 12180.3438)">
				<stop  offset="0" style="stop-color:#DEE2F3"/>
				<stop  offset="0.2" style="stop-color:#E4E7F5"/>
				<stop  offset="0.48" style="stop-color:#F6F7FC"/>
				<stop  offset="0.58" style="stop-color:#FFFFFF"/>
				<stop  offset="1" style="stop-color:#FFFFFF"/>
			</linearGradient>
			<path id="Path_7649" class="st25" d="M118.5,345.2l-58.3-33.7c-6.9-4-6-10.9,1.9-15.5l53.9-31.1c8-4.6,20-5.1,26.9-1.1l58.3,33.6
				c6.9,4,6,10.9-1.9,15.5L145.4,344C137.5,348.6,125.5,349.1,118.5,345.2z"/>
			
				<radialGradient id="Path_7650_1_" cx="-606.8369" cy="-114.4042" r="1.0601" gradientTransform="matrix(175.88 0 0 52.15 106861.2266 6292.3369)" gradientUnits="userSpaceOnUse">
				<stop  offset="0" style="stop-color:#FFFFFF"/>
				<stop  offset="1" style="stop-color:#000000"/>
			</radialGradient>
			<path id="Path_7650" class="st26" d="M199.4,311.7l-53.9,31.1c-8,4.6-20,5.1-26.9,1.1l-58.3-33.7c-2.8-1.6-4.3-3.7-4.6-5.9
				c-0.4,2.9,1.1,5.7,4.6,7.7l58.3,33.7c6.9,4,18.9,3.5,26.9-1.1l53.9-31.1c4.8-2.8,7-6.4,6.5-9.7
				C205.5,306.6,203.2,309.5,199.4,311.7z"/>
			
				<linearGradient id="Path_7651_1_" gradientUnits="userSpaceOnUse" x1="-606.9692" y1="-117.104" x2="-606.1141" y2="-117.104" gradientTransform="matrix(162.76 0 0 110.24 98849.6563 13204.8486)">
				<stop  offset="0" style="stop-color:#DEE2F3"/>
				<stop  offset="0.5" style="stop-color:#DD131F"/>
				<stop  offset="1" style="stop-color:#DEE2F3"/>
			</linearGradient>
			<path id="Path_7651" class="st27" d="M200.3,284.3H199c-0.8-1-1.8-1.8-2.9-2.5l-53.9-31.1c-6.4-3.7-17.5-3.2-24.9,1l-49.9,28.8
				c-1.7,0.9-3.2,2.2-4.5,3.8h-1.7v18.8h0c0.2,2.1,1.6,4.2,4.3,5.7l54,31.2c6.4,3.7,17.5,3.2,24.9-1l49.9-28.8c3.5-2,5.5-4.5,6-7
				h0.1L200.3,284.3z"/>
			
				<linearGradient id="Path_7652_1_" gradientUnits="userSpaceOnUse" x1="-606.9692" y1="-117.0661" x2="-606.1141" y2="-117.0661" gradientTransform="matrix(162.76 0 0 110.24 98849.6563 13197.4814)">
				<stop  offset="0" style="stop-color:#DEE2F3"/>
				<stop  offset="0.26" style="stop-color:#DEE2F3"/>
				<stop  offset="0.9" style="stop-color:#DEE2F3"/>
			</linearGradient>
			<path id="Path_7652" class="st28" d="M200.3,281.1H199c-0.8-1-1.8-1.8-2.9-2.5l-53.9-31.1c-6.4-3.7-17.5-3.2-24.9,1l-49.9,28.8
				c-1.7,0.9-3.2,2.2-4.5,3.8h-1.7v18.8h0c0.2,2.1,1.6,4.2,4.3,5.7l54,31.2c6.4,3.7,17.5,3.2,24.9-1l49.9-28.8c3.5-2,5.5-4.5,6-7
				h0.1L200.3,281.1z"/>
		</g>
		<g id="Group_1205">
			
				<linearGradient id="Path_7653_1_" gradientUnits="userSpaceOnUse" x1="-607.2678" y1="-117.2357" x2="-606.4129" y2="-117.2357" gradientTransform="matrix(175.91 0 0 119.15 106883.4375 14252.582)">
				<stop  offset="4.000000e-02" style="stop-color:#DEE2F3"/>
				<stop  offset="0.3" style="stop-color:#DEE2F3"/>
				<stop  offset="0.34" style="stop-color:#DEE2F3"/>
				<stop  offset="0.41" style="stop-color:#E8EAF6"/>
				<stop  offset="0.49" style="stop-color:#FFFFFF"/>
				<stop  offset="0.59" style="stop-color:#FFFFFF"/>
				<stop  offset="1" style="stop-color:#FFFFFF"/>
			</linearGradient>
			<path id="Path_7653" class="st29" d="M206,272h-1.5c-0.9-1.1-1.9-2-3.2-2.7L143,235.7c-6.9-4-19-3.5-26.9,1.1l-53.9,31.1
				c-1.9,1-3.5,2.4-4.8,4.1h-1.8v20.3h0c0.2,2.3,1.7,4.5,4.6,6.2l58.3,33.7c6.9,4,19,3.5,26.9-1.1l53.9-31.2
				c3.8-2.2,5.9-4.9,6.4-7.6h0.1V272z"/>
			
				<linearGradient id="Path_7654_1_" gradientUnits="userSpaceOnUse" x1="-606.6402" y1="-117.7048" x2="-606.9309" y2="-116.3968" gradientTransform="matrix(175.92 0 0 101.56 106883.2734 12142.2031)">
				<stop  offset="0" style="stop-color:#DEE2F3"/>
				<stop  offset="0.2" style="stop-color:#E4E7F5"/>
				<stop  offset="0.48" style="stop-color:#F6F7FC"/>
				<stop  offset="0.58" style="stop-color:#FFFFFF"/>
				<stop  offset="1" style="stop-color:#FFFFFF"/>
			</linearGradient>
			<path id="Path_7654" class="st30" d="M118.5,312.9l-58.3-33.7c-6.9-4-6-10.9,1.9-15.5l53.9-31.1c8-4.6,20-5.1,26.9-1.1l58.3,33.7
				c6.9,4,6,10.9-1.9,15.5l-53.9,31.2C137.5,316.4,125.5,316.9,118.5,312.9z"/>
			
				<radialGradient id="Path_7655_1_" cx="-606.8369" cy="-114.3058" r="1.0599" gradientTransform="matrix(175.88 0 0 52.15 106861.2266 6257.0166)" gradientUnits="userSpaceOnUse">
				<stop  offset="0" style="stop-color:#FFFFFF"/>
				<stop  offset="1" style="stop-color:#000000"/>
			</radialGradient>
			<path id="Path_7655" class="st31" d="M199.4,279.5l-53.9,31.1c-8,4.6-20,5.1-26.9,1.1l-58.3-33.7c-2.8-1.6-4.3-3.7-4.6-5.9
				c-0.4,2.9,1.1,5.7,4.6,7.7l58.3,33.7c6.9,4,18.9,3.5,26.9-1.1l53.9-31.1c4.8-2.8,7-6.4,6.5-9.7
				C205.5,274.4,203.2,277.2,199.4,279.5z"/>
			
				<linearGradient id="Path_7656_1_" gradientUnits="userSpaceOnUse" x1="-606.9692" y1="-117.03" x2="-606.1141" y2="-117.03" gradientTransform="matrix(162.76 0 0 110.24 98849.6563 13164.4658)">
				<stop  offset="0" style="stop-color:#DEE2F3"/>
				<stop  offset="0.5" style="stop-color:#DD131F"/>
				<stop  offset="1" style="stop-color:#DEE2F3"/>
			</linearGradient>
			<path id="Path_7656" class="st32" d="M200.3,252H199c-0.8-1-1.8-1.8-2.9-2.5l-53.9-31.1c-6.4-3.7-17.5-3.2-24.9,1l-49.9,28.8
				c-1.7,0.9-3.2,2.2-4.5,3.8h-1.7v18.8h0c0.2,2.1,1.6,4.2,4.3,5.7l54,31.2c6.4,3.7,17.5,3.2,24.9-1l49.9-28.8c3.5-2,5.5-4.5,6-7
				h0.1L200.3,252z"/>
			
				<linearGradient id="Path_7657_1_" gradientUnits="userSpaceOnUse" x1="-606.9692" y1="-117.0249" x2="-606.1141" y2="-117.0249" gradientTransform="matrix(162.76 0 0 110.24 98849.6563 13160.7158)">
				<stop  offset="0" style="stop-color:#DEE2F3"/>
				<stop  offset="0.26" style="stop-color:#DEE2F3"/>
				<stop  offset="0.9" style="stop-color:#DEE2F3"/>
			</linearGradient>
			<path id="Path_7657" class="st33" d="M200.3,248.8H199c-0.8-1-1.8-1.8-2.9-2.5l-54-31.1c-6.4-3.7-17.5-3.2-24.9,1l-49.8,28.8
				c-1.7,0.9-3.2,2.2-4.5,3.8h-1.7v18.8h0c0.2,2.1,1.6,4.2,4.3,5.7l54,31.2c6.4,3.7,17.5,3.2,24.9-1l49.9-28.8c3.5-2,5.5-4.5,6-7
				h0.1L200.3,248.8z"/>
		</g>
		<g id="Group_1206">
			
				<linearGradient id="Path_7658_1_" gradientUnits="userSpaceOnUse" x1="-607.2668" y1="-117.1954" x2="-606.4119" y2="-117.1954" gradientTransform="matrix(175.91 0 0 119.15 106882.1719 14215.5586)">
				<stop  offset="4.000000e-02" style="stop-color:#DEE2F3"/>
				<stop  offset="0.3" style="stop-color:#DEE2F3"/>
				<stop  offset="0.34" style="stop-color:#DEE2F3"/>
				<stop  offset="0.41" style="stop-color:#E8EAF6"/>
				<stop  offset="0.49" style="stop-color:#FFFFFF"/>
				<stop  offset="0.59" style="stop-color:#FFFFFF"/>
				<stop  offset="1" style="stop-color:#FFFFFF"/>
			</linearGradient>
			<path id="Path_7658" class="st34" d="M206,239.8h-1.5c-0.9-1.1-1.9-2-3.2-2.6L143,203.5c-6.9-4-19-3.5-26.9,1.1l-53.9,31.1
				c-1.9,1-3.5,2.4-4.8,4.1h-1.8v20.4h0c0.2,2.3,1.7,4.5,4.6,6.2l58.3,33.7c6.9,4,19,3.5,26.9-1.1l53.9-31.1c3.8-2.2,6-4.9,6.5-7.6
				h0.1V239.8z"/>
			
				<linearGradient id="Path_7659_1_" gradientUnits="userSpaceOnUse" x1="-606.6441" y1="-117.6463" x2="-606.9348" y2="-116.3383" gradientTransform="matrix(175.92 0 0 101.56 106885.1719 12100.9063)">
				<stop  offset="0" style="stop-color:#DEE2F3"/>
				<stop  offset="0.2" style="stop-color:#E4E7F5"/>
				<stop  offset="0.48" style="stop-color:#F6F7FC"/>
				<stop  offset="0.58" style="stop-color:#FFFFFF"/>
				<stop  offset="1" style="stop-color:#FFFFFF"/>
			</linearGradient>
			<path id="Path_7659" class="st35" d="M118.5,280.7l-58.3-33.7c-6.9-4-6-10.9,2-15.6l53.9-31.1c8-4.6,20-5.1,26.9-1.1l58.3,33.7
				c6.9,4,6,10.9-1.9,15.5l-53.9,31.1C137.5,284.2,125.5,284.7,118.5,280.7z"/>
			
				<radialGradient id="Path_7660_1_" cx="-606.8369" cy="-114.2019" r="1.0599" gradientTransform="matrix(175.88 0 0 52.15 106861.2266 6219.665)" gradientUnits="userSpaceOnUse">
				<stop  offset="0" style="stop-color:#FFFFFF"/>
				<stop  offset="1" style="stop-color:#000000"/>
			</radialGradient>
			<path id="Path_7660" class="st36" d="M199.4,247.3l-53.9,31.1c-8,4.6-20,5.1-26.9,1.1l-58.3-33.7c-2.8-1.6-4.3-3.7-4.6-5.9
				c-0.4,2.9,1.1,5.7,4.6,7.7l58.3,33.7c6.9,4,18.9,3.5,26.9-1.1l53.9-31.1c4.8-2.8,7-6.4,6.5-9.7
				C205.5,242.2,203.2,245,199.4,247.3z"/>
			
				<linearGradient id="Path_7661_1_" gradientUnits="userSpaceOnUse" x1="-606.9692" y1="-116.9806" x2="-606.1141" y2="-116.9806" gradientTransform="matrix(162.76 0 0 110.24 98849.6563 13126.8174)">
				<stop  offset="0" style="stop-color:#DEE2F3"/>
				<stop  offset="0.5" style="stop-color:#DD131F"/>
				<stop  offset="1" style="stop-color:#DEE2F3"/>
			</linearGradient>
			<path id="Path_7661" class="st37" d="M200.3,219.8H199c-0.8-1-1.8-1.8-2.9-2.5l-53.9-31.1c-6.4-3.7-17.5-3.2-24.9,1l-49.9,28.8
				c-1.7,0.9-3.2,2.2-4.5,3.8h-1.7v18.8h0c0.2,2.1,1.6,4.2,4.3,5.7l54,31.2c6.4,3.7,17.5,3.2,24.9-1l49.9-28.8c3.5-2,5.5-4.5,6-7
				h0.1L200.3,219.8z"/>
			
				<linearGradient id="Path_7662_1_" gradientUnits="userSpaceOnUse" x1="-606.9692" y1="-116.9989" x2="-606.1141" y2="-116.9989" gradientTransform="matrix(162.76 0 0 110.24 98849.6563 13125.6299)">
				<stop  offset="0" style="stop-color:#DEE2F3"/>
				<stop  offset="0.26" style="stop-color:#DEE2F3"/>
				<stop  offset="0.9" style="stop-color:#DEE2F3"/>
			</linearGradient>
			<path id="Path_7662" class="st38" d="M200.3,216.6H199c-0.8-1-1.8-1.8-2.9-2.5L142.1,183c-6.4-3.7-17.6-3.2-24.9,1l-49.8,28.8
				c-1.7,0.9-3.2,2.2-4.5,3.8h-1.7v18.8h0c0.2,2.1,1.6,4.2,4.3,5.7l54,31.2c6.4,3.7,17.5,3.2,24.9-1l49.9-28.8c3.5-2,5.5-4.5,6-7
				h0.1L200.3,216.6z"/>
		</g>
		<g id="Group_1207">
			
				<linearGradient id="Path_7663_1_" gradientUnits="userSpaceOnUse" x1="-607.2668" y1="-117.1518" x2="-606.4119" y2="-117.1518" gradientTransform="matrix(175.91 0 0 119.15 106882.1719 14178.2617)">
				<stop  offset="4.000000e-02" style="stop-color:#DEE2F3"/>
				<stop  offset="0.3" style="stop-color:#DEE2F3"/>
				<stop  offset="0.34" style="stop-color:#DEE2F3"/>
				<stop  offset="0.41" style="stop-color:#E8EAF6"/>
				<stop  offset="0.49" style="stop-color:#FFFFFF"/>
				<stop  offset="0.59" style="stop-color:#FFFFFF"/>
				<stop  offset="1" style="stop-color:#FFFFFF"/>
			</linearGradient>
			<path id="Path_7663" class="st39" d="M206,207.7h-1.5c-0.9-1.1-1.9-2-3.2-2.7L143,171.4c-6.9-4-19-3.5-26.9,1.1l-53.9,31.1
				c-1.9,1-3.5,2.4-4.8,4.1h-1.8V228h0c0.2,2.3,1.7,4.5,4.6,6.2l58.3,33.7c6.9,4,19,3.5,26.9-1.1l53.9-31.1c3.8-2.2,6-4.9,6.5-7.6
				h0.1V207.7z"/>
			
				<linearGradient id="Path_7664_1_" gradientUnits="userSpaceOnUse" x1="-606.6412" y1="-117.5983" x2="-606.9319" y2="-116.2902" gradientTransform="matrix(175.92 0 0 101.56 106883.2734 12067.5)">
				<stop  offset="0" style="stop-color:#DEE2F3"/>
				<stop  offset="0.2" style="stop-color:#E4E7F5"/>
				<stop  offset="0.48" style="stop-color:#F6F7FC"/>
				<stop  offset="0.58" style="stop-color:#FFFFFF"/>
				<stop  offset="1" style="stop-color:#FFFFFF"/>
			</linearGradient>
			<path id="Path_7664" class="st40" d="M118.5,248.6L60.2,215c-6.9-4-6-10.9,2-15.5l53.9-31.2c8-4.6,20-5.1,26.9-1.1l58.3,33.7
				c6.9,4,6,10.9-1.9,15.5l-53.9,31.2C137.5,252.1,125.5,252.6,118.5,248.6z"/>
			
				<radialGradient id="Path_7665_1_" cx="-606.837" cy="-114.0965" r="1.06" gradientTransform="matrix(175.88 0 0 52.15 106861.2422 6181.7861)" gradientUnits="userSpaceOnUse">
				<stop  offset="0" style="stop-color:#FFFFFF"/>
				<stop  offset="1" style="stop-color:#000000"/>
			</radialGradient>
			<path id="Path_7665" class="st41" d="M199.4,215.2l-53.9,31.1c-8,4.6-20,5.1-26.9,1.1l-58.3-33.7c-2.8-1.6-4.3-3.7-4.6-5.9
				c-0.4,2.9,1.1,5.7,4.6,7.7l58.3,33.7c6.9,4,19,3.5,26.9-1.1l53.9-31.1c4.8-2.8,7-6.4,6.5-9.7
				C205.5,210.1,203.2,212.9,199.4,215.2z"/>
			
				<linearGradient id="Path_7666_1_" gradientUnits="userSpaceOnUse" x1="-606.9692" y1="-116.9309" x2="-606.1142" y2="-116.9309" gradientTransform="matrix(162.76 0 0 110.24 98849.6563 13089.2314)">
				<stop  offset="0" style="stop-color:#DEE2F3"/>
				<stop  offset="0.5" style="stop-color:#DD131F"/>
				<stop  offset="1" style="stop-color:#DEE2F3"/>
			</linearGradient>
			<path id="Path_7666" class="st42" d="M200.3,187.7H199c-0.8-1-1.8-1.8-2.9-2.5l-53.9-31.1c-6.4-3.7-17.5-3.2-24.9,1L67.3,184
				c-1.7,0.9-3.2,2.2-4.5,3.8h-1.7v18.8h0c0.2,2.1,1.6,4.2,4.3,5.7l54,31.2c6.4,3.7,17.5,3.2,24.9-1l49.9-28.8c3.5-2,5.5-4.5,6-7
				h0.1L200.3,187.7z"/>
			
				<linearGradient id="Path_7667_1_" gradientUnits="userSpaceOnUse" x1="-606.9692" y1="-116.9178" x2="-606.1141" y2="-116.9178" gradientTransform="matrix(162.76 0 0 110.24 98849.6563 13084.5596)">
				<stop  offset="0" style="stop-color:#DEE2F3"/>
				<stop  offset="0.26" style="stop-color:#DEE2F3"/>
				<stop  offset="0.9" style="stop-color:#DEE2F3"/>
			</linearGradient>
			<path id="Path_7667" class="st43" d="M200.3,184.5H199c-0.8-1-1.8-1.8-2.9-2.5l-53.9-31.1c-6.4-3.7-17.5-3.2-24.9,1l-49.9,28.8
				c-1.7,0.9-3.2,2.2-4.5,3.8h-1.7v18.8h0c0.2,2.1,1.6,4.2,4.3,5.7l54,31.2c6.4,3.7,17.5,3.2,24.9-1l49.9-28.8c3.5-2,5.5-4.5,6-7
				h0.1L200.3,184.5z"/>
		</g>
		<g id="Group_1208">
			
				<linearGradient id="Path_7668_1_" gradientUnits="userSpaceOnUse" x1="-607.2668" y1="-117.1354" x2="-606.4119" y2="-117.1354" gradientTransform="matrix(175.91 0 0 119.15 106882.1719 14144.0977)">
				<stop  offset="4.000000e-02" style="stop-color:#DEE2F3"/>
				<stop  offset="0.3" style="stop-color:#DEE2F3"/>
				<stop  offset="0.34" style="stop-color:#DEE2F3"/>
				<stop  offset="0.41" style="stop-color:#E8EAF6"/>
				<stop  offset="0.49" style="stop-color:#FFFFFF"/>
				<stop  offset="0.59" style="stop-color:#FFFFFF"/>
				<stop  offset="1" style="stop-color:#FFFFFF"/>
			</linearGradient>
			<path id="Path_7668" class="st44" d="M206,175.5h-1.5c-0.9-1.1-1.9-2-3.2-2.7L143,139.2c-6.9-4-19-3.5-26.9,1.1l-53.9,31.1
				c-1.9,1-3.5,2.4-4.8,4.1h-1.8v20.4h0c0.2,2.3,1.7,4.5,4.6,6.2l58.3,33.7c6.9,4,18.9,3.5,26.9-1.1l53.9-31.1
				c3.8-2.2,6-4.9,6.5-7.6h0.1L206,175.5z"/>
			
				<linearGradient id="Path_7669_1_" gradientUnits="userSpaceOnUse" x1="-606.6402" y1="-117.5435" x2="-606.9308" y2="-116.2354" gradientTransform="matrix(175.92 0 0 101.56 106883.2734 12029.2813)">
				<stop  offset="0" style="stop-color:#DEE2F3"/>
				<stop  offset="0.2" style="stop-color:#E4E7F5"/>
				<stop  offset="0.48" style="stop-color:#F6F7FC"/>
				<stop  offset="0.58" style="stop-color:#FFFFFF"/>
				<stop  offset="1" style="stop-color:#FFFFFF"/>
			</linearGradient>
			<path id="Path_7669" class="st45" d="M118.5,216.4l-58.3-33.6c-6.9-4-6-10.9,1.9-15.5l53.9-31.2c8-4.6,20-5.1,26.9-1.1l58.3,33.7
				c6.9,4,6,10.9-1.9,15.5l-53.9,31.1C137.5,219.9,125.5,220.4,118.5,216.4z"/>
			
				<radialGradient id="Path_7670_1_" cx="-598.178" cy="-113.9817" r="1.0686" gradientTransform="matrix(52.24 0 0 52.15 31377.2793 6140.5166)" gradientUnits="userSpaceOnUse">
				<stop  offset="0" style="stop-color:#FFFFFF"/>
				<stop  offset="1" style="stop-color:#000000"/>
			</radialGradient>
			<path id="Path_7670" class="st46" d="M199.4,183l-53.9,31.1c-8,4.6-20,5.1-26.9,1.1l-58.3-33.7c-2.8-1.6-4.3-3.7-4.6-5.9
				c-0.4,2.9,1.1,5.7,4.6,7.7l58.3,33.6c6.9,4,18.9,3.5,26.9-1.1l53.9-31.1c4.8-2.8,7-6.4,6.5-9.7
				C205.5,177.9,203.2,180.7,199.4,183z"/>
		</g>
		
			<radialGradient id="Ellipse_158_1_" cx="-598.1091" cy="-95.1032" r="0.8378" gradientTransform="matrix(46.4 0 0 23.66 28288.1602 758.9918)" gradientUnits="userSpaceOnUse">
			<stop  offset="0.19" style="stop-color:#DEE2F3"/>
			<stop  offset="1" style="stop-color:#FFFFFF"/>
		</radialGradient>
		<ellipse id="Ellipse_158" class="st47" cx="136.8" cy="177.3" rx="38.9" ry="19.8"/>
		<g id="Group_1209">
			
				<linearGradient id="Path_7671_1_" gradientUnits="userSpaceOnUse" x1="-601.5571" y1="-111.5207" x2="-600.7192" y2="-111.5207" gradientTransform="matrix(74.39 0 0 36.41 44901.8789 4240.0054)">
				<stop  offset="1.000000e-02" style="stop-color:#DEE2F3"/>
				<stop  offset="0.1" style="stop-color:#E8EAF6"/>
				<stop  offset="0.22" style="stop-color:#FFFFFF"/>
				<stop  offset="0.36" style="stop-color:#FFFFFF"/>
				<stop  offset="0.61" style="stop-color:#FFFFFF"/>
				<stop  offset="0.78" style="stop-color:#F4F5FB"/>
				<stop  offset="1" style="stop-color:#DEE2F3"/>
			</linearGradient>
			<path id="Path_7671" class="st48" d="M163.3,164H99.7v12.6c0,10.3,14.2,18.5,31.8,18.5s31.8-8.3,31.8-18.5c0-0.1,0-0.2,0-0.3l0,0
				V164z"/>
			
				<linearGradient id="Path_7672_1_" gradientUnits="userSpaceOnUse" x1="-586.0233" y1="-83.8133" x2="-585.3394" y2="-82.5652" gradientTransform="matrix(74.39 0 0 43.32 44901.8789 5044.9146)">
				<stop  offset="0" style="stop-color:#DEE2F3"/>
				<stop  offset="0.2" style="stop-color:#E4E7F5"/>
				<stop  offset="0.48" style="stop-color:#F6F7FC"/>
				<stop  offset="0.58" style="stop-color:#FFFFFF"/>
				<stop  offset="1" style="stop-color:#FFFFFF"/>
			</linearGradient>
			<path id="Path_7672" class="st49" d="M99.7,164.1c0,10.3,14.2,18.5,31.8,18.5s31.8-8.3,31.8-18.5c0-10.2-14.2-18.5-31.8-18.5
				S99.7,153.9,99.7,164.1z"/>
			<ellipse id="Ellipse_159" class="st50" cx="131.5" cy="164.2" rx="20" ry="11.7"/>
			
				<linearGradient id="Path_7673_1_" gradientUnits="userSpaceOnUse" x1="-596.2554" y1="-104.785" x2="-597.3069" y2="-104.785" gradientTransform="matrix(46.8 0 0 20.08 28059.4492 2265.2393)">
				<stop  offset="1.000000e-02" style="stop-color:#DEE2F3"/>
				<stop  offset="0.1" style="stop-color:#E8EAF6"/>
				<stop  offset="0.22" style="stop-color:#FFFFFF"/>
				<stop  offset="0.36" style="stop-color:#FFFFFF"/>
				<stop  offset="0.61" style="stop-color:#FFFFFF"/>
				<stop  offset="0.78" style="stop-color:#F4F5FB"/>
				<stop  offset="1" style="stop-color:#DEE2F3"/>
			</linearGradient>
			<path id="Path_7673" class="st51" d="M131.5,163.6c7.6,0,14.2,2.5,17.6,6.1c1.5-1.5,2.3-3.4,2.4-5.5c0-6.4-9-11.7-20-11.7
				c-11,0-20,5.2-20,11.7c0.1,2.1,0.9,4.1,2.4,5.5C117.2,166.1,123.9,163.6,131.5,163.6z"/>
			
				<radialGradient id="Path_7674_1_" cx="-581.4142" cy="-105.8335" r="1.0601" gradientTransform="matrix(22.02 0 0 22.05 12930.54 2513.0452)" gradientUnits="userSpaceOnUse">
				<stop  offset="0" style="stop-color:#FFFFFF"/>
				<stop  offset="1" style="stop-color:#000000"/>
			</radialGradient>
			<path id="Path_7674" class="st52" d="M131.5,182.6c-17.4,0-31.5-8.1-31.8-18.2c0,0.1,0,0.2,0,0.3c0,10.3,14.2,18.5,31.8,18.5
				s31.8-8.3,31.8-18.5c0-0.1,0-0.2,0-0.3C163,174.5,148.9,182.6,131.5,182.6z"/>
		</g>
	</g>
	<g id="Group_1215">
		<g id="Group_1212">
			<g id="Group_1211" class="st0">
				<path id="Path_7676" class="st1" d="M436.9,534.7c-5.4,0.1-10.7-1.2-15.4-3.7l-107.2-62.2c-5.6-3.2-8.9-8.4-8.9-14.1
					c0-6.3,3.9-12.1,10.7-16l94.1-36.1c5.7-3.2,12.2-4.8,18.7-4.8c5.4-0.1,10.7,1.1,15.5,3.7l72,42.2c5.6,3.2,8.9,8.4,8.9,14.1
					c0,6.3-3.9,12.1-10.7,16l-58.9,56.2C449.9,533.1,443.4,534.8,436.9,534.7z"/>
				<path id="Path_7677" class="st2" d="M316.5,439.3l94-36.2c5.7-3.2,12.1-4.8,18.7-4.6c2.7,0,5.5,0.4,8.1,1
					c2.5,0.6,4.9,1.6,7.1,2.9l69.5,40.7l2.1,1.2c5.5,3.3,8,8.5,7.7,14c-0.3,5.7-4.6,12-10.8,15.6l-57.8,55.2
					c-5.6,3.1-11.9,4.7-18.3,4.7c-5.2,0.1-10.4-1.1-15.1-3.6L314.7,468c-5.4-3.1-8.5-8-8.4-13.5C306.3,448.7,310,443.1,316.5,439.3z
					"/>
				<path id="Path_7678" class="st3" d="M316.9,440l94-36.2c5.7-3.1,12.1-4.7,18.6-4.5c5.3,0.1,10.5,1.5,15.1,4.1l69.1,40.5
					c0.1,0.1,2,1.2,2.1,1.3c5.4,3.3,7.2,8.5,6.6,13.9c-0.6,5.1-5.3,12-10.8,15.1l-56.8,54.2c-5.5,3-11.6,4.6-17.8,4.5
					c-5.1,0.1-10.2-1.1-14.7-3.5l-107.2-62.2c-5.2-3-8.1-7.7-8-12.8C307.1,448.9,310.7,443.6,316.9,440z"/>
				<path id="Path_7679" class="st4" d="M317.3,440.8l94-36.2c5.6-3.1,12-4.6,18.4-4.4c2.7,0.1,5.4,0.5,8,1.3c2.4,0.8,4.7,1.8,7,3
					l68.8,40.3c0.2,0.1,1.9,1.1,2.1,1.3c5.3,3.4,6.3,8.4,5.4,13.8c-0.8,4.5-6,11.8-10.9,14.7l-55.7,53.2c-5.3,2.9-11.3,4.5-17.4,4.4
					c-5,0.1-9.9-1-14.3-3.4l-107.2-62.2c-5-2.9-7.7-7.3-7.6-12.2C308,449.2,311.4,444.2,317.3,440.8z"/>
				<path id="Path_7680" class="st5" d="M317.7,441.5l94-36.2c5.6-3.1,12-4.6,18.4-4.3c2.7,0.2,5.3,0.6,7.9,1.4
					c2.4,0.9,4.6,1.9,6.8,3.1l68.4,40.1c0.3,0.2,1.8,1.1,2,1.3c5.1,3.4,6.7,8.7,4.3,13.8c0,4-6.7,11.8-11,14.3l-54.6,52.1
					c-5.2,2.9-11,4.4-16.9,4.3c-4.8,0.2-9.6-1-13.9-3.2l-107.2-62.2c-4.7-2.7-7.3-6.9-7.2-11.5C308.8,449.5,312,444.7,317.7,441.5z"
					/>
				<path id="Path_7681" class="st6" d="M318.1,442.2l94-36.2c5.6-3.1,11.9-4.5,18.3-4.1c2.7,0.2,5.3,0.7,7.8,1.5
					c2.3,0.9,4.6,2,6.8,3.2l68,39.8c0.3,0.2,1.8,1.1,2,1.3c5,3.5,6.1,8.8,3.1,13.7c0,3.4-7.4,11.7-11.1,13.8l-53.6,51.1
					c-5,2.8-10.7,4.2-16.5,4.2c-4.7,0.1-9.4-0.9-13.6-3.2l-107.2-62.2c-4.5-2.6-6.9-6.6-6.8-10.9
					C309.7,449.7,312.7,445.3,318.1,442.2z"/>
				<path id="Path_7682" class="st7" d="M318.5,442.9l94-36.2c5.6-3,11.9-4.4,18.2-4c2.6,0.3,5.2,0.8,7.7,1.7c2.3,1,4.5,2.1,6.7,3.3
					l67.6,39.6c0.7,0.4,1.4,0.8,2,1.3c4.9,3.5,5.6,8.9,2,13.6c0,2.8-8.1,11.6-11.2,13.4l-52.5,50.1c-4.9,2.7-10.4,4.1-16,4.1
					c-4.6,0.2-9.2-0.9-13.2-3.1l-107.2-62.2c-4.3-2.5-6.5-6.2-6.4-10.2C310.5,450,313.4,445.8,318.5,442.9z"/>
				<path id="Path_7683" class="st8" d="M318.9,443.6l94-36.2c5.5-3,11.8-4.4,18.1-3.9c2.6,0.3,5.2,0.9,7.7,1.8
					c0.9,0.3,5.8,2.9,6.6,3.4l67.2,39.4c0.7,0.4,1.3,0.8,2,1.3c4.8,3.6,5.1,9,0.9,13.5c0,2.3-8.9,11.5-11.3,12.9L452.8,525
					c-4.8,2.6-10.1,4-15.6,4c-4.5,0.2-8.9-0.9-12.9-2.9l-107.2-62.3c-4.1-2.4-6.2-5.8-6-9.6C311.4,450.3,314.1,446.4,318.9,443.6z"
					/>
				<path id="Path_7684" class="st9" d="M319.4,444.3l94-36.2c5.5-3,11.8-4.3,18.1-3.7c2.6,0.3,5.2,1,7.6,1.9c0.7,0.2,6,3.1,6.5,3.4
					l66.9,39.2c0.7,0.4,1.3,0.8,2,1.3c4.7,3.7,4.5,9.1-0.3,13.4c0,1.7-9.6,11.4-11.4,12.5l-50.4,48.1c-4.6,2.5-9.8,3.9-15.1,3.9
					c-4.3,0.2-8.7-0.8-12.5-2.8l-107.2-62.2c-3.9-2.2-5.8-5.5-5.6-8.9C312.2,450.5,314.8,446.9,319.4,444.3z"/>
				<path id="Path_7685" class="st10" d="M319.8,445l94-36.2c5.5-3,11.7-4.2,18-3.6c2.6,0.4,5.1,1.1,7.5,2.1
					c0.5,0.2,6.1,3.3,6.5,3.5l66.5,38.9c0.7,0.4,1.3,0.8,1.9,1.3c4.5,3.7,4,9.2-1.4,13.4c0,1.1-10.3,11.3-11.5,12l-49.3,47.1
					c-4.5,2.5-9.5,3.7-14.7,3.7c-4.2,0.2-8.4-0.8-12.1-2.7L318,462.3c-3.6-2.1-5.4-5.1-5.1-8.3C313.1,450.8,315.4,447.5,319.8,445z"
					/>
				<path id="Path_7686" class="st11" d="M320.2,445.7l94-36.2c7.7-4.5,17.2-5,25.3-1.3c0.2,0.1,6.2,3.5,6.4,3.6l66.1,38.7
					c0.7,0.4,1.3,0.8,1.9,1.3c4.4,3.8,3.4,9.3-2.6,13.3c0,0.6-11,11.3-11.6,11.6l-48.3,46.1c-4.4,2.4-9.3,3.6-14.2,3.7
					c-4.4,0.1-8.6-0.8-11.8-2.6l-107.2-62.2c-3.4-2-5-4.7-4.7-7.6S316.1,448,320.2,445.7z"/>
				<path id="Path_7687" class="st12" d="M425.9,523.2L318.8,461c-6.5-3.7-5.6-10.3,1.8-14.5l94-36.2c7.5-4.3,18.7-4.8,25.2-1
					l72,42.2c6.5,3.7,5.6,10.3-1.8,14.5l-58.9,56.2C443.7,526.5,432.4,526.9,425.9,523.2z"/>
			</g>
			
				<linearGradient id="Path_7688_1_" gradientUnits="userSpaceOnUse" x1="-604.4938" y1="-117.8069" x2="-603.5876" y2="-117.8069" gradientTransform="matrix(236.02 0 0 139.22 143910.2031 16867.123)">
				<stop  offset="6.000000e-02" style="stop-color:#DEE2F3"/>
				<stop  offset="0.43" style="stop-color:#DEE2F3"/>
				<stop  offset="0.49" style="stop-color:#DEE2F3"/>
				<stop  offset="0.52" style="stop-color:#E2E5F4"/>
				<stop  offset="0.54" style="stop-color:#EFF1F9"/>
				<stop  offset="0.56" style="stop-color:#FFFFFF"/>
				<stop  offset="0.6" style="stop-color:#FFFFFF"/>
				<stop  offset="0.81" style="stop-color:#FFFFFF"/>
				<stop  offset="1" style="stop-color:#DEE2F3"/>
			</linearGradient>
			<path id="Path_7688" class="st53" d="M425.9,523l-107.2-62.2c-2.9-1.7-4.3-3.9-4.4-6.2v-8.1c0.1-2.8,2.1,2.1,6.2-0.2l94-36.2
				c7.4-4.3,18.7-4.8,25.2-1l72,42.2c2.2,1.2,3.7-4,4.3-2.4c0.2,0.6,0.1,8,0.1,8.5c0.1,2.9-2,6-6.2,8.3L451.1,522
				C443.7,526.3,432.4,526.8,425.9,523z"/>
			
				<linearGradient id="Path_7689_1_" gradientUnits="userSpaceOnUse" x1="-606.0563" y1="-119.6036" x2="-605.646" y2="-119.9884" gradientTransform="matrix(235.99 0 0 139.22 143893.3438 16859.5605)">
				<stop  offset="0" style="stop-color:#DEE2F3"/>
				<stop  offset="0.18" style="stop-color:#E1E5F4"/>
				<stop  offset="0.36" style="stop-color:#ECEFF8"/>
				<stop  offset="0.52" style="stop-color:#FFFFFF"/>
				<stop  offset="1" style="stop-color:#FFFFFF"/>
			</linearGradient>
			<path id="Path_7689" class="st54" d="M425.9,515.1l-107.2-62.2c-6.5-3.7-5.6-10.3,1.8-14.5l94-36.2c7.5-4.3,18.7-4.8,25.2-1
				l72,42.2c6.5,3.7,5.6,10.3-1.8,14.5l-58.9,56.2C443.7,518.4,432.4,518.8,425.9,515.1z"/>
			
				<linearGradient id="Path_7690_1_" gradientUnits="userSpaceOnUse" x1="-608.3846" y1="-116.9716" x2="-607.4869" y2="-116.9716" gradientTransform="matrix(236.02 0 0 92.98 143911.5625 11373.166)">
				<stop  offset="6.000000e-02" style="stop-color:#DEE2F3"/>
				<stop  offset="0.43" style="stop-color:#DEE2F3"/>
				<stop  offset="0.49" style="stop-color:#DEE2F3"/>
				<stop  offset="0.52" style="stop-color:#E2E5F4"/>
				<stop  offset="0.54" style="stop-color:#EFF1F9"/>
				<stop  offset="0.56" style="stop-color:#FFFFFF"/>
				<stop  offset="0.6" style="stop-color:#FFFFFF"/>
				<stop  offset="0.81" style="stop-color:#FFFFFF"/>
				<stop  offset="1" style="stop-color:#DEE2F3"/>
			</linearGradient>
			<path id="Path_7690" class="st55" d="M516.1,461c0,2.9-2.1,5.9-6.1,8.2l-58.9,56.2c-7.5,4.3-18.7,4.8-25.2,1l-107.1-62.2
				c-3.1-1.8-4.5-4.3-4.3-6.8c0,0.2,0,0.3,0,0.5v8.1c0.1,2.3,1.5,4.5,4.4,6.2L426,534.4c6.5,3.7,17.7,3.3,25.2-1l58.9-56.2
				c4.1-2.4,6.2-5.5,6.2-8.3C516.1,468.3,516.2,463,516.1,461z"/>
			
				<linearGradient id="Path_7691_1_" gradientUnits="userSpaceOnUse" x1="-606.5972" y1="-118.6369" x2="-606.486" y2="-118.9533" gradientTransform="matrix(174.2 0 0 101.69 106201.3516 12349.8652)">
				<stop  offset="0" style="stop-color:#FFFFFF"/>
				<stop  offset="1" style="stop-color:#040506"/>
			</linearGradient>
			<path id="Path_7691" class="st56" d="M511.8,443.3l-72-42.2c-6.5-3.7-17.7-3.3-25.2,1l-47.4,18.2c0.5,0.4,1,0.7,1.5,1l107.2,62.2
				c1.6,0.9,3.3,1.5,5.1,1.9l29-27.7C517.5,453.5,518.3,447,511.8,443.3z"/>
			<path id="Path_7692" class="st57" d="M510,456.5l-58.9,56.2c-7.5,4.3-18.7,4.8-25.2,1l-107.2-62.2c-2.7-1.5-4.1-3.6-4.3-5.7
				c-0.3,2.6,1.1,5.2,4.3,7.1l107.2,62.2c6.5,3.7,17.7,3.3,25.2-1l58.9-56.2c4.4-2.5,6.4-5.8,6.1-8.8
				C515.8,451.7,513.7,454.3,510,456.5z"/>
		</g>
		<g id="Group_1213">
			
				<linearGradient id="Path_7693_1_" gradientUnits="userSpaceOnUse" x1="-598.8731" y1="-125.4744" x2="-600.3008" y2="-124.5597" gradientTransform="matrix(364.83 0 0 496.12 222571.0156 59376.6836)">
				<stop  offset="0" style="stop-color:#DEE2F3"/>
				<stop  offset="0.18" style="stop-color:#E1E5F4"/>
				<stop  offset="0.36" style="stop-color:#ECEFF8"/>
				<stop  offset="0.52" style="stop-color:#FFFFFF"/>
				<stop  offset="1" style="stop-color:#FFFFFF"/>
			</linearGradient>
			<path id="Path_7693" class="st58" d="M565.9,515.4L302.8,363.4c-13.5-7.8-24.4-28.6-24.4-46.5V115.6c0-18,10.9-26.2,24.4-18.4
				l263.2,152.1c13.4,7.8,24.4,28.6,24.4,46.5V497C590.3,515,579.4,523.2,565.9,515.4z"/>
			
				<linearGradient id="Path_7694_1_" gradientUnits="userSpaceOnUse" x1="-601.2849" y1="-126.5754" x2="-602.2679" y2="-125.5752" gradientTransform="matrix(332.82 0 0 459.04 203026.3906 54939.7617)">
				<stop  offset="1.000000e-02" style="stop-color:#DEE2F3"/>
				<stop  offset="0.34" style="stop-color:#DEE2F3"/>
				<stop  offset="0.61" style="stop-color:#EDEFF8"/>
				<stop  offset="1" style="stop-color:#FFFFFF"/>
			</linearGradient>
			<path id="Path_7694" class="st59" d="M569.1,501.4L309.6,351.5c-10.8-6.9-17.5-20.6-17.5-34.7V114.2c0-2.4,2-4.3,4.3-4.3
				c0.8,0,1.5,0.2,2.2,0.6l0.8,0.4l259.7,150.1c12.9,7.4,17.5,20.6,17.5,34.7v202c0,2.6-2.1,4.7-4.7,4.6c-0.8,0-1.6-0.2-2.3-0.6
				L569.1,501.4z"/>
			<path id="Path_7695" class="st50" d="M559.1,261.1L299.3,111l-0.8-0.4c-2-1.2-4.6-0.6-5.9,1.5c0,0,0,0,0,0.1
				c-0.4,0.7-0.6,1.4-0.6,2.2v202.6c0,14.1,6.7,27.8,17.5,34.7l259.5,149.9l0.6,0.3c2.2,1.3,5.1,0.5,6.4-1.7
				c0.4-0.7,0.6-1.5,0.6-2.3V295.8C576.6,281.7,572,268.5,559.1,261.1z M573.9,497.7c0,1.1-0.9,1.9-1.9,1.9c-0.3,0-0.7-0.1-0.9-0.3
				L311,349.2c-9.8-6.2-16.1-18.9-16.1-32.3V114.2c0-0.9,0.7-1.6,1.6-1.6c0.3,0,0.6,0.1,0.8,0.2l260.5,150.6
				c13.4,7.7,16.2,21.8,16.2,32.3L573.9,497.7z"/>
			
				<linearGradient id="Path_7696_1_" gradientUnits="userSpaceOnUse" x1="-607.1987" y1="-117.3581" x2="-607.8998" y2="-118.1789" gradientTransform="matrix(362.14 0 0 499.69 220935.0625 59800.5195)">
				<stop  offset="6.000000e-02" style="stop-color:#DEE2F3"/>
				<stop  offset="0.43" style="stop-color:#DEE2F3"/>
				<stop  offset="0.49" style="stop-color:#DEE2F3"/>
				<stop  offset="0.52" style="stop-color:#E2E5F4"/>
				<stop  offset="0.54" style="stop-color:#EFF1F9"/>
				<stop  offset="0.56" style="stop-color:#FFFFFF"/>
				<stop  offset="0.6" style="stop-color:#FFFFFF"/>
				<stop  offset="0.81" style="stop-color:#FFFFFF"/>
				<stop  offset="1" style="stop-color:#DEE2F3"/>
			</linearGradient>
			<path id="Path_7696" class="st60" d="M572.8,245.5L309.7,93.5c-5.3-3.1-10.3-3.6-14.3-2.1c-0.5,0.2-7.3,3.8-7.8,4.1l0,0
				c4.2-2,9.4-1.6,15.2,1.7l263.1,152c13.5,7.8,24.4,28.6,24.4,46.5V497c0,11.2-4.3,18.6-10.7,20.7c0.8,0,1.5-0.3,2.1-0.7
				c0.3-0.2,7.7-4.3,8-4.5c4.6-3.2,7.5-9.9,7.5-19.1V292.1C597.2,274.2,586.2,253.3,572.8,245.5z"/>
			
				<radialGradient id="Path_7697_1_" cx="-608.7542" cy="-119.1191" r="8.549097e-02" gradientTransform="matrix(495.95 0 0 495.89 302128.2813 59347.1563)" gradientUnits="userSpaceOnUse">
				<stop  offset="0" style="stop-color:#FFFFFF"/>
				<stop  offset="1" style="stop-color:#000000"/>
			</radialGradient>
			<path id="Path_7697" class="st61" d="M567.1,248.6l-263.2-152c-5.5-3.2-10.6-3.6-14.7-1.9c3.5-0.5,7.5,0.3,11.7,2.8l263.2,152
				c13.5,7.8,24.4,28.6,24.4,46.5v201.3c0,10.6-3.8,17.7-9.7,20.3c7.5-1.2,12.6-8.9,12.6-21.2V295.2
				C591.5,277.2,580.5,256.4,567.1,248.6z"/>
		</g>
		<g id="Group_1214" class="st0">
			<path id="Path_7698" class="st62" d="M356.2,496.7c-3.9,0.1-7.7-0.8-11.1-2.7l-66.9-38.6c-4-2.3-6.4-6-6.4-10.1
				c0-4.5,2.8-8.7,7.6-11.5l38.5-33.4c4.1-2.3,8.7-3.5,13.4-3.4c3.9-0.1,7.7,0.8,11.1,2.7l66.9,38.6c4,2.3,6.4,6,6.4,10.1
				c0,4.5-2.8,8.7-7.6,11.5l-38.5,33.4C365.6,495.6,360.9,496.8,356.2,496.7z"/>
			<path id="Path_7699" class="st63" d="M314.8,404c0.7-0.4,1.5-0.8,2.3-1.1c3.4-1.5,7-2.2,10.7-2.2c3.7-0.1,7.4,0.7,10.7,2.4
				c0.1,0,6.3,3.5,6.4,3.6l52.5,30.3l5.7,3.3c3.7,2.1,6.4,5.8,6.4,9.5c0.1,4.5-2.3,8.6-6.2,10.8l-18.5,18.1
				c0.4,0.2-14.7,13.7-15.2,14c-0.7,0.4-1.5,0.8-2.3,1.1c-3.4,1.5-7,2.2-10.7,2.2c-3.7,0.1-7.4-0.7-10.7-2.4c-0.2,0-6.3-3.5-6.4-3.6
				L287,459.8l-5.7-3.3c-3.7-2.1-6.4-5.8-6.4-9.5c-0.1-4.5,2.3-8.7,6.3-10.8l18.5-18.1C299.3,417.7,314.4,404.3,314.8,404z"/>
			<path id="Path_7700" class="st64" d="M311.6,407.5c0.6-0.4,1.5-0.8,2.2-1c3.2-1.4,6.7-2.2,10.3-2.2c3.6-0.1,7.1,0.6,10.3,2.2
				c0.3,0.1,6,3.2,6.2,3.4l50.6,29.2l5.5,3.2c3.3,1.9,6.4,5.6,6.4,9c0,3.7-0.9,7.9-4.9,10.2l-15.1,17.2c0.9,0.5-12.8,13.1-13.8,13.7
				c-0.6,0.4-1.5,0.8-2.2,1c-3.2,1.4-6.7,2.2-10.3,2.2c-3.6,0.1-7.1-0.6-10.3-2.2c-0.3-0.1-6-3.2-6.2-3.4l-50.6-29.2l-5.5-3.2
				c-3.3-1.9-6.4-5.6-6.4-9c0-3.7,0.9-7.9,4.9-10.2l15.1-17.2C297,420.7,310.7,408.1,311.6,407.5z"/>
			<path id="Path_7701" class="st65" d="M308.4,411c0.5-0.3,1.5-0.7,2.1-1c3.1-1.4,6.5-2.1,9.9-2.2c3.4-0.2,6.9,0.5,10,1.9
				c0.4,0.1,5.6,3,6,3.2l48.7,28.1l5.3,3c2.9,1.7,6.4,5.4,6.4,8.4c0,3.3,0.1,7.5-3.5,9.6l-11.7,16.2c1.3,0.7-10.9,12.4-12.4,13.3
				c-0.5,0.3-1.5,0.7-2.1,1c-3.1,1.4-6.5,2.1-9.9,2.2c-3.4,0.2-6.9-0.5-10-1.9c-0.4-0.1-5.6-3-6-3.2l-48.7-28.1l-5.3-3
				c-2.9-1.7-6.4-5.4-6.4-8.4c0-3.3-0.1-7.5,3.5-9.6l11.7-16.2C294.8,423.6,307,411.9,308.4,411z"/>
			<path id="Path_7702" class="st66" d="M305.2,414.6c0.5-0.3,1.5-0.7,2.1-0.9c3-1.3,6.2-2.1,9.5-2.2c3.3-0.2,6.6,0.4,9.6,1.7
				c0.6,0.1,5.3,2.7,5.8,3l46.8,27l5.1,2.9c2.6,1.5,6.5,5.2,6.5,7.8c0,2.9,1,7.1-2.1,8.9l-8.3,15.4c1.7,1-9.1,11.8-11,12.9
				c-0.5,0.3-1.5,0.7-2,0.9c-3,1.3-6.2,2.1-9.5,2.2c-3.3,0.2-6.6-0.4-9.6-1.7c-0.6-0.1-5.3-2.7-5.8-3l-46.8-27l-5.1-2.9
				c-2.6-1.5-6.5-5.2-6.5-7.8c0-2.9-1-7.1,2.1-8.9l8.3-15.4C292.6,426.6,303.3,415.7,305.2,414.6z"/>
			<path id="Path_7703" class="st67" d="M302,418.2c0.4-0.2,1.5-0.6,2-0.9c2.9-1.3,5.9-2.1,9.1-2.2c3.2-0.2,6.3,0.3,9.3,1.5
				c1.9,0.8,3.8,1.7,5.6,2.8l44.9,26l4.8,2.8c2.2,1.3,6.5,5,6.5,7.3c0,2.5,2,6.8-0.7,8.3l-4.9,14.4c2.1,1.2-7.2,11.2-9.6,12.6
				c-0.4,0.2-1.5,0.6-2,0.9c-2.9,1.3-5.9,2.1-9.1,2.3c-3.2,0.2-6.3-0.3-9.3-1.4c-1.9-0.8-3.8-1.7-5.6-2.8l-44.9-26l-4.8-2.8
				c-2.2-1.3-6.5-5-6.5-7.3c0-2.4-2-6.8,0.7-8.3l4.9-14.5C290.3,429.5,299.6,419.6,302,418.2z"/>
			<path id="Path_7704" class="st68" d="M298.8,421.7c0.3-0.2,1.5-0.6,1.9-0.8c2.7-1.3,5.6-2,8.6-2.3c3-0.2,6,0.2,8.9,1.2
				c1.9,0.7,3.7,1.6,5.4,2.6l43,24.8l4.6,2.7c1.8,1.1,6.5,4.8,6.5,6.7c0,2,2.9,6.4,0.7,7.6l-1.5,13.5c2.5,1.5-5.3,10.5-8.2,12.2
				c-0.3,0.2-1.5,0.6-1.9,0.8c-2.7,1.3-5.6,2-8.6,2.2c-3,0.2-6-0.2-8.9-1.2c-1.9-0.7-3.7-1.6-5.4-2.6l-43-24.8l-4.6-2.7
				c-1.8-1.1-6.5-4.8-6.5-6.7c0-2-2.9-6.4-0.7-7.6l1.5-13.5C288.1,432.5,295.9,423.4,298.8,421.7z"/>
			<path id="Path_7705" class="st69" d="M295.6,425.3c0.3-0.2,1.5-0.6,1.8-0.7c2.6-1.2,5.4-2,8.2-2.3c2.9-0.3,5.8,0.1,8.5,1
				c1.8,0.6,3.5,1.4,5.2,2.4l41,23.7l4.4,2.6c1.5,0.9,6.5,4.6,6.5,6.1c0,1.6,3.9,6,2.1,7l1.9,12.6c2.9,1.7-3.4,9.9-6.8,11.9
				c-0.3,0.2-1.5,0.6-1.8,0.7c-2.6,1.2-5.4,2-8.2,2.2c-2.9,0.3-5.8-0.1-8.5-1c-1.8-0.6-3.5-1.4-5.2-2.3l-41-23.7l-4.4-2.6
				c-1.5-0.9-6.5-4.6-6.5-6.1c0-1.6-3.9-6-2.1-7l-1.9-12.6C285.8,435.4,292.2,427.2,295.6,425.3z"/>
			<path id="Path_7706" class="st70" d="M292.4,428.8c0.2-0.1,1.5-0.5,1.8-0.6c2.5-1.2,5.1-2,7.8-2.3c2.7-0.3,5.5-0.1,8.2,0.7
				c1.7,0.5,3.4,1.2,5,2.1l39.1,22.6l4.2,2.4c1.1,0.6,6.6,4.4,6.6,5.6s4.8,5.6,3.5,6.4l5.3,11.7c3.4,1.9-1.6,9.3-5.5,11.5
				c-0.2,0.1-1.5,0.5-1.8,0.6c-2.5,1.2-5.1,2-7.8,2.3c-2.7,0.3-5.5,0.1-8.2-0.7c-1.7-0.5-3.4-1.2-5-2.1l-39.1-22.6l-4.2-2.4
				c-1.1-0.6-6.6-4.4-6.6-5.6c0-1.1-4.8-5.6-3.5-6.4l-5.3-11.7C283.6,438.3,288.5,431,292.4,428.8z"/>
			<path id="Path_7707" class="st71" d="M289.2,432.3c0.1-0.1,1.5-0.5,1.7-0.6c2.3-1.2,4.8-1.9,7.4-2.3c2.6-0.3,5.3-0.2,7.8,0.5
				c1.7,0.4,3.3,1.1,4.8,1.9l37.2,21.5l4,2.3c0.7,0.4,6.6,4.3,6.6,5c0,0.7,5.8,5.2,4.9,5.7l8.7,10.8c3.8,2.2,0.3,8.6-4.1,11.1
				c-0.1,0.1-1.5,0.5-1.7,0.6c-2.3,1.2-4.8,1.9-7.4,2.3c-2.6,0.3-5.3,0.2-7.8-0.5c-1.7-0.4-3.3-1.1-4.8-1.9l-37.2-21.5l-4-2.3
				c-0.7-0.4-6.6-4.3-6.6-5c0-0.7-5.8-5.2-4.9-5.7l-8.7-10.8C281.4,441.3,284.8,434.9,289.2,432.3z"/>
			<path id="Path_7708" class="st72" d="M286,435.9c0.1,0,1.5-0.5,1.6-0.5c2.2-1.1,4.6-1.9,7-2.3c2.5-0.4,5-0.3,7.4,0.2
				c1.6,0.3,3.2,0.9,4.6,1.7l35.3,20.4l3.8,2.2c0.4,0.2,6.6,4,6.6,4.4s6.7,4.8,6.3,5.1l12.1,9.8c4.2,2.4,2.2,8-2.7,10.8
				c-0.1,0-1.5,0.5-1.6,0.5c-2.2,1.1-4.6,1.9-7,2.3c-2.5,0.4-5,0.3-7.4-0.2c-1.6-0.3-3.2-0.9-4.6-1.7l-35.3-20.4l-3.8-2.2
				c-0.4-0.2-6.6-4.1-6.6-4.4s-6.7-4.8-6.3-5.1l-12.1-9.9C279.1,444.2,281.2,438.7,286,435.9z"/>
			<path id="Path_7709" class="st50" d="M348.4,488.5L315,469.2l-33.4-19.3c-4.6-2.7-4.1-7.3,1.3-10.4l1.5-0.5
				c5.3-3.1,13.4-3.4,18.1-0.8l33.4,19.3l33.4,19.3c4.6,2.7,4,7.3-1.3,10.4l-1.5,0.5C361.1,490.8,353,491.1,348.4,488.5z"/>
		</g>
	</g>
	<g id="Group_1218">
		<g id="Group_1216" class="st0">
			<path id="Path_7710" class="st1" d="M247.2,594c-5.6,0.1-11.2-1.2-16.1-3.9L60.4,491.5c-5.9-3.4-9.3-8.8-9.3-14.7
				c0-6.5,4.1-12.6,11.1-16.7l96.9-55.9c6-3.3,12.7-5,19.6-5c5.6-0.1,11.2,1.2,16.1,3.9l170.7,98.5c5.9,3.4,9.2,8.8,9.2,14.7
				c0,6.5-4.1,12.6-11.1,16.7L266.8,589C260.8,592.3,254,594,247.2,594z"/>
			<path id="Path_7711" class="st2" d="M159.6,404.9c6-3.3,12.7-5,19.5-4.8c2.7,0,5.4,0.4,8,1c2.8,0.7,5.5,1.7,8,3.1l170,98.2
				c5.8,3.4,8.9,8.7,8.5,14.5c-0.1,1.6-0.5,3.2-1,4.7c-1.5,4.1-5.7,8.5-10.5,11.3l-95.5,55.1c-1.3,0.8-2.7,1.5-4.2,2.1
				c-4.8,2-9.9,3-15.1,3c-5.5,0.2-11-1.1-15.9-3.8L60.8,490.8c-5.9-3.4-8.9-8.8-8.5-14.5c0.1-1.4,0.4-2.7,0.9-4.1
				c1.4-4.4,5.7-9.1,10.7-12L159.6,404.9z"/>
			<path id="Path_7712" class="st3" d="M160,405.6c5.9-3.3,12.7-4.9,19.5-4.7c5.6,0.1,11,1.6,15.8,4.4l169.4,97.8
				c5.8,3.4,8.5,8.7,7.8,14.4c-0.2,1.5-0.7,3-1.3,4.5c-1.4,3.7-6.3,8.4-10.6,10.9l-94.1,54.3c-1.3,0.8-2.7,1.4-4.1,2.1
				c-4.7,2-9.7,3-14.8,3.1c-6,0.1-11.4-1.2-15.7-3.6L61.2,490.1c-5.8-3.4-8.5-8.7-7.8-14.4c0.2-1.3,0.6-2.6,1-3.9
				c1.4-3.9,6.4-8.9,10.9-11.5L160,405.6z"/>
			<path id="Path_7713" class="st4" d="M160.4,406.4c5.9-3.3,12.6-4.8,19.4-4.6c2.7,0.1,5.3,0.5,7.9,1.2c2.7,0.8,5.3,2,7.8,3.3
				l168.7,97.4c5.8,3.4,8.2,8.6,7.1,14.2c-0.4,1.5-0.9,2.9-1.5,4.3c-1.4,3.2-6.9,8.2-10.7,10.4l-92.7,53.5c-1,0.6-3,1.6-4,2.1
				c-4.6,2-9.6,3-14.6,3.1c-5.9,0.1-11.3-1.1-15.5-3.5L61.7,489.3c-5.8-3.4-8.2-8.7-7-14.3c0.3-1.3,0.7-2.5,1.3-3.7
				c1.3-3.4,7.1-8.7,11.1-11.1L160.4,406.4z"/>
			<path id="Path_7714" class="st5" d="M160.9,407.1c8.3-4.6,18.1-5.7,27.1-3c2.7,0.9,5.2,2.1,7.7,3.4l168.1,97.1
				c5.8,3.3,7.9,8.6,6.4,14c-0.4,1.4-1,2.7-1.7,4c-1.3,2.8-7.5,8-10.8,10l-91.4,52.7c-0.9,0.5-3,1.6-4,2c-4.5,2-9.4,3.1-14.4,3.2
				c-5.8,0.1-11.1-1-15.2-3.4L62.1,488.6c-5.8-3.4-7.9-8.7-6.3-14.1c0.4-1.2,0.9-2.4,1.5-3.5c1.3-3,7.8-8.5,11.3-10.6L160.9,407.1z"
				/>
			<path id="Path_7715" class="st6" d="M161.3,407.9c8.2-4.7,18-5.7,27-2.8c2.6,1,5.2,2.2,7.6,3.5l167.4,96.7
				c5.7,3.3,7.6,8.5,5.7,13.8c-0.6,1.3-1.2,2.6-2,3.8c-1.2,2.4-8.1,7.8-11,9.5l-90,51.9c-0.7,0.4-3.1,1.7-3.9,2
				c-4.4,2-9.2,3.1-14.1,3.3c-5.7,0.2-11-0.9-15-3.3L62.5,487.9c-5.8-3.4-7.6-8.7-5.6-13.9c0.4-1.1,1.1-2.1,1.7-3.3
				c1.2-2.5,8.5-8.4,11.5-10.1L161.3,407.9z"/>
			<path id="Path_7716" class="st7" d="M161.7,408.6c8.2-4.7,18-5.6,26.9-2.5c2.6,1.1,5.1,2.3,7.6,3.6L363,506.1
				c5.7,3.3,7.3,8.5,5,13.6c-0.6,1.3-1.3,2.5-2.2,3.6c-0.7,2.1-8.7,7.7-11.1,9l-88.6,51.1c-0.6,0.4-3.2,1.7-3.8,2
				c-4.4,2-9.1,3.1-13.8,3.3c-5.6,0.2-10.8-0.9-14.8-3.2L63,487.1c-5.8-3.3-7.3-8.6-4.8-13.8c0.5-1.1,1.2-2.2,1.9-3.1
				c0.6-2.2,9.2-8.2,11.7-9.6L161.7,408.6z"/>
			<path id="Path_7717" class="st8" d="M162.1,409.3c8.2-4.7,18-5.5,26.8-2.2c1.1,0.3,6.6,3.2,7.5,3.7l166.1,95.9
				c5.7,3.3,7,8.5,4.3,13.4c-0.7,1.2-1.5,2.4-2.5,3.4c-0.5,1.7-9.3,7.5-11.2,8.5L266,582.5c-0.5,0.3-3.2,1.8-3.8,2
				c-4.3,2-8.9,3.1-13.6,3.4c-5.5,0.2-10.7-0.8-14.6-3L63.4,486.4c-5.8-3.3-7-8.6-4.1-13.6c0.6-1.1,1.3-2,2.2-2.9
				c0.5-1.8,9.9-8,11.9-9.2L162.1,409.3z"/>
			<path id="Path_7718" class="st9" d="M162.6,410.1c8.1-4.7,17.9-5.4,26.7-1.9c0.8,0.3,6.7,3.4,7.4,3.8l165.5,95.6
				c5.7,3.3,6.7,8.4,3.6,13.2c-0.8,1.2-1.7,2.2-2.7,3.2c-0.4,1.3-9.9,7.3-11.3,8.1l-85.8,49.6c-0.4,0.2-3.3,1.8-3.7,2
				c-4.2,2-8.7,3.1-13.3,3.4c-5.4,0.3-10.5-0.7-14.4-2.9L63.8,485.6c-5.8-3.3-6.7-8.6-3.4-13.5c0.7-1,1.5-1.9,2.4-2.7
				c0.4-1.3,10.5-7.8,12.1-8.7L162.6,410.1z"/>
			<path id="Path_7719" class="st10" d="M163,410.8c5.8-3.2,12.5-4.5,19.1-3.7c2.6,0.4,5.1,1.1,7.5,2.1c0.5,0.2,6.8,3.7,7.3,3.9
				l164.8,95.2c5.6,3.2,6.5,8.4,2.9,13c-0.8,1.1-1.8,2.1-2.9,2.9c-0.3,0.9-10.5,7.1-11.5,7.7l-84.5,48.8c-0.2,0.1-3.3,1.9-3.6,2
				c-4.1,2-8.5,3.2-13.1,3.5c-5.3,0.3-10.4-0.6-14.1-2.8L64.2,484.9c-5.7-3.3-6.5-8.6-2.6-13.3c0.8-0.9,1.6-1.8,2.6-2.6
				c0.2-0.9,11.2-7.6,12.2-8.2L163,410.8z"/>
			<path id="Path_7720" class="st11" d="M163.4,411.6c5.8-3.1,12.5-4.4,19-3.6c2.5,0.4,5,1.2,7.4,2.2c0.3,0.1,7,3.9,7.2,4L361.3,509
				c5.6,3.2,6.2,8.4,2.2,12.8c-0.9,1-2,2-3.2,2.7c-0.1,0.4-11.1,6.9-11.6,7.2l-83.1,48c-0.1,0.1-3.4,1.9-3.5,2
				c-4,2-8.4,3.2-12.8,3.6c-5.2,0.3-10.3-0.5-13.9-2.7L64.7,484.2c-5.7-3.3-6.2-8.7-1.9-13.2c0.9-0.9,1.8-1.7,2.9-2.4
				c0.1-0.4,12-7.5,12.4-7.8L163.4,411.6z"/>
			<path id="Path_7721" class="st12" d="M235.7,582L65.1,483.4c-6.7-3.9-5.9-10.7,1.9-15.2l96.9-55.9c7.8-4.5,19.6-5,26.3-1.1
				l170.7,98.5c6.7,3.9,5.9,10.7-1.9,15.2l-96.9,55.9C254.3,585.4,242.5,585.9,235.7,582z"/>
		</g>
		
			<linearGradient id="Path_7722_1_" gradientUnits="userSpaceOnUse" x1="-609.1394" y1="-118.4331" x2="-608.2589" y2="-118.4331" gradientTransform="matrix(356.61 0 0 205.87 217294.1563 24878.2559)">
			<stop  offset="6.000000e-02" style="stop-color:#DEE2F3"/>
			<stop  offset="0.43" style="stop-color:#DEE2F3"/>
			<stop  offset="0.49" style="stop-color:#DEE2F3"/>
			<stop  offset="0.52" style="stop-color:#E2E5F4"/>
			<stop  offset="0.54" style="stop-color:#EFF1F9"/>
			<stop  offset="0.56" style="stop-color:#FFFFFF"/>
			<stop  offset="0.6" style="stop-color:#FFFFFF"/>
			<stop  offset="0.81" style="stop-color:#FFFFFF"/>
			<stop  offset="1" style="stop-color:#DEE2F3"/>
		</linearGradient>
		<path id="Path_7722" class="st73" d="M235.7,581.8L65.1,483.3c-3-1.7-4.5-4-4.6-6.5v-8.5c0.1-2.9,2.2,2.2,6.4-0.3l96.9-55.9
			c7.8-4.5,19.6-5,26.3-1.1l170.7,98.5c2.2,1.3,3.9-4.2,4.5-2.5c0.2,0.6,0.1,8.3,0.1,8.9c0.1,3-2.1,6.2-6.4,8.7l-96.9,55.9
			C254.3,585.2,242.5,585.7,235.7,581.8z"/>
		
			<linearGradient id="Path_7723_1_" gradientUnits="userSpaceOnUse" x1="-609.166" y1="-118.4326" x2="-608.311" y2="-118.4326" gradientTransform="matrix(356.58 0 0 205.87 217278.0938 24869.8496)">
			<stop  offset="0" style="stop-color:#DEE2F3"/>
			<stop  offset="0.2" style="stop-color:#E4E7F5"/>
			<stop  offset="0.48" style="stop-color:#F6F7FC"/>
			<stop  offset="0.58" style="stop-color:#FFFFFF"/>
			<stop  offset="1" style="stop-color:#FFFFFF"/>
		</linearGradient>
		<path id="Path_7723" class="st74" d="M235.7,573.5L65.1,475c-6.7-3.9-5.9-10.7,1.9-15.2l96.9-55.9c7.8-4.5,19.6-5,26.3-1.1
			l170.7,98.6c6.7,3.9,5.9,10.7-1.9,15.2l-96.9,55.9C254.3,576.9,242.5,577.4,235.7,573.5z"/>
		
			<linearGradient id="Path_7724_1_" gradientUnits="userSpaceOnUse" x1="-609.139" y1="-117.8699" x2="-608.2584" y2="-117.8699" gradientTransform="matrix(356.61 0 0 136.35 217293.0156 16610.4238)">
			<stop  offset="6.000000e-02" style="stop-color:#DEE2F3"/>
			<stop  offset="0.43" style="stop-color:#DEE2F3"/>
			<stop  offset="0.49" style="stop-color:#DEE2F3"/>
			<stop  offset="0.52" style="stop-color:#E2E5F4"/>
			<stop  offset="0.54" style="stop-color:#EFF1F9"/>
			<stop  offset="0.56" style="stop-color:#FFFFFF"/>
			<stop  offset="0.6" style="stop-color:#FFFFFF"/>
			<stop  offset="0.81" style="stop-color:#FFFFFF"/>
			<stop  offset="1" style="stop-color:#DEE2F3"/>
		</linearGradient>
		<path id="Path_7724" class="st75" d="M365.4,520.6c0,3-2.2,6.1-6.4,8.5l-96.9,56c-7.8,4.5-19.6,5-26.3,1.1L65.1,487.7
			c-3.3-1.9-4.7-4.4-4.5-7.1c0,0.2,0,0.3,0,0.5v8.5c0,2.4,1.5,4.7,4.5,6.5l170.6,98.5c6.7,3.9,18.5,3.4,26.3-1.1l96.9-55.9
			c4.3-2.5,6.5-5.7,6.4-8.7C365.4,528.3,365.5,522.7,365.4,520.6z"/>
		<path id="Path_7725" class="st76" d="M247.2,572.7c-3.4,0.1-6.7-0.6-9.7-2.2L66.8,472c-1.1-0.6-2.8-1.9-2.8-3.6s1.8-3.9,4.7-5.6
			l96.9-56c4-2.2,8.6-3.3,13.2-3.3c3.4-0.1,6.7,0.6,9.7,2.2l170.7,98.5c1.1,0.6,2.8,1.9,2.8,3.6s-1.8,3.9-4.7,5.6l-96.9,56
			C256.3,571.7,251.8,572.8,247.2,572.7z"/>
		<path id="Path_7726" class="st57" d="M358.9,515.1L262.1,571c-7.8,4.5-19.6,5-26.3,1.1L65.1,473.6c-2.8-1.6-4.3-3.7-4.5-6
			c-0.4,2.8,1.1,5.4,4.5,7.4l170.6,98.5c6.7,3.9,18.5,3.4,26.3-1.1l96.9-55.9c4.6-2.6,6.7-6.1,6.4-9.2
			C365,510,362.8,512.8,358.9,515.1z"/>
		<path id="Path_7727" class="st50" d="M266.1,537.2l-138.6-80c-2.8-1.6-2.4-4.4,0.8-6.2l52-30c3.2-1.9,8-2.1,10.8-0.5l138.6,80
			c2.8,1.6,2.4,4.4-0.8,6.2l-52,30C273.7,538.6,268.9,538.8,266.1,537.2z"/>
		<path id="Path_7728" class="st77" d="M183.3,426.7l8.9,5.1c1.3,0.7,2.8,0.7,4.1,0c1.1-0.6,1.1-1.7,0-2.4l-8.9-5.1
			c-1.3-0.7-2.8-0.7-4.1,0C182.2,425,182.2,426.1,183.3,426.7z M198.6,435.5l4.2,2.4c1.3,0.7,2.8,0.7,4.1,0c1.1-0.6,1.1-1.7,0-2.4
			l-4.2-2.4c-1.3-0.6-2.8-0.6-4.1,0C197.4,433.8,197.4,434.9,198.6,435.5L198.6,435.5z M209.1,441.6l4.2,2.4c1.3,0.7,2.8,0.7,4.1,0
			c1.1-0.6,1.1-1.7,0-2.4l-4.2-2.4c-1.3-0.7-2.8-0.7-4.1,0C208,439.9,208,441,209.1,441.6L209.1,441.6z M219.6,447.7l4.2,2.4
			c1.3,0.7,2.8,0.7,4.1,0c1.1-0.6,1.1-1.7,0-2.4l-4.2-2.4c-1.3-0.7-2.8-0.7-4.1,0C218.5,446,218.5,447,219.6,447.7L219.6,447.7z
			 M230.2,453.8l4.2,2.4c1.3,0.7,2.8,0.7,4.1,0c1.1-0.6,1.1-1.7,0-2.4l-4.2-2.4c-1.3-0.6-2.8-0.6-4.1,0
			C229,452.1,229,453.1,230.2,453.8L230.2,453.8z M240.7,459.9l4.2,2.4c1.3,0.7,2.8,0.7,4.1,0c1.1-0.6,1.1-1.7,0-2.4l-4.2-2.4
			c-1.3-0.7-2.8-0.7-4.1,0C239.6,458.2,239.6,459.2,240.7,459.9z M251.2,465.9l4.2,2.4c1.3,0.6,2.8,0.6,4.1,0c1.1-0.6,1.1-1.7,0-2.4
			l-4.2-2.4c-1.3-0.7-2.8-0.7-4.1,0C250.1,464.2,250.1,465.2,251.2,465.9L251.2,465.9z M261.8,472l4.2,2.4c1.3,0.7,2.8,0.7,4.1,0
			c1.1-0.6,1.1-1.7,0-2.4l-4.2-2.4c-1.3-0.6-2.8-0.6-4.1,0C260.6,470.3,260.6,471.4,261.8,472L261.8,472z M272.3,478.1l4.2,2.4
			c1.3,0.7,2.8,0.7,4.1,0c1.1-0.6,1.1-1.7,0-2.4l-4.2-2.4c-1.3-0.7-2.8-0.7-4.1,0C271.2,476.4,271.2,477.5,272.3,478.1z
			 M282.8,484.2l4.2,2.4c1.3,0.6,2.8,0.6,4.1,0c1.1-0.6,1.1-1.7,0-2.4l-4.2-2.4c-1.3-0.7-2.8-0.7-4.1,0
			C281.7,482.5,281.7,483.5,282.8,484.2L282.8,484.2z M293.4,490.3l4.2,2.4c1.3,0.7,2.8,0.7,4.1,0c1.1-0.6,1.1-1.7,0-2.4l-4.2-2.4
			c-1.3-0.6-2.8-0.6-4.1,0C292.2,488.6,292.2,489.6,293.4,490.3L293.4,490.3z M303.9,496.4l4.2,2.4c1.3,0.7,2.8,0.7,4.1,0
			c1.1-0.6,1.1-1.7,0-2.4L308,494c-1.3-0.7-2.8-0.7-4.1,0C302.8,494.6,302.8,495.7,303.9,496.4L303.9,496.4z M314.6,502.5l4.2,2.4
			c1.3,0.7,2.8,0.7,4.1,0c1.1-0.6,1.1-1.7,0-2.4l-4.2-2.4c-1.3-0.7-2.8-0.7-4.1,0C313.5,500.8,313.5,501.9,314.6,502.5z
			 M173.9,432.5l3.6,2.1c1.5,0.7,3.2,0.7,4.6,0l3.6-2.1c1.3-0.7,1.3-1.9,0-2.7l-3.6-2.1c-1.5-0.7-3.2-0.7-4.6,0l-3.6,2.1
			C172.6,430.6,172.6,431.8,173.9,432.5z M192.7,440.7l3.6-2.1c1.3-0.7,1.3-1.9,0-2.7l-3.6-2.1c-1.5-0.7-3.2-0.7-4.6,0l-3.6,2.1
			c-1.3,0.7-1.3,1.9,0,2.7l3.6,2.1C189.5,441.4,191.2,441.5,192.7,440.7L192.7,440.7z M194.9,444.7l3.6,2.1c1.5,0.7,3.2,0.7,4.6,0
			l3.6-2.1c1.3-0.7,1.3-1.9,0-2.7l-3.6-2.1c-1.5-0.7-3.2-0.7-4.6,0l-3.6,2.1C193.6,442.8,193.7,443.9,194.9,444.7L194.9,444.7z
			 M205.5,450.8l3.6,2.1c1.5,0.7,3.2,0.7,4.6,0l3.6-2.1c1.3-0.7,1.3-1.9,0-2.7l-3.6-2.1c-1.5-0.7-3.2-0.7-4.6,0l-3.6,2.1
			C204.2,448.8,204.2,450,205.5,450.8L205.5,450.8z M227.9,454.2l-3.6-2.1c-1.5-0.7-3.2-0.7-4.6,0l-3.6,2.1c-1.3,0.7-1.3,1.9,0,2.7
			l3.7,2.1c1.5,0.7,3.2,0.7,4.6,0l3.6-2.1C229.2,456.1,229.2,454.9,227.9,454.2L227.9,454.2z M238.4,460.3l-3.6-2.1
			c-1.5-0.7-3.2-0.7-4.6,0l-3.6,2.1c-1.3,0.7-1.3,1.9,0,2.7l3.6,2.1c1.5,0.7,3.2,0.7,4.6,0l3.6-2.1
			C239.7,462.2,239.7,461,238.4,460.3z M249,466.4l-3.6-2.1c-1.5-0.7-3.2-0.7-4.6,0l-3.6,2.1c-1.3,0.7-1.3,1.9,0,2.7l3.6,2.1
			c1.5,0.7,3.2,0.7,4.6,0l3.6-2.1C250.2,468.3,250.2,467.1,249,466.4z M259.5,472.4l-3.6-2.1c-1.5-0.7-3.2-0.7-4.6,0l-3.6,2.1
			c-1.3,0.7-1.3,1.9,0,2.7l3.6,2.1c1.5,0.7,3.2,0.7,4.6,0l3.6-2.1C260.8,474.4,260.8,473.2,259.5,472.4L259.5,472.4z M270,478.5
			l-3.6-2.1c-1.5-0.7-3.2-0.7-4.6,0l-3.6,2.1c-1.3,0.7-1.3,1.9,0,2.7l3.6,2.1c1.5,0.7,3.2,0.7,4.6,0l3.6-2.1
			C271.3,480.5,271.3,479.3,270,478.5L270,478.5z M280.6,484.6l-3.6-2.1c-1.5-0.7-3.2-0.7-4.6,0l-3.6,2.1c-1.3,0.7-1.3,1.9,0,2.7
			l3.6,2.1c1.5,0.7,3.2,0.7,4.6,0l3.6-2.1C281.8,486.5,281.8,485.3,280.6,484.6L280.6,484.6z M279.2,493.3l3.6,2.1
			c1.5,0.7,3.2,0.7,4.6,0l3.6-2.1c1.3-0.7,1.3-1.9,0-2.7l-3.6-2.1c-1.5-0.7-3.2-0.7-4.6,0l-3.6,2.1
			C277.9,491.4,277.9,492.6,279.2,493.3L279.2,493.3z M301.6,496.7l-3.6-2.1c-1.5-0.7-3.2-0.7-4.6,0l-3.6,2.1
			c-1.3,0.7-1.3,1.9,0,2.7l3.6,2.1c1.5,0.7,3.2,0.7,4.6,0l3.6-2.1C302.9,498.7,302.9,497.5,301.6,496.7L301.6,496.7z M317.1,505.6
			l-8.3-4.8c-1.5-0.7-3.2-0.7-4.6,0l-3.6,2.1c-1.3,0.7-1.3,1.9,0,2.7l8.3,4.8c1.5,0.7,3.2,0.7,4.6,0l3.6-2.1
			C318.3,507.6,318.3,506.4,317.1,505.6L317.1,505.6z M164.1,438.1l8.3,4.8c1.5,0.7,3.2,0.7,4.6,0l3.6-2.1c1.3-0.7,1.3-1.9,0-2.7
			l-8.3-4.8c-1.5-0.7-3.2-0.7-4.6,0l-3.6,2.1C162.8,436.2,162.8,437.4,164.1,438.1L164.1,438.1z M179.3,446.9l3.6,2.1
			c1.5,0.7,3.2,0.7,4.6,0l3.6-2.1c1.3-0.7,1.3-1.9,0-2.7l-3.7-2.1c-1.5-0.7-3.2-0.7-4.6,0l-3.6,2.1C178,445,178,446.2,179.3,446.9
			L179.3,446.9z M193.5,455.1c1.5,0.7,3.2,0.7,4.6,0l3.6-2.1c1.3-0.7,1.3-1.9,0-2.7l-3.6-2.1c-1.5-0.7-3.2-0.7-4.6,0l-3.6,2.1
			c-1.3,0.7-1.3,1.9,0,2.7L193.5,455.1z M204,461.2c1.5,0.7,3.2,0.7,4.6,0l3.6-2.1c1.3-0.7,1.3-1.9,0-2.7l-3.6-2.1
			c-1.5-0.7-3.2-0.7-4.6,0l-3.6,2.1c-1.3,0.7-1.3,1.9,0,2.7L204,461.2z M214.5,460.4l-3.6,2.1c-1.3,0.7-1.3,1.9,0,2.7l3.6,2.1
			c1.5,0.7,3.2,0.7,4.6,0l3.6-2.1c1.3-0.7,1.3-1.9,0-2.7l-3.6-2.1C217.7,459.7,216,459.7,214.5,460.4L214.5,460.4z M225.3,466.4
			l-4.1,2.3c-1.2,0.7-1.1,1.8,0,2.4l4.1,2.4c1.3,0.7,2.9,0.7,4.2,0l4.1-2.3c1.2-0.7,1.1-1.8,0-2.4l-4.1-2.4
			C228.1,465.7,226.6,465.7,225.3,466.4L225.3,466.4z M235.8,472.5l-4.1,2.4c-1.2,0.7-1.2,1.7,0,2.4l4.1,2.4c1.3,0.7,2.9,0.7,4.2,0
			l4.1-2.4c1.2-0.7,1.1-1.7,0-2.4l-4.1-2.4C238.7,471.8,237.1,471.8,235.8,472.5L235.8,472.5z M246.3,478.6l-4.1,2.4
			c-1.2,0.7-1.2,1.8,0,2.4l4.1,2.4c1.3,0.7,2.9,0.7,4.2,0l4.1-2.3c1.2-0.7,1.1-1.8,0-2.4l-4.1-2.4
			C249.2,477.9,247.7,477.9,246.3,478.6L246.3,478.6z M256.9,484.7l-4,2.3c-1.2,0.7-1.2,1.8,0,2.4l4.1,2.4c1.3,0.7,2.9,0.7,4.2,0
			l4.1-2.4c1.2-0.7,1.1-1.7,0-2.4l-4.1-2.4C259.8,483.9,258.2,483.9,256.9,484.7L256.9,484.7z M267.4,490.7l-4.1,2.3
			c-1.2,0.7-1.2,1.8,0,2.4l4.1,2.4c1.3,0.7,2.9,0.7,4.2,0l4.1-2.4c1.2-0.7,1.1-1.7,0-2.4l-4.1-2.4C270.3,490,268.8,490,267.4,490.7
			L267.4,490.7z M282.2,503.9l4.1-2.4c1.2-0.7,1.1-1.7,0-2.4l-4.1-2.4c-1.3-0.7-2.9-0.7-4.2,0l-4.1,2.3c-1.2,0.7-1.2,1.7,0,2.4
			l4.1,2.4C279.3,504.6,280.9,504.6,282.2,503.9L282.2,503.9z M292.7,510l4.1-2.3c1.2-0.7,1.1-1.7,0-2.4l-4.1-2.4
			c-1.3-0.7-2.9-0.7-4.2,0l-4,2.3c-1.2,0.7-1.2,1.8,0,2.4l4.1,2.4C289.9,510.7,291.4,510.7,292.7,510L292.7,510z M307.5,511.4
			l-4.1-2.4c-1.3-0.7-2.9-0.7-4.2,0l-4.1,2.4c-1.2,0.7-1.2,1.8,0,2.4l4.1,2.4c1.3,0.7,2.9,0.7,4.2,0l4.1-2.3
			C308.7,513.2,308.7,512.1,307.5,511.4L307.5,511.4z M154.1,443.7l13.2,7.6c1.3,0.7,2.9,0.7,4.2,0l4.1-2.4c1.2-0.7,1.1-1.7,0-2.4
			l-13.2-7.6c-1.3-0.7-2.9-0.7-4.2,0l-4.1,2.4C153,441.9,153,443,154.1,443.7z M173.8,455l4.1,2.4c1.3,0.7,2.9,0.7,4.2,0l4.1-2.4
			c1.2-0.7,1.1-1.7,0-2.4l-4.1-2.4c-1.3-0.7-2.9-0.7-4.2,0l-4.1,2.4C172.6,453.3,172.6,454.3,173.8,455L173.8,455z M184.3,461.1
			l4.1,2.4c1.3,0.7,2.9,0.7,4.2,0l4.1-2.3c1.2-0.7,1.1-1.8,0-2.4l-4.1-2.3c-1.3-0.7-2.9-0.7-4.2,0l-4.1,2.4
			C183.2,459.3,183.2,460.4,184.3,461.1L184.3,461.1z M194.9,467.2l4.1,2.4c1.3,0.7,2.9,0.7,4.2,0l4.1-2.4c1.2-0.7,1.1-1.8,0-2.4
			l-4.1-2.4c-1.3-0.7-2.9-0.7-4.2,0l-4.1,2.3C193.7,465.4,193.7,466.5,194.9,467.2L194.9,467.2z M213.7,475.6l4.1-2.4
			c1.2-0.7,1.1-1.7,0-2.4l-4.1-2.4c-1.3-0.7-2.9-0.7-4.2,0l-4.1,2.4c-1.2,0.7-1.2,1.7,0,2.4l4.1,2.4
			C210.8,476.3,212.4,476.3,213.7,475.6L213.7,475.6z M224.2,481.7l4.1-2.3c1.2-0.7,1.1-1.8,0-2.4l-4.1-2.4c-1.3-0.7-2.9-0.7-4.2,0
			l-4.1,2.4c-1.2,0.7-1.2,1.8,0,2.4l4.1,2.4C221.3,482.4,222.9,482.4,224.2,481.7L224.2,481.7z M234.8,487.8l4.1-2.4
			c1.2-0.7,1.1-1.7,0-2.4l-4.1-2.4c-1.3-0.7-2.9-0.7-4.2,0l-4.1,2.3c-1.2,0.7-1.1,1.8,0,2.4l4.1,2.4
			C231.9,488.5,233.4,488.5,234.8,487.8L234.8,487.8z M245.3,493.9l4.1-2.4c1.2-0.7,1.1-1.7,0-2.4l-4.1-2.4c-1.3-0.7-2.9-0.7-4.2,0
			l-4.1,2.4c-1.2,0.7-1.1,1.7,0,2.4l4.1,2.4C242.4,494.5,244,494.5,245.3,493.9L245.3,493.9z M255.8,500l4.1-2.3
			c1.2-0.7,1.2-1.7,0-2.4l-4.1-2.4c-1.3-0.7-2.9-0.7-4.2,0l-4.1,2.4c-1.2,0.7-1.1,1.8,0,2.4l4.1,2.4
			C252.9,500.6,254.5,500.6,255.8,500L255.8,500z M266.3,506l4.1-2.4c1.2-0.7,1.2-1.8,0-2.4l-4.1-2.4c-1.3-0.7-2.9-0.7-4.2,0
			l-4.1,2.3c-1.2,0.7-1.1,1.7,0,2.4l4.1,2.4C263.5,506.7,265,506.7,266.3,506L266.3,506z M268.6,509.8l4.1,2.4
			c1.3,0.7,2.9,0.7,4.2,0l4.1-2.4c1.2-0.7,1.2-1.7,0-2.4l-4.1-2.4c-1.3-0.7-2.9-0.7-4.2,0l-4.1,2.4C267.4,508,267.4,509,268.6,509.8
			L268.6,509.8z M297.8,517.1l-10.4-6c-1.3-0.7-2.9-0.7-4.2,0l-4.1,2.4c-1.2,0.7-1.1,1.7,0,2.4l10.4,6c1.3,0.7,2.9,0.7,4.2,0
			l4.1-2.4C298.9,518.8,298.9,517.7,297.8,517.1z M144.4,449.6l18.7,10.8c1.5,0.8,3.2,0.8,4.7,0l3.5-2c1.3-0.8,1.3-2,0-2.7
			l-18.7-10.8c-1.5-0.8-3.2-0.8-4.7,0l-3.5,2C143.1,447.6,143.1,448.8,144.4,449.6z M170.2,464.4l3.5,2.1c1.5,0.8,3.3,0.8,4.7,0
			l3.5-2c1.3-0.8,1.3-2,0-2.7l-3.5-2.1c-1.5-0.8-3.2-0.8-4.7,0l-3.5,2C168.8,462.5,168.8,463.7,170.2,464.4L170.2,464.4z
			 M180.7,470.5l3.5,2.1c1.5,0.8,3.3,0.8,4.7,0l3.5-2c1.3-0.8,1.3-2,0-2.7l-3.5-2.1c-1.5-0.8-3.2-0.8-4.7,0l-3.5,2
			C179.4,468.5,179.4,469.8,180.7,470.5L180.7,470.5z M191.2,476.6l3.5,2c1.5,0.8,3.3,0.8,4.7,0l3.5-2c1.3-0.8,1.3-2,0-2.7l-3.5-2
			c-1.5-0.8-3.2-0.8-4.7,0l-3.5,2C189.9,474.6,189.9,475.8,191.2,476.6L191.2,476.6z M201.8,482.7l3.5,2.1c1.5,0.8,3.2,0.8,4.7,0
			l3.5-2c1.3-0.8,1.3-2,0-2.7l-3.5-2.1c-1.5-0.8-3.2-0.8-4.7,0l-3.5,2C200.4,480.7,200.5,481.9,201.8,482.7z M212.3,488.8l3.5,2.1
			c1.5,0.8,3.2,0.8,4.7,0l3.5-2c1.3-0.8,1.3-2,0-2.7l-3.5-2.1c-1.5-0.8-3.3-0.8-4.7,0l-3.5,2C211,486.8,211,488,212.3,488.8
			L212.3,488.8z M222.8,494.8l3.5,2c1.5,0.8,3.2,0.8,4.7,0l3.5-2c1.3-0.8,1.3-2,0-2.7l-3.5-2c-1.5-0.8-3.3-0.8-4.7,0l-3.5,2
			C221.5,492.8,221.5,494.1,222.8,494.8L222.8,494.8z M233.4,500.9l3.5,2.1c1.5,0.8,3.2,0.8,4.7,0l3.5-2c1.3-0.8,1.3-2,0-2.7
			l-3.5-2.1c-1.5-0.8-3.3-0.8-4.7,0l-3.5,2C232,498.9,232.1,500.1,233.4,500.9L233.4,500.9z M243.9,507l3.5,2c1.5,0.8,3.2,0.8,4.7,0
			l3.5-2c1.3-0.8,1.3-2,0-2.7l-3.5-2c-1.5-0.8-3.2-0.8-4.7,0l-3.5,2C242.6,505,242.6,506.2,243.9,507L243.9,507z M254.4,513.1l3.5,2
			c1.5,0.8,3.2,0.8,4.7,0l3.5-2c1.3-0.8,1.3-2,0-2.7l-3.5-2c-1.5-0.8-3.2-0.8-4.7,0l-3.5,2C253.1,511.1,253.1,512.3,254.4,513.1z
			 M264.9,519.1l3.5,2.1c1.5,0.8,3.2,0.8,4.7,0l3.5-2c1.3-0.8,1.3-2,0-2.7l-3.5-2.1c-1.5-0.8-3.2-0.8-4.7,0l-3.5,2
			C263.6,517.2,263.6,518.4,264.9,519.1z M287.5,522.7l-3.5-2c-1.5-0.8-3.2-0.8-4.7,0l-3.5,2c-1.3,0.8-1.3,2,0,2.7l3.5,2
			c1.5,0.8,3.3,0.8,4.7,0l3.5-2C288.8,524.6,288.8,523.4,287.5,522.7z M151.1,455.2l-8.2-4.7c-1.5-0.8-3.2-0.8-4.7,0l-3.5,2
			c-1.3,0.8-1.3,2,0,2.7l8.2,4.7c1.5,0.8,3.2,0.8,4.7,0l3.5-2C152.5,457.2,152.5,456,151.1,455.2z M161.6,461.3l-3.5-2
			c-1.5-0.8-3.3-0.8-4.7,0l-3.5,2c-1.3,0.8-1.3,2,0,2.7l3.5,2c1.5,0.8,3.2,0.8,4.7,0l3.5-2C162.9,463.3,162.9,462,161.6,461.3
			L161.6,461.3z M172.2,467.4l-3.5-2.1c-1.5-0.8-3.2-0.8-4.7,0l-3.5,2c-1.3,0.8-1.3,2,0,2.7l3.5,2c1.5,0.8,3.2,0.8,4.7,0l3.5-2
			C173.5,469.3,173.5,468.1,172.2,467.4L172.2,467.4z M245.9,509.9l-66.7-38.5c-1.5-0.8-3.2-0.8-4.7,0l-3.5,2.1
			c-1.3,0.8-1.3,2,0,2.7l66.7,38.5c1.5,0.8,3.2,0.8,4.7,0l3.5-2C247.3,511.9,247.2,510.7,245.9,509.9L245.9,509.9z M256.4,516
			l-3.5-2c-1.5-0.8-3.2-0.8-4.7,0l-3.5,2c-1.3,0.8-1.3,2,0,2.7l3.5,2c1.5,0.8,3.2,0.8,4.7,0l3.5-2C257.7,518,257.7,516.8,256.4,516
			L256.4,516z M267,522.1l-3.5-2c-1.5-0.8-3.2-0.8-4.7,0l-3.5,2c-1.3,0.8-1.3,2,0,2.7l3.5,2c1.5,0.8,3.3,0.8,4.7,0l3.5-2
			C268.3,524.1,268.3,522.9,267,522.1L267,522.1z M277.7,528.3l-3.5-2.1c-1.5-0.8-3.2-0.8-4.7,0l-3.5,2c-1.3,0.8-1.3,2,0,2.7
			l3.5,2.1c1.5,0.8,3.2,0.8,4.7,0l3.5-2C279,530.3,279,529.1,277.7,528.3z"/>
		<g id="Group_1217">
			
				<linearGradient id="Path_7729_1_" gradientUnits="userSpaceOnUse" x1="-590.5871" y1="-129.547" x2="-592.0319" y2="-128.6322" gradientTransform="matrix(219.35 0 0 301.24 133568.2344 36139.2305)">
				<stop  offset="0" style="stop-color:#DEE2F3"/>
				<stop  offset="0.18" style="stop-color:#E1E5F4"/>
				<stop  offset="0.36" style="stop-color:#ECEFF8"/>
				<stop  offset="0.52" style="stop-color:#FFFFFF"/>
				<stop  offset="1" style="stop-color:#FFFFFF"/>
			</linearGradient>
			<path id="Path_7729" class="st78" d="M358.1,500l-164.5-95c-6.4-3.7-11.5-13.5-11.5-22v-129c0-8.5,5.1-12.4,11.5-8.7l164.5,95
				c6.4,3.7,11.5,13.5,11.5,22v129C369.7,499.8,364.5,503.7,358.1,500z"/>
			
				<linearGradient id="Path_7730_1_" gradientUnits="userSpaceOnUse" x1="-608.1687" y1="-119.2667" x2="-606.6896" y2="-118.0185" gradientTransform="matrix(204.19 0 0 283.69 124316.8906 34041.9023)">
				<stop  offset="1.000000e-02" style="stop-color:#DEE2F3"/>
				<stop  offset="0.34" style="stop-color:#DEE2F3"/>
				<stop  offset="0.61" style="stop-color:#EDEFF8"/>
				<stop  offset="1" style="stop-color:#FFFFFF"/>
			</linearGradient>
			<path id="Path_7730" class="st79" d="M359.6,493.4l-162.7-94c-5.1-3.2-8.3-9.8-8.3-16.4V253.3c0-1.1,0.9-2,2-2c0,0,0,0,0,0
				c0.4,0,0.7,0.1,1,0.3l0.4,0.2l162.8,94c6.1,3.5,8.3,9.8,8.3,16.4v129.4c0,1.2-1,2.2-2.2,2.2c-0.4,0-0.8-0.1-1.1-0.3L359.6,493.4z
				"/>
			
				<linearGradient id="Path_7731_1_" gradientUnits="userSpaceOnUse" x1="-608.0422" y1="-119.163" x2="-606.965" y2="-118.2482" gradientTransform="matrix(204.19 0 0 283.69 124317.5078 34042.6523)">
				<stop  offset="0" style="stop-color:#DEE2F3"/>
				<stop  offset="0.1" style="stop-color:#B1B4C2"/>
				<stop  offset="0.23" style="stop-color:#838691"/>
				<stop  offset="0.35" style="stop-color:#5C5E66"/>
				<stop  offset="0.48" style="stop-color:#3C3E43"/>
				<stop  offset="0.6" style="stop-color:#232528"/>
				<stop  offset="0.73" style="stop-color:#121315"/>
				<stop  offset="0.86" style="stop-color:#070809"/>
				<stop  offset="1" style="stop-color:#040506"/>
			</linearGradient>
			<path id="Path_7731" class="st80" d="M354.9,345.8l-162.8-94.1l-0.4-0.2c-1-0.6-2.2-0.2-2.8,0.7c0,0,0,0,0,0
				c-0.2,0.3-0.3,0.7-0.3,1V383c0,6.7,3.2,13.2,8.3,16.4l162.7,94l0.3,0.2c1.1,0.6,2.4,0.2,3-0.8c0.2-0.3,0.3-0.7,0.3-1.1V362.3
				C363.2,355.6,361,349.4,354.9,345.8z M361.9,491.6c0,0.5-0.4,0.9-0.9,0.9c-0.2,0-0.3,0-0.5-0.1l-163-94.1
				c-4.6-2.9-7.7-9-7.7-15.3V253.3c0-0.4,0.3-0.7,0.8-0.7c0.1,0,0.3,0,0.4,0.1L354.2,347c6.3,3.6,7.7,10.3,7.7,15.3L361.9,491.6z"/>
			
				<linearGradient id="Path_7732_1_" gradientUnits="userSpaceOnUse" x1="-605.1839" y1="-116.1398" x2="-605.902" y2="-116.9605" gradientTransform="matrix(218.07 0 0 302.93 132792.5156 36338.7227)">
				<stop  offset="6.000000e-02" style="stop-color:#DEE2F3"/>
				<stop  offset="0.43" style="stop-color:#DEE2F3"/>
				<stop  offset="0.49" style="stop-color:#DEE2F3"/>
				<stop  offset="0.52" style="stop-color:#E2E5F4"/>
				<stop  offset="0.54" style="stop-color:#EFF1F9"/>
				<stop  offset="0.56" style="stop-color:#FFFFFF"/>
				<stop  offset="0.6" style="stop-color:#FFFFFF"/>
				<stop  offset="0.81" style="stop-color:#FFFFFF"/>
				<stop  offset="1" style="stop-color:#DEE2F3"/>
			</linearGradient>
			<path id="Path_7732" class="st81" d="M361.4,338.5l-164.5-95c-2.6-1.5-4.8-1.7-6.7-1c-0.2,0.1-3.4,1.8-3.7,1.9l0,0
				c2-0.9,4.5-0.8,7.2,0.8l164.5,95c6.4,3.7,11.5,13.5,11.5,22v129c0,5.3-2,8.8-5.1,9.8c0.4,0,0.7-0.1,1-0.3
				c0.1-0.1,3.6-2.1,3.8-2.2c2.2-1.5,3.6-4.7,3.6-9v-129C372.9,352.1,367.8,342.2,361.4,338.5z"/>
			
				<radialGradient id="Path_7733_1_" cx="-607.7994" cy="-118.7921" r="8.549097e-02" gradientTransform="matrix(301.06 0 0 301.13 182963.2813 36126.3594)" gradientUnits="userSpaceOnUse">
				<stop  offset="0" style="stop-color:#FFFFFF"/>
				<stop  offset="1" style="stop-color:#000000"/>
			</radialGradient>
			<path id="Path_7733" class="st82" d="M358.7,340l-164.5-95c-2.6-1.5-5-1.7-7-0.9c1.9-0.2,3.9,0.2,5.6,1.3l164.5,95
				c6.4,3.7,11.5,13.5,11.5,22v129c0,5-1.8,8.4-4.6,9.6c3.6-0.6,6-4.2,6-10V362C370.2,353.5,365,343.6,358.7,340z"/>
		</g>
	</g>
	<g id="Group_1220">
		<g id="Group_1219" class="st0">
			<path id="Path_7734" class="st1" d="M553.3,620.7c-3.9,0.1-7.7-0.8-11.1-2.7l-33.4-19.3l-33.4-19.3c-4-2.3-6.4-6-6.4-10.1
				c0-4.5,2.8-8.7,7.7-11.5l23.9-15c4.1-2.3,8.7-3.5,13.4-3.4c3.9-0.1,7.7,0.8,11.1,2.7l33.4,19.3l33.4,19.3c4,2.3,6.4,6,6.4,10.1
				c0,4.5-18.4,18.7-23.3,21.5l-8.3,4.9C562.6,619.5,558,620.7,553.3,620.7z"/>
			<path id="Path_7735" class="st2" d="M477,558.3l16.9-10.6c0.1-0.1,6.2-3.8,6.4-3.9c5.5-2.9,11.8-3.8,17.8-2.6
				c2.1,0.4,4.1,1.2,6,2.2l32.5,18.8l8,4.6l24.6,14.2c3.7,2.1,6.5,5.9,6.5,9.6c0,1.8-2.7,5.6-6.6,9.4c-4.8,4.6-11,9.8-13.9,11.5
				l-8.2,4.9c-1.9,1.1-3.9,1.9-6,2.6c-2.4,0.7-4.8,1-7.2,1.1c-3.8,0.1-7.6-0.7-11-2.5c-0.1,0-1.8-1-1.9-1.1l-31.2-18l-6-3.5
				l-27.1-15.6c-3.5-2-6.2-5.6-6.6-9c0-0.2-0.1-0.4-0.1-0.7C469.6,565.3,472.1,561.1,477,558.3z"/>
			<path id="Path_7736" class="st3" d="M477.3,558.8l16.4-10.3c0.3-0.2,5.9-3.6,6.3-3.7c5.3-2.7,11.5-3.5,17.3-2.2
				c2,0.5,4,1.2,5.8,2.3l31.6,18.3l7.7,4.5l23.9,13.8c3.3,1.9,6.6,5.7,6.6,9.1c0,1.6-1.8,5.4-5.2,8.9c-4.1,4.3-9.5,9.6-12.7,11.4
				l-8.1,4.9c-1.9,1.1-3.9,1.9-5.9,2.6c-2.3,0.7-4.7,1.1-7.1,1.2c-3.8,0.2-7.5-0.6-10.9-2.3c-0.1,0-1.7-1-1.9-1l-30.9-17.8l-5.9-3.4
				l-26.8-15.5c-3.1-1.8-6.4-5.6-6.8-8.7c0-0.2-0.1-0.4-0.1-0.6C470,565.8,472.4,561.6,477.3,558.8z"/>
			<path id="Path_7737" class="st4" d="M477.6,559.3l16-10.1c0.4-0.2,5.6-3.4,6.1-3.5c5.2-2.6,11.2-3.2,16.9-1.8
				c2,0.5,3.9,1.3,5.6,2.3l30.8,17.8l7.5,4.3l23.2,13.4c2.9,1.7,6.7,5.6,6.7,8.5c-0.3,3.1-1.6,6.1-3.7,8.4c-3.4,3.9-8,9.3-11.4,11.3
				l-8,4.9c-1.8,1.1-3.8,2-5.8,2.7c-2.3,0.7-4.6,1.1-7,1.3c-3.7,0.2-7.5-0.5-10.8-2.1c-0.2-0.1-1.7-0.9-1.8-1L511.2,598l-5.9-3.4
				l-26.5-15.3c-2.8-1.6-6.6-5.5-7.1-8.3c0-0.2-0.1-0.4-0.2-0.6C470.5,566.4,472.7,562.1,477.6,559.3z"/>
			<path id="Path_7738" class="st5" d="M477.9,559.8l15.5-9.8c0.5-0.3,5.3-3.1,6-3.3c3.8-1.7,8-2.5,12.1-2.2
				c1.4,0.1,2.9,0.4,4.3,0.7c1.9,0.6,3.7,1.3,5.4,2.3l29.8,17.2l7.3,4.2l22.5,13c2.6,1.5,6.8,5.4,6.8,8.1c0,1.3,0.6,5.4-2.3,8
				c-2.3,4.6-5.8,8.4-10.1,11.2l-7.9,4.8c-1.8,1.1-3.7,2-5.7,2.8c-2.2,0.7-4.6,1.2-6.9,1.4c-3.7,0.3-7.4-0.4-10.7-1.9
				c-0.2-0.1-1.6-0.9-1.8-1L512,597.8l-5.8-3.4l-26.3-15.2c-2.4-1.4-6.8-5.5-7.3-7.9c-0.1-0.2-0.1-0.4-0.2-0.6
				C471,566.9,472.9,562.7,477.9,559.8z"/>
			<path id="Path_7739" class="st6" d="M478.2,560.3l15-9.5c1.9-1.1,3.8-2.2,5.9-3.1c3.7-1.6,7.8-2.2,11.8-1.9
				c1.4,0.2,2.7,0.4,4.1,0.8c1.8,0.6,3.6,1.4,5.2,2.3l29,16.7l7.1,4.1l21.9,12.6c2.2,1.3,7,5.3,7,7.5c0,1.1,1.6,5.3-0.9,7.5
				c-0.9,3.9-5,8.8-8.9,11.1l-7.8,4.8c-1.8,1.1-3.7,2-5.6,2.8c-2.2,0.8-4.5,1.3-6.8,1.5c-3.6,0.4-7.3-0.2-10.6-1.7
				c-0.3-0.1-1.6-0.8-1.8-1l-29.9-17.3l-5.8-3.3l-26-15c-2.1-1.2-7.4-5.4-7.6-7.5c-0.1-0.2-0.2-0.4-0.3-0.5
				C471.4,567.4,473.2,563.2,478.2,560.3z"/>
			<path id="Path_7740" class="st7" d="M478.5,560.8l14.5-9.3c1.8-1.1,3.7-2.1,5.7-2.9c3.6-1.4,7.6-2,11.4-1.6
				c1.3,0.2,2.6,0.5,3.9,0.9c1.7,0.6,3.4,1.4,5,2.3l28.1,16.2l6.8,4l21.2,12.3c1.8,1.1,7.1,5.1,7.1,7c0,0.9,2.7,5.2,0.6,7
				c0,3.7-3.4,8.5-7.6,11l-7.7,4.8c-0.9,0.5-4.5,2.6-5.5,2.9c-2.2,0.8-4.4,1.3-6.7,1.6c-3.6,0.4-7.2-0.2-10.5-1.6
				c-0.3-0.1-1.5-0.8-1.8-0.9l-29.6-17.1l-5.7-3.3l-25.7-14.8c-1.7-1-7.7-5.4-7.8-7.1c-0.1-0.2-0.2-0.3-0.3-0.5
				C471.9,568,473.5,563.7,478.5,560.8z"/>
			<path id="Path_7741" class="st8" d="M478.8,561.3l14-9c1.8-1.1,3.7-2,5.6-2.7c3.5-1.3,7.4-1.7,11.1-1.3c1.3,0.2,2.6,0.5,3.8,1
				c1.7,0.7,3.3,1.4,4.8,2.3l27.2,15.7l6.7,3.8l20.5,11.9c1.5,0.9,7.2,5,7.2,6.5c0,0.7,3.7,5.1,2.1,6.5c0.9,3.5-2,8.3-6.3,10.9
				l-7.6,4.8c-0.7,0.4-4.6,2.7-5.4,2.9c-2.1,0.8-4.3,1.4-6.6,1.7c-3.6,0.5-7.2,0-10.5-1.4c-0.6-0.3-1.2-0.6-1.8-0.9l-29.3-16.9
				l-5.6-3.2l-25.5-14.7c-1.4-0.8-8-5.4-8.1-6.8c-0.1-0.1-0.2-0.3-0.4-0.5C472.3,568.5,473.7,564.2,478.8,561.3z"/>
			<path id="Path_7742" class="st9" d="M479.1,561.8l13.6-8.7c1.7-1,3.6-1.9,5.5-2.6c3.5-1.2,7.2-1.5,10.8-1c1.2,0.3,2.4,0.6,3.6,1
				c0.6,0.2,4.2,2,4.7,2.3l26.3,15.2l6.4,3.7l19.9,11.5c1.1,0.6,7.3,4.9,7.3,6c0,0.5,4.8,4.9,3.5,6c1.8,3.3-0.5,8.1-5.1,10.7
				l-7.5,4.8c-0.5,0.3-4.7,2.8-5.2,3c-2.1,0.9-4.2,1.5-6.4,1.9c-3.5,0.5-7.1,0.1-10.4-1.2c-0.6-0.2-1.2-0.5-1.8-0.9l-29-16.8
				l-5.6-3.2l-25.2-14.5c-1-0.6-8.3-5.3-8.3-6.4c-0.1-0.1-0.3-0.3-0.4-0.4C472.8,569,474,564.8,479.1,561.8z"/>
			<path id="Path_7743" class="st10" d="M479.4,562.4l13.1-8.5c1.7-1,3.5-1.8,5.3-2.3c3.4-1,7-1.3,10.5-0.7c1.2,0.3,2.4,0.7,3.5,1.1
				c0.4,0.1,4.1,2.1,4.4,2.3l25.4,14.7l6.2,3.6l19.2,11.1c0.7,0.4,7.4,4.7,7.4,5.5c0,0.4,5.8,4.8,5,5.5c2.8,3.1,1,7.8-3.8,10.6
				l-7.4,4.7c-0.3,0.2-4.8,2.9-5.1,3.1c-2,0.9-4.2,1.5-6.4,2c-3.4,0.5-7,0.2-10.3-1c-0.6-0.2-1.2-0.5-1.8-0.9L516,596.7l-5.5-3.2
				l-24.9-14.4c-0.7-0.4-8.5-5.3-8.5-6c-0.2-0.1-0.3-0.3-0.4-0.4C473.2,569.6,474.3,565.3,479.4,562.4z"/>
			<path id="Path_7744" class="st11" d="M479.6,562.8l12.6-8.2c4.7-2.7,10.1-3.6,15.4-2.5c1.1,0.3,2.3,0.7,3.3,1.2
				c0.2,0.1,4.1,2.2,4.3,2.3l24.5,14.1l6,3.5l18.5,10.7c0.4,0.2,7.6,4.6,7.6,5c0,0.2,6.8,4.7,6.5,5.1c3.7,2.9,2.6,7.6-2.6,10.5
				l-7.3,4.7c-0.2,0.1-4.8,3.1-5,3.2c-2,0.9-4.1,1.6-6.3,2.1c-3.4,0.6-6.9,0.3-10.2-0.8c-0.6-0.2-1.2-0.5-1.8-0.9l-28.4-16.4
				l-5.4-3.1L486.6,579c-0.3-0.2-8.8-5.3-8.8-5.6l-0.5-0.4C473.6,570.2,474.5,565.8,479.6,562.8z"/>
			<path id="Path_7745" class="st12" d="M545.5,612.4l-33.4-19.3l-33.4-19.3c-4.6-2.7-4.1-7.3,1.3-10.4l12.1-7.9
				c5.3-3.1,13.4-3.4,18.1-0.7l33.4,19.3l33.4,19.3c4.6,2.7,4.1,7.3-1.3,10.4l-12.1,7.9C558.2,614.8,550.1,615.1,545.5,612.4z"/>
		</g>
		
			<linearGradient id="Path_7746_1_" gradientUnits="userSpaceOnUse" x1="-613.71" y1="-124.2138" x2="-612.915" y2="-123.718" gradientTransform="matrix(105.55 0 0 294.25 64382.1016 35441.6016)">
			<stop  offset="6.000000e-02" style="stop-color:#DEE2F3"/>
			<stop  offset="0.43" style="stop-color:#DEE2F3"/>
			<stop  offset="0.49" style="stop-color:#DEE2F3"/>
			<stop  offset="0.52" style="stop-color:#E2E5F4"/>
			<stop  offset="0.54" style="stop-color:#EFF1F9"/>
			<stop  offset="0.56" style="stop-color:#FFFFFF"/>
			<stop  offset="0.6" style="stop-color:#FFFFFF"/>
			<stop  offset="0.81" style="stop-color:#FFFFFF"/>
			<stop  offset="1" style="stop-color:#DEE2F3"/>
		</linearGradient>
		<path id="Path_7746" class="st83" d="M554.4,611.1l-62.4-36c-7-4.1-12.7-15-12.7-24.4V374.5c0-4.8-3.9-5.8-1.5-7.5
			c0.1-0.1,5.6-2.6,5.7-2.6c2.8-1.3,6-1.1,8.6,0.5l62.4,36c7,4.1,12.7,15,12.7,24.4v176.2c0,5-1.6,8.5-4.2,10.2
			c-0.2,0.1-6.8,3.2-6.9,3.3C553.8,615.7,557.5,612.9,554.4,611.1z"/>
		
			<radialGradient id="Path_7747_1_" cx="-609.2267" cy="-118.9823" r="0.3249" gradientTransform="matrix(279.94 0 0 279.96 173141.5938 33727.7305)" gradientUnits="userSpaceOnUse">
			<stop  offset="0" style="stop-color:#DEE2F3"/>
			<stop  offset="1" style="stop-color:#DEE2F3"/>
		</radialGradient>
		<path id="Path_7747" class="st84" d="M549.6,603.4l-62.4-36c-7-4.1-12.7-15-12.7-24.4V376.7c0-9.4,5.7-13.7,12.7-9.6l62.4,36
			c7,4.1,12.8,15,12.8,24.4v166.2C562.3,603.1,556.6,607.4,549.6,603.4z"/>
		<path id="Path_7748" class="st57" d="M548.5,614l-62.4-36c-7-4.1-12.7-15-12.7-24.4V377.3c0-9.4,5.7-13.7,12.7-9.6l62.4,36
			c7,4.1,12.7,15,12.7,24.4v176.2C561.2,613.7,555.5,618,548.5,614z"/>
		
			<linearGradient id="Path_7749_1_" gradientUnits="userSpaceOnUse" x1="-611.895" y1="-124.041" x2="-613.2202" y2="-125.007" gradientTransform="matrix(98.78 0 0 286.31 60242.5703 34488.5352)">
			<stop  offset="0" style="stop-color:#DEE2F3"/>
			<stop  offset="0.18" style="stop-color:#E1E5F4"/>
			<stop  offset="0.36" style="stop-color:#ECEFF8"/>
			<stop  offset="0.52" style="stop-color:#FFFFFF"/>
			<stop  offset="1" style="stop-color:#FFFFFF"/>
		</linearGradient>
		<path id="Path_7749" class="st85" d="M475,554.7V378.2c0-8.2,5-12,11.2-8.5l62.1,35.9c6.2,3.6,11.2,13.1,11.2,21.4v176.4
			c0,8.2-5,12-11.2,8.4L486.2,576C480,572.4,475,562.9,475,554.7z"/>
		
			<linearGradient id="Path_7750_1_" gradientUnits="userSpaceOnUse" x1="-617.405" y1="-118.7089" x2="-616.5502" y2="-118.7089" gradientTransform="matrix(92.97 0 0 266.55 56696.1914 32127.6738)">
			<stop  offset="0" style="stop-color:#DEE2F3"/>
			<stop  offset="1" style="stop-color:#DD131F"/>
		</linearGradient>
		<path id="Path_7750" class="st86" d="M477.5,545.7V380.1c0-6.9,4.2-10.1,9.4-7.1l60.8,35.1c5.1,3,9.4,11,9.4,17.9v165.6
			c0,6.9-4.2,10.1-9.4,7.1l-60.8-35.1C481.7,560.6,477.5,552.6,477.5,545.7z"/>
		<path id="Path_7751" class="st50" d="M487.6,374.8c-4.9-2.8-8.8-0.6-8.8,5v167.5c0,5.6,3.9,12.4,8.8,15.2l59.3,34.3
			c4.9,2.8,8.8,0.6,8.8-5V424.3c0-5.6-3.9-12.4-8.8-15.2L487.6,374.8z"/>
		
			<linearGradient id="Path_7752_1_" gradientUnits="userSpaceOnUse" x1="-707.8943" y1="-107.1705" x2="-704.7824" y2="-107.1705" gradientTransform="matrix(4.56 0 0 19.75 2777.6001 2576.4324)">
			<stop  offset="0" style="stop-color:#DEE2F3"/>
			<stop  offset="0.49" style="stop-color:#DEE2F3"/>
			<stop  offset="1" style="stop-color:#DEE2F3"/>
		</linearGradient>
		<path id="Path_7752" class="st87" d="M562.9,466.6v-11.2c0-1.5,0.7-2.9,1.9-3.7l0,0c1.1-0.6,1.9,0,1.9,1.5v11.2
			c0,1.5-0.7,2.9-1.9,3.7l0,0C563.8,468.6,562.9,468,562.9,466.6z"/>
		
			<linearGradient id="Path_7753_1_" gradientUnits="userSpaceOnUse" x1="-780.4972" y1="-109.2894" x2="-783.2414" y2="-109.315" gradientTransform="matrix(3.57 0 0 18.77 2176.3899 2453.3953)">
			<stop  offset="0" style="stop-color:#FFFFFF"/>
			<stop  offset="1" style="stop-color:#DEE2F3"/>
		</linearGradient>
		<path id="Path_7753" class="st88" d="M564.1,467.8c-0.6,0-0.8-0.7-0.8-1.3v-11.2c0-1.3,0.7-2.6,1.7-3.4c0.2-0.1,0.4-0.2,0.6-0.2
			c0.6,0,0.8,0.7,0.8,1.3v11.2c0,1.3-0.7,2.6-1.7,3.4C564.5,467.8,564.3,467.8,564.1,467.8z"/>
		
			<radialGradient id="Path_7754_1_" cx="-630.7381" cy="-106.5806" r="0.3078" gradientTransform="matrix(18.78 0 0 18.76 17963.6699 2456.6731)" gradientUnits="userSpaceOnUse">
			<stop  offset="0" style="stop-color:#FFFFFF"/>
			<stop  offset="0.1" style="stop-color:#F9F9F9"/>
			<stop  offset="0.23" style="stop-color:#EAEAEA"/>
			<stop  offset="0.36" style="stop-color:#D0D1D1"/>
			<stop  offset="0.51" style="stop-color:#ADADAD"/>
			<stop  offset="0.67" style="stop-color:#7F8080"/>
			<stop  offset="0.83" style="stop-color:#474849"/>
			<stop  offset="0.99" style="stop-color:#070809"/>
			<stop  offset="1" style="stop-color:#040506"/>
		</radialGradient>
		<path id="Path_7754" class="st89" d="M563.9,466.8v-11.2c0-1.3,0.7-2.6,1.7-3.4c0.2-0.1,0.3-0.2,0.5-0.2c-0.1-0.2-0.3-0.3-0.5-0.3
			c-0.2,0-0.4,0.1-0.6,0.2c-1.1,0.8-1.7,2-1.7,3.4v11.2c0,0.6,0.2,1.3,0.8,1.3h0.1C564,467.5,563.9,467.2,563.9,466.8z"/>
		
			<linearGradient id="Path_7755_1_" gradientUnits="userSpaceOnUse" x1="-604.6852" y1="-119.1602" x2="-603.0694" y2="-118.0659" gradientTransform="matrix(88.28 0 0 260.69 53833.3711 31418.7773)">
			<stop  offset="1.000000e-02" style="stop-color:#DEE2F3"/>
			<stop  offset="0.34" style="stop-color:#DEE2F3"/>
			<stop  offset="0.61" style="stop-color:#EDEFF8"/>
			<stop  offset="1" style="stop-color:#FFFFFF"/>
		</linearGradient>
		<path id="Path_7755" class="st90" d="M555,591.8c0.1,1.5-0.3,2.9-1.2,4.1c-0.7,0.9-1.8,1.4-2.9,1.4l0,0c-1.3-0.1-2.5-0.4-3.6-1.1
			l-59.4-34.3c-4.7-2.7-8.4-9.2-8.4-14.5V379.9c0-3.4,1.6-5.5,4.1-5.5c1.3,0.1,2.5,0.4,3.6,1.1l59.4,34.3c4.7,2.7,8.4,9.2,8.4,14.5
			L555,591.8z"/>
		
			<image style="overflow:visible;opacity:0.2;enable-background:new    ;" width="92" height="59" id="Rectangle_237" xlink:href="BAC8C7D8.png"  transform="matrix(0.9497 0 0 0.9497 473.5515 579.0151)">
		</image>
		
			<image style="overflow:visible;opacity:0.2;enable-background:new    ;" width="21" height="20" id="Rectangle_238" xlink:href="BAC8C7DB.png"  transform="matrix(0.966 0 0 0.966 549.4538 615.6566)">
		</image>
	</g>
</g>
</svg>
