<svg xmlns="http://www.w3.org/2000/svg" xmlns:xlink="http://www.w3.org/1999/xlink" viewBox="0 0 794 525.72"><defs><style>.cls-1{isolation:isolate;}.cls-2{fill:#fc3232;}.cls-11,.cls-12,.cls-19,.cls-3,.cls-4,.cls-5,.cls-75,.cls-76,.cls-91,.cls-92,.cls-97,.cls-98,.cls-99{opacity:0.3;}.cls-10,.cls-100,.cls-101,.cls-102,.cls-103,.cls-104,.cls-11,.cls-12,.cls-15,.cls-17,.cls-18,.cls-22,.cls-24,.cls-26,.cls-28,.cls-29,.cls-3,.cls-31,.cls-32,.cls-33,.cls-35,.cls-36,.cls-38,.cls-39,.cls-4,.cls-40,.cls-42,.cls-43,.cls-45,.cls-46,.cls-47,.cls-49,.cls-5,.cls-50,.cls-52,.cls-53,.cls-54,.cls-56,.cls-57,.cls-59,.cls-6,.cls-60,.cls-61,.cls-63,.cls-64,.cls-66,.cls-67,.cls-68,.cls-7,.cls-70,.cls-71,.cls-73,.cls-74,.cls-75,.cls-76,.cls-8,.cls-9,.cls-91,.cls-92,.cls-93,.cls-94,.cls-95,.cls-97,.cls-98,.cls-99{mix-blend-mode:lighten;}.cls-3{fill:url(#radial-gradient);}.cls-4{fill:url(#radial-gradient-2);}.cls-5{fill:url(#radial-gradient-3);}.cls-6{fill:url(#radial-gradient-4);}.cls-7{fill:url(#radial-gradient-5);}.cls-8{fill:url(#radial-gradient-6);}.cls-9{fill:url(#radial-gradient-7);}.cls-10{fill:url(#radial-gradient-8);}.cls-11{fill:url(#radial-gradient-9);}.cls-12{fill:url(#radial-gradient-10);}.cls-13{fill:#a1a1a1;}.cls-105,.cls-107,.cls-108,.cls-109,.cls-110,.cls-112,.cls-113,.cls-114,.cls-13,.cls-23,.cls-25,.cls-77,.cls-79,.cls-81,.cls-82,.cls-84,.cls-86,.cls-87,.cls-88{opacity:0.5;}.cls-14{fill:#4f3e3e;}.cls-15,.cls-17,.cls-18,.cls-22,.cls-26,.cls-28,.cls-29,.cls-31,.cls-33,.cls-35,.cls-36,.cls-38,.cls-40,.cls-42,.cls-43,.cls-45,.cls-47,.cls-49,.cls-50,.cls-52,.cls-54,.cls-56,.cls-57,.cls-59,.cls-61,.cls-63,.cls-64,.cls-66,.cls-68,.cls-70,.cls-71,.cls-73{opacity:0.7;}.cls-15{fill:url(#Áåçûìÿííûé_ãðàäèåíò_17);}.cls-16{fill:url(#Áåçûìÿííûé_ãðàäèåíò_16);}.cls-17{fill:url(#Áåçûìÿííûé_ãðàäèåíò_18);}.cls-18{fill:url(#Áåçûìÿííûé_ãðàäèåíò_17-2);}.cls-19,.cls-20,.cls-25{fill:#e80000;}.cls-21{fill:url(#Áåçûìÿííûé_ãðàäèåíò_16-2);}.cls-22{fill:url(#Áåçûìÿííûé_ãðàäèåíò_18-2);}.cls-23,.cls-80,.cls-89,.cls-90{fill:#fff;}.cls-24{fill:url(#Áåçûìÿííûé_ãðàäèåíò_17-3);}.cls-26{fill:url(#Áåçûìÿííûé_ãðàäèåíò_17-4);}.cls-27{fill:url(#Áåçûìÿííûé_ãðàäèåíò_16-3);}.cls-28{fill:url(#Áåçûìÿííûé_ãðàäèåíò_18-3);}.cls-29{fill:url(#Áåçûìÿííûé_ãðàäèåíò_17-5);}.cls-30{fill:url(#Áåçûìÿííûé_ãðàäèåíò_16-4);}.cls-31{fill:url(#Áåçûìÿííûé_ãðàäèåíò_18-4);}.cls-32{fill:url(#Áåçûìÿííûé_ãðàäèåíò_17-6);}.cls-33{fill:url(#Áåçûìÿííûé_ãðàäèåíò_17-7);}.cls-34{fill:url(#Áåçûìÿííûé_ãðàäèåíò_16-5);}.cls-35{fill:url(#Áåçûìÿííûé_ãðàäèåíò_18-5);}.cls-36{fill:url(#Áåçûìÿííûé_ãðàäèåíò_17-8);}.cls-37{fill:url(#Áåçûìÿííûé_ãðàäèåíò_16-6);}.cls-38{fill:url(#Áåçûìÿííûé_ãðàäèåíò_18-6);}.cls-39{fill:url(#Áåçûìÿííûé_ãðàäèåíò_17-9);}.cls-40{fill:url(#Áåçûìÿííûé_ãðàäèåíò_17-10);}.cls-41{fill:url(#Áåçûìÿííûé_ãðàäèåíò_16-7);}.cls-42{fill:url(#Áåçûìÿííûé_ãðàäèåíò_18-7);}.cls-43{fill:url(#Áåçûìÿííûé_ãðàäèåíò_17-11);}.cls-44{fill:url(#Áåçûìÿííûé_ãðàäèåíò_16-8);}.cls-45{fill:url(#Áåçûìÿííûé_ãðàäèåíò_18-8);}.cls-46{fill:url(#Áåçûìÿííûé_ãðàäèåíò_17-12);}.cls-47{fill:url(#Áåçûìÿííûé_ãðàäèåíò_17-13);}.cls-48{fill:url(#Áåçûìÿííûé_ãðàäèåíò_16-9);}.cls-49{fill:url(#Áåçûìÿííûé_ãðàäèåíò_18-9);}.cls-50{fill:url(#Áåçûìÿííûé_ãðàäèåíò_17-14);}.cls-51{fill:url(#Áåçûìÿííûé_ãðàäèåíò_16-10);}.cls-52{fill:url(#Áåçûìÿííûé_ãðàäèåíò_18-10);}.cls-53{fill:url(#Áåçûìÿííûé_ãðàäèåíò_17-15);}.cls-54{fill:url(#Áåçûìÿííûé_ãðàäèåíò_17-16);}.cls-55{fill:url(#Áåçûìÿííûé_ãðàäèåíò_16-11);}.cls-56{fill:url(#Áåçûìÿííûé_ãðàäèåíò_18-11);}.cls-57{fill:url(#Áåçûìÿííûé_ãðàäèåíò_17-17);}.cls-58{fill:url(#Áåçûìÿííûé_ãðàäèåíò_16-12);}.cls-59{fill:url(#Áåçûìÿííûé_ãðàäèåíò_18-12);}.cls-60{fill:url(#Áåçûìÿííûé_ãðàäèåíò_17-18);}.cls-61{fill:url(#Áåçûìÿííûé_ãðàäèåíò_17-19);}.cls-62{fill:url(#Áåçûìÿííûé_ãðàäèåíò_16-13);}.cls-63{fill:url(#Áåçûìÿííûé_ãðàäèåíò_18-13);}.cls-64{fill:url(#Áåçûìÿííûé_ãðàäèåíò_17-20);}.cls-65{fill:url(#Áåçûìÿííûé_ãðàäèåíò_16-14);}.cls-66{fill:url(#Áåçûìÿííûé_ãðàäèåíò_18-14);}.cls-67{fill:url(#Áåçûìÿííûé_ãðàäèåíò_17-21);}.cls-68{fill:url(#Áåçûìÿííûé_ãðàäèåíò_17-22);}.cls-69{fill:url(#Áåçûìÿííûé_ãðàäèåíò_16-15);}.cls-70{fill:url(#Áåçûìÿííûé_ãðàäèåíò_18-15);}.cls-71{fill:url(#Áåçûìÿííûé_ãðàäèåíò_17-23);}.cls-72{fill:url(#Áåçûìÿííûé_ãðàäèåíò_16-16);}.cls-73{fill:url(#Áåçûìÿííûé_ãðàäèåíò_18-16);}.cls-74{fill:url(#Áåçûìÿííûé_ãðàäèåíò_17-24);}.cls-75{fill:url(#radial-gradient-11);}.cls-76{fill:url(#radial-gradient-12);}.cls-77{fill:url(#Áåçûìÿííûé_ãðàäèåíò_11);}.cls-78{fill:url(#Áåçûìÿííûé_ãðàäèåíò_16-17);}.cls-79{fill:url(#Áåçûìÿííûé_ãðàäèåíò_11-2);}.cls-81{fill:url(#Áåçûìÿííûé_ãðàäèåíò_11-3);}.cls-82{fill:url(#Áåçûìÿííûé_ãðàäèåíò_11-4);}.cls-83{fill:#fccc6b;}.cls-84{fill:url(#Áåçûìÿííûé_ãðàäèåíò_11-5);}.cls-85{fill:url(#Áåçûìÿííûé_ãðàäèåíò_16-18);}.cls-86{fill:url(#Áåçûìÿííûé_ãðàäèåíò_11-6);}.cls-87{fill:url(#Áåçûìÿííûé_ãðàäèåíò_11-7);}.cls-88{fill:url(#Áåçûìÿííûé_ãðàäèåíò_11-8);}.cls-89{opacity:0.2;}.cls-90{opacity:0.6;}.cls-91{fill:url(#radial-gradient-13);}.cls-92{fill:url(#radial-gradient-14);}.cls-93{fill:url(#radial-gradient-15);}.cls-94{fill:url(#radial-gradient-16);}.cls-95{fill:url(#radial-gradient-17);}.cls-96{fill:url(#radial-gradient-18);}.cls-97{fill:url(#radial-gradient-19);}.cls-98{fill:url(#radial-gradient-20);}.cls-99{fill:url(#radial-gradient-21);}.cls-100{fill:url(#radial-gradient-22);}.cls-101{fill:url(#radial-gradient-23);}.cls-102{fill:url(#radial-gradient-24);}.cls-103{fill:url(#radial-gradient-25);}.cls-104{fill:url(#radial-gradient-26);}.cls-105{fill:url(#Áåçûìÿííûé_ãðàäèåíò_11-9);}.cls-106{fill:url(#Áåçûìÿííûé_ãðàäèåíò_16-19);}.cls-107{fill:url(#Áåçûìÿííûé_ãðàäèåíò_11-10);}.cls-108{fill:url(#Áåçûìÿííûé_ãðàäèåíò_11-11);}.cls-109{fill:url(#Áåçûìÿííûé_ãðàäèåíò_11-12);}.cls-110{fill:url(#Áåçûìÿííûé_ãðàäèåíò_11-13);}.cls-111{fill:url(#Áåçûìÿííûé_ãðàäèåíò_16-20);}.cls-112{fill:url(#Áåçûìÿííûé_ãðàäèåíò_11-14);}.cls-113{fill:url(#Áåçûìÿííûé_ãðàäèåíò_11-15);}.cls-114{fill:url(#Áåçûìÿííûé_ãðàäèåíò_11-16);}</style><radialGradient id="radial-gradient" cx="97.81" cy="788.26" r="59.98" gradientTransform="matrix(0.87, 0.5, -0.87, 0.5, 1236.51, -351.28)" gradientUnits="userSpaceOnUse"><stop offset="0" stop-color="#e80000"/><stop offset="0.03" stop-color="#e90c0c" stop-opacity="0.95"/><stop offset="0.25" stop-color="#f16161" stop-opacity="0.62"/><stop offset="0.45" stop-color="#f7a5a5" stop-opacity="0.35"/><stop offset="0.62" stop-color="#fbd6d6" stop-opacity="0.16"/><stop offset="0.75" stop-color="#fef4f4" stop-opacity="0.04"/><stop offset="0.82" stop-color="#fff" stop-opacity="0"/></radialGradient><radialGradient id="radial-gradient-2" cx="220.78" cy="819.61" r="59.98" xlink:href="#radial-gradient"/><radialGradient id="radial-gradient-3" cx="97.67" cy="865.45" r="46.12" xlink:href="#radial-gradient"/><radialGradient id="radial-gradient-4" cx="639.23" cy="93.27" r="10.53" gradientUnits="userSpaceOnUse"><stop offset="0" stop-color="#e80000"/><stop offset="0.04" stop-color="#eb1f1f" stop-opacity="0.88"/><stop offset="0.11" stop-color="#f05353" stop-opacity="0.67"/><stop offset="0.19" stop-color="#f48282" stop-opacity="0.49"/><stop offset="0.27" stop-color="#f7a8a8" stop-opacity="0.34"/><stop offset="0.36" stop-color="#fac8c8" stop-opacity="0.22"/><stop offset="0.45" stop-color="#fce0e0" stop-opacity="0.12"/><stop offset="0.55" stop-color="#fef2f2" stop-opacity="0.05"/><stop offset="0.66" stop-color="#fffcfc" stop-opacity="0.01"/><stop offset="0.82" stop-color="#fff" stop-opacity="0"/></radialGradient><radialGradient id="radial-gradient-5" cx="571.6" cy="132.39" r="10.53" xlink:href="#radial-gradient-4"/><radialGradient id="radial-gradient-6" cx="711.3" cy="172.92" r="10.53" xlink:href="#radial-gradient-4"/><radialGradient id="radial-gradient-7" cx="730.82" cy="161.42" r="10.53" xlink:href="#radial-gradient-4"/><radialGradient id="radial-gradient-8" cx="750.33" cy="150.09" r="10.53" xlink:href="#radial-gradient-4"/><radialGradient id="radial-gradient-9" cx="104.65" cy="1114" r="162.09" xlink:href="#radial-gradient"/><radialGradient id="radial-gradient-10" cx="363.59" cy="1103.81" r="162.09" xlink:href="#radial-gradient"/><linearGradient id="Áåçûìÿííûé_ãðàäèåíò_17" x1="-895.33" y1="284.01" x2="-1056.42" y2="195.66" gradientTransform="translate(1427.86)" gradientUnits="userSpaceOnUse"><stop offset="0" stop-color="#fff"/><stop offset="0.09" stop-color="#fef6f6"/><stop offset="0.22" stop-color="#fcdfdf"/><stop offset="0.39" stop-color="#f9b9b9"/><stop offset="0.59" stop-color="#f48585"/><stop offset="0.8" stop-color="#ee4242"/><stop offset="1" stop-color="#e80000"/></linearGradient><linearGradient id="Áåçûìÿííûé_ãðàäèåíò_16" x1="-1025.12" y1="256.25" x2="-913.08" y2="256.25" gradientTransform="translate(1427.86)" gradientUnits="userSpaceOnUse"><stop offset="0" stop-color="#b3b3b3"/><stop offset="1" stop-color="#fff"/></linearGradient><linearGradient id="Áåçûìÿííûé_ãðàäèåíò_18" x1="-990.87" y1="283.18" x2="-1092.91" y2="225.18" gradientTransform="translate(1427.86)" gradientUnits="userSpaceOnUse"><stop offset="0" stop-color="#fff"/><stop offset="0.03" stop-color="#f6f6f6"/><stop offset="0.07" stop-color="#dfdfdf"/><stop offset="0.13" stop-color="#b9b9b9"/><stop offset="0.19" stop-color="#858585"/><stop offset="0.26" stop-color="#424242"/><stop offset="0.28" stop-color="#2e2e2e"/><stop offset="0.38" stop-color="#3f2a2a"/><stop offset="0.56" stop-color="#6b1f1f"/><stop offset="0.82" stop-color="#b20d0d"/><stop offset="1" stop-color="#e80000"/></linearGradient><linearGradient id="Áåçûìÿííûé_ãðàäèåíò_17-2" x1="-946.81" y1="233.71" x2="-1078.26" y2="148.34" xlink:href="#Áåçûìÿííûé_ãðàäèåíò_17"/><linearGradient id="Áåçûìÿííûé_ãðàäèåíò_16-2" x1="-1025.12" y1="228.91" x2="-913.08" y2="228.91" xlink:href="#Áåçûìÿííûé_ãðàäèåíò_16"/><linearGradient id="Áåçûìÿííûé_ãðàäèåíò_18-2" x1="-1003.92" y1="248.26" x2="-1095.75" y2="196.49" xlink:href="#Áåçûìÿííûé_ãðàäèåíò_18"/><linearGradient id="Áåçûìÿííûé_ãðàäèåíò_17-3" x1="-972.95" y1="205.67" x2="-1078.63" y2="181.81" xlink:href="#Áåçûìÿííûé_ãðàäèåíò_17"/><linearGradient id="Áåçûìÿííûé_ãðàäèåíò_17-4" x1="-895.33" y1="232.5" x2="-1056.42" y2="144.16" xlink:href="#Áåçûìÿííûé_ãðàäèåíò_17"/><linearGradient id="Áåçûìÿííûé_ãðàäèåíò_16-3" x1="-1025.12" y1="204.74" x2="-913.08" y2="204.74" xlink:href="#Áåçûìÿííûé_ãðàäèåíò_16"/><linearGradient id="Áåçûìÿííûé_ãðàäèåíò_18-3" x1="-990.87" y1="231.67" x2="-1092.91" y2="173.67" xlink:href="#Áåçûìÿííûé_ãðàäèåíò_18"/><linearGradient id="Áåçûìÿííûé_ãðàäèåíò_17-5" x1="-946.81" y1="182.2" x2="-1078.26" y2="96.83" xlink:href="#Áåçûìÿííûé_ãðàäèåíò_17"/><linearGradient id="Áåçûìÿííûé_ãðàäèåíò_16-4" x1="-1025.12" y1="177.4" x2="-913.08" y2="177.4" xlink:href="#Áåçûìÿííûé_ãðàäèåíò_16"/><linearGradient id="Áåçûìÿííûé_ãðàäèåíò_18-4" x1="-1003.92" y1="196.75" x2="-1095.75" y2="144.98" xlink:href="#Áåçûìÿííûé_ãðàäèåíò_18"/><linearGradient id="Áåçûìÿííûé_ãðàäèåíò_17-6" x1="-972.95" y1="154.16" x2="-1078.63" y2="130.3" xlink:href="#Áåçûìÿííûé_ãðàäèåíò_17"/><linearGradient id="Áåçûìÿííûé_ãðàäèåíò_17-7" x1="-895.33" y1="180.99" x2="-1056.42" y2="92.65" xlink:href="#Áåçûìÿííûé_ãðàäèåíò_17"/><linearGradient id="Áåçûìÿííûé_ãðàäèåíò_16-5" x1="-1025.12" y1="153.23" x2="-913.08" y2="153.23" xlink:href="#Áåçûìÿííûé_ãðàäèåíò_16"/><linearGradient id="Áåçûìÿííûé_ãðàäèåíò_18-5" x1="-990.87" y1="180.16" x2="-1092.91" y2="122.16" xlink:href="#Áåçûìÿííûé_ãðàäèåíò_18"/><linearGradient id="Áåçûìÿííûé_ãðàäèåíò_17-8" x1="-946.81" y1="130.7" x2="-1078.26" y2="45.32" xlink:href="#Áåçûìÿííûé_ãðàäèåíò_17"/><linearGradient id="Áåçûìÿííûé_ãðàäèåíò_16-6" x1="-1025.12" y1="125.89" x2="-913.08" y2="125.89" xlink:href="#Áåçûìÿííûé_ãðàäèåíò_16"/><linearGradient id="Áåçûìÿííûé_ãðàäèåíò_18-6" x1="-1003.92" y1="145.24" x2="-1095.75" y2="93.47" xlink:href="#Áåçûìÿííûé_ãðàäèåíò_18"/><linearGradient id="Áåçûìÿííûé_ãðàäèåíò_17-9" x1="-972.95" y1="102.65" x2="-1078.63" y2="78.79" xlink:href="#Áåçûìÿííûé_ãðàäèåíò_17"/><linearGradient id="Áåçûìÿííûé_ãðàäèåíò_17-10" x1="-895.33" y1="129.48" x2="-1056.42" y2="41.14" xlink:href="#Áåçûìÿííûé_ãðàäèåíò_17"/><linearGradient id="Áåçûìÿííûé_ãðàäèåíò_16-7" x1="-1025.12" y1="101.72" x2="-913.08" y2="101.72" xlink:href="#Áåçûìÿííûé_ãðàäèåíò_16"/><linearGradient id="Áåçûìÿííûé_ãðàäèåíò_18-7" x1="-990.87" y1="128.66" x2="-1092.91" y2="70.65" xlink:href="#Áåçûìÿííûé_ãðàäèåíò_18"/><linearGradient id="Áåçûìÿííûé_ãðàäèåíò_17-11" x1="-946.81" y1="79.19" x2="-1078.26" y2="-6.19" xlink:href="#Áåçûìÿííûé_ãðàäèåíò_17"/><linearGradient id="Áåçûìÿííûé_ãðàäèåíò_16-8" x1="-1025.12" y1="74.38" x2="-913.08" y2="74.38" xlink:href="#Áåçûìÿííûé_ãðàäèåíò_16"/><linearGradient id="Áåçûìÿííûé_ãðàäèåíò_18-8" x1="-1003.92" y1="93.73" x2="-1095.75" y2="41.96" xlink:href="#Áåçûìÿííûé_ãðàäèåíò_18"/><linearGradient id="Áåçûìÿííûé_ãðàäèåíò_17-12" x1="-972.95" y1="51.15" x2="-1078.63" y2="27.28" xlink:href="#Áåçûìÿííûé_ãðàäèåíò_17"/><linearGradient id="Áåçûìÿííûé_ãðàäèåíò_17-13" x1="-662.27" y1="401.76" x2="-823.36" y2="313.42" xlink:href="#Áåçûìÿííûé_ãðàäèåíò_17"/><linearGradient id="Áåçûìÿííûé_ãðàäèåíò_16-9" x1="-792.06" y1="374" x2="-680.03" y2="374" xlink:href="#Áåçûìÿííûé_ãðàäèåíò_16"/><linearGradient id="Áåçûìÿííûé_ãðàäèåíò_18-9" x1="-757.81" y1="400.93" x2="-859.85" y2="342.93" xlink:href="#Áåçûìÿííûé_ãðàäèåíò_18"/><linearGradient id="Áåçûìÿííûé_ãðàäèåíò_17-14" x1="-713.76" y1="351.47" x2="-845.2" y2="266.09" xlink:href="#Áåçûìÿííûé_ãðàäèåíò_17"/><linearGradient id="Áåçûìÿííûé_ãðàäèåíò_16-10" x1="-792.06" y1="346.66" x2="-680.03" y2="346.66" xlink:href="#Áåçûìÿííûé_ãðàäèåíò_16"/><linearGradient id="Áåçûìÿííûé_ãðàäèåíò_18-10" x1="-770.86" y1="366.01" x2="-862.69" y2="314.24" xlink:href="#Áåçûìÿííûé_ãðàäèåíò_18"/><linearGradient id="Áåçûìÿííûé_ãðàäèåíò_17-15" x1="-739.89" y1="323.42" x2="-845.57" y2="299.56" xlink:href="#Áåçûìÿííûé_ãðàäèåíò_17"/><linearGradient id="Áåçûìÿííûé_ãðàäèåíò_17-16" x1="-662.27" y1="350.25" x2="-823.36" y2="261.91" xlink:href="#Áåçûìÿííûé_ãðàäèåíò_17"/><linearGradient id="Áåçûìÿííûé_ãðàäèåíò_16-11" x1="-792.06" y1="322.49" x2="-680.03" y2="322.49" xlink:href="#Áåçûìÿííûé_ãðàäèåíò_16"/><linearGradient id="Áåçûìÿííûé_ãðàäèåíò_18-11" x1="-757.81" y1="349.43" x2="-859.85" y2="291.42" xlink:href="#Áåçûìÿííûé_ãðàäèåíò_18"/><linearGradient id="Áåçûìÿííûé_ãðàäèåíò_17-17" x1="-713.76" y1="299.96" x2="-845.2" y2="214.58" xlink:href="#Áåçûìÿííûé_ãðàäèåíò_17"/><linearGradient id="Áåçûìÿííûé_ãðàäèåíò_16-12" x1="-792.06" y1="295.15" x2="-680.03" y2="295.15" xlink:href="#Áåçûìÿííûé_ãðàäèåíò_16"/><linearGradient id="Áåçûìÿííûé_ãðàäèåíò_18-12" x1="-770.86" y1="314.5" x2="-862.69" y2="262.73" xlink:href="#Áåçûìÿííûé_ãðàäèåíò_18"/><linearGradient id="Áåçûìÿííûé_ãðàäèåíò_17-18" x1="-739.89" y1="271.92" x2="-845.57" y2="248.05" xlink:href="#Áåçûìÿííûé_ãðàäèåíò_17"/><linearGradient id="Áåçûìÿííûé_ãðàäèåíò_17-19" x1="-662.27" y1="298.74" x2="-823.36" y2="210.4" xlink:href="#Áåçûìÿííûé_ãðàäèåíò_17"/><linearGradient id="Áåçûìÿííûé_ãðàäèåíò_16-13" x1="-792.06" y1="270.98" x2="-680.03" y2="270.98" xlink:href="#Áåçûìÿííûé_ãðàäèåíò_16"/><linearGradient id="Áåçûìÿííûé_ãðàäèåíò_18-13" x1="-757.81" y1="297.92" x2="-859.85" y2="239.91" xlink:href="#Áåçûìÿííûé_ãðàäèåíò_18"/><linearGradient id="Áåçûìÿííûé_ãðàäèåíò_17-20" x1="-713.76" y1="248.45" x2="-845.2" y2="163.07" xlink:href="#Áåçûìÿííûé_ãðàäèåíò_17"/><linearGradient id="Áåçûìÿííûé_ãðàäèåíò_16-14" x1="-792.06" y1="243.64" x2="-680.03" y2="243.64" xlink:href="#Áåçûìÿííûé_ãðàäèåíò_16"/><linearGradient id="Áåçûìÿííûé_ãðàäèåíò_18-14" x1="-770.86" y1="262.99" x2="-862.69" y2="211.22" xlink:href="#Áåçûìÿííûé_ãðàäèåíò_18"/><linearGradient id="Áåçûìÿííûé_ãðàäèåíò_17-21" x1="-739.89" y1="220.41" x2="-845.57" y2="196.54" xlink:href="#Áåçûìÿííûé_ãðàäèåíò_17"/><linearGradient id="Áåçûìÿííûé_ãðàäèåíò_17-22" x1="-662.27" y1="247.23" x2="-823.36" y2="158.89" xlink:href="#Áåçûìÿííûé_ãðàäèåíò_17"/><linearGradient id="Áåçûìÿííûé_ãðàäèåíò_16-15" x1="-792.06" y1="219.47" x2="-680.03" y2="219.47" xlink:href="#Áåçûìÿííûé_ãðàäèåíò_16"/><linearGradient id="Áåçûìÿííûé_ãðàäèåíò_18-15" x1="-757.81" y1="246.41" x2="-859.85" y2="188.4" xlink:href="#Áåçûìÿííûé_ãðàäèåíò_18"/><linearGradient id="Áåçûìÿííûé_ãðàäèåíò_17-23" x1="-713.76" y1="196.94" x2="-845.2" y2="111.56" xlink:href="#Áåçûìÿííûé_ãðàäèåíò_17"/><linearGradient id="Áåçûìÿííûé_ãðàäèåíò_16-16" x1="-792.06" y1="192.13" x2="-680.03" y2="192.13" xlink:href="#Áåçûìÿííûé_ãðàäèåíò_16"/><linearGradient id="Áåçûìÿííûé_ãðàäèåíò_18-16" x1="-770.86" y1="211.48" x2="-862.69" y2="159.71" xlink:href="#Áåçûìÿííûé_ãðàäèåíò_18"/><linearGradient id="Áåçûìÿííûé_ãðàäèåíò_17-24" x1="-739.89" y1="168.9" x2="-845.57" y2="145.03" xlink:href="#Áåçûìÿííûé_ãðàäèåíò_17"/><radialGradient id="radial-gradient-11" cx="233.23" cy="1291.55" r="162.09" xlink:href="#radial-gradient"/><radialGradient id="radial-gradient-12" cx="-38.57" cy="1160.03" r="162.09" xlink:href="#radial-gradient"/><linearGradient id="Áåçûìÿííûé_ãðàäèåíò_11" x1="147.64" y1="177.3" x2="301.82" y2="177.3" gradientUnits="userSpaceOnUse"><stop offset="0" stop-color="#e80000"/><stop offset="0.2" stop-color="#ee4242"/><stop offset="0.41" stop-color="#f48585"/><stop offset="0.61" stop-color="#f9b9b9"/><stop offset="0.78" stop-color="#fcdfdf"/><stop offset="0.91" stop-color="#fef6f6"/><stop offset="1" stop-color="#fff"/></linearGradient><linearGradient id="Áåçûìÿííûé_ãðàäèåíò_16-17" x1="258.81" y1="177.29" x2="335.9" y2="177.29" gradientTransform="matrix(1, 0, 0, 1, 0, 0)" xlink:href="#Áåçûìÿííûé_ãðàäèåíò_16"/><linearGradient id="Áåçûìÿííûé_ãðàäèåíò_11-2" x1="181.72" y1="160.26" x2="335.91" y2="160.26" xlink:href="#Áåçûìÿííûé_ãðàäèåíò_11"/><linearGradient id="Áåçûìÿííûé_ãðàäèåíò_11-3" x1="181.72" y1="160.27" x2="260.42" y2="160.27" xlink:href="#Áåçûìÿííûé_ãðàäèåíò_11"/><linearGradient id="Áåçûìÿííûé_ãðàäèåíò_11-4" x1="202.69" y1="205.13" x2="331.75" y2="120.77" xlink:href="#Áåçûìÿííûé_ãðàäèåíò_11"/><linearGradient id="Áåçûìÿííûé_ãðàäèåíò_11-5" x1="147.64" y1="130.69" x2="301.82" y2="130.69" xlink:href="#Áåçûìÿííûé_ãðàäèåíò_11"/><linearGradient id="Áåçûìÿííûé_ãðàäèåíò_16-18" x1="258.81" y1="130.69" x2="335.9" y2="130.69" gradientTransform="matrix(1, 0, 0, 1, 0, 0)" xlink:href="#Áåçûìÿííûé_ãðàäèåíò_16"/><linearGradient id="Áåçûìÿííûé_ãðàäèåíò_11-6" x1="181.72" y1="113.66" x2="335.91" y2="113.66" xlink:href="#Áåçûìÿííûé_ãðàäèåíò_11"/><linearGradient id="Áåçûìÿííûé_ãðàäèåíò_11-7" x1="181.72" y1="113.66" x2="260.42" y2="113.66" xlink:href="#Áåçûìÿííûé_ãðàäèåíò_11"/><linearGradient id="Áåçûìÿííûé_ãðàäèåíò_11-8" x1="202.69" y1="158.53" x2="331.75" y2="74.17" xlink:href="#Áåçûìÿííûé_ãðàäèåíò_11"/><radialGradient id="radial-gradient-13" cx="-180" cy="973.95" r="59.98" xlink:href="#radial-gradient"/><radialGradient id="radial-gradient-14" cx="-180.14" cy="1051.14" r="46.12" xlink:href="#radial-gradient"/><radialGradient id="radial-gradient-15" cx="237.84" cy="47.22" r="10.53" xlink:href="#radial-gradient-4"/><radialGradient id="radial-gradient-16" cx="170.22" cy="86.34" r="10.53" xlink:href="#radial-gradient-4"/><radialGradient id="radial-gradient-17" cx="309.91" cy="126.86" r="10.53" xlink:href="#radial-gradient-4"/><radialGradient id="radial-gradient-18" cx="309.91" cy="126.86" r="3" xlink:href="#radial-gradient-4"/><radialGradient id="radial-gradient-19" cx="198.37" cy="797.19" r="59.98" xlink:href="#radial-gradient"/><radialGradient id="radial-gradient-20" cx="75.4" cy="765.85" r="59.98" xlink:href="#radial-gradient"/><radialGradient id="radial-gradient-21" cx="75.26" cy="843.04" r="46.12" xlink:href="#radial-gradient"/><radialGradient id="radial-gradient-22" cx="639.23" cy="70.86" r="10.53" xlink:href="#radial-gradient-4"/><radialGradient id="radial-gradient-23" cx="571.6" cy="109.98" r="10.53" xlink:href="#radial-gradient-4"/><radialGradient id="radial-gradient-24" cx="711.3" cy="150.51" r="10.53" xlink:href="#radial-gradient-4"/><radialGradient id="radial-gradient-25" cx="730.82" cy="139.01" r="10.53" xlink:href="#radial-gradient-4"/><radialGradient id="radial-gradient-26" cx="750.33" cy="127.68" r="10.53" xlink:href="#radial-gradient-4"/><linearGradient id="Áåçûìÿííûé_ãðàäèåíò_11-9" x1="269.12" y1="378.96" x2="423.3" y2="378.96" xlink:href="#Áåçûìÿííûé_ãðàäèåíò_11"/><linearGradient id="Áåçûìÿííûé_ãðàäèåíò_16-19" x1="380.29" y1="378.96" x2="457.39" y2="378.96" gradientTransform="matrix(1, 0, 0, 1, 0, 0)" xlink:href="#Áåçûìÿííûé_ãðàäèåíò_16"/><linearGradient id="Áåçûìÿííûé_ãðàäèåíò_11-10" x1="303.2" y1="361.93" x2="457.4" y2="361.93" xlink:href="#Áåçûìÿííûé_ãðàäèåíò_11"/><linearGradient id="Áåçûìÿííûé_ãðàäèåíò_11-11" x1="303.2" y1="361.93" x2="381.9" y2="361.93" xlink:href="#Áåçûìÿííûé_ãðàäèåíò_11"/><linearGradient id="Áåçûìÿííûé_ãðàäèåíò_11-12" x1="324.17" y1="406.79" x2="453.23" y2="322.44" xlink:href="#Áåçûìÿííûé_ãðàäèåíò_11"/><linearGradient id="Áåçûìÿííûé_ãðàäèåíò_11-13" x1="269.12" y1="332.36" x2="423.3" y2="332.36" xlink:href="#Áåçûìÿííûé_ãðàäèåíò_11"/><linearGradient id="Áåçûìÿííûé_ãðàäèåíò_16-20" x1="380.29" y1="332.35" x2="457.39" y2="332.35" gradientTransform="matrix(1, 0, 0, 1, 0, 0)" xlink:href="#Áåçûìÿííûé_ãðàäèåíò_16"/><linearGradient id="Áåçûìÿííûé_ãðàäèåíò_11-14" x1="303.2" y1="315.32" x2="457.4" y2="315.32" xlink:href="#Áåçûìÿííûé_ãðàäèåíò_11"/><linearGradient id="Áåçûìÿííûé_ãðàäèåíò_11-15" x1="303.2" y1="315.33" x2="381.9" y2="315.33" xlink:href="#Áåçûìÿííûé_ãðàäèåíò_11"/><linearGradient id="Áåçûìÿííûé_ãðàäèåíò_11-16" x1="324.17" y1="360.19" x2="453.23" y2="275.83" xlink:href="#Áåçûìÿííûé_ãðàäèåíò_11"/></defs><title>platforms</title><g class="cls-1"><g id="Layer_2" data-name="Layer 2"><g id="Layer_1-2" data-name="Layer 1"><path class="cls-2" d="M660.71,199.13a15.66,15.66,0,0,1-7.67-1.76l-88.85-51.3c-2-1.17-3.14-2.8-3.14-4.58,0-2.14,1.6-4.29,4.38-5.9L651.8,85.73c5.19-3,13.09-3.32,17.6-.72l88.86,51.3c2,1.17,3.13,2.8,3.13,4.58,0,2.14-1.59,4.29-4.38,5.9l-86.36,49.86A20.44,20.44,0,0,1,660.71,199.13Zm-7.4-2.23c4.37,2.52,12,2.2,17.07-.72l86.36-49.86c2.61-1.51,4.11-3.49,4.11-5.43,0-1.58-1-3-2.86-4.11l-88.86-51.3c-4.36-2.52-12-2.2-17.06.72L565.7,136.06c-2.61,1.51-4.11,3.49-4.11,5.43,0,1.58,1,3,2.87,4.11Z"/><ellipse class="cls-3" cx="638.57" cy="91.75" rx="73.46" ry="42.41"/><ellipse class="cls-4" cx="717.93" cy="168.91" rx="73.46" ry="42.41"/><ellipse class="cls-5" cx="571.6" cy="130.28" rx="56.49" ry="32.61"/><path class="cls-6" d="M649.76,93.28a10.53,10.53,0,1,1-10.53-10.53A10.53,10.53,0,0,1,649.76,93.28Z"/><path class="cls-2" d="M642.23,93.28a3,3,0,1,1-3-3A3,3,0,0,1,642.23,93.28Z"/><circle class="cls-7" cx="571.6" cy="132.39" r="10.53"/><path class="cls-2" d="M574.61,132.39a3,3,0,1,1-3-3A3,3,0,0,1,574.61,132.39Z"/><circle class="cls-8" cx="711.3" cy="172.92" r="10.53"/><path class="cls-2" d="M714.3,172.92a3,3,0,1,1-3-3A3,3,0,0,1,714.3,172.92Z"/><circle class="cls-9" cx="730.82" cy="161.42" r="10.53"/><path class="cls-2" d="M733.82,161.42a3,3,0,1,1-3-3A3,3,0,0,1,733.82,161.42Z"/><path class="cls-10" d="M760.86,150.09a10.53,10.53,0,1,1-10.53-10.53A10.52,10.52,0,0,1,760.86,150.09Z"/><path class="cls-2" d="M753.34,150.09a3,3,0,1,1-3-3A3,3,0,0,1,753.34,150.09Z"/><ellipse class="cls-11" cx="362.41" cy="258.04" rx="198.52" ry="114.62"/><ellipse class="cls-12" cx="595.48" cy="382.42" rx="198.52" ry="114.62"/><polygon class="cls-13" points="428.79 303.58 351.05 258.69 428.79 213.81 506.53 258.7 428.79 303.58"/><polygon class="cls-14" points="428.79 285.38 350.42 240.13 428.79 194.88 507.16 240.13 428.79 285.38"/><polygon class="cls-14" points="428.79 272.36 350.42 227.12 428.79 181.87 507.16 227.12 428.79 272.36"/><polygon class="cls-15" points="428.79 262.05 368.28 227.12 428.79 192.18 489.3 227.12 428.79 262.05"/><polygon class="cls-16" points="507.16 227.12 507.16 240.13 428.79 285.38 428.79 272.36 507.16 227.12"/><polygon class="cls-14" points="350.42 227.12 350.42 240.13 428.79 285.38 428.79 272.36 350.42 227.12"/><polygon class="cls-17" points="350.42 227.12 350.42 240.13 428.79 285.38 428.79 272.36 350.42 227.12"/><polygon class="cls-14" points="428.79 258.04 350.42 212.79 428.79 167.54 507.16 212.79 428.79 258.04"/><polygon class="cls-14" points="428.79 245.02 350.42 199.77 428.79 154.53 507.16 199.78 428.79 245.02"/><polygon class="cls-18" points="428.79 245.02 350.42 199.77 428.79 154.53 507.16 199.78 428.79 245.02"/><polygon class="cls-19" points="428.79 216.53 399.77 199.77 428.79 183.02 457.8 199.78 428.79 216.53"/><polygon class="cls-19" points="428.79 194.39 447.96 205.46 457.8 199.78 428.79 183.02 399.77 199.77 409.62 205.46 428.79 194.39"/><polygon class="cls-20" points="428.79 194.39 447.96 205.46 457.8 199.78 428.79 183.02 399.77 199.77 409.62 205.46 428.79 194.39"/><polygon class="cls-21" points="507.16 199.78 507.16 212.79 428.79 258.04 428.79 245.02 507.16 199.78"/><polygon class="cls-14" points="350.42 199.77 350.42 212.79 428.79 258.04 428.79 245.02 350.42 199.77"/><polygon class="cls-22" points="350.42 199.77 350.42 212.79 428.79 258.04 428.79 245.02 350.42 199.77"/><polygon class="cls-19" points="428.79 258.04 428.79 272.36 350.42 227.12 350.42 212.79 428.79 258.04"/><polygon class="cls-19" points="368.28 223.1 368.28 227.12 428.79 262.05 489.3 227.12 489.3 223.1 428.79 258.04 368.28 223.1"/><polygon class="cls-19" points="428.79 258.04 428.79 262.05 368.28 227.12 368.28 223.1 428.79 258.04"/><polygon class="cls-23" points="350.42 212.79 350.42 227.12 428.79 272.36 507.16 227.12 507.16 212.79 428.79 258.04 350.42 212.79"/><polygon class="cls-24" points="352.27 199.77 429.71 155.06 428.79 154.53 350.42 199.77 428.79 245.02 429.71 244.49 352.27 199.77"/><polygon class="cls-25" points="350.42 212.79 350.42 227.12 351.5 227.74 351.5 213.41 350.42 212.79"/><polygon class="cls-25" points="507.16 212.79 507.16 227.12 506.08 227.74 506.08 213.41 507.16 212.79"/><polygon class="cls-25" points="428.79 258.04 428.79 258.04 426.94 256.97 426.94 271.31 428.79 272.36 428.79 272.36 428.79 272.36 428.79 272.36 428.79 272.36 430.64 271.31 430.64 256.97 428.79 258.04"/><polygon class="cls-14" points="428.79 233.87 350.42 188.62 428.79 143.38 507.16 188.62 428.79 233.87"/><polygon class="cls-14" points="428.79 220.85 350.42 175.61 428.79 130.36 507.16 175.61 428.79 220.85"/><polygon class="cls-26" points="428.79 210.54 368.28 175.61 428.79 140.67 489.3 175.61 428.79 210.54"/><polygon class="cls-27" points="507.16 175.61 507.16 188.62 428.79 233.87 428.79 220.85 507.16 175.61"/><polygon class="cls-14" points="350.42 175.61 350.42 188.62 428.79 233.87 428.79 220.85 350.42 175.61"/><polygon class="cls-28" points="350.42 175.61 350.42 188.62 428.79 233.87 428.79 220.85 350.42 175.61"/><polygon class="cls-14" points="428.79 206.53 350.42 161.28 428.79 116.03 507.16 161.28 428.79 206.53"/><polygon class="cls-14" points="428.79 193.51 350.42 148.26 428.79 103.02 507.16 148.27 428.79 193.51"/><polygon class="cls-29" points="428.79 193.51 350.42 148.26 428.79 103.02 507.16 148.27 428.79 193.51"/><polygon class="cls-19" points="428.79 165.02 399.77 148.26 428.79 131.51 457.8 148.26 428.79 165.02"/><polygon class="cls-19" points="428.79 142.88 447.96 153.95 457.8 148.26 428.79 131.51 399.77 148.26 409.62 153.95 428.79 142.88"/><polygon class="cls-20" points="428.79 142.88 447.96 153.95 457.8 148.26 428.79 131.51 399.77 148.26 409.62 153.95 428.79 142.88"/><polygon class="cls-30" points="507.16 148.27 507.16 161.28 428.79 206.53 428.79 193.51 507.16 148.27"/><polygon class="cls-14" points="350.42 148.26 350.42 161.28 428.79 206.53 428.79 193.51 350.42 148.26"/><polygon class="cls-31" points="350.42 148.26 350.42 161.28 428.79 206.53 428.79 193.51 350.42 148.26"/><polygon class="cls-19" points="428.79 206.53 428.79 220.85 350.42 175.61 350.42 161.28 428.79 206.53"/><polygon class="cls-19" points="368.28 171.59 368.28 175.61 428.79 210.54 489.3 175.61 489.3 171.59 428.79 206.53 368.28 171.59"/><polygon class="cls-19" points="428.79 206.53 428.79 210.54 368.28 175.61 368.28 171.59 428.79 206.53"/><polygon class="cls-23" points="350.42 161.28 350.42 175.61 428.79 220.85 507.16 175.61 507.16 161.28 428.79 206.53 350.42 161.28"/><polygon class="cls-32" points="352.27 148.26 429.71 103.55 428.79 103.02 350.42 148.26 428.79 193.51 429.71 192.98 352.27 148.26"/><polygon class="cls-25" points="350.42 161.28 350.42 175.61 351.5 176.23 351.5 161.9 350.42 161.28"/><polygon class="cls-25" points="507.16 161.28 507.16 175.61 506.08 176.23 506.08 161.9 507.16 161.28"/><polygon class="cls-25" points="428.79 206.53 428.79 206.53 426.94 205.46 426.94 219.8 428.79 220.85 428.79 220.85 428.79 220.85 428.79 220.85 428.79 220.85 430.64 219.8 430.64 205.46 428.79 206.53"/><polygon class="cls-14" points="428.79 182.36 350.42 137.11 428.79 91.87 507.16 137.11 428.79 182.36"/><polygon class="cls-14" points="428.79 169.34 350.42 124.1 428.79 78.85 507.16 124.1 428.79 169.34"/><polygon class="cls-33" points="428.79 159.03 368.28 124.1 428.79 89.16 489.3 124.1 428.79 159.03"/><polygon class="cls-34" points="507.16 124.1 507.16 137.11 428.79 182.36 428.79 169.34 507.16 124.1"/><polygon class="cls-14" points="350.42 124.1 350.42 137.11 428.79 182.36 428.79 169.34 350.42 124.1"/><polygon class="cls-35" points="350.42 124.1 350.42 137.11 428.79 182.36 428.79 169.34 350.42 124.1"/><polygon class="cls-14" points="428.79 155.02 350.42 109.77 428.79 64.53 507.16 109.77 428.79 155.02"/><polygon class="cls-14" points="428.79 142 350.42 96.75 428.79 51.51 507.16 96.76 428.79 142"/><polygon class="cls-36" points="428.79 142 350.42 96.75 428.79 51.51 507.16 96.76 428.79 142"/><polygon class="cls-19" points="428.79 113.51 399.77 96.76 428.79 80 457.8 96.76 428.79 113.51"/><polygon class="cls-19" points="428.79 91.37 447.96 102.44 457.8 96.76 428.79 80 399.77 96.76 409.62 102.44 428.79 91.37"/><polygon class="cls-20" points="428.79 91.37 447.96 102.44 457.8 96.76 428.79 80 399.77 96.76 409.62 102.44 428.79 91.37"/><polygon class="cls-37" points="507.16 96.76 507.16 109.77 428.79 155.02 428.79 142 507.16 96.76"/><polygon class="cls-14" points="350.42 96.75 350.42 109.77 428.79 155.02 428.79 142 350.42 96.75"/><polygon class="cls-38" points="350.42 96.75 350.42 109.77 428.79 155.02 428.79 142 350.42 96.75"/><polygon class="cls-19" points="428.79 155.02 428.79 169.34 350.42 124.1 350.42 109.77 428.79 155.02"/><polygon class="cls-19" points="368.28 120.08 368.28 124.1 428.79 159.03 489.3 124.1 489.3 120.08 428.79 155.02 368.28 120.08"/><polygon class="cls-19" points="428.79 155.02 428.79 159.03 368.28 124.1 368.28 120.08 428.79 155.02"/><polygon class="cls-23" points="350.42 109.77 350.42 124.1 428.79 169.34 507.16 124.1 507.16 109.77 428.79 155.02 350.42 109.77"/><polygon class="cls-39" points="352.27 96.75 429.71 52.04 428.79 51.51 350.42 96.75 428.79 142 429.71 141.47 352.27 96.75"/><polygon class="cls-25" points="350.42 109.77 350.42 124.1 351.5 124.72 351.5 110.39 350.42 109.77"/><polygon class="cls-25" points="507.16 109.77 507.16 124.1 506.08 124.72 506.08 110.39 507.16 109.77"/><polygon class="cls-25" points="428.79 155.02 428.79 155.02 426.94 153.95 426.94 168.29 428.79 169.34 428.79 169.34 428.79 169.34 428.79 169.34 428.79 169.34 430.64 168.29 430.64 153.95 428.79 155.02"/><polygon class="cls-14" points="428.79 130.85 350.42 85.6 428.79 40.36 507.16 85.61 428.79 130.85"/><polygon class="cls-14" points="428.79 117.83 350.42 72.59 428.79 27.34 507.16 72.59 428.79 117.83"/><polygon class="cls-40" points="428.79 107.52 368.28 72.59 428.79 37.65 489.3 72.59 428.79 107.52"/><polygon class="cls-41" points="507.16 72.59 507.16 85.61 428.79 130.85 428.79 117.83 507.16 72.59"/><polygon class="cls-14" points="350.42 72.59 350.42 85.6 428.79 130.85 428.79 117.83 350.42 72.59"/><polygon class="cls-42" points="350.42 72.59 350.42 85.6 428.79 130.85 428.79 117.83 350.42 72.59"/><polygon class="cls-14" points="428.79 103.51 350.42 58.26 428.79 13.02 507.16 58.26 428.79 103.51"/><polygon class="cls-14" points="428.79 90.49 350.42 45.25 428.79 0 507.16 45.25 428.79 90.49"/><polygon class="cls-43" points="428.79 90.49 350.42 45.25 428.79 0 507.16 45.25 428.79 90.49"/><polygon class="cls-44" points="507.16 45.25 507.16 58.26 428.79 103.51 428.79 90.49 507.16 45.25"/><polygon class="cls-14" points="350.42 45.25 350.42 58.26 428.79 103.51 428.79 90.49 350.42 45.25"/><polygon class="cls-45" points="350.42 45.25 350.42 58.26 428.79 103.51 428.79 90.49 350.42 45.25"/><polygon class="cls-19" points="428.79 103.51 428.79 117.83 350.42 72.59 350.42 58.26 428.79 103.51"/><polygon class="cls-19" points="368.28 68.58 368.28 72.59 428.79 107.52 489.3 72.59 489.3 68.58 428.79 103.51 368.28 68.58"/><polygon class="cls-19" points="428.79 103.51 428.79 107.52 368.28 72.59 368.28 68.58 428.79 103.51"/><polygon class="cls-23" points="350.42 58.26 350.42 72.59 428.79 117.83 507.16 72.59 507.16 58.26 428.79 103.51 350.42 58.26"/><polygon class="cls-46" points="352.27 45.25 429.71 0.53 428.79 0 350.42 45.25 428.79 90.49 429.71 89.96 352.27 45.25"/><polygon class="cls-25" points="350.42 58.26 350.42 72.59 351.5 73.21 351.5 58.88 350.42 58.26"/><polygon class="cls-25" points="507.16 58.26 507.16 72.59 506.08 73.21 506.08 58.88 507.16 58.26"/><polygon class="cls-25" points="428.79 103.51 428.79 103.51 426.94 102.44 426.94 116.78 428.79 117.83 428.79 117.83 428.79 117.83 428.79 117.83 428.79 117.83 430.64 116.78 430.64 102.44 428.79 103.51"/><polygon class="cls-13" points="661.85 421.33 584.11 376.45 661.85 331.56 739.59 376.45 661.85 421.33"/><polygon class="cls-14" points="661.85 403.13 583.48 357.88 661.85 312.64 740.22 357.88 661.85 403.13"/><polygon class="cls-14" points="661.85 390.12 583.48 344.87 661.85 299.62 740.22 344.87 661.85 390.12"/><polygon class="cls-47" points="661.85 379.8 601.34 344.87 661.85 309.93 722.35 344.87 661.85 379.8"/><polygon class="cls-48" points="740.22 344.87 740.22 357.88 661.85 403.13 661.85 390.12 740.22 344.87"/><polygon class="cls-14" points="583.48 344.87 583.48 357.88 661.85 403.13 661.85 390.12 583.48 344.87"/><polygon class="cls-49" points="583.48 344.87 583.48 357.88 661.85 403.13 661.85 390.12 583.48 344.87"/><polygon class="cls-14" points="661.85 375.79 583.48 330.54 661.85 285.3 740.22 330.54 661.85 375.79"/><polygon class="cls-14" points="661.85 362.77 583.48 317.52 661.85 272.28 740.22 317.53 661.85 362.77"/><polygon class="cls-50" points="661.85 362.77 583.48 317.52 661.85 272.28 740.22 317.53 661.85 362.77"/><polygon class="cls-19" points="661.85 334.28 632.83 317.53 661.85 300.77 690.86 317.53 661.85 334.28"/><polygon class="cls-19" points="661.85 312.14 681.01 323.21 690.86 317.53 661.85 300.77 632.83 317.53 642.68 323.21 661.85 312.14"/><polygon class="cls-20" points="661.85 312.14 681.01 323.21 690.86 317.53 661.85 300.77 632.83 317.53 642.68 323.21 661.85 312.14"/><polygon class="cls-51" points="740.22 317.53 740.22 330.54 661.85 375.79 661.85 362.77 740.22 317.53"/><polygon class="cls-14" points="583.48 317.52 583.48 330.54 661.85 375.79 661.85 362.77 583.48 317.52"/><polygon class="cls-52" points="583.48 317.52 583.48 330.54 661.85 375.79 661.85 362.77 583.48 317.52"/><polygon class="cls-19" points="661.85 375.79 661.85 390.12 583.48 344.87 583.48 330.54 661.85 375.79"/><polygon class="cls-19" points="601.34 340.85 601.34 344.87 661.85 379.8 722.35 344.87 722.35 340.86 661.85 375.79 601.34 340.85"/><polygon class="cls-19" points="661.85 375.79 661.85 379.8 601.34 344.87 601.34 340.85 661.85 375.79"/><polygon class="cls-23" points="583.48 330.54 583.48 344.87 661.85 390.12 740.22 344.87 740.22 330.54 661.85 375.79 583.48 330.54"/><polygon class="cls-53" points="585.33 317.52 662.77 272.81 661.85 272.28 583.48 317.52 661.85 362.77 662.77 362.24 585.33 317.52"/><polygon class="cls-25" points="583.48 330.54 583.48 344.87 584.55 345.49 584.55 331.16 583.48 330.54"/><polygon class="cls-25" points="740.22 330.54 740.22 344.87 739.14 345.49 739.14 331.16 740.22 330.54"/><polygon class="cls-25" points="661.85 375.79 661.85 375.79 660 374.72 660 389.06 661.85 390.11 661.85 390.12 661.85 390.11 661.85 390.12 661.85 390.11 663.7 389.06 663.7 374.72 661.85 375.79"/><polygon class="cls-14" points="661.85 351.62 583.48 306.37 661.85 261.13 740.22 306.38 661.85 351.62"/><polygon class="cls-14" points="661.85 338.61 583.48 293.36 661.85 248.11 740.22 293.36 661.85 338.61"/><polygon class="cls-54" points="661.85 328.29 601.34 293.36 661.85 258.42 722.35 293.36 661.85 328.29"/><polygon class="cls-55" points="740.22 293.36 740.22 306.38 661.85 351.62 661.85 338.61 740.22 293.36"/><polygon class="cls-14" points="583.48 293.36 583.48 306.37 661.85 351.62 661.85 338.61 583.48 293.36"/><polygon class="cls-56" points="583.48 293.36 583.48 306.37 661.85 351.62 661.85 338.61 583.48 293.36"/><polygon class="cls-14" points="661.85 324.28 583.48 279.03 661.85 233.79 740.22 279.03 661.85 324.28"/><polygon class="cls-14" points="661.85 311.26 583.48 266.02 661.85 220.77 740.22 266.02 661.85 311.26"/><polygon class="cls-57" points="661.85 311.26 583.48 266.02 661.85 220.77 740.22 266.02 661.85 311.26"/><polygon class="cls-19" points="661.85 282.77 632.83 266.02 661.85 249.26 690.86 266.02 661.85 282.77"/><polygon class="cls-19" points="661.85 260.63 681.01 271.7 690.86 266.02 661.85 249.26 632.83 266.02 642.68 271.7 661.85 260.63"/><polygon class="cls-20" points="661.85 260.63 681.01 271.7 690.86 266.02 661.85 249.26 632.83 266.02 642.68 271.7 661.85 260.63"/><polygon class="cls-58" points="740.22 266.02 740.22 279.03 661.85 324.28 661.85 311.26 740.22 266.02"/><polygon class="cls-14" points="583.48 266.02 583.48 279.03 661.85 324.28 661.85 311.26 583.48 266.02"/><polygon class="cls-59" points="583.48 266.02 583.48 279.03 661.85 324.28 661.85 311.26 583.48 266.02"/><polygon class="cls-19" points="661.85 324.28 661.85 338.61 583.48 293.36 583.48 279.03 661.85 324.28"/><polygon class="cls-19" points="601.34 289.35 601.34 293.36 661.85 328.29 722.35 293.36 722.35 289.35 661.85 324.28 601.34 289.35"/><polygon class="cls-19" points="661.85 324.28 661.85 328.29 601.34 293.36 601.34 289.35 661.85 324.28"/><polygon class="cls-23" points="583.48 279.03 583.48 293.36 661.85 338.61 740.22 293.36 740.22 279.03 661.85 324.28 583.48 279.03"/><polygon class="cls-60" points="585.33 266.02 662.77 221.3 661.85 220.77 583.48 266.02 661.85 311.26 662.77 310.73 585.33 266.02"/><polygon class="cls-25" points="583.48 279.03 583.48 293.36 584.55 293.98 584.55 279.65 583.48 279.03"/><polygon class="cls-25" points="740.22 279.03 740.22 293.36 739.14 293.98 739.14 279.65 740.22 279.03"/><polygon class="cls-25" points="661.85 324.28 661.85 324.28 660 323.21 660 337.55 661.85 338.61 661.85 338.61 661.85 338.61 661.85 338.61 661.85 338.61 663.7 337.55 663.7 323.21 661.85 324.28"/><polygon class="cls-14" points="661.85 300.11 583.48 254.87 661.85 209.62 740.22 254.87 661.85 300.11"/><polygon class="cls-14" points="661.85 287.1 583.48 241.85 661.85 196.6 740.22 241.85 661.85 287.1"/><polygon class="cls-61" points="661.85 276.78 601.34 241.85 661.85 206.91 722.35 241.85 661.85 276.78"/><polygon class="cls-62" points="740.22 241.85 740.22 254.87 661.85 300.11 661.85 287.1 740.22 241.85"/><polygon class="cls-14" points="583.48 241.85 583.48 254.87 661.85 300.11 661.85 287.1 583.48 241.85"/><polygon class="cls-63" points="583.48 241.85 583.48 254.87 661.85 300.11 661.85 287.1 583.48 241.85"/><polygon class="cls-14" points="661.85 272.77 583.48 227.52 661.85 182.28 740.22 227.52 661.85 272.77"/><polygon class="cls-14" points="661.85 259.75 583.48 214.51 661.85 169.26 740.22 214.51 661.85 259.75"/><polygon class="cls-64" points="661.85 259.75 583.48 214.51 661.85 169.26 740.22 214.51 661.85 259.75"/><polygon class="cls-19" points="661.85 231.26 632.83 214.51 661.85 197.75 690.86 214.51 661.85 231.26"/><polygon class="cls-19" points="661.85 209.13 681.01 220.19 690.86 214.51 661.85 197.75 632.83 214.51 642.68 220.19 661.85 209.13"/><polygon class="cls-20" points="661.85 209.13 681.01 220.19 690.86 214.51 661.85 197.75 632.83 214.51 642.68 220.19 661.85 209.13"/><polygon class="cls-65" points="740.22 214.51 740.22 227.52 661.85 272.77 661.85 259.75 740.22 214.51"/><polygon class="cls-14" points="583.48 214.51 583.48 227.52 661.85 272.77 661.85 259.75 583.48 214.51"/><polygon class="cls-66" points="583.48 214.51 583.48 227.52 661.85 272.77 661.85 259.75 583.48 214.51"/><polygon class="cls-19" points="661.85 272.77 661.85 287.1 583.48 241.85 583.48 227.52 661.85 272.77"/><polygon class="cls-19" points="601.34 237.84 601.34 241.85 661.85 276.78 722.35 241.85 722.35 237.84 661.85 272.77 601.34 237.84"/><polygon class="cls-19" points="661.85 272.77 661.85 276.78 601.34 241.85 601.34 237.84 661.85 272.77"/><polygon class="cls-23" points="583.48 227.52 583.48 241.85 661.85 287.1 740.22 241.85 740.22 227.52 661.85 272.77 583.48 227.52"/><polygon class="cls-67" points="585.33 214.51 662.77 169.79 661.85 169.26 583.48 214.51 661.85 259.75 662.77 259.22 585.33 214.51"/><polygon class="cls-25" points="583.48 227.52 583.48 241.85 584.55 242.47 584.55 228.15 583.48 227.52"/><polygon class="cls-25" points="740.22 227.52 740.22 241.85 739.14 242.47 739.14 228.15 740.22 227.52"/><polygon class="cls-25" points="661.85 272.77 661.85 272.77 660 271.7 660 286.04 661.85 287.1 661.85 287.1 661.85 287.1 661.85 287.1 661.85 287.1 663.7 286.04 663.7 271.7 661.85 272.77"/><polygon class="cls-14" points="661.85 248.6 583.48 203.35 661.85 158.11 740.22 203.36 661.85 248.6"/><polygon class="cls-14" points="661.85 235.59 583.48 190.34 661.85 145.09 740.22 190.34 661.85 235.59"/><polygon class="cls-68" points="661.85 225.27 601.34 190.34 661.85 155.41 722.35 190.34 661.85 225.27"/><polygon class="cls-69" points="740.22 190.34 740.22 203.36 661.85 248.6 661.85 235.59 740.22 190.34"/><polygon class="cls-14" points="583.48 190.34 583.48 203.35 661.85 248.6 661.85 235.59 583.48 190.34"/><polygon class="cls-70" points="583.48 190.34 583.48 203.35 661.85 248.6 661.85 235.59 583.48 190.34"/><polygon class="cls-14" points="661.85 221.26 583.48 176.01 661.85 130.77 740.22 176.01 661.85 221.26"/><polygon class="cls-14" points="661.85 208.25 583.48 163 661.85 117.75 740.22 163 661.85 208.25"/><polygon class="cls-71" points="661.85 208.25 583.48 163 661.85 117.75 740.22 163 661.85 208.25"/><polygon class="cls-72" points="740.22 163 740.22 176.01 661.85 221.26 661.85 208.25 740.22 163"/><polygon class="cls-14" points="583.48 163 583.48 176.01 661.85 221.26 661.85 208.25 583.48 163"/><polygon class="cls-73" points="583.48 163 583.48 176.01 661.85 221.26 661.85 208.25 583.48 163"/><polygon class="cls-19" points="661.85 221.26 661.85 235.59 583.48 190.34 583.48 176.01 661.85 221.26"/><polygon class="cls-19" points="601.34 186.33 601.34 190.34 661.85 225.27 722.35 190.34 722.35 186.33 661.85 221.26 601.34 186.33"/><polygon class="cls-19" points="661.85 221.26 661.85 225.27 601.34 190.34 601.34 186.33 661.85 221.26"/><polygon class="cls-23" points="583.48 176.01 583.48 190.34 661.85 235.59 740.22 190.34 740.22 176.01 661.85 221.26 583.48 176.01"/><polygon class="cls-74" points="585.33 163 662.77 118.29 661.85 117.75 583.48 163 661.85 208.25 662.77 207.71 585.33 163"/><polygon class="cls-25" points="583.48 176.01 583.48 190.34 584.55 190.96 584.55 176.64 583.48 176.01"/><polygon class="cls-25" points="740.22 176.01 740.22 190.34 739.14 190.96 739.14 176.64 740.22 176.01"/><polygon class="cls-25" points="661.85 221.26 661.85 221.26 660 220.19 660 234.53 661.85 235.59 661.85 235.59 661.85 235.59 661.85 235.59 661.85 235.59 663.7 234.53 663.7 220.19 661.85 221.26"/><ellipse class="cls-75" cx="320" cy="411.11" rx="198.52" ry="114.62"/><ellipse class="cls-76" cx="198.52" cy="209.44" rx="198.52" ry="114.62"/><path class="cls-13" d="M250.76,245.41l-58.55-33.8c-4.45-2.57-3.89-7.06,1.25-10l56.06-32.37c5.13-3,12.9-3.28,17.35-.71l58.55,33.8c4.45,2.57,3.89,7.05-1.24,10l-56.06,32.36C263,247.66,255.21,248,250.76,245.41Z"/><path class="cls-14" d="M335.89,172.37V160.26H304.66L267.74,139c-4.93-2.85-13.54-2.49-19.23.79L213,160.26H181.72v12.79h0c-.14,1.93.93,3.79,3.3,5.15l64.85,37.45c4.92,2.84,13.53,2.48,19.22-.8L331.21,179C334.49,177.11,336.07,174.65,335.89,172.37Z"/><path class="cls-77" d="M335.89,172.37V160.26H304.66L267.74,139c-4.93-2.85-13.54-2.49-19.23.79L213,160.26H181.72v12.79h0c-.14,1.93.93,3.79,3.3,5.15l64.85,37.45c4.92,2.84,13.53,2.48,19.22-.8L331.21,179C334.49,177.11,336.07,174.65,335.89,172.37Z"/><path class="cls-78" d="M267.74,139a17.41,17.41,0,0,0-8.93-1.91v80.51a22.18,22.18,0,0,0,10.31-2.7L331.21,179c3.28-1.89,4.86-4.35,4.68-6.63V160.26H304.66Z"/><path class="cls-14" d="M249.9,202.85l-64.85-37.44c-4.93-2.84-4.31-7.81,1.38-11.1l62.08-35.84c5.69-3.29,14.3-3.64,19.23-.8l64.85,37.44c4.93,2.85,4.31,7.82-1.38,11.1l-62.09,35.85C263.43,205.34,254.82,205.7,249.9,202.85Z"/><path class="cls-79" d="M249.9,202.85l-64.85-37.44c-4.93-2.84-4.31-7.81,1.38-11.1l62.08-35.84c5.69-3.29,14.3-3.64,19.23-.8l64.85,37.44c4.93,2.85,4.31,7.82-1.38,11.1l-62.09,35.85C263.43,205.34,254.82,205.7,249.9,202.85Z"/><path class="cls-80" d="M251.63,194.58l-52.25-30.17c-4-2.29-3.47-6.29,1.11-8.94l50-28.88c4.58-2.65,11.52-2.93,15.49-.64l52.24,30.16c4,2.3,3.48,6.3-1.11,8.95l-50,28.88C262.54,196.58,255.6,196.87,251.63,194.58Z"/><path class="cls-20" d="M200.49,159.38l50-28.88c4.58-2.64,11.52-2.93,15.49-.64L318.25,160a5.75,5.75,0,0,1,2.13,2c1.15-2.12.49-4.37-2.13-5.88L266,126c-4-2.29-10.91-2-15.49.64l-50,28.88c-3.45,2-4.58,4.76-3.24,7A8.4,8.4,0,0,1,200.49,159.38Z"/><path class="cls-81" d="M252.07,202.85l-64.84-37.44c-4.93-2.84-6.11-7,1.38-11.1l62.08-35.84a22,22,0,0,1,9.73-2.69,22.65,22.65,0,0,0-11.91,2.69l-62.08,35.84c-5.69,3.29-6.31,8.26-1.38,11.1l64.85,37.44a17.74,17.74,0,0,0,9.5,1.89A16.28,16.28,0,0,1,252.07,202.85Z"/><path class="cls-82" d="M331.21,171.62l-62.09,35.84c-5.69,3.29-14.3,3.65-19.22.8l-64.85-37.44c-2.37-1.37-3.44-3.22-3.3-5.15h0v2.65h0c-.14,1.93.93,3.78,3.3,5.15l64.85,37.44c4.92,2.85,13.53,2.49,19.22-.79l62.09-35.85c3.28-1.9,4.86-4.35,4.68-6.63V165C336.07,167.27,334.49,169.72,331.21,171.62Z"/><path class="cls-83" d="M320,168.09a.78.78,0,0,1,0,1.48,2.82,2.82,0,0,1-2.56,0,.78.78,0,0,1,0-1.48A2.82,2.82,0,0,1,320,168.09Z"/><path class="cls-83" d="M323.94,165.78a.78.78,0,0,1,0,1.48,2.82,2.82,0,0,1-2.56,0,.78.78,0,0,1,0-1.48A2.88,2.88,0,0,1,323.94,165.78Z"/><path class="cls-83" d="M327.93,163.48a.78.78,0,0,1,0,1.48,2.82,2.82,0,0,1-2.56,0,.78.78,0,0,1,0-1.48A2.82,2.82,0,0,1,327.93,163.48Z"/><path class="cls-13" d="M253.18,187.27l-41-23.66c-3.11-1.8-2.72-4.94.88-7l39.24-22.66c3.59-2.08,9-2.3,12.15-.5l41,23.66c3.12,1.8,2.72,4.94-.87,7l-39.24,22.66C261.73,188.85,256.29,189.07,253.18,187.27Z"/><path class="cls-23" d="M258.81,115.78a22.17,22.17,0,0,0-10.3,2.69l-13.41,7.74-53.38.24v33.81h0c-.14,1.93.93,3.79,3.3,5.15l64.85,37.44a17.33,17.33,0,0,0,8.91,1.9Z"/><path class="cls-23" d="M335.89,160.26a3.86,3.86,0,0,0,0-.68V125.76l-53.72.24-14.43-8.33c-4.93-2.84-13.54-2.49-19.23.8l-13.41,7.74-53.38.24v33.81h0c-.14,1.93.93,3.79,3.3,5.15l64.85,37.44c4.92,2.85,13.53,2.49,19.22-.79l62.09-35.85c3-1.7,4.53-3.87,4.68-6Z"/><path class="cls-14" d="M335.89,125.76v-12.1H304.66L267.74,92.34c-4.93-2.84-13.54-2.49-19.23.8L213,113.66H181.72v12.79h0c-.14,1.93.93,3.78,3.3,5.15L249.9,169c4.92,2.85,13.53,2.49,19.22-.8l62.09-35.84C334.49,130.5,336.07,128.05,335.89,125.76Z"/><path class="cls-84" d="M335.89,125.76v-12.1H304.66L267.74,92.34c-4.93-2.84-13.54-2.49-19.23.8L213,113.66H181.72v12.79h0c-.14,1.93.93,3.78,3.3,5.15L249.9,169c4.92,2.85,13.53,2.49,19.22-.8l62.09-35.84C334.49,130.5,336.07,128.05,335.89,125.76Z"/><path class="cls-85" d="M267.74,92.34a17.31,17.31,0,0,0-8.93-1.9V171a22.19,22.19,0,0,0,10.31-2.71l62.09-35.84c3.28-1.9,4.86-4.35,4.68-6.64v-12.1H304.66Z"/><path class="cls-14" d="M249.9,156.25l-64.85-37.44c-4.93-2.85-4.31-7.81,1.38-11.1l62.08-35.85c5.69-3.28,14.3-3.64,19.23-.79l64.85,37.44c4.93,2.84,4.31,7.81-1.38,11.1l-62.09,35.84C263.43,158.74,254.82,159.09,249.9,156.25Z"/><path class="cls-86" d="M249.9,156.25l-64.85-37.44c-4.93-2.85-4.31-7.81,1.38-11.1l62.08-35.85c5.69-3.28,14.3-3.64,19.23-.79l64.85,37.44c4.93,2.84,4.31,7.81-1.38,11.1l-62.09,35.84C263.43,158.74,254.82,159.09,249.9,156.25Z"/><path class="cls-87" d="M252.07,156.25l-64.84-37.44c-4.93-2.85-6.11-7,1.38-11.1l62.08-35.85a22.11,22.11,0,0,1,9.73-2.68,22.55,22.55,0,0,0-11.91,2.68l-62.08,35.85c-5.69,3.29-6.31,8.25-1.38,11.1l64.85,37.44a17.74,17.74,0,0,0,9.5,1.89A16.41,16.41,0,0,1,252.07,156.25Z"/><path class="cls-88" d="M331.21,125l-62.09,35.85c-5.69,3.28-14.3,3.64-19.22.8l-64.85-37.44c-2.37-1.37-3.44-3.23-3.3-5.15h0v2.65h0c-.14,1.92.93,3.78,3.3,5.15l64.85,37.44c4.92,2.84,13.53,2.49,19.22-.8l62.09-35.84c3.28-1.9,4.86-4.35,4.68-6.64v-2.65C336.07,120.67,334.49,123.12,331.21,125Z"/><path class="cls-89" d="M253.66,116.37c1.35.78,1.35,2,0,2.81a5.38,5.38,0,0,1-4.88,0c-1.34-.77-1.34-2,0-2.81A5.38,5.38,0,0,1,253.66,116.37Z"/><path class="cls-90" d="M261.26,112c1.34.78,1.34,2,0,2.82a5.38,5.38,0,0,1-4.88,0c-1.35-.78-1.35-2,0-2.82A5.44,5.44,0,0,1,261.26,112Z"/><path class="cls-80" d="M268.85,107.6c1.35.78,1.35,2,0,2.81a5.38,5.38,0,0,1-4.88,0c-1.34-.77-1.34-2,0-2.81A5.38,5.38,0,0,1,268.85,107.6Z"/><path class="cls-13" d="M258.39,147.05a13.06,13.06,0,0,1-6.41-1.48L204,117.89a4.71,4.71,0,0,1-2.71-4c0-1.85,1.36-3.7,3.73-5.06L251,82.33c4.34-2.5,10.94-2.77,14.71-.59l47.95,27.69a4.7,4.7,0,0,1,2.7,4c0,1.85-1.36,3.69-3.72,5.06L266.68,145A17,17,0,0,1,258.39,147.05Zm.85-65.82a16,16,0,0,0-7.8,2l-45.9,26.5c-2.06,1.19-3.24,2.73-3.24,4.22a3.78,3.78,0,0,0,2.22,3.14l47.95,27.69c3.5,2,9.66,1.75,13.72-.59l45.91-26.51c2-1.18,3.23-2.72,3.23-4.21a3.78,3.78,0,0,0-2.21-3.15L265.17,82.59A12.11,12.11,0,0,0,259.24,81.23Z"/><polygon class="cls-23" points="583.48 163 583.48 357.88 661.85 403.13 661.85 208.25 583.48 163"/><path class="cls-2" d="M259.32,153.07a15.6,15.6,0,0,1-7.66-1.76L162.8,100c-2-1.17-3.14-2.8-3.14-4.58,0-2.14,1.6-4.29,4.38-5.9l86.37-49.86c5.19-3,13.09-3.32,17.6-.72l88.86,51.3c2,1.17,3.13,2.8,3.13,4.58,0,2.14-1.59,4.29-4.38,5.9l-86.36,49.86A20.44,20.44,0,0,1,259.32,153.07Zm1-115.35a19.82,19.82,0,0,0-9.67,2.42L164.31,90c-2.61,1.51-4.11,3.49-4.11,5.43,0,1.58,1,3,2.87,4.11l88.86,51.3c4.36,2.52,12,2.2,17.06-.72l86.36-49.86c2.61-1.51,4.11-3.48,4.11-5.43,0-1.58-1-3-2.86-4.11l-88.86-51.3A15.06,15.06,0,0,0,260.35,37.72Z"/><ellipse class="cls-91" cx="237.18" cy="45.69" rx="73.46" ry="42.41"/><ellipse class="cls-92" cx="170.22" cy="84.22" rx="56.49" ry="32.61"/><circle class="cls-93" cx="237.84" cy="47.22" r="10.53"/><path class="cls-2" d="M240.84,47.22a3,3,0,1,1-3-3A3,3,0,0,1,240.84,47.22Z"/><circle class="cls-94" cx="170.22" cy="86.34" r="10.53"/><path class="cls-2" d="M173.22,86.34a3,3,0,1,1-3-3A3,3,0,0,1,173.22,86.34Z"/><path class="cls-95" d="M320.44,126.86a10.53,10.53,0,1,1-10.53-10.53A10.53,10.53,0,0,1,320.44,126.86Z"/><path class="cls-96" d="M312.91,126.86a3,3,0,1,1-3-3A3,3,0,0,1,312.91,126.86Z"/><polygon class="cls-23" points="350.42 45.25 350.42 240.13 428.79 285.38 428.79 90.49 350.42 45.25"/><ellipse class="cls-97" cx="717.93" cy="146.5" rx="73.46" ry="42.41"/><path class="cls-2" d="M660.7,176.72A15.65,15.65,0,0,1,653,175l-88.85-51.3c-2-1.17-3.14-2.8-3.14-4.58,0-2.14,1.6-4.29,4.38-5.9L651.8,63.32c5.19-3,13.09-3.32,17.6-.72l88.86,51.3c2,1.17,3.13,2.8,3.13,4.58,0,2.14-1.59,4.29-4.38,5.9l-86.36,49.86A20.45,20.45,0,0,1,660.7,176.72Zm-7.39-2.23c4.36,2.52,12,2.2,17.07-.72l86.36-49.86c2.61-1.51,4.11-3.49,4.11-5.43,0-1.58-1-3-2.86-4.11l-88.86-51.3c-4.37-2.52-12-2.2-17.06.72L565.7,113.65c-2.61,1.51-4.11,3.48-4.11,5.43,0,1.58,1,3,2.87,4.11Z"/><ellipse class="cls-98" cx="638.57" cy="69.34" rx="73.46" ry="42.41"/><ellipse class="cls-99" cx="571.6" cy="107.87" rx="56.49" ry="32.61"/><path class="cls-100" d="M649.76,70.86a10.53,10.53,0,1,1-10.53-10.53A10.53,10.53,0,0,1,649.76,70.86Z"/><path class="cls-2" d="M642.23,70.86a3,3,0,1,1-3-3A3,3,0,0,1,642.23,70.86Z"/><circle class="cls-101" cx="571.6" cy="109.98" r="10.53"/><path class="cls-2" d="M574.61,110a3,3,0,1,1-3-3A3,3,0,0,1,574.61,110Z"/><circle class="cls-102" cx="711.3" cy="150.51" r="10.53"/><path class="cls-2" d="M714.3,150.51a3,3,0,1,1-3-3A3,3,0,0,1,714.3,150.51Z"/><circle class="cls-103" cx="730.82" cy="139.01" r="10.53"/><path class="cls-2" d="M733.82,139a3,3,0,1,1-3-3A3,3,0,0,1,733.82,139Z"/><path class="cls-104" d="M760.86,127.68a10.53,10.53,0,1,1-10.53-10.53A10.52,10.52,0,0,1,760.86,127.68Z"/><path class="cls-2" d="M753.34,127.68a3,3,0,1,1-3-3A3,3,0,0,1,753.34,127.68Z"/><path class="cls-13" d="M372.25,447.08,313.7,413.27c-4.45-2.56-3.9-7,1.24-10L371,370.89c5.13-3,12.91-3.29,17.35-.72L446.9,404c4.45,2.57,3.9,7.06-1.24,10L389.6,446.36C384.47,449.32,376.69,449.65,372.25,447.08Z"/><path class="cls-14" d="M457.37,374v-12.1H426.14l-36.92-21.32c-4.93-2.84-13.53-2.49-19.22.8l-35.55,20.52H303.2v12.79h0c-.14,1.92.93,3.78,3.3,5.15l64.85,37.44c4.93,2.84,13.53,2.49,19.22-.8l62.09-35.84C456,378.77,457.55,376.32,457.37,374Z"/><path class="cls-105" d="M457.37,374v-12.1H426.14l-36.92-21.32c-4.93-2.84-13.53-2.49-19.22.8l-35.55,20.52H303.2v12.79h0c-.14,1.92.93,3.78,3.3,5.15l64.85,37.44c4.93,2.84,13.53,2.49,19.22-.8l62.09-35.84C456,378.77,457.55,376.32,457.37,374Z"/><path class="cls-106" d="M389.22,340.61a17.41,17.41,0,0,0-8.93-1.91v80.52a22.16,22.16,0,0,0,10.31-2.71l62.09-35.84c3.28-1.9,4.86-4.35,4.68-6.64v-12.1H426.14Z"/><path class="cls-14" d="M371.38,404.52l-64.85-37.44c-4.93-2.85-4.31-7.82,1.38-11.1L370,320.13c5.69-3.28,14.29-3.64,19.22-.79l64.85,37.44c4.93,2.84,4.31,7.81-1.38,11.1L390.6,403.72C384.91,407,376.31,407.36,371.38,404.52Z"/><path class="cls-107" d="M371.38,404.52l-64.85-37.44c-4.93-2.85-4.31-7.82,1.38-11.1L370,320.13c5.69-3.28,14.29-3.64,19.22-.79l64.85,37.44c4.93,2.84,4.31,7.81-1.38,11.1L390.6,403.72C384.91,407,376.31,407.36,371.38,404.52Z"/><path class="cls-80" d="M373.11,396.24l-52.25-30.16c-4-2.29-3.47-6.3,1.11-8.95l50-28.88c4.58-2.64,11.52-2.93,15.49-.64l52.25,30.17c4,2.29,3.47,6.29-1.12,8.94l-50,28.88C384,398.25,377.08,398.54,373.11,396.24Z"/><path class="cls-20" d="M322,361.05l50-28.88c4.58-2.65,11.52-2.94,15.49-.65l52.25,30.17a5.82,5.82,0,0,1,2.12,2c1.16-2.12.49-4.37-2.12-5.88l-52.25-30.17c-4-2.29-10.91-2-15.49.64l-50,28.88c-3.46,2-4.59,4.76-3.24,7A8.17,8.17,0,0,1,322,361.05Z"/><path class="cls-108" d="M373.56,404.52l-64.85-37.44c-4.93-2.85-6.11-7,1.38-11.1l62.08-35.85a22,22,0,0,1,9.73-2.68,22.49,22.49,0,0,0-11.9,2.68L307.91,356c-5.69,3.28-6.31,8.25-1.38,11.1l64.85,37.44a17.83,17.83,0,0,0,9.5,1.89A16.46,16.46,0,0,1,373.56,404.52Z"/><path class="cls-109" d="M452.69,373.28,390.6,409.13c-5.69,3.28-14.29,3.64-19.22.8l-64.85-37.45c-2.37-1.36-3.44-3.22-3.3-5.15h0V370h0c-.14,1.93.93,3.79,3.3,5.16l64.85,37.44c4.93,2.84,13.53,2.48,19.22-.8l62.09-35.85c3.28-1.89,4.86-4.35,4.68-6.63v-2.65C457.55,368.93,456,371.39,452.69,373.28Z"/><path class="cls-83" d="M441.43,369.75a.78.78,0,0,1,0,1.48,2.82,2.82,0,0,1-2.56,0,.78.78,0,0,1,0-1.48A2.82,2.82,0,0,1,441.43,369.75Z"/><path class="cls-83" d="M445.42,367.45a.78.78,0,0,1,0,1.48,2.82,2.82,0,0,1-2.56,0,.78.78,0,0,1,0-1.48A2.82,2.82,0,0,1,445.42,367.45Z"/><path class="cls-83" d="M449.41,365.14a.78.78,0,0,1,0,1.48,2.82,2.82,0,0,1-2.56,0,.78.78,0,0,1,0-1.48A2.88,2.88,0,0,1,449.41,365.14Z"/><path class="cls-13" d="M374.66,388.94l-41-23.67c-3.12-1.79-2.73-4.93.87-7l39.24-22.66c3.59-2.07,9-2.3,12.15-.5l41,23.66c3.12,1.8,2.73,4.94-.87,7l-39.24,22.65C383.22,390.51,377.78,390.74,374.66,388.94Z"/><path class="cls-23" d="M356.58,327.88l-53.38.23v33.82h0c-.14,1.92.93,3.78,3.3,5.15l64.85,37.44a17.43,17.43,0,0,0,8.91,1.89v-85H367.75Z"/><path class="cls-23" d="M457.37,361.93a4,4,0,0,0,0-.69V327.43l-53.72.24-14.43-8.33c-4.93-2.85-13.53-2.49-19.22.79l-13.42,7.75-53.38.23v33.82h0c-.14,1.92.93,3.78,3.3,5.15l64.85,37.44c4.93,2.84,13.53,2.49,19.22-.8l62.09-35.84c3-1.71,4.53-3.87,4.68-5.95Z"/><path class="cls-14" d="M457.37,327.43V315.32H426.14L389.22,294c-4.93-2.85-13.53-2.49-19.22.79l-35.55,20.52H303.2v12.79h0c-.14,1.93.93,3.79,3.3,5.15l64.85,37.45c4.93,2.84,13.53,2.48,19.22-.8l62.09-35.85C456,332.17,457.55,329.71,457.37,327.43Z"/><path class="cls-110" d="M457.37,327.43V315.32H426.14L389.22,294c-4.93-2.85-13.53-2.49-19.22.79l-35.55,20.52H303.2v12.79h0c-.14,1.93.93,3.79,3.3,5.15l64.85,37.45c4.93,2.84,13.53,2.48,19.22-.8l62.09-35.85C456,332.17,457.55,329.71,457.37,327.43Z"/><path class="cls-111" d="M389.22,294a17.41,17.41,0,0,0-8.93-1.91v80.51a22.15,22.15,0,0,0,10.31-2.7l62.09-35.85c3.28-1.89,4.86-4.35,4.68-6.63V315.32H426.14Z"/><path class="cls-14" d="M371.38,357.91l-64.85-37.44c-4.93-2.84-4.31-7.81,1.38-11.1L370,273.53c5.69-3.29,14.29-3.64,19.22-.8l64.85,37.44c4.93,2.85,4.31,7.82-1.38,11.1L390.6,357.12C384.91,360.4,376.31,360.76,371.38,357.91Z"/><path class="cls-112" d="M371.38,357.91l-64.85-37.44c-4.93-2.84-4.31-7.81,1.38-11.1L370,273.53c5.69-3.29,14.29-3.64,19.22-.8l64.85,37.44c4.93,2.85,4.31,7.82-1.38,11.1L390.6,357.12C384.91,360.4,376.31,360.76,371.38,357.91Z"/><path class="cls-113" d="M373.56,357.91l-64.85-37.44c-4.93-2.84-6.11-7,1.38-11.1l62.08-35.84a22,22,0,0,1,9.73-2.69,22.59,22.59,0,0,0-11.9,2.69l-62.09,35.84c-5.69,3.29-6.31,8.26-1.38,11.1l64.85,37.44a17.74,17.74,0,0,0,9.5,1.89A16.2,16.2,0,0,1,373.56,357.91Z"/><path class="cls-114" d="M452.69,326.68,390.6,362.52c-5.69,3.29-14.29,3.65-19.22.8l-64.85-37.44c-2.37-1.37-3.44-3.22-3.3-5.15h0v2.65h0c-.14,1.93.93,3.78,3.3,5.15L371.38,366c4.93,2.85,13.53,2.49,19.22-.8l62.09-35.84c3.28-1.9,4.86-4.35,4.68-6.63V320C457.55,322.33,456,324.78,452.69,326.68Z"/><path class="cls-89" d="M375.14,318c1.35.78,1.35,2,0,2.82a5.36,5.36,0,0,1-4.87,0c-1.35-.78-1.35-2,0-2.82A5.42,5.42,0,0,1,375.14,318Z"/><path class="cls-90" d="M382.74,313.65c1.34.78,1.34,2,0,2.81a5.38,5.38,0,0,1-4.88,0c-1.35-.77-1.35-2,0-2.81A5.38,5.38,0,0,1,382.74,313.65Z"/><path class="cls-80" d="M390.33,309.26c1.35.78,1.35,2,0,2.82a5.36,5.36,0,0,1-4.87,0c-1.35-.78-1.35-2,0-2.82A5.42,5.42,0,0,1,390.33,309.26Z"/><path class="cls-13" d="M379.88,348.71a13.07,13.07,0,0,1-6.42-1.47l-47.95-27.69a4.7,4.7,0,0,1-2.7-4c0-1.86,1.35-3.7,3.72-5.07L372.44,284c4.33-2.51,10.93-2.77,14.7-.59l47.95,27.68a4.71,4.71,0,0,1,2.7,4c0,1.85-1.35,3.7-3.72,5.07l-45.91,26.5A17.06,17.06,0,0,1,379.88,348.71ZM374,346.39c3.5,2,9.66,1.76,13.72-.59l45.91-26.5c2.06-1.19,3.24-2.73,3.24-4.22a3.78,3.78,0,0,0-2.22-3.14l-48-27.69c-3.5-2-9.66-1.75-13.72.59L327,311.35c-2.06,1.18-3.24,2.72-3.24,4.22a3.8,3.8,0,0,0,2.22,3.14Z"/></g></g></g></svg>