<svg id="Layer_1" data-name="Layer 1" xmlns="http://www.w3.org/2000/svg" viewBox="0 0 1080 1080"><defs><style>.cls-1{fill:#171930;}.cls-2{fill:#e5e4e4;}.cls-3{opacity:0.15;}.cls-4{fill:#e62c2b;}.cls-5{opacity:0.3;}.cls-6{opacity:0.1;}.cls-7{opacity:0.05;}.cls-11,.cls-8{fill:none;}.cls-13,.cls-14,.cls-15,.cls-9{fill:#fff;}.cls-9{opacity:0.7;}.cls-10,.cls-14{opacity:0.5;}.cls-11{stroke:#e5e4e4;stroke-linecap:round;stroke-miterlimit:10;stroke-width:2.26px;}.cls-12{opacity:0.2;}.cls-13{opacity:0.8;}.cls-15{opacity:0.6;}.cls-16{opacity:0.4;}.cls-17{opacity:0.25;}</style></defs><path id="Shadow" class="cls-1" d="M462.29,1016.46a6.43,6.43,0,0,1-6.23-5.16l-1.44-7.61a84.15,84.15,0,0,1-9.66-2.36h-.24l-13.41,6.22a7.5,7.5,0,0,1-3.13.66,7.76,7.76,0,0,1-3.81-1L411,999.52a5.31,5.31,0,0,1-.45-9.07l8.09-5.81a28.72,28.72,0,0,1-2-3l-17-1.07a6.13,6.13,0,0,1-5.72-6.09v-9.94a6.12,6.12,0,0,1,5.72-6.09l17-1.08a29.13,29.13,0,0,1,2-3l-8.09-5.82a5.3,5.3,0,0,1,.46-9.07l13.36-7.71a7.65,7.65,0,0,1,3.81-1,7.49,7.49,0,0,1,3.13.65l13.42,6.22h.17s0,0-.06,0a84.17,84.17,0,0,1,9.78-2.4l1.44-7.61a6.44,6.44,0,0,1,6.23-5.16h19.65a6.43,6.43,0,0,1,6.23,5.16l1.45,7.61a84.15,84.15,0,0,1,9.66,2.37h.23l13.42-6.22a7.43,7.43,0,0,1,3.13-.65,7.81,7.81,0,0,1,3.81,1l13.36,7.72a5.3,5.3,0,0,1,.46,9.07l-8.09,5.81a30.34,30.34,0,0,1,2,3.05l17,1.08a6.11,6.11,0,0,1,5.72,6.08v9.94a6.12,6.12,0,0,1-5.72,6.1l-17,1.07a27.63,27.63,0,0,1-2,3l8.08,5.82a5.3,5.3,0,0,1-.45,9.06l-13.36,7.72a7.81,7.81,0,0,1-3.81,1h0a7.46,7.46,0,0,1-3.13-.66l-13.42-6.22h-.17s0,0,.05,0a83,83,0,0,1-9.77,2.4l-1.45,7.61a6.43,6.43,0,0,1-6.23,5.16Zm9.83-61.12c-7.78,0-15,1.72-20.42,4.83-4.57,2.63-7.19,6-7.19,9.29s2.62,6.65,7.19,9.29c5.38,3.11,12.63,4.82,20.42,4.82s15-1.71,20.42-4.82c4.57-2.64,7.19-6,7.19-9.29s-2.62-6.66-7.19-9.3C487.15,957.06,479.9,955.34,472.12,955.34Z"/><path id="Shadow-2" data-name="Shadow" class="cls-1" d="M615.11,928.57a7.22,7.22,0,0,1-5-2.2l-5.33-5.61c-1.32.06-2.64.1-4,.1s-2.59,0-3.88-.1l-5.67,6a6.32,6.32,0,0,1-4.61,1.82,6.74,6.74,0,0,1-1.69-.2l-13.25-3.16a5.69,5.69,0,0,1-3.91-3.08,5,5,0,0,1,.07-4.32l2.1-4.16c-1.13-.63-2.21-1.3-3.23-2l-12.5,2.11a5.8,5.8,0,0,1-1,.08,6.82,6.82,0,0,1-5.36-2.8l-5-7a5.87,5.87,0,0,1-1.09-3.22,5.15,5.15,0,0,1,3.6-5l9.62-3c0-.15,0-.29,0-.44l-9.31-3a5.43,5.43,0,0,1-4-4.74v-.32a5,5,0,0,1,1-2.92l5.46-7.61a6.25,6.25,0,0,1,5.12-2.42,7,7,0,0,1,1.12.09l12.31,2.07c.89-.6,1.85-1.21,2.86-1.78l.38-.21-2-3.86a5.37,5.37,0,0,1-.6-2.2l0-.64.08-.36a5.2,5.2,0,0,1,3.94-4.43l13.85-3.3a5.72,5.72,0,0,1,1.34-.16,7.19,7.19,0,0,1,5,2.21l5.33,5.6c1.34-.07,2.7-.11,4-.11s2.54,0,3.79.1l5.66-5.95a6.34,6.34,0,0,1,4.62-1.83,7.15,7.15,0,0,1,1.68.2L630,860a5.43,5.43,0,0,1,4.36,5.12,4.91,4.91,0,0,1-.48,2.18l-2.15,4.26c.15.08.3.16.44.25,1,.57,1.92,1.15,2.78,1.74l12.53-2.1a5.64,5.64,0,0,1,.93-.08,6.83,6.83,0,0,1,5.34,2.77l5,7a5.52,5.52,0,0,1,1.09,3.13l0,.55-.1.4a5.06,5.06,0,0,1-3.47,4.07l-9.69,3.07a3.23,3.23,0,0,1,0,.44l9.32,2.94a5.41,5.41,0,0,1,3,8c-1.61,2.47-3.46,4.82-5.18,7.22-.09.14-.19.27-.29.41a6.26,6.26,0,0,1-5.11,2.42,7.46,7.46,0,0,1-1.16-.09l-12.28-2.07c-1,.7-2.11,1.37-3.24,2l1.95,3.86a5.4,5.4,0,0,1,.11,4.78,5.21,5.21,0,0,1-3.56,2.86l-13.77,3.3A5.94,5.94,0,0,1,615.11,928.57ZM581.7,895.1a10.08,10.08,0,0,0,2.59,2.65,14.64,14.64,0,0,0,1.6,1,24.9,24.9,0,0,0,6.66,2.54,35.66,35.66,0,0,0,8.27.95,31.08,31.08,0,0,0,14.91-3.47,14.5,14.5,0,0,0,1.61-1,10.63,10.63,0,0,0,2.39-2.33,4.3,4.3,0,0,0,.41-5l-.25-.4c-.1-.15-.2-.3-.32-.45s-.23-.29-.34-.42l-.11-.1-.09-.12-.11-.11c-2.17-2.22-5.63-3.93-9.81-4.94a35.66,35.66,0,0,0-8.27-1c-8.24,0-16,2.82-18.92,6.85a4.22,4.22,0,0,0-.73,4.34l.15.37.35.6Z"/><path id="Shadow-3" data-name="Shadow" class="cls-1" d="M795.3,987.6l113.07-65.27c3.35-1.94,3.35-5.07,0-7l-27.71-16a13.37,13.37,0,0,0-12.13,0L755.47,964.6c-3.35,1.94-3.35,5.08,0,7l13.85,8-141.89,81.92c-3.36,1.93-1.95,2.59-.38,3.5s2.72,1.72,6.07-.22L775,982.89l8.16,4.71A13.37,13.37,0,0,0,795.3,987.6Z"/><path id="Shadow-4" data-name="Shadow" class="cls-1" d="M752.67,862.33c-9.56,0-18.56-2.19-25.33-6.16-.79-.46-1.53-.93-2.26-1.45l-4.18-2.93,35.58-5.22,3.22-6.73-9.6-5.62-33.92,4.95L717.3,836c1.53-4.32,5.13-8.19,10.42-11.19,6.71-3.82,15.56-5.93,24.9-5.93A59.29,59.29,0,0,1,764,820l116-67a13.83,13.83,0,0,1-1-9.34c1.2-4.82,4.93-9.13,10.77-12.45,6.72-3.82,15.58-5.92,24.93-5.92,9.57,0,18.56,2.18,25.33,6.15.8.47,1.54.94,2.26,1.45l4.18,2.94L911,741l-3.22,6.73,9.6,5.63,33.92-5-1.12,3.18c-1.53,4.32-5.13,8.19-10.42,11.2-6.71,3.81-15.56,5.92-24.9,5.92a59.29,59.29,0,0,1-11.39-1.09l-116,67a13.79,13.79,0,0,1,1,9.33c-1.2,4.83-4.93,9.13-10.77,12.45C770.88,860.22,762,862.33,752.67,862.33Z"/><polygon id="Shadow-5" data-name="Shadow" class="cls-1" points="433.7 659.46 629.26 772.37 811.68 666.73 616.11 553.83 433.7 659.46"/><polygon id="Shadow-6" data-name="Shadow" class="cls-1" points="359.47 933.01 623.15 780.77 392.43 647.57 128.75 799.8 359.47 933.01"/><g id="Gate"><polygon class="cls-2" points="629.24 763.98 444.1 657.09 444.1 648.99 614.27 550.75 799.42 657.63 799.42 665.73 629.24 763.98"/><polygon class="cls-2" points="444.1 648.99 629.24 755.88 799.42 657.63 614.27 550.75 444.1 648.99"/><polygon class="cls-3" points="444.1 648.99 629.24 755.88 799.42 657.63 614.27 550.75 444.1 648.99"/><path class="cls-4" d="M675.13,693.61a13.75,13.75,0,0,0,12.4,0c3.42-2,3.42-5.18,0-7.16a13.69,13.69,0,0,0-12.4,0C671.71,688.43,671.71,691.63,675.13,693.61Z"/><polygon class="cls-5" points="629.24 755.88 629.24 763.98 444.1 657.09 444.1 648.99 629.24 755.88"/></g><g id="Server"><path class="cls-2" d="M387.3,15.65l206.28,119.1a15.25,15.25,0,0,1,6.9,11.95V773.21a15.25,15.25,0,0,1-6.9,11.95L370.46,914a15.25,15.25,0,0,1-13.8,0L150.38,794.88a15.25,15.25,0,0,1-6.9-12V156.42a15.25,15.25,0,0,1,6.9-11.95L373.5,15.65A15.25,15.25,0,0,1,387.3,15.65Z"/><path class="cls-2" d="M143.49,156.41V782.93a15.28,15.28,0,0,0,6.88,12L356.67,914a13.8,13.8,0,0,0,6.88,1.66V273.18a14.31,14.31,0,0,1-6.88-1.65l-206.3-119.1-1.88-1.57-2.45-2A14.24,14.24,0,0,0,143.49,156.41Z"/><path class="cls-5" d="M143.49,156.41V782.93a15.28,15.28,0,0,0,6.88,12L356.67,914a13.8,13.8,0,0,0,6.88,1.66V273.18a14.31,14.31,0,0,1-6.88-1.65l-206.3-119.1-1.88-1.57-2.45-2A14.24,14.24,0,0,0,143.49,156.41Z"/><path class="cls-2" d="M150.38,144.47,373.5,15.65a15.25,15.25,0,0,1,13.8,0l206.28,119.1c3.81,2.2,3.81,5.76,0,8L370.46,271.53a15.19,15.19,0,0,1-13.8,0L150.38,152.44C146.57,150.24,146.57,146.67,150.38,144.47Z"/><path class="cls-3" d="M150.38,144.47,373.5,15.65a15.25,15.25,0,0,1,13.8,0l206.28,119.1c3.81,2.2,3.81,5.76,0,8L370.46,271.53a15.19,15.19,0,0,1-13.8,0L150.38,152.44C146.57,150.24,146.57,146.67,150.38,144.47Z"/><polygon class="cls-1" points="575.69 569.39 390.55 676.28 390.55 872.78 575.69 765.88 575.69 569.39"/><path class="cls-4" d="M484.71,709.77a1.9,1.9,0,0,0-1.91.19l-75.32,43.33a5.45,5.45,0,0,0-1.91,2l-5.06-2.92a5.56,5.56,0,0,1,1.91-2L476.15,708a6,6,0,0,1,5.4,0Z"/><path class="cls-4" d="M404.78,758v84.38c0,1.73,1.21,2.42,2.7,1.56l75.31-43.32a6,6,0,0,0,2.7-4.68V711.52c0-1.72-1.21-2.42-2.7-1.56l-75.32,43.33A6,6,0,0,0,404.78,758Z"/><path class="cls-4" d="M405.5,844.06l-3.08-1.78a6,6,0,0,1-2.7-4.68V755a5.48,5.48,0,0,1,.79-2.66l5.06,2.92a5.5,5.5,0,0,0-.8,2.67l0,84.38A2,2,0,0,0,405.5,844.06Z"/><path class="cls-2" d="M410.81,836.32a1.24,1.24,0,0,1-.65-.17,1.57,1.57,0,0,1-.7-1.45v-75a4.17,4.17,0,0,1,1.91-3.3l67.16-38.63a1.43,1.43,0,0,1,2.31,1.33v75a4.14,4.14,0,0,1-1.9,3.3L411.77,836A1.94,1.94,0,0,1,410.81,836.32Zm68.67-118a1.14,1.14,0,0,0-.56.18l-67.17,38.62a3.39,3.39,0,0,0-1.51,2.62v75a.67.67,0,0,0,1.12.65h0l67.14-38.6a3.4,3.4,0,0,0,1.52-2.62v-75a.83.83,0,0,0-.31-.76A.49.49,0,0,0,479.48,718.33Z"/><path class="cls-2" d="M416.08,826.47a.75.75,0,0,1-.38-.1.9.9,0,0,1-.41-.81V762a2.26,2.26,0,0,1,.92-1.59L473.6,727.3a.89.89,0,0,1,.9,0,.9.9,0,0,1,.41.81l-.08,63.74a2,2,0,0,1-.92,1.59L416.6,826.32A1,1,0,0,1,416.08,826.47Zm0-.78h0Zm58-97.75-.1,0-57.4,33.06a1.65,1.65,0,0,0-.52.91v63.6a.31.31,0,0,0,0,.13l.11-.06,57.31-32.92a1.23,1.23,0,0,0,.52-.91h0l.08-63.74A.22.22,0,0,0,474.1,727.94Z"/><path class="cls-2" d="M420,743.57a.78.78,0,0,1-.77-.77v-18a.78.78,0,0,1,.77-.77.77.77,0,0,1,.76.77v18A.77.77,0,0,1,420,743.57Z"/><path class="cls-2" d="M432.53,736.36a.76.76,0,0,1-.76-.76v-18a.76.76,0,0,1,.76-.76.77.77,0,0,1,.77.76v18A.77.77,0,0,1,432.53,736.36Z"/><path class="cls-2" d="M445.1,729.16a.76.76,0,0,1-.76-.76v-18a.76.76,0,1,1,1.52,0v18A.76.76,0,0,1,445.1,729.16Z"/><path class="cls-2" d="M457.67,722a.78.78,0,0,1-.77-.77v-18a.77.77,0,0,1,.77-.76.76.76,0,0,1,.76.76v18A.77.77,0,0,1,457.67,722Z"/><path class="cls-2" d="M470.23,714.76a.77.77,0,0,1-.76-.77V696a.77.77,0,0,1,.76-.77.78.78,0,0,1,.77.77v18A.78.78,0,0,1,470.23,714.76Z"/><path class="cls-4" d="M484.71,643.39a1.89,1.89,0,0,0-1.91.2l-75.32,43.32a5.45,5.45,0,0,0-1.91,2L400.51,686a5.56,5.56,0,0,1,1.91-2l73.73-42.41a6,6,0,0,1,5.4,0Z"/><path class="cls-4" d="M404.78,691.59v42.55c0,1.72,1.21,2.42,2.7,1.56l75.31-43.32a6,6,0,0,0,2.7-4.68V645.14c0-1.72-1.21-2.42-2.7-1.56l-75.32,43.33A6,6,0,0,0,404.78,691.59Z"/><path class="cls-4" d="M405.5,735.84l-3.08-1.77a6,6,0,0,1-2.7-4.68V688.66a5.48,5.48,0,0,1,.79-2.66l5.06,2.92a5.53,5.53,0,0,0-.8,2.67l0,42.55A2,2,0,0,0,405.5,735.84Z"/><path class="cls-2" d="M410.81,728.11a1.34,1.34,0,0,1-.65-.17,1.57,1.57,0,0,1-.7-1.45V693.37a4.17,4.17,0,0,1,1.91-3.3l67.16-38.63a1.6,1.6,0,0,1,1.61-.11,1.57,1.57,0,0,1,.7,1.45v33.13a4.16,4.16,0,0,1-1.9,3.31l-67.15,38.6A2,2,0,0,1,410.81,728.11ZM479.48,652a1.14,1.14,0,0,0-.56.18l-67.17,38.62a3.42,3.42,0,0,0-1.51,2.62v33.12a.67.67,0,0,0,1.12.65h0l67.14-38.6a3.43,3.43,0,0,0,1.52-2.63V652.78a.84.84,0,0,0-.31-.77A.49.49,0,0,0,479.48,652Z"/><path class="cls-2" d="M416.08,718.26a.76.76,0,0,1-.38-.11.87.87,0,0,1-.41-.8V695.58a2.26,2.26,0,0,1,.92-1.59l57.39-33.06a.87.87,0,0,1,.9,0,.88.88,0,0,1,.41.8l-.08,21.91a2,2,0,0,1-.92,1.59L416.6,718.11A1,1,0,0,1,416.08,718.26Zm0-.78h0Zm58-55.92s0,0-.1.05l-57.4,33.06a1.65,1.65,0,0,0-.52.91v21.77a.22.22,0,0,0,0,.12.27.27,0,0,0,.11-.05l57.31-32.93a1.21,1.21,0,0,0,.52-.9h0l.08-21.91A.22.22,0,0,0,474.1,661.56Z"/><path class="cls-2" d="M499.93,634.74a9.85,9.85,0,0,0-4.44,7.7c0,2.84,2,4,4.44,2.57a9.86,9.86,0,0,0,4.45-7.7C504.38,634.47,502.39,633.33,499.93,634.74Z"/><path class="cls-2" d="M499.93,710.37a9.83,9.83,0,0,0-4.44,7.7c0,2.83,2,4,4.44,2.57a9.86,9.86,0,0,0,4.45-7.7C504.38,710.1,502.39,709,499.93,710.37Z"/><path class="cls-2" d="M499.93,730.71a9.85,9.85,0,0,0-4.44,7.7c0,2.83,2,4,4.44,2.57a9.86,9.86,0,0,0,4.45-7.7C504.38,730.44,502.39,729.29,499.93,730.71Z"/><path class="cls-2" d="M499.93,751.05a9.85,9.85,0,0,0-4.44,7.7c0,2.83,2,4,4.44,2.57a9.86,9.86,0,0,0,4.45-7.7C504.38,750.78,502.39,749.63,499.93,751.05Z"/><path class="cls-2" d="M499.93,771.39a9.85,9.85,0,0,0-4.44,7.7c0,2.84,2,4,4.44,2.57a9.86,9.86,0,0,0,4.45-7.7C504.38,771.12,502.39,770,499.93,771.39Z"/><path class="cls-2" d="M499.93,653.12a9.81,9.81,0,0,0-4.44,7.69c0,2.84,2,4,4.44,2.57a9.84,9.84,0,0,0,4.45-7.7C504.38,652.85,502.39,651.7,499.93,653.12Z"/><path class="cls-2" d="M499.93,671.49a9.82,9.82,0,0,0-4.44,7.7c0,2.83,2,4,4.44,2.56a9.83,9.83,0,0,0,4.45-7.7C504.38,671.22,502.39,670.07,499.93,671.49Z"/><path class="cls-4" d="M548.56,644.33l-.43-4.13a.44.44,0,0,0-.57-.39,9.1,9.1,0,0,1-2,.2,1,1,0,0,0-.83.41l-.91,1.36,4.86,2.79A.4.4,0,0,1,548.56,644.33Zm3.51-28.92c0,.31,0,.63,0,1a15.88,15.88,0,0,1-7.18,12.46c-.31.17-.59.32-.88.45.44,3.86,3.47,5.28,7.13,3.15A15.83,15.83,0,0,0,558.37,620C558.37,615.76,555.63,613.86,552.07,615.41Zm15.58-3.64-4.91-2.83L562,610.4a1.08,1.08,0,0,0,.06.93,8.23,8.23,0,0,1,.85,1.87.45.45,0,0,0,.63.29l3.78-1.68a.41.41,0,0,1,.32,0ZM558.06,601l-2.74-1.58v0c-.05,0-.13,0-.19,0a.47.47,0,0,0-.17,0h-.05l-.13.06s-.07.07-.11.1-.06,0-.09.07l-2.24,3.37-2.83-1.64-.06,0-2-1.19h0a.35.35,0,0,0-.13,0l-.21.06-2.93,1.7-1.32.76a.7.7,0,0,0-.17.14,1.09,1.09,0,0,0-.13.17.21.21,0,0,0-.06.1s-.06.08-.08.12l0,0a.84.84,0,0,0-.09.25l-.42,4.73a.49.49,0,0,1,0,.16.37.37,0,0,1,0,.16,1.67,1.67,0,0,1-.35.57,23.7,23.7,0,0,0-2.38,2.51.78.78,0,0,1-.35.22.87.87,0,0,1-.48,0l-2.73-1c-.06,0-.13,0-.2,0l-.06,0a.19.19,0,0,0-.1,0h-.06s0,0-.05,0l-.16.09a.37.37,0,0,0-.13.15l-1.29,2.22-1.36,2.36-.48.84a.66.66,0,0,0-.08.41.68.68,0,0,0,.21.39l2.19,1.89a.7.7,0,0,1,.17.24.69.69,0,0,1,.08.32.53.53,0,0,1,0,.28,25.84,25.84,0,0,0-1,3.3,1.65,1.65,0,0,1-.54.83l-3.89,2.73a.94.94,0,0,0-.26.32,1,1,0,0,0-.18.51v4.92a.37.37,0,0,0,.15.31l4.94,2.86-1.8,3.62a.55.55,0,0,0,.22.73l6,3.46.26.16a.63.63,0,0,1-.22-.24.57.57,0,0,1,0-.51l2.52-5.08a.6.6,0,0,0,.06-.22,1.07,1.07,0,0,0-.12-.71,8.89,8.89,0,0,1-.83-1.87.45.45,0,0,0-.63-.29l-1.92.86-1.88.85a.3.3,0,0,1-.32,0,.36.36,0,0,1-.16-.32v-4.91a1,1,0,0,1,.16-.51.83.83,0,0,1,.28-.33l3.88-2.74a1,1,0,0,0,.29-.3,1.31,1.31,0,0,0,.25-.52,26.88,26.88,0,0,1,1-3.29,1.35,1.35,0,0,0,0-.28.82.82,0,0,0-.25-.57l-2.2-1.89a.62.62,0,0,1-.2-.38.7.7,0,0,1,.07-.43l.89-1.54,1.1-1.92,1.13-2a.63.63,0,0,1,.49-.29.48.48,0,0,1,.29,0l2.72,1a.91.91,0,0,0,.49,0,.88.88,0,0,0,.35-.24,26.84,26.84,0,0,1,2.37-2.5A1.43,1.43,0,0,0,548,612a.9.9,0,0,0,.1-.32l.43-4.74a.92.92,0,0,1,.07-.26,1.08,1.08,0,0,1,.44-.54l.8-.47,1.7-1,1.75-1a.39.39,0,0,1,.31,0h0a.32.32,0,0,1,.18.3l.22,2.16.19,2a.45.45,0,0,0,.57.39,8.19,8.19,0,0,1,2.05-.2,1,1,0,0,0,.59-.19.81.81,0,0,0,.23-.22l3.15-4.74a.56.56,0,0,1,.74-.17Z"/><path class="cls-6" d="M548.63,606.71a.92.92,0,0,0-.07.26l-.43,4.74a.9.9,0,0,1-.1.32l-6.24-3.62h0a1,1,0,0,0,.06-.16.49.49,0,0,0,0-.16l.42-4.73a.84.84,0,0,1,.09-.25Z"/><path class="cls-3" d="M545,615.33a.91.91,0,0,1-.49,0l-2.72-1a.48.48,0,0,0-.29,0l-6.17-3.59c.07,0,.14,0,.2,0l2.73,1a.87.87,0,0,0,.48,0Z"/><path class="cls-3" d="M540.44,623.34l-6.26-3.62h0a1.54,1.54,0,0,0,0-.31.7.7,0,0,0-.17-.24l-2.19-1.89a.68.68,0,0,1-.21-.39l6.26,3.62a.62.62,0,0,0,.2.38l2.2,1.89A.82.82,0,0,1,540.44,623.34Z"/><path class="cls-3" d="M540.41,637.7a.6.6,0,0,1-.06.22L537.83,643a.57.57,0,0,0,0,.51l0,.08h0l-6-3.47a.55.55,0,0,1-.22-.73l1.8-3.62,1.32.76h0a.3.3,0,0,0,.32,0l1.88-.85Z"/><path class="cls-3" d="M548.56,644.33a.4.4,0,0,0,.08.24l-4.86-2.79.91-1.36a1,1,0,0,1,.83-.41,9.1,9.1,0,0,0,2-.2.44.44,0,0,1,.57.39Z"/><path class="cls-6" d="M561.57,603a.56.56,0,0,0-.74.17l-3.15,4.74a.81.81,0,0,1-.23.22l-1.76-1-1.64-1-.22-2.16a.32.32,0,0,0-.18-.3h0c-.09,0-1.29-.75-1.29-.75l2.24-3.37s.06-.07.09-.07.07-.08.11-.1l.13-.06H555a.5.5,0,0,1,.36,0l2.74,1.6Z"/><path class="cls-3" d="M539.16,627.43a1,1,0,0,1-.29.3L535,630.47a.83.83,0,0,0-.28.33l-6.24-3.62a.94.94,0,0,1,.26-.32l3.89-2.73a1.45,1.45,0,0,0,.29-.31Z"/><path class="cls-4" d="M567.34,611.78l-3.78,1.71a.45.45,0,0,1-.63-.29,8.23,8.23,0,0,0-.85-1.87,1.08,1.08,0,0,1-.06-.93l2.52-5.08a.58.58,0,0,0-.22-.75L561.58,603a.57.57,0,0,0-.75.17l-3.15,4.74a1,1,0,0,1-.82.41,8.19,8.19,0,0,0-2.05.2.45.45,0,0,1-.57-.39l-.41-4.13a.32.32,0,0,0-.51-.27l-4.25,2.45a1.14,1.14,0,0,0-.51.8l-.43,4.74a1.64,1.64,0,0,1-.44.88,26.84,26.84,0,0,0-2.37,2.5.82.82,0,0,1-.84.24l-2.72-1a.68.68,0,0,0-.78.28l-3.12,5.42a.66.66,0,0,0,.13.81l2.2,1.89a.83.83,0,0,1,.21.85,26.88,26.88,0,0,0-1,3.29,1.47,1.47,0,0,1-.54.82L535,630.47a1.13,1.13,0,0,0-.44.84v4.91a.32.32,0,0,0,.48.32l3.8-1.71a.45.45,0,0,1,.63.29,8.89,8.89,0,0,0,.83,1.87,1.05,1.05,0,0,1,.06.93L537.83,643a.59.59,0,0,0,.22.75l2.74,1.58a.58.58,0,0,0,.76-.18l3.14-4.73a1,1,0,0,1,.83-.41,9.1,9.1,0,0,0,2-.2.44.44,0,0,1,.57.39l.43,4.13a.32.32,0,0,0,.51.27l4.25-2.46a1.18,1.18,0,0,0,.51-.79l.43-4.74a1.42,1.42,0,0,1,.43-.88,25.5,25.5,0,0,0,2.36-2.5.83.83,0,0,1,.84-.24l2.74,1a.67.67,0,0,0,.76-.3l3.12-5.4a.66.66,0,0,0-.13-.81l-2.18-1.89a.78.78,0,0,1-.22-.85,26.13,26.13,0,0,0,1-3.29,1.72,1.72,0,0,1,.54-.83l3.9-2.74a1.14,1.14,0,0,0,.42-.83V612.1A.32.32,0,0,0,567.34,611.78Zm-16.15,20.67c-4,2.3-7.19.44-7.19-4.14a15.91,15.91,0,0,1,7.19-12.46c4-2.28,7.18-.42,7.18,4.16A15.83,15.83,0,0,1,551.19,632.45Z"/><path class="cls-4" d="M538.09,654.5l-.2-.12-.14-.08s0,0-.08,0c-.29-.17-.63-.35-1-.55-1-.61-2.24-1.3-2.88-1.69,0,0,0,0-.08,0l-.26-.13,0,0h0l0,0,0,0a.65.65,0,0,0-.27,0l-2.68.27-.15,0-.08,0-.11.07-.1.08a.19.19,0,0,0-.06.07.29.29,0,0,0-.07.12l-1.45,3.89a.79.79,0,0,1-.24.3,1.12,1.12,0,0,1-.35.25c-.29.14-.57.29-.86.46l-2.79-1.62a.22.22,0,0,0-.14,0,.47.47,0,0,0-.3.15l-2.08,2.2-.85.9a.52.52,0,0,0-.12.17l-.1.2a.68.68,0,0,0,0,.17.2.2,0,0,0,0,.1l.83,2.78a.72.72,0,0,1,0,.35.83.83,0,0,1-.14.3,19.69,19.69,0,0,0-1.34,2.35,1,1,0,0,1-.31.32.92.92,0,0,1-.33.16l-2.51.61a.54.54,0,0,0-.19.07.52.52,0,0,0-.17.12.41.41,0,0,0-.12.11.42.42,0,0,0-.1.17l-.92,3.1-.34,1.15a.3.3,0,0,0,.1.32h0l1.67,1,.24.14.89.5,0,0c0,.39,0,.76,0,1.13a.77.77,0,0,1-.08.4,1,1,0,0,1-.15.27L515,678a.87.87,0,0,0-.16.34h0a.6.6,0,0,0,0,.35l1.21,2.64a.16.16,0,0,0,.06.08l0,0,5.07,2.93.27.15s0,0,0-.07l-.12-.27-.59-1.28-.51-1.13a.61.61,0,0,1,0-.33.71.71,0,0,1,.16-.31L523,678a1.31,1.31,0,0,0,.17-.28.77.77,0,0,0,.08-.39,11.65,11.65,0,0,1,0-2.21.37.37,0,0,0-.39-.38l-2.29-.12a.78.78,0,0,1-.18,0s0,0-.06,0a.31.31,0,0,1-.06-.3l.57-1.9,0-.14.66-2.22a1.3,1.3,0,0,1,.08-.17,1,1,0,0,1,.48-.3l2.52-.61a.77.77,0,0,0,.32-.15.73.73,0,0,0,.31-.32,24.07,24.07,0,0,1,1.36-2.34,1,1,0,0,0,.12-.32.76.76,0,0,0,0-.36l-.81-2.76a.62.62,0,0,1,0-.3l0,0a.7.7,0,0,1,.19-.32l2-2.09,1-1c.14-.15.31-.2.41-.13h0a.09.09,0,0,1,.06.06l1.37,2.09c.1.15.35.14.57,0a10.21,10.21,0,0,1,1.67-1,1.37,1.37,0,0,0,.3-.21.85.85,0,0,0,.27-.35l1.45-3.89a.48.48,0,0,1,.15-.2l1-.26,2.16-.22a.41.41,0,0,1,.2,0ZM526.73,683a.41.41,0,0,0-.27-.47,4.53,4.53,0,0,1-1.16-.68.49.49,0,0,0-.61.1l-2.72,2.5a.58.58,0,0,1-.31.13c.78.44,1.82,1,2.68,1.55l1.67,1a.22.22,0,0,1-.12-.25Zm12-28.1a.3.3,0,0,1,.12.27L538,659a.42.42,0,0,0,.27.47,4.8,4.8,0,0,1,1.16.67.47.47,0,0,0,.6-.1l2.73-2.49a.39.39,0,0,1,.39-.12Zm-3.55,28.23L533.79,681c-.1-.15-.35-.13-.57,0s-.54.35-.81.51l2.81,1.63S535.17,683.14,535.16,683.1Zm2.17-17.37a2.73,2.73,0,0,0-2.11-1.66h-.1a.18.18,0,0,0-.1,0h-.12a4.26,4.26,0,0,0-1.9.39,5.94,5.94,0,0,1,0,.74,11.85,11.85,0,0,1-5.37,9.3l-.62.33a4,4,0,0,0,.37,1.4,2.64,2.64,0,0,0,2.51,1.69h.25l.27,0,.23,0a1,1,0,0,0,.12,0l.15,0a7.6,7.6,0,0,0,3.47-2.26C537.16,672.62,538.46,668.24,537.33,665.73Zm4.21,0c0,.35,0,.71,0,1.06a.38.38,0,0,0,.39.39l2.29.12a.28.28,0,0,1,.17,0C544.17,667.27,542.84,666.49,541.54,665.75Z"/><path class="cls-3" d="M535.16,683.1s0,0,.06.07l-2.81-1.63q.4-.24.81-.51c.22-.15.47-.17.57,0Z"/><path class="cls-6" d="M525.89,686.81a.22.22,0,0,0,.12.25l-1.67-1c-.86-.51-1.9-1.11-2.68-1.55a.58.58,0,0,0,.31-.13l2.72-2.5a.49.49,0,0,1,.61-.1,4.53,4.53,0,0,0,1.16.68.41.41,0,0,1,.27.47Z"/><path class="cls-6" d="M523.15,677.73a.85.85,0,0,1-.18.27l-2.56,3.11a1,1,0,0,0-.15.31l-5.38-3.08A1.7,1.7,0,0,1,515,678l2.56-3.08a2.37,2.37,0,0,0,.15-.28Z"/><path class="cls-7" d="M523.22,675.13a11.55,11.55,0,0,0,0,2.2.61.61,0,0,1-.07.4l-5.4-3.12a.63.63,0,0,0,.06-.39c0-.37,0-.77,0-1.13l2.54,1.46s0,0,.06,0,.09.06.18.06l2.29.09C523.06,674.77,523.25,674.92,523.22,675.13Z"/><path class="cls-6" d="M524.92,668.75a.9.9,0,0,1-.33.16l-2.53.61a.68.68,0,0,0-.46.3l-5.4-3.11a.23.23,0,0,1,.12-.12.49.49,0,0,1,.18-.13.32.32,0,0,1,.18-.06l2.51-.61a.72.72,0,0,0,.33-.18Z"/><path class="cls-6" d="M526.72,665.43c0,.06,0,.21,0,.33l-5.37-3.11a.77.77,0,0,0,0-.37l-.82-2.77a.11.11,0,0,1,0-.09.31.31,0,0,1,.06-.16l5.4,3.09a1.13,1.13,0,0,0,0,.3Z"/><path class="cls-6" d="M535.33,655.3a.91.91,0,0,0-.15.21l-1.44,3.87a.9.9,0,0,1-.27.37l-5.4-3.11s.06-.06.06-.06a1.41,1.41,0,0,0,.21-.31l1.47-3.9s0-.06.06-.13,0,0,.06-.06Z"/><path class="cls-8" d="M535.34,655.31a.73.73,0,0,1,.44-.21l.52-.05"/><path class="cls-4" d="M544.34,667.37a.28.28,0,0,0-.17,0l-2.29-.12a.38.38,0,0,1-.39-.39c0-.35,0-.71,0-1.06s0-.77,0-1.14a1,1,0,0,1,.25-.68l2.56-3.1a.72.72,0,0,0,.15-.64l-1.21-2.68s0-.06-.1-.1a.39.39,0,0,0-.39.12L540,660a.47.47,0,0,1-.6.1,4.8,4.8,0,0,0-1.16-.67A.42.42,0,0,1,538,659l.84-3.84a.3.3,0,0,0-.12-.27.4.4,0,0,0-.25,0l-2.16.22-.52.05a.73.73,0,0,0-.44.21.48.48,0,0,0-.15.2l-1.45,3.89a.85.85,0,0,1-.27.35,1.37,1.37,0,0,1-.3.21,10.21,10.21,0,0,0-1.67,1c-.22.15-.47.16-.57,0l-1.37-2.09s0-.05-.08-.06-.27,0-.41.13l-1,1-2,2.09a.89.89,0,0,0-.21.34.62.62,0,0,0,0,.3l.81,2.76a.76.76,0,0,1,0,.36,1,1,0,0,1-.12.32,24.07,24.07,0,0,0-1.36,2.34.73.73,0,0,1-.31.32.77.77,0,0,1-.32.15l-2.52.61a1,1,0,0,0-.48.3,1.3,1.3,0,0,0-.08.17l-.66,2.22,0,.14-.57,1.9a.31.31,0,0,0,.06.3s0,0,.06,0a.78.78,0,0,0,.18,0l2.29.12a.37.37,0,0,1,.39.38,11.65,11.65,0,0,0,0,2.21.77.77,0,0,1-.08.39,1.31,1.31,0,0,1-.17.28l-2.56,3.1a.74.74,0,0,0-.16.64l.51,1.13.07.15c0,.12.11.24.16.37l.21.44c0,.13.11.26.17.39l.09.2,0,.07a.2.2,0,0,0,.15,0,.58.58,0,0,0,.31-.13l2.72-2.5a.49.49,0,0,1,.61-.1,4.53,4.53,0,0,0,1.16.68.41.41,0,0,1,.27.47l-.84,3.84a.26.26,0,0,0,.12.27.41.41,0,0,0,.25,0l2.68-.25a.81.81,0,0,0,.59-.42l1.45-3.88a1.3,1.3,0,0,1,.57-.57c.29-.13.57-.29.86-.45s.54-.33.81-.51.47-.17.57,0l1.37,2.09s0,0,.06.07a.35.35,0,0,0,.42-.14l3-3.1a.78.78,0,0,0,.22-.64l-.82-2.76a1,1,0,0,1,.15-.67,22.08,22.08,0,0,0,1.35-2.34,1,1,0,0,1,.64-.48l2.51-.6a.8.8,0,0,0,.57-.47l1.26-4.27A.28.28,0,0,0,544.34,667.37Zm-13.4,10.41-.15,0a1,1,0,0,1-.12,0l-.23,0-.27,0h-.25a2.64,2.64,0,0,1-2.51-1.69,4,4,0,0,1-.37-1.4,5,5,0,0,1,0-.77,12,12,0,0,1,3.31-7.62,9.19,9.19,0,0,1,2-1.63c.23-.13.45-.25.67-.35a4.26,4.26,0,0,1,1.9-.39H535a.18.18,0,0,1,.1,0h.1a2.73,2.73,0,0,1,2.11,1.66c1.13,2.51-.17,6.89-2.92,9.79A7.6,7.6,0,0,1,530.94,677.78Z"/><path class="cls-2" d="M535.39,727.21A20.39,20.39,0,0,0,524,736.63c-3.06,5.62-2.33,12.27.61,17.79a20.45,20.45,0,0,0-3.21,11c0,9.84,7.17,18.22,16.07,21.72l.9.31,2.76-1.6c-6.34-2.54-12.21-7.23-14.75-13.54a18.48,18.48,0,0,1,.45-14.46,22.2,22.2,0,0,0,5.31,4.94c5.49,3.6,16.18,6.3,21.18.54,3-3.44,2.38-8.35-.42-11.67a17.46,17.46,0,0,0-12.65-5.89,17.76,17.76,0,0,0-13.13,5.49,17.29,17.29,0,0,1-1.29-8.11c.62-6.62,5.38-11,11.11-13,4.53,7,14.53,13.48,22.26,7.45s-4.61-11.45-9.76-12a34.86,34.86,0,0,0-10.69.61,11.55,11.55,0,0,1-.7-6.39,13.84,13.84,0,0,1,5.27-8.18c5.82-4.6,14.6-5.74,20.79-1.28a1.14,1.14,0,1,0,1.45-1.75C553.33,697.42,528.9,711.31,535.39,727.21Zm-1.94,23.38a13.25,13.25,0,0,1,11.63-.53c3.24,1.41,6.94,4.43,6.42,8.38-.89,6.92-10.17,5-14.54,3.14a18.43,18.43,0,0,1-8.15-7.06A15.11,15.11,0,0,1,533.45,750.59Zm9.35-21.77a23.22,23.22,0,0,1,9.71.69c1.47.5,5.7,1.89,5.47,4-.14,1.33-2,2.34-3.12,2.79a8,8,0,0,1-5.06.24c-3.53-.93-6.56-3.51-8.76-6.33-.26-.34-.5-.69-.74-1C541.13,729.05,542,728.9,542.8,728.82Z"/><path class="cls-9" d="M535.39,727.21A20.39,20.39,0,0,0,524,736.63c-3.06,5.62-2.33,12.27.61,17.79a20.45,20.45,0,0,0-3.21,11c0,9.84,7.17,18.22,16.07,21.72l.9.31,2.76-1.6c-6.34-2.54-12.21-7.23-14.75-13.54a18.48,18.48,0,0,1,.45-14.46,22.2,22.2,0,0,0,5.31,4.94c5.49,3.6,16.18,6.3,21.18.54,3-3.44,2.38-8.35-.42-11.67a17.46,17.46,0,0,0-12.65-5.89,17.76,17.76,0,0,0-13.13,5.49,17.29,17.29,0,0,1-1.29-8.11c.62-6.62,5.38-11,11.11-13,4.53,7,14.53,13.48,22.26,7.45s-4.61-11.45-9.76-12a34.86,34.86,0,0,0-10.69.61,11.55,11.55,0,0,1-.7-6.39,13.84,13.84,0,0,1,5.27-8.18c5.82-4.6,14.6-5.74,20.79-1.28a1.14,1.14,0,1,0,1.45-1.75C553.33,697.42,528.9,711.31,535.39,727.21Zm-1.94,23.38a13.25,13.25,0,0,1,11.63-.53c3.24,1.41,6.94,4.43,6.42,8.38-.89,6.92-10.17,5-14.54,3.14a18.43,18.43,0,0,1-8.15-7.06A15.11,15.11,0,0,1,533.45,750.59Zm9.35-21.77a23.22,23.22,0,0,1,9.71.69c1.47.5,5.7,1.89,5.47,4-.14,1.33-2,2.34-3.12,2.79a8,8,0,0,1-5.06.24c-3.53-.93-6.56-3.51-8.76-6.33-.26-.34-.5-.69-.74-1C541.13,729.05,542,728.9,542.8,728.82Z"/><path class="cls-2" d="M525.73,760.93a18.43,18.43,0,0,1,1.08-3.08,12.71,12.71,0,0,1-2.22-3.43,20.26,20.26,0,0,0-1.72,3.34A27.47,27.47,0,0,0,525.73,760.93Z"/><path class="cls-2" d="M533.07,732a20.37,20.37,0,0,1,3.85-1.85,19,19,0,0,1-1.53-2.92,23.46,23.46,0,0,0-4.27,2A20.14,20.14,0,0,0,533.07,732Z"/><path class="cls-2" d="M538.35,787.45l2.76-1.6a30.38,30.38,0,0,1-3.41-1.63l-2.93,1.69a29.45,29.45,0,0,0,2.68,1.23Z"/><path class="cls-2" d="M611.42,736.57a20.33,20.33,0,0,0-14.25-4.06c-6.35.67-11.42,5-14.32,10.59a20.11,20.11,0,0,0-7.17,1.59,22,22,0,0,0-3.69,2c-7.26,5-10.29,14.13-9.25,22.68.12,1,.28,1.92.49,2.87.06.24.12.45.18.7l2.42-1.38c0-.27-.07-.51-.1-.76-.58-5.61.37-11.47,3.42-16.11a17.77,17.77,0,0,1,6.53-5.86,18.05,18.05,0,0,1,5.62-2,22.13,22.13,0,0,0-1,7.17c.15,6.56,4,16.9,11.56,17.76,4.52.49,8.21-2.78,9.37-7a17.38,17.38,0,0,0-2.32-13.76,17.77,17.77,0,0,0-12-7.69,17.56,17.56,0,0,1,5.92-5.68c5.83-3.23,12.09-1.77,17,1.77-3.23,7.75-2.84,19.62,6.5,22.55s6.81-10.28,4.3-14.8a34.62,34.62,0,0,0-6.56-8.45,11.62,11.62,0,0,1,4.85-4.21,13.9,13.9,0,0,1,9.74-.31c7.08,2.2,13,8.79,12.85,16.42a1.13,1.13,0,1,0,2.25.18C646.11,734.44,620.82,722.2,611.42,736.57Zm-20.36,11.66a13.22,13.22,0,0,1,7,9.28c.67,3.48.31,8.24-3.23,10-6.23,3.2-9.89-5.56-10.87-10.2a18.82,18.82,0,0,1,1.19-10.71A15,15,0,0,1,591.06,748.23Zm23.23-4.64a23.42,23.42,0,0,1,4.94,8.36c.43,1.5,1.68,5.8-.25,6.81-1.16.64-3.05-.34-4.05-1a7.87,7.87,0,0,1-3.06-4c-1.25-3.45-.82-7.38.25-10.8a11.7,11.7,0,0,1,.43-1.22C613.16,742.34,613.74,743,614.29,743.59Z"/><path class="cls-9" d="M611.42,736.57a20.33,20.33,0,0,0-14.25-4.06c-6.35.67-11.42,5-14.32,10.59a20.11,20.11,0,0,0-7.17,1.59,22,22,0,0,0-3.69,2c-7.26,5-10.29,14.13-9.25,22.68.12,1,.28,1.92.49,2.87.06.24.12.45.18.7l2.42-1.38c0-.27-.07-.51-.1-.76-.58-5.61.37-11.47,3.42-16.11a17.77,17.77,0,0,1,6.53-5.86,18.05,18.05,0,0,1,5.62-2,22.13,22.13,0,0,0-1,7.17c.15,6.56,4,16.9,11.56,17.76,4.52.49,8.21-2.78,9.37-7a17.38,17.38,0,0,0-2.32-13.76,17.77,17.77,0,0,0-12-7.69,17.56,17.56,0,0,1,5.92-5.68c5.83-3.23,12.09-1.77,17,1.77-3.23,7.75-2.84,19.62,6.5,22.55s6.81-10.28,4.3-14.8a34.62,34.62,0,0,0-6.56-8.45,11.62,11.62,0,0,1,4.85-4.21,13.9,13.9,0,0,1,9.74-.31c7.08,2.2,13,8.79,12.85,16.42a1.13,1.13,0,1,0,2.25.18C646.11,734.44,620.82,722.2,611.42,736.57Zm-20.36,11.66a13.22,13.22,0,0,1,7,9.28c.67,3.48.31,8.24-3.23,10-6.23,3.2-9.89-5.56-10.87-10.2a18.82,18.82,0,0,1,1.19-10.71A15,15,0,0,1,591.06,748.23Zm23.23-4.64a23.42,23.42,0,0,1,4.94,8.36c.43,1.5,1.68,5.8-.25,6.81-1.16.64-3.05-.34-4.05-1a7.87,7.87,0,0,1-3.06-4c-1.25-3.45-.82-7.38.25-10.8a11.7,11.7,0,0,1,.43-1.22C613.16,742.34,613.74,743,614.29,743.59Z"/><path class="cls-2" d="M578.16,747.73a19,19,0,0,1,3.15-.85,12.43,12.43,0,0,1,1.56-3.77,20.55,20.55,0,0,0-3.73.52A25.67,25.67,0,0,0,578.16,747.73Z"/><path class="cls-2" d="M606.16,737.36a20.76,20.76,0,0,1,3.71,2.12,18.84,18.84,0,0,1,1.54-2.92,24.12,24.12,0,0,0-4.14-2.33A19.14,19.14,0,0,0,606.16,737.36Z"/><path class="cls-2" d="M563.41,773c-.06-.25-.12-.46-.18-.7-.21-1-.37-1.9-.49-2.87l3,1.43s.06.52.1.76Z"/><path class="cls-1" d="M568.79,422.52,397.45,521.44a15.25,15.25,0,0,0-6.9,11.95V592.2c0,4.41,3.09,6.19,6.9,4l171.34-98.92a15.29,15.29,0,0,0,6.9-12V426.5C575.69,422.1,572.6,420.32,568.79,422.52Z"/><path class="cls-2" d="M562.74,448.43c0,4.13-3.09,9.26-6.9,11.46l-145.44,84c-3.81,2.2-6.9.63-6.9-3.49s3.09-9.26,6.9-11.46l145.44-84C559.65,442.74,562.74,444.31,562.74,448.43Z"/><path class="cls-4" d="M562.74,478.33c0,4.13-3.09,9.26-6.9,11.46l-145.44,84c-3.81,2.2-6.9.63-6.9-3.5s3.09-9.25,6.9-11.45l145.44-84C559.65,472.64,562.74,474.2,562.74,478.33Z"/><path class="cls-2" d="M555.84,474.84l-61.72,35.64v14.95l61.72-35.64c3.81-2.2,6.9-7.33,6.9-11.46S559.65,472.64,555.84,474.84Z"/><path class="cls-2" d="M331.2,284.06c-7.16-4.14-12.95-.37-12.95,8.43V608.84c0,8.8,5.79,19.3,12.94,23.44s12.95.37,12.95-8.43V307.5C344.14,298.7,338.34,288.21,331.2,284.06Z"/><path class="cls-10" d="M331.2,284.06c-7.16-4.14-12.95-.37-12.95,8.43V608.84c0,8.8,5.79,19.3,12.94,23.44s12.95.37,12.95-8.43V307.5C344.14,298.7,338.34,288.21,331.2,284.06Z"/><path class="cls-4" d="M331.19,624.71c-3.57-2.06-6.47-7.3-6.47-11.7V295.7c0-4.4,2.9-6.29,6.48-4.23s6.47,7.31,6.47,11.71v317.3C337.67,624.88,334.77,626.78,331.19,624.71Z"/><path class="cls-2" d="M331.19,624.71c-3.57-2.06-6.47-7.3-6.47-11.7V458l12.95,7.47v155C337.67,624.88,334.77,626.78,331.19,624.71Z"/><path class="cls-2" d="M292.36,261.64c-7.15-4.15-12.95-.37-12.95,8.43V586.42c0,8.8,5.79,19.29,12.94,23.44s12.95.37,12.95-8.43V285.08C305.3,276.28,299.51,265.78,292.36,261.64Z"/><path class="cls-10" d="M292.36,261.64c-7.15-4.15-12.95-.37-12.95,8.43V586.42c0,8.8,5.79,19.29,12.94,23.44s12.95.37,12.95-8.43V285.08C305.3,276.28,299.51,265.78,292.36,261.64Z"/><path class="cls-2" d="M292.35,602.29c-3.57-2.06-6.47-7.3-6.47-11.7V273.28c0-4.4,2.9-6.29,6.48-4.23s6.47,7.3,6.47,11.71v317.3C298.83,602.46,295.93,604.36,292.35,602.29Z"/><path class="cls-2" d="M253.52,239.22c-7.15-4.15-13-.37-13,8.43V564c0,8.8,5.8,19.29,13,23.44s12.94.37,12.94-8.43V262.66C266.46,253.86,260.67,243.36,253.52,239.22Z"/><path class="cls-10" d="M253.52,239.22c-7.15-4.15-13-.37-13,8.43V564c0,8.8,5.8,19.29,13,23.44s12.94.37,12.94-8.43V262.66C266.46,253.86,260.67,243.36,253.52,239.22Z"/><path class="cls-4" d="M253.52,579.87c-3.58-2.06-6.48-7.3-6.48-11.71V250.86c0-4.4,2.89-6.3,6.47-4.23s6.47,7.3,6.47,11.7V575.64C260,580,257.09,581.93,253.52,579.87Z"/><path class="cls-2" d="M253.52,579.87c-3.58-2.06-6.48-7.3-6.48-11.71V337.77L260,345.24v230.4C260,580,257.09,581.93,253.52,579.87Z"/><path class="cls-2" d="M214.68,216.79c-7.15-4.14-13-.37-13,8.43V541.57c0,8.81,5.8,19.3,13,23.45s12.94.37,12.94-8.44V240.23C227.63,231.43,221.83,220.94,214.68,216.79Z"/><path class="cls-10" d="M214.68,216.79c-7.15-4.14-13-.37-13,8.43V541.57c0,8.81,5.8,19.3,13,23.45s12.94.37,12.94-8.44V240.23C227.63,231.43,221.83,220.94,214.68,216.79Z"/><path class="cls-4" d="M214.68,557.45c-3.58-2.07-6.48-7.31-6.48-11.71V228.44c0-4.4,2.9-6.3,6.47-4.23s6.47,7.3,6.47,11.7V553.22C221.15,557.62,218.25,559.51,214.68,557.45Z"/><path class="cls-2" d="M214.68,557.45c-3.58-2.07-6.48-7.31-6.47-11.71V487.88l12.94,7.47v57.87C221.15,557.62,218.25,559.51,214.68,557.45Z"/><path class="cls-2" d="M175.84,194.37c-7.15-4.14-13-.37-13,8.43V519.15c0,8.8,5.8,19.3,13,23.44s12.95.37,12.95-8.43V217.81C188.79,209,183,198.52,175.84,194.37Z"/><path class="cls-10" d="M175.84,194.37c-7.15-4.14-13-.37-13,8.43V519.15c0,8.8,5.8,19.3,13,23.44s12.95.37,12.95-8.43V217.81C188.79,209,183,198.52,175.84,194.37Z"/><path class="cls-4" d="M175.84,535c-3.58-2.07-6.47-7.31-6.47-11.71V206c0-4.41,2.9-6.3,6.47-4.24s6.48,7.31,6.48,11.71V530.8C182.31,535.2,179.41,537.09,175.84,535Z"/><path class="cls-2" d="M175.84,535c-3.58-2.07-6.47-7.31-6.47-11.71v-170l12.95,7.47v170C182.31,535.2,179.41,537.09,175.84,535Z"/><path class="cls-4" d="M568.79,184,397.45,282.91a15.25,15.25,0,0,0-6.9,11.95V491.94c0,4.4,3.09,6.19,6.9,4L568.79,397a15.25,15.25,0,0,0,6.9-11.95V188C575.69,183.57,572.6,181.79,568.79,184Z"/><path class="cls-4" d="M392.42,288.35a14,14,0,0,0-1.87,6.51V491.94c0,4.4,3.09,6.19,6.9,4L568.79,397a14.17,14.17,0,0,0,5-5.42Z"/><path class="cls-1" d="M397.45,282.91a15.25,15.25,0,0,0-6.9,11.95V491.94L561.88,393a15.25,15.25,0,0,0,6.9-11.95V184Z"/><g id="Dead_Emoji" data-name="Dead Emoji"><line class="cls-11" x1="431.09" y1="309.23" x2="453.87" y2="331.14"/><line class="cls-11" x1="431.09" y1="344.29" x2="453.87" y2="296.08"/><line class="cls-11" x1="505.47" y1="266.29" x2="528.24" y2="288.2"/><line class="cls-11" x1="505.47" y1="301.35" x2="528.24" y2="253.14"/><line class="cls-11" x1="430.08" y1="398.91" x2="529.25" y2="341.66"/><path class="cls-11" d="M492.06,363.13v27.68c0,8.43,5.55,12.06,12.4,8.1s12.4-14,12.4-22.41V348.82"/><line class="cls-11" x1="504.46" y1="355.97" x2="504.46" y2="382.7"/></g><g id="Server-2" data-name="Server"><path class="cls-4" d="M191.35,795.59a6.76,6.76,0,0,1,3.05,5.29c0,2-1.37,2.74-3.05,1.76a6.74,6.74,0,0,1-3.06-5.29C188.29,795.41,189.66,794.62,191.35,795.59Z"/><path class="cls-4" d="M216.79,810.31a6.72,6.72,0,0,1,3,5.27c0,1.94-1.36,2.72-3,1.75a6.72,6.72,0,0,1-3-5.27C213.75,810.12,215.11,809.34,216.79,810.31Z"/><path class="cls-4" d="M241.8,824.74a6.71,6.71,0,0,1,3,5.26c0,1.93-1.36,2.71-3,1.75a6.72,6.72,0,0,1-3-5.26C238.77,824.56,240.13,823.78,241.8,824.74Z"/><path class="cls-4" d="M267,839.32a6.67,6.67,0,0,1,3,5.23c0,1.93-1.35,2.71-3,1.75a6.69,6.69,0,0,1-3-5.24C264,839.14,265.36,838.36,267,839.32Z"/><path class="cls-4" d="M161.66,646l25.86,14.85a16.22,16.22,0,0,1,7.33,12.7v14.84c0,4.67-3.28,6.57-7.33,4.23l-25.86-14.86a16.18,16.18,0,0,1-7.33-12.7V650.21C154.33,645.53,157.61,643.64,161.66,646Z"/><path class="cls-2" d="M168.63,662.71l3.36-1.94h0c1.15-.64,2.73-.55,4.48.46a14.09,14.09,0,0,1,6.37,11c0,2-.71,3.45-1.86,4.12h0l-3.13,1.8-.57-.95a6.32,6.32,0,0,1-1.82-.71,14.08,14.08,0,0,1-6.38-11,6.71,6.71,0,0,1,.2-1.62Z"/><path class="cls-12" d="M168.63,662.71l3.36-1.94h0c1.15-.64,2.73-.55,4.48.46a14.09,14.09,0,0,1,6.37,11c0,2-.71,3.45-1.86,4.12h0l-3.13,1.8-.57-.95a6.32,6.32,0,0,1-1.82-.71,14.08,14.08,0,0,1-6.38-11,6.71,6.71,0,0,1,.2-1.62Z"/><path class="cls-2" d="M173.27,663.07a14.07,14.07,0,0,1,6.37,11c0,4.06-2.85,5.71-6.37,3.68a14.11,14.11,0,0,1-6.38-11C166.89,662.68,169.75,661,173.27,663.07Z"/><path class="cls-1" d="M161.66,574.55l25.86,14.85a16.22,16.22,0,0,1,7.33,12.7v14.84c0,4.67-3.28,6.57-7.33,4.23l-25.86-14.86a16.2,16.2,0,0,1-7.33-12.7V578.78C154.33,574.1,157.61,572.21,161.66,574.55Z"/><path class="cls-2" d="M168.63,591.28l3.36-1.94h0c1.15-.65,2.73-.55,4.48.46a14.07,14.07,0,0,1,6.37,11c0,2-.71,3.45-1.86,4.12h0l-3.13,1.8-.57-1a6.32,6.32,0,0,1-1.82-.71,14.08,14.08,0,0,1-6.38-11,6.71,6.71,0,0,1,.2-1.62Z"/><path class="cls-12" d="M168.63,591.28l3.36-1.94h0c1.15-.65,2.73-.55,4.48.46a14.07,14.07,0,0,1,6.37,11c0,2-.71,3.45-1.86,4.12h0l-3.13,1.8-.57-1a6.32,6.32,0,0,1-1.82-.71,14.08,14.08,0,0,1-6.38-11,6.71,6.71,0,0,1,.2-1.62Z"/><path class="cls-2" d="M173.27,591.64a14.07,14.07,0,0,1,6.37,11c0,4.06-2.85,5.71-6.37,3.67a14.08,14.08,0,0,1-6.38-11C166.89,591.25,169.75,589.61,173.27,591.64Z"/><path class="cls-1" d="M567.64,520.4,447.82,589.58c-4.44,2.57-8.05,8.81-8.05,13.95v16.28c0,5.14,3.6,7.22,8.05,4.65l119.82-69.18c4.45-2.56,8.05-8.81,8.05-13.94V525.05C575.69,519.92,572.08,517.84,567.64,520.4Z"/><path class="cls-2" d="M567.2,534.2v7.9a3.56,3.56,0,0,1-1.61,2.79l-1.81,1c-.89.52-1.61.1-1.61-.93v-7.9a3.58,3.58,0,0,1,1.61-2.79l1.81-1C566.48,532.76,567.2,533.17,567.2,534.2Z"/><path class="cls-2" d="M559.06,538.89v7.9a3.56,3.56,0,0,1-1.61,2.79l-1.81,1c-.89.52-1.61.1-1.61-.93v-7.9a3.58,3.58,0,0,1,1.61-2.79l1.81-1C558.34,537.45,559.06,537.86,559.06,538.89Z"/><path class="cls-2" d="M550.93,543.58v7.9a3.56,3.56,0,0,1-1.61,2.79l-1.81,1c-.89.52-1.61.1-1.61-.93v-7.9a3.58,3.58,0,0,1,1.61-2.79l1.82-1C550.2,542.14,550.93,542.55,550.93,543.58Z"/><path class="cls-2" d="M542.79,548.27v7.9a3.56,3.56,0,0,1-1.61,2.79l-1.81,1c-.89.52-1.61.1-1.61-.93v-7.9a3.55,3.55,0,0,1,1.61-2.78l1.81-1C542.07,546.83,542.79,547.24,542.79,548.27Z"/><path class="cls-4" d="M534.65,553v7.9a3.56,3.56,0,0,1-1.61,2.79l-1.81,1c-.89.52-1.61.1-1.61-.93v-7.9a3.55,3.55,0,0,1,1.61-2.78L533,552C533.93,551.52,534.65,551.93,534.65,553Z"/><path class="cls-4" d="M526.52,557.65v7.9a3.56,3.56,0,0,1-1.61,2.79l-1.81,1c-.89.52-1.61.1-1.61-.93v-7.9a3.55,3.55,0,0,1,1.61-2.78l1.81-1C525.8,556.21,526.52,556.62,526.52,557.65Z"/><path class="cls-2" d="M518.38,562.34v7.9a3.55,3.55,0,0,1-1.61,2.79l-1.81,1c-.89.52-1.61.1-1.61-.93v-7.9a3.55,3.55,0,0,1,1.61-2.78l1.81-1.05C517.66,560.9,518.38,561.31,518.38,562.34Z"/><path class="cls-2" d="M510.25,567v7.9a3.58,3.58,0,0,1-1.61,2.79l-1.82,1c-.88.52-1.61.1-1.61-.93v-7.9a3.57,3.57,0,0,1,1.61-2.78l1.82-1C509.52,565.59,510.25,566,510.25,567Z"/><path class="cls-2" d="M502.11,571.72v7.9a3.55,3.55,0,0,1-1.61,2.79l-1.81,1c-.89.52-1.61.1-1.61-.92v-7.91a3.55,3.55,0,0,1,1.61-2.78l1.81-1.05C501.39,570.28,502.11,570.69,502.11,571.72Z"/><path class="cls-4" d="M494,576.41v7.9a3.55,3.55,0,0,1-1.61,2.79l-1.81,1c-.89.52-1.61.1-1.61-.92v-7.91a3.55,3.55,0,0,1,1.61-2.78l1.81-1C493.25,575,494,575.38,494,576.41Z"/><path class="cls-2" d="M485.84,581.1V589a3.55,3.55,0,0,1-1.61,2.79l-1.81,1c-.89.52-1.61.1-1.61-.93V584a3.55,3.55,0,0,1,1.61-2.78l1.81-1.05C485.12,579.66,485.84,580.07,485.84,581.1Z"/><path class="cls-2" d="M477.7,585.79v7.9a3.55,3.55,0,0,1-1.61,2.79l-1.81,1c-.89.52-1.61.1-1.61-.92v-7.91a3.55,3.55,0,0,1,1.61-2.78l1.81-1C477,584.35,477.7,584.76,477.7,585.79Z"/><path class="cls-4" d="M469.57,590.48v7.9a3.58,3.58,0,0,1-1.61,2.79l-1.82,1c-.88.52-1.61.1-1.61-.92v-7.91a3.57,3.57,0,0,1,1.61-2.78l1.82-1.05C468.85,589,469.57,589.45,469.57,590.48Z"/><path class="cls-2" d="M461.43,595.17v7.9a3.55,3.55,0,0,1-1.61,2.79l-1.81,1c-.89.52-1.61.1-1.61-.92v-7.91a3.55,3.55,0,0,1,1.61-2.78l1.81-1C460.71,593.73,461.43,594.14,461.43,595.17Z"/><path class="cls-4" d="M453.29,599.86v7.9a3.55,3.55,0,0,1-1.61,2.79l-1.81,1c-.89.52-1.61.1-1.61-.92v-7.91a3.55,3.55,0,0,1,1.61-2.78l1.81-1.05C452.57,598.42,453.29,598.83,453.29,599.86Z"/><path class="cls-1" d="M427.67,615.69l-3.37-1.94h0c-1.15-.65-2.73-.55-4.47.46a14.08,14.08,0,0,0-6.38,11c0,2,.72,3.46,1.86,4.13h0l3.13,1.79.56-.94a6.68,6.68,0,0,0,1.83-.71,14.09,14.09,0,0,0,6.37-11,6.8,6.8,0,0,0-.2-1.63Z"/><path class="cls-2" d="M423,616.05a14.1,14.1,0,0,0-6.37,11c0,4.07,2.85,5.71,6.37,3.68a14.07,14.07,0,0,0,6.37-11C429.4,615.67,426.55,614,423,616.05Z"/><path class="cls-13" d="M423,616.05a14.1,14.1,0,0,0-6.37,11c0,4.07,2.85,5.71,6.37,3.68a14.07,14.07,0,0,0,6.37-11C429.4,615.67,426.55,614,423,616.05Z"/><path class="cls-1" d="M400,631.66l-3.36-1.94h0c-1.15-.65-2.73-.55-4.48.46a14.07,14.07,0,0,0-6.37,11c0,2,.71,3.45,1.86,4.12h0l3.13,1.8.56-1a6.38,6.38,0,0,0,1.83-.71,14.07,14.07,0,0,0,6.37-11,6.71,6.71,0,0,0-.2-1.62Z"/><path class="cls-2" d="M395.37,632a14.08,14.08,0,0,0-6.38,11c0,4.06,2.86,5.71,6.37,3.68a14.11,14.11,0,0,0,6.38-11C401.74,631.63,398.88,630,395.37,632Z"/><path class="cls-13" d="M395.37,632a14.08,14.08,0,0,0-6.38,11c0,4.06,2.86,5.71,6.37,3.68a14.11,14.11,0,0,0,6.38-11C401.74,631.63,398.88,630,395.37,632Z"/><path class="cls-1" d="M215.62,599.91,341,672.25a9,9,0,0,1,4.06,7v34.63c0,2.59-1.82,3.64-4.07,2.34L215.63,643.92a9,9,0,0,1-4.07-7V602.26C211.56,599.67,213.38,598.62,215.62,599.91Z"/><path class="cls-2" d="M219.18,615.17a8.72,8.72,0,0,0,4.07,6.75L333.4,685.45c2.25,1.3,4.07.38,4.07-2.05a8.72,8.72,0,0,0-4.07-6.75L223.25,613.12C221,611.82,219.18,612.74,219.18,615.17Z"/><path class="cls-4" d="M219.18,632.78a8.68,8.68,0,0,0,4.07,6.74L333.4,703.06c2.25,1.29,4.07.37,4.07-2.06a8.68,8.68,0,0,0-4.07-6.74L223.25,630.72C221,629.42,219.18,630.35,219.18,632.78Z"/><path class="cls-2" d="M223.25,630.72l60.85,35.07v8.81l-60.85-35.08a8.68,8.68,0,0,1-4.07-6.74C219.18,630.35,221,629.42,223.25,630.72Z"/><path class="cls-4" d="M161.66,574.55l25.86,14.85a16.22,16.22,0,0,1,7.33,12.7v14.84c0,4.67-3.28,6.57-7.33,4.23l-25.86-14.86a16.2,16.2,0,0,1-7.33-12.7V578.78C154.33,574.1,157.61,572.21,161.66,574.55Z"/><path class="cls-2" d="M168.63,591.28l3.36-1.94h0c1.15-.65,2.73-.55,4.48.46a14.07,14.07,0,0,1,6.37,11c0,2-.71,3.45-1.86,4.12h0l-3.13,1.8-.57-1a6.32,6.32,0,0,1-1.82-.71,14.08,14.08,0,0,1-6.38-11,6.71,6.71,0,0,1,.2-1.62Z"/><path class="cls-12" d="M168.63,591.28l3.36-1.94h0c1.15-.65,2.73-.55,4.48.46a14.07,14.07,0,0,1,6.37,11c0,2-.71,3.45-1.86,4.12h0l-3.13,1.8-.57-1a6.32,6.32,0,0,1-1.82-.71,14.08,14.08,0,0,1-6.38-11,6.71,6.71,0,0,1,.2-1.62Z"/><path class="cls-2" d="M173.27,591.64a14.07,14.07,0,0,1,6.37,11c0,4.06-2.85,5.71-6.37,3.67a14.08,14.08,0,0,1-6.38-11C166.89,591.25,169.75,589.61,173.27,591.64Z"/><path class="cls-4" d="M215.62,599.91,341,672.25a9,9,0,0,1,4.06,7v34.63c0,2.59-1.82,3.64-4.07,2.34L215.63,643.92a9,9,0,0,1-4.07-7V602.26C211.56,599.67,213.38,598.62,215.62,599.91Z"/><path class="cls-2" d="M219.18,615.17a8.72,8.72,0,0,0,4.07,6.75L333.4,685.45c2.25,1.3,4.07.38,4.07-2.05a8.72,8.72,0,0,0-4.07-6.75L223.25,613.12C221,611.82,219.18,612.74,219.18,615.17Z"/><path class="cls-4" d="M219.18,632.78a8.68,8.68,0,0,0,4.07,6.74L333.4,703.06c2.25,1.29,4.07.37,4.07-2.06a8.68,8.68,0,0,0-4.07-6.74L223.25,630.72C221,629.42,219.18,630.35,219.18,632.78Z"/><path class="cls-2" d="M223.25,630.72l60.85,35.07v8.81l-60.85-35.08a8.68,8.68,0,0,1-4.07-6.74C219.18,630.35,221,629.42,223.25,630.72Z"/><path class="cls-4" d="M215.62,671.54,341,743.87a9,9,0,0,1,4.06,7v34.63c0,2.59-1.82,3.64-4.07,2.35L215.63,715.55a9,9,0,0,1-4.07-7V673.88C211.56,671.29,213.38,670.24,215.62,671.54Z"/><path class="cls-2" d="M219.18,686.8a8.68,8.68,0,0,0,4.07,6.74L333.4,757.08c2.25,1.29,4.07.37,4.07-2.06a8.68,8.68,0,0,0-4.07-6.74L223.25,684.74C221,683.45,219.18,684.37,219.18,686.8Z"/><path class="cls-4" d="M219.18,704.4a8.72,8.72,0,0,0,4.07,6.75L333.4,774.68c2.25,1.3,4.07.38,4.07-2a8.72,8.72,0,0,0-4.07-6.75L223.25,702.35C221,701.05,219.18,702,219.18,704.4Z"/><path class="cls-2" d="M223.25,702.35l76.1,43.87V755l-76.1-43.87a8.72,8.72,0,0,1-4.07-6.75C219.18,702,221,701.05,223.25,702.35Z"/></g><path class="cls-1" d="M161.66,717.82l25.86,14.86a16.18,16.18,0,0,1,7.33,12.7v14.83c0,4.68-3.28,6.57-7.33,4.23l-25.86-14.85a16.22,16.22,0,0,1-7.33-12.7V722.05C154.33,717.38,157.61,715.48,161.66,717.82Z"/><path class="cls-2" d="M168.63,734.55l3.36-1.94h0l0,0h0c1.15-.65,2.73-.56,4.48.45a14.1,14.1,0,0,1,6.37,11c0,2-.71,3.46-1.86,4.12h0L177.88,750l-.57-1a6.32,6.32,0,0,1-1.82-.71,14.08,14.08,0,0,1-6.38-11,6.73,6.73,0,0,1,.2-1.63Z"/><path class="cls-12" d="M168.63,734.55l3.36-1.94h0l0,0h0c1.15-.65,2.73-.56,4.48.45a14.1,14.1,0,0,1,6.37,11c0,2-.71,3.46-1.86,4.12h0L177.88,750l-.57-1a6.32,6.32,0,0,1-1.82-.71,14.08,14.08,0,0,1-6.38-11,6.73,6.73,0,0,1,.2-1.63Z"/><path class="cls-2" d="M173.27,734.91a14.07,14.07,0,0,1,6.37,11c0,4.06-2.85,5.71-6.37,3.68a14.1,14.1,0,0,1-6.38-11C166.89,734.53,169.75,732.88,173.27,734.91Z"/><path class="cls-4" d="M161.66,717.82l25.86,14.86a16.18,16.18,0,0,1,7.33,12.7v14.83c0,4.68-3.28,6.57-7.33,4.23l-25.86-14.85a16.22,16.22,0,0,1-7.33-12.7V722.05C154.33,717.38,157.61,715.48,161.66,717.82Z"/><path class="cls-2" d="M168.63,734.55l3.36-1.94h0l0,0h0c1.15-.65,2.73-.56,4.48.45a14.1,14.1,0,0,1,6.37,11c0,2-.71,3.46-1.86,4.12h0L177.88,750l-.57-1a6.32,6.32,0,0,1-1.82-.71,14.08,14.08,0,0,1-6.38-11,6.73,6.73,0,0,1,.2-1.63Z"/><path class="cls-12" d="M168.63,734.55l3.36-1.94h0l0,0h0c1.15-.65,2.73-.56,4.48.45a14.1,14.1,0,0,1,6.37,11c0,2-.71,3.46-1.86,4.12h0L177.88,750l-.57-1a6.32,6.32,0,0,1-1.82-.71,14.08,14.08,0,0,1-6.38-11,6.73,6.73,0,0,1,.2-1.63Z"/><path class="cls-2" d="M173.27,734.91a14.07,14.07,0,0,1,6.37,11c0,4.06-2.85,5.71-6.37,3.68a14.1,14.1,0,0,1-6.38-11C166.89,734.53,169.75,732.88,173.27,734.91Z"/><path class="cls-4" d="M215.62,743.18,341,815.52a9,9,0,0,1,4.06,7v34.63c0,2.59-1.82,3.64-4.07,2.35L215.63,787.2a9,9,0,0,1-4.07-7V745.53C211.56,742.94,213.38,741.89,215.62,743.18Z"/><path class="cls-2" d="M219.18,758.44a8.7,8.7,0,0,0,4.07,6.75L333.4,828.73c2.25,1.29,4.07.37,4.07-2.06a8.72,8.72,0,0,0-4.07-6.75L223.25,756.39C221,755.09,219.18,756,219.18,758.44Z"/><path class="cls-4" d="M219.18,776.05a8.72,8.72,0,0,0,4.07,6.75L333.4,846.33c2.25,1.3,4.07.38,4.07-2.05a8.72,8.72,0,0,0-4.07-6.75L223.25,774C221,772.7,219.18,773.62,219.18,776.05Z"/><path class="cls-2" d="M223.25,774l60.85,35.08v8.8L223.25,782.8a8.72,8.72,0,0,1-4.07-6.75C219.18,773.62,221,772.7,223.25,774Z"/><path class="cls-6" d="M541.53,149.62,374.31,246.16a9.55,9.55,0,0,1-8.65,0L198.44,149.62c-2.39-1.38-2.39-3.62,0-5L365.66,51.41a9.57,9.57,0,0,1,8.66,0l167.21,93.21C543.92,146,543.92,148.24,541.53,149.62Z"/><path class="cls-2" d="M374.13,240.88l160-92.39a9.17,9.17,0,0,0,4.14-7.17v-5.39a9.17,9.17,0,0,0-4.14-7.17l-160-92.38a9.15,9.15,0,0,0-8.28,0l-160,92.38a9.14,9.14,0,0,0-4.14,7.17v5.39a9.14,9.14,0,0,0,4.14,7.17l160,92.39A9.15,9.15,0,0,0,374.13,240.88Z"/><path class="cls-14" d="M374.13,240.88l160-92.39a9.17,9.17,0,0,0,4.14-7.17v-5.39a9.17,9.17,0,0,0-4.14-7.17l-160-92.38a9.15,9.15,0,0,0-8.28,0l-160,92.38a9.14,9.14,0,0,0-4.14,7.17v5.39a9.14,9.14,0,0,0,4.14,7.17l160,92.39A9.15,9.15,0,0,0,374.13,240.88Z"/><path class="cls-7" d="M374.13,240.88l160-92.39a9.17,9.17,0,0,0,4.14-7.17v-5.39a9.17,9.17,0,0,0-4.14-7.17l-160-92.38a9.15,9.15,0,0,0-8.28,0l-160,92.38a9.14,9.14,0,0,0-4.14,7.17v5.39a9.14,9.14,0,0,0,4.14,7.17l160,92.39A9.15,9.15,0,0,0,374.13,240.88Z"/><path class="cls-2" d="M534.15,133.54l-160,92.39a9.15,9.15,0,0,1-8.28,0l-160-92.39c-2.29-1.32-2.29-3.46,0-4.78l160-89.19a9.15,9.15,0,0,1,8.28,0l160,89.19C536.43,130.08,536.43,132.22,534.15,133.54Z"/><path class="cls-9" d="M534.15,133.54l-160,92.39a9.15,9.15,0,0,1-8.28,0l-160-92.39c-2.29-1.32-2.29-3.46,0-4.78l160-89.19a9.15,9.15,0,0,1,8.28,0l160,89.19C536.43,130.08,536.43,132.22,534.15,133.54Z"/><path class="cls-2" d="M370,226.91v15a8.34,8.34,0,0,0,4.14-1l160-92.39a9.12,9.12,0,0,0,4.14-7.17v-5.39a9.2,9.2,0,0,0-3.38-6.63c1.5,1.31,1.24,3.09-.76,4.24l-160,92.39A8.34,8.34,0,0,1,370,226.91Z"/><path class="cls-15" d="M370,226.91v15a8.34,8.34,0,0,0,4.14-1l160-92.39a9.12,9.12,0,0,0,4.14-7.17v-5.39a9.2,9.2,0,0,0-3.38-6.63c1.5,1.31,1.24,3.09-.76,4.24l-160,92.39A8.34,8.34,0,0,1,370,226.91Z"/><path class="cls-4" d="M374.13,196l108.23-62.49a9.14,9.14,0,0,0,4.14-7.17V121a9.14,9.14,0,0,0-4.14-7.17L413,73.75a27.35,27.35,0,0,1-7-6.23L372.84,22.88a5.5,5.5,0,0,0-7-1.45L257.61,83.91a9.14,9.14,0,0,0-4.14,7.17v35.29a9.17,9.17,0,0,0,4.14,7.17L365.85,196A9.15,9.15,0,0,0,374.13,196Z"/><path class="cls-1" d="M365.85,181.08,296.45,141a27.52,27.52,0,0,1-7-6.23L256.32,90.14a4.16,4.16,0,0,1,1.29-6.23L365.85,21.43a5.5,5.5,0,0,1,7,1.45L406,67.52c1.57,2.12,4.13,5.16,6.41,6.48l70,39.81c2.29,1.32,2.29,3.46,0,4.78L374.13,181.08A9.15,9.15,0,0,1,365.85,181.08Z"/><path class="cls-4" d="M257.61,83.91,365.85,21.43a5.5,5.5,0,0,1,7,1.45L406,67.52a24.88,24.88,0,0,0,3.38,3.53s-116.49,67.3-116.52,67.27a24.88,24.88,0,0,1-3.38-3.53L256.32,90.14A4.16,4.16,0,0,1,257.61,83.91Z"/><path class="cls-2" d="M456.1,114.91a10.72,10.72,0,0,0-9.71,0c-2.68,1.55-2.68,4.06,0,5.61a10.78,10.78,0,0,0,9.71,0C458.78,119,458.78,116.46,456.1,114.91Z"/><path class="cls-2" d="M436.68,126.12a10.72,10.72,0,0,0-9.71,0c-2.68,1.55-2.68,4.06,0,5.61a10.78,10.78,0,0,0,9.71,0C439.36,130.18,439.36,127.67,436.68,126.12Z"/><path class="cls-4" d="M417.26,137.33a10.72,10.72,0,0,0-9.71,0c-2.68,1.55-2.68,4.06,0,5.61a10.72,10.72,0,0,0,9.71,0C420,141.39,420,138.88,417.26,137.33Z"/><path class="cls-4" d="M397.85,148.54a10.78,10.78,0,0,0-9.71,0c-2.68,1.55-2.68,4.06,0,5.61a10.72,10.72,0,0,0,9.71,0C400.53,152.6,400.53,150.09,397.85,148.54Z"/><path class="cls-2" d="M441.54,106.5a10.72,10.72,0,0,0-9.71,0c-2.68,1.55-2.68,4.06,0,5.61a10.78,10.78,0,0,0,9.71,0C444.22,110.56,444.22,108.05,441.54,106.5Z"/><path class="cls-4" d="M422.12,117.71a10.72,10.72,0,0,0-9.71,0c-2.68,1.55-2.68,4.06,0,5.61a10.72,10.72,0,0,0,9.71,0C424.8,121.77,424.8,119.26,422.12,117.71Z"/><ellipse class="cls-2" cx="397.85" cy="131.73" rx="6.87" ry="3.96"/><path class="cls-4" d="M383.28,140.13a10.78,10.78,0,0,0-9.71,0c-2.68,1.55-2.68,4.06,0,5.61a10.72,10.72,0,0,0,9.71,0C386,144.19,386,141.68,383.28,140.13Z"/><path class="cls-4" d="M427,98.09a10.72,10.72,0,0,0-9.71,0c-2.68,1.55-2.68,4.06,0,5.61a10.72,10.72,0,0,0,9.71,0C429.66,102.15,429.66,99.64,427,98.09Z"/><path class="cls-2" d="M407.56,109.3a10.78,10.78,0,0,0-9.71,0c-2.69,1.55-2.69,4.06,0,5.61a10.72,10.72,0,0,0,9.71,0C410.24,113.36,410.24,110.85,407.56,109.3Z"/><path class="cls-4" d="M388.14,120.51a10.78,10.78,0,0,0-9.71,0c-2.68,1.55-2.68,4.06,0,5.61a10.72,10.72,0,0,0,9.71,0C390.82,124.57,390.82,122.06,388.14,120.51Z"/><path class="cls-2" d="M378.32,159.53a10.72,10.72,0,0,0-9.71,0c-2.68,1.55-2.68,4.06,0,5.61a10.78,10.78,0,0,0,9.71,0C381,163.59,381,161.08,378.32,159.53Z"/><ellipse class="cls-4" cx="358.9" cy="153.92" rx="6.87" ry="3.96"/><path class="cls-4" d="M368.72,131.73a10.78,10.78,0,0,0-9.71,0c-2.68,1.55-2.68,4.06,0,5.61a10.72,10.72,0,0,0,9.71,0C371.4,135.79,371.4,133.28,368.72,131.73Z"/><path class="cls-2" d="M412.41,89.69a10.72,10.72,0,0,0-9.71,0c-2.68,1.55-2.68,4.06,0,5.61a10.72,10.72,0,0,0,9.71,0C415.09,93.75,415.09,91.24,412.41,89.69Z"/><path class="cls-4" d="M393,100.9a10.78,10.78,0,0,0-9.71,0c-2.68,1.55-2.68,4.06,0,5.61a10.72,10.72,0,0,0,9.71,0C395.67,105,395.67,102.45,393,100.9Z"/><path class="cls-2" d="M373.57,112.11a10.78,10.78,0,0,0-9.71,0c-2.68,1.55-2.68,4.06,0,5.61a10.72,10.72,0,0,0,9.71,0C376.26,116.17,376.26,113.66,373.57,112.11Z"/><path class="cls-4" d="M354.16,123.33a10.72,10.72,0,0,0-9.71,0c-2.68,1.54-2.68,4,0,5.6a10.72,10.72,0,0,0,9.71,0C356.84,127.38,356.84,124.87,354.16,123.33Z"/><path class="cls-2" d="M349.19,142.72a10.72,10.72,0,0,0-9.71,0c-2.68,1.55-2.68,4.06,0,5.61a10.72,10.72,0,0,0,9.71,0C351.87,146.78,351.87,144.27,349.19,142.72Z"/><path class="cls-4" d="M334.63,134.31a10.78,10.78,0,0,0-9.71,0c-2.68,1.55-2.68,4.06,0,5.61a10.72,10.72,0,0,0,9.71,0C337.31,138.37,337.31,135.86,334.63,134.31Z"/><path class="cls-4" d="M369.76,182.07V197a8.57,8.57,0,0,0,4.36-1l108.24-62.5a9.11,9.11,0,0,0,4.14-7.17V121a9.18,9.18,0,0,0-3.38-6.62c1.5,1.3,1.24,3.09-.76,4.23l-108.24,62.5A8.58,8.58,0,0,1,369.76,182.07Z"/><path class="cls-4" d="M391.66,65.65l-.09-.13a3.67,3.67,0,0,0-4.66-1l-94.19,54.39a2.76,2.76,0,0,0-.85,4.14l.1.14a3.67,3.67,0,0,0,4.66,1L390.8,69.81A2.78,2.78,0,0,0,391.66,65.65Z"/><path class="cls-2" d="M391.66,65.65l-.09-.13a3.67,3.67,0,0,0-4.66-1l-70,40.43,3.91,5.24,70-40.41A2.78,2.78,0,0,0,391.66,65.65Z"/><path class="cls-4" d="M383.88,55.2l-.1-.13a3.66,3.66,0,0,0-4.65-1l-94.19,54.38a2.77,2.77,0,0,0-.86,4.15l.1.14a3.68,3.68,0,0,0,4.67,1L383,59.36A2.79,2.79,0,0,0,383.88,55.2Z"/><path class="cls-2" d="M383.88,55.2l-.1-.13a3.66,3.66,0,0,0-4.65-1L355.72,67.61l3.9,5.25L383,59.36A2.79,2.79,0,0,0,383.88,55.2Z"/><path class="cls-4" d="M376.09,44.75l-.1-.13a3.65,3.65,0,0,0-4.65-1L277.15,98a2.77,2.77,0,0,0-.85,4.15l.1.13a3.66,3.66,0,0,0,4.66,1l94.16-54.37A2.78,2.78,0,0,0,376.09,44.75Z"/><path class="cls-2" d="M376.09,44.75l-.1-.13a3.65,3.65,0,0,0-4.65-1L322.28,71.89l3.91,5.24,49-28.22A2.78,2.78,0,0,0,376.09,44.75Z"/><path class="cls-4" d="M368.3,34.3l-.09-.13a3.67,3.67,0,0,0-4.66-1L269.37,87.58a2.77,2.77,0,0,0-.86,4.15l.1.13a3.66,3.66,0,0,0,4.66,1l94.17-54.37A2.78,2.78,0,0,0,368.3,34.3Z"/><path class="cls-2" d="M368.3,34.3l-.09-.13a3.67,3.67,0,0,0-4.66-1L278.06,82.56l3.9,5.25,85.48-49.35A2.78,2.78,0,0,0,368.3,34.3Z"/></g><g id="Gears"><path class="cls-2" d="M400.07,951l0,23.74a1.75,1.75,0,0,0,1.63,1.73l12.38.79v17.45h0a1,1,0,0,0,.61.88l13,7.54a3.26,3.26,0,0,0,1.65.33v0a3.22,3.22,0,0,0,1.24-.23l13.23-6.13a4.81,4.81,0,0,1,3-.18,79,79,0,0,0,10.28,2.44,2.5,2.5,0,0,1,1.91,1.86l1.66,8.72a2,2,0,0,0,.71,1.14h0a2,2,0,0,0,1.22.46h19.19a1.91,1.91,0,0,0,1.09-.42,1.79,1.79,0,0,0,.25-.22,2.1,2.1,0,0,0,.27-.24v-.2c.11-.18.28-.32.32-.53l1.66-8.71a2.47,2.47,0,0,1,1.91-1.86A78.85,78.85,0,0,0,497.65,997a4.84,4.84,0,0,1,3,.18l13.23,6.13a3.19,3.19,0,0,0,.8.13v.09a3.53,3.53,0,0,0,.46,0h.35a3.24,3.24,0,0,0,1.25-.32h0l13.05-7.54a1.22,1.22,0,0,0,.46-.44l0,0a.74.74,0,0,0,.1-.34s0,0,0-.06h0v-7.44h0v-10h0l12.15-.77.23,0c.12,0,.2-.11.31-.15a1.69,1.69,0,0,0,.83-.39c.16-.16.17-.4.26-.62s.22-.33.22-.54v0h0V965h0V952.6h0v-9.71a1.76,1.76,0,0,0-1.63-1.73l-12.39-.78V923a1.05,1.05,0,0,0-.61-.93L516.8,914.5a3.51,3.51,0,0,0-2.89-.13l-13.23,6.13a4.84,4.84,0,0,1-3,.18,78.47,78.47,0,0,0-10.27-2.44,2.52,2.52,0,0,1-1.91-1.86l-1.66-8.72a2,2,0,0,0-1.93-1.6H462.69a2,2,0,0,0-1.93,1.6l-1.66,8.72a2.5,2.5,0,0,1-1.91,1.86,78.47,78.47,0,0,0-10.27,2.44,4.84,4.84,0,0,1-3-.18l-13.23-6.13a3.51,3.51,0,0,0-2.89.13l-13,7.54a1,1,0,0,0-.6.94h0v17.39l-12.38.78a1.77,1.77,0,0,0-1.63,1.74v7.77A1.87,1.87,0,0,0,400.07,951Zm50.16,6.16c12.18-7,31.93-7,44.1,0,.93.53,1.78,1.07,2.57,1.63a29.84,29.84,0,0,1-2.56,1.68c-12.18,7-31.93,7-44.11,0a29.59,29.59,0,0,1-2.55-1.67C448.46,958.24,449.31,957.69,450.23,957.16Z"/><path class="cls-5" d="M400.06,951l0,23.74a1.75,1.75,0,0,0,1.63,1.73l12.38.79V994.7a1.06,1.06,0,0,0,.61.89l13,7.53a3.14,3.14,0,0,0,1.65.35v0a3.08,3.08,0,0,0,1.24-.23l13.23-6.13a3.83,3.83,0,0,1,1.24-.3h0a4.66,4.66,0,0,1,1.78.12,79.26,79.26,0,0,0,10.27,2.45,2.15,2.15,0,0,1,.82.33v.1a2.35,2.35,0,0,1,1.1,1.43l1.66,8.72a1.93,1.93,0,0,0,.71,1.13h0a2,2,0,0,0,1.22.45h19.19l.35-.05a2.13,2.13,0,0,0,1.26-.83v-.2c.11-.18.28-.32.32-.52l1.66-8.72a2.36,2.36,0,0,1,.77-1.26v0a2.44,2.44,0,0,1,1.14-.58,78.87,78.87,0,0,0,10.27-2.45,5,5,0,0,1,2-.09v0a4.28,4.28,0,0,1,1,.23l13.23,6.13a3.19,3.19,0,0,0,.8.13v.09h0a3.5,3.5,0,0,0,2.06-.35h0l13.05-7.53a2.27,2.27,0,0,0,.28-.21,1.16,1.16,0,0,0,.21-.25,1,1,0,0,0,.12-.39V977.26l2.26-.15,9.9-.62.22,0h0a1.76,1.76,0,0,0,1.62-1.7V952.59a1.76,1.76,0,0,1-1.62,1.73l-17.4,1.1A3.22,3.22,0,0,0,523.1,957a26.38,26.38,0,0,1-3.7,5.13,1.37,1.37,0,0,0,.2,2.12l10.34,7.44a1,1,0,0,1-.09,1.77L516.8,981a3.51,3.51,0,0,1-2.89.12L500.68,975a4.76,4.76,0,0,0-3-.17,80.11,80.11,0,0,1-10.27,2.44,2.49,2.49,0,0,0-1.91,1.85l-1.66,8.72a2,2,0,0,1-1.93,1.6H462.69a2,2,0,0,1-1.93-1.6l-1.66-8.72a2.51,2.51,0,0,0-1.91-1.85,79,79,0,0,1-10.28-2.45,4.81,4.81,0,0,0-3,.18l-13.23,6.13a3.51,3.51,0,0,1-2.89-.12l-13-7.54a1,1,0,0,1-.09-1.77L425,964.23a1.39,1.39,0,0,0,.18-2.13,26.81,26.81,0,0,1-3.69-5.12,3.2,3.2,0,0,0-2.35-1.56l-17.39-1.1a1.75,1.75,0,0,1-1.62-1.73v-1.94A1.34,1.34,0,0,0,400.06,951Z"/><path class="cls-5" d="M414.11,923v17.39l5-.32a3.17,3.17,0,0,0,2.35-1.56,26.81,26.81,0,0,1,3.69-5.12,1.38,1.38,0,0,0-.18-2.13l-10.35-7.44a1.1,1.1,0,0,1-.51-.81Z"/><path class="cls-16" d="M447.69,958.8c.36-.25.73-.51,1.12-.76l.13-.09c.42-.27.84-.53,1.29-.79,12.18-7,31.92-7,44.11,0,.39.23.78.46,1.15.7s.95.62,1.4.94c9.55-7.07,8.71-17.29-2.55-23.79-12.18-7-31.93-7-44.1,0C439,941.51,438.12,951.74,447.69,958.8Z"/><path class="cls-5" d="M519.4,933.37a26,26,0,0,1,3.7,5.12,3.19,3.19,0,0,0,2.35,1.56l5,.32,0-17.42a1.14,1.14,0,0,1-.53.85l-10.34,7.44A1.39,1.39,0,0,0,519.4,933.37Z"/><path class="cls-2" d="M513.91,914.37l-13.23,6.13a4.84,4.84,0,0,1-3,.18,78.47,78.47,0,0,0-10.27-2.44,2.52,2.52,0,0,1-1.91-1.86l-1.66-8.72a2,2,0,0,0-1.93-1.6H462.69a2,2,0,0,0-1.93,1.6l-1.66,8.72a2.5,2.5,0,0,1-1.91,1.86,78.47,78.47,0,0,0-10.27,2.44,4.84,4.84,0,0,1-3-.18l-13.23-6.13a3.51,3.51,0,0,0-2.89.13l-13,7.54a1,1,0,0,0-.09,1.76L425,931.24a1.39,1.39,0,0,1,.19,2.13,26.45,26.45,0,0,0-3.7,5.12,3.19,3.19,0,0,1-2.35,1.56l-17.39,1.1a1.77,1.77,0,0,0-1.63,1.74v9.7a1.76,1.76,0,0,0,1.63,1.73l17.39,1.1a3.22,3.22,0,0,1,2.35,1.56,26.15,26.15,0,0,0,3.7,5.12,1.39,1.39,0,0,1-.2,2.13l-10.34,7.44a1,1,0,0,0,.09,1.77l13,7.53a3.51,3.51,0,0,0,2.89.13L443.89,975a4.84,4.84,0,0,1,3-.18,78.47,78.47,0,0,0,10.27,2.44,2.5,2.5,0,0,1,1.91,1.86l1.66,8.72a2,2,0,0,0,1.93,1.6h19.19a2,2,0,0,0,1.93-1.6l1.66-8.72a2.5,2.5,0,0,1,1.91-1.86,78.47,78.47,0,0,0,10.27-2.44,4.84,4.84,0,0,1,3,.18l13.23,6.13a3.51,3.51,0,0,0,2.89-.13l13.05-7.53a1,1,0,0,0,.09-1.77l-10.34-7.44a1.37,1.37,0,0,1-.19-2.12A26,26,0,0,0,523.1,957a3.22,3.22,0,0,1,2.35-1.56l17.39-1.1a1.76,1.76,0,0,0,1.63-1.73v-9.71a1.76,1.76,0,0,0-1.63-1.73l-17.39-1.1a3.19,3.19,0,0,1-2.35-1.56,26,26,0,0,0-3.69-5.12,1.38,1.38,0,0,1,.19-2.13l10.34-7.44a1,1,0,0,0-.09-1.76L516.8,914.5A3.51,3.51,0,0,0,513.91,914.37ZM494.34,935c12.18,7,12.18,18.43,0,25.46s-31.93,7-44.11,0-12.17-18.43,0-25.47S482.16,928,494.34,935Z"/><path class="cls-2" d="M530.46,972.54a1.09,1.09,0,0,0-.52-.87l-5.21-3.75V955.59a2.43,2.43,0,0,1,.72-.17l17.4-1.1a1.76,1.76,0,0,0,1.62-1.73v22.18a1.76,1.76,0,0,1-1.62,1.7h0l-.22,0-9.9.62-2.26.15Z"/><path class="cls-12" d="M530.46,972.54a1.09,1.09,0,0,0-.52-.87l-5.21-3.75V955.59a2.43,2.43,0,0,1,.72-.17l17.4-1.1a1.76,1.76,0,0,0,1.62-1.73v22.18a1.76,1.76,0,0,1-1.62,1.7h0l-.22,0-9.9.62-2.26.15Z"/><path class="cls-2" d="M499.69,974.71a3.59,3.59,0,0,1,1,.26l13.23,6.13a3.27,3.27,0,0,0,1.7.21v22.16a3.79,3.79,0,0,1-.89,0h0v-.09a3.19,3.19,0,0,1-.8-.13l-13.23-6.13a4.11,4.11,0,0,0-1-.23Z"/><path class="cls-12" d="M499.69,974.71a3.59,3.59,0,0,1,1,.26l13.23,6.13a3.27,3.27,0,0,0,1.7.21v22.16a3.79,3.79,0,0,1-.89,0h0v-.09a3.19,3.19,0,0,1-.8-.13l-13.23-6.13a4.11,4.11,0,0,0-1-.23Z"/><path class="cls-2" d="M483.56,988.43a1.76,1.76,0,0,0,.25-.62l1.66-8.72a1.86,1.86,0,0,1,.26-.66v22.17a1.74,1.74,0,0,0-.26.65l-1.66,8.72a1,1,0,0,1-.25.41Z"/><path class="cls-12" d="M483.56,988.43a1.76,1.76,0,0,0,.25-.62l1.66-8.72a1.86,1.86,0,0,1,.26-.66v22.17a1.74,1.74,0,0,0-.26.65l-1.66,8.72a1,1,0,0,1-.25.41Z"/><path class="cls-3" d="M458.84,978.43a2.07,2.07,0,0,1,.26.66l1.66,8.72a1.7,1.7,0,0,0,.25.63v22.15a1.76,1.76,0,0,1-.25-.62l-1.66-8.72a1.69,1.69,0,0,0-.26-.6Z"/><path class="cls-3" d="M429,981.31a3.27,3.27,0,0,0,1.7-.21L443.89,975a3.57,3.57,0,0,1,1-.26v22.16a3.57,3.57,0,0,0-1,.26l-13.23,6.13a3.08,3.08,0,0,1-1.24.23v0l-.46,0Z"/><path class="cls-3" d="M401.73,954.32l17.39,1.1a2.36,2.36,0,0,1,.72.17v12.33l-5.21,3.75a1.12,1.12,0,0,0-.52.88v4.71l-12.38-.79a1.75,1.75,0,0,1-1.63-1.73l0-23.74a1.34,1.34,0,0,1,.05-.35v1.94A1.75,1.75,0,0,0,401.73,954.32Z"/><path class="cls-2" d="M654.6,882.75v0h0a.8.8,0,0,0-.09-.31h0c0-5.5,0-15,0-15.64,0,0,0,0,0,0a1.33,1.33,0,0,0-.27-.75l-4.89-6.81a2.33,2.33,0,0,0-2-1l-12.77,2.14a3.88,3.88,0,0,1-2.44-.69c-.8-.55-1.65-1.09-2.53-1.6V847.94h0c0-.41-.38-.8-1-1l-13-3.1a2.43,2.43,0,0,0-2.08.4l-6.2,6.52a2.9,2.9,0,0,1-2,.63,67.88,67.88,0,0,0-8.44,0,3.34,3.34,0,0,1-2.28-1L589,844.64a2.57,2.57,0,0,0-2.17-.8l-13.47,3.22a.89.89,0,0,0-.7.89v0c0,.56,0,5.37,0,10.06a34.89,34.89,0,0,0-3,1.92,3.5,3.5,0,0,1-2.22.37l-12.37-2.08a2.17,2.17,0,0,0-2,.57l-5.37,7.49a.51.51,0,0,0-.11.33v.05c0,1.14,0,19.32,0,19.44a.63.63,0,0,0,.1.31c0,5.59,0,15.4,0,15.64a1.34,1.34,0,0,0,.28.79l4.88,6.81a2.36,2.36,0,0,0,2,.95l12.77-2.15a4,4,0,0,1,2.44.69c.8.56,1.65,1.09,2.54,1.61v10.11c0,.42.37.82,1,1l13,3.1a2.44,2.44,0,0,0,2.1-.39l6.2-6.52a2.87,2.87,0,0,1,2-.64,69.88,69.88,0,0,0,8.44,0,3.35,3.35,0,0,1,2.28,1l5.55,5.85a2.56,2.56,0,0,0,2.17.79l13.47-3.22a.85.85,0,0,0,.68-.74c0-.22,0-10.26,0-10.26,1.06-.6,2.06-1.24,3-1.91a3.42,3.42,0,0,1,2.22-.38l12.37,2.09a2.2,2.2,0,0,0,2-.58l5.37-7.49a.64.64,0,0,0,.12-.34c0-.35,0-18.77,0-19.46Zm-72.12.4q.88-.63,1.92-1.23c9.26-5.34,24.26-5.34,33.52,0,.67.39,1.31.8,1.88,1.2a18.22,18.22,0,0,1-2,1.33c-6.58,3.74-16.64,5.06-25.71,2.89a28.54,28.54,0,0,1-7.6-2.91A18.23,18.23,0,0,1,582.48,883.15Z"/><path class="cls-5" d="M654.6,882.75v0h0a.8.8,0,0,0-.09-.31h0c0-5.5,0-15,0-15.64,0,0,0,0,0,0a1.33,1.33,0,0,0-.27-.75l-4.89-6.81a2.33,2.33,0,0,0-2-1l-12.77,2.14a3.88,3.88,0,0,1-2.44-.69c-.8-.55-1.65-1.09-2.53-1.6V847.94h0c0-.41-.38-.8-1-1l-13-3.1a2.43,2.43,0,0,0-2.08.4l-6.2,6.52a2.9,2.9,0,0,1-2,.63,67.88,67.88,0,0,0-8.44,0,3.34,3.34,0,0,1-2.28-1L589,844.64a2.57,2.57,0,0,0-2.17-.8l-13.47,3.22a.89.89,0,0,0-.7.89v0c0,.56,0,5.37,0,10.06a34.89,34.89,0,0,0-3,1.92,3.5,3.5,0,0,1-2.22.37l-12.37-2.08a2.17,2.17,0,0,0-2,.57l-5.37,7.49a.51.51,0,0,0-.11.33v.05c0,1.14,0,19.32,0,19.44a.63.63,0,0,0,.1.31c0,5.59,0,15.4,0,15.64a1.34,1.34,0,0,0,.28.79l4.88,6.81a2.36,2.36,0,0,0,2,.95l12.77-2.15a4,4,0,0,1,2.44.69c.8.56,1.65,1.09,2.54,1.61v10.11c0,.42.37.82,1,1l13,3.1a2.44,2.44,0,0,0,2.1-.39l6.2-6.52a2.87,2.87,0,0,1,2-.64,69.88,69.88,0,0,0,8.44,0,3.35,3.35,0,0,1,2.28,1l5.55,5.85a2.56,2.56,0,0,0,2.17.79l13.47-3.22a.85.85,0,0,0,.68-.74c0-.22,0-10.26,0-10.26,1.06-.6,2.06-1.24,3-1.91a3.42,3.42,0,0,1,2.22-.38l12.37,2.09a2.2,2.2,0,0,0,2-.58l5.37-7.49a.64.64,0,0,0,.12-.34c0-.35,0-18.77,0-19.46Zm-72.12.4q.88-.63,1.92-1.23c9.26-5.34,24.26-5.34,33.52,0,.67.39,1.31.8,1.88,1.2a18.22,18.22,0,0,1-2,1.33c-6.58,3.74-16.64,5.06-25.71,2.89a28.54,28.54,0,0,1-7.6-2.91A18.23,18.23,0,0,1,582.48,883.15Z"/><path class="cls-2" d="M547.65,866.66a0,0,0,0,0,0,0v0a.51.51,0,0,1,0-.13A.32.32,0,0,0,547.65,866.66Z"/><path class="cls-5" d="M575.67,856.54c-1,.47-2,1-3,1.52,0-4.69,0-9.5,0-10.07a1.18,1.18,0,0,0,.15.52l3.23,6.4A1.18,1.18,0,0,1,575.67,856.54Z"/><path class="cls-3" d="M560.82,872.53a13.28,13.28,0,0,0,0,4.22,1.36,1.36,0,0,1-.87,1.49l-11.65,3.69a.75.75,0,0,0-.55.74c0,.24,0,3.79,0,3.79a.61.61,0,0,1-.09-.28c0-6.62,0-17.69,0-18.66v-.81c0,.35.37.7.94.87l11,3.49A1.54,1.54,0,0,1,560.82,872.53Z"/><path class="cls-3" d="M568.12,889v19.48a1.82,1.82,0,0,0-.47,0l-12.77,2.14a1.47,1.47,0,0,1-.65,0V891.13a1.78,1.78,0,0,0,.68,0L567.68,889A1.57,1.57,0,0,1,568.12,889Z"/><path class="cls-17" d="M572.62,910.79c-.88-.51-1.74-1-2.53-1.59a4.44,4.44,0,0,0-2-.71V889a4.29,4.29,0,0,1,2,.72,39.12,39.12,0,0,0,5.17,3c.76.37,1.19,1,.94,1.54l-3.51,6.94a.65.65,0,0,0-.07.29C572.64,901.87,572.62,910.79,572.62,910.79Z"/><path class="cls-3" d="M595.67,898.15v19.48a1.88,1.88,0,0,0-.79.44l-6.2,6.52a1.86,1.86,0,0,1-1.12.45V905.56a1.79,1.79,0,0,0,1.15-.44l6.21-6.53A1.86,1.86,0,0,1,595.67,898.15Z"/><path class="cls-17" d="M606.18,898.07v19.48a2.83,2.83,0,0,0-.81-.13,70.05,70.05,0,0,1-8.45,0,3.16,3.16,0,0,0-1.25.2V898.15A3.27,3.27,0,0,1,597,898a71.82,71.82,0,0,0,8.43,0A2.13,2.13,0,0,1,606.18,898.07Z"/><path class="cls-3" d="M614.43,905.5V925a2.82,2.82,0,0,1-1.24-.72l-5.55-5.85a3.46,3.46,0,0,0-1.46-.85V898.07a3.7,3.7,0,0,1,1.49.86l5.55,5.84A2.8,2.8,0,0,0,614.43,905.5Z"/><path class="cls-2" d="M629.54,901.63v9.19h0s0,1.66,0,3.64v1.73c0,2.42,0,4.79,0,4.89a.86.86,0,0,1-.68.74L615.35,925a1.75,1.75,0,0,1-.92-.07V905.5a1.76,1.76,0,0,0,1,.07l13.47-3.22A.84.84,0,0,0,629.54,901.63Z"/><path class="cls-12" d="M629.54,901.63v9.19h0s0,1.66,0,3.64v1.73c0,2.42,0,4.79,0,4.89a.86.86,0,0,1-.68.74L615.35,925a1.75,1.75,0,0,1-.92-.07V905.5a1.76,1.76,0,0,0,1,.07l13.47-3.22A.84.84,0,0,0,629.54,901.63Z"/><path class="cls-3" d="M633.89,889v19.48a2.88,2.88,0,0,0-1.35.4c-.95.67-1.95,1.31-3,1.91,0,0,0-8.93,0-9.35a1.32,1.32,0,0,0-.14-.56l-3.24-6.41a1.16,1.16,0,0,1,.41-1.62,37.37,37.37,0,0,0,6-3.43A2.82,2.82,0,0,1,633.89,889Z"/><path class="cls-2" d="M654.6,882.76c0,.68,0,19.09,0,19.45a.7.7,0,0,1-.12.35L649.09,910a1.52,1.52,0,0,1-.92.53V891.11a1.72,1.72,0,0,0,1-.54l5.36-7.49A.49.49,0,0,0,654.6,882.76Z"/><path class="cls-2" d="M654.6,882.76c0,.68,0,19.09,0,19.45a.7.7,0,0,1-.12.35L649.09,910a1.52,1.52,0,0,1-.92.53V891.11a1.72,1.72,0,0,0,1-.54l5.36-7.49A.49.49,0,0,0,654.6,882.76Z"/><path class="cls-12" d="M654.6,882.76c0,.68,0,19.09,0,19.45a.7.7,0,0,1-.12.35L649.09,910a1.52,1.52,0,0,1-.92.53V891.11a1.72,1.72,0,0,0,1-.54l5.36-7.49A.49.49,0,0,0,654.6,882.76Z"/><path class="cls-2" d="M572.7,848v0a1.33,1.33,0,0,0,.15.51l3.23,6.4a1.16,1.16,0,0,1-.41,1.62c-1,.48-2,1-3,1.53a34.89,34.89,0,0,0-3,1.92,3.5,3.5,0,0,1-2.22.37l-12.37-2.08a2.18,2.18,0,0,0-2,.57l-5.37,7.49a.51.51,0,0,0-.11.33v.05c0,.35.37.69.94.87l11,3.5c.78.24,1.3.89,1.2,1.45a13.28,13.28,0,0,0,0,4.22,1.37,1.37,0,0,1-.86,1.49l-11.66,3.69a.76.76,0,0,0-.55.74,1.45,1.45,0,0,0,.28.75l4.89,6.81a2.28,2.28,0,0,0,2,.94L567.68,889a3.8,3.8,0,0,1,2.43.7,38.63,38.63,0,0,0,5.18,3c.75.37,1.18,1,.93,1.53l-3.51,6.95c-.25.5.18,1,.95,1.24l13,3.09a2.42,2.42,0,0,0,2.09-.39l6.2-6.53a2.92,2.92,0,0,1,2-.63,69.89,69.89,0,0,0,8.44,0,3.37,3.37,0,0,1,2.28,1l5.55,5.84a2.6,2.6,0,0,0,2.16.81l13.48-3.23a.94.94,0,0,0,.54-1.44l-3.23-6.41a1.16,1.16,0,0,1,.41-1.62,37.09,37.09,0,0,0,6-3.44,3.45,3.45,0,0,1,2.22-.38l12.37,2.08a2.2,2.2,0,0,0,2-.57l5.36-7.48a.54.54,0,0,0,.11-.33h0v0a.8.8,0,0,0-.09-.31h0a1.42,1.42,0,0,0-.84-.59l-11-3.48c-.77-.25-1.29-.9-1.2-1.46a13.28,13.28,0,0,0,0-4.22,1.36,1.36,0,0,1,.87-1.49l11.66-3.7a.72.72,0,0,0,.53-.7s0,0,0,0a1.33,1.33,0,0,0-.27-.75l-4.89-6.81a2.33,2.33,0,0,0-2-1l-12.77,2.14a3.88,3.88,0,0,1-2.44-.69c-.8-.55-1.65-1.09-2.53-1.6s-1.73-.94-2.64-1.38-1.19-1-.93-1.52l3.51-7a.53.53,0,0,0,.06-.27c0-.41-.38-.8-1-1l-13-3.1a2.43,2.43,0,0,0-2.08.4l-6.2,6.52a2.9,2.9,0,0,1-2,.63,67.88,67.88,0,0,0-8.44,0,3.34,3.34,0,0,1-2.28-1L589,844.64a2.57,2.57,0,0,0-2.17-.8l-13.47,3.22A.89.89,0,0,0,572.7,848Zm49,20a3.51,3.51,0,0,1,.33.34,2.61,2.61,0,0,1,.23.25c.17.19.33.38.48.58s.35.47.5.7.2.3.29.46l.12.21a8.39,8.39,0,0,1-.64,9.45,14.31,14.31,0,0,1-3.22,3.18,18.22,18.22,0,0,1-2,1.33c-6.58,3.74-16.64,5.06-25.71,2.89a28.54,28.54,0,0,1-7.6-2.91,18.23,18.23,0,0,1-2-1.28,13.33,13.33,0,0,1-4-4.5s0,0,0-.06-.09-.18-.13-.27a2.39,2.39,0,0,1-.13-.28,2.08,2.08,0,0,1-.12-.3,8.36,8.36,0,0,1,1.2-8.27c5-7,18.88-10.29,31-7.4C615.25,863.28,619.21,865.39,621.71,868Z"/></g><g id="Wrench"><path class="cls-4" d="M729.22,823.28c-2.67,1.52-7.67,1.46-9.26,3.29v6.57l30.51-4.46L762,835.44l-4.38,9.17-30.81-2.06v6.57c.65.46,1.33.9,2.06,1.32,12.89,7.56,33.94,7.65,47,.21,6.6-3.75,9.9-8.7,9.9-13.65h0v-6.54l-1.82.29c-.07-.12-.12-.25-.2-.37l115.45-66.65c11.69,2.47,25.29,1,34.75-4.34,4.91-2.79,8-6.24,9.26-9.86V743l-30.51,11-11.53-6.76,4.38-9.17,30.81-4.51V727s-36-2.4-49.09,5a21.25,21.25,0,0,0-8.15,7.54l-1.75-.64v6.52h0a12.23,12.23,0,0,0,2,6.86L764,818.94C752.28,816.47,738.68,817.9,729.22,823.28Z"/><polygon class="cls-4" points="899.23 763.73 899.23 757.16 783.78 823.82 783.78 830.38 899.23 763.73"/><path class="cls-1" d="M879.42,745.72,764,812.37c-11.69-2.46-25.29-1-34.75,4.35-4.91,2.79-8,6.23-9.26,9.85l30.51-4.46L762,828.87,757.62,838l-30.81,4.51c.65.46,1.33.9,2.07,1.33,12.88,7.55,33.94,7.64,47,.2,9.59-5.45,12.21-13.42,7.88-20.27l115.45-66.65c11.69,2.47,25.29,1,34.75-4.34,4.91-2.79,8-6.24,9.26-9.86l-30.51,4.46-11.53-6.76,4.38-9.17L936.39,727c-.65-.46-1.33-.89-2.07-1.32-12.88-7.56-33.93-7.65-47-.21C877.71,730.9,875.09,738.87,879.42,745.72Z"/><polygon class="cls-4" points="903.65 742.1 901.2 740.66 905.58 731.49 936.39 726.98 936.39 733.55 905.58 738.06 903.65 742.1"/><polygon class="cls-4" points="759.55 834 762 828.87 750.47 822.11 719.96 826.57 719.96 833.14 750.47 828.68 759.55 834"/></g><g id="Screwdriver"><path class="cls-2" d="M799.86,920.27,824,962.06l81.4-47c3.34-1.67,5.45-5.57,5.45-11.26,0-10.89-7.65-24.13-17.07-29.57-4.72-2.73-9-3-12.09-1.19h0Z"/><path class="cls-2" d="M795,928.94v0c-.36,6.37-9.37,7.73-9.37,7.73l17.07,29.57s5.69-7,11.38-4.24v0C822.49,965.6,829,961.09,829,951c0-10.89-7.64-24.13-17.07-29.57C803.23,916.45,796.06,919.83,795,928.94Z"/><path class="cls-7" d="M795,928.94v0c-.36,6.37-9.37,7.73-9.37,7.73l17.07,29.57s5.69-7,11.38-4.24v0C822.49,965.6,829,961.09,829,951c0-10.89-7.64-24.13-17.07-29.57C803.23,916.45,796.06,919.83,795,928.94Z"/><path class="cls-7" d="M789.72,935.38a17.39,17.39,0,0,1-4.09,1.27l17.07,29.57a18,18,0,0,1,3.15-2.87C805.41,953,798.44,940.94,789.72,935.38Z"/><path class="cls-2" d="M767.87,938.74l1.43,2.48a17.69,17.69,0,0,0-.74,5.29c0,10.89,7.64,24.13,17.07,29.57a18,18,0,0,0,5,2l1.42,2.47,5.69-3.28h0c3.09-1.79,5-5.61,5-11.06,0-10.88-7.64-24.12-17.07-29.57-4.71-2.72-9-3-12.07-1.19h0Z"/><path class="cls-2" d="M797,969.51c0-10.89-7.64-24.13-17.07-29.57s-17.07-1-17.07,9.86,7.64,24.12,17.07,29.57S797,980.4,797,969.51Z"/><path class="cls-3" d="M797,969.51c0-10.89-7.64-24.13-17.07-29.57s-17.07-1-17.07,9.86,7.64,24.12,17.07,29.57S797,980.4,797,969.51Z"/><path class="cls-3" d="M773.29,974a31.74,31.74,0,0,0,4.23,3.78l4-11.39-4.82-3.55Z"/><path class="cls-12" d="M896.94,892.09h0a4.71,4.71,0,0,1-1.72,6.43l-58.15,33.57a4.71,4.71,0,0,1-6.43-1.72h0a4.7,4.7,0,0,1,1.73-6.43l58.14-33.57A4.71,4.71,0,0,1,896.94,892.09Z"/><path class="cls-12" d="M886.45,879.59h0c1.83,1.54,1.74,3.7-.21,4.82L827,918.61a6.43,6.43,0,0,1-6.85-.75h0c-1.83-1.54-1.74-3.7.21-4.82l59.24-34.2A6.43,6.43,0,0,1,886.45,879.59Z"/><path class="cls-12" d="M902.52,907.43h0c-.41-2.36-2.33-3.36-4.28-2.24L839,939.39a6.44,6.44,0,0,0-2.77,6.31h0c.41,2.36,2.33,3.36,4.28,2.24l59.24-34.2A6.44,6.44,0,0,0,902.52,907.43Z"/><path class="cls-1" d="M630.23,1038.47v11.38l28.45-9.25s5.69-10.46,11.39-13.75l108.12-62.42,3.33-9.45-3.33-1.93-108.12,62.42c-5.7,3.29-11.39-.6-11.39-.6Z"/><path class="cls-4" d="M633.56,1040.4v11.38l28.46-9.25s5.69-10.46,11.38-13.75l108.12-62.42V955L673.4,1017.4c-5.69,3.29-11.38-.6-11.38-.6Z"/><polygon class="cls-4" points="633.56 1051.78 630.23 1049.85 630.23 1038.47 633.56 1040.4 633.56 1051.78"/><polygon class="cls-1" points="630.23 1038.47 633.56 1040.4 662.02 1016.8 658.68 1014.87 630.23 1038.47"/></g></svg>