<svg id="Layer_1" data-name="Layer 1" xmlns="http://www.w3.org/2000/svg" viewBox="0 0 388.14 578.86"><defs><style>.cls-1{fill:#dd131f;}.cls-2{fill:#dee2f3;}.cls-3{fill:#fff;}</style></defs><g id="Group_1016" data-name="Group 1016"><g id="Group_1015" data-name="Group 1015"><g id="Group_1014" data-name="Group 1014"><g id="Group_1008" data-name="Group 1008"><g id="Group_1007" data-name="Group 1007"><g id="Group_1003" data-name="Group 1003"><path id="Path_6080" data-name="Path 6080" class="cls-1" d="M388.14,81.92l-66.88,38.62L254.38,81.93l66.88-38.62Z"/><path id="Path_6081" data-name="Path 6081" class="cls-2" d="M254.38,81.93V393.59l66.88,38.61V120.54Z"/><path id="Path_6082" data-name="Path 6082" class="cls-1" d="M388.15,81.93l-66.89,38.61V432.2l66.89-38.61Z"/></g><g id="Group_1004" data-name="Group 1004"><path id="Path_6083" data-name="Path 6083" class="cls-1" d="M301.85,170.07,235,208.69l-66.87-38.62L235,131.46Z"/><path id="Path_6084" data-name="Path 6084" class="cls-2" d="M168.09,170.07V443.22L235,481.84V208.69Z"/><path id="Path_6085" data-name="Path 6085" class="cls-1" d="M301.85,170.07,235,208.69V481.84l66.89-38.62Z"/></g><g id="Group_1005" data-name="Group 1005"><path id="Path_6086" data-name="Path 6086" class="cls-1" d="M219.14,277.58,152.26,316.2,85.37,277.58,152.26,239Z"/><path id="Path_6087" data-name="Path 6087" class="cls-2" d="M85.37,277.58V491l66.89,38.61V316.2Z"/><path id="Path_6088" data-name="Path 6088" class="cls-1" d="M219.14,277.58,152.25,316.2V529.62L219.14,491Z"/></g><g id="Group_1006" data-name="Group 1006"><path id="Path_6089" data-name="Path 6089" class="cls-1" d="M133.76,404.73,66.88,443.34,0,404.73l66.88-38.62Z"/><path id="Path_6090" data-name="Path 6090" class="cls-2" d="M0,404.73V540.25l66.88,38.61V443.34Z"/><path id="Path_6091" data-name="Path 6091" class="cls-1" d="M133.76,404.73,66.88,443.34V578.86l66.88-38.61Z"/></g></g><path id="Path_6092" data-name="Path 6092" class="cls-3" d="M152.25,516.53l66.89-66.88V425.11L152.25,492ZM219.14,491V463.9L155,528ZM235,481.84l60.5-34.93,6.39-6.39V381.19L235,448.07Zm-82.71-6.58,66.89-66.88V293l-66.89,66.88Zm-85.37-30V560.64l66.88-66.89v-89l-62.36,36Zm85.37-129v26.47L214.9,280ZM66.88,578.86l54.52-31.47L133.76,535V510.48L66.88,577.36ZM235,433.82l66.89-66.88V342.4L235,409.28Zm86.3-86.3,66.89-66.88V256.1L321.26,323Zm0-41.27,66.89-66.88V124l-66.89,66.88Zm0-185.71v53.12l66.89-66.88V81.93Zm-86.3,272,66.89-66.88V210.29L235,277.17Zm86.3,28.55,66.89-66.88V294.89l-66.89,66.89ZM235,260l66.89-66.88v-23L235,208.68Z"/></g><g id="Group_1013" data-name="Group 1013"><g id="Group_1012" data-name="Group 1012"><g id="Group_1009" data-name="Group 1009"><path id="Path_6093" data-name="Path 6093" class="cls-2" d="M361.14,44,347.6,36.14,341,26.21l13.54,7.87Z"/></g><path id="Path_6094" data-name="Path 6094" class="cls-2" d="M349.59,26.68l-13.54-7.87,4.94,7.4,13.54,7.87ZM361.14,44,347.6,36.14l4.94,7.41,13.54,7.87Z"/><g id="Group_1010" data-name="Group 1010"><path id="Path_6095" data-name="Path 6095" class="cls-2" d="M349.59,26.68l-13.54-7.87L370,0l13.54,7.87Z"/></g><g id="Group_1011" data-name="Group 1011"><path id="Path_6096" data-name="Path 6096" class="cls-2" d="M237.44,176l-13.54-7.87L341,26.21l13.54,7.87Z"/></g><path id="Path_6097" data-name="Path 6097" class="cls-2" d="M216.94,210.66a5.37,5.37,0,0,1-.35-.45c-.05-.08-.1-.16-.14-.24a4.53,4.53,0,0,1-.28-.59,1.08,1.08,0,0,0-.08-.19,7.43,7.43,0,0,1-.23-.9,1.81,1.81,0,0,0,0-.23c0-.26-.06-.52-.07-.78v-.35c0-.25,0-.51,0-.77s0-.23,0-.35a11.19,11.19,0,0,1,.18-1.16.17.17,0,0,1,0-.05,13.41,13.41,0,0,1,.35-1.31l16.93-52.13-13.54-7.87-16.93,52.13-.18.59c-.06.24-.12.48-.17.72a.08.08,0,0,1,0,.05v0c-.07.32-.13.65-.17,1a1,1,0,0,0,0,.17c0,.12,0,.23,0,.35a6.69,6.69,0,0,0,0,.77v.35c0,.26,0,.52.07.78l0,.23a7,7,0,0,0,.23.9c0,.07.06.13.08.19a4.66,4.66,0,0,0,.28.6c0,.08.09.15.14.23a5.37,5.37,0,0,0,.35.45c.06.06.11.13.17.18a2.64,2.64,0,0,0,.62.48l13.54,7.87a2.93,2.93,0,0,1-.62-.48Z"/><path id="Path_6098" data-name="Path 6098" class="cls-3" d="M349.59,26.67l4.94,7.41L237.44,176l20.43-62.94c1.33-4.07.5-7.51-2-8.31a5.33,5.33,0,0,0-4.2.76,13.48,13.48,0,0,0-4.27,4.2L53.2,402.47c-2.92,4.41-3.38,9.61-1,11.61,1.35,1.15,3.32,1,5.31-.14a13.38,13.38,0,0,0,4.27-4.2L233.3,151.16l-16.93,52.13c-1.23,3.79-.61,7.07,1.56,8.14a5,5,0,0,0,4.66-.59,12.31,12.31,0,0,0,3.28-2.87L361.14,44l4.94,7.41L383.56,7.87Z"/><path id="Path_6099" data-name="Path 6099" class="cls-2" d="M243,97.18h0a2.16,2.16,0,0,0-.34-.17l-.28-.1-.09,0a2.23,2.23,0,0,0-.39-.09l-.4,0H241l-.51,0-.12,0-.14,0-.34.07a4.75,4.75,0,0,0-.49.17l-.22.07-.09,0a8.59,8.59,0,0,0-1,.48,9.9,9.9,0,0,0-1.14.77c-.13.1-.25.23-.38.34s-.5.41-.74.64l0,0c-.26.25-.5.52-.74.79l-.19.23-.15.18-.21.26c-.15.2-.31.4-.45.61l-.25.36L39.65,394.61l-.15.22c-.12.2-.24.39-.35.59s-.22.38-.32.57-.09.17-.13.25l-.05.1a2.4,2.4,0,0,0-.11.23c-.1.2-.19.39-.27.59s-.17.4-.25.61A1.34,1.34,0,0,0,38,398l0,.12c0,.11-.09.23-.12.34s-.15.47-.22.7l-.12.49a.83.83,0,0,1,0,.15l0,.15c-.07.33-.13.66-.17,1,0,.08,0,.14,0,.21,0,.32,0,.62,0,.92s0,.45,0,.67a6.35,6.35,0,0,0,.12.86c0,.19,0,.38.1.56a6.13,6.13,0,0,0,.33.8c.06.13.1.28.17.4a3.91,3.91,0,0,0,.78.94,5,5,0,0,0,.47.33l13.54,7.87a5,5,0,0,1-.47-.33,3.91,3.91,0,0,1-.78-.94c-.07-.12-.11-.27-.17-.4a5.73,5.73,0,0,1-.33-.81c0-.17-.06-.37-.1-.56a8.09,8.09,0,0,1-.12-.86c0-.21,0-.44,0-.66s0-.6,0-.92.12-.89.21-1.33c0-.05,0-.1,0-.15a14.28,14.28,0,0,1,.46-1.54.76.76,0,0,1,0-.11,15.35,15.35,0,0,1,.7-1.61l0-.1a15.85,15.85,0,0,1,1-1.64L247.4,109.73a14.5,14.5,0,0,1,.91-1.23l.14-.18a13.74,13.74,0,0,1,1-1c.24-.24.49-.44.74-.65s.25-.23.37-.33a11,11,0,0,1,1.15-.77,9.11,9.11,0,0,1,1-.51l.22-.07a6,6,0,0,1,.83-.24l.15,0a4.9,4.9,0,0,1,.94-.08h.07a3.71,3.71,0,0,1,.94.17,3.23,3.23,0,0,1,.66.29Z"/></g></g></g></g></g></svg>