<svg id="Layer_1" data-name="Layer 1" xmlns="http://www.w3.org/2000/svg" viewBox="0 0 1080 1080"><defs><style>.cls-1{fill:#171930;}.cls-2{fill:#e5e4e4;}.cls-3{fill:#e62c2b;}.cls-4{fill:#fbfdff;}.cls-5{fill:#f8c0b0;}.cls-6{fill:#fff;}.cls-7{fill:#eb9d93;}</style></defs><path class="cls-1" d="M675.6,938.72,441.46,805.21c-8.57-4.94-7.49-13.58,2.39-19.28l134.72-77.78c9.89-5.71,24.85-6.33,33.41-1.39L846.12,840.27c8.57,4.94,7.49,13.58-2.4,19.29L709,937.34C699.12,943.05,684.16,943.67,675.6,938.72Z"/><path class="cls-2" d="M867,795.33h0V248.71L649.69,191.84l-40-23.11c-9.19-5.31-25.24-4.64-35.84,1.48l-37.35,21.56-115.9-.06L454.9,719.39c-.26,3.59,1.74,7.05,6.15,9.6L677.91,892.62c9.19,5.3,25.23,4.64,35.84-1.49L858.27,807.7C864.39,804.16,867.34,799.59,867,795.33Z"/><path class="cls-3" d="M593,165.18a41.32,41.32,0,0,0-19.21,5l-37.35,21.56-115.9-.06V739.79c-.26,3.59,1.74,7.06,6.15,9.61L677.91,892.62c4.42,2.55,10.42,3.7,16.63,3.55l2.59-551.51Z"/><path class="cls-3" d="M680.22,893.75c7.92,3.39,19.38,3.21,28.65-.33V338.14H680.22Z"/><path class="cls-2" d="M677.91,344.73,426.73,201.5c-9.18-5.3-8-14.56,2.58-20.69L573.83,97.37c10.6-6.12,26.65-6.79,35.84-1.48L860.84,239.11c9.19,5.3,8,14.57-2.57,20.69L713.75,343.24C703.14,349.37,687.1,350,677.91,344.73Z"/><path class="cls-4" d="M858.27,249.64,713.75,333.08c-10.61,6.12-26.65,6.79-35.84,1.48L426.73,191.34a13.86,13.86,0,0,1-4.58-4.07c-3.16,5.08-1.72,10.59,4.58,14.23L677.91,344.73c9.19,5.3,25.23,4.64,35.84-1.49L858.27,259.8c8.24-4.76,10.75-11.4,7.16-16.62A20.15,20.15,0,0,1,858.27,249.64Z"/><path class="cls-3" d="M685,286.68,517.79,189.74c-4.3-2.48-3.76-6.81,1.2-9.68l67.63-39c5-2.87,12.47-3.18,16.77-.7l167.23,96.94c4.3,2.48,3.76,6.81-1.2,9.68L701.79,286C696.82,288.85,689.32,289.16,685,286.68Z"/><path class="cls-2" d="M594.74,194.1l-9.69-5.6c-.6-.34-.53-.94.16-1.34l9.36-5.4a2.58,2.58,0,0,1,2.32-.1l9.69,5.6c.59.34.52.94-.17,1.34l-9.35,5.4A2.58,2.58,0,0,1,594.74,194.1Z"/><path class="cls-2" d="M627.11,212.71l-9.69-5.59c-.6-.35-.52-1,.17-1.34l9.35-5.4a2.58,2.58,0,0,1,2.32-.1l9.69,5.59c.6.35.52.95-.16,1.34l-9.36,5.41A2.58,2.58,0,0,1,627.11,212.71Z"/><path class="cls-2" d="M659.48,231.33l-9.69-5.6c-.59-.34-.52-.94.17-1.34l9.36-5.4a2.58,2.58,0,0,1,2.32-.1l9.69,5.6c.59.34.52.94-.17,1.34l-9.36,5.4A2.58,2.58,0,0,1,659.48,231.33Z"/><path class="cls-2" d="M691.86,249.94l-9.69-5.59c-.6-.35-.52-.95.16-1.34l9.36-5.4a2.58,2.58,0,0,1,2.32-.1l9.69,5.59c.6.35.52,1-.17,1.34l-9.35,5.41A2.58,2.58,0,0,1,691.86,249.94Z"/><path class="cls-3" d="M517.79,189.74l.2.12a8.38,8.38,0,0,1,1-.69l67.63-39c5-2.87,12.47-3.18,16.77-.69l167,96.82c4-2.84,4.17-6.7.2-9L603.39,140.32c-4.3-2.48-11.81-2.17-16.77.7l-67.63,39C514,182.93,513.49,187.26,517.79,189.74Z"/><path class="cls-2" d="M650.16,453,464.57,345.87c-5.35-3.09-9.69-11.38-9.69-18.51v-34c0-7.14,4.34-10.42,9.69-7.33L650.16,393.19c5.35,3.09,9.69,11.37,9.69,18.51v34C659.85,452.83,655.51,456.11,650.16,453Z"/><path class="cls-3" d="M636.13,423l-8.73-5a5.07,5.07,0,0,1-2.11-4v-9.32c0-1.56,1-2.27,2.11-1.6l8.73,5a5.07,5.07,0,0,1,2.11,4v9.32C638.24,422.93,637.29,423.64,636.13,423Z"/><path class="cls-3" d="M607,406.13l-8.72-5a5,5,0,0,1-2.11-4v-9.32c0-1.55.94-2.27,2.11-1.59l8.72,5a5,5,0,0,1,2.11,4v9.31C609.07,406.09,608.13,406.8,607,406.13Z"/><path class="cls-2" d="M650.16,575.88,464.57,468.72c-5.35-3.09-9.69-11.37-9.69-18.51v-34c0-7.13,4.34-10.41,9.69-7.32L650.16,516c5.35,3.09,9.69,11.38,9.69,18.51v34C659.85,575.69,655.51,579,650.16,575.88Z"/><path class="cls-3" d="M636.13,545.82l-8.73-5a5.07,5.07,0,0,1-2.11-4v-9.32c0-1.55,1-2.27,2.11-1.59l8.73,5a5.07,5.07,0,0,1,2.11,4v9.31C638.24,545.78,637.29,546.49,636.13,545.82Z"/><path class="cls-3" d="M607,529l-8.72-5a5,5,0,0,1-2.11-4v-9.32c0-1.55.94-2.27,2.11-1.59l8.72,5a5.06,5.06,0,0,1,2.11,4v9.31C609.07,528.94,608.13,529.65,607,529Z"/><path class="cls-2" d="M650.16,698.73,464.57,591.57c-5.35-3.09-9.69-11.37-9.69-18.51v-34c0-7.13,4.34-10.41,9.69-7.32L650.16,638.89c5.35,3.09,9.69,11.38,9.69,18.51v34C659.85,698.54,655.51,701.82,650.16,698.73Z"/><path class="cls-3" d="M636.13,668.67l-8.73-5a5.07,5.07,0,0,1-2.11-4v-9.32c0-1.55,1-2.27,2.11-1.59l8.73,5a5.09,5.09,0,0,1,2.11,4v9.31C638.24,668.63,637.29,669.34,636.13,668.67Z"/><path class="cls-3" d="M607,651.83l-8.72-5a5.06,5.06,0,0,1-2.11-4v-9.31c0-1.56.94-2.27,2.11-1.6l8.72,5a5.06,5.06,0,0,1,2.11,4v9.32C609.07,651.79,608.13,652.51,607,651.83Z"/><path class="cls-2" d="M650.16,821.58,464.57,714.43c-5.35-3.09-9.69-11.38-9.69-18.52v-34c0-7.13,4.34-10.41,9.69-7.32L650.16,761.74c5.35,3.09,9.69,11.38,9.69,18.51v34C659.85,821.39,655.51,824.67,650.16,821.58Z"/><path class="cls-3" d="M636.13,791.52l-8.73-5a5.09,5.09,0,0,1-2.11-4v-9.31c0-1.56,1-2.27,2.11-1.6l8.73,5a5.09,5.09,0,0,1,2.11,4v9.32C638.24,791.48,637.29,792.19,636.13,791.52Z"/><path class="cls-3" d="M607,774.68l-8.72-5a5.06,5.06,0,0,1-2.11-4V756.3c0-1.56.94-2.27,2.11-1.6l8.72,5a5,5,0,0,1,2.11,4v9.32C609.07,774.64,608.13,775.36,607,774.68Z"/><path class="cls-3" d="M742,453l95.08-54.43c5.35-3.09,9.69-11.38,9.69-18.51v-34c0-7.13-4.34-10.41-9.69-7.32L742,393.19c-5.35,3.09-9.69,11.37-9.69,18.51v34C732.28,452.83,736.62,456.11,742,453Z"/><path class="cls-3" d="M742,575.88l95.08-54.44c5.35-3.09,9.69-11.38,9.69-18.51v-34c0-7.14-4.34-10.42-9.69-7.33L742,516c-5.35,3.09-9.69,11.38-9.69,18.51v34C732.28,575.69,736.62,579,742,575.88Z"/><path class="cls-3" d="M742,698.73l95.08-54.44c5.35-3.09,9.69-11.38,9.69-18.51v-34c0-7.14-4.34-10.42-9.69-7.33L742,638.89c-5.35,3.09-9.69,11.38-9.69,18.51v34C732.28,698.54,736.62,701.82,742,698.73Z"/><path class="cls-3" d="M742,821.58l95.08-54.44c5.35-3.09,9.69-11.38,9.69-18.51v-34c0-7.14-4.34-10.41-9.69-7.33L742,761.74c-5.35,3.09-9.69,11.38-9.69,18.51v34C732.28,821.39,736.62,824.67,742,821.58Z"/><path class="cls-2" d="M558.83,659.75V404.91l-94.59-66.33c-47.75-33.49-95.91-61.29-143.66-82.94L226,212.74,187.8,235.11l42.27,30.64v199.5s-5.19,162.62,166.41,350.29c22.08,1.35,41.21-.28,57.82-4.12l-2.85,9.24,33.6-19.8q4.35-2.34,8.36-4.91l.48-.28h0C561.64,751.83,558.83,659.75,558.83,659.75Z"/><path class="cls-2" d="M392.22,292.56q-35.87-20.7-71.63-36.92L226,212.74,187.8,235.11l42.27,30.64V386.18Z"/><path class="cls-1" d="M359.27,274.52l-79.71,46,65.66,37.91,79.74-46Q392.13,291.62,359.27,274.52Z"/><path class="cls-1" d="M520.64,682.12V427.27l-94.59-66.33C378.3,327.46,330.14,299.65,282.39,278L187.8,235.11V490s-5.19,162.63,166.42,350.3C525.83,850.73,520.64,682.12,520.64,682.12Z"/><path class="cls-2" d="M454.71,782.54c-20.65,20-50,30-87.39,29.64-152.59-171.9-151-319.94-151-321.32V279.36L270.62,304c46.06,20.88,92.84,47.9,139.05,80.31l82.45,57.81V683C492.15,683.61,493,745.44,454.71,782.54Z"/><path class="cls-3" d="M368.83,560.19a16.52,16.52,0,0,0,7.48,12.94c4.13,2.39,7.47.46,7.47-4.31a16.52,16.52,0,0,0-7.47-13C372.18,553.49,368.83,555.42,368.83,560.19Z"/><path class="cls-3" d="M344.78,546.3a16.52,16.52,0,0,0,7.48,13c4.13,2.38,7.47.45,7.47-4.32A16.51,16.51,0,0,0,352.26,542C348.13,539.6,344.78,541.54,344.78,546.3Z"/><path class="cls-3" d="M320.73,532.42a16.52,16.52,0,0,0,7.48,12.94c4.13,2.39,7.47.46,7.47-4.31a16.52,16.52,0,0,0-7.47-12.95C324.08,525.72,320.73,527.65,320.73,532.42Z"/><path class="cls-1" d="M100.22,822.28l-58.43-34c-4.93-2.85-4.31-7.82,1.38-11.11l55.69-32.44c5.69-3.29,14.31-3.65,19.24-.8l58.42,34c4.93,2.85,4.31,7.82-1.38,11.11l-55.69,32.45C113.76,824.77,105.15,825.13,100.22,822.28Z"/><path class="cls-3" d="M197.78,714.23h0V699.56l-77.95,0,.54,0c-6.19-3.57-17-3.12-24.13,1l2.31-1-78,0v15.66c-.17,2.42,1.17,4.75,4.14,6.47l73.27,42.63c6.19,3.57,17,3.12,24.13-1l69.84-40.69C196,720.18,198,717.1,197.78,714.23Z"/><path class="cls-2" d="M109.17,697.1a27.86,27.86,0,0,0-12.93,3.39l2.31-1-78,0v15.66c-.17,2.42,1.17,4.75,4.14,6.47l73.27,42.63a22,22,0,0,0,11.2,2.39Z"/><path class="cls-1" d="M29.36,699.49H20.53v15.66c-.17,2.42,1.17,4.75,4.14,6.47l4.69,2.7Z"/><path class="cls-3" d="M99.5,765c5.33,2.28,13,2.16,19.28-.22V744.28H99.5Z"/><path class="cls-2" d="M97.94,748.71,24.67,706.08c-6.18-3.57-5.4-9.81,1.74-13.93l69.83-40.69c7.14-4.12,17.94-4.57,24.13-1l73.27,42.63c6.18,3.57,5.41,9.81-1.73,13.93l-69.84,40.69C114.93,751.83,104.13,752.28,97.94,748.71Z"/><path class="cls-2" d="M96.81,689a15.25,15.25,0,0,1-13.8-.07c-3.8-2.22-3.79-5.79,0-8a15.25,15.25,0,0,1,13.8.07C100.65,683.2,100.63,686.76,96.81,689Z"/><path class="cls-2" d="M119,701.87a15.22,15.22,0,0,1-13.8-.06c-3.8-2.22-3.79-5.79,0-8a15.25,15.25,0,0,1,13.8.07C122.79,696.12,122.77,699.69,119,701.87Z"/><path class="cls-2" d="M141.09,714.8a15.25,15.25,0,0,1-13.8-.07c-3.8-2.21-3.78-5.78,0-8a15.22,15.22,0,0,1,13.8.06C144.93,709.05,144.91,712.62,141.09,714.8Z"/><path class="cls-1" d="M899.78,525.37s-1.53,31.59-3.94,52.83-53.55-16.31-53.55-16.31V537.71Z"/><path class="cls-3" d="M872.54,918.5c-.77,1.92-14,18-27.27,22.08-5.76,1.75-9.64,2-12.17,1.68a4,4,0,0,1-3.27-5.35,50.37,50.37,0,0,1,25.42-28C877.72,897.75,872.54,918.5,872.54,918.5Z"/><path class="cls-3" d="M877,924.69s-5,11.72-6.53,21.51c-.94,6,2.34,13.74,5,18.88a5.51,5.51,0,0,0,8.59,1.49c4.33-3.93,9.84-10.76,10.76-20.56,1.53-16.52,0-19.4,0-19.4Z"/><path class="cls-3" d="M908.88,725.08a313.73,313.73,0,0,1,0,43.87c-1.73,23-7.92,130.82-9.07,156.75,0,0,.57,7.85-14.62,6.12s-14-10.44-14-10.44-21.34-.29-22-12.87S827.35,758.3,827.35,708.82Z"/><polygon class="cls-5" points="834.69 617.54 822.39 692.81 811.19 692.62 812.22 623.64 834.69 617.54"/><path class="cls-2" d="M839.85,550.89s-16.61-.43-22.39,23.57-10.3,54.06-5.27,56.56c15.09,7.49,24.64-1.28,24.64-1.28Z"/><path class="cls-2" d="M834.88,551.91a13.61,13.61,0,0,1,9-.49C858,555.48,911.2,571.09,920,578.59c10.13,8.66-15.2,57.31-14.83,73.27s2.16,34.76,3.57,52.1,3.32,26.85-10.87,34.23-38.4,7.71-56.53-6.1-14.84-23.27-14.09-33.3,6.93-53.4,6.4-65.71A46.62,46.62,0,0,1,822.5,620.3c-4.73-8.07,3.62-22.91,7.09-32.55s-2-20.67-.88-28.54C829.26,555.16,831.85,553.17,834.88,551.91Z"/><path class="cls-6" d="M851.89,568.5c-1.12,8.76,6.92,17,18,18.42s20.89-4.54,22-13.3-6.92-17-18-18.43S853,559.73,851.89,568.5Z"/><path class="cls-5" d="M857.59,569.23c-.8,6.26,4.94,12.16,12.83,13.17s14.94-3.25,15.74-9.51-4.94-12.16-12.83-13.17S858.39,563,857.59,569.23Z"/><path class="cls-5" d="M865.43,548.66s9.61-7.9,11.49-3.9,3.44,21.17,3.44,21.17l-19.07,5.13,2.9-17.4S860.37,550.43,865.43,548.66Z"/><path class="cls-5" d="M835.62,529.85a28.48,28.48,0,1,0,26.75-30.11A28.49,28.49,0,0,0,835.62,529.85Z"/><path class="cls-7" d="M878.25,549.74c.17.9.33,1.86.49,2.84-1.92,9.91-16.74,14.25-16.74,14.25l2.19-13.17s-1.8-1.52-1.29-3C868.76,548.76,876.14,547.12,878.25,549.74Z"/><path class="cls-5" d="M835.62,529.85a28.48,28.48,0,1,0,26.75-30.11A28.49,28.49,0,0,0,835.62,529.85Z"/><polygon class="cls-5" points="934.22 648.71 931.03 724.92 919.89 726.07 912.64 657.47 934.22 648.71"/><path class="cls-2" d="M897.6,642.34c3.69-16.27,11-52.22,11-52.22l3.12,35.76c-3.59,10.6-6.68,20.34-6.55,26,.21,9.36.93,19.71,1.76,30.17v0S893.92,658.62,897.6,642.34Z"/><path class="cls-3" d="M917.84,577s8.91,3.41,13.95,30.77,8.81,54.78-.18,58.31-16.5,6.19-19.14-1.13-4.28-42.59-4.61-55.27S907,579.53,917.84,577Z"/><path class="cls-1" d="M871.22,921.38a43.37,43.37,0,0,1-6.1-.64h0l-4.18-167.52Z"/><path class="cls-2" d="M887.34,830.88l5.93-7.74,62.34-36.09c2-1.16,3.62-4.26,3.61-6.92l-.05-51,3.58-4.68-3.36-1.95h0a2.27,2.27,0,0,0-2.44.15l-70.65,40.9c-2,1.16-3.62,4.26-3.61,6.92l.06,55.59c0,1.5.51,2.54,1.32,3h0Z"/><path class="cls-3" d="M930.45,801.62l4.43-2.57,24.31-42.23,0-27.73,3.58-4.68-3.36-1.95h0a2.27,2.27,0,0,0-2.44.15l-70.65,40.9a7.3,7.3,0,0,0-2.66,3.11Z"/><path class="cls-3" d="M961.16,726.49l1.59-2.08-3.36-1.95h0a2.27,2.27,0,0,0-2.44.15l-1.25.72Z"/><path class="cls-2" d="M885.65,764a9,9,0,0,0-2.95,5.95l6.9,4,3.31-5.75Z"/><path class="cls-3" d="M889.65,765.46l70.65-40.91c2-1.15,3.62.07,3.63,2.74l.06,55.58c0,2.67-1.62,5.77-3.62,6.92L889.72,830.7c-2,1.15-3.62-.07-3.62-2.74L886,772.38C886,769.71,887.66,766.62,889.65,765.46Z"/><path class="cls-5" d="M930.94,724.28s2.95,17.79,2.5,23.48-3.49,15.1-5.8,14.9-.08-22.91-4.15-20.65-4.49,6.14-6.33,4.77,3.21-20.78,1.86-29.2S930.94,724.28,930.94,724.28Z"/><path class="cls-5" d="M811.19,692.62s-3,17.78-2.5,23.48,3.49,15.1,5.8,14.9.08-22.91,4.15-20.65,4.49,6.14,6.33,4.77-3.21-20.78-1.87-29.2S811.19,692.62,811.19,692.62Z"/><path class="cls-7" d="M853.12,530.66c-14.29,5.07-17.07,2-17.21,1.81-.13-.86-.23-1.73-.29-2.62a28.6,28.6,0,0,1,1-9.1l37.07-5S867.78,525.45,853.12,530.66Z"/><path class="cls-1" d="M834.6,501.48c3.37-2.89,15.51-17.16,37.28-13.79,13.6,2.11,25.06,11.38,27.61,32.55,1.71,14.26-3.52,28.31-13.16,38.69a10.7,10.7,0,0,1-1.55-.78c-5.45-3.59-6-5.56-6-5.58l-1.2-10.8a3,3,0,0,1,2.71-3,5.41,5.41,0,0,0,4-2.43c3.13-4.09,1.68-10.46-4.57-10.7-3.27-.13-4.53-1.9-5-3.55a2.56,2.56,0,0,0-3.34-1.74c-7.11,2.57-24.64,8.12-35.92,4.93C821,521.2,831.23,504.36,834.6,501.48Z"/><path class="cls-6" d="M850.83,543.52l-8.71-2.39s4.16,6.54,10.23,8.21,7-3.48,7-3.48Z"/><polygon class="cls-3" points="916.13 746.23 923.55 741.98 920.76 746.53 917.01 747.92 916.13 746.23"/><path class="cls-1" d="M292.23,864.83V843.67L286,847.19c-3.82-5.18-9.36-10-16.69-14.27-30.55-17.64-80.09-17.64-110.65,0-8.47,4.89-14.59,10.63-18.36,16.74l-4.55-6v21.16c0,11.57,7.62,23.15,22.91,32,30.56,17.64,80.1,17.64,110.66,0C284.61,888,292.25,876.4,292.23,864.83ZM211.82,851c-7.85,4.54-20.59,4.54-28.45,0s-7.86-11.89,0-16.43,20.6-4.54,28.45,0S219.68,846.5,211.82,851Z"/><path class="cls-3" d="M207.44,881.5l-33.77-16.64-30-19.82a38.18,38.18,0,0,0-3.37,4.62l-4.55-6v21.16c0,11.57,7.62,23.15,22.91,32,13.61,7.85,31,12.2,48.78,13.06Z"/><path class="cls-3" d="M269.31,811.73c-30.55-17.64-80.09-17.64-110.65,0s-30.55,46.25,0,63.89,80.1,17.64,110.66,0S299.87,829.37,269.31,811.73Zm-57.22,32.55c-7.86,4.53-20.6,4.53-28.46,0s-7.85-11.89,0-16.43,20.6-4.54,28.46,0S220,839.74,212.09,844.28Z"/><path class="cls-1" d="M227.44,822.9H185a110.18,110.18,0,0,0-11.31,3.24v36h53.77ZM211.82,851c-7.85,4.54-20.59,4.54-28.45,0s-7.86-11.89,0-16.43,20.6-4.54,28.45,0S219.68,846.5,211.82,851Z"/><path class="cls-1" d="M262.75,815.52c-26.93-15.55-70.6-15.55-97.53,0s-26.93,40.76,0,56.31,70.6,15.55,97.54,0S289.69,831.07,262.75,815.52Zm-50.66,28.76c-7.86,4.53-20.6,4.53-28.46,0s-7.85-11.89,0-16.43,20.6-4.54,28.46,0S220,839.74,212.09,844.28Z"/><path class="cls-1" d="M165.22,821.36c26.93-15.55,70.6-15.55,97.53,0,12.18,7,18.84,16,20,25.24,1.41-11.14-5.24-22.56-20-31.08-26.93-15.55-70.6-15.55-97.53,0-14.75,8.52-21.4,19.93-20,31.07C146.39,837.4,153,828.39,165.22,821.36Z"/><path class="cls-1" d="M285.82,882.48a73.13,73.13,0,0,1-15.14,11.36A107.88,107.88,0,0,1,251,902.59l15,8.63,22.54,1.16,11.15,6.44-4.55,2.63,8.44,4.87,9.11-5.26,14.75,8.52-14.82,8.55,10.89,6.29,10.56,6.1,13.17-7.6,19.5,11.26-7.44,4.3,12.53,7.24,7.44-4.3,5.88,3.39-5.92,11.78,19,10.95H467.8Z"/><path class="cls-3" d="M285.82,867.19a73.13,73.13,0,0,1-15.14,11.36A107.88,107.88,0,0,1,251,887.3l15,8.63,22.54,1.16,11.15,6.44-4.55,2.63,8.44,4.87,9.11-5.25,14.75,8.51-14.82,8.56,10.89,6.28,10.56,6.1,13.17-7.6,19.5,11.27-7.44,4.29,12.53,7.24,7.44-4.3,5.88,3.4-5.92,11.78,19,10.94H467.8Z"/><rect class="cls-1" x="398.14" y="972.25" width="69.66" height="15.29"/><polygon class="cls-1" points="371.78 965.72 371.78 950.43 379.22 946.13 379.22 961.42 371.78 965.72"/><polygon class="cls-3" points="359.25 943.2 359.25 958.48 371.78 965.72 371.78 950.43 359.25 943.2"/><polygon class="cls-1" points="347.19 927.63 347.19 942.92 334.02 950.52 334.02 935.23 347.19 927.63"/><polygon class="cls-3" points="312.57 922.85 312.57 938.13 334.02 950.52 334.02 935.23 312.57 922.85"/><polygon class="cls-3" points="379.22 961.42 379.18 976.59 398.14 987.54 398.14 972.25 379.22 961.42"/><polygon class="cls-3" points="303.53 911.03 303.53 926.32 295.09 921.45 295.09 906.16 303.53 911.03"/><polygon class="cls-1" points="265.95 895.93 265.95 911.22 288.49 912.38 288.49 897.09 265.95 895.93"/><polygon class="cls-1" points="420.26 961.42 287.03 884.43 294.44 880.16 434.99 961.37 420.26 961.42"/><polygon class="cls-1" points="294.44 883.86 428.61 961.39 434.99 961.37 294.44 880.16 287.03 884.43 290.24 886.28 294.44 883.86"/><polygon class="cls-1" points="265.95 911.22 265.95 895.93 250.99 887.3 250.99 902.59 265.95 911.22"/><polygon class="cls-1" points="312.64 905.77 312.64 921.06 303.53 926.32 303.53 911.03 312.64 905.77"/><path class="cls-3" d="M262.75,815.52C247.62,806.78,227.2,803,207.44,804v5.84c19.76-1.09,40.18,2.74,55.31,11.48,12.18,7,18.84,16,20,25.24C284.16,835.45,277.51,824,262.75,815.52Z"/><path class="cls-1" d="M962.05,463.86l-60.77-35.35c-5.13-3-4.48-8.14,1.44-11.56l57.91-33.74c5.93-3.42,14.88-3.79,20-.83l60.77,35.36c5.13,3,4.48,8.13-1.44,11.55L982.05,463C976.13,466.45,967.17,466.82,962.05,463.86Z"/><path class="cls-3" d="M1060,354.24h0V339.56l-78,0,.54,0c-6.19-3.57-17-3.12-24.13,1l2.31-1-78,0v15.66c-.18,2.42,1.17,4.75,4.14,6.47l73.27,42.63c6.19,3.57,17,3.12,24.13-1l69.83-40.69C1058.21,360.19,1060.2,357.11,1060,354.24Z"/><path class="cls-2" d="M971.36,337.11a27.86,27.86,0,0,0-12.93,3.39l2.31-1-78,0v15.66c-.18,2.42,1.17,4.75,4.14,6.47l73.27,42.63a21.91,21.91,0,0,0,11.2,2.39Z"/><path class="cls-3" d="M891.55,339.5h-8.83v15.66c-.18,2.42,1.17,4.75,4.14,6.47l4.69,2.7Z"/><path class="cls-2" d="M961.68,405c5.34,2.28,13.05,2.15,19.29-.22V384.29H961.68Z"/><path class="cls-2" d="M960.13,388.72l-73.27-42.63c-6.18-3.57-5.41-9.81,1.73-13.93l69.84-40.69c7.14-4.12,17.94-4.57,24.13-1l73.27,42.63c6.18,3.57,5.4,9.81-1.74,13.93l-69.83,40.69C977.12,391.84,966.32,392.29,960.13,388.72Z"/><path class="cls-3" d="M954.53,328.68a15.25,15.25,0,0,1-13.8-.07c-3.8-2.22-3.78-5.79,0-8a15.25,15.25,0,0,1,13.8.07C958.37,322.93,958.36,326.49,954.53,328.68Z"/><path class="cls-3" d="M976.67,341.6a15.22,15.22,0,0,1-13.8-.06c-3.8-2.22-3.78-5.79,0-8a15.25,15.25,0,0,1,13.8.07C980.51,335.86,980.5,339.42,976.67,341.6Z"/><path class="cls-3" d="M998.82,354.53a15.3,15.3,0,0,1-13.81-.06c-3.8-2.22-3.78-5.79,0-8a15.25,15.25,0,0,1,13.8.06C1002.66,348.78,1002.64,352.35,998.82,354.53Z"/></svg>