<svg id="Layer_1" data-name="Layer 1" xmlns="http://www.w3.org/2000/svg" viewBox="0 0 1033.78 959.99"><defs><style>.cls-1,.cls-2{fill:#e21ef7;}.cls-1{opacity:0.15;}.cls-3{fill:#b922dd;}.cls-4{fill:#fafafa;}</style></defs><path class="cls-1" d="M939.49,801.55c-128.28,170.2-407,197.81-600.27,109C59.4,782-82.74,390.5,50.5,173.24,123.27,54.59,291.27-33.44,397.78,12.31,515.66,63,459.37,235,602.89,352.14,750.44,472.58,918.37,379.31,991.7,489.91,1049.73,577.41,1000.7,720.34,939.49,801.55Z"/><circle class="cls-1" cx="958" cy="894.15" r="38.27"/><circle class="cls-1" cx="1016.94" cy="845.32" r="16.84" transform="matrix(0.16, -0.99, 0.99, 0.16, 19.64, 1713.72)"/><circle class="cls-2" cx="789.66" cy="352.14" r="26.02"/><path class="cls-3" d="M516.92,107.1c-230.25,0-417.53,173.21-417.53,386.37,0,87.37,31.51,171,89.32,239.06l-79.89,87.38a37.33,37.33,0,0,0-7,38.19c5,13.17,16.67,21.74,29.71,21.74H516.92c230.24,0,417.53-173.21,417.53-386.37S747.16,107.1,516.92,107.1Z"/><path class="cls-4" d="M709.62,388.09H324.21c-17.66,0-32.12,15.81-32.12,35.13s14.46,35.12,32.12,35.12H709.62c17.67,0,32.12-15.8,32.12-35.12S727.29,388.09,709.62,388.09Z"/><path class="cls-4" d="M581.15,528.59H324.21c-17.66,0-32.12,15.81-32.12,35.13s14.46,35.12,32.12,35.12H581.15c17.67,0,32.12-15.81,32.12-35.12S598.82,528.59,581.15,528.59Z"/></svg>