<svg xmlns="http://www.w3.org/2000/svg" xmlns:xlink="http://www.w3.org/1999/xlink" viewBox="0 0 1910.78 1399.84"><defs><style>.cls-1{fill:none;}.cls-2{isolation:isolate;}.cls-3{fill:#fbbaba;}.cls-4{fill:#f5a4a4;}.cls-5{fill:#ffe8f8;}.cls-6{fill:#00b3bf;}.cls-7{fill:#eae9f3;}.cls-8{fill:#676e9c;}.cls-9{fill:#6cbde1;}.cls-10{clip-path:url(#clip-path);}.cls-11{fill:#118dc9;}.cls-12{fill:#128ec9;}.cls-13{fill:#138ec9;}.cls-14{fill:#148fca;}.cls-15{fill:#1590ca;}.cls-16{fill:#1690cb;}.cls-17{fill:#1791cb;}.cls-18{fill:#1891cc;}.cls-19{fill:#1992cc;}.cls-20{fill:#1a93cd;}.cls-21{fill:#1b93cd;}.cls-22{fill:#1c94cd;}.cls-23{fill:#1d95ce;}.cls-24{fill:#1e95ce;}.cls-25{fill:#1f96cf;}.cls-26{fill:#2097cf;}.cls-27{fill:#2197d0;}.cls-28{fill:#2298d0;}.cls-29{fill:#2399d1;}.cls-30{fill:#2499d1;}.cls-31{fill:#259ad1;}.cls-32{fill:#269ad2;}.cls-33{fill:#279bd2;}.cls-34{fill:#289cd3;}.cls-35{fill:#299cd3;}.cls-36{fill:#2a9dd4;}.cls-37{fill:#2b9ed4;}.cls-38{fill:#2c9ed4;}.cls-39{fill:#2d9fd5;}.cls-40{fill:#2ea0d5;}.cls-41{fill:#2fa0d6;}.cls-42{fill:#30a1d6;}.cls-43{fill:#31a2d7;}.cls-44{fill:#32a2d7;}.cls-45{fill:#33a3d8;}.cls-46{fill:#34a3d8;}.cls-47{fill:#35a4d8;}.cls-48{fill:#36a5d9;}.cls-49{fill:#37a5d9;}.cls-50{fill:#38a6da;}.cls-51{fill:#39a7da;}.cls-52{fill:#3aa7db;}.cls-53{fill:#3ba8db;}.cls-54{fill:#3ca9dc;}.cls-55{fill:#3da9dc;}.cls-56{fill:#3eaadc;}.cls-57{fill:#3fabdd;}.cls-58{fill:#40abdd;}.cls-59{fill:#41acde;}.cls-60{fill:#42acde;}.cls-61{fill:#43addf;}.cls-62{fill:#44aedf;}.cls-63{fill:#45aee0;}.cls-64{fill:#47afe0;}.cls-65{fill:#48b0e0;}.cls-66{fill:#49b0e1;}.cls-67{fill:#4ab1e1;}.cls-68{fill:#4bb2e2;}.cls-69{fill:#4cb2e2;}.cls-70{fill:#4db3e3;}.cls-71{fill:#4eb4e3;}.cls-72{fill:#4fb4e4;}.cls-73{fill:#50b5e4;}.cls-74{fill:#51b5e4;}.cls-75{fill:#52b6e5;}.cls-76{fill:#53b7e5;}.cls-77{fill:#54b7e6;}.cls-78{fill:#55b8e6;}.cls-79{fill:#56b9e7;}.cls-80{fill:#57b9e7;}.cls-81{fill:#58bae8;}.cls-82{fill:#59bbe8;}.cls-83{fill:#5abbe8;}.cls-84{fill:#5bbce9;}.cls-85{fill:#5cbde9;}.cls-86{fill:#5dbdea;}.cls-87{fill:#5ebeea;}.cls-88{fill:#5fbeeb;}.cls-89{fill:#60bfeb;}.cls-90{fill:#61c0ec;}.cls-91{fill:#62c0ec;}.cls-92{fill:#63c1ec;}.cls-93{fill:#64c2ed;}.cls-94{fill:#65c2ed;}.cls-95{fill:#66c3ee;}.cls-96{fill:#67c4ee;}.cls-97{fill:#68c4ef;}.cls-98{fill:#69c5ef;}.cls-99{fill:#6ac6f0;}.cls-100{fill:#6bc6f0;}.cls-101{fill:#6cc7f0;}.cls-102{fill:#6dc7f1;}.cls-103{fill:#6ec8f1;}.cls-104{fill:#6fc9f2;}.cls-105{fill:#70c9f2;}.cls-106{fill:#71caf3;}.cls-107{fill:#72cbf3;}.cls-108{fill:#73cbf3;}.cls-109{fill:#74ccf4;}.cls-110{fill:#75cdf4;}.cls-111{fill:#76cdf5;}.cls-112{fill:#77cef5;}.cls-113{fill:#78cff6;}.cls-114{fill:#79cff6;}.cls-115{fill:#7ad0f7;}.cls-116{fill:#7bd0f7;}.cls-117{fill:#7cd1f7;}.cls-118{fill:#7dd2f8;}.cls-119{fill:#7ed2f8;}.cls-120{fill:#7fd3f9;}.cls-121{fill:#80d4f9;}.cls-122{fill:#81d4fa;}.cls-123{fill:#82d5fa;}.cls-124{fill:#83d6fb;}.cls-125{fill:#84d6fb;}.cls-126{fill:#85d7fb;}.cls-127{fill:#86d8fc;}.cls-128{fill:#87d8fc;}.cls-129{fill:#88d9fd;}.cls-130{fill:#89d9fd;}.cls-131{fill:#8adafe;}.cls-132{fill:#8bdbfe;}.cls-133{fill:#8cdbff;}.cls-134{fill:#8ddcff;}.cls-135{opacity:0.32;}.cls-135,.cls-207{mix-blend-mode:screen;}.cls-136{clip-path:url(#clip-path-2);}.cls-137{fill:#afd6ff;}.cls-138{clip-path:url(#clip-path-3);}.cls-139{fill:#6ea7e8;}.cls-140{fill:#6fa8e9;}.cls-141{fill:#70a9e9;}.cls-142{fill:#71aaea;}.cls-143{fill:#72abea;}.cls-144{fill:#73aceb;}.cls-145{fill:#74adeb;}.cls-146{fill:#75aeec;}.cls-147{fill:#76afec;}.cls-148{fill:#77b0ed;}.cls-149{fill:#78b1ed;}.cls-150{fill:#79b2ee;}.cls-151{fill:#7ab3ee;}.cls-152{fill:#7bb4ef;}.cls-153{fill:#7cb5ef;}.cls-154{fill:#7db6f0;}.cls-155{fill:#7eb7f1;}.cls-156{fill:#7fb8f1;}.cls-157{fill:#80b9f2;}.cls-158{fill:#81baf2;}.cls-159{fill:#82bbf3;}.cls-160{fill:#83bcf3;}.cls-161{fill:#85bdf4;}.cls-162{fill:#86bef4;}.cls-163{fill:#87bff5;}.cls-164{fill:#88c0f5;}.cls-165{fill:#89c1f6;}.cls-166{fill:#8ac2f6;}.cls-167{fill:#8bc3f7;}.cls-168{fill:#8cc4f8;}.cls-169{fill:#8dc5f8;}.cls-170{fill:#8ec6f9;}.cls-171{fill:#8fc7f9;}.cls-172{fill:#90c8fa;}.cls-173{fill:#91c9fa;}.cls-174{fill:#92cafb;}.cls-175{fill:#93cbfb;}.cls-176{fill:#94ccfc;}.cls-177{fill:#95cdfc;}.cls-178{fill:#96cefd;}.cls-179{fill:#97cffd;}.cls-180{fill:#98d0fe;}.cls-181{fill:#99d1fe;}.cls-182{fill:#9ad2ff;}.cls-183{fill:#87a2c2;}.cls-184{fill:#badcff;}.cls-185{fill:#7696b5;}.cls-186{fill:#8088c2;}.cls-187{fill:#8792ce;}.cls-188{opacity:0.28;}.cls-189{fill:#370c62;}.cls-190{fill:#fd5e5a;}.cls-191{fill:#26004a;}.cls-192{fill:#130025;}.cls-193{fill:#fc7575;}.cls-194{fill:#00158e;}.cls-195{fill:#000f6b;}.cls-196{opacity:0.53;}.cls-196,.cls-205{mix-blend-mode:multiply;}.cls-197{fill:#320063;}.cls-198{fill:#7881b6;}.cls-199{fill:#2c46e6;}.cls-200{opacity:0.44;}.cls-201{fill:#0021db;}.cls-202{fill:#7686e6;}.cls-203{fill:#fff;}.cls-204{fill:#5e6fd1;}.cls-206{fill:#cde4e6;}.cls-208{fill:#666f7a;}.cls-209{fill:#dee3ff;}</style><clipPath id="clip-path"><path class="cls-1" d="M459.71,1112.15,440.17,481.7c0-16.6,14.42-30.06,32.22-30.06h998.08c17.8,0,32.23,13.46,32.23,30.06l-29.32,630.45c0,16.61-14.43,30.07-32.22,30.07H491.94C474.14,1142.22,459.71,1128.76,459.71,1112.15Z"/></clipPath><clipPath id="clip-path-2"><path class="cls-1" d="M1301.26,827.56c-121.09,213-332,119-619,75.14C585.9,888,511.52,919.31,455.23,967.46l4.48,144.69c0,16.61,14.43,30.07,32.23,30.07h949.22c17.79,0,32.22-13.46,32.22-30.07l20.09-432.07C1404.91,722.29,1333.1,771.55,1301.26,827.56Z"/></clipPath><clipPath id="clip-path-3"><path class="cls-1" d="M939.93,588.2s13.89,140.63,7.92,188.48L913.57,1140h295.9s-16.61-309.57-16.61-333S1188,588.2,1188,588.2l-46.39-23.43L1024.9,563.3Z"/></clipPath></defs><g class="cls-2"><g id="Layer_2" data-name="Layer 2"><g id="Layer_1-2" data-name="Layer 1"><path class="cls-3" d="M367.32,1379.46S246.6,1273.05,86.63,919.82-12.45,150.67,275,110.68,785.77,241,785.77,241s320.65-102.44,576.6-32.39S1593.14,622,1593.14,622s161.4,95.33,227.26,311.92-160.72,444.67-160.72,444.67Z"/><path class="cls-4" d="M1393.05,989.24c-.76,19.72-17.79,42.4-79,32.31-74.19-12.24-95.89-28.37-86.16-58.2,3.19-9.78,10.44-16.59,27.77-19.43,24.45-4,44.41-21.75,52.26-45.24l3.39-10.14,31,6-.47,9a68.29,68.29,0,0,0,34.28,62.56C1388.43,973.19,1393.39,980.45,1393.05,989.24Z"/><path class="cls-4" d="M1569.89,67.62c6.59-18.6-.83-46-61.4-59.25C1435-7.72,1408.91-.77,1406.91,30.55c-.66,10.26,3.56,19.27,18.6,28.32,21.23,12.77,33.21,36.65,31.81,61.38l-.61,10.67,31,6,2.9-8.56a68.27,68.27,0,0,1,55-45.43C1559.66,80.82,1567,75.91,1569.89,67.62Z"/><path class="cls-4" d="M1876,519.08c19.72.76,42.4,17.79,32.31,79-12.24,74.19-28.37,95.89-58.2,86.16-9.78-3.19-16.58-10.44-19.42-27.77-4-24.45-21.76-44.41-45.25-52.26l-10.14-3.39,6-31,9,.47A68.28,68.28,0,0,0,1852.83,536C1859.94,523.7,1867.2,518.74,1876,519.08Z"/><path class="cls-4" d="M954.37,342.24c-18.6-6.59-46,.83-59.25,61.4C879,477.09,886,503.22,917.3,505.22c10.26.66,19.27-3.56,28.33-18.6,12.76-21.23,36.64-33.21,61.37-31.81l10.67.61,6-31-8.56-2.9a68.27,68.27,0,0,1-45.43-55C967.57,352.47,962.66,345.17,954.37,342.24Z"/><path class="cls-4" d="M1731.89,854.18c13.41,14.48,17.4,42.57-33,78.69-61.11,43.8-87.86,47.74-102.08,19.77-4.66-9.17-4.34-19.11,5.9-33.37,14.46-20.12,16-46.79,5-69l-4.77-9.56L1629,823l6,6.72a68.28,68.28,0,0,0,68.48,20C1717.28,846.1,1725.92,847.73,1731.89,854.18Z"/><path class="cls-4" d="M1205.26,77.45c-8.49-17.81-33.11-31.92-85.32,1.53-63.31,40.55-76.87,64-56.15,87.5,6.8,7.73,16.15,11.12,33.19,6.88,24-6,49.4,2.43,65.89,20.91l7.12,8,26.13-17.72-4-8.1a68.27,68.27,0,0,1,6.78-71C1207.35,94,1209,85.39,1205.26,77.45Z"/><path class="cls-4" d="M1740.93,180.24c14.48-13.41,42.57-17.4,78.69,33,43.81,61.11,47.75,87.86,19.77,102.08-9.17,4.66-19.11,4.34-33.37-5.9-20.12-14.46-46.79-16-69-5l-9.56,4.77-17.72-26.13,6.72-6a68.28,68.28,0,0,0,20-68.48C1732.85,194.85,1734.48,186.21,1740.93,180.24Z"/><path class="cls-4" d="M964.2,706.87c-17.81,8.49-31.92,33.11,1.53,85.32,40.55,63.31,64,76.87,87.51,56.15,7.72-6.8,11.11-16.15,6.87-33.19-6-24,2.43-49.4,20.91-65.89l8-7.12L1071.28,716l-8.11,4a68.25,68.25,0,0,1-71-6.78C980.77,704.78,972.14,703.09,964.2,706.87Z"/><circle class="cls-4" cx="1399.51" cy="512.7" r="406.81" transform="translate(47.37 1139.77) rotate(-45)"/><path class="cls-5" d="M1276.88,196.55c-62.29,16.37-60.57,56.88-44.78,72.79,18.87,19,132.18-3.34,122.45-42.71C1345.8,191.21,1312.58,187.17,1276.88,196.55Z"/><path class="cls-5" d="M1424.27,359.24c-64-6.73-76.77,31.77-67.64,52.24,10.92,24.47,124.82,43.63,129.65,3.37C1490.62,378.62,1461,363.09,1424.27,359.24Z"/><path class="cls-5" d="M1742.87,451.78c-9.65-63.67-50.11-66.27-67.61-52.27-20.92,16.74-10.74,131.79,29.44,126.3C1740.85,520.88,1748.4,488.28,1742.87,451.78Z"/><path class="cls-5" d="M1184.05,773.51c46.57,44.5,80.17,21.82,85.46,0,6.33-26-72.06-110.86-100.51-81.95C1143.41,717.59,1157.37,748,1184.05,773.51Z"/><path class="cls-5" d="M1542.7,838.42c56.26-31.35,46.25-66.83,27.85-76.69-22-11.78-125.87,38.67-108.43,71C1477.82,861.77,1510.46,856.39,1542.7,838.42Z"/><path class="cls-5" d="M1270.22,621.57c44.44,51.36,82.82,30.24,91,7.57,9.73-27.09-64-124.1-97.54-95.91C1233.4,558.59,1244.75,592.13,1270.22,621.57Z"/><path class="cls-5" d="M1598.71,624.8c33.94-49.76,3-80.9-20.36-84.21-27.87-4-95,80.69-59,106.19C1551.79,669.72,1579.26,653.32,1598.71,624.8Z"/><path class="cls-5" d="M1071.08,447.14c-5.65,59.23,36,71.41,57.74,63.17,26-9.86,43.81-115.11.46-120C1090.28,385.9,1074.33,413.19,1071.08,447.14Z"/><path class="cls-5" d="M1544.18,192.38c-52-7.86-64.77,28.31-58.54,47.91,7.44,23.42,99.48,44.22,105.89,6.2C1597.3,212.28,1574,196.88,1544.18,192.38Z"/><rect class="cls-6" x="258.88" y="1369.3" width="1533.86" height="30.55" rx="15.06"/><path class="cls-7" d="M1476.07,1179H448.72c-17.79,0-32.22-13.46-32.22-30.07L397,445.63c0-16.61,14.43-30.07,32.23-30.07h1076.2c17.8,0,32.23,13.46,32.23,30.07L1508.29,1149C1508.29,1165.57,1493.87,1179,1476.07,1179Z"/><path class="cls-8" d="M1525.09,421.84a28.52,28.52,0,0,1,5.42,16.69l-29.32,703.33c0,16.6-14.43,30.06-32.22,30.06H441.62a33.63,33.63,0,0,1-19.71-6.27A32.88,32.88,0,0,0,448.72,1179H1476.07c17.8,0,32.22-13.46,32.22-30.07l29.32-703.33A29.35,29.35,0,0,0,1525.09,421.84Z"/><path class="cls-9" d="M461.17,1096.69,441.63,466.24c0-16.6,14.43-30.06,32.23-30.06h998.08c17.79,0,32.22,13.46,32.22,30.06l-29.31,630.45c0,16.6-14.43,30.06-32.23,30.06H493.4C475.6,1126.75,461.17,1113.29,461.17,1096.69Z"/><g class="cls-10"><polygon class="cls-11" points="1466.24 1142.22 1502.7 1139.85 1502.7 1142.22 1466.24 1142.22"/><polygon class="cls-12" points="1377.3 1142.22 1502.7 1134.07 1502.7 1139.85 1466.24 1142.22 1377.3 1142.22"/><polygon class="cls-13" points="1288.36 1142.22 1502.7 1128.29 1502.7 1134.07 1377.3 1142.22 1288.36 1142.22"/><polygon class="cls-14" points="1199.42 1142.22 1502.7 1122.51 1502.7 1128.29 1288.36 1142.22 1199.42 1142.22"/><polygon class="cls-15" points="1110.48 1142.22 1502.7 1116.73 1502.7 1122.51 1199.42 1142.22 1110.48 1142.22"/><polygon class="cls-16" points="1021.54 1142.22 1502.7 1110.95 1502.7 1116.73 1110.48 1142.22 1021.54 1142.22"/><polygon class="cls-17" points="932.61 1142.22 1502.7 1105.17 1502.7 1110.95 1021.54 1142.22 932.61 1142.22"/><polygon class="cls-18" points="843.67 1142.22 1502.7 1099.39 1502.7 1105.17 932.61 1142.22 843.67 1142.22"/><polygon class="cls-19" points="754.73 1142.22 1502.7 1093.61 1502.7 1099.39 843.67 1142.22 754.73 1142.22"/><polygon class="cls-20" points="665.79 1142.22 1502.7 1087.83 1502.7 1093.61 754.73 1142.22 665.79 1142.22"/><polygon class="cls-21" points="576.85 1142.22 1502.7 1082.05 1502.7 1087.83 665.79 1142.22 576.85 1142.22"/><polygon class="cls-22" points="487.91 1142.22 1502.7 1076.27 1502.7 1082.05 576.85 1142.22 487.91 1142.22"/><polygon class="cls-23" points="458.58 1142.22 458.33 1138.36 1502.7 1070.49 1502.7 1076.27 487.91 1142.22 458.58 1142.22"/><polygon class="cls-24" points="458.33 1138.36 457.96 1132.6 1502.7 1064.71 1502.7 1070.49 458.33 1138.36"/><polygon class="cls-25" points="457.96 1132.6 457.58 1126.85 1502.7 1058.93 1502.7 1064.71 457.96 1132.6"/><polygon class="cls-26" points="457.58 1126.85 457.21 1121.09 1502.7 1053.15 1502.7 1058.93 457.58 1126.85"/><polygon class="cls-27" points="457.21 1121.09 456.83 1115.34 1502.7 1047.38 1502.7 1053.15 457.21 1121.09"/><polygon class="cls-28" points="456.83 1115.34 456.46 1109.58 1502.7 1041.6 1502.7 1047.38 456.83 1115.34"/><polygon class="cls-29" points="456.46 1109.58 456.09 1103.83 1502.7 1035.82 1502.7 1041.6 456.46 1109.58"/><polygon class="cls-30" points="456.09 1103.83 455.71 1098.07 1502.7 1030.04 1502.7 1035.82 456.09 1103.83"/><polygon class="cls-31" points="455.71 1098.07 455.34 1092.32 1502.7 1024.26 1502.7 1030.04 455.71 1098.07"/><polygon class="cls-32" points="455.34 1092.32 454.96 1086.56 1502.7 1018.48 1502.7 1024.26 455.34 1092.32"/><polygon class="cls-33" points="454.96 1086.56 454.59 1080.81 1502.7 1012.7 1502.7 1018.48 454.96 1086.56"/><polygon class="cls-34" points="454.59 1080.81 454.22 1075.05 1502.7 1006.92 1502.7 1012.7 454.59 1080.81"/><polygon class="cls-35" points="454.22 1075.05 453.84 1069.3 1502.7 1001.14 1502.7 1006.92 454.22 1075.05"/><polygon class="cls-36" points="453.84 1069.3 453.47 1063.54 1502.7 995.36 1502.7 1001.14 453.84 1069.3"/><polygon class="cls-37" points="453.47 1063.54 453.09 1057.79 1502.7 989.58 1502.7 995.36 453.47 1063.54"/><polygon class="cls-38" points="453.09 1057.79 452.72 1052.03 1502.7 983.8 1502.7 989.58 453.09 1057.79"/><polygon class="cls-39" points="452.72 1052.03 452.35 1046.28 1502.7 978.02 1502.7 983.8 452.72 1052.03"/><polygon class="cls-40" points="452.35 1046.28 451.97 1040.52 1502.7 972.24 1502.7 978.02 452.35 1046.28"/><polygon class="cls-41" points="451.97 1040.52 451.6 1034.77 1502.7 966.46 1502.7 972.24 451.97 1040.52"/><polygon class="cls-42" points="451.6 1034.77 451.22 1029.01 1502.7 960.68 1502.7 966.46 451.6 1034.77"/><polygon class="cls-43" points="451.22 1029.01 450.85 1023.25 1502.7 954.9 1502.7 960.68 451.22 1029.01"/><polygon class="cls-44" points="450.85 1023.25 450.48 1017.5 1502.7 949.13 1502.7 954.9 450.85 1023.25"/><polygon class="cls-45" points="450.48 1017.5 450.1 1011.75 1502.7 943.34 1502.7 949.13 450.48 1017.5"/><polygon class="cls-46" points="450.1 1011.75 449.73 1005.99 1502.7 937.57 1502.7 943.34 450.1 1011.75"/><polygon class="cls-47" points="449.73 1005.99 449.36 1000.24 1502.7 931.79 1502.7 937.57 449.73 1005.99"/><polygon class="cls-48" points="449.36 1000.24 448.98 994.48 1502.7 926.01 1502.7 931.79 449.36 1000.24"/><polygon class="cls-49" points="448.98 994.48 448.61 988.72 1502.7 920.23 1502.7 926.01 448.98 994.48"/><polygon class="cls-50" points="448.61 988.72 448.23 982.97 1502.7 914.45 1502.7 920.23 448.61 988.72"/><polygon class="cls-51" points="448.23 982.97 447.86 977.21 1502.7 908.67 1502.7 914.45 448.23 982.97"/><polygon class="cls-52" points="447.86 977.21 447.48 971.46 1502.7 902.89 1502.7 908.67 447.86 977.21"/><polygon class="cls-53" points="447.48 971.46 447.11 965.7 1502.7 897.11 1502.7 902.89 447.48 971.46"/><polygon class="cls-54" points="447.11 965.7 446.74 959.95 1502.7 891.33 1502.7 897.11 447.11 965.7"/><polygon class="cls-55" points="446.74 959.95 446.36 954.19 1502.7 885.55 1502.7 891.33 446.74 959.95"/><polygon class="cls-56" points="446.36 954.19 445.99 948.44 1502.7 879.77 1502.7 885.55 446.36 954.19"/><polygon class="cls-57" points="445.99 948.44 445.61 942.68 1502.7 873.99 1502.7 879.77 445.99 948.44"/><polygon class="cls-58" points="445.61 942.68 445.24 936.93 1502.7 868.21 1502.7 873.99 445.61 942.68"/><polygon class="cls-59" points="445.24 936.93 444.87 931.17 1502.7 862.43 1502.7 868.21 445.24 936.93"/><polygon class="cls-60" points="444.87 931.17 444.49 925.42 1502.7 856.65 1502.7 862.43 444.87 931.17"/><polygon class="cls-61" points="444.49 925.42 444.12 919.66 1502.7 850.87 1502.7 856.65 444.49 925.42"/><polygon class="cls-62" points="444.12 919.66 443.74 913.91 1502.7 845.09 1502.7 850.87 444.12 919.66"/><polygon class="cls-63" points="443.74 913.91 443.37 908.15 1502.7 839.31 1502.7 845.09 443.74 913.91"/><polygon class="cls-64" points="443.37 908.15 443 902.4 1502.7 833.53 1502.7 839.31 443.37 908.15"/><polygon class="cls-65" points="443 902.4 442.62 896.64 1502.7 827.75 1502.7 833.53 443 902.4"/><polygon class="cls-66" points="442.62 896.64 442.25 890.89 1502.7 821.98 1502.7 827.75 442.62 896.64"/><polygon class="cls-67" points="442.25 890.89 441.88 885.13 1502.7 816.2 1502.7 821.98 442.25 890.89"/><polygon class="cls-68" points="441.88 885.13 441.5 879.38 1502.7 810.42 1502.7 816.2 441.88 885.13"/><polygon class="cls-69" points="441.5 879.38 441.13 873.62 1502.7 804.64 1502.7 810.42 441.5 879.38"/><polygon class="cls-70" points="441.13 873.62 440.75 867.87 1502.7 798.86 1502.7 804.64 441.13 873.62"/><polygon class="cls-71" points="440.75 867.87 440.38 862.11 1502.7 793.08 1502.7 798.86 440.75 867.87"/><polygon class="cls-72" points="440.38 862.11 440.17 858.85 440.17 856.34 1502.7 787.3 1502.7 793.08 440.38 862.11"/><polygon class="cls-73" points="440.17 850.57 1502.7 781.52 1502.7 787.3 440.17 856.34 440.17 850.57"/><polygon class="cls-74" points="440.17 844.79 1502.7 775.74 1502.7 781.52 440.17 850.57 440.17 844.79"/><polygon class="cls-75" points="440.17 839.01 1502.7 769.96 1502.7 775.74 440.17 844.79 440.17 839.01"/><polygon class="cls-76" points="440.17 833.23 1502.7 764.18 1502.7 769.96 440.17 839.01 440.17 833.23"/><polygon class="cls-77" points="440.17 827.45 1502.7 758.4 1502.7 764.18 440.17 833.23 440.17 827.45"/><polygon class="cls-78" points="440.17 821.67 1502.7 752.62 1502.7 758.4 440.17 827.45 440.17 821.67"/><polygon class="cls-79" points="440.17 815.89 1502.7 746.84 1502.7 752.62 440.17 821.67 440.17 815.89"/><polygon class="cls-80" points="440.17 810.11 1502.7 741.06 1502.7 746.84 440.17 815.89 440.17 810.11"/><polygon class="cls-81" points="440.17 804.33 1502.7 735.28 1502.7 741.06 440.17 810.11 440.17 804.33"/><polygon class="cls-82" points="440.17 798.55 1502.7 729.5 1502.7 735.28 440.17 804.33 440.17 798.55"/><polygon class="cls-83" points="440.17 792.77 1502.7 723.72 1502.7 729.5 440.17 798.55 440.17 792.77"/><polygon class="cls-84" points="440.17 786.99 1502.7 717.95 1502.7 723.72 440.17 792.77 440.17 786.99"/><polygon class="cls-85" points="440.17 781.21 1502.7 712.17 1502.7 717.95 440.17 786.99 440.17 781.21"/><polygon class="cls-86" points="440.17 775.43 1502.7 706.39 1502.7 712.17 440.17 781.21 440.17 775.43"/><polygon class="cls-87" points="440.17 769.65 1502.7 700.61 1502.7 706.39 440.17 775.43 440.17 769.65"/><polygon class="cls-88" points="440.17 763.87 1502.7 694.83 1502.7 700.61 440.17 769.65 440.17 763.87"/><polygon class="cls-89" points="440.17 758.09 1502.7 689.05 1502.7 694.83 440.17 763.87 440.17 758.09"/><polygon class="cls-90" points="440.17 752.31 1502.7 683.27 1502.7 689.05 440.17 758.09 440.17 752.31"/><polygon class="cls-91" points="440.17 746.53 1502.7 677.49 1502.7 683.27 440.17 752.31 440.17 746.53"/><polygon class="cls-92" points="440.17 740.75 1502.7 671.71 1502.7 677.49 440.17 746.53 440.17 740.75"/><polygon class="cls-93" points="440.17 734.98 1502.7 665.93 1502.7 671.71 440.17 740.75 440.17 734.98"/><polygon class="cls-94" points="440.17 729.2 1502.7 660.15 1502.7 665.93 440.17 734.98 440.17 729.2"/><polygon class="cls-95" points="440.17 723.42 1502.7 654.37 1502.7 660.15 440.17 729.2 440.17 723.42"/><polygon class="cls-96" points="440.17 717.64 1502.7 648.59 1502.7 654.37 440.17 723.42 440.17 717.64"/><polygon class="cls-97" points="440.17 711.86 1502.7 642.81 1502.7 648.59 440.17 717.64 440.17 711.86"/><polygon class="cls-98" points="440.17 706.08 1502.7 637.03 1502.7 642.81 440.17 711.86 440.17 706.08"/><polygon class="cls-99" points="440.17 700.3 1502.7 631.25 1502.7 637.03 440.17 706.08 440.17 700.3"/><polygon class="cls-100" points="440.17 694.52 1502.7 625.47 1502.7 631.25 440.17 700.3 440.17 694.52"/><polygon class="cls-101" points="440.17 688.74 1502.7 619.69 1502.7 625.47 440.17 694.52 440.17 688.74"/><polygon class="cls-102" points="440.17 682.96 1502.7 613.91 1502.7 619.69 440.17 688.74 440.17 682.96"/><polygon class="cls-103" points="440.17 677.18 1502.7 608.13 1502.7 613.91 440.17 682.96 440.17 677.18"/><polygon class="cls-104" points="440.17 671.4 1502.7 602.36 1502.7 608.13 440.17 677.18 440.17 671.4"/><polygon class="cls-105" points="440.17 665.62 1502.7 596.58 1502.7 602.36 440.17 671.4 440.17 665.62"/><polygon class="cls-106" points="440.17 659.84 1502.7 590.8 1502.7 596.58 440.17 665.62 440.17 659.84"/><polygon class="cls-107" points="440.17 654.06 1502.7 585.02 1502.7 590.8 440.17 659.84 440.17 654.06"/><polygon class="cls-108" points="440.17 648.28 1502.7 579.24 1502.7 585.02 440.17 654.06 440.17 648.28"/><polygon class="cls-109" points="440.17 642.5 1502.7 573.46 1502.7 579.24 440.17 648.28 440.17 642.5"/><polygon class="cls-110" points="440.17 636.72 1502.7 567.68 1502.7 573.46 440.17 642.5 440.17 636.72"/><polygon class="cls-111" points="440.17 630.95 1502.7 561.9 1502.7 567.68 440.17 636.72 440.17 630.95"/><polygon class="cls-112" points="440.17 625.17 1502.7 556.12 1502.7 561.9 440.17 630.95 440.17 625.17"/><polygon class="cls-113" points="440.17 619.39 1502.7 550.34 1502.7 556.12 440.17 625.17 440.17 619.39"/><polygon class="cls-114" points="440.17 613.61 1502.7 544.56 1502.7 550.34 440.17 619.39 440.17 613.61"/><polygon class="cls-115" points="440.17 607.83 1502.7 538.78 1502.7 544.56 440.17 613.61 440.17 607.83"/><polygon class="cls-116" points="440.17 602.05 1502.7 533 1502.7 538.78 440.17 607.83 440.17 602.05"/><polygon class="cls-117" points="440.17 596.27 1502.7 527.22 1502.7 533 440.17 602.05 440.17 596.27"/><polygon class="cls-118" points="440.17 590.49 1502.7 521.44 1502.7 527.22 440.17 596.27 440.17 590.49"/><polygon class="cls-119" points="440.17 584.71 1502.7 515.66 1502.7 521.44 440.17 590.49 440.17 584.71"/><polygon class="cls-120" points="440.17 578.93 1502.7 509.88 1502.7 515.66 440.17 584.71 440.17 578.93"/><polygon class="cls-121" points="440.17 573.15 1502.7 504.1 1502.7 509.88 440.17 578.93 440.17 573.15"/><polygon class="cls-122" points="440.17 567.37 1502.7 498.32 1502.7 504.1 440.17 573.15 440.17 567.37"/><polygon class="cls-123" points="440.17 561.59 1502.7 492.55 1502.7 498.32 440.17 567.37 440.17 561.59"/><polygon class="cls-124" points="440.17 555.81 1502.7 486.77 1502.7 492.55 440.17 561.59 440.17 555.81"/><polygon class="cls-125" points="440.17 550.03 1502.7 480.99 1502.7 486.77 440.17 555.81 440.17 550.03"/><polygon class="cls-126" points="440.17 544.25 1502.7 475.21 1502.7 480.99 440.17 550.03 440.17 544.25"/><polygon class="cls-127" points="440.17 538.47 1502.7 469.43 1502.7 475.21 440.17 544.25 440.17 538.47"/><polygon class="cls-128" points="440.17 532.69 1502.7 463.65 1502.7 469.43 440.17 538.47 440.17 532.69"/><polygon class="cls-129" points="440.17 526.91 1502.7 457.87 1502.7 463.65 440.17 532.69 440.17 526.91"/><polygon class="cls-130" points="440.17 521.13 1502.7 452.09 1502.7 457.87 440.17 526.91 440.17 521.13"/><polygon class="cls-131" points="440.17 515.36 1420.68 451.64 1502.7 451.64 1502.7 452.09 440.17 521.13 440.17 515.36"/><polygon class="cls-132" points="440.17 509.58 1331.74 451.64 1420.68 451.64 440.17 515.36 440.17 509.58"/><polygon class="cls-133" points="440.17 503.8 1242.8 451.64 1331.74 451.64 440.17 509.58 440.17 503.8"/><polygon class="cls-134" points="440.17 498.02 1153.86 451.64 1242.8 451.64 440.17 503.8 440.17 498.02"/><polygon class="cls-134" points="1153.86 451.64 440.17 498.02 440.17 451.64 1153.86 451.64"/></g><g class="cls-135"><g class="cls-136"><polygon class="cls-11" points="1456.87 1142.22 1493.47 1139.84 1493.47 1142.22 1456.87 1142.22"/><polygon class="cls-12" points="1402.73 1142.22 1493.47 1136.32 1493.47 1139.84 1456.87 1142.22 1402.73 1142.22"/><polygon class="cls-13" points="1348.59 1142.22 1493.47 1132.8 1493.47 1136.32 1402.73 1142.22 1348.59 1142.22"/><polygon class="cls-14" points="1294.44 1142.22 1493.47 1129.28 1493.47 1132.8 1348.59 1142.22 1294.44 1142.22"/><polygon class="cls-15" points="1240.3 1142.22 1493.47 1125.76 1493.47 1129.28 1294.44 1142.22 1240.3 1142.22"/><polygon class="cls-16" points="1186.16 1142.22 1493.47 1122.25 1493.47 1125.76 1240.3 1142.22 1186.16 1142.22"/><polygon class="cls-17" points="1132.02 1142.22 1493.47 1118.73 1493.47 1122.25 1186.16 1142.22 1132.02 1142.22"/><polygon class="cls-18" points="1077.88 1142.22 1493.47 1115.21 1493.47 1118.73 1132.02 1142.22 1077.88 1142.22"/><polygon class="cls-19" points="1023.73 1142.22 1493.47 1111.69 1493.47 1115.21 1077.88 1142.22 1023.73 1142.22"/><polygon class="cls-20" points="969.59 1142.22 1493.47 1108.17 1493.47 1111.69 1023.73 1142.22 969.59 1142.22"/><polygon class="cls-21" points="915.45 1142.22 1493.47 1104.65 1493.47 1108.17 969.59 1142.22 915.45 1142.22"/><polygon class="cls-22" points="861.31 1142.22 1493.47 1101.14 1493.47 1104.65 915.45 1142.22 861.31 1142.22"/><polygon class="cls-23" points="807.16 1142.22 1493.47 1097.62 1493.47 1101.14 861.31 1142.22 807.16 1142.22"/><polygon class="cls-24" points="753.02 1142.22 1493.47 1094.1 1493.47 1097.62 807.16 1142.22 753.02 1142.22"/><polygon class="cls-25" points="698.88 1142.22 1493.47 1090.58 1493.47 1094.1 753.02 1142.22 698.88 1142.22"/><polygon class="cls-26" points="644.74 1142.22 1493.47 1087.06 1493.47 1090.58 698.88 1142.22 644.74 1142.22"/><polygon class="cls-27" points="590.6 1142.22 1493.47 1083.55 1493.47 1087.06 644.74 1142.22 590.6 1142.22"/><polygon class="cls-28" points="536.45 1142.22 1493.47 1080.03 1493.47 1083.55 590.6 1142.22 536.45 1142.22"/><polygon class="cls-29" points="482.31 1142.22 1493.47 1076.51 1493.47 1080.03 536.45 1142.22 482.31 1142.22"/><polygon class="cls-30" points="458.58 1142.22 458.45 1140.25 1493.47 1072.99 1493.47 1076.51 482.31 1142.22 458.58 1142.22"/><polygon class="cls-31" points="458.45 1140.25 458.23 1136.74 1493.47 1069.47 1493.47 1072.99 458.45 1140.25"/><polygon class="cls-32" points="458.23 1136.74 458 1133.24 1493.47 1065.95 1493.47 1069.47 458.23 1136.74"/><polygon class="cls-33" points="458 1133.24 457.77 1129.74 1493.47 1062.43 1493.47 1065.95 458 1133.24"/><polygon class="cls-34" points="457.77 1129.74 457.54 1126.23 1493.47 1058.92 1493.47 1062.43 457.77 1129.74"/><polygon class="cls-35" points="457.54 1126.23 457.31 1122.73 1493.47 1055.4 1493.47 1058.92 457.54 1126.23"/><polygon class="cls-36" points="457.31 1122.73 457.09 1119.23 1493.47 1051.88 1493.47 1055.4 457.31 1122.73"/><polygon class="cls-37" points="457.09 1119.23 456.86 1115.72 1493.47 1048.36 1493.47 1051.88 457.09 1119.23"/><polygon class="cls-38" points="456.86 1115.72 456.63 1112.22 1493.47 1044.84 1493.47 1048.36 456.86 1115.72"/><polygon class="cls-39" points="456.63 1112.22 456.4 1108.72 1493.47 1041.33 1493.47 1044.84 456.63 1112.22"/><polygon class="cls-40" points="456.4 1108.72 456.18 1105.21 1493.47 1037.81 1493.47 1041.33 456.4 1108.72"/><polygon class="cls-41" points="456.18 1105.21 455.95 1101.71 1493.47 1034.29 1493.47 1037.81 456.18 1105.21"/><polygon class="cls-42" points="455.95 1101.71 455.72 1098.21 1493.47 1030.77 1493.47 1034.29 455.95 1101.71"/><polygon class="cls-43" points="455.72 1098.21 455.49 1094.7 1493.47 1027.25 1493.47 1030.77 455.72 1098.21"/><polygon class="cls-44" points="455.49 1094.7 455.26 1091.2 1493.47 1023.73 1493.47 1027.25 455.49 1094.7"/><polygon class="cls-45" points="455.26 1091.2 455.23 1090.58 455.23 1087.68 1493.47 1020.22 1493.47 1023.73 455.26 1091.2"/><polygon class="cls-46" points="455.23 1084.17 1493.47 1016.7 1493.47 1020.22 455.23 1087.68 455.23 1084.17"/><polygon class="cls-47" points="455.23 1080.65 1493.47 1013.18 1493.47 1016.7 455.23 1084.17 455.23 1080.65"/><polygon class="cls-48" points="455.23 1077.13 1493.47 1009.66 1493.47 1013.18 455.23 1080.65 455.23 1077.13"/><polygon class="cls-49" points="455.23 1073.61 1493.47 1006.14 1493.47 1009.66 455.23 1077.13 455.23 1073.61"/><polygon class="cls-50" points="455.23 1070.09 1493.47 1002.62 1493.47 1006.14 455.23 1073.61 455.23 1070.09"/><polygon class="cls-51" points="455.23 1066.57 1493.47 999.11 1493.47 1002.62 455.23 1070.09 455.23 1066.57"/><polygon class="cls-52" points="455.23 1063.06 1493.47 995.59 1493.47 999.11 455.23 1066.57 455.23 1063.06"/><polygon class="cls-53" points="455.23 1059.54 1493.47 992.07 1493.47 995.59 455.23 1063.06 455.23 1059.54"/><polygon class="cls-54" points="455.23 1056.02 1493.47 988.55 1493.47 992.07 455.23 1059.54 455.23 1056.02"/><polygon class="cls-55" points="455.23 1052.5 1493.47 985.03 1493.47 988.55 455.23 1056.02 455.23 1052.5"/><polygon class="cls-56" points="455.23 1048.98 1493.47 981.51 1493.47 985.03 455.23 1052.5 455.23 1048.98"/><polygon class="cls-57" points="455.23 1045.46 1493.47 978 1493.47 981.51 455.23 1048.98 455.23 1045.46"/><polygon class="cls-58" points="455.23 1041.95 1493.47 974.48 1493.47 978 455.23 1045.46 455.23 1041.95"/><polygon class="cls-59" points="455.23 1038.43 1493.47 970.96 1493.47 974.48 455.23 1041.95 455.23 1038.43"/><polygon class="cls-60" points="455.23 1034.91 1493.47 967.44 1493.47 970.96 455.23 1038.43 455.23 1034.91"/><polygon class="cls-61" points="455.23 1031.39 1493.47 963.92 1493.47 967.44 455.23 1034.91 455.23 1031.39"/><polygon class="cls-62" points="455.23 1027.87 1493.47 960.4 1493.47 963.92 455.23 1031.39 455.23 1027.87"/><polygon class="cls-63" points="455.23 1024.35 1493.47 956.89 1493.47 960.4 455.23 1027.87 455.23 1024.35"/><polygon class="cls-64" points="455.23 1020.84 1493.47 953.37 1493.47 956.89 455.23 1024.35 455.23 1020.84"/><polygon class="cls-65" points="455.23 1017.32 1493.47 949.85 1493.47 953.37 455.23 1020.84 455.23 1017.32"/><polygon class="cls-66" points="455.23 1013.8 1493.47 946.33 1493.47 949.85 455.23 1017.32 455.23 1013.8"/><polygon class="cls-67" points="455.23 1010.28 1493.47 942.81 1493.47 946.33 455.23 1013.8 455.23 1010.28"/><polygon class="cls-68" points="455.23 1006.76 1493.47 939.29 1493.47 942.81 455.23 1010.28 455.23 1006.76"/><polygon class="cls-69" points="455.23 1003.24 1493.47 935.78 1493.47 939.29 455.23 1006.76 455.23 1003.24"/><polygon class="cls-70" points="455.23 999.73 1493.47 932.26 1493.47 935.78 455.23 1003.24 455.23 999.73"/><polygon class="cls-71" points="455.23 996.21 1493.47 928.74 1493.47 932.26 455.23 999.73 455.23 996.21"/><polygon class="cls-72" points="455.23 992.69 1493.47 925.22 1493.47 928.74 455.23 996.21 455.23 992.69"/><polygon class="cls-73" points="455.23 989.17 1493.47 921.7 1493.47 925.22 455.23 992.69 455.23 989.17"/><polygon class="cls-74" points="455.23 985.65 1493.47 918.18 1493.47 921.7 455.23 989.17 455.23 985.65"/><polygon class="cls-75" points="455.23 982.13 1493.47 914.67 1493.47 918.18 455.23 985.65 455.23 982.13"/><polygon class="cls-76" points="455.23 978.62 1493.47 911.15 1493.47 914.67 455.23 982.13 455.23 978.62"/><polygon class="cls-77" points="455.23 975.1 1493.47 907.63 1493.47 911.15 455.23 978.62 455.23 975.1"/><polygon class="cls-78" points="455.23 971.58 1493.47 904.11 1493.47 907.63 455.23 975.1 455.23 971.58"/><polygon class="cls-79" points="455.23 968.06 1493.47 900.59 1493.47 904.11 455.23 971.58 455.23 968.06"/><polygon class="cls-80" points="455.23 964.54 1493.47 897.08 1493.47 900.59 455.23 968.06 455.23 964.54"/><polygon class="cls-81" points="455.23 961.02 1493.47 893.56 1493.47 897.08 455.23 964.54 455.23 961.02"/><polygon class="cls-82" points="455.23 957.51 1493.47 890.04 1493.47 893.56 455.23 961.02 455.23 957.51"/><polygon class="cls-83" points="455.23 953.99 1493.47 886.52 1493.47 890.04 455.23 957.51 455.23 953.99"/><polygon class="cls-84" points="455.23 950.47 1493.47 883 1493.47 886.52 455.23 953.99 455.23 950.47"/><polygon class="cls-85" points="455.23 946.95 1493.47 879.48 1493.47 883 455.23 950.47 455.23 946.95"/><polygon class="cls-86" points="455.23 943.43 1493.47 875.97 1493.47 879.48 455.23 946.95 455.23 943.43"/><polygon class="cls-87" points="455.23 939.91 1493.47 872.45 1493.47 875.97 455.23 943.43 455.23 939.91"/><polygon class="cls-88" points="455.23 936.4 1493.47 868.93 1493.47 872.45 455.23 939.91 455.23 936.4"/><polygon class="cls-89" points="455.23 932.88 1493.47 865.41 1493.47 868.93 455.23 936.4 455.23 932.88"/><polygon class="cls-90" points="455.23 929.36 1493.47 861.89 1493.47 865.41 455.23 932.88 455.23 929.36"/><polygon class="cls-91" points="455.23 925.84 1493.47 858.37 1493.47 861.89 455.23 929.36 455.23 925.84"/><polygon class="cls-92" points="455.23 922.32 1493.47 854.86 1493.47 858.37 455.23 925.84 455.23 922.32"/><polygon class="cls-93" points="455.23 918.8 1493.47 851.34 1493.47 854.86 455.23 922.32 455.23 918.8"/><polygon class="cls-94" points="455.23 915.29 1493.47 847.82 1493.47 851.34 455.23 918.8 455.23 915.29"/><polygon class="cls-95" points="455.23 911.77 1493.47 844.3 1493.47 847.82 455.23 915.29 455.23 911.77"/><polygon class="cls-96" points="455.23 908.25 1493.47 840.78 1493.47 844.3 455.23 911.77 455.23 908.25"/><polygon class="cls-97" points="455.23 904.73 1493.47 837.26 1493.47 840.78 455.23 908.25 455.23 904.73"/><polygon class="cls-98" points="455.23 901.21 1493.47 833.75 1493.47 837.26 455.23 904.73 455.23 901.21"/><polygon class="cls-99" points="455.23 897.7 1493.47 830.23 1493.47 833.75 455.23 901.21 455.23 897.7"/><polygon class="cls-100" points="455.23 894.18 1493.47 826.71 1493.47 830.23 455.23 897.7 455.23 894.18"/><polygon class="cls-101" points="455.23 890.66 1493.47 823.19 1493.47 826.71 455.23 894.18 455.23 890.66"/><polygon class="cls-102" points="455.23 887.14 1493.47 819.67 1493.47 823.19 455.23 890.66 455.23 887.14"/><polygon class="cls-103" points="455.23 883.62 1493.47 816.15 1493.47 819.67 455.23 887.14 455.23 883.62"/><polygon class="cls-104" points="455.23 880.1 1493.47 812.63 1493.47 816.15 455.23 883.62 455.23 880.1"/><polygon class="cls-105" points="455.23 876.59 1493.47 809.12 1493.47 812.63 455.23 880.1 455.23 876.59"/><polygon class="cls-106" points="455.23 873.07 1493.47 805.6 1493.47 809.12 455.23 876.59 455.23 873.07"/><polygon class="cls-107" points="455.23 869.55 1493.47 802.08 1493.47 805.6 455.23 873.07 455.23 869.55"/><polygon class="cls-108" points="455.23 866.03 1493.47 798.56 1493.47 802.08 455.23 869.55 455.23 866.03"/><polygon class="cls-109" points="455.23 862.51 1493.47 795.04 1493.47 798.56 455.23 866.03 455.23 862.51"/><polygon class="cls-110" points="455.23 858.99 1493.47 791.53 1493.47 795.04 455.23 862.51 455.23 858.99"/><polygon class="cls-111" points="455.23 855.48 1493.47 788.01 1493.47 791.53 455.23 858.99 455.23 855.48"/><polygon class="cls-112" points="455.23 851.96 1493.47 784.49 1493.47 788.01 455.23 855.48 455.23 851.96"/><polygon class="cls-113" points="455.23 848.44 1493.47 780.97 1493.47 784.49 455.23 851.96 455.23 848.44"/><polygon class="cls-114" points="455.23 844.92 1493.47 777.45 1493.47 780.97 455.23 848.44 455.23 844.92"/><polygon class="cls-115" points="455.23 841.4 1493.47 773.93 1493.47 777.45 455.23 844.92 455.23 841.4"/><polygon class="cls-116" points="455.23 837.88 1493.47 770.42 1493.47 773.93 455.23 841.4 455.23 837.88"/><polygon class="cls-117" points="455.23 834.37 1493.47 766.9 1493.47 770.42 455.23 837.88 455.23 834.37"/><polygon class="cls-118" points="455.23 830.85 1493.47 763.38 1493.47 766.9 455.23 834.37 455.23 830.85"/><polygon class="cls-119" points="455.23 827.33 1493.47 759.86 1493.47 763.38 455.23 830.85 455.23 827.33"/><polygon class="cls-120" points="455.23 823.81 1493.47 756.34 1493.47 759.86 455.23 827.33 455.23 823.81"/><polygon class="cls-121" points="455.23 820.29 1493.47 752.82 1493.47 756.34 455.23 823.81 455.23 820.29"/><polygon class="cls-122" points="455.23 816.77 1493.47 749.31 1493.47 752.82 455.23 820.29 455.23 816.77"/><polygon class="cls-123" points="455.23 813.25 1493.47 745.79 1493.47 749.31 455.23 816.77 455.23 813.25"/><polygon class="cls-124" points="455.23 809.74 1493.47 742.27 1493.47 745.79 455.23 813.25 455.23 809.74"/><polygon class="cls-125" points="455.23 806.22 1493.47 738.75 1493.47 742.27 455.23 809.74 455.23 806.22"/><polygon class="cls-126" points="455.23 802.7 1493.47 735.23 1493.47 738.75 455.23 806.22 455.23 802.7"/><polygon class="cls-127" points="455.23 799.18 1493.47 731.71 1493.47 735.23 455.23 802.7 455.23 799.18"/><polygon class="cls-128" points="455.23 795.66 1493.47 728.2 1493.47 731.71 455.23 799.18 455.23 795.66"/><polygon class="cls-129" points="455.23 792.15 1493.47 724.68 1493.47 728.2 455.23 795.66 455.23 792.15"/><polygon class="cls-130" points="455.23 788.63 1493.47 721.16 1493.47 724.68 455.23 792.15 455.23 788.63"/><polygon class="cls-131" points="455.23 785.11 1493.47 717.64 1493.47 721.16 455.23 788.63 455.23 785.11"/><polygon class="cls-132" points="455.23 781.59 1493.47 714.12 1493.47 717.64 455.23 785.11 455.23 781.59"/><polygon class="cls-133" points="455.23 778.07 1493.47 710.61 1493.47 714.12 455.23 781.59 455.23 778.07"/><polygon class="cls-134" points="455.23 774.55 1493.47 707.09 1493.47 710.61 455.23 778.07 455.23 774.55"/><polygon class="cls-134" points="1493.47 707.09 455.23 774.55 455.23 680.08 1493.47 680.08 1493.47 707.09"/></g></g><path class="cls-137" d="M1435.63,1104.13h-18a1,1,0,0,1,0-2h16.12l.26-5.45a1,1,0,0,1,1-.93,1,1,0,0,1,.93,1Zm-41.42,0h-23.44a1,1,0,1,1,0-2h23.44a1,1,0,0,1,0,2Zm-46.88,0h-23.44a1,1,0,0,1,0-2h23.44a1,1,0,1,1,0,2Zm-46.87,0H1277a1,1,0,1,1,0-2h23.44a1,1,0,0,1,0,2Zm-46.88,0h-23.44a1,1,0,0,1,0-2h23.44a1,1,0,1,1,0,2Zm-46.87,0h-23.44a1,1,0,1,1,0-2h23.44a1,1,0,0,1,0,2Zm-46.88,0h-23.44a1,1,0,0,1,0-2h23.44a1,1,0,1,1,0,2Zm-46.87,0h-23.44a1,1,0,1,1,0-2H1113a1,1,0,0,1,0,2Zm-46.88,0h-23.44a1,1,0,0,1,0-2h23.44a1,1,0,1,1,0,2Zm-46.87,0H995.77a1,1,0,1,1,0-2h23.44a1,1,0,0,1,0,2Zm-46.88,0H948.89a1,1,0,0,1,0-2h23.44a1,1,0,1,1,0,2Zm-46.87,0H902a1,1,0,1,1,0-2h23.44a1,1,0,0,1,0,2Zm-46.88,0H855.14a1,1,0,0,1,0-2h23.44a1,1,0,1,1,0,2Zm-46.87,0H808.27a1,1,0,1,1,0-2h23.44a1,1,0,0,1,0,2Zm-46.88,0H761.39a1,1,0,0,1,0-2h23.44a1,1,0,1,1,0,2Zm-46.87,0H714.52a1,1,0,1,1,0-2H738a1,1,0,0,1,0,2Zm-46.88,0H667.64a1,1,0,0,1,0-2h23.44a1,1,0,1,1,0,2Zm-46.87,0H620.77a1,1,0,1,1,0-2h23.44a1,1,0,0,1,0,2Zm-46.88,0H573.89a1,1,0,0,1,0-2h23.44a1,1,0,1,1,0,2Zm-46.87,0H527a1,1,0,1,1,0-2h23.44a1,1,0,0,1,0,2Zm-46.88,0h-6l-.75-24.37a1,1,0,1,1,1.95-.06l.7,22.48h4.12a1,1,0,1,1,0,2Zm932.5-29.79h0a1,1,0,0,1-.92-1l1.08-23.41a1,1,0,1,1,2,.09l-1.08,23.41A1,1,0,0,1,1436.08,1074.34Zm-939-17.06a1,1,0,0,1-1-1l-.72-23.42a1,1,0,0,1,.94-1,1,1,0,0,1,1,.95l.73,23.42a1,1,0,0,1-1,1Zm941.2-29.76h0a1,1,0,0,1-.93-1l1.09-23.41a1,1,0,0,1,1-.93,1,1,0,0,1,.93,1l-1.09,23.42A1,1,0,0,1,1438.26,1027.52Zm-942.65-17.09a1,1,0,0,1-1-.95l-.73-23.42a1,1,0,0,1,2-.07l.72,23.43a1,1,0,0,1-.94,1Zm944.82-29.74h0a1,1,0,0,1-.93-1l1.09-23.41a1,1,0,0,1,1-.93,1,1,0,0,1,.93,1l-1.09,23.41A1,1,0,0,1,1440.43,980.69ZM494.15,963.57a1,1,0,0,1-1-.94l-.73-23.43a1,1,0,0,1,.95-1,1,1,0,0,1,1,.95l.73,23.43a1,1,0,0,1-.94,1Zm948.46-29.7h0a1,1,0,0,1-.93-1l1.09-23.42a.94.94,0,0,1,1-.93,1,1,0,0,1,.93,1l-1.09,23.41A1,1,0,0,1,1442.61,933.87ZM492.7,916.72a1,1,0,0,1-1-.94L491,892.35a1,1,0,0,1,.95-1,.94.94,0,0,1,1,.95l.73,23.42a1,1,0,0,1-.95,1ZM1444.79,887h0a1,1,0,0,1-.93-1l1.09-23.41a1,1,0,0,1,1-.93,1,1,0,0,1,.93,1l-1.09,23.41A1,1,0,0,1,1444.79,887ZM491.25,869.87a1,1,0,0,1-1-1l-.72-23.42a1,1,0,1,1,1.95-.06l.73,23.42a1,1,0,0,1-1,1ZM1447,840.22h0a1,1,0,0,1-.93-1l1.09-23.42a1,1,0,0,1,2,.1l-1.09,23.41A1,1,0,0,1,1447,840.22ZM489.8,823a1,1,0,0,1-1-.95l-.72-23.42a1,1,0,0,1,.94-1,1,1,0,0,1,1,.94l.72,23.43a1,1,0,0,1-.94,1Zm959.34-29.63h0a1,1,0,0,1-.93-1l1.09-23.41a1,1,0,0,1,1-.93,1,1,0,0,1,.93,1l-1.09,23.41A1,1,0,0,1,1449.14,793.39Zm-960.8-17.23a1,1,0,0,1-1-.94l-.73-23.43a1,1,0,0,1,2-.06l.72,23.43a1,1,0,0,1-.94,1Zm963-29.59h0a1,1,0,0,1-.93-1l1.09-23.41a1,1,0,0,1,1-.93,1,1,0,0,1,.93,1l-1.09,23.41A1,1,0,0,1,1451.32,746.57ZM486.89,729.31a1,1,0,0,1-1-.94l-.73-23.43a1,1,0,0,1,.95-1,.94.94,0,0,1,1,1l.73,23.42a1,1,0,0,1-.95,1Zm966.61-29.56h0a1,1,0,0,1-.93-1l1.09-23.41a1,1,0,1,1,2,.09l-1.09,23.42A1,1,0,0,1,1453.5,699.75ZM485.44,682.46a1,1,0,0,1-1-1l-.72-23.42a1,1,0,0,1,.94-1,1,1,0,0,1,1,.95l.73,23.42a1,1,0,0,1-.95,1Zm970.24-29.54h0a1,1,0,0,1-.93-1l1.09-23.41a1,1,0,1,1,2,.09L1456.65,652A1,1,0,0,1,1455.68,652.92ZM484,635.61a1,1,0,0,1-1-1l-.72-23.43a1,1,0,0,1,.94-1,1,1,0,0,1,1,.94L485,634.6a1,1,0,0,1-.94,1Zm973.86-29.51h0a1,1,0,0,1-.93-1l1.09-23.42a1,1,0,1,1,2,.09l-1.09,23.42A1,1,0,0,1,1457.85,606.1ZM482.53,588.75a1,1,0,0,1-1-.94l-.73-23.43a1,1,0,0,1,.95-1,1,1,0,0,1,1,1l.72,23.43a1,1,0,0,1-.94,1ZM1460,559.27h0a1,1,0,0,1-.93-1l1.09-23.41a1,1,0,0,1,1-.93,1,1,0,0,1,.92,1L1461,558.34A1,1,0,0,1,1460,559.27ZM481.08,541.9a1,1,0,0,1-1-.94l-.73-23.43a1,1,0,0,1,.95-1,1,1,0,0,1,1,1l.73,23.42a1,1,0,0,1-.95,1Zm981.13-29.45h0a1,1,0,0,1-.93-1l.92-19.75h-1.62a1,1,0,1,1,0-1.95h3.67l-1,21.79A1,1,0,0,1,1462.21,512.45Zm-982.58-17.4a1,1,0,0,1-1-.95l-.14-4.37h21.07a1,1,0,1,1,0,1.95H480.53l.08,2.36a1,1,0,0,1-.95,1Zm957.46-3.37h-23.44a1,1,0,0,1,0-1.95h23.44a1,1,0,1,1,0,1.95Zm-46.87,0h-23.44a1,1,0,1,1,0-1.95h23.44a1,1,0,0,1,0,1.95Zm-46.88,0H1319.9a1,1,0,0,1,0-1.95h23.44a1,1,0,1,1,0,1.95Zm-46.87,0H1273a1,1,0,1,1,0-1.95h23.44a1,1,0,0,1,0,1.95Zm-46.88,0h-23.44a1,1,0,0,1,0-1.95h23.44a1,1,0,1,1,0,1.95Zm-46.87,0h-23.44a1,1,0,1,1,0-1.95h23.44a1,1,0,0,1,0,1.95Zm-46.88,0H1132.4a1,1,0,0,1,0-1.95h23.44a1,1,0,1,1,0,1.95Zm-46.87,0h-23.44a1,1,0,1,1,0-1.95H1109a1,1,0,0,1,0,1.95Zm-46.88,0h-23.44a1,1,0,0,1,0-1.95h23.44a1,1,0,1,1,0,1.95Zm-46.87,0H991.78a1,1,0,1,1,0-1.95h23.44a1,1,0,0,1,0,1.95Zm-46.88,0H944.9a1,1,0,0,1,0-1.95h23.44a1,1,0,1,1,0,1.95Zm-46.87,0H898a1,1,0,1,1,0-1.95h23.44a1,1,0,0,1,0,1.95Zm-46.88,0H851.15a1,1,0,0,1,0-1.95h23.44a1,1,0,1,1,0,1.95Zm-46.87,0H804.28a1,1,0,1,1,0-1.95h23.44a1,1,0,0,1,0,1.95Zm-46.88,0H757.4a1,1,0,0,1,0-1.95h23.44a1,1,0,1,1,0,1.95Zm-46.87,0H710.53a1,1,0,1,1,0-1.95H734a1,1,0,0,1,0,1.95Zm-46.88,0H663.65a1,1,0,0,1,0-1.95h23.44a1,1,0,1,1,0,1.95Zm-46.87,0H616.78a1,1,0,1,1,0-1.95h23.44a1,1,0,0,1,0,1.95Zm-46.88,0H569.9a1,1,0,0,1,0-1.95h23.44a1,1,0,1,1,0,1.95Zm-46.87,0H523a1,1,0,1,1,0-1.95h23.44a1,1,0,0,1,0,1.95Z"/><g class="cls-138"><polygon class="cls-139" points="913.57 1133.94 1198.4 1139.96 913.57 1139.96 913.57 1133.94"/><polygon class="cls-139" points="913.57 1121.33 1209.47 1127.58 1209.47 1139.96 1198.4 1139.96 913.57 1133.94 913.57 1121.33"/><polygon class="cls-140" points="913.57 1108.72 1209.47 1114.97 1209.47 1127.58 913.57 1121.33 913.57 1108.72"/><polygon class="cls-141" points="913.57 1096.11 1209.47 1102.36 1209.47 1114.97 913.57 1108.72 913.57 1096.11"/><polygon class="cls-142" points="913.57 1083.5 1209.47 1089.75 1209.47 1102.36 913.57 1096.11 913.57 1083.5"/><polygon class="cls-143" points="913.57 1070.88 1209.47 1077.13 1209.47 1089.75 913.57 1083.5 913.57 1070.88"/><polygon class="cls-144" points="913.57 1058.27 1209.47 1064.52 1209.47 1077.13 913.57 1070.88 913.57 1058.27"/><polygon class="cls-145" points="913.57 1045.66 1209.47 1051.91 1209.47 1064.52 913.57 1058.27 913.57 1045.66"/><polygon class="cls-146" points="913.57 1045.28 913.83 1033.05 1209.47 1039.3 1209.47 1051.91 913.57 1045.66 913.57 1045.28"/><polygon class="cls-147" points="913.83 1033.05 914.09 1020.45 1209.47 1026.69 1209.47 1039.3 913.83 1033.05"/><polygon class="cls-148" points="914.09 1020.45 914.36 1007.84 1209.47 1014.07 1209.47 1026.69 914.09 1020.45"/><polygon class="cls-149" points="914.36 1007.84 914.63 995.23 1209.47 1001.46 1209.47 1014.07 914.36 1007.84"/><polygon class="cls-150" points="914.63 995.23 914.89 982.63 1209.47 988.85 1209.47 1001.46 914.63 995.23"/><polygon class="cls-151" points="914.89 982.63 915.16 970.02 1209.47 976.24 1209.47 988.85 914.89 982.63"/><polygon class="cls-152" points="915.16 970.02 915.42 957.41 1209.47 963.63 1209.47 976.24 915.16 970.02"/><polygon class="cls-153" points="915.42 957.41 915.69 944.81 1209.47 951.01 1209.47 963.63 915.42 957.41"/><polygon class="cls-154" points="915.69 944.81 915.96 932.2 1209.47 938.4 1209.47 951.01 915.69 944.81"/><polygon class="cls-155" points="915.96 932.2 916.22 919.59 1209.47 925.79 1209.47 938.4 915.96 932.2"/><polygon class="cls-156" points="916.22 919.59 916.49 906.99 1209.47 913.18 1209.47 925.79 916.22 919.59"/><polygon class="cls-157" points="916.49 906.99 916.76 894.38 1209.47 900.57 1209.47 913.18 916.49 906.99"/><polygon class="cls-158" points="916.76 894.38 917.02 881.77 1209.47 887.95 1209.47 900.57 916.76 894.38"/><polygon class="cls-159" points="917.02 881.77 917.29 869.17 1209.47 875.34 1209.47 887.95 917.02 881.77"/><polygon class="cls-160" points="917.29 869.17 917.55 856.56 1209.47 862.73 1209.47 875.34 917.29 869.17"/><polygon class="cls-161" points="917.55 856.56 917.82 843.96 1209.47 850.12 1209.47 862.73 917.55 856.56"/><polygon class="cls-162" points="917.82 843.96 918.09 831.35 1209.47 837.5 1209.47 850.12 917.82 843.96"/><polygon class="cls-163" points="918.09 831.35 918.35 818.74 1209.47 824.89 1209.47 837.5 918.09 831.35"/><polygon class="cls-164" points="918.35 818.74 918.62 806.13 1209.47 812.28 1209.47 824.89 918.35 818.74"/><polygon class="cls-165" points="918.62 806.13 918.89 793.53 1209.47 799.67 1209.47 812.28 918.62 806.13"/><polygon class="cls-166" points="918.89 793.53 919.15 780.92 1209.47 787.05 1209.47 799.67 918.89 793.53"/><polygon class="cls-167" points="919.15 780.92 919.42 768.32 1209.47 774.44 1209.47 787.05 919.15 780.92"/><polygon class="cls-168" points="919.42 768.32 919.69 755.71 1209.47 761.83 1209.47 774.44 919.42 768.32"/><polygon class="cls-169" points="919.69 755.71 919.95 743.1 1209.47 749.22 1209.47 761.83 919.69 755.71"/><polygon class="cls-170" points="919.95 743.1 920.22 730.5 1209.47 736.61 1209.47 749.22 919.95 743.1"/><polygon class="cls-171" points="920.22 730.5 920.48 717.89 1209.47 724 1209.47 736.61 920.22 730.5"/><polygon class="cls-172" points="920.48 717.89 920.75 705.28 1209.47 711.38 1209.47 724 920.48 717.89"/><polygon class="cls-173" points="920.75 705.28 921.02 692.68 1209.47 698.77 1209.47 711.38 920.75 705.28"/><polygon class="cls-174" points="921.02 692.68 921.28 680.07 1209.47 686.16 1209.47 698.77 921.02 692.68"/><polygon class="cls-175" points="921.28 680.07 921.55 667.46 1209.47 673.55 1209.47 686.16 921.28 680.07"/><polygon class="cls-176" points="921.55 667.46 921.82 654.86 1209.47 660.93 1209.47 673.55 921.55 667.46"/><polygon class="cls-177" points="921.82 654.86 922.08 642.25 1209.47 648.32 1209.47 660.93 921.82 654.86"/><polygon class="cls-178" points="922.08 642.25 922.35 629.64 1209.47 635.71 1209.47 648.32 922.08 642.25"/><polygon class="cls-179" points="922.35 629.64 922.62 617.04 1209.47 623.1 1209.47 635.71 922.35 629.64"/><polygon class="cls-180" points="922.62 617.04 922.88 604.43 1209.47 610.49 1209.47 623.1 922.62 617.04"/><polygon class="cls-181" points="922.88 604.43 923.15 591.82 1209.47 597.87 1209.47 610.49 922.88 604.43"/><polygon class="cls-182" points="923.15 591.82 923.41 579.22 1209.47 585.26 1209.47 597.87 923.15 591.82"/><polygon class="cls-182" points="923.41 579.22 923.75 563.3 1209.47 563.3 1209.47 585.26 923.41 579.22"/></g><path class="cls-183" d="M1020,565.5l-58.4,16.35S985,698.6,998.94,712.55s-2.36,24.42,9.35,36.14S1085,848.46,1085,848.46Z"/><path class="cls-183" d="M1144.52,569.32,1085,848.46s63.34-111.93,68.76-117.35,0-28.32,0-39.06,33.69-104.14,33.69-104.14S1156.64,569.32,1144.52,569.32Z"/><path class="cls-184" d="M1024.9,563.3l-62.5,6.35s22.59,115,36.54,128.91-2.36,24.41,9.35,36.13S1085,848.46,1085,848.46Z"/><path class="cls-184" d="M1141.59,564.77,1085,848.46s63.34-125.93,68.76-131.35,0-28.32,0-39.06S1188,578.44,1188,578.44,1153.71,564.77,1141.59,564.77Z"/><polygon class="cls-185" points="1076.65 1139.96 1084.95 848.46 1083.24 1139.96 1076.65 1139.96"/><rect class="cls-186" x="885.25" y="1179.03" width="222.66" height="23.44"/><polygon class="cls-187" points="1088.86 1310.7 904.29 1310.7 898.43 1202.46 1094.72 1202.46 1088.86 1310.7"/><g class="cls-188"><path class="cls-189" d="M1094.72,1202.46H898.43l5.86,108.24h24.28c2.38-16.84,7.14-34.79,16.25-49.19,16.45-26,97.68-36.25,148.88-40.15Z"/></g><path class="cls-8" d="M1255.36,1369.3H753.41A58.6,58.6,0,0,1,812,1310.7h384.77a58.6,58.6,0,0,1,58.59,58.6Z"/><path class="cls-190" d="M714,602.82,697,541.76,622,561s10.68,33.26,18.14,37.82l30.39,18.59h0l67,132.91,48.21-59.55Z"/><path class="cls-191" d="M1130.27,277.49s-55.57-15-81.38-6.88-79.82,47.92-80.12,140.1c0,0-10.61,1.78-15.48,15.2s-8.62,38.06,12.06,64.3,61.4,29.44,82.19,32.4,81.77-6.24,101.35-36.39S1130.27,277.49,1130.27,277.49Z"/><path class="cls-192" d="M1101,286.73c15.37.73,27,9.5,35.54,22.38,7.46,39.6,18.79,107.14,17.87,147.69-4.38,15.75-11.94,30.9-21.36,42.4-1.64,2-3.34,3.9-5.07,5.69-22.29,12.91-53.15,18.24-71.63,18.25-55.3-15.61-63.75-69.93-54.18-127.12,2.58-15.41-1.62-65.13,26.74-92.83C1048,284.58,1076.77,280.81,1101,286.73Z"/><path class="cls-193" d="M1039.06,474s2.93,39.55,0,57.61-14.16,31.74-14.16,31.74l60,285.16,56.64-283.69s-14.06-8.62-18.06-33.21-3.91-87.89-3.91-87.89Z"/><path class="cls-194" d="M1085,848.46,1129,627.62c-33.62,3.66-67-.57-91.79-5.67Z"/><path class="cls-195" d="M1129,627.62l-.93.1c-11,45.12-36.26,145.14-44.86,153.75-8.26,8.26-33.46-102-46-159.51h0L1085,848.46Z"/><g class="cls-196"><path class="cls-190" d="M1117.36,486l-44.95-24.61L1041.69,473c-.8,2-1.58,4.05-2.29,6.23.63,10.72,1.79,35.38,0,49.91.09.23.17.47.27.7l1.34.61C1078.94,546.37,1104.08,518.08,1117.36,486Z"/></g><path class="cls-193" d="M1089.1,293s-33.56-10.2-56.34,14.67-20.68,72.51-22.33,84.12-19.18,94.92,33.83,115.78,80.15-36.43,85.31-72.68S1134.44,304.06,1089.1,293Z"/><g class="cls-196"><path class="cls-190" d="M1122.42,330.73c1.33,4.47,2.49,9.17,3.5,14a440,440,0,0,0-55.7-21.41c-11.57,25.71-30.55,41.78-57.44,38,1.27-10.75,3.53-22.71,7.88-33.61C1054,319.29,1092.28,306,1122.42,330.73Z"/></g><path class="cls-193" d="M702.85,545.54c-.67-.82-56.13-53.62-67.1-50.31-18.25,4.75,22.31,35,26.7,40.7a60.68,60.68,0,0,1,5.85,9.78c-1.43.41-2.78.78-4,1.07C653.87,549.3,626,554.5,622,561c0,0-.75,36.51,8.84,36.71s19.29-3.3,29.59-2.27c5.14.52,10.43-2,14.44-4.67.64-.42,1.25-.85,1.82-1.28a7.47,7.47,0,0,0-.32,7.51c4.92,10,38.94-7.24,40.41-13.62S710.7,555.2,702.85,545.54Zm-7.79,33a43.92,43.92,0,0,0-13.67,6.16c-1.31-3.45-7.82-21-6.74-28h0c4.74-5,15.08-5.16,20.14-3h0a4.75,4.75,0,0,1,1.42,2.47C697.81,562.82,701.24,577.07,695.06,578.55Z"/><path class="cls-184" d="M698.72,682.93S777.83,886.06,808.1,901.68,949.32,748.35,949.32,748.35s4.29-160.15-9.39-160.15-69.87,66.86-86,107.08c-16.45,40.91-15.87,61.58-38,21.83C793.33,676.5,753.66,622,753.66,622,730.87,644.74,698.72,682.93,698.72,682.93Z"/><path class="cls-197" d="M1048.83,271s19.68.34,30,11.17,35.29,18.84,40.16,92-8.38,79.69-8.38,79.69-20.61,30.61-3.65,58.67,58.59,24.3,83,14.29c35.54-14.57,39.2-82.09,31.6-127.7-1.06-6.36-1.5-10.11-3-15.53-2.94-10.43-2.77-21.92-7.57-33.13-15.55-36.29-48.17-72.08-113.78-79.74C1097.2,270.72,1068,264.82,1048.83,271Z"/><path class="cls-192" d="M1217.87,378c2.33,12.82,2,10.95,3.7,21.12.36,2.17.7,4.39,1,6.64-11.81-9.25-14-11.65-27.66-21.25a448.35,448.35,0,0,0-80.54-44.91c-.37-1.67-.74-3.28-1.14-4.84C1150.48,343.67,1187,355.83,1217.87,378Z"/><path class="cls-6" d="M1213.18,352c-66.38-47.72-114.1-58-197.07-64.3l-2.82,19.8c69,10.08,134.51,38.54,187.67,75.93,14.3,10.08,21.79,16.64,21.86,16.7Z"/><path class="cls-187" d="M962.58,292.73c-4.57,32.08,16,61.54,46,65.81s58-18.27,62.58-50.35-16-61.54-46-65.81S967.14,260.65,962.58,292.73Z"/><path class="cls-7" d="M962.58,292.73c-4.57,32.08,15.31,61.44,44.39,65.58s56.36-18.51,60.93-50.59-15.31-61.43-44.39-65.58S967.14,260.65,962.58,292.73Z"/><path class="cls-198" d="M962.58,292.73c-4.57,32.08,16,61.54,46,65.81s58-18.27,62.58-50.35-16-61.54-46-65.81S967.14,260.65,962.58,292.73Z"/><path class="cls-9" d="M962.58,292.73c-4.57,32.08,15.31,61.44,44.39,65.58s56.36-18.51,60.93-50.59-15.31-61.43-44.39-65.58S967.14,260.65,962.58,292.73Z"/><path class="cls-7" d="M1036.92,292c2.75-19.3-3.36-37.62-15-50.05l1.59.19c29.08,4.15,49,33.51,44.39,65.58s-31.84,54.73-60.93,50.59a49.72,49.72,0,0,1-29.4-15.53C1006.06,345.9,1032.44,323.5,1036.92,292Z"/><path class="cls-187" d="M1006.88,296.52c-.68,4.77,2.27,9.12,6.59,9.74s8.37-2.75,9-7.51-2.28-9.12-6.6-9.74S1007.55,291.76,1006.88,296.52Z"/><path class="cls-199" d="M564.77,565.75a3.66,3.66,0,0,1-3-5.75L700.9,358.36a3.67,3.67,0,1,1,6,4.17L567.79,564.16A3.67,3.67,0,0,1,564.77,565.75Z"/><path class="cls-199" d="M326,819.9a3.67,3.67,0,0,1-2.68-6.17L554.3,566.82a3.67,3.67,0,0,1,5.36,5L328.71,818.74A3.66,3.66,0,0,1,326,819.9Z"/><path class="cls-199" d="M557,573a3.64,3.64,0,0,1-2.13-.68L369.08,439.16a3.67,3.67,0,1,1,4.28-6L559.12,566.34A3.67,3.67,0,0,1,557,573Z"/><path class="cls-199" d="M656.06,997.88a3.68,3.68,0,0,1-3.57-2.84L553.41,570.16a3.67,3.67,0,1,1,7.14-1.67l99.08,424.89a3.66,3.66,0,0,1-2.73,4.4A3.5,3.5,0,0,1,656.06,997.88Z"/><path class="cls-199" d="M598.23,569.32A41.25,41.25,0,1,1,557,528.08,41.25,41.25,0,0,1,598.23,569.32Z"/><path class="cls-184" d="M583.27,567.29A26.29,26.29,0,1,1,557,541,26.28,26.28,0,0,1,583.27,567.29Z"/><rect class="cls-184" x="168.01" y="343.15" width="214.05" height="186.06" rx="19.09"/><path class="cls-199" d="M371.44,345.13a19,19,0,0,1,2,8.45V501.46a19.09,19.09,0,0,1-19.09,19.09H178.45a18.91,18.91,0,0,1-8.46-2A19.08,19.08,0,0,0,187.1,529.2H363a19.09,19.09,0,0,0,19.09-19.09V362.24A19.08,19.08,0,0,0,371.44,345.13Z"/><rect class="cls-184" x="168.01" y="709.48" width="214.05" height="186.06" rx="19.09"/><path class="cls-199" d="M371.44,711.46a19,19,0,0,1,2,8.46V867.79a19.08,19.08,0,0,1-19.09,19.09H178.45a19,19,0,0,1-8.46-2,19.08,19.08,0,0,0,17.11,10.63H363a19.09,19.09,0,0,0,19.09-19.09V728.57A19.1,19.1,0,0,0,371.44,711.46Z"/><rect class="cls-184" x="573.05" y="206.61" width="244.23" height="186.06" rx="20.39" transform="translate(1390.33 599.27) rotate(180)"/><path class="cls-199" d="M585.18,208.58a17.12,17.12,0,0,0-2.25,8.46V364.92c0,10.54,9.75,19.09,21.78,19.09H805.37a24.14,24.14,0,0,0,9.66-2c-3.56,6.3-11,10.63-19.53,10.63H594.83c-12,0-21.78-8.54-21.78-19.09V225.7C573.05,218.19,578,211.7,585.18,208.58Z"/><rect class="cls-184" x="547.39" y="930.13" width="244.23" height="186.06" rx="20.39" transform="translate(1339.01 2046.32) rotate(180)"/><path class="cls-199" d="M559.52,1114.21a17.12,17.12,0,0,1-2.25-8.46V957.88c0-10.55,9.75-19.09,21.78-19.09H779.71a24.3,24.3,0,0,1,9.66,2c-3.56-6.29-11-10.63-19.53-10.63H569.17c-12,0-21.78,8.55-21.78,19.09V1097.1C547.39,1104.6,552.34,1111.09,559.52,1114.21Z"/><path class="cls-184" d="M1187.4,587.91s-10.06,111.62,5.14,196.63c3.82,21.36,62.79,30.84,95,55.1,53.7,40.43,91.13,95,100.68,116.68,21.77-9.82,21.63-107.86,9.72-146.8C1385,783.64,1187.4,587.91,1187.4,587.91Z"/><polygon class="cls-194" points="1501.02 728.55 1293.29 703.43 1163.16 951.35 1331.64 951.35 1501.02 728.55"/><g class="cls-200"><path class="cls-195" d="M1331.64,951.35,1501,728.55l-207.73-25.11-3.71,7.06c32.48,8.51,95.31,28.44,104.63,57.29,10,30.82-62.55,138.84-94,183.56Z"/></g><polygon class="cls-201" points="1285.65 692.16 1153.24 946.92 1163.16 951.35 1293.29 703.43 1501.02 728.55 1488.36 718.64 1285.65 692.16"/><path class="cls-193" d="M1248.19,865.77c3.78-3,35.41,16.63,53.58,28.38,0-.25.07-.49.11-.73-17.1-12.69-47-27.82-40.18-32.18,3.51-2.23,78.64,28,78.65,28,7.91,3.58,8.27,3.92,16.43,7.53-1.93-4.71-21.59-36.72-8.33-35.15l43.89,57.39c7.44,12.2,7.18,19.6,5.33,26-2.27,7.83-13.28,28.84-31.21,33.06-17.27,4.07-64.09-22.37-71.42-29.22-7.87-6.77-61.55-53.7-53-66.77,0,0,44.75,43.69,49.51,38.27.27-1.25-44.25-30.82-47.74-42.37-2.5-8.27,36.44,16.94,53.5,29.58C1282,895,1245.59,867.85,1248.19,865.77Z"/><polygon class="cls-202" points="330.27 503.21 210.62 503.21 210.62 423.96 270.44 377.65 330.27 423.96 330.27 503.21"/><polygon class="cls-203" points="297.13 442 280 442 280 424.87 260.88 424.87 260.88 442 243.75 442 243.75 461.12 260.88 461.12 260.88 478.25 280 478.25 280 461.12 297.13 461.12 297.13 442"/><polygon class="cls-202" points="346.86 427.19 270.42 368.56 194.92 427.18 191.65 422.96 270.39 361.81 350.11 422.95 346.86 427.19"/><polygon class="cls-202" points="318.12 402.47 303.22 390.78 303.22 373.75 318.12 373.75 318.12 402.47"/><rect class="cls-203" x="687.66" y="219.42" width="9.54" height="14.88" rx="2.1"/><path class="cls-203" d="M692.91,223.24h71.15a.83.83,0,0,1,.83.83v1.65a.83.83,0,0,1-.83.83H692.91a0,0,0,0,1,0,0v-3.31A0,0,0,0,1,692.91,223.24Z"/><path class="cls-203" d="M687.56,230.23h9.73a5.47,5.47,0,0,1,5.47,5.47v28.64a0,0,0,0,1,0,0H682.09a0,0,0,0,1,0,0V235.71A5.47,5.47,0,0,1,687.56,230.23Z"/><path class="cls-6" d="M706.84,285v-6.91H678V285a10.61,10.61,0,0,1-5.44,9.27h0a10.63,10.63,0,0,0-5.44,9.28v61.38a11.82,11.82,0,0,0,11.81,11.82h27a11.82,11.82,0,0,0,11.82-11.82V303.54a10.63,10.63,0,0,0-5.44-9.28h0A10.61,10.61,0,0,1,706.84,285Z"/><rect class="cls-204" x="667.13" y="304.56" width="50.6" height="55.51"/><polygon class="cls-203" points="706.94 327.12 697.63 327.12 697.63 317.8 687.23 317.8 687.23 327.12 677.91 327.12 677.91 337.51 687.23 337.51 687.23 346.83 697.63 346.83 697.63 337.51 706.94 337.51 706.94 327.12"/><path class="cls-204" d="M681.38,255.57h22.1a4.52,4.52,0,0,1,4.52,4.52v20.3a0,0,0,0,1,0,0H676.86a0,0,0,0,1,0,0v-20.3A4.52,4.52,0,0,1,681.38,255.57Z"/><g class="cls-205"><rect class="cls-206" x="679.62" y="260.09" width="1.64" height="17.56" rx="0.78"/><rect class="cls-206" x="683.62" y="260.09" width="1.64" height="17.56" rx="0.78"/><rect class="cls-206" x="687.61" y="260.09" width="1.64" height="17.56" rx="0.78"/><rect class="cls-206" x="691.61" y="260.09" width="1.64" height="17.56" rx="0.78"/><rect class="cls-206" x="695.6" y="260.09" width="1.64" height="17.56" rx="0.78"/><rect class="cls-206" x="699.6" y="260.09" width="1.64" height="17.56" rx="0.78"/><rect class="cls-206" x="703.59" y="260.09" width="1.64" height="17.56" rx="0.78"/></g><rect class="cls-6" x="674.82" y="275.49" width="35.21" height="6.45" rx="1.27"/><path class="cls-193" d="M180.31,837.21c27.09-18.46,43.78-35.93,58.95-36.65,15.39-.74,40.62,5,41,9.44.43,4.6-28.92,4.54-28.92,4.54s22.47,5,32.3,6.08c7.42-1,42.63-16.37,62.38-12.93,4.66,1.43-39.61,35.39-51.48,42.24-7.4,4.28-32-.88-54.76-2-3.25-.16-13.56.05-18.41,2.22-5.23,2.34-19.86,13.61-24.8,17.88Z"/><path class="cls-6" d="M301.55,761.55c-.28,12.67-7.05,19-15.75,19s-15.5-6.33-15.76-19c-.25-12.38,11.28-23.7,15.76-30.35C291,738.51,301.83,749.21,301.55,761.55Z"/><g class="cls-207"><path class="cls-208" d="M285.44,733.75c-5,6.67-11,16.49-10.23,19.93S286.32,754.85,285.44,733.75Z"/></g><path class="cls-203" d="M737.76,1068.26l.22,0a344.85,344.85,0,0,1-127.46.09l.34.07c15.82-18.52,14.47-44.21-.12-72.21l49.44-2.76a162,162,0,0,1,29,0l48.47,2.88C723.62,1025.76,723.7,1050.82,737.76,1068.26Z"/><path class="cls-203" d="M611.11,1068.38h-.25c-19.23-.17-42-15.56-46.41-49-1.23-9.23.12-16.15,4-20.59,3.7-4.22,9.57-6.28,17.95-6.28,6.27,0,13.74,1.1,24.21,3.57l.12,0c1,.4,25.27,10,29,21.64,4.56,14.28,3,27.68-4.31,37.73A30.49,30.49,0,0,1,611.11,1068.38Zm-24.7-74c-7.82,0-13.25,1.85-16.58,5.65-3.52,4-4.72,10.47-3.56,19.15,4.3,32.31,26.14,47.2,44.61,47.36h.23A28.66,28.66,0,0,0,634,1054.46c7-9.57,8.43-22.39,4-36.09-3.38-10.58-26.24-20.23-27.87-20.47C599.84,995.47,592.52,994.39,586.41,994.39Z"/><path class="cls-203" d="M738,1068.32c-9.27,0-18.31-4.8-24.18-12.84-7.43-10.18-9-23.7-4.4-38.09,3.73-11.67,27.6-20.84,28.62-21.22l.11,0c7.28-1.71,16.67-3.68,24.76-3.68,8.34,0,14.17,2,17.84,6.22,3.84,4.39,5.17,11.23,4,20.34-2,15.19-8.09,28-17.54,36.93-8.19,7.78-18.73,12.28-28.93,12.38Zm.63-70.42c-1.28.49-24.09,9.46-27.47,20.05-4.41,13.81-2.94,26.76,4.14,36.45,5.53,7.57,14,12.09,22.7,12.09h.22c18.48-.17,40.34-15.17,44.68-47.72,1.14-8.57,0-14.92-3.53-18.9-3.3-3.76-8.68-5.59-16.46-5.59S745.77,996.21,738.6,997.9Z"/><path class="cls-209" d="M624.45,1031.59c34.32-10.66,68.23-10.66,100.11,1.53C691.26,1045.5,661.21,1046.11,624.45,1031.59Z"/></g></g></g></svg>