<svg xmlns="http://www.w3.org/2000/svg" xmlns:xlink="http://www.w3.org/1999/xlink" viewBox="0 0 552.4 270.91"><defs><style>.cls-1{fill:none;}.cls-2{isolation:isolate;}.cls-12,.cls-3{fill:#b5b5f2;}.cls-10,.cls-11,.cls-4,.cls-5,.cls-6,.cls-7,.cls-8,.cls-9{opacity:0.6;}.cls-10,.cls-11,.cls-12,.cls-4,.cls-5,.cls-6,.cls-62,.cls-64,.cls-66,.cls-68,.cls-7,.cls-70,.cls-72,.cls-74,.cls-76,.cls-78,.cls-8,.cls-80,.cls-82,.cls-84,.cls-9{mix-blend-mode:lighten;}.cls-4{fill:url(#linear-gradient);}.cls-5{fill:url(#linear-gradient-2);}.cls-6{fill:url(#linear-gradient-3);}.cls-7{fill:url(#linear-gradient-4);}.cls-8{fill:url(#linear-gradient-5);}.cls-9{fill:url(#linear-gradient-6);}.cls-10{fill:url(#linear-gradient-7);}.cls-11{fill:url(#linear-gradient-8);}.cls-13{fill:url(#Áåçûìÿííûé_ãðàäèåíò_6);}.cls-14{fill:#edeeff;}.cls-15{fill:#fff;}.cls-16{fill:#03010f;}.cls-17,.cls-18,.cls-19,.cls-20,.cls-21,.cls-22,.cls-23,.cls-26,.cls-27,.cls-28,.cls-29,.cls-30,.cls-31{opacity:0.5;}.cls-17{fill:url(#Áåçûìÿííûé_ãðàäèåíò_5);}.cls-18{fill:url(#Áåçûìÿííûé_ãðàäèåíò_5-2);}.cls-19{fill:url(#Áåçûìÿííûé_ãðàäèåíò_5-3);}.cls-20{fill:url(#Áåçûìÿííûé_ãðàäèåíò_5-4);}.cls-21,.cls-24,.cls-37,.cls-40,.cls-41{fill:#e84242;}.cls-22{fill:url(#Áåçûìÿííûé_ãðàäèåíò_5-5);}.cls-23{fill:url(#Áåçûìÿííûé_ãðàäèåíò_5-6);}.cls-24{opacity:0.8;}.cls-25{fill:url(#Áåçûìÿííûé_ãðàäèåíò_6-2);}.cls-26{fill:url(#Áåçûìÿííûé_ãðàäèåíò_5-7);}.cls-27{fill:url(#Áåçûìÿííûé_ãðàäèåíò_5-8);}.cls-28{fill:url(#Áåçûìÿííûé_ãðàäèåíò_5-9);}.cls-29{fill:url(#Áåçûìÿííûé_ãðàäèåíò_5-10);}.cls-30{fill:url(#Áåçûìÿííûé_ãðàäèåíò_5-11);}.cls-31{fill:url(#Áåçûìÿííûé_ãðàäèåíò_5-12);}.cls-32,.cls-36,.cls-39{fill:#0f0b2e;}.cls-32{opacity:0.7;}.cls-33{fill:url(#Áåçûìÿííûé_ãðàäèåíò_3);}.cls-34{fill:#0c0624;}.cls-35,.cls-39{opacity:0.51;}.cls-38{fill:url(#Áåçûìÿííûé_ãðàäèåíò_3-2);}.cls-40{opacity:0.1;}.cls-41{opacity:0.4;}.cls-42{fill:url(#Áåçûìÿííûé_ãðàäèåíò_3-3);}.cls-43{fill:url(#Áåçûìÿííûé_ãðàäèåíò_4);}.cls-44{fill:url(#Áåçûìÿííûé_ãðàäèåíò_4-2);}.cls-45{fill:url(#Áåçûìÿííûé_ãðàäèåíò_3-4);}.cls-46{fill:#7881a2;}.cls-47{fill:#dcddf2;}.cls-48{fill:#c1c3db;}.cls-49{fill:url(#Áåçûìÿííûé_ãðàäèåíò_3-5);}.cls-50{opacity:0.11;}.cls-51{clip-path:url(#clip-path);}.cls-52{fill:url(#Áåçûìÿííûé_ãðàäèåíò_3-6);}.cls-53{fill:url(#Áåçûìÿííûé_ãðàäèåíò_3-7);}.cls-54{fill:url(#Áåçûìÿííûé_ãðàäèåíò_3-8);}.cls-55{fill:url(#Áåçûìÿííûé_ãðàäèåíò_4-3);}.cls-56{fill:url(#Áåçûìÿííûé_ãðàäèåíò_4-4);}.cls-57{fill:url(#Áåçûìÿííûé_ãðàäèåíò_3-9);}.cls-58{fill:url(#Áåçûìÿííûé_ãðàäèåíò_3-10);}.cls-59{clip-path:url(#clip-path-2);}.cls-60{fill:url(#Áåçûìÿííûé_ãðàäèåíò_3-11);}.cls-61{fill:url(#Áåçûìÿííûé_ãðàäèåíò_3-12);}.cls-62{fill:url(#radial-gradient);}.cls-63{fill:url(#Áåçûìÿííûé_ãðàäèåíò_2);}.cls-64{fill:url(#radial-gradient-2);}.cls-65{fill:url(#Áåçûìÿííûé_ãðàäèåíò_2-2);}.cls-66{fill:url(#radial-gradient-3);}.cls-67{fill:url(#Áåçûìÿííûé_ãðàäèåíò_2-3);}.cls-68{fill:url(#radial-gradient-4);}.cls-69{fill:url(#Áåçûìÿííûé_ãðàäèåíò_2-4);}.cls-70{fill:url(#radial-gradient-5);}.cls-71{fill:url(#Áåçûìÿííûé_ãðàäèåíò_2-5);}.cls-72{fill:url(#radial-gradient-6);}.cls-73{fill:url(#Áåçûìÿííûé_ãðàäèåíò_2-6);}.cls-74{fill:url(#radial-gradient-7);}.cls-75{fill:url(#Áåçûìÿííûé_ãðàäèåíò_2-7);}.cls-76{fill:url(#radial-gradient-8);}.cls-77{fill:url(#Áåçûìÿííûé_ãðàäèåíò_2-8);}.cls-78{fill:url(#radial-gradient-9);}.cls-79{fill:url(#Áåçûìÿííûé_ãðàäèåíò_2-9);}.cls-80{fill:url(#radial-gradient-10);}.cls-81{fill:url(#Áåçûìÿííûé_ãðàäèåíò_2-10);}.cls-82{fill:url(#radial-gradient-11);}.cls-83{fill:url(#Áåçûìÿííûé_ãðàäèåíò_2-11);}.cls-84{fill:url(#radial-gradient-12);}.cls-85{fill:url(#Áåçûìÿííûé_ãðàäèåíò_2-12);}</style><linearGradient id="linear-gradient" x1="-1854.96" y1="-750.21" x2="-1854.96" y2="-790.28" gradientTransform="matrix(0.87, 0.5, -1, 0.58, 1225.88, 1515.54)" gradientUnits="userSpaceOnUse"><stop offset="0" stop-color="#e84242"/><stop offset="0.04" stop-color="#e84242" stop-opacity="0.9"/><stop offset="0.13" stop-color="#e84242" stop-opacity="0.69"/><stop offset="0.23" stop-color="#e84242" stop-opacity="0.51"/><stop offset="0.34" stop-color="#e84242" stop-opacity="0.35"/><stop offset="0.44" stop-color="#e84242" stop-opacity="0.22"/><stop offset="0.56" stop-color="#e84242" stop-opacity="0.12"/><stop offset="0.68" stop-color="#e84242" stop-opacity="0.05"/><stop offset="0.82" stop-color="#e84242" stop-opacity="0.01"/><stop offset="1" stop-color="#e84242" stop-opacity="0"/></linearGradient><linearGradient id="linear-gradient-2" x1="987.41" y1="-69.02" x2="987.41" y2="-115.3" gradientTransform="matrix(1, -0.58, 0.87, 0.5, -587.86, 759.53)" xlink:href="#linear-gradient"/><linearGradient id="linear-gradient-3" x1="575.06" y1="2726.87" x2="575.06" y2="2686.8" gradientTransform="matrix(-0.87, -0.5, 1, -0.58, -1889.1, 2034.19)" xlink:href="#linear-gradient"/><linearGradient id="linear-gradient-4" x1="-2489.67" y1="2361" x2="-2489.67" y2="2314.73" gradientTransform="matrix(-1, 0.58, -0.87, -0.5, -75.35, 2790.2)" xlink:href="#linear-gradient"/><linearGradient id="linear-gradient-5" x1="-1944.02" y1="-673.09" x2="-1944.02" y2="-713.16" xlink:href="#linear-gradient"/><linearGradient id="linear-gradient-6" x1="910.29" y1="-158.08" x2="910.29" y2="-204.36" gradientTransform="matrix(1, -0.58, 0.87, 0.5, -587.86, 759.53)" xlink:href="#linear-gradient"/><linearGradient id="linear-gradient-7" x1="664.12" y1="2649.75" x2="664.12" y2="2609.68" gradientTransform="matrix(-0.87, -0.5, 1, -0.58, -1889.1, 2034.19)" xlink:href="#linear-gradient"/><linearGradient id="linear-gradient-8" x1="-2412.56" y1="2450.06" x2="-2412.56" y2="2403.78" gradientTransform="matrix(-1, 0.58, -0.87, -0.5, -75.35, 2790.2)" xlink:href="#linear-gradient"/><linearGradient id="Áåçûìÿííûé_ãðàäèåíò_6" x1="143.28" y1="171.99" x2="241.76" y2="171.99" gradientUnits="userSpaceOnUse"><stop offset="0" stop-color="#c2c3d7"/><stop offset="0.29" stop-color="#c9cade"/><stop offset="0.72" stop-color="#dddef0"/><stop offset="1" stop-color="#edeeff"/></linearGradient><linearGradient id="Áåçûìÿííûé_ãðàäèåíò_5" x1="171.15" y1="158.68" x2="230.26" y2="158.68" gradientUnits="userSpaceOnUse"><stop offset="0" stop-color="#e84242"/><stop offset="0.14" stop-color="#e74647"/><stop offset="0.31" stop-color="#e35355"/><stop offset="0.49" stop-color="#dd676d"/><stop offset="0.68" stop-color="#d5848e"/><stop offset="0.88" stop-color="#caa8b8"/><stop offset="1" stop-color="#c2c3d7"/></linearGradient><linearGradient id="Áåçûìÿííûé_ãðàäèåíò_5-2" x1="200.7" y1="148" x2="230.26" y2="148" xlink:href="#Áåçûìÿííûé_ãðàäèåíò_5"/><linearGradient id="Áåçûìÿííûé_ãðàäèåíò_5-3" x1="171.15" y1="148" x2="200.7" y2="148" xlink:href="#Áåçûìÿííûé_ãðàäèåíò_5"/><linearGradient id="Áåçûìÿííûé_ãðàäèåíò_5-4" x1="171.15" y1="154.38" x2="230.26" y2="154.38" xlink:href="#Áåçûìÿííûé_ãðàäèåíò_5"/><linearGradient id="Áåçûìÿííûé_ãðàäèåíò_5-5" x1="200.7" y1="165.06" x2="230.26" y2="165.06" xlink:href="#Áåçûìÿííûé_ãðàäèåíò_5"/><linearGradient id="Áåçûìÿííûé_ãðàäèåíò_5-6" x1="171.15" y1="165.06" x2="200.7" y2="165.06" xlink:href="#Áåçûìÿííûé_ãðàäèåíò_5"/><linearGradient id="Áåçûìÿííûé_ãðàäèåíò_6-2" x1="297.31" y1="171.99" x2="395.79" y2="171.99" xlink:href="#Áåçûìÿííûé_ãðàäèåíò_6"/><linearGradient id="Áåçûìÿííûé_ãðàäèåíò_5-7" x1="325.18" y1="158.68" x2="384.29" y2="158.68" xlink:href="#Áåçûìÿííûé_ãðàäèåíò_5"/><linearGradient id="Áåçûìÿííûé_ãðàäèåíò_5-8" x1="354.73" y1="148" x2="384.29" y2="148" xlink:href="#Áåçûìÿííûé_ãðàäèåíò_5"/><linearGradient id="Áåçûìÿííûé_ãðàäèåíò_5-9" x1="325.18" y1="148" x2="354.73" y2="148" xlink:href="#Áåçûìÿííûé_ãðàäèåíò_5"/><linearGradient id="Áåçûìÿííûé_ãðàäèåíò_5-10" x1="325.18" y1="154.38" x2="384.29" y2="154.38" xlink:href="#Áåçûìÿííûé_ãðàäèåíò_5"/><linearGradient id="Áåçûìÿííûé_ãðàäèåíò_5-11" x1="354.73" y1="165.06" x2="384.29" y2="165.06" xlink:href="#Áåçûìÿííûé_ãðàäèåíò_5"/><linearGradient id="Áåçûìÿííûé_ãðàäèåíò_5-12" x1="325.18" y1="165.06" x2="354.73" y2="165.06" xlink:href="#Áåçûìÿííûé_ãðàäèåíò_5"/><linearGradient id="Áåçûìÿííûé_ãðàäèåíò_3" x1="311.96" y1="217.06" x2="311.96" y2="72.94" gradientUnits="userSpaceOnUse"><stop offset="0" stop-color="#c0bff6"/><stop offset="0.29" stop-color="#c5c4f7"/><stop offset="0.64" stop-color="#d3d2f9"/><stop offset="1" stop-color="#e9e9fd"/></linearGradient><linearGradient id="Áåçûìÿííûé_ãðàäèåíò_3-2" x1="311.96" y1="87.41" x2="311.96" y2="40.74" xlink:href="#Áåçûìÿííûé_ãðàäèåíò_3"/><linearGradient id="Áåçûìÿííûé_ãðàäèåíò_3-3" x1="2278.69" y1="147.3" x2="2354.99" y2="147.3" gradientTransform="translate(-2278.69)" xlink:href="#Áåçûìÿííûé_ãðàäèåíò_3"/><linearGradient id="Áåçûìÿííûé_ãðàäèåíò_4" x1="2278.69" y1="166.87" x2="2291.79" y2="166.87" gradientTransform="translate(-2278.69)" gradientUnits="userSpaceOnUse"><stop offset="0" stop-color="#c2c3d7"/><stop offset="0.29" stop-color="#c7c8dc"/><stop offset="0.63" stop-color="#d5d6e9"/><stop offset="1" stop-color="#edeeff"/><stop offset="1" stop-color="#edeeff"/></linearGradient><linearGradient id="Áåçûìÿííûé_ãðàäèåíò_4-2" x1="2288.91" y1="188.86" x2="2396.68" y2="188.86" xlink:href="#Áåçûìÿííûé_ãðàäèåíò_4"/><linearGradient id="Áåçûìÿííûé_ãðàäèåíò_3-4" x1="2325.12" y1="185.27" x2="2432.94" y2="185.27" gradientTransform="translate(-2278.69)" xlink:href="#Áåçûìÿííûé_ãðàäèåíò_3"/><linearGradient id="Áåçûìÿííûé_ãðàäèåíò_3-5" x1="2343.38" y1="191.39" x2="2370.98" y2="191.39" gradientTransform="translate(-2278.69)" xlink:href="#Áåçûìÿííûé_ãðàäèåíò_3"/><clipPath id="clip-path" transform="translate(30.99)"><polygon id="SVGID" class="cls-1" points="67.09 105.97 3.43 142.73 11.32 189.27 74.95 152.54 67.09 105.97"/></clipPath><linearGradient id="Áåçûìÿííûé_ãðàäèåíò_3-6" x1="2283.93" y1="161.37" x2="2391.75" y2="161.37" gradientTransform="translate(-2278.69)" xlink:href="#Áåçûìÿííûé_ãðàäèåíò_3"/><linearGradient id="Áåçûìÿííûé_ãðàäèåíò_3-7" x1="2276.83" y1="153.46" x2="2304.43" y2="153.46" gradientTransform="translate(-2278.69)" xlink:href="#Áåçûìÿííûé_ãðàäèåíò_3"/><linearGradient id="Áåçûìÿííûé_ãðàäèåíò_3-8" x1="32.25" y1="147.3" x2="108.55" y2="147.3" gradientTransform="matrix(-1, 0, 0, 1, 522.66, 0)" xlink:href="#Áåçûìÿííûé_ãðàäèåíò_3"/><linearGradient id="Áåçûìÿííûé_ãðàäèåíò_4-3" x1="32.25" y1="166.87" x2="45.35" y2="166.87" gradientTransform="matrix(-1, 0, 0, 1, 522.66, 0)" xlink:href="#Áåçûìÿííûé_ãðàäèåíò_4"/><linearGradient id="Áåçûìÿííûé_ãðàäèåíò_4-4" x1="42.47" y1="188.86" x2="150.24" y2="188.86" gradientTransform="matrix(-1, 0, 0, 1, 522.66, 0)" xlink:href="#Áåçûìÿííûé_ãðàäèåíò_4"/><linearGradient id="Áåçûìÿííûé_ãðàäèåíò_3-9" x1="78.68" y1="185.27" x2="186.5" y2="185.27" gradientTransform="matrix(-1, 0, 0, 1, 522.66, 0)" xlink:href="#Áåçûìÿííûé_ãðàäèåíò_3"/><linearGradient id="Áåçûìÿííûé_ãðàäèåíò_3-10" x1="96.94" y1="191.39" x2="124.54" y2="191.39" gradientTransform="matrix(-1, 0, 0, 1, 522.66, 0)" xlink:href="#Áåçûìÿííûé_ãðàäèåíò_3"/><clipPath id="clip-path-2" transform="translate(30.99)"><polygon id="SVGID-2" data-name="SVGID" class="cls-1" points="423.31 105.97 486.98 142.73 479.08 189.27 415.46 152.54 423.31 105.97"/></clipPath><linearGradient id="Áåçûìÿííûé_ãðàäèåíò_3-11" x1="37.49" y1="161.37" x2="145.31" y2="161.37" gradientTransform="matrix(-1, 0, 0, 1, 522.66, 0)" xlink:href="#Áåçûìÿííûé_ãðàäèåíò_3"/><linearGradient id="Áåçûìÿííûé_ãðàäèåíò_3-12" x1="30.39" y1="153.46" x2="57.99" y2="153.46" gradientTransform="matrix(-1, 0, 0, 1, 522.66, 0)" xlink:href="#Áåçûìÿííûé_ãðàäèåíò_3"/><radialGradient id="radial-gradient" cx="426.69" cy="365.54" r="9.38" gradientTransform="matrix(0.99, -0.13, -0.13, -0.99, -255.24, 662.6)" gradientUnits="userSpaceOnUse"><stop offset="0" stop-color="#e84242"/><stop offset="0.02" stop-color="#e84242" stop-opacity="0.93"/><stop offset="0.08" stop-color="#e84242" stop-opacity="0.74"/><stop offset="0.14" stop-color="#e84242" stop-opacity="0.56"/><stop offset="0.21" stop-color="#e84242" stop-opacity="0.41"/><stop offset="0.28" stop-color="#e84242" stop-opacity="0.28"/><stop offset="0.37" stop-color="#e84242" stop-opacity="0.18"/><stop offset="0.46" stop-color="#e84242" stop-opacity="0.1"/><stop offset="0.57" stop-color="#e84242" stop-opacity="0.04"/><stop offset="0.71" stop-color="#e84242" stop-opacity="0.01"/><stop offset="1" stop-color="#e84242" stop-opacity="0"/></radialGradient><radialGradient id="Áåçûìÿííûé_ãðàäèåíò_2" cx="426.69" cy="365.54" r="2.55" gradientTransform="matrix(0.86, -0.5, -0.5, -0.86, -61.48, 777.48)" gradientUnits="userSpaceOnUse"><stop offset="0" stop-color="#e84242"/><stop offset="1" stop-color="#e84242"/></radialGradient><radialGradient id="radial-gradient-2" cx="480.87" cy="326.33" r="9.38" gradientTransform="matrix(0.99, -0.13, -0.13, -0.99, -247.33, 636.98)" xlink:href="#radial-gradient"/><radialGradient id="Áåçûìÿííûé_ãðàäèåíò_2-2" cx="480.87" cy="326.33" r="2.55" xlink:href="#Áåçûìÿííûé_ãðàäèåíò_2"/><radialGradient id="radial-gradient-3" cx="579.83" cy="269.35" r="9.38" gradientTransform="matrix(0.99, -0.13, -0.13, -0.99, -238.45, 592.07)" xlink:href="#radial-gradient"/><radialGradient id="Áåçûìÿííûé_ãðàäèåíò_2-3" cx="579.83" cy="269.35" r="2.55" xlink:href="#Áåçûìÿííûé_ãðàäèåíò_2"/><radialGradient id="radial-gradient-4" cx="586.8" cy="256.95" r="9.38" gradientTransform="matrix(0.86, -0.5, -0.5, -0.86, -61.48, 777.48)" xlink:href="#radial-gradient"/><radialGradient id="Áåçûìÿííûé_ãðàäèåíò_2-4" cx="586.8" cy="256.95" r="2.55" gradientTransform="matrix(0.86, -0.5, -0.5, -0.86, -30.49, 777.48)" xlink:href="#Áåçûìÿííûé_ãðàäèåíò_2"/><radialGradient id="radial-gradient-5" cx="654.34" cy="239.91" r="9.38" gradientTransform="matrix(1, -0.07, -0.07, -1, -252.4, 527.96)" xlink:href="#radial-gradient"/><radialGradient id="Áåçûìÿííûé_ãðàäèåíò_2-5" cx="654.34" cy="239.91" r="2.55" xlink:href="#Áåçûìÿííûé_ãðàäèåíò_2"/><radialGradient id="radial-gradient-6" cx="679.67" cy="251.94" r="9.38" gradientTransform="matrix(0.86, -0.5, -0.5, -0.86, -61.48, 777.48)" xlink:href="#radial-gradient"/><radialGradient id="Áåçûìÿííûé_ãðàäèåíò_2-6" cx="679.67" cy="251.94" r="2.55" xlink:href="#Áåçûìÿííûé_ãðàäèåíò_2"/><radialGradient id="radial-gradient-7" cx="671.5" cy="266.58" r="9.38" gradientTransform="matrix(0.86, -0.5, -0.5, -0.86, -61.48, 777.48)" xlink:href="#radial-gradient"/><radialGradient id="Áåçûìÿííûé_ãðàäèåíò_2-7" cx="671.5" cy="266.58" r="2.55" xlink:href="#Áåçûìÿííûé_ãðàäèåíò_2"/><radialGradient id="radial-gradient-8" cx="663.04" cy="280.71" r="9.38" gradientTransform="matrix(0.86, -0.5, -0.5, -0.86, -61.48, 777.48)" xlink:href="#radial-gradient"/><radialGradient id="Áåçûìÿííûé_ãðàäèåíò_2-8" cx="663.04" cy="280.71" r="2.55" xlink:href="#Áåçûìÿííûé_ãðàäèåíò_2"/><radialGradient id="radial-gradient-9" cx="420.05" cy="377.29" r="9.38" gradientTransform="matrix(0.86, -0.5, -0.5, -0.86, -61.48, 777.48)" xlink:href="#radial-gradient"/><radialGradient id="Áåçûìÿííûé_ãðàäèåíò_2-9" cx="420.05" cy="377.29" r="2.55" gradientTransform="matrix(0.86, -0.5, -0.5, -0.86, -30.49, 777.48)" xlink:href="#Áåçûìÿííûé_ãðàäèåíò_2"/><radialGradient id="radial-gradient-10" cx="413.4" cy="389.04" r="9.38" gradientTransform="matrix(0.71, 0.71, 0.71, -0.71, -468.35, 215.77)" xlink:href="#radial-gradient"/><radialGradient id="Áåçûìÿííûé_ãðàäèåíò_2-10" cx="413.4" cy="389.04" r="2.55" xlink:href="#Áåçûìÿííûé_ãðàäèåíò_2"/><radialGradient id="radial-gradient-11" cx="455.53" cy="404.95" r="9.38" gradientTransform="matrix(0.86, -0.5, -0.5, -0.86, -61.48, 777.48)" xlink:href="#radial-gradient"/><radialGradient id="Áåçûìÿííûé_ãðàäèåíò_2-11" cx="455.53" cy="404.95" r="2.55" xlink:href="#Áåçûìÿííûé_ãðàäèåíò_2"/><radialGradient id="radial-gradient-12" cx="469.6" cy="404.32" r="9.38" gradientTransform="matrix(0.86, -0.5, -0.5, -0.86, -61.48, 777.48)" xlink:href="#radial-gradient"/><radialGradient id="Áåçûìÿííûé_ãðàäèåíò_2-12" cx="469.6" cy="404.32" r="2.55" xlink:href="#Áåçûìÿííûé_ãðàäèåíò_2"/></defs><title>Asset 1</title><g class="cls-2"><g id="Layer_2" data-name="Layer 2"><g id="Ñëîé_1" data-name="Ñëîé 1"><path class="cls-3" d="M332.17,268.89a5,5,0,0,1-2.49-.67l-38.39-22.17.33-.57L330,267.65a4.32,4.32,0,0,0,4.34,0l11.21-6.52,62.77-36.24a.93.93,0,0,0,.47-.81.91.91,0,0,0-.47-.8l-65.11-37.59.33-.57,65.11,37.59a1.58,1.58,0,0,1,0,2.74l-62.78,36.25-11.2,6.52A5.08,5.08,0,0,1,332.17,268.89Z" transform="translate(30.99)"/><path class="cls-3" d="M86.76,175.61l-.33-.57,45.48-26.26a5.21,5.21,0,0,1,5.18,0l21.26,12.28-.33.57-21.26-12.28a4.56,4.56,0,0,0-4.52,0Z" transform="translate(30.99)"/><path class="cls-3" d="M408,175.61l-45.48-26.26a4.58,4.58,0,0,0-4.53,0l-21.26,12.28-.32-.57,21.26-12.28a5.21,5.21,0,0,1,5.18,0L408.35,175Z" transform="translate(30.99)"/><polygon class="cls-4" points="424.74 140.39 394.81 123.11 354.73 146.25 384.66 163.53 424.74 140.39"/><polygon class="cls-5" points="314.66 123.11 284.73 140.39 324.8 163.53 354.73 146.25 314.66 123.11"/><polygon class="cls-6" points="284.73 186.66 314.66 203.94 354.74 180.81 324.8 163.53 284.73 186.66"/><polygon class="cls-7" points="394.81 203.94 424.74 186.66 384.66 163.53 354.74 180.81 394.81 203.94"/><polygon class="cls-8" points="270.49 140.39 240.56 123.11 200.49 146.25 230.42 163.53 270.49 140.39"/><polygon class="cls-9" points="160.42 123.11 130.49 140.39 170.56 163.53 200.49 146.25 160.42 123.11"/><polygon class="cls-10" points="130.49 186.66 160.42 203.94 200.49 180.81 170.56 163.53 130.49 186.66"/><polygon class="cls-11" points="240.56 203.94 270.5 186.66 230.42 163.53 200.49 180.81 240.56 203.94"/><path class="cls-12" d="M169.71,196.38a3.17,3.17,0,0,1-1.61-.38l-36.19-20.89a1.26,1.26,0,0,1-.72-1.09,1.65,1.65,0,0,1,1-1.34l35.7-20.61a4,4,0,0,1,3.66-.14l36.18,20.89a1.28,1.28,0,0,1,.73,1.09,1.66,1.66,0,0,1-1,1.34l-35.7,20.61A4.07,4.07,0,0,1,169.71,196.38Zm-1.33-.86a3.49,3.49,0,0,0,3.09-.14l35.7-20.61c.43-.25.69-.57.69-.86a.75.75,0,0,0-.45-.6l-36.18-20.9a3.54,3.54,0,0,0-3.1.14l-35.7,20.62a1.12,1.12,0,0,0-.68.85.77.77,0,0,0,.44.61Z" transform="translate(30.99)"/><polygon class="cls-13" points="239.13 158.68 239.13 163.12 200.7 185.31 162.28 163.12 162.28 158.68 239.13 158.68"/><polygon class="cls-14" points="200.7 180.86 162.28 158.68 200.7 136.49 239.13 158.68 200.7 180.86"/><polygon class="cls-15" points="200.7 180.35 162.72 158.42 162.28 158.68 200.7 180.86 239.13 158.68 238.68 158.42 200.7 180.35"/><polygon class="cls-16" points="200.7 175.75 171.15 158.68 200.7 141.62 230.26 158.68 200.7 175.75"/><polygon class="cls-17" points="200.7 175.75 171.15 158.68 200.7 141.62 230.26 158.68 200.7 175.75"/><polygon class="cls-18" points="200.7 137.32 230.26 154.38 230.26 158.68 200.7 141.62 200.7 137.32"/><polygon class="cls-19" points="200.7 141.62 171.15 158.68 171.15 154.38 200.7 137.32 200.7 141.62"/><polygon class="cls-20" points="200.7 171.44 171.15 154.38 200.7 137.32 230.26 154.38 200.7 171.44"/><polygon class="cls-21" points="200.7 161.2 188.89 154.38 200.7 147.56 212.51 154.38 200.7 161.2"/><polygon class="cls-21" points="200.7 148.19 211.97 154.69 212.51 154.38 200.7 147.56 188.89 154.38 189.44 154.69 200.7 148.19"/><polygon class="cls-22" points="200.7 171.44 200.7 175.75 230.26 158.68 230.26 154.38 200.7 171.44"/><polygon class="cls-23" points="171.15 154.38 171.15 158.68 200.7 175.75 200.7 171.44 171.15 154.38"/><polygon class="cls-24" points="200.7 170.97 171.55 154.15 171.15 154.38 200.7 171.44 230.26 154.38 229.85 154.15 200.7 170.97"/><path class="cls-12" d="M323.74,196.38a3.2,3.2,0,0,1-1.61-.38l-36.19-20.89a1.28,1.28,0,0,1-.72-1.09,1.64,1.64,0,0,1,1-1.34l35.7-20.61a4,4,0,0,1,3.65-.14l36.18,20.89a1.28,1.28,0,0,1,.73,1.09,1.64,1.64,0,0,1-1,1.34l-35.7,20.61A4.07,4.07,0,0,1,323.74,196.38Zm-1.33-.86a3.49,3.49,0,0,0,3.09-.14l35.7-20.61c.43-.25.69-.57.69-.86a.73.73,0,0,0-.45-.6l-36.18-20.9a3.54,3.54,0,0,0-3.1.14l-35.69,20.62c-.43.24-.69.56-.69.85a.77.77,0,0,0,.44.61Z" transform="translate(30.99)"/><polygon class="cls-25" points="393.16 158.68 393.16 163.12 354.74 185.31 316.31 163.12 316.31 158.68 393.16 158.68"/><polygon class="cls-14" points="354.74 180.86 316.31 158.68 354.73 136.49 393.16 158.68 354.74 180.86"/><polygon class="cls-15" points="354.74 180.35 316.76 158.42 316.31 158.68 354.74 180.86 393.16 158.68 392.71 158.42 354.74 180.35"/><polygon class="cls-16" points="354.74 175.75 325.18 158.68 354.73 141.62 384.29 158.68 354.74 175.75"/><polygon class="cls-26" points="354.74 175.75 325.18 158.68 354.73 141.62 384.29 158.68 354.74 175.75"/><polygon class="cls-27" points="354.73 137.32 384.29 154.38 384.29 158.68 354.73 141.62 354.73 137.32"/><polygon class="cls-28" points="354.74 141.62 325.18 158.68 325.18 154.38 354.73 137.32 354.74 141.62"/><polygon class="cls-29" points="354.74 171.44 325.18 154.38 354.73 137.32 384.29 154.38 354.74 171.44"/><polygon class="cls-21" points="354.74 161.2 342.92 154.38 354.73 147.56 366.55 154.38 354.74 161.2"/><polygon class="cls-21" points="354.73 148.19 366 154.69 366.55 154.38 354.73 147.56 342.92 154.38 343.47 154.69 354.73 148.19"/><polygon class="cls-30" points="354.74 171.44 354.74 175.75 384.29 158.68 384.29 154.38 354.74 171.44"/><polygon class="cls-31" points="325.18 154.38 325.18 158.68 354.74 175.75 354.74 171.44 325.18 154.38"/><polygon class="cls-24" points="354.74 170.97 325.58 154.15 325.18 154.38 354.74 171.44 384.29 154.38 383.88 154.15 354.74 170.97"/><polygon class="cls-14" points="277.81 108.32 209.52 68.89 277.81 29.46 346.11 68.89 277.81 108.32"/><polygon class="cls-32" points="277.81 104.77 215.67 68.89 277.81 33.01 339.96 68.89 277.81 104.77"/><path class="cls-3" d="M246.82,270.91a6.14,6.14,0,0,1-3-.81l-83.65-48.3a1.79,1.79,0,0,1,0-3.11l86.7-50.05,89.39,51.61L249.87,270.1A6.14,6.14,0,0,1,246.82,270.91Zm-2.72-1.38a5.5,5.5,0,0,0,5.44,0l85.35-49.28-88.07-50.86-86.37,49.87a1.11,1.11,0,0,0-.57,1,1.12,1.12,0,0,0,.57,1Z" transform="translate(30.99)"/><polygon class="cls-15" points="277.81 259.68 209.52 220.24 277.81 180.81 346.11 220.25 277.81 259.68"/><polygon class="cls-33" points="346.11 68.89 346.11 220.25 277.81 259.68 277.81 108.32 346.11 68.89"/><polygon class="cls-34" points="209.52 68.89 209.52 220.24 277.81 259.68 277.81 108.32 209.52 68.89"/><g class="cls-35"><polygon class="cls-36" points="214.14 78.93 214.14 214.97 273.19 249.06 273.19 113.02 214.14 78.93"/></g><polygon class="cls-36" points="335.86 105.46 335.86 109.46 288.06 137.06 288.06 133.06 335.86 105.46"/><polygon class="cls-36" points="335.86 122.37 335.86 126.37 288.06 153.97 288.06 149.97 335.86 122.37"/><polygon class="cls-36" points="335.86 139.29 335.86 143.29 288.06 170.89 288.06 166.89 335.86 139.29"/><polygon class="cls-36" points="335.86 156.2 335.86 160.21 288.06 187.81 288.06 183.81 335.86 156.2"/><polygon class="cls-36" points="335.86 173.12 335.86 177.12 288.06 204.72 288.06 200.72 335.86 173.12"/><polygon class="cls-36" points="335.86 190.03 335.86 194.04 288.06 221.64 288.06 217.64 335.86 190.03"/><polygon class="cls-15" points="277.81 107.04 210.63 68.25 209.52 68.89 277.81 108.32 346.11 68.89 345 68.25 277.81 107.04"/><g class="cls-35"><polygon class="cls-36" points="209.52 196.32 277.81 155.09 277.81 108.32 209.52 68.89 209.52 196.32"/></g><polygon class="cls-37" points="221.21 127.11 229.71 132.02 229.71 130.54 221.22 125.64 221.21 127.11"/><polygon class="cls-37" points="231.08 132.8 235.71 135.48 235.71 134 231.08 131.33 231.08 132.8"/><polygon class="cls-37" points="242.91 139.63 246.26 141.56 246.27 140.09 242.92 138.16 242.91 139.63"/><polygon class="cls-37" points="240.47 138.22 241.62 138.88 241.62 137.41 240.47 136.75 240.47 138.22"/><polygon class="cls-37" points="237.09 136.27 239.17 137.47 239.17 136 237.09 134.79 237.09 136.27"/><polygon class="cls-37" points="229.07 138.39 232.42 140.32 232.42 138.85 229.07 136.91 229.07 138.39"/><polygon class="cls-37" points="221.21 133.85 227.77 137.64 227.77 136.16 221.21 132.37 221.21 133.85"/><polygon class="cls-37" points="233.45 157.75 240.01 161.54 240.01 160.07 233.45 156.28 233.45 157.75"/><polygon class="cls-37" points="230.07 155.8 232.15 157 232.15 155.53 230.07 154.32 230.07 155.8"/><polygon class="cls-37" points="233.41 151 239.98 154.79 239.98 153.32 233.41 149.53 233.41 151"/><polygon class="cls-37" points="230.03 149.05 232.11 150.25 232.12 148.78 230.04 147.58 230.03 149.05"/><polygon class="cls-37" points="233.49 186.87 221.12 179.73 221.12 181.2 233.49 188.34 233.49 186.87"/><polygon class="cls-37" points="237.84 189.38 234.78 187.62 234.78 189.09 237.84 190.86 237.84 189.38"/><polygon class="cls-37" points="257.88 190.81 245.51 183.67 245.51 185.15 257.88 192.29 257.88 190.81"/><polygon class="cls-37" points="262.24 193.33 259.18 191.56 259.17 193.04 262.23 194.81 262.24 193.33"/><polygon class="cls-37" points="224.47 178.29 221.12 176.36 221.12 177.83 224.47 179.77 224.47 178.29"/><polygon class="cls-37" points="243.73 182.66 240.38 180.72 240.37 182.2 243.72 184.13 243.73 182.66"/><polygon class="cls-37" points="232.34 182.83 225.77 179.04 225.77 180.52 232.34 184.31 232.34 182.83"/><polygon class="cls-37" points="235.72 184.78 233.63 183.58 233.63 185.06 235.71 186.26 235.72 184.78"/><polygon class="cls-37" points="243.64 189.35 237.07 185.56 237.07 187.04 243.64 190.83 243.64 189.35"/><polygon class="cls-37" points="247.01 191.3 244.94 190.1 244.94 191.58 247.01 192.78 247.01 191.3"/><polygon class="cls-37" points="243.72 186.03 240.37 184.1 240.37 185.57 243.72 187.5 243.72 186.03"/><polygon class="cls-37" points="251.59 190.57 245.02 186.78 245.02 188.25 251.59 192.05 251.59 190.57"/><polygon class="cls-37" points="254.96 192.52 252.88 191.32 252.88 192.8 254.96 194 254.96 192.52"/><polygon class="cls-37" points="227.98 176.95 221.13 172.99 221.12 174.46 227.98 178.42 227.98 176.95"/><polygon class="cls-37" points="234.24 180.56 229.28 177.7 229.28 179.17 234.24 182.04 234.24 180.56"/><polygon class="cls-37" points="238.89 183.25 235.54 181.31 235.53 182.78 238.89 184.72 238.89 183.25"/><polygon class="cls-37" points="261.56 153.75 268.41 157.71 268.41 156.24 261.56 152.28 261.56 153.75"/><polygon class="cls-37" points="255.3 150.14 260.26 153 260.26 151.53 255.3 148.67 255.3 150.14"/><polygon class="cls-37" points="250.65 147.46 254 149.39 254 147.92 250.65 145.98 250.65 147.46"/><polygon class="cls-37" points="258.71 148.73 265.57 152.69 265.57 151.21 258.71 147.25 258.71 148.73"/><polygon class="cls-37" points="252.46 145.12 257.41 147.98 257.41 146.5 252.46 143.64 252.46 145.12"/><polygon class="cls-37" points="247.81 142.43 251.16 144.37 251.16 142.89 247.81 140.96 247.81 142.43"/><polygon class="cls-37" points="234.43 154.96 236.75 156.3 236.75 154.83 234.43 153.49 234.43 154.96"/><polygon class="cls-37" points="230.07 152.45 233.13 154.21 233.13 152.74 230.07 150.97 230.07 152.45"/><polygon class="cls-37" points="228.03 173.6 221.17 169.64 221.17 171.12 228.03 175.07 228.03 173.6"/><polygon class="cls-37" points="234.28 177.21 229.33 174.35 229.32 175.82 234.28 178.69 234.28 177.21"/><polygon class="cls-37" points="238.93 179.9 235.58 177.96 235.58 179.44 238.93 181.37 238.93 179.9"/><polygon class="cls-37" points="223.49 167.61 221.18 166.27 221.17 167.75 223.49 169.08 223.49 167.61"/><polygon class="cls-37" points="227.85 170.13 224.79 168.36 224.79 169.83 227.85 171.6 227.85 170.13"/><polygon class="cls-37" points="234.08 173.72 229.15 170.88 229.15 172.35 234.08 175.2 234.08 173.72"/><polygon class="cls-37" points="235.88 145.68 238.2 147.01 238.2 145.54 235.88 144.2 235.88 145.68"/><polygon class="cls-37" points="231.52 143.16 234.58 144.93 234.58 143.45 231.52 141.68 231.52 143.16"/><polygon class="cls-37" points="225.29 139.56 230.22 142.41 230.22 140.93 225.29 138.09 225.29 139.56"/><polygon class="cls-37" points="239.93 151.14 244.86 153.99 244.87 152.52 239.93 149.67 239.93 151.14"/><polygon class="cls-37" points="231.91 146.75 238.56 150.59 238.56 149.11 231.91 145.28 231.91 146.75"/><polygon class="cls-37" points="228.53 144.8 230.61 146 230.61 144.53 228.53 143.33 228.53 144.8"/><polygon class="cls-37" points="225.29 142.93 227.37 144.13 227.37 142.66 225.29 141.45 225.29 142.93"/><polygon class="cls-37" points="228.61 161.97 235.18 165.76 235.18 164.28 228.61 160.49 228.61 161.97"/><polygon class="cls-37" points="225.23 160.02 227.31 161.22 227.31 159.74 225.23 158.54 225.23 160.02"/><polygon class="cls-37" points="229.63 165.93 231.94 167.26 231.94 165.79 229.63 164.45 229.63 165.93"/><polygon class="cls-37" points="236.67 163.23 238.98 164.56 238.98 163.09 236.67 161.75 236.67 163.23"/><polygon class="cls-37" points="239.97 165.13 245.52 168.34 245.53 166.86 239.97 163.66 239.97 165.13"/><polygon class="cls-37" points="246.51 168.9 249.81 170.81 249.81 169.34 246.51 167.43 246.51 168.9"/><polygon class="cls-37" points="225.27 163.41 228.33 165.18 228.33 163.7 225.27 161.94 225.27 163.41"/><polygon class="cls-37" points="225.54 166.87 227.85 168.21 227.85 166.74 225.54 165.4 225.54 166.87"/><polygon class="cls-37" points="221.18 164.36 224.24 166.12 224.24 164.65 221.18 162.88 221.18 164.36"/><polygon class="cls-37" points="233.31 161.29 235.39 162.49 235.39 161.01 233.31 159.81 233.31 161.29"/><polygon class="cls-37" points="230.07 159.42 232.15 160.62 232.15 159.14 230.07 157.94 230.07 159.42"/><polygon class="cls-37" points="242.03 142.48 249.13 146.58 249.13 145.1 242.03 141.01 242.03 142.48"/><polygon class="cls-37" points="234.09 137.9 240.74 141.73 240.74 140.26 234.09 136.42 234.09 137.9"/><polygon class="cls-37" points="230.71 135.95 232.79 137.15 232.79 135.67 230.71 134.47 230.71 135.95"/><polygon class="cls-37" points="227.47 134.07 229.55 135.28 229.55 133.8 227.47 132.6 227.47 134.07"/><polygon class="cls-37" points="225.7 133.05 221.21 130.46 221.21 128.99 225.7 131.58 225.7 133.05"/><polygon class="cls-14" points="277.81 78.86 209.52 39.43 277.81 0 346.11 39.43 277.81 78.86"/><polygon class="cls-36" points="277.81 68.09 228.16 39.43 277.81 10.77 327.46 39.43 277.81 68.09"/><polygon class="cls-15" points="277.81 12.71 325.78 40.4 327.46 39.43 277.81 10.77 228.16 39.43 229.85 40.4 277.81 12.71"/><polygon class="cls-38" points="346.11 39.43 346.11 61.78 277.81 101.21 277.81 78.86 346.11 39.43"/><polygon class="cls-34" points="209.52 39.43 209.52 61.78 277.81 101.21 277.81 78.86 209.52 39.43"/><g class="cls-35"><polygon class="cls-36" points="214.14 49.47 214.14 56.51 273.19 90.6 273.19 83.56 214.14 49.47"/></g><polygon class="cls-15" points="277.81 77.58 210.63 38.79 209.52 39.43 277.81 78.86 346.11 39.43 345 38.79 277.81 77.58"/><polygon class="cls-36" points="335.86 55.09 335.86 59.09 288.06 86.69 288.06 82.69 335.86 55.09"/><polygon class="cls-39" points="209.52 39.43 209.52 61.78 277.81 101.21 277.81 78.86 209.52 39.43"/><polygon class="cls-37" points="257.88 77.67 245.51 70.53 245.51 72.01 257.88 79.15 257.88 77.67"/><polygon class="cls-37" points="243.73 69.52 240.38 67.58 240.37 69.06 243.72 70.99 243.73 69.52"/><polygon class="cls-37" points="228.03 60.46 221.17 56.5 221.17 57.97 228.03 61.93 228.03 60.46"/><polygon class="cls-37" points="234.28 64.07 229.33 61.21 229.32 62.68 234.28 65.55 234.28 64.07"/><polygon class="cls-37" points="238.93 66.75 235.58 64.82 235.58 66.29 238.93 68.23 238.93 66.75"/><polygon class="cls-37" points="277.88 20.61 275.71 19.36 277.88 18.1 280.05 19.36 277.88 20.61"/><polygon class="cls-40" points="282.22 23.11 280.05 21.86 282.22 20.61 284.39 21.86 282.22 23.11"/><polygon class="cls-41" points="286.56 25.62 284.39 24.36 286.56 23.11 288.73 24.36 286.56 25.62"/><polygon class="cls-37" points="290.89 28.12 288.73 26.87 290.89 25.62 293.06 26.87 290.89 28.12"/><polygon class="cls-41" points="295.23 30.63 293.06 29.37 295.23 28.12 297.4 29.37 295.23 30.63"/><polygon class="cls-37" points="299.57 33.13 297.4 31.88 299.57 30.63 301.74 31.88 299.57 33.13"/><polygon class="cls-37" points="303.91 35.63 301.74 34.38 303.91 33.13 306.07 34.38 303.91 35.63"/><polygon class="cls-37" points="308.24 38.14 306.07 36.89 308.24 35.63 310.41 36.89 308.24 38.14"/><polygon class="cls-40" points="312.58 40.64 310.41 39.39 312.58 38.14 314.75 39.39 312.58 40.64"/><polygon class="cls-37" points="273.53 23.12 271.36 21.87 273.53 20.62 275.7 21.87 273.53 23.12"/><polygon class="cls-37" points="277.87 25.63 275.7 24.38 277.87 23.12 280.03 24.38 277.87 25.63"/><polygon class="cls-37" points="282.2 28.13 280.03 26.88 282.2 25.63 284.37 26.88 282.2 28.13"/><polygon class="cls-37" points="286.54 30.64 284.37 29.38 286.54 28.13 288.71 29.38 286.54 30.64"/><polygon class="cls-37" points="290.88 33.14 288.71 31.89 290.88 30.64 293.05 31.89 290.88 33.14"/><polygon class="cls-37" points="295.21 35.64 293.05 34.39 295.21 33.14 297.38 34.39 295.21 35.64"/><polygon class="cls-37" points="299.55 38.15 297.38 36.9 299.55 35.64 301.72 36.9 299.55 38.15"/><polygon class="cls-37" points="303.89 40.65 301.72 39.4 303.89 38.15 306.06 39.4 303.89 40.65"/><polygon class="cls-37" points="308.23 43.16 306.06 41.9 308.23 40.65 310.39 41.9 308.23 43.16"/><polygon class="cls-37" points="269.17 25.64 267 24.39 269.17 23.13 271.34 24.39 269.17 25.64"/><polygon class="cls-37" points="273.51 28.14 271.34 26.89 273.51 25.64 275.68 26.89 273.51 28.14"/><polygon class="cls-37" points="277.85 30.64 275.68 29.39 277.85 28.14 280.02 29.39 277.85 30.64"/><polygon class="cls-40" points="282.19 33.15 280.02 31.9 282.19 30.64 284.35 31.9 282.19 33.15"/><polygon class="cls-41" points="286.52 35.65 284.35 34.4 286.52 33.15 288.69 34.4 286.52 35.65"/><polygon class="cls-41" points="290.86 38.16 288.69 36.91 290.86 35.65 293.03 36.91 290.86 38.16"/><polygon class="cls-37" points="295.2 40.66 293.03 39.41 295.2 38.16 297.37 39.41 295.2 40.66"/><polygon class="cls-37" points="299.53 43.17 297.37 41.91 299.53 40.66 301.7 41.91 299.53 43.17"/><polygon class="cls-37" points="303.87 45.67 301.7 44.42 303.87 43.17 306.04 44.42 303.87 45.67"/><polygon class="cls-41" points="264.82 28.15 262.65 26.9 264.82 25.65 266.99 26.9 264.82 28.15"/><polygon class="cls-41" points="269.15 30.66 266.99 29.4 269.15 28.15 271.32 29.4 269.15 30.66"/><polygon class="cls-40" points="273.49 33.16 271.32 31.91 273.49 30.66 275.66 31.91 273.49 33.16"/><polygon class="cls-37" points="277.83 35.66 275.66 34.41 277.83 33.16 280 34.41 277.83 35.66"/><polygon class="cls-37" points="282.17 38.17 280 36.92 282.17 35.66 284.34 36.92 282.17 38.17"/><polygon class="cls-37" points="286.5 40.67 284.34 39.42 286.5 38.17 288.67 39.42 286.5 40.67"/><polygon class="cls-41" points="290.84 43.18 288.67 41.92 290.84 40.67 293.01 41.92 290.84 43.18"/><polygon class="cls-37" points="295.18 45.68 293.01 44.43 295.18 43.18 297.35 44.43 295.18 45.68"/><polygon class="cls-37" points="299.52 48.19 297.35 46.93 299.52 45.68 301.69 46.93 299.52 48.19"/><polygon class="cls-37" points="260.46 30.67 258.29 29.41 260.46 28.16 262.63 29.41 260.46 30.67"/><polygon class="cls-37" points="264.8 33.17 262.63 31.92 264.8 30.67 266.97 31.92 264.8 33.17"/><polygon class="cls-37" points="269.14 35.67 266.97 34.42 269.14 33.17 271.31 34.42 269.14 35.67"/><polygon class="cls-37" points="273.48 38.18 271.31 36.93 273.48 35.67 275.64 36.93 273.48 38.18"/><polygon class="cls-37" points="277.81 40.68 275.64 39.43 277.81 38.18 279.98 39.43 277.81 40.68"/><polygon class="cls-37" points="282.15 43.19 279.98 41.94 282.15 40.68 284.32 41.94 282.15 43.19"/><polygon class="cls-37" points="286.49 45.69 284.32 44.44 286.49 43.19 288.66 44.44 286.49 45.69"/><polygon class="cls-37" points="290.82 48.2 288.66 46.94 290.82 45.69 292.99 46.94 290.82 48.2"/><polygon class="cls-37" points="295.16 50.7 292.99 49.45 295.16 48.2 297.33 49.45 295.16 50.7"/><polygon class="cls-37" points="256.11 33.18 253.94 31.93 256.11 30.68 258.28 31.93 256.11 33.18"/><polygon class="cls-37" points="260.44 35.68 258.28 34.43 260.44 33.18 262.61 34.43 260.44 35.68"/><polygon class="cls-41" points="264.78 38.19 262.61 36.94 264.78 35.68 266.95 36.94 264.78 38.19"/><polygon class="cls-37" points="269.12 40.69 266.95 39.44 269.12 38.19 271.29 39.44 269.12 40.69"/><polygon class="cls-40" points="273.46 43.2 271.29 41.95 273.46 40.69 275.63 41.95 273.46 43.2"/><polygon class="cls-37" points="277.8 45.7 275.63 44.45 277.8 43.2 279.96 44.45 277.8 45.7"/><polygon class="cls-37" points="282.13 48.2 279.96 46.95 282.13 45.7 284.3 46.95 282.13 48.2"/><polygon class="cls-37" points="286.47 50.71 284.3 49.46 286.47 48.2 288.64 49.46 286.47 50.71"/><polygon class="cls-37" points="290.81 53.21 288.64 51.96 290.81 50.71 292.98 51.96 290.81 53.21"/><polygon class="cls-37" points="251.75 35.69 249.58 34.44 251.75 33.19 253.92 34.44 251.75 35.69"/><polygon class="cls-37" points="256.09 38.2 253.92 36.95 256.09 35.69 258.26 36.95 256.09 38.2"/><polygon class="cls-41" points="260.43 40.7 258.26 39.45 260.43 38.2 262.6 39.45 260.43 40.7"/><polygon class="cls-37" points="264.76 43.21 262.6 41.95 264.76 40.7 266.93 41.95 264.76 43.21"/><polygon class="cls-37" points="269.1 45.71 266.93 44.46 269.1 43.21 271.27 44.46 269.1 45.71"/><polygon class="cls-40" points="273.44 48.22 271.27 46.96 273.44 45.71 275.61 46.96 273.44 48.22"/><polygon class="cls-41" points="277.78 50.72 275.61 49.47 277.78 48.22 279.95 49.47 277.78 50.72"/><polygon class="cls-37" points="282.12 53.22 279.95 51.97 282.11 50.72 284.28 51.97 282.12 53.22"/><polygon class="cls-40" points="286.45 55.73 284.28 54.48 286.45 53.22 288.62 54.48 286.45 55.73"/><polygon class="cls-37" points="247.4 38.21 245.23 36.96 247.4 35.7 249.57 36.96 247.4 38.21"/><polygon class="cls-41" points="251.74 40.71 249.57 39.46 251.74 38.21 253.9 39.46 251.74 40.71"/><polygon class="cls-37" points="256.07 43.22 253.9 41.97 256.07 40.71 258.24 41.97 256.07 43.22"/><polygon class="cls-37" points="260.41 45.72 258.24 44.47 260.41 43.22 262.58 44.47 260.41 45.72"/><polygon class="cls-37" points="264.75 48.23 262.58 46.97 264.75 45.72 266.92 46.97 264.75 48.23"/><polygon class="cls-37" points="269.08 50.73 266.92 49.48 269.08 48.23 271.25 49.48 269.08 50.73"/><polygon class="cls-37" points="273.42 53.23 271.25 51.98 273.42 50.73 275.59 51.98 273.42 53.23"/><polygon class="cls-41" points="277.76 55.74 275.59 54.49 277.76 53.23 279.93 54.49 277.76 55.74"/><polygon class="cls-37" points="282.1 58.24 279.93 56.99 282.1 55.74 284.27 56.99 282.1 58.24"/><polygon class="cls-37" points="243.04 40.72 240.88 39.47 243.04 38.22 245.21 39.47 243.04 40.72"/><polygon class="cls-40" points="247.38 43.23 245.21 41.98 247.38 40.72 249.55 41.98 247.38 43.23"/><polygon class="cls-37" points="251.72 45.73 249.55 44.48 251.72 43.23 253.89 44.48 251.72 45.73"/><polygon class="cls-37" points="256.06 48.23 253.89 46.98 256.06 45.73 258.22 46.98 256.06 48.23"/><polygon class="cls-37" points="260.39 50.74 258.22 49.49 260.39 48.23 262.56 49.49 260.39 50.74"/><polygon class="cls-37" points="264.73 53.24 262.56 51.99 264.73 50.74 266.9 51.99 264.73 53.24"/><polygon class="cls-41" points="269.07 55.75 266.9 54.5 269.07 53.24 271.24 54.5 269.07 55.75"/><polygon class="cls-37" points="273.4 58.25 271.24 57 273.4 55.75 275.57 57 273.4 58.25"/><polygon class="cls-37" points="277.74 60.76 275.57 59.5 277.74 58.25 279.91 59.5 277.74 60.76"/><path class="cls-3" d="M51.23,225.36a5.92,5.92,0,0,1-3-.79L13.92,204.74a1.67,1.67,0,0,1-.86-1.48,1.7,1.7,0,0,1,.86-1.48l62.29-36,.45.26,36.87,21.28a1.71,1.71,0,0,1,0,3L54.2,224.57A6,6,0,0,1,51.23,225.36Zm25-58.78-62,35.77a1.07,1.07,0,0,0,0,1.83L48.58,224a5.38,5.38,0,0,0,5.3,0l59.32-34.25a1.06,1.06,0,0,0,0-1.82Z" transform="translate(30.99)"/><path class="cls-42" d="M76.29,152,68,103l.67-.28-1-.57h0a.73.73,0,0,0-.77.06l-66,38.13A1.9,1.9,0,0,0,0,142l8.33,49.42a.64.64,0,0,0,.35.51h0l1,.56.17-.91-.06,0,65.65-37.91A1.87,1.87,0,0,0,76.29,152Z" transform="translate(30.99)"/><path class="cls-43" d="M1.24,141.69l-1.09-.48A1.54,1.54,0,0,0,0,142l8.33,49.42a.64.64,0,0,0,.35.51h0l1,.56.17-.91-.06,0,3.32-1.92Z" transform="translate(30.99)"/><path class="cls-34" d="M76.47,154.32l-66,38.13c-.51.3-.95.13-1-.4L1.05,142.62A1.85,1.85,0,0,1,1.91,141L68,102.81c.51-.29,1-.12,1,.41l8.34,49.42A1.9,1.9,0,0,1,76.47,154.32Z" transform="translate(30.99)"/><g class="cls-35"><polygon class="cls-36" points="98.09 105.97 34.42 142.73 42.32 189.27 105.94 152.54 98.09 105.97"/></g><path class="cls-44" d="M118,177.72l-3.61,1.88L78.24,158.73a2.6,2.6,0,0,0-2.36.1l-62.34,36c-.6-.33-3.32-1.64-3.32-1.64l1.32,3.44h0a.76.76,0,0,0,.37.41L50,219a2.63,2.63,0,0,0,2.36-.1l63.8-36.83a1.18,1.18,0,0,0,.53-.57h0Z" transform="translate(30.99)"/><path class="cls-45" d="M117.43,178.31,52.05,216.05a2.66,2.66,0,0,1-2.42.1l-39-22.52c-.62-.36-.54-1,.17-1.4l65.38-37.74a2.66,2.66,0,0,1,2.42-.1l39,22.52C118.22,177.27,118.15,177.89,117.43,178.31Z" transform="translate(30.99)"/><path class="cls-15" d="M117.43,177.93,52.05,215.68a2.69,2.69,0,0,1-2.42.1l-39-22.53a.76.76,0,0,1-.38-.42.66.66,0,0,0,.38.8l39,22.52a2.66,2.66,0,0,0,2.42-.1l65.38-37.74c.48-.28.67-.65.55-1A1.11,1.11,0,0,1,117.43,177.93Z" transform="translate(30.99)"/><path class="cls-46" d="M32.33,207.89v-.72c0-.07,0-.1.09-.07L35,208.56a.23.23,0,0,1,.09.18v.72c0,.06,0,.1-.09.07l-2.53-1.46A.23.23,0,0,1,32.33,207.89Z" transform="translate(30.99)"/><path class="cls-46" d="M36.11,210.07v-.71c0-.07,0-.1.09-.07l2.53,1.46a.22.22,0,0,1,.1.17v.72c0,.07,0,.1-.1.07l-2.53-1.46A.23.23,0,0,1,36.11,210.07Z" transform="translate(30.99)"/><path class="cls-47" d="M20.79,191.52l54.33-31.37a1.17,1.17,0,0,1,1.17,0l19.35,11.2a.41.41,0,0,1,0,.72L41.33,203.42a1.17,1.17,0,0,1-1.17,0L20.79,192.24A.41.41,0,0,1,20.79,191.52Z" transform="translate(30.99)"/><path class="cls-48" d="M20.79,192.24l.19.11L75.12,161.1a1.17,1.17,0,0,1,1.17,0l19.15,11.08.2-.11a.41.41,0,0,0,0-.72l-19.35-11.2a1.17,1.17,0,0,0-1.17,0L20.79,191.52A.41.41,0,0,0,20.79,192.24Z" transform="translate(30.99)"/><polygon class="cls-34" points="108.75 162.99 61.55 190.24 59.45 189.02 106.65 161.78 108.75 162.99"/><polygon class="cls-34" points="113.89 165.96 69.62 191.51 67.53 190.3 111.79 164.75 113.89 165.96"/><polygon class="cls-34" points="117.24 167.89 65.12 197.98 63.02 196.77 115.14 166.68 117.24 167.89"/><polygon class="cls-34" points="120.59 169.83 68.47 199.92 66.37 198.71 118.49 168.62 120.59 169.83"/><polygon class="cls-34" points="123.94 171.76 71.82 201.85 69.72 200.64 121.84 170.55 123.94 171.76"/><polygon class="cls-34" points="58.7 191.88 56.6 193.09 54.5 191.88 56.6 190.67 58.7 191.88"/><polygon class="cls-34" points="66.1 193.55 61.75 196.06 59.65 194.85 64 192.34 66.1 193.55"/><path class="cls-49" d="M77.21,199.11l14.65-8.46a.63.63,0,0,0,0-1.19l-10-5.79a2.29,2.29,0,0,0-2.07,0l-14.65,8.46a.63.63,0,0,0,0,1.2l10,5.78A2.29,2.29,0,0,0,77.21,199.11Z" transform="translate(30.99)"/><path class="cls-48" d="M65.12,192.62l14.65-8.46a2.29,2.29,0,0,1,2.07,0l10,5.79a.87.87,0,0,1,.36.35c.15-.29,0-.62-.36-.84l-10-5.79a2.29,2.29,0,0,0-2.07,0l-14.65,8.46c-.39.23-.51.55-.36.84A.87.87,0,0,1,65.12,192.62Z" transform="translate(30.99)"/><g class="cls-50"><g class="cls-51"><path class="cls-52" d="M76.24,154.41,10.86,192.16a2.73,2.73,0,0,1-2.42.1l-39-22.53c-.62-.36-.54-1,.18-1.39L35,130.59a2.69,2.69,0,0,1,2.42-.1l39,22.52C77,153.37,77,154,76.24,154.41Z" transform="translate(30.99)"/><path class="cls-53" d="M10.66,161.18l14.65-8.46a.63.63,0,0,0,0-1.2l-10-5.78a2.29,2.29,0,0,0-2.07,0L-1.43,154.2a.63.63,0,0,0,0,1.19l10,5.79A2.29,2.29,0,0,0,10.66,161.18Z" transform="translate(30.99)"/><path class="cls-48" d="M-1.43,154.69l14.65-8.46a2.29,2.29,0,0,1,2.07,0l10,5.78a.89.89,0,0,1,.36.36c.15-.29,0-.62-.36-.85l-10-5.78a2.29,2.29,0,0,0-2.07,0L-1.43,154.2c-.4.22-.51.55-.36.84A.87.87,0,0,1-1.43,154.69Z" transform="translate(30.99)"/><path class="cls-47" d="M-7.87,174.39,46.46,143a1.17,1.17,0,0,1,1.17,0L67,154.22a.41.41,0,0,1,0,.72L12.67,186.3a1.17,1.17,0,0,1-1.17,0L-7.87,175.12A.42.42,0,0,1-7.87,174.39Z" transform="translate(30.99)"/><path class="cls-48" d="M-7.87,175.12l.2.11L46.46,144a1.19,1.19,0,0,1,1.17,0l19.15,11.09.2-.12a.41.41,0,0,0,0-.72L47.63,143a1.17,1.17,0,0,0-1.17,0L-7.87,174.39A.42.42,0,0,0-7.87,175.12Z" transform="translate(30.99)"/><polygon class="cls-34" points="92.91 153.46 45.58 180.78 47.45 181.87 94.78 154.54 92.91 153.46"/><polygon class="cls-34" points="87.92 150.58 42.94 176.55 44.81 177.63 89.8 151.66 87.92 150.58"/><polygon class="cls-34" points="39.58 178.49 35.37 180.92 37.25 182 41.45 179.57 39.58 178.49"/><polygon class="cls-34" points="43.29 182.11 40.36 183.8 42.24 184.88 45.16 183.19 43.29 182.11"/><polygon class="cls-34" points="84.8 148.77 32.25 179.11 34.12 180.19 86.67 149.86 84.8 148.77"/><polygon class="cls-34" points="81.67 146.97 29.13 177.31 31 178.39 83.55 148.05 81.67 146.97"/><polygon class="cls-34" points="78.55 145.17 26 175.5 27.88 176.59 80.42 146.25 78.55 145.17"/></g></g><polygon class="cls-37" points="93.49 117.64 38.22 149.08 38.81 152.45 94.08 120.44 93.49 117.64"/><polygon class="cls-37" points="98.15 115.2 95.9 116.38 96.4 119.32 98.64 118.02 98.15 115.2"/><polygon class="cls-37" points="86.43 133.68 40.1 160.5 39.56 157.2 85.84 130.87 86.43 133.68"/><polygon class="cls-37" points="90.5 128.43 88.25 129.62 88.75 132.55 90.99 131.26 90.5 128.43"/><path class="cls-3" d="M439.18,225.36a6,6,0,0,1-3-.79l-59.32-34.25a1.71,1.71,0,0,1,0-3l37.32-21.54.16.09,62.13,35.87a1.7,1.7,0,0,1,.86,1.48,1.67,1.67,0,0,1-.86,1.48l-34.34,19.83A6,6,0,0,1,439.18,225.36ZM436.53,224a5.36,5.36,0,0,0,5.29,0l34.34-19.82a1.05,1.05,0,0,0,0-1.83l-62-35.77-.12.07-36.86,21.28a1,1,0,0,0,0,1.82Z" transform="translate(30.99)"/><path class="cls-54" d="M414.12,152l8.26-49-.66-.28,1-.57h0a.73.73,0,0,1,.77.06l66.05,38.13a1.87,1.87,0,0,1,.85,1.68l-8.33,49.42a.64.64,0,0,1-.34.51h0l-1,.56-.17-.91.06,0L415,153.72A1.83,1.83,0,0,1,414.12,152Z" transform="translate(30.99)"/><path class="cls-55" d="M489.17,141.69l1.08-.48a1.37,1.37,0,0,1,.14.82l-8.33,49.42a.64.64,0,0,1-.34.51h0l-1,.56-.17-.91.06,0-3.32-1.92Z" transform="translate(30.99)"/><path class="cls-34" d="M413.94,154.32,480,192.45c.51.3.95.13,1-.4l8.33-49.43a1.87,1.87,0,0,0-.86-1.67l-66.05-38.14c-.51-.29-.95-.12-1,.41l-8.33,49.42A1.9,1.9,0,0,0,413.94,154.32Z" transform="translate(30.99)"/><g class="cls-35"><polygon class="cls-36" points="454.31 105.97 517.97 142.73 510.08 189.27 446.45 152.54 454.31 105.97"/></g><path class="cls-56" d="M372.42,177.72l3.6,1.88,36.15-20.87a2.6,2.6,0,0,1,2.36.1l62.34,36c.59-.33,3.31-1.64,3.31-1.64l-1.31,3.44h0a.76.76,0,0,1-.37.41l-38.07,22a2.63,2.63,0,0,1-2.36-.1l-63.79-36.83a1.13,1.13,0,0,1-.53-.57h0Z" transform="translate(30.99)"/><path class="cls-57" d="M373,178.31l65.38,37.74a2.64,2.64,0,0,0,2.41.1l39-22.52c.62-.36.54-1-.17-1.4l-65.38-37.74a2.66,2.66,0,0,0-2.42-.1l-39,22.52C372.18,177.27,372.26,177.89,373,178.31Z" transform="translate(30.99)"/><path class="cls-15" d="M373,177.93l65.38,37.75a2.67,2.67,0,0,0,2.41.1l39-22.53a.8.8,0,0,0,.38-.42.66.66,0,0,1-.38.8l-39,22.52a2.64,2.64,0,0,1-2.41-.1L373,178.31c-.48-.28-.67-.65-.56-1A1.18,1.18,0,0,0,373,177.93Z" transform="translate(30.99)"/><path class="cls-46" d="M458.08,207.89v-.72c0-.07,0-.1-.1-.07l-2.52,1.46a.21.21,0,0,0-.1.18v.72c0,.06,0,.1.1.07l2.52-1.46A.21.21,0,0,0,458.08,207.89Z" transform="translate(30.99)"/><path class="cls-46" d="M454.3,210.07v-.71c0-.07-.05-.1-.1-.07l-2.53,1.46a.21.21,0,0,0-.09.17v.72c0,.07,0,.1.09.07l2.53-1.46A.24.24,0,0,0,454.3,210.07Z" transform="translate(30.99)"/><path class="cls-47" d="M469.62,191.52l-54.33-31.37a1.17,1.17,0,0,0-1.17,0l-19.35,11.2a.41.41,0,0,0,0,.72l54.31,31.35a1.15,1.15,0,0,0,1.16,0l19.38-11.18A.41.41,0,0,0,469.62,191.52Z" transform="translate(30.99)"/><path class="cls-48" d="M469.62,192.24l-.2.11L415.29,161.1a1.17,1.17,0,0,0-1.17,0L395,172.18l-.19-.11a.41.41,0,0,1,0-.72l19.35-11.2a1.17,1.17,0,0,1,1.17,0l54.33,31.37A.41.41,0,0,1,469.62,192.24Z" transform="translate(30.99)"/><polygon class="cls-34" points="443.65 162.99 490.84 190.24 492.94 189.02 445.75 161.78 443.65 162.99"/><polygon class="cls-34" points="438.51 165.96 482.77 191.51 484.87 190.3 440.61 164.75 438.51 165.96"/><polygon class="cls-34" points="435.16 167.89 487.27 197.98 489.37 196.77 437.25 166.68 435.16 167.89"/><polygon class="cls-34" points="431.81 169.83 483.92 199.92 486.02 198.71 433.9 168.62 431.81 169.83"/><polygon class="cls-34" points="428.45 171.76 480.57 201.85 482.67 200.64 430.55 170.55 428.45 171.76"/><polygon class="cls-34" points="493.7 191.88 495.79 193.09 497.89 191.88 495.79 190.67 493.7 191.88"/><polygon class="cls-34" points="486.3 193.55 490.65 196.06 492.75 194.85 488.39 192.34 486.3 193.55"/><path class="cls-58" d="M413.2,199.11l-14.65-8.46c-.58-.33-.58-.86,0-1.19l10-5.79a2.31,2.31,0,0,1,2.08,0l14.65,8.46a.63.63,0,0,1,0,1.2l-10,5.78A2.29,2.29,0,0,1,413.2,199.11Z" transform="translate(30.99)"/><path class="cls-48" d="M425.29,192.62l-14.65-8.46a2.31,2.31,0,0,0-2.08,0l-10,5.79a.81.81,0,0,0-.36.35c-.16-.29,0-.62.36-.84l10-5.79a2.31,2.31,0,0,1,2.08,0l14.65,8.46c.39.23.51.55.36.84A.93.93,0,0,0,425.29,192.62Z" transform="translate(30.99)"/><g class="cls-50"><g class="cls-59"><path class="cls-60" d="M414.17,154.41l65.38,37.75a2.73,2.73,0,0,0,2.42.1l39-22.53c.62-.36.55-1-.17-1.39l-65.38-37.75a2.7,2.7,0,0,0-2.42-.1L414,153C413.38,153.37,413.46,154,414.17,154.41Z" transform="translate(30.99)"/><path class="cls-61" d="M479.75,161.18l-14.65-8.46a.63.63,0,0,1,0-1.2l10-5.78a2.31,2.31,0,0,1,2.08,0l14.65,8.46a.63.63,0,0,1,0,1.19l-10,5.79A2.29,2.29,0,0,1,479.75,161.18Z" transform="translate(30.99)"/><path class="cls-48" d="M491.84,154.69l-14.65-8.46a2.31,2.31,0,0,0-2.08,0l-10,5.78a.83.83,0,0,0-.36.36c-.16-.29,0-.62.36-.85l10-5.78a2.31,2.31,0,0,1,2.08,0l14.65,8.46c.39.22.51.55.36.84A.93.93,0,0,0,491.84,154.69Z" transform="translate(30.99)"/><path class="cls-47" d="M498.28,174.39,444,143a1.17,1.17,0,0,0-1.17,0l-19.35,11.19a.41.41,0,0,0,0,.72l54.3,31.36a1.17,1.17,0,0,0,1.17,0l19.38-11.18A.43.43,0,0,0,498.28,174.39Z" transform="translate(30.99)"/><path class="cls-48" d="M498.28,175.12l-.2.11L444,144a1.19,1.19,0,0,0-1.17,0l-19.16,11.09-.19-.12a.41.41,0,0,1,0-.72L442.78,143a1.17,1.17,0,0,1,1.17,0l54.33,31.36A.43.43,0,0,1,498.28,175.12Z" transform="translate(30.99)"/><polygon class="cls-34" points="459.49 153.46 506.82 180.78 504.94 181.87 457.61 154.54 459.49 153.46"/><polygon class="cls-34" points="464.47 150.58 509.46 176.55 507.59 177.63 462.6 151.66 464.47 150.58"/><polygon class="cls-34" points="512.82 178.49 517.02 180.92 515.15 182 510.94 179.57 512.82 178.49"/><polygon class="cls-34" points="509.11 182.11 512.03 183.8 510.16 184.88 507.23 183.19 509.11 182.11"/><polygon class="cls-34" points="467.6 148.77 520.15 179.11 518.27 180.19 465.72 149.86 467.6 148.77"/><polygon class="cls-34" points="470.72 146.97 523.27 177.31 521.4 178.39 468.85 148.05 470.72 146.97"/><polygon class="cls-34" points="473.85 145.17 526.4 175.5 524.52 176.59 471.97 146.25 473.85 145.17"/></g></g><path class="cls-3" d="M161.57,268.89a4.9,4.9,0,0,1-2.49-.67L85,225.44a1.58,1.58,0,0,1,0-2.74l65.13-37.6.33.57L85.3,223.27a.91.91,0,0,0-.46.8.9.9,0,0,0,.46.8l74.1,42.79a4.35,4.35,0,0,0,4.33,0l38.4-22.18.33.57-38.4,22.17A4.93,4.93,0,0,1,161.57,268.89Z" transform="translate(30.99)"/><circle class="cls-62" cx="122.39" cy="246.56" r="9.38" transform="translate(-56.01 67.88) rotate(-23.13)"/><path class="cls-63" d="M124.59,245.28a2.55,2.55,0,1,0-.91,3.48A2.55,2.55,0,0,0,124.59,245.28Z" transform="translate(30.99)"/><circle class="cls-64" cx="188.95" cy="253.06" r="9.38" transform="translate(-53.22 94.55) rotate(-23.13)"/><path class="cls-65" d="M191.16,251.78a2.55,2.55,0,1,0-.92,3.48A2.55,2.55,0,0,0,191.16,251.78Z" transform="translate(30.99)"/><circle class="cls-66" cx="303.14" cy="252.31" r="9.38" transform="translate(-43.74 139.34) rotate(-23.13)"/><path class="cls-67" d="M305.34,251a2.55,2.55,0,1,0-.91,3.48A2.55,2.55,0,0,0,305.34,251Z" transform="translate(30.99)"/><path class="cls-68" d="M323.51,254.77a9.38,9.38,0,1,0-3.37,12.82A9.38,9.38,0,0,0,323.51,254.77Z" transform="translate(30.99)"/><circle class="cls-69" cx="346.41" cy="259.5" r="2.55"/><circle class="cls-70" cx="382.33" cy="240.12" r="9.38" transform="translate(-35.62 192.32) rotate(-26.05)"/><path class="cls-71" d="M384.53,238.84a2.55,2.55,0,1,0-.92,3.48A2.55,2.55,0,0,0,384.53,238.84Z" transform="translate(30.99)"/><path class="cls-72" d="M406.21,212.22a9.38,9.38,0,1,0-3.36,12.83A9.37,9.37,0,0,0,406.21,212.22Z" transform="translate(30.99)"/><path class="cls-73" d="M400.32,215.67a2.55,2.55,0,1,0-.92,3.49A2.55,2.55,0,0,0,400.32,215.67Z" transform="translate(30.99)"/><path class="cls-74" d="M391.77,203.71a9.37,9.37,0,1,0-3.36,12.82A9.36,9.36,0,0,0,391.77,203.71Z" transform="translate(30.99)"/><path class="cls-75" d="M385.88,207.15a2.55,2.55,0,1,0-.91,3.49A2.56,2.56,0,0,0,385.88,207.15Z" transform="translate(30.99)"/><path class="cls-76" d="M377.34,195.78A9.38,9.38,0,1,0,374,208.61,9.38,9.38,0,0,0,377.34,195.78Z" transform="translate(30.99)"/><path class="cls-77" d="M371.44,199.23a2.55,2.55,0,1,0-.91,3.49A2.56,2.56,0,0,0,371.44,199.23Z" transform="translate(30.99)"/><path class="cls-78" d="M118.82,235a9.38,9.38,0,1,0-3.36,12.83A9.38,9.38,0,0,0,118.82,235Z" transform="translate(30.99)"/><circle class="cls-79" cx="141.72" cy="239.77" r="2.55"/><circle class="cls-80" cx="99.06" cy="232.98" r="9.38" transform="translate(-120.43 269.72) rotate(-75.31)"/><path class="cls-81" d="M101.26,231.7a2.55,2.55,0,1,0-.91,3.48A2.55,2.55,0,0,0,101.26,231.7Z" transform="translate(30.99)"/><path class="cls-82" d="M135.49,193.25a9.37,9.37,0,1,0-3.36,12.83A9.37,9.37,0,0,0,135.49,193.25Z" transform="translate(30.99)"/><path class="cls-83" d="M129.6,196.7a2.55,2.55,0,1,0-.91,3.48A2.55,2.55,0,0,0,129.6,196.7Z" transform="translate(30.99)"/><path class="cls-84" d="M148,186.7a9.38,9.38,0,1,0-3.37,12.82A9.38,9.38,0,0,0,148,186.7Z" transform="translate(30.99)"/><path class="cls-85" d="M142.06,190.14a2.55,2.55,0,1,0-.91,3.49A2.56,2.56,0,0,0,142.06,190.14Z" transform="translate(30.99)"/></g></g></g></svg>