<svg xmlns="http://www.w3.org/2000/svg" xmlns:xlink="http://www.w3.org/1999/xlink" width="67" height="53.578" viewBox="0 0 67 53.578">
  <defs>
    <filter id="Rectangle_136" x="0" y="5.578" width="62" height="48" filterUnits="userSpaceOnUse">
      <feOffset dy="3" input="SourceAlpha"/>
      <feGaussianBlur stdDeviation="3" result="blur"/>
      <feFlood flood-color="#2f60ec" flood-opacity="0.502"/>
      <feComposite operator="in" in2="blur"/>
      <feComposite in="SourceGraphic"/>
    </filter>
  </defs>
  <g id="Group_1350" data-name="Group 1350" transform="translate(-438 -573.422)">
    <g id="Group_1349" data-name="Group 1349">
      <g id="Group_241" data-name="Group 241" transform="translate(-2 -337)">
        <g transform="matrix(1, 0, 0, 1, 440, 910.42)" filter="url(#Rectangle_136)">
          <rect id="Rectangle_136-2" data-name="Rectangle 136" width="44" height="30" rx="5" transform="translate(9 11.58)" fill="#fff"/>
        </g>
        <path id="Path_399" data-name="Path 399" d="M26.543,0c14.747,0,2.692,15.683,15.42,22.911S41.608,45.54,26.543,49.94,1.42,43.787,1.42,29.04,11.8,0,26.543,0Z" transform="translate(453.688 910.422)" fill="#ccd9f9" opacity="0.61"/>
        <g id="mail_1_" data-name="mail (1)" transform="translate(448.108 836.4)">
          <path id="Path_404" data-name="Path 404" d="M55.991,259.071a4.774,4.774,0,0,1-3.667,1.719H16.041a4.774,4.774,0,0,1-3.667-1.719l17.512-14.59,1.814,1.241a4.371,4.371,0,0,0,4.965,0l1.814-1.241Z" transform="translate(-11.266 -144.901)" fill="#1e88e5"/>
          <path id="Path_405" data-name="Path 405" d="M53.54,87.415,35.761,99.58l-1.814,1.241a4.371,4.371,0,0,1-4.965,0L27.167,99.58,9.388,87.4a4.8,4.8,0,0,1,3.934-2.062H49.606A4.711,4.711,0,0,1,53.54,87.415Z" transform="translate(-8.548 0)" fill="#64b5f6"/>
          <g id="Group_240" data-name="Group 240" transform="translate(0 87.396)">
            <path id="Path_406" data-name="Path 406" d="M18.62,120.559,1.108,135.149A4.753,4.753,0,0,1,0,132.093V111.087a4.705,4.705,0,0,1,.84-2.712Z" transform="translate(0 -108.375)" fill="#2196f3"/>
            <path id="Path_407" data-name="Path 407" d="M322.62,111.281v21.007a4.753,4.753,0,0,1-1.108,3.055L304,120.753l17.779-12.165A4.689,4.689,0,0,1,322.62,111.281Z" transform="translate(-276.788 -108.569)" fill="#2196f3"/>
          </g>
        </g>
        <circle id="Ellipse_32" data-name="Ellipse 32" cx="3.5" cy="3.5" r="3.5" transform="translate(500 955)" fill="#8ba5ee"/>
        <circle id="Ellipse_33" data-name="Ellipse 33" cx="1" cy="1" r="1" transform="translate(495 958)" fill="#8ba5ee"/>
        <circle id="Ellipse_34" data-name="Ellipse 34" cx="1" cy="1" r="1" transform="translate(493 912)" fill="#8ba5ee"/>
      </g>
    </g>
  </g>
</svg>
