<svg xmlns="http://www.w3.org/2000/svg" xmlns:xlink="http://www.w3.org/1999/xlink" width="64.345" height="56.73" viewBox="0 0 64.345 56.73">
  <defs>
    <filter id="Path_410" x="0" y="1.431" width="55.855" height="55.299" filterUnits="userSpaceOnUse">
      <feOffset dy="3" input="SourceAlpha"/>
      <feGaussianBlur stdDeviation="3" result="blur"/>
      <feFlood flood-color="#f32222" flood-opacity="0.361"/>
      <feComposite operator="in" in2="blur"/>
      <feComposite in="SourceGraphic"/>
    </filter>
  </defs>
  <g id="Group_245" data-name="Group 245" transform="translate(-438.655 -1029.422)">
    <g id="Group_244" data-name="Group 244" transform="translate(-2 119)">
      <path id="Path_399" data-name="Path 399" d="M26.543,0c14.747,0,2.692,15.683,15.42,22.911S41.608,45.54,26.543,49.94,1.42,43.787,1.42,29.04,11.8,0,26.543,0Z" transform="translate(453.688 910.422)" fill="#f9cccc" opacity="0.61"/>
      <circle id="Ellipse_32" data-name="Ellipse 32" cx="3.5" cy="3.5" r="3.5" transform="translate(498 916)" fill="#ee8b8b"/>
      <circle id="Ellipse_33" data-name="Ellipse 33" cx="1" cy="1" r="1" transform="translate(495 958)" fill="#ee8b8b"/>
      <circle id="Ellipse_34" data-name="Ellipse 34" cx="1" cy="1" r="1" transform="translate(495 926)" fill="#ee8b8b"/>
    </g>
    <g id="phone" transform="translate(447.655 1031.393)">
      <path id="Path_408" data-name="Path 408" d="M265.925.289H250.269a3.186,3.186,0,0,0-3.186,3.186v6.63a3.186,3.186,0,0,0,3.186,3.186H251.8l1.9,3.288a.71.71,0,0,0,1.229,0l1.9-3.288h9.1a3.186,3.186,0,0,0,3.186-3.186V3.475A3.186,3.186,0,0,0,265.925.289Z" transform="translate(-226.59 0)" fill="#fbc3c3"/>
      <path id="Path_409" data-name="Path 409" d="M387.235.289h-7.871v13h7.871a3.186,3.186,0,0,0,3.186-3.186V3.475A3.186,3.186,0,0,0,387.235.289Z" transform="translate(-347.899 0)" fill="#f99"/>
      <g id="Group_243" data-name="Group 243" transform="translate(0 5.46)">
        <g id="Group_242" data-name="Group 242" transform="translate(0)">
          <g transform="matrix(1, 0, 0, 1, -9, -7.43)" filter="url(#Path_410)">
            <path id="Path_410-2" data-name="Path 410" d="M2.347,66.777l3.7-3.711a1.15,1.15,0,0,1,1.771-.038l7.747,7.747a1.28,1.28,0,0,1,0,1.81l-4.346,4.346a1.6,1.6,0,0,0,0,2.256L21.351,89.321a1.357,1.357,0,0,0,1.92,0L27.9,84.689a1.28,1.28,0,0,1,1.81,0l7.767,7.767a1.28,1.28,0,0,1,0,1.81l-2.618,2.618a10.311,10.311,0,0,1-4.627,2.7l-.241.062a10.315,10.315,0,0,1-9.719-2.769L2.913,79.512A9.874,9.874,0,0,1,.157,74.336,8.587,8.587,0,0,1,2.48,66.631" transform="translate(9 -55.2)" fill="#ff405c"/>
          </g>
        </g>
      </g>
      <circle id="Ellipse_35" data-name="Ellipse 35" cx="1.293" cy="1.293" r="1.293" transform="translate(25.268 5.421)" fill="#b60000"/>
      <circle id="Ellipse_36" data-name="Ellipse 36" cx="1.293" cy="1.293" r="1.293" transform="translate(30.172 5.421)" fill="#b60000"/>
      <circle id="Ellipse_37" data-name="Ellipse 37" cx="1.293" cy="1.293" r="1.293" transform="translate(35.077 5.421)" fill="#801919"/>
      <path id="Path_411" data-name="Path 411" d="M380.656,63.452a1.293,1.293,0,0,0-1.293-1.293v2.585A1.293,1.293,0,0,0,380.656,63.452Z" transform="translate(-347.898 -56.738)" fill="#801919"/>
      <path id="Path_412" data-name="Path 412" d="M169.224,330.943l-7.767-7.767a1.28,1.28,0,0,0-1.81,0l-4.632,4.632a1.357,1.357,0,0,1-1.92,0l-5.122-5.122L143.659,327l8.376,8.376a10.277,10.277,0,0,0,9.6,2.776l.216-.053a10.384,10.384,0,0,0,4.767-2.741l2.606-2.606A1.28,1.28,0,0,0,169.224,330.943Z" transform="translate(-131.744 -295.657)" fill="#c1126b" opacity="0.35"/>
    </g>
  </g>
</svg>
