<?xml version="1.0" encoding="utf-8"?>
<!-- Generator: Adobe Illustrator 24.0.1, SVG Export Plug-In . SVG Version: 6.00 Build 0)  -->
<svg version="1.1" id="Layer_1" xmlns="http://www.w3.org/2000/svg" xmlns:xlink="http://www.w3.org/1999/xlink" x="0px" y="0px"
	 viewBox="0 0 967.6 472.4" style="enable-background:new 0 0 967.6 472.4;" xml:space="preserve">
<style type="text/css">
	.st0{fill:#566181;}
	.st1{fill:#434B60;}
	.st2{fill:#7483BF;}
	.st3{fill:#C42A29;}
	.st4{fill:#EF4537;}
	.st5{fill:none;stroke:#010101;stroke-width:2;stroke-linecap:round;stroke-linejoin:round;}
	.st6{fill:#FCB316;}
	.st7{fill:#FCC011;}
	.st8{fill:#F19C23;}
	.st9{fill:#010101;}
	.st10{fill:#6C7D87;}
	.st11{fill:#576B76;}
	.st12{fill:#DF9B5F;}
	.st13{fill:#D18C53;}
	.st14{fill:#C7C6C5;}
	.st15{fill:#B7B7B8;}
	.st16{fill:#EDEDEE;}
	.st17{fill:#DBDADA;}
	.st18{fill:#4D4947;}
	.st19{fill:#3E3A39;}
	.st20{fill:#EDAF6C;}
	.st21{fill:none;stroke:#000000;stroke-width:8;stroke-miterlimit:10;}
	.st22{fill:#231F20;}
</style>
<path class="st0" d="M893,172.4H752c-5.5,0-10-4.5-10-10v-32.7c0-5.5,4.5-10,10-10h141c5.5,0,10,4.5,10,10v32.7
	C903,167.9,898.5,172.4,893,172.4C893,172.4,893,172.4,893,172.4z"/>
<path class="st1" d="M893,225.2H752c-5.5,0-10-4.5-10-10v-32.7c0-5.5,4.5-10,10-10h141c5.5,0,10,4.5,10,10v32.7
	C903,220.7,898.5,225.2,893,225.2C893,225.2,893,225.2,893,225.2z"/>
<path class="st0" d="M893,277.9H752c-5.5,0-10-4.5-10-10v-32.7c0-5.5,4.5-10,10-10h141c5.5,0,10,4.5,10,10v32.7
	C903,273.4,898.5,277.9,893,277.9C893,277.9,893,277.9,893,277.9z"/>
<circle class="st2" cx="768.3" cy="146.1" r="9.7"/>
<circle class="st2" cx="878" cy="141.9" r="2.8"/>
<circle class="st2" cx="866.9" cy="141.9" r="2.8"/>
<circle class="st2" cx="883.5" cy="150.2" r="2.8"/>
<circle class="st2" cx="872.5" cy="150.2" r="2.8"/>
<circle class="st2" cx="855.8" cy="141.9" r="2.8"/>
<circle class="st2" cx="861.3" cy="150.2" r="2.8"/>
<circle class="st2" cx="844.7" cy="141.9" r="2.8"/>
<circle class="st2" cx="850.2" cy="150.2" r="2.8"/>
<circle class="st2" cx="833.6" cy="141.9" r="2.8"/>
<circle class="st2" cx="839.1" cy="150.2" r="2.8"/>
<circle class="st2" cx="768.3" cy="198.8" r="9.7"/>
<circle class="st2" cx="878" cy="194.6" r="2.8"/>
<circle class="st2" cx="866.9" cy="194.6" r="2.8"/>
<circle class="st2" cx="883.5" cy="203" r="2.8"/>
<circle class="st2" cx="872.5" cy="203" r="2.8"/>
<circle class="st2" cx="855.8" cy="194.6" r="2.8"/>
<circle class="st2" cx="861.3" cy="203" r="2.8"/>
<circle class="st2" cx="844.7" cy="194.6" r="2.8"/>
<circle class="st2" cx="850.2" cy="203" r="2.8"/>
<circle class="st2" cx="833.6" cy="194.6" r="2.8"/>
<circle class="st2" cx="839.1" cy="203" r="2.8"/>
<circle class="st2" cx="768.3" cy="251.6" r="9.7"/>
<circle class="st2" cx="878" cy="247.4" r="2.8"/>
<circle class="st2" cx="866.9" cy="247.4" r="2.8"/>
<circle class="st2" cx="883.5" cy="255.7" r="2.8"/>
<circle class="st2" cx="872.5" cy="255.7" r="2.8"/>
<circle class="st2" cx="855.8" cy="247.4" r="2.8"/>
<circle class="st2" cx="861.3" cy="255.7" r="2.8"/>
<circle class="st2" cx="844.7" cy="247.4" r="2.8"/>
<circle class="st2" cx="850.2" cy="255.7" r="2.8"/>
<circle class="st2" cx="833.6" cy="247.4" r="2.8"/>
<circle class="st2" cx="839.1" cy="255.7" r="2.8"/>
<path class="st3" d="M345.6,186.7h59.6c2.5,0,4.6,2,4.6,4.6v32.1c0,2.5-2.1,4.6-4.6,4.6h-59.6c-2.5,0-4.6-2-4.6-4.6c0,0,0,0,0,0
	v-32.1C341,188.8,343.1,186.7,345.6,186.7C345.6,186.7,345.6,186.7,345.6,186.7z"/>
<path class="st3" d="M345.6,67.6h59.6c2.5,0,4.6,2.1,4.6,4.6v32.1c0,2.5-2.1,4.6-4.6,4.6h-59.6c-2.5,0-4.6-2.1-4.6-4.6V72.1
	C341,69.6,343.1,67.6,345.6,67.6z"/>
<path class="st3" d="M432.7,67.6h82.5c2.5,0,4.6,2.1,4.6,4.6v32.1c0,2.5-2,4.6-4.6,4.6h-82.5c-2.5,0-4.6-2.1-4.6-4.6V72.1
	C428.1,69.6,430.2,67.6,432.7,67.6z"/>
<path class="st4" d="M464.8,133.7v-2c0-2.5-2.1-4.6-4.6-4.6H345.6c-2.5,0-4.6,2.1-4.6,4.6v32.1c0,2.5,2.1,4.6,4.6,4.6h93l3.3-22.9
	L464.8,133.7z"/>
<path class="st3" d="M606.9,131.7v32.1c0,2.5-2.1,4.6-4.6,4.6h-91.7l-4.6-27.5l-22.9-4.6v-4.6c0-2.5,2.1-4.6,4.6-4.6h114.6
	C604.8,127.2,606.9,129.2,606.9,131.7z"/>
<path class="st4" d="M412.9,246.3l-1.7,16.4l-2.6,24.9h-62.9c-2.5,0-4.6-2-4.6-4.6v-32.1c0-2.5,2.1-4.6,4.6-4.6L412.9,246.3
	L412.9,246.3z"/>
<path class="st3" d="M606.9,250.9V283c0,2.5-2.1,4.6-4.6,4.6h-57.6l0.5-41.3h57.1C604.8,246.3,606.9,248.4,606.9,250.9z"/>
<path class="st3" d="M542.7,67.6h59.6c2.5,0,4.6,2.1,4.6,4.6v32.1c0,2.5-2,4.6-4.6,4.6h-59.6c-2.5,0-4.6-2.1-4.6-4.6V72.1
	C538.1,69.6,540.2,67.6,542.7,67.6z"/>
<path class="st5" d="M478.2,228h-4.1"/>
<path class="st3" d="M542.7,186.7h59.6c2.5,0,4.6,2.1,4.6,4.6v0v32.1c0,2.5-2.1,4.6-4.6,4.6l0,0h-59.6c-2.5,0-4.6-2.1-4.6-4.6v0
	v-32.1C538.1,188.8,540.2,186.7,542.7,186.7L542.7,186.7z"/>
<path class="st4" d="M345.6,186.7h45.8c2.5,0,4.6,2.1,4.6,4.6v32.1c0,2.5-2.1,4.6-4.6,4.6h-45.8c-2.5,0-4.6-2-4.6-4.6c0,0,0,0,0,0
	v-32.1C341,188.8,343.1,186.7,345.6,186.7C345.6,186.7,345.6,186.7,345.6,186.7z"/>
<path class="st4" d="M345.6,67.6h45.8c2.5,0,4.5,2.1,4.5,4.6v32.1c0,2.5-2,4.6-4.6,4.6h-45.8c-2.5,0-4.6-2.1-4.6-4.6V72.1
	C341,69.6,343.1,67.6,345.6,67.6z"/>
<path class="st4" d="M432.7,67.6h68.8c2.5,0,4.6,2.1,4.6,4.6v32.1c0,2.5-2,4.6-4.6,4.6h-68.8c-2.5,0-4.6-2.1-4.6-4.6V72.1
	C428.1,69.6,430.2,67.6,432.7,67.6z"/>
<path class="st4" d="M593.1,131.7v32.1c0,2.5-2.1,4.6-4.6,4.6H483.1v-36.7c0-2.5,2.1-4.6,4.6-4.6h100.8
	C591.1,127.2,593.1,129.2,593.1,131.7z"/>
<path class="st4" d="M593.1,250.9V283c0,2.5-2.1,4.6-4.6,4.6h-43.9l0.5-41.3h43.4C591.1,246.3,593.1,248.4,593.1,250.9z"/>
<path class="st4" d="M542.7,67.6h45.8c2.5,0,4.6,2.1,4.6,4.6v32.1c0,2.5-2,4.6-4.6,4.6h-45.8c-2.5,0-4.6-2.1-4.6-4.6V72.1
	C538.1,69.6,540.2,67.6,542.7,67.6z"/>
<path class="st4" d="M542.7,186.7h45.8c2.5,0,4.6,2.1,4.6,4.6v0v32.1c0,2.5-2.1,4.6-4.6,4.6l0,0h-45.8c-2.5,0-4.6-2.1-4.6-4.6v0
	v-32.1C538.1,188.8,540.2,186.7,542.7,186.7L542.7,186.7z"/>
<path class="st6" d="M547.2,272.7c-0.2,5-1.1,10-2.5,14.9c-2.8,9.9-8.2,18.8-15.7,25.8c-7.5,7.1-16.5,12.5-26.4,15.7h0
	c-8.3,2.9-17,4.3-25.8,4.3c-2.3,0-4.5-0.1-6.8-0.3c-0.5,0-1.1-0.1-1.7-0.1c-29-3-52.6-21.3-59.8-45.4c-1.5-5-2.3-10.2-2.3-15.5
	c0-8.4,2-16.8,5.8-24.3c0.2-0.5,0.5-1,0.8-1.5c2.2-4.3,5-8.3,8.3-11.8c3.1-2.7,5.5-6,7.1-9.7c0.2-0.7,0.4-1.4,0.5-2.1
	c0.4-2.4,0.1-4.8-0.8-7c-2.5-5.2-6.8-9.3-12.2-11.4c-0.5-0.2-3.2-1.1-6.1-2c-4-1.1-8.5-2.2-9.1-1.4c2.2-3.9,5.3-7.2,9.1-9.5
	c4.6-2.8,9.8-4.4,15.2-4.7c0.4-0.1,0.8-0.1,1.2-0.1c2-0.1,4.1,0,6.1,0.1c0.1,0,0.3,0,0.5,0h7.2c-1.4-6-1.8-12.2-1.3-18.3
	c0.6-15.9,11-29.8,26.2-34.7c0.9-0.3,1.8-0.6,2.8-0.8c1-0.3,2-0.5,3.1-0.6c4.1-0.7,8.3-0.7,12.5-0.2c2.9,0.3,5.7,0.8,8.5,1.5
	c0.8,0.2,10.1,3.7,10.6,3.7c-9.9,8.6-10.2,20.4-6,31.1c2.7,6.7,6.6,12.8,11.6,17.9l0.4,0.4c3.8,4,7.8,8.1,11.5,12.2
	c6.2,6.8,11.7,14.2,16.4,22.1c4.3,7.9,7.4,16.4,9,25.3c0.9,5.4,1.6,10.8,1.9,16.3C547.4,266,547.4,269.3,547.2,272.7z"/>
<path class="st7" d="M533.4,272.7c-0.2,5-1.1,10-2.5,14.9c-2.8,9.9-8.2,18.8-15.7,25.8c-7.5,7.1-16.5,12.5-26.4,15.7h0
	c-6.1,2.1-12.4,3.5-18.8,4c-0.5,0-1.1-0.1-1.7-0.1c-29-3-52.6-21.3-59.8-45.4c-1.5-5-2.3-10.2-2.3-15.5c0-8.4,2-16.8,5.8-24.3
	c0.2-0.5,0.5-1,0.8-1.5c2.2-4.3,5-8.3,8.3-11.8c3.1-2.7,5.5-6,7.1-9.7c0.2-0.7,0.4-1.4,0.5-2.1c0.4-2.4,0.1-4.8-0.8-7
	c-2.5-5.2-6.8-9.3-12.2-11.4c-0.5-0.2-3.2-1.1-6.1-2c-4-1.1-8.5-2.2-9.1-1.4c2.2-3.9,5.3-7.2,9.1-9.5c4.6-2.8,9.8-4.4,15.2-4.7h1.2
	v-0.1c2-0.1,4.1,0,6.1,0.1c0.1,0,0.3,0,0.5,0h7.2c-1.4-6-1.8-12.2-1.3-18.3c0.6-15.9,11-29.8,26.2-34.7c0.9-0.3,1.8-0.6,2.8-0.8
	c1-0.3,2-0.5,3.1-0.6c2.4,0.3,4.9,0.7,7.3,1.3c0.8,0.2,10.1,3.7,10.6,3.7c-10,8.6-10.2,20.4-6,31.1c2.7,6.7,6.6,12.8,11.6,17.9
	l0.4,0.4c3.9,4,7.8,8.1,11.5,12.2c6.2,6.8,11.7,14.2,16.4,22.1c4.3,7.9,7.4,16.4,9,25.3c0.9,5.4,1.6,10.8,1.9,16.3
	C533.6,266,533.6,269.3,533.4,272.7z"/>
<path class="st4" d="M502.7,329.1L502.7,329.1c-8.3,2.9-17,4.3-25.8,4.3c-2.8,0-5.7-0.1-8.5-0.5v-0.2c-16.1-7.2-33.2-20.1-33.4-37.1
	c0-2.8,0.4-5.5,1.3-8.1c1.9-5.6,5.3-10.6,9.9-14.4c5.2-4.4,11.5-7.5,16.7-11.9c0.7-0.6,1.4-1.2,2-1.8c4-3.6,6.9-8.3,8.4-13.5
	c1.1-5.9,1.4-12,1-18c0-1.1,0-2.1,0-3.1c0,0.4,2.7,1.9,2.9,2.1s0.8,0.6,1.2,1c2,1.6,3.9,3.3,5.6,5.1c6.5,6.5,10.5,15,11.5,24.1
	c0.7,9.6-4.4,18.2-9.8,26.4c9.8,7,28,2.1,28-9.6c0,1,2.3,3.3,2.8,4.2c1.8,3,3.2,6.2,4.2,9.5c0.2,0.6,0.4,1.2,0.5,1.8
	C525.3,305.6,516.7,319.5,502.7,329.1z"/>
<path class="st8" d="M502.6,329.1c-0.1,0.1-0.1,0.1-0.2,0.1"/>
<path class="st9" d="M345.6,113.4h59.6c5.1,0,9.2-4.1,9.2-9.2V72.1c0-5.1-4.1-9.1-9.2-9.2h-59.6c-5.1,0-9.2,4.1-9.2,9.2v32.1
	C336.5,109.3,340.6,113.4,345.6,113.4z M345.6,72.1h59.6v32.1h-59.6V72.1z"/>
<path class="st9" d="M368.5,81.3h-9.2c-2.5-0.1-4.7,1.8-4.8,4.4c-0.1,2.5,1.8,4.7,4.4,4.8c0.1,0,0.3,0,0.4,0h9.2
	c2.5,0.1,4.7-1.8,4.8-4.4c0.1-2.5-1.8-4.7-4.4-4.8C368.8,81.3,368.7,81.3,368.5,81.3z"/>
<path class="st9" d="M515.2,113.4c5.1,0,9.2-4.1,9.2-9.2V72.1c0-5.1-4.1-9.1-9.2-9.2h-82.5c-5.1,0-9.2,4.1-9.2,9.2v32.1
	c0,5.1,4.1,9.2,9.2,9.2L515.2,113.4z M432.7,72.1h82.5v32.1h-82.5V72.1z"/>
<path class="st9" d="M469.4,81.3h-22.9c-2.5,0.1-4.5,2.3-4.4,4.8c0.1,2.4,2,4.3,4.4,4.4h22.9c2.5,0.1,4.7-1.8,4.8-4.4
	c0.1-2.5-1.8-4.7-4.4-4.8C469.7,81.3,469.5,81.3,469.4,81.3z"/>
<path class="st9" d="M382.3,140.9h-22.9c-2.5-0.1-4.7,1.8-4.8,4.4c-0.1,2.5,1.8,4.7,4.4,4.8c0.1,0,0.3,0,0.4,0h22.9
	c2.5,0.1,4.7-1.8,4.8-4.4c0.1-2.5-1.8-4.7-4.4-4.8C382.6,140.9,382.4,140.9,382.3,140.9z"/>
<path class="st9" d="M602.3,122.6H487.7c-3.3,0-6.3,1.8-7.9,4.7c-3.8-0.2-7.6,0.1-11.3,0.8c-1.5-3.3-4.7-5.4-8.4-5.5H345.6
	c-5.1,0-9.2,4.1-9.2,9.2v32.1c0,5.1,4.1,9.2,9.2,9.2h88.3c0,3.1,0.2,6.1,0.6,9.2h-1.7c-0.3,0-0.5,0-0.8,0
	c-6.8-0.6-13.6,0.5-19.9,3.1c-1.7-2-4.2-3.1-6.8-3.1h-59.5c-5.1,0-9.2,4.1-9.2,9.2v32.1c0,5.1,4.1,9.2,9.2,9.2h59.6
	c5.1,0,9.2-4.1,9.2-9.2v-14.7c4.1,1.7,7.5,4.8,9.5,8.8c0.6,1.4,0.8,2.9,0.5,4.4c-0.1,0.5-0.2,1-0.4,1.4c-1.4,2.9-3.3,5.5-5.8,7.7
	l-0.4,0.4c-3,3.1-5.5,6.6-7.7,10.4h-64.6c-5.1,0-9.2,4.1-9.2,9.2V283c0,5.1,4.1,9.2,9.2,9.2h59.7c8.9,24.3,33.5,42.4,62.6,45.4
	c3,0.3,6,0.5,9,0.5c9,0,17.9-1.4,26.4-4.3c0.3-0.1,0.5-0.1,0.8-0.2h0.1c10.5-3.5,20.1-9.2,28.1-16.8c7.2-6.8,12.6-15.2,15.7-24.5
	h54.4c5.1,0,9.2-4.1,9.2-9.2v-32.1c0-5.1-4.1-9.2-9.2-9.2h-53.5c-0.7-3.2-1.6-6.2-2.6-9.2h56c5.1,0,9.2-4.1,9.2-9.2v-32.1
	c0-5.1-4.1-9.2-9.2-9.2h-59.5c-5.1,0-9.2,4.1-9.2,9.2v17.3c-2.9-3.9-6.2-8.1-10.3-12.7c-3.3-3.7-6.7-7.2-10-10.8l-2-2
	c-2.9-3.1-5.5-6.5-7.6-10.2h98.7c5.1,0,9.2-4.1,9.2-9.2v-32.1C611.5,126.7,607.4,122.6,602.3,122.6z M345.6,131.7h111.8
	c-12.5,6.2-21,18.3-22.8,32.1h-89L345.6,131.7z M345.6,223.4v-32.1l56.7,0.2c-2.2,2-4.1,4.4-5.6,7.1c-1.4,2.1-0.7,5,1.4,6.3
	c1.2,0.8,2.7,0.9,4,0.4c1,0.1,2,0.3,3,0.6v17.5L345.6,223.4z M345.6,250.9h60.1c-2.7,6.8-4.1,14-4.1,21.2c0,3.6,0.4,7.3,1.1,10.9
	h-57.1V250.9z M470,328.5c-7.4-3.3-30.3-15.2-30.5-32.8c0-2.3,0.4-4.6,1.1-6.7c1.6-4.8,4.5-9,8.4-12.3c2.5-2,5.1-3.8,7.8-5.5
	c3.1-1.9,6.1-4.1,8.9-6.4c0.7-0.6,1.5-1.3,2.2-1.9c4.7-4.2,8-9.7,9.6-15.8c0.9-4.1,1.3-8.3,1.2-12.5c0.6,0.5,1.1,1.1,1.7,1.7
	c5.7,5.7,9.3,13.2,10.2,21.3c0.6,8.1-3.9,15.7-9,23.5c-1.3,2.1-0.8,4.8,1.2,6.3c7.7,5,17.4,5.4,25.6,1.2c2.2-1.1,4.2-2.7,5.9-4.5
	c0.8,1.7,1.5,3.4,2,5.2c0.2,0.4,0.3,0.9,0.4,1.3c4.4,16.9-7.9,28.7-16,34.4c-7.7,2.6-15.7,3.9-23.8,3.9
	C474.5,328.8,472.2,328.7,470,328.5z M602.3,283h-51.9c0.7-3.3,1.1-6.7,1.3-10.1c0.2-3.5,0.2-7.1,0-10.6c-0.3-4.1-0.7-7.8-1.2-11.4
	h51.8L602.3,283z M542.7,191.3h59.6v32.1h-59.6L542.7,191.3z M506.6,191.5c3.3,3.4,6.6,6.9,9.8,10.5c6,6.5,11.3,13.6,15.8,21.3
	c4.1,7.4,6.9,15.5,8.5,23.8c0.9,5.2,1.5,10.5,1.9,15.8c0.2,3.2,0.2,6.4,0,9.5c-0.2,4.7-1,9.4-2.3,13.9c-2.6,9.1-7.6,17.3-14.4,23.7
	c-0.7,0.6-1.5,1.2-2.2,1.9c3.3-7.4,4-15.7,1.9-23.6c-0.1-0.7-0.4-1.4-0.6-2c-1.1-3.7-2.7-7.2-4.6-10.5c-0.4-0.7-0.9-1.3-1.4-1.9
	c-0.3-0.4-0.7-0.8-1-1.2c-0.7-2.4-3.2-3.8-5.7-3.1c-2,0.6-3.3,2.4-3.3,4.4c-0.2,2.9-2,5.4-4.7,6.5c-3.7,1.8-8,2.3-12,1.3
	c5.1-7.2,7.8-15.9,7.7-24.8c-1-10.2-5.5-19.7-12.7-26.9c-1.8-1.9-3.8-3.8-5.9-5.4c-0.5-0.4-1-0.8-1.4-1.1c-0.1-0.1-0.6-0.4-1.2-0.8
	c-0.4-0.2-0.8-0.5-1.2-0.8c-1.6-1.9-4.5-2.1-6.5-0.5c-1,0.9-1.6,2.2-1.6,3.5c0,1.1,0,2.2,0,3.2v1.8c0.4,5,0.1,10.1-0.9,15.1
	c-1.2,4.3-3.6,8.2-7,11.2c-0.6,0.6-1.3,1.1-1.9,1.6c-2.5,2.1-5.2,4-8,5.7c-3,1.9-5.9,4-8.7,6.2c-5.2,4.3-9.1,10-11.3,16.4
	c-1,3.1-1.5,6.3-1.5,9.6c0.4,9.1,4.2,17.7,10.8,24c-13.4-7.1-23.5-19.1-28.2-33.5c-1.4-4.6-2.1-9.3-2.1-14.1
	c0-7.8,1.9-15.5,5.4-22.4c0.2-0.3,0.4-0.7,0.7-1.3c2.1-4.1,4.7-7.8,7.9-11.1c3.4-3,6.1-6.8,7.9-11c0.3-0.9,0.6-1.9,0.8-2.8
	c0.5-3.2,0.2-6.4-1-9.4c-2.9-6.4-8.2-11.4-14.7-14c-0.8-0.3-3.7-1.3-6.6-2.1l-1.7-0.5c0.9-0.8,1.8-1.5,2.8-2.1
	c6-3.4,12.9-4.9,19.7-4.1c0.1,0,0.1,0,0.2,0h0.2c0.2,0,0.4,0,0.6-0.1h7c0.1,0,0.2,0,0.3-0.1c0.2,0,0.5,0,0.7,0
	c0.1,0,0.2-0.1,0.4-0.2c0.6-0.2,1.1-0.5,1.5-0.9c0.7-0.6,1.2-1.3,1.4-2.1c0.1-0.3,0.2-0.6,0.2-0.9c0-0.1,0.1-0.3,0.1-0.4
	c0-0.2-0.1-0.3-0.1-0.5c0-0.2,0-0.3,0-0.5c-1.3-5.5-1.7-11.2-1.2-16.9c0.4-14.2,9.7-26.5,23.2-30.9c0.8-0.3,1.6-0.5,2.4-0.7
	c4.6-1.1,9.3-1.3,14-0.6c2.6,0.3,5.2,0.7,7.8,1.4c0.5,0.1,2,0.7,3.8,1.3c-6,9.2-6.9,20.8-2.2,30.7l0,0.1v0.1
	c2.9,7.2,7.2,13.8,12.6,19.3L506.6,191.5z M602.3,163.8H499.6c-3.1-8.1-0.8-17.3,5.7-23.1c1.9-1.6,2.2-4.5,0.5-6.5
	c-0.7-0.8-1.6-1.3-2.6-1.5c-0.5-0.2-1.7-0.6-3-1.1h102.2V163.8L602.3,163.8z"/>
<path class="st9" d="M382.3,260.1h-22.9c-2.5,0-4.6,2.1-4.6,4.6c0,2.5,2.1,4.6,4.6,4.6h22.9c2.5,0,4.6-2.1,4.6-4.6
	C386.9,262.1,384.8,260.1,382.3,260.1z"/>
<path class="st9" d="M602.3,63h-59.6c-5.1,0-9.2,4.1-9.2,9.2v32.1c0,5.1,4.1,9.2,9.2,9.2h59.6c5.1,0,9.2-4.1,9.2-9.2V72.1
	C611.5,67.1,607.4,63,602.3,63z M542.7,104.2V72.1h59.6v32.1L542.7,104.2z"/>
<path class="st9" d="M588.6,81.3H584c-2.5,0.1-4.5,2.3-4.4,4.8c0.1,2.4,2,4.3,4.4,4.4h4.6c2.5-0.1,4.5-2.3,4.4-4.8
	C592.9,83.3,591,81.4,588.6,81.3L588.6,81.3z"/>
<path class="st9" d="M368.5,200.5h-9.2c-2.5-0.1-4.7,1.8-4.8,4.4c-0.1,2.5,1.8,4.7,4.4,4.8c0.1,0,0.3,0,0.4,0h9.2
	c2.5,0.1,4.7-1.8,4.8-4.4c0.1-2.5-1.8-4.7-4.4-4.8C368.8,200.5,368.7,200.5,368.5,200.5z"/>
<path class="st9" d="M588.6,200.5H584c-2.5,0.1-4.5,2.3-4.4,4.8c0.1,2.4,2,4.3,4.4,4.4h4.6c2.5-0.1,4.5-2.3,4.4-4.8
	C592.9,202.5,591,200.6,588.6,200.5L588.6,200.5z"/>
<path class="st10" d="M178.1,269.9c-0.1-0.6-6.9-34.6-7-35c-0.7-3.7-3-7-6.3-8.9c-1.3-0.8-2.8-1.4-4.3-1.7l-23.1-8.1
	c-1.4-0.5-2.3-1.7-2.3-3.2v-7c-8.3,4.3-18.1,4.3-26.4,0.1v7c0,1.4-0.9,2.7-2.3,3.2l-9.5,3.3l0,0l-13.6,4.7l-1.8,0.5
	c-3.3,1.2-6,3.6-7.6,6.7c-1.1,2.2-0.8,1.4-6,27.9c-2,10.1-2.4,10.9-2.1,13.1c0.7,6.3,7.2,5.7,7.4,5.7h97.6
	C170.9,278.3,179.4,278.9,178.1,269.9z"/>
<path class="st11" d="M73.9,269.9l7-38.1c0.7-3.5,2.8-6.6,5.8-8.6c-5.8,2.1-4,1.2-5.8,2c-3.4,1.5-6.1,4.3-7.4,7.8
	c-0.5,1.5-0.2,0.2-5.4,26.5c-2,10.1-2.4,10.9-2.1,13.1c0.7,6.3,7.2,5.7,7.4,5.7h7.9C75.6,278.3,73.2,275,73.9,269.9z"/>
<path class="st12" d="M87.6,278.3H73.2c-0.2-0.1-7.6,0.7-7.4-7.1c0-1.6,0.3-1.7,2.2-11.8l0.1-0.6h19.5V278.3z"/>
<path class="st13" d="M75.9,258.9h-7.8l-0.1,0.6c-2,10.1-2.2,10.1-2.2,11.8c-0.2,7.7,7.3,7,7.4,7.1h7.9c-5.2,0-7.5-2.7-7.4-7.1
	C73.8,270.8,74,269.7,75.9,258.9z"/>
<path class="st12" d="M108.8,204.9v13.3l0,0v0.5c0,3.2,2,6,5,7c5.3,1.7,11,1.7,16.3,0c3-1,5-3.8,5-7v-0.5l0,0v-13.3
	C127,209.3,117.1,209.3,108.8,204.9z"/>
<path class="st13" d="M116.8,220.8L116.8,220.8v-12.2c-2.8-0.6-5.4-1.5-7.9-2.8v12.4l0,0v0.5c0,3.2,2,6,5,7c1.5,0.5,3.1,0.9,4.7,1.1
	C117.3,225,116.7,222.9,116.8,220.8z"/>
<path class="st11" d="M87.6,251.1c-1.3,0-2.4,1.1-2.4,2.4v24.8H90v-24.8C90,252.2,88.9,251.1,87.6,251.1
	C87.6,251.1,87.6,251.1,87.6,251.1z"/>
<path class="st14" d="M199.2,278.3H122c-3.2,0-5.8-2.6-5.8-5.8l0,0c0-1.8,1.5-3.3,3.3-3.3h82.1c1.8,0,3.3,1.5,3.3,3.3l0,0
	C204.9,275.7,202.4,278.3,199.2,278.3z"/>
<path class="st15" d="M131.2,272.5L131.2,272.5c0-1.8,1.5-3.3,3.3-3.3h-15c-1.8,0-3.3,1.5-3.3,3.3l0,0c0,3.2,2.6,5.8,5.8,5.8h15
	C133.8,278.3,131.2,275.7,131.2,272.5z"/>
<path class="st16" d="M194.1,218.1h-67c-2.1,0-3.8,1.7-3.8,3.8v43.4c0,2.1,1.7,3.8,3.8,3.8h67c2.1,0,3.8-1.7,3.8-3.8V222
	C197.9,219.9,196.2,218.2,194.1,218.1C194.1,218.1,194.1,218.1,194.1,218.1z"/>
<path class="st17" d="M131.2,265.3V222c0-2.1,1.7-3.8,3.8-3.8h-7.9c-2.1,0-3.8,1.7-3.8,3.8v43.4c0,2.1,1.7,3.8,3.8,3.8h7.9
	C132.9,269.2,131.2,267.4,131.2,265.3z"/>
<circle class="st17" cx="160.6" cy="243.6" r="5.5"/>
<path class="st14" d="M160.6,238.1c-3,0-5.5,2.5-5.5,5.5s2.5,5.5,5.5,5.5c2,0,3.8-1,4.8-2.8c-3,0-5.5-2.5-5.5-5.5
	C159.9,239.9,160.1,239,160.6,238.1z"/>
<path class="st18" d="M121.3,120.5c-20.9,0.2-37.8,17.2-37.8,38.1v14.4h76.2v-21.6c0-14.8-9.1-18.2-9.1-18.2
	C139.3,119.4,121.3,120.5,121.3,120.5"/>
<path class="st19" d="M126.5,120.7c-21-2.6-40.1,12.2-42.7,33.1c-0.1,1.1-0.2,2.2-0.3,3.2c-0.1,1.5,0,1,0,16h9.1v-14.5
	C92.5,139.2,107.2,122.9,126.5,120.7z"/>
<path class="st12" d="M92.9,168.5c-4.8-1.7-10,1.5-10,6.1s5.2,7.8,10,6.1V168.5z"/>
<path class="st12" d="M150.3,168.5c4.8-1.7,10,1.5,10,6.1s-5.2,7.8-10,6.1V168.5z"/>
<path class="st13" d="M83.6,171.8c-2.8,5.3,3.1,11.1,9.3,8.9v-5.6C89.4,176.4,85.5,175,83.6,171.8z"/>
<path class="st13" d="M150.3,175.1v5.6c6.2,2.2,12.1-3.6,9.3-8.9C158.4,174.1,153.9,176.4,150.3,175.1z"/>
<path class="st20" d="M149.3,156.5c0.7,0.1,1.3,0.7,1.3,1.4c0,24.4,0,22.6,0,23.7c-0.4,7.3-3.5,14.2-8.7,19.3
	c-18.1,17.7-48.4,5.1-49.3-19.6c0-1.1,0-13.8,0-13.7c0-5.2,4.2-9.3,9.3-9.3c0.5,0,0.9,0,1.3,0.1c8.9,1.3,21.8,0.8,33.1-8.9
	c1-0.9,2.5-0.8,3.4,0.2c0.1,0.1,0.2,0.3,0.3,0.4C141.9,153.7,145.4,156.1,149.3,156.5z"/>
<path class="st12" d="M100.5,181.3c0-0.9,0-18.1,0-22.9c-4.6,0.7-7.9,4.6-7.9,9.2c0,0,0,12.6,0,13.7c0.7,18.3,17.3,29.9,33.2,27.6
	C112.7,207.1,101.1,196.5,100.5,181.3z"/>
<line class="st21" x1="233.5" y1="173.1" x2="296.5" y2="173.1"/>
<polygon points="280.6,186.6 294.1,173.1 280.6,159.5 292.1,159.5 305.6,173.1 292.1,186.6 "/>
<line class="st21" x1="293" y1="197.2" x2="230" y2="197.2"/>
<polygon points="245.9,183.7 232.4,197.2 245.9,210.8 234.4,210.8 220.9,197.2 234.4,183.7 "/>
<line class="st21" x1="650.9" y1="171.6" x2="713.9" y2="171.6"/>
<polygon points="698,185.2 711.5,171.6 698,158.1 709.5,158.1 723,171.6 709.5,185.2 "/>
<line class="st21" x1="710.4" y1="195.8" x2="647.4" y2="195.8"/>
<polygon points="663.3,182.2 649.8,195.8 663.3,209.4 651.8,209.4 638.3,195.8 651.8,182.2 "/>
<path class="st22" d="M63.9,310.7v7.9c0,3,1.3,4.3,3.1,4.3c2,0,3.3-1.3,3.3-4.3v-7.9H72v7.8c0,4.1-2.2,5.8-5.1,5.8
	c-2.7,0-4.8-1.6-4.8-5.7v-7.9L63.9,310.7z"/>
<path class="st22" d="M74.6,322.3c0.7,0.4,1.5,0.7,2.3,0.7c1.3,0,1.9-0.6,1.9-1.4s-0.5-1.3-1.8-1.8c-1.7-0.6-2.5-1.6-2.5-2.7
	c0-1.5,1.3-2.8,3.3-2.8c0.8,0,1.6,0.2,2.4,0.6l-0.4,1.3c-0.6-0.4-1.3-0.6-2-0.6c-1,0-1.6,0.6-1.6,1.3s0.6,1.1,1.8,1.6
	c1.7,0.6,2.5,1.5,2.5,2.9c0,1.7-1.3,2.9-3.6,2.9c-0.9,0-1.9-0.2-2.7-0.7L74.6,322.3z"/>
<path class="st22" d="M83.7,319.6c-0.2,1.7,1.1,3.2,2.8,3.4c0.2,0,0.4,0,0.5,0c0.9,0,1.8-0.1,2.7-0.5l0.3,1.3
	c-1,0.4-2.1,0.6-3.2,0.6c-3,0-4.7-2-4.7-4.9s1.7-5.2,4.5-5.2c3.1,0,4,2.8,4,4.5c0,0.3,0,0.5-0.1,0.8L83.7,319.6z M88.8,318.4
	c0-1.1-0.5-2.8-2.4-2.8c-1.8,0-2.5,1.6-2.7,2.8H88.8z"/>
<path class="st22" d="M92.7,317.5c0-1.1,0-2.1-0.1-3h1.5l0.1,1.9h0.1c0.3-1.2,1.4-2.1,2.7-2.1c0.2,0,0.3,0,0.5,0.1v1.7
	c-0.2,0-0.4-0.1-0.6-0.1c-1.2,0.1-2.2,1-2.3,2.2c0,0.3-0.1,0.5-0.1,0.8v5.1h-1.7V317.5z"/>
<path class="st22" d="M103.4,310.9c1.1-0.2,2.2-0.3,3.3-0.3c1.4-0.1,2.8,0.3,3.9,1.1c0.7,0.7,1.1,1.6,1.1,2.5c0,1.6-1,3-2.5,3.4v0.1
	c1.1,0.5,1.9,1.5,2,2.7c0.2,1.3,0.6,2.5,1,3.7h-1.8c-0.4-1-0.7-2.1-0.9-3.2c-0.4-1.9-1.1-2.5-2.7-2.6h-1.6v5.8h-1.7V310.9z
	 M105.2,317h1.8c1.8,0,3-1,3-2.5c0-1.7-1.3-2.5-3.1-2.5c-0.6,0-1.1,0-1.7,0.2L105.2,317z"/>
<path class="st22" d="M115.1,319.6c-0.1,1.7,1.1,3.2,2.8,3.3c0.2,0,0.3,0,0.5,0c0.9,0,1.8-0.1,2.7-0.5l0.3,1.3
	c-1,0.4-2.1,0.6-3.2,0.6c-3,0-4.7-2-4.7-4.9s1.7-5.2,4.5-5.2c3.2,0,4,2.8,4,4.5c0,0.3,0,0.5-0.1,0.8H115.1z M120.3,318.4
	c0-1.1-0.5-2.8-2.4-2.8c-1.8,0-2.5,1.6-2.7,2.8H120.3z"/>
<path class="st22" d="M130.7,322.6L130.7,322.6c-0.6,1.1-1.9,1.8-3.1,1.7c-2.3,0-4.1-2-4.1-4.9c0-3.6,2.3-5.2,4.3-5.2
	c1.2-0.1,2.4,0.6,3,1.7l0,0l0.1-1.5h1.6c0,0.8-0.1,1.6-0.1,2.6v10.9h-1.8L130.7,322.6z M130.7,318.4c0-0.2,0-0.5-0.1-0.7
	c-0.3-1.2-1.3-2-2.5-2c-1.8,0-2.9,1.5-2.9,3.7c0,1.9,0.9,3.6,2.8,3.6c1.2,0,2.2-0.8,2.5-1.9c0.1-0.3,0.1-0.6,0.1-0.8V318.4z"/>
<path class="st22" d="M143.4,321.5c0,1,0,1.9,0.1,2.6h-1.6l-0.1-1.6l0,0c-0.7,1.1-1.9,1.8-3.2,1.8c-1.5,0-3.3-0.8-3.3-4.2v-5.6h1.7
	v5.3c0,1.8,0.6,3.1,2.1,3.1c1,0,1.9-0.6,2.3-1.6c0.1-0.3,0.2-0.6,0.2-0.9v-5.9h1.8L143.4,321.5z"/>
<path class="st22" d="M147.2,319.6c-0.1,1.7,1.1,3.2,2.8,3.3c0.2,0,0.3,0,0.5,0c0.9,0,1.8-0.1,2.7-0.5l0.3,1.3
	c-1,0.4-2.1,0.6-3.2,0.6c-3,0-4.7-2-4.7-4.9s1.7-5.2,4.5-5.2c3.1,0,4,2.8,4,4.5c0,0.3,0,0.5-0.1,0.8H147.2z M152.4,318.4
	c0-1.1-0.5-2.8-2.4-2.8c-1.8,0-2.5,1.6-2.7,2.8H152.4z"/>
<path class="st22" d="M156,322.3c0.7,0.4,1.5,0.7,2.3,0.7c1.3,0,1.9-0.6,1.9-1.4s-0.5-1.3-1.8-1.8c-1.7-0.6-2.5-1.6-2.5-2.7
	c0-1.5,1.3-2.8,3.3-2.8c0.8,0,1.6,0.2,2.4,0.6l-0.4,1.3c-0.6-0.4-1.3-0.6-2-0.6c-1,0-1.6,0.6-1.6,1.3s0.6,1.1,1.8,1.6
	c1.7,0.6,2.5,1.5,2.5,2.9c0,1.7-1.3,2.9-3.6,2.9c-0.9,0-1.9-0.2-2.7-0.7L156,322.3z"/>
<path class="st22" d="M166.2,311.7v2.8h2.5v1.3h-2.5v5.2c0,1.2,0.3,1.9,1.3,1.9c0.3,0,0.7,0,1-0.1l0.1,1.3c-0.5,0.2-1,0.3-1.6,0.2
	c-0.7,0-1.4-0.2-1.9-0.7c-0.5-0.7-0.8-1.6-0.7-2.5v-5.3H163v-1.3h1.5v-2.3L166.2,311.7z"/>
<path class="st22" d="M177,311.7v2.8h2.5v1.3H177v5.2c0,1.2,0.3,1.9,1.3,1.9c0.3,0,0.7,0,1-0.1l0.1,1.3c-0.5,0.2-1,0.3-1.6,0.2
	c-0.7,0-1.4-0.2-1.9-0.7c-0.5-0.7-0.8-1.6-0.7-2.5v-5.3h-1.5v-1.3h1.5v-2.3L177,311.7z"/>
<path class="st22" d="M190.1,319.2c0,3.6-2.5,5.1-4.8,5.1c-2.6,0-4.6-1.9-4.6-5c0-3.2,2.1-5.1,4.8-5.1S190.1,316.3,190.1,319.2z
	 M182.4,319.3c0,2.1,1.2,3.7,2.9,3.7s2.9-1.6,2.9-3.7c0-1.6-0.8-3.7-2.9-3.7S182.4,317.5,182.4,319.3L182.4,319.3z"/>
<path class="st22" d="M46.8,335.6v2.8h2.5v1.3h-2.5v5.2c0,1.2,0.3,1.9,1.3,1.9c0.3,0,0.7,0,1-0.1l0.1,1.3c-0.5,0.2-1,0.2-1.5,0.2
	c-0.7,0-1.4-0.2-1.9-0.7c-0.5-0.7-0.8-1.6-0.7-2.5v-5.3h-1.5v-1.3h1.5v-2.3L46.8,335.6z"/>
<path class="st22" d="M51.3,333.9h1.8v6l0,0c0.3-0.5,0.7-0.9,1.3-1.2c0.5-0.3,1.2-0.5,1.8-0.5c1.3,0,3.4,0.8,3.4,4.1v5.8h-1.7v-5.5
	c0-1.5-0.6-2.9-2.2-2.9c-1.1,0-2,0.7-2.3,1.7c-0.1,0.3-0.1,0.6-0.1,0.8v5.8h-1.8V333.9z"/>
<path class="st22" d="M63.3,343.5c-0.1,1.7,1.1,3.2,2.8,3.3c0.2,0,0.3,0,0.5,0c0.9,0,1.8-0.1,2.7-0.5l0.3,1.3
	c-1,0.4-2.1,0.6-3.2,0.6c-3,0-4.7-1.9-4.7-4.9s1.7-5.2,4.5-5.2c3.2,0,4,2.8,4,4.5c0,0.3,0,0.5-0.1,0.8H63.3z M68.5,342.2
	c0-1.1-0.5-2.8-2.4-2.8c-1.8,0-2.5,1.6-2.7,2.8H68.5z"/>
<path class="st22" d="M77.2,338.4l1.3,4.9c0.3,1.1,0.5,2.1,0.7,3.1h0.1c0.2-1,0.5-2,0.8-3l1.6-4.9h1.5l1.5,4.8
	c0.4,1.2,0.6,2.2,0.9,3.1h0.1c0.2-1.1,0.4-2.1,0.7-3.1l1.4-4.8h1.7l-3.1,9.6h-1.6l-1.5-4.6c-0.3-1-0.6-2.1-0.8-3.2l0,0
	c-0.2,1.1-0.5,2.1-0.9,3.2l-1.6,4.6h-1.6l-2.9-9.6L77.2,338.4z"/>
<path class="st22" d="M91.9,343.5c-0.1,1.7,1.1,3.2,2.8,3.3c0.2,0,0.3,0,0.5,0c0.9,0,1.8-0.1,2.7-0.5l0.3,1.3
	c-1,0.4-2.1,0.6-3.2,0.6c-3,0-4.7-1.9-4.7-4.9s1.7-5.2,4.5-5.2c3.1,0,4,2.8,4,4.5c0,0.3,0,0.5-0.1,0.8H91.9z M97.1,342.2
	c0-1.1-0.5-2.8-2.4-2.8c-1.8,0-2.5,1.6-2.7,2.8H97.1z"/>
<path class="st22" d="M100.8,348c0-0.6,0.1-1.6,0.1-2.5v-11.7h1.7v6l0,0c0.7-1.2,1.9-1.8,3.3-1.8c2.4,0,4.1,2,4,4.9
	c0,3.4-2.2,5.1-4.3,5.1c-1.3,0.1-2.6-0.6-3.2-1.8h-0.1l-0.1,1.6L100.8,348z M102.7,344.1c0,0.2,0,0.4,0.1,0.6c0.3,1.2,1.4,2.1,2.6,2
	c1.8,0,2.9-1.5,2.9-3.7c0-1.9-1-3.6-2.9-3.6c-1.3,0-2.4,0.9-2.7,2.1c-0.1,0.2-0.1,0.5-0.1,0.7V344.1z"/>
<path class="st22" d="M121.8,348l-0.1-1.2h-0.1c-0.7,0.9-1.8,1.5-2.9,1.4c-1.5,0.1-2.8-1-2.9-2.5c0-0.1,0-0.2,0-0.2
	c0-2.3,2.1-3.6,5.8-3.6v-0.2c0.1-1.1-0.7-2.1-1.8-2.2c-0.1,0-0.3,0-0.4,0c-0.9,0-1.8,0.2-2.5,0.7l-0.4-1.1c1-0.6,2-0.9,3.2-0.9
	c3,0,3.7,2,3.7,3.9v3.6c0,0.8,0,1.5,0.2,2.3H121.8z M121.5,343.1c-1.9,0-4.1,0.3-4.1,2.2c-0.1,0.9,0.6,1.6,1.4,1.7
	c0.1,0,0.2,0,0.2,0c1,0,2-0.6,2.3-1.6c0.1-0.2,0.1-0.4,0.1-0.6V343.1z"/>
<path class="st22" d="M126,341.5c0-1.2,0-2.2-0.1-3.1h1.6l0.1,1.6l0,0c0.7-1.2,2-1.9,3.4-1.9c2.3,0,4.1,2,4.1,4.9
	c0,3.5-2.1,5.2-4.4,5.2c-1.2,0.1-2.3-0.5-3-1.5l0,0v5.2H126V341.5z M127.7,344.1c0,0.2,0,0.5,0.1,0.7c0.3,1.2,1.4,2.1,2.6,2
	c1.9,0,2.9-1.5,2.9-3.7c0-1.9-1-3.6-2.9-3.6c-1.3,0-2.4,0.9-2.7,2.2c-0.1,0.2-0.1,0.5-0.1,0.7L127.7,344.1z"/>
<path class="st22" d="M137.4,341.5c0-1.2,0-2.2-0.1-3.1h1.6l0.1,1.6l0,0c0.7-1.2,2-1.9,3.4-1.9c2.3,0,4.1,2,4.1,4.9
	c0,3.5-2.1,5.2-4.4,5.2c-1.2,0.1-2.3-0.5-3-1.5l0,0v5.2h-1.7L137.4,341.5z M139.1,344.1c0,0.2,0,0.5,0.1,0.7c0.3,1.2,1.4,2.1,2.6,2
	c1.9,0,2.9-1.5,2.9-3.7c0-1.9-1-3.6-2.9-3.6c-1.3,0-2.4,0.9-2.6,2.2c-0.1,0.2-0.1,0.5-0.1,0.7V344.1z"/>
<path class="st22" d="M148.7,333.9h1.8V348h-1.8V333.9z"/>
<path class="st22" d="M155.3,335.6c-0.1,0.6-0.6,1-1.2,1c-0.5,0-0.9-0.5-1-1c0-0.6,0.4-1.1,1-1.1c0,0,0,0,0.1,0c0.6,0,1,0.4,1.1,0.9
	C155.3,335.5,155.3,335.6,155.3,335.6z M153.3,348v-9.6h1.8v9.6L153.3,348z"/>
<path class="st22" d="M164.9,347.6c-0.9,0.4-1.8,0.6-2.8,0.5c-2.5,0.1-4.7-1.8-4.8-4.3c0-0.2,0-0.4,0-0.6c-0.1-2.7,2-5,4.7-5.1
	c0.2,0,0.3,0,0.5,0c0.8,0,1.7,0.2,2.4,0.5l-0.4,1.4c-0.6-0.3-1.3-0.5-2-0.5c-2,0.1-3.5,1.8-3.5,3.8c0.1,1.9,1.5,3.3,3.4,3.5
	c0.7,0,1.5-0.2,2.1-0.5L164.9,347.6z"/>
<path class="st22" d="M172.2,348l-0.1-1.2H172c-0.7,0.9-1.8,1.5-2.9,1.4c-1.5,0.1-2.8-1-2.9-2.5c0-0.1,0-0.1,0-0.2
	c0-2.3,2.1-3.6,5.8-3.6v-0.2c0.1-1.1-0.7-2.1-1.8-2.2c-0.1,0-0.3,0-0.4,0c-0.9,0-1.7,0.2-2.5,0.7l-0.4-1.1c1-0.6,2-0.9,3.2-0.9
	c2.9,0,3.7,2,3.7,3.9v3.6c0,0.8,0,1.5,0.2,2.3H172.2z M172,343.1c-1.9,0-4.1,0.3-4.1,2.2c-0.1,0.9,0.6,1.6,1.4,1.7
	c0.1,0,0.2,0,0.2,0c1,0,2-0.6,2.3-1.6c0.1-0.2,0.1-0.4,0.1-0.6V343.1z"/>
<path class="st22" d="M178.5,335.6v2.8h2.5v1.3h-2.5v5.2c0,1.2,0.3,1.9,1.3,1.9c0.3,0,0.7,0,1-0.1l0.1,1.3c-0.5,0.2-1,0.2-1.6,0.2
	c-0.7,0-1.4-0.2-1.9-0.7c-0.5-0.7-0.8-1.6-0.7-2.5v-5.3h-1.5v-1.3h1.5v-2.3L178.5,335.6z"/>
<path class="st22" d="M184.9,335.6c-0.1,0.6-0.6,1-1.2,1c-0.5,0-0.9-0.5-1-1c0-0.6,0.4-1.1,1-1.1c0,0,0,0,0.1,0c0.6,0,1,0.4,1.1,0.9
	C184.9,335.5,184.9,335.6,184.9,335.6z M183,348v-9.6h1.8v9.6H183z"/>
<path class="st22" d="M196.4,343.1c0,3.6-2.5,5.1-4.8,5.1c-2.6,0-4.6-1.9-4.6-5c0-3.2,2.1-5.1,4.8-5.1S196.4,340.1,196.4,343.1z
	 M188.7,343.2c0,2.1,1.2,3.7,2.9,3.7s2.9-1.6,2.9-3.7c0-1.6-0.8-3.7-2.9-3.7S188.7,341.4,188.7,343.2z"/>
<path class="st22" d="M198.6,341c0-1,0-1.8-0.1-2.6h1.5l0.1,1.6l0,0c0.6-1.1,1.9-1.8,3.2-1.8c1.3,0,3.4,0.8,3.4,4.1v5.7H205v-5.5
	c0-1.5-0.6-2.8-2.2-2.8c-1.1,0-2,0.7-2.3,1.8c-0.1,0.3-0.1,0.5-0.1,0.8v5.8h-1.8L198.6,341z"/>
<path class="st22" d="M771,326.1c0.9,0.6,2,0.9,3.1,0.9c1.8,0,2.8-0.9,2.8-2.3s-0.7-2-2.5-2.7c-2.2-0.8-3.5-1.9-3.5-3.8
	c0-2.1,1.7-3.6,4.3-3.6c1,0,2.1,0.2,3,0.6l-0.5,1.4c-0.8-0.4-1.7-0.6-2.5-0.6c-1.8,0-2.5,1.1-2.5,2c0,1.3,0.8,1.9,2.7,2.6
	c2.3,0.9,3.4,2,3.4,3.9s-1.5,3.9-4.7,3.9c-1.2,0-2.4-0.3-3.4-0.9L771,326.1z"/>
<path class="st22" d="M782.1,323.7c-0.1,1.7,1.1,3.2,2.8,3.3c0.2,0,0.3,0,0.5,0c0.9,0,1.8-0.1,2.7-0.5l0.3,1.3
	c-1,0.4-2.1,0.6-3.2,0.6c-3,0-4.7-2-4.7-4.9s1.7-5.2,4.5-5.2c3.1,0,4,2.8,4,4.5c0,0.3,0,0.5-0.1,0.8L782.1,323.7z M787.2,322.5
	c0-1.1-0.5-2.8-2.4-2.8c-1.8,0-2.5,1.6-2.7,2.8H787.2z"/>
<path class="st22" d="M791.1,321.6c0-1.1,0-2.1-0.1-3h1.5l0.1,1.9h0.1c0.3-1.2,1.4-2.1,2.7-2.1c0.2,0,0.3,0,0.5,0.1v1.6
	c-0.2,0-0.4-0.1-0.6,0c-1.2,0-2.2,1-2.3,2.2c0,0.3-0.1,0.5-0.1,0.8v5.1h-1.7V321.6z"/>
<path class="st22" d="M798.8,318.6l1.9,5.4c0.3,0.8,0.6,1.6,0.8,2.5h0.1c0.2-0.8,0.5-1.6,0.8-2.5l1.9-5.4h1.8l-3.8,9.6h-1.7
	l-3.7-9.6H798.8z"/>
<path class="st22" d="M808.4,323.7c-0.1,1.7,1.1,3.2,2.8,3.3c0.2,0,0.3,0,0.5,0c0.9,0,1.8-0.1,2.7-0.5l0.3,1.3
	c-1,0.4-2.1,0.6-3.2,0.6c-3,0-4.7-2-4.7-4.9s1.7-5.2,4.5-5.2c3.1,0,4,2.8,4,4.5c0,0.3,0,0.5-0.1,0.8L808.4,323.7z M813.5,322.5
	c0-1.1-0.5-2.8-2.4-2.8c-1.5,0.1-2.7,1.3-2.7,2.8H813.5z"/>
<path class="st22" d="M817.4,321.6c0-1.1,0-2.1-0.1-3h1.5l0.1,1.9h0.1c0.3-1.2,1.4-2.1,2.7-2.1c0.2,0,0.3,0,0.5,0.1v1.6
	c-0.2,0-0.4-0.1-0.6,0c-1.2,0-2.2,1-2.3,2.2c0,0.3-0.1,0.5-0.1,0.8v5.1h-1.7V321.6z"/>
<path class="st22" d="M836.8,323.4c0.2,2.6-1.7,4.9-4.3,5.1c-0.2,0-0.3,0-0.5,0c-2.6,0-4.6-1.9-4.6-5c0-3.2,2.1-5.1,4.8-5.1
	S836.8,320.4,836.8,323.4z M829.2,323.5c0,2.1,1.2,3.7,2.9,3.7s2.9-1.6,2.9-3.7c0-1.6-0.8-3.7-2.9-3.7S829.2,321.6,829.2,323.5z"/>
<path class="st22" d="M839.2,328.2V320h-1.3v-1.3h1.3v-0.5c-0.1-1.2,0.3-2.4,1.1-3.4c0.6-0.6,1.5-0.9,2.3-0.9c0.5,0,1,0.1,1.5,0.3
	l-0.2,1.4c-0.3-0.2-0.7-0.2-1.1-0.2c-1.5,0-1.9,1.3-1.9,2.8v0.5h2.3v1.3H841v8.3L839.2,328.2z"/>
<path class="st22" d="M851.2,315.9v2.8h2.5v1.4h-2.5v5.2c0,1.2,0.3,1.9,1.3,1.9c0.3,0,0.7,0,1-0.1l0.1,1.3c-0.5,0.2-1,0.3-1.5,0.2
	c-0.7,0-1.4-0.2-1.9-0.7c-0.5-0.7-0.8-1.6-0.7-2.5V320H848v-1.3h1.5v-2.3L851.2,315.9z"/>
<path class="st22" d="M855.6,314.1h1.8v6l0,0c0.3-0.5,0.7-0.9,1.3-1.2c0.5-0.3,1.2-0.5,1.8-0.5c1.3,0,3.4,0.8,3.4,4.1v5.7H862v-5.5
	c0-1.5-0.6-2.9-2.2-2.9c-1.1,0-2,0.7-2.3,1.8c-0.1,0.3-0.1,0.5-0.1,0.8v5.8h-1.8L855.6,314.1z"/>
<path class="st22" d="M867.7,323.7c-0.1,1.7,1.1,3.2,2.8,3.3c0.2,0,0.3,0,0.5,0c0.9,0,1.8-0.1,2.7-0.5l0.3,1.3
	c-1,0.4-2.1,0.6-3.2,0.6c-3,0-4.7-2-4.7-4.9s1.7-5.2,4.5-5.2c3.1,0,4,2.8,4,4.5c0,0.3,0,0.5-0.1,0.8L867.7,323.7z M872.8,322.5
	c0-1.1-0.5-2.8-2.4-2.8c-1.8,0-2.5,1.6-2.7,2.8H872.8z"/>
<path class="st22" d="M758.1,342.5l1.3,4.9c0.3,1.1,0.5,2.1,0.7,3.1h0.1c0.2-1,0.5-2,0.8-3l1.6-4.9h1.4l1.5,4.8
	c0.4,1.2,0.6,2.2,0.9,3.1h0.1c0.2-1.1,0.4-2.1,0.7-3.1l1.4-4.8h1.7l-3.1,9.6h-1.6l-1.5-4.6c-0.3-1-0.6-2.1-0.8-3.2l0,0
	c-0.2,1.1-0.5,2.1-0.9,3.2l-1.5,4.6h-1.6l-2.9-9.6L758.1,342.5z"/>
<path class="st22" d="M772.8,347.6c-0.1,1.7,1.1,3.2,2.8,3.3c0.2,0,0.3,0,0.5,0c0.9,0,1.8-0.1,2.7-0.5l0.3,1.3
	c-1,0.4-2.1,0.6-3.2,0.6c-3,0-4.7-2-4.7-4.9s1.7-5.2,4.5-5.2c3.1,0,4,2.8,4,4.5c0,0.3,0,0.5-0.1,0.8H772.8z M777.9,346.4
	c0-1.1-0.5-2.8-2.4-2.8c-1.8,0-2.5,1.6-2.7,2.8H777.9z"/>
<path class="st22" d="M781.7,352.1c0-0.6,0.1-1.6,0.1-2.5V338h1.7v6l0,0c0.7-1.2,1.9-1.8,3.3-1.8c2.4,0,4.1,2,4,4.9
	c0,3.4-2.2,5.1-4.3,5.1c-1.3,0.1-2.6-0.6-3.2-1.8h-0.1l-0.1,1.6L781.7,352.1z M783.5,348.2c0,0.2,0,0.4,0.1,0.6
	c0.3,1.2,1.4,2.1,2.6,2c1.8,0,2.9-1.5,2.9-3.7c0-1.9-1-3.6-2.9-3.6c-1.3,0-2.4,0.9-2.7,2.1c-0.1,0.2-0.1,0.5-0.1,0.7L783.5,348.2z"
	/>
<path class="st22" d="M802.6,352.1l-0.1-1.2h-0.1c-0.7,0.9-1.8,1.5-2.9,1.4c-1.5,0.1-2.8-1-2.9-2.5c0-0.1,0-0.2,0-0.2
	c0-2.3,2.1-3.6,5.8-3.6v-0.2c0.1-1.1-0.6-2.1-1.7-2.2c-0.1,0-0.3,0-0.4,0c-0.9,0-1.8,0.3-2.5,0.7l-0.4-1.1c1-0.6,2-0.9,3.2-0.9
	c3,0,3.7,2,3.7,3.9v3.6c0,0.8,0,1.5,0.2,2.3H802.6z M802.4,347.2c-1.9,0-4.1,0.3-4.1,2.2c-0.1,0.9,0.6,1.6,1.4,1.7
	c0.1,0,0.2,0,0.3,0c1,0,2-0.6,2.3-1.6c0.1-0.2,0.1-0.4,0.1-0.6L802.4,347.2z"/>
<path class="st22" d="M806.9,345.6c0-1.2,0-2.2-0.1-3.1h1.6l0.1,1.6l0,0c0.7-1.2,2-1.9,3.4-1.9c2.3,0,4.1,2,4.1,4.9
	c0,3.5-2.1,5.2-4.4,5.2c-1.2,0.1-2.3-0.5-3-1.5l0,0v5.2h-1.7L806.9,345.6z M808.6,348.2c0,0.2,0,0.5,0.1,0.7c0.3,1.2,1.4,2.1,2.6,2
	c1.8,0,2.9-1.5,2.9-3.7c0-1.9-1-3.6-2.9-3.6c-1.3,0-2.4,0.9-2.7,2.2c-0.1,0.2-0.1,0.5-0.1,0.7V348.2z"/>
<path class="st22" d="M818.2,345.6c0-1.2,0-2.2-0.1-3.1h1.6l0.1,1.6l0,0c0.7-1.2,2-1.9,3.4-1.9c2.3,0,4.1,2,4.1,4.9
	c0,3.5-2.1,5.2-4.4,5.2c-1.2,0.1-2.3-0.5-3-1.5l0,0v5.2h-1.7L818.2,345.6z M819.9,348.2c0,0.2,0,0.5,0.1,0.7c0.3,1.2,1.4,2.1,2.6,2
	c1.8,0,2.9-1.5,2.9-3.7c0-1.9-1-3.6-2.9-3.6c-1.3,0-2.4,0.9-2.6,2.2c-0.1,0.2-0.1,0.5-0.1,0.7V348.2z"/>
<path class="st22" d="M829.5,338h1.8v14.1h-1.8V338z"/>
<path class="st22" d="M836.2,339.8c-0.1,0.6-0.6,1-1.2,1c-0.5,0-0.9-0.5-1-1c0-0.6,0.4-1.1,1-1.1c0,0,0,0,0.1,0c0.6,0,1,0.4,1.1,0.9
	C836.2,339.7,836.2,339.7,836.2,339.8z M834.2,352.1v-9.6h1.8v9.6H834.2z"/>
<path class="st22" d="M845.7,351.7c-0.9,0.4-1.8,0.6-2.8,0.5c-2.5,0.1-4.7-1.8-4.8-4.3c0-0.2,0-0.4,0-0.6c-0.1-2.7,2-5,4.7-5.1
	c0.2,0,0.3,0,0.5,0c0.8,0,1.7,0.2,2.4,0.5l-0.4,1.4c-0.6-0.3-1.3-0.5-2-0.5c-2,0.1-3.5,1.9-3.4,3.9c0.1,1.8,1.5,3.2,3.3,3.4
	c0.7,0,1.5-0.2,2.1-0.5L845.7,351.7z"/>
<path class="st22" d="M853.1,352.1l-0.1-1.2h-0.1c-0.7,0.9-1.8,1.5-2.9,1.4c-1.5,0.1-2.9-1-3-2.5c0-0.1,0-0.2,0-0.3
	c0-2.3,2.1-3.6,5.8-3.6v-0.2c0.1-1.1-0.6-2.1-1.7-2.2c-0.1,0-0.3,0-0.4,0c-0.9,0-1.7,0.3-2.5,0.7l-0.4-1.1c1-0.6,2-0.9,3.2-0.9
	c2.9,0,3.7,2,3.7,3.9v3.6c0,0.8,0,1.5,0.2,2.3H853.1z M852.8,347.2c-1.9,0-4.1,0.3-4.1,2.2c-0.1,0.9,0.6,1.6,1.4,1.7
	c0.1,0,0.2,0,0.2,0c1,0,2-0.6,2.3-1.6c0.1-0.2,0.1-0.4,0.1-0.6V347.2z"/>
<path class="st22" d="M859.4,339.7v2.8h2.5v1.3h-2.5v5.2c0,1.2,0.3,1.9,1.3,1.9c0.3,0,0.7,0,1-0.1l0.1,1.3c-0.5,0.2-1,0.3-1.6,0.2
	c-0.7,0-1.4-0.2-1.9-0.7c-0.5-0.7-0.8-1.6-0.7-2.5v-5.3h-1.5v-1.3h1.5v-2.3L859.4,339.7z"/>
<path class="st22" d="M865.8,339.8c-0.1,0.6-0.6,1-1.2,1c-0.5,0-0.9-0.5-1-1c0-0.6,0.4-1.1,1-1.1c0,0,0,0,0.1,0c0.6,0,1,0.4,1.1,0.9
	C865.8,339.7,865.8,339.7,865.8,339.8z M863.8,352.1v-9.6h1.8v9.6H863.8z"/>
<path class="st22" d="M877.2,347.2c0,3.6-2.5,5.1-4.8,5.1c-2.6,0-4.6-1.9-4.6-5c0-3.2,2.1-5.1,4.8-5.1S877.2,344.3,877.2,347.2z
	 M869.6,347.3c0,2.1,1.2,3.7,2.9,3.7s2.9-1.6,2.9-3.7c0-1.6-0.8-3.7-2.9-3.7S869.6,345.5,869.6,347.3L869.6,347.3z"/>
<path class="st22" d="M879.4,345.1c0-1,0-1.8-0.1-2.6h1.5l0.1,1.6l0,0c0.6-1.1,1.9-1.8,3.2-1.8c1.3,0,3.4,0.8,3.4,4.1v5.7h-1.8v-5.5
	c0-1.5-0.6-2.9-2.2-2.9c-1.1,0-2,0.7-2.3,1.8c-0.1,0.3-0.1,0.5-0.1,0.8v5.8h-1.8L879.4,345.1z"/>
<path class="st22" d="M348.6,393.1v5.6h6.5v-5.6h1.8v13.4h-1.8v-6.3h-6.5v6.3h-1.7v-13.4H348.6z"/>
<path class="st22" d="M365.1,406.5l-0.1-1.2h-0.1c-0.7,0.9-1.8,1.5-2.9,1.4c-1.5,0.1-2.8-1-3-2.5c0-0.1,0-0.1,0-0.2
	c0-2.3,2.1-3.6,5.8-3.6v-0.2c0.1-1.1-0.6-2.1-1.7-2.2c-0.1,0-0.3,0-0.4,0c-0.9,0-1.7,0.2-2.5,0.7l-0.4-1.1c1-0.6,2-0.9,3.2-0.9
	c2.9,0,3.7,2,3.7,3.9v3.6c0,0.8,0,1.5,0.2,2.3L365.1,406.5z M364.9,401.6c-1.9,0-4.1,0.3-4.1,2.2c-0.1,0.9,0.6,1.6,1.4,1.7
	c0.1,0,0.2,0,0.2,0c1,0,2-0.6,2.3-1.6c0.1-0.2,0.1-0.4,0.1-0.5V401.6z"/>
<path class="st22" d="M369.4,399.9c0-1.1,0-2.1-0.1-3h1.5l0.1,1.9h0.1c0.3-1.2,1.4-2.1,2.7-2.1c0.2,0,0.3,0,0.5,0.1v1.6
	c-0.2,0-0.4-0.1-0.6-0.1c-1.2,0-2.2,1-2.4,2.2c0,0.3-0.1,0.5-0.1,0.8v5.1h-1.7L369.4,399.9z"/>
<path class="st22" d="M376,399.5c0-1,0-1.8-0.1-2.6h1.5l0.1,1.6h0.1c0.6-1.1,1.7-1.8,3-1.8c1.2,0,2.3,0.8,2.7,1.9l0,0
	c0.3-0.5,0.6-0.9,1.1-1.3c0.6-0.5,1.4-0.7,2.1-0.7c1.3,0,3.2,0.8,3.2,4.2v5.7H388v-5.5c0-1.9-0.7-3-2.1-3c-1,0-1.8,0.7-2.1,1.6
	c-0.1,0.3-0.1,0.6-0.1,0.9v6H382v-5.8c0-1.5-0.7-2.6-2-2.6c-1.3,0.2-2.3,1.3-2.3,2.6v5.8H376V399.5z"/>
<path class="st22" d="M392.7,406.5v-8.3h-1.4v-1.3h1.4v-0.5c-0.1-1.2,0.3-2.4,1.1-3.4c0.6-0.6,1.5-0.9,2.4-0.9c0.5,0,1,0.1,1.5,0.3
	l-0.2,1.4c-0.3-0.2-0.7-0.2-1.1-0.2c-1.5,0-1.9,1.3-1.9,2.8v0.5h2.3v1.3h-2.3v8.3L392.7,406.5z"/>
<path class="st22" d="M406.4,403.9c0,1,0,1.9,0.1,2.6h-1.5l-0.1-1.6l0,0c-0.7,1.1-1.9,1.8-3.2,1.8c-1.5,0-3.3-0.8-3.3-4.2v-5.6h1.7
	v5.3c0,1.8,0.5,3.1,2.1,3.1c1,0,1.9-0.6,2.3-1.6c0.1-0.3,0.2-0.6,0.2-0.9v-5.9h1.8L406.4,403.9z"/>
<path class="st22" d="M409.3,392.4h1.8v14.1h-1.8V392.4z"/>
<path class="st22" d="M418.2,399.9c0-1.1,0-2.1-0.1-3h1.5l0.1,1.9h0.1c0.3-1.2,1.4-2.1,2.7-2.1c0.2,0,0.3,0,0.5,0.1v1.6
	c-0.2,0-0.4-0.1-0.6-0.1c-1.2,0-2.2,1-2.3,2.2c0,0.3-0.1,0.5-0.1,0.8v5.1h-1.7V399.9z"/>
<path class="st22" d="M425.5,402c-0.1,1.7,1.1,3.2,2.8,3.3c0.2,0,0.3,0,0.5,0c0.9,0,1.8-0.1,2.7-0.5l0.3,1.3c-1,0.4-2.1,0.6-3.2,0.6
	c-3,0-4.7-2-4.7-4.9s1.7-5.2,4.5-5.2c3.1,0,4,2.8,4,4.5c0,0.3,0,0.5-0.1,0.8H425.5z M430.6,400.8c0-1.1-0.5-2.8-2.4-2.8
	c-1.8,0-2.5,1.6-2.7,2.8H430.6z"/>
<path class="st22" d="M441,405L441,405c-0.6,1.1-1.9,1.8-3.1,1.7c-2.3,0-4.1-2-4.1-4.9c0-3.6,2.3-5.2,4.4-5.2c1.2-0.1,2.4,0.6,3,1.7
	l0,0l0.1-1.5h1.6c0,0.8-0.1,1.6-0.1,2.6v10.9H441V405z M441,400.8c0-0.3,0-0.5,0-0.8c-0.3-1.2-1.3-2-2.5-2c-1.8,0-2.9,1.5-2.9,3.7
	c0,1.9,0.9,3.6,2.9,3.6c1.2,0,2.2-0.8,2.5-1.9c0.1-0.3,0.1-0.6,0.1-0.8L441,400.8z"/>
<path class="st22" d="M453.7,403.9c0,1,0,1.9,0.1,2.6h-1.5l-0.1-1.6l0,0c-0.7,1.1-1.9,1.8-3.2,1.8c-1.5,0-3.3-0.8-3.3-4.2v-5.6h1.8
	v5.3c0,1.8,0.6,3.1,2.1,3.1c1,0,1.9-0.6,2.3-1.6c0.1-0.3,0.2-0.6,0.1-0.9v-5.9h1.8L453.7,403.9z"/>
<path class="st22" d="M457.6,402c-0.1,1.7,1.1,3.2,2.8,3.3c0.2,0,0.3,0,0.5,0c0.9,0,1.8-0.1,2.7-0.5l0.3,1.3c-1,0.4-2.1,0.6-3.2,0.6
	c-3,0-4.7-2-4.7-4.9s1.7-5.2,4.5-5.2c3.1,0,4,2.8,4,4.5c0,0.3,0,0.5-0.1,0.8H457.6z M462.7,400.8c0-1.1-0.5-2.8-2.4-2.8
	c-1.8,0-2.5,1.6-2.7,2.8H462.7z"/>
<path class="st22" d="M466.3,404.7c0.7,0.4,1.5,0.7,2.3,0.7c1.3,0,1.9-0.6,1.9-1.4s-0.5-1.3-1.8-1.8c-1.7-0.6-2.5-1.6-2.5-2.7
	c0-1.5,1.3-2.8,3.3-2.8c0.8,0,1.6,0.2,2.4,0.6l-0.4,1.3c-0.6-0.4-1.3-0.6-2-0.5c-1,0-1.6,0.6-1.6,1.3s0.6,1.1,1.8,1.6
	c1.7,0.6,2.5,1.5,2.5,2.9c0,1.7-1.3,2.9-3.6,2.9c-0.9,0-1.9-0.2-2.7-0.7L466.3,404.7z"/>
<path class="st22" d="M476.6,394.1v2.8h2.5v1.3h-2.5v5.2c0,1.2,0.3,1.9,1.3,1.9c0.3,0,0.7,0,1-0.1l0.1,1.3c-0.5,0.2-1,0.3-1.5,0.2
	c-0.7,0-1.4-0.2-1.9-0.7c-0.5-0.7-0.8-1.6-0.7-2.5v-5.3h-1.5v-1.3h1.5v-2.3L476.6,394.1z"/>
<path class="st22" d="M480.8,404.7c0.7,0.4,1.5,0.7,2.3,0.7c1.3,0,1.9-0.6,1.9-1.4s-0.5-1.3-1.8-1.8c-1.7-0.6-2.5-1.6-2.5-2.7
	c0-1.5,1.3-2.8,3.3-2.8c0.8,0,1.6,0.2,2.4,0.6l-0.4,1.3c-0.6-0.4-1.3-0.6-2-0.5c-1,0-1.6,0.6-1.6,1.3s0.6,1.1,1.8,1.6
	c1.7,0.6,2.5,1.5,2.5,2.9c0,1.7-1.3,2.9-3.6,2.9c-0.9,0-1.9-0.2-2.7-0.7L480.8,404.7z"/>
<path class="st22" d="M498.5,406.5l-0.1-1.2h-0.1c-0.7,0.9-1.8,1.5-3,1.4c-1.5,0.1-2.8-1-2.9-2.6c0-0.1,0-0.1,0-0.2
	c0-2.3,2.1-3.6,5.8-3.6v-0.2c0.1-1.1-0.7-2.1-1.8-2.2c-0.1,0-0.2,0-0.3,0c-0.9,0-1.7,0.2-2.5,0.7l-0.4-1.1c1-0.6,2-0.9,3.2-0.9
	c2.9,0,3.7,2,3.7,3.9v3.6c0,0.8,0,1.5,0.2,2.3L498.5,406.5z M498.2,401.6c-1.9,0-4.1,0.3-4.1,2.2c-0.1,0.9,0.6,1.6,1.4,1.7
	c0.1,0,0.2,0,0.2,0c1,0,2-0.6,2.3-1.6c0.1-0.2,0.1-0.4,0.1-0.5V401.6z"/>
<path class="st22" d="M502.7,399.9c0-1.1,0-2.1-0.1-3h1.5l0.1,1.9h0.1c0.3-1.2,1.4-2.1,2.7-2.1c0.2,0,0.3,0,0.5,0.1v1.6
	c-0.2,0-0.4-0.1-0.6-0.1c-1.2,0.1-2.2,1-2.3,2.2c0,0.3-0.1,0.5-0.1,0.8v5.1h-1.7V399.9z"/>
<path class="st22" d="M510,402c-0.1,1.7,1.1,3.2,2.8,3.3c0.2,0,0.3,0,0.5,0c0.9,0,1.8-0.1,2.7-0.5l0.3,1.3c-1,0.4-2.1,0.6-3.2,0.6
	c-3,0-4.7-2-4.7-4.9s1.7-5.2,4.5-5.2c3.1,0,4,2.8,4,4.5c0,0.3,0,0.5-0.1,0.8H510z M515.1,400.8c0-1.1-0.5-2.8-2.4-2.8
	c-1.8,0-2.5,1.6-2.7,2.8H515.1z"/>
<path class="st22" d="M525.1,394.2c-0.1,0.6-0.6,1-1.2,1c-0.5,0-0.9-0.5-1-1c0-0.6,0.4-1.1,1-1.1c0,0,0,0,0.1,0c0.6,0,1,0.4,1.1,0.9
	C525.1,394.1,525.1,394.1,525.1,394.2z M523.1,406.5v-9.6h1.8v9.6H523.1z"/>
<path class="st22" d="M536.1,392.4V404c0,0.9,0,1.8,0.1,2.5h-1.6l-0.1-1.7l0,0c-0.6,1.2-1.9,1.9-3.3,1.9c-2.3,0-4.1-2-4.1-4.9
	c0-3.2,2-5.2,4.3-5.2c1.2-0.1,2.3,0.5,2.9,1.5l0,0v-5.8L536.1,392.4z M534.4,400.8c0-0.2,0-0.5-0.1-0.7c-0.3-1.2-1.3-2-2.5-2
	c-1.8,0-2.9,1.6-2.9,3.7c0,1.9,1,3.5,2.8,3.5c1.2,0,2.3-0.9,2.6-2.1c0.1-0.2,0.1-0.5,0.1-0.8L534.4,400.8z"/>
<path class="st22" d="M540,402c-0.1,1.7,1.1,3.2,2.8,3.3c0.2,0,0.3,0,0.5,0c0.9,0,1.8-0.1,2.7-0.5l0.3,1.3c-1,0.4-2.1,0.6-3.2,0.6
	c-3,0-4.7-2-4.7-4.9s1.7-5.2,4.5-5.2c3.1,0,4,2.8,4,4.5c0,0.3,0,0.5-0.1,0.8H540z M545.1,400.8c0-1.1-0.5-2.8-2.4-2.8
	c-1.5,0.1-2.7,1.3-2.7,2.8H545.1z"/>
<path class="st22" d="M549,399.5c0-1,0-1.8-0.1-2.6h1.5l0.1,1.6l0,0c0.6-1.1,1.9-1.8,3.2-1.8c1.3,0,3.4,0.8,3.4,4.1v5.8h-1.8V401
	c0-1.5-0.6-2.8-2.2-2.8c-1.4,0.1-2.5,1.2-2.5,2.6v5.8H549V399.5z"/>
<path class="st22" d="M562.1,394.1v2.8h2.5v1.3h-2.5v5.2c0,1.2,0.3,1.9,1.3,1.9c0.3,0,0.7,0,1-0.1l0.1,1.3c-0.5,0.2-1,0.3-1.5,0.2
	c-0.7,0.1-1.4-0.2-1.9-0.7c-0.5-0.7-0.8-1.6-0.7-2.5v-5.3h-1.5v-1.3h1.5v-2.3L562.1,394.1z"/>
<path class="st22" d="M568.5,394.2c0,0.6-0.4,1-0.9,1.1c-0.1,0-0.1,0-0.2,0c-0.6,0-1-0.4-1-1c0,0,0,0,0-0.1c0-0.6,0.4-1.1,1-1.1
	c0,0,0,0,0.1,0c0.6,0,1,0.4,1,1C568.5,394.1,568.5,394.1,568.5,394.2z M566.5,406.5v-9.6h1.8v9.6H566.5z"/>
<path class="st22" d="M571.4,406.5v-8.3H570v-1.3h1.4v-0.5c-0.2-2.1,1.4-4,3.5-4.2c0.2,0,0.5,0,0.7,0c0.9,0,1.7,0.2,2.5,0.6
	l-0.5,1.3c-0.6-0.4-1.3-0.6-2-0.6c-1.8,0-2.4,1.3-2.4,2.8v0.5h5.6v9.6H577v-8.3h-3.9v8.3L571.4,406.5z"/>
<path class="st22" d="M582.6,402c-0.1,1.7,1.1,3.2,2.8,3.3c0.2,0,0.3,0,0.5,0c0.9,0,1.8-0.1,2.7-0.5l0.3,1.3c-1,0.4-2.1,0.6-3.2,0.6
	c-3,0-4.7-2-4.7-4.9s1.7-5.2,4.5-5.2c3.1,0,4,2.8,4,4.5c0,0.3,0,0.5-0.1,0.8H582.6z M587.7,400.8c0-1.1-0.5-2.8-2.4-2.8
	c-1.8,0-2.5,1.6-2.7,2.8H587.7z"/>
<path class="st22" d="M599.9,392.4V404c0,0.9,0,1.8,0.1,2.5h-1.6l-0.1-1.7l0,0c-0.6,1.2-1.9,1.9-3.3,1.9c-2.3,0-4.1-2-4.1-4.9
	c0-3.2,2-5.2,4.3-5.2c1.2-0.1,2.3,0.5,2.9,1.5l0,0v-5.8L599.9,392.4z M598.1,400.8c0-0.2,0-0.5-0.1-0.7c-0.3-1.2-1.3-2-2.5-2
	c-1.8,0-2.9,1.6-2.9,3.7c0,1.9,1,3.5,2.8,3.5c1.2,0,2.3-0.9,2.6-2.1c0.1-0.2,0.1-0.5,0.1-0.8V400.8z"/>
<path class="st22" d="M429.1,430.4l-0.1-1.2h-0.1c-0.7,0.9-1.8,1.5-2.9,1.4c-1.5,0.1-2.8-1-2.9-2.5c0-0.1,0-0.2,0-0.2
	c0-2.3,2.1-3.6,5.8-3.6V424c0.1-1.1-0.6-2.1-1.7-2.2c-0.1,0-0.3,0-0.4,0c-0.9,0-1.8,0.3-2.5,0.7l-0.4-1.1c1-0.6,2.1-0.9,3.2-0.9
	c2.9,0,3.6,2,3.6,3.9v3.6c0,0.8,0,1.5,0.2,2.3L429.1,430.4z M428.8,425.4c-1.9,0-4.1,0.3-4.1,2.2c-0.1,0.9,0.6,1.6,1.4,1.7
	c0.1,0,0.2,0,0.2,0c1,0,2-0.6,2.3-1.6c0.1-0.2,0.1-0.4,0.1-0.6V425.4z"/>
<path class="st22" d="M433.4,423.3c0-1,0-1.8-0.1-2.6h1.5l0.1,1.6l0,0c0.6-1.1,1.9-1.8,3.2-1.8c1.3,0,3.4,0.8,3.4,4.1v5.7h-1.8v-5.5
	c0-1.5-0.6-2.9-2.2-2.9c-1.1,0-2,0.7-2.3,1.8c-0.1,0.3-0.1,0.5-0.1,0.8v5.8h-1.8L433.4,423.3z"/>
<path class="st22" d="M452.7,416.2v11.6c0,0.9,0,1.8,0.1,2.5h-1.6l-0.1-1.7l0,0c-0.6,1.2-1.9,1.9-3.3,1.9c-2.3,0-4.1-2-4.1-4.9
	c0-3.2,2-5.2,4.3-5.2c1.2-0.1,2.3,0.5,2.9,1.5l0,0v-5.7H452.7z M450.9,424.6c0-0.2,0-0.5-0.1-0.7c-0.3-1.2-1.3-2-2.5-2
	c-1.8,0-2.9,1.6-2.9,3.7c0,2,1,3.6,2.9,3.6c1.2,0,2.3-0.9,2.6-2.1c0.1-0.2,0.1-0.5,0.1-0.8V424.6z"/>
<path class="st22" d="M459.7,430.4c0-0.6,0.1-1.6,0.1-2.5v-11.6h1.7v6l0,0c0.7-1.2,1.9-1.8,3.3-1.8c2.4,0,4.1,2,4,4.9
	c0,3.4-2.2,5.1-4.3,5.1c-1.3,0.1-2.6-0.6-3.2-1.8h-0.1l-0.1,1.6L459.7,430.4z M461.5,426.5c0,0.2,0,0.4,0.1,0.6
	c0.3,1.2,1.4,2.1,2.6,2c1.8,0,2.9-1.5,2.9-3.7c0-1.9-1-3.6-2.9-3.6c-1.3,0-2.4,0.9-2.7,2.1c-0.1,0.2-0.1,0.5-0.1,0.7V426.5z"/>
<path class="st22" d="M471.1,416.2h1.8v14.1h-1.8V416.2z"/>
<path class="st22" d="M484.5,425.5c0,3.6-2.5,5.1-4.8,5.1c-2.6,0-4.6-1.9-4.6-5c0-3.2,2.1-5.1,4.8-5.1S484.5,422.5,484.5,425.5z
	 M476.9,425.6c0,2.1,1.2,3.7,2.9,3.7s2.9-1.6,2.9-3.7c0-1.6-0.8-3.7-2.9-3.7S476.9,423.7,476.9,425.6L476.9,425.6z"/>
<path class="st22" d="M493.6,430c-0.9,0.4-1.8,0.6-2.8,0.5c-2.5,0.1-4.7-1.8-4.8-4.3c0-0.2,0-0.4,0-0.6c-0.1-2.7,2-5,4.7-5.1
	c0.2,0,0.3,0,0.5,0c0.8,0,1.7,0.2,2.4,0.5l-0.4,1.4c-0.6-0.3-1.3-0.5-2-0.5c-2,0.1-3.5,1.9-3.4,3.9c0.1,1.8,1.5,3.2,3.3,3.4
	c0.7,0,1.5-0.2,2.1-0.5L493.6,430z"/>
<path class="st22" d="M497.4,425.1L497.4,425.1c0.2-0.3,0.6-0.8,0.9-1.1l2.8-3.3h2.1l-3.7,4l4.2,5.7h-2.1l-3.3-4.6l-0.9,1v3.6h-1.7
	v-14.1h1.7L497.4,425.1z"/>
<path class="st22" d="M505.9,425.9c-0.1,1.7,1.1,3.2,2.8,3.3c0.2,0,0.3,0,0.5,0c0.9,0,1.8-0.1,2.7-0.5l0.3,1.3
	c-1,0.4-2.1,0.6-3.2,0.6c-3,0-4.7-2-4.7-4.9s1.7-5.2,4.5-5.2c3.1,0,4,2.8,4,4.5c0,0.3,0,0.5-0.1,0.8H505.9z M511.1,424.6
	c0-1.1-0.5-2.8-2.4-2.8c-1.8,0-2.5,1.6-2.7,2.8H511.1z"/>
<path class="st22" d="M523.2,416.2v11.6c0,0.9,0,1.8,0.1,2.5h-1.6l-0.1-1.7l0,0c-0.6,1.2-1.9,1.9-3.3,1.9c-2.3,0-4.1-2-4.1-4.9
	c0-3.2,2-5.2,4.3-5.2c1.2-0.1,2.3,0.5,2.9,1.5l0,0v-5.7H523.2z M521.5,424.6c0-0.2,0-0.5-0.1-0.7c-0.3-1.2-1.3-2-2.5-2
	c-1.8,0-2.9,1.6-2.9,3.7c0,2,1,3.6,2.8,3.6c1.2,0,2.3-0.9,2.6-2.1c0.1-0.2,0.1-0.5,0.1-0.8V424.6z"/>
<path class="st22" d="M525.5,429.3c0-0.7,0.5-1.2,1.1-1.2c0,0,0.1,0,0.1,0c0.7,0,1.3,0.5,1.3,1.2c0,0.7-0.5,1.3-1.2,1.3
	C526.1,430.6,525.5,430.1,525.5,429.3C525.5,429.4,525.5,429.3,525.5,429.3z"/>
<path class="st22" d="M336.6,358.2h2.9l3.6,12.6l2.4-12.6h3.7l-4.4,18.9h-3.4l-3.4-13.2l-3.5,13.2h-3.4l-4.4-18.9h3.7l2.4,12.6
	L336.6,358.2z"/>
<path class="st22" d="M352.4,376.6c-0.9-0.5-1.6-1.2-2.1-2.1c-0.5-1-0.8-2.1-0.7-3.3v-1.5c0-1.2,0.2-2.3,0.7-3.4
	c0.4-0.9,1.1-1.7,2-2.1c1-0.5,2.1-0.8,3.2-0.7c1.1,0,2.1,0.3,3,0.9c0.9,0.6,1.5,1.5,1.9,2.6c0.5,1.3,0.7,2.7,0.7,4v0.9h-9.2v-2.4h6
	v-0.3c0-0.7-0.3-1.3-0.7-1.8c-0.4-0.4-1-0.7-1.6-0.6c-0.7,0-1.5,0.2-2,0.8c-0.5,0.6-0.8,1.4-0.7,2.2v1.7c0,0.8,0.2,1.6,0.8,2.1
	c0.6,0.5,1.4,0.8,2.2,0.8c0.5,0,1-0.1,1.4-0.3c0.5-0.2,0.9-0.4,1.3-0.7l2.3,2.1c-0.7,0.6-1.5,1.1-2.4,1.5c-0.8,0.3-1.7,0.5-2.6,0.5
	C354.6,377.3,353.4,377.1,352.4,376.6z"/>
<path class="st22" d="M364.2,358.2h3.6v18.9h-3.6V358.2z M368.8,376.7c-0.6-0.4-1-1-1.3-1.7l0.2-3.1c0,0.4,0.1,0.8,0.2,1.1
	c0.2,0.3,0.4,0.6,0.7,0.7c0.3,0.2,0.7,0.3,1.1,0.3c0.6,0,1.2-0.2,1.5-0.7c0.4-0.5,0.6-1.2,0.5-1.9v-2.1c0-0.7-0.2-1.4-0.5-1.9
	c-0.4-0.5-1-0.7-1.5-0.7c-0.4,0-0.7,0.1-1.1,0.3c-0.3,0.2-0.5,0.4-0.7,0.7c-0.2,0.4-0.2,0.8-0.2,1.2l-0.3-3c0.3-0.7,0.8-1.4,1.4-1.8
	c0.6-0.4,1.3-0.7,2-0.6c1.8-0.1,3.4,1,4,2.7c0.4,1,0.6,2.1,0.5,3.2v2.2c0,1.1-0.2,2.1-0.5,3.1c-0.3,0.8-0.8,1.5-1.5,2
	c-0.7,0.5-1.6,0.7-2.5,0.7C370.2,377.3,369.4,377.1,368.8,376.7z"/>
<path class="st22" d="M391.5,358.2h2.3l7.2,18.9h-3.8l-4.5-12.9l-4.5,12.9h-3.8L391.5,358.2z M387.7,370.7h9.9v3.4h-9.9V370.7z"/>
<path class="st22" d="M403,363.6h3.5v19H403V363.6z M407.6,376.7c-0.6-0.4-1-1-1.3-1.7l0.2-3.1c0,0.4,0.1,0.8,0.2,1.1
	c0.1,0.3,0.4,0.6,0.7,0.7c0.3,0.2,0.7,0.3,1.1,0.3c0.6,0,1.2-0.2,1.6-0.7c0.4-0.5,0.6-1.2,0.5-1.9v-2.1c0-0.7-0.2-1.4-0.5-1.9
	c-0.4-0.5-1-0.7-1.6-0.7c-0.4,0-0.7,0.1-1.1,0.3c-0.3,0.2-0.5,0.4-0.7,0.7c-0.2,0.4-0.3,0.8-0.2,1.2l-0.3-3c0.3-0.7,0.8-1.4,1.4-1.8
	c0.6-0.4,1.3-0.7,2-0.6c1.8-0.1,3.4,1,4,2.7c0.4,1,0.6,2.1,0.5,3.2v2.2c0,1.1-0.2,2.1-0.5,3.1c-0.6,1.7-2.2,2.8-4,2.7
	C409,377.3,408.3,377.1,407.6,376.7L407.6,376.7z"/>
<path class="st22" d="M417.5,363.6h3.5v19h-3.6L417.5,363.6z M422.1,376.7c-0.6-0.4-1-1-1.3-1.7l0.2-3.1c0,0.4,0.1,0.8,0.2,1.1
	c0.1,0.3,0.4,0.6,0.7,0.7c0.3,0.2,0.7,0.3,1.1,0.2c0.6,0,1.2-0.2,1.5-0.7c0.4-0.5,0.6-1.2,0.5-1.9v-2.1c0-0.7-0.2-1.4-0.5-1.9
	c-0.4-0.5-1-0.7-1.5-0.7c-0.4,0-0.8,0.1-1.1,0.3c-0.3,0.2-0.5,0.4-0.7,0.7c-0.2,0.4-0.2,0.8-0.2,1.2l-0.3-3c0.3-0.7,0.8-1.4,1.4-1.8
	c0.6-0.4,1.3-0.7,2-0.6c0.9,0,1.7,0.2,2.4,0.7c0.7,0.5,1.3,1.2,1.6,2c0.4,1,0.6,2.1,0.5,3.2v2.2c0,1.1-0.2,2.1-0.5,3.1
	c-0.3,0.8-0.9,1.5-1.6,2c-0.7,0.5-1.6,0.7-2.4,0.7C423.4,377.3,422.7,377.1,422.1,376.7z"/>
<path class="st22" d="M435.5,372.7c0,0.3,0.1,0.6,0.3,0.8c0.2,0.2,0.5,0.3,0.8,0.3h0.6v3.4h-1.8c-0.9,0.1-1.8-0.3-2.5-0.9
	c-0.6-0.7-1-1.7-0.9-2.6v-15.3h3.6V372.7z"/>
<path class="st22" d="M439.4,358.2h3.6v3.6h-3.6V358.2z M439.4,363.6h3.6v13.5h-3.6V363.6z"/>
<path class="st22" d="M448.7,376.6c-0.9-0.5-1.6-1.2-2.1-2.1c-0.5-1.1-0.7-2.2-0.7-3.4v-1.4c0-1.2,0.2-2.3,0.7-3.3
	c0.5-0.9,1.2-1.6,2.1-2.1c1-0.5,2.1-0.8,3.3-0.7c0.7,0,1.4,0.1,2.1,0.3c0.6,0.2,1.2,0.4,1.8,0.7c0.5,0.3,0.9,0.7,1.3,1.2l-2.3,2.2
	c-0.3-0.3-0.7-0.6-1.1-0.7c-0.4-0.2-0.9-0.3-1.4-0.3c-0.8,0-1.5,0.2-2.1,0.7c-0.5,0.5-0.8,1.3-0.7,2v1.4c-0.1,0.8,0.2,1.5,0.7,2.1
	c0.6,0.5,1.3,0.8,2.1,0.7c0.5,0,1-0.1,1.4-0.3c0.4-0.2,0.8-0.4,1.1-0.8l2.3,2.4c-0.4,0.5-0.8,0.8-1.3,1.1c-0.5,0.3-1.1,0.6-1.8,0.7
	c-0.7,0.2-1.4,0.2-2.1,0.2C450.9,377.3,449.7,377.1,448.7,376.6z"/>
<path class="st22" d="M460,376.3c-0.8-0.9-1.2-2-1.1-3.1c-0.1-1.1,0.4-2.2,1.2-3c1-0.7,2.3-1.1,3.6-1h3.4l0.2,2.7h-3.5
	c-0.4,0-0.9,0.1-1.2,0.3c-0.3,0.2-0.4,0.6-0.4,1c0,0.4,0.2,0.8,0.5,1c0.5,0.2,1,0.4,1.5,0.3c0.7,0,1.4-0.1,2.1-0.3
	c0.4-0.2,0.7-0.6,0.7-1l0.3,2c-0.1,0.5-0.3,0.9-0.7,1.2c-0.4,0.4-0.9,0.6-1.5,0.8c-0.6,0.2-1.2,0.3-1.9,0.3
	C462.1,377.5,460.9,377.1,460,376.3z M467,368.6c0-0.6-0.2-1.1-0.6-1.4c-0.5-0.4-1.1-0.6-1.8-0.5c-0.5,0-1,0.1-1.5,0.3
	c-0.5,0.2-0.9,0.4-1.3,0.7l-2.2-2.2c0.6-0.6,1.3-1.1,2.1-1.4c0.9-0.3,1.9-0.5,2.9-0.5c1,0,2.1,0.2,3,0.6c0.8,0.4,1.5,1,1.9,1.7
	c0.5,0.8,0.7,1.8,0.7,2.7v8.7H467V368.6z"/>
<path class="st22" d="M472.7,363.6h6.6v3h-6.6V363.6z M474.9,376.3c-0.6-0.8-0.9-1.7-0.8-2.7v-13.9h3.6v13c0,0.3,0.1,0.5,0.2,0.8
	c0.1,0.2,0.3,0.3,0.6,0.3h0.9v3.4h-1.8C476.5,377.3,475.6,376.9,474.9,376.3L474.9,376.3z"/>
<path class="st22" d="M482.2,358.2h3.6v3.6h-3.6V358.2z M482.2,363.6h3.6v13.5h-3.6V363.6z"/>
<path class="st22" d="M491.3,376.6c-0.9-0.4-1.6-1.1-2-2c-0.5-1-0.7-2.1-0.7-3.2v-2.2c0-1.1,0.2-2.2,0.7-3.1c0.4-0.9,1.1-1.6,2-2
	c2-0.9,4.3-0.9,6.3,0c0.9,0.4,1.6,1.1,2,2c0.5,1,0.7,2,0.7,3.1v2.2c0,1.1-0.2,2.2-0.7,3.1c-0.4,0.9-1.1,1.6-2,2
	C495.6,377.5,493.3,377.5,491.3,376.6L491.3,376.6z M496.1,373.3c0.4-0.5,0.6-1.1,0.6-1.8v-2.2c0-0.6-0.2-1.3-0.6-1.8
	c-0.4-0.4-1.1-0.7-1.7-0.6c-0.6,0-1.2,0.2-1.7,0.6c-0.4,0.5-0.6,1.1-0.6,1.8v2.2c0,0.6,0.2,1.3,0.6,1.8c0.4,0.4,1,0.7,1.7,0.6
	C495.1,373.9,495.7,373.7,496.1,373.3L496.1,373.3z"/>
<path class="st22" d="M503.5,363.6h3.6v13.5h-3.6V363.6z M511.3,368.9c0-0.6-0.2-1.1-0.6-1.5c-0.4-0.4-1-0.6-1.6-0.5
	c-0.6,0-1.1,0.2-1.5,0.5c-0.4,0.4-0.6,1-0.5,1.5l-0.3-3c0.3-0.7,0.8-1.4,1.5-1.9c0.6-0.4,1.4-0.7,2.1-0.6c1.3-0.1,2.5,0.5,3.3,1.4
	c0.8,1.2,1.3,2.6,1.2,4.1v8.2h-3.6V368.9z"/>
<path class="st22" d="M525.8,358.2h3.5v18.9h-3.5V358.2z M527.1,358.2h11.1v3.4h-11.1L527.1,358.2z M527.1,366.2h9.7v3.4h-9.7V366.2
	z"/>
<path class="st22" d="M540.6,358.2h3.6v3.6h-3.6V358.2z M540.6,363.6h3.6v13.5h-3.6V363.6z"/>
<path class="st22" d="M547.5,363.6h3.8v13.5h-3.8V363.6z M554.4,367c-0.3-0.1-0.6-0.1-0.9-0.1c-0.6,0-1.2,0.2-1.7,0.7
	c-0.4,0.6-0.6,1.2-0.6,1.9L551,366c0.3-0.7,0.8-1.4,1.5-1.9c0.6-0.4,1.2-0.7,2-0.7c0.5,0,1,0.1,1.5,0.3c0.4,0.2,0.9,0.4,1.2,0.8
	l-2.1,2.9C554.9,367.2,554.7,367.1,554.4,367z"/>
<path class="st22" d="M561,376.6c-0.9-0.5-1.6-1.2-2.1-2.1c-0.5-1-0.8-2.1-0.7-3.3v-1.5c0-1.2,0.2-2.3,0.7-3.4
	c0.4-0.9,1.1-1.7,2-2.1c1-0.5,2.1-0.8,3.2-0.7c1.1,0,2.1,0.3,3,0.9c0.9,0.6,1.6,1.5,1.9,2.6c0.5,1.3,0.7,2.7,0.7,4v0.9h-9.2v-2.4h6
	v-0.3c0-0.7-0.3-1.3-0.7-1.8c-0.4-0.4-1-0.7-1.6-0.6c-0.7,0-1.5,0.2-2,0.8c-0.5,0.6-0.8,1.4-0.7,2.2v1.7c0,0.8,0.2,1.6,0.8,2.1
	c0.6,0.5,1.4,0.8,2.2,0.8c0.5,0,1-0.1,1.4-0.3c0.5-0.2,0.9-0.4,1.3-0.7l2.3,2.1c-0.7,0.6-1.5,1.1-2.4,1.5c-0.8,0.3-1.7,0.5-2.7,0.5
	C563.2,377.3,562,377.1,561,376.6z"/>
<path class="st22" d="M571.1,363.6h3.4l2.4,8.3l2.8-8.3h2.1l2.8,8.3l2.4-8.3h3.4l-4.2,13.5h-2.7l-2.9-8.8l-2.9,8.8h-2.7L571.1,363.6
	z"/>
<path class="st22" d="M593.3,376.3c-0.8-0.9-1.2-2-1.1-3.1c-0.1-1.1,0.4-2.2,1.2-3c1-0.7,2.3-1.1,3.6-1h3.4l0.2,2.7H597
	c-0.4,0-0.9,0.1-1.2,0.3c-0.3,0.2-0.4,0.6-0.4,1c0,0.4,0.2,0.8,0.5,1c0.5,0.2,1,0.4,1.5,0.3c0.7,0,1.4-0.1,2.1-0.3
	c0.4-0.2,0.7-0.6,0.7-1l0.3,2c-0.1,0.5-0.3,0.9-0.7,1.2c-0.4,0.4-0.9,0.6-1.5,0.8c-0.6,0.2-1.2,0.3-1.9,0.3
	C595.3,377.5,594.2,377.1,593.3,376.3z M600.3,368.6c0-0.6-0.2-1.1-0.6-1.4c-0.5-0.4-1.1-0.6-1.8-0.5c-0.5,0-1,0.1-1.5,0.3
	c-0.5,0.2-0.9,0.4-1.3,0.7l-2.2-2.2c0.6-0.6,1.3-1.1,2.1-1.4c0.9-0.4,1.9-0.5,2.9-0.5c1,0,2.1,0.2,3,0.6c0.8,0.4,1.5,1,1.9,1.7
	c0.5,0.8,0.7,1.8,0.7,2.7v8.7h-3.2L600.3,368.6z"/>
<path class="st22" d="M610.6,372.7c0,0.3,0.1,0.6,0.3,0.8c0.2,0.2,0.5,0.3,0.8,0.3h0.6v3.4h-1.8c-0.9,0.1-1.8-0.3-2.5-0.9
	c-0.6-0.7-1-1.7-0.9-2.6v-15.3h3.6V372.7z"/>
<path class="st22" d="M618.3,372.7c0,0.3,0.1,0.6,0.3,0.8c0.2,0.2,0.5,0.3,0.8,0.3h0.6v3.4h-1.8c-0.9,0.1-1.8-0.3-2.5-0.9
	c-0.6-0.7-1-1.7-0.9-2.6v-15.3h3.6V372.7z"/>
</svg>
