<svg id="Layer_1" data-name="Layer 1" xmlns="http://www.w3.org/2000/svg" viewBox="0 0 1080 1080"><defs><style>.cls-1{fill:#dd0c15;}.cls-2{fill:#d81516;}.cls-3{fill:#b41d1c;}.cls-4{fill:#e85756;}</style></defs><title>Varients</title><path class="cls-1" d="M41.94,167.07a92,92,0,0,0-27.07,65.24V847.69a92,92,0,0,0,27.07,65.24l47-16.2L421.12,564.52,414.87,540l3.95-26.82L109.09,203.45Z"/><path class="cls-2" d="M665.13,540,660,565.63,978.87,884.51l59.19,28.42a92,92,0,0,0,27.07-65.24V232.31a92,92,0,0,0-27.07-65.24l-54.18,23.41-326,326Z"/><path class="cls-3" d="M1038.06,912.92A92.65,92.65,0,0,1,972.82,940H107.18a92.65,92.65,0,0,1-65.24-27.08L414.87,540l18.47-12.31,62.91,60.54a64.8,64.8,0,0,0,90.75-.87l51-51.05L665.13,540Z"/><path class="cls-4" d="M1038.06,167.08,587.68,617.45a64.8,64.8,0,0,1-91.45.18L41.94,167.08A92.65,92.65,0,0,1,107.18,140H972.82A92.65,92.65,0,0,1,1038.06,167.08Z"/></svg>