<svg id="Layer_1" data-name="Layer 1" xmlns="http://www.w3.org/2000/svg" viewBox="0 0 1080 1080"><defs><style>.cls-1{fill:#db1215;}.cls-2{fill:#b41d1c;}</style></defs><title>Varients</title><path class="cls-1" d="M1040,788.7V939.24A100.45,100.45,0,0,1,939.82,1040c-3.16,0-6.31-.12-9.47-.41A996.3,996.3,0,0,1,496.43,885.53,979.58,979.58,0,0,1,194.76,584.44a991.55,991.55,0,0,1-154.35-435,100.41,100.41,0,0,1,91.1-109c3-.28,6-.41,9-.41H291.31a100.47,100.47,0,0,1,100.55,86.31,644.08,644.08,0,0,0,35.19,141A100.21,100.21,0,0,1,404.43,373.2l-63.86,63.72A803.75,803.75,0,0,0,642.25,738l63.86-63.72A100.7,100.7,0,0,1,812.2,651.7a646.42,646.42,0,0,0,141.29,35.12A100.43,100.43,0,0,1,1040,788.7Z"/><path class="cls-2" d="M143.44,333.11a17.25,17.25,0,0,1-16.51-12.31A984.68,984.68,0,0,1,91.84,143.94c-1.55-17.38,7.31-30,11.19-34.67a48.66,48.66,0,0,1,33.14-17.33q2.15-.21,4.29-.21H281.38a17.25,17.25,0,0,1,0,34.49H140.48c-6.41.51-9.55,3.44-11,5.13-.88,1.07-3.73,4.85-3.33,9.23A949.06,949.06,0,0,0,160,310.94a17.25,17.25,0,0,1-11.59,21.45A17,17,0,0,1,143.44,333.11Z"/><path class="cls-2" d="M939.61,988.29c-.41,0-3.29-.07-4.71-.21-61.31-6.65-120.33-18.41-175.69-35a17.24,17.24,0,1,1,9.9-33,947.54,947.54,0,0,0,169.21,33.72l1.58,0a14.07,14.07,0,0,0,9.71-4.24,14.36,14.36,0,0,0,4.17-10.26l0-140.68A17.25,17.25,0,0,1,971,781.39h0a17.26,17.26,0,0,1,17.25,17.24l0,140.61a48.82,48.82,0,0,1-48.66,49Z"/></svg>