<?xml version="1.0" encoding="iso-8859-1"?>
<!-- Generator: Adobe Illustrator 18.1.1, SVG Export Plug-In . SVG Version: 6.00 Build 0)  -->
<svg version="1.1" id="Capa_1" xmlns="http://www.w3.org/2000/svg" xmlns:xlink="http://www.w3.org/1999/xlink" x="0px" y="0px"
	 viewBox="0 0 332.686 332.686" style="enable-background:new 0 0 332.686 332.686;" xml:space="preserve">
<g>
	<g>
		<path style="fill:#010002;" d="M291.893,196.894h-251.1c-10.361,0-18.825,8.327-19.031,18.64L0.109,291.333L0,292.078
			c0,5.45,0.653,32.634,13.598,32.634h305.49c12.945,0,13.598-27.184,13.598-32.634l-21.762-76.544
			C310.717,205.221,302.254,196.894,291.893,196.894z M225.107,280.34c0,2.671-2.306,5.793-8.806,5.793H115.482
			c-6.505,0-8.811-3.122-8.811-5.793l0.098-0.723l4.063-14.762l0.751-2.72l0.751-2.72h-36.48c-4.732,0-7.772-1.267-8.126-2.524
			l10.753-39.058l0.098-0.723c0-1.577,3.176-3.867,8.159-3.867h158.32c4.449,0,8.159,5.629,8.159,7.751l10.835,35.92
			c-0.381,1.251-3.416,2.502-8.115,2.502h-37.035c0.027,0.158,0.087,0.321,0.098,0.473l0.669,2.246l0.81,2.72L225.107,280.34z
			 M319.088,319.273H13.598c-3.932,0-6.685-8.588-7.713-18.564c2.97,3.28,7.734,4.966,13.146,4.966h294.618
			c5.417,0,10.182-1.692,13.146-4.966C325.773,310.69,323.021,319.273,319.088,319.273z"/>
		<path style="fill:#010002;" d="M214.103,262.136l-0.528-1.757c-0.016-0.218-0.185-0.571-0.419-0.963h-95.184l-0.751,2.72
			l-0.751,2.72l-4.248,15.436c0.326,0.022,1.354,0.402,3.258,0.402h100.813c1.713,0,2.72-0.31,3.187-0.533l-4.569-15.3
			L214.103,262.136z"/>
		<path style="fill:#010002;" d="M28.109,185.831h44.41v2.91h184.02v-2.91h48.946c9.643,0,17.459-8.887,17.459-19.853V27.826
			c0-10.965-7.816-19.853-17.459-19.853H28.109c-9.643,0-17.459,8.887-17.459,19.853v138.152
			C10.65,176.944,18.466,185.831,28.109,185.831z M29.007,23.073H307.09v146.626h-50.551H72.519H29.007V23.073z"/>
		<path style="fill:#010002;" d="M170.83,163.613c13.239,0,25.553-3.835,36.012-10.367h68.733v-52.063h-36.888
			c0.158-1.887,0.288-3.786,0.288-5.716c0-37.638-30.513-68.151-68.151-68.151s-68.151,30.513-68.151,68.151
			C102.679,133.105,133.192,163.613,170.83,163.613z M270.137,147.807h-55.691h-20.473h-23.328v-9.758v-31.427h41.25h15.099h10.998
			h32.15v41.185H270.137z M170.83,95.466l-31.416,17.187c-11.177-26.619,7.669-53.238,31.416-53.238V95.466z M170.83,38.193
			c31.579,0,57.273,25.694,57.273,57.273c0,1.931-0.103,3.835-0.288,5.716h-14.816c0.25-1.876,0.43-3.775,0.43-5.716
			c0-23.524-19.069-42.593-42.593-42.593s-42.593,19.069-42.593,42.593c0,21.615,16.111,39.422,36.969,42.18v14.805
			c-28.952-2.834-51.649-27.304-51.649-56.985C113.557,63.887,139.251,38.193,170.83,38.193z"/>
		<path style="fill:#010002;" d="M191.183,135.667c0.511-0.441,1.458-1.148,2.839-2.127l2.203-1.566
			c1.86-1.316,3.198-2.507,4.009-3.579c0.876-1.131,1.327-2.42,1.583-3.78c0.109-0.577,0.277-1.131,0.277-1.746
			c0-2.709-0.876-4.879-2.627-6.527c-1.757-1.643-4.117-2.464-7.087-2.464c-3.753,0-6.369,1.398-7.838,4.194
			c-0.772,1.474-1.207,3.399-1.294,5.782h5.357c0.065-1.572,0.267-2.72,0.615-3.443c0.604-1.246,1.746-1.876,3.421-1.876
			c1.229,0,2.165,0.392,2.828,1.18s0.984,1.773,0.984,2.959c0,1.458-0.571,2.796-1.719,4.019c-0.745,0.789-2.388,2.089-4.928,3.905
			c-2.497,1.779-4.166,3.476-5.102,5.102c-0.163,0.277-0.348,0.56-0.462,0.838c-0.81,1.664-1.246,3.503-1.294,5.51h19.2v-4.852
			h-12.243C190.253,136.613,190.683,136.107,191.183,135.667z"/>
		<path style="fill:#010002;" d="M221.267,122.558v-8.376h-6.19l-10.307,17.013v4.814h6.456h4.645v6.032h4.607h0.789v-0.859v-5.167
			h3.171v-4.313h-3.171V122.558z M215.866,131.702h-0.734h-6.26l6.995-12.075v11.096V131.702z"/>
		<path style="fill:#010002;" d="M244.872,130.625c0-1.811,0.37-3.198,1.12-4.172c0.751-0.974,1.849-1.463,3.291-1.463
			c1.398,0,2.344,0.49,2.839,1.474c0.381,0.696,0.571,1.61,0.571,2.747v12.831h5.624v-12.385c0-1.882-0.065-3.242-0.19-4.074
			s-0.479-1.643-1.055-2.431c-0.68-0.93-1.55-1.621-2.605-2.072c-1.061-0.451-2.235-0.68-3.53-0.68
			c-1.159,0-2.257,0.239-3.302,0.723c-1.044,0.484-1.964,1.338-2.763,2.562v-10.057h-5.515v28.403h5.515
			C244.872,142.03,244.872,130.625,244.872,130.625z"/>
	</g>
</g>
<g>
</g>
<g>
</g>
<g>
</g>
<g>
</g>
<g>
</g>
<g>
</g>
<g>
</g>
<g>
</g>
<g>
</g>
<g>
</g>
<g>
</g>
<g>
</g>
<g>
</g>
<g>
</g>
<g>
</g>
</svg>
