<svg height="430pt" viewBox="-65 0 430 430.08" width="430pt" xmlns="http://www.w3.org/2000/svg"><path d="m259.453125 395.945312h-232.105469l-20.480468 27.308594h273.066406zm0 0" fill="#0e65e5"/><path d="m279.933594 430.078125h-273.066406c-2.585938 0-4.949219-1.457031-6.105469-3.773437-1.15625-2.3125-.90625-5.078126.644531-7.148438l20.480469-27.304688c1.289062-1.722656 3.308593-2.730468 5.460937-2.730468h232.105469c2.152344 0 4.171875 1.007812 5.460937 2.730468l20.480469 27.304688c1.550781 2.070312 1.804688 4.835938.644531 7.148438-1.15625 2.3125-3.519531 3.773437-6.105468 3.773437zm-259.414063-13.652344h245.761719l-10.242188-13.652343h-225.277343zm0 0" fill="#0e65e5"/><path d="m184.359375 423.253906h-81.917969l7.445313-245.761718h67.027343zm0 0" fill="#94c1ff"/><path d="m184.359375 430.078125h-81.917969c-1.847656 0-3.613281-.746094-4.902344-2.070313-1.285156-1.328124-1.976562-3.113281-1.921874-4.960937l7.445312-245.761719c.109375-3.683594 3.132812-6.617187 6.824219-6.617187h67.027343c3.6875 0 6.710938 2.933593 6.820313 6.617187l7.449219 245.761719c.054687 1.847656-.636719 3.632813-1.925782 4.960937-1.285156 1.324219-3.050781 2.070313-4.898437 2.070313zm-74.882813-13.652344h67.847657l-7.035157-232.105469h-53.777343zm0 0" fill="#0e65e5"/><path d="m129.746094 395.945312h27.308594v27.308594h-27.308594zm0 0" fill="#d7e9ff"/><path d="m157.054688 430.078125h-27.308594c-3.769532 0-6.824219-3.054687-6.824219-6.824219v-27.308594c0-3.769531 3.054687-6.824218 6.824219-6.824218h27.308594c3.769531 0 6.824218 3.054687 6.824218 6.824218v27.308594c0 3.769532-3.054687 6.824219-6.824218 6.824219zm-20.480469-13.652344h13.652343v-13.652343h-13.652343zm0 0" fill="#0e65e5"/><path d="m190.550781 177.492188h-135.898437v-13.015626c0-19.203124 15.570312-34.769531 34.773437-34.769531h135.894531v13.015625c0 19.203125-15.566406 34.769532-34.769531 34.769532zm0 0" fill="#2a8ee6"/><path d="m190.550781 184.320312h-135.898437c-3.769532 0-6.824219-3.058593-6.824219-6.828124v-13.015626c0-22.9375 18.660156-41.597656 41.59375-41.597656h135.898437c3.769532 0 6.828126 3.058594 6.828126 6.828125v13.015625c0 22.9375-18.660157 41.597656-41.597657 41.597656zm-129.070312-13.652343h129.070312c15.40625 0 27.941407-12.539063 27.941407-27.945313v-6.1875h-129.070313c-15.402344 0-27.941406 12.535156-27.941406 27.941406zm0 0" fill="#0e65e5"/><path d="m163.878906 81.921875h-40.957031l-6.828125 47.785156h54.613281zm0 0" fill="#94c1ff"/><path d="m170.707031 136.535156h-54.613281c-1.980469 0-3.859375-.863281-5.15625-2.355468-1.296875-1.496094-1.878906-3.480469-1.601562-5.441407l6.828124-47.785156c.480469-3.363281 3.359376-5.859375 6.757813-5.859375h40.957031c3.398438 0 6.277344 2.496094 6.757813 5.859375l6.828125 47.789063c.277344 1.957031-.304688 3.941406-1.601563 5.4375-1.296875 1.492187-3.175781 2.355468-5.15625 2.355468zm-46.742187-13.65625h38.871094l-4.875-34.132812h-29.117188zm0 0" fill="#0e65e5"/><path d="m143.402344 40.960938c-11.3125 0-20.480469 9.167968-20.480469 20.480468v20.480469h40.957031v-20.480469c0-11.3125-9.167968-20.480468-20.476562-20.480468zm0 0" fill="#d7e9ff"/><g fill="#0e65e5"><path d="m163.878906 88.746094h-40.957031c-3.769531 0-6.828125-3.054688-6.828125-6.824219v-20.480469c0-15.058594 12.25-27.308594 27.308594-27.308594 15.054687 0 27.304687 12.25 27.304687 27.308594v20.480469c0 3.769531-3.054687 6.824219-6.828125 6.824219zm-34.132812-13.652344h27.308594v-13.652344c0-7.53125-6.125-13.65625-13.652344-13.65625-7.53125 0-13.65625 6.125-13.65625 13.65625zm0 0"/><path d="m143.402344 47.785156c-3.773438 0-6.828125-3.054687-6.828125-6.824218v-34.132813c0-3.773437 3.054687-6.828125 6.828125-6.828125 3.769531 0 6.824218 3.054688 6.824218 6.828125v34.132813c0 3.769531-3.054687 6.824218-6.824218 6.824218zm0 0"/><path d="m279.933594 430.078125h-273.066406c-3.769532 0-6.8281255-3.054687-6.8281255-6.824219 0-3.769531 3.0585935-6.828125 6.8281255-6.828125h273.066406c3.769531 0 6.828125 3.058594 6.828125 6.828125 0 3.769532-3.058594 6.824219-6.828125 6.824219zm0 0"/><path d="m218.492188 157.011719h-157.011719c-3.769531 0-6.828125-3.054688-6.828125-6.824219s3.058594-6.828125 6.828125-6.828125h157.011719c3.773437 0 6.828124 3.058594 6.828124 6.828125s-3.054687 6.824219-6.828124 6.824219zm0 0"/><path d="m34.175781 327.679688c-3.773437 0-6.828125-3.054688-6.828125-6.828126v-27.304687c0-3.769531 3.054688-6.828125 6.828125-6.828125 3.769531 0 6.824219 3.058594 6.824219 6.828125v27.304687c0 3.773438-3.054688 6.828126-6.824219 6.828126zm0 0"/><path d="m47.828125 314.027344h-27.308594c-3.769531 0-6.824219-3.058594-6.824219-6.828125s3.054688-6.824219 6.824219-6.824219h27.308594c3.769531 0 6.824219 3.054688 6.824219 6.824219s-3.054688 6.828125-6.824219 6.828125zm0 0"/><path d="m279.933594 197.972656c-3.769532 0-6.828125-3.054687-6.828125-6.824218v-27.308594c0-3.769532 3.058593-6.828125 6.828125-6.828125 3.769531 0 6.828125 3.058593 6.828125 6.828125v27.308594c0 3.769531-3.058594 6.824218-6.828125 6.824218zm0 0"/><path d="m293.585938 184.320312h-27.304688c-3.769531 0-6.828125-3.058593-6.828125-6.828124 0-3.769532 3.058594-6.824219 6.828125-6.824219h27.304688c3.769531 0 6.828124 3.054687 6.828124 6.824219 0 3.769531-3.058593 6.828124-6.828124 6.828124zm0 0"/><path d="m54.652344 109.226562c-3.769532 0-6.824219-3.054687-6.824219-6.828124v-27.304688c0-3.769531 3.054687-6.828125 6.824219-6.828125 3.773437 0 6.828125 3.058594 6.828125 6.828125v27.304688c0 3.773437-3.054688 6.828124-6.828125 6.828124zm0 0"/><path d="m68.308594 95.574219h-27.308594c-3.769531 0-6.824219-3.058594-6.824219-6.828125 0-3.769532 3.054688-6.824219 6.824219-6.824219h27.308594c3.769531 0 6.824218 3.054687 6.824218 6.824219 0 3.769531-3.054687 6.828125-6.824218 6.828125zm0 0"/></g><path d="m122.925781 361.8125c-.101562 0-.203125-.003906-.300781-.007812-3.769531-.160157-6.6875-3.347657-6.523438-7.113282l6.824219-157.015625c.164063-3.769531 3.507813-6.65625 7.117188-6.523437 3.769531.164062 6.6875 3.351562 6.523437 7.117187l-6.824218 157.015625c-.160157 3.664063-3.179688 6.527344-6.816407 6.527344zm0 0" fill="#fff"/></svg>