<svg height="402pt" viewBox="0 -44 402.77414 402" width="402pt" xmlns="http://www.w3.org/2000/svg"><path d="m54.613281 218.839844-47.785156-116.050782s61.4375-6.828124 88.746094 20.480469l68.265625 109.226563zm0 0" fill="#2a8ee6"/><path d="m163.839844 239.320312c-.277344 0-.5625-.015624-.84375-.050781l-109.226563-13.65625c-2.441406-.300781-4.53125-1.898437-5.46875-4.171875l-47.785156-116.050781c-.820313-1.984375-.65625-4.234375.4375-6.082031 1.09375-1.84375 2.992187-3.066406 5.121094-3.304688 2.632812-.308594 65.03125-6.855468 94.328125 22.4375.367187.363282.691406.769532.960937 1.210938l68.269531 109.226562c1.394532 2.234375 1.378907 5.070313-.039062 7.289063-1.261719 1.980469-3.441406 3.152343-5.753906 3.152343zm-104.429688-26.757812 91.035156 11.378906-60.230468-96.371094c-18.867188-18.179687-56.15625-19.160156-73.445313-18.574218zm0 0" fill="#0e65e5"/><path d="m117.757812 211.234375-35.835937-149.40625s43.585937-6.5 83.234375 34.296875l46.472656 129.542969zm0 0" fill="#94c1ff"/><path d="m211.628906 232.496094c-.34375 0-.691406-.027344-1.039062-.082032l-93.867188-14.4375c-2.742187-.417968-4.953125-2.453124-5.605468-5.152343l-35.835938-149.402344c-.441406-1.863281-.089844-3.828125.980469-5.414063 1.074219-1.585937 2.757812-2.648437 4.652343-2.933593 1.917969-.28125 47.539063-6.519531 89.140626 36.292969.675781.699218 1.199218 1.535156 1.527343 2.453124l46.472657 129.542969c.8125 2.265625.371093 4.792969-1.160157 6.648438-1.304687 1.585937-3.246093 2.484375-5.265625 2.484375zm-88.300781-27.316406 78 11.996093-42.09375-117.335937c-27.132813-27.300782-55.523437-31.371094-68.753906-31.597656zm0 0" fill="#0e65e5"/><path d="m195.625 209.539062-52.265625-202.324218s102.402344 34.132812 136.535156 122.878906c0 0 61.441407-40.960938 116.054688-20.480469l-37.820313 99.925781" fill="#2a8ee6"/><g fill="#0e65e5"><path d="m358.128906 216.367188c-.804687 0-1.621094-.140626-2.417968-.445313-3.527344-1.332031-5.300782-5.273437-3.964844-8.800781l35.289062-93.238282c-49.117187-13.699218-102.792968 21.519532-103.355468 21.890626-1.722657 1.152343-3.882813 1.453124-5.851563.828124-1.976563-.632812-3.5625-2.121093-4.308594-4.058593-25.722656-66.882813-92.625-102.011719-120.183593-114.019531l48.898437 189.304687c.945313 3.652344-1.253906 7.375-4.902344 8.316406-3.652343.941407-7.375-1.25-8.316406-4.902343l-52.265625-202.320313c-.625-2.421875.125-4.992187 1.953125-6.699219 1.828125-1.707031 4.441406-2.2734372 6.816406-1.484375 4.183594 1.394531 100.234375 34.265625 137.652344 119.394531 18.25-10.363281 68.441406-34.4375 115.171875-16.910156 1.699219.636719 3.074219 1.925782 3.824219 3.574219.746093 1.65625.804687 3.539063.164062 5.234375l-37.820312 99.921875c-1.035157 2.730469-3.632813 4.414063-6.382813 4.414063zm0 0"/><path d="m6.828125 212.015625h389.121094v20.480469h-389.121094zm0 0"/><path d="m395.949219 239.320312h-389.121094c-3.769531 0-6.828125-3.054687-6.828125-6.824218v-20.480469c0-3.769531 3.058594-6.828125 6.828125-6.828125h389.121094c3.769531 0 6.824219 3.058594 6.824219 6.828125v20.480469c0 3.769531-3.054688 6.824218-6.824219 6.824218zm-382.296875-13.652343h375.46875v-6.828125h-375.46875zm0 0"/><path d="m75.09375 314.414062c-26.347656 0-47.785156-21.4375-47.785156-47.785156 0-3.769531 3.054687-6.828125 6.824218-6.828125 3.769532 0 6.828126 3.058594 6.828126 6.828125 0 18.816406 15.3125 34.132813 34.132812 34.132813s34.132812-15.316407 34.132812-34.132813c0-3.769531 3.058594-6.828125 6.828126-6.828125 3.769531 0 6.824218 3.058594 6.824218 6.828125 0 26.351563-21.433594 47.785156-47.785156 47.785156zm0 0"/><path d="m157.015625 314.414062c-26.351563 0-47.789063-21.4375-47.789063-47.785156 0-3.769531 3.058594-6.828125 6.828126-6.828125 3.769531 0 6.824218 3.058594 6.824218 6.828125 0 18.816406 15.316406 34.132813 34.136719 34.132813 18.816406 0 34.132813-15.316407 34.132813-34.132813 0-3.769531 3.054687-6.828125 6.824218-6.828125 3.773438 0 6.828125 3.058594 6.828125 6.828125 0 26.351563-21.4375 47.785156-47.785156 47.785156zm0 0"/><path d="m238.933594 314.414062c-26.347656 0-47.785156-21.4375-47.785156-47.785156 0-3.769531 3.054687-6.828125 6.824218-6.828125 3.773438 0 6.828125 3.058594 6.828125 6.828125 0 18.816406 15.3125 34.132813 34.132813 34.132813 18.820312 0 34.132812-15.316407 34.132812-34.132813 0-3.769531 3.058594-6.828125 6.828125-6.828125s6.828125 3.058594 6.828125 6.828125c0 26.351563-21.4375 47.785156-47.789062 47.785156zm0 0"/><path d="m320.855469 314.414062c-26.351563 0-47.789063-21.4375-47.789063-47.785156 0-3.769531 3.058594-6.828125 6.828125-6.828125s6.828125 3.058594 6.828125 6.828125c0 18.816406 15.3125 34.132813 34.132813 34.132813 18.816406 0 34.132812-15.316407 34.132812-34.132813 0-3.769531 3.054688-6.828125 6.824219-6.828125 3.773438 0 6.828125 3.058594 6.828125 6.828125 0 26.351563-21.4375 47.785156-47.785156 47.785156zm0 0"/></g><path d="m259.414062 150.574219 20.480469-20.480469" fill="#2a8ee6"/><path d="m259.414062 157.402344c-1.746093 0-3.492187-.667969-4.828124-2-2.664063-2.667969-2.664063-6.988282 0-9.65625l20.480468-20.476563c2.667969-2.667969 6.988282-2.667969 9.652344 0 2.667969 2.664063 2.667969 6.984375 0 9.652344l-20.476562 20.480469c-1.335938 1.332031-3.082032 2-4.828126 2zm0 0" fill="#0e65e5"/><path d="m279.894531 232.496094c-3.769531 0-6.828125-3.058594-6.828125-6.828125v-27.308594c0-3.769531 3.058594-6.824219 6.828125-6.824219s6.828125 3.054688 6.828125 6.824219v27.308594c0 3.769531-3.058594 6.828125-6.828125 6.828125zm0 0" fill="#fff"/><path d="m293.546875 218.839844h-27.304687c-3.769532 0-6.828126-3.054688-6.828126-6.824219s3.058594-6.828125 6.828126-6.828125h27.304687c3.769531 0 6.828125 3.058594 6.828125 6.828125s-3.058594 6.824219-6.828125 6.824219zm0 0" fill="#fff"/><path d="m81.914062 143.746094c-1.300781 0-2.617187-.367188-3.78125-1.144532-18.546874-12.363281-36.988281-12.507812-37.171874-12.507812-3.769532 0-6.828126-3.054688-6.828126-6.824219 0-3.773437 3.058594-6.828125 6.828126-6.828125.917968 0 22.800781.167969 44.746093 14.800782 3.136719 2.089843 3.984375 6.328124 1.894531 9.464843-1.316406 1.972657-3.480468 3.039063-5.6875 3.039063zm0 0" fill="#fff"/></svg>