<svg id="Layer_1" data-name="Layer 1" xmlns="http://www.w3.org/2000/svg" xmlns:xlink="http://www.w3.org/1999/xlink" viewBox="0 0 705.79 680.83"><defs><style>.cls-1{fill:#616eb1;}.cls-10,.cls-11,.cls-12,.cls-13,.cls-14,.cls-15,.cls-2,.cls-22,.cls-23,.cls-3,.cls-30,.cls-4,.cls-45,.cls-9{opacity:0.5;}.cls-10,.cls-11,.cls-12,.cls-13,.cls-14,.cls-15,.cls-16,.cls-2,.cls-22,.cls-3,.cls-30,.cls-32,.cls-33,.cls-34,.cls-35,.cls-4,.cls-40,.cls-45,.cls-47,.cls-9{isolation:isolate;}.cls-2{fill:url(#linear-gradient);}.cls-3{fill:url(#linear-gradient-2);}.cls-4{fill:url(#linear-gradient-3);}.cls-5{fill:url(#linear-gradient-4);}.cls-6{fill:#a9aed9;}.cls-7{fill:#fff;}.cls-32,.cls-33,.cls-34,.cls-35,.cls-47,.cls-8{fill:#dee2f3;}.cls-9{fill:url(#linear-gradient-5);}.cls-10{fill:url(#linear-gradient-6);}.cls-11{fill:url(#linear-gradient-7);}.cls-12{fill:url(#linear-gradient-8);}.cls-13,.cls-16,.cls-24{fill:#dd131f;}.cls-14{fill:url(#linear-gradient-9);}.cls-15{fill:url(#linear-gradient-10);}.cls-16{opacity:0.8;}.cls-17,.cls-40{opacity:0.11;}.cls-18{fill:url(#linear-gradient-11);}.cls-19{fill:url(#linear-gradient-12);}.cls-20{fill:url(#linear-gradient-13);}.cls-21{fill:url(#linear-gradient-14);}.cls-22{fill:url(#linear-gradient-15);}.cls-25{fill:url(#linear-gradient-17);}.cls-26{fill:url(#linear-gradient-18);}.cls-27{fill:url(#linear-gradient-19);}.cls-28{fill:url(#linear-gradient-20);}.cls-29{fill:url(#linear-gradient-21);}.cls-30{fill:url(#linear-gradient-22);}.cls-31{fill:url(#linear-gradient-24);}.cls-32{opacity:0.5;}.cls-33{opacity:0.75;}.cls-34{opacity:0.88;}.cls-35{opacity:0.97;}.cls-36{fill:url(#linear-gradient-25);}.cls-37{fill:url(#linear-gradient-26);}.cls-38{fill:url(#linear-gradient-27);}.cls-39{fill:url(#linear-gradient-28);}.cls-40{fill:url(#linear-gradient-29);}.cls-41{fill:url(#linear-gradient-30);}.cls-42{fill:url(#linear-gradient-31);}.cls-43{fill:url(#linear-gradient-32);}.cls-44{fill:url(#linear-gradient-33);}.cls-45{fill:url(#linear-gradient-34);}.cls-46{fill:url(#linear-gradient-36);}.cls-47{opacity:0.2;}.cls-48{fill:url(#linear-gradient-37);}.cls-49{fill:url(#linear-gradient-38);}.cls-50{fill:#ecf4fc;}.cls-51{fill:#f9c6ba;}.cls-52{fill:#996f70;}.cls-53{fill:#b7c2ce;}.cls-54{fill:#dba195;}.cls-55{fill:url(#linear-gradient-39);}.cls-56{fill:#805a5a;}</style><linearGradient id="linear-gradient" x1="-599.08" y1="876.63" x2="-598.08" y2="876.63" gradientTransform="matrix(87.53, 0, 0, -51.42, 52629.19, 45497.38)" gradientUnits="userSpaceOnUse"><stop offset="0" stop-color="#dee2f3"/><stop offset="0.12" stop-color="#ddb9c9"/><stop offset="0.28" stop-color="#dd8795"/><stop offset="0.44" stop-color="#dd5d6b"/><stop offset="0.6" stop-color="#dd3d4a"/><stop offset="0.75" stop-color="#dd2532"/><stop offset="0.88" stop-color="#dd1723"/><stop offset="1" stop-color="#dd131f"/></linearGradient><linearGradient id="linear-gradient-2" x1="-599.04" y1="876.61" x2="-598.04" y2="876.61" gradientTransform="matrix(87.05, 0, 0, -51.14, 52576.04, 45250.94)" gradientUnits="userSpaceOnUse"><stop offset="0" stop-color="#dd131f"/><stop offset="0.12" stop-color="#dd1723"/><stop offset="0.25" stop-color="#dd2532"/><stop offset="0.4" stop-color="#dd3d4a"/><stop offset="0.56" stop-color="#dd5d6b"/><stop offset="0.72" stop-color="#dd8795"/><stop offset="0.88" stop-color="#ddb9c9"/><stop offset="1" stop-color="#dee2f3"/></linearGradient><linearGradient id="linear-gradient-3" x1="-604.15" y1="878.37" x2="-603.15" y2="878.37" gradientTransform="matrix(327.94, 0, 0, -93.41, 198315.81, 82616)" xlink:href="#linear-gradient"/><linearGradient id="linear-gradient-4" x1="-604.14" y1="878.5" x2="-602.86" y2="878.5" gradientTransform="matrix(287.26, 0, 0, -99.52, 173682.21, 87772)" gradientUnits="userSpaceOnUse"><stop offset="0" stop-color="#dee2f3"/><stop offset="0.26" stop-color="#d6dbef"/><stop offset="0.63" stop-color="#c3c7e5"/><stop offset="1" stop-color="#a9aed9"/></linearGradient><linearGradient id="linear-gradient-5" x1="-603.26" y1="878.94" x2="-602.26" y2="878.94" gradientTransform="matrix(220.94, 0, 0, -127.56, 133528.47, 112410.62)" xlink:href="#linear-gradient-2"/><linearGradient id="linear-gradient-6" x1="-600.51" y1="878.01" x2="-599.51" y2="878.01" gradientTransform="matrix(110.47, 0, 0, -79.87, 66694.14, 70373.49)" xlink:href="#linear-gradient-2"/><linearGradient id="linear-gradient-7" x1="-600.51" y1="878.01" x2="-599.51" y2="878.01" gradientTransform="matrix(110.47, 0, 0, -79.86, 66583.08, 70371.72)" xlink:href="#linear-gradient-2"/><linearGradient id="linear-gradient-8" x1="-603.26" y1="878.94" x2="-602.26" y2="878.94" gradientTransform="matrix(220.94, 0, 0, -127.56, 133528.47, 112395.43)" xlink:href="#linear-gradient-2"/><linearGradient id="linear-gradient-9" x1="-600.51" y1="878.01" x2="-599.51" y2="878.01" gradientTransform="matrix(110.47, 0, 0, -79.86, 66691.7, 70435.5)" xlink:href="#linear-gradient-2"/><linearGradient id="linear-gradient-10" x1="-600.51" y1="878.01" x2="-599.51" y2="878.01" gradientTransform="matrix(110.47, 0, 0, -79.87, 66583.67, 70437.27)" xlink:href="#linear-gradient-2"/><linearGradient id="linear-gradient-11" x1="-603.52" y1="879.06" x2="-602.52" y2="879.06" gradientTransform="matrix(243.96, 0, 0, -138.29, 147230.89, 122041.08)" xlink:href="#linear-gradient"/><linearGradient id="linear-gradient-12" x1="-603.52" y1="879.06" x2="-602.52" y2="879.06" gradientTransform="matrix(243.96, 0, 0, -138.29, 147231.34, 122021.56)" xlink:href="#linear-gradient"/><linearGradient id="linear-gradient-13" x1="-603.52" y1="879.06" x2="-602.52" y2="879.06" gradientTransform="matrix(243.96, 0, 0, -138.29, 147230.88, 122003.71)" xlink:href="#linear-gradient"/><linearGradient id="linear-gradient-14" x1="-603.52" y1="879.06" x2="-602.52" y2="879.06" gradientTransform="matrix(243.96, 0, 0, -138.29, 147232.47, 121984.89)" xlink:href="#linear-gradient"/><linearGradient id="linear-gradient-15" x1="-603.52" y1="879.37" x2="-602.52" y2="879.37" gradientTransform="matrix(243.96, 0, 0, -176.02, 147230.8, 155226.07)" xlink:href="#linear-gradient"/><linearGradient id="linear-gradient-17" x1="-603.52" y1="877.68" x2="-602.52" y2="877.68" gradientTransform="matrix(243.96, 0, 0, -70.64, 147231.61, 62453.45)" xlink:href="#linear-gradient"/><linearGradient id="linear-gradient-18" x1="-603.52" y1="879.06" x2="-602.52" y2="879.06" gradientTransform="matrix(243.96, 0, 0, -138.29, 147693.32, 122041.08)" xlink:href="#linear-gradient"/><linearGradient id="linear-gradient-19" x1="-603.52" y1="879.06" x2="-602.52" y2="879.06" gradientTransform="matrix(243.96, 0, 0, -138.28, 147693.79, 122020.65)" xlink:href="#linear-gradient"/><linearGradient id="linear-gradient-20" x1="-603.52" y1="879.06" x2="-602.52" y2="879.06" gradientTransform="matrix(243.96, 0, 0, -138.29, 147693.31, 122003.71)" xlink:href="#linear-gradient"/><linearGradient id="linear-gradient-21" x1="-603.52" y1="879.06" x2="-602.52" y2="879.06" gradientTransform="matrix(243.96, 0, 0, -138.29, 147694.9, 121983.97)" xlink:href="#linear-gradient"/><linearGradient id="linear-gradient-22" x1="-603.52" y1="879.37" x2="-602.52" y2="879.37" gradientTransform="matrix(243.96, 0, 0, -176.02, 147693.24, 155228.81)" xlink:href="#linear-gradient"/><linearGradient id="linear-gradient-24" x1="-603.52" y1="877.68" x2="-602.52" y2="877.68" gradientTransform="matrix(243.96, 0, 0, -70.64, 147696.61, 62454.75)" xlink:href="#linear-gradient"/><linearGradient id="linear-gradient-25" x1="-603.72" y1="878.97" x2="-602.72" y2="878.97" gradientTransform="matrix(229.36, 0, 0, -130.01, 138625.04, 114894.78)" xlink:href="#linear-gradient"/><linearGradient id="linear-gradient-26" x1="-603.72" y1="878.97" x2="-602.72" y2="878.97" gradientTransform="matrix(229.36, 0, 0, -130.01, 138625.04, 114873.53)" xlink:href="#linear-gradient"/><linearGradient id="linear-gradient-27" x1="-603.72" y1="878.97" x2="-602.72" y2="878.97" gradientTransform="matrix(229.36, 0, 0, -130.01, 138625.04, 114857.45)" xlink:href="#linear-gradient"/><linearGradient id="linear-gradient-28" x1="-603.72" y1="878.97" x2="-602.72" y2="878.97" gradientTransform="matrix(229.36, 0, 0, -130.01, 138625.04, 114838.3)" xlink:href="#linear-gradient"/><linearGradient id="linear-gradient-29" x1="-603.72" y1="879.41" x2="-602.72" y2="879.41" gradientTransform="matrix(229.36, 0, 0, -182.94, 138624.52, 161472.26)" xlink:href="#linear-gradient"/><linearGradient id="linear-gradient-30" x1="-604.12" y1="879.24" x2="-603.12" y2="879.24" gradientTransform="matrix(278.11, 0, 0, -157.64, 168143.37, 139138.29)" xlink:href="#linear-gradient"/><linearGradient id="linear-gradient-31" x1="-604.12" y1="879.24" x2="-603.12" y2="879.24" gradientTransform="matrix(278.11, 0, 0, -157.65, 168143.91, 139119.53)" xlink:href="#linear-gradient"/><linearGradient id="linear-gradient-32" x1="-604.12" y1="879.24" x2="-603.12" y2="879.24" gradientTransform="matrix(278.11, 0, 0, -157.65, 168143.37, 139098.19)" xlink:href="#linear-gradient"/><linearGradient id="linear-gradient-33" x1="-604.12" y1="879.24" x2="-603.12" y2="879.24" gradientTransform="matrix(278.11, 0, 0, -157.65, 168143.91, 139076.26)" xlink:href="#linear-gradient"/><linearGradient id="linear-gradient-34" x1="-604.12" y1="879.6" x2="-603.12" y2="879.6" gradientTransform="matrix(278.11, 0, 0, -221.83, 168144.52, 195621.74)" xlink:href="#linear-gradient"/><linearGradient id="linear-gradient-36" x1="-604.12" y1="878.03" x2="-603.12" y2="878.03" gradientTransform="matrix(278.11, 0, 0, -80.53, 168143.13, 71212.06)" xlink:href="#linear-gradient"/><linearGradient id="linear-gradient-37" x1="-589.41" y1="865.71" x2="-588.39" y2="865.71" gradientTransform="matrix(28.71, 0, 0, -13.46, 17175.67, 11951.45)" xlink:href="#linear-gradient"/><linearGradient id="linear-gradient-38" x1="-596.49" y1="872.63" x2="-595.5" y2="872.63" gradientTransform="matrix(62.17, 0, 0, -25.29, 37380.88, 22385.38)" xlink:href="#linear-gradient"/><linearGradient id="linear-gradient-39" x1="-600.38" y1="877.8" x2="-599.41" y2="877.8" gradientTransform="matrix(103.07, 0, 0, -73.6, 62151.73, 64842.86)" xlink:href="#linear-gradient"/></defs><g id="Group_1097" data-name="Group 1097"><path id="Path_6226" data-name="Path 6226" class="cls-1" d="M352.9,433.22a12.21,12.21,0,0,1-6-1.41L211.64,353.73a4.78,4.78,0,0,1-2.7-4.08c0-1.87,1.31-3.7,3.61-5l133.43-77c4.08-2.36,10.08-2.59,13.66-.52l135.24,78.08a4.76,4.76,0,0,1,2.71,4.08c0,1.86-1.32,3.7-3.61,5l-133.44,77A15.57,15.57,0,0,1,352.9,433.22Zm-5-3.22c2.9,1.67,8.19,1.43,11.57-.52l133.43-77.05c1.61-.92,2.56-2.12,2.56-3.2a2.81,2.81,0,0,0-1.65-2.26L358.59,268.89c-2.89-1.67-8.19-1.43-11.56.52l-133.44,77c-1.6.93-2.56,2.12-2.56,3.21a2.83,2.83,0,0,0,1.66,2.25Z"/><path id="Path_6227" data-name="Path 6227" class="cls-2" d="M190.65,443.3a1,1,0,0,1-1.05-1.05,1,1,0,0,1,.53-.9L275.56,392a1.06,1.06,0,0,1,1.44.38,1,1,0,0,1-.38,1.43h0l-85.44,49.32A1,1,0,0,1,190.65,443.3Z"/><path id="Path_6228" data-name="Path 6228" class="cls-3" d="M515.67,443a1.07,1.07,0,0,1-.52-.14l-85-49.05a1,1,0,0,1,1.05-1.81l85,49.05a1,1,0,0,1-.53,1.95Z"/><path id="Path_6229" data-name="Path 6229" class="cls-4" d="M352.89,611.75a19.9,19.9,0,0,1-10-2.67c-34.83-20.18-150.79-87.22-153.57-88.46a1,1,0,0,1-.69-1.24l0,0a1.06,1.06,0,0,1,1.34-.7c1.81.52,152.43,87.75,154,88.63a17.83,17.83,0,0,0,17.83,0L515,518.48a1.06,1.06,0,0,1,1.44.38,1,1,0,0,1-.39,1.43L362.86,609.08A19.94,19.94,0,0,1,352.89,611.75Z"/><g id="Group_1065" data-name="Group 1065"><g id="Group_1061" data-name="Group 1061"><path id="Path_6230" data-name="Path 6230" class="cls-5" d="M496.53,291.25v16.6L352.9,390.77,209.27,307.85v-16.6Z"/><path id="Path_6231" data-name="Path 6231" class="cls-6" d="M352.9,374.18,209.27,291.25,352.9,208.33l143.63,82.92Z"/><path id="Path_6232" data-name="Path 6232" class="cls-7" d="M352.9,372.24,211,290.28l-1.68,1L352.9,374.18l143.63-82.93-1.68-1Z"/></g><g id="Group_1064" data-name="Group 1064"><path id="Path_6233" data-name="Path 6233" class="cls-8" d="M352.9,355.05,242.43,291.27,352.9,227.49l110.47,63.78Z"/><g id="Group_1063" data-name="Group 1063"><path id="Path_6234" data-name="Path 6234" class="cls-9" d="M352.9,355.05,242.43,291.27l110.46-63.78,110.48,63.78Z"/><g id="Group_1062" data-name="Group 1062"><path id="Path_6235" data-name="Path 6235" class="cls-10" d="M352.9,211.41l110.47,63.78v16.08L352.9,227.49Z"/><path id="Path_6236" data-name="Path 6236" class="cls-11" d="M352.9,227.49,242.43,291.27V275.19l110.46-63.78Z"/><path id="Path_6237" data-name="Path 6237" class="cls-12" d="M352.9,339,242.43,275.19l110.46-63.78,110.48,63.78Z"/><path id="Path_6238" data-name="Path 6238" class="cls-13" d="M352.9,300.67l-44.14-25.48L352.9,249.7,397,275.19Z"/><path id="Path_6239" data-name="Path 6239" class="cls-13" d="M352.9,252.05,395,276.36l2-1.17L352.9,249.7l-44.14,25.49,2,1.17Z"/><path id="Path_6240" data-name="Path 6240" class="cls-14" d="M352.9,339v16.08l110.47-63.78V275.19Z"/></g><path id="Path_6241" data-name="Path 6241" class="cls-15" d="M242.43,275.19v16.08L352.9,355.05V339Z"/></g><path id="Path_6242" data-name="Path 6242" class="cls-16" d="M352.9,337.21,244,274.31l-1.52.88L352.9,339l110.47-63.78-1.52-.88Z"/></g></g><g id="Group_1072" data-name="Group 1072"><g id="Group_1066" data-name="Group 1066" class="cls-17"><path id="Path_6243" data-name="Path 6243" class="cls-18" d="M131.41,412.34a18.71,18.71,0,0,0-18.69,0L1.32,476.5a2.64,2.64,0,0,0-1,3.59,2.73,2.73,0,0,0,1,1l112.33,64.85a16.47,16.47,0,0,0,16.49,0l112.5-64.79a2.64,2.64,0,0,0,0-4.56Z"/></g><g id="Group_1067" data-name="Group 1067" class="cls-17"><path id="Path_6244" data-name="Path 6244" class="cls-19" d="M131.41,393.57a18.71,18.71,0,0,0-18.69,0L1.32,457.73a2.64,2.64,0,0,0-1,3.6,2.63,2.63,0,0,0,1,1l112.33,64.85a16.47,16.47,0,0,0,16.49,0l112.5-64.79a2.63,2.63,0,0,0,0-4.55Z"/></g><g id="Group_1068" data-name="Group 1068" class="cls-17"><path id="Path_6245" data-name="Path 6245" class="cls-20" d="M131.41,374.81a18.71,18.71,0,0,0-18.69,0L1.32,439a2.62,2.62,0,0,0,0,4.55l112.32,64.86a16.54,16.54,0,0,0,16.5,0l112.5-64.8a2.63,2.63,0,0,0,0-4.55Z"/></g><g id="Group_1069" data-name="Group 1069" class="cls-17"><path id="Path_6246" data-name="Path 6246" class="cls-21" d="M131.41,356a18.71,18.71,0,0,0-18.69,0L1.32,420.2a2.63,2.63,0,0,0,0,4.56l112.33,64.85a16.47,16.47,0,0,0,16.49,0l112.5-64.79a2.63,2.63,0,0,0,1-3.59,2.73,2.73,0,0,0-1-1Z"/></g><path id="Path_6247" data-name="Path 6247" class="cls-22" d="M242.64,420.26,131.41,356a18.71,18.71,0,0,0-18.69,0L1.32,420.2A2.6,2.6,0,0,0,0,422.48v37.73a2.63,2.63,0,0,0,1.32,2.28l112.33,64.85a16.47,16.47,0,0,0,16.49,0l112.5-64.79a2.63,2.63,0,0,0,1.32-2.28V422.54h0A2.63,2.63,0,0,0,242.64,420.26Z"/><g id="Group_1070" data-name="Group 1070" class="cls-17"><path id="Path_6248" data-name="Path 6248" class="cls-21" d="M131.41,356a18.71,18.71,0,0,0-18.69,0L1.32,420.2a2.63,2.63,0,0,0,0,4.56l112.33,64.85a16.47,16.47,0,0,0,16.49,0l112.5-64.79a2.63,2.63,0,0,0,1-3.59,2.73,2.73,0,0,0-1-1Z"/></g><g id="Group_1071" data-name="Group 1071" class="cls-23"><path id="Path_6249" data-name="Path 6249" class="cls-24" d="M126,392.82a8,8,0,0,0-7.93,0L68.14,421.57a1.18,1.18,0,0,0,0,2l50.12,28.93a7.33,7.33,0,0,0,7.36,0l50.2-28.91a1.17,1.17,0,0,0,.43-1.6,1.11,1.11,0,0,0-.43-.43Z"/></g><path id="Path_6250" data-name="Path 6250" class="cls-24" d="M68.14,423.38l49.91-28.76a8,8,0,0,1,7.93,0l49.84,28.78c.05,0,.07.08.11.11a1.15,1.15,0,0,0,.23-1.61,1.24,1.24,0,0,0-.34-.31L126,392.83a7.91,7.91,0,0,0-7.93,0L68.14,421.58a1.14,1.14,0,0,0-.41,1.57,1,1,0,0,0,.3.34S68.09,423.4,68.14,423.38Z"/><path id="Path_6251" data-name="Path 6251" class="cls-25" d="M242.64,422.22,130.14,487a16.54,16.54,0,0,1-16.5,0L1.32,422.16a2.56,2.56,0,0,1-1-1,2.64,2.64,0,0,0,1,3.58l112.32,64.85a16.49,16.49,0,0,0,16.5,0l112.5-64.79a2.63,2.63,0,0,0,1-3.58A2.47,2.47,0,0,1,242.64,422.22Z"/></g><g id="Group_1079" data-name="Group 1079"><g id="Group_1073" data-name="Group 1073" class="cls-17"><path id="Path_6252" data-name="Path 6252" class="cls-26" d="M593.25,412.34a18.71,18.71,0,0,0-18.69,0L463.16,476.5a2.64,2.64,0,0,0,0,4.56l112.33,64.85a16.47,16.47,0,0,0,16.49,0l112.5-64.79a2.63,2.63,0,0,0,0-4.56Z"/></g><g id="Group_1074" data-name="Group 1074" class="cls-17"><path id="Path_6253" data-name="Path 6253" class="cls-27" d="M593.25,393.57a18.71,18.71,0,0,0-18.69,0L463.15,457.73a2.63,2.63,0,0,0-1,3.6,2.6,2.6,0,0,0,1,1l112.33,64.85a16.49,16.49,0,0,0,16.5,0l112.5-64.79a2.64,2.64,0,0,0,0-4.56Z"/></g><g id="Group_1075" data-name="Group 1075" class="cls-17"><path id="Path_6254" data-name="Path 6254" class="cls-28" d="M593.25,374.81a18.71,18.71,0,0,0-18.69,0L463.15,439a2.63,2.63,0,0,0,0,4.55l112.33,64.86a16.54,16.54,0,0,0,16.5,0l112.5-64.8a2.64,2.64,0,0,0,1-3.59,2.6,2.6,0,0,0-1-1Z"/></g><g id="Group_1076" data-name="Group 1076" class="cls-17"><path id="Path_6255" data-name="Path 6255" class="cls-29" d="M593.25,356a18.71,18.71,0,0,0-18.69,0L463.15,420.2a2.64,2.64,0,0,0,0,4.56l112.33,64.85a16.49,16.49,0,0,0,16.5,0l112.5-64.79a2.64,2.64,0,0,0,0-4.56Z"/></g><path id="Path_6256" data-name="Path 6256" class="cls-30" d="M704.48,420.26,593.25,356a18.7,18.7,0,0,0-18.7,0L463.15,420.2a2.6,2.6,0,0,0-1.31,2.28v37.73a2.6,2.6,0,0,0,1.31,2.28l112.33,64.85a16.49,16.49,0,0,0,16.5,0l112.5-64.79a2.62,2.62,0,0,0,1.31-2.28V422.54h0A2.6,2.6,0,0,0,704.48,420.26Z"/><g id="Group_1077" data-name="Group 1077" class="cls-17"><path id="Path_6257" data-name="Path 6257" class="cls-29" d="M593.25,356a18.71,18.71,0,0,0-18.69,0L463.15,420.2a2.64,2.64,0,0,0,0,4.56l112.33,64.85a16.49,16.49,0,0,0,16.5,0l112.5-64.79a2.64,2.64,0,0,0,0-4.56Z"/></g><g id="Group_1078" data-name="Group 1078" class="cls-23"><path id="Path_6258" data-name="Path 6258" class="cls-24" d="M587.82,392.82a8,8,0,0,0-7.93,0L530,421.57a1.19,1.19,0,0,0-.43,1.61,1.11,1.11,0,0,0,.43.43l50.12,28.93a7.33,7.33,0,0,0,7.36,0l50.2-28.91a1.17,1.17,0,0,0,0-2Z"/></g><path id="Path_6259" data-name="Path 6259" class="cls-24" d="M530,423.38l49.91-28.76a8,8,0,0,1,7.93,0l49.83,28.78c.05,0,.07.08.12.11a1.14,1.14,0,0,0,.22-1.61,1,1,0,0,0-.34-.31l-49.84-28.76a7.89,7.89,0,0,0-7.92,0L530,421.58a1.14,1.14,0,0,0-.41,1.57,1.1,1.1,0,0,0,.3.34S529.93,423.4,530,423.38Z"/><path id="Path_6260" data-name="Path 6260" class="cls-31" d="M704.48,422.22,592,487a16.49,16.49,0,0,1-16.5,0L463.15,422.16a2.54,2.54,0,0,1-1-1,2.63,2.63,0,0,0,1,3.58l112.33,64.85a16.49,16.49,0,0,0,16.5,0l112.5-64.79a2.63,2.63,0,0,0,1-3.58A2.54,2.54,0,0,1,704.48,422.22Z"/></g><g id="Group_1080" data-name="Group 1080"><path id="Path_6261" data-name="Path 6261" class="cls-32" d="M675.58,257.61V190.88C674,168.14,665,146.47,649.93,126.65v66.73c15.11,19.81,24.1,41.49,25.65,64.23ZM642.21,184V117.28a190.93,190.93,0,0,0-17.66-17.41V166.6A189.68,189.68,0,0,1,642.21,184Zm-28.6-26.3V91A258.44,258.44,0,0,0,591.1,75.66v66.73a256.23,256.23,0,0,1,22.51,15.32ZM576,153.51V47.35C637.45,80,675.82,126.6,675.82,178.2V284.36c0-51.6-38.37-98.24-99.84-130.85Z"/><path id="Path_6262" data-name="Path 6262" class="cls-32" d="M455.59,102.55V83.38q-7-1.35-14.22-2.51V100Q448.56,101.2,455.59,102.55ZM430,79.17v-17q-7.29-1-14.71-1.82v17q7.41.81,14.71,1.81Zm50.2,9.6V65.64q-6.76-1.66-13.67-3.16V85.61Q473.45,87.1,480.21,88.77ZM403.55,76.22V42.07q-7.5-.65-15.14-1.09V75.13Q396,75.57,403.55,76.22Zm-54.93-1.93V40.14q-7.72.12-15.35.45V74.74q7.62-.33,15.35-.45Zm-27.29,1.1V32.44q-7.54.51-15,1.2v43Q313.78,75.9,321.33,75.39Zm55-.82V25.44q-6.9-.24-13.87-.31h-1.65V74.24l1.65,0q7,.06,13.87.31Zm-81.63,3.25V16.36q-7.35.86-14.57,1.91V79.73q7.22-1.07,14.57-1.92ZM248.85,11.1A522.56,522.56,0,0,1,362.48,0C415.83.56,465.8,8.78,509.26,22.8V129c-43.46-14-93.43-22.24-146.78-22.77a521.94,521.94,0,0,0-113.63,11.07V11.1Z"/><path id="Path_6263" data-name="Path 6263" class="cls-32" d="M58.18,155.09V133.72A129.47,129.47,0,0,0,43.1,162.2v63.3A129.47,129.47,0,0,1,58.18,197V175.65q2.76-4,5.84-7.85v11.53A171.75,171.75,0,0,1,76.79,165V153.48c20-20.15,46.7-37.83,78.27-52.07V80.86q-8.43,3.8-16.38,7.92-4,2.06-7.82,4.2C110.58,104.23,93,117.06,78.6,131.13l-1.81,1.8V121.4A173.56,173.56,0,0,0,64,135.72v11.52q-3.07,3.88-5.83,7.85ZM39,154.43C51,102.62,101.79,58,173.78,30.24V136.4C101.79,164.16,51,208.78,39,260.58Z"/><path id="Path_6264" data-name="Path 6264" class="cls-33" d="M76.79,132.92l1.81-1.79v20.56A229.17,229.17,0,0,1,116,122.38q7.17-4.57,14.88-8.84V93q3.84-2.15,7.82-4.2v20.56q7.95-4.12,16.38-7.92h0c-31.57,14.23-58.24,31.91-78.27,52.06V132.92Zm-18.6,22.17q2.75-4,5.83-7.84V167.8q-3.07,3.88-5.83,7.85V155.09Z"/><path id="Path_6265" data-name="Path 6265" class="cls-34" d="M138.68,88.78q7.95-4.12,16.38-7.92v20.56q-8.43,3.8-16.38,7.92Z"/><path id="Path_6266" data-name="Path 6266" class="cls-34" d="M78.6,131.13A229.17,229.17,0,0,1,116,101.82v20.55A229.78,229.78,0,0,0,78.6,151.69Z"/><path id="Path_6267" data-name="Path 6267" class="cls-35" d="M116,101.82q7.17-4.57,14.88-8.85v20.57q-7.71,4.26-14.88,8.84Z"/><path id="Path_6268" data-name="Path 6268" class="cls-33" d="M43.1,162.2a129.47,129.47,0,0,1,15.08-28.48v21.37A129.7,129.7,0,0,0,43.1,183.57v20.56a129.47,129.47,0,0,1,15.08-28.48V197A129.47,129.47,0,0,0,43.1,225.5V162.2Z"/><path id="Path_6269" data-name="Path 6269" class="cls-34" d="M43.1,183.57a129.7,129.7,0,0,1,15.08-28.48v20.56A129.47,129.47,0,0,0,43.1,204.13Z"/><path id="Path_6270" data-name="Path 6270" class="cls-33" d="M64,167.8a173.36,173.36,0,0,1,12.77-14.32V165A171.75,171.75,0,0,0,64,179.33Zm0-32.08A171.75,171.75,0,0,1,76.79,121.4v11.52A175,175,0,0,0,64,147.24Z"/><path id="Path_6271" data-name="Path 6271" class="cls-34" d="M64,147.25a173.5,173.5,0,0,1,12.77-14.33v20.56A173.36,173.36,0,0,0,64,167.8Z"/><path id="Path_6272" data-name="Path 6272" class="cls-33" d="M649.93,126.65c15.11,19.82,24.1,41.49,25.65,64.23v66.73C674,234.87,665,213.19,649.93,193.38Z"/><path id="Path_6273" data-name="Path 6273" class="cls-8" d="M624.55,99.87a190.93,190.93,0,0,1,17.66,17.41V184a189.68,189.68,0,0,0-17.66-17.41Z"/><path id="Path_6274" data-name="Path 6274" class="cls-33" d="M591.1,75.66A258.6,258.6,0,0,1,613.62,91v66.73a256.38,256.38,0,0,0-22.52-15.32Z"/><path id="Path_6275" data-name="Path 6275" class="cls-33" d="M468.93,62.48q6.9,1.49,13.66,3.16V88.77q-6.75-1.67-13.66-3.16Z"/><path id="Path_6276" data-name="Path 6276" class="cls-33" d="M443,80.87q7.19,1.16,14.22,2.51v19.17q-7-1.35-14.22-2.51Z"/><path id="Path_6277" data-name="Path 6277" class="cls-33" d="M416.18,60.39q7.41.81,14.71,1.82v17q-7.29-1-14.71-1.81Z"/><path id="Path_6278" data-name="Path 6278" class="cls-33" d="M388.5,41q7.62.44,15.14,1.09V76.22q-7.51-.64-15.14-1.09Z"/><path id="Path_6279" data-name="Path 6279" class="cls-33" d="M360.09,25.12h1.65q7,.07,13.87.31V74.57q-6.9-.24-13.87-.31l-1.65,0Z"/><path id="Path_6280" data-name="Path 6280" class="cls-8" d="M331.71,40.59q7.62-.33,15.35-.45V74.29q-7.72.12-15.35.45Z"/><path id="Path_6281" data-name="Path 6281" class="cls-33" d="M304,33.64q7.44-.7,15-1.2v43q-7.54.49-15,1.2Z"/><path id="Path_6282" data-name="Path 6282" class="cls-8" d="M277,18.27q7.22-1.05,14.57-1.91V77.81c-4.9.58-9.75,1.21-14.57,1.92Z"/></g><g id="Group_1095" data-name="Group 1095"><g id="Group_1092" data-name="Group 1092"><g id="Group_1085" data-name="Group 1085"><g id="Group_1081" data-name="Group 1081" class="cls-17"><path id="Path_6283" data-name="Path 6283" class="cls-36" d="M343.54,553.18a17.59,17.59,0,0,1,17.57,0L465.85,613.5a2.48,2.48,0,0,1,.91,3.38,2.46,2.46,0,0,1-.91.9l-105.61,61a15.51,15.51,0,0,1-15.51,0L239,617.84a2.48,2.48,0,0,1,0-4.28Z"/></g><g id="Group_1082" data-name="Group 1082" class="cls-17"><path id="Path_6284" data-name="Path 6284" class="cls-37" d="M343.54,535.53a17.59,17.59,0,0,1,17.57,0l104.74,60.32a2.48,2.48,0,0,1,0,4.29l-105.61,61a15.51,15.51,0,0,1-15.51,0L239,600.2a2.49,2.49,0,0,1,0-4.29Z"/></g><g id="Group_1083" data-name="Group 1083" class="cls-17"><path id="Path_6285" data-name="Path 6285" class="cls-38" d="M343.54,517.89a17.59,17.59,0,0,1,17.57,0l104.74,60.33a2.48,2.48,0,0,1,.91,3.38,2.38,2.38,0,0,1-.91.9l-105.61,61a15.51,15.51,0,0,1-15.51,0L239,582.55a2.48,2.48,0,0,1,0-4.28Z"/></g><g id="Group_1084" data-name="Group 1084" class="cls-17"><path id="Path_6286" data-name="Path 6286" class="cls-39" d="M343.54,500.25a17.56,17.56,0,0,1,17.57,0l104.74,60.33a2.48,2.48,0,0,1,.91,3.38,2.53,2.53,0,0,1-.91.9l-105.61,61a15.51,15.51,0,0,1-15.51,0L239,564.91a2.49,2.49,0,0,1,0-4.29Z"/></g><path id="Path_6287" data-name="Path 6287" class="cls-40" d="M239,560.62l104.58-60.37a17.56,17.56,0,0,1,17.57,0l104.74,60.33a2.45,2.45,0,0,1,1.24,2.14v52.93a2.47,2.47,0,0,1-1.24,2.14l-105.61,61a15.51,15.51,0,0,1-15.51,0L239,617.84a2.44,2.44,0,0,1-1.23-2.14V562.77h0A2.44,2.44,0,0,1,239,560.62Z"/></g><g id="Group_1091" data-name="Group 1091"><g id="Group_1086" data-name="Group 1086" class="cls-17"><path id="Path_6288" data-name="Path 6288" class="cls-41" d="M341.66,457A21.34,21.34,0,0,1,363,457l127,73.16a3,3,0,0,1,0,5.19L361.91,609.25a18.79,18.79,0,0,1-18.8,0L214.85,535.39a3,3,0,0,1,0-5.19Z"/></g><g id="Group_1087" data-name="Group 1087" class="cls-17"><path id="Path_6289" data-name="Path 6289" class="cls-42" d="M341.66,435.59a21.32,21.32,0,0,1,21.31,0l127,73.15a3,3,0,0,1,0,5.2L361.91,587.86a18.79,18.79,0,0,1-18.8,0L214.85,514a3,3,0,0,1-1.1-4.1,3.05,3.05,0,0,1,1.1-1.1Z"/></g><g id="Group_1088" data-name="Group 1088" class="cls-17"><path id="Path_6290" data-name="Path 6290" class="cls-43" d="M341.66,414.19a21.37,21.37,0,0,1,21.31,0l127,73.16a3,3,0,0,1,0,5.19L361.91,566.46a18.79,18.79,0,0,1-18.8,0L214.85,492.6a3,3,0,0,1,0-5.19Z"/></g><g id="Group_1089" data-name="Group 1089" class="cls-17"><path id="Path_6291" data-name="Path 6291" class="cls-44" d="M341.66,392.8a21.34,21.34,0,0,1,21.31,0l127,73.15a3,3,0,0,1,1.09,4.1,3,3,0,0,1-1.09,1.1L361.91,545.07a18.79,18.79,0,0,1-18.8,0L214.85,471.21a3,3,0,0,1-1.1-4.1,3.05,3.05,0,0,1,1.1-1.1Z"/></g><path id="Path_6292" data-name="Path 6292" class="cls-45" d="M214.85,466,341.66,392.8a21.3,21.3,0,0,1,21.3,0l127,73.15a3,3,0,0,1,1.5,2.6v64.18a2.94,2.94,0,0,1-1.5,2.6l-128,73.93a18.79,18.79,0,0,1-18.8,0L214.85,535.39a3,3,0,0,1-1.5-2.6V468.61h0A3,3,0,0,1,214.85,466Z"/><g id="Group_1090" data-name="Group 1090" class="cls-17"><path id="Path_6293" data-name="Path 6293" class="cls-44" d="M341.66,392.8a21.34,21.34,0,0,1,21.31,0l127,73.15a3,3,0,0,1,1.09,4.1,3,3,0,0,1-1.09,1.1L361.91,545.07a18.79,18.79,0,0,1-18.8,0L214.85,471.21a3,3,0,0,1-1.1-4.1,3.05,3.05,0,0,1,1.1-1.1Z"/></g><path id="Path_6294" data-name="Path 6294" class="cls-46" d="M214.85,468.25,343.1,542.11a18.79,18.79,0,0,0,18.8,0L490,468.18a2.91,2.91,0,0,0,1.11-1.12,3,3,0,0,1-1.11,4.08l-128,73.93a18.79,18.79,0,0,1-18.8,0L214.85,471.21a3,3,0,0,1-1.11-4.08A3,3,0,0,0,214.85,468.25Z"/></g></g><ellipse id="Ellipse_156" data-name="Ellipse 156" class="cls-47" cx="352.41" cy="465.19" rx="69.92" ry="40.37"/><g id="Group_1094" data-name="Group 1094"><path id="Path_6295" data-name="Path 6295" class="cls-8" d="M379,424s1.7,1.78,3.46,3.86,6.73,5,8.8,6.29,11.63,8.53,13.62,15.65-4.82,8.07-11.8,6.83-13.49-7.67-15.39-10-8.5-7.6-17.06-12-3.38-10.39-3.38-10.39Z"/><path id="Path_6296" data-name="Path 6296" class="cls-8" d="M315.46,445.17a26.43,26.43,0,0,0-1.81,7.33c-.4,4.11-1,13-1.19,15.66a22.07,22.07,0,0,0,4.3,15.12c4.6,6.12,7,8.54,13.09,6.13s6-12.66,4.89-17.94a144.14,144.14,0,0,1-2-18.31,3.64,3.64,0,0,0-.35-2Z"/><path id="Path_6297" data-name="Path 6297" class="cls-7" d="M400.11,303s-1.29,47-12.25,72A181,181,0,0,0,379,423.15s1.81,4.5-.76,8.16-18.66,7-21.32-5-1.64-34.54,1.28-43.92-1-35.25-1-35.25-4.4,2.81-10.16,21.39-10,25.67-12,30.81-3.81,36.63-2.55,52c0,0-13,1.85-16.8-4.38s-5-38.45-4.07-48.73,5.25-43.19,4.66-53.37-2.72-18.46-.39-28.63,71.1-32.78,71.1-32.78Z"/><path id="Path_6298" data-name="Path 6298" class="cls-8" d="M316.22,344.85c-.59-10.19-2.72-18.46-.39-28.63.88-3.82,11.14-9.4,23.61-14.88,21.05-1.92,47.74-4.15,49.58-3.87,1.66.25,6,1.9,9.62,3.35l1.47,2.18s-.08,2.86-.36,7.53c-4.91,1.47-14.36,0-14.36,0-1.32,3.3-9.53,15-19.72,20.1s-40.05,3.32-41.77,5.25-2,27.67-1.85,30.94-2.81,23.89-5.59,42.12c-2.73,17.93,1.43,39.73,1.56,40.43a7.41,7.41,0,0,1-2.4-2.36c-3.76-6.23-5-38.46-4.07-48.74S316.81,355,316.22,344.85Z"/><path id="Path_6299" data-name="Path 6299" class="cls-8" d="M377.09,149.16s15.25,3.48,20.39,4.68a2.65,2.65,0,0,1,1.86,1.61c1.48,3.75,5.2,15.41,2.4,32.43-3.45,20.91-2.35,35-2.35,35l7.05,36.73s8.87,35,8.11,35.93S394.12,311.45,388,309.35s-4.13-5.59-4.13-5.59-5,25.35-27,25.11-40-.17-43.78-9.08,1-46.35,4.91-61.18,13.12-44.37,13.12-44.37l-32.27-35.73,27.58-21.06s6.59-12.25,9.3-13.8,4.12-.24,4.12-.24Z"/><g id="Group_1093" data-name="Group 1093"><path id="Path_6300" data-name="Path 6300" class="cls-48" d="M387.6,301.27c0,1.27.72,3.17,4.68,4.53,4.28,1.46,14.76-4.91,21.64-9.7C410.48,299,393.6,311.28,388,309.35a10.2,10.2,0,0,1-2.76-1.38A45.66,45.66,0,0,0,387.6,301.27Z"/><path id="Path_6301" data-name="Path 6301" class="cls-49" d="M313.22,316.81c3.95,9.4,22.95,9.33,46.2,9.58a24.86,24.86,0,0,0,14.46-4.16,23.5,23.5,0,0,1-17,6.63c-22-.24-40-.17-43.78-9.08-1.23-2.92-1.53-8.93-1.26-16.2C311.74,309.49,312.16,314.27,313.22,316.81Z"/></g><path id="Path_6302" data-name="Path 6302" class="cls-50" d="M336.29,143.34s-5.63,6.82,2.47,16c5,5.67,13.58,17.88,20.9,30.57,4.57,7.92,8.79,12.14,11.18,18.95,0,0,.34-8.09.66-20.57.3-11.79.46-24-.07-27.12C370.35,154.84,342.52,140.25,336.29,143.34Z"/><path id="Path_6303" data-name="Path 6303" class="cls-51" d="M357.37,163.85s2.88,1.79,3.88,1.64,4.19-3.25,4.19-3.25,8-.14,8.87-3.57,1.45-6.88,2.26-8.66,4.26-10.33,4.29-13.8-.11-9.67,1.39-13,3.52-36.11-28.18-35.18-21.86,33.84-21.86,33.84-2.31,1-.91,5.22,1.72,4.68,2.43,6.78,1.07,3.46,3.08,5.16l.53,3.9a15.68,15.68,0,0,0,2.43,11.76C343.71,160.54,357.37,163.85,357.37,163.85Z"/><path id="Path_6304" data-name="Path 6304" class="cls-7" d="M398.35,154.22s3.38.5,14.35,28.09c6.12,15.4,15.56,31.34,17.56,42.78s.89,23.68-1.37,24.54S387.31,265.2,375,269.85a1.15,1.15,0,0,1-1.49-.67l-.06-.21-3.4-19,24.46-9.45s4.65-5.69,9-7.83c0,0-4.9-9-4.59-11.5s-.43-28,2.43-38.37S398.35,154.22,398.35,154.22Z"/><path id="Path_6305" data-name="Path 6305" class="cls-51" d="M384,227.14a46.43,46.43,0,0,1,4.2-2.59c.83-.32,5.34-1.86,6.2-2.24.64-.29,3.26-.07,4.57.06a1.42,1.42,0,0,1,1.12.75c1.05,1.93,3.94,7.54,3.62,9.69,0,0-8.15,5.14-9.05,7.43l-1.3.28S387.93,228.83,384,227.14Z"/><path id="Path_6306" data-name="Path 6306" class="cls-7" d="M318,258.61c.93-3.57,2.18-8,3.53-12.64L371,267.2a52.2,52.2,0,0,1-40.8,17.05,34.21,34.21,0,0,1-16.1-5.08A196.35,196.35,0,0,1,318,258.61Z"/><path id="Path_6307" data-name="Path 6307" class="cls-7" d="M298.81,178.51s13.06,1.8,23.62,18.53,18.24,36.08,18.24,36.08l.36,2.17a8.81,8.81,0,0,0,10.13,7.25,9,9,0,0,0,2.15-.65c11.14-5,27.64-12.5,30.72-14.75a28.4,28.4,0,0,1,12.56,18.34c2.15,10.28,1.6,10.31,1.6,10.31s-44,20.52-61,20.32-38.53-56-40.9-67.58S291.34,181.77,298.81,178.51Z"/><path id="Path_6308" data-name="Path 6308" class="cls-7" d="M298.81,178.51s13.06,1.8,23.62,18.53,18.24,36.08,18.24,36.08l.36,2.17a8.81,8.81,0,0,0,10.13,7.25,9,9,0,0,0,2.15-.65c11.14-5,27.64-12.5,30.72-14.75a28.4,28.4,0,0,1,12.56,18.34c2.15,10.28,1.6,10.31,1.6,10.31s-44,20.52-61,20.32-38.53-56-40.9-67.58S291.34,181.77,298.81,178.51Z"/><path id="Path_6309" data-name="Path 6309" class="cls-7" d="M347,244.49s-5.54,5.19-8,2.35-1.7-3.16-1.7-3.16-5,0-5.6-3.17-3.07-1.48-3.21-5,4-2.77,4-2.77Z"/><path id="Path_6310" data-name="Path 6310" class="cls-51" d="M353.7,241.72s-1.53-1.42-3.5-3.09-5.15-8.55-5.68-9.16-7.18-5.7-10.38-5.79-.82,3.5-.08,4,3.86,2.06,3.86,2.06,3.21,2.7,3.58,3.1-8.94-.64-10.41.26a2.52,2.52,0,0,0-.48,3.53,2.11,2.11,0,0,0,.39.4,3.65,3.65,0,0,0,1.83.63,3.24,3.24,0,0,0,1.75,4.1c2.79,1.3,3.43.57,3.43.57s.24,4.84,4.85,3.88Z"/><path id="Path_6311" data-name="Path 6311" class="cls-52" d="M383,106.48s4.14,13.17-6.75,9.42-20.74-10-24.17-7.63c-2.6,1.82-2.48,7.39-2.27,10a3.78,3.78,0,0,1-.66,2.46l-3.23,4.69a3.6,3.6,0,0,0-.62,1.79l-.23,3.26a1.63,1.63,0,0,1-1.54,1.52l-.75.05a1.64,1.64,0,0,1-1.7-1.35l-.84-4.8s-2.57-6.46-8-3.92c0,0-3.62-4.87-2.41-15.28s5.86-21.24,26.3-23S383,106.48,383,106.48Z"/><path id="Path_6312" data-name="Path 6312" class="cls-53" d="M351.74,175.45l3.06-2.38a16.62,16.62,0,0,1,3.93,4.85c1.1,2.49,0,10.4,0,10.4l.93,1.6,1.15-2.09,1-9.36s-1-6.92-1.15-7.1-5.9.61-5.9.61A12,12,0,0,0,351.74,175.45Z"/><path id="Path_6313" data-name="Path 6313" class="cls-53" d="M366.44,166.13s3.27.21,4.74,1.44c0,0-3.43.17-4,.23S366.44,166.13,366.44,166.13Z"/><path id="Path_6314" data-name="Path 6314" class="cls-7" d="M360.22,166.86,354.74,172s4.81,2.21,6.15,6.51c0,0,6,1.11,6.51-1.05s0-7.6.7-10S360.22,166.86,360.22,166.86Z"/><path id="Path_6315" data-name="Path 6315" class="cls-7" d="M367.18,177.33a30.51,30.51,0,0,0,2.13,6.34c1.12,1.86,2.26,3.93,2.26,3.93l-.14,26.3s-9.67-19.94-11.77-24c0,0,.32-9.6,1.23-11.42S367.18,177.33,367.18,177.33Z"/><path id="Path_6316" data-name="Path 6316" class="cls-54" d="M341.2,138.46c6.36,18.34,24.24,23.78,24.24,23.78s-3.2,3.11-4.2,3.26-3.88-1.65-3.88-1.65-13.65-3.31-17.59-9.11A15.62,15.62,0,0,1,337.34,143l-.53-3.9A4.29,4.29,0,0,0,341.2,138.46Z"/><path id="Path_6317" data-name="Path 6317" class="cls-7" d="M326.66,159.93s2.51,8.65,2.83,9,6.31-.37,6.31-.37l-2.9,5.5s30.1,32.28,36.33,49.64c0,0-14.24-22-39.3-48.29l3.54-5.37-6.15,1.21Z"/><path id="Path_6318" data-name="Path 6318" class="cls-7" d="M376.1,152.29l1.6,1.82-1.88,1.75,5.57,5s1.7,35.3-5.1,58.69c0,0,9.23-21.45,7.14-59.65l-6-4.09,2-1.93Z"/><path id="Path_6319" data-name="Path 6319" class="cls-8" d="M357.13,347.13l-.2.16,7.8-8.3c-3.6,5.08.54,28.32,1,33.64s-4.16,16.31-5.88,29.18,1.8,31.21,1.81,31.27a10,10,0,0,1-4.74-6.78c-2.66-12-1.64-34.53,1.29-43.92S357.13,347.13,357.13,347.13Z"/><path id="Path_6320" data-name="Path 6320" class="cls-55" d="M337.23,276.11c-17-.2-38.53-56-40.9-67.58-.4-1.93-.79-4-1.15-6,.06.17,4.46,12.23,8.7,22.92s27,43.39,38.56,45.51c10.46,1.92,48.09-15.64,55.37-19.11.66,3.92.38,4,.38,4S354.21,276.31,337.23,276.11Z"/><path id="Path_6321" data-name="Path 6321" class="cls-56" d="M342.74,132a1.62,1.62,0,0,1-1.7-1.35l-.84-4.8s-2.57-6.45-8-3.91c0,0-3.42-4.63-2.49-14.47,6,9,19.39,13.22,19.39,13.22l-3.23,4.7a3.56,3.56,0,0,0-.62,1.78l-.23,3.27a1.65,1.65,0,0,1-1.54,1.52Z"/></g></g><g id="Group_1096" data-name="Group 1096"><path id="Path_6322" data-name="Path 6322" class="cls-32" d="M134.89,403.88V385.94q5.4,2.9,11,5.63v17.94q-5.62-2.75-11-5.63ZM99.57,381.47V348.41q4.47,3.38,9.23,6.62v33.05q-4.76-3.24-9.23-6.62Zm16.84,11.63v-39q4.95,3.15,10.15,6.15v39q-5.19-3-10.15-6.15ZM71.23,355.87V312.62q3.43,3.78,7.18,7.45v43.26q-3.73-3.68-7.18-7.46ZM84.48,369V322.17q4,3.6,8.23,7.06V376.1q-4.26-3.48-8.23-7.06ZM50.72,327.58V276.77q2.28,4.14,4.91,8.17v50.81q-2.62-4-4.91-8.17ZM59.94,342v-66.1q2.88,4,6.08,7.84v66.09Q62.81,346,59.94,342ZM43.66,312.58V237.94q1.67,4.27,3.68,8.47v74.64q-2-4.19-3.68-8.46Zm124.91,16.57c-71-28.61-120.09-73.81-130.36-125.6V309.72c10.27,51.78,59.34,97,130.36,125.6V329.15Z"/><path id="Path_6323" data-name="Path 6323" class="cls-32" d="M386.61,447.07V423.13q18.33-1,36-3.2v23.95q-17.65,2.17-36,3.2Zm-57.43.11V403.55q11,.56,22.18.67,7.65.07,15.22-.06V447.8q-7.57.13-15.22.06-11.19-.12-22.18-.67Zm-55.35-5.72V374.74q17.35,2.75,35.51,4.35v66.73q-18.13-1.6-35.51-4.36Zm167.71-.29V370.7q17.23-2.79,33.63-6.68v70.47Q458.79,438.36,441.54,441.17Zm61.95-100.81c-45.24,13.92-97.14,21.6-152.13,21a517.79,517.79,0,0,1-108.58-12.34V455.22a517.14,517.14,0,0,0,108.58,12.35c55,.55,106.89-7.13,152.13-21.05V340.36Z"/><path id="Path_6324" data-name="Path 6324" class="cls-32" d="M588,370.72V350.17c49.54-29.25,81.79-68.26,87.06-111.65v20.56c-5.27,43.39-37.52,82.39-87.06,111.65Zm87.78-78.28V186.28c-1.59,51.93-41.72,98.28-104.48,130.23V422.67c62.76-31.95,102.9-78.31,104.48-130.23Z"/><path id="Path_6325" data-name="Path 6325" class="cls-33" d="M675.06,238.53c-5.27,43.38-37.52,82.39-87.06,111.64v20.55c49.54-29.25,81.79-68.25,87.06-111.64V238.53Z"/><path id="Path_6326" data-name="Path 6326" class="cls-8" d="M306.52,379.09Q288.4,377.5,271,374.74v66.72q17.37,2.75,35.51,4.36Z"/><path id="Path_6327" data-name="Path 6327" class="cls-8" d="M423.3,419.93q-17.67,2.19-36,3.2v23.95q18.33-1,36-3.2Z"/><path id="Path_6328" data-name="Path 6328" class="cls-8" d="M477.49,364q-16.37,3.87-33.63,6.68v70.47q17.24-2.81,33.63-6.69Z"/><path id="Path_6329" data-name="Path 6329" class="cls-33" d="M365.5,404.16q-7.56.13-15.22.06-11.19-.11-22.18-.67v43.64q11,.56,22.18.67,7.65.08,15.22-.06Z"/><path id="Path_6330" data-name="Path 6330" class="cls-8" d="M47.34,246.41q-2-4.2-3.68-8.47v74.65q1.67,4.28,3.68,8.46Z"/><path id="Path_6331" data-name="Path 6331" class="cls-8" d="M55.62,284.94q-2.61-4-4.9-8.17v50.81q2.28,4.13,4.9,8.17Z"/><path id="Path_6332" data-name="Path 6332" class="cls-33" d="M66,283.77q-3.21-3.87-6.08-7.84V342q2.88,4,6.08,7.83Z"/><path id="Path_6333" data-name="Path 6333" class="cls-8" d="M78.41,320.07q-3.73-3.68-7.18-7.45v43.25q3.43,3.78,7.18,7.46Z"/><path id="Path_6334" data-name="Path 6334" class="cls-33" d="M92.71,329.24q-4.26-3.48-8.24-7.06V369q4,3.58,8.24,7.06Z"/><path id="Path_6335" data-name="Path 6335" class="cls-33" d="M108.79,355q-4.74-3.24-9.22-6.62v33.06q4.47,3.38,9.22,6.62Z"/><path id="Path_6336" data-name="Path 6336" class="cls-33" d="M126.56,360.26q-5.19-3-10.16-6.15v39c3.31,2.1,6.69,4.14,10.16,6.15v-39Z"/><path id="Path_6337" data-name="Path 6337" class="cls-33" d="M145.91,391.57q-5.62-2.74-11-5.63v17.94q5.4,2.88,11,5.63Z"/></g></g></svg>