<svg id="Layer_1" data-name="Layer 1" xmlns="http://www.w3.org/2000/svg" viewBox="0 0 1080 1080"><defs><style>.cls-1{fill:#171930;}.cls-2{fill:#e62c2b;}.cls-3,.cls-5{fill:#e5e4e4;}.cls-4{fill:#fff;}.cls-5{opacity:0.4;}</style></defs><path class="cls-1" d="M321.29,588l-159.9-91.18c-5.85-3.38-5.12-9.27,1.64-13.17l92-53.12c6.75-3.9,17-4.32,22.81-.94l159.9,91.17c5.85,3.38,5.12,9.28-1.63,13.17l-92,53.12C337.35,591,327.14,591.41,321.29,588Z"/><path class="cls-2" d="M452,490.11h0V116.81L303.6,78,276.26,62.19C270,58.57,259,59,251.79,63.2l-25.5,14.73-79.16-.05,23.44,360.37c-.18,2.45,1.19,4.82,4.2,6.56l148.1,111.74c6.27,3.62,17.23,3.17,24.48-1l98.69-57C450.22,496.14,452.24,493,452,490.11Z"/><path class="cls-3" d="M264.91,59.76a28.24,28.24,0,0,0-13.12,3.44l-25.5,14.73-79.16-.05v374.3c-.18,2.46,1.19,4.82,4.2,6.56l171.54,97.81A22.18,22.18,0,0,0,334.23,559L336,182.34Z"/><path class="cls-2" d="M324.44,557.32c5.42,2.32,13.24,2.19,19.57-.22V177.89H324.44Z"/><path class="cls-3" d="M322.87,182.38,151.33,84.57c-6.27-3.62-5.48-9.95,1.76-14.13l98.7-57c7.24-4.18,18.2-4.64,24.47-1L447.8,110.26c6.27,3.62,5.49,9.94-1.76,14.13l-98.69,57C340.1,185.55,329.14,186,322.87,182.38Z"/><path class="cls-3" d="M446,117.45l-98.69,57c-7.25,4.18-18.21,4.64-24.48,1L151.33,77.63a9.65,9.65,0,0,1-3.13-2.77c-2.15,3.46-1.17,7.23,3.13,9.71l171.54,97.81c6.27,3.63,17.23,3.17,24.48-1l98.69-57c5.63-3.25,7.34-7.79,4.89-11.36A13.6,13.6,0,0,1,446,117.45Z"/><path class="cls-1" d="M327.72,142.74l-114.2-66.2c-2.94-1.69-2.57-4.65.82-6.61l46.19-26.67c3.39-1.95,8.51-2.17,11.45-.47L386.18,109c2.94,1.7,2.57,4.66-.82,6.61l-46.18,26.67C335.79,144.23,330.66,144.44,327.72,142.74Z"/><path class="cls-3" d="M266.07,79.52l-6.62-3.83c-.41-.23-.36-.64.11-.91L266,71.09a1.79,1.79,0,0,1,1.59-.07l6.62,3.83c.4.23.35.64-.12.91l-6.39,3.69A1.77,1.77,0,0,1,266.07,79.52Z"/><path class="cls-3" d="M288.18,92.23l-6.62-3.82c-.41-.24-.36-.65.11-.92l6.39-3.69a1.76,1.76,0,0,1,1.59-.06l6.61,3.82c.41.23.36.64-.11.91l-6.39,3.69A1.77,1.77,0,0,1,288.18,92.23Z"/><path class="cls-3" d="M310.28,104.94l-6.61-3.82c-.41-.23-.36-.64.11-.92l6.39-3.68a1.76,1.76,0,0,1,1.59-.07l6.61,3.82c.41.24.36.64-.11.92l-6.39,3.68A1.76,1.76,0,0,1,310.28,104.94Z"/><path class="cls-3" d="M332.39,117.65l-6.61-3.82c-.41-.23-.36-.64.11-.91l6.39-3.69a1.77,1.77,0,0,1,1.58-.07l6.62,3.82c.41.24.36.65-.11.92L334,117.59A1.76,1.76,0,0,1,332.39,117.65Z"/><path class="cls-2" d="M213.52,76.54l.13.08c.23-.16.43-.32.69-.47l46.19-26.67C263.92,47.53,269,47.31,272,49l114.07,66.12c2.7-1.94,2.85-4.57.13-6.14L272,42.79c-2.94-1.7-8.06-1.48-11.45.47L214.34,69.93C211,71.89,210.58,74.85,213.52,76.54Z"/><path class="cls-1" d="M366.62,256.34l64.93-37.17c3.65-2.11,6.61-7.77,6.61-12.65V183.3c0-4.87-3-7.11-6.61-5l-64.93,37.18c-3.66,2.11-6.62,7.77-6.62,12.64v23.22C360,256.21,363,258.45,366.62,256.34Z"/><path class="cls-4" d="M434.76,177.6a6.49,6.49,0,0,1,1.66,4.83v23.22c0,4.87-3,10.54-6.61,12.64l-64.94,37.18a4.75,4.75,0,0,1-3.21.7c1.21,1.15,3,1.32,5,.17l64.93-37.17c3.65-2.11,6.62-7.77,6.62-12.65V183.3C438.17,180,436.78,178,434.76,177.6Z"/><path class="cls-2" d="M386.15,231.12l6-3.44a3.44,3.44,0,0,0,1.44-2.76v-6.36c0-1.06-.64-1.55-1.44-1.09l-6,3.44a3.45,3.45,0,0,0-1.45,2.76V230C384.7,231.09,385.35,231.58,386.15,231.12Z"/><path class="cls-4" d="M406.06,219.62l6-3.44a3.44,3.44,0,0,0,1.44-2.76v-6.36c0-1.06-.64-1.55-1.44-1.09l-6,3.44a3.47,3.47,0,0,0-1.44,2.76v6.36C404.62,219.59,405.27,220.08,406.06,219.62Z"/><path class="cls-1" d="M366.62,424.14,431.55,387c3.65-2.11,6.61-7.77,6.61-12.64V351.1c0-4.87-3-7.11-6.61-5l-64.93,37.18C363,385.39,360,391,360,395.92v23.22C360,424,363,426.25,366.62,424.14Z"/><path class="cls-4" d="M434.76,345.4a6.48,6.48,0,0,1,1.66,4.83v23.22c0,4.87-3,10.53-6.61,12.64l-64.94,37.18a4.75,4.75,0,0,1-3.21.7c1.21,1.14,3,1.31,5,.17L431.55,387c3.65-2.11,6.62-7.77,6.62-12.64V351.1C438.17,347.79,436.78,345.74,434.76,345.4Z"/><path class="cls-2" d="M386.15,398.91l6-3.43a3.45,3.45,0,0,0,1.44-2.76v-6.36c0-1.06-.64-1.55-1.44-1.09l-6,3.44a3.44,3.44,0,0,0-1.45,2.75v6.36C384.7,398.89,385.35,399.37,386.15,398.91Z"/><path class="cls-4" d="M406.06,387.42l6-3.44a3.45,3.45,0,0,0,1.44-2.76v-6.36c0-1.06-.64-1.55-1.44-1.09l-6,3.44a3.46,3.46,0,0,0-1.44,2.75v6.37C404.62,387.39,405.27,387.88,406.06,387.42Z"/><path class="cls-1" d="M366.62,508l64.93-37.18c3.65-2.11,6.61-7.77,6.61-12.64V435c0-4.87-3-7.11-6.61-5l-64.93,37.17c-3.66,2.11-6.62,7.77-6.62,12.64V503C360,507.91,363,510.15,366.62,508Z"/><path class="cls-4" d="M434.76,429.3a6.48,6.48,0,0,1,1.66,4.83v23.22c0,4.87-3,10.53-6.61,12.64l-64.94,37.18a4.81,4.81,0,0,1-3.21.7c1.21,1.14,3,1.31,5,.17l64.93-37.18c3.65-2.11,6.62-7.77,6.62-12.64V435C438.17,431.69,436.78,429.64,434.76,429.3Z"/><path class="cls-2" d="M386.15,482.81l6-3.44a3.43,3.43,0,0,0,1.44-2.75v-6.36c0-1.07-.64-1.55-1.44-1.09l-6,3.43a3.46,3.46,0,0,0-1.45,2.76v6.36C384.7,482.78,385.35,483.27,386.15,482.81Z"/><path class="cls-4" d="M406.06,471.31l6-3.44a3.43,3.43,0,0,0,1.44-2.75v-6.36c0-1.07-.64-1.55-1.44-1.09l-6,3.44a3.46,3.46,0,0,0-1.44,2.75v6.36C404.62,471.29,405.27,471.77,406.06,471.31Z"/><path class="cls-1" d="M366.62,340.24l64.93-37.18c3.65-2.11,6.61-7.77,6.61-12.64V267.2c0-4.87-3-7.11-6.61-5l-64.93,37.18C363,301.49,360,307.15,360,312v23.22C360,340.11,363,342.35,366.62,340.24Z"/><path class="cls-4" d="M434.76,261.5a6.48,6.48,0,0,1,1.66,4.83v23.22c0,4.87-3,10.53-6.61,12.64l-64.94,37.18a4.75,4.75,0,0,1-3.21.7c1.21,1.14,3,1.32,5,.17l64.93-37.18c3.65-2.11,6.62-7.77,6.62-12.64V267.2C438.17,263.89,436.78,261.84,434.76,261.5Z"/><path class="cls-2" d="M386.15,315l6-3.44a3.45,3.45,0,0,0,1.44-2.76v-6.36c0-1.06-.64-1.55-1.44-1.09l-6,3.44a3.44,3.44,0,0,0-1.45,2.75v6.37C384.7,315,385.35,315.48,386.15,315Z"/><path class="cls-4" d="M406.06,303.52l6-3.44a3.45,3.45,0,0,0,1.44-2.76V291c0-1.06-.64-1.55-1.44-1.09l-6,3.44a3.46,3.46,0,0,0-1.44,2.75v6.37C404.62,303.49,405.27,304,406.06,303.52Z"/><path class="cls-2" d="M310.38,232.57,160.57,146.08c-3.35-1.93-6.07-7.13-6.07-11.6V105.92c0-4.47,2.72-6.53,6.07-4.59l149.81,86.49c3.35,1.93,6.07,7.13,6.07,11.6V228C316.45,232.45,313.73,234.51,310.38,232.57Z"/><path class="cls-5" d="M306.07,222.56,164.87,141a7.38,7.38,0,0,1-3.08-5.88V113.67c0-2.27,1.38-3.31,3.08-2.33l141.2,81.53a7.34,7.34,0,0,1,3.08,5.88v21.48C309.15,222.5,307.78,223.54,306.07,222.56Z"/><path class="cls-3" d="M194.3,147.16,173.22,135a7.18,7.18,0,0,1-3-5.72h0c0-2.2,1.34-3.21,3-2.26l21.08,12.17a7.16,7.16,0,0,1,3,5.71h0C197.29,147.11,196,148.12,194.3,147.16Z"/><ellipse class="cls-1" cx="208.8" cy="151.55" rx="2.82" ry="4.88" transform="matrix(0.87, -0.5, 0.5, 0.87, -47.8, 124.72)"/><path class="cls-1" d="M224.44,160.58c0,2.2-1.55,3.09-3.45,2a7.63,7.63,0,0,1-3.46-6c0-2.2,1.55-3.09,3.46-2A7.65,7.65,0,0,1,224.44,160.58Z"/><path class="cls-3" d="M236.62,167.61c0,2.21-1.54,3.1-3.45,2a7.62,7.62,0,0,1-3.45-6c0-2.21,1.54-3.1,3.45-2A7.62,7.62,0,0,1,236.62,167.61Z"/><path class="cls-1" d="M248.81,174.65c0,2.2-1.55,3.09-3.46,2a7.65,7.65,0,0,1-3.45-6c0-2.2,1.55-3.09,3.45-2A7.63,7.63,0,0,1,248.81,174.65Z"/><path class="cls-1" d="M300.14,210.6l-7.1-4.1a4.59,4.59,0,0,1-1.92-3.67v-7.51c0-1.41.86-2.06,1.92-1.45l7.1,4.1a4.59,4.59,0,0,1,1.92,3.67v7.51C302.06,210.56,301.2,211.21,300.14,210.6Z"/><path class="cls-2" d="M310.38,283l-149.81-86.5c-3.35-1.93-6.07-7.13-6.07-11.6V156.29c0-4.47,2.72-6.53,6.07-4.59l149.81,86.49c3.35,1.94,6.07,7.13,6.07,11.6v28.57C316.45,282.83,313.73,284.88,310.38,283Z"/><path class="cls-5" d="M306.07,272.93,164.87,191.4a7.36,7.36,0,0,1-3.08-5.88V164c0-2.26,1.38-3.31,3.08-2.33l141.2,81.53a7.36,7.36,0,0,1,3.08,5.89V270.6C309.15,272.87,307.78,273.91,306.07,272.93Z"/><path class="cls-3" d="M194.3,197.54l-21.08-12.17a7.16,7.16,0,0,1-3-5.71h0c0-2.21,1.34-3.22,3-2.27l21.08,12.17a7.16,7.16,0,0,1,3,5.72h0C197.29,197.48,196,198.49,194.3,197.54Z"/><path class="cls-4" d="M212.25,203.92c0,2.2-1.54,3.09-3.45,2a7.62,7.62,0,0,1-3.45-6c0-2.2,1.54-3.1,3.45-2A7.64,7.64,0,0,1,212.25,203.92Z"/><path class="cls-1" d="M224.44,211c0,2.2-1.55,3.1-3.45,2a7.65,7.65,0,0,1-3.46-6c0-2.2,1.55-3.09,3.46-2A7.65,7.65,0,0,1,224.44,211Z"/><path class="cls-3" d="M236.62,218c0,2.2-1.54,3.09-3.45,2a7.62,7.62,0,0,1-3.45-6c0-2.2,1.54-3.1,3.45-2A7.64,7.64,0,0,1,236.62,218Z"/><ellipse class="cls-1" cx="245.35" cy="223.03" rx="2.82" ry="4.88" transform="translate(-78.65 152.57) rotate(-30)"/><path class="cls-1" d="M300.14,261l-7.1-4.1a4.59,4.59,0,0,1-1.92-3.67v-7.51c0-1.41.86-2.06,1.92-1.45l7.1,4.1a4.6,4.6,0,0,1,1.92,3.67v7.51C302.06,260.93,301.2,261.58,300.14,261Z"/><path class="cls-2" d="M310.38,333.32,160.57,246.83c-3.35-1.94-6.07-7.13-6.07-11.6V206.66c0-4.47,2.72-6.52,6.07-4.59l149.81,86.49c3.35,1.94,6.07,7.13,6.07,11.6v28.57C316.45,333.2,313.73,335.25,310.38,333.32Z"/><path class="cls-5" d="M306.07,323.3l-141.2-81.52a7.4,7.4,0,0,1-3.08-5.89V214.42c0-2.27,1.38-3.31,3.08-2.33l141.2,81.52a7.36,7.36,0,0,1,3.08,5.89V321C309.15,323.24,307.78,324.28,306.07,323.3Z"/><path class="cls-3" d="M194.3,247.91l-21.08-12.17a7.16,7.16,0,0,1-3-5.71h0c0-2.2,1.34-3.22,3-2.26l21.08,12.16a7.19,7.19,0,0,1,3,5.72h0C197.29,247.85,196,248.86,194.3,247.91Z"/><path class="cls-4" d="M212.25,254.29c0,2.2-1.54,3.1-3.45,2a7.62,7.62,0,0,1-3.45-6c0-2.2,1.54-3.09,3.45-2A7.62,7.62,0,0,1,212.25,254.29Z"/><path class="cls-1" d="M224.44,261.32c0,2.21-1.55,3.1-3.45,2a7.63,7.63,0,0,1-3.46-6c0-2.21,1.55-3.1,3.46-2A7.65,7.65,0,0,1,224.44,261.32Z"/><path class="cls-3" d="M236.62,268.36c0,2.2-1.54,3.09-3.45,2a7.62,7.62,0,0,1-3.45-6c0-2.2,1.54-3.09,3.45-2A7.62,7.62,0,0,1,236.62,268.36Z"/><path class="cls-1" d="M248.81,275.39c0,2.21-1.55,3.1-3.46,2a7.65,7.65,0,0,1-3.45-6c0-2.21,1.55-3.1,3.45-2A7.63,7.63,0,0,1,248.81,275.39Z"/><path class="cls-1" d="M300.14,311.34l-7.1-4.1a4.59,4.59,0,0,1-1.92-3.66v-7.51c0-1.42.86-2.07,1.92-1.45l7.1,4.09a4.62,4.62,0,0,1,1.92,3.67v7.51C302.06,311.31,301.2,312,300.14,311.34Z"/><path class="cls-2" d="M310.38,383.69,160.57,297.2c-3.35-1.94-6.07-7.13-6.07-11.6V257c0-4.47,2.72-6.52,6.07-4.59l149.81,86.5c3.35,1.93,6.07,7.12,6.07,11.6V379.1C316.45,383.57,313.73,385.63,310.38,383.69Z"/><path class="cls-5" d="M306.07,373.67l-141.2-81.52a7.38,7.38,0,0,1-3.08-5.89V264.79c0-2.27,1.38-3.31,3.08-2.33L306.07,344a7.34,7.34,0,0,1,3.08,5.88v21.48C309.15,373.61,307.78,374.66,306.07,373.67Z"/><path class="cls-3" d="M194.3,298.28l-21.08-12.16a7.19,7.19,0,0,1-3-5.72h0c0-2.2,1.34-3.21,3-2.26l21.08,12.17a7.16,7.16,0,0,1,3,5.71h0C197.29,298.22,196,299.24,194.3,298.28Z"/><path class="cls-1" d="M212.25,304.66c0,2.21-1.54,3.1-3.45,2a7.62,7.62,0,0,1-3.45-6c0-2.2,1.54-3.09,3.45-2A7.62,7.62,0,0,1,212.25,304.66Z"/><ellipse class="cls-1" cx="220.99" cy="309.7" rx="2.82" ry="4.88" transform="translate(-125.25 152) rotate(-30)"/><path class="cls-3" d="M236.62,318.73c0,2.2-1.54,3.1-3.45,2a7.64,7.64,0,0,1-3.45-6c0-2.2,1.54-3.09,3.45-2A7.62,7.62,0,0,1,236.62,318.73Z"/><path class="cls-1" d="M248.81,325.77c0,2.2-1.55,3.09-3.46,2a7.65,7.65,0,0,1-3.45-6c0-2.2,1.55-3.1,3.45-2A7.65,7.65,0,0,1,248.81,325.77Z"/><path class="cls-3" d="M300.14,361.72l-7.1-4.1a4.6,4.6,0,0,1-1.92-3.67v-7.51c0-1.41.86-2.06,1.92-1.45l7.1,4.1a4.59,4.59,0,0,1,1.92,3.66v7.51C302.06,361.68,301.2,362.33,300.14,361.72Z"/><path class="cls-2" d="M310.38,434.06,160.57,347.57c-3.35-1.93-6.07-7.13-6.07-11.6V307.41c0-4.47,2.72-6.53,6.07-4.59l149.81,86.49c3.35,1.93,6.07,7.13,6.07,11.6v28.56C316.45,433.94,313.73,436,310.38,434.06Z"/><path class="cls-5" d="M306.07,424.05l-141.2-81.53a7.38,7.38,0,0,1-3.08-5.88V315.16c0-2.27,1.38-3.31,3.08-2.33l141.2,81.53a7.34,7.34,0,0,1,3.08,5.88v21.48C309.15,424,307.78,425,306.07,424.05Z"/><path class="cls-3" d="M194.3,348.66l-21.08-12.17a7.18,7.18,0,0,1-3-5.72h0c0-2.2,1.34-3.21,3-2.26l21.08,12.17a7.16,7.16,0,0,1,3,5.71h0C197.29,348.6,196,349.61,194.3,348.66Z"/><path class="cls-1" d="M212.25,355c0,2.21-1.54,3.1-3.45,2a7.62,7.62,0,0,1-3.45-6c0-2.21,1.54-3.1,3.45-2A7.62,7.62,0,0,1,212.25,355Z"/><path class="cls-4" d="M224.44,362.07c0,2.2-1.55,3.1-3.45,2a7.63,7.63,0,0,1-3.46-6c0-2.2,1.55-3.09,3.46-2A7.65,7.65,0,0,1,224.44,362.07Z"/><path class="cls-3" d="M236.62,369.1c0,2.21-1.54,3.1-3.45,2a7.62,7.62,0,0,1-3.45-6c0-2.21,1.54-3.1,3.45-2A7.62,7.62,0,0,1,236.62,369.1Z"/><path class="cls-4" d="M248.81,376.14c0,2.2-1.55,3.09-3.46,2a7.65,7.65,0,0,1-3.45-6c0-2.2,1.55-3.09,3.45-2A7.63,7.63,0,0,1,248.81,376.14Z"/><path class="cls-3" d="M300.14,412.09,293,408a4.59,4.59,0,0,1-1.92-3.67v-7.51c0-1.41.86-2.06,1.92-1.45l7.1,4.1a4.59,4.59,0,0,1,1.92,3.67v7.51C302.06,412.05,301.2,412.7,300.14,412.09Z"/><path class="cls-2" d="M310.38,484.44l-149.81-86.5c-3.35-1.93-6.07-7.12-6.07-11.6V357.78c0-4.47,2.72-6.53,6.07-4.59l149.81,86.49c3.35,1.94,6.07,7.13,6.07,11.6v28.57C316.45,484.32,313.73,486.37,310.38,484.44Z"/><path class="cls-5" d="M306.07,474.42l-141.2-81.53a7.36,7.36,0,0,1-3.08-5.88V365.53c0-2.26,1.38-3.31,3.08-2.32l141.2,81.52a7.36,7.36,0,0,1,3.08,5.89v21.47C309.15,474.36,307.78,475.4,306.07,474.42Z"/><path class="cls-3" d="M194.3,399l-21.08-12.17a7.16,7.16,0,0,1-3-5.71h0c0-2.21,1.34-3.22,3-2.27l21.08,12.17a7.18,7.18,0,0,1,3,5.72h0C197.29,399,196,400,194.3,399Z"/><ellipse class="cls-1" cx="208.8" cy="403.41" rx="2.82" ry="4.88" transform="matrix(0.87, -0.5, 0.5, 0.87, -173.74, 158.46)"/><path class="cls-1" d="M224.44,412.44c0,2.2-1.55,3.1-3.45,2a7.65,7.65,0,0,1-3.46-6c0-2.2,1.55-3.09,3.46-2A7.65,7.65,0,0,1,224.44,412.44Z"/><path class="cls-3" d="M236.62,419.48c0,2.2-1.54,3.09-3.45,2a7.62,7.62,0,0,1-3.45-6c0-2.2,1.54-3.1,3.45-2A7.64,7.64,0,0,1,236.62,419.48Z"/><path class="cls-1" d="M248.81,426.51c0,2.2-1.55,3.1-3.46,2a7.67,7.67,0,0,1-3.45-6c0-2.2,1.55-3.09,3.45-2A7.63,7.63,0,0,1,248.81,426.51Z"/><path class="cls-1" d="M300.14,462.46l-7.1-4.1a4.59,4.59,0,0,1-1.92-3.67v-7.51c0-1.41.86-2.06,1.92-1.45l7.1,4.1a4.6,4.6,0,0,1,1.92,3.67V461C302.06,462.42,301.2,463.07,300.14,462.46Z"/><path class="cls-2" d="M310.38,534.81,160.57,448.32c-3.35-1.94-6.07-7.13-6.07-11.6V408.15c0-4.47,2.72-6.52,6.07-4.59l149.81,86.49c3.35,1.94,6.07,7.13,6.07,11.6v28.57C316.45,534.69,313.73,536.74,310.38,534.81Z"/><path class="cls-5" d="M306.07,524.79l-141.2-81.52a7.4,7.4,0,0,1-3.08-5.89V415.91c0-2.27,1.38-3.31,3.08-2.33l141.2,81.52a7.37,7.37,0,0,1,3.08,5.89v21.47C309.15,524.73,307.78,525.77,306.07,524.79Z"/><path class="cls-3" d="M194.3,449.4l-21.08-12.17a7.16,7.16,0,0,1-3-5.71h0c0-2.2,1.34-3.22,3-2.26l21.08,12.16a7.19,7.19,0,0,1,3,5.72h0C197.29,449.34,196,450.35,194.3,449.4Z"/><path class="cls-4" d="M216.11,458.51c0,4.16-2.93,5.84-6.53,3.76a14.42,14.42,0,0,1-6.52-11.3c0-4.16,2.92-5.84,6.52-3.76A14.44,14.44,0,0,1,216.11,458.51Z"/><path class="cls-1" d="M241.34,473.27c0,2.21-1.54,3.1-3.45,2a7.63,7.63,0,0,1-3.46-6c0-2.21,1.55-3.1,3.46-2A7.62,7.62,0,0,1,241.34,473.27Z"/><path class="cls-3" d="M253.53,480.31c0,2.2-1.55,3.09-3.46,2a7.65,7.65,0,0,1-3.45-6c0-2.2,1.55-3.09,3.45-2A7.63,7.63,0,0,1,253.53,480.31Z"/><path class="cls-1" d="M265.71,487.34c0,2.21-1.54,3.1-3.45,2a7.63,7.63,0,0,1-3.46-6c0-2.21,1.55-3.1,3.46-2A7.62,7.62,0,0,1,265.71,487.34Z"/><path class="cls-3" d="M300.14,512.83l-7.1-4.1a4.59,4.59,0,0,1-1.92-3.66v-7.51c0-1.42.86-2.07,1.92-1.45l7.1,4.09a4.62,4.62,0,0,1,1.92,3.67v7.51C302.06,512.8,301.2,513.45,300.14,512.83Z"/><path class="cls-2" d="M300.43,661.29a3,3,0,0,1-1.49-.39l-170.3-96.79a6.6,6.6,0,0,1-.09-11.42l73.06-43.12a8.53,8.53,0,0,0,4.17-7.31V454.74a3,3,0,1,1,6,0v47.52a14.6,14.6,0,0,1-7.14,12.51l-73.06,43.12a.52.52,0,0,0-.28.49.54.54,0,0,0,.29.49l170.29,96.78a3,3,0,0,1-1.49,5.64Z"/><rect class="cls-2" x="248.78" y="616.37" width="16.18" height="34.91" transform="translate(934.49 726.27) rotate(119.83)"/><path class="cls-2" d="M236,628.46a12.67,12.67,0,0,1,5.69-9.93c3.16-1.83,5.72-.36,5.73,3.29a12.64,12.64,0,0,1-5.69,9.92C238.6,633.58,236,632.11,236,628.46Z"/><rect class="cls-2" x="277.37" y="625.71" width="26.22" height="54.76" transform="translate(1001.53 725.98) rotate(119.83)"/><path class="cls-2" d="M271.06,632.63l-10.25-5.88a21,21,0,0,0-8.05,14L263,646.67A21,21,0,0,0,271.06,632.63Z"/><path class="cls-2" d="M257.47,644.85c0-5.91,4.11-13.11,9.22-16.08s9.27-.59,9.29,5.32-4.11,13.11-9.22,16.08S257.49,650.76,257.47,644.85Z"/><path class="cls-3" d="M245.57,624.71c-1.48-.85-1.48-2.24,0-3.1a5.94,5.94,0,0,1,5.37,0c1.49.85,1.49,2.24,0,3.1A5.94,5.94,0,0,1,245.57,624.71Z"/><rect class="cls-2" x="211.96" y="638.62" width="16.18" height="34.91" transform="translate(898.65 791.54) rotate(119.83)"/><path class="cls-2" d="M199.19,650.71a12.65,12.65,0,0,1,5.69-9.92c3.16-1.83,5.72-.36,5.73,3.29a12.63,12.63,0,0,1-5.69,9.92C201.77,655.83,199.2,654.36,199.19,650.71Z"/><rect class="cls-2" x="240.54" y="647.97" width="26.22" height="54.76" transform="translate(965.69 791.25) rotate(119.83)"/><path class="cls-2" d="M234.23,654.89,224,649a21,21,0,0,0-8,14l10.25,5.87A20.91,20.91,0,0,0,234.23,654.89Z"/><path class="cls-2" d="M220.65,667.11c0-5.91,4.11-13.11,9.22-16.08s9.26-.59,9.28,5.32-4.11,13.11-9.22,16.08S220.66,673,220.65,667.11Z"/><path class="cls-3" d="M208.75,647c-1.49-.85-1.49-2.24,0-3.1a5.92,5.92,0,0,1,5.36,0c1.49.85,1.49,2.24,0,3.1A5.92,5.92,0,0,1,208.75,647Z"/><path class="cls-2" d="M819.69,390.24a3.23,3.23,0,0,1-.69-.07,3,3,0,0,1-2.26-3.62l29.43-127.77a3,3,0,1,1,5.88,1.35L822.62,387.9A3,3,0,0,1,819.69,390.24Z"/><path class="cls-2" d="M780.57,381.23a2.68,2.68,0,0,1-.68-.08,3,3,0,0,1-2.26-3.61l29.43-127.77a3,3,0,1,1,5.88,1.35L783.51,378.89A3,3,0,0,1,780.57,381.23Z"/><path class="cls-2" d="M741.45,372.22a3.21,3.21,0,0,1-.68-.07,3,3,0,0,1-2.26-3.62l29.43-127.77a3,3,0,1,1,5.88,1.35L744.39,369.88A3,3,0,0,1,741.45,372.22Z"/><rect class="cls-2" x="751.83" y="272.71" width="16.18" height="34.91" transform="translate(86.27 -165.76) rotate(13.19)"/><path class="cls-2" d="M760.75,311.69a12.68,12.68,0,0,1-11.14-2.61c-2.65-2.5-2-5.38,1.51-6.43a12.62,12.62,0,0,1,11.14,2.61C764.92,307.75,764.24,310.63,760.75,311.69Z"/><rect class="cls-2" x="755.65" y="225.08" width="26.22" height="54.76" transform="translate(77.9 -168.78) rotate(13.19)"/><path class="cls-2" d="M754.72,276.92l-2.7,11.5a21,21,0,0,0,15.75,3.7l2.7-11.51A21,21,0,0,0,754.72,276.92Z"/><path class="cls-2" d="M770.32,286.44c-5.66,1.71-13.74-.19-18.05-4.23s-3.22-8.71,2.44-10.42,13.74.18,18,4.23S776,284.73,770.32,286.44Z"/><path class="cls-3" d="M754.43,303.61c-.39,1.66-1.72,2.06-3,.89a5.93,5.93,0,0,1-1.55-5.14c.39-1.66,1.72-2.06,3-.89A5.93,5.93,0,0,1,754.43,303.61Z"/><rect class="cls-2" x="788.1" y="294.31" width="16.18" height="34.91" transform="translate(92.15 -173.47) rotate(13.19)"/><path class="cls-2" d="M797,333.28a12.6,12.6,0,0,1-11.13-2.61c-2.66-2.49-2-5.37,1.5-6.43a12.68,12.68,0,0,1,11.14,2.61C801.19,329.35,800.52,332.23,797,333.28Z"/><rect class="cls-2" x="791.92" y="246.68" width="26.22" height="54.76" transform="translate(83.79 -176.49) rotate(13.19)"/><path class="cls-2" d="M791,298.52l-2.7,11.5A20.9,20.9,0,0,0,804,313.71l2.7-11.5A20.94,20.94,0,0,0,791,298.52Z"/><path class="cls-2" d="M806.59,308c-5.66,1.71-13.74-.19-18.05-4.23s-3.22-8.71,2.44-10.42,13.74.18,18,4.23S812.25,306.33,806.59,308Z"/><path class="cls-3" d="M790.7,325.2c-.39,1.67-1.72,2.07-3,.9a5.93,5.93,0,0,1-1.55-5.14c.39-1.66,1.72-2.06,3-.89A5.94,5.94,0,0,1,790.7,325.2Z"/><rect class="cls-2" x="824.78" y="315.74" width="16.18" height="34.91" transform="translate(98.01 -181.27) rotate(13.19)"/><path class="cls-2" d="M833.7,354.72a12.68,12.68,0,0,1-11.14-2.61c-2.66-2.5-2-5.38,1.51-6.43a12.62,12.62,0,0,1,11.14,2.61C837.87,350.78,837.19,353.66,833.7,354.72Z"/><rect class="cls-2" x="828.6" y="268.11" width="26.22" height="54.76" transform="translate(89.65 -184.29) rotate(13.19)"/><path class="cls-2" d="M827.67,320l-2.7,11.5a20.94,20.94,0,0,0,15.75,3.7l2.7-11.51A21,21,0,0,0,827.67,320Z"/><path class="cls-2" d="M843.26,329.47c-5.66,1.71-13.74-.19-18-4.23s-3.21-8.71,2.45-10.42,13.74.18,18.05,4.23S848.92,327.76,843.26,329.47Z"/><path class="cls-3" d="M827.37,346.64c-.39,1.66-1.71,2.06-3,.89a5.93,5.93,0,0,1-1.55-5.14c.39-1.66,1.71-2.06,3-.89A5.93,5.93,0,0,1,827.37,346.64Z"/><path class="cls-1" d="M579.58,953.42,229.12,751.07c-9.92-5.72-8.67-15.72,2.77-22.33L470.54,591c11.44-6.61,28.76-7.33,38.67-1.6L859.68,791.75c9.91,5.72,8.67,15.72-2.78,22.33L618.26,951.81C606.81,958.42,589.5,959.14,579.58,953.42Z"/><path class="cls-1" d="M941.76,433.3,591.3,231a14.14,14.14,0,0,0-11.88-1.45l0,0-.63.24-.16.06L566,234.62l11.36,5.56c-.05.21-.11.41-.16.62L520.11,500.65c-2.86,13,2.86,28.18,12.78,33.91L874.92,732l-1.22,14.5,13.84-5.37c4.65-2.17,8.38-7.09,9.92-14.1l57.08-259.85C957.4,454.21,951.68,439,941.76,433.3Z"/><path class="cls-2" d="M941.76,433.3,591.3,231a14.14,14.14,0,0,0-11.88-1.45l0,0-.63.24-.16.06L566,234.62l11.36,5.56c-.05.21-.11.41-.16.62L539.57,412.06,711.05,545.65l241.78-98.38C950.51,441.25,946.65,436.12,941.76,433.3Z"/><path class="cls-3" d="M928.55,473.25l26.68-11.36c.49-10.33-3.79-21-10.81-26.72l-42.23,17.77Z"/><path class="cls-3" d="M861.53,745.15,511.06,542.81c-9.91-5.73-15.63-20.91-12.78-33.91l57.09-259.85c2.85-13,13.21-18.91,23.12-13.18L929,438.21c9.91,5.72,15.63,20.91,12.77,33.91L884.65,732C881.79,745,871.44,750.87,861.53,745.15Z"/><path class="cls-4" d="M853.93,725.82,524.32,535.62c-9.07-5.24-14.3-19.13-11.69-31L564.87,266.8c2.61-11.9,12.09-17.3,21.16-12.06L915.63,445c9.08,5.23,14.31,19.13,11.7,31L875.09,713.76C872.48,725.66,863,731.06,853.93,725.82Z"/><path class="cls-4" d="M853.93,725.82,524.32,535.62c-9.07-5.24-14.3-19.13-11.69-31L564.87,266.8c2.61-11.9,12.09-17.3,21.16-12.06L915.63,445c9.08,5.23,14.31,19.13,11.7,31L875.09,713.76C872.48,725.66,863,731.06,853.93,725.82Z"/><path class="cls-1" d="M866.36,754l-47.9-6.32L509.21,569.09c-9.91-5.72-27.23-5-38.67,1.61L251.41,697.16l-29-3.82v16.44h0c-.19,3.8,2,7.45,6.65,10.15L579.58,922.27c9.92,5.73,27.23,5,38.68-1.6L856.9,782.94c6.44-3.72,9.65-8.51,9.46-13h0Z"/><path class="cls-2" d="M634,641.14l-22-12.68H370.49l-119.08,68.7-29-3.82v16.44h0c-.19,3.8,2,7.45,6.65,10.15L579.58,922.27c5.24,3,12.55,4.24,20,3.74Z"/><path class="cls-2" d="M235.29,695l-12.85-1.7v16.44h0c-.19,3.8,2,7.45,6.65,10.15l6.17,3.57Z"/><path class="cls-3" d="M583.11,923.91c9.4,3.57,22.83,2.79,32.87-2V885.21H583.11Z"/><path class="cls-3" d="M579.58,905.86,229.12,703.52c-9.92-5.73-8.67-15.73,2.77-22.34L470.54,543.45c11.44-6.61,28.76-7.33,38.67-1.6L859.68,744.19c9.91,5.72,8.67,15.72-2.78,22.33L618.26,904.25C606.81,910.86,589.5,911.58,579.58,905.86Z"/><path class="cls-4" d="M856.9,760.52,618.26,898.25c-11.45,6.61-28.76,7.33-38.68,1.6L229.12,697.51c-3.25-1.87-5.28-4.21-6.17-6.74-1.55,4.69.43,9.43,6.17,12.75L579.58,905.86c9.92,5.72,27.23,5,38.68-1.61L856.9,766.52c7.7-4.44,10.76-10.41,8.94-15.59C864.71,754.35,861.73,757.73,856.9,760.52Z"/><path class="cls-1" d="M378.17,636.53l-15.85-9.16c-1.28-.73-1.12-2,.35-2.86l18.72-10.81a5.54,5.54,0,0,1,5-.21l15.86,9.16c1.27.73,1.11,2-.36,2.87l-18.72,10.8A5.54,5.54,0,0,1,378.17,636.53Z"/><path class="cls-1" d="M402.66,650.67l-15.85-9.16c-1.28-.73-1.12-2,.35-2.87l18.72-10.8a5.54,5.54,0,0,1,5-.21l15.85,9.16c1.28.73,1.12,2-.35,2.87l-18.72,10.8A5.54,5.54,0,0,1,402.66,650.67Z"/><path class="cls-1" d="M427.15,664.81l-15.86-9.16c-1.27-.73-1.11-2,.36-2.87L430.37,642a5.52,5.52,0,0,1,5-.21l15.86,9.16c1.28.73,1.12,2-.35,2.86L432.12,664.6A5.54,5.54,0,0,1,427.15,664.81Z"/><path class="cls-1" d="M461,653.13,445.16,644c-1.27-.73-1.11-2,.36-2.86L461.23,632a5.51,5.51,0,0,1,5-.21L482.06,641c1.27.74,1.11,2-.36,2.87L466,652.92A5.54,5.54,0,0,1,461,653.13Z"/><path class="cls-1" d="M485.51,667.27l-15.86-9.16c-1.27-.73-1.11-2,.36-2.86l15.71-9.08a5.51,5.51,0,0,1,5-.2l15.85,9.15c1.28.74,1.12,2-.35,2.87l-15.71,9.07A5.54,5.54,0,0,1,485.51,667.27Z"/><path class="cls-1" d="M510,681.41l-15.86-9.16c-1.27-.73-1.11-2,.36-2.87l15.71-9.07a5.49,5.49,0,0,1,5-.2L531,669.26c1.27.74,1.12,2-.35,2.87L515,681.2A5.52,5.52,0,0,1,510,681.41Z"/><path class="cls-1" d="M534.48,695.54l-15.85-9.15c-1.28-.74-1.12-2,.35-2.87l15.72-9.07a5.52,5.52,0,0,1,5-.21l15.86,9.16c1.27.73,1.11,2-.36,2.87l-15.71,9.07A5.51,5.51,0,0,1,534.48,695.54Z"/><path class="cls-1" d="M559,709.68l-15.85-9.15c-1.28-.74-1.12-2,.35-2.87l15.71-9.07a5.54,5.54,0,0,1,5-.21L580,697.54c1.27.73,1.11,2-.36,2.87l-15.71,9.07A5.51,5.51,0,0,1,559,709.68Z"/><path class="cls-1" d="M583.46,723.82l-15.86-9.15c-1.27-.74-1.11-2,.36-2.87l15.71-9.07a5.54,5.54,0,0,1,5-.21l15.86,9.16c1.27.73,1.11,2-.36,2.86l-15.71,9.07A5.51,5.51,0,0,1,583.46,723.82Z"/><path class="cls-1" d="M608,738l-15.86-9.16c-1.27-.73-1.11-2,.36-2.86l15.71-9.07a5.51,5.51,0,0,1,5-.21L629,725.81c1.28.74,1.12,2-.35,2.87l-15.71,9.07A5.54,5.54,0,0,1,608,738Z"/><path class="cls-1" d="M632.44,752.1l-15.86-9.16c-1.27-.73-1.11-2,.36-2.87L632.65,731a5.51,5.51,0,0,1,5-.2L653.47,740c1.28.74,1.12,2-.35,2.87l-15.72,9.07A5.52,5.52,0,0,1,632.44,752.1Z"/><path class="cls-1" d="M656.93,766.24l-15.86-9.16c-1.27-.73-1.12-2,.35-2.87l15.72-9.07a5.49,5.49,0,0,1,5-.2L678,754.09c1.27.74,1.11,2-.36,2.87L661.89,766A5.52,5.52,0,0,1,656.93,766.24Z"/><path class="cls-1" d="M681.41,780.37l-15.85-9.15c-1.28-.74-1.12-2,.35-2.87l15.71-9.07a5.54,5.54,0,0,1,5-.21l15.86,9.16c1.27.73,1.11,2-.36,2.87l-15.71,9.07A5.51,5.51,0,0,1,681.41,780.37Z"/><path class="cls-2" d="M497.1,646.44l-15.86-9.16c-1.27-.73-1.11-2,.36-2.87l15.71-9.07a5.51,5.51,0,0,1,5-.2l15.86,9.15c1.27.74,1.11,2-.36,2.87l-15.71,9.07A5.54,5.54,0,0,1,497.1,646.44Z"/><path class="cls-2" d="M472.25,632.09l-15.86-9.16c-1.27-.73-1.11-2,.36-2.87L472.46,611a5.51,5.51,0,0,1,5-.2l15.85,9.15c1.28.74,1.12,2-.35,2.87l-15.71,9.07A5.54,5.54,0,0,1,472.25,632.09Z"/><path class="cls-1" d="M447.35,617.71,413.2,598c-1.27-.74-1.11-2,.36-2.87l15.71-9.07a5.54,5.54,0,0,1,5-.21l34.15,19.72c1.27.73,1.11,2-.36,2.87l-15.71,9.07A5.51,5.51,0,0,1,447.35,617.71Z"/><path class="cls-1" d="M464.75,600.24l-27.71-16c-1.27-.73-1.11-2,.36-2.86l15.71-9.08a5.52,5.52,0,0,1,5-.2l27.72,16c1.27.74,1.11,2-.36,2.87L469.72,600A5.54,5.54,0,0,1,464.75,600.24Z"/><path class="cls-2" d="M521.59,660.57l-15.86-9.15c-1.27-.74-1.11-2,.36-2.87l15.71-9.07a5.54,5.54,0,0,1,5-.21l15.86,9.16c1.27.73,1.11,2-.36,2.87l-15.71,9.07A5.51,5.51,0,0,1,521.59,660.57Z"/><path class="cls-1" d="M546.08,674.71l-15.86-9.15c-1.27-.74-1.11-2,.36-2.87l15.71-9.07a5.54,5.54,0,0,1,5-.21l15.85,9.16c1.28.73,1.12,2-.35,2.87l-15.71,9.07A5.51,5.51,0,0,1,546.08,674.71Z"/><path class="cls-1" d="M570.57,688.85l-15.86-9.15c-1.27-.74-1.11-2,.36-2.87l15.71-9.07a5.52,5.52,0,0,1,5-.21l15.86,9.16c1.28.73,1.12,2-.35,2.86l-15.72,9.07A5.49,5.49,0,0,1,570.57,688.85Z"/><path class="cls-1" d="M595.05,703l-15.85-9.16c-1.28-.73-1.12-2,.35-2.86l15.72-9.08a5.52,5.52,0,0,1,5-.2l15.86,9.15c1.27.74,1.11,2-.36,2.87L600,702.78A5.54,5.54,0,0,1,595.05,703Z"/><path class="cls-1" d="M619.54,717.13,603.69,708c-1.28-.73-1.12-2,.35-2.87L619.75,696a5.51,5.51,0,0,1,5-.2L640.58,705c1.27.74,1.11,2-.36,2.87l-15.71,9.07A5.54,5.54,0,0,1,619.54,717.13Z"/><path class="cls-1" d="M644,731.27l-15.86-9.16c-1.27-.73-1.11-2,.36-2.87l15.71-9.07a5.51,5.51,0,0,1,5-.2l15.86,9.15c1.27.74,1.11,2-.36,2.87L649,731.06A5.54,5.54,0,0,1,644,731.27Z"/><path class="cls-1" d="M668.52,745.4l-15.86-9.15c-1.27-.74-1.11-2,.36-2.87l15.71-9.07a5.54,5.54,0,0,1,5-.21l15.85,9.16c1.28.73,1.12,2-.35,2.87l-15.71,9.07A5.51,5.51,0,0,1,668.52,745.4Z"/><path class="cls-1" d="M693,759.54l-15.86-9.15c-1.27-.74-1.11-2,.36-2.87l15.71-9.07a5.54,5.54,0,0,1,5-.21L714,747.4c1.28.73,1.12,2-.35,2.87L698,759.34A5.49,5.49,0,0,1,693,759.54Z"/><path class="cls-1" d="M717.5,773.68l-15.86-9.15c-1.28-.74-1.12-2,.35-2.87l15.72-9.07a5.52,5.52,0,0,1,5-.21l15.86,9.16c1.27.73,1.11,2-.36,2.86l-15.71,9.07A5.49,5.49,0,0,1,717.5,773.68Z"/><path class="cls-1" d="M761,798.82l-34.6-20c-1.27-.74-1.11-2,.36-2.87l15.71-9.07a5.54,5.54,0,0,1,5-.21l34.6,20c1.27.74,1.11,2-.36,2.87L766,798.61A5.54,5.54,0,0,1,761,798.82Z"/><path class="cls-1" d="M808.71,771.29,779.5,754.43c-1.27-.74-1.11-2,.36-2.87l15.71-9.07a5.54,5.54,0,0,1,5-.21l29.2,16.86c1.27.74,1.11,2-.36,2.87l-15.71,9.07A5.52,5.52,0,0,1,808.71,771.29Z"/><path class="cls-1" d="M564.47,657.81l-15.85-9.16c-1.28-.73-1.12-2,.35-2.86l15.72-9.08a5.52,5.52,0,0,1,5-.2l15.86,9.15c1.27.74,1.11,2-.36,2.87l-15.71,9.07A5.54,5.54,0,0,1,564.47,657.81Z"/><path class="cls-1" d="M539.38,643.32l-15.86-9.16c-1.27-.73-1.11-2,.36-2.86l15.71-9.08a5.54,5.54,0,0,1,5-.2l15.85,9.15c1.28.74,1.12,2-.35,2.87l-15.72,9.07A5.52,5.52,0,0,1,539.38,643.32Z"/><path class="cls-2" d="M514.28,628.83l-15.86-9.16c-1.27-.73-1.11-2,.36-2.86l15.71-9.08a5.54,5.54,0,0,1,5-.2l15.85,9.15c1.28.74,1.12,2-.35,2.87l-15.71,9.07A5.54,5.54,0,0,1,514.28,628.83Z"/><path class="cls-1" d="M489.18,614.34l-15.86-9.16c-1.27-.73-1.11-2,.36-2.86l15.71-9.08a5.54,5.54,0,0,1,5-.2l15.86,9.15c1.27.74,1.11,2-.36,2.87l-15.71,9.07A5.54,5.54,0,0,1,489.18,614.34Z"/><path class="cls-1" d="M589,672l-15.85-9.16c-1.28-.73-1.12-2,.35-2.87l15.71-9.07a5.51,5.51,0,0,1,5-.2L610,659.8c1.27.74,1.11,2-.36,2.87l-15.71,9.07A5.54,5.54,0,0,1,589,672Z"/><path class="cls-1" d="M613.45,686.08l-15.86-9.15c-1.27-.74-1.11-2,.36-2.87L613.66,665a5.54,5.54,0,0,1,5-.21l15.86,9.16c1.27.73,1.11,2-.36,2.87l-15.71,9.07A5.51,5.51,0,0,1,613.45,686.08Z"/><path class="cls-1" d="M637.94,700.22l-15.86-9.15c-1.27-.74-1.11-2,.36-2.87l15.71-9.07a5.54,5.54,0,0,1,5-.21L659,688.08c1.28.73,1.12,2-.35,2.87L642.91,700A5.51,5.51,0,0,1,637.94,700.22Z"/><path class="cls-1" d="M662.43,714.36l-15.86-9.15c-1.27-.74-1.11-2,.36-2.87l15.71-9.07a5.54,5.54,0,0,1,5-.21l15.85,9.16c1.28.73,1.12,2-.35,2.86l-15.72,9.08A5.52,5.52,0,0,1,662.43,714.36Z"/><path class="cls-1" d="M686.91,728.5l-15.85-9.16c-1.28-.73-1.12-2,.35-2.86l15.72-9.07a5.49,5.49,0,0,1,5-.21L708,716.35c1.27.74,1.11,2-.36,2.87l-15.71,9.07A5.54,5.54,0,0,1,686.91,728.5Z"/><path class="cls-1" d="M711.4,742.64l-15.85-9.16c-1.28-.73-1.12-2,.35-2.87l15.71-9.07a5.51,5.51,0,0,1,5-.2l15.86,9.15c1.27.74,1.11,2-.36,2.87l-15.71,9.07A5.54,5.54,0,0,1,711.4,742.64Z"/><path class="cls-1" d="M735.89,756.78,720,747.62c-1.27-.73-1.11-2,.36-2.87l15.71-9.07a5.51,5.51,0,0,1,5-.2l15.86,9.15c1.27.74,1.11,2-.36,2.87l-15.71,9.07A5.54,5.54,0,0,1,735.89,756.78Z"/><path class="cls-1" d="M760.38,770.91l-15.86-9.15c-1.27-.74-1.11-2,.36-2.87l15.71-9.07a5.54,5.54,0,0,1,5-.21l15.85,9.16c1.28.73,1.12,2-.35,2.87l-15.71,9.07A5.51,5.51,0,0,1,760.38,770.91Z"/><path class="cls-1" d="M784.87,785.05,769,775.9c-1.27-.74-1.11-2,.36-2.87L785.08,764a5.54,5.54,0,0,1,5-.21l15.85,9.16c1.28.73,1.12,2-.35,2.87l-15.72,9.07A5.49,5.49,0,0,1,784.87,785.05Z"/><path class="cls-1" d="M551.58,622.84l-15.86-9.16c-1.27-.73-1.11-2,.36-2.87l15.71-9.07a5.51,5.51,0,0,1,5-.2l15.85,9.15c1.28.74,1.12,2-.35,2.87l-15.71,9.07A5.54,5.54,0,0,1,551.58,622.84Z"/><path class="cls-1" d="M527.21,608.77l-15.85-9.16c-1.28-.73-1.12-2,.35-2.86l15.71-9.07a5.51,5.51,0,0,1,5-.21l15.86,9.16c1.27.73,1.11,2-.36,2.86l-15.71,9.07A5.54,5.54,0,0,1,527.21,608.77Z"/><path class="cls-1" d="M502.85,594.7,487,585.55c-1.27-.74-1.11-2,.36-2.87l15.71-9.07a5.54,5.54,0,0,1,5-.21l15.85,9.16c1.28.73,1.12,2-.35,2.86l-15.72,9.08A5.49,5.49,0,0,1,502.85,594.7Z"/><path class="cls-1" d="M478.48,580.63l-15.86-9.15c-1.27-.74-1.11-2,.36-2.87l15.71-9.07a5.54,5.54,0,0,1,5-.21l15.86,9.16c1.27.73,1.11,2-.36,2.87l-15.71,9.07A5.51,5.51,0,0,1,478.48,580.63Z"/><path class="cls-1" d="M503.54,566.17,487.68,557c-1.27-.73-1.11-2,.36-2.86l5.19-3a5.54,5.54,0,0,1,5-.21l15.85,9.16c1.28.73,1.12,2-.35,2.86l-5.2,3A5.52,5.52,0,0,1,503.54,566.17Z"/><path class="cls-1" d="M535.33,584.53l-15.85-9.16c-1.28-.73-1.12-2,.35-2.87l5.2-3a5.51,5.51,0,0,1,5-.21l15.85,9.15c1.28.74,1.12,2-.35,2.87l-5.2,3A5.54,5.54,0,0,1,535.33,584.53Z"/><path class="cls-1" d="M559.6,598.54l-15.86-9.16c-1.27-.73-1.11-2,.36-2.87l5.19-3a5.54,5.54,0,0,1,5-.2l15.86,9.15c1.27.74,1.11,2-.36,2.87l-5.19,3A5.54,5.54,0,0,1,559.6,598.54Z"/><path class="cls-1" d="M583.86,612.55,568,603.39c-1.28-.73-1.12-2,.35-2.87l5.2-3a5.49,5.49,0,0,1,5-.2l15.86,9.15c1.27.74,1.12,2-.35,2.87l-5.2,3A5.54,5.54,0,0,1,583.86,612.55Z"/><path class="cls-1" d="M608.13,626.55l-15.86-9.15c-1.27-.74-1.11-2,.36-2.87l5.19-3a5.51,5.51,0,0,1,5-.2l15.86,9.15c1.27.74,1.11,2-.36,2.87l-5.19,3A5.51,5.51,0,0,1,608.13,626.55Z"/><path class="cls-1" d="M743.6,704.77l-15.86-9.16c-1.27-.73-1.12-2,.36-2.87l5.19-3a5.54,5.54,0,0,1,5-.2l15.85,9.15c1.28.74,1.12,2-.35,2.87l-5.2,3A5.52,5.52,0,0,1,743.6,704.77Z"/><path class="cls-1" d="M767.86,718.78,752,709.62c-1.27-.73-1.11-2,.36-2.87l5.19-3a5.54,5.54,0,0,1,5-.2l15.86,9.15c1.27.74,1.11,2-.36,2.87l-5.19,3A5.54,5.54,0,0,1,767.86,718.78Z"/><path class="cls-1" d="M792.13,732.79l-15.86-9.16c-1.27-.73-1.12-2,.35-2.87l5.2-3a5.51,5.51,0,0,1,5-.2l15.85,9.15c1.28.74,1.12,2-.35,2.87l-5.2,3A5.52,5.52,0,0,1,792.13,732.79Z"/><path class="cls-1" d="M816.39,746.79l-15.86-9.15c-1.27-.74-1.11-2,.36-2.87l5.19-3a5.51,5.51,0,0,1,5-.2l15.86,9.15c1.27.74,1.11,2-.36,2.87l-5.19,3A5.51,5.51,0,0,1,816.39,746.79Z"/><path class="cls-1" d="M576.07,637l-15.86-9.16c-1.27-.73-1.11-2,.36-2.87l15.71-9.07a5.51,5.51,0,0,1,5-.2l15.85,9.15c1.28.74,1.12,2-.35,2.87L581,636.77A5.52,5.52,0,0,1,576.07,637Z"/><path class="cls-1" d="M600.56,651.11,584.7,642c-1.27-.74-1.12-2,.36-2.87L600.77,630a5.52,5.52,0,0,1,5-.21L621.59,639c1.27.73,1.11,2-.36,2.87l-15.71,9.07A5.49,5.49,0,0,1,600.56,651.11Z"/><path class="cls-1" d="M625,665.25l-15.85-9.15c-1.28-.74-1.12-2,.35-2.87l15.72-9.07a5.52,5.52,0,0,1,5-.21l15.86,9.16c1.27.73,1.11,2-.36,2.87L630,665.05A5.51,5.51,0,0,1,625,665.25Z"/><path class="cls-1" d="M649.53,679.39l-15.86-9.15c-1.27-.74-1.11-2,.36-2.87l15.71-9.07a5.54,5.54,0,0,1,5-.21l15.86,9.16c1.27.73,1.11,2-.36,2.86l-15.71,9.08A5.54,5.54,0,0,1,649.53,679.39Z"/><path class="cls-1" d="M674,693.53l-15.86-9.16c-1.27-.73-1.11-2,.36-2.86l15.71-9.07a5.51,5.51,0,0,1,5-.21l15.86,9.15c1.27.74,1.11,2-.36,2.87L679,693.32A5.54,5.54,0,0,1,674,693.53Z"/><path class="cls-1" d="M698.51,707.67l-15.86-9.16c-1.27-.73-1.11-2,.36-2.87l15.71-9.07a5.51,5.51,0,0,1,5-.2l15.85,9.15c1.28.74,1.12,2-.35,2.87l-15.71,9.07A5.54,5.54,0,0,1,698.51,707.67Z"/><path class="cls-1" d="M723,721.81l-15.86-9.16c-1.27-.73-1.11-2,.36-2.87l15.71-9.07a5.51,5.51,0,0,1,5-.2L744,709.66c1.28.74,1.12,2-.35,2.87L728,721.6A5.52,5.52,0,0,1,723,721.81Z"/><path class="cls-1" d="M747.48,735.94l-15.85-9.15c-1.28-.74-1.12-2,.35-2.87l15.72-9.07a5.52,5.52,0,0,1,5-.21l15.86,9.16c1.27.73,1.11,2-.36,2.87l-15.71,9.07A5.51,5.51,0,0,1,747.48,735.94Z"/><path class="cls-1" d="M772,750.08l-15.85-9.15c-1.28-.74-1.12-2,.35-2.87L772.18,729a5.54,5.54,0,0,1,5-.21L793,737.94c1.27.73,1.11,2-.36,2.87l-15.71,9.07A5.51,5.51,0,0,1,772,750.08Z"/><path class="cls-1" d="M436.06,638.72l-46.7-27c-1.27-.74-1.11-2,.36-2.87l15.71-9.07a5.54,5.54,0,0,1,5-.21l46.7,27c1.27.73,1.11,2-.36,2.86L441,638.52A5.54,5.54,0,0,1,436.06,638.72Z"/><path class="cls-1" d="M736.91,812.41l-46.7-27c-1.28-.73-1.12-2,.35-2.87l15.72-9.07a5.49,5.49,0,0,1,5-.2l46.7,27c1.28.73,1.12,2-.35,2.87l-15.71,9.07A5.51,5.51,0,0,1,736.91,812.41Z"/><path class="cls-1" d="M639,787.1,623.12,778c-1.27-.74-1.11-2,.36-2.87l18.71-10.81a5.51,5.51,0,0,1,5-.2L663,773.22c1.27.74,1.11,2-.36,2.87L643.94,786.9A5.49,5.49,0,0,1,639,787.1Z"/><path class="cls-1" d="M461.14,684.43l-25.36-14.64c-1.27-.74-1.11-2,.36-2.87l18.72-10.81a5.52,5.52,0,0,1,5-.2l25.36,14.64c1.28.74,1.12,2-.35,2.87l-18.72,10.8A5.51,5.51,0,0,1,461.14,684.43Z"/><path class="cls-1" d="M615.38,773.48,590,758.84c-1.27-.74-1.11-2,.36-2.87l18.72-10.81a5.52,5.52,0,0,1,5-.2l25.36,14.64c1.28.74,1.12,2-.35,2.87l-18.72,10.8A5.51,5.51,0,0,1,615.38,773.48Z"/><path class="cls-1" d="M496.47,704.83l-25.36-14.64c-1.27-.74-1.11-2,.36-2.87l18.72-10.81a5.49,5.49,0,0,1,5-.2L520.51,691c1.28.73,1.12,2-.35,2.87l-18.72,10.8A5.54,5.54,0,0,1,496.47,704.83Z"/><path class="cls-1" d="M495.33,676.41l110.25,63.65c1.37.79,1.37,2.07,0,2.86l-19.08,11a5.49,5.49,0,0,1-5,0L471.29,690.29Z"/><path class="cls-1" d="M707.42,812.74l17.66,10.19c1,.61.91,1.66-.29,2.36l-7.66,4.42a4.51,4.51,0,0,1-4.07.16L695.4,819.68c-1-.61-.92-1.66.29-2.35l7.66-4.42A4.49,4.49,0,0,1,707.42,812.74Z"/><path class="cls-1" d="M682.73,798.48l17.66,10.2c1,.6.91,1.65-.29,2.35l-7.66,4.42a4.52,4.52,0,0,1-4.07.17l-17.66-10.2c-1.05-.6-.92-1.65.29-2.35l7.65-4.42A4.54,4.54,0,0,1,682.73,798.48Z"/><path class="cls-1" d="M658.24,784.34l17.66,10.2c1,.6.91,1.66-.29,2.35L668,801.31a4.52,4.52,0,0,1-4.07.17l-17.66-10.2c-1.05-.6-.92-1.65.29-2.35l7.66-4.42A4.55,4.55,0,0,1,658.24,784.34Z"/><path class="cls-1" d="M696.25,790.67l17.66,10.2c1.05.6.91,1.66-.29,2.35L706,807.64a4.52,4.52,0,0,1-4.07.17l-17.66-10.2c-1.05-.6-.91-1.65.29-2.35l7.66-4.42A4.55,4.55,0,0,1,696.25,790.67Z"/><path class="cls-2" d="M663.8,357.29l-23.43-13.53a6.71,6.71,0,0,1-2.86-6.94h0c.6-2.57,2.84-3.64,5-2.39L666,348a6.72,6.72,0,0,1,2.86,6.94h0C668.22,357.48,666,358.55,663.8,357.29Z"/><path class="cls-2" d="M719.62,389.52l-34.55-19.95a6.71,6.71,0,0,1-2.86-6.94h0c.59-2.58,2.84-3.65,5-2.39l34.56,19.95a6.71,6.71,0,0,1,2.86,6.94h0C724,389.7,721.8,390.78,719.62,389.52Z"/><path class="cls-2" d="M623,466.68l-23.44-13.53a6.73,6.73,0,0,1-2.86-6.94h0c.6-2.58,2.84-3.65,5-2.4l23.43,13.53a6.73,6.73,0,0,1,2.86,6.94h0C627.37,466.86,625.13,467.93,623,466.68Z"/><path class="cls-2" d="M672.71,495.41l-34.55-20a6.73,6.73,0,0,1-2.86-6.94h0c.6-2.58,2.84-3.65,5-2.4l34.56,19.95a6.72,6.72,0,0,1,2.86,6.94h0C677.13,495.59,674.89,496.66,672.71,495.41Z"/><path class="cls-2" d="M594.68,339.54,580,331.09a6.68,6.68,0,0,1-2.86-6.94h0c.59-2.58,2.84-3.65,5-2.39l14.64,8.45a6.72,6.72,0,0,1,2.86,6.94h0C599.09,339.73,596.85,340.8,594.68,339.54Z"/><path class="cls-2" d="M639.79,387.75l-44.72-25.82a6.69,6.69,0,0,1-2.86-6.94h0c.59-2.58,2.84-3.65,5-2.39L642,378.42a6.72,6.72,0,0,1,2.86,6.94h0C644.21,387.94,642,389,639.79,387.75Z"/><path class="cls-2" d="M600.68,409.49,586,401a6.69,6.69,0,0,1-2.86-6.94h0c.59-2.58,2.84-3.65,5-2.39l14.64,8.45a6.68,6.68,0,0,1,2.86,6.94h0C605.1,409.67,602.85,410.75,600.68,409.49Z"/><path class="cls-2" d="M680.25,544.08l-39.1-22.58a6.68,6.68,0,0,1-2.86-6.94h0c.59-2.58,2.84-3.65,5-2.39l39.1,22.57a6.72,6.72,0,0,1,2.86,6.94h0C684.66,544.26,682.42,545.33,680.25,544.08Z"/><path class="cls-2" d="M586.41,445.57l-9.4-5.42a6.72,6.72,0,0,1-2.86-6.94h0c.6-2.58,2.84-3.65,5-2.39l9.4,5.42a6.72,6.72,0,0,1,2.86,6.94h0C590.82,445.76,588.58,446.83,586.41,445.57Z"/><path class="cls-2" d="M579.65,486,568,479.26a6.72,6.72,0,0,1-2.86-6.94h0c.6-2.58,2.84-3.65,5-2.39l11.67,6.73a6.7,6.7,0,0,1,2.85,6.94h0C584.07,486.18,581.83,487.25,579.65,486Z"/><path class="cls-2" d="M625.05,512.21l-30.77-17.77a6.71,6.71,0,0,1-2.86-6.94h0c.6-2.57,2.84-3.64,5-2.39l30.76,17.76a6.69,6.69,0,0,1,2.86,6.94h0C629.47,512.39,627.22,513.46,625.05,512.21Z"/><path class="cls-2" d="M585.59,511.59l-22.12-12.78a6.67,6.67,0,0,1-2.86-6.93h0c.59-2.58,2.84-3.65,5-2.4l22.12,12.77a6.69,6.69,0,0,1,2.86,6.94h0C590,511.77,587.76,512.84,585.59,511.59Z"/><path class="cls-2" d="M713.79,563.54l-14.2-8.2a6.69,6.69,0,0,1-2.86-6.94h0c.59-2.58,2.84-3.65,5-2.39l14.21,8.2a6.71,6.71,0,0,1,2.86,6.94h0C718.21,563.72,716,564.8,713.79,563.54Z"/><path class="cls-2" d="M655.13,440.93,616,418.36a6.73,6.73,0,0,1-2.86-6.94h0c.6-2.58,2.84-3.65,5-2.4l39.09,22.58a6.68,6.68,0,0,1,2.86,6.94h0C659.55,441.11,657.3,442.19,655.13,440.93Z"/><path class="cls-2" d="M658.7,420.83l-68.15-39.35a6.71,6.71,0,0,1-2.86-6.94h0c.6-2.57,2.84-3.64,5-2.39l68.14,39.35a6.69,6.69,0,0,1,2.86,6.93h0C663.12,421,660.87,422.08,658.7,420.83Z"/><path class="cls-2" d="M620.62,443.17l-39.1-22.58a6.7,6.7,0,0,1-2.86-6.93h0c.6-2.58,2.84-3.65,5-2.4l39.1,22.58a6.7,6.7,0,0,1,2.86,6.93h0C625,443.35,622.8,444.42,620.62,443.17Z"/><path class="cls-2" d="M684.79,458.05l-14.21-8.2a6.71,6.71,0,0,1-2.86-6.94h0c.59-2.58,2.84-3.65,5-2.39l14.21,8.2a6.71,6.71,0,0,1,2.86,6.94h0C689.2,458.24,687,459.31,684.79,458.05Z"/><path class="cls-2" d="M825,450.37,740.89,401.8a6.69,6.69,0,0,1-2.86-6.94h0c.59-2.58,2.84-3.65,5-2.39L827.17,441A6.71,6.71,0,0,1,830,448h0C829.43,450.55,827.19,451.62,825,450.37Z"/><path class="cls-2" d="M619.5,486.84l-47-27.14a6.67,6.67,0,0,1-2.86-6.93h0c.59-2.58,2.84-3.65,5-2.4l47,27.14a6.71,6.71,0,0,1,2.86,6.94h0C623.91,487,621.67,488.1,619.5,486.84Z"/><path class="cls-2" d="M619.1,331.49l-34.55-19.95a6.73,6.73,0,0,1-2.86-6.94h0c.6-2.58,2.84-3.65,5-2.4l34.55,19.95a6.72,6.72,0,0,1,2.86,6.94h0C623.52,331.67,621.28,332.74,619.1,331.49Z"/><path class="cls-2" d="M579.43,530.19l-40-23.1a6.73,6.73,0,0,1-2.86-6.94h0c.6-2.58,2.84-3.65,5-2.4l40,23.11a6.69,6.69,0,0,1,2.85,6.94h0C583.85,530.38,581.6,531.45,579.43,530.19Z"/><path class="cls-2" d="M850.26,614.54,826.83,601a6.69,6.69,0,0,1-2.86-6.94h0c.59-2.58,2.84-3.65,5-2.39l23.43,13.53a6.68,6.68,0,0,1,2.86,6.94h0C854.68,614.72,852.43,615.79,850.26,614.54Z"/><path class="cls-2" d="M867.1,535.62l-44.73-25.83a6.71,6.71,0,0,1-2.86-6.94h0c.6-2.57,2.84-3.65,5-2.39l44.73,25.82a6.69,6.69,0,0,1,2.86,6.94h0C871.52,535.8,869.27,536.87,867.1,535.62Z"/><path class="cls-2" d="M828,557.35l-14.64-8.45a6.71,6.71,0,0,1-2.86-6.94h0c.6-2.57,2.84-3.65,5-2.39L830.14,548A6.7,6.7,0,0,1,833,555h0C832.4,557.54,830.16,558.61,828,557.35Z"/><path class="cls-2" d="M813.71,593.44l-9.4-5.43a6.69,6.69,0,0,1-2.85-6.94h0c.59-2.57,2.83-3.65,5-2.39l9.4,5.42a6.7,6.7,0,0,1,2.85,6.94h0C818.13,593.62,815.89,594.69,813.71,593.44Z"/><path class="cls-2" d="M882.43,588.79l-39.09-22.57a6.69,6.69,0,0,1-2.86-6.94h0c.59-2.58,2.84-3.65,5-2.39l39.1,22.57a6.72,6.72,0,0,1,2.86,6.94h0C886.85,589,884.61,590.05,882.43,588.79Z"/><path class="cls-2" d="M886,568.69l-68.14-39.34a6.69,6.69,0,0,1-2.86-6.94h0c.59-2.58,2.84-3.65,5-2.4l68.15,39.35A6.69,6.69,0,0,1,891,566.3h0C890.42,568.87,888.18,570,886,568.69Z"/><path class="cls-2" d="M847.93,591l-39.1-22.57a6.69,6.69,0,0,1-2.86-6.94h0c.59-2.58,2.84-3.65,5-2.4l39.1,22.58a6.68,6.68,0,0,1,2.86,6.94h0C852.35,591.21,850.1,592.29,847.93,591Z"/><path class="cls-2" d="M846.8,634.7l-47-27.13a6.72,6.72,0,0,1-2.86-6.94h0c.6-2.58,2.84-3.65,5-2.4l47,27.14a6.69,6.69,0,0,1,2.86,6.94h0C851.22,634.89,849,636,846.8,634.7Z"/><polygon class="cls-2" points="951.99 353.16 988.92 338.47 980.62 284.14 962.69 300.02 951.99 353.16"/><path class="cls-2" d="M704.84,99.86,794.06,64.2s-16.44,35.58-16.47,35.66-47.64,11-47.64,11Z"/><path class="cls-2" d="M984.63,247.69a39,39,0,0,0-14.46-5c4.92-32.84-9.26-67.5-36.48-83.23a59.36,59.36,0,0,0-25.51-8c10.66-39.8-5.81-85-39.4-104.44-17.54-10.13-36.51-11.33-53.22-5.12l0,0-.82.32-1.29.52-28,11,11.15,9.59c-15.12,4.76-28.19,17-35.1,35.05-12.73,33.33.33,73.85,29.17,90.51l171.43,144.5c21.66,12.51,34.8,7.29,44.36-17.73S1006.28,260.2,984.63,247.69Z"/><path class="cls-2" d="M769.38,83.7l96.16-38.42c-16.62-8.49-34.29-9.19-50-3.36l0,0-.82.32-1.29.52-28,11,11.15,9.59A53.33,53.33,0,0,0,769.38,83.7Z"/><path class="cls-2" d="M903.25,227.86l63.5-25.33c-5.87-18.15-17.44-34-33.43-43.25a63,63,0,0,0-6.41-3.22L839.44,191Z"/><path class="cls-3" d="M805,57.73l27.25,15.75,47.3-18.83A74.65,74.65,0,0,0,868.78,47a67,67,0,0,0-18.49-7.33Z"/><path class="cls-3" d="M962.55,192l-45.71,18.19,13.49,19,39.22-15.6A88,88,0,0,0,962.55,192Z"/><path class="cls-3" d="M954.06,259.7a39.39,39.39,0,0,0-14.45-5c4.92-32.83-9.63-67.71-36.86-83.44a57.55,57.55,0,0,0-25.14-7.8c10.67-39.8-5.81-85-39.39-104.43-36.12-20.87-78.32-4-94.26,37.78-.54,1.41-1,2.84-1.5,4.28-27.56-12.26-58,1.55-70,32.85-12.73,33.33.33,73.85,29.16,90.51L919.45,350.31c21.65,12.52,47,2.37,56.52-22.65S975.72,272.21,954.06,259.7Z"/><path class="cls-4" d="M958.56,257.19a39.07,39.07,0,0,0-14.46-5c4.92-32.84-9.63-67.71-36.85-83.44a57.5,57.5,0,0,0-25.14-7.8c10.66-39.8-5.82-85-39.4-104.44-21.57-12.46-45.31-11.43-64.33.3,18.19-9.28,39.93-9.28,59.84,2.22,33.58,19.4,50.06,64.63,39.39,104.43a57.55,57.55,0,0,1,25.14,7.8C930,187,944.53,221.9,939.61,254.73a39.39,39.39,0,0,1,14.45,5c21.66,12.51,31.46,42.94,21.91,68a44.92,44.92,0,0,1-17,21.86c9.26-4.43,17.09-12.78,21.52-24.37C990,300.12,980.21,269.7,958.56,257.19Z"/><path class="cls-4" d="M742.46,101.12c.4-1.26.85-2.5,1.31-3.74a48.5,48.5,0,0,0-43.25,4.41A48.61,48.61,0,0,1,742.46,101.12Z"/><path class="cls-2" d="M717.84,107.63A28.64,28.64,0,0,0,706.35,110c-8.65,3.77-16.12,12.52-20.51,24-11.19,29.28.77,66.38,26.11,81l217.8,125.84c6.85,3.95,13.93,4.95,19.43,2.75s10.4-8,13.42-15.92c8.08-21.13-.56-47.91-18.84-58.47a28.29,28.29,0,0,0-10.36-3.64l-8.84-1.19,1.14-7.58c4.54-30.28-9.45-62.24-33.25-76a46,46,0,0,0-20-6.37l-11-.7,2.47-9.2c9.78-36.5-6-78.65-36-96C814,60.49,799.29,58.87,786.58,64s-23.11,16.77-29.26,32.88c-.47,1.25-.91,2.5-1.32,3.77l-5.88,18L733,111.05A37.64,37.64,0,0,0,717.84,107.63Z"/><polygon class="cls-2" points="824.57 247.6 832.08 244.58 826.24 240.09 824.57 247.6"/><polygon class="cls-2" points="820.82 166.31 828.11 163.35 827.59 166.41 820.82 166.31"/><polygon class="cls-2" points="848.14 228.6 855.74 225.53 844.65 214.37 848.14 228.6"/><path class="cls-2" d="M830.1,244.39,801,227.61a4.7,4.7,0,0,1-2-4.79l7-33,34.4,19.87-7,33C833.08,244.48,831.58,245.24,830.1,244.39Z"/><path class="cls-2" d="M828,163.39l-39.28,19.8c-1.66.84-1.11,4,.91,5.14l32.07,18.51,32.06,18.51c2,1.17,3.63-.71,2.64-3.08l-23.29-55.93C832.14,163.93,829.73,162.53,828,163.39Z"/><path class="cls-3" d="M822.48,247.47l-29.06-16.78a4.72,4.72,0,0,1-2-4.8l7-33,34.41,19.86-7,33C825.46,247.55,824,248.32,822.48,247.47Z"/><path class="cls-3" d="M820.41,166.47l-39.28,19.8c-1.67.84-1.11,4,.91,5.14l32.06,18.51,32.07,18.51c2,1.17,3.63-.71,2.64-3.09l-23.29-55.92C824.52,167,822.11,165.61,820.41,166.47Z"/><path class="cls-1" d="M85.18,905.1l116.21-66.77c9.16-5.26,25.15-4.57,35.7,1.56L475.4,978.14c10.56,6.13,11.69,15.36,2.52,20.63l-116.2,66.76c-9.17,5.27-25.15,4.57-35.71-1.55L87.7,925.72C77.14,919.59,76,910.36,85.18,905.1Z"/><path class="cls-2" d="M366.35,1043.46l119-68.37c5.21-3,7.83-7,8-11.18h0l.1-20.48L489.59,950a28.56,28.56,0,0,0-7.47-6L242.49,805c-13.57-7.88-34.14-8.77-45.92-2l-119,68.37a21.62,21.62,0,0,0-3.32,2.34l-4.56-5.84-.1,19.26h0c-.17,5.3,3.63,10.94,11.2,15.34l239.63,139C334,1049.34,354.56,1050.23,366.35,1043.46Z"/><path class="cls-3" d="M77.65,856.13l119-68.37c11.79-6.78,32.35-5.88,45.93,2l239.63,139c13.57,7.88,15,19.75,3.24,26.52l-119,68.37c-11.78,6.78-32.35,5.88-45.92-2L80.9,882.65C67.32,874.77,65.87,862.9,77.65,856.13Z"/><path class="cls-4" d="M485.45,955.3l-119,68.37c-11.78,6.78-32.35,5.88-45.92-2L80.9,882.65c-6.58-3.82-10.28-8.57-11-13.22-1,5.69,2.79,11.94,11,16.73l239.63,139c13.57,7.88,34.14,8.77,45.92,2l119-68.37c6.08-3.49,8.61-8.34,7.8-13.3C492.63,949.19,490.08,952.64,485.45,955.3Z"/><path class="cls-4" d="M85.18,858.88l116.21-66.77c9.16-5.26,25.15-4.56,35.7,1.56L475.4,931.93c10.56,6.12,11.69,15.35,2.52,20.62l-116.2,66.77c-9.17,5.26-25.15,4.56-35.71-1.56L87.7,879.5C77.14,873.38,76,864.15,85.18,858.88Z"/><path class="cls-1" d="M272.39,883.17l-43-24.84c-1.6-.92-1.4-2.53.44-3.59h0a7,7,0,0,1,6.23-.26l43,24.84c1.6.92,1.4,2.53-.44,3.59h0A6.94,6.94,0,0,1,272.39,883.17Z"/><path class="cls-1" d="M231.62,874.76l-15.34-8.86c-1.6-.92-1.4-2.53.44-3.6h0a6.94,6.94,0,0,1,6.23-.25l15.34,8.86c1.6.92,1.4,2.53-.45,3.59h0A6.92,6.92,0,0,1,231.62,874.76Z"/><path class="cls-2" d="M257.37,889.62,242,880.77c-1.6-.93-1.4-2.53.44-3.6h0a7,7,0,0,1,6.23-.26L264,885.77c1.6.92,1.4,2.53-.44,3.6h0A6.91,6.91,0,0,1,257.37,889.62Z"/><path class="cls-1" d="M309.45,919.69l-41.67-24.06c-1.6-.92-1.39-2.53.45-3.59h0a6.92,6.92,0,0,1,6.22-.26l41.67,24.06c1.59.92,1.39,2.53-.45,3.59h0A6.92,6.92,0,0,1,309.45,919.69Z"/><path class="cls-1" d="M256.92,904.49l-53.75-31c-1.59-.92-1.39-2.53.45-3.59h0a6.89,6.89,0,0,1,6.22-.26l53.75,31c1.6.92,1.4,2.53-.45,3.59h0A6.89,6.89,0,0,1,256.92,904.49Z"/><path class="cls-2" d="M321.56,957,190.07,881c-1.59-.93-1.39-2.53.45-3.6h0a6.92,6.92,0,0,1,6.22-.26L328.23,953.1c1.6.92,1.4,2.53-.44,3.59h0A7,7,0,0,1,321.56,957Z"/><path class="cls-1" d="M359.93,933.71,284.27,890c-1.59-.93-1.39-2.53.45-3.6h0a6.92,6.92,0,0,1,6.22-.26l75.66,43.69c1.6.92,1.4,2.53-.45,3.59h0A6.92,6.92,0,0,1,359.93,933.71Z"/><path class="cls-3" d="M267.25,1005l-11.07-6.38a4.76,4.76,0,0,1-2-3.81h0c0-1.46.89-2.14,2-1.5l11.07,6.38a4.76,4.76,0,0,1,2,3.81h0C269.24,1005,268.35,1005.67,267.25,1005Z"/><path class="cls-3" d="M284.66,1015.12l-11.07-6.39a4.76,4.76,0,0,1-2-3.8h0c0-1.47.89-2.15,2-1.51l11.07,6.38a4.78,4.78,0,0,1,2,3.81h0C286.65,1015.08,285.76,1015.75,284.66,1015.12Z"/><path class="cls-2" d="M796.43,451.9l-4-8.16c-3.89-7.86-10.26-11.55-14.16-8.21l-87.51,75-39-78.75c-3.88-7.86-10.26-11.56-14.16-8.22l-4.93,4.23,57.23,115.89Z"/><path class="cls-1" d="M796.43,451.9,689.88,543.69,632.65,427.8l-5.23,4.48c-3.89,3.35-3.91,12.51,0,20.37l56.13,113.42c3.41,6.88,8.74,10.56,12.62,9.12a5,5,0,0,0,1.78-1l104.56-89.64c3.91-3.34,3.92-12.5,0-20.36Z"/></svg>