<svg xmlns="http://www.w3.org/2000/svg" width="388.144" height="578.862" viewBox="0 0 388.144 578.862">
  <g id="Group_1016" data-name="Group 1016" transform="translate(499.008 -143.946)">
    <g id="Group_1015" data-name="Group 1015" transform="translate(-499.008 143.946)">
      <g id="Group_1014" data-name="Group 1014">
        <g id="Group_1008" data-name="Group 1008" transform="translate(0 43.311)">
          <g id="Group_1007" data-name="Group 1007">
            <g id="Group_1003" data-name="Group 1003" transform="translate(254.38)">
              <path id="Path_6080" data-name="Path 6080" d="M642.622,261.345,575.74,299.959l-66.882-38.614,66.882-38.614Z" transform="translate(-508.858 -222.731)" fill="#dd131f"/>
              <path id="Path_6081" data-name="Path 6081" d="M508.858,264.507v311.66l66.882,38.614V303.121Z" transform="translate(-508.858 -225.892)" fill="#dee2f3"/>
              <path id="Path_6082" data-name="Path 6082" d="M648.1,264.506l-66.882,38.614v311.66L648.1,576.166Z" transform="translate(-514.334 -225.892)" fill="#dd131f"/>
            </g>
            <g id="Group_1004" data-name="Group 1004" transform="translate(168.083 88.146)">
              <path id="Path_6083" data-name="Path 6083" d="M549.259,356.707l-66.882,38.614L415.5,356.707l66.882-38.614Z" transform="translate(-415.496 -318.093)" fill="#dd131f"/>
              <path id="Path_6084" data-name="Path 6084" d="M415.5,359.869V633.02l66.882,38.614V398.483Z" transform="translate(-415.496 -321.254)" fill="#dee2f3"/>
              <path id="Path_6085" data-name="Path 6085" d="M554.735,359.869l-66.882,38.614V671.634l66.882-38.614Z" transform="translate(-420.972 -321.254)" fill="#dd131f"/>
            </g>
            <g id="Group_1005" data-name="Group 1005" transform="translate(85.373 195.656)">
              <path id="Path_6086" data-name="Path 6086" d="M459.778,473.019,392.9,511.634,326.014,473.02,392.9,434.405Z" transform="translate(-326.014 -434.405)" fill="#dd131f"/>
              <path id="Path_6087" data-name="Path 6087" d="M326.014,476.181V689.607L392.9,728.221V514.8Z" transform="translate(-326.014 -437.567)" fill="#dee2f3"/>
              <path id="Path_6088" data-name="Path 6088" d="M465.254,476.181,398.371,514.8V728.221l66.882-38.614Z" transform="translate(-331.49 -437.567)" fill="#dd131f"/>
            </g>
            <g id="Group_1006" data-name="Group 1006" transform="translate(0 322.802)">
              <path id="Path_6089" data-name="Path 6089" d="M367.416,610.575l-66.882,38.614-66.882-38.614,66.882-38.614Z" transform="translate(-233.652 -571.961)" fill="#dd131f"/>
              <path id="Path_6090" data-name="Path 6090" d="M233.652,613.737V749.258l66.882,38.614V652.35Z" transform="translate(-233.652 -575.122)" fill="#dee2f3"/>
              <path id="Path_6091" data-name="Path 6091" d="M372.892,613.736l-66.882,38.614V787.872l66.882-38.614Z" transform="translate(-239.128 -575.122)" fill="#dd131f"/>
            </g>
          </g>
          <path id="Path_6092" data-name="Path 6092" d="M391.382,699.112l66.882-66.883V607.687l-66.882,66.882Zm66.882-25.524V646.482l-64.136,64.136Zm15.828-9.17,60.494-34.927,6.388-6.388V563.771l-66.882,66.882Zm-82.71-6.574,66.882-66.882V475.577L391.382,542.46Zm-85.372-30.012V743.217l66.882-66.882V587.308l-62.364,36.006Zm85.372-129.055v26.475l62.642-62.641ZM306.009,761.443l54.516-31.474L372.891,717.6V693.059l-66.882,66.882ZM474.092,616.4l66.882-66.882V524.977l-66.882,66.882Zm86.3-86.3,66.881-66.882V438.679L560.39,505.562Zm0-41.267,66.881-66.882V306.57L560.39,373.452Zm0-185.716v53.124l66.881-66.881V264.506Zm-86.3,272.013,66.882-66.882V392.868l-66.882,66.881Zm86.3,28.554,66.881-66.882V477.474L560.39,544.356Zm-86.3-161.146,66.882-66.882V352.652l-66.882,38.614Z" transform="translate(-239.128 -225.892)" fill="#fff" style="mix-blend-mode: color-dodge;isolation: isolate"/>
        </g>
        <g id="Group_1013" data-name="Group 1013" transform="translate(37.152)">
          <g id="Group_1012" data-name="Group 1012" style="isolation: isolate">
            <g id="Group_1009" data-name="Group 1009" transform="translate(303.834 26.214)">
              <path id="Path_6093" data-name="Path 6093" d="M622.71,222.033l-13.541-7.869-6.615-9.931L616.1,212.1Z" transform="translate(-602.555 -204.234)" fill="#dee2f3"/>
            </g>
            <path id="Path_6094" data-name="Path 6094" d="M610.757,204.089l-13.541-7.869,4.935,7.408,13.54,7.869Zm11.549,17.338-13.541-7.87,4.936,7.409,13.54,7.869Z" transform="translate(-298.316 -177.414)" fill="#dee2f3"/>
            <g id="Group_1010" data-name="Group 1010" transform="translate(298.9)">
              <path id="Path_6095" data-name="Path 6095" d="M610.757,202.549l-13.541-7.869,33.967-18.806,13.541,7.869Z" transform="translate(-597.216 -175.874)" fill="#dee2f3"/>
            </g>
            <g id="Group_1011" data-name="Group 1011" transform="translate(186.744 26.214)">
              <path id="Path_6096" data-name="Path 6096" d="M489.419,354.029l-13.541-7.869,117.09-141.926,13.541,7.869Z" transform="translate(-475.878 -204.234)" fill="#dee2f3"/>
            </g>
            <path id="Path_6097" data-name="Path 6097" d="M467.152,398.266a3.785,3.785,0,0,1-.351-.453c-.05-.076-.1-.153-.144-.233a4.813,4.813,0,0,1-.278-.594c-.025-.066-.056-.125-.079-.192a6.088,6.088,0,0,1-.229-.9c-.013-.073-.018-.153-.029-.227a7.7,7.7,0,0,1-.072-.779c0-.115-.006-.232-.006-.349,0-.253.011-.513.032-.778.009-.116.015-.23.029-.348a11.682,11.682,0,0,1,.185-1.154c0-.018.009-.036.013-.055.094-.428.211-.864.354-1.309l16.931-52.127-13.54-7.87-16.931,52.128c-.064.2-.124.4-.177.592-.067.242-.125.481-.177.717,0,.018-.009.037-.014.055l-.006.022q-.1.492-.165.965c-.007.057-.007.11-.014.167-.014.117-.02.231-.029.347-.021.266-.033.526-.032.779,0,.117,0,.235.006.349a7.67,7.67,0,0,0,.072.778c.011.076.016.155.029.228a6.085,6.085,0,0,0,.229.9c.023.067.055.127.079.192a4.8,4.8,0,0,0,.278.594c.045.08.094.157.144.233a3.789,3.789,0,0,0,.351.453c.055.061.106.124.164.18a3.328,3.328,0,0,0,.62.481l13.54,7.869a3.291,3.291,0,0,1-.62-.481C467.258,398.39,467.207,398.326,467.152,398.266Z" transform="translate(-287.359 -187.606)" fill="#dee2f3"/>
            <path id="Path_6098" data-name="Path 6098" d="M587.393,203.193l4.934,7.408L475.237,352.526l20.438-62.935c1.327-4.07.495-7.514-2.014-8.311a5.3,5.3,0,0,0-4.2.759,13.347,13.347,0,0,0-4.267,4.2L291,578.985c-2.924,4.413-3.376,9.615-1,11.617,1.348,1.145,3.322,1,5.312-.147a13.373,13.373,0,0,0,4.271-4.2L471.1,327.682,454.169,379.81c-1.229,3.789-.606,7.071,1.559,8.136a5,5,0,0,0,4.659-.588,12.361,12.361,0,0,0,3.28-2.866l135.275-163.96,4.935,7.408,17.483-43.553Z" transform="translate(-274.952 -176.518)" fill="#fff"/>
            <path id="Path_6099" data-name="Path 6099" d="M479.673,280.978l-.037-.02a3.094,3.094,0,0,0-.342-.167c-.091-.039-.184-.073-.28-.1l-.087-.027a3.659,3.659,0,0,0-.389-.09,3.967,3.967,0,0,0-.408-.048c-.02,0-.042,0-.061,0H478c-.106,0-.213-.007-.321,0a4.764,4.764,0,0,0-.506.05c-.038.006-.078.018-.116.025s-.1.02-.145.03c-.113.023-.225.041-.339.072-.163.043-.328.11-.493.169-.073.026-.146.045-.22.075-.029.011-.057.018-.086.03a8.1,8.1,0,0,0-.959.476,10.2,10.2,0,0,0-1.143.773c-.129.1-.253.225-.382.333-.247.207-.494.41-.734.645-.009.009-.019.015-.027.023q-.377.373-.739.79c-.065.073-.126.153-.189.228l-.146.178c-.07.087-.142.169-.212.258-.154.2-.305.4-.454.615-.081.117-.162.235-.242.355l-194.2,292.747c-.051.076-.1.152-.149.229q-.186.29-.357.583c-.111.19-.218.383-.32.574-.044.083-.085.167-.128.25-.016.032-.032.064-.048.1-.039.077-.079.153-.116.228q-.141.294-.269.588t-.249.609c-.024.062-.043.124-.067.185-.015.039-.028.078-.042.116-.041.114-.085.228-.123.343q-.117.349-.213.7c-.046.165-.082.329-.121.494-.012.05-.026.1-.037.15s-.025.1-.035.142q-.105.5-.167.977c-.009.072,0,.137-.009.208-.035.319-.04.619-.044.923,0,.222-.018.448,0,.661a7.174,7.174,0,0,0,.123.863c.033.187.051.383.1.557a5.066,5.066,0,0,0,.324.805c.062.13.1.279.174.4a3.681,3.681,0,0,0,.778.936,3.317,3.317,0,0,0,.475.336l13.54,7.869a3.244,3.244,0,0,1-.475-.336,3.684,3.684,0,0,1-.778-.936c-.071-.119-.112-.268-.173-.4a4.959,4.959,0,0,1-.324-.807c-.048-.175-.067-.372-.1-.558a7.151,7.151,0,0,1-.123-.862c-.012-.214,0-.442.006-.665,0-.3.009-.6.043-.919a11.921,11.921,0,0,1,.213-1.331c.011-.048.025-.1.036-.145a14.245,14.245,0,0,1,.458-1.538c.013-.038.027-.076.041-.114a15.811,15.811,0,0,1,.7-1.611l.05-.1a16.791,16.791,0,0,1,.952-1.636l194.2-292.747c.287-.434.593-.84.908-1.227.048-.06.1-.119.145-.178.31-.37.628-.72.955-1.041.243-.239.494-.445.743-.654.125-.1.246-.227.372-.324a10.233,10.233,0,0,1,1.143-.773,8.127,8.127,0,0,1,1.045-.506c.074-.03.147-.049.221-.076a6.15,6.15,0,0,1,.831-.24c.049-.01.1-.022.145-.031a4.576,4.576,0,0,1,.942-.072c.022,0,.044,0,.067,0a3.685,3.685,0,0,1,.946.165,3.33,3.33,0,0,1,.659.291Z" transform="translate(-273.845 -183.793)" fill="#dee2f3"/>
          </g>
        </g>
      </g>
    </g>
  </g>
</svg>
