<svg xmlns="http://www.w3.org/2000/svg" width="870.93" height="1029.835" viewBox="0 0 870.93 1029.835">
  <g id="Group_1267" data-name="Group 1267" transform="translate(-183.124 -44.88)">
    <g id="Group_1235" data-name="Group 1235">
      <g id="Group_1234" data-name="Group 1234" opacity="0.2">
        <path id="Path_7837" data-name="Path 7837" d="M477.445,1074.715c14.168,0,27.027-3.1,37.185-8.964l518.091-298.212c13.559-7.829,21.335-20.218,21.333-33.987,0-15.093-9.364-29.156-25.691-38.579L804.89,565.947c-12.823-7.4-28.858-11.478-45.156-11.478-14.169,0-27.028,3.1-37.185,8.964L204.457,861.645c-13.559,7.83-21.333,20.216-21.333,33.985,0,15.091,9.364,29.154,25.69,38.582l223.475,129.025C445.111,1070.639,461.147,1074.715,477.445,1074.715Z" fill="#dd131f" opacity="0"/>
        <path id="Path_7838" data-name="Path 7838" d="M722.964,564.326,204.873,862.538c-13.026,7.521-20.4,19.335-20.34,32.421.064,14.3,9.03,27.686,24.7,36.733l213.385,123.2c.344.2,10.815,6.185,11.215,6.308,13.157,7.191,29.509,10.826,45.441,10.181a79.807,79.807,0,0,0,36.666-9.8l515.23-296.565c13.026-7.522,20.405-19.337,20.341-32.424-.065-14.3-9.031-27.687-24.7-36.73L804.675,567.614a92.867,92.867,0,0,0-16.5-7.336,96.077,96.077,0,0,0-28.211-4.606C745.908,555.535,733.027,558.515,722.964,564.326Z" fill="#dd131f" opacity="0.091"/>
        <path id="Path_7839" data-name="Path 7839" d="M723.38,565.218,205.289,863.431c-12.493,7.213-19.473,18.453-19.348,30.858.129,13.511,8.7,26.217,23.7,34.882l214.394,123.782c.687.4,10.53,5.962,11.33,6.209a86.556,86.556,0,0,0,45.727,8.883c11.593,0,27.835-5.829,36.146-10.627L1029.611,762.5c12.493-7.214,19.475-18.456,19.348-30.861-.129-13.513-8.7-26.218-23.706-34.88L804.459,569.28a106.325,106.325,0,0,0-16.324-7.453,95.6,95.6,0,0,0-27.945-4.951C746.251,556.6,733.348,559.463,723.38,565.218Z" fill="#dd131f" opacity="0.182"/>
        <path id="Path_7840" data-name="Path 7840" d="M723.795,566.111,205.7,864.323c-11.959,6.906-18.543,17.573-18.354,29.295.193,12.722,8.363,24.749,22.71,33.033l215.4,124.365c1.031.595,10.246,5.739,11.446,6.108a83.93,83.93,0,0,0,46.013,7.586c10.3,0,28.239-7.194,35.626-11.459l509.508-293.273c11.959-6.905,18.545-17.573,18.355-29.3-.193-12.723-8.363-24.749-22.712-33.031l-219.455-126.7a123.7,123.7,0,0,0-16.148-7.57,95.092,95.092,0,0,0-27.678-5.3C746.595,557.668,733.669,560.41,723.795,566.111Z" fill="#dd131f" opacity="0.273"/>
        <path id="Path_7841" data-name="Path 7841" d="M724.211,567,206.12,865.216c-11.426,6.6-17.613,16.691-17.361,27.732.257,11.932,8.029,23.279,21.717,31.183l216.412,124.947c1.374.793,9.96,5.516,11.561,6.009a81.3,81.3,0,0,0,46.3,6.288c9.016,0,28.642-8.559,35.106-12.291L1026.5,757.458c11.425-6.6,17.614-16.692,17.361-27.733-.257-11.933-8.029-23.281-21.719-31.182L804.029,572.612a146.885,146.885,0,0,0-15.972-7.687,94.6,94.6,0,0,0-27.411-5.642C746.938,558.734,733.989,561.358,724.211,567Z" fill="#dd131f" opacity="0.364"/>
        <path id="Path_7842" data-name="Path 7842" d="M724.626,567.9,206.536,866.109c-10.893,6.289-16.683,15.81-16.369,26.169.321,11.141,7.695,21.81,20.724,29.333L428.313,1047.14c1.718.992,9.675,5.293,11.676,5.909,14.5,6.348,32.114,8.213,46.584,4.991,7.729,0,29.047-9.924,34.587-13.123l503.787-289.979c10.892-6.289,16.684-15.811,16.368-26.17-.321-11.143-7.695-21.812-20.725-29.333L803.814,574.279c-2.788-1.61-12.605-6.644-15.8-7.8a94.09,94.09,0,0,0-27.143-5.988C747.281,559.8,734.31,562.3,724.626,567.9Z" fill="#dd131f" opacity="0.455"/>
        <path id="Path_7843" data-name="Path 7843" d="M725.042,568.789,206.951,867c-10.359,5.982-15.753,14.929-15.375,24.606.385,10.352,7.361,20.342,19.731,27.484L429.737,1045.2c2.062,1.19,9.391,5.07,11.792,5.809,14.832,6.137,32.765,7.559,46.87,3.693,6.44,0,29.45-11.289,34.067-13.955l500.926-288.332c10.359-5.981,15.754-14.93,15.375-24.607-.385-10.353-7.362-20.343-19.732-27.483L803.6,575.945c-2.323-1.341-12.97-6.927-15.619-7.922-8.326-3.127-17.454-5.753-26.877-6.334C747.625,560.867,734.631,563.252,725.042,568.789Z" fill="#dd131f" opacity="0.545"/>
        <path id="Path_7844" data-name="Path 7844" d="M725.457,569.682,207.367,867.894c-9.826,5.673-14.823,14.048-14.383,23.043.45,9.562,7.028,18.873,18.739,25.634l219.439,126.694c2.4,1.389,9.106,4.847,11.907,5.709,15.167,5.927,33.417,6.906,47.156,2.4,5.152,0,29.854-12.654,33.547-14.787L1021.837,749.9c9.826-5.674,14.823-14.049,14.382-23.044-.45-9.563-7.028-18.873-18.739-25.633l-214.1-123.61c-1.859-1.073-13.332-7.222-15.443-8.039-8.227-3.187-17.25-6-26.61-6.679C747.968,561.933,734.952,564.2,725.457,569.682Z" fill="#dd131f" opacity="0.636"/>
        <path id="Path_7845" data-name="Path 7845" d="M725.873,570.575,207.782,868.787c-9.292,5.365-13.892,13.166-13.389,21.479.514,8.772,6.694,17.4,17.745,23.785l220.449,127.276a79.826,79.826,0,0,0,12.022,5.61c15.5,5.715,34.068,6.252,47.441,1.1,3.865,0,30.258-14.018,33.029-15.618l495.2-285.038c9.293-5.366,13.893-13.168,13.389-21.481-.514-8.772-6.694-17.4-17.745-23.784L803.169,579.277c-1.394-.8-13.69-7.527-15.267-8.156-8.131-3.249-17.046-6.251-26.343-7.025C748.311,563,735.273,565.147,725.873,570.575Z" fill="#dd131f" opacity="0.727"/>
        <path id="Path_7846" data-name="Path 7846" d="M726.288,571.467,208.2,869.679c-8.759,5.058-12.962,12.286-12.4,19.917.578,7.982,6.36,15.935,16.752,21.935L434.011,1039.39a71.815,71.815,0,0,0,12.138,5.509c15.837,5.505,34.719,5.6,47.727-.2,2.576,0,30.662-15.383,32.509-16.45l492.342-283.392c8.759-5.057,12.963-12.286,12.4-19.917-.579-7.982-6.361-15.935-16.753-21.934L802.954,580.943c-.93-.536-14.044-7.842-15.09-8.274-8.038-3.31-16.843-6.5-26.077-7.369C748.655,564.066,735.593,566.095,726.288,571.467Z" fill="#dd131f" opacity="0.818"/>
        <path id="Path_7847" data-name="Path 7847" d="M726.7,572.36,208.614,870.572c-8.226,4.749-12.033,11.4-11.4,18.353.643,7.192,6.027,14.467,15.759,20.086l222.467,128.441a65.441,65.441,0,0,0,12.253,5.41c16.172,5.294,35.371,4.946,48.013-1.5,1.288,0,31.065-16.749,31.989-17.282l489.481-281.745c8.226-4.749,12.033-11.4,11.4-18.354-.643-7.192-6.027-14.466-15.76-20.085L802.738,582.61c-.464-.269-14.392-8.17-14.913-8.392-7.948-3.373-16.639-6.748-25.809-7.715C749,565.132,735.914,567.042,726.7,572.36Z" fill="#dd131f" opacity="0.909"/>
        <path id="Path_7848" data-name="Path 7848" d="M497.528,1038.029l518.09-298.212c15.549-8.978,13.6-24.659-4.356-35.026L787.786,575.767c-17.955-10.366-45.117-11.492-60.667-2.514L209.029,871.465c-15.55,8.977-13.6,24.659,4.356,35.026L436.86,1035.514C454.816,1045.881,481.978,1047.007,497.528,1038.029Z" fill="#dd131f"/>
      </g>
      <path id="Path_7849" data-name="Path 7849" d="M424.126,983.377,215.2,862.751c-23.567-13.607-20.612-37.374,6.6-53.086L713.083,526.022c27.213-15.712,68.38-17.419,91.947-3.812l208.93,120.626c23.567,13.607,20.612,37.374-6.6,53.086L516.073,979.565C488.86,995.277,447.694,996.984,424.126,983.377Z" fill="#dee2f3"/>
      <path id="Path_7850" data-name="Path 7850" d="M424.126,979.8,215.2,859.171c-10.529-6.08-15.764-14.187-15.908-22.7-.012-.751.015-17.133.082-17.889.867-9.855,8.446-4.426,22.427-12.5L713.083,522.441c27.213-15.712,68.38-17.418,91.947-3.811l208.93,120.626c10.523,6.075,15.758-4.618,15.907,3.887.013.74-.012,20.277-.076,21.022-.847,9.87-8.427,20.09-22.432,28.176L516.073,975.985C488.86,991.7,447.694,993.4,424.126,979.8Z" fill="#dd131f"/>
      <path id="Path_7851" data-name="Path 7851" d="M424.126,961.894,215.2,841.269c-23.567-13.607-20.612-37.374,6.6-53.086L713.083,504.539c27.213-15.712,68.38-17.418,91.947-3.811l208.93,120.625c23.567,13.607,20.612,37.374-6.6,53.086L516.073,958.083C488.86,973.795,447.694,975.5,424.126,961.894Z" fill="#dee2f3"/>
      <path id="Path_7852" data-name="Path 7852" d="M215.2,838.919,424.125,959.545c23.569,13.607,64.735,11.9,91.948-3.812l491.286-283.644c14.324-8.27,21.917-18.772,22.47-28.849.593,10.774-7.029,22.283-22.47,31.2L516.073,958.083c-27.213,15.711-68.379,17.418-91.948,3.812L215.2,841.268c-11.164-6.444-16.365-15.168-15.87-24.236C199.78,825.246,205,833.033,215.2,838.919Z" fill="#dee2f3" style="mix-blend-mode: color-dodge;isolation: isolate"/>
      <path id="Path_7853" data-name="Path 7853" d="M227.32,791.714,719.2,507.727c23.856-13.773,59.943-15.269,80.6-3.341l207.822,119.986c20.66,11.928,18.069,32.763-5.787,46.536L509.957,954.894c-23.856,13.774-59.943,15.27-80.6,3.342L221.533,838.25C200.873,826.322,203.464,805.487,227.32,791.714Z" fill="#dee2f3"/>
      <path id="Path_7854" data-name="Path 7854" d="M236.855,795.808,726.29,513.232c19.968-11.528,50.174-12.78,67.467-2.8L997.145,627.862c17.293,9.984,15.125,27.423-4.843,38.952L502.866,949.39c-19.968,11.528-50.174,12.78-67.467,2.8L232.011,834.76C214.718,824.776,216.886,807.337,236.855,795.808Z" fill="#dee2f3"/>
      <path id="Path_7855" data-name="Path 7855" d="M791.982,514.18c-16.3-9.41-42.64-9.457-58.837-.106L238.312,799.766c-16.2,9.351-16.114,24.559.185,33.969L437.174,948.442c16.3,9.41,42.64,9.457,58.837.106L990.844,662.856c16.2-9.351,16.114-24.559-.184-33.969Z" fill="#dee2f3"/>
      <path id="Path_7856" data-name="Path 7856" d="M466.759,951.5c10.369,0,20.043-2.29,27.239-6.444L988.83,659.369c6.5-3.752,10.081-8.512,10.081-13.4,0-4.946-3.645-9.773-10.265-13.594L789.967,517.669c-7.314-4.224-17.108-6.551-27.574-6.551-10.366,0-20.038,2.29-27.234,6.444L240.327,803.254c-6.5,3.753-10.081,8.513-10.081,13.4,0,4.946,3.646,9.774,10.264,13.594L439.187,944.955C446.5,949.177,456.293,951.5,466.759,951.5Z" fill="#fff"/>
      <path id="Path_7857" data-name="Path 7857" d="M914.57,743.693l22.774-13.148c2.843-1.641,5.147-6.044,5.147-9.834h0c0-3.79-2.3-5.532-5.147-3.891L914.57,729.969c-2.842,1.641-5.147,6.043-5.147,9.833h0C909.423,743.592,911.728,745.335,914.57,743.693Z" fill="#dee2f3"/>
      <path id="Path_7858" data-name="Path 7858" d="M914.57,743.693l22.774-13.148c2.843-1.641,5.147-6.044,5.147-9.834h0c0-3.79-2.3-5.532-5.147-3.891L914.57,729.969c-2.842,1.641-5.147,6.043-5.147,9.833h0C909.423,743.592,911.728,745.335,914.57,743.693Z" fill="#dee2f3"/>
      <path id="Path_7859" data-name="Path 7859" d="M912.527,742.968a2.855,2.855,0,0,0,1.371-.438l22.776-13.146c2.425-1.4,4.473-5.373,4.473-8.672,0-1.461-.461-3.168-1.759-3.168a2.861,2.861,0,0,0-1.372.438l-22.775,13.149c-2.426,1.4-4.474,5.373-4.474,8.672C910.767,741.264,911.229,742.968,912.527,742.968Z" fill="#dee2f3"/>
      <path id="Path_7860" data-name="Path 7860" d="M873.913,767.167l22.774-13.149c2.843-1.641,5.147-6.044,5.147-9.834h0c0-3.79-2.3-5.532-5.147-3.891l-22.774,13.149c-2.842,1.641-5.147,6.044-5.147,9.834h0C868.766,767.066,871.071,768.808,873.913,767.167Z" fill="#dee2f3"/>
      <path id="Path_7861" data-name="Path 7861" d="M873.913,767.167l22.774-13.149c2.843-1.641,5.147-6.044,5.147-9.834h0c0-3.79-2.3-5.532-5.147-3.891l-22.774,13.149c-2.842,1.641-5.147,6.044-5.147,9.834h0C868.766,767.066,871.071,768.808,873.913,767.167Z" fill="#dee2f3"/>
      <path id="Path_7862" data-name="Path 7862" d="M871.869,766.441a2.858,2.858,0,0,0,1.372-.438l22.775-13.146c2.426-1.4,4.477-5.373,4.477-8.672,0-1.461-.462-3.168-1.763-3.168a2.857,2.857,0,0,0-1.371.438L874.584,754.6c-2.426,1.4-4.474,5.373-4.474,8.672C870.11,764.737,870.571,766.441,871.869,766.441Z" fill="#dee2f3"/>
      <path id="Path_7863" data-name="Path 7863" d="M675.445,866.472l331.914-192.481c14-8.086,21.586-18.305,22.431-28.176.029-.327.05-4.306.063-8.715,0,.082,0,20.5-.063,21.247-.845,9.87-8.427,20.09-22.431,28.176Z" fill="#dee2f3" style="mix-blend-mode: color-dodge;isolation: isolate"/>
      <path id="Path_7864" data-name="Path 7864" d="M300.559,907l37.394,21.589h0c0-6.832-4.154-14.768-9.278-17.727l-18.839-10.876c-5.124-2.959-9.277.182-9.277,7.014Z" fill="#dee2f3"/>
    </g>
    <g id="Group_1254" data-name="Group 1254">
      <g id="Group_1236" data-name="Group 1236" opacity="0">
        <path id="Path_7865" data-name="Path 7865" d="M547.787,912.34l-82.031-47.77-82.125,47.294,82.119,47.821Z" fill="#dee2f3"/>
        <path id="Path_7866" data-name="Path 7866" d="M465.8,892.822V864.6l-.046-.026-82.125,47.293,24.4,14.211Z" fill="#dee2f3"/>
        <path id="Path_7867" data-name="Path 7867" d="M547.786,912.339,465.757,864.57v28.252L523.42,926.4l24.366-14.061Z" fill="#dee2f3"/>
      </g>
      <g id="Group_1237" data-name="Group 1237">
        <path id="Path_7868" data-name="Path 7868" d="M465.572,864.518l-82.031-47.77-82.125,47.294,82.119,47.821Z" fill="#dee2f3"/>
        <path id="Path_7869" data-name="Path 7869" d="M383.587,845V816.775l-.046-.026-82.125,47.293,24.4,14.212Z" fill="#dee2f3"/>
        <path id="Path_7870" data-name="Path 7870" d="M465.572,864.518l-82.029-47.77V845l57.664,33.58,24.366-14.061Z" fill="#dee2f3"/>
      </g>
      <g id="Group_1238" data-name="Group 1238" opacity="0">
        <path id="Path_7871" data-name="Path 7871" d="M383.593,816.815l-82.031-47.77-82.125,47.294,82.119,47.821Z" fill="#dee2f3"/>
        <path id="Path_7872" data-name="Path 7872" d="M301.608,797.3V769.071l-.046-.026-82.125,47.293,24.4,14.212Z" fill="#dee2f3"/>
        <path id="Path_7873" data-name="Path 7873" d="M383.592,816.815l-82.029-47.77V797.3l57.663,33.58,24.366-14.061Z" fill="#dee2f3"/>
      </g>
      <g id="Group_1239" data-name="Group 1239">
        <path id="Path_7874" data-name="Path 7874" d="M629.907,864.99l-82.031-47.77-82.125,47.294,82.119,47.821Z" fill="#dee2f3"/>
        <path id="Path_7875" data-name="Path 7875" d="M547.922,845.472V817.246l-.046-.026-82.125,47.293,24.4,14.212Z" fill="#dee2f3"/>
        <path id="Path_7876" data-name="Path 7876" d="M629.907,864.989l-82.029-47.77v28.252l57.664,33.58,24.366-14.061Z" fill="#dee2f3"/>
      </g>
      <g id="Group_1240" data-name="Group 1240">
        <path id="Path_7877" data-name="Path 7877" d="M547.692,817.168,465.662,769.4l-82.125,47.294,82.119,47.821Z" fill="#dee2f3"/>
        <path id="Path_7878" data-name="Path 7878" d="M465.707,797.651V769.425l-.046-.026-82.125,47.293,24.4,14.212Z" fill="#dee2f3"/>
        <path id="Path_7879" data-name="Path 7879" d="M547.692,817.168,465.663,769.4v28.252l57.664,33.58,24.366-14.061Z" fill="#dee2f3"/>
      </g>
      <g id="Group_1241" data-name="Group 1241">
        <path id="Path_7880" data-name="Path 7880" d="M465.713,769.465,383.683,721.7l-82.125,47.294,82.119,47.821Z" fill="#dee2f3"/>
        <path id="Path_7881" data-name="Path 7881" d="M383.728,749.947V721.721l-.046-.026-82.125,47.293,24.4,14.212Z" fill="#dee2f3"/>
        <path id="Path_7882" data-name="Path 7882" d="M465.713,769.465,383.684,721.7v28.252l57.663,33.58,24.366-14.061Z" fill="#dee2f3"/>
      </g>
      <g id="Group_1242" data-name="Group 1242" opacity="0">
        <path id="Path_7883" data-name="Path 7883" d="M712.028,817.64,630,769.87l-82.125,47.294,82.119,47.821Z" fill="#dee2f3"/>
        <path id="Path_7884" data-name="Path 7884" d="M630.042,798.122V769.9L630,769.87l-82.125,47.293,24.4,14.211Z" fill="#dee2f3"/>
        <path id="Path_7885" data-name="Path 7885" d="M712.027,817.639,630,769.87v28.252l57.664,33.58,24.366-14.061Z" fill="#dee2f3"/>
      </g>
      <g id="Group_1243" data-name="Group 1243">
        <path id="Path_7886" data-name="Path 7886" d="M629.813,769.818l-82.031-47.77-82.125,47.294,82.119,47.821Z" fill="#dee2f3"/>
        <path id="Path_7887" data-name="Path 7887" d="M547.828,750.3V722.075l-.045-.026-82.125,47.293,24.4,14.212Z" fill="#dee2f3"/>
        <path id="Path_7888" data-name="Path 7888" d="M629.812,769.818l-82.029-47.77V750.3l57.664,33.58,24.366-14.061Z" fill="#dee2f3"/>
      </g>
      <g id="Group_1244" data-name="Group 1244">
        <path id="Path_7889" data-name="Path 7889" d="M547.834,722.115,465.8,674.345l-82.125,47.294L465.8,769.46Z" fill="#dee2f3"/>
        <path id="Path_7890" data-name="Path 7890" d="M465.849,702.6V674.371l-.046-.026-82.125,47.293,24.4,14.212Z" fill="#dee2f3"/>
        <path id="Path_7891" data-name="Path 7891" d="M547.833,722.115,465.8,674.345V702.6l57.663,33.58,24.366-14.061Z" fill="#dee2f3"/>
      </g>
      <g id="Group_1245" data-name="Group 1245">
        <path id="Path_7892" data-name="Path 7892" d="M794.148,770.29l-82.031-47.77-82.125,47.294,82.119,47.821Z" fill="#dee2f3"/>
        <path id="Path_7893" data-name="Path 7893" d="M712.163,750.772V722.546l-.045-.026-82.125,47.293,24.4,14.211Z" fill="#dee2f3"/>
        <path id="Path_7894" data-name="Path 7894" d="M794.147,770.289,712.118,722.52v28.252l57.664,33.58,24.366-14.061Z" fill="#dee2f3"/>
      </g>
      <g id="Group_1246" data-name="Group 1246">
        <path id="Path_7895" data-name="Path 7895" d="M711.933,722.468,629.9,674.7l-82.125,47.294L629.9,769.813Z" fill="#dee2f3"/>
        <path id="Path_7896" data-name="Path 7896" d="M629.948,702.951V674.725l-.045-.026-82.125,47.293,24.4,14.212Z" fill="#dee2f3"/>
        <path id="Path_7897" data-name="Path 7897" d="M711.933,722.468,629.9,674.7v28.252l57.664,33.58,24.366-14.061Z" fill="#dee2f3"/>
      </g>
      <g id="Group_1247" data-name="Group 1247">
        <path id="Path_7898" data-name="Path 7898" d="M629.954,674.765l-82.031-47.77L465.8,674.289l82.119,47.821Z" fill="#dee2f3"/>
        <path id="Path_7899" data-name="Path 7899" d="M547.969,655.247V627.021l-.046-.026L465.8,674.288,490.2,688.5Z" fill="#dee2f3"/>
        <path id="Path_7900" data-name="Path 7900" d="M629.954,674.765l-82.029-47.77v28.252l57.663,33.58,24.366-14.061Z" fill="#dee2f3"/>
      </g>
      <g id="Group_1248" data-name="Group 1248">
        <path id="Path_7901" data-name="Path 7901" d="M876.268,722.94l-82.031-47.77-82.125,47.294,82.119,47.821Z" fill="#dee2f3"/>
        <path id="Path_7902" data-name="Path 7902" d="M794.283,703.422V675.2l-.046-.026-82.125,47.293,24.4,14.211Z" fill="#dee2f3"/>
        <path id="Path_7903" data-name="Path 7903" d="M876.268,722.939,794.238,675.17v28.252L851.9,737l24.366-14.061Z" fill="#dee2f3"/>
      </g>
      <g id="Group_1249" data-name="Group 1249">
        <path id="Path_7904" data-name="Path 7904" d="M794.054,675.118l-82.031-47.77L629.9,674.642l82.119,47.821Z" fill="#dee2f3"/>
        <path id="Path_7905" data-name="Path 7905" d="M712.068,655.6V627.375l-.045-.026L629.9,674.642l24.4,14.212Z" fill="#dee2f3"/>
        <path id="Path_7906" data-name="Path 7906" d="M794.053,675.118l-82.029-47.77V655.6l57.664,33.58,24.366-14.061Z" fill="#dee2f3"/>
      </g>
      <g id="Group_1250" data-name="Group 1250">
        <path id="Path_7907" data-name="Path 7907" d="M712.074,627.415l-82.031-47.77-82.125,47.294,82.119,47.821Z" fill="#dee2f3"/>
        <path id="Path_7908" data-name="Path 7908" d="M630.089,607.9V579.671l-.046-.026-82.125,47.293,24.4,14.212Z" fill="#dee2f3"/>
        <path id="Path_7909" data-name="Path 7909" d="M712.074,627.415l-82.029-47.77V607.9l57.664,33.58,24.366-14.061Z" fill="#dee2f3"/>
      </g>
      <g id="Group_1251" data-name="Group 1251">
        <path id="Path_7910" data-name="Path 7910" d="M958.389,675.59l-82.031-47.77-82.125,47.294,82.119,47.821Z" fill="#dee2f3"/>
        <path id="Path_7911" data-name="Path 7911" d="M876.4,656.072V627.846l-.046-.026-82.125,47.293,24.4,14.212Z" fill="#dee2f3"/>
        <path id="Path_7912" data-name="Path 7912" d="M958.388,675.589l-82.029-47.77v28.252l57.664,33.58,24.366-14.061Z" fill="#dee2f3"/>
      </g>
      <g id="Group_1252" data-name="Group 1252">
        <path id="Path_7913" data-name="Path 7913" d="M876.174,627.768,794.143,580l-82.125,47.294,82.119,47.821Z" fill="#dee2f3"/>
        <path id="Path_7914" data-name="Path 7914" d="M794.189,608.251V580.025l-.046-.026-82.125,47.293,24.4,14.212Z" fill="#dee2f3"/>
        <path id="Path_7915" data-name="Path 7915" d="M876.174,627.768,794.144,580v28.252l57.664,33.58,24.366-14.061Z" fill="#dee2f3"/>
      </g>
      <g id="Group_1253" data-name="Group 1253">
        <path id="Path_7916" data-name="Path 7916" d="M794.195,580.065,712.164,532.3,630.04,579.589l82.119,47.821Z" fill="#dee2f3"/>
        <path id="Path_7917" data-name="Path 7917" d="M712.21,560.547V532.321l-.045-.026L630.04,579.589l24.4,14.212Z" fill="#dee2f3"/>
        <path id="Path_7918" data-name="Path 7918" d="M794.195,580.065,712.165,532.3v28.252l57.664,33.58,24.366-14.061Z" fill="#dee2f3"/>
      </g>
    </g>
    <g id="Group_1255" data-name="Group 1255">
      <path id="Path_7919" data-name="Path 7919" d="M793.008,167.912l-81.414,47.8-81.387-47.4V583.053l81.365,47.433v.026l.023-.014.023.014v-.026l81.391-47.79Z" fill="#dee2f3" opacity="0.7" style="mix-blend-mode: screen;isolation: isolate"/>
      <path id="Path_7920" data-name="Path 7920" d="M770.074,195.353,711.6,229.688l-58.457-34.042V596.424l58.441,34.069v.019l.016-.01.016.01v-.019l58.46-34.326Z" fill="#dee2f3" opacity="0.7" style="mix-blend-mode: screen;isolation: isolate"/>
      <path id="Path_7921" data-name="Path 7921" d="M711.572,140.155v82.8l81.436-47.816v-82.8Z" fill="#fff"/>
      <path id="Path_7922" data-name="Path 7922" d="M711.617,140.155v82.8l-81.41-47.459V92.746Z" fill="#dee2f3"/>
      <path id="Path_7923" data-name="Path 7923" d="M630.207,92.746l81.41,47.409,81.391-47.816L711.51,44.88Z" fill="#dee2f3"/>
      <path id="Path_7924" data-name="Path 7924" d="M713.42,138.717a3.576,3.576,0,0,1-3.61.007l-78.527-45.73-1.077.633,79.6,47.019a3.576,3.576,0,0,0,3.61-.006l79.588-47.419-1.077-.627Z" fill="#dee2f3" style="mix-blend-mode: color-dodge;isolation: isolate"/>
    </g>
    <g id="Group_1256" data-name="Group 1256">
      <path id="Path_7925" data-name="Path 7925" d="M955.907,641.059l-81.414,47.8-81.387-47.4V675.18l81.365,47.433v.026l.023-.014.023.014v-.026l81.391-47.79Z" fill="#dee2f3" style="mix-blend-mode: screen;isolation: isolate"/>
      <path id="Path_7926" data-name="Path 7926" d="M932.972,668.5,874.5,702.834l-58.457-34.042v19.759L874.48,722.62v.019l.016-.01.016.01v-.019l58.46-34.326Z" fill="#dee2f3" style="mix-blend-mode: screen;isolation: isolate"/>
      <path id="Path_7927" data-name="Path 7927" d="M874.117,613.654v82.8l81.436-47.816v-82.8Z" fill="#dee2f3"/>
      <path id="Path_7928" data-name="Path 7928" d="M874.162,613.654v82.8l-81.41-47.459V566.246Z" fill="#dee2f3"/>
      <path id="Path_7929" data-name="Path 7929" d="M792.752,566.246l81.41,47.409,81.391-47.816-81.5-47.459Z" fill="#dee2f3"/>
      <path id="Path_7930" data-name="Path 7930" d="M875.965,612.217a3.576,3.576,0,0,1-3.61.007l-78.527-45.73-1.077.633,79.6,47.019a3.576,3.576,0,0,0,3.61-.006l79.588-47.419-1.077-.627Z" fill="#dee2f3" style="mix-blend-mode: color-dodge;isolation: isolate"/>
    </g>
    <g id="Group_1257" data-name="Group 1257">
      <path id="Path_7931" data-name="Path 7931" d="M711.736,442.589l-81.414,47.8L548.935,443V628.3L630.3,675.734v.026l.023-.014.023.014v-.026l81.391-47.79Z" fill="#c2c4cf"/>
      <path id="Path_7932" data-name="Path 7932" d="M688.8,470.03l-58.476,34.335-58.457-34.042v171.35l58.441,34.069v.019l.016-.01.016.01v-.019l58.46-34.326Z" fill="#c2c4cf"/>
      <path id="Path_7933" data-name="Path 7933" d="M630.36,415.178v82.8L711.8,450.161v-82.8Z" fill="#dee2f3"/>
      <path id="Path_7934" data-name="Path 7934" d="M630.4,415.178v82.8l-81.41-47.459V367.77Z" fill="#dee2f3"/>
      <path id="Path_7935" data-name="Path 7935" d="M548.995,367.77l81.41,47.409L711.8,367.362,630.3,319.9Z" fill="#dee2f3"/>
      <path id="Path_7936" data-name="Path 7936" d="M632.208,413.741a3.576,3.576,0,0,1-3.61.007l-78.527-45.73-1.076.633,79.6,47.019a3.576,3.576,0,0,0,3.61-.007L711.8,368.244l-1.077-.627Z" fill="#dee2f3" style="mix-blend-mode: color-dodge;isolation: isolate"/>
    </g>
    <g id="Group_1258" data-name="Group 1258">
      <path id="Path_7937" data-name="Path 7937" d="M629.286,616.912l-81.414,47.8-81.388-47.4V769.607l81.365,47.433v.026l.023-.014.023.014v-.026l81.391-47.79Z" fill="#c2c4cf"/>
      <path id="Path_7938" data-name="Path 7938" d="M606.352,644.354l-58.476,34.335-58.457-34.042V782.978l58.441,34.069v.019l.016-.01.016.01v-.019l58.46-34.326Z" fill="#c2c4cf"/>
      <path id="Path_7939" data-name="Path 7939" d="M547.614,588.919v82.8L629.05,623.9V541.1Z" fill="#dee2f3"/>
      <path id="Path_7940" data-name="Path 7940" d="M547.659,588.919v82.8l-81.41-47.459V541.511Z" fill="#dee2f3"/>
      <path id="Path_7941" data-name="Path 7941" d="M466.249,541.511l81.41,47.409L629.05,541.1l-81.5-47.459Z" fill="#dee2f3"/>
      <path id="Path_7942" data-name="Path 7942" d="M549.462,587.482a3.576,3.576,0,0,1-3.61.007l-78.527-45.73-1.077.633,79.6,47.019a3.573,3.573,0,0,0,3.61-.007l79.588-47.418-1.077-.627Z" fill="#dee2f3" style="mix-blend-mode: color-dodge;isolation: isolate"/>
    </g>
    <g id="Group_1259" data-name="Group 1259">
      <path id="Path_7943" data-name="Path 7943" d="M793.551,445.927v82.8l81.436-47.816v-82.8Z" fill="#dee2f3"/>
      <path id="Path_7944" data-name="Path 7944" d="M793.6,445.927v82.8l-81.41-47.459V398.518Z" fill="#dee2f3"/>
      <path id="Path_7945" data-name="Path 7945" d="M712.186,398.518l81.41,47.409,81.391-47.816-81.5-47.459Z" fill="#dee2f3"/>
      <path id="Path_7946" data-name="Path 7946" d="M795.4,444.49a3.578,3.578,0,0,1-3.61.007l-78.527-45.73-1.076.633,79.6,47.019a3.576,3.576,0,0,0,3.61-.007l79.588-47.419-1.077-.627Z" fill="#dee2f3" style="mix-blend-mode: color-dodge;isolation: isolate"/>
    </g>
    <g id="Group_1260" data-name="Group 1260">
      <path id="Path_7947" data-name="Path 7947" d="M792.3,362.966l-81.414,47.8-81.387-47.4v313.2l81.365,47.433v.026l.023-.014.023.014v-.026l81.391-47.79Z" fill="#c2c4cf" opacity="0.7"/>
      <path id="Path_7948" data-name="Path 7948" d="M769.368,390.407l-58.476,34.335L652.434,390.7V689.946l58.441,34.069v.019l.016-.01.016.01v-.019l58.46-34.326Z" fill="#c2c4cf" opacity="0.7"/>
      <path id="Path_7949" data-name="Path 7949" d="M710.865,335.208v82.8L792.3,370.191v-82.8Z" fill="#fff"/>
      <path id="Path_7950" data-name="Path 7950" d="M710.91,335.208v82.8L629.5,370.547V287.8Z" fill="#dee2f3"/>
      <path id="Path_7951" data-name="Path 7951" d="M629.5,287.8l81.41,47.409L792.3,287.392l-81.5-47.459Z" fill="#dee2f3"/>
      <path id="Path_7952" data-name="Path 7952" d="M712.713,333.771a3.576,3.576,0,0,1-3.61.007l-78.527-45.73-1.076.633L709.1,335.7a3.576,3.576,0,0,0,3.61-.007L792.3,288.274l-1.077-.627Z" fill="#dee2f3" style="mix-blend-mode: color-dodge;isolation: isolate"/>
    </g>
    <g id="Group_1261" data-name="Group 1261">
      <path id="Path_7953" data-name="Path 7953" d="M874.634,580.281l-81.414,47.8-81.387-47.4V723.081L793.2,770.514v.026l.023-.014.023.014v-.026l81.391-47.79Z" fill="#c2c4cf"/>
      <path id="Path_7954" data-name="Path 7954" d="M851.7,607.722l-58.476,34.335-58.457-34.042V736.453l58.441,34.069v.019l.016-.01.016.01v-.019L851.7,736.2Z" fill="#c2c4cf"/>
      <path id="Path_7955" data-name="Path 7955" d="M792.844,549.343v82.8l81.436-47.816v-82.8Z" fill="#fdfeff"/>
      <path id="Path_7956" data-name="Path 7956" d="M792.889,549.343v82.8l-81.41-47.459V501.935Z" fill="#dee2f3"/>
      <path id="Path_7957" data-name="Path 7957" d="M711.479,501.935l81.41,47.408,81.391-47.816-81.5-47.459Z" fill="#fff"/>
      <path id="Path_7958" data-name="Path 7958" d="M794.692,547.906a3.576,3.576,0,0,1-3.61.007l-78.526-45.73-1.077.633,79.6,47.019a3.574,3.574,0,0,0,3.61-.007l79.588-47.419-1.077-.627Z" fill="#dee2f3" style="mix-blend-mode: color-dodge;isolation: isolate"/>
    </g>
    <g id="Group_1262" data-name="Group 1262">
      <path id="Path_7959" data-name="Path 7959" d="M794.069,693.356l-81.414,47.8-81.387-47.4V769.88l81.365,47.433v.026l.023-.014.023.014v-.026l81.391-47.79Z" fill="#c2c4cf"/>
      <path id="Path_7960" data-name="Path 7960" d="M771.134,720.8l-58.476,34.335L654.2,721.089v62.162l58.441,34.069v.019l.016-.01.016.01v-.019l58.46-34.326Z" fill="#c2c4cf"/>
      <path id="Path_7961" data-name="Path 7961" d="M712.279,665.951v82.8l81.436-47.816v-82.8Z" fill="#c2c4cf"/>
      <path id="Path_7962" data-name="Path 7962" d="M712.324,665.951v82.8l-81.41-47.459V618.543Z" fill="#dee2f3"/>
      <path id="Path_7963" data-name="Path 7963" d="M630.914,618.543l81.41,47.409,81.391-47.816-81.5-47.459Z" fill="#fff"/>
      <path id="Path_7964" data-name="Path 7964" d="M714.127,664.514a3.576,3.576,0,0,1-3.61.007l-78.527-45.73-1.077.633,79.6,47.019a3.576,3.576,0,0,0,3.61-.006l79.588-47.419-1.077-.627Z" fill="#dee2f3" style="mix-blend-mode: color-dodge;isolation: isolate"/>
    </g>
    <g id="Group_1263" data-name="Group 1263">
      <path id="Path_7965" data-name="Path 7965" d="M465.092,386.287l-81.414,47.8-81.387-47.4V768.467L383.655,815.9v.026l.023-.014.023.014V815.9l81.391-47.79Z" fill="#c2c4cf" style="mix-blend-mode: screen;isolation: isolate"/>
      <path id="Path_7966" data-name="Path 7966" d="M383.678,434.09l-81.387-47.4V768.467L383.655,815.9v.026l.023-.014.023.014V815.9Z" fill="#c2c4cf" style="mix-blend-mode: multiply;isolation: isolate"/>
      <path id="Path_7967" data-name="Path 7967" d="M442.158,413.728l-58.476,34.335-58.457-34.042V781.838l58.441,34.069v.019l.016-.01.016.01v-.019l58.46-34.326Z" fill="#c2c4cf"/>
      <path id="Path_7968" data-name="Path 7968" d="M382.949,359.237v82.8l81.436-47.816v-82.8Z" fill="#fff"/>
      <path id="Path_7969" data-name="Path 7969" d="M382.994,359.237v82.8l-81.41-47.459V311.828Z" fill="#dee2f3"/>
      <path id="Path_7970" data-name="Path 7970" d="M301.584,311.828l81.41,47.409,81.391-47.816-81.5-47.459Z" fill="#c2c4cf"/>
      <path id="Path_7971" data-name="Path 7971" d="M384.8,357.8a3.576,3.576,0,0,1-3.61.007l-78.527-45.73-1.077.633,79.6,47.019a3.576,3.576,0,0,0,3.61-.006L464.385,312.3l-1.077-.627Z" fill="#dee2f3" style="mix-blend-mode: color-dodge;isolation: isolate"/>
    </g>
    <g id="Group_1264" data-name="Group 1264">
      <path id="Path_7972" data-name="Path 7972" d="M547.307,557.548l-81.414,47.8-81.388-47.4V816.288l81.365,47.433v.026l.023-.014.023.014v-.026l81.391-47.79Z" fill="#c2c4cf"/>
      <path id="Path_7973" data-name="Path 7973" d="M524.373,584.99,465.9,619.324l-58.457-34.042V829.659l58.441,34.069v.019l.016-.01.016.01v-.019l58.46-34.326Z" fill="#c2c4cf"/>
      <path id="Path_7974" data-name="Path 7974" d="M465.635,530.969v82.8l81.436-47.816v-82.8Z" fill="#fff"/>
      <path id="Path_7975" data-name="Path 7975" d="M465.68,530.969v82.8l-81.41-47.459V483.56Z" fill="#dee2f3"/>
      <path id="Path_7976" data-name="Path 7976" d="M384.27,483.56l81.41,47.409,81.391-47.816-81.5-47.459Z" fill="#c2c4cf"/>
      <path id="Path_7977" data-name="Path 7977" d="M467.483,529.531a3.576,3.576,0,0,1-3.61.007l-78.527-45.73-1.077.633,79.6,47.02a3.578,3.578,0,0,0,3.61-.007l79.588-47.419-1.077-.627Z" fill="#dee2f3" style="mix-blend-mode: color-dodge;isolation: isolate"/>
    </g>
    <g id="Group_1265" data-name="Group 1265">
      <path id="Path_7978" data-name="Path 7978" d="M547.614,789.627v82.8L629.05,824.61v-82.8Z" fill="#dee2f3"/>
      <path id="Path_7979" data-name="Path 7979" d="M547.659,789.627v82.8l-81.41-47.459V742.218Z" fill="#dee2f3"/>
      <path id="Path_7980" data-name="Path 7980" d="M466.249,742.218l81.41,47.409,81.391-47.816-81.5-47.459Z" fill="#dee2f3"/>
      <path id="Path_7981" data-name="Path 7981" d="M549.462,788.189a3.576,3.576,0,0,1-3.61.007l-78.527-45.729-1.077.632,79.6,47.02a3.576,3.576,0,0,0,3.61-.007l79.588-47.419-1.077-.627Z" fill="#dee2f3" style="mix-blend-mode: color-dodge;isolation: isolate"/>
      <path id="Path_7982" data-name="Path 7982" d="M629.05,817.031l-81.414,47.8-81.387-47.4v47.477l81.365,47.433v.026l.023-.014.023.014v-.026l81.391-47.79Z" fill="#fff"/>
      <path id="Path_7983" data-name="Path 7983" d="M606.116,844.472,547.64,878.807l-58.457-34.042v33.521l58.441,34.069v.019l.016-.01.016.01v-.019l58.46-34.326Z" fill="#fff"/>
    </g>
    <g id="Group_1266" data-name="Group 1266">
      <path id="Path_7984" data-name="Path 7984" d="M464.385,714.911l-81.414,47.8-81.387-47.4v149.46l81.365,47.433v.026l.023-.014.023.014v-.026l81.391-47.79Z" fill="#c2c4cf"/>
      <path id="Path_7985" data-name="Path 7985" d="M441.451,742.351l-58.476,34.335-58.457-34.042V878.149l58.441,34.069v.019l.016-.01.016.01v-.019l58.46-34.326Z" fill="#c2c4cf"/>
      <path id="Path_7986" data-name="Path 7986" d="M382.949,687.153v82.8l81.436-47.816v-82.8Z" fill="#fff"/>
      <path id="Path_7987" data-name="Path 7987" d="M382.994,687.153v82.8l-81.41-47.459V639.744Z" fill="#dee2f3"/>
      <path id="Path_7988" data-name="Path 7988" d="M301.584,639.744l81.41,47.409,81.391-47.816-81.5-47.459Z" fill="#fff"/>
      <path id="Path_7989" data-name="Path 7989" d="M384.8,685.716a3.576,3.576,0,0,1-3.61.006L302.66,639.993l-1.077.633,79.6,47.019a3.576,3.576,0,0,0,3.61-.007l79.588-47.419-1.077-.627Z" fill="#dee2f3" style="mix-blend-mode: color-dodge;isolation: isolate"/>
    </g>
  </g>
</svg>
