<svg xmlns="http://www.w3.org/2000/svg" xmlns:xlink="http://www.w3.org/1999/xlink" viewBox="0 0 909.64 951.71"><defs><style>.cls-1{isolation:isolate;}.cls-12,.cls-13,.cls-14,.cls-15,.cls-16,.cls-17,.cls-18,.cls-19,.cls-2,.cls-20,.cls-21,.cls-22,.cls-23,.cls-25,.cls-27,.cls-3,.cls-35,.cls-36,.cls-37,.cls-38,.cls-39,.cls-4,.cls-40,.cls-41,.cls-42,.cls-45,.cls-47,.cls-48,.cls-5,.cls-50,.cls-52,.cls-53,.cls-54,.cls-55,.cls-56,.cls-57,.cls-58,.cls-59,.cls-6,.cls-60,.cls-61,.cls-62,.cls-63,.cls-64,.cls-65,.cls-66,.cls-67,.cls-68,.cls-69,.cls-7,.cls-8{mix-blend-mode:screen;}.cls-2{fill:url(#radial-gradient);}.cls-3{fill:url(#radial-gradient-2);}.cls-4{fill:url(#radial-gradient-3);}.cls-5{fill:url(#radial-gradient-4);}.cls-6{fill:url(#radial-gradient-5);}.cls-7{fill:url(#radial-gradient-6);}.cls-8{fill:url(#radial-gradient-7);}.cls-24,.cls-9{opacity:0.6;}.cls-9{fill:url(#linear-gradient);}.cls-10{fill:#ec0000;}.cls-11{fill:#fff;}.cls-12{fill:url(#radial-gradient-8);}.cls-13{fill:url(#radial-gradient-9);}.cls-14{fill:url(#radial-gradient-10);}.cls-15{fill:url(#radial-gradient-11);}.cls-16{fill:url(#radial-gradient-12);}.cls-17{fill:url(#radial-gradient-13);}.cls-18{fill:url(#radial-gradient-14);}.cls-19{fill:url(#radial-gradient-15);}.cls-20{fill:url(#radial-gradient-16);}.cls-21{fill:url(#radial-gradient-17);}.cls-22{fill:url(#radial-gradient-18);}.cls-23{fill:url(#radial-gradient-19);}.cls-25{fill:url(#radial-gradient-20);}.cls-26{fill:url(#radial-gradient-21);}.cls-27{fill:url(#radial-gradient-22);}.cls-28{fill:url(#radial-gradient-23);}.cls-29{opacity:0.25;}.cls-29,.cls-30,.cls-31{mix-blend-mode:hard-light;}.cls-30{opacity:0.15;}.cls-31,.cls-47{opacity:0.05;}.cls-32{fill:url(#linear-gradient-2);}.cls-33{fill:url(#linear-gradient-3);}.cls-34{fill:url(#linear-gradient-4);}.cls-35,.cls-36,.cls-37,.cls-38,.cls-39,.cls-40,.cls-41,.cls-47,.cls-48{fill:#ff5454;}.cls-35{opacity:0.7;}.cls-36{opacity:0.2;}.cls-37{opacity:0.35;}.cls-38{opacity:0.1;}.cls-39{opacity:0.07;}.cls-40,.cls-49{opacity:0.5;}.cls-41{opacity:0.45;}.cls-42{fill:url(#radial-gradient-24);}.cls-43{fill:url(#radial-gradient-25);}.cls-44{opacity:0.3;}.cls-45{fill:url(#radial-gradient-26);}.cls-46{fill:url(#radial-gradient-27);}.cls-48{opacity:0.03;}.cls-50{fill:url(#radial-gradient-28);}.cls-51{fill:#fefefe;}.cls-52{fill:url(#radial-gradient-29);}.cls-53{fill:url(#radial-gradient-30);}.cls-54{fill:url(#radial-gradient-31);}.cls-55{fill:url(#radial-gradient-32);}.cls-56{fill:url(#radial-gradient-33);}.cls-57{fill:url(#radial-gradient-34);}.cls-58{fill:url(#radial-gradient-35);}.cls-59{fill:url(#radial-gradient-36);}.cls-60{fill:url(#radial-gradient-37);}.cls-61{fill:url(#radial-gradient-38);}.cls-62{fill:url(#radial-gradient-39);}.cls-63{fill:url(#radial-gradient-40);}.cls-64{fill:url(#radial-gradient-41);}.cls-65{fill:url(#radial-gradient-42);}.cls-66{fill:url(#radial-gradient-43);}.cls-67{fill:url(#radial-gradient-44);}.cls-68{fill:url(#radial-gradient-45);}.cls-69{fill:url(#radial-gradient-46);}</style><radialGradient id="radial-gradient" cx="-459.65" cy="-3279.59" r="54.09" gradientTransform="matrix(0.99, 0.6, -1.05, 0.57, -2400.97, 2927.04)" gradientUnits="userSpaceOnUse"><stop offset="0" stop-color="#f66"/><stop offset="0.12" stop-color="#ff5959" stop-opacity="0.78"/><stop offset="0.24" stop-color="#ff4d4d" stop-opacity="0.57"/><stop offset="0.37" stop-color="#fe4343" stop-opacity="0.4"/><stop offset="0.5" stop-color="#fe3a3a" stop-opacity="0.25"/><stop offset="0.62" stop-color="#fe3333" stop-opacity="0.14"/><stop offset="0.75" stop-color="#fe2f2f" stop-opacity="0.06"/><stop offset="0.88" stop-color="#fe2c2c" stop-opacity="0.02"/><stop offset="1" stop-color="#fe2b2b" stop-opacity="0"/></radialGradient><radialGradient id="radial-gradient-2" cx="1811.53" cy="-2961.61" r="22.11" gradientTransform="matrix(0.87, 0.5, -0.87, 0.5, -3556.47, 1371.99)" gradientUnits="userSpaceOnUse"><stop offset="0" stop-color="#ff6363"/><stop offset="0.12" stop-color="#c74d4d" stop-opacity="0.78"/><stop offset="0.24" stop-color="#933939" stop-opacity="0.57"/><stop offset="0.37" stop-color="#662727" stop-opacity="0.4"/><stop offset="0.5" stop-color="#411919" stop-opacity="0.25"/><stop offset="0.62" stop-color="#240e0e" stop-opacity="0.14"/><stop offset="0.75" stop-color="#100606" stop-opacity="0.06"/><stop offset="0.87" stop-color="#040202" stop-opacity="0.02"/><stop offset="0.99" stop-opacity="0"/></radialGradient><radialGradient id="radial-gradient-3" cx="1811.53" cy="-2961.61" r="5.52" gradientTransform="matrix(0.87, 0.5, -0.87, 0.5, -3556.47, 1371.99)" gradientUnits="userSpaceOnUse"><stop offset="0" stop-color="#ff7a7a"/><stop offset="0.15" stop-color="#fc7878"/><stop offset="0.28" stop-color="#f17373"/><stop offset="0.4" stop-color="#e06b6b"/><stop offset="0.52" stop-color="#c75f5f"/><stop offset="0.63" stop-color="#a75050"/><stop offset="0.74" stop-color="#803d3d"/><stop offset="0.85" stop-color="#522727"/><stop offset="0.95" stop-color="#1e0e0e"/><stop offset="1"/></radialGradient><radialGradient id="radial-gradient-4" cx="-411.76" cy="-3300.23" r="54.09" gradientTransform="matrix(0.99, 0.6, -1.05, 0.57, -2400.66, 2925.74)" xlink:href="#radial-gradient"/><radialGradient id="radial-gradient-5" cx="1867.23" cy="-2986.04" r="22.11" xlink:href="#radial-gradient-2"/><radialGradient id="radial-gradient-6" cx="1867.23" cy="-2986.04" r="5.52" xlink:href="#radial-gradient-3"/><radialGradient id="radial-gradient-7" cx="311.67" cy="-3594.05" r="317.3" gradientTransform="matrix(0.6, 0.99, -0.58, 1.03, -1702.26, 3792.09)" gradientUnits="userSpaceOnUse"><stop offset="0" stop-color="#ff4a4a"/><stop offset="0.12" stop-color="#ff3a3a" stop-opacity="0.78"/><stop offset="0.24" stop-color="#ff2b2b" stop-opacity="0.57"/><stop offset="0.37" stop-color="#ff1d1d" stop-opacity="0.4"/><stop offset="0.5" stop-color="#ff1313" stop-opacity="0.25"/><stop offset="0.62" stop-color="#ff0b0b" stop-opacity="0.14"/><stop offset="0.75" stop-color="#ff0505" stop-opacity="0.06"/><stop offset="0.88" stop-color="#ff0101" stop-opacity="0.02"/><stop offset="1" stop-color="red" stop-opacity="0"/></radialGradient><linearGradient id="linear-gradient" x1="620.57" y1="910.34" x2="160.72" y2="555.01" gradientUnits="userSpaceOnUse"><stop offset="0" stop-color="#ffa8a8"/><stop offset="0.99" stop-color="#bfbfbf"/></linearGradient><radialGradient id="radial-gradient-8" cx="-607.22" cy="-3176.31" r="54.09" gradientTransform="matrix(0.99, 0.6, -1.05, 0.57, -2401.48, 2931.82)" xlink:href="#radial-gradient"/><radialGradient id="radial-gradient-9" cx="1639.37" cy="-2839.38" r="22.11" xlink:href="#radial-gradient-2"/><radialGradient id="radial-gradient-10" cx="1639.37" cy="-2839.38" r="5.52" xlink:href="#radial-gradient-3"/><radialGradient id="radial-gradient-11" cx="-393.48" cy="-3156.68" r="54.09" gradientTransform="matrix(0.99, 0.6, -1.05, 0.57, -2398.91, 2928.2)" xlink:href="#radial-gradient"/><radialGradient id="radial-gradient-12" cx="1886.54" cy="-2816.14" r="22.11" xlink:href="#radial-gradient-2"/><radialGradient id="radial-gradient-13" cx="1886.54" cy="-2816.14" r="5.52" xlink:href="#radial-gradient-3"/><radialGradient id="radial-gradient-14" cx="-834.46" cy="-3318.93" r="54.09" gradientTransform="matrix(0.99, 0.6, -1.05, 0.57, -2405.53, 2933.28)" xlink:href="#radial-gradient"/><radialGradient id="radial-gradient-15" cx="1378.18" cy="-3008.19" r="22.11" xlink:href="#radial-gradient-2"/><radialGradient id="radial-gradient-16" cx="1378.18" cy="-3008.19" r="5.52" xlink:href="#radial-gradient-3"/><radialGradient id="radial-gradient-17" cx="-738.73" cy="-3177.15" r="54.09" gradientTransform="matrix(0.99, 0.6, -1.05, 0.57, -2402.95, 2934.26)" xlink:href="#radial-gradient"/><radialGradient id="radial-gradient-18" cx="1487.15" cy="-2840.38" r="22.11" xlink:href="#radial-gradient-2"/><radialGradient id="radial-gradient-19" cx="1487.15" cy="-2840.38" r="5.52" xlink:href="#radial-gradient-3"/><radialGradient id="radial-gradient-20" cx="-23728.17" cy="-5696.16" r="20.14" gradientTransform="matrix(0.05, -0.48, -4.18, 2.41, -21851.34, 2924.54)" xlink:href="#radial-gradient-7"/><radialGradient id="radial-gradient-21" cx="678.62" cy="473.46" r="2.2" gradientTransform="matrix(1, 0, 0, 1, 0, 0)" xlink:href="#radial-gradient-7"/><radialGradient id="radial-gradient-22" cx="-23277.79" cy="-5662.05" r="23.91" gradientTransform="matrix(0.29, -0.38, -4.83, -0.02, -20097.73, -8725.18)" xlink:href="#radial-gradient-7"/><radialGradient id="radial-gradient-23" cx="560.47" cy="341.3" r="2.61" gradientTransform="matrix(1, 0, 0, 1, 0, 0)" xlink:href="#radial-gradient-7"/><linearGradient id="linear-gradient-2" x1="-12726.55" y1="373.49" x2="-12713.48" y2="351.07" gradientTransform="matrix(-1, 0, 0, 1, -12329.31, 0)" gradientUnits="userSpaceOnUse"><stop offset="0.24" stop-color="#c7c7c7"/><stop offset="0.63" stop-color="#c9c9c9"/><stop offset="0.77" stop-color="#d0d0d0"/><stop offset="0.88" stop-color="#dbdbdb"/><stop offset="0.96" stop-color="#ececec"/><stop offset="1" stop-color="#f9f9f9"/></linearGradient><linearGradient id="linear-gradient-3" x1="-12971.97" y1="611.27" x2="-12784.61" y2="303.46" gradientTransform="matrix(-1, 0, 0, 1, -12329.31, 0)" gradientUnits="userSpaceOnUse"><stop offset="0" stop-color="#f8bfbf"/><stop offset="0.27" stop-color="#fcfcfc"/><stop offset="0.36" stop-color="#ededed"/><stop offset="0.58" stop-color="#c7c7c7"/><stop offset="0.88" stop-color="#e0e0e0"/><stop offset="0.92" stop-color="#e2dddd"/><stop offset="0.96" stop-color="#ead2d2"/><stop offset="1" stop-color="#f7c1c1"/><stop offset="1" stop-color="#f8bfbf"/></linearGradient><linearGradient id="linear-gradient-4" x1="-12992.48" y1="462.35" x2="-12681.99" y2="462.35" gradientTransform="matrix(-1, 0, 0, 1, -12329.31, 0)" gradientUnits="userSpaceOnUse"><stop offset="0" stop-color="#f8bfbf"/><stop offset="1" stop-color="#c7c7c7"/></linearGradient><radialGradient id="radial-gradient-24" cx="-23482.41" cy="-5703.22" r="23.91" gradientTransform="matrix(0.05, -0.48, -4.18, 2.41, -21851.34, 2924.54)" xlink:href="#radial-gradient-7"/><radialGradient id="radial-gradient-25" cx="721.51" cy="339.36" r="2.61" gradientTransform="matrix(1, 0, 0, 1, 0, 0)" xlink:href="#radial-gradient-7"/><radialGradient id="radial-gradient-26" cx="-23621.6" cy="-5729.87" r="20.14" gradientTransform="matrix(0.05, -0.48, -4.18, 2.41, -21851.34, 2924.54)" xlink:href="#radial-gradient-7"/><radialGradient id="radial-gradient-27" cx="825.41" cy="341.3" r="2.2" gradientTransform="matrix(1, 0, 0, 1, 0, 0)" xlink:href="#radial-gradient-7"/><radialGradient id="radial-gradient-28" cx="-11630.43" cy="-5633.73" r="14.77" gradientTransform="matrix(-1.26, 0.31, -0.14, -2.72, -14824.22, -11153.45)" gradientUnits="userSpaceOnUse"><stop offset="0.12" stop-color="#ff6e6e"/><stop offset="0.25" stop-color="#df0b0b"/><stop offset="0.44" stop-color="#e83030" stop-opacity="0.7"/><stop offset="0.64" stop-color="#f05454" stop-opacity="0.4"/><stop offset="0.8" stop-color="#f66e6e" stop-opacity="0.18"/><stop offset="0.93" stop-color="#fa7e7e" stop-opacity="0.05"/><stop offset="1" stop-color="#fb8484" stop-opacity="0"/></radialGradient><radialGradient id="radial-gradient-29" cx="-12143.79" cy="-4342.39" r="14.77" gradientTransform="matrix(-1.05, -0.99, 2.6, -0.4, -874.55, -13127.46)" xlink:href="#radial-gradient-28"/><radialGradient id="radial-gradient-30" cx="-12126.08" cy="-4332.26" r="14.77" gradientTransform="matrix(-1.05, -0.99, 2.6, -0.4, -884.31, -13128.75)" xlink:href="#radial-gradient-28"/><radialGradient id="radial-gradient-31" cx="-12101.91" cy="-4357.53" r="14.77" gradientTransform="matrix(-1.05, -0.99, 2.6, -0.4, -881.75, -13089.32)" xlink:href="#radial-gradient-28"/><radialGradient id="radial-gradient-32" cx="-12238.2" cy="-4381.06" r="14.77" gradientTransform="matrix(-1.05, -0.99, 2.6, -0.4, -828.71, -13136.75)" xlink:href="#radial-gradient-28"/><radialGradient id="radial-gradient-33" cx="-12321.93" cy="-4386.89" r="14.77" gradientTransform="matrix(-1.05, -0.99, 2.6, -0.4, -799.7, -13174.97)" xlink:href="#radial-gradient-28"/><radialGradient id="radial-gradient-34" cx="-5953.77" cy="-6373.77" r="14.77" gradientTransform="matrix(0.99, 1.05, 0.4, -2.6, 9127.79, -9623.54)" xlink:href="#radial-gradient-28"/><radialGradient id="radial-gradient-35" cx="-5981" cy="-6320.92" r="14.77" gradientTransform="matrix(0.99, 1.05, 0.4, -2.6, 8980.29, -9521.54)" xlink:href="#radial-gradient-28"/><radialGradient id="radial-gradient-36" cx="-6019.6" cy="-6334.12" r="14.77" gradientTransform="matrix(0.99, 1.05, 0.4, -2.6, 9000.05, -9478.49)" xlink:href="#radial-gradient-28"/><radialGradient id="radial-gradient-37" cx="-6110.97" cy="-6390.93" r="14.77" gradientTransform="matrix(1.37, -0.46, -2.2, -1.45, -5189.22, -11268.15)" xlink:href="#radial-gradient-28"/><radialGradient id="radial-gradient-38" cx="-6033.78" cy="-6235.76" r="14.77" gradientTransform="matrix(0.99, 1.05, 0.4, -2.6, 8739.26, -9343.78)" xlink:href="#radial-gradient-28"/><radialGradient id="radial-gradient-39" cx="-6030.54" cy="-6260.74" r="14.77" gradientTransform="matrix(0.99, 1.05, 0.4, -2.6, 8805.35, -9377.44)" xlink:href="#radial-gradient-28"/><radialGradient id="radial-gradient-40" cx="-6062.64" cy="-6311.09" r="14.77" gradientTransform="matrix(1.37, -0.46, -2.2, -1.45, -5189.22, -11268.15)" xlink:href="#radial-gradient-28"/><radialGradient id="radial-gradient-41" cx="-12193.75" cy="-4410.66" r="14.77" gradientTransform="matrix(-1.05, -0.99, 2.6, -0.4, -830.88, -13081.99)" xlink:href="#radial-gradient-28"/><radialGradient id="radial-gradient-42" cx="-12134.13" cy="-4422.09" r="14.77" gradientTransform="matrix(-1.05, -0.99, 2.6, -0.4, -845.25, -13038.35)" xlink:href="#radial-gradient-28"/><radialGradient id="radial-gradient-43" cx="-12079.26" cy="-4378.41" r="14.77" gradientTransform="matrix(-1.05, -0.99, 2.6, -0.4, -880.47, -13055.3)" xlink:href="#radial-gradient-28"/><radialGradient id="radial-gradient-44" cx="-12058.92" cy="-4377.78" r="14.77" gradientTransform="matrix(-1.05, -0.99, 2.6, -0.4, -887.21, -13045.18)" xlink:href="#radial-gradient-28"/><radialGradient id="radial-gradient-45" cx="-12053.72" cy="-4412.81" r="14.77" gradientTransform="matrix(-1.05, -0.99, 2.6, -0.4, -874.63, -13005.51)" xlink:href="#radial-gradient-28"/><radialGradient id="radial-gradient-46" cx="-12043.24" cy="-4350.64" r="14.77" gradientTransform="matrix(-1.05, -0.99, 2.6, -0.4, -903.23, -13065.48)" xlink:href="#radial-gradient-28"/></defs><title>global_reach</title><g class="cls-1"><g id="Layer_2" data-name="Layer 2"><g id="Layer_1-2" data-name="Layer 1"><ellipse class="cls-2" cx="577.08" cy="796.95" rx="78" ry="44.51" transform="translate(-14.85 10.97) rotate(-1.08)"/><path class="cls-3" d="M596.22,808c-10.57,6.11-27.71,6.11-38.29,0s-10.57-16,0-22.1,27.72-6.11,38.29,0S606.79,801.9,596.22,808Z"/><path class="cls-4" d="M581.86,799.71a10.53,10.53,0,0,1-9.56,0c-2.65-1.52-2.65-4,0-5.52a10.53,10.53,0,0,1,9.56,0C584.5,795.71,584.5,798.19,581.86,799.71Z"/><ellipse class="cls-5" cx="646.47" cy="812.58" rx="78" ry="44.51" transform="translate(-15.13 12.27) rotate(-1.08)"/><ellipse class="cls-6" cx="646.47" cy="812.58" rx="27.07" ry="15.63"/><path class="cls-7" d="M651.25,815.34a10.53,10.53,0,0,1-9.56,0c-2.65-1.52-2.65-4,0-5.52a10.53,10.53,0,0,1,9.56,0C653.89,811.34,653.89,813.82,651.25,815.34Z"/><ellipse class="cls-8" cx="562.54" cy="416.27" rx="264.02" ry="452.41" transform="translate(-131.08 323.41) rotate(-28.88)"/><path class="cls-9" d="M344.79,553.83c-.7-.55.65-1.1-.12-1.53a1.84,1.84,0,0,1-1.14-1.61,3.47,3.47,0,0,0,1.84.6c.28,0,.58,0,.85.05a8.15,8.15,0,0,1,1.39.51c.48.17,1.23.18,1.44-.12a9.14,9.14,0,0,0-2.85-1,5.9,5.9,0,0,1-1.27-.32c-.4-.19-.61-.48-1-.68a10.86,10.86,0,0,0-1.64-.49,6,6,0,0,1-1.19-.58l-1.81-1c-.3-.17-.61-.47-.3-.64a1.19,1.19,0,0,1,.52-.08,7.07,7.07,0,0,1,3.7,1.46,23.76,23.76,0,0,0,5.92,2.6,19,19,0,0,1,2.13.7c.64.29,1.18.69,1.29,1.16l-1.39-.09a1.11,1.11,0,0,0-.26,0c-.33.07-.16.35,0,.52a1.8,1.8,0,0,1,.65,1.47.47.47,0,0,0,0,.35.91.91,0,0,0,.38.26c.51.24,1,.47,1.58.69a2.18,2.18,0,0,0,.69.17c.2,0,.38,0,.58,0a5.54,5.54,0,0,1,1.44.42c.4.1.87.1,1.29.16a2.2,2.2,0,0,1,1.66.95c0,.09-.23.1-.38.07a.67.67,0,0,0-.44,0c-.11,0-.1.14-.07.21a1.31,1.31,0,0,0,.58.62,4.6,4.6,0,0,1,.59.35c.16.14.21.34,0,.46a1.13,1.13,0,0,1-.87,0c-.27-.09-.5-.23-.79-.3S357,559,356.6,559a3.68,3.68,0,0,1-1.36-.52c-1-.6-2-1.22-2.94-1.88a6.39,6.39,0,0,0-2.1-1.14c-.81-.23-1.75-.25-2.61-.41A7.69,7.69,0,0,1,344.79,553.83Zm12.54.59c-.64-.1-.83.19-.59.5l.42.55a1.61,1.61,0,0,0,.91.66c.15,0,.32.06.48.09.86.17,1.34.77,2.23.85a6.15,6.15,0,0,0,.86,0,5.16,5.16,0,0,1,1.64.2c.34.09.65.22,1,.29a1.68,1.68,0,0,0,1.05-.08c.1-.05.18-.13.17-.21s-.18-.18-.32-.25l-1.47-.66a2.75,2.75,0,0,0-.63-.23,8.3,8.3,0,0,0-1.24-.1,4.51,4.51,0,0,1-1.37-.32c-.49-.22-.86-.52-1.33-.75A6.49,6.49,0,0,0,357.33,554.42Zm-4,6.35a1.86,1.86,0,0,0-1-.2,1.43,1.43,0,0,0-.93.47c-.21.29,0,.55.19.82a1.1,1.1,0,0,1,.14.84c-.05.22-.17.46,0,.66a1.08,1.08,0,0,0,.37.27,6,6,0,0,0,2.05.71c.52.08,1.08.06,1.59.17a6.7,6.7,0,0,1,1.3.48,8.25,8.25,0,0,0,1.3.42,2.57,2.57,0,0,0,.4.07,1.13,1.13,0,0,0,.94-.46.63.63,0,0,1,.53-.35l.19,0,1.5.29a.9.9,0,0,0,.24,0,.63.63,0,0,0,.19,0,.77.77,0,0,0,.57-1.07.5.5,0,0,0-.36-.34,1.44,1.44,0,0,0-.65,0l-1.28.28c-.3.06-.72.11-.89,0a.24.24,0,0,1,0-.28l.18-.69c-.13-.05-.27,0-.41.08a1,1,0,0,1-.68-.13,3.41,3.41,0,0,1-1.11-.8,1.34,1.34,0,0,0-.27-.26,2.41,2.41,0,0,0-.43-.17l-.56-.17a.49.49,0,0,0-.21,0c-.18,0-.16.17-.12.27a.5.5,0,0,1-.06.51.93.93,0,0,1-.65.33,1.64,1.64,0,0,1-1.27-.45.83.83,0,0,1-.27-.52C353.85,561.16,353.82,561,353.32,560.77Zm11.33.85a1.17,1.17,0,0,1,0-.49c-.05-.45-.61-.87-1.35-1a2,2,0,0,0-1.12.07.5.5,0,0,0-.3.66,2,2,0,0,0,.6.62l1.06.85a2.28,2.28,0,0,1,.45.42,3.09,3.09,0,0,1,.25.7c.3.75,1.55,1.33,2.87,1.33.29,0,.57,0,.86,0,.76,0,1.42.33,2.18.42a1.51,1.51,0,0,0,.3,0,.51.51,0,0,0,.39-.26c.11-.27-.11-.54-.34-.78a4.61,4.61,0,0,0-.83-.74,6.77,6.77,0,0,0-.7-.41l-.77-.4a2.79,2.79,0,0,0-1.7-.44C365.76,562.18,364.86,562.06,364.65,561.62Zm7.13.53a4.86,4.86,0,0,1,.67,0,1.53,1.53,0,0,1,.32.13,2.06,2.06,0,0,1,.81.68.31.31,0,0,1,.06.2.52.52,0,0,1-.14.2.56.56,0,0,0,.11.79,1.92,1.92,0,0,0,1.21.36,3.87,3.87,0,0,0,.84-.12,1.74,1.74,0,0,0,1-.41c.21-.26,0-.58-.36-.81a3.23,3.23,0,0,1-.92-.7,2.72,2.72,0,0,1-.23-.62,1.72,1.72,0,0,0-1.16-.77,2.35,2.35,0,0,0-.6-.08c-.23,0-.45.06-.68.07a3.41,3.41,0,0,1-1.61-.36,1.09,1.09,0,0,0-.82-.11c-.23.1-.16.3-.07.46A1.66,1.66,0,0,0,371.78,562.15Zm-9,5.42c.36,0,.73,0,1.08,0,1.25.13,1.85,1,3,1.28.38.08.81.1,1.2.17.79.14,1.41.49,2.17.66.3.07.72.09.84-.08-.83-.72-2.56-1-3.15-1.8-.29-.39-.28-.88-.81-1.18a3,3,0,0,0-1.66-.2c-.23,0-.46.08-.7.09-.94,0-1.63-.54-2.56-.64-.66-.07-1.93.25-1.74.73S361.92,567.54,362.78,567.57Zm7.33-.08h.39c.22,0,.42,0,.63.07a2,2,0,0,0,.74,0c.22-.06.41-.18.44-.32s-.26-.41-.5-.58-.32-.28-.51-.41a1.51,1.51,0,0,0-.74-.24h-.35c-.55,0-.94-.39-1.47-.37s-.54.3-.31.48.64.38.72.72S369.45,567.45,370.11,567.49Zm-27.43,6.32c-.09.36.27.72.18,1.08s-.45.56-.12.79.88.12,1.35.15c.75,0,1.34.44,2.09.47.31,0,.62,0,.92,0a2.32,2.32,0,0,1,1.66.68,2,2,0,0,1,.42,1.21.65.65,0,0,0,.2.51,1.8,1.8,0,0,0,.52.25l.87.31a1.93,1.93,0,0,0,.55.14,1.1,1.1,0,0,0,.92-.35,1,1,0,0,0,.17-.66,2.9,2.9,0,0,0-.31-1.7c-.13-.2-.3-.38-.41-.58-.36-.62-.26-1.38-1.13-1.79a4.66,4.66,0,0,0-2.32-.2,9.24,9.24,0,0,1-2.4.1C345.15,574.07,342.89,573,342.68,573.81Zm1.42,4.12a4,4,0,0,1,.69,0c.23,0,.39.16.61.21a1.7,1.7,0,0,0,.39,0,2.06,2.06,0,0,0,.75-.21s.09-.06.09-.09,0-.06-.05-.09a3,3,0,0,0-1.95-.75h-.54a3,3,0,0,1-.61-.09c-.49-.15-1.81-.42-1.28.2A3.09,3.09,0,0,0,344.1,577.93Zm24.83,3.75a3.27,3.27,0,0,0,1.38.27,2.28,2.28,0,0,1,.37,0,1,1,0,0,1,.28.11,4.06,4.06,0,0,0,1.19.39,2.22,2.22,0,0,0,1.3-.15.32.32,0,0,0,.12-.11c0-.07-.05-.14-.12-.19a8.34,8.34,0,0,0-.88-.57,1.71,1.71,0,0,0-.6-.24,5,5,0,0,0-.94,0,3.31,3.31,0,0,1-1.35-.25c-.39-.16-.74-.35-1.13-.52a1.08,1.08,0,0,0-.41-.1.77.77,0,0,0-.27.08C367.17,580.84,368.43,581.47,368.93,581.68ZM336.47,606.3c-.83.19-.23.74.16,1l2.71,1.65a1.93,1.93,0,0,1,.61.49c.28.47-.26,1.05.26,1.44a2.44,2.44,0,0,0,1.27.29,4.64,4.64,0,0,1,1.37.17c.41.14.63.49.3.69a3.05,3.05,0,0,1-.32.13c-.4.18-.51.53-.25.77a1.52,1.52,0,0,0,1.31.22,4.4,4.4,0,0,0,.5-.21,4.45,4.45,0,0,1,2.08-.29,1.38,1.38,0,0,0,.35,0,.42.42,0,0,0,.35-.22c.08-.17-.07-.36-.34-.44a4.85,4.85,0,0,0-.87-.08c-.29,0-.61-.17-.52-.34a2.1,2.1,0,0,1,1.26,0c.43.06,1.05,0,1.08-.25,0-.08,0-.15,0-.22s.4-.28.71-.28.63.08.94.07.66-.17.58-.34-.44-.26-.41-.42.09-.11.09-.18,0-.09-.09-.14a2.64,2.64,0,0,0-1.37-.54c-.43-.06-1-.1-1.1-.35s.72-.46.87-.76-.13-.43-.08-.64.76-.5,1.34-.47,1.14.17,1.72.17c.35,0,.76-.09.82-.29s-.44-.43-.86-.5c-1.17-.21-2.37-.37-3.58-.47a6.83,6.83,0,0,0-1.69,0c-.38.05-.72.17-1.09.25a7.26,7.26,0,0,1-3.18,0,1.76,1.76,0,0,0-.4-.06,1.56,1.56,0,0,0-.75.29,3.32,3.32,0,0,1-1.8.23A7.3,7.3,0,0,0,336.47,606.3Zm41.21-34.55a13.92,13.92,0,0,1,2.1,1.12l4.25,2.64a9.52,9.52,0,0,0,5.55,1.83c.51,0,1-.12,1.52-.11a7.47,7.47,0,0,1,1.43.21,82.08,82.08,0,0,1,9.48,2.41,8.87,8.87,0,0,0,2.41.6c.88,0,1.89-.24,2-.74,3.22,1,4.53,3.46,7.8,4.42a28.39,28.39,0,0,0,3.56.65,24.22,24.22,0,0,1,10.82,4.28,4.12,4.12,0,0,0,1.3.78,2.14,2.14,0,0,0,1.72-.13L428,587.37c-1-.66-2.06-1.32-3-2-.63-.5-1.21-1-1.88-1.51a26.4,26.4,0,0,0-3.36-1.94l-5.13-2.65a28.34,28.34,0,0,0-4.35-1.94,35.82,35.82,0,0,1-3.91-1.27c-1-.48-1.75-1.12-2.68-1.66-2.15-1.24-5.44-2-6.37-3.68-.42,0-.72.27-.71.51s.24.46.47.66l2.49,2.27c.29.26.58.62.23.86s-1.23.07-1.77-.15-1.44-.35-1.71,0a.87.87,0,0,1-.69-1.25c.2-.47.55-1,.24-1.41s-.9-.58-1.3-.89c-.67-.54-.59-1.3-1.25-1.85-.93-.77-2.89-.81-4.2-1.37-.88-.37-1.42-1-2.3-1.35s-2.44-.38-2.81.21c-.2.33,0,.76-.43,1a1.91,1.91,0,0,1-2-.63l-1.42-1.61a2,2,0,0,0-1.93-.72c-.82.26-.54,1.18-1.45,1.31s-1.37-.62-2.23-.65-1.16.52-1,.92.75.71,1.21,1,.88.74.67,1.14c-.9.16-2-.49-2.83-.18-.6.22-.2.69.06,1C373.86,570.66,375.9,571,377.68,571.75ZM427.12,589c-.83-.41-3-1.9-4.09-1.67-.45.09-.67.58-1.12.73a3.74,3.74,0,0,1-1.91,0,8.26,8.26,0,0,1-3.06-1.57,30,30,0,0,0-10-4.31c.15.91-2.11,1.41-2.26,2.31a1.14,1.14,0,0,0,.41.88c1.13,1.22,3.15,2.08,5.06,2.93s3.85,1.78,4.74,3.07.29,3-1.88,3.62c-1.11.31-2.44.28-3.48.65s-1.33,1.49-.14,1.66a5.7,5.7,0,0,0,1,0c2.29-.09,3.93,1.78,2.43,2.79q-2.92-1.35-5.91-2.65a2.68,2.68,0,0,0-1-.28c-1-.06-1.53.76-1,1.26a5.13,5.13,0,0,0,2.45.89,5,5,0,0,1,2.44.92,3.14,3.14,0,0,1-2.62.27,17.39,17.39,0,0,1-2.31-1,8.81,8.81,0,0,0-9.91,1.69l-1.92,1.7a20.12,20.12,0,0,0-3.55,3.69c-.24.37-.44.78-.22,1.15.3.53,1.29.79,2.1,1.09s1.55.9,1.06,1.38c-.22.22-.66.35-.9.57-.48.44.09,1.06.91,1.28a8.48,8.48,0,0,0,2.67.07l5.72-.48c1.62-.13,3.23-.26,4.83-.46a32,32,0,0,1,3.4-.31c6.19-.05,10.24,4.17,16.37,4.7a33.06,33.06,0,0,1,4.73.38,12.81,12.81,0,0,1,2.39.95A87.58,87.58,0,0,0,444,621a3.2,3.2,0,0,0,1.24.2c.76-.08,1.08-.66.8-1.07a3.57,3.57,0,0,0-1.57-1,6.3,6.3,0,0,1,2-.51c.74,0,1.58.27,1.61.7s-.3.54-.49.8c-.65.9.5,2.06,2.16,2.2s3.34-.78,3.17-1.75c-.1-.56-.69-1-1-1.57a1,1,0,0,1,.59-1.51c1.58.43,2.06,1.55,2.93,2.42s3.19,1.52,4.2.7c.42.76,2,1.22,3.31,1a1.51,1.51,0,0,1-.82-1.33,6.89,6.89,0,0,0,2.1.34c.73,0,1.48-.37,1.43-.79s-.55-.58-.86-.87-.31-.77.26-.85a8.37,8.37,0,0,0,5.07,1.28l-2.74-1.74a3.94,3.94,0,0,1,2.26,0,115.44,115.44,0,0,1,12.44,3.23,5,5,0,0,0,2.87.29,76.5,76.5,0,0,1-11.81-6.67l2.27-.13a161.25,161.25,0,0,0-20-11.87,31.54,31.54,0,0,0-3-1.37c-.58-.22-1.19-.42-1.76-.64-.73-.29-1.41-.62-2.08-1l-8.41-4.12-5-2.45L432,591.4Zm11.45,36.61c-.82.68-2.24-.4-2.88-.71a1.52,1.52,0,0,0-.48-.17.6.6,0,0,0-.49.1c-.07.08,0,.17,0,.26a2.27,2.27,0,0,0,1,.8c.28.13.64.33.43.5s-.57.06-.89.07-.71.19-.77.4c1.42.51,2.36,1.45,2.44,2.42a.48.48,0,0,0,.06.28.87.87,0,0,0,.32.27,8.22,8.22,0,0,0,1.53.82,4.66,4.66,0,0,0,2,.3,4.31,4.31,0,0,1,.8-.06l.39.06c.93.21,1.85.44,2.75.69a18.7,18.7,0,0,0,4.59.93,1.76,1.76,0,0,0,.74-.09c.43-.2.17-.61.29-.92s.57-.53.57-.83-.55-.54-.92-.78-.79-.81-1.43-1.06a19.52,19.52,0,0,0-2.66-.4,3.54,3.54,0,0,1-1.67-.92,16.56,16.56,0,0,0-1.2-1.16.45.45,0,0,0-.33-.13.46.46,0,0,0-.24.08,2.1,2.1,0,0,1-1.19.43,1.63,1.63,0,0,1-.8-.29c-.24-.15-.5-.35-.36-.54a1.29,1.29,0,0,1,.31-.21c.48-.27.61-.73.32-1.08a.92.92,0,0,0-.78-.3c-.15,0-.29.06-.43.08a2.22,2.22,0,0,1-.89-.09l-2.18-.59c-.3-.09-.75-.15-.9,0a.22.22,0,0,0,0,.22.58.58,0,0,0,.23.37.77.77,0,0,0,.6.1,1.45,1.45,0,0,0,.25-.11C437.62,624,439.21,625.1,438.57,625.63Zm-210-21a2.35,2.35,0,0,1,1.8,1.44c.08.14.16.31,0,.45s-.64.3-.7.52.12.27.27.37a10.17,10.17,0,0,0,1.63.92c.56.25,1.21.51,1.3.91s-.39.74-.48,1.13.4.92,1,1.28a2,2,0,0,1,.69.57c.13.22,0,.51-.36.6-.64.15-1.53-.33-1.95,0s.09.5.43.67c1.86.94,3.82,1.82,5.86,2.62a.88.88,0,0,0,.37.09.77.77,0,0,0,.4-.11,3.32,3.32,0,0,0,.85-.57,6.09,6.09,0,0,1-1.87-3c-.27-.72-.53-1.45-.79-2.17a2,2,0,0,0-.51-.87c-.26-.24-.65-.42-.94-.64a2.13,2.13,0,0,1-.77-2,1,1,0,0,0-.09-.53,1.76,1.76,0,0,0-.57-.44,10.26,10.26,0,0,0-2.73-1.27,20.15,20.15,0,0,1-2-.5c-.57-.21-1-.54-1.57-.76-1-.38-5.78-.77-4.41.59a3.85,3.85,0,0,0,2.22.87A28.23,28.23,0,0,1,228.54,604.62Zm.91,10.07a6,6,0,0,0-1.58-.66,1.58,1.58,0,0,0-1.05,0c-.27.17,0,.31,0,.49s-.27.51-.24.77.36.42.71.54a11.16,11.16,0,0,1,1.07.34c.46.2.81.56,1.38.56C231.65,616.69,230,615,229.45,614.69Zm10,3.5a2.58,2.58,0,0,0,0,.83.55.55,0,0,1-.21.49,1.7,1.7,0,0,1-1.09.23,5.56,5.56,0,0,1-1.12-.26,2.19,2.19,0,0,1-.67-.3c-.25-.21-.2-.49-.22-.75a.67.67,0,0,0-.63-.62h-.16a.68.68,0,0,0-.19.08l-.46.25c-.19.11-.4.22-.44.38a.45.45,0,0,0,.1.34,3,3,0,0,0,1.05,1.06,3.88,3.88,0,0,0,1.23.45,4.12,4.12,0,0,1,.65.16,1,1,0,0,1,.5.68.84.84,0,0,0,.62.62,8.31,8.31,0,0,0,1.49,0,2.2,2.2,0,0,1,1.38.66c.25.21.5.42.74.64a2.75,2.75,0,0,0,.57.4c.57.28,1.41.3,2,.57a2.94,2.94,0,0,0,.51.23,1.25,1.25,0,0,0,1.28-.41,1,1,0,0,0-.13-.94c-.12-.27-.25-.53-.37-.8a1.15,1.15,0,0,1-.15-.53c0-.25.2-.5.21-.75s-.37-.74-.86-1-1.07-.45-1.6-.68a7.29,7.29,0,0,1-1.27-.69c-.22-.16-.38-.35-.63-.51C240.87,617.54,239.67,617.43,239.45,618.19Zm9.73,7.78a1.43,1.43,0,0,0-.63-.23c-.27,0-.56,0-.84,0s-.78,0-.61.26c.09.14,0,.29,0,.44a.93.93,0,0,0,.51.87.56.56,0,0,0,.19.09,1.06,1.06,0,0,0,.25,0,7.24,7.24,0,0,1,1.4.28,1.24,1.24,0,0,0,.69,0,.26.26,0,0,0,.13-.39.93.93,0,0,0-.41-.4c-.17-.1-.4-.19-.45-.33S249.49,626.18,249.18,626Zm4,6.12a1.73,1.73,0,0,1-.73.68,1.78,1.78,0,0,0-.54.38.83.83,0,0,0-.1.34c-.12.49-.7.9-1.11,1.34a.87.87,0,0,0-.16.23c0,.1,0,.2-.06.3-.12.36-.79.58-1.05.91a2.19,2.19,0,0,1-.2.25,1.61,1.61,0,0,1-.62.22,16.73,16.73,0,0,1-2.06.31,4.26,4.26,0,0,0-1.35.27.56.56,0,0,0-.21.19c-.08.17.15.36.45.43a3.32,3.32,0,0,0,.95,0,6.27,6.27,0,0,0,1.47-.24,4.62,4.62,0,0,0,.8-.41,11.7,11.7,0,0,1,1.93-.84,3.26,3.26,0,0,0,.5-.2,1.63,1.63,0,0,0,.44-.38,10.4,10.4,0,0,1,2.13-1.74,2,2,0,0,0,.45-.34c.16-.21.13-.45.22-.67s.45-.51.46-.8-.25-.49-.49-.7l-.84-.74C252.52,631.2,253.34,631.64,253.14,632.09Zm-.58,57.68c1.12-.78,2.31-1.77,1.68-2.72-.19-.29-.54-.54-.75-.83a2,2,0,0,1-.3-.8,51,51,0,0,1-1.1-5.13,2.35,2.35,0,0,0-1-2c-.79-.49-2.07-.65-2.83-1.16s-.86-1.54-1.91-2a12.76,12.76,0,0,0-1.36-.41c-.45-.15-.88-.38-.9-.68s.66-.7.73-1.09-.52-.76-.68-1.16.23-1-.1-1.41a5.61,5.61,0,0,0-1-.68,5.86,5.86,0,0,1-.79-1,1.82,1.82,0,0,0-1.36-.61c-.82,0-1.69.51-2.31.2-.42-.21-.18-.64.27-.84s1-.26,1.53-.44.85-.54.54-.82c-.13-.12-.37-.19-.51-.31-.31-.25-.09-.6-.2-.91s-1-.8-.64-1.19c.52-.63,2.76.08,3.22-.57.17-.23-.07-.49-.2-.74-.43-.78.3-1.62,1.13-2.29.45-.37,1-.78.83-1.22-.06-.21-.27-.4-.36-.6-.22-.54.38-1.06.5-1.6.22-1-.78-1.87-.88-2.87-.06-.61-1-1-1.86-1.39a11.79,11.79,0,0,1-2.67-1.42c-.71-.58-1.13-1.3-.88-2s1-1.19.89-1.82c-.07-.36-.42-.68-.5-1-.15-.61.47-1.23.21-1.82s-.92-.81-1.41-1.21c-.08-.07-.16-.14-.14-.22s.16-.14.28-.19c.56-.22,1.2-.53,1.07-.92-.07-.21-.37-.41-.23-.61s.71-.21,1.08-.11a3.47,3.47,0,0,0,1.12.27,1.58,1.58,0,0,0,1-.4c.18-.15.34-.34.22-.52s-.78-.27-1.21-.18a7.6,7.6,0,0,1-1.27.31,2.59,2.59,0,0,1-1.87-.75c0-.14.4-.16.65-.12s.57.07.71,0-.09-.3-.31-.4l-1.66-.76c.59-.23.51-.83-.13-1-.3-.08-.63,0-.77-.21a1.39,1.39,0,0,0-1.17-.33c-.32.05-.58.17-.89.22a1.71,1.71,0,0,1-1.81-.94c-.18-.51-.11-1.08-.63-1.51a1.07,1.07,0,0,0-.45-.24,3.13,3.13,0,0,0-.82-.09,5.44,5.44,0,0,1-1.8-.29c-.51-.21-.85-.6-.67-1s1.29-.71,1.42-1.19-.35-.68-.71-1-.66-.7-.3-1,.68-.34.54-.55-.25-.15-.42-.18c-1.3-.22-2.62.39-4,.33a10.48,10.48,0,0,0-1.25-.07,3.16,3.16,0,0,0-1.76.9,2.56,2.56,0,0,1-2,.59c-.67-.15-.83-.76-.27-1,.8-.37,2.35,0,2.81-.52.21-.25,0-.56.16-.82s1-.49,1.62-.5a7.18,7.18,0,0,0,1.93-.13c.57-.18.8-.74.21-.91a1.65,1.65,0,0,0-.7,0,10.79,10.79,0,0,1-1.61.25,9.35,9.35,0,0,1-2-.54,12.71,12.71,0,0,0-1.67-.2,7.76,7.76,0,0,1-2.11-.51,4.31,4.31,0,0,0-2.24-.55,7.15,7.15,0,0,0-1,.29,5.47,5.47,0,0,1-.93.18c-1.27.18-2.55.34-3.84.46a7.77,7.77,0,0,1-1.67,0,1.74,1.74,0,0,1-1.26-.57c-.21-.37.13-.76.22-1.15a1.17,1.17,0,0,0-1.64-1.08,1,1,0,0,0-.6.63,1.54,1.54,0,0,1-.34.72c-.43.4-1.41.54-1.78,1s.28,1.23-.1,1.8a1.62,1.62,0,0,1-.58.46c-1,.57-2.48.87-3.39,1.5-.65.46-1,1.07-1.72,1.48a5.63,5.63,0,0,1-3.49.4,7.24,7.24,0,0,0-.95-.16c-1.49-.11-2.2.81-3.75.65a7.81,7.81,0,0,0-2.45-.09c-.89.21-1.34.83-2.24,1a11.76,11.76,0,0,1-2.43-.09,5.9,5.9,0,0,0-4.2,1.69c-.19.18-.38.38-.36.59s.3.44.35.67c.11.53-.92.91-1.84,1s-1.85-.11-2.74,0a6,6,0,0,0-2.46,1c-.67.43-1.37.9-1.47,1.48a2.51,2.51,0,0,0,.11.81c.5,2.33-1.9,4.49-2.73,6.78a13,13,0,0,1-1,2.76c-.5.78-1.86,1.38-1.78,2.21a2.75,2.75,0,0,1-.71,2,11.74,11.74,0,0,0-.82,1c-.61,1,0,2.08.42,3.11.82,2.07.73,4.24,1.6,6.3a3.16,3.16,0,0,1,.48,2.27c-.33.89-1.59,1.54-2.85,2.08a3.36,3.36,0,0,0-1.47.9,1.89,1.89,0,0,0-.19.55,3,3,0,0,1-1.45,1.6,27.13,27.13,0,0,1-3,1.23,4.09,4.09,0,0,0-2.22,2.12,1.5,1.5,0,0,1-1,.72c-.63.12-1.33-.1-2,0a1.43,1.43,0,0,0-1.1.86,2.08,2.08,0,0,1-.65,1,5.53,5.53,0,0,1-1.15.49,5.44,5.44,0,0,0-2.15,1.35,6.72,6.72,0,0,1-1.09,1.19,9,9,0,0,1-1.77.8,8.56,8.56,0,0,0-4.22,3.21,3.2,3.2,0,0,1-.73,1c-.43.35-1.12.58-1.58.93s-.66.79-1.15,1.12c-1,.7-3.46.58-3.86,1.47-.27.6-1.4,1-2.48,1a5.76,5.76,0,0,0-2,.14,1.26,1.26,0,0,0-.68.64,2.58,2.58,0,0,0-.27,1.91,1.08,1.08,0,0,1,0,.75,1.89,1.89,0,0,1-.76.63,8.53,8.53,0,0,1-1.85.86c-.44.14-.92.22-1.34.37s-.79.39-.79.68.13.35.18.53c.16.57-.61,1.08-1.32,1.49s-1.49.91-1.33,1.49c.08.27.37.51.48.78s0,.62-.48.69a1.8,1.8,0,0,1-1-.22,1.11,1.11,0,0,0-.86.85,1.85,1.85,0,0,1-.38,1,3.25,3.25,0,0,1-2.18.58,3.92,3.92,0,0,0-1.78.16.51.51,0,0,0-.15.85,2.86,2.86,0,0,0,1,.69c.59,0,1.13.3,1.14.64s-.51.66-1.1.66a16.47,16.47,0,0,0-2-.24,1.73,1.73,0,0,0-.64.22c-1.07.59-1.12,1.55-1.59,2.37-.6,1-2,2-1.48,3.1a9.06,9.06,0,0,1,.56.92c.2.62-.45,1.22-.59,1.85s.39,1.47.28,2.21c-.09.58-.58,1.14-.45,1.71s1,1.12,1.74,1.57l2.23,1.27-.84.51,1.47,2.24a3.58,3.58,0,0,0,.72.86,7.66,7.66,0,0,0,2.8,1.09l4.14,1.06c-.22-1.09-2.15-1.86-2.33-2.94,0-.29,0-.59,0-.89-.11-.76-1.08-1.5-.72-2.24.16-.35.61-.64.81-1,.32-.54,0-1.12-.13-1.69a1.2,1.2,0,0,1,.86-1.53,19.26,19.26,0,0,1,2.35-.24,4.67,4.67,0,0,0,1.19-.45,10.08,10.08,0,0,1,4.13-1.22A3.94,3.94,0,0,0,127,715c.55-.26.39-.78,0-1.11a10.5,10.5,0,0,1-1.33-.95,1.45,1.45,0,0,1-.17-1.47,1.83,1.83,0,0,1,1.45-1.42c1-.21,2.08.25,3.15.36.59.06,1.38-.08,1.4-.43s-.32-.42-.26-.65,1.1-.32,1.74-.43c.39-.07.72-.24,1.11-.3a5.61,5.61,0,0,1,1.77.21,2.14,2.14,0,0,0,1.66-.19c.27-.26.16-.41-.06-.68s-1-.62-1.34-1-.06-1,.66-.94a1.79,1.79,0,0,1,.63.19l2.14,1a4.52,4.52,0,0,0,1.91.53c1.65,0,2.3-1.37,3.87-1.66a4.62,4.62,0,0,1,2.49.35c.71.31,1.28.71,2,1a10.92,10.92,0,0,0,5.34.9,3.26,3.26,0,0,0,.77-.12,1.87,1.87,0,0,0,.71-.39,3.27,3.27,0,0,0,1.12-1.9,2.69,2.69,0,0,1,1.17-2.1,3.49,3.49,0,0,1-1.25-1.09c-.21-.42,0-.95.68-1.15,1.45,1.05,1.09,2.72,2.75,3.66s4.27.67,6.38.22,4.34-1.07,6.51-.73a7.18,7.18,0,0,0,1.73.2c1.08-.1,1.66-.83,2.69-1a10.45,10.45,0,0,1,1.95-.07,12.7,12.7,0,0,0,2.32-.31l3.78-.73a4.69,4.69,0,0,0,1.28-.37c.66-.38.52-1.11.88-1.59a3.86,3.86,0,0,1,2.13-1.34,18.68,18.68,0,0,1,6.6-.12,21,21,0,0,1,6.29,1.29,21.88,21.88,0,0,0,2.71,1.3,11,11,0,0,0,5.16-.06c1.65-.36,3.22-.88,5-1.09a14.54,14.54,0,0,0,2.79-.4c1.89-.6,2.31-2.27,4.35-2.68.58-.12,1.22-.11,1.81-.21,3.08-.5,3.35-3.32,6.35-4,1.42-.3,3.08,0,4.49-.33.57-.14,1.06-.37,1.61-.53a14.28,14.28,0,0,1,3-.41l5.08-.31a17.89,17.89,0,0,0,2.79-.33A11.17,11.17,0,0,0,252.56,689.77ZM161.12,620.9c-.1.11-.15.23-.26.34-.29.28-.92.38-1.33.61a.31.31,0,0,0-.12.1.13.13,0,0,0,0,.12,2.14,2.14,0,0,0,1.48.89,2.69,2.69,0,0,0,1,0c.32-.07.59-.25.6-.45a.84.84,0,0,0-.12-.32c-.26-.54.35-.94.31-1.45C162.67,620.09,161.43,620.55,161.12,620.9ZM129.94,727.73a8.54,8.54,0,0,0,1.12-.13c.37,0,.86.11.79.32s-.1.14-.15.21c-.17.25.15.51.45.72a1.37,1.37,0,0,0,.34.19,2.29,2.29,0,0,0,1.22,0,5.9,5.9,0,0,1,1.2-.2c.33,0,.77,0,.89-.14a.18.18,0,0,0,0-.2,1.72,1.72,0,0,0-.9-.77,12.91,12.91,0,0,1-1.76-.66,3.66,3.66,0,0,1-.59-.59,1.33,1.33,0,0,0-.87-.42c-.46,0-.91.14-1.38.12-.16,0-.32,0-.49,0C128.21,726.15,128.62,727.66,129.94,727.73ZM247,606.5c-.06.09-.12.18-.17.27a1.08,1.08,0,0,0-.21.45.43.43,0,0,0,.27.41,1.65,1.65,0,0,0,1.23-.06c.52-.21.88-.53,1.43-.71a1.9,1.9,0,0,0,.44-.15.41.41,0,0,0,.22-.44,1.24,1.24,0,0,0-.68-.77,1.88,1.88,0,0,0-.63-.23c-.25,0-.52,0-.77,0a2.43,2.43,0,0,1-.89-.23,1.46,1.46,0,0,0-.61-.25,1.2,1.2,0,0,0-.38,0c-.65.17-1.1.67-.62,1S247.29,606,247,606.5Zm-4.06.61c-.12,0-.22.12-.34.18-.45.22-1.21.19-1.56.46s.08.86-.22,1.25a.33.33,0,0,0-.1.14c-.05.13.13.27.36.31,1.1.19,1.89-.85,2.36-1.27.24-.21,1-.58.91-.82S243.29,607,242.91,607.11ZM448.35,758.69a1.81,1.81,0,0,0,.35-.93.3.3,0,0,0-.08-.31.68.68,0,0,0-.31-.14,7,7,0,0,0-1.41-.29c-.57-.07-1.16-.07-1.7-.19-1.42-.29-2.16-1.2-3.41-1.69s-2.94-.52-4.31-.92a9.29,9.29,0,0,1-1.63-.69,4.32,4.32,0,0,1-1.24-.86,1.91,1.91,0,0,1,.13-2.44A.86.86,0,0,1,435,750a2.47,2.47,0,0,1,.66-.15,1.85,1.85,0,0,0,.91-.44c1-1.06,0-2.34.28-3.54a3.13,3.13,0,0,0-.22-2.67c-.37-.52-1.05-1-1-1.58s.65-.91,1.13-1.33c2.75-2.4,1.91-5.75,4.76-8.11a10.54,10.54,0,0,0,1.62-1.37,4.31,4.31,0,0,0,.66-1.76,13.27,13.27,0,0,1,1.49-3.18l2.49-4.3a19.72,19.72,0,0,1,4.42-5.74,9.29,9.29,0,0,0,1.88-1.73,1.27,1.27,0,0,0-.42-1.92c-1.26-.77-3.52-.42-5.18-.86a5.44,5.44,0,0,1-2.89-2l-6.36-7.58a3.76,3.76,0,0,0-2.9-1.57c-1.71,0-2.58,1.2-4.05,1.71-2.08.72-5.19-.51-4.77-1.89.11-.37.42-.73.37-1.11-.12-.83-1.89-1.27-2.36-2.06-.35-.61.12-1.26.23-1.89.25-1.48-1.45-2.75-3.35-3.83l-1.62-2.7c-.09-.15-.18-.32-.08-.46.19-.3.92-.3,1.41-.17a4.56,4.56,0,0,0,1.51.3c1.54-.11.82-1.72,2.1-2.22.51-.21,1.23-.17,1.73-.38.87-.34.58-1.17-.2-1.57a14.43,14.43,0,0,0-2.83-.79c-1-.26-1.91-.74-1.83-1.35a3.1,3.1,0,0,0,.11-.51c0-.8-2-.86-3.39-1.09-2.34-.41-3.39-2-5.19-2.9-3.1-1.64-8.06-1.37-11.6-2.68a12.07,12.07,0,0,1-5.44-4.34.8.8,0,0,0-.4-.3,1.74,1.74,0,0,0-.95.11c-2.73.81-6,.4-9.05.17s-6.65-.13-8.49,1.29c-.73.57-1.31,1.39-2.54,1.44a5.67,5.67,0,0,1-1.31-.18,44.54,44.54,0,0,0-9.6-1.05,23.49,23.49,0,0,0-6.9.84,14.92,14.92,0,0,1-1.86.55c-2,.36-4.58-.28-6,.6-.28.17-.48.39-.79.55a6.91,6.91,0,0,1-2.65.34c-.93,0-2,.23-2.23.75s.47.94.22,1.4c-.46.83-3.39.78-3.14,1.64.34,1.22-1.74,2.07-3.61,2.66a46.44,46.44,0,0,1-4.61.89c-1.54.3-3.1.82-3.71,1.69a3.07,3.07,0,0,1-.44.62c-.57.52-1.86.61-2.56,1.08-.85.57-.49,1.43-.26,2.18.72,2.29-.28,4.74-2.68,6.61-.83.65-1.87,1.29-1.93,2.09s.66,1.36,1.23,2a6.38,6.38,0,0,1,1.74,3.57c.18,1.52-.1,3.34,2,4.24,1.77.75,4.42.45,6.17,1.22,1.22.53,1.68,1.45,2.5,2.2,1.95,1.78,5.77,2.49,9.29,3a20.51,20.51,0,0,1,5,1.24c1.43.66,2.38,1.79,1.8,2.79-.23.41-.7.77-.84,1.19-.24.75.6,1.48,1.59,2a30.43,30.43,0,0,1,3,1.44c3,2,.46,4.92-3.36,5.68a20.1,20.1,0,0,0-5,1.28c-2.47,1.27-2.33,3.46-2.53,5.36-.48,4.63-4.24,9.11-10.22,12.19a10,10,0,0,1-2.89,1.07c-.86.16-1.78.18-2.67.28a23.7,23.7,0,0,0-5.83,1.6l-4.31,1.61a9.52,9.52,0,0,0-3.35,1.74,4.54,4.54,0,0,0-.94,1.75,22.77,22.77,0,0,1-8.4,10c-1.8,1.27-3.88,2.48-4.78,4-1.27,2.19-1.44,4.47-3.7,6.38-.56.47-1.2.94-1.33,1.51-.07.28,0,.58-.2.84a4.58,4.58,0,0,1-1.15.75,1.71,1.71,0,0,0-.39,2.52c1.36,2.26,4.87,3.82,8.19,5.25a26.06,26.06,0,0,0,5.71,1.91,33.05,33.05,0,0,0,3.63.36l3.92.25a59,59,0,0,0,6.91.16,33.21,33.21,0,0,0,10.81-2.55,12.7,12.7,0,0,1,4.19-1.23c1.79-.1,3.52.5,5.32.46a9.7,9.7,0,0,0,6.1-2.71,11.94,11.94,0,0,1,3-2c3.22-1.37,7.72-.88,11.59-.26s8.23,1.26,11.69.09a14,14,0,0,0,3.91-2.27l4.31-3.25a1.91,1.91,0,0,0,.72-.76,1.84,1.84,0,0,0-.12-.86c-.18-.94.74-1.92,2.21-2.34a4.26,4.26,0,0,0,2.22-1.15,13.23,13.23,0,0,1,2-1.88,15,15,0,0,1,5.17-1.53l10.34-1.84c.43-.07.86-.15,1.31-.18a13.62,13.62,0,0,1,1.69,0c2.38.15,4.77.27,7.15.4,7,.36,14.44.68,20.63-1.23,1.5-.47,2.89-1,4.46-1.44,1.31-.33,2.73-.51,4.05-.83A6,6,0,0,0,448.35,758.69Zm-57.81,26.68a6.61,6.61,0,0,0-1.43.44,6.29,6.29,0,0,1-2.81.22,9.84,9.84,0,0,0-2.68-.33,9.27,9.27,0,0,1-.92.14,6.24,6.24,0,0,1-2.29-.66,8.15,8.15,0,0,0-2.18-.22,6.28,6.28,0,0,0-3.24.53c-.38.25-.57.59-1.05.77-.28.1-.63.13-.93.21-1.7.44-1.53,2.18-3.33,2.46-.61.09-1.27,0-1.9,0-1.34.09-2.19.87-3.38,1.23-.41.12-.87.19-1.29.3a5.1,5.1,0,0,0-2.47,1.3c-.47.5-.7,1.08-1.37,1.5-.38.24-.89.41-1.11.71s-.1.64,0,.95.35.88.53,1.32a.87.87,0,0,0,.28.42,2.18,2.18,0,0,0,.91.32,13.37,13.37,0,0,0,6.82-.49c.79-.29,1.49-.67,2.28-1,2.38-.9,5.39-1,7.94-1.79s4.39-1.89,7-2.31a16.54,16.54,0,0,0,1.91-.33c1-.29,1.77-.92,2.88-.9.34,0,.66.07,1,.08a2.93,2.93,0,0,0,2.09-.82c.45-.44.69-1,1.18-1.37.72-.63,3.41-2.12,1.82-3-.77-.43-.82.17-1.57.36S391.44,785.28,390.54,785.37ZM432,650.84a3.25,3.25,0,0,0,1.79-.18c.42-.18.7-.46,1.1-.65a8,8,0,0,1,2.35-.47,4.53,4.53,0,0,0,1.28-.31c.36-.17.59-.46.45-.71a1.3,1.3,0,0,0-.57-.43L436,646.87a3.87,3.87,0,0,0-1.14-.44,1.55,1.55,0,0,0-1.21.24c-.11.13-.17.31-.41.32a.63.63,0,0,1-.39-.13,9.62,9.62,0,0,0-1.57-.8,1.15,1.15,0,0,0-.46-.11c-.36,0-.49.29-.77.41a2.63,2.63,0,0,1-1,.1c-.33,0-.74.06-.84.25s.22.39.44.56a.7.7,0,0,1,.25.81.21.21,0,0,1-.12.14.74.74,0,0,1-.42,0c-.79-.1-4.43-1.13-3.71.18a5.66,5.66,0,0,0,3.92,1.9,8.88,8.88,0,0,1,1.71,0C430.91,650.45,431.36,650.73,432,650.84Zm13.58,6.46c0-.16-.42-.16-.71-.15a1.48,1.48,0,0,1-1.18-.44c1.06-.11,1.91-.7,1.91-1.33,0-.37-.26-.76,0-1.09.14-.16.41-.3.4-.48s-.12-.2-.21-.29a1.05,1.05,0,0,1-.1-1.49,1.76,1.76,0,0,0,.34-.46c.1-.28-.14-.55-.31-.82s-.28-.59,0-.8a2,2,0,0,1,1.35-.13c.46.09.87.26,1.34.32a3,3,0,0,0,2.16-.47l-2.13-1.06c-.35-.18-.75-.42-.62-.68s.45-.31.8-.33a6,6,0,0,1,1,.08,10,10,0,0,0,2.32,0c.52-.06,1-.16,1.55-.2s1.14,0,1.71,0a2.81,2.81,0,0,0,1.52-.4c-1.83-.43-4,.05-5.87-.22a17.86,17.86,0,0,1-2.37-.6,1.7,1.7,0,0,0-.71-.1,3.74,3.74,0,0,0-.48.12,4.36,4.36,0,0,1-2.37-.17c-1.07-.33-1.68.21-2.73.12-.4,0-.79-.14-1.18-.2s-1.54-.11-.87.26a2.26,2.26,0,0,0,.68.17c.74.13,1.29.54,1.33,1A4,4,0,0,0,440,648c-.29.19-.45.55,0,.66a1.72,1.72,0,0,0,.64,0,2.24,2.24,0,0,1,1.2.13c.32.17.36.5,0,.64a1.79,1.79,0,0,1-.89,0,2.45,2.45,0,0,0-.89-.08c-.3,0-.51.28-.29.4s.52,0,.79.07a1,1,0,0,1,.75.43,2.17,2.17,0,0,1,.46,2.12,1.27,1.27,0,0,1-1.1.83,2.56,2.56,0,0,1-1.59-.47l-1.05-.63a1.11,1.11,0,0,0-.43-.17,1.72,1.72,0,0,0-.32,0l-4,.5a2.06,2.06,0,0,0-.76.2c-.27.18-.19.47.05.66a3.72,3.72,0,0,0,.94.44,8.86,8.86,0,0,1,1.94,1c.12.08.23.19.15.28s-.58,0-.81-.12a6.88,6.88,0,0,0-2.4-.6,10.88,10.88,0,0,0-4.06,0c.65.66,2.38.55,3.46,1,.67.28,1.07.77,1.84.94.4.09.86.08,1.25.19a2.05,2.05,0,0,1,.75.39c.61.46,1,1,1.59,1.47a4.75,4.75,0,0,0,2.23,1.12,3.28,3.28,0,0,0,2.64-.47c.19-.2.28-.44.6-.56a5.27,5.27,0,0,1,1.6-.05C445.07,658.24,445.7,657.75,445.54,657.3Zm286,138.86c-1.61.79-3.81-.45-4.81-1.53l-6.49-7c-3.35,2,2.95,5.95-.58,7.83-2.7-1.44-6.15-3-9.68-2.39-1.45.24-3.12.82-4.28.26a2,2,0,0,1-1-1.14,5.45,5.45,0,0,0-3.87-2.76c-2-.42-4.68.23-5,1.45-.33,1.44,2.5,2.5,3,3.93s-1.28,2.55-2.87,3.55l-7.66,4.81c-3.16-2.33-.05-5.69-.4-8.64-.11-.93-.59-1.85-.63-2.78-.12-2.16,2.29-4.28,5.75-5.09a23.7,23.7,0,0,0,4.22-1c1.21-.55,1.7-1.76.45-2.27s-3.24.23-4.93.19c-1.34,0-2.55-.68-2.71-1.45s.76-1.56,2-1.77a7.09,7.09,0,0,0-5.36-1c-1.91.37-3.27,1.52-3.19,2.68a4.5,4.5,0,0,1-4.05-2.27c-.59-1.11-.77-2.35-2-3.27-1.48-1.09-4.06-1.43-5.94-2.29-1.35-.61-2.33-1.49-3.78-2-3.2-1.16-7.92-.1-9.42,1.91s-.06,4.48,2.87,5.86c2.07,1,5.15,1.93,4.68,3.45-.19.59-.75,1.41.22,1.63,1.19-.06,2.16-.76,2-1.44a6.82,6.82,0,0,1,.76,4.18,13.62,13.62,0,0,1-.84,2.85c-1,2.73-2,5.47-3,8.21a2.78,2.78,0,0,1-3-1.18c-.29-.79.22-1.59.67-2.35a22.59,22.59,0,0,0,2.87-7.32.7.7,0,0,0-.08-.63c-.58-.68-2.39-.12-3,.54-2.29,2.45-1.83,6.16-6.29,7.22-1.68.4-3.66.25-5.28.73-1.86.55-3.41,1.92-5.4,1.54-1.45-.27-2-1.35-3.34-1.76a8.41,8.41,0,0,0-4.12.24l-6.75,1.6a2.06,2.06,0,0,0-1,.41.61.61,0,0,0-.07.57c.34,1.71.69,3.42,1,5.13a4.28,4.28,0,0,1-3,1.7c-1.44.17-3.14-.42-3.19-1.27s1-1.3,1.37-2c.94-1.69-2.22-3.6-.81-5.18.43-.48,1.23-.84,1.53-1.35.46-.81-.51-1.66-1.63-2.21a12.3,12.3,0,0,1-3.19-1.73c-.72-.74-.35-1.92,1.09-2.1.45-.92-1.7-1.61-3.36-1.47s-3.22.69-4.88.57c-1.37-.1-3.33-.46-3.7.31-.19.41.4.8,1,1.1l7.47,4a2.5,2.5,0,0,1,1,.79c.41.74-.93,1.49-2.28,1.54a10.33,10.33,0,0,1-3.76-.76,16.43,16.43,0,0,1-8,12.64c-5.29,3.4-14,5.25-21.45,3.74-3-2-7.55-3.2-12.14-3.4a1.76,1.76,0,0,0-.59-2.73c-2.59-1.73-7.9-.52-9.69,1.52s-1.39,4.45-1.83,6.72-2.37,4.81-6.23,5.3c-2.28.28-4.6-.23-6.89-.49s-5.08-.13-6.34,1c-1.46.15-1.93-1.19-1.14-1.91s2.19-1.3,2.27-2.15c0-.59-.57-1.13-.74-1.71-.3-1,.79-2,1.23-3s-.45-2.4-2.22-2.29c-6.23.9-11.09,4.34-11.36,8-.14,1.93.83,3.83.71,5.75s-1.82,4.06-5.07,4.49c-1.17-.93-.86-2.21-.5-3.34l3.18-9.94a6.08,6.08,0,0,1,1.37-2.6,14.57,14.57,0,0,1,2.77-1.87c4.5-2.69,7.69-6.1,9.11-9.75-2.3.56-5.26-.73-5-2.16s3.12-2.36,3.77-3.78-1.14-3.09-.11-4.49c.41-.56,1.24-1,1.56-1.58.83-1.49-2-2.8-4.63-3.19a53,53,0,0,0-10.62-.15l-10.55.54a30.46,30.46,0,0,0-4.09.4,24.71,24.71,0,0,0-3.48,1l-14.61,5.14c-2.61.27-4.12-1.9-3.07-3.3s3.41-2.34,4.88-3.62c2.76-2.38,2.05-5.53,3.08-8.33a11.53,11.53,0,0,1,5.07-5.53c1.08-.66,2.35-1.68,1.26-2.33a10.57,10.57,0,0,0-2.23-.53c-1.49-.41-1.87-1.61-1.23-2.49a8.45,8.45,0,0,1,3.3-2.09c-1.83-1.36-2.49-3.21-1.74-4.87.25-.55.66-1.11.51-1.68a2.74,2.74,0,0,0-1.23-1.29c-2.68-1.79-6.31-3-9.21-4.67s-5.1-4.12-3.79-6.35c-4.46-1.83-7.26-4.94-7.3-8.1,0-1,.23-2-.42-3a4.06,4.06,0,0,0-4.13-1.12c-2,.72-.81,2.48-.44,3.84.48,1.73-1.11,3.58-3.77,4.42a3.13,3.13,0,0,1,3.14,2.14c.3,1,.41,2.16,1.79,2.8,1.84.85,4.51.2,6.55-.47l.69,7.45c.16,1.68-.52,3.95-3.42,4.07-1.59.07-3-.62-4.52-.82-2.69-.34-5.35.84-8.1.69-2.57-.13-4.54-1.39-7-1.8a38.22,38.22,0,0,0-6-.11c-6.94,0-12.86-2.75-18.16-5.34.46-1.61,2.45-2.9,3.9-4.29,2.49-2.38,3.5-5.16,4.46-7.88,1.53-4.32,4.07-10.18,5.6-14.5.6-.25.49-.8.09-1.16a13,13,0,0,1-1.34-1c-.54-.64-.15-1.4.26-2.08l1-1.73a2.4,2.4,0,0,1,1.09-1.1,6.12,6.12,0,0,1,3.46-.09,10.25,10.25,0,0,0,3.52.32,6.41,6.41,0,0,0,2-.76l2.47-1.31a13.81,13.81,0,0,1,1.64-.77c.53-.21,1.12-.36,1.64-.58a4.36,4.36,0,0,0,2-1.45.48.48,0,0,0-.42-.79,2.67,2.67,0,0,0-.7.18,3,3,0,0,1-1.62-.17c-1.63-.59-2.71-1.67-2.78-2.78,0-.56,0-1.28-.9-1.47s-1.9.52-3,.55a2.76,2.76,0,0,1-1.49-.43,2.61,2.61,0,0,1-1.16-2.88,6.7,6.7,0,0,0,.29-3c-.23-.76-.84-1.62-.05-2.25a3.73,3.73,0,0,1,1-.49,6.25,6.25,0,0,0,1.9-.94.72.72,0,0,0-.05-1.27c0-.38-.7-.65-1.36-.71s-1.32,0-2,0-1.37-.25-1.48-.62c-.07-.21-.13-.53-.47-.47a.73.73,0,0,0-.77.72c0,.31.06.67-.34.88-.19.11-.47.15-.64.27s-.2.38-.16.58c.09.44.17.87.26,1.3a.51.51,0,0,1-.06.46c-.27.34-1.13.32-1.75.18a3.8,3.8,0,0,0-1.88-.13c-.74.25-.75,1-1.57,1.12a1.4,1.4,0,0,1-1.5-1,2.45,2.45,0,0,1,0-2.35c.22-.31.57-.59.83-.89a4.65,4.65,0,0,0,.82-3,3.18,3.18,0,0,1,1.63-2.78,10.33,10.33,0,0,0,1.24-.65,1.42,1.42,0,0,0,.4-1.84,13.05,13.05,0,0,1-.89-1.85c-.16-.7.1-1.43-.21-2.12-.21-.46-.66-.88-.86-1.34a3.47,3.47,0,0,1,0-1.81,1.68,1.68,0,0,0-.64-1.73,2.81,2.81,0,0,0-2.73-.15,1.15,1.15,0,0,0-.43.89c-.17,1.31-.38,2.61-.64,3.91a3.35,3.35,0,0,0-.09,1.44,5.92,5.92,0,0,0,1,1.78,7.47,7.47,0,0,1,1.17,2.76,1.12,1.12,0,0,1-1,1.42c-.88-.2-.29-1-.79-1.48s-1.68-.26-1.84.19c-.07.21.05.44-.11.63a1.06,1.06,0,0,1-.46.25,8.35,8.35,0,0,1-4.23.32,4.15,4.15,0,0,0-1.6-.14,1.72,1.72,0,0,0-1.12.88,1.53,1.53,0,0,1-1.35.7,2.08,2.08,0,0,1-1.62-1.37,4,4,0,0,0-.71-1.68,7.68,7.68,0,0,1-.87-.83.54.54,0,0,1,.39-.85,1.72,1.72,0,0,1,1.5.41c.32.3.5.65,1,.88a20.74,20.74,0,0,0,2.43.53c.76.25,1.34.79,2.2.72a2.37,2.37,0,0,0,.78-.24c1.8-.85,2.51-2.4,1.67-3.65-.54-.82-1.66-1.54-1.73-2.41a5.69,5.69,0,0,1,.29-1.32c.17-1-.51-2-.44-3,0-.5.27-1,.32-1.49a1.38,1.38,0,0,0-.72-1.4,7.29,7.29,0,0,0-2.52-.58,15,15,0,0,1-5-1.3c-.36-.19-.76-.44-.68-.72,0-.12.15-.22.2-.34s-.14-.53-.5-.7a5,5,0,0,0-1.23-.33,4.93,4.93,0,0,0-1.28-.13c-.43,0-.85.22-.9.47s.06.25,0,.37-.47.31-.82.36a13.92,13.92,0,0,1-4.68-.26,32.63,32.63,0,0,0-4.58-.73,6.59,6.59,0,0,0-4.22,1,2.48,2.48,0,0,1-2.19,1,15.94,15.94,0,0,1-3.46-.17,4.85,4.85,0,0,0-1.14-.11c-.59,0-1.08.28-1.66.33a2.88,2.88,0,0,1-2.18-.84,4.93,4.93,0,0,0-1.55-1.31,11.53,11.53,0,0,0-2.55-.5c-.87-.13-1.8-.46-1.9-1s1.06-1.21.73-1.81a2,2,0,0,0-1.35-.64,11.11,11.11,0,0,1-1.7-.36c-.51-.19-.87-.58-.61-.9a1.72,1.72,0,0,1,.6-.34l1.51-.64a1.82,1.82,0,0,0,.66-.38,1.22,1.22,0,0,0,.22-.56c.27-.87,1.76-1.42,3.18-1.73a14.22,14.22,0,0,0,4-1.19c.73-.45,1.12-1.05,1.83-1.51a2.74,2.74,0,0,1,2.58-.3,3.47,3.47,0,0,1,2.77.8,12.27,12.27,0,0,0,1.73,1.63c.75.45,1.83.69,2.57,1.15s1.05,1,1.72,1.43a8.22,8.22,0,0,0,1.75.74,6.21,6.21,0,0,0,3.27.39,3.93,3.93,0,0,0,1.28-.63l1.61-1c.84-.55,1.73-1.16,1.76-1.9a2,2,0,0,0-.25-.86l-1.37-3c-.1-.22-.19-.48,0-.67a1.39,1.39,0,0,1,.78-.22,3.42,3.42,0,0,1,2.25.75c.53.42.88.91,1.42,1.33a5.07,5.07,0,0,0,1.2.67,1.63,1.63,0,0,0,.46.11.69.69,0,0,0,.72-.74.71.71,0,0,1,.85-.65c.51.11.32.55,0,.81a4.44,4.44,0,0,0,3.06,1.07,2.56,2.56,0,0,1,.56,0,1.31,1.31,0,0,1,.38.15,4.06,4.06,0,0,0,1.44.66c1,.13,1.78-.48,2.76-.56a5.45,5.45,0,0,1,2,.32,13.23,13.23,0,0,0,3.95.53c1,0,2-.23,2.95-.33a6.39,6.39,0,0,1,2.89.27,6.25,6.25,0,0,0,1.18.5,9,9,0,0,0,1.18.08c1,.08.1.72.81,1.1a4.94,4.94,0,0,0,1.62.38,4.16,4.16,0,0,0,2.47-.19,1.34,1.34,0,0,0,.44-.53c.43-.76.85-1.53,1.27-2.29a.83.83,0,0,1,.45-.43,2.27,2.27,0,0,1,.91-.06l5.22.35c.57,0,1.3.18,1.26.51,0,.13-.17.24-.32.34a20.45,20.45,0,0,1-5.67,2.6c-.62.18-1.32.38-1.54.76s.28.94.81,1.32a2.36,2.36,0,0,0,1.34.54,5.83,5.83,0,0,0,.73-.06,4.12,4.12,0,0,1,2.73,1c.33.25.68.57.45.85-.07.09-.19.17-.21.26s.12.23.26.31a8.46,8.46,0,0,0,3.49,1.13,7.27,7.27,0,0,1,2.66.53c.83.5.78,1.47,1.92,1.68,3.4.64,7.34.3,7.76-1.75l4.86,2c1.75-.25,1.76-2,0-2.3,2.24-.82,4.85.59,6.59,1.75s5.27,2.11,6.64.8c-1.06-1.64-4.26-2.37-6.62-3.46s-3.71-3.54-1.07-4.39c1.62-.53,3.61,0,5.44.16s4.36-.24,4.26-1.31c-4.8-2.34-12.51-2.34-17.32,0a28.43,28.43,0,0,1-3.84,1.85,21.18,21.18,0,0,1-4.48.72c-5.47.48-12.22.66-15.26-2,3.15.47,6.76-.73,7.63-2.54s-1.14-3.92-4.25-4.46a19.77,19.77,0,0,1-3.2-.55c-1.61-.59-1.92-1.94-1.21-3a9.92,9.92,0,0,1,3.62-2.51c7.29,1.55,15.35,3.12,22.63,1.55a27.73,27.73,0,0,1,6.26-1.1,16.8,16.8,0,0,1,5.63,1.37A99.16,99.16,0,0,1,511.15,657c7,3.61,11.63,8.41,16.18,13.12,1.51,1.57,2.88,3.74.59,4.94q-4.59-2-8.78-4.21l-2.73,1.75,13.1,4a8.49,8.49,0,0,0,3.68.52c1-.15,1.75-.62,2.73-.76a4.85,4.85,0,0,1,4.33,1.74c.77,1,1.12,2.17,2.45,3s4.2.81,4.71-.26a18.6,18.6,0,0,0,7.93,5.37c.12-.68.23-1.37.35-2,5.21.63,5.26,5.07,9.06,7.21a3.28,3.28,0,0,0,1.33.45c2,.14,2.08-1.67,3-2.71,1-1.2,4.43-1.38,5.84-.31a11.7,11.7,0,0,1-2.12,8.9c-.7,1-1.24,2.5.51,2.91a3.06,3.06,0,0,0,3.55-2.32q.79-3.36,1.61-6.72a2.22,2.22,0,0,1,2.34.48c.41.51.38,1.1.74,1.62.73,1,2.76,1.52,4.58,1.91q7.41,1.59,14.58,3.52c7.1,1.9,14.18,4.13,19.33,7.54,3.76,2.49,6.32,5.5,9.73,8.15L628,716c7.16,1.57,5.81,8.56,12.6,10.6a33,33,0,0,1,3.56,1A5.92,5.92,0,0,1,646.8,730c1.44,2.1,2.87,4.21,4.3,6.31a6.43,6.43,0,0,0,2.87,2.62c1.47.61,3.9.57,4.76-.36a8.77,8.77,0,0,0,3,3.26,8.11,8.11,0,0,0,5.85.81l5.32,4.93c5.91,5.46,12.66,10.14,19.41,15.27a50.5,50.5,0,0,0,5.8,4c4.91,2.75,11.65,4.69,14.28,8.33a19.93,19.93,0,0,0,1.75,2.55c1.71,1.77,5.16,2.73,7.37,4.31,3.65,2.6,3.49,6.56,7.5,9,1.38.83,3.21,1.45,4.17,2.46S733.49,796.05,731.51,796.16ZM490.39,708.81A5.71,5.71,0,0,1,489,705a4.38,4.38,0,0,0-.13-2c-.34-.73-1.25-1.49-.7-2.18a3.42,3.42,0,0,1,1.56-.8,8,8,0,0,1,3.76-.59,2.44,2.44,0,0,0,.89,0c.35-.08.45-.37.28-.57a2,2,0,0,0-.8-.47l-4.87-2a3.51,3.51,0,0,0-.6-.19,2.49,2.49,0,0,0-2.21.81c-.42.5-.7,1.08-1.51,1.37a6.34,6.34,0,0,1-3.31-.12,2.46,2.46,0,0,1-1.22-.5c-.24-.29-.06-.63.2-.91a6.27,6.27,0,0,1,2.87-1.69l-2.69-2.08a3.12,3.12,0,0,0-2.31-.82,5.31,5.31,0,0,0-1.18.42c-1.86.76-4.52.4-6.49,1a15.29,15.29,0,0,0-1.73.77,14.68,14.68,0,0,1-3.36,1l2.46,2a3.49,3.49,0,0,1,.85.87c.12.2.17.41.3.61a4.23,4.23,0,0,0,2.8,1.13c1.16.15,2.38.16,3.5.4,1.48.32,1.39.86,2.24,1.46s1.89.78,2.53,1.5a20.54,20.54,0,0,1,1.25,1.94,9.81,9.81,0,0,0,4.93,3.27C487.58,709.28,489.47,709.5,490.39,708.81Zm14.26,17.32,2.4-3.58a2.59,2.59,0,0,0,.67-1.91c-.09-.34-.32-.69-.1-1s.8-.47,1.05-.75a.76.76,0,0,0,.15-.67c-.11-.73-.57-1.42-.7-2.15a1.72,1.72,0,0,1,1.24-1.95c2.11-.78,5.47,1.36,6.82.12a1,1,0,0,0,.15-1.32c-.59-1.15-2.2-2-3.74-2.81a1.56,1.56,0,0,0-.55-.19,2.38,2.38,0,0,0-.8.11,13.44,13.44,0,0,1-4.4-.26c-1.46-.19-3.42,0-3.77.85-.15.35.05.72.16,1.08.39,1.23-.26,2.56-1.72,3.48a2.74,2.74,0,0,0-.8.62c-.27.42.07.88.24,1.31.43,1.15-.58,2.44-2.38,3-1.18.37-2.79.55-3.2,1.29s1.25,1.67,1.51,2.6c.16.55-.23,1.13,0,1.67.37.85,2.05,1.23,3.51,1.48a6.14,6.14,0,0,0,3.19,0A2.44,2.44,0,0,0,504.65,726.13Zm55.05,11.7c.2-.15-.06-.36-.3-.48l-2.1-1.1a4.45,4.45,0,0,1-.85-.51c-.16-.13-.28-.28-.43-.42a9.18,9.18,0,0,0-4.26-1.67,3.37,3.37,0,0,0-2.16.07c-.46.29-.36.79.1,1.06,1.2.71,2.83-.37,4.17-.07a3,3,0,0,1,.89.4l2,1.16a1.31,1.31,0,0,1,.38.29,1.42,1.42,0,0,1,.11.33c.15.56,1,1,2,1A.83.83,0,0,0,559.7,737.83Zm56.91,13.41c-.12-.47-.07-.72-.9-.58-.49.08-1.19.79-1.59,1a16.92,16.92,0,0,1-2.17.87,7.47,7.47,0,0,1-1.41.4,8,8,0,0,1-3.37-.37,4,4,0,0,0-.86-.19,1.09,1.09,0,0,0-.78.21c-.28.31.36.62.91.77l1.85.53a2.91,2.91,0,0,0,.89.15,6.17,6.17,0,0,0,.75-.12,17.13,17.13,0,0,1,2.66.14C614.82,754.06,616.91,752.5,616.61,751.24Zm57.72,55.49c.86,0,3.85.15,4.45-.29,1-.72-2.25-.65-3-.68-1.49,0-3,0-4.49-.16a41.92,41.92,0,0,1-5.47-1,8.5,8.5,0,0,1-2.42-.8,1.8,1.8,0,0,1-.93-1.82,3.15,3.15,0,0,0,.15-1.28,1.43,1.43,0,0,0-1.47-.81,1.35,1.35,0,0,0-1.29,1c-.09.45,0,.93-.45,1.31-.75.67-2.46.6-3.82.45a2.74,2.74,0,0,1-.74,1.6,2.76,2.76,0,0,0-.48.49c-.4.67.76,1.27,1.78,1.66a5.49,5.49,0,0,1,2-1.26,1.11,1.11,0,0,1,1.09,1.17,1.15,1.15,0,0,0,1.31,1,3.55,3.55,0,0,0,.64-.17c1.38-.37,3.18.47,4.47,0,.5-.18.77-.51,1.26-.7a5.66,5.66,0,0,1,2.5-.06A44.15,44.15,0,0,0,674.33,806.73Zm-20.16,1.75c-.48.5-1.75.64-2.09,1.18-.13.2-.11.43-.29.61a2,2,0,0,1-.84.37,12.26,12.26,0,0,1-2.94.58,5.84,5.84,0,0,0-2.23.25l-.67-.39.46-.3a2.3,2.3,0,0,0-1.5.14,3.81,3.81,0,0,1-1.44.4,3.38,3.38,0,0,1-1-.23l-2.6-.88a14.73,14.73,0,0,0-2-.59,17.13,17.13,0,0,0-2.79-.2,22.23,22.23,0,0,0-3.47.17,8.39,8.39,0,0,0-4,1.65,1.71,1.71,0,0,0-.47.55c-.24.52.16,1.07.06,1.61a5.85,5.85,0,0,0-.2.8c0,.26.25.56.71.62a2.43,2.43,0,0,0,.6,0,7,7,0,0,0,2.69-.72c.61-.38.81-.92,1.22-1.38a4.18,4.18,0,0,1,1.29-.94,1.64,1.64,0,0,1,.64-.18,2,2,0,0,1,.55.08l1.18.28a2,2,0,0,1,.65.22c.21.15.25.36.43.51.44.39,1.49.33,2.12.62.91.4.58,1.26,1.17,1.83a3.5,3.5,0,0,0,2.27.62,14.47,14.47,0,0,0,2.55-.33,2.81,2.81,0,0,1,.65,0,1.86,1.86,0,0,1,.55.16c.87.39,1.53.93,2.48,1.26s2.4.31,2.91-.25c.35-.39.14-.92.64-1.24s1.26-.29,1.69-.58.28-.82.52-1.22c.49-.84,2.64-1,3.38-1.72s-.3-1.74-.13-2.63c.09-.45.51-.89.42-1.34a2,2,0,0,0-2.2-1C654,807,654.67,808,654.17,808.48ZM541.22,835.32c-1.74-.29-2.87-1.34-4.33-1.89-4.17-1.55-6.5,2.62-6.78,4.33a2.32,2.32,0,0,0,.19,1.67c.67,1.13,2.78,1.82,3.45,3a5.88,5.88,0,0,1,.4,1.92,2,2,0,0,0,1.65,1.58,4.87,4.87,0,0,0,3.44-.7,10.42,10.42,0,0,1,2.8-1.53,18.47,18.47,0,0,1,3.47-.35c3.45-.25,6.55-1.72,7.65-3.63a4.08,4.08,0,0,1,.72-1.1,7.25,7.25,0,0,1,3.25-1.22,8.18,8.18,0,0,0,3.32-1.15c.77-.63.54-1.69-.72-1.91a7.9,7.9,0,0,0-2.87.39,14.88,14.88,0,0,1-5-.21l-3.94-.61C546.91,835,543.27,835.66,541.22,835.32Zm-24.11-22.6c-2.05.55-1.34,2.55-1.4,3.55-.08,1.2-.8,2.35-.88,3.55-.09,1.5.86,3,.19,4.48a14.15,14.15,0,0,1-2.4,2.69c-2.11,2.38-1.77,5.25-3.42,7.75-.54.81-1.3,1.61-1.31,2.48,0,1.27,1.53,2.36,3.22,3.17A24.19,24.19,0,0,1,516,843c1.58,1.35,1.76,3.09,2.95,4.57a16.43,16.43,0,0,0,4.31,3.24l14.18,8.56,1.77-1.18c-1.76-1.25-4.9-1.75-6.23-3.16a14.82,14.82,0,0,1-1.08-1.63c-1.64-2.19-6.56-3.31-7.28-5.66-.17-.53-.09-1.1-.43-1.6-.72-1.1-3-1.52-4.33-2.43-1.63-1.14-1.44-2.88-3.06-4-.57-.41-1.35-.72-1.89-1.14s-.81-1-.25-1.46a4.41,4.41,0,0,1,1.34-.51,9.29,9.29,0,0,0,4-2.71c.26-.26.54-.54.54-.85s-.37-.69-.57-1c-1-1.71,2.07-3.29,2.55-5.07.55-2-2.28-3.86-2.25-5.9,0-1.49,1.59-3,.8-4.4-.22-.41-.65-.8-.68-1.23a6.93,6.93,0,0,1,.13-.88C520.47,813.55,518.85,812.26,517.11,812.72Zm25.3,37.68-2.56,1a1.79,1.79,0,0,0-.46.22c-.35.29,0,.72.54.86a3.39,3.39,0,0,0,1.73-.12,2.77,2.77,0,0,0,1-.52,2.56,2.56,0,0,1,.29-.27,3,3,0,0,1,.44-.21l2.32-.91a3,3,0,0,1,.91-.25c.34,0,.73.09.8.28a20.37,20.37,0,0,1-2.38,1.46.83.83,0,0,1,.15,1.43,4.48,4.48,0,0,0-.65.52c-.26.37.14.8.73,1a4.74,4.74,0,0,0,2,.08c.88-.13,1.79-.45,2-1a1.25,1.25,0,0,0,0-.51,2.88,2.88,0,0,1,1.49-2.44,3.1,3.1,0,0,1,.68-.35,7.17,7.17,0,0,1,2.38-.13,18.27,18.27,0,0,0,3.56-.24c.12-.48-.86-.82-1.7-.81s-1.64.23-2.47.23c-1.25,0-2.41-.6-2.6-1.31a1.9,1.9,0,0,1,.61-1.56,1.63,1.63,0,0,1,.55-.48,2.67,2.67,0,0,1,1.53-.15,4.78,4.78,0,0,1,1.38.47,5.12,5.12,0,0,1,1.46.95c.3.3.47.65.77,1,.89.9,2.73,1.3,4.46,1.56a9.85,9.85,0,0,0,2.1.14,2.35,2.35,0,0,0,1.66-.68,3.76,3.76,0,0,0-2.64-.49,5.46,5.46,0,0,1-1.21.06,3,3,0,0,1-.82-.22c-2-.81-2.7-2.33-4.13-3.49a2.17,2.17,0,0,0-.92-.48,4.17,4.17,0,0,0-1.57.08,15.22,15.22,0,0,0-2.83.71l-1.08.49a28.36,28.36,0,0,1-3.79,1c-1.07.26-2.53.75-2.77,1.47S543.73,849.9,542.41,850.4Zm44.28-26.17a7.16,7.16,0,0,1-3.06,1.33,2.64,2.64,0,0,1-.81.13c-.25,0-.49-.1-.74-.12-.68-.05-1.21.39-1.2.79s.34.75.55,1.13a.76.76,0,0,1-.19,1.12,4.48,4.48,0,0,1-1.41.37c-.5.1-1,.29-1.06.59s.4.52.81.68a7,7,0,0,1,2.42,1.2c.51.55.11,1.42-1,1.46a5.68,5.68,0,0,1-1.37-.22,2.07,2.07,0,0,0-1.36.07c-.45.28-.09.73-.25,1.1-.23.55-1.55.81-1.61,1.37s.65.84.35,1.22-1.52.4-1.77.82c-.1.18,0,.37,0,.56-.08.47-1,.75-1.79.76s-1.6-.13-2.41-.14-1.74.22-1.91.68.25.74.65,1a2.37,2.37,0,0,0,.89.48,3.51,3.51,0,0,0,2-.22,6.36,6.36,0,0,1,1.89-.53c.7,0,1.52.29,1.36.69-.06.17-.28.3-.49.43l-2,1.16c-.18.11-.37.22-.42.37a.39.39,0,0,0,.14.36,3.31,3.31,0,0,0,3.27.37l.82,1.11a9,9,0,0,0,3.77-1.48c.49-.36.88-.8.81-1.26,0-.21-.17-.42-.2-.64-.06-.46.44-.92,1.18-1.1a2.6,2.6,0,0,0-2.12-.53,7.62,7.62,0,0,0-2.18.67c-.64-.43-.47-1.15.26-1.53a4.23,4.23,0,0,1,2.76-.19,2.23,2.23,0,0,0,.81.14c.63-.05.78-.6,1.38-.71a4.33,4.33,0,0,1,1,0,2.08,2.08,0,0,0,2.25-1.32,3.47,3.47,0,0,0-.7-2,1.65,1.65,0,0,1,0-2,1.27,1.27,0,0,0,.31-.41c.1-.34-.44-.62-.87-.87a2.84,2.84,0,0,1-1.48-1.86.57.57,0,0,1,.08-.47c.39-.52,1.93-.46,2.3-1,.23-.33-.06-.8.45-1s1.14.17,1.75.25a1.8,1.8,0,0,0,1.81-.93c.22-.5.2-1.05.71-1.48.14-.11.33-.22.35-.36s-.1-.26-.21-.37c-.48-.46-1-1.32-2.06-1.38C587.5,822.51,587.25,823.65,586.69,824.23Zm13.43-10.72a1.19,1.19,0,0,0-.38.11,9.33,9.33,0,0,0-2,1.08,2.7,2.7,0,0,1-.54.37,5.07,5.07,0,0,1-.75.25,2.41,2.41,0,0,0-1.76,1.46.69.69,0,0,0,.15.65,1.19,1.19,0,0,0,.92.33,2.53,2.53,0,0,0,.48-.08,15.26,15.26,0,0,0,3.73-1.46,2,2,0,0,0,.51-.37c.22-.26.16-.55.31-.82s.41-.38.49-.59S600.88,813.46,600.12,813.51ZM571.3,861.79a9.72,9.72,0,0,1-2.39.82c-.82.25-1.64.68-1.58,1.22.11,1.1,3.36,1.15,4,2.19.22.36,0,.76,0,1.14-.37,1.5.53,3.09,2.36,4.18-1.49.48-1,2.07-2.64,2.4s-3.23-.86-4.54-.34a.76.76,0,0,0-.38,1.25,2.94,2.94,0,0,0,1.68.9,9.36,9.36,0,0,1,2.65.53c.61.37.54.94.57,1.45.07,1.44,1.26,2.86,3.18,3.78a2,2,0,0,0,.63.2,2.19,2.19,0,0,0,1.28-.33,4.56,4.56,0,0,1,3.17-.67,2.09,2.09,0,0,1,1,.68,2.94,2.94,0,0,1,.41,3.63c-.18.29-.41.6-.31.9s.38.46.66.65l1.91,1.28c.33.22.67.46.64.75,0,.12-.09.25-.1.37-.08.55,1.11.92,2,.76a2.94,2.94,0,0,0,1.86-1.18,5.11,5.11,0,0,0,.53-4.81c-.14-.43-.18-1,.52-1.17a4.37,4.37,0,0,1,1.19.77c-.29-1.24-.92-2.48-.74-3.73s1.15-2.56.45-3.76-2.66-1.85-3.7-2.9c-1.39-1.41-.86-3.21-1.88-4.73a2.75,2.75,0,0,0-1.3-1,12.49,12.49,0,0,0-4.16-.32,13,13,0,0,1-4.68-.87,2,2,0,0,1-.82-.49c-.33-.41.08-.9.63-1.23a15.11,15.11,0,0,0,1.7-.95,1.51,1.51,0,0,0-.05-2.38c-.51-.51-3.42-2.55-4.1-1.78S572.83,860.77,571.3,861.79ZM593,882.86c-.68,0-.47,0-.52.29a2.71,2.71,0,0,0-.06,1.13,1.29,1.29,0,0,0,.52.55,8.82,8.82,0,0,0,2.79,1.22,3.1,3.1,0,0,0,.76.13,5.42,5.42,0,0,0,.81-.07,14.15,14.15,0,0,1,4.86.43,6.52,6.52,0,0,0,1.25.2,1.78,1.78,0,0,0,1.14-.29c.25-.24.16-.55.34-.8.26-.41,1.1-.6,1.45-1s.13-.83-.31-1.16a6.27,6.27,0,0,0-1.69-.76c-.23-.07-.55-.14-.71,0s-.07.19,0,.29a1.49,1.49,0,0,1-.22,1.43.48.48,0,0,1-.29.22,1,1,0,0,1-.48,0,4,4,0,0,0-2,0c-.19.08-.32.19-.52.26a2.09,2.09,0,0,1-.67.08,7.59,7.59,0,0,1-3.88-1c-.47-.28-.84-.62-1.35-.87A3,3,0,0,0,593,882.86Zm-95.29-18.21c-2.84-.46-6.42.08-9.28.22a11.92,11.92,0,0,0-4.68.84,5.26,5.26,0,0,1-2.32,1c-.58,0-1.16-.13-1.73-.07a2.68,2.68,0,0,0-1.42.69l-5.66,4.56a10.21,10.21,0,0,1-3.77,2.16c-1.25.34-2.68.39-3.93.73-3.26.88-3.94,3.86-1.18,5.2,2-.62,4.26.41,5.62,1.44s3,2.28,5.19,2.18c1.45-.06,2.79-.71,4.2-.51a6.79,6.79,0,0,1,2.37,1c3.4,1.8,9.41,1.58,11.86,3.84,1,.92,1.15,2.08,2.11,3s2.43,1.65,2,2.6c-.52,1.21-4,1.69-3.6,2.91.61.62,2,.78,3.26.72a21.55,21.55,0,0,1,3.67-.12c.61.07,2.94,1,1.91,1.46-.55.26-2.43-.5-3.28-.34-.34.07-.62.2-.95.28a7.49,7.49,0,0,1-2.4-.09c-.79-.08-1.8,0-2.13.42s.07.72.64.83c.24.05.51.05.75.09a2.47,2.47,0,0,1,.87.38,10.66,10.66,0,0,1,2.35,2,15.26,15.26,0,0,1-2.32.32,3.64,3.64,0,0,0-2.53,1.88c-.43,1,.34,2.09,1.82,2.63,1.81.66,4.85.82,4.9,2,0,.24-.12.47,0,.7.31.81,2.35.62,3.75.79,2.12.25,3.14,1.64,4.84,2.41,2,.89,4.74.9,7.2.63a67.63,67.63,0,0,1,7.38-.78c1.58,0,3.13.21,4.69.29,7.95.42,15.31-2.21,22-4.74,1.62-.62,3.42-1.41,3.43-2.53,0-.49-.35-1-.15-1.47.36-.88,2.36-1.25,2.82-2.11.32-.59-.19-1.23-.06-1.84.24-1.17,2.67-1.88,2.9-3.06.13-.69-.55-1.35-.55-2.05,0-2,5.59-3,5.44-5,0-.46-.38-.9-.47-1.36-.31-1.73,2.82-2.88,5.12-4,1.09-.53,2-1.64.76-2.07a3.46,3.46,0,0,0-1.37-.09c-6.25.42-10.77,4.13-17,4.4a2,2,0,0,1-2-1.67c0-.74.36-1.48.15-2.21-.32-1.13-2-2.24-1.16-3.27a3.72,3.72,0,0,1,1.31-.82,13.63,13.63,0,0,1,3.43-1.22,5.89,5.89,0,0,1,3.77.42c.77-.12.5-.79,0-1.17a33.61,33.61,0,0,0-7.63-4.71,8.7,8.7,0,0,0-2.14-.73c-2.71-.47-5.74.92-8.31.25.29.77-1.71,1.29-2.84.84a1.6,1.6,0,0,1-1-2.15c.19-.49.52-1,0-1.47a3.08,3.08,0,0,0-1.4-.51,29.8,29.8,0,0,0-11.9.13.69.69,0,0,1,0-1.07c-1.55-.45-3.47-.89-4.91-.33-.71.28-1.13.75-1.82,1.05-1.71.75-4.14.15-6-.47C505,866.9,501.36,865.25,497.66,864.65Zm-3.77,45.91a5.59,5.59,0,0,0-1.09-.73,3.28,3.28,0,0,0-3.24.36,10.33,10.33,0,0,1-1.87.81,3.57,3.57,0,0,0-1.58,1c-.29.43-.1,1,.59,1.2a8.16,8.16,0,0,0,1.53.16c.8.08,1.53.38,2.34.4a10.45,10.45,0,0,0,1.49-.16,21.29,21.29,0,0,1,3.83,0l2.76.17a2.17,2.17,0,0,0,1.4-.22,16.37,16.37,0,0,1-3.54-1.22c-.11-.06-.22-.12-.24-.2s0-.15.07-.22-.15-.37-.42-.48A9.81,9.81,0,0,1,493.89,910.56Zm2.16-118.21a.86.86,0,0,1-.05.39.94.94,0,0,1-.41.29c-1.21.57-3,.68-3.94,1.42a1,1,0,0,0-.42,1.11c.24.76,1.57,1.31,2.9,1.34a5.61,5.61,0,0,0,2.25-.41c.48-.21.88-.52.86-.87,0-.16-.11-.32-.12-.48-.06-.6,1-1,1.62-1.51s1-1.5.13-2S496.11,791.6,496.05,792.35Zm60.77-113.84a16.33,16.33,0,0,0,3.53-.2,5.79,5.79,0,0,1,1.84-.41,3.85,3.85,0,0,1,.78.17,51.47,51.47,0,0,1,7.66,2.77,2.64,2.64,0,0,0,2,.35c.52-.22.41-.69.08-1-1.22-1.13-4.08-1.12-6-1.83a14.94,14.94,0,0,1-2.71-1.5,6.59,6.59,0,0,0-3.21-1c-.51,0-1,0-1.52.06-2.29,0-4.35-.95-6.64-.91a12.54,12.54,0,0,0-4.37,1.09,2.06,2.06,0,0,0-1,.62c-.26.43.27.88.76,1.24,1.13.83,2.15,1.7,3.19,2.56a2.74,2.74,0,0,0,2.6.67c1.42-.35.36-.81.38-1.44C554.15,678.92,555.62,678.55,556.82,678.51ZM567,671a4.74,4.74,0,0,0,2.9.92,4.54,4.54,0,0,0,1-.27c.12,0,.24-.09.27-.17s0-.14-.12-.21c-1.5-1.25-5.06-1.19-6.53-2.46a4.92,4.92,0,0,1-1-1.67,2.53,2.53,0,0,0-1.88-1.32c-.31-.05-.63-.06-1-.08a14.8,14.8,0,0,1-3.6-.85,5.46,5.46,0,0,1-1.65-.74c-.5-.41-.61-.93-1-1.37-1.11-1.19-4-1.41-5.42-2.49a2.07,2.07,0,0,0-.71-.43c-.31-.08-.78,0-.79.2a7.52,7.52,0,0,0,3.91,3,22,22,0,0,1,4.35,2c.79.53,1.51,1.09,2.32,1.61C560.71,668.35,564.24,669.42,567,671Zm38,24.84a2.66,2.66,0,0,0,1.1,1,38,38,0,0,0,3.86,2.07c.73-.21,1-.78.76-1.24a3.41,3.41,0,0,0-1.34-1.17,4.39,4.39,0,0,1-1.41-1.15,3.63,3.63,0,0,1-.25-1.52c-.15-1.2-1.36-2.35-3.14-3s-5.19-.36-3.64,1.13a13.21,13.21,0,0,0,2.38,1.49C604.69,694.29,604.54,694.86,605,695.88ZM508,640.6c-.2.43.6.77.9,1.18s0,1,.06,1.44c.12,1,2,1.73,3.59,1.47a6.07,6.07,0,0,1,1.2-.16,2.92,2.92,0,0,1,.8.17,18.46,18.46,0,0,1,2.9,1.16,4,4,0,0,0,2.5,3.18,2.45,2.45,0,0,0,1.19.31c1.07-.07,1.43-1.14,2.49-1.06.57,0,1,.42,1.55.36s.65-.33.58-.57-.35-.45-.62-.63a32,32,0,0,0-4.41-2.49,8.3,8.3,0,0,1-1.39-.75,11.67,11.67,0,0,0-1.22-1.07,6.42,6.42,0,0,0-1.19-.48,20.17,20.17,0,0,1-6.71-3.78c-.57-.5-1.33-.87-1.35,0,0,.36.45.53.2.91S508.11,640.25,508,640.6Zm-121.36-47c-.71,0-1.17-.49-1.87-.55a12.25,12.25,0,0,0-1.46.15,4.64,4.64,0,0,1-1.87-.51,2.85,2.85,0,0,0-2-.19,2.12,2.12,0,0,1-.62.25c-.53.06-.8-.39-.57-.67s.72-.48.9-.78a.84.84,0,0,0,0-.71,2.23,2.23,0,0,0-.66-1.24,2.48,2.48,0,0,0-1.94-.47,1,1,0,0,0-.89,1.56c.22.38.58.81.19,1.15a2.57,2.57,0,0,1-1.25.37l-2.51.3a3.61,3.61,0,0,1-1.92-.11,1.08,1.08,0,0,1-.57-.83c-.13-.61-.27-1.21-.41-1.82a.51.51,0,0,0-.26-.4,1.21,1.21,0,0,0-1.41.4,1.56,1.56,0,0,0,0,1.22l.55,2.2a.43.43,0,0,1,0,.35c-.17.27-.85.3-1.25.14a1.58,1.58,0,0,1-.77-.71,11.27,11.27,0,0,1-1.23-2.28,7.34,7.34,0,0,0-.56-1.52c-.34-.55-1.08-.73-1.55-1.16s-.14-.9.07-1.25.72-.94.66-1.44c-.09-.66-1-1.19-2-1.54a21.21,21.21,0,0,1-2.88-1.06c-.8-.44-1.19-1.31-.26-1.66a2.83,2.83,0,0,1,1.45-.05,8.47,8.47,0,0,1,3.14,1.48,5.77,5.77,0,0,0,3.53,1,11.37,11.37,0,0,1,1.16-.11c.95,0,1.48.64,2.25,1,1.37.59,3.32.23,4.9-.15a2.2,2.2,0,0,0,1.22-.54.68.68,0,0,0,0-.65c-.29-1-.59-2-.89-3a2,2,0,0,0-.44-.88c-.82-.86-2.87-1-4.21-1.58-2-.87-2.21-2.68-4.32-3.45a3.2,3.2,0,0,0,1.5,2.62,17.87,17.87,0,0,1-5.79,1c-.85,0-1.67-.18-2.51-.23-.57,0-1.15,0-1.72-.09-1.73-.17-3.23-1-3.7-1.93-.2-.41-.24-.86-.67-1.2-.95-.74-2.91-.49-4.51-.45a23.08,23.08,0,0,1-6.37-1c-7.7-2.07-15.54-5.43-23.76-4.22-.54.08-1.11,0-1.66,0s-1.16.22-1.19.54.91.66,1,1.07-.52.68-1.16.74a9.21,9.21,0,0,1-1.89-.15c-.35,0-.83,0-.92.18s.08.23.21.33l3,2.37a4,4,0,0,1,.88.87,2.18,2.18,0,0,1,.25,1.18c0,.54,0,1.07,0,1.6a1.89,1.89,0,0,0,.24,1.1c.43.65,1.53,1.06,2.37,1.56.57.34,1,.91.43,1.24a3.12,3.12,0,0,1-1.37.19,20.59,20.59,0,0,0-3.53.3,2.21,2.21,0,0,0-.75.23c-.71.44.28,1.22-.27,1.73-.2.18-.59.3-.72.5a.5.5,0,0,0,0,.51,2,2,0,0,0,.49.76,4.49,4.49,0,0,0,3.29.62,12.2,12.2,0,0,0,3.21-1l2.06-.91a4.15,4.15,0,0,1,2-.46,4.93,4.93,0,0,1,1.53.51,9.55,9.55,0,0,0,3.71.74,10.11,10.11,0,0,1,3.24.2,6.18,6.18,0,0,0,4.77-.42.61.61,0,0,0,.23-.22c.07-.23-.32-.4-.51-.6-.49-.51.5-1.12,1.5-1.2s2,.13,3,.12a14.87,14.87,0,0,0,3.92-.84,7.63,7.63,0,0,1,4-.23,5.82,5.82,0,0,1,1.1.49l5.34,2.87c.69.37,1.43.79,1.57,1.33.23.9-1.22,1.89-.33,2.63.14.11.34.21.42.35.21.38-.59.7-1.28.71a10.74,10.74,0,0,0-2.05,0c-.81.18-1.16.79-.89,1.26a2.84,2.84,0,0,0,1.79,1,20.38,20.38,0,0,0,2.52.37,35.05,35.05,0,0,1,3.78.65,4.73,4.73,0,0,1,.92.29,1.12,1.12,0,0,1,.51,1.74c-.74,1.16-2.68,1.88-4.29,2.7s-3.05,2-2.34,3.22c.38.63,1.35,1.3.74,1.86a5.92,5.92,0,0,1-.48.35c-.61.51-.09,1.22-.38,1.82s-1.61,1-2.81,1a11.34,11.34,0,0,1-3.35-.69,13,13,0,0,0-3.26-.74,28,28,0,0,1-5.9-.91,7.76,7.76,0,0,1-4.19-2.48,8.87,8.87,0,0,0-.76-1.16,6.31,6.31,0,0,0-1.66-1.1,7.32,7.32,0,0,0-1.5-.66,16.37,16.37,0,0,0-2.58-.35c-2.95-.32-5.56-1.33-8.5-1.7a2.11,2.11,0,0,0-1.1.08,9.27,9.27,0,0,0,3.59,1,15.65,15.65,0,0,1,6,2.3,2.15,2.15,0,0,1,.77.76.6.6,0,0,1-.32.81,2.52,2.52,0,0,1-2,0,4.78,4.78,0,0,1-1.27-1,2.92,2.92,0,0,0-1.54-.82.59.59,0,0,0-.23,0,.27.27,0,0,0-.13.1c-.16.24.05.52.35.73a7.49,7.49,0,0,1,.91.59c.24.22.36.56,0,.74a10,10,0,0,0-2.27.2,2.21,2.21,0,0,0-1,.42.9.9,0,0,0-.22.56c0,.37-.09.73-.14,1.09a.54.54,0,0,0,.05.37,1.42,1.42,0,0,0,.62.37,7.52,7.52,0,0,0,4,.69c.29-.06.57-.16.87-.2,1-.16,2.1.25,2.28.83-.53-.14-1.17.28-.86.56.12.11.33.18.41.3s-.17.43-.53.48a3.29,3.29,0,0,1-1.08-.08l-3.9-.73c-.57-.11-1.14-.21-1.68-.37-1.49-.44-2.69-1.25-4.34-1.42-.89-.09-1.82,0-2.72,0a4.6,4.6,0,0,1-3.17-1.36.92.92,0,0,1-.16-.31.66.66,0,0,1,.31-.58,4,4,0,0,1,2.77-.42,9.5,9.5,0,0,1,2.6.9l2.1,1c.16-.56-.65-1-1.43-1.38a52.54,52.54,0,0,0-10.57-2.87,7.44,7.44,0,0,0-1.35-.18,8.11,8.11,0,0,0-1.93.32,6.51,6.51,0,0,1-2.74.22,7,7,0,0,0-1.76-.36,10.1,10.1,0,0,0-1.24.26,6.81,6.81,0,0,1-2.83-.36,5.37,5.37,0,0,0-2.84,0,1.85,1.85,0,0,1-1.53-.18c-.34-.26-.28-.67.14-.9s.79-.35.58-.55a.58.58,0,0,0-.25-.11,4.49,4.49,0,0,0-2.74.11c-.31.12-.57.28-.88.39a7,7,0,0,1-2.61.15,2.84,2.84,0,0,1-.66-.09,3.92,3.92,0,0,1-.58-.29,2.63,2.63,0,0,0-2.35.18,3.79,3.79,0,0,1-.42.38,2.32,2.32,0,0,1-1.32.22,5.2,5.2,0,0,1-1.29-.34,2,2,0,0,0,1-.82,2.08,2.08,0,0,0-1.73-.14,3.7,3.7,0,0,0-1.27.84,6.4,6.4,0,0,1-3.26,1.66,17.28,17.28,0,0,1-6-.53c-4.47-.9-9.17-2-13.77-1.38s-7.76,2.78-10.54,4.9a7.56,7.56,0,0,1-2.69,1.49c-1.14.31-2.73.19-3.33-.45s-.1-1.27.49-1.82,1.34-1.08,1.46-1.72a1.37,1.37,0,0,1,.12-.55c.46-.76,2.56-.53,3.59-1.08a1.86,1.86,0,0,0,.8-.91c.31-.6.59-1.3-.07-1.8a9,9,0,0,0-1.71-.72c-1.65-.73-1.74-2.22-3.31-3-2.15-1.07-5.91-.29-8-1.4-1.39-.74-1.41-2-2.3-3-1.21-1.3-3.85-1.92-6.35-2.26a56.92,56.92,0,0,0-9.16-.52,6.8,6.8,0,0,0-1.29.12c-1.31.29-1.8,1.19-2.71,1.8-1.15.77-3,.59-4.69.76a6.21,6.21,0,0,0-3,.78c-.39.33-.49.74-.79,1.1a12.22,12.22,0,0,1-2.59,1.63,5.22,5.22,0,0,0-2.16,3.84,1,1,0,0,0,.1.88,2.3,2.3,0,0,0,.82.54,24.1,24.1,0,0,0,13.61,2.24,10.73,10.73,0,0,1,2.05-.24,5.68,5.68,0,0,1,2.78.95,15.74,15.74,0,0,1,1.86,1.32c.22.19.44.4.34.62s-.39.31-.68.41a17.41,17.41,0,0,1-5.14.9,10.13,10.13,0,0,0-3.18.34c-.55.22-.92.57-1.48.79a11,11,0,0,1-2.39.44c-.81.12-1.68.41-1.82.89s.72,1,1.44,1.42a17.85,17.85,0,0,1,4.08,3.27c.7.69,1.43,1.48,1.05,2.24s-1.76,1.25-3.1,1.48a30.69,30.69,0,0,0-4,.71A6.48,6.48,0,0,0,200,618c-.63,1.11-1.12,2.47.23,3.33,1.77,1.12,5.52.62,7,1.88-1.11.72-3.21,0-4.82.25-1.24.19-2.3,1-3.52.74a2.59,2.59,0,0,1-1.31-.76c-1.09-1-2.2-2.09-2.38-3.28-.13-.84.22-1.7-.06-2.52s-1.41-1.91-.64-2.74c.62-.68,2.32-1,2.44-1.77.06-.45-.48-.89-.27-1.33.11-.22.41-.4.62-.6.89-.88-.15-2-1.42-2.69s-2.88-1.29-3.47-2.25a2.64,2.64,0,0,1-.14-2c.23-1.24-.36-2.43.36-3.61.49-.8-.3-1.79-1.68-2.09-.56-.12-1.18-.14-1.73-.26a4.35,4.35,0,0,1-2.47-1.69,30.19,30.19,0,0,1-5.4-9.41c-.51-1.52-.72-3.32,1.25-4.37a22.77,22.77,0,0,1,2.89-1c2.64-.94,4.11-2.87,3.53-4.63-.24-.73-.8-1.5-.37-2.21s1.54-1.06,2.25-1.63c1.12-.9,1.06-2.09,1.35-3.18A7.56,7.56,0,0,1,195.7,566c.48-.3,1-.61,1.18-1s-.35-.91-1.06-.86a3,3,0,0,0-.55.12l-2.11.64c-.92.28-1.94.64-2.07,1.23-.05.25.07.51,0,.76-.13.89-2.05,1.27-2.88,2s-.32,2.06-1.14,3-3.36,1.53-3.23,2.64c0,.37.41.72.41,1.09,0,.69-1.19,1.16-2.24,1.49a1.17,1.17,0,0,1-.63-1.35,8.62,8.62,0,0,0,.38-1.45c0-.46-.23-.93,0-1.39.28-.67,1.38-1.1,2.15-1.63a1.06,1.06,0,0,0,.11-1.84c-.47-.41-1-.84-1-1.33s.61-1,1.46-1c.51,0,.94.23,1.44.27a2.34,2.34,0,0,0,1.75-.54,2.1,2.1,0,0,0,.56-1.16,1.28,1.28,0,0,1,.21-.58c.5-.67,2.11-.84,2.71-1.48.43-.46.24-1,.65-1.51s1.49-.74,2.26-1.11a2.18,2.18,0,0,0,1.41-1.71c0-.76-.6-1.48-.77-2.23-.2-.92.61-1.62,1.1-2.51-.4-.37,0-.87.51-1.18,1.08-.59,2.72-.78,3.69-1.43a9.59,9.59,0,0,0,1.23-1.24,9.88,9.88,0,0,1,4.05-1.84,40.14,40.14,0,0,1,5.95-1.1c4.19-.46,8.5-.31,12.74-.53a9.76,9.76,0,0,0,2.12-.26,8.56,8.56,0,0,0,1.47-.63,25.63,25.63,0,0,0,2.62-1.32,2.57,2.57,0,0,1,1.92-.08,11.51,11.51,0,0,1,1.57.79,3.3,3.3,0,0,0,1.89.4,2.54,2.54,0,0,0,1-.37c1.32-.8,1.5-2.15.4-3a4.26,4.26,0,0,1-.86-.74.5.5,0,0,1,.34-.79c.3-.09.68-.07.95-.18s.33-.49.55-.73c.59-.66,2.74-.33,3.3-1,.3-.36-.05-.84.37-1.16.6-.44,1.85,0,2.78-.21a1.79,1.79,0,0,0,1.4-1.28.15.15,0,0,0,0-.2c-.12-.1-.39,0-.57,0a3,3,0,0,1-2,.31c-.48-.21-.37-.66,0-.94s.88-.48,1.2-.77c.52-.48.46-1.14,1.15-1.53a6.43,6.43,0,0,1,1.5-.45c1.9-.47,3.21-1.61,3.41-2.8s-.66-2.38-2.1-3.24a1.62,1.62,0,0,1-1.35-1,3.1,3.1,0,0,0-.54-1.31c-.7-.74-2.35-.93-3.77-1.12a32.45,32.45,0,0,1-11-3.35,9.22,9.22,0,0,1,4.19-.22c-.48-.86-2.38-1-3.93-1.15a33.84,33.84,0,0,1-12.27-2.94,58.8,58.8,0,0,1-16.7-4.27,22.07,22.07,0,0,1,9.41,1c1.87.66,3.79,1.63,5.93,1.37l-.9-.7.8-.68a8.56,8.56,0,0,1-3.36-1.52l4.16-.23a5,5,0,0,1-1.38-.76c-.34-.32-.46-.74-.12-1.06a3.61,3.61,0,0,1,2.17-.47,28,28,0,0,1,10.68,2c1.43.6,2.71,1.32,4.18,1.88a11.58,11.58,0,0,0,5,.81c-.69-.83-2.18-1.31-3.33-1.95s-2-1.72-1-2.45a4.33,4.33,0,0,1,3.13-.38,9.42,9.42,0,0,1,2.73,1.17l6.44,3.68a2.16,2.16,0,0,0,1.83.3c.63-.34-.21-.9-.37-1.39s1-1.22,2.11-1.19a5.41,5.41,0,0,1,2.85.95,18.84,18.84,0,0,0,2.21,1.47,4.85,4.85,0,0,0,3.13.4c2.28-.6,4.82,1.53,7.16,2,.64.15,1.32.23,2,.36a18.36,18.36,0,0,1,4.31,1.63,10.29,10.29,0,0,1,2.36,1.4c.32.29.55.61.89.89a15.74,15.74,0,0,0,1.77,1.1c2.28,1.4,3.16,3.41,5.41,4.83.75.48,1.64.87,2.46,1.3a12.56,12.56,0,0,1,2.32,1.37,20.7,20.7,0,0,1,2.25,3,8.45,8.45,0,0,0,2.5,2,11.94,11.94,0,0,1,1.81,1,2.72,2.72,0,0,0,1.48.85c1.18.35,2.37.69,3.58,1a16,16,0,0,1,2.77.88c1.2.55,2,1.37,3.21,1.9,1.7.72,4.16.86,5.38,1.86.06,0,.11.09.09.14s-.1.09-.18.12l-2.24.9a10,10,0,0,0,3,1.66c.62.2,1.31.32,1.95.5a7.16,7.16,0,0,1,2.43,1.19c.28.22.46.49.74.71s.54.25.68.47a1,1,0,0,1,.09.59,1.77,1.77,0,0,0,1,1.44,15.31,15.31,0,0,0,2,.82c.66.27,1.28.65,1.37,1.12-.2.22-.79.1-1.2.17s-.64.36-.59.61a1.27,1.27,0,0,0,.55.67,12.36,12.36,0,0,0,2.85,1.63c.68.28,1.49.61,1.52,1.09s-.34.74.05,1a1.66,1.66,0,0,0,.49.16,5,5,0,0,0,3.49-.58c.13-.09.26-.21.21-.32s-.17-.15-.3-.21a17.07,17.07,0,0,0-2.88-1,13.36,13.36,0,0,1-1.79-.49,5.2,5.2,0,0,1-1.88-1.43c-.25-.27-.5-.57-.35-.87s.47-.4.54-.63c.14-.45-.75-1-.22-1.3a2.12,2.12,0,0,1,1.59.09c.5.16,1.27.27,1.54,0-.17-.22-.33-.45-.5-.68a3.74,3.74,0,0,1,2.27.14,10,10,0,0,0,3,.24,1.74,1.74,0,0,0,.72-.16.36.36,0,0,0,0-.64A2.6,2.6,0,0,0,330,548c-1.85-.5-3.9-.68-5.84-1s-3.88-1-4.8-2c-.31-.35-.43-.85.13-1.08a3,3,0,0,1,1.6,0c2.4.45,4.92.6,7.35,1s4.85,1.06,6.23,2.28a15.89,15.89,0,0,0,2.16,2.09c.77.48,1.94.94,1.7,1.57-.11.27-.49.5-.5.78,0,.48.93.72,1.52,1.06,1.06.6,1,1.68,2.2,2.21.46.21,1.06.3,1.49.53s.62.69.13.87c-.31.12-.78.09-.95.27s.37.49.84.45.88-.23,1.35-.24a4.3,4.3,0,0,1,.72.09l3.55.71c1.17.23,2.52.57,2.74,1.27a4.08,4.08,0,0,1-2.36.29,13.38,13.38,0,0,0-4.28.48,1.92,1.92,0,0,0-1.09.58c-.4.63.91,1.48.05,1.94a.48.48,0,0,1-.18.07.75.75,0,0,1-.3,0,3.53,3.53,0,0,1-1.51-1,2.42,2.42,0,0,0-1.94-.61c-.21,0-.4.11-.61.17a3.68,3.68,0,0,1-2.49-.43,2.91,2.91,0,0,1-1.38-1.46,5,5,0,0,0-.37-1.18,1.79,1.79,0,0,0-1.54-.7.9.9,0,0,0-.55,1.17,3.6,3.6,0,0,0,.93,1.14c.84.82,1.55,1.69,2.48,2.47a8.35,8.35,0,0,0,3.51,1.88,1.84,1.84,0,0,0,1.55.24,6.78,6.78,0,0,1,.68-.23,3.8,3.8,0,0,1,1.06.06c1,.13,2,0,2.93.22s1.75.83,1.2,1.31a3.66,3.66,0,0,1-1.93.41c-.7,0-1.55.19-1.7.59a18,18,0,0,1,3.88.87,6.56,6.56,0,0,0,1.58.44c.58.06,1.27-.07,1.47-.39s-.33-.85,0-1.23a2,2,0,0,1,1.06-.44,6.09,6.09,0,0,1,3.17,0c.67.25,1.07.73,1.83.87a10.09,10.09,0,0,0,1.74,0c.58,0,1.27.21,1.24.54-1.07.25-.76,1.3-1.73,1.65a4.23,4.23,0,0,1-1.1.16,5.82,5.82,0,0,0-3.54,1.42,5.65,5.65,0,0,0,2.19.44,6,6,0,0,1,2.21.41c.6.29.76.92.11,1.17a3.14,3.14,0,0,1-1.64,0L354,571.7a2.36,2.36,0,0,0-.79-.05c-.26,0-.48.21-.38.35a.63.63,0,0,0,.12.1c1.5,1,4.27.76,6.38,1.26a23.25,23.25,0,0,0,2.39.62c.85.11,1.93-.06,2.2-.54.4-.71-1.2-1.35-1.09-2.09a5.26,5.26,0,0,1,1.11.33c.38.1,1,0,1-.21s-.26-.27-.37-.42c-.26-.33.37-.7,1-.72a5.73,5.73,0,0,1,1.76.34c1.56.44,3.29.61,4.94.91a8.53,8.53,0,0,1,4.18,1.67A6.38,6.38,0,0,1,374,573a9.34,9.34,0,0,0-2.48-.35c-.86.05-1.73.47-1.61,1l3.36.39c3.49.4,7.37,1,9.24,2.69a5,5,0,0,0-1.51.67c-.38.29-.5.73-.1,1s1.36.26,1.55-.09-.51-.77-.25-1.13a1.39,1.39,0,0,1,1.22-.24,3,3,0,0,1,1.07.53l1.46,1c.58.4,1.19.91.83,1.39s-1.11.6-1,1a2.15,2.15,0,0,1-.33,1.77c.18.32,1,.29,1.46.47.76.28.58.92.68,1.44.15.81,1.19,1.48,1.53,2.28a.44.44,0,0,1,0,.43,1.28,1.28,0,0,1-.38.27L388,588a1.38,1.38,0,0,1-.43.17c-.64.11-1-.44-1.59-.61a1.39,1.39,0,0,0-1.55.57c-.13.4.17.8.5,1.16.95,1,2.2,2,2.64,3.14a.88.88,0,0,1,0,.79A1.18,1.18,0,0,1,386.6,593.64Zm-87.78-48.29a10,10,0,0,1,3.08.51c.11.06.23.13.2.22s-.12.11-.22.15a4.31,4.31,0,0,1-1.42.24c.31.6,1.55.85,2.63.91s2.23.13,2.53.67a2.07,2.07,0,0,1,.13.4c.18.42.93.71,1.69.73a3.89,3.89,0,0,0,2-.5L307,547.33c-.17-.1-.34-.25-.18-.35s.42,0,.62.06.56.06.53-.07c-.1-.45-.76-.79-1.45-1s-1.47-.3-2.18-.49a9.25,9.25,0,0,1-3.5-2c-.49,0-.39.46-.63.7a1.61,1.61,0,0,1-1.32.16c-.68-.16-2.32-.89-2.5-.05C296.3,544.91,298.05,545.28,298.82,545.35Zm7.16,9.47a2.79,2.79,0,0,0-1.89-1.28c-.74-.19-1.58-.22-2.35-.37a10.08,10.08,0,0,1-3.05-1.31,3.58,3.58,0,0,1-.84-.59c-.19-.22-.28-.47-.57-.65-.7-.43-1.93-.13-3-.13a5.28,5.28,0,0,1-1.87-.4,11.68,11.68,0,0,0-1.46-.81c-1.48-.29.27,1.36.75,1.64a9.7,9.7,0,0,0,2.35.83l3.52.94a3.06,3.06,0,0,1,.91.33,3,3,0,0,1,.52.47,5.84,5.84,0,0,0,3.09,1.24A20.57,20.57,0,0,0,306,554.82ZM292.09,567.1c0-.15-.08-.3-.22-.43a1.77,1.77,0,0,0-1.08-.57,2.69,2.69,0,0,0-1.73.55c-1,.64-3.81,1.49-3.15,2.52.83,1.32,2.71-.29,3.33-.84a2.69,2.69,0,0,1,1.16-.68c.31-.08.66-.1,1-.16S292,567.3,292.09,567.1Zm-4.6,16.29c.4-.22.2-.62-.16-.86a7.49,7.49,0,0,0-3.17-.7l-3.07-.23a7.08,7.08,0,0,0-1.84,0,10.82,10.82,0,0,0-1.33.39c-1.4.42-7.5.16-5.28,1.77a5.22,5.22,0,0,0,2.88.86c1.88,0,2.37-1.36,4.09-1.51a11.44,11.44,0,0,1,2.46.32c1.25.14,2.55-.18,3.79,0A3.18,3.18,0,0,0,287.49,583.39Zm4.38,1.56c-.35-.05-.72-.06-1.05-.13a3.47,3.47,0,0,1-1.26-.63,1.1,1.1,0,0,0-.7.6,1.58,1.58,0,0,1-1.13,1c-.59.23-.87.14-1.14.58-.36.6-.56,1.88.9,1.89a10,10,0,0,0,1.91-.18,13.59,13.59,0,0,0,1.93-.55,2,2,0,0,1,.59-.13,1,1,0,0,1,.89.59,1,1,0,0,0,.76.67,1.4,1.4,0,0,0,.54,0c.75-.13,1.3-.58,1.25-1a1.59,1.59,0,0,0-.47-.8A4.77,4.77,0,0,0,291.87,585Zm3.31-4.48c.27-.67-.82-1.24-1.79-1.64a3.43,3.43,0,0,0-1.22-.32c-.27,0-.54,0-.8,0a2.4,2.4,0,0,1-.77-.25,13.67,13.67,0,0,0-4.58-1,16.35,16.35,0,0,1-2-.16c-1.39-.26-1.73-1-2.77-1.42-.85-.37-1.85-.1-1.55.6a1.66,1.66,0,0,0,.81.75,9.37,9.37,0,0,0,1.2.41c4.24,1.28,6.66,4,10.63,5.54a3.92,3.92,0,0,0,1.12.29,1.33,1.33,0,0,0,1-.31c.25-.35-.35-.71-.4-1.09S295,581,295.18,580.47Z"/><path class="cls-10" d="M358.83,627.47a3.25,3.25,0,0,1-1.65-.45L240.64,559a3.28,3.28,0,1,1,3.3-5.66l114.89,67,104.64-61.12V464.09a3.28,3.28,0,1,1,6.56,0v96.2a3.28,3.28,0,0,1-1.52,3.64L360.49,627A3.29,3.29,0,0,1,358.83,627.47Z"/><path class="cls-11" d="M358.83,625.5a1.41,1.41,0,0,1-.66-.17l-116.54-68a1.31,1.31,0,1,1,1.32-2.26l115.88,67.62,106.61-62.26V464.09a1.31,1.31,0,1,1,2.62,0V560.6a1.31,1.31,0,0,1-.55,1.64l-108,63.08A1.28,1.28,0,0,1,358.83,625.5Z"/><path class="cls-10" d="M234.58,723.37a3.31,3.31,0,0,1-1.64-.44l-43.4-25.08a3.28,3.28,0,0,1,3.28-5.68l41.76,24.14,251.25-145V476.09a3.28,3.28,0,1,1,6.55,0v97.13a3.25,3.25,0,0,1-1.64,2.84L236.22,722.93A3.2,3.2,0,0,1,234.58,723.37Z"/><path class="cls-11" d="M234.58,721.41a1.31,1.31,0,0,1-.66-.18l-43.4-25.08a1.31,1.31,0,0,1,1.31-2.27l42.75,24.7L487.79,572.47V476.09a1.32,1.32,0,0,1,2.63,0v97.13a1.31,1.31,0,0,1-.66,1.14L235.23,721.23A1.25,1.25,0,0,1,234.58,721.41Z"/><path class="cls-10" d="M322.13,775.26a3.28,3.28,0,0,1-1.64-6.12l98.71-57-62-35.91a3.27,3.27,0,0,1,0-5.67l150.26-86.75V487.25a3.28,3.28,0,0,1,6.56,0v98.46a3.3,3.3,0,0,1-1.64,2.84l-147,84.86,62,35.91a3.28,3.28,0,0,1,0,5.67L323.77,774.82A3.26,3.26,0,0,1,322.13,775.26Z"/><path class="cls-11" d="M322.13,773.29a1.3,1.3,0,0,1-1.13-.65,1.31,1.31,0,0,1,.48-1.8l101.66-58.69-65-37.61a1.33,1.33,0,0,1-.65-1.14,1.3,1.3,0,0,1,.66-1.13L509.42,585v-97.7a1.31,1.31,0,1,1,2.62,0v98.46a1.29,1.29,0,0,1-.66,1.13L361.45,673.41l65,37.61a1.3,1.3,0,0,1,.66,1.13,1.32,1.32,0,0,1-.66,1.14L322.79,773.12A1.33,1.33,0,0,1,322.13,773.29Z"/><path class="cls-10" d="M646.24,816.38a3.28,3.28,0,0,1-1.65-6.11l79.9-46.56L529.65,651.17a3.28,3.28,0,0,1,0-5.69l42.65-24.23V519.52a3.28,3.28,0,0,1,6.56,0V623.16a3.29,3.29,0,0,1-1.66,2.85l-39.33,22.34L732.67,760.86a3.29,3.29,0,0,1,0,5.67l-84.79,49.41A3.29,3.29,0,0,1,646.24,816.38Z"/><path class="cls-11" d="M646.24,814.41a1.31,1.31,0,0,1-.66-2.44l82.83-48.27L530.63,649.46a1.32,1.32,0,0,1-.65-1.14,1.29,1.29,0,0,1,.66-1.13l43.65-24.79V519.52a1.31,1.31,0,1,1,2.62,0V623.16a1.31,1.31,0,0,1-.66,1.14l-42.32,24L731.68,762.56a1.3,1.3,0,0,1,.66,1.13,1.33,1.33,0,0,1-.65,1.14L646.9,814.24A1.33,1.33,0,0,1,646.24,814.41Z"/><path class="cls-10" d="M577.2,800.23a3.2,3.2,0,0,1-1.63-.44l-43.25-25a3.28,3.28,0,0,1,0-5.68l79.44-45.8L486.93,651.27a3.28,3.28,0,0,1,0-5.68l63.75-36.21V509.79a3.28,3.28,0,1,1,6.55,0v101.5a3.27,3.27,0,0,1-1.66,2.85l-60.42,34.32L620,720.5a3.28,3.28,0,0,1,0,5.68L540.52,772l38.32,22.13a3.28,3.28,0,0,1-1.64,6.12Z"/><path class="cls-11" d="M577.2,798.26a1.28,1.28,0,0,1-.65-.18l-43.25-25a1.31,1.31,0,0,1,0-2.28l82.39-47.5L487.92,649.57a1.3,1.3,0,0,1,0-2.27l64.73-36.77V509.79a1.32,1.32,0,1,1,2.63,0v101.5a1.32,1.32,0,0,1-.67,1.14l-63.41,36L619,722.21a1.29,1.29,0,0,1,.66,1.13,1.31,1.31,0,0,1-.66,1.14L536.58,772l41.28,23.83a1.31,1.31,0,0,1,.48,1.79A1.29,1.29,0,0,1,577.2,798.26Z"/><path class="cls-10" d="M516.13,910.46a3.27,3.27,0,0,1-1.64-6.11l54-31.19-147-84.9a3.27,3.27,0,0,1,0-5.68l103.24-59L422.05,663.75a3.28,3.28,0,0,1,0-5.67l107-61.78V498.09a3.28,3.28,0,0,1,6.56,0v100.1A3.26,3.26,0,0,1,534,601l-103.75,59.9,102.7,59.89a3.28,3.28,0,0,1,0,5.68L429.7,785.44l147,84.88a3.28,3.28,0,0,1,0,5.68l-58.94,34A3.26,3.26,0,0,1,516.13,910.46Z"/><path class="cls-11" d="M516.13,908.5a1.33,1.33,0,0,1-1.14-.66,1.32,1.32,0,0,1,.48-1.79l57-32.89-150-86.6a1.31,1.31,0,0,1-.66-1.14,1.29,1.29,0,0,1,.66-1.13l106.21-60.65L423,662.05a1.31,1.31,0,0,1,0-2.27l108-62.34V498.09a1.31,1.31,0,1,1,2.62,0v100.1a1.33,1.33,0,0,1-.65,1.14l-106.69,61.6L532,722.52a1.31,1.31,0,0,1,0,2.27L425.75,785.43l150,86.59a1.33,1.33,0,0,1,.65,1.14,1.31,1.31,0,0,1-.65,1.13l-59,34A1.28,1.28,0,0,1,516.13,908.5Z"/><ellipse class="cls-12" cx="322.13" cy="771.98" rx="78" ry="44.51" transform="translate(-14.43 6.18) rotate(-1.08)"/><path class="cls-13" d="M341.28,783c-10.58,6.11-27.72,6.11-38.29,0s-10.58-16,0-22.1,27.71-6.11,38.29,0S351.85,776.93,341.28,783Z"/><path class="cls-14" d="M326.91,774.74a10.53,10.53,0,0,1-9.56,0c-2.64-1.52-2.64-4,0-5.52a10.53,10.53,0,0,1,9.56,0C329.56,770.74,329.56,773.22,326.91,774.74Z"/><ellipse class="cls-15" cx="516.05" cy="907.19" rx="78" ry="44.51" transform="translate(-16.93 9.84) rotate(-1.08)"/><ellipse class="cls-16" cx="516.05" cy="907.19" rx="27.07" ry="15.63"/><path class="cls-17" d="M520.83,910a10.59,10.59,0,0,1-9.56,0c-2.65-1.53-2.65-4,0-5.53a10.59,10.59,0,0,1,9.56,0C523.47,906,523.47,908.42,520.83,910Z"/><ellipse class="cls-18" cx="242.14" cy="556.98" rx="78" ry="44.51" transform="translate(-10.41 4.64) rotate(-1.08)"/><path class="cls-19" d="M261.28,568c-10.57,6.1-27.71,6.1-38.29,0s-10.57-16,0-22.11,27.72-6.1,38.29,0S271.85,561.93,261.28,568Z"/><path class="cls-20" d="M246.92,559.74a10.55,10.55,0,0,1-9.57,0c-2.64-1.52-2.64-4,0-5.52a10.61,10.61,0,0,1,9.57,0C249.56,555.75,249.56,558.22,246.92,559.74Z"/><ellipse class="cls-21" cx="191.18" cy="695.37" rx="78" ry="44.51" transform="translate(-13.01 3.71) rotate(-1.08)"/><path class="cls-22" d="M210.32,706.42c-10.57,6.11-27.71,6.11-38.29,0s-10.57-16,0-22.1,27.72-6.11,38.29,0S220.89,700.32,210.32,706.42Z"/><path class="cls-23" d="M196,698.13a10.59,10.59,0,0,1-9.56,0c-2.65-1.53-2.65-4,0-5.52a10.53,10.53,0,0,1,9.56,0C198.6,694.13,198.6,696.6,196,698.13Z"/><g class="cls-24"><path class="cls-25" d="M679.71,463.87c-46.51,26.86-84.7,52.92-85.31,58.22s36.61-12.18,83.12-39,84.71-52.92,85.31-58.22S726.22,437,679.71,463.87Z"/><path class="cls-26" d="M678,472.77c-1.41.82-2.26,1.79-1.89,2.17s1.81,0,3.22-.78,2.27-1.79,1.9-2.18S679.37,472,678,472.77Z"/></g><ellipse class="cls-27" cx="560.47" cy="341.3" rx="115.67" ry="9.2" transform="translate(-95.63 329.06) rotate(-30.27)"/><path class="cls-28" d="M559.69,340.48c-1.68,1-2.69,2.12-2.26,2.58s2.15,0,3.83-.93,2.69-2.13,2.26-2.58S561.37,339.51,559.69,340.48Z"/><g class="cls-29"><path class="cls-11" d="M708.35,569.1c-7.36,0-15.49-2.45-23.89-7.3l-207-119.51c-29-16.72-52.53-57.53-52.53-91,0-15.4,5-27.35,14.09-33.66,7.7-5.35,17.92-6.25,28.94-2.59,3.74-19.34,13.57-33.62,27.82-40.32,16.52-7.76,37.82-5,59.95,7.79,31.16,18,60.23,54,76,94.17,20.64,12.68,39.36,35,51.48,61.27l2.83,1.63c29,16.72,52.52,57.53,52.52,91,0,16.54-5.65,28.91-15.93,34.84A28.08,28.08,0,0,1,708.35,569.1ZM455.15,316a24.76,24.76,0,0,0-14.35,4.24C432.57,325.91,428,337,428,351.32c0,32.45,22.87,72.06,51,88.29L686,559.12c13.32,7.69,25.77,9,35,3.62s14.39-16.77,14.39-32.16c0-32.45-22.87-72.06-51-88.29l-3.68-2.12-.21-.45c-11.77-25.77-30.81-48.43-50.93-60.63l-.45-.27-.19-.49c-15.44-39.71-44.11-75.38-74.81-93.11-21.23-12.26-41.5-15-57.08-7.66C483.36,284,474,298.16,470.7,317.4l-.32,1.84-1.75-.65A38.86,38.86,0,0,0,455.15,316Z"/></g><g class="cls-30"><path class="cls-11" d="M732.31,554.69c-7.36,0-15.49-2.44-23.89-7.29l-207-119.51c-29-16.72-52.53-57.53-52.53-91,0-15.4,5-27.36,14.09-33.66,7.7-5.35,17.93-6.25,28.94-2.59,3.74-19.35,13.57-33.63,27.82-40.32,16.52-7.76,37.82-5,60,7.79,31.16,18,60.23,54,76,94.17C676.3,375,695,397.26,707.14,423.58l2.83,1.63c29,16.72,52.52,57.53,52.52,91,0,16.54-5.65,28.91-15.93,34.84A28.17,28.17,0,0,1,732.31,554.69ZM479.11,301.56a24.82,24.82,0,0,0-14.36,4.24c-8.22,5.71-12.75,16.76-12.75,31.12,0,32.45,22.87,72.06,51,88.29l207,119.5c13.32,7.7,25.77,9,35,3.63s14.39-16.78,14.39-32.16c0-32.46-22.87-72.06-51-88.29l-3.68-2.13-.21-.45c-11.77-25.76-30.81-48.43-50.92-60.62l-.45-.28-.19-.49c-15.45-39.7-44.12-75.38-74.82-93.1-21.23-12.26-41.5-15-57.08-7.67-13.75,6.46-23.13,20.61-26.41,39.85l-.32,1.84-1.75-.65A38.63,38.63,0,0,0,479.11,301.56Z"/></g><g class="cls-31"><path class="cls-11" d="M749.45,545.55c-7.36,0-15.49-2.45-23.89-7.3l-207-119.51c-29-16.72-52.53-57.53-52.53-91,0-15.4,5-27.35,14.09-33.66,7.7-5.34,17.93-6.24,28.94-2.58,3.74-19.35,13.57-33.63,27.82-40.32,16.52-7.76,37.81-5,60,7.78,31.16,18,60.23,54.05,76,94.18,20.64,12.67,39.37,34.95,51.48,61.26l2.83,1.63c29,16.72,52.52,57.53,52.52,91,0,16.53-5.66,28.91-15.93,34.84A28.17,28.17,0,0,1,749.45,545.55ZM496.25,292.42a24.76,24.76,0,0,0-14.35,4.24c-8.23,5.71-12.76,16.76-12.76,31.11,0,32.46,22.87,72.06,51,88.29l207,119.51c13.32,7.69,25.77,9,35,3.63s14.38-16.78,14.38-32.16c0-32.46-22.86-72.07-51-88.29l-3.68-2.13-.21-.45c-11.77-25.76-30.81-48.43-50.93-60.63l-.45-.27-.19-.49c-15.44-39.7-44.11-75.38-74.81-93.11-21.23-12.25-41.5-15-57.08-7.66-13.75,6.46-23.13,20.61-26.41,39.84l-.32,1.85-1.75-.66A38.84,38.84,0,0,0,496.25,292.42Z"/></g><polygon class="cls-32" points="367.41 360.68 400.92 341.44 396.04 365.26 367.41 360.68"/><path class="cls-33" d="M437.54,335.39a73.55,73.55,0,0,1,4.3-15.39H420.19l41.27-23.82.37-.21.5-.29c15.69-8.71,37.23-7.28,61,6.45,32.26,18.62,60.4,55.11,75.48,93.88,21.25,12.89,40,36,51.54,61.31l3.25,1.88c28.58,16.5,51.75,56.63,51.75,89.63,0,16.54-5.82,28.15-15.23,33.54l-42.57,24.57-1.08-32.35L446.61,459.2c-28.58-16.5-51.75-56.63-51.75-89.63C394.86,340.14,413.28,326.34,437.54,335.39Z"/><path class="cls-34" d="M395.36,359.74c7.31-42.85,42.93-58,85.79-33.26,32.26,18.62,60.4,55.11,75.49,93.88,21.24,12.89,40,36,51.53,61.31l3.25,1.88c28.58,16.5,51.75,56.63,51.75,89.63S640,619.56,611.42,603.06l-207-119.51c-28.58-16.5-51.75-56.63-51.75-89.63C352.68,364.49,371.11,350.69,395.36,359.74Z"/><path class="cls-11" d="M663.17,574.73a1.54,1.54,0,0,1-1.54-1.49c-2.56-62.36-53.66-89.93-54.18-90.2l-.47-.25-.22-.48c-18.67-41.41-50.58-60.42-50.9-60.61l-.44-.25-.2-.47c-24.78-56.82-55.37-82.3-76.66-93.68-23-12.29-40.45-11.19-40.62-11.18a1.54,1.54,0,0,1-1.66-1.43,1.56,1.56,0,0,1,1.43-1.66c.73,0,18.31-1.2,42.09,11.43,21.74,11.55,52.9,37.37,78.06,94.84,4,2.48,33.63,22,51.51,61.27,5.33,3,52.86,31.65,55.35,92.55a1.55,1.55,0,0,1-1.48,1.61Z"/><g class="cls-24"><path class="cls-11" d="M393.92,360.78a1.55,1.55,0,0,1-.66-.15,30.49,30.49,0,0,0-15.75-1.76,1.55,1.55,0,1,1-.42-3.07,33,33,0,0,1,17.5,2,1.55,1.55,0,0,1-.67,2.95Z"/></g><path class="cls-35" d="M443.07,392.41l33.12,19.12c2.2,1.27,4-.08,4-3v-40c0-2.94-1.79-6.36-4-7.63l-33.12-19.12c-2.2-1.27-4,.08-4,3v40C439.08,387.72,440.87,391.14,443.07,392.41Z"/><path class="cls-36" d="M414.89,447.31,448,466.43c2.2,1.28,4-.08,4-3v-40c0-2.94-1.79-6.36-4-7.64l-33.12-19.11c-2.2-1.28-4,.07-4,3v40C410.9,442.62,412.69,446,414.89,447.31Z"/><path class="cls-36" d="M511,491.18l20.37,11.76c1.36.78,2.46-.05,2.46-1.86V476.49a5.86,5.86,0,0,0-2.46-4.69L511,460c-1.35-.79-2.45,0-2.45,1.86v24.58A5.92,5.92,0,0,0,511,491.18Z"/><path class="cls-37" d="M468.68,422.88l20.46,11.81c1.36.79,2.46-.05,2.46-1.86V408.14a5.92,5.92,0,0,0-2.46-4.72l-20.46-11.8c-1.36-.79-2.46,0-2.46,1.86v24.69A5.89,5.89,0,0,0,468.68,422.88Z"/><path class="cls-37" d="M528.33,433.15l12.95,7.48c.87.49,1.56,0,1.56-1.19V423.81a3.73,3.73,0,0,0-1.56-3l-12.95-7.48c-.87-.5-1.57,0-1.57,1.18v15.64A3.74,3.74,0,0,0,528.33,433.15Z"/><path class="cls-37" d="M477.74,495.24l13,7.48c.86.5,1.56,0,1.56-1.18V485.9a3.76,3.76,0,0,0-1.56-3l-13-7.48c-.86-.5-1.56,0-1.56,1.18v15.64A3.76,3.76,0,0,0,477.74,495.24Z"/><path class="cls-37" d="M500.2,385.9l12.95,7.48c.87.5,1.57,0,1.57-1.18V376.56a3.74,3.74,0,0,0-1.57-3L500.2,366.1c-.86-.5-1.56,0-1.56,1.18v15.64A3.74,3.74,0,0,0,500.2,385.9Z"/><path class="cls-37" d="M531.77,536.4l26.3,15.18c1.75,1,3.17-.06,3.17-2.4V517.43a7.59,7.59,0,0,0-3.17-6.06l-26.3-15.19c-1.76-1-3.18.06-3.18,2.4v31.75A7.61,7.61,0,0,0,531.77,536.4Z"/><path class="cls-38" d="M374.81,445l26.3,15.19c1.75,1,3.17-.06,3.17-2.4V426.06a7.62,7.62,0,0,0-3.17-6.07l-26.3-15.18c-1.76-1-3.18.06-3.18,2.4V439A7.57,7.57,0,0,0,374.81,445Z"/><path class="cls-36" d="M488.17,408.33l11.65,6.73c.78.45,1.41,0,1.41-1.07V399.93a3.36,3.36,0,0,0-1.41-2.69l-11.65-6.73c-.78-.45-1.41,0-1.41,1.06v14.07A3.36,3.36,0,0,0,488.17,408.33Z"/><path class="cls-39" d="M377.41,395.3,389.06,402c.78.45,1.41,0,1.41-1.06V386.9a3.36,3.36,0,0,0-1.41-2.69l-11.65-6.73c-.78-.45-1.41,0-1.41,1.07v14.06A3.36,3.36,0,0,0,377.41,395.3Z"/><path class="cls-39" d="M502.7,463.89l11.65,6.73c.78.45,1.41,0,1.41-1.07V455.49a3.36,3.36,0,0,0-1.41-2.69l-11.65-6.73c-.78-.45-1.41,0-1.41,1.06V461.2A3.36,3.36,0,0,0,502.7,463.89Z"/><path class="cls-39" d="M481.38,478,493,484.77c.78.45,1.41,0,1.41-1.06V469.64A3.36,3.36,0,0,0,493,467l-11.65-6.73c-.78-.44-1.41,0-1.41,1.07v14.07A3.36,3.36,0,0,0,481.38,478Z"/><path class="cls-36" d="M569.72,545.07l11.65,6.72c.78.45,1.41,0,1.41-1.06V536.66a3.36,3.36,0,0,0-1.41-2.68l-11.65-6.73c-.78-.45-1.41,0-1.41,1.06v14.07A3.38,3.38,0,0,0,569.72,545.07Z"/><path class="cls-36" d="M557.43,518.74l11.66,6.73c.77.45,1.4,0,1.4-1.06V510.34a3.38,3.38,0,0,0-1.4-2.69l-11.66-6.73c-.77-.44-1.4,0-1.4,1.07v14.07A3.38,3.38,0,0,0,557.43,518.74Z"/><path class="cls-36" d="M469.29,449.4,481,456.13c.77.45,1.4,0,1.4-1.06V441a3.4,3.4,0,0,0-1.4-2.69l-11.66-6.72c-.77-.45-1.4,0-1.4,1.06v14.07A3.38,3.38,0,0,0,469.29,449.4Z"/><path class="cls-36" d="M515.34,418.7,527,425.43c.78.45,1.41,0,1.41-1.07V410.3a3.36,3.36,0,0,0-1.41-2.69l-11.65-6.73c-.78-.45-1.41,0-1.41,1.06V416A3.36,3.36,0,0,0,515.34,418.7Z"/><path class="cls-36" d="M435.42,440.53l11.65,6.73c.78.45,1.41,0,1.41-1.06V432.13a3.38,3.38,0,0,0-1.41-2.69l-11.65-6.72c-.78-.45-1.41,0-1.41,1.06v14.07A3.34,3.34,0,0,0,435.42,440.53Z"/><path class="cls-36" d="M562.54,497.23l17.13,9.89c1.14.66,2.07,0,2.07-1.57V484.87a5,5,0,0,0-2.07-3.95L562.54,471c-1.14-.66-2.07,0-2.07,1.57v20.68A5,5,0,0,0,562.54,497.23Z"/><path class="cls-40" d="M449.59,423.34l11.66,6.72c.77.45,1.4,0,1.4-1.06V414.93a3.36,3.36,0,0,0-1.4-2.68l-11.66-6.73c-.77-.45-1.4,0-1.4,1.06v14.07A3.4,3.4,0,0,0,449.59,423.34Z"/><path class="cls-40" d="M525.38,474.37l17.38,10c1.16.67,2.1,0,2.1-1.59v-21a5,5,0,0,0-2.1-4l-17.38-10c-1.16-.67-2.1,0-2.1,1.59v21A5,5,0,0,0,525.38,474.37Z"/><path class="cls-40" d="M500.11,425.23l15.63,9c1,.6,1.89,0,1.89-1.43V414a4.51,4.51,0,0,0-1.89-3.61l-15.63-9c-1-.61-1.89,0-1.89,1.42v18.87A4.53,4.53,0,0,0,500.11,425.23Z"/><path class="cls-41" d="M425,393.18l17.1,9.87c1.14.66,2.06,0,2.06-1.56V380.85a4.93,4.93,0,0,0-2.06-3.94L425,367c-1.14-.66-2.06,0-2.06,1.56v20.64A4.93,4.93,0,0,0,425,393.18Z"/><path class="cls-41" d="M443.64,481.94l19.85,11.46c1.32.76,2.39,0,2.39-1.81v-24a5.76,5.76,0,0,0-2.39-4.58L443.64,451.6c-1.32-.77-2.39,0-2.39,1.81v23.95A5.73,5.73,0,0,0,443.64,481.94Z"/><path class="cls-36" d="M403.6,402.06l22.24,12.84c1.48.86,2.68,0,2.68-2V386a6.44,6.44,0,0,0-2.68-5.13L403.6,368.06c-1.48-.85-2.68.06-2.68,2v26.85A6.42,6.42,0,0,0,403.6,402.06Z"/><path class="cls-36" d="M403.06,451.31l15.67,9.05c1,.61,1.89,0,1.89-1.43V440a4.53,4.53,0,0,0-1.89-3.62l-15.67-9c-1-.6-1.89,0-1.89,1.43V447.7A4.53,4.53,0,0,0,403.06,451.31Z"/><path class="cls-36" d="M503.6,529.15l15.68,9.05c1,.6,1.89,0,1.89-1.43V517.85a4.53,4.53,0,0,0-1.89-3.61l-15.68-9.05c-1-.6-1.89,0-1.89,1.43v18.92A4.53,4.53,0,0,0,503.6,529.15Z"/><path class="cls-36" d="M501.32,442.43l4.8,2.77c.32.18.58,0,.58-.44V439a1.38,1.38,0,0,0-.58-1.11l-4.8-2.77c-.32-.19-.58,0-.58.44v5.79A1.4,1.4,0,0,0,501.32,442.43Z"/><path class="cls-36" d="M538.61,494.44l4.8,2.77c.32.19.58,0,.58-.44V491a1.36,1.36,0,0,0-.58-1.1l-4.8-2.78c-.32-.18-.57,0-.57.44v5.79A1.37,1.37,0,0,0,538.61,494.44Z"/><path class="cls-36" d="M428.64,474.32l4.8,2.77c.32.18.57,0,.57-.44v-5.79a1.39,1.39,0,0,0-.57-1.11l-4.8-2.77c-.32-.18-.58,0-.58.44v5.79A1.4,1.4,0,0,0,428.64,474.32Z"/><path class="cls-36" d="M497.67,527.92l4.8,2.77c.32.19.58,0,.58-.44v-5.79a1.38,1.38,0,0,0-.58-1.1l-4.8-2.78c-.32-.18-.58,0-.58.44v5.8A1.38,1.38,0,0,0,497.67,527.92Z"/><path class="cls-36" d="M501.32,507.25l4.8,2.77c.32.18.58,0,.58-.44v-5.79a1.4,1.4,0,0,0-.58-1.11l-4.8-2.77c-.32-.18-.58,0-.58.44v5.79A1.4,1.4,0,0,0,501.32,507.25Z"/><path class="cls-36" d="M580.38,503l4.8,2.77c.32.18.58,0,.58-.44v-5.79a1.4,1.4,0,0,0-.58-1.11l-4.8-2.77c-.32-.18-.58,0-.58.44v5.79A1.4,1.4,0,0,0,580.38,503Z"/><path class="cls-36" d="M539.68,465.88l22.24,12.84c1.48.86,2.68-.05,2.68-2V449.85a6.44,6.44,0,0,0-2.68-5.13l-22.24-12.84c-1.48-.86-2.69.05-2.69,2v26.84A6.43,6.43,0,0,0,539.68,465.88Z"/><g class="cls-24"><path class="cls-42" d="M722.81,328c-55.23,31.89-100.58,62.84-101.3,69.13s43.48-14.46,98.7-46.35,100.58-62.83,101.3-69.12S778,296.09,722.81,328Z"/><path class="cls-43" d="M720.73,338.54c-1.68,1-2.69,2.12-2.26,2.58s2.15,0,3.83-.94,2.69-2.12,2.26-2.58S722.41,337.57,720.73,338.54Z"/></g><g class="cls-44"><path class="cls-45" d="M826.51,331.71C780,358.56,741.8,384.62,741.2,389.92s36.61-12.18,83.12-39S909,298,909.63,292.68,873,304.86,826.51,331.71Z"/><path class="cls-46" d="M824.75,340.6c-1.42.82-2.27,1.79-1.9,2.18s1.81,0,3.23-.79,2.26-1.79,1.89-2.17S826.16,339.79,824.75,340.6Z"/></g><path class="cls-47" d="M244.36,771.08l17.06-9.85c1-.59.89-1.62-.28-2.29l-16.5-9.53a4.38,4.38,0,0,0-4-.16l-17.07,9.85c-1,.59-.89,1.61.29,2.29l16.49,9.52A4.43,4.43,0,0,0,244.36,771.08Z"/><path class="cls-39" d="M200.54,778.44l35.65-20.58c2.12-1.22,1.86-3.36-.6-4.78l-34.45-19.89c-2.45-1.42-6.16-1.57-8.29-.35l-35.64,20.58c-2.12,1.23-1.86,3.37.6,4.79l34.45,19.89C194.71,779.51,198.42,779.67,200.54,778.44Z"/><path class="cls-39" d="M192.67,810.25l35.64-20.58c2.13-1.23,1.86-3.37-.59-4.79L193.27,765c-2.46-1.41-6.17-1.57-8.29-.34l-35.64,20.58c-2.13,1.22-1.86,3.37.59,4.78l34.45,19.89C186.84,811.32,190.55,811.47,192.67,810.25Z"/><path class="cls-39" d="M167.73,892.1l45-26c2.69-1.55,2.35-4.25-.75-6L168.48,835c-3.1-1.79-7.78-2-10.46-.43l-45,26c-2.69,1.55-2.35,4.26.75,6l43.49,25.11C160.36,893.45,165.05,893.65,167.73,892.1Z"/><path class="cls-48" d="M278.48,862.27l45-26c2.68-1.54,2.34-4.25-.75-6l-43.5-25.12c-3.09-1.78-7.78-2-10.46-.43l-45,26c-2.68,1.55-2.35,4.25.75,6L268,861.84C271.12,863.63,275.8,863.82,278.48,862.27Z"/><path class="cls-48" d="M196.3,834.76,220.17,821c1.42-.82,1.24-2.26-.4-3.21L196.7,804.45a6.17,6.17,0,0,0-5.55-.23L167.27,818c-1.42.82-1.24,2.26.4,3.21l23.08,13.32A6.17,6.17,0,0,0,196.3,834.76Z"/><g class="cls-24"><path class="cls-48" d="M404.49,845.11l-40.38-23.32c-2.41-1.39-2.1-3.81.67-5.42l39-22.53c2.78-1.61,7-1.78,9.39-.39l40.38,23.31c2.4,1.39,2.1,3.82-.68,5.42l-39,22.54C411.1,846.32,406.9,846.5,404.49,845.11Z"/><path class="cls-39" d="M481.1,871.12,411.64,831c-4.14-2.39-3.62-6.56,1.16-9.32l67.14-38.76c4.78-2.76,12-3.06,16.15-.67l69.46,40.1c4.14,2.39,3.62,6.56-1.16,9.32l-67.14,38.77C492.47,873.21,485.24,873.51,481.1,871.12Z"/><path class="cls-48" d="M423.84,885.29l-45-26c-2.68-1.55-2.34-4.26.75-6l43.5-25.11c3.09-1.79,7.78-2,10.46-.44l45,26c2.68,1.55,2.35,4.25-.75,6L434.3,884.86C431.2,886.65,426.52,886.84,423.84,885.29Z"/></g><path class="cls-39" d="M695.55,903.61l-19.24-11.1c-1.15-.66-1-1.82.32-2.59l18.6-10.73a5,5,0,0,1,4.47-.19l19.24,11.11c1.14.66,1,1.82-.32,2.58L700,903.43A5,5,0,0,1,695.55,903.61Z"/><path class="cls-39" d="M744.07,848.81l-17-9.81c-1-.58-.88-1.6.29-2.28l16.41-9.47a4.39,4.39,0,0,1,4-.17l17,9.81c1,.58.89,1.6-.28,2.28L748,848.64A4.37,4.37,0,0,1,744.07,848.81Z"/><path class="cls-48" d="M732.05,913.13,699,894c-2-1.14-1.73-3.13.55-4.44l32-18.47c2.27-1.32,5.72-1.46,7.69-.32l33.09,19.1c2,1.14,1.73,3.13-.55,4.45l-32,18.46C737.46,914.13,734,914.27,732.05,913.13Z"/><path class="cls-48" d="M668.77,879.15l-21.44-12.38c-1.28-.74-1.12-2,.36-2.88l20.72-12a5.56,5.56,0,0,1,5-.21l21.44,12.38c1.28.74,1.12,2-.36,2.88l-20.72,12A5.53,5.53,0,0,1,668.77,879.15Z"/><path class="cls-48" d="M722.28,844.21l-9.8-5.66c-.59-.33-.51-.92.16-1.31l9.47-5.47a2.52,2.52,0,0,1,2.28-.09l9.8,5.65c.59.34.51.93-.16,1.32l-9.47,5.47A2.52,2.52,0,0,1,722.28,844.21Z"/><path class="cls-39" d="M320.54,918.18,301.3,907.07c-1.15-.66-1-1.82.32-2.58l18.6-10.74a5,5,0,0,1,4.47-.19l19.24,11.11c1.14.66,1,1.82-.32,2.58L325,918A5,5,0,0,1,320.54,918.18Z"/><path class="cls-39" d="M369.05,863.37l-17-9.81c-1-.58-.88-1.6.29-2.28l16.41-9.47a4.39,4.39,0,0,1,4-.17l17,9.81c1,.58.89,1.6-.28,2.28L373,863.2A4.39,4.39,0,0,1,369.05,863.37Z"/><path class="cls-48" d="M357,927.69l-33.1-19.1c-2-1.14-1.72-3.13.56-4.44l32-18.47c2.28-1.32,5.73-1.46,7.7-.32l33.09,19.1c2,1.14,1.73,3.13-.55,4.45l-32,18.46C362.45,928.69,359,928.83,357,927.69Z"/><path class="cls-48" d="M293.76,893.71l-21.44-12.38c-1.28-.74-1.12-2,.36-2.88l20.72-12a5.56,5.56,0,0,1,5-.21l21.44,12.38c1.28.74,1.12,2-.36,2.88l-20.72,12A5.53,5.53,0,0,1,293.76,893.71Z"/><path class="cls-48" d="M347.27,858.77l-9.8-5.65c-.59-.34-.51-.93.16-1.32l9.47-5.47a2.52,2.52,0,0,1,2.28-.09l9.8,5.65c.58.34.51.93-.16,1.32l-9.48,5.47A2.5,2.5,0,0,1,347.27,858.77Z"/><path class="cls-39" d="M295,692.42l-19.24-11.1c-1.15-.66-1-1.82.32-2.59L294.64,668a5,5,0,0,1,4.47-.19l19.24,11.11c1.15.66,1,1.82-.32,2.58l-18.6,10.74A5,5,0,0,1,295,692.42Z"/><path class="cls-39" d="M343.48,637.62l-17-9.81c-1-.58-.89-1.6.28-2.28l16.41-9.47a4.39,4.39,0,0,1,3.95-.17l17,9.81c1,.58.89,1.6-.28,2.28l-16.42,9.47A4.37,4.37,0,0,1,343.48,637.62Z"/><path class="cls-48" d="M331.46,701.94l-33.09-19.1c-2-1.14-1.73-3.13.55-4.45l32-18.46c2.27-1.32,5.72-1.46,7.69-.32l33.09,19.1c2,1.14,1.73,3.13-.55,4.45l-32,18.46C336.88,702.94,333.43,703.08,331.46,701.94Z"/><path class="cls-48" d="M268.18,668l-21.44-12.38c-1.28-.74-1.12-2,.36-2.88l20.72-12a5.56,5.56,0,0,1,5-.21l21.44,12.38c1.28.74,1.12,2-.36,2.88l-20.72,12A5.53,5.53,0,0,1,268.18,668Z"/><path class="cls-48" d="M321.69,633l-9.8-5.66c-.59-.33-.51-.92.16-1.31l9.48-5.47a2.5,2.5,0,0,1,2.27-.09l9.8,5.65c.59.34.51.93-.16,1.32L324,632.93A2.52,2.52,0,0,1,321.69,633Z"/><g class="cls-49"><path class="cls-47" d="M80.93,598.68l-17.06-9.85c-1-.59-.89-1.61.28-2.29L80.64,577a4.43,4.43,0,0,1,4-.17l17.06,9.85c1,.59.89,1.62-.28,2.29L84.9,598.52A4.43,4.43,0,0,1,80.93,598.68Z"/><path class="cls-39" d="M124.74,606.05,89.1,585.47c-2.13-1.23-1.86-3.37.59-4.79l34.46-19.89c2.45-1.41,6.16-1.57,8.28-.34L168.08,581c2.12,1.22,1.85,3.37-.6,4.78L133,605.7C130.58,607.12,126.87,607.27,124.74,606.05Z"/><path class="cls-39" d="M132.62,637.85,97,617.27c-2.12-1.22-1.85-3.36.6-4.78L132,592.6c2.45-1.42,6.16-1.57,8.29-.35L176,612.83c2.12,1.23,1.86,3.37-.59,4.79L140.9,637.51C138.45,638.92,134.74,639.08,132.62,637.85Z"/><path class="cls-39" d="M157.56,719.7l-45-26c-2.68-1.54-2.34-4.25.75-6l43.5-25.12c3.09-1.78,7.78-2,10.46-.43l45,26c2.68,1.55,2.35,4.25-.75,6L168,719.27C164.92,721.06,160.24,721.25,157.56,719.7Z"/><path class="cls-39" d="M46.8,689.88l-45-26c-2.68-1.55-2.34-4.25.75-6l43.49-25.11c3.1-1.79,7.78-2,10.46-.43l45,26c2.68,1.55,2.34,4.26-.75,6L57.27,689.44C54.17,691.23,49.49,691.42,46.8,689.88Z"/><path class="cls-48" d="M129,662.36l-23.87-13.78c-1.43-.82-1.25-2.25.4-3.2l23.07-13.32a6.14,6.14,0,0,1,5.55-.23L158,645.61c1.42.82,1.25,2.25-.4,3.2l-23.07,13.32A6.14,6.14,0,0,1,129,662.36Z"/></g><ellipse class="cls-50" cx="575.52" cy="599.12" rx="18.65" ry="40.49" transform="translate(-8.95 8.72) rotate(-0.86)"/><path class="cls-51" d="M572.37,600c-.25-3.79,1-7.23,2.69-7.68s3.35,2.24,3.61,6-.95,7.23-2.69,7.69S572.63,603.73,572.37,600Z"/><ellipse class="cls-52" cx="545.78" cy="639.98" rx="41.46" ry="15.78" transform="translate(-217.8 287.29) rotate(-24.75)"/><path class="cls-51" d="M542.34,638.82c3-2,7.07-3.14,9-2.49s1,2.79-2.09,4.81-7.08,3.14-9,2.5S539.28,640.84,542.34,638.82Z"/><ellipse class="cls-53" cx="543.84" cy="617.1" rx="41.46" ry="15.78" transform="translate(-208.4 284.37) rotate(-24.75)"/><path class="cls-51" d="M540.4,615.94c3.06-2,7.08-3.14,9-2.5s1,2.8-2.1,4.82-7.08,3.14-9,2.5S537.34,618,540.4,615.94Z"/><ellipse class="cls-54" cx="455.26" cy="642.66" rx="41.46" ry="15.78" transform="translate(-227.24 249.63) rotate(-24.75)"/><path class="cls-51" d="M451.81,641.5c3.06-2,7.08-3.14,9-2.5s1,2.8-2.09,4.82-7.08,3.14-9,2.5S448.76,643.52,451.81,641.5Z"/><ellipse class="cls-55" cx="589.84" cy="739.69" rx="41.46" ry="15.78" transform="translate(-255.5 314.89) rotate(-24.75)"/><path class="cls-51" d="M586.4,738.52c3.05-2,7.07-3.13,9-2.49s1,2.8-2.09,4.82-7.08,3.14-9,2.49S583.34,740.55,586.4,738.52Z"/><ellipse class="cls-56" cx="691.47" cy="786.77" rx="41.46" ry="15.78" transform="translate(-265.88 361.77) rotate(-24.75)"/><path class="cls-51" d="M688,785.61c3.05-2,7.07-3.14,9-2.49s1,2.79-2.09,4.82-7.08,3.13-9,2.49S685,787.63,688,785.61Z"/><ellipse class="cls-57" cx="684.7" cy="736.94" rx="15.78" ry="41.46" transform="translate(-271.2 1050.21) rotate(-65.25)"/><path class="cls-51" d="M688.15,735.78c-3.06-2-7.08-3.14-9-2.5s-1,2.8,2.09,4.82,7.08,3.14,9,2.5S691.2,737.8,688.15,735.78Z"/><ellipse class="cls-58" cx="531.29" cy="672.71" rx="15.78" ry="41.46" transform="translate(-302.06 873.56) rotate(-65.25)"/><path class="cls-51" d="M534.73,671.55c-3.06-2-7.08-3.14-9-2.49s-1,2.8,2.1,4.82,7.08,3.13,9,2.49S537.79,673.57,534.73,671.55Z"/><ellipse class="cls-59" cx="507.54" cy="709.69" rx="15.78" ry="41.46" transform="translate(-349.45 873.49) rotate(-65.25)"/><path class="cls-51" d="M511,708.53c-3.05-2-7.07-3.14-9-2.5s-1,2.8,2.09,4.82,7.08,3.14,9,2.5S514,710.55,511,708.53Z"/><path class="cls-60" d="M527.73,827.55c-17.93-11.85-41.51-18.41-52.65-14.65s-5.65,16.42,12.28,28.26,41.5,18.41,52.65,14.65S545.66,839.4,527.73,827.55Z"/><path class="cls-51" d="M511,833.19c-3.05-2-7.07-3.13-9-2.49s-1,2.8,2.09,4.82,7.08,3.14,9,2.49S514,835.22,511,833.19Z"/><ellipse class="cls-61" cx="271.93" cy="573.34" rx="15.78" ry="41.46" transform="translate(-362.59 580.25) rotate(-65.25)"/><ellipse class="cls-51" cx="271.93" cy="573.34" rx="2.69" ry="7.07" transform="translate(-362.59 580.26) rotate(-65.25)"/><ellipse class="cls-62" cx="331.26" cy="608.13" rx="15.78" ry="41.46" transform="translate(-359.69 654.36) rotate(-65.25)"/><ellipse class="cls-51" cx="331.26" cy="608.13" rx="2.69" ry="7.07" transform="translate(-359.69 654.36) rotate(-65.25)"/><path class="cls-63" d="M418.25,689.27c-17.93-11.85-41.5-18.4-52.65-14.64S360,691,377.88,702.89s41.51,18.41,52.65,14.65S436.18,701.12,418.25,689.27Z"/><path class="cls-51" d="M401.51,694.92c-3.06-2-7.08-3.14-9-2.5s-1,2.8,2.1,4.82,7.07,3.14,9,2.5S404.57,696.94,401.51,694.92Z"/><ellipse class="cls-64" cx="463.97" cy="762.2" rx="41.46" ry="15.78" transform="translate(-276.49 264.27) rotate(-24.75)"/><path class="cls-51" d="M460.53,761c3.06-2,7.08-3.14,9-2.5s1,2.8-2.09,4.82-7.08,3.14-9,2.5S457.47,763.06,460.53,761Z"/><ellipse class="cls-65" cx="357.36" cy="751.31" rx="41.46" ry="15.78" transform="translate(-281.72 218.63) rotate(-24.75)"/><path class="cls-51" d="M353.92,750.15c3.05-2,7.07-3.14,9-2.5s1,2.8-2.1,4.82-7.08,3.14-9,2.5S350.86,752.17,353.92,750.15Z"/><ellipse class="cls-66" cx="378.38" cy="662.55" rx="41.46" ry="15.78" transform="translate(-242.63 219.28) rotate(-24.75)"/><path class="cls-51" d="M374.93,661.39c3.06-2,7.08-3.14,9-2.5s1,2.8-2.09,4.82-7.08,3.14-9,2.5S371.88,663.41,374.93,661.39Z"/><ellipse class="cls-67" cx="351.95" cy="652.26" rx="41.46" ry="15.78" transform="translate(-240.75 207.27) rotate(-24.75)"/><path class="cls-51" d="M348.51,651.1c3.06-2,7.08-3.14,9-2.5s1,2.8-2.1,4.82-7.07,3.14-9,2.5S345.45,653.12,348.51,651.1Z"/><ellipse class="cls-68" cx="267.83" cy="700.75" rx="41.46" ry="15.78" transform="translate(-268.78 176.5) rotate(-24.75)"/><path class="cls-51" d="M264.39,699.59c3.06-2,7.08-3.14,9-2.5s1,2.8-2.1,4.82-7.07,3.14-9,2.5S261.33,701.61,264.39,699.59Z"/><ellipse class="cls-69" cx="390.19" cy="605.6" rx="41.46" ry="15.78" transform="translate(-217.7 218.99) rotate(-24.75)"/><path class="cls-51" d="M386.75,604.44c3.05-2,7.07-3.14,9-2.5s1,2.8-2.09,4.82-7.08,3.14-9,2.5S383.69,606.46,386.75,604.44Z"/></g></g></g></svg>