<svg id="Layer_1" data-name="Layer 1" xmlns="http://www.w3.org/2000/svg" xmlns:xlink="http://www.w3.org/1999/xlink" viewBox="0 0 1080 1080"><defs><style>.cls-1{fill:none;}.cls-2{fill:#f5f5f5;}.cls-3{fill:#e0e0e0;}.cls-4{fill:#e62c2b;}.cls-13,.cls-5{opacity:0.1;}.cls-11,.cls-13,.cls-14,.cls-6{fill:#010101;}.cls-17,.cls-7{fill:#fff;}.cls-8{fill:#f4a6a8;}.cls-9{fill:#171930;}.cls-10{fill:#f0f0f0;}.cls-11{opacity:0.5;}.cls-11,.cls-13,.cls-14,.cls-17{isolation:isolate;}.cls-12{fill:#181a30;}.cls-14{opacity:0.2;}.cls-15{clip-path:url(#clip-path);}.cls-16{clip-path:url(#clip-path-2);}.cls-17{opacity:0.3;}.cls-18{clip-path:url(#clip-path-3);}</style><clipPath id="clip-path"><path class="cls-1" d="M491.88,705.61c.47-.26,1-.65,1.58-1.05h0a65.35,65.35,0,0,0,13.16-11.74c2-2.24,3.75-4,5.77-6l.31-.32.58-.56.27-.26c1-.94,2-1.82,3-2.67l18.54,11.08h0a3.46,3.46,0,0,1,1,.89h0a4.12,4.12,0,0,1,.43.6v.14a4.6,4.6,0,0,1,.31.63v.2l.27.69v.27a6.75,6.75,0,0,1,.25.76v.33a8.64,8.64,0,0,0,.24.94v.29a7.58,7.58,0,0,0,.25,1.3h0a10.7,10.7,0,0,0,.25,1.61v.14l.2,1.61v.53l.13,1.39v.72a7.43,7.43,0,0,0,.11,1.41,2.14,2.14,0,0,1,0,.85v62.09L721.92,665.57V636.65a4.51,4.51,0,0,0,0-.52V420.81h0L683.45,443l-.72.43-.45.27h0l-7.58,4.69h0a96.06,96.06,0,0,0-8.75,6.53l-.18.16-.47.38c-.69.58-1.34,1.19-2,1.79l-.18.18-.82.81c-.61.58-1.19,1.16-1.77,1.76l-1.1,1.19c-.53.6-1.07,1.21-1.59,1.83s-.67.83-1.05,1.34-1,1.3-1.47,1.95l-.81,1.19-.18.31-.22.31c-.38.58-.76,1.17-1.1,1.75s-.51.87-.73,1.34l-.21.33c-.67,1.26-1.34,2.58-1.92,3.92l-.16.33c-.24.56-.51,1.12-.73,1.71s-.45,1.18-.65,1.78l-.16.45c-.25.7-.49,1.37-.69,2.08s-.43,1.46-.63,2.24-.38,1.52-.56,2.24-.31,1.47-.45,2.23-.29,1.61-.4,2.44v.16a16.26,16.26,0,0,1-.29,2c-.09.7-.18,1.79-.27,2.75v.54a7.36,7.36,0,0,1-.11,1.55v4.92a66,66,0,0,0,4,24.18,49,49,0,0,1,3.08,15.66V543c0,.74.12,1.43.12,2.06a34.45,34.45,0,0,1-4.12,15.66,27.52,27.52,0,0,1-9.91,11.18h0a16.73,16.73,0,0,1-2.1,1l-.36.13a9.53,9.53,0,0,1-2,.45h-.36a8.62,8.62,0,0,1-1.9,0h-.13a6.58,6.58,0,0,1-1.84-.58h0l-.18-.11h0l-19.35-11.37a6.27,6.27,0,0,1,.16-1.72,17,17,0,0,0,.25-2c.18-1.39.35-2.73.58-4s.4-2.37.62-3.51c.14-.61.25-1.19.36-1.75.54-2.48,1.1-5,1.75-7.62a81,81,0,0,0,3-21c0-6.71-.58-9.73-2.39-10.8l-22.06-12.73-37.45,21.59-15.41-9v17.89L526.1,534.6h0l-4.29,2.46,17.89,10.29h0v26.58h0v24.74c0,14.4-1.1,24-3.33,29.39-1.57,3.69-4,6-9.49,9.22a28.73,28.73,0,0,1-14.42,4.27,35.22,35.22,0,0,0-4.64.49l-1.83.31c-.56.12-1.14.23-1.74.38a34,34,0,0,0-3.31,1h-.23l-.67.22a46.69,46.69,0,0,0-4.94,2.24l-.61.29h-.4a21.4,21.4,0,0,0-2,1,52.55,52.55,0,0,0-16.44,16.24q-1.61,2.35-3,4.88l-.38.74a43.38,43.38,0,0,0-2.24,4.47l-.15.36a78.94,78.94,0,0,0-4.07,10.63h0a64.51,64.51,0,0,0-2.24,10l19.59,11.32A9,9,0,0,0,491.88,705.61Z"/></clipPath><clipPath id="clip-path-2"><path class="cls-1" d="M539.54,526.79V475.35l.52-15.66v-1.9a24.51,24.51,0,0,1,.29-2.91,8.6,8.6,0,0,1,.18-1.43V453a21.58,21.58,0,0,1,.33-2.71c.12-.87.18-1.21.29-1.77.18-1,.32-1.94.52-2.88v-.31a5.44,5.44,0,0,1,.25-1.17c.26-1.29.6-2.55.91-3.8a1.07,1.07,0,0,1,.11-.45c.38-1.41.88-2.86,1.37-4.29l.2-.61c.45-1.2,1-2.39,1.43-3.55,0-.23.23-.5.36-.74v-.18c.51-1.07,1-2.24,1.61-3.22l.45-.76a34.67,34.67,0,0,1,2.23-3.51h0a49.37,49.37,0,0,1,5.89-7.09h0l.18-.18c.91-.9,2-1.86,3.08-2.78l.23-.22a56.84,56.84,0,0,1,7.51-5.17,48.42,48.42,0,0,1,8.95-4.14,41.62,41.62,0,0,1,4.79-1.25,54.74,54.74,0,0,1,6.13-.69,29.53,29.53,0,0,0,13-3.38h.11a16,16,0,0,0,1.77-.85,27.43,27.43,0,0,0,9.89-11.19,35.54,35.54,0,0,0,1.76-3.87,31.67,31.67,0,0,0,2.35-11.69V368.6a2.18,2.18,0,0,0,0-.51,8.09,8.09,0,0,0-.15-1.3v-.52a8.92,8.92,0,0,0-.27-1.14,2.67,2.67,0,0,0-.16-.45c0-.13-.24-.73-.4-1.09l-.16-.31a6.17,6.17,0,0,0-.51-1,.63.63,0,0,0-.16-.23,11.39,11.39,0,0,0-.67-1c-.25-.34,0,0-.11-.14l-.85-.85h0a6.51,6.51,0,0,0-1-.71h0L591.4,347.62a121.65,121.65,0,0,0-9.24,9.21,58.48,58.48,0,0,1-14.48,12.44c-3.51,2-6.39,3.69-8.47,2.48l-19.67-11.36c-.13-4.47-.13-9.33,0-14.47V302.59l-47.6-27.47,169.58-98.07,61.72,35.61-.11,228.73-38.45,22.19c-23.42,13.42-23.42,19.62-23.42,30.64a46.68,46.68,0,0,0,3,17.5,66.8,66.8,0,0,1,4.07,21c0,1.1.13,2.42.16,3.74a73.88,73.88,0,0,1-10,35.16l-39,22.49a17.92,17.92,0,0,1-3.26-2.62c-4.34-4.48-6.72-12-6.72-21.1a30.74,30.74,0,0,1,.18-4v-.13a58.29,58.29,0,0,1,.47-6.71,15,15,0,0,1,.25-2c.16-1.41.36-2.75.58-4s.4-2.37.63-3.51c.13-.6.24-1.18.36-1.74.51-2.49,1.09-5,1.76-7.63a81.43,81.43,0,0,0,3-21c0-6.72-.58-9.73-2.41-10.81l-22-12.73-37.47,21.66Z"/></clipPath><clipPath id="clip-path-3"><path class="cls-1" d="M371.4,623.85l-47.65-27.47.18-195.1a53.78,53.78,0,0,1,5.43-22.37h0c4.05-8.54,10-15.9,16.65-19.75l145.89-84,47.6,27.47V360l19.64,11.35c2.12,1.23,5-.43,8.5-2.46a58.61,58.61,0,0,0,14.47-12.44,125.59,125.59,0,0,1,9.24-9.22l20.33,11.72h0a2.66,2.66,0,0,1,.45.29.22.22,0,0,1,.16,0,2.67,2.67,0,0,1,.49.38,8.42,8.42,0,0,1,1.79,2.24,3.12,3.12,0,0,1,.4.74,3.24,3.24,0,0,1,.27.6,13.35,13.35,0,0,1,.85,2.76,3.23,3.23,0,0,1,0,.44,18.2,18.2,0,0,0,.25,1.81c.06.63,0,1.28,0,1.95s0,1.25,0,1.88a13.7,13.7,0,0,1-.2,1.95c-.09.62-.2,1.29-.32,1.94a14,14,0,0,1-.33,1.48c-.08.35-.18.7-.29,1.05a35.39,35.39,0,0,1-2.91,7.27,27.4,27.4,0,0,1-9.89,11.18,14.39,14.39,0,0,1-1.77.85h-.11a29.36,29.36,0,0,1-13,3.38,33.31,33.31,0,0,0-4.48.45l-1.63.25a39.41,39.41,0,0,0-11.18,4c-.43.21-.83.41-1.21.63l-1.28.72a57.44,57.44,0,0,0-7.51,5.16l-.23.23a36,36,0,0,0-3.08,2.77l-.18.18h0a49.85,49.85,0,0,0-5.88,7.09h0a35.91,35.91,0,0,0-2.24,3.51l-.45.76c-.58,1.08-1.09,2.24-1.61,3.22v.18c-.13.25-.25.52-.36.74-.47,1.17-1,2.35-1.43,3.56l-.2.6c-.49,1.43-1,2.89-1.36,4.3a1.8,1.8,0,0,1-.12.44c-.31,1.26-.65,2.51-.91,3.81a5.35,5.35,0,0,1-.25,1.16v.31c-.2.94-.34,1.91-.51,2.89a13.37,13.37,0,0,1-.3,1.77c-.08.6-.24,1.79-.33,2.7V453a11.4,11.4,0,0,0-.18,1.43c0,.94-.2,1.9-.29,2.91v1.9l-.51,15.66v51.45l-13.43,7.78-4.27,2.49-8.43,4.81-12.28,7.11c-8.55,4.94-14.45,7.45-18.12,7.74a6.91,6.91,0,0,1-1.7,0,4.4,4.4,0,0,1-1.1-.4h0L463,545.65h0a.81.81,0,0,1,0-.22c.2-2.24.47-4.48.78-6.49.2-1.3.42-2.55.67-3.71.65-3.67,1.48-7,2.24-10.09a86.3,86.3,0,0,0,3.06-19.08v-.32a14.67,14.67,0,0,1,.11-2.39c0-5-1.47-8.83-4.11-10.83l-.4-.26-.36-.2h0l-19.58-11.3a72,72,0,0,0-12.92,20.35c-.43,1-.85,2.06-1.23,3.05s-.79,2.08-1.12,3.13l-.16.45c-.36,1.05-.67,2.1-1,3.15s-.59,2.12-.83,3.18-.34,1.45-.49,2.23-.29,1.46-.38,2.24a42.06,42.06,0,0,0-.59,4.47c-.11.81-.17,1.64-.22,2.44s-.11,2.08-.11,3.09v2a7.9,7.9,0,0,0,.13,1.79,15.13,15.13,0,0,0,.16,2.73,55.82,55.82,0,0,0,.69,6,9.39,9.39,0,0,0,.41,2.24,78.7,78.7,0,0,0,2.77,9.88,47.94,47.94,0,0,1,2.75,11.19v1.23c.13,1.65.2,3.29.2,5,0,11,0,17.11-23.44,30.64Z"/></clipPath></defs><g id="freepik--Floor--inject-2"><ellipse id="freepik--floor--inject-2-2" data-name="freepik--floor--inject-2" class="cls-2" cx="551.69" cy="720.6" rx="500.31" ry="271.99"/></g><g id="freepik--Shadows--inject-2"><ellipse id="freepik--Shadow--inject-2" class="cls-3" cx="804.8" cy="627.61" rx="104.33" ry="60.24"/><ellipse id="freepik--shadow--inject-2-2" data-name="freepik--shadow--inject-2" class="cls-3" cx="240.42" cy="780.37" rx="104.33" ry="60.24"/></g><g id="freepik--Plants--inject-2"><g id="freepik--plants--inject-2-2" data-name="freepik--plants--inject-2"><path class="cls-4" d="M961.58,606.54l-15.07-8.61s-7.23-39.84-1.84-74.07c7.61-48.13,40.38-64.75,52.3-60s14.7,19.06-6.71,47C977.49,527.17,961.27,561.85,961.58,606.54Z"/><g class="cls-5"><path class="cls-6" d="M961.58,606.54l-15.07-8.61s-7.23-39.84-1.84-74.07c7.61-48.13,40.38-64.75,52.3-60s14.7,19.06-6.71,47C977.49,527.17,961.27,561.85,961.58,606.54Z"/></g><path class="cls-7" d="M954.4,587h.16a1.08,1.08,0,0,0,1-1.18h0c-4.92-45.23,14.63-93.95,35.57-113.35a1.08,1.08,0,1,0-1.48-1.58c-21.29,19.66-41.22,69.34-36.24,115.18A1.12,1.12,0,0,0,954.4,587Z"/><path class="cls-4" d="M1003.39,630.68c2.37,1.36,7.27-1.61,9.15-2.89a22.49,22.49,0,0,0,7.56-8.66,21.3,21.3,0,0,0,1.9-12.79,53.26,53.26,0,0,0-1.61-6.71c-.65-2.24-1.27-4.48-1.9-6.6a16.66,16.66,0,0,1-1-6.71c.56-4.48,4.47-7.67,8.21-10.4,4-3,8.23-7,8.21-12.44a19.34,19.34,0,0,0-4.79-11.39c-2.59-3.28-5.68-6.19-8-9.66a13.24,13.24,0,0,1-2.73-8.46,13.46,13.46,0,0,1,1.84-5.25,76.32,76.32,0,0,0,5.77-10.58c1.32-3.81,1.14-8.55-1.84-11.19a12.42,12.42,0,0,0-9.35-2.23,21.51,21.51,0,0,0-8.7,3c-8.63,4.81-13.55,15-22.7,18.72a98.88,98.88,0,0,1-11,2.55,13.57,13.57,0,0,0-9.15,6.26c-3.36,6.72,2.88,15,.51,22.11-2.1,6.3-8.23,8.72-11.65,14.4a13.35,13.35,0,0,0-1.61,8.26A39.44,39.44,0,0,0,954,594a99.72,99.72,0,0,0,7.68,12.58C961.72,606.67,1003,630.48,1003.39,630.68Z"/><path class="cls-7" d="M978.92,617.66h0a1.07,1.07,0,0,0,1.05-1.1v0c-1.77-42.66,18.32-89.75,32.95-103.44a1.08,1.08,0,1,0-1.48-1.56c-14.92,14-35.41,61.83-33.55,105.13A1.09,1.09,0,0,0,978.92,617.66Z"/><path class="cls-7" d="M985.32,567.26h.31a143.06,143.06,0,0,1,31-5,1.09,1.09,0,0,0,1-1.12,1,1,0,0,0-1-1h-.09A146.21,146.21,0,0,0,985,565.2a1.08,1.08,0,0,0-.71,1.34h0A1.06,1.06,0,0,0,985.32,567.26Z"/></g><g id="freepik--plants--inject-2-3" data-name="freepik--plants--inject-2"><path class="cls-4" d="M94.31,655l15-8.65s7.27-39.84,1.85-74.07c-7.58-48.14-40.26-64.74-52.27-60s-14.7,19.06,6.71,47C78.36,575.58,94.71,610.32,94.31,655Z"/><g class="cls-5"><path class="cls-6" d="M94.31,655l15-8.65s7.27-39.84,1.85-74.07c-7.58-48.14-40.26-64.74-52.27-60s-14.7,19.06,6.71,47C78.36,575.58,94.71,610.32,94.31,655Z"/></g><path class="cls-7" d="M102.29,652.69h0a1.13,1.13,0,0,1-1.05-1.17c3.54-67.1-5.9-105.29-31.58-127.95a1.13,1.13,0,0,1,0-1.58,1.14,1.14,0,0,1,1.59,0c26.23,23.15,35.92,62,32.34,129.74a1.13,1.13,0,0,1-1.25,1Z"/><path class="cls-4" d="M98.85,652.35c.31-14.4-8.08-62.12-36.31-79.48S20.6,577.15,32,590.26c8.39,9.59,24,16.53,38.7,36.37,10.09,13.64,15.91,32.81,15.91,32.81Z"/><path class="cls-7" d="M93.79,657.94a1.1,1.1,0,0,1-1.11-1.05c-2.71-36.37-23.36-69-50.22-79.34a1.12,1.12,0,0,1,.8-2.1C71,586.12,92.14,619.54,94.91,656.74a1.12,1.12,0,0,1-1,1.2h-.1Z"/></g></g><g id="freepik--Characters--inject-2"><g id="freepik--character-2--inject-2"><g id="freepik--character-boy--inject-2"><path class="cls-8" d="M662.6,228.05c3.4,2.8,7.29,4.25,11.76,8.59a26.37,26.37,0,0,0,10.41,7.23c5.16,2.06,10,1.45,24.36-.85,17.51-2.8,25-5.75,32.61-12.19,8.84-7.54,28.61-30.29,38.16-39.22,10.11-9.44,24-5.79,24-5.79a144.8,144.8,0,0,1-19,39.33c-7.65,10.89-21.94,21.34-28.4,26.7-10.36,8.62-15.86,12-38.59,13.74-17.16,1.3-19.44,1.7-33.56,1.3-5.07-.16-8.23-.2-16.55-.9a50.84,50.84,0,0,1-10.67-1.85A39.27,39.27,0,0,1,646,259.66a30.15,30.15,0,0,1-10.61-11.9,19.12,19.12,0,0,1-2-8.57,12.64,12.64,0,0,1,3.08-8.14,3.8,3.8,0,0,1,1.43-1.05,4.32,4.32,0,0,1,3.11.67c5.37,2.75,10.79,6.56,16.42,8.73,4.74,1.81,8.37,2.46,8,1.49s-3.22-1.83-6.17-5.16-3.69-8-1.79-9.42S659.29,225.24,662.6,228.05Z"/><path class="cls-3" d="M808,185.75a26.32,26.32,0,0,0-17.38-1.9c-8.83,2.55-15.92,8.32-24.36,17.38s-22.68,23.69-22.68,23.69,7,17.74,22.77,24.05l33-30.53Z"/><g id="freepik--character-boy--inject-2-2" data-name="freepik--character-boy--inject-2"><rect class="cls-8" x="836.47" y="591.08" width="20.02" height="34.27"/><polygon class="cls-8" points="801.09 599.72 781.09 600.41 780.08 564.15 801.09 563.46 801.09 599.72"/><path class="cls-9" d="M865.08,335.25c0,19.1-3.37,130.28-3.37,130.28.44,5.5,5.74,15.27,6.17,35.09.58,28.72-10.47,107.6-10.47,107.6a26.34,26.34,0,0,1-22.37.45S826,501.74,822.36,473.31c-3.13-24.83-8.44-92.25-8.44-92.25l-9.41,81a114.09,114.09,0,0,1,2.41,31.81c-.94,13.15-4.65,94.6-4.65,94.6a27.32,27.32,0,0,1-23.11,1.77s-14.11-116.12-14.34-128.18c-.26-13.76,5.22-154.21,5.22-154.21Z"/><path class="cls-10" d="M851.86,194.63a18.36,18.36,0,0,1,9.64,10.05A46.77,46.77,0,0,1,864.43,222v39.21l.59,74.07c-28.75,15.14-65.25,16.15-95.92-6.24,0,0,1.72-95.32,1.72-110.91v-2.24c1.12-22.37,23-37.56,44.74-32l18.21,4.79,18.2,6Z"/><circle class="cls-4" cx="800.46" cy="121.74" r="27.51" transform="translate(-6.56 187.13) rotate(-13.28)"/><circle class="cls-11" cx="800.46" cy="121.74" r="27.51" transform="translate(-6.56 187.13) rotate(-13.28)"/><path class="cls-4" d="M848,141.24s-4.48,21-6.25,24.38a9.53,9.53,0,0,1-5.48,4.48l.32-14.75Z"/><path class="cls-11" d="M848,141.24s-4.48,21-6.25,24.38a9.53,9.53,0,0,1-5.48,4.48l.32-14.75Z"/><path class="cls-4" d="M842.42,111.24a10.31,10.31,0,0,1,8.55,3c3.67,3.74,1.61,15.48-3,27l-8.39,1Z"/><path class="cls-11" d="M842.42,111.24a10.31,10.31,0,0,1,8.55,3c3.67,3.74,1.61,15.48-3,27l-8.39,1Z"/><path class="cls-8" d="M837.1,142.22c1.68,1,4.09-2.23,6.15-4.47s9-5.15,12.24,2-3,16.84-8.32,18.52c-9.2,2.89-10.56-3-10.56-3L836,189.51h0c-11.43,14.65-43.15,13.42-29.93-1.9V177.52a58.37,58.37,0,0,1-12.39.63c-6.71-1.05-11-6.38-13.09-13.69-3.28-11.77-4.47-21.25-1.74-44.38,3.06-25.35,32.55-25.61,48.47-15.66S837.1,142.22,837.1,142.22Z"/><path class="cls-4" d="M837.1,145c.85,0,4.07-5.32,6.15-7.22,2.91-2.64-.83-26.58-.83-26.58a11.3,11.3,0,0,0-2.79-12.1c-4-4.47-10.63-4.85-22-6.71-5.95-.94-15-2.6-20.94-3.71-7.09-1.32-13-2.71-17.89,1.65a12.54,12.54,0,0,0-3.49,14.09,12.93,12.93,0,0,0,7,6.6s3.08,2.75,13.87,4.07a159.11,159.11,0,0,0,29.84-.58c3.13-.42,3.8,2.62,5.48,10.87C833,132.69,834.26,145,837.1,145Z"/><path class="cls-11" d="M837.1,145c.85,0,4.07-5.32,6.15-7.22,2.91-2.64-.83-26.58-.83-26.58a11.3,11.3,0,0,0-2.79-12.1c-4-4.47-10.63-4.85-22-6.71-5.95-.94-15-2.6-20.94-3.71-7.09-1.32-13-2.71-17.89,1.65a12.54,12.54,0,0,0-3.49,14.09,12.93,12.93,0,0,0,7,6.6s3.08,2.75,13.87,4.07a159.11,159.11,0,0,0,29.84-.58c3.13-.42,3.8,2.62,5.48,10.87C833,132.69,834.26,145,837.1,145Z"/><path class="cls-4" d="M842.4,113.1l10.18-5.46a5.62,5.62,0,0,0-7.5-2.61l-.13.06A6.09,6.09,0,0,0,842.4,113.1Z"/><path class="cls-11" d="M842.4,113.1l10.18-5.46a5.62,5.62,0,0,0-7.5-2.61l-.13.06A6.09,6.09,0,0,0,842.4,113.1Z"/><path class="cls-8" d="M806,177.52s15.1-3,20.37-5.86a17.4,17.4,0,0,0,7.39-7.25,23.62,23.62,0,0,1-4.14,8.5c-3.87,5-23.53,8.57-23.53,8.57Z"/><path class="cls-12" d="M806.74,138.44a3,3,0,1,0,3-3.11A3.1,3.1,0,0,0,806.74,138.44Z"/><path class="cls-12" d="M809.94,127l6.49,3.58a3.89,3.89,0,0,0-1.52-5.14,3.59,3.59,0,0,0-4.89,1.42Z"/><path class="cls-8" d="M807.37,159.34l-6.91,2.59a3.61,3.61,0,0,0,4.59,2.27l.11,0A3.85,3.85,0,0,0,807.37,159.34Z"/><path class="cls-12" d="M780.64,129.54l5.9-4.47a3.54,3.54,0,0,0-4.91-1.06l-.21.14A3.89,3.89,0,0,0,780.64,129.54Z"/><path class="cls-12" d="M782.45,137.57a3,3,0,1,0,3-3.15,3.08,3.08,0,0,0-3,3.13Z"/><polygon class="cls-8" points="797.86 134.71 796.88 152.92 787.37 149.67 797.86 134.71"/><path class="cls-12" d="M836.47,615.47V612.6c-1.92.85-6.37,17.9-14.31,25.06-6.31,5.77-14.92,12.41-17.12,18.83s12,10.36,17.9,9.33c6.84-1.23,18.72-6,21.72-10.51s4.36-11.08,6.71-14.37,8-6.93,9.31-10.73c.71-2.08-.14-6.71-1.14-10.49s-1.93-7.43-3.14-7.12v2.24a15.86,15.86,0,0,1-10,3.38C843.54,618.28,836.45,617.7,836.47,615.47Z"/><path class="cls-12" d="M780.89,594.24c-1.06,0-1.91,1.5-4.19,4a43.76,43.76,0,0,1-11.76,8.48c-7.5,3.73-22.08,9.5-28.68,12.48-4.12,1.86-3.92,6.84.33,9.66s14.54,4.88,26.85,2.13c6.71-1.52,15.48-7.72,21-7.38s15.91.24,20-2.58,2.46-8.83,1.3-14c-1.25-5.64-2.84-14.45-4.7-14v1.95c-2.41,3.64-14.83,5.12-20.13,2.43Z"/><path class="cls-12" d="M814,381.06a74,74,0,0,1-27.87-16s5.36,10.06,21.36,19.44l-2.24,70.75Z"/></g></g></g><g id="freepik--character-1--inject-2"><path class="cls-12" d="M220.25,252.41h7.13a40.07,40.07,0,0,1,40.07,40.07v85H180.21v-85a40.06,40.06,0,0,1,40.06-40.07h0Z"/><path class="cls-8" d="M217.38,795.38l-5.61-5c-5.44-5-9.58-13.42-12-19.1A27.35,27.35,0,0,1,197.74,761V749.77H178.15V768h0v.42h0c.94,4.07,9.95,14.92,15,22,3.45,4.74,10,10.76,17.74,11.81C218.39,803.3,222.17,801,217.38,795.38Z"/><path class="cls-8" d="M274,765.54a4.69,4.69,0,0,0,1.41-1.25c1.52-2.1.32-3.25-.8-4.92a43.64,43.64,0,0,1-3.36-7.32c-.91-2.23-2.1-6.22-2.1-6.22v-15.3H249.57v18.68h0c1,4.48,5,8.57,7.59,12,2,2.68,7.2,4,10.33,4.72a11.7,11.7,0,0,0,4.21.29A6.38,6.38,0,0,0,274,765.54Z"/><path class="cls-9" d="M182,463.85c-15.21,33.22.56,150.21.56,150.21-.47,5.39-6.71,16-8.95,39.7-2.71,28,4.25,98.43,4.25,98.43a21.28,21.28,0,0,0,19.84.78s18.68-106,22.19-133.86c3.07-24.31,8.95-77.78,8.95-77.78l11.7,77.76a145,145,0,0,0-5.26,24c-1.58,16.38,14.3,92.7,14.3,92.7s6.71,2.49,19.62.58c0,0,5.61-101.26,7.09-121,2.48-33.15-1.3-136.72-7.39-156.34Z"/><path class="cls-12" d="M228.93,541.31l4.92-30.85s20.89-4.33,30.35-13.24c0,0-9.93,12.37-24.6,16.42l-5.55,23.74,5,70.46Z"/><path class="cls-12" d="M197.81,765v-2.84c1.88.82,6.26,17.51,14.07,24.6,6.2,5.66,14.67,12.19,16.82,18.5s-11.79,10.18-17.58,9.17c-6.71-1.21-18.39-6-21.32-10.33s-4.32-10.87-6.71-14.09-7.87-6.81-9.21-10.47c-.72-2,.13-6.54,1.11-10.32s1.91-7.29,3.09-7v2.24a15.6,15.6,0,0,0,9.82,3.33C190.85,767.8,197.83,767.22,197.81,765Z"/><path class="cls-12" d="M269.19,745.83c1,0,2.24,1.57,4.47,4a43,43,0,0,0,11.57,8.32c7.36,3.69,21.67,9.35,28.16,12.28,4.05,1.81,3.85,6.71-.33,9.48s-14.28,4.79-26.4,2.08c-6.71-1.47-15.21-7.58-20.67-7.24s-15.66.24-19.64-2.53-2.41-8.68-1.27-13.76c1.25-5.55,2.79-14.2,4.63-13.82v1.92c2.37,3.58,14.56,5,19.75,2.4Z"/><path class="cls-8" d="M241.32,347.57a28.06,28.06,0,0,1,25,11.19C274.13,369,294.8,411,294.8,411s45.39-3.05,47.56-5.66,1-7.94.36-10.87-1.59-9.42-2.24-11.19c-1.14-3.2,3.58-2.24,6.35.65s4,8.79,5.39,9.8,11.93-11.19,17-17,7.51-9.93,10.94-7.52c2.48,1.75.89,5.22-2.78,10.23a69.93,69.93,0,0,0-4.74,6.71c-.42.91.92,1.63,1.45,2.1,1,.89,2.76,2.35,2.89,3.74a12.84,12.84,0,0,0,.13,2.23c.47,1.68,2.55,2.46,3.14,4.1.42,1.18,0,2.5.17,3.73.16.78.61,1.5.74,2.24a5.49,5.49,0,0,1-1.63,4.29c-3.6,4.28-8.5,5.91-13.22,8.53-3.91,2.23-7.94,3.11-12.46,5.12s-59.68,16.28-67.94,11.7S246,379.63,246,379.63C233.69,359.16,241.32,347.57,241.32,347.57Z"/><path class="cls-4" d="M208.86,348.47h0c-19.48,1.34-20.85,10.76-25.72,21-3.74,7.85-2.51,17.2.33,25.39l12.33,39s-6.38,15.39-13.76,29.91c34.09,19,76.66,8.95,86.9-4.86.45-2.95-2.23-26-3.8-41,6-15.06,7.58-24.61,5.06-34.56-4.72-18.48-23-36.49-31-35.79Z"/><path class="cls-12" d="M178.08,270.42l5.91,9.49a5.45,5.45,0,0,1-7.57-1.37l-.13-.2A5.91,5.91,0,0,1,178.08,270.42Z"/><path class="cls-8" d="M253.13,270.06c4.61,2.71,10.29,14.3,9.73,38.61-.47,20.58-7.16,25.68-10.49,27.14s-9.82.58-16.11-.47v12.37s8.68,10.09,8.15,15.66-12.55,7-20.67,1.47a52.7,52.7,0,0,1-13.43-14V321s-4.22,5.66-11.18,1.05-7.2-16-3.18-20.13,12.73-2.8,14.34,2.86c0,0,10,.36,23.38-7A37.53,37.53,0,0,0,253.13,270.06Z"/><path class="cls-12" d="M237.56,303.48a2.6,2.6,0,1,1-2.73-2.55,2.64,2.64,0,0,1,2.73,2.55Z"/><path class="cls-8" d="M240.56,321l6,1.92a3.12,3.12,0,0,1-3.77,2.28l-.15,0A3.31,3.31,0,0,1,240.56,321Z"/><path class="cls-12" d="M258.88,295.54l-5.33-3.62a3.07,3.07,0,0,1,4.22-1l.15.09A3.34,3.34,0,0,1,258.88,295.54Z"/><path class="cls-12" d="M257.58,301.63a2.6,2.6,0,0,1-2.38,2.79h-.06a2.68,2.68,0,1,1,2.43-2.91A.49.49,0,0,1,257.58,301.63Z"/><polygon class="cls-8" points="244.94 300.13 245.34 315.72 253.55 313.19 244.94 300.13"/><path class="cls-8" d="M236.26,335.34c-6.71-.88-20.13-4.79-22.37-10.18a13.89,13.89,0,0,0,4.77,6.89c4.07,3.49,17.6,7.4,17.6,7.4Z"/><path class="cls-13" d="M217.58,467.54c-9.28-2.24-18.7-12.35-14.45-22.26a14.14,14.14,0,0,1,5.93-6.6,5.35,5.35,0,0,1,6.2.67c-4.48-2.93-12.15-17.18-13.18-22.37l-5.25-17.53a28.94,28.94,0,0,1,1-11.95l-13.71-15.84-2.53,1.75c-2.24,6.87-.54,14.63,1.83,21.5l12.33,39s-6.38,15.39-13.76,29.91a88.05,88.05,0,0,0,72.83,4.78A99.55,99.55,0,0,1,217.58,467.54Z"/></g><path class="cls-4" d="M378.6,856.72l-44.34-25.59c-4.61-2.73-7.18-9.58-7.18-18.39l-.18-194.46,44.74,25.8-.18,195.08C371.4,847.75,374.17,853.88,378.6,856.72Z"/><path class="cls-14" d="M378.6,856.72l-44.34-25.59c-4.61-2.73-7.18-9.58-7.18-18.39l-.18-194.46,44.74,25.8-.18,195.08C371.4,847.75,374.17,853.88,378.6,856.72Z"/><path class="cls-4" d="M378.91,856.9l-.31-.18c-4.48-2.84-7.2-9-7.2-17.56l.17-195.08-44.73-25.8,38.63-22.52.36-.2h0l5.48-3.18h0l6.17-4.29.25-.16.24-.18c.34-.22.61-.47.9-.69l.35-.25,1.08-.8,1-.81a10,10,0,0,1,.87-.74l.34-.27.31-.26c.58-.45,1.14-.94,1.68-1.41l.85-.79.31-.33c1.05-1,2.1-2,3.06-3.07l.36-.33c.4-.43.78-.86,1.14-1.28a5.49,5.49,0,0,0,.52-.65,3.78,3.78,0,0,0,.49-.56v-.15l.13-.2.25-.27,1.18-1.5c.32-.45.65-.92.94-1.39l.25-.29v-.13c.43-.61.81-1.21,1.19-1.81s.64-1.06,1-1.59l.11-.2c.25-.5.51-.94.76-1.44l.38-.69q.46-.9.87-1.83h0l.5-1.14a8.52,8.52,0,0,0,.49-1.17,5.6,5.6,0,0,0,.4-1c.11-.31.27-.67.38-1,.29-.78.54-1.58.81-2.41h0c.2-.65.42-1.34.6-2V555c.22-.74.38-1.5.54-2.23v-.25a10.45,10.45,0,0,1,.38-1.81h0c.15-.85.33-1.84.44-2.75v-1.1a.53.53,0,0,0,0-.25c0-.2,0-.41,0-.62.12-1.1.21-2.24.29-3.22V541h0c0-1.61.05-3.24.14-4.9v-4.63a2.94,2.94,0,0,0,0-.42,3.08,3.08,0,0,0,0-.43v-.6c0-.83-.11-1.63-.18-2.37h0v-.14c0-.71-.16-1.38-.22-2a65.24,65.24,0,0,0-1.86-8.95c-.51-1.79-1.07-3.42-1.57-5a51.51,51.51,0,0,1-2.73-10.85c0-.74-.17-1.5-.24-2.24s0-1.72-.16-2.64v-.4a3.53,3.53,0,0,1,0-.65,8.3,8.3,0,0,1,0-1.41c0-10.31,6.27-22.37,14-26.84a9.5,9.5,0,0,1,2.46-1,8,8,0,0,1,1.7-.27,6.51,6.51,0,0,1,1.65,0,5.32,5.32,0,0,1,.79.18,10,10,0,0,1,2.23,1l45.52,25.93h0a6.25,6.25,0,0,1,.77.49c2.63,2,4.11,5.84,4.11,10.8a18.07,18.07,0,0,1-.13,2.44v.29a86.16,86.16,0,0,1-3.09,19.08c-.38,1.59-.76,3.18-1.12,4.86-.16.56-.27,1.14-.38,1.7-.4,1.7-.76,3.46-1.05,5.37-.11.6-.2,1.25-.29,1.87l31.32-17.73,44.73,25.79v51.31c0,14.41-1.09,24-3.33,29.4-1.56,3.71-4,6-9.48,9.21a28.7,28.7,0,0,1-14.41,4.27,34,34,0,0,0-4.67.5l-1.82.31c-.58.11-1.14.22-1.74.38-1.07.25-2.24.6-3.31,1l-.9.34a50.81,50.81,0,0,0-4.94,2.23,3.28,3.28,0,0,0-.58.32h-.16l-.27.13c-.6.27-1.29.6-2,1a52.7,52.7,0,0,0-16.49,16.24,75.09,75.09,0,0,0-5.88,10.47A82.14,82.14,0,0,0,465.48,685l2.46-2.62a91.27,91.27,0,0,1,7.43-7.42,45.17,45.17,0,0,1,7-5c3.58-2.06,6.45-3.72,8.57-2.4h0L535.32,694h0l.51.38a4,4,0,0,1,.34.38.52.52,0,0,1,.18.23,2.64,2.64,0,0,1,.33.47v.11a4.32,4.32,0,0,1,.36.67c1.14,2.41,1.9,6.71,2.24,13.91v61.38L393.21,855.85a18.21,18.21,0,0,1-7.83,2.59,14.55,14.55,0,0,1-2.64,0,2.49,2.49,0,0,1-.85-.18A11.49,11.49,0,0,1,378.91,856.9Z"/><path class="cls-13" d="M491,667.56h0L535.25,694h0c-2.1-1.34-5,.36-8.57,2.42a43.28,43.28,0,0,0-7,5,82.59,82.59,0,0,0-7.45,7.4,87.53,87.53,0,0,1-17.52,15.53c-.87.62-1.9,1.27-2.86,1.83-16.22,9.37-29.41-.6-29.41-22.23a65.29,65.29,0,0,1,3.06-19c.83-.88,1.61-1.75,2.42-2.58a89.57,89.57,0,0,1,7.42-7.42,45.09,45.09,0,0,1,7-5C486,667.9,488.86,666.24,491,667.56Z"/><path class="cls-13" d="M463.35,539.28l31.48-17.76,44.74,25.81h0l-38.46,22.19h0l-11.56,6h-.25l-.82.36-.43.15-1.92.79-1.08.38-.29.11c-.62.2-1.23.42-1.81.58l-1.25.34c-.65.17-1.26.29-1.86.4h-.2l-.83.13a20.94,20.94,0,0,1-2.23.18h-.72a14.25,14.25,0,0,1-2.6-.27l-.44-.11a13.45,13.45,0,0,1-1.93-.69,1.79,1.79,0,0,1-.51-.27h0a14.5,14.5,0,0,1-1.61-1.07h-.11l-.38-.34a12,12,0,0,1-1.57-1.77l-.22-.27a20,20,0,0,1-2.64-6.06l-.11-.38c-.3-1.14-.5-2.23-.7-3.46v-.61c-.2-1.34-.36-2.77-.45-4.23-.13-1.92-.17-3.6-.17-5.28A98.85,98.85,0,0,1,463.35,539.28Z"/><path class="cls-13" d="M371.57,644.08l-44.73-25.8,38.63-22.52.33-.2h.14l5.48-3.18h0l6.19-4.29.23-.16.24-.18c.34-.22.61-.47.9-.69l.33-.25,1.1-.8,1-.81a10,10,0,0,1,.87-.74l.34-.27.31-.26c.58-.45,1.14-.94,1.68-1.41l.85-.79.31-.33c1.05-1,2.1-2,3.07-3.07l.35-.33c.41-.43.79-.86,1.14-1.28a4.63,4.63,0,0,0,.52-.65c.18-.18.31-.38.47-.56l.13-.15.16-.18.22-.29c.41-.49.83-1,1.19-1.5l1-1.37.22-.31v-.13c.43-.61.81-1.21,1.19-1.81s.65-1.06,1-1.59V568c.27-.47.54-.91.78-1.41a6,6,0,0,0,.41-.69c.27-.63.58-1.23.85-1.83h0l.49-1.14c.18-.36.33-.74.51-1.14a8.09,8.09,0,0,0,.38-1c.12-.36.27-.67.38-1,.3-.8.54-1.56.81-2.41h0c.2-.65.42-1.34.6-2V555c.18-.71.38-1.5.54-2.24v-.22c.11-.63.25-1.21.36-1.83h0c.15-.85.33-1.84.45-2.75v-1.1a1,1,0,0,0,0-.25V546c.13-1.11.22-2.23.29-3.19V541h0c0-1.61,0-3.24.13-4.9v-5a3.08,3.08,0,0,0,0-.43v-.6c0-.83-.11-1.63-.18-2.37v-.16h0l-.2-2a62.39,62.39,0,0,0-1.86-8.95c-.49-1.81-1.05-3.44-1.56-5a50.9,50.9,0,0,1-2.73-10.85c0-.74-.18-1.5-.25-2.24s0-1.7-.13-2.64v-1.07a8.3,8.3,0,0,1,0-1.41c0-10.32,6.26-22.37,14-26.85a9.62,9.62,0,0,1,2.46-1,7.09,7.09,0,0,1,1.7-.27,5.14,5.14,0,0,1,1.66,0,3.4,3.4,0,0,1,.78.18,10.29,10.29,0,0,1,2.24,1l45.36,26a7.09,7.09,0,0,0-3.1-.94,9.5,9.5,0,0,0-2.38.2,12.67,12.67,0,0,0-3.69,1.47,21.63,21.63,0,0,0-3.78,2.89,33.13,33.13,0,0,0-7.31,10.8c-.4.88-.72,1.77-1.05,2.69a33.16,33.16,0,0,0-1.05,3.91,30.21,30.21,0,0,0-.77,6.49v2.28a47,47,0,0,0,1.55,10.74c.13.58.31,1.14.47,1.7.36,1.14.71,2.24,1.07,3.35.52,1.55,1.08,3.16,1.59,5,.18.63.34,1.25.49,1.88s.32,1.32.49,2a62.93,62.93,0,0,1,1.1,7.07V554h0a11.81,11.81,0,0,0,0,1.19v2.66a5.75,5.75,0,0,1,0,.83v6.1a18.56,18.56,0,0,1-.11,2.47v1.7a26.81,26.81,0,0,1-.29,3.19,14.31,14.31,0,0,1-.2,1.55v.42h0l-.47,2.8-.41,1.81v.22a4.55,4.55,0,0,1-.31,1.3c-.13.45-.22.85-.33,1.23s0,.36-.12.54a12,12,0,0,0-.47,1.52h0c-.24.81-.51,1.61-.8,2.39s-.52,1.35-.76,2-.65,1.55-1,2.24l-.91,1.88h0c-.18.34-.36.72-.56,1L441,594.1l-.14.23a7.26,7.26,0,0,1-.47.8l-.15.27a3.3,3.3,0,0,1-.34.49c-.38.63-.76,1.23-1.16,1.84v.13l-.22.31a6.6,6.6,0,0,1-.5.68,7.37,7.37,0,0,1-.47.67l-.42.56c-.24.33-.49.65-.76,1l-.23.29-.24.33-.52.61-.15.18c0,.13-.23.29-.36.42l-.58.65c-.16.2-.36.4-.56.63l-.34.33a40.55,40.55,0,0,1-3.08,3.07l-.32.33-.87.79c-.51.49-1.07,1-1.66,1.43l-.31.24-.16.16-.15.13-.87.72L423.74,613l-.34.27-.89.67-.49.34-6.2,4.29-5.48,3.18-.18.13-.36.18Z"/><g class="cls-15"><path class="cls-4" d="M542.23,644.28,494.6,616.79l1.06-1.46.11-.13.51-.74c.76-1.12,1.48-2.24,2.24-3.42l.2-.36c.69-1.23,1.37-2.57,2-4,.14-.34.29-.67.43-1v-.23c.33-.8.74-1.76,1.12-2.84.18-.47.33-.94.51-1.45v-.29c.27-.81.54-1.61.76-2.44s.38-1.32.56-2,.36-1.5.56-2.24.31-1.48.45-2.24.29-1.41.4-2.1v-.33c.13-.68.25-1.39.36-2.11s.11-.83.18-1.23v-.45c.49-3.57.78-7.33,1-11.4v-.45l.24-11V510.64l47.45,27.79h0v52.25l-.25,11v.42c-.2,4.07-.51,7.83-1,11.39V614a7.85,7.85,0,0,1-.18,1.25c-.07.42-.2,1.41-.34,2.08v.31c-.11.74-.24,1.41-.38,2.13s-.31,1.45-.49,2.24-.33,1.52-.51,2.23-.38,1.37-.56,2-.5,1.63-.79,2.41V629c-.15.47-.33,1-.51,1.45-.36,1-.78,2-1.12,2.84l-.11.2-.4,1q-1,2.09-2,4l-.2.35c-.65,1.12-1.36,2.24-2.12,3.43a5.85,5.85,0,0,1-.54.69v.16Z"/><path class="cls-4" d="M507.36,735.12l.13-43.13-.67.69c2-2.23,3.78-4,5.75-6l.33-.31.58-.56.41-.22a65.93,65.93,0,0,1,12.43-9.44h0l.5-.25h.11l.33-.2h0c1.08-.61,2.24-1.14,3.2-1.66.29-.15.61-.27.9-.4l.31-.16c.72-.26,1.48-.6,2.24-.85.4-.18.78-.26,1.14-.4h.18c.65-.16,1.27-.33,1.85-.45s.9-.18,1.32-.22a11.5,11.5,0,0,1,1.66,0c.42,0,.83,0,1.25,0a8.11,8.11,0,0,1,1.46.25h.2l.91.22a6.9,6.9,0,0,1,1.35.63,8.93,8.93,0,0,1,1.36.82,11.36,11.36,0,0,1,1.45,1.23,9.53,9.53,0,0,1,.72.85l.16.23.13.15c.23.3.45.6.65.92a11.82,11.82,0,0,1,.76,1.34c.22.43.43.81.6,1.23s.45,1.08.68,1.66a13.54,13.54,0,0,1,.42,1.3c.13.44.38,1.25.56,1.92l.27,1.12v.18c.15.74.33,1.5.47,2.23v.92c.49,3.16.85,6.71,1.09,10.9v.17l.25,10v53Z"/><path class="cls-4" d="M482.17,706,435.35,678.9c-3.11-1.65-4.92-6-4.92-11.74a35.75,35.75,0,0,1,6.17-19.08l.9-1.25c-.23.36-.5.71-.72,1l47.6,27.49a5.25,5.25,0,0,0-.33.49,35.52,35.52,0,0,0-6.18,19.06C477.87,700.31,479.53,704.16,482.17,706Z"/><path class="cls-12" d="M542.23,644.28,494.6,616.79l1.06-1.46.11-.13.51-.74c.76-1.12,1.48-2.24,2.24-3.42l.2-.36c.69-1.23,1.37-2.57,2-4,.14-.34.29-.67.43-1v-.23c.33-.8.74-1.76,1.12-2.84.18-.47.33-.94.51-1.45v-.29c.27-.81.54-1.61.76-2.44s.38-1.32.56-2,.36-1.5.56-2.24.31-1.48.45-2.24.29-1.41.4-2.1v-.33c.13-.68.25-1.39.36-2.11s.11-.83.18-1.23v-.45c.49-3.57.78-7.33,1-11.4v-.45l.24-11V510.64l47.45,27.79h0v52.25l-.25,11v.42c-.2,4.07-.51,7.83-1,11.39V614a7.85,7.85,0,0,1-.18,1.25c-.07.42-.2,1.41-.34,2.08v.31c-.11.74-.24,1.41-.38,2.13s-.31,1.45-.49,2.24-.33,1.52-.51,2.23-.38,1.37-.56,2-.5,1.63-.79,2.41V629c-.15.47-.33,1-.51,1.45-.36,1-.78,2-1.12,2.84l-.11.2-.4,1q-1,2.09-2,4l-.2.35c-.65,1.12-1.36,2.24-2.12,3.43a5.85,5.85,0,0,1-.54.69v.16Z"/><path class="cls-12" d="M507.36,735.12l.13-43.13-.67.69c2-2.23,3.78-4,5.75-6l.33-.31.58-.56.41-.22a65.93,65.93,0,0,1,12.43-9.44h0l.5-.25h.11l.33-.2h0c1.08-.61,2.24-1.14,3.2-1.66.29-.15.61-.27.9-.4l.31-.16c.72-.26,1.48-.6,2.24-.85.4-.18.78-.26,1.14-.4h.18c.65-.16,1.27-.33,1.85-.45s.9-.18,1.32-.22a11.5,11.5,0,0,1,1.66,0c.42,0,.83,0,1.25,0a8.11,8.11,0,0,1,1.46.25h.2l.91.22a6.9,6.9,0,0,1,1.35.63,8.93,8.93,0,0,1,1.36.82,11.36,11.36,0,0,1,1.45,1.23,9.53,9.53,0,0,1,.72.85l.16.23.13.15c.23.3.45.6.65.92a11.82,11.82,0,0,1,.76,1.34c.22.43.43.81.6,1.23s.45,1.08.68,1.66a13.54,13.54,0,0,1,.42,1.3c.13.44.38,1.25.56,1.92l.27,1.12v.18c.15.74.33,1.5.47,2.23v.92c.49,3.16.85,6.71,1.09,10.9v.17l.25,10v53Z"/><path class="cls-12" d="M482.17,706,435.35,678.9c-3.11-1.65-4.92-6-4.92-11.74a35.75,35.75,0,0,1,6.17-19.08l.9-1.25c-.23.36-.5.71-.72,1l47.6,27.49a5.25,5.25,0,0,0-.33.49,35.52,35.52,0,0,0-6.18,19.06C477.87,700.31,479.53,704.16,482.17,706Z"/><path class="cls-9" d="M482.57,706.17h0l-.31-.18c-2.64-1.85-4.3-5.7-4.3-11a35.49,35.49,0,0,1,6.18-19.06,3.23,3.23,0,0,1,.33-.49L436.87,648c.22-.34.49-.7.72-1.06.6-.78,1.23-1.52,1.87-2.23.31-.35.63-.69,1-1a10.22,10.22,0,0,1,1.07-1,17,17,0,0,1,3-2.23h0q.6-.35,1.23-.63l.54-.22h.13a28.08,28.08,0,0,1,6.24-2.44l.76-.18a42.69,42.69,0,0,1,5.95-.78,40.37,40.37,0,0,0,19.89-6.06l1.57-1c.46-.27.89-.56,1.34-.87s.69-.42,1-.65h.13L485,626.4l1.56-1.23.29-.22.25-.22.18-.16.67-.58c.2-.18.45-.36.65-.56s.8-.72,1.21-1.12l.55-.56.25-.27,1-1c.41-.42.81-.87,1.19-1.32l.16-.17.65-.77c.29-.4.64-.8.94-1.23l47.64,27.52.85-1.16v-.16a5.85,5.85,0,0,0,.54-.69c.76-1.17,1.47-2.24,2.12-3.43l.2-.35q1.05-1.92,2-4l.4-1,.11-.2c.34-.83.76-1.81,1.12-2.84.18-.47.36-1,.52-1.45v-.34c.29-.78.53-1.59.78-2.42s.36-1.32.56-2,.36-1.5.51-2.24.34-1.45.49-2.23.27-1.39.38-2.13v-.31c.14-.67.23-1.37.34-2.08s.11-.83.18-1.25v-.47c.47-3.56.78-7.32,1-11.39v-.42l.25-11V538.45h0l-47.45-27.78,19.47-11.19,10-5.79,8.95-5.19,3.49-2c.91-.45,1.74-.94,2.59-1.34A47.21,47.21,0,0,1,561,481.3l1-.25a9.4,9.4,0,0,1,3.08-.22c.58,0,.9.51,1.34.78l48,27.29a4.12,4.12,0,0,1,1.79,2.66,8.65,8.65,0,0,0,.29,1.3c.09.47.13,1,.2,1.59v5.3a40.81,40.81,0,0,1-.27,5.88V527a4,4,0,0,1-.15,1.32c-.16.44,0,.85-.21,1.29a4.11,4.11,0,0,0-.17,1.28c-.16.83-.3,1.63-.45,2.48s-.36,1.63-.52,2.44a.28.28,0,0,0,0,.18A70.27,70.27,0,0,0,621,508.65a34.18,34.18,0,0,0-.13-3.75,67.3,67.3,0,0,0-4.07-21,46.85,46.85,0,0,1-3.07-17.49c0-11,0-17.14,23.44-30.63l38.28-21.92L723,441.34V636.09c0,16.22-9.89,35.12-22,42.14L554.93,762.57V709.64l-.24-10v-.18c-.25-4.13-.61-7.74-1.1-10.89v-.92c-.13-.8-.31-1.56-.47-2.23v-.18l-.27-1.12a18.63,18.63,0,0,0-.56-1.92c-.22-.63-.26-.88-.42-1.3s-.43-1.14-.67-1.66-.38-.8-.61-1.23a10.47,10.47,0,0,0-.76-1.34c-.2-.32-.41-.62-.64-.92l-.14-.15-.16-.23c-.22-.29-.46-.58-.71-.85a11.45,11.45,0,0,0-1.46-1.23,8.47,8.47,0,0,0-1.36-.82,6.82,6.82,0,0,0-1.34-.63l-.92-.23h-.2a9,9,0,0,0-1.45-.24q-.63,0-1.26,0a11.36,11.36,0,0,0-1.65,0,7.27,7.27,0,0,0-1.32.22c-.47.09-1.21.29-1.86.45h-.18c-.36.13-.74.22-1.14.4-.76.25-1.52.58-2.24.85l-.31.16c-.29.13-.6.25-.89.4-1.08.52-2.13,1-3.2,1.66h0l-.34.2H527l-.49.24h0a66.56,66.56,0,0,0-12.57,9.65l-.29.26-.59.56-.33.32c-2,1.92-3.78,3.84-5.75,6a65.3,65.3,0,0,1-13.15,11.74h0a16,16,0,0,1-1.59,1,11,11,0,0,1-4.3,1.55,7.54,7.54,0,0,1-2.84,0A7.4,7.4,0,0,1,482.57,706.17Z"/><path class="cls-6" d="M555,538.43l-47.45-27.79L527,499.46l10-5.79,8.94-5.19,3.49-2c.92-.45,1.75-.94,2.6-1.34a47.25,47.25,0,0,1,9.35-3.9l1-.24a9.74,9.74,0,0,1,3.09-.23c.58,0,.89.52,1.34.79l47.43,27.31a2.06,2.06,0,0,0-.54-.2,1.46,1.46,0,0,0-.74-.16h0a7.64,7.64,0,0,0-2.24,0,10.51,10.51,0,0,0-1.85.4,69.9,69.9,0,0,0-15.44,7.23l-8.95,5.19-10.06,5.81Z"/><path class="cls-6" d="M616.34,591.51c-4.48-4.48-6.71-12-6.71-21.12a34.08,34.08,0,0,1,.15-3.91v-.16a65.9,65.9,0,0,1,.47-6.71,15,15,0,0,1,.25-2c.16-1.39.36-2.75.58-4s.4-2.37.63-3.51c.13-.6.24-1.18.36-1.74.53-2.49,1.09-5,1.74-7.63.43-1.68.81-3.29,1.16-4.9h0A69.71,69.71,0,0,0,621,508.65a27.58,27.58,0,0,0-.16-3.73,67,67,0,0,0-4-21.05,47,47,0,0,1-3.06-17.47c0-11,0-17.11,23.44-30.65l38.27-21.9,47.6,27.49-38.43,22.19c-23.44,13.43-23.44,19.62-23.44,30.65a46.25,46.25,0,0,0,3.06,17.49,68,68,0,0,1,4.05,21c0,1.12.16,2.42.14,3.71,0,21.63-13.18,46.87-29.44,56.22C630.21,597.75,622,597.32,616.34,591.51Z"/><path class="cls-6" d="M484.38,675.46,436.78,648c.22-.34.49-.7.72-1.05.6-.79,1.23-1.52,1.88-2.24a13,13,0,0,1,1-1,9.18,9.18,0,0,1,1.07-1,16.53,16.53,0,0,1,3-2.24h0q.6-.34,1.23-.63l.54-.2h.13a29.08,29.08,0,0,1,6.24-2.44l.76-.18a44.25,44.25,0,0,1,5.95-.78,40.16,40.16,0,0,0,19.89-6.06l1.57-1c.47-.27.89-.56,1.34-.87a9.77,9.77,0,0,0,1-.68h.14l1.65-1.2,1.59-1.23.27-.23.25-.22.2-.16.65-.58c.2-.18.44-.36.65-.56s.8-.71,1.2-1.12l.56-.56a1.55,1.55,0,0,1,.27-.24l1-1c.41-.43.81-.88,1.19-1.32l.16-.18.64-.76c.29-.41.65-.81.94-1.23l47.67,27.51-.2.22c-.31.45-.65.88-1,1.32s-.43.47-.63.72l-.18.18a26.15,26.15,0,0,1-2.24,2.35l-.44.45a3,3,0,0,0-.34.38l-1.23,1.11-1.3,1.12-.18.18-.55.43c-1,.87-2.11,1.67-3.2,2.46a.34.34,0,0,0-.25.15,42.76,42.76,0,0,1-3.89,2.49l-1.39.71-1.63.83a38.39,38.39,0,0,1-11.61,3.83l-2.06.26h-1l-1.9.18h0a31.5,31.5,0,0,0-8.34,1.43c-.83.27-1.7.61-2.67,1h0c-.6.27-1.27.58-1.94.94h0l-.56.22a11.88,11.88,0,0,0-1.23.63,21.14,21.14,0,0,0-3.09,2.24c-.34.29-.67.59-1,.91s-.67.68-1,1a11.47,11.47,0,0,0-1.16,1.35,8.47,8.47,0,0,0-.69.89A10.66,10.66,0,0,0,484.38,675.46Z"/></g><g class="cls-16"><path class="cls-4" d="M629.85,572.85l-47.71-27.56a4.61,4.61,0,0,1-.65-.38c-2.67-2-3.9-6.19-3.9-11.18a19.54,19.54,0,0,1,0-2.42V531a89.41,89.41,0,0,1,3.11-19.08c.76-3.2,1.57-6.71,2.24-10.31l10.34-6,.4-.23.24-.13h0l8.15-4.36h0l.22-.12a61.32,61.32,0,0,1,7.92-3.26h.31l1.05-.34a9.54,9.54,0,0,1,1.28-.31h.24c.5-.13,1-.27,1.53-.36l1.34-.18h2.75a8.61,8.61,0,0,1,1.59.18h.2l.76.14a12.88,12.88,0,0,1,1.81.62l.54.23a11.38,11.38,0,0,1,4,3.55,3.45,3.45,0,0,1,.25.41,12.85,12.85,0,0,1,1.25,2.23c0,.16.16.34.22.47v.16c.34.83.63,1.72.92,2.66l.18.72a25.17,25.17,0,0,1,.67,3.33l.11.51a65.58,65.58,0,0,1,.61,9.6,112.66,112.66,0,0,1-4,28.81,90.93,90.93,0,0,0-3.09,19.11v.26c0,1-.11,1.77-.11,2.44,0,5,1.46,8.82,4.1,10.83Z"/><path class="cls-4" d="M554.93,517.85l-47.42-27.76V438.77a133.39,133.39,0,0,1,1.43-22.5c1.66-9.15,4.16-11.92,11.37-16.09a28.94,28.94,0,0,1,14.45-4.27c1.68-.13,3.26-.29,4.87-.53l1.28-.23,2.24-.47c.91-.27,1.9-.53,2.93-.89.42-.13.84-.28,1.25-.45a41.62,41.62,0,0,0,4.79-2.1l.2-.11a20.72,20.72,0,0,0,2.79-1.39c8.82-5.08,17.09-15.08,22.69-27.38.38-.81.69-1.61,1-2.4l-1.18,1.19c1.52-1.5,3-3.11,4.47-4.76a89,89,0,0,1,17.5-15.48,23.57,23.57,0,0,1,2.88-1.86c16.22-9.4,29.44.6,29.44,22.21a71.26,71.26,0,0,1-6.71,28.88c-5.62,12.33-13.89,22.37-22.71,27.4a22.53,22.53,0,0,1-2.79,1.37.34.34,0,0,1-.2,0,44.3,44.3,0,0,1-4.79,2.23l-1.25.45a27.92,27.92,0,0,1-2.93.85c-.79.2-1.5.36-2.24.49l-1.3.23c-1.59.22-3.2.42-4.87.53A28.55,28.55,0,0,0,567.71,428c-7.21,4.14-9.73,6.91-11.37,16.06a132.9,132.9,0,0,0-1.47,22.55v33.77h0Z"/><path class="cls-4" d="M559.3,371.31l-47.65-27.56c-2.8-1.7-4.07-8.77-4.07-26.53l-.2-51L555,293.71V345c0,17.89,1.5,24.72,4.34,26.3Z"/><path class="cls-14" d="M629.85,572.85l-47.71-27.56a4.61,4.61,0,0,1-.65-.38c-2.67-2-3.9-6.19-3.9-11.18a19.54,19.54,0,0,1,0-2.42V531a89.41,89.41,0,0,1,3.11-19.08c.76-3.2,1.57-6.71,2.24-10.31l10.34-6,.4-.23.24-.13h0l8.15-4.36h0l.22-.12a61.32,61.32,0,0,1,7.92-3.26h.31l1.05-.34a9.54,9.54,0,0,1,1.28-.31h.24c.5-.13,1-.27,1.53-.36l1.34-.18h2.75a8.61,8.61,0,0,1,1.59.18h.2l.76.14a12.88,12.88,0,0,1,1.81.62l.54.23a11.38,11.38,0,0,1,4,3.55,3.45,3.45,0,0,1,.25.41,12.85,12.85,0,0,1,1.25,2.23c0,.16.16.34.22.47v.16c.34.83.63,1.72.92,2.66l.18.72a25.17,25.17,0,0,1,.67,3.33l.11.51a65.58,65.58,0,0,1,.61,9.6,112.66,112.66,0,0,1-4,28.81,90.93,90.93,0,0,0-3.09,19.11v.26c0,1-.11,1.77-.11,2.44,0,5,1.46,8.82,4.1,10.83Z"/><path class="cls-14" d="M554.93,517.85l-47.42-27.76V438.77a133.39,133.39,0,0,1,1.43-22.5c1.66-9.15,4.16-11.92,11.37-16.09a28.94,28.94,0,0,1,14.45-4.27c1.68-.13,3.26-.29,4.87-.53l1.28-.23,2.24-.47c.91-.27,1.9-.53,2.93-.89.42-.13.84-.28,1.25-.45a41.62,41.62,0,0,0,4.79-2.1l.2-.11a20.72,20.72,0,0,0,2.79-1.39c8.82-5.08,17.09-15.08,22.69-27.38.38-.81.69-1.61,1-2.4l-1.18,1.19c1.52-1.5,3-3.11,4.47-4.76a89,89,0,0,1,17.5-15.48,23.57,23.57,0,0,1,2.88-1.86c16.22-9.4,29.44.6,29.44,22.21a71.26,71.26,0,0,1-6.71,28.88c-5.62,12.33-13.89,22.37-22.71,27.4a22.53,22.53,0,0,1-2.79,1.37.34.34,0,0,1-.2,0,44.3,44.3,0,0,1-4.79,2.23l-1.25.45a27.92,27.92,0,0,1-2.93.85c-.79.2-1.5.36-2.24.49l-1.3.23c-1.59.22-3.2.42-4.87.53A28.55,28.55,0,0,0,567.71,428c-7.21,4.14-9.73,6.91-11.37,16.06a132.9,132.9,0,0,0-1.47,22.55v33.77h0Z"/><path class="cls-14" d="M559.3,371.31l-47.65-27.56c-2.8-1.7-4.07-8.77-4.07-26.53l-.2-51L555,293.71V345c0,17.89,1.5,24.72,4.34,26.3Z"/><path class="cls-4" d="M630.21,573.08l-.36-.21h0l-.76-.49c-2.64-2-4.1-5.84-4.1-10.82a19.25,19.25,0,0,1,.12-2.44v-.27a90.18,90.18,0,0,1,3.08-19.1,112.73,112.73,0,0,0,4-28.82,66.94,66.94,0,0,0-.6-9.59l-.12-.52a25.5,25.5,0,0,0-.67-3.33l-.18-.72c-.29-.93-.58-1.83-.91-2.66V494a1.2,1.2,0,0,0-.23-.47,12.58,12.58,0,0,0-1.25-2.24,2.42,2.42,0,0,0-.25-.4,11.31,11.31,0,0,0-4-3.56l-.54-.22a13.82,13.82,0,0,0-1.81-.63l-.76-.13h-.2a8.42,8.42,0,0,0-1.59-.18h-2.75l-1.34.18a6.1,6.1,0,0,0-1.52.35h-.25A9.08,9.08,0,0,0,612,487l-1.06.33h-.31a60,60,0,0,0-7.92,3.27l-.22.11h0l-8.14,4.36h0l-.25.14-.4.22-10.34,6-28.41,16.47V500.33h0V466.55A133.64,133.64,0,0,1,556.39,444c1.63-9.15,4.16-11.92,11.36-16.06a28.55,28.55,0,0,1,14.43-4.28,35.2,35.2,0,0,0,4.88-.53l1.29-.23c.74-.13,1.46-.29,2.24-.49a27.24,27.24,0,0,0,2.93-.85l1.25-.45a44.3,44.3,0,0,0,4.79-2.23.34.34,0,0,0,.2,0,22.65,22.65,0,0,0,2.8-1.37c8.81-5.12,17.09-15.07,22.7-27.4A71.1,71.1,0,0,0,632,361.26c0-21.61-13.22-31.61-29.43-22.21a23.69,23.69,0,0,0-2.89,1.86,88.89,88.89,0,0,0-17.49,15.48c-1.55,1.65-3,3.26-4.48,4.76a49.64,49.64,0,0,1-7.74,6.35l-1,.63-1.17.69c-1.34.76-2.55,1.48-3.69,2l-1.09.45a4.16,4.16,0,0,1-1,.29,2.89,2.89,0,0,1-1,.16,3.15,3.15,0,0,1-1.7-.43c-2.84-1.58-4.34-8.36-4.34-26.3V293.71l-47.6-27.49,146.24-84.6c.54-.3,1-.59,1.57-.83a10.12,10.12,0,0,1,1.48-.63h0l1.47-.47a8.49,8.49,0,0,1,1.41-.33,13.94,13.94,0,0,1,1.81-.21,12,12,0,0,1,7,1.86l47,27.09h0a12.08,12.08,0,0,1,3.73,3.2,13.46,13.46,0,0,1,1,1.41,9.19,9.19,0,0,1,.59,1c.35.71.69,1.45,1,2.23.11.4.27.81.38,1.23a30.47,30.47,0,0,1,1.19,8.95V420.88l-38.45,22.19-.7.44-.47.27h-.11l-7.63,4.72h0A92.58,92.58,0,0,0,667,455l-.21.16-.44.38-2,1.79-.16.18c-.29.24-.58.53-.85.8s-1.19,1.17-1.74,1.77-.77.78-1.1,1.19-1.1,1.2-1.61,1.83l-1,1.32-1.48,2-.8,1.18-.18.32-.2.31c-.38.56-.79,1.14-1.15,1.74s-.49.88-.71,1.32l-.18.36c-.69,1.25-1.36,2.57-2,3.92l-.13.33c-.27.56-.52,1.14-.74,1.7h0c-.2.58-.43,1.17-.63,1.77l-.18.45-.67,2.05c-.22.74-.42,1.48-.62,2.24s-.38,1.52-.56,2.24-.32,1.5-.45,2.24-.29,1.63-.4,2.46v.13c0,.69-.23,1.39-.29,2.08s-.18,1.75-.27,2.73v.54a7.26,7.26,0,0,1-.11,1.54v5a66.63,66.63,0,0,0,4,24.18,49,49,0,0,1,3.09,15.66v.24c0,.72.11,1.46.13,2.06,0,10.31-6.3,22.37-14,26.84a11.85,11.85,0,0,1-4.63,1.64,5.68,5.68,0,0,1-1,0h-.16a2.15,2.15,0,0,1-.62,0,1.75,1.75,0,0,1-.56,0l-.45-.12-.54-.15a1.16,1.16,0,0,1-.4-.16A1.39,1.39,0,0,1,630.21,573.08Z"/><path class="cls-17" d="M554.93,293.71l-47.6-27.49,146.25-84.6c.54-.3,1-.59,1.57-.83a10,10,0,0,1,1.47-.63h0l1.48-.47a8.49,8.49,0,0,1,1.41-.33,13.74,13.74,0,0,1,1.81-.21,12,12,0,0,1,7,1.86l46.44,26.84a6.62,6.62,0,0,0-1.28-.49,1,1,0,0,1-.29-.11,5.83,5.83,0,0,0-1.25-.29h-.43a2.82,2.82,0,0,0-.82,0h-.81a.67.67,0,0,0-.2,0,7.49,7.49,0,0,0-1.16,0l-.9.13a9.11,9.11,0,0,0-1.79.41l-.89.27-1.75.69c-.67.31-1.34.67-2.06,1.07Z"/></g><g class="cls-18"><path class="cls-4" d="M480.09,556.25l-47.45-27.82h0c-1.85-1.1-2.44-4.16-2.44-10.78a69.57,69.57,0,0,1,1.95-16.2,80.86,80.86,0,0,0-3.62,10.13c4.47-16.44,14.92-32.07,26.84-39,7.85-4.47,15.23-4.72,20.8-.51s8.64,12.23,8.64,22.75a24.27,24.27,0,0,1-.11,2.88v1.23a64.56,64.56,0,0,1-.52,6.82,10.37,10.37,0,0,1-.13,1.12v.34c-.2,1.59-.41,3.13-.65,4.67-.18.92-.36,1.84-.52,2.73s-.35,1.82-.53,2.71c-.5,2.24-1.05,4.67-1.64,7.11a80.72,80.72,0,0,0-3.06,21C477.63,552.09,478.1,555.16,480.09,556.25Z"/><path class="cls-4" d="M371.4,623.85l-47.65-27.47.18-195.08a53.14,53.14,0,0,1,5.43-22.37l47.56,27.45a53.79,53.79,0,0,0-5.57,22.71Z"/><path class="cls-12" d="M480.09,556.25l-47.45-27.82h0c-1.85-1.1-2.44-4.16-2.44-10.78a69.57,69.57,0,0,1,1.95-16.2h0c5.37-12.46,13.8-23.4,23.31-28.88,7.85-4.47,15.23-4.72,20.8-.51s8.55,12.23,8.55,22.75a24.27,24.27,0,0,1-.11,2.88v1.23a64.56,64.56,0,0,1-.52,6.82,10.37,10.37,0,0,1-.13,1.12v.34c-.2,1.59-.41,3.13-.65,4.67-.18.92-.36,1.84-.52,2.73s-.35,1.82-.53,2.71c-.5,2.24-1.05,4.67-1.64,7.11a80.72,80.72,0,0,0-3.06,21C477.63,552.09,478.1,555.16,480.09,556.25Z"/><path class="cls-12" d="M371.4,623.85l-47.65-27.47.18-195.08a53.14,53.14,0,0,1,5.43-22.37l47.56,27.45a53.79,53.79,0,0,0-5.57,22.71Z"/><path class="cls-9" d="M371.4,623.85V429.06a53.78,53.78,0,0,1,5.57-22.7l-47.56-27.45c.13-.29.24-.56.38-.83a12.11,12.11,0,0,1,.67-1.29c.31-.61.63-1.19,1-1.77s.81-1.41,1.25-2.06l.25-.47.2-.27c.38-.62.83-1.27,1.28-1.9h0l.4-.56a8.23,8.23,0,0,1,.76-1,9.44,9.44,0,0,1,.78-1l.23-.29c.4-.51.82-1,1.27-1.5l.54-.56a2.86,2.86,0,0,1,.38-.4l.24-.29.47-.43h0l.83-.8a1,1,0,0,1,.25-.2c.24-.23.47-.47.69-.65l.25-.2h.11l.6-.45c.23-.2.47-.36.7-.54l.67-.53a8,8,0,0,1,.83-.56,10.47,10.47,0,0,1,1.54-1l145.91-84,47.6,27.49v42.86l.7-.71a64.89,64.89,0,0,1,13.17-11.75h.18c.46-.34.94-.66,1.43-1a8.51,8.51,0,0,1,9.15-.33l47.45,27.4a3.36,3.36,0,0,1,.71.47l.41.31a10.85,10.85,0,0,1,3.22,5.77c.13.56.24,1.17.33,1.77a21.48,21.48,0,0,1,.18,3,34.43,34.43,0,0,1-4.09,15.54,27.61,27.61,0,0,1-9.91,11.19,16.27,16.27,0,0,1-1.77.89h-.11a29.4,29.4,0,0,1-13,3.38,40.32,40.32,0,0,0-19.89,6.11,52.76,52.76,0,0,0-7.49,5.17l-.27.2a30.45,30.45,0,0,0-3.09,2.79l-.13.16h0a47.42,47.42,0,0,0-5.89,7.07h0c-.73,1.09-1.45,2.23-2.23,3.51l-.34.6v.18c-.58,1-1.12,2.24-1.63,3.22v.16a5.51,5.51,0,0,0-.31.76,37.13,37.13,0,0,0-1.44,3.56l-.22.58c-.51,1.43-1,2.91-1.36,4.29l-.12.47c-.33,1.23-.65,2.51-.91,3.81a7.33,7.33,0,0,1-.25,1.14v.31c-.18,1-.34,1.9-.51,2.89,0,.56-.21,1.16-.27,1.74s-.27,1.81-.38,2.75v.45c0,.45-.11.92-.14,1.41,0,.94-.2,1.92-.27,2.88v.52a3.51,3.51,0,0,1-.11,1.07v.34l-.51,15.66v51.45l-13.42,7.8L513.66,542l-12.28,7.09c-8.52,4.94-14.47,7.45-18.09,7.72a6,6,0,0,1-.85,0,4.41,4.41,0,0,1-2-.5h0c-1.91-1.09-2.47-4.16-2.47-10.82a81.16,81.16,0,0,1,3.07-21c.58-2.44,1.14-4.81,1.63-7.11.18-.9.38-1.79.54-2.71s.33-1.81.51-2.73c.25-1.54.45-3.08.65-4.67V507a10.38,10.38,0,0,0,.14-1.12c.24-2.34.42-4.47.51-6.82v-1.3c0-.89.13-1.87.11-2.88,0-10.49-3-18.57-8.61-22.77s-12.95-4.05-20.8.51c-9.51,5.48-17.9,16.42-23.31,28.88a66.28,66.28,0,0,0-2.86,7.56c-.27.85-.54,1.72-.77,2.57s-.53,2-.78,3.07a2,2,0,0,0-.13.53c-.23,1-.43,2-.58,3a63,63,0,0,0-.83,6.42,12.31,12.31,0,0,0,0,1.92v2.24a29.81,29.81,0,0,0,.15,3.78,67.1,67.1,0,0,0,4.05,21,48.45,48.45,0,0,1,2.75,11.19v.76a3.68,3.68,0,0,0,0,.47c.12,1.65.21,3.29.21,5,0,11,0,17.11-23.42,30.64Z"/><path class="cls-6" d="M564.33,331.47l47.44,27.4a8.92,8.92,0,0,0-9.19.74c-.4.22-.92.58-1.43.94l-.16.15h-.11a64.33,64.33,0,0,0-13.17,11.75,82.87,82.87,0,0,1-19.89,16.82l-.94.51-.36.18-.27.14c-.71.38-1.41.78-2,1.09l-1.26.54-.42.16-.25.13-1.56.58a12,12,0,0,1-1.44.45h-.18l-1.58.38c-.54.13-1,.16-1.55.25H553.1a8,8,0,0,1-1.3-.23,7.1,7.1,0,0,1-1.25-.36,5.83,5.83,0,0,1-1.14-.51h-.2a9.06,9.06,0,0,1-1-.54,5.82,5.82,0,0,1-.85-.71l-.18-.14L547,391a8,8,0,0,1-.76-.69q-.43-.51-.81-1.05l-.13-.2a18.94,18.94,0,0,1-1.34-2.24l-.14-.29a10.17,10.17,0,0,1-.51-1.05c-.16-.38-.34-.85-.5-1.3v-.58c-.13-.4-.29-.76-.42-1.21s-.31-1.21-.47-1.83-.29-1.08-.38-1.64-.27-1.34-.38-2.05-.2-1.17-.29-1.75-.18-1.5-.27-2.24-.13-1.23-.2-1.85-.16-1.64-.2-2.51v-2.17a14.92,14.92,0,0,0-.14-2.46v-.33l-.15-8.95v-9.26c.2-.25.44-.47.65-.7a64.87,64.87,0,0,1,13.17-11.74h.11l.18-.13a11.92,11.92,0,0,1,1.41-.94A8.58,8.58,0,0,1,564.33,331.47Z"/><path class="cls-12" d="M377,406.38l-47.6-27.49a7.61,7.61,0,0,1,.4-.81,12.11,12.11,0,0,1,.67-1.29c.31-.61.63-1.19,1-1.77s.81-1.41,1.25-2.06a5.62,5.62,0,0,1,.45-.74c.38-.62.83-1.27,1.28-1.9h0l.4-.56a8.23,8.23,0,0,1,.76-1,13.85,13.85,0,0,1,1-1.28c.4-.51.82-1,1.27-1.5l.54-.56a2.86,2.86,0,0,1,.38-.4l.71-.72h0l.83-.8a1,1,0,0,1,.25-.2,7.59,7.59,0,0,1,.94-.85h.11l.6-.45a15.74,15.74,0,0,1,1.37-1.07,8,8,0,0,1,.83-.56,10.47,10.47,0,0,1,1.54-1l145.89-84,47.6,27.49-64.13,37-82,47.36c-.63.36-1.23.74-1.83,1.14a15,15,0,0,0-1.64,1.25,6.76,6.76,0,0,0-.85.67c-.53.43-1.07.94-1.59,1.43s-1.25,1.23-1.85,1.86a45,45,0,0,0-3.74,4.65c-.45.63-.89,1.26-1.32,1.93A55.8,55.8,0,0,0,377,406.38Z"/></g><path class="cls-8" d="M306.86,454.59a9.54,9.54,0,0,0,6.46-2c4.95-3.82,8.64-3.51,13.94-5.79,4.16-1.81,5.84-4,6.71-3.27a5.12,5.12,0,0,1-.11,7,26.1,26.1,0,0,1-5.5,4.83,52.57,52.57,0,0,0,14.4-2.95c11.19-3.8,16.49-2.24,11.41,12C351,473.26,343,478.19,321,477.74a181.47,181.47,0,0,1-24.13-3.27c-21.72-4.27-65.46-10.82-73.08-21.09-21.59-29.08-41.39-53.06-44.12-74.76-2.23-18.21,8.95-28.39,19.31-28.39,5.88,6.2,9.46,13.58,14.87,31,0,0,28.1,50.31,30.94,54C251.9,439,302.25,453.85,306.86,454.59Z"/><path class="cls-8" d="M712.57,268.21c3.78,2.23,7.83,3.2,12.86,6.86a26.32,26.32,0,0,0,11.32,5.71c5.39,1.32,47.83-13,55.68-19.08,16-12.33,29.79-35.53,37.49-44.32,6.33-7.24,13.42-18.16,21.32-18.2,12.9,3.89,10,23.08-.81,40.26-8.95,14.29-25.9,32.35-45.09,44.94-9.31,6.11-52.19,17.18-66.44,18.12-4.32.27-7.52,1.25-15.66,2.41a35.18,35.18,0,0,1-10.29.56,44.48,44.48,0,0,1-12.19-3.73,30.27,30.27,0,0,1-12.17-10.31,19.08,19.08,0,0,1-3.13-8.21,12.54,12.54,0,0,1,1.92-8.48,3.41,3.41,0,0,1,1.28-1.25,4.2,4.2,0,0,1,3.15.22c5.73,2,11.59,5,17.47,6.35,5,1.14,8.64,1.28,8.14.38s-3.44-1.38-6.82-4.25-4.76-7.38-3.09-9.08S708.81,265.88,712.57,268.21Z"/><path class="cls-3" d="M852.06,194.63c9.53,4.68,13.43,11.79,9.18,27.63-3.81,14.23-18.39,38.5-29.87,50.38,0,0-19.64-9.31-30.08-21.41,10.33-15.82,15.32-25.12,25-38.52S846.25,193.05,852.06,194.63Z"/></g></svg>