<svg xmlns="http://www.w3.org/2000/svg" xmlns:xlink="http://www.w3.org/1999/xlink" viewBox="0 0 322.15 266.98"><defs><style>.cls-1{isolation:isolate;}.cls-17,.cls-2,.cls-20,.cls-22,.cls-23,.cls-8{fill:#42e8e0;}.cls-3{opacity:0.1;}.cls-4{fill:#2fd3c7;}.cls-5{fill:#fff;}.cls-6{fill:#18b2a3;opacity:0.7;}.cls-23,.cls-7{opacity:0.2;}.cls-8{mix-blend-mode:lighten;}.cls-9{fill:url(#Áåçûìÿííûé_ãðàäèåíò_18);}.cls-10{fill:#bcbeff;}.cls-11{fill:url(#Áåçûìÿííûé_ãðàäèåíò_18-2);}.cls-12{fill:#0f054c;}.cls-13,.cls-14,.cls-15,.cls-16,.cls-17,.cls-18,.cls-19{opacity:0.5;}.cls-13{fill:url(#Áåçûìÿííûé_ãðàäèåíò_15);}.cls-14{fill:url(#Áåçûìÿííûé_ãðàäèåíò_15-2);}.cls-15{fill:url(#Áåçûìÿííûé_ãðàäèåíò_15-3);}.cls-16{fill:url(#Áåçûìÿííûé_ãðàäèåíò_15-4);}.cls-18{fill:url(#Áåçûìÿííûé_ãðàäèåíò_15-5);}.cls-19{fill:url(#Áåçûìÿííûé_ãðàäèåíò_15-6);}.cls-20{opacity:0.8;}.cls-21{fill:#03002d;}.cls-21,.cls-22{opacity:0.4;}.cls-24{fill:url(#linear-gradient);}</style><linearGradient id="Áåçûìÿííûé_ãðàäèåíò_18" x1="27.1" y1="169.41" x2="234.09" y2="169.41" gradientUnits="userSpaceOnUse"><stop offset="0" stop-color="#5761d7"/><stop offset="0.16" stop-color="#5e67da"/><stop offset="0.41" stop-color="#727ae2"/><stop offset="0.69" stop-color="#9297ee"/><stop offset="1" stop-color="#bcbeff"/></linearGradient><linearGradient id="Áåçûìÿííûé_ãðàäèåíò_18-2" x1="27.1" y1="149.69" x2="234.09" y2="149.69" xlink:href="#Áåçûìÿííûé_ãðàäèåíò_18"/><linearGradient id="Áåçûìÿííûé_ãðàäèåíò_15" x1="85.68" y1="121.72" x2="209.92" y2="121.72" gradientUnits="userSpaceOnUse"><stop offset="0" stop-color="#42e8e0"/><stop offset="0.15" stop-color="#43e3e0"/><stop offset="0.33" stop-color="#45d5df"/><stop offset="0.52" stop-color="#49bddd"/><stop offset="0.72" stop-color="#4e9cdb"/><stop offset="0.93" stop-color="#5472d8"/><stop offset="1" stop-color="#5761d7"/></linearGradient><linearGradient id="Áåçûìÿííûé_ãðàäèåíò_15-2" x1="147.8" y1="99.27" x2="209.92" y2="99.27" xlink:href="#Áåçûìÿííûé_ãðàäèåíò_15"/><linearGradient id="Áåçûìÿííûé_ãðàäèåíò_15-3" x1="85.68" y1="99.27" x2="147.8" y2="99.27" xlink:href="#Áåçûìÿííûé_ãðàäèåíò_15"/><linearGradient id="Áåçûìÿííûé_ãðàäèåíò_15-4" x1="85.68" y1="112.68" x2="209.92" y2="112.68" xlink:href="#Áåçûìÿííûé_ãðàäèåíò_15"/><linearGradient id="Áåçûìÿííûé_ãðàäèåíò_15-5" x1="147.8" y1="135.13" x2="209.92" y2="135.13" xlink:href="#Áåçûìÿííûé_ãðàäèåíò_15"/><linearGradient id="Áåçûìÿííûé_ãðàäèåíò_15-6" x1="85.68" y1="135.13" x2="147.8" y2="135.13" xlink:href="#Áåçûìÿííûé_ãðàäèåíò_15"/><linearGradient id="linear-gradient" x1="147.76" y1="148.54" x2="147.76" gradientUnits="userSpaceOnUse"><stop offset="0" stop-color="#42e8e0"/><stop offset="0" stop-color="#42e8e0" stop-opacity="0.99"/><stop offset="0.11" stop-color="#3ee3da" stop-opacity="0.76"/><stop offset="0.23" stop-color="#3adfd5" stop-opacity="0.56"/><stop offset="0.34" stop-color="#36dbd1" stop-opacity="0.39"/><stop offset="0.46" stop-color="#34d8cd" stop-opacity="0.25"/><stop offset="0.59" stop-color="#32d6ca" stop-opacity="0.14"/><stop offset="0.71" stop-color="#30d4c9" stop-opacity="0.06"/><stop offset="0.85" stop-color="#2fd3c7" stop-opacity="0.01"/><stop offset="1" stop-color="#2fd3c7" stop-opacity="0"/></linearGradient></defs><title>assets</title><g class="cls-1"><g id="Layer_2" data-name="Layer 2"><g id="Ñëîé_1" data-name="Ñëîé 1"><polygon class="cls-2" points="183.79 84.96 183.64 84.69 218.48 64.42 218.56 64.46 254.57 84.22 254.41 84.5 218.49 64.78 183.79 84.96"/><g class="cls-3"><polygon class="cls-2" points="147.8 181.32 132.73 172.62 132.73 190.02 147.8 198.72 162.87 190.02 162.87 172.62 147.8 181.32"/><polygon class="cls-2" points="147.8 198.72 132.73 190.02 132.73 172.62 147.8 181.32 147.8 198.72"/><polygon class="cls-4" points="162.87 190.02 147.8 198.72 147.8 181.32 162.87 172.62 162.87 190.02"/><polygon class="cls-2" points="147.8 181.32 132.73 172.62 147.8 163.92 162.87 172.62 147.8 181.32"/><polygon class="cls-5" points="147.8 181.32 133.39 173 132.73 173.38 147.8 182.08 162.87 173.38 162.22 173 147.8 181.32"/><polygon class="cls-2" points="167.37 192.49 152.31 183.79 152.31 201.19 167.37 209.89 182.44 201.19 182.44 183.79 167.37 192.49"/><polygon class="cls-2" points="167.37 209.89 152.31 201.19 152.31 183.79 167.37 192.49 167.37 209.89"/><polygon class="cls-4" points="182.44 201.19 167.37 209.89 167.37 192.49 182.44 183.79 182.44 201.19"/><polygon class="cls-2" points="167.37 192.49 152.31 183.79 167.37 175.09 182.44 183.79 167.37 192.49"/><polygon class="cls-5" points="167.37 192.49 152.96 184.17 152.31 184.54 167.37 193.24 182.44 184.54 181.79 184.17 167.37 192.49"/><polygon class="cls-2" points="186.94 203.66 171.88 194.96 171.88 212.35 186.94 221.05 202.01 212.35 202.01 194.96 186.94 203.66"/><polygon class="cls-2" points="186.94 221.06 171.88 212.35 171.88 194.96 186.94 203.66 186.94 221.06"/><polygon class="cls-4" points="202.01 212.35 186.94 221.06 186.94 203.66 202.01 194.96 202.01 212.35"/><polygon class="cls-2" points="186.94 203.66 171.88 194.96 186.94 186.26 202.01 194.96 186.94 203.66"/><polygon class="cls-5" points="186.94 203.66 172.53 195.33 171.88 195.71 186.94 204.41 202.01 195.71 202.01 194.96 186.94 203.66"/><polygon class="cls-2" points="128.23 193.24 113.16 184.54 113.16 201.94 128.23 210.64 143.3 201.94 143.3 184.54 128.23 193.24"/><polygon class="cls-2" points="128.23 210.64 113.16 201.94 113.16 184.54 128.23 193.24 128.23 210.64"/><polygon class="cls-4" points="143.3 201.94 128.23 210.64 128.23 193.24 143.3 184.54 143.3 201.94"/><polygon class="cls-2" points="128.23 193.24 113.16 184.54 128.23 175.85 143.3 184.54 128.23 193.24"/><polygon class="cls-5" points="128.23 193.24 113.81 184.92 113.16 185.3 128.23 194 143.3 185.3 142.64 184.92 128.23 193.24"/><polygon class="cls-2" points="147.8 204.41 132.73 195.71 132.73 213.11 147.8 221.81 162.87 213.11 162.87 195.71 147.8 204.41"/><polygon class="cls-2" points="147.8 221.81 132.73 213.11 132.73 195.71 147.8 204.41 147.8 221.81"/><polygon class="cls-4" points="162.87 213.11 147.8 221.81 147.8 204.41 162.87 195.71 162.87 213.11"/><polygon class="cls-2" points="147.8 204.41 132.73 195.71 147.8 187.01 162.87 195.71 147.8 204.41"/><polygon class="cls-5" points="147.8 204.41 133.39 196.09 132.73 196.47 147.8 205.17 162.87 196.47 162.22 196.09 147.8 204.41"/><polygon class="cls-2" points="167.37 215.58 152.31 206.88 152.31 224.28 167.37 232.98 182.44 224.28 182.44 206.88 167.37 215.58"/><polygon class="cls-2" points="167.37 232.98 152.31 224.28 152.31 206.88 167.37 215.58 167.37 232.98"/><polygon class="cls-4" points="182.44 224.28 167.37 232.98 167.37 215.58 182.44 206.88 182.44 224.28"/><polygon class="cls-2" points="167.37 215.58 152.31 206.88 167.37 198.18 182.44 206.88 167.37 215.58"/><polygon class="cls-5" points="167.37 215.58 152.96 207.26 152.31 207.63 167.37 216.33 182.44 207.63 182.44 206.88 167.37 215.58"/><polygon class="cls-2" points="108.66 205.17 93.59 196.47 93.59 213.87 108.66 222.56 123.72 213.87 123.72 196.47 108.66 205.17"/><polygon class="cls-2" points="108.66 222.56 93.59 213.87 93.59 196.47 108.66 205.17 108.66 222.56"/><polygon class="cls-4" points="123.72 213.87 108.66 222.56 108.66 205.17 123.72 196.47 123.72 213.87"/><polygon class="cls-2" points="108.66 205.17 93.59 196.47 108.66 187.77 123.72 196.47 108.66 205.17"/><polygon class="cls-5" points="108.66 205.17 93.59 196.47 93.59 197.22 108.66 205.92 123.72 197.22 123.07 196.84 108.66 205.17"/><polygon class="cls-2" points="128.23 216.33 113.16 207.63 113.16 225.03 128.23 233.73 143.3 225.03 143.3 207.63 128.23 216.33"/><polygon class="cls-2" points="128.23 233.73 113.16 225.03 113.16 207.63 128.23 216.33 128.23 233.73"/><polygon class="cls-4" points="143.3 225.03 128.23 233.73 128.23 216.33 143.3 207.63 143.3 225.03"/><polygon class="cls-2" points="128.23 216.33 113.16 207.63 128.23 198.94 143.3 207.63 128.23 216.33"/><polygon class="cls-5" points="128.23 216.33 113.16 207.63 113.16 208.39 128.23 217.09 143.3 208.39 142.64 208.01 128.23 216.33"/><polygon class="cls-2" points="147.8 227.5 132.73 218.8 132.73 236.2 147.8 244.9 162.87 236.2 162.87 218.8 147.8 227.5"/><polygon class="cls-2" points="147.8 244.9 132.73 236.2 132.73 218.8 147.8 227.5 147.8 244.9"/><polygon class="cls-4" points="162.87 236.2 147.8 244.9 147.8 227.5 162.87 218.8 162.87 236.2"/><polygon class="cls-2" points="147.8 227.5 132.73 218.8 147.8 210.1 162.87 218.8 147.8 227.5"/><polygon class="cls-5" points="147.8 227.5 132.73 218.8 132.73 219.56 147.8 228.25 162.87 219.56 162.87 218.8 147.8 227.5"/><polygon class="cls-2" points="147.8 158.23 132.73 149.53 132.73 166.93 147.8 175.63 162.87 166.93 162.87 149.53 147.8 158.23"/><polygon class="cls-2" points="147.8 175.63 132.73 166.93 132.73 149.53 147.8 158.23 147.8 175.63"/><polygon class="cls-4" points="162.87 166.93 147.8 175.63 147.8 158.23 162.87 149.53 162.87 166.93"/><polygon class="cls-2" points="147.8 158.23 132.73 149.53 147.8 140.84 162.87 149.53 147.8 158.23"/><polygon class="cls-5" points="147.8 158.23 133.39 149.91 132.73 150.29 147.8 158.99 162.87 150.29 162.22 149.91 147.8 158.23"/><polygon class="cls-6" points="147.8 224.67 137.52 218.73 147.8 212.8 158.08 218.73 147.8 224.67"/><polygon class="cls-6" points="128.23 213.5 117.95 207.56 128.23 201.63 138.51 207.57 128.23 213.5"/><polygon class="cls-6" points="167.37 212.75 157.09 206.81 167.37 200.88 177.65 206.81 167.37 212.75"/><polygon class="cls-6" points="186.98 200.96 176.7 195.03 186.98 189.09 197.26 195.03 186.98 200.96"/><polygon class="cls-6" points="108.66 202.33 98.38 196.4 108.66 190.46 118.94 196.4 108.66 202.33"/><polygon class="cls-2" points="167.37 169.4 152.31 160.7 152.31 178.1 167.37 186.8 182.44 178.1 182.44 160.7 167.37 169.4"/><polygon class="cls-2" points="167.37 186.8 152.31 178.1 152.31 160.7 167.37 169.4 167.37 186.8"/><polygon class="cls-4" points="182.44 178.1 167.37 186.8 167.37 169.4 182.44 160.7 182.44 178.1"/><polygon class="cls-2" points="167.37 169.4 152.31 160.7 167.37 152 182.44 160.7 167.37 169.4"/><polygon class="cls-5" points="167.37 169.4 152.96 161.08 152.31 161.46 167.37 170.16 182.44 161.46 181.79 161.08 167.37 169.4"/><polygon class="cls-2" points="186.94 180.57 171.88 171.87 171.88 189.27 186.94 197.97 202.01 189.27 202.01 171.87 186.94 180.57"/><polygon class="cls-2" points="186.94 197.97 171.88 189.27 171.88 171.87 186.94 180.57 186.94 197.97"/><polygon class="cls-4" points="202.01 189.27 186.94 197.97 186.94 180.57 202.01 171.87 202.01 189.27"/><polygon class="cls-2" points="186.94 180.57 171.88 171.87 186.94 163.17 202.01 171.87 186.94 180.57"/><polygon class="cls-5" points="186.94 180.57 172.53 172.25 171.88 172.62 186.94 181.32 202.01 172.62 202.01 171.87 186.94 180.57"/><polygon class="cls-2" points="128.23 170.16 113.16 161.46 113.16 178.85 128.23 187.55 143.3 178.85 143.3 161.46 128.23 170.16"/><polygon class="cls-2" points="128.23 187.55 113.16 178.85 113.16 161.46 128.23 170.16 128.23 187.55"/><polygon class="cls-4" points="143.3 178.85 128.23 187.55 128.23 170.16 143.3 161.46 143.3 178.85"/><polygon class="cls-2" points="128.23 170.16 113.16 161.46 128.23 152.76 143.3 161.46 128.23 170.16"/><polygon class="cls-5" points="128.23 170.16 113.81 161.83 113.16 162.21 128.23 170.91 143.3 162.21 142.64 161.83 128.23 170.16"/><polygon class="cls-2" points="147.8 181.32 132.73 172.62 132.73 190.02 147.8 198.72 162.87 190.02 162.87 172.62 147.8 181.32"/><polygon class="cls-2" points="147.8 198.72 132.73 190.02 132.73 172.62 147.8 181.32 147.8 198.72"/><polygon class="cls-4" points="162.87 190.02 147.8 198.72 147.8 181.32 162.87 172.62 162.87 190.02"/><polygon class="cls-2" points="147.8 181.32 132.73 172.62 147.8 163.92 162.87 172.62 147.8 181.32"/><polygon class="cls-5" points="147.8 181.32 133.39 173 132.73 173.38 147.8 182.08 162.87 173.38 162.22 173 147.8 181.32"/><polygon class="cls-2" points="167.37 192.49 152.31 183.79 152.31 201.19 167.37 209.89 182.44 201.19 182.44 183.79 167.37 192.49"/><polygon class="cls-2" points="167.37 209.89 152.31 201.19 152.31 183.79 167.37 192.49 167.37 209.89"/><polygon class="cls-4" points="182.44 201.19 167.37 209.89 167.37 192.49 182.44 183.79 182.44 201.19"/><polygon class="cls-2" points="167.37 192.49 152.31 183.79 167.37 175.09 182.44 183.79 167.37 192.49"/><polygon class="cls-5" points="167.37 192.49 152.96 184.17 152.31 184.54 167.37 193.24 182.44 184.54 182.44 183.79 167.37 192.49"/><polygon class="cls-2" points="108.66 182.08 93.59 173.38 93.59 190.78 108.66 199.47 123.72 190.78 123.72 173.38 108.66 182.08"/><polygon class="cls-2" points="108.66 199.47 93.59 190.78 93.59 173.38 108.66 182.08 108.66 199.47"/><polygon class="cls-4" points="123.72 190.78 108.66 199.47 108.66 182.08 123.72 173.38 123.72 190.78"/><polygon class="cls-2" points="108.66 182.08 93.59 173.38 108.66 164.68 123.72 173.38 108.66 182.08"/><polygon class="cls-5" points="108.66 182.08 94.24 173.75 93.59 174.13 108.66 182.83 123.72 174.13 123.07 173.75 108.66 182.08"/><polygon class="cls-2" points="128.23 193.24 113.16 184.54 113.16 201.94 128.23 210.64 143.3 201.94 143.3 184.54 128.23 193.24"/><polygon class="cls-2" points="128.23 210.64 113.16 201.94 113.16 184.54 128.23 193.24 128.23 210.64"/><polygon class="cls-4" points="143.3 201.94 128.23 210.64 128.23 193.24 143.3 184.54 143.3 201.94"/><polygon class="cls-2" points="128.23 193.24 113.16 184.54 128.23 175.85 143.3 184.54 128.23 193.24"/><polygon class="cls-5" points="128.23 193.24 113.16 184.54 113.16 185.3 128.23 194 143.3 185.3 142.64 184.92 128.23 193.24"/><polygon class="cls-2" points="147.8 204.41 132.73 195.71 132.73 213.11 147.8 221.81 162.87 213.11 162.87 195.71 147.8 204.41"/><polygon class="cls-2" points="147.8 221.81 132.73 213.11 132.73 195.71 147.8 204.41 147.8 221.81"/><polygon class="cls-4" points="162.87 213.11 147.8 221.81 147.8 204.41 162.87 195.71 162.87 213.11"/><polygon class="cls-2" points="147.8 204.41 132.73 195.71 147.8 187.01 162.87 195.71 147.8 204.41"/><polygon class="cls-5" points="147.8 204.41 132.73 195.71 132.73 196.47 147.8 205.17 162.87 196.47 162.87 195.71 147.8 204.41"/><polygon class="cls-6" points="186.98 177.97 176.7 172.04 186.98 166.1 197.26 172.04 186.98 177.97"/><polygon class="cls-6" points="108.66 179.34 98.38 173.41 108.66 167.48 118.94 173.41 108.66 179.34"/><polygon class="cls-2" points="147.8 135.14 132.73 126.44 132.73 143.84 147.8 152.54 162.87 143.84 162.87 126.44 147.8 135.14"/><polygon class="cls-2" points="147.8 152.54 132.73 143.84 132.73 126.44 147.8 135.14 147.8 152.54"/><polygon class="cls-4" points="162.87 143.84 147.8 152.54 147.8 135.14 162.87 126.44 162.87 143.84"/><polygon class="cls-2" points="147.8 135.14 132.73 126.44 147.8 117.75 162.87 126.44 147.8 135.14"/><polygon class="cls-5" points="147.8 135.14 132.73 126.44 132.73 127.2 147.8 135.9 162.87 127.2 162.87 126.44 147.8 135.14"/><polygon class="cls-2" points="167.37 146.31 152.31 137.61 152.31 155.01 167.37 163.71 182.44 155.01 182.44 137.61 167.37 146.31"/><polygon class="cls-2" points="167.37 163.71 152.31 155.01 152.31 137.61 167.37 146.31 167.37 163.71"/><polygon class="cls-4" points="182.44 155.01 167.37 163.71 167.37 146.31 182.44 137.61 182.44 155.01"/><polygon class="cls-2" points="167.37 146.31 152.31 137.61 167.37 128.91 182.44 137.61 167.37 146.31"/><polygon class="cls-5" points="167.37 146.31 152.31 137.61 152.31 138.37 167.37 147.07 182.44 138.37 182.44 137.61 167.37 146.31"/><polygon class="cls-2" points="186.94 157.48 171.88 148.78 171.88 166.18 186.94 174.88 202.01 166.18 202.01 148.78 186.94 157.48"/><polygon class="cls-2" points="186.94 174.88 171.88 166.18 171.88 148.78 186.94 157.48 186.94 174.88"/><polygon class="cls-4" points="202.01 166.18 186.94 174.88 186.94 157.48 202.01 148.78 202.01 166.18"/><polygon class="cls-2" points="186.94 157.48 171.88 148.78 186.94 140.08 202.01 148.78 186.94 157.48"/><polygon class="cls-5" points="186.94 157.48 171.88 148.78 171.88 149.53 186.94 158.23 202.01 149.53 202.01 148.78 186.94 157.48"/><polygon class="cls-2" points="128.23 147.07 113.16 138.37 113.16 155.76 128.23 164.46 143.3 155.76 143.3 138.37 128.23 147.07"/><polygon class="cls-2" points="128.23 164.46 113.16 155.76 113.16 138.37 128.23 147.07 128.23 164.46"/><polygon class="cls-4" points="143.3 155.76 128.23 164.46 128.23 147.07 143.3 138.37 143.3 155.76"/><polygon class="cls-2" points="128.23 147.07 113.16 138.37 128.23 129.67 143.3 138.37 128.23 147.07"/><polygon class="cls-5" points="128.23 147.07 113.16 138.37 113.16 139.12 128.23 147.82 143.3 139.12 143.3 138.37 128.23 147.07"/><polygon class="cls-2" points="108.66 158.99 93.59 150.29 93.59 167.69 108.66 176.39 123.72 167.69 123.72 150.29 108.66 158.99"/><polygon class="cls-2" points="108.66 176.39 93.59 167.69 93.59 150.29 108.66 158.99 108.66 176.39"/><polygon class="cls-4" points="123.72 167.69 108.66 176.39 108.66 158.99 123.72 150.29 123.72 167.69"/><polygon class="cls-2" points="108.66 158.99 93.59 150.29 108.66 141.59 123.72 150.29 108.66 158.99"/><polygon class="cls-5" points="108.66 158.99 93.59 150.29 93.59 151.04 108.66 159.74 123.72 151.04 123.72 150.29 108.66 158.99"/></g><g class="cls-7"><path class="cls-8" d="M168,203.38l-10.51-6.07a7.26,7.26,0,0,1-3.27-5.67v-2.53a6.89,6.89,0,0,0-3.12-5.4l-2.19-1.27.16-.27,2.19,1.27a7.22,7.22,0,0,1,3.27,5.67v2.53a6.89,6.89,0,0,0,3.12,5.39l10.51,6.07Z"/><path class="cls-8" d="M172.09,201,161.58,195a7.22,7.22,0,0,1-3.27-5.67v-2.53a6.89,6.89,0,0,0-3.12-5.39L153,180.09l.15-.28,2.2,1.27a7.26,7.26,0,0,1,3.27,5.67v2.53a6.89,6.89,0,0,0,3.12,5.4l10.51,6.07Z"/><path class="cls-8" d="M176.18,198.66l-10.51-6.06a7.26,7.26,0,0,1-3.28-5.67v-2.54a6.88,6.88,0,0,0-3.11-5.39l-2.19-1.27.15-.27,2.2,1.27a7.24,7.24,0,0,1,3.27,5.66v2.54a6.9,6.9,0,0,0,3.11,5.39l10.52,6.07Z"/><path class="cls-8" d="M180.27,196.31l-10.52-6.07a7.24,7.24,0,0,1-3.27-5.67V182a6.91,6.91,0,0,0-3.11-5.4l-2.2-1.26.16-.28,2.2,1.27A7.26,7.26,0,0,1,166.8,182v2.53a6.92,6.92,0,0,0,3.11,5.4L180.42,196Z"/><path class="cls-8" d="M184.35,194l-10.51-6.07a7.24,7.24,0,0,1-3.27-5.66v-2.54a6.9,6.9,0,0,0-3.11-5.39l-2.2-1.27.16-.27,2.19,1.26a7.26,7.26,0,0,1,3.28,5.67v2.54a6.88,6.88,0,0,0,3.11,5.39l10.51,6.07Z"/><path class="cls-8" d="M188.44,191.6l-10.51-6.07a7.26,7.26,0,0,1-3.27-5.67v-2.53a6.89,6.89,0,0,0-3.12-5.4l-2.19-1.27.16-.27,2.19,1.27a7.23,7.23,0,0,1,3.28,5.67v2.53a6.88,6.88,0,0,0,3.11,5.39l10.51,6.07Z"/><path class="cls-8" d="M192.53,189.24,182,183.17a7.22,7.22,0,0,1-3.27-5.67V175a6.89,6.89,0,0,0-3.12-5.39l-2.19-1.27.16-.27,2.19,1.26a7.23,7.23,0,0,1,3.27,5.67v2.53a6.89,6.89,0,0,0,3.12,5.4L192.69,189Z"/><path class="cls-8" d="M196.62,186.88l-10.51-6.06a7.23,7.23,0,0,1-3.27-5.67v-2.54a6.89,6.89,0,0,0-3.12-5.39L177.53,166l.15-.27,2.2,1.27a7.24,7.24,0,0,1,3.27,5.66v2.54a6.89,6.89,0,0,0,3.12,5.39l10.51,6.07Z"/><path class="cls-8" d="M200.71,184.53l-10.51-6.07a7.23,7.23,0,0,1-3.28-5.67v-2.53a6.88,6.88,0,0,0-3.11-5.39l-2.2-1.27.16-.28,2.2,1.27a7.24,7.24,0,0,1,3.27,5.67v2.53a6.91,6.91,0,0,0,3.11,5.4l10.51,6.07Z"/><path class="cls-8" d="M204.79,182.17l-10.51-6.07a7.24,7.24,0,0,1-3.27-5.66V167.9a6.9,6.9,0,0,0-3.11-5.39l-2.2-1.27.16-.27,2.2,1.27a7.24,7.24,0,0,1,3.27,5.66v2.54a6.88,6.88,0,0,0,3.11,5.39L205,181.9Z"/><path class="cls-8" d="M208.88,179.82l-10.51-6.07a7.26,7.26,0,0,1-3.27-5.67v-2.53a6.92,6.92,0,0,0-3.11-5.4l-2.2-1.26.16-.28,2.19,1.27a7.23,7.23,0,0,1,3.28,5.67v2.53a6.91,6.91,0,0,0,3.11,5.4L209,179.54Z"/><path class="cls-8" d="M213,177.46l-10.51-6.07a7.24,7.24,0,0,1-3.27-5.66v-2.54a6.89,6.89,0,0,0-3.12-5.39l-2.19-1.27.16-.27,2.19,1.26a7.25,7.25,0,0,1,3.27,5.67v2.54a6.89,6.89,0,0,0,3.12,5.39l10.51,6.07Z"/><path class="cls-8" d="M217.06,175.11,206.55,169a7.23,7.23,0,0,1-3.27-5.67v-2.53a6.89,6.89,0,0,0-3.12-5.4L198,154.17l.15-.27,2.2,1.27a7.24,7.24,0,0,1,3.27,5.67v2.53a6.89,6.89,0,0,0,3.12,5.39l10.51,6.07Z"/><path class="cls-8" d="M221.15,172.75l-10.51-6.07a7.23,7.23,0,0,1-3.28-5.67v-2.53a6.88,6.88,0,0,0-3.11-5.39l-2.2-1.27.16-.28,2.2,1.27a7.26,7.26,0,0,1,3.27,5.67V161a6.91,6.91,0,0,0,3.11,5.4l10.51,6.07Z"/><path class="cls-8" d="M225.23,170.39l-10.51-6.06a7.27,7.27,0,0,1-3.27-5.67v-2.54a6.9,6.9,0,0,0-3.11-5.39l-2.2-1.27.16-.27,2.2,1.27a7.24,7.24,0,0,1,3.27,5.66v2.54a6.9,6.9,0,0,0,3.11,5.39l10.51,6.07Z"/><path class="cls-8" d="M229.32,168,218.81,162a7.24,7.24,0,0,1-3.27-5.67v-2.53a6.94,6.94,0,0,0-3.11-5.4l-2.2-1.26.16-.28,2.19,1.27a7.23,7.23,0,0,1,3.28,5.67v2.53a6.88,6.88,0,0,0,3.11,5.4l10.51,6.06Z"/><path class="cls-8" d="M233.41,165.68l-10.51-6.07a7.24,7.24,0,0,1-3.27-5.66v-2.54a6.89,6.89,0,0,0-3.12-5.39l-2.19-1.27.16-.27,2.19,1.27a7.21,7.21,0,0,1,3.27,5.66V154a6.89,6.89,0,0,0,3.12,5.39l10.51,6.07Z"/><path class="cls-8" d="M237.5,163.33,227,157.26a7.23,7.23,0,0,1-3.27-5.67v-2.53a6.89,6.89,0,0,0-3.12-5.4l-2.19-1.26.15-.28,2.2,1.27a7.24,7.24,0,0,1,3.27,5.67v2.53a6.92,6.92,0,0,0,3.12,5.4l10.51,6.06Z"/><path class="cls-8" d="M241.59,161l-10.51-6.07a7.22,7.22,0,0,1-3.28-5.66V146.7a6.88,6.88,0,0,0-3.11-5.39L222.5,140l.15-.27,2.2,1.26a7.27,7.27,0,0,1,3.27,5.67v2.54a6.9,6.9,0,0,0,3.11,5.39l10.52,6.07Z"/><path class="cls-8" d="M245.68,158.62l-10.52-6.07a7.27,7.27,0,0,1-3.27-5.67v-2.54a6.88,6.88,0,0,0-3.11-5.39l-2.2-1.27.16-.27,2.2,1.27a7.24,7.24,0,0,1,3.27,5.66v2.54a6.9,6.9,0,0,0,3.11,5.39l10.51,6.07Z"/><path class="cls-8" d="M127.31,203.38l-.15-.28L137.67,197a6.9,6.9,0,0,0,3.11-5.39v-2.53a7.24,7.24,0,0,1,3.27-5.67l2.2-1.27.16.27-2.2,1.27a6.88,6.88,0,0,0-3.11,5.4v2.53a7.24,7.24,0,0,1-3.28,5.67Z"/><path class="cls-8" d="M123.23,201l-.16-.27,10.51-6.07a6.88,6.88,0,0,0,3.11-5.4v-2.53a7.26,7.26,0,0,1,3.27-5.67l2.2-1.27.16.28-2.2,1.27a6.9,6.9,0,0,0-3.11,5.39v2.53a7.24,7.24,0,0,1-3.27,5.67Z"/><path class="cls-8" d="M119.14,198.66l-.16-.27,10.51-6.07a6.88,6.88,0,0,0,3.11-5.39v-2.54a7.22,7.22,0,0,1,3.28-5.66l2.19-1.27.16.27L136,179a6.9,6.9,0,0,0-3.11,5.39v2.54a7.27,7.27,0,0,1-3.27,5.67Z"/><path class="cls-8" d="M115.05,196.31l-.16-.28L125.4,190a6.9,6.9,0,0,0,3.12-5.4V182a7.23,7.23,0,0,1,3.27-5.67L134,175.1l.16.28L132,176.64a6.92,6.92,0,0,0-3.12,5.4v2.53a7.24,7.24,0,0,1-3.27,5.67Z"/><path class="cls-8" d="M111,194l-.16-.27,10.51-6.07a6.89,6.89,0,0,0,3.12-5.39v-2.54A7.27,7.27,0,0,1,127.7,174l2.2-1.26.15.27-2.19,1.27a6.89,6.89,0,0,0-3.12,5.39v2.54a7.21,7.21,0,0,1-3.27,5.66Z"/><path class="cls-8" d="M106.87,191.6l-.15-.28,10.51-6.07a6.9,6.9,0,0,0,3.11-5.39v-2.53a7.24,7.24,0,0,1,3.27-5.67l2.2-1.27.16.27-2.2,1.27a6.88,6.88,0,0,0-3.11,5.4v2.53a7.24,7.24,0,0,1-3.28,5.67Z"/><path class="cls-8" d="M102.79,189.24l-.16-.27,10.51-6.07a6.88,6.88,0,0,0,3.11-5.4V175a7.26,7.26,0,0,1,3.27-5.67l2.2-1.26.16.27-2.2,1.27a6.9,6.9,0,0,0-3.11,5.39v2.53a7.24,7.24,0,0,1-3.27,5.67Z"/><path class="cls-8" d="M98.7,186.88l-.16-.27,10.51-6.07a6.88,6.88,0,0,0,3.11-5.39v-2.54a7.22,7.22,0,0,1,3.28-5.66l2.19-1.27.16.27-2.2,1.27a6.9,6.9,0,0,0-3.11,5.39v2.54a7.26,7.26,0,0,1-3.27,5.67Z"/><path class="cls-8" d="M94.61,184.53l-.16-.27L105,178.19a6.89,6.89,0,0,0,3.12-5.4v-2.53a7.22,7.22,0,0,1,3.27-5.67l2.19-1.27.16.28-2.19,1.27a6.89,6.89,0,0,0-3.12,5.39v2.53a7.24,7.24,0,0,1-3.27,5.67Z"/><path class="cls-8" d="M90.52,182.17l-.16-.27,10.51-6.07a6.89,6.89,0,0,0,3.12-5.39V167.9a7.24,7.24,0,0,1,3.27-5.66l2.2-1.27.15.27-2.19,1.27a6.89,6.89,0,0,0-3.12,5.39v2.54A7.21,7.21,0,0,1,101,176.1Z"/><path class="cls-8" d="M86.43,179.82l-.16-.28,10.52-6.06a6.94,6.94,0,0,0,3.11-5.4v-2.53a7.24,7.24,0,0,1,3.27-5.67l2.2-1.27.15.28-2.19,1.26a6.89,6.89,0,0,0-3.11,5.4v2.53a7.24,7.24,0,0,1-3.28,5.67Z"/><path class="cls-8" d="M82.34,177.46l-.15-.27,10.51-6.07a6.9,6.9,0,0,0,3.11-5.39v-2.54a7.27,7.27,0,0,1,3.27-5.67l2.2-1.26.16.27-2.2,1.27a6.88,6.88,0,0,0-3.11,5.39v2.54a7.24,7.24,0,0,1-3.27,5.66Z"/><path class="cls-8" d="M78.26,175.11l-.16-.28,10.51-6.07a6.88,6.88,0,0,0,3.11-5.39v-2.53A7.23,7.23,0,0,1,95,155.17l2.19-1.27.16.27-2.2,1.27a6.91,6.91,0,0,0-3.11,5.4v2.53A7.26,7.26,0,0,1,88.77,169Z"/><path class="cls-8" d="M74.17,172.75l-.16-.27,10.51-6.07a6.88,6.88,0,0,0,3.11-5.4v-2.53a7.24,7.24,0,0,1,3.28-5.67l2.19-1.27.16.28-2.19,1.27A6.89,6.89,0,0,0,88,158.48V161a7.24,7.24,0,0,1-3.27,5.67Z"/><path class="cls-8" d="M70.08,170.39l-.16-.27,10.51-6.07a6.89,6.89,0,0,0,3.12-5.39v-2.54a7.21,7.21,0,0,1,3.27-5.66L89,149.19l.16.27L87,150.73a6.89,6.89,0,0,0-3.12,5.39v2.54a7.25,7.25,0,0,1-3.27,5.67Z"/><path class="cls-8" d="M66,168l-.16-.28,10.51-6.06a6.89,6.89,0,0,0,3.12-5.4v-2.53a7.24,7.24,0,0,1,3.27-5.67l2.2-1.27.15.28-2.19,1.26a6.92,6.92,0,0,0-3.12,5.4v2.53A7.22,7.22,0,0,1,76.5,162Z"/><path class="cls-8" d="M61.9,165.68l-.15-.27,10.51-6.07A6.9,6.9,0,0,0,75.37,154v-2.54a7.24,7.24,0,0,1,3.27-5.66l2.2-1.27.16.27L78.8,146a6.88,6.88,0,0,0-3.11,5.39V154a7.22,7.22,0,0,1-3.28,5.66Z"/><path class="cls-8" d="M57.82,163.33l-.16-.28L68.17,157a6.91,6.91,0,0,0,3.11-5.4v-2.53a7.24,7.24,0,0,1,3.27-5.67l2.2-1.27.16.28-2.2,1.26a6.91,6.91,0,0,0-3.11,5.4v2.53a7.26,7.26,0,0,1-3.27,5.67Z"/><path class="cls-8" d="M53.73,161l-.16-.27,10.51-6.07a6.88,6.88,0,0,0,3.11-5.39V146.7A7.26,7.26,0,0,1,70.47,141l2.19-1.26.16.27-2.2,1.27a6.9,6.9,0,0,0-3.11,5.39v2.54a7.24,7.24,0,0,1-3.27,5.66Z"/><path class="cls-8" d="M49.64,158.62l-.16-.28L60,152.27a6.89,6.89,0,0,0,3.12-5.39v-2.54a7.21,7.21,0,0,1,3.27-5.66l2.19-1.27.16.27L66.54,139a6.89,6.89,0,0,0-3.12,5.39v2.54a7.27,7.27,0,0,1-3.27,5.67Z"/><polygon class="cls-9" points="228.57 141.43 228.57 150.77 147.8 197.4 67.03 150.76 67.03 141.43 228.57 141.43"/><polygon class="cls-10" points="147.8 188.06 67.03 141.43 147.8 94.8 228.57 141.43 147.8 188.06"/><polygon class="cls-5" points="147.8 186.97 67.98 140.89 67.03 141.43 147.8 188.06 228.57 141.43 227.62 140.89 147.8 186.97"/></g><path class="cls-8" d="M139.39,81.48a3.08,3.08,0,0,1-1.5-.46L127.37,75l.16-.27L138,80.74a1.79,1.79,0,0,0,3-1.7V76.5a2.1,2.1,0,0,1,3.43-2l2.2,1.27-.16.27-2.2-1.26a2.08,2.08,0,0,0-2.1-.23,2.11,2.11,0,0,0-.85,1.93V79a2.38,2.38,0,0,1-1,2.2A1.77,1.77,0,0,1,139.39,81.48Z"/><path class="cls-8" d="M135.3,83.83a3.11,3.11,0,0,1-1.5-.46L123.29,77.3l.15-.27L134,83.1a1.79,1.79,0,0,0,2.95-1.71V78.85a2.1,2.1,0,0,1,3.43-2l2.2,1.27-.16.27-2.2-1.26a2.13,2.13,0,0,0-2.1-.23,2.11,2.11,0,0,0-.85,1.93v2.54a2.37,2.37,0,0,1-1,2.2A1.77,1.77,0,0,1,135.3,83.83Z"/><path class="cls-8" d="M131.21,86.18a3,3,0,0,1-1.5-.46L119.2,79.65l.16-.27,10.51,6.07a1.79,1.79,0,0,0,2.95-1.71V81.21a2.39,2.39,0,0,1,1-2.21,2.36,2.36,0,0,1,2.41.23l2.2,1.26-.16.28L136.1,79.5a2.1,2.1,0,0,0-2.1-.22,2.07,2.07,0,0,0-.86,1.93v2.53a2.4,2.4,0,0,1-1,2.21A1.9,1.9,0,0,1,131.21,86.18Z"/><path class="cls-8" d="M127.13,88.53a3,3,0,0,1-1.51-.46L115.11,82l.16-.27,10.51,6.07a1.79,1.79,0,0,0,2.95-1.71V83.56a2.1,2.1,0,0,1,3.44-2l2.19,1.26-.16.28L132,81.85a1.8,1.8,0,0,0-3,1.71v2.53a2.4,2.4,0,0,1-1,2.21A1.86,1.86,0,0,1,127.13,88.53Z"/><path class="cls-8" d="M123,90.88a3,3,0,0,1-1.51-.46L111,84.36l.16-.28,10.51,6.07a1.8,1.8,0,0,0,3-1.71V85.91a2.1,2.1,0,0,1,3.43-2l2.19,1.27-.16.27-2.19-1.27a1.8,1.8,0,0,0-3,1.71v2.53a2.4,2.4,0,0,1-1,2.21A1.76,1.76,0,0,1,123,90.88Z"/><path class="cls-8" d="M119,93.24a3.12,3.12,0,0,1-1.51-.46l-10.51-6.07.16-.28L117.6,92.5a2.08,2.08,0,0,0,2.1.23,2.11,2.11,0,0,0,.86-1.93V88.26a2.1,2.1,0,0,1,3.43-2l2.19,1.27-.15.27-2.2-1.27a1.79,1.79,0,0,0-3,1.71V90.8a2.4,2.4,0,0,1-1,2.2A1.77,1.77,0,0,1,119,93.24Z"/><path class="cls-8" d="M114.86,95.59a3.08,3.08,0,0,1-1.5-.46l-10.51-6.07.15-.27,10.51,6.06a1.79,1.79,0,0,0,3-1.7V90.61a2.1,2.1,0,0,1,3.43-2l2.2,1.27-.16.27-2.2-1.26a2.08,2.08,0,0,0-2.1-.23,2.11,2.11,0,0,0-.85,1.93v2.54a2.38,2.38,0,0,1-1,2.2A1.77,1.77,0,0,1,114.86,95.59Z"/><path class="cls-8" d="M110.77,97.94a3.11,3.11,0,0,1-1.5-.46L98.76,91.41l.16-.27,10.51,6.07a1.79,1.79,0,0,0,2.95-1.71V93a2.1,2.1,0,0,1,3.43-2l2.2,1.27-.16.28-2.2-1.27a2.06,2.06,0,0,0-2.09-.23A2.09,2.09,0,0,0,112.7,93V95.5a2.37,2.37,0,0,1-1,2.2A1.74,1.74,0,0,1,110.77,97.94Z"/><path class="cls-8" d="M106.69,100.29a3,3,0,0,1-1.51-.46L94.67,93.76l.16-.27,10.51,6.07a1.79,1.79,0,0,0,3-1.71V95.32a2.1,2.1,0,0,1,3.43-2l2.2,1.26-.16.28-2.19-1.27a1.8,1.8,0,0,0-3,1.71v2.53a2.42,2.42,0,0,1-1,2.21A1.89,1.89,0,0,1,106.69,100.29Z"/><path class="cls-8" d="M102.6,102.64a3,3,0,0,1-1.51-.46L90.58,96.11l.16-.27,10.51,6.07a1.8,1.8,0,0,0,3-1.71V97.67a2.1,2.1,0,0,1,3.43-2L109.83,97l-.16.27L107.48,96a1.8,1.8,0,0,0-3,1.71v2.53a2.4,2.4,0,0,1-1,2.21A1.86,1.86,0,0,1,102.6,102.64Z"/><path class="cls-8" d="M98.51,105a3,3,0,0,1-1.51-.46L86.49,98.47l.16-.28,10.51,6.07a1.8,1.8,0,0,0,3-1.71V100a2.1,2.1,0,0,1,3.43-2l2.19,1.27-.15.27-2.2-1.27a1.8,1.8,0,0,0-3,1.71v2.53a2.4,2.4,0,0,1-1,2.21A1.76,1.76,0,0,1,98.51,105Z"/><path class="cls-8" d="M94.42,107.34a3.06,3.06,0,0,1-1.5-.45l-10.51-6.07.15-.28,10.51,6.07a1.79,1.79,0,0,0,3-1.7v-2.54a2.1,2.1,0,0,1,3.43-2l2.2,1.27-.16.27-2.2-1.27a1.79,1.79,0,0,0-3,1.71v2.54a2.38,2.38,0,0,1-1,2.2A1.76,1.76,0,0,1,94.42,107.34Z"/><path class="cls-8" d="M90.33,109.7a3.11,3.11,0,0,1-1.5-.46l-10.51-6.07.16-.27L89,109a2.08,2.08,0,0,0,2.1.23,2.11,2.11,0,0,0,.85-1.93v-2.54a2.1,2.1,0,0,1,3.43-2l2.2,1.27-.16.27L95.21,103a2.08,2.08,0,0,0-2.1-.23,2.11,2.11,0,0,0-.85,1.93v2.54a2.38,2.38,0,0,1-1,2.2A1.77,1.77,0,0,1,90.33,109.7Z"/><path class="cls-8" d="M86.25,112.05a3.12,3.12,0,0,1-1.51-.46l-10.51-6.07.16-.27,10.51,6.07a1.79,1.79,0,0,0,2.95-1.71v-2.54a2.1,2.1,0,0,1,3.43-2l2.2,1.27-.16.28-2.19-1.27a1.79,1.79,0,0,0-3,1.7v2.54a2.39,2.39,0,0,1-1,2.2A1.79,1.79,0,0,1,86.25,112.05Z"/><path class="cls-8" d="M82.16,114.4a3,3,0,0,1-1.51-.46l-10.51-6.07.16-.27,10.51,6.07a1.8,1.8,0,0,0,3-1.71v-2.53a2.4,2.4,0,0,1,1-2.21,2.38,2.38,0,0,1,2.42.23l2.19,1.26-.16.28L87,107.72a1.8,1.8,0,0,0-3,1.71V112a2.39,2.39,0,0,1-1,2.2A1.77,1.77,0,0,1,82.16,114.4Z"/><path class="cls-8" d="M78.07,116.75a3,3,0,0,1-1.51-.46l-10.51-6.07.16-.27L76.72,116a1.8,1.8,0,0,0,3-1.71v-2.53a2.4,2.4,0,0,1,1-2.21,2.38,2.38,0,0,1,2.42.23l2.19,1.27-.15.27L83,110.07a1.8,1.8,0,0,0-3,1.71v2.53a2.4,2.4,0,0,1-1,2.21A1.86,1.86,0,0,1,78.07,116.75Z"/><path class="cls-8" d="M74,119.1a3,3,0,0,1-1.5-.46L62,112.58l.16-.28,10.51,6.07a1.8,1.8,0,0,0,3-1.71v-2.53a2.1,2.1,0,0,1,3.43-2l2.19,1.27-.15.27-2.2-1.27a1.79,1.79,0,0,0-3,1.71v2.53a2.39,2.39,0,0,1-1,2.21A1.76,1.76,0,0,1,74,119.1Z"/><path class="cls-8" d="M69.89,121.46a3.11,3.11,0,0,1-1.5-.46l-10.51-6.07.15-.28,10.52,6.07a2.08,2.08,0,0,0,2.1.23A2.11,2.11,0,0,0,71.5,119v-2.54a2.1,2.1,0,0,1,3.43-2l2.2,1.27L77,116l-2.2-1.27a1.79,1.79,0,0,0-3,1.71V119a2.38,2.38,0,0,1-1,2.2A1.77,1.77,0,0,1,69.89,121.46Z"/><path class="cls-8" d="M65.8,123.81a3.11,3.11,0,0,1-1.5-.46l-10.51-6.07L54,117l10.51,6.06a2.08,2.08,0,0,0,2.1.23,2.11,2.11,0,0,0,.85-1.93v-2.54a2.1,2.1,0,0,1,3.43-2l2.2,1.27-.16.27-2.19-1.26a1.79,1.79,0,0,0-3,1.7v2.54a2.4,2.4,0,0,1-1,2.2A1.8,1.8,0,0,1,65.8,123.81Z"/><path class="cls-8" d="M61.72,126.16a3.12,3.12,0,0,1-1.51-.46L49.7,119.63l.16-.27,10.51,6.07a1.79,1.79,0,0,0,3-1.71v-2.54a2.11,2.11,0,0,1,3.44-2L69,120.47l-.16.28-2.19-1.27a1.79,1.79,0,0,0-3,1.7v2.54a2.39,2.39,0,0,1-1,2.2A1.77,1.77,0,0,1,61.72,126.16Z"/><path class="cls-8" d="M156.14,81.67a1.77,1.77,0,0,1-.91-.24,2.39,2.39,0,0,1-1-2.2V76.69a1.79,1.79,0,0,0-3-1.7l-2.19,1.26-.16-.27,2.19-1.27a2.1,2.1,0,0,1,3.43,2v2.54a1.8,1.8,0,0,0,3,1.71L168,74.87l.16.27-10.51,6.07A3.12,3.12,0,0,1,156.14,81.67Z"/><path class="cls-8" d="M160.23,84a1.86,1.86,0,0,1-.91-.23,2.4,2.4,0,0,1-1-2.21V79.05a1.8,1.8,0,0,0-3-1.71l-2.2,1.27-.15-.28,2.19-1.26a2.38,2.38,0,0,1,2.42-.23,2.4,2.4,0,0,1,1,2.21v2.53a1.8,1.8,0,0,0,3,1.71l10.51-6.07.16.27-10.51,6.07A3,3,0,0,1,160.23,84Z"/><path class="cls-8" d="M164.32,86.37a1.86,1.86,0,0,1-.91-.23,2.39,2.39,0,0,1-1-2.21V81.4a1.79,1.79,0,0,0-2.95-1.71L157.24,81l-.15-.27,2.19-1.27a2.1,2.1,0,0,1,3.43,2v2.53a2.08,2.08,0,0,0,.86,1.93,2.1,2.1,0,0,0,2.1-.22l10.51-6.07.16.27-10.52,6.07A3,3,0,0,1,164.32,86.37Z"/><path class="cls-8" d="M168.41,88.72a1.76,1.76,0,0,1-.91-.23,2.39,2.39,0,0,1-1-2.21V83.75A1.79,1.79,0,0,0,163.53,82l-2.2,1.27-.16-.27,2.2-1.27a2.1,2.1,0,0,1,3.43,2v2.53A1.79,1.79,0,0,0,169.75,88l10.52-6.07.15.28-10.51,6.06A3,3,0,0,1,168.41,88.72Z"/><path class="cls-8" d="M172.5,91.08a1.74,1.74,0,0,1-.91-.24,2.38,2.38,0,0,1-1-2.2V86.1a1.8,1.8,0,0,0-3-1.71l-2.19,1.27-.16-.27,2.2-1.27a2.1,2.1,0,0,1,3.43,2v2.54a1.79,1.79,0,0,0,3,1.7l10.51-6.07.16.28L174,90.62A3.11,3.11,0,0,1,172.5,91.08Z"/><path class="cls-8" d="M176.58,93.43a1.77,1.77,0,0,1-.91-.24,2.4,2.4,0,0,1-1-2.2V88.45a1.79,1.79,0,0,0-3-1.7L169.51,88l-.16-.27,2.19-1.27a2.11,2.11,0,0,1,3.44,2V91a2.11,2.11,0,0,0,.85,1.93,2.08,2.08,0,0,0,2.1-.23l10.51-6.06.16.27L178.09,93A3.12,3.12,0,0,1,176.58,93.43Z"/><path class="cls-8" d="M180.67,95.78a1.77,1.77,0,0,1-.91-.24,2.39,2.39,0,0,1-1-2.2V90.8a1.8,1.8,0,0,0-3-1.7l-2.19,1.27-.16-.28,2.19-1.27a2.1,2.1,0,0,1,3.43,2v2.54a1.8,1.8,0,0,0,3,1.71L192.53,89l.16.27-10.51,6.07A3,3,0,0,1,180.67,95.78Z"/><path class="cls-8" d="M184.76,98.13a1.86,1.86,0,0,1-.91-.23,2.38,2.38,0,0,1-1-2.21V93.16a1.8,1.8,0,0,0-3-1.71l-2.2,1.27-.15-.28,2.19-1.26a2.38,2.38,0,0,1,2.42-.23,2.4,2.4,0,0,1,1,2.21v2.53a1.8,1.8,0,0,0,3,1.71l10.51-6.07.16.27-10.51,6.07A3,3,0,0,1,184.76,98.13Z"/><path class="cls-8" d="M188.85,100.48a1.86,1.86,0,0,1-.91-.23,2.39,2.39,0,0,1-1-2.21V95.51A1.79,1.79,0,0,0,184,93.8l-2.2,1.27-.16-.27,2.2-1.27a2.1,2.1,0,0,1,3.43,2V98a2.08,2.08,0,0,0,.86,1.93,2.1,2.1,0,0,0,2.1-.22l10.51-6.07.15.28L190.35,100A3,3,0,0,1,188.85,100.48Z"/><path class="cls-8" d="M192.94,102.83a1.74,1.74,0,0,1-.91-.23,2.39,2.39,0,0,1-1-2.21V97.86a1.79,1.79,0,0,0-2.95-1.71l-2.2,1.27-.16-.27,2.2-1.27a2.1,2.1,0,0,1,3.43,2v2.53a1.79,1.79,0,0,0,2.95,1.71L204.79,96l.16.28-10.51,6.07A3.09,3.09,0,0,1,192.94,102.83Z"/><path class="cls-8" d="M197,105.19a1.79,1.79,0,0,1-.91-.24,2.4,2.4,0,0,1-1-2.2v-2.54a1.8,1.8,0,0,0-3-1.71L190,99.77l-.16-.27,2.2-1.27a2.1,2.1,0,0,1,3.43,2v2.54a1.79,1.79,0,0,0,3,1.7l10.51-6.07.16.28-10.51,6.07A3.12,3.12,0,0,1,197,105.19Z"/><path class="cls-8" d="M201.11,107.54a1.77,1.77,0,0,1-.91-.24,2.4,2.4,0,0,1-1-2.2v-2.54a1.79,1.79,0,0,0-3-1.7L194,102.12l-.16-.27,2.19-1.27a2.1,2.1,0,0,1,3.43,2v2.54a1.79,1.79,0,0,0,3,1.7L213,100.74l.16.27-10.51,6.07A3.12,3.12,0,0,1,201.11,107.54Z"/><path class="cls-8" d="M205.2,109.89a1.77,1.77,0,0,1-.91-.24,2.39,2.39,0,0,1-1-2.2v-2.54a1.8,1.8,0,0,0-3-1.7l-2.2,1.27-.15-.28,2.19-1.27a2.1,2.1,0,0,1,3.43,2v2.54a1.8,1.8,0,0,0,3,1.71l10.51-6.07.16.27-10.51,6.07A3,3,0,0,1,205.2,109.89Z"/><path class="cls-8" d="M209.29,112.24a1.86,1.86,0,0,1-.91-.23,2.39,2.39,0,0,1-1-2.21v-2.53a1.79,1.79,0,0,0-3-1.71l-2.2,1.27-.16-.28,2.2-1.26a2.1,2.1,0,0,1,3.43,2v2.53a2.08,2.08,0,0,0,.86,1.93,2.1,2.1,0,0,0,2.1-.22l10.51-6.07.15.27-10.51,6.07A3,3,0,0,1,209.29,112.24Z"/><path class="cls-8" d="M213.38,114.59a1.84,1.84,0,0,1-.91-.23,2.39,2.39,0,0,1-1-2.21v-2.53a1.79,1.79,0,0,0-2.95-1.71l-2.2,1.27-.16-.27,2.2-1.27a2.1,2.1,0,0,1,3.43,2v2.53a1.79,1.79,0,0,0,2.95,1.71l10.51-6.07.16.27-10.51,6.07A3,3,0,0,1,213.38,114.59Z"/><path class="cls-8" d="M217.46,116.94a1.79,1.79,0,0,1-.91-.23,2.4,2.4,0,0,1-1-2.21V112a2.08,2.08,0,0,0-.86-1.93,2.1,2.1,0,0,0-2.1.22l-2.19,1.27-.16-.27,2.2-1.27a2.1,2.1,0,0,1,3.43,2v2.53a1.79,1.79,0,0,0,2.95,1.71l10.51-6.07.16.28L219,116.49A3.1,3.1,0,0,1,217.46,116.94Z"/><path class="cls-8" d="M221.55,119.3a1.77,1.77,0,0,1-.91-.24,2.4,2.4,0,0,1-1-2.2v-2.54a2.11,2.11,0,0,0-.86-1.93,2.08,2.08,0,0,0-2.1.23l-2.19,1.26-.16-.27,2.19-1.27a2.1,2.1,0,0,1,3.43,2v2.54a2.11,2.11,0,0,0,.86,1.93,2.08,2.08,0,0,0,2.1-.23l10.51-6.06.16.27-10.51,6.07A3.12,3.12,0,0,1,221.55,119.3Z"/><path class="cls-8" d="M225.64,121.65a1.77,1.77,0,0,1-.91-.24,2.4,2.4,0,0,1-1-2.2v-2.54a2.11,2.11,0,0,0-.86-1.93,2.08,2.08,0,0,0-2.1.23l-2.2,1.26-.15-.27,2.19-1.27a2.1,2.1,0,0,1,3.43,2v2.54a1.8,1.8,0,0,0,3,1.71l10.51-6.07.16.27-10.51,6.07A3.12,3.12,0,0,1,225.64,121.65Z"/><path class="cls-8" d="M229.73,124a1.77,1.77,0,0,1-.91-.24,2.37,2.37,0,0,1-1-2.2V119a1.79,1.79,0,0,0-3-1.71l-2.2,1.27-.15-.28,2.19-1.27a2.1,2.1,0,0,1,3.43,2v2.53a2.08,2.08,0,0,0,.86,1.93,2.1,2.1,0,0,0,2.1-.22l10.51-6.07.16.27-10.52,6.07A3,3,0,0,1,229.73,124Z"/><path class="cls-8" d="M233.82,126.35a1.86,1.86,0,0,1-.91-.23,2.39,2.39,0,0,1-1-2.21v-2.53a1.79,1.79,0,0,0-2.95-1.71l-2.2,1.27-.16-.28,2.2-1.26a2.1,2.1,0,0,1,3.43,2v2.53a1.79,1.79,0,0,0,2.95,1.71l10.52-6.07.15.27-10.51,6.07A3,3,0,0,1,233.82,126.35Z"/><polygon class="cls-11" points="228.57 121.71 228.57 131.04 147.8 177.68 67.03 131.04 67.03 121.71 228.57 121.71"/><polygon class="cls-10" points="147.8 168.34 67.03 121.71 147.8 75.08 228.57 121.71 147.8 168.34"/><polygon class="cls-5" points="147.8 167.25 67.98 121.17 67.03 121.71 147.8 168.34 228.57 121.71 227.62 121.17 147.8 167.25"/><polygon class="cls-12" points="147.8 157.59 85.68 121.72 147.8 85.86 209.92 121.72 147.8 157.59"/><polygon class="cls-13" points="147.8 157.59 85.68 121.72 147.8 85.86 209.92 121.72 147.8 157.59"/><polygon class="cls-14" points="147.8 76.81 209.92 112.68 209.92 121.72 147.8 85.85 147.8 76.81"/><polygon class="cls-15" points="147.8 85.85 85.68 121.72 85.68 112.68 147.8 76.81 147.8 85.85"/><polygon class="cls-16" points="147.8 148.54 85.68 112.68 147.8 76.81 209.92 112.68 147.8 148.54"/><polygon class="cls-17" points="147.8 127.01 122.98 112.68 147.8 98.35 172.62 112.68 147.8 127.01"/><polygon class="cls-17" points="147.8 99.66 171.48 113.34 172.62 112.68 147.8 98.35 122.98 112.68 124.12 113.34 147.8 99.66"/><polygon class="cls-18" points="147.8 148.54 147.8 157.59 209.92 121.72 209.92 112.68 147.8 148.54"/><polygon class="cls-19" points="85.68 112.68 85.68 121.72 147.8 157.59 147.8 148.54 85.68 112.68"/><polygon class="cls-20" points="147.8 147.56 86.53 112.18 85.68 112.68 147.8 148.54 209.92 112.68 209.07 112.18 147.8 147.56"/><path class="cls-8" d="M168,188.64l-10.51-6.07a7.24,7.24,0,0,1-3.27-5.67v-2.53A6.89,6.89,0,0,0,151.1,169l-2.19-1.27.16-.28,2.19,1.27a7.23,7.23,0,0,1,3.27,5.67v2.53a6.89,6.89,0,0,0,3.12,5.4l10.51,6.07Z"/><path class="cls-8" d="M172.09,186.28l-10.51-6.06a7.25,7.25,0,0,1-3.27-5.67V172a6.89,6.89,0,0,0-3.12-5.39L153,165.35l.15-.27,2.2,1.27a7.24,7.24,0,0,1,3.27,5.66v2.54a6.89,6.89,0,0,0,3.12,5.39L172.25,186Z"/><path class="cls-8" d="M176.18,183.93l-10.51-6.07a7.23,7.23,0,0,1-3.28-5.67v-2.53a6.91,6.91,0,0,0-3.11-5.4L157.09,163l.15-.28,2.2,1.27a7.26,7.26,0,0,1,3.27,5.67v2.53a6.94,6.94,0,0,0,3.11,5.4l10.52,6.07Z"/><path class="cls-8" d="M180.27,181.57l-10.52-6.07a7.24,7.24,0,0,1-3.27-5.66V167.3a6.88,6.88,0,0,0-3.11-5.39l-2.2-1.27.16-.27,2.2,1.26a7.27,7.27,0,0,1,3.27,5.67v2.54a6.9,6.9,0,0,0,3.11,5.39l10.51,6.07Z"/><path class="cls-8" d="M184.35,179.22l-10.51-6.07a7.26,7.26,0,0,1-3.27-5.67V165a6.91,6.91,0,0,0-3.11-5.4l-2.2-1.26.16-.28,2.19,1.27a7.23,7.23,0,0,1,3.28,5.67v2.53a6.91,6.91,0,0,0,3.11,5.4l10.51,6.06Z"/><path class="cls-8" d="M188.44,176.86l-10.51-6.07a7.24,7.24,0,0,1-3.27-5.66v-2.54a6.89,6.89,0,0,0-3.12-5.39l-2.19-1.27.16-.27,2.19,1.26a7.24,7.24,0,0,1,3.28,5.67v2.54a6.88,6.88,0,0,0,3.11,5.39l10.51,6.07Z"/><path class="cls-8" d="M192.53,174.5,182,168.44a7.23,7.23,0,0,1-3.27-5.67v-2.54a6.89,6.89,0,0,0-3.12-5.39l-2.19-1.27.16-.27,2.19,1.27a7.21,7.21,0,0,1,3.27,5.66v2.54a6.89,6.89,0,0,0,3.12,5.39l10.51,6.07Z"/><path class="cls-8" d="M196.62,172.15l-10.51-6.07a7.22,7.22,0,0,1-3.27-5.67v-2.53a6.89,6.89,0,0,0-3.12-5.39l-2.19-1.27.15-.28,2.2,1.27a7.24,7.24,0,0,1,3.27,5.67v2.53a6.89,6.89,0,0,0,3.12,5.4l10.51,6.07Z"/><path class="cls-8" d="M200.71,169.79l-10.51-6.06a7.26,7.26,0,0,1-3.28-5.67v-2.54a6.88,6.88,0,0,0-3.11-5.39l-2.2-1.27.16-.27,2.2,1.27a7.24,7.24,0,0,1,3.27,5.66v2.54a6.9,6.9,0,0,0,3.11,5.39l10.51,6.07Z"/><path class="cls-8" d="M204.79,167.44l-10.51-6.07A7.24,7.24,0,0,1,191,155.7v-2.53a6.92,6.92,0,0,0-3.11-5.4l-2.2-1.26.16-.28,2.2,1.27a7.24,7.24,0,0,1,3.27,5.67v2.53a6.89,6.89,0,0,0,3.11,5.4L205,167.16Z"/><path class="cls-8" d="M208.88,165.08,198.37,159a7.24,7.24,0,0,1-3.27-5.66v-2.54a6.9,6.9,0,0,0-3.11-5.39l-2.2-1.27.16-.27,2.19,1.26a7.26,7.26,0,0,1,3.28,5.67v2.54a6.88,6.88,0,0,0,3.11,5.39L209,164.81Z"/><path class="cls-8" d="M213,162.73l-10.51-6.07a7.26,7.26,0,0,1-3.27-5.67v-2.53a6.89,6.89,0,0,0-3.12-5.4l-2.19-1.27.16-.27,2.19,1.27a7.22,7.22,0,0,1,3.27,5.67V151a6.89,6.89,0,0,0,3.12,5.39l10.51,6.07Z"/><path class="cls-8" d="M217.06,160.37l-10.51-6.07a7.22,7.22,0,0,1-3.27-5.67V146.1a6.89,6.89,0,0,0-3.12-5.39L198,139.44l.15-.27,2.2,1.26a7.26,7.26,0,0,1,3.27,5.67v2.53a6.89,6.89,0,0,0,3.12,5.4l10.51,6.07Z"/><path class="cls-8" d="M221.15,158,210.64,152a7.26,7.26,0,0,1-3.28-5.67v-2.54a6.88,6.88,0,0,0-3.11-5.39l-2.2-1.27.16-.27,2.2,1.27a7.24,7.24,0,0,1,3.27,5.66v2.54a6.9,6.9,0,0,0,3.11,5.39l10.51,6.07Z"/><path class="cls-8" d="M225.23,155.66l-10.51-6.07a7.24,7.24,0,0,1-3.27-5.67v-2.53a6.94,6.94,0,0,0-3.11-5.4l-2.2-1.26.16-.28,2.2,1.27a7.26,7.26,0,0,1,3.27,5.67v2.53a6.91,6.91,0,0,0,3.11,5.4l10.51,6.06Z"/><path class="cls-8" d="M229.32,153.3l-10.51-6.07a7.24,7.24,0,0,1-3.27-5.66V139a6.9,6.9,0,0,0-3.11-5.39l-2.2-1.27.16-.27,2.19,1.27a7.22,7.22,0,0,1,3.28,5.66v2.54A6.88,6.88,0,0,0,219,147L229.48,153Z"/><path class="cls-8" d="M233.41,151l-10.51-6.07a7.26,7.26,0,0,1-3.27-5.67v-2.53a6.89,6.89,0,0,0-3.12-5.4L214.32,130l.16-.28,2.19,1.27a7.22,7.22,0,0,1,3.27,5.67v2.53a6.92,6.92,0,0,0,3.12,5.4l10.51,6.06Z"/><path class="cls-8" d="M237.5,148.59,227,142.52a7.21,7.21,0,0,1-3.27-5.66v-2.54a6.89,6.89,0,0,0-3.12-5.39l-2.19-1.27.15-.27,2.2,1.26a7.27,7.27,0,0,1,3.27,5.67v2.54a6.89,6.89,0,0,0,3.12,5.39l10.51,6.07Z"/><path class="cls-8" d="M241.59,146.24l-10.51-6.07a7.24,7.24,0,0,1-3.28-5.67V132a6.88,6.88,0,0,0-3.11-5.39l-2.19-1.27.15-.27,2.2,1.27a7.24,7.24,0,0,1,3.27,5.66v2.54a6.9,6.9,0,0,0,3.11,5.39L241.75,146Z"/><path class="cls-8" d="M245.68,143.88l-10.52-6.07a7.24,7.24,0,0,1-3.27-5.67v-2.53a6.88,6.88,0,0,0-3.11-5.39l-2.2-1.27.16-.28,2.2,1.27a7.26,7.26,0,0,1,3.27,5.67v2.53a6.91,6.91,0,0,0,3.11,5.4l10.51,6.07Z"/><path class="cls-8" d="M127.31,188.64l-.15-.27,10.51-6.07a6.91,6.91,0,0,0,3.11-5.4v-2.53a7.26,7.26,0,0,1,3.27-5.67l2.2-1.27.16.28-2.2,1.27a6.88,6.88,0,0,0-3.11,5.39v2.53a7.23,7.23,0,0,1-3.28,5.67Z"/><path class="cls-8" d="M123.23,186.28l-.16-.27,10.51-6.07a6.88,6.88,0,0,0,3.11-5.39V172a7.24,7.24,0,0,1,3.27-5.66l2.2-1.27.16.27-2.2,1.27A6.9,6.9,0,0,0,137,172v2.54a7.27,7.27,0,0,1-3.27,5.67Z"/><path class="cls-8" d="M119.14,183.93l-.16-.27,10.51-6.07a6.91,6.91,0,0,0,3.11-5.4v-2.53a7.23,7.23,0,0,1,3.28-5.67l2.19-1.27.16.28-2.2,1.26a6.94,6.94,0,0,0-3.11,5.4v2.53a7.24,7.24,0,0,1-3.27,5.67Z"/><path class="cls-8" d="M115.05,181.57l-.16-.27,10.51-6.07a6.89,6.89,0,0,0,3.12-5.39V167.3a7.25,7.25,0,0,1,3.27-5.67l2.19-1.26.16.27L132,161.91a6.89,6.89,0,0,0-3.12,5.39v2.54a7.24,7.24,0,0,1-3.27,5.66Z"/><path class="cls-8" d="M111,179.22l-.16-.28,10.51-6.06a6.92,6.92,0,0,0,3.12-5.4V165a7.24,7.24,0,0,1,3.27-5.67l2.2-1.27.15.28-2.19,1.26a6.89,6.89,0,0,0-3.12,5.4v2.53a7.23,7.23,0,0,1-3.27,5.67Z"/><path class="cls-8" d="M106.87,176.86l-.15-.27,10.51-6.07a6.9,6.9,0,0,0,3.11-5.39v-2.54a7.26,7.26,0,0,1,3.27-5.67l2.2-1.26.16.27-2.2,1.27a6.88,6.88,0,0,0-3.11,5.39v2.54a7.22,7.22,0,0,1-3.28,5.66Z"/><path class="cls-8" d="M102.79,174.5l-.16-.27,10.51-6.07a6.88,6.88,0,0,0,3.11-5.39v-2.54a7.24,7.24,0,0,1,3.27-5.66l2.2-1.27.16.27-2.2,1.27a6.9,6.9,0,0,0-3.11,5.39v2.54a7.26,7.26,0,0,1-3.27,5.67Z"/><path class="cls-8" d="M98.7,172.15l-.16-.27,10.51-6.07a6.88,6.88,0,0,0,3.11-5.4v-2.53a7.23,7.23,0,0,1,3.28-5.67l2.19-1.27.16.28-2.2,1.27a6.9,6.9,0,0,0-3.11,5.39v2.53a7.24,7.24,0,0,1-3.27,5.67Z"/><path class="cls-8" d="M77.65,179.35l-.08,0-44.7-25.67.15-.27L77.65,179l16.8-9.47L105,163.45a6.89,6.89,0,0,0,3.12-5.39v-2.54a7.21,7.21,0,0,1,3.27-5.66l2.19-1.27.16.27-2.19,1.27a6.89,6.89,0,0,0-3.12,5.39v2.54a7.27,7.27,0,0,1-3.27,5.67l-10.51,6.06Z"/><path class="cls-8" d="M90.52,167.44l-.16-.28,10.51-6.06a6.9,6.9,0,0,0,3.12-5.4v-2.53a7.24,7.24,0,0,1,3.27-5.67l2.2-1.27.15.28-2.19,1.26a6.9,6.9,0,0,0-3.12,5.4v2.53a7.22,7.22,0,0,1-3.27,5.67Z"/><path class="cls-8" d="M86.43,165.08l-.16-.27,10.52-6.07a6.9,6.9,0,0,0,3.11-5.39v-2.54a7.27,7.27,0,0,1,3.27-5.67l2.2-1.26.15.27-2.19,1.27a6.88,6.88,0,0,0-3.11,5.39v2.54A7.22,7.22,0,0,1,96.94,159Z"/><path class="cls-8" d="M82.34,162.73l-.15-.28,10.51-6.07A6.9,6.9,0,0,0,95.81,151v-2.53a7.24,7.24,0,0,1,3.27-5.67l2.2-1.27.16.27-2.2,1.27a6.88,6.88,0,0,0-3.11,5.4V151a7.26,7.26,0,0,1-3.27,5.67Z"/><path class="cls-8" d="M78.26,160.37l-.16-.27L88.61,154a6.88,6.88,0,0,0,3.11-5.4V146.1A7.24,7.24,0,0,1,95,140.43l2.19-1.26.16.27-2.2,1.27A6.9,6.9,0,0,0,92,146.1v2.53a7.24,7.24,0,0,1-3.27,5.67Z"/><path class="cls-8" d="M74.17,158l-.16-.27,10.51-6.07a6.88,6.88,0,0,0,3.11-5.39v-2.54a7.22,7.22,0,0,1,3.28-5.66l2.19-1.27.16.27-2.19,1.27A6.89,6.89,0,0,0,88,143.74v2.54A7.27,7.27,0,0,1,84.68,152Z"/><path class="cls-8" d="M70.08,155.66l-.16-.28,10.51-6.06a6.89,6.89,0,0,0,3.12-5.4v-2.53a7.23,7.23,0,0,1,3.27-5.67L89,134.45l.16.28L87,136a6.92,6.92,0,0,0-3.12,5.4v2.53a7.22,7.22,0,0,1-3.27,5.67Z"/><path class="cls-8" d="M66,153.3l-.16-.27L76.34,147a6.89,6.89,0,0,0,3.12-5.39V139a7.24,7.24,0,0,1,3.27-5.66l2.2-1.27.15.27-2.19,1.27A6.89,6.89,0,0,0,79.77,139v2.54a7.21,7.21,0,0,1-3.27,5.66Z"/><path class="cls-8" d="M61.9,151l-.15-.28,10.51-6.06a6.94,6.94,0,0,0,3.11-5.4v-2.53A7.24,7.24,0,0,1,78.64,131l2.2-1.27L81,130l-2.2,1.26a6.88,6.88,0,0,0-3.11,5.4v2.53a7.24,7.24,0,0,1-3.28,5.67Z"/><path class="cls-8" d="M57.82,148.59l-.16-.27,10.51-6.07a6.88,6.88,0,0,0,3.11-5.39v-2.54a7.27,7.27,0,0,1,3.27-5.67l2.2-1.26.16.27-2.2,1.27a6.9,6.9,0,0,0-3.11,5.39v2.54a7.24,7.24,0,0,1-3.27,5.66Z"/><path class="cls-8" d="M53.73,146.24l-.16-.28,10.51-6.07a6.88,6.88,0,0,0,3.11-5.39V132a7.22,7.22,0,0,1,3.28-5.66L72.66,125l.16.27-2.2,1.27A6.9,6.9,0,0,0,67.51,132v2.54a7.26,7.26,0,0,1-3.27,5.67Z"/><path class="cls-8" d="M49.64,143.88l-.16-.27L60,137.54a6.89,6.89,0,0,0,3.12-5.4v-2.53a7.23,7.23,0,0,1,3.27-5.67l2.19-1.27.16.28-2.19,1.27a6.89,6.89,0,0,0-3.12,5.39v2.53a7.24,7.24,0,0,1-3.27,5.67Z"/><g class="cls-3"><polygon class="cls-2" points="67.03 99.68 51.97 90.98 51.97 108.38 67.03 117.08 82.1 108.38 82.1 90.98 67.03 99.68"/><polygon class="cls-2" points="67.03 117.08 51.97 108.38 51.97 90.98 67.03 99.68 67.03 117.08"/><polygon class="cls-4" points="82.1 108.38 67.03 117.08 67.03 99.68 82.1 90.98 82.1 108.38"/><polygon class="cls-2" points="67.03 99.68 51.97 90.98 67.03 82.28 82.1 90.98 67.03 99.68"/><polygon class="cls-5" points="67.03 99.68 51.97 90.98 51.97 91.73 67.03 100.43 82.1 91.73 82.1 90.98 67.03 99.68"/></g><polygon class="cls-21" points="67.03 89.13 51.97 80.43 67.03 71.73 82.1 80.43 67.03 89.13"/><polygon class="cls-2" points="67.03 58.56 51.97 49.86 51.97 67.26 67.03 75.96 82.1 67.26 82.1 49.86 67.03 58.56"/><polygon class="cls-2" points="67.03 75.96 51.97 67.26 51.97 49.86 67.03 58.56 67.03 75.96"/><polygon class="cls-4" points="82.1 67.26 67.03 75.96 67.03 58.56 82.1 49.86 82.1 67.26"/><polygon class="cls-2" points="67.03 58.56 51.97 49.86 67.03 41.16 82.1 49.86 67.03 58.56"/><polygon class="cls-4" points="67.03 56.42 55.67 49.86 67.03 43.3 78.4 49.86 67.03 56.42"/><polygon class="cls-5" points="67.03 58.56 51.97 49.86 51.97 50.61 67.03 59.31 82.1 50.61 82.1 49.86 67.03 58.56"/><polygon class="cls-2" points="67.03 32.46 51.97 23.76 51.97 41.16 67.03 49.86 82.1 41.16 82.1 23.76 67.03 32.46"/><polygon class="cls-2" points="67.03 49.86 51.97 41.16 51.97 23.76 67.03 32.46 67.03 49.86"/><polygon class="cls-4" points="82.1 41.16 67.03 49.86 67.03 32.46 82.1 23.76 82.1 41.16"/><polygon class="cls-2" points="67.03 32.46 51.97 23.76 67.03 15.06 82.1 23.76 67.03 32.46"/><polygon class="cls-5" points="67.03 32.46 51.97 23.76 51.97 24.52 67.03 33.22 82.1 24.52 82.1 23.76 67.03 32.46"/><g class="cls-3"><polygon class="cls-2" points="265.36 109.69 250.29 101 250.29 118.39 265.36 127.09 280.43 118.39 280.43 101 265.36 109.69"/><polygon class="cls-2" points="265.36 127.09 250.29 118.39 250.29 101 265.36 109.69 265.36 127.09"/><polygon class="cls-4" points="280.43 118.39 265.36 127.09 265.36 109.69 280.43 101 280.43 118.39"/><polygon class="cls-2" points="265.36 109.69 250.29 101 265.36 92.3 280.43 101 265.36 109.69"/><polygon class="cls-5" points="265.36 109.69 250.29 101 250.29 101.75 265.36 110.45 280.43 101.75 280.43 101 265.36 109.69"/></g><path class="cls-8" d="M265.76,103.23l-.08,0L243.62,90.45l.24-.14,21.9-12.64.08,0,22.05,12.74-.23.14ZM244.25,90.45l21.51,12.41,21.5-12.41L265.76,78Z"/><polygon class="cls-21" points="265.36 99.15 250.29 90.45 265.36 81.75 280.43 90.45 265.36 99.15"/><polygon class="cls-2" points="265.36 68.57 250.29 59.87 250.29 77.27 265.36 85.97 280.43 77.27 280.43 59.87 265.36 68.57"/><polygon class="cls-2" points="265.36 85.97 250.29 77.27 250.29 59.87 265.36 68.57 265.36 85.97"/><polygon class="cls-4" points="280.43 77.27 265.36 85.97 265.36 68.57 280.43 59.87 280.43 77.27"/><polygon class="cls-2" points="265.36 68.57 250.29 59.87 265.36 51.17 280.43 59.87 265.36 68.57"/><polygon class="cls-5" points="265.36 68.57 250.29 59.87 250.29 60.63 265.36 69.33 280.43 60.63 280.43 59.87 265.36 68.57"/><path class="cls-8" d="M22.14,159.92l-.08,0L0,147.14.24,147l21.9-12.64.08,0,22.05,12.73-.23.14ZM.63,147.14l21.51,12.42,21.5-12.42-21.5-12.41Z"/><g class="cls-3"><polygon class="cls-2" points="22.14 166.66 7.07 157.96 7.07 175.36 22.14 184.06 37.2 175.36 37.2 157.96 22.14 166.66"/><polygon class="cls-2" points="22.14 184.06 7.07 175.36 7.07 157.96 22.14 166.66 22.14 184.06"/><polygon class="cls-4" points="37.2 175.36 22.14 184.06 22.14 166.66 37.2 157.96 37.2 175.36"/><polygon class="cls-2" points="22.14 166.66 7.07 157.96 22.14 149.26 37.2 157.96 22.14 166.66"/><polygon class="cls-5" points="22.14 166.66 7.07 157.96 7.07 158.72 22.14 167.41 37.2 158.72 37.2 157.96 22.14 166.66"/></g><polygon class="cls-21" points="22.14 156.11 7.07 147.41 22.14 138.72 37.2 147.41 22.14 156.11"/><polygon class="cls-2" points="22.14 125.54 7.07 116.84 7.07 134.24 22.14 142.94 37.2 134.24 37.2 116.84 22.14 125.54"/><polygon class="cls-2" points="22.14 142.94 7.07 134.24 7.07 116.84 22.14 125.54 22.14 142.94"/><polygon class="cls-4" points="37.2 134.24 22.14 142.94 22.14 125.54 37.2 116.84 37.2 134.24"/><polygon class="cls-2" points="22.14 125.54 7.07 116.84 22.14 108.14 37.2 116.84 22.14 125.54"/><polygon class="cls-5" points="22.14 125.54 7.07 116.84 7.07 117.59 22.14 126.29 37.2 117.59 37.2 116.84 22.14 125.54"/><g class="cls-3"><polygon class="cls-2" points="146.33 249.58 131.26 240.88 131.26 258.28 146.33 266.98 161.4 258.28 161.4 240.88 146.33 249.58"/><polygon class="cls-2" points="146.33 266.98 131.26 258.28 131.26 240.88 146.33 249.58 146.33 266.98"/><polygon class="cls-4" points="161.4 258.28 146.33 266.98 146.33 249.58 161.4 240.88 161.4 258.28"/><polygon class="cls-2" points="146.33 249.58 131.26 240.88 146.33 232.18 161.39 240.88 146.33 249.58"/><polygon class="cls-5" points="146.33 249.58 131.26 240.88 131.26 241.64 146.33 250.34 161.39 241.64 161.4 240.88 146.33 249.58"/></g><polygon class="cls-21" points="146.33 239.03 131.26 230.34 146.33 221.64 161.39 230.34 146.33 239.03"/><polygon class="cls-2" points="146.33 208.46 131.26 199.76 131.26 217.16 146.33 225.86 161.4 217.16 161.4 199.76 146.33 208.46"/><polygon class="cls-2" points="146.33 225.86 131.26 217.16 131.26 199.76 146.33 208.46 146.33 225.86"/><polygon class="cls-4" points="161.4 217.16 146.33 225.86 146.33 208.46 161.4 199.76 161.4 217.16"/><polygon class="cls-2" points="146.33 208.46 131.26 199.76 146.33 191.06 161.39 199.76 146.33 208.46"/><polygon class="cls-5" points="146.33 208.46 131.26 199.76 131.26 200.51 146.33 209.21 161.39 200.51 161.4 199.76 146.33 208.46"/><g class="cls-3"><polygon class="cls-2" points="270.23 208.84 283.26 220.36 286.72 203.31 273.69 191.79 257.19 197.32 253.73 214.37 270.23 208.84"/><polygon class="cls-2" points="273.69 191.79 286.72 203.31 283.26 220.36 270.23 208.84 273.69 191.79"/><polygon class="cls-4" points="257.19 197.32 273.69 191.79 270.23 208.84 253.73 214.37 257.19 197.32"/><polygon class="cls-2" points="270.23 208.84 283.26 220.36 266.76 225.89 253.73 214.37 270.23 208.84"/><polygon class="cls-5" points="270.23 208.84 283.26 220.36 283.41 219.62 270.38 208.1 253.88 213.63 253.73 214.37 270.23 208.84"/></g><polygon class="cls-21" points="272.89 202.21 257.83 193.51 272.89 184.81 287.96 193.51 272.89 202.21"/><path class="cls-22" d="M272.89,217.32c-9.93,0-19.86-2.18-27.42-6.55-7.35-4.24-11.4-9.9-11.4-15.92s4.05-11.68,11.4-15.93c15.12-8.72,39.73-8.73,54.85,0,7.35,4.25,11.4,9.91,11.4,15.93s-4.05,11.68-11.4,15.92C292.76,215.14,282.83,217.32,272.89,217.32Zm0-44.63c-9.87,0-19.74,2.17-27.26,6.51-7.25,4.18-11.25,9.74-11.25,15.65s4,11.46,11.25,15.65c15,8.68,39.5,8.68,54.53,0,7.25-4.19,11.25-9.75,11.25-15.65s-4-11.46-11.25-15.65C292.64,174.86,282.77,172.69,272.89,172.69Z"/><path class="cls-23" d="M272.89,223.34c-12.6,0-25.2-2.77-34.79-8.31-9.33-5.38-14.46-12.55-14.46-20.18s5.13-14.8,14.46-20.18c19.18-11.08,50.4-11.08,69.59,0,9.33,5.38,14.46,12.55,14.46,20.18S317,209.65,307.69,215l-.08-.14.08.14C298.1,220.57,285.5,223.34,272.89,223.34Zm0-56.67c-12.54,0-25.09,2.76-34.64,8.27C229,180.26,224,187.33,224,194.85s5.08,14.58,14.3,19.91c19.11,11,50.18,11,69.28,0h0c9.23-5.33,14.3-12.4,14.3-19.91s-5.08-14.58-14.3-19.91C298,169.43,285.44,166.67,272.89,166.67Z"/><path class="cls-2" d="M272.9,212.58c-7.83,0-15.66-1.72-21.62-5.16-5.8-3.35-9-7.82-9-12.57s3.2-9.22,9-12.57c11.92-6.88,31.31-6.88,43.23,0,5.8,3.35,9,7.81,9,12.57s-3.2,9.22-9,12.57C288.55,210.86,280.72,212.58,272.9,212.58Zm0-35.15c-7.77,0-15.54,1.71-21.45,5.12-5.7,3.29-8.84,7.66-8.84,12.3s3.14,9,8.84,12.29c11.83,6.83,31.08,6.83,42.91,0l.08.14-.08-.14c5.7-3.29,8.84-7.65,8.84-12.29s-3.14-9-8.84-12.3C288.43,179.14,280.66,177.43,272.89,177.43Z"/><polygon class="cls-2" points="271.16 178.21 269.43 160.9 255.3 171.04 257.03 188.36 272.88 195.52 287.01 185.37 271.16 178.21"/><polygon class="cls-2" points="257.03 188.36 255.3 171.04 269.43 160.9 271.16 178.21 257.03 188.36"/><polygon class="cls-4" points="272.88 195.52 257.03 188.36 271.16 178.21 287.01 185.37 272.88 195.52"/><polygon class="cls-2" points="271.16 178.21 269.43 160.9 285.29 168.06 287.01 185.37 271.16 178.21"/><polygon class="cls-5" points="271.16 178.21 269.43 160.9 268.82 161.34 270.55 178.65 286.4 185.81 287.01 185.37 271.16 178.21"/><polygon class="cls-21" points="263.99 191.5 278.48 191.5 272.88 195.52 263.99 191.5"/><polygon class="cls-2" points="147.8 81.13 132.73 72.43 132.73 89.83 147.8 98.53 162.87 89.83 162.87 72.43 147.8 81.13"/><polygon class="cls-2" points="147.8 98.53 132.73 89.83 132.73 72.43 147.8 81.13 147.8 98.53"/><polygon class="cls-4" points="162.87 89.83 147.8 98.53 147.8 81.13 162.87 72.43 162.87 89.83"/><polygon class="cls-2" points="147.8 81.13 132.73 72.43 147.8 63.73 162.87 72.44 147.8 81.13"/><polygon class="cls-5" points="147.8 81.13 133.39 72.81 132.73 73.19 147.8 81.89 162.87 73.19 162.22 72.81 147.8 81.13"/><polygon class="cls-2" points="167.37 92.3 152.31 83.6 152.31 101 167.37 109.7 182.44 101 182.44 83.6 167.37 92.3"/><polygon class="cls-2" points="167.37 109.7 152.31 101 152.31 83.6 167.37 92.3 167.37 109.7"/><polygon class="cls-4" points="182.44 101 167.37 109.7 167.37 92.3 182.44 83.6 182.44 101"/><polygon class="cls-2" points="167.37 92.3 152.31 83.6 167.37 74.9 182.44 83.6 167.37 92.3"/><polygon class="cls-5" points="167.37 92.3 152.96 83.98 152.31 84.36 167.37 93.06 182.44 84.36 181.79 83.98 167.37 92.3"/><polygon class="cls-2" points="186.94 103.47 171.88 94.77 171.88 112.17 186.94 120.87 202.01 112.17 202.01 94.77 186.94 103.47"/><polygon class="cls-2" points="186.94 120.87 171.88 112.17 171.88 94.77 186.94 103.47 186.94 120.87"/><polygon class="cls-4" points="202.01 112.17 186.94 120.87 186.94 103.47 202.01 94.77 202.01 112.17"/><polygon class="cls-2" points="186.94 103.47 171.88 94.77 186.94 86.07 202.01 94.77 186.94 103.47"/><polygon class="cls-5" points="186.94 103.47 172.53 95.15 171.88 95.52 186.94 104.22 202.01 95.52 202.01 94.77 186.94 103.47"/><polygon class="cls-2" points="128.23 93.06 113.16 84.36 113.16 101.75 128.23 110.45 143.3 101.75 143.3 84.36 128.23 93.06"/><polygon class="cls-2" points="128.23 110.45 113.16 101.75 113.16 84.36 128.23 93.06 128.23 110.45"/><polygon class="cls-4" points="143.3 101.75 128.23 110.45 128.23 93.06 143.3 84.36 143.3 101.75"/><polygon class="cls-2" points="128.23 93.06 113.16 84.36 128.23 75.66 143.3 84.36 128.23 93.06"/><polygon class="cls-5" points="128.23 93.06 113.81 84.73 113.16 85.11 128.23 93.81 143.3 85.11 142.64 84.73 128.23 93.06"/><polygon class="cls-2" points="147.8 104.22 132.73 95.52 132.73 112.92 147.8 121.62 162.87 112.92 162.87 95.52 147.8 104.22"/><polygon class="cls-2" points="147.8 121.62 132.73 112.92 132.73 95.52 147.8 104.22 147.8 121.62"/><polygon class="cls-4" points="162.87 112.92 147.8 121.62 147.8 104.22 162.87 95.52 162.87 112.92"/><polygon class="cls-2" points="147.8 104.22 132.73 95.52 147.8 86.82 162.87 95.52 147.8 104.22"/><polygon class="cls-5" points="147.8 104.22 133.39 95.9 132.73 96.28 147.8 104.98 162.87 96.28 162.22 95.9 147.8 104.22"/><polygon class="cls-2" points="167.37 115.39 152.31 106.69 152.31 124.09 167.37 132.79 182.44 124.09 182.44 106.69 167.37 115.39"/><polygon class="cls-2" points="167.37 132.79 152.31 124.09 152.31 106.69 167.37 115.39 167.37 132.79"/><polygon class="cls-4" points="182.44 124.09 167.37 132.79 167.37 115.39 182.44 106.69 182.44 124.09"/><polygon class="cls-2" points="167.37 115.39 152.31 106.69 167.37 97.99 182.44 106.69 167.37 115.39"/><polygon class="cls-5" points="167.37 115.39 152.96 107.07 152.31 107.44 167.37 116.14 182.44 107.44 182.44 106.69 167.37 115.39"/><polygon class="cls-2" points="108.66 104.98 93.59 96.28 93.59 113.68 108.66 122.38 123.72 113.68 123.72 96.28 108.66 104.98"/><polygon class="cls-2" points="108.66 122.38 93.59 113.68 93.59 96.28 108.66 104.98 108.66 122.38"/><polygon class="cls-4" points="123.72 113.68 108.66 122.38 108.66 104.98 123.72 96.28 123.72 113.68"/><polygon class="cls-2" points="108.66 104.98 93.59 96.28 108.66 87.58 123.72 96.28 108.66 104.98"/><polygon class="cls-5" points="108.66 104.98 93.59 96.28 93.59 97.03 108.66 105.73 123.72 97.03 123.07 96.66 108.66 104.98"/><polygon class="cls-2" points="128.23 116.14 113.16 107.44 113.16 124.84 128.23 133.54 143.3 124.84 143.3 107.44 128.23 116.14"/><polygon class="cls-2" points="128.23 133.54 113.16 124.84 113.16 107.44 128.23 116.14 128.23 133.54"/><polygon class="cls-4" points="143.3 124.84 128.23 133.54 128.23 116.14 143.3 107.44 143.3 124.84"/><polygon class="cls-2" points="128.23 116.14 113.16 107.44 128.23 98.75 143.3 107.45 128.23 116.14"/><polygon class="cls-5" points="128.23 116.14 113.16 107.44 113.16 108.2 128.23 116.9 143.3 108.2 142.64 107.82 128.23 116.14"/><polygon class="cls-2" points="147.8 127.31 132.73 118.61 132.73 136.01 147.8 144.71 162.87 136.01 162.87 118.61 147.8 127.31"/><polygon class="cls-2" points="147.8 144.71 132.73 136.01 132.73 118.61 147.8 127.31 147.8 144.71"/><polygon class="cls-4" points="162.87 136.01 147.8 144.71 147.8 127.31 162.87 118.61 162.87 136.01"/><polygon class="cls-2" points="147.8 127.31 132.73 118.61 147.8 109.91 162.87 118.61 147.8 127.31"/><polygon class="cls-5" points="147.8 127.31 132.73 118.61 132.73 119.37 147.8 128.07 162.87 119.37 162.87 118.61 147.8 127.31"/><polygon class="cls-2" points="147.8 58.05 132.73 49.34 132.73 66.74 147.8 75.44 162.87 66.74 162.87 49.34 147.8 58.05"/><polygon class="cls-2" points="147.8 75.44 132.73 66.74 132.73 49.34 147.8 58.05 147.8 75.44"/><polygon class="cls-4" points="162.87 66.74 147.8 75.44 147.8 58.05 162.87 49.34 162.87 66.74"/><polygon class="cls-2" points="147.8 58.05 132.73 49.34 147.8 40.65 162.87 49.35 147.8 58.05"/><polygon class="cls-5" points="147.8 58.05 133.39 49.72 132.73 50.1 147.8 58.8 162.87 50.1 162.22 49.72 147.8 58.05"/><polygon class="cls-6" points="147.8 124.48 137.52 118.54 147.8 112.61 158.08 118.54 147.8 124.48"/><polygon class="cls-6" points="128.23 113.31 117.95 107.38 128.23 101.44 138.51 107.38 128.23 113.31"/><polygon class="cls-6" points="167.37 112.56 157.09 106.62 167.37 100.69 177.65 106.62 167.37 112.56"/><polygon class="cls-6" points="186.98 100.77 176.7 94.84 186.98 88.9 197.26 94.84 186.98 100.77"/><polygon class="cls-6" points="108.66 102.14 98.38 96.21 108.66 90.28 118.94 96.21 108.66 102.14"/><polygon class="cls-2" points="167.37 69.21 152.31 60.51 152.31 77.91 167.37 86.61 182.44 77.91 182.44 60.51 167.37 69.21"/><polygon class="cls-2" points="167.37 86.61 152.31 77.91 152.31 60.51 167.37 69.21 167.37 86.61"/><polygon class="cls-4" points="182.44 77.91 167.37 86.61 167.37 69.21 182.44 60.51 182.44 77.91"/><polygon class="cls-2" points="167.37 69.21 152.31 60.51 167.37 51.81 182.44 60.51 167.37 69.21"/><polygon class="cls-5" points="167.37 69.21 152.96 60.89 152.31 61.27 167.37 69.97 182.44 61.27 181.79 60.89 167.37 69.21"/><polygon class="cls-2" points="186.94 80.38 171.88 71.68 171.88 89.08 186.94 97.78 202.01 89.08 202.01 71.68 186.94 80.38"/><polygon class="cls-2" points="186.94 97.78 171.88 89.08 171.88 71.68 186.94 80.38 186.94 97.78"/><polygon class="cls-4" points="202.01 89.08 186.94 97.78 186.94 80.38 202.01 71.68 202.01 89.08"/><polygon class="cls-2" points="186.94 80.38 171.88 71.68 186.94 62.98 202.01 71.68 186.94 80.38"/><polygon class="cls-5" points="186.94 80.38 172.53 72.06 171.88 72.43 186.94 81.13 202.01 72.44 202.01 71.68 186.94 80.38"/><polygon class="cls-2" points="128.23 69.97 113.16 61.27 113.16 78.67 128.23 87.36 143.3 78.67 143.3 61.27 128.23 69.97"/><polygon class="cls-2" points="128.23 87.36 113.16 78.67 113.16 61.27 128.23 69.97 128.23 87.36"/><polygon class="cls-4" points="143.3 78.67 128.23 87.36 128.23 69.97 143.3 61.27 143.3 78.67"/><polygon class="cls-2" points="128.23 69.97 113.16 61.27 128.23 52.57 143.3 61.27 128.23 69.97"/><polygon class="cls-5" points="128.23 69.97 113.81 61.65 113.16 62.02 128.23 70.72 143.3 62.02 142.64 61.65 128.23 69.97"/><polygon class="cls-2" points="147.8 81.13 132.73 72.43 132.73 89.83 147.8 98.53 162.87 89.83 162.87 72.43 147.8 81.13"/><polygon class="cls-2" points="147.8 98.53 132.73 89.83 132.73 72.43 147.8 81.13 147.8 98.53"/><polygon class="cls-4" points="162.87 89.83 147.8 98.53 147.8 81.13 162.87 72.43 162.87 89.83"/><polygon class="cls-2" points="147.8 81.13 132.73 72.43 147.8 63.73 162.87 72.44 147.8 81.13"/><polygon class="cls-5" points="147.8 81.13 133.39 72.81 132.73 73.19 147.8 81.89 162.87 73.19 162.22 72.81 147.8 81.13"/><polygon class="cls-2" points="167.37 92.3 152.31 83.6 152.31 101 167.37 109.7 182.44 101 182.44 83.6 167.37 92.3"/><polygon class="cls-2" points="167.37 109.7 152.31 101 152.31 83.6 167.37 92.3 167.37 109.7"/><polygon class="cls-4" points="182.44 101 167.37 109.7 167.37 92.3 182.44 83.6 182.44 101"/><polygon class="cls-2" points="167.37 92.3 152.31 83.6 167.37 74.9 182.44 83.6 167.37 92.3"/><polygon class="cls-5" points="167.37 92.3 152.96 83.98 152.31 84.36 167.37 93.06 182.44 84.36 182.44 83.6 167.37 92.3"/><polygon class="cls-2" points="108.66 81.89 93.59 73.19 93.59 90.59 108.66 99.29 123.72 90.59 123.72 73.19 108.66 81.89"/><polygon class="cls-2" points="108.66 99.29 93.59 90.59 93.59 73.19 108.66 81.89 108.66 99.29"/><polygon class="cls-4" points="123.72 90.59 108.66 99.29 108.66 81.89 123.72 73.19 123.72 90.59"/><polygon class="cls-2" points="108.66 81.89 93.59 73.19 108.66 64.49 123.72 73.19 108.66 81.89"/><polygon class="cls-5" points="108.66 81.89 94.24 73.57 93.59 73.94 108.66 82.64 123.72 73.94 123.07 73.57 108.66 81.89"/><polygon class="cls-2" points="128.23 93.06 113.16 84.36 113.16 101.75 128.23 110.45 143.3 101.75 143.3 84.36 128.23 93.06"/><polygon class="cls-2" points="128.23 110.45 113.16 101.75 113.16 84.36 128.23 93.06 128.23 110.45"/><polygon class="cls-4" points="143.3 101.75 128.23 110.45 128.23 93.06 143.3 84.36 143.3 101.75"/><polygon class="cls-2" points="128.23 93.06 113.16 84.36 128.23 75.66 143.3 84.36 128.23 93.06"/><polygon class="cls-5" points="128.23 93.06 113.16 84.36 113.16 85.11 128.23 93.81 143.3 85.11 142.64 84.73 128.23 93.06"/><polygon class="cls-2" points="147.8 104.22 132.73 95.52 132.73 112.92 147.8 121.62 162.87 112.92 162.87 95.52 147.8 104.22"/><polygon class="cls-2" points="147.8 121.62 132.73 112.92 132.73 95.52 147.8 104.22 147.8 121.62"/><polygon class="cls-4" points="162.87 112.92 147.8 121.62 147.8 104.22 162.87 95.52 162.87 112.92"/><polygon class="cls-2" points="147.8 104.22 132.73 95.52 147.8 86.82 162.87 95.52 147.8 104.22"/><polygon class="cls-5" points="147.8 104.22 132.73 95.52 132.73 96.28 147.8 104.98 162.87 96.28 162.87 95.52 147.8 104.22"/><polygon class="cls-6" points="186.98 77.78 176.7 71.85 186.98 65.92 197.26 71.85 186.98 77.78"/><polygon class="cls-6" points="108.66 79.16 98.38 73.22 108.66 67.29 118.94 73.22 108.66 79.16"/><polygon class="cls-2" points="147.8 34.96 132.73 26.26 132.73 43.65 147.8 52.35 162.87 43.65 162.87 26.26 147.8 34.96"/><polygon class="cls-2" points="147.8 52.35 132.73 43.65 132.73 26.26 147.8 34.96 147.8 52.35"/><polygon class="cls-4" points="162.87 43.65 147.8 52.35 147.8 34.96 162.87 26.26 162.87 43.65"/><polygon class="cls-2" points="147.8 34.96 132.73 26.26 147.8 17.56 162.87 26.26 147.8 34.96"/><polygon class="cls-5" points="147.8 34.96 132.73 26.26 132.73 27.01 147.8 35.71 162.87 27.01 162.87 26.26 147.8 34.96"/><polygon class="cls-2" points="167.37 46.12 152.31 37.42 152.31 54.82 167.37 63.52 182.44 54.82 182.44 37.42 167.37 46.12"/><polygon class="cls-2" points="167.37 63.52 152.31 54.82 152.31 37.42 167.37 46.12 167.37 63.52"/><polygon class="cls-4" points="182.44 54.82 167.37 63.52 167.37 46.12 182.44 37.42 182.44 54.82"/><polygon class="cls-2" points="167.37 46.12 152.31 37.42 167.37 28.72 182.44 37.42 167.37 46.12"/><polygon class="cls-5" points="167.37 46.12 152.31 37.42 152.31 38.18 167.37 46.88 182.44 38.18 182.44 37.42 167.37 46.12"/><polygon class="cls-2" points="186.94 57.29 171.88 48.59 171.88 65.99 186.94 74.69 202.01 65.99 202.01 48.59 186.94 57.29"/><polygon class="cls-2" points="186.94 74.69 171.88 65.99 171.88 48.59 186.94 57.29 186.94 74.69"/><polygon class="cls-4" points="202.01 65.99 186.94 74.69 186.94 57.29 202.01 48.59 202.01 65.99"/><polygon class="cls-2" points="186.94 57.29 171.88 48.59 186.94 39.89 202.01 48.59 186.94 57.29"/><polygon class="cls-5" points="186.94 57.29 171.88 48.59 171.88 49.34 186.94 58.05 202.01 49.35 202.01 48.59 186.94 57.29"/><polygon class="cls-2" points="128.23 46.88 113.16 38.18 113.16 55.58 128.23 64.28 143.3 55.58 143.3 38.18 128.23 46.88"/><polygon class="cls-2" points="128.23 64.28 113.16 55.58 113.16 38.18 128.23 46.88 128.23 64.28"/><polygon class="cls-4" points="143.3 55.58 128.23 64.28 128.23 46.88 143.3 38.18 143.3 55.58"/><polygon class="cls-2" points="128.23 46.88 113.16 38.18 128.23 29.48 143.3 38.18 128.23 46.88"/><polygon class="cls-5" points="128.23 46.88 113.16 38.18 113.16 38.93 128.23 47.63 143.3 38.93 143.3 38.18 128.23 46.88"/><polygon class="cls-2" points="108.66 58.8 93.59 50.1 93.59 67.5 108.66 76.2 123.72 67.5 123.72 50.1 108.66 58.8"/><polygon class="cls-2" points="108.66 76.2 93.59 67.5 93.59 50.1 108.66 58.8 108.66 76.2"/><polygon class="cls-4" points="123.72 67.5 108.66 76.2 108.66 58.8 123.72 50.1 123.72 67.5"/><polygon class="cls-2" points="108.66 58.8 93.59 50.1 108.66 41.4 123.72 50.1 108.66 58.8"/><polygon class="cls-5" points="108.66 58.8 93.59 50.1 93.59 50.85 108.66 59.55 123.72 50.85 123.72 50.1 108.66 58.8"/><polygon class="cls-24" points="209.92 112.68 209.92 0 85.59 0 85.68 112.68 147.8 148.54 209.92 112.68"/><path class="cls-22" d="M58.15,169a2,2,0,1,0,2-2A2,2,0,0,0,58.15,169Z"/><circle class="cls-8" cx="60.18" cy="169.04" r="0.88"/><path class="cls-22" d="M238,76.33a2,2,0,1,0,2-2A2,2,0,0,0,238,76.33Z"/><path class="cls-8" d="M239.17,76.33a.88.88,0,1,0,.88-.89A.88.88,0,0,0,239.17,76.33Z"/><path class="cls-22" d="M297.25,203.66a2,2,0,1,0,2-2A2,2,0,0,0,297.25,203.66Z"/><circle class="cls-8" cx="299.28" cy="203.66" r="0.88"/><circle class="cls-22" cx="260.53" cy="210.87" r="3.17"/><path class="cls-8" d="M259.16,210.87a1.38,1.38,0,1,0,1.37-1.37A1.37,1.37,0,0,0,259.16,210.87Z"/><path class="cls-22" d="M247.82,183.19A2.15,2.15,0,1,0,250,181,2.15,2.15,0,0,0,247.82,183.19Z"/><path class="cls-8" d="M249,183.19a.93.93,0,1,0,.93-.94A.93.93,0,0,0,249,183.19Z"/><path class="cls-22" d="M216.36,64.6a2,2,0,1,0,2-2A2,2,0,0,0,216.36,64.6Z"/><path class="cls-8" d="M217.51,64.6a.89.89,0,1,0,.88-.88A.88.88,0,0,0,217.51,64.6Z"/><path class="cls-22" d="M35.17,156.11a2,2,0,1,0,2-2A2,2,0,0,0,35.17,156.11Z"/><path class="cls-8" d="M36.32,156.11a.89.89,0,1,0,.88-.88A.89.89,0,0,0,36.32,156.11Z"/></g></g></g></svg>