<svg xmlns="http://www.w3.org/2000/svg" xmlns:xlink="http://www.w3.org/1999/xlink" viewBox="0 0 914.87 611.16"><defs><style>.cls-1,.cls-2,.cls-3,.cls-4{fill:#b9bdc9;}.cls-1,.cls-11,.cls-6{opacity:0.4;}.cls-2{opacity:0.6;}.cls-3,.cls-7{opacity:0.8;}.cls-30,.cls-5,.cls-6,.cls-7{fill:#bcced3;}.cls-8{fill:url(#Áåçûìÿííûé_ãðàäèåíò_23);}.cls-9{fill:url(#Áåçûìÿííûé_ãðàäèåíò_22);}.cls-10{fill:#fff;}.cls-11{fill:#686773;}.cls-12{fill:url(#Áåçûìÿííûé_ãðàäèåíò_23-2);}.cls-13{fill:url(#Áåçûìÿííûé_ãðàäèåíò_22-2);}.cls-14{fill:url(#Áåçûìÿííûé_ãðàäèåíò_23-3);}.cls-15{fill:url(#Áåçûìÿííûé_ãðàäèåíò_22-3);}.cls-16{fill:url(#Áåçûìÿííûé_ãðàäèåíò_23-4);}.cls-17{fill:url(#Áåçûìÿííûé_ãðàäèåíò_22-4);}.cls-18{fill:url(#Áåçûìÿííûé_ãðàäèåíò_23-5);}.cls-19{fill:url(#Áåçûìÿííûé_ãðàäèåíò_22-5);}.cls-20{fill:url(#Áåçûìÿííûé_ãðàäèåíò_23-6);}.cls-21{fill:url(#Áåçûìÿííûé_ãðàäèåíò_22-6);}.cls-22{fill:url(#Áåçûìÿííûé_ãðàäèåíò_24);}.cls-23{fill:#db0909;}.cls-24{fill:url(#Áåçûìÿííûé_ãðàäèåíò_23-7);}.cls-25{fill:url(#Áåçûìÿííûé_ãðàäèåíò_22-7);}.cls-26{fill:url(#Áåçûìÿííûé_ãðàäèåíò_23-8);}.cls-27{fill:url(#Áåçûìÿííûé_ãðàäèåíò_22-8);}.cls-28{fill:url(#Áåçûìÿííûé_ãðàäèåíò_23-9);}.cls-29{fill:url(#Áåçûìÿííûé_ãðàäèåíò_22-9);}.cls-30{opacity:0.2;}.cls-31{fill:url(#Áåçûìÿííûé_ãðàäèåíò_23-10);}.cls-32{fill:url(#Áåçûìÿííûé_ãðàäèåíò_22-10);}.cls-33{fill:url(#Áåçûìÿííûé_ãðàäèåíò_23-11);}.cls-34{fill:url(#Áåçûìÿííûé_ãðàäèåíò_22-11);}.cls-35{fill:url(#Áåçûìÿííûé_ãðàäèåíò_23-12);}.cls-36{fill:url(#Áåçûìÿííûé_ãðàäèåíò_22-12);}</style><linearGradient id="Áåçûìÿííûé_ãðàäèåíò_23" x1="313.46" y1="304.6" x2="478.28" y2="304.6" gradientUnits="userSpaceOnUse"><stop offset="0" stop-color="#dcecef"/><stop offset="0.59" stop-color="#c5ced6"/><stop offset="1" stop-color="#b9bdc9"/></linearGradient><radialGradient id="Áåçûìÿííûé_ãðàäèåíò_22" cx="284.24" cy="181.01" r="368.07" gradientUnits="userSpaceOnUse"><stop offset="0" stop-color="#dcecef"/><stop offset="0.37" stop-color="#d2dee4"/><stop offset="1" stop-color="#b9bdc9"/></radialGradient><linearGradient id="Áåçûìÿííûé_ãðàäèåíò_23-2" x1="313.46" y1="217.09" x2="478.28" y2="217.09" xlink:href="#Áåçûìÿííûé_ãðàäèåíò_23"/><radialGradient id="Áåçûìÿííûé_ãðàäèåíò_22-2" cx="284.24" cy="93.5" r="368.07" xlink:href="#Áåçûìÿííûé_ãðàäèåíò_22"/><linearGradient id="Áåçûìÿííûé_ãðàäèåíò_23-3" x1="313.46" y1="129.57" x2="478.28" y2="129.57" xlink:href="#Áåçûìÿííûé_ãðàäèåíò_23"/><radialGradient id="Áåçûìÿííûé_ãðàäèåíò_22-3" cx="284.24" cy="5.98" r="368.07" xlink:href="#Áåçûìÿííûé_ãðàäèåíò_22"/><linearGradient id="Áåçûìÿííûé_ãðàäèåíò_23-4" x1="141.36" y1="404.17" x2="306.18" y2="404.17" xlink:href="#Áåçûìÿííûé_ãðàäèåíò_23"/><radialGradient id="Áåçûìÿííûé_ãðàäèåíò_22-4" cx="112.14" cy="280.58" r="368.07" xlink:href="#Áåçûìÿííûé_ãðàäèåíò_22"/><linearGradient id="Áåçûìÿííûé_ãðàäèåíò_23-5" x1="141.36" y1="316.66" x2="306.18" y2="316.66" xlink:href="#Áåçûìÿííûé_ãðàäèåíò_23"/><radialGradient id="Áåçûìÿííûé_ãðàäèåíò_22-5" cx="112.14" cy="193.07" r="368.07" xlink:href="#Áåçûìÿííûé_ãðàäèåíò_22"/><linearGradient id="Áåçûìÿííûé_ãðàäèåíò_23-6" x1="141.36" y1="229.14" x2="306.18" y2="229.14" xlink:href="#Áåçûìÿííûé_ãðàäèåíò_23"/><radialGradient id="Áåçûìÿííûé_ãðàäèåíò_22-6" cx="112.14" cy="105.55" r="368.07" xlink:href="#Áåçûìÿííûé_ãðàäèåíò_22"/><radialGradient id="Áåçûìÿííûé_ãðàäèåíò_24" cx="144.61" cy="127.73" r="253.06" gradientUnits="userSpaceOnUse"><stop offset="0" stop-color="#f9636b"/><stop offset="1" stop-color="#ff2626"/></radialGradient><linearGradient id="Áåçûìÿííûé_ãðàäèåíò_23-7" x1="484.94" y1="404.08" x2="649.76" y2="404.08" xlink:href="#Áåçûìÿííûé_ãðàäèåíò_23"/><radialGradient id="Áåçûìÿííûé_ãðàäèåíò_22-7" cx="455.72" cy="280.49" r="368.07" xlink:href="#Áåçûìÿííûé_ãðàäèåíò_22"/><linearGradient id="Áåçûìÿííûé_ãðàäèåíò_23-8" x1="484.94" y1="316.56" x2="649.76" y2="316.56" xlink:href="#Áåçûìÿííûé_ãðàäèåíò_23"/><radialGradient id="Áåçûìÿííûé_ãðàäèåíò_22-8" cx="455.72" cy="192.97" r="368.07" xlink:href="#Áåçûìÿííûé_ãðàäèåíò_22"/><linearGradient id="Áåçûìÿííûé_ãðàäèåíò_23-9" x1="484.94" y1="229.04" x2="649.76" y2="229.04" xlink:href="#Áåçûìÿííûé_ãðàäèåíò_23"/><radialGradient id="Áåçûìÿííûé_ãðàäèåíò_22-9" cx="455.72" cy="105.45" r="368.07" xlink:href="#Áåçûìÿííûé_ãðàäèåíò_22"/><linearGradient id="Áåçûìÿííûé_ãðàäèåíò_23-10" x1="312.84" y1="503.65" x2="477.66" y2="503.65" xlink:href="#Áåçûìÿííûé_ãðàäèåíò_23"/><radialGradient id="Áåçûìÿííûé_ãðàäèåíò_22-10" cx="283.62" cy="380.06" r="368.07" xlink:href="#Áåçûìÿííûé_ãðàäèåíò_22"/><linearGradient id="Áåçûìÿííûé_ãðàäèåíò_23-11" x1="312.84" y1="416.13" x2="477.66" y2="416.13" xlink:href="#Áåçûìÿííûé_ãðàäèåíò_23"/><radialGradient id="Áåçûìÿííûé_ãðàäèåíò_22-11" cx="283.62" cy="292.54" r="368.07" xlink:href="#Áåçûìÿííûé_ãðàäèåíò_22"/><linearGradient id="Áåçûìÿííûé_ãðàäèåíò_23-12" x1="312.84" y1="328.62" x2="477.66" y2="328.62" xlink:href="#Áåçûìÿííûé_ãðàäèåíò_23"/><radialGradient id="Áåçûìÿííûé_ãðàäèåíò_22-12" cx="283.62" cy="205.03" r="368.07" xlink:href="#Áåçûìÿííûé_ãðàäèåíò_22"/></defs><title>data-networking</title><g id="Layer_2" data-name="Layer 2"><g id="Layer_1-2" data-name="Layer 1"><path class="cls-1" d="M372,271.84a4.21,4.21,0,1,1-4.21-4.21A4.21,4.21,0,0,1,372,271.84Z"/><path class="cls-2" d="M121,113.58a6.24,6.24,0,1,1-6.24-6.24A6.24,6.24,0,0,1,121,113.58Z"/><path class="cls-3" d="M117.34,113.58a2.59,2.59,0,1,1-2.59-2.59A2.58,2.58,0,0,1,117.34,113.58Z"/><path class="cls-1" d="M433.4,209.67A16.68,16.68,0,1,1,416.72,193,16.68,16.68,0,0,1,433.4,209.67Z"/><circle class="cls-3" cx="416.72" cy="209.67" r="6.93"/><polygon class="cls-4" points="453.52 330.55 415.75 208.84 725.25 252.18 725.05 253.54 417.7 210.5 454.83 330.14 453.52 330.55"/><rect class="cls-4" x="789.25" y="370.33" width="1.43" height="28.15"/><rect class="cls-5" x="789.25" y="405.07" width="1.43" height="9.02"/><rect class="cls-5" x="99.82" y="349.24" width="1.43" height="28.14"/><rect class="cls-4" x="99.82" y="383.85" width="1.43" height="8.04"/><rect class="cls-4" x="99.82" y="398.62" width="1.43" height="8.04"/><rect class="cls-4" x="292.86" width="1.43" height="28.14"/><rect class="cls-5" x="292.86" y="34.61" width="1.43" height="8.04"/><rect class="cls-5" x="292.86" y="49.38" width="1.43" height="8.04"/><rect class="cls-5" x="292.86" y="64.16" width="1.43" height="22.82"/><rect class="cls-4" x="614.45" y="594.59" width="1.43" height="9.02"/><rect class="cls-4" x="614.45" y="522.95" width="1.43" height="28.54"/><rect class="cls-4" x="809.47" y="241.65" width="1.43" height="9.02"/><rect class="cls-5" x="809.47" y="206.9" width="1.43" height="28.14"/><rect class="cls-4" x="809.47" y="170.01" width="1.43" height="28.54"/><rect class="cls-4" x="809.47" y="127.62" width="1.43" height="28.54"/><circle class="cls-6" cx="146.84" cy="86.74" r="15.69"/><circle class="cls-7" cx="146.84" cy="86.74" r="7.71"/><path class="cls-6" d="M262.52,546.66a10.58,10.58,0,1,1-10.58-10.58A10.59,10.59,0,0,1,262.52,546.66Z"/><circle class="cls-7" cx="251.94" cy="546.66" r="5.2"/><circle class="cls-6" cx="638.91" cy="420.1" r="11.02"/><circle class="cls-7" cx="638.91" cy="420.1" r="5.42"/><path class="cls-6" d="M359.38,185a8.53,8.53,0,1,1-8.53-8.53A8.52,8.52,0,0,1,359.38,185Z"/><circle class="cls-7" cx="350.85" cy="184.96" r="4.19"/><circle class="cls-6" cx="671.75" cy="529.3" r="4.62"/><path class="cls-6" d="M639.15,274.72a2.59,2.59,0,1,1-2.58-2.59A2.59,2.59,0,0,1,639.15,274.72Z"/><path class="cls-6" d="M286.9,482.63a2.59,2.59,0,1,1-2.58-2.58A2.59,2.59,0,0,1,286.9,482.63Z"/><path class="cls-5" d="M444.16,403.86a29.63,29.63,0,0,1-14.47-3.45l-97.3-56.17c-4-2.33-6.26-5.49-6.26-8.88s2.22-6.55,6.26-8.88l96.78-56.28c8-4.6,21-4.6,28.94,0l97.3,56.18c4,2.33,6.26,5.48,6.26,8.87s-2.22,6.55-6.26,8.88l-96.78,56.28A29.63,29.63,0,0,1,444.16,403.86Zm-.52-135.33a27.72,27.72,0,0,0-13.56,3.24L333.3,328.05c-3.46,2-5.36,4.59-5.36,7.31s1.9,5.32,5.35,7.31l97.3,56.17c7.48,4.32,19.65,4.32,27.13,0l96.78-56.27c3.46-2,5.36-4.6,5.36-7.32s-1.9-5.31-5.35-7.3l-97.3-56.18A27.73,27.73,0,0,0,443.64,268.53Z"/><path class="cls-8" d="M561.24,304.55h0V257.9l-59,7.87-44.14-25.49c-7.74-4.47-20.3-4.47-28,0l-6.87,4.37-95.71,12.77v47.5h0c.11,2.84,2,5.67,5.76,7.84l97.3,56.17c7.74,4.47,20.29,4.47,28,0l96.79-56.28c3.74-2.16,5.63-5,5.76-7.81h0Z"/><path class="cls-9" d="M555.44,249.46l-97.3-56.17c-7.74-4.47-20.3-4.47-28,0l-96.78,56.27c-7.74,4.47-7.74,11.72,0,16.19l97.3,56.17c7.74,4.47,20.29,4.47,28,0l96.79-56.27C563.18,261.18,563.18,253.93,555.44,249.46Z"/><path class="cls-10" d="M555.44,262.82,458.65,319.1c-7.74,4.47-20.29,4.47-28,0l-97.3-56.18c-3.25-1.87-5.11-4.24-5.64-6.68-.72,3.38,1.14,6.91,5.64,9.51l97.3,56.17c7.74,4.47,20.29,4.47,28,0l96.79-56.27c4.49-2.6,6.36-6.13,5.63-9.51C560.55,258.58,558.68,261,555.44,262.82Z"/><polygon class="cls-10" points="471.73 334.38 467.13 337.04 467.13 331.72 471.73 329.06 471.73 334.38"/><polygon class="cls-10" points="481.37 328.81 476.76 331.47 476.76 326.15 481.37 323.49 481.37 328.81"/><polygon class="cls-10" points="491.01 323.25 486.4 325.91 486.4 320.59 491.01 317.93 491.01 323.25"/><polygon class="cls-10" points="483.13 338.57 478.52 341.23 478.52 335.92 483.13 333.26 483.13 338.57"/><polygon class="cls-10" points="491.61 333.68 487.01 336.33 487.01 331.02 491.61 328.36 491.61 333.68"/><polygon class="cls-10" points="521.91 305.4 517.31 308.06 517.31 302.74 521.91 300.08 521.91 305.4"/><polygon class="cls-10" points="548.46 290.08 543.86 292.74 543.86 287.42 548.46 284.76 548.46 290.08"/><polygon class="cls-10" points="500.64 317.69 496.04 320.35 496.04 315.03 500.64 312.37 500.64 317.69"/><path class="cls-11" d="M438.87,298.19,373.41,260.4c-2.66-1.54-2.32-4.22.75-6l64-36.93c3.08-1.78,7.72-2,10.39-.43L514,254.84c2.66,1.53,2.32,4.22-.75,6l-64,36.93C446.18,299.54,441.53,299.73,438.87,298.19Z"/><path class="cls-10" d="M413.12,339.1l-54-31.19a5.58,5.58,0,0,1-2.33-4.46v-4c0-1.72,1-2.51,2.33-1.76l54,31.19a5.58,5.58,0,0,1,2.33,4.46v4C415.45,339.06,414.41,339.85,413.12,339.1Z"/><path class="cls-12" d="M561.24,217h0V170.39l-59,7.86-44.14-25.48c-7.74-4.47-20.3-4.47-28,0l-6.87,4.37L327.52,169.9v47.5h0c.11,2.85,2,5.67,5.76,7.84l97.3,56.18c7.74,4.47,20.29,4.47,28,0l96.79-56.28c3.74-2.16,5.63-5,5.76-7.82h0Z"/><path class="cls-13" d="M555.44,161.94l-97.3-56.17c-7.74-4.47-20.3-4.47-28,0l-96.78,56.28c-7.74,4.47-7.74,11.71,0,16.18l97.3,56.18c7.74,4.47,20.29,4.47,28,0l96.79-56.28C563.18,173.66,563.18,166.41,555.44,161.94Z"/><path class="cls-11" d="M509.09,165.34,452.4,132.61c-4.52-2.6-11.83-2.6-16.34,0L379.67,165.4c-4.52,2.61-4.52,6.83,0,9.44l56.69,32.73c4.51,2.6,11.82,2.6,16.33,0l56.4-32.8C513.6,172.17,513.6,168,509.09,165.34Z"/><path class="cls-10" d="M555.44,175.3l-96.79,56.28c-7.74,4.47-20.29,4.47-28,0l-97.3-56.17c-3.25-1.88-5.11-4.24-5.64-6.68-.72,3.38,1.14,6.91,5.64,9.5l97.3,56.18c7.74,4.47,20.29,4.47,28,0l96.79-56.28c4.49-2.59,6.36-6.13,5.63-9.51C560.55,171.07,558.68,173.43,555.44,175.3Z"/><polygon class="cls-10" points="471.73 246.86 467.13 249.52 467.13 244.2 471.73 241.54 471.73 246.86"/><polygon class="cls-10" points="481.37 241.3 476.76 243.96 476.76 238.64 481.37 235.98 481.37 241.3"/><polygon class="cls-10" points="491.01 235.73 486.4 238.39 486.4 233.07 491.01 230.41 491.01 235.73"/><polygon class="cls-10" points="483.13 251.06 478.52 253.72 478.52 248.4 483.13 245.74 483.13 251.06"/><polygon class="cls-10" points="491.61 246.16 487.01 248.82 487.01 243.5 491.61 240.84 491.61 246.16"/><polygon class="cls-10" points="521.91 217.89 517.31 220.55 517.31 215.23 521.91 212.57 521.91 217.89"/><polygon class="cls-10" points="548.46 202.56 543.86 205.22 543.86 199.9 548.46 197.24 548.46 202.56"/><polygon class="cls-10" points="500.64 230.17 496.04 232.83 496.04 227.51 500.64 224.85 500.64 230.17"/><path class="cls-14" d="M561.24,129.52h0V82.87l-59,7.87L458.14,65.25c-7.74-4.47-20.3-4.47-28,0l-6.87,4.37L327.52,82.39v47.49h0c.11,2.84,2,5.67,5.76,7.84l97.3,56.17c7.74,4.47,20.29,4.47,28,0l96.79-56.28c3.74-2.16,5.63-5,5.76-7.81h0Z"/><path class="cls-15" d="M555.44,74.43l-97.3-56.18c-7.74-4.47-20.3-4.47-28,0L333.32,74.53c-7.74,4.47-7.74,11.72,0,16.19l97.3,56.17c7.74,4.47,20.29,4.47,28,0l96.79-56.28C563.18,86.14,563.18,78.9,555.44,74.43Z"/><path class="cls-10" d="M555.44,87.79l-96.79,56.28c-7.74,4.47-20.29,4.47-28,0l-97.3-56.18c-3.25-1.87-5.11-4.24-5.64-6.68-.72,3.38,1.14,6.91,5.64,9.51l97.3,56.17c7.74,4.47,20.29,4.47,28,0l96.79-56.28c4.49-2.59,6.36-6.12,5.63-9.5C560.55,83.55,558.68,85.91,555.44,87.79Z"/><polygon class="cls-10" points="471.73 159.34 467.13 162 467.13 156.69 471.73 154.03 471.73 159.34"/><polygon class="cls-10" points="481.37 153.78 476.76 156.44 476.76 151.12 481.37 148.46 481.37 153.78"/><polygon class="cls-10" points="491.01 148.22 486.4 150.88 486.4 145.56 491.01 142.9 491.01 148.22"/><polygon class="cls-10" points="483.13 163.54 478.52 166.2 478.52 160.88 483.13 158.22 483.13 163.54"/><polygon class="cls-10" points="491.61 158.64 487.01 161.3 487.01 155.99 491.61 153.32 491.61 158.64"/><polygon class="cls-10" points="521.91 130.37 517.31 133.03 517.31 127.71 521.91 125.05 521.91 130.37"/><polygon class="cls-10" points="548.46 115.05 543.86 117.7 543.86 112.39 548.46 109.73 548.46 115.05"/><polygon class="cls-10" points="500.64 142.65 496.04 145.31 496.04 140 500.64 137.34 500.64 142.65"/><path class="cls-5" d="M272.06,503.44A29.47,29.47,0,0,1,257.59,500l-97.3-56.17c-4-2.33-6.26-5.48-6.26-8.88s2.22-6.55,6.26-8.88l96.78-56.27c8-4.61,21-4.61,28.94,0L383.31,426c4,2.33,6.26,5.48,6.26,8.88s-2.22,6.54-6.26,8.88L286.53,500A29.52,29.52,0,0,1,272.06,503.44Zm-.52-135.34A27.72,27.72,0,0,0,258,371.34L161.2,427.62c-3.46,2-5.36,4.59-5.36,7.31s1.9,5.32,5.35,7.31l97.3,56.18c7.48,4.31,19.65,4.31,27.13,0l96.78-56.28c3.46-2,5.36-4.59,5.36-7.31s-1.9-5.32-5.36-7.31l-97.29-56.18A27.73,27.73,0,0,0,271.54,368.1Z"/><path class="cls-16" d="M389.14,404.12h0V357.48l-58.95,7.86L286,339.85c-7.74-4.47-20.3-4.47-28,0l-6.87,4.37L155.42,357v47.5h0c.11,2.85,2,5.67,5.77,7.84l97.29,56.17c7.75,4.47,20.3,4.47,28,0l96.78-56.27c3.75-2.17,5.64-5,5.76-7.82h.05Z"/><path class="cls-17" d="M383.33,349,286,292.86c-7.74-4.47-20.3-4.47-28,0l-96.78,56.28c-7.74,4.47-7.74,11.71,0,16.18l97.29,56.18c7.75,4.47,20.3,4.47,28,0l96.78-56.28C391.08,360.75,391.08,353.5,383.33,349Z"/><path class="cls-10" d="M383.33,362.39l-96.78,56.28c-7.74,4.47-20.29,4.47-28,0L161.22,362.5c-3.25-1.88-5.11-4.24-5.64-6.68-.72,3.38,1.14,6.91,5.64,9.5l97.29,56.18c7.75,4.47,20.3,4.47,28,0l96.78-56.28c4.5-2.6,6.37-6.13,5.64-9.51C388.45,358.15,386.58,360.52,383.33,362.39Z"/><polygon class="cls-10" points="299.63 433.95 295.03 436.61 295.03 431.29 299.63 428.63 299.63 433.95"/><polygon class="cls-10" points="309.27 428.38 304.66 431.04 304.66 425.73 309.27 423.07 309.27 428.38"/><polygon class="cls-10" points="318.9 422.82 314.3 425.48 314.3 420.16 318.9 417.5 318.9 422.82"/><polygon class="cls-10" points="311.03 438.15 306.42 440.81 306.42 435.49 311.03 432.83 311.03 438.15"/><polygon class="cls-10" points="319.51 433.25 314.9 435.91 314.9 430.59 319.51 427.93 319.51 433.25"/><polygon class="cls-10" points="349.81 404.98 345.21 407.63 345.21 402.32 349.81 399.66 349.81 404.98"/><polygon class="cls-10" points="376.36 389.65 371.75 392.31 371.75 386.99 376.36 384.33 376.36 389.65"/><polygon class="cls-10" points="328.54 417.26 323.94 419.92 323.94 414.6 328.54 411.94 328.54 417.26"/><path class="cls-11" d="M266.77,397.77,201.31,360c-2.66-1.53-2.33-4.22.75-6l64-36.93c3.08-1.78,7.72-2,10.38-.43l65.46,37.79c2.66,1.54,2.33,4.22-.74,6l-64,36.94C274.08,399.11,269.43,399.3,266.77,397.77Z"/><path class="cls-10" d="M241,438.67l-54-31.18a5.59,5.59,0,0,1-2.33-4.46v-4c0-1.72,1-2.51,2.33-1.77l54,31.19a5.58,5.58,0,0,1,2.33,4.46v4C243.35,438.63,242.31,439.42,241,438.67Z"/><path class="cls-18" d="M389.14,316.61h0V270l-58.95,7.86L286,252.34c-7.74-4.47-20.3-4.47-28,0l-6.87,4.37-95.71,12.77V317h0c.11,2.84,2,5.66,5.77,7.84L258.51,381c7.75,4.47,20.3,4.47,28,0l96.78-56.28c3.75-2.16,5.64-5,5.76-7.81h.05Z"/><path class="cls-19" d="M383.33,261.52,286,205.34c-7.74-4.47-20.3-4.47-28,0l-96.78,56.28c-7.74,4.47-7.74,11.72,0,16.19L258.51,334c7.75,4.47,20.3,4.47,28,0l96.78-56.28C391.08,273.23,391.08,266,383.33,261.52Z"/><path class="cls-11" d="M337,264.92l-56.7-32.74c-4.51-2.6-11.82-2.6-16.33,0L207.56,265c-4.51,2.6-4.51,6.82,0,9.43l56.7,32.73c4.51,2.6,11.82,2.6,16.33,0L337,274.35C341.5,271.74,341.5,267.52,337,264.92Z"/><path class="cls-10" d="M383.33,274.88l-96.78,56.27c-7.74,4.47-20.29,4.47-28,0L161.22,275c-3.25-1.88-5.11-4.24-5.64-6.68-.72,3.38,1.14,6.91,5.64,9.51L258.51,334c7.75,4.47,20.3,4.47,28,0l96.78-56.28c4.5-2.59,6.37-6.12,5.64-9.5C388.45,270.64,386.58,273,383.33,274.88Z"/><polygon class="cls-10" points="299.63 346.43 295.03 349.09 295.03 343.77 299.63 341.11 299.63 346.43"/><polygon class="cls-10" points="309.27 340.87 304.66 343.53 304.66 338.21 309.27 335.55 309.27 340.87"/><polygon class="cls-10" points="318.9 335.31 314.3 337.96 314.3 332.65 318.9 329.99 318.9 335.31"/><polygon class="cls-10" points="311.03 350.63 306.42 353.29 306.42 347.97 311.03 345.31 311.03 350.63"/><polygon class="cls-10" points="319.51 345.73 314.9 348.39 314.9 343.07 319.51 340.41 319.51 345.73"/><polygon class="cls-10" points="349.81 317.46 345.21 320.12 345.21 314.8 349.81 312.14 349.81 317.46"/><polygon class="cls-10" points="376.36 302.13 371.75 304.79 371.75 299.48 376.36 296.81 376.36 302.13"/><polygon class="cls-10" points="328.54 329.74 323.94 332.4 323.94 327.08 328.54 324.42 328.54 329.74"/><path class="cls-20" d="M389.14,229.09h0V182.44l-58.95,7.87L286,164.82c-7.74-4.47-20.3-4.47-28,0l-6.87,4.37L155.42,182v47.5h0c.11,2.84,2,5.67,5.77,7.84l97.29,56.17c7.75,4.47,20.3,4.47,28,0l96.78-56.28c3.75-2.16,5.64-5,5.76-7.81h.05Z"/><path class="cls-21" d="M383.33,174,286,117.83c-7.74-4.47-20.3-4.47-28,0L161.22,174.1c-7.74,4.47-7.74,11.72,0,16.19l97.29,56.17c7.75,4.47,20.3,4.47,28,0l96.78-56.27C391.08,185.72,391.08,178.47,383.33,174Z"/><path class="cls-22" d="M383.33,174,286,117.83c-7.74-4.47-20.3-4.47-28,0L161.22,174.1c-7.74,4.47-7.74,11.72,0,16.19l97.29,56.17c7.75,4.47,20.3,4.47,28,0l96.78-56.27C391.08,185.72,391.08,178.47,383.33,174Z"/><path class="cls-23" d="M272.44,228.26a20.22,20.22,0,0,1-9.91-2.4l-64.47-37.22c-2.89-1.67-4.48-4-4.48-6.46s1.59-4.79,4.48-6.46l64.12-37.28c5.57-3.22,14.28-3.22,19.85,0l64.46,37.22c2.89,1.67,4.48,4,4.48,6.46s-1.59,4.79-4.48,6.46l-64.12,37.29A20.29,20.29,0,0,1,272.44,228.26Zm-.33-89.7a17.69,17.69,0,0,0-8.66,2.06l-64.12,37.29c-2.08,1.2-3.22,2.71-3.22,4.27s1.14,3.07,3.21,4.27l64.47,37.22c4.77,2.75,12.54,2.75,17.31,0l64.13-37.29c2.07-1.2,3.22-2.71,3.22-4.27s-1.15-3.07-3.22-4.27l-64.47-37.22A17.65,17.65,0,0,0,272.11,138.56Z"/><path class="cls-10" d="M383.33,187.36l-96.78,56.28c-7.74,4.47-20.29,4.47-28,0l-97.29-56.18c-3.25-1.87-5.11-4.24-5.64-6.68-.72,3.39,1.14,6.91,5.64,9.51l97.29,56.18c7.75,4.46,20.3,4.47,28,0l96.78-56.28c4.5-2.6,6.37-6.13,5.64-9.51C388.45,183.12,386.58,185.49,383.33,187.36Z"/><polygon class="cls-10" points="299.63 258.92 295.03 261.58 295.03 256.26 299.63 253.6 299.63 258.92"/><polygon class="cls-10" points="309.27 253.35 304.66 256.01 304.66 250.69 309.27 248.03 309.27 253.35"/><polygon class="cls-10" points="318.9 247.79 314.3 250.45 314.3 245.13 318.9 242.47 318.9 247.79"/><polygon class="cls-10" points="311.03 263.12 306.42 265.77 306.42 260.46 311.03 257.8 311.03 263.12"/><polygon class="cls-10" points="319.51 258.22 314.9 260.88 314.9 255.56 319.51 252.9 319.51 258.22"/><polygon class="cls-10" points="349.81 229.94 345.21 232.6 345.21 227.28 349.81 224.63 349.81 229.94"/><polygon class="cls-10" points="376.36 214.62 371.75 217.28 371.75 211.96 376.36 209.3 376.36 214.62"/><polygon class="cls-10" points="328.54 242.23 323.94 244.88 323.94 239.57 328.54 236.91 328.54 242.23"/><path class="cls-5" d="M615.64,503.34a29.49,29.49,0,0,1-14.47-3.46l-97.3-56.17c-4-2.33-6.26-5.48-6.26-8.87s2.22-6.55,6.26-8.89l96.78-56.27c8-4.61,21-4.61,28.94,0l97.3,56.17c4,2.33,6.26,5.49,6.26,8.88s-2.22,6.54-6.26,8.88l-96.78,56.27A29.52,29.52,0,0,1,615.64,503.34ZM615.12,368a27.72,27.72,0,0,0-13.56,3.24l-96.78,56.27c-3.46,2-5.36,4.59-5.36,7.31s1.9,5.32,5.35,7.31l97.3,56.18c7.48,4.32,19.65,4.32,27.13,0L726,442c3.46-2,5.36-4.59,5.36-7.31s-1.9-5.32-5.36-7.31l-97.29-56.17A27.73,27.73,0,0,0,615.12,368Z"/><path class="cls-24" d="M732.72,404h0V357.38l-59,7.86-44.14-25.48c-7.74-4.47-20.3-4.47-28,0l-6.87,4.37L499,356.89v47.5h0c.11,2.85,2,5.67,5.76,7.84l97.3,56.18c7.74,4.47,20.29,4.47,28,0l96.79-56.28c3.74-2.16,5.63-5,5.76-7.82h0Z"/><path class="cls-25" d="M726.92,348.93l-97.3-56.17c-7.74-4.47-20.3-4.47-28,0L504.8,349c-7.74,4.47-7.74,11.71,0,16.18l97.3,56.18c7.74,4.47,20.29,4.47,28,0l96.79-56.28C734.66,360.65,734.66,353.4,726.92,348.93Z"/><path class="cls-10" d="M726.92,362.29l-96.79,56.28c-7.74,4.47-20.29,4.47-28,0L504.8,362.4c-3.25-1.88-5.11-4.24-5.64-6.68-.72,3.38,1.14,6.91,5.64,9.5l97.3,56.18c7.74,4.47,20.29,4.47,28,0l96.79-56.28c4.49-2.59,6.36-6.13,5.63-9.51C732,358.06,730.16,360.42,726.92,362.29Z"/><polygon class="cls-10" points="643.21 433.85 638.61 436.51 638.61 431.19 643.21 428.53 643.21 433.85"/><polygon class="cls-10" points="652.85 428.29 648.24 430.95 648.24 425.63 652.85 422.97 652.85 428.29"/><polygon class="cls-10" points="662.49 422.72 657.88 425.38 657.88 420.06 662.49 417.4 662.49 422.72"/><polygon class="cls-10" points="654.61 438.05 650 440.71 650 435.39 654.61 432.73 654.61 438.05"/><polygon class="cls-10" points="663.09 433.15 658.49 435.81 658.49 430.49 663.09 427.83 663.09 433.15"/><polygon class="cls-10" points="693.39 404.88 688.79 407.54 688.79 402.22 693.39 399.56 693.39 404.88"/><polygon class="cls-10" points="719.94 389.55 715.34 392.21 715.34 386.89 719.94 384.23 719.94 389.55"/><polygon class="cls-10" points="672.12 417.16 667.52 419.82 667.52 414.5 672.12 411.84 672.12 417.16"/><path class="cls-11" d="M610.35,397.67l-65.46-37.8c-2.66-1.53-2.33-4.22.75-6l64-36.93c3.08-1.77,7.72-2,10.39-.43l65.46,37.79c2.66,1.54,2.32,4.22-.75,6l-64,36.93C617.66,399,613,399.2,610.35,397.67Z"/><path class="cls-10" d="M584.6,438.58l-54-31.19a5.59,5.59,0,0,1-2.33-4.46v-4c0-1.72,1-2.51,2.33-1.77l54,31.19a5.58,5.58,0,0,1,2.33,4.46v4C586.93,438.53,585.89,439.32,584.6,438.58Z"/><path class="cls-26" d="M732.72,316.51h0V269.86l-59,7.87-44.14-25.49c-7.74-4.47-20.3-4.47-28,0l-6.87,4.37L499,269.38v47.49h0c.11,2.84,2,5.67,5.76,7.84l97.3,56.17c7.74,4.47,20.29,4.47,28,0l96.79-56.28c3.74-2.16,5.63-5,5.76-7.81h0Z"/><path class="cls-27" d="M726.92,261.42l-97.3-56.18c-7.74-4.47-20.3-4.47-28,0L504.8,261.52c-7.74,4.47-7.74,11.72,0,16.19l97.3,56.17c7.74,4.47,20.29,4.47,28,0l96.79-56.28C734.66,273.13,734.66,265.89,726.92,261.42Z"/><path class="cls-11" d="M680.57,264.82l-56.69-32.73c-4.52-2.61-11.83-2.61-16.34,0l-56.39,32.79c-4.52,2.6-4.52,6.82,0,9.43L607.84,307c4.51,2.61,11.82,2.61,16.33,0l56.4-32.79C685.08,271.64,685.08,267.42,680.57,264.82Z"/><path class="cls-10" d="M726.92,274.78l-96.79,56.28c-7.74,4.47-20.29,4.47-28,0l-97.3-56.18c-3.25-1.87-5.11-4.24-5.64-6.68-.72,3.38,1.14,6.91,5.64,9.51l97.3,56.17c7.74,4.47,20.29,4.47,28,0l96.79-56.28c4.49-2.59,6.36-6.12,5.63-9.5C732,270.54,730.16,272.9,726.92,274.78Z"/><polygon class="cls-10" points="643.21 346.33 638.61 348.99 638.61 343.68 643.21 341.02 643.21 346.33"/><polygon class="cls-10" points="652.85 340.77 648.24 343.43 648.24 338.11 652.85 335.45 652.85 340.77"/><polygon class="cls-10" points="662.49 335.21 657.88 337.87 657.88 332.55 662.49 329.89 662.49 335.21"/><polygon class="cls-10" points="654.61 350.53 650 353.19 650 347.87 654.61 345.21 654.61 350.53"/><polygon class="cls-10" points="663.09 345.63 658.49 348.29 658.49 342.98 663.09 340.32 663.09 345.63"/><polygon class="cls-10" points="693.39 317.36 688.79 320.02 688.79 314.7 693.39 312.04 693.39 317.36"/><polygon class="cls-10" points="719.94 302.04 715.34 304.69 715.34 299.38 719.94 296.72 719.94 302.04"/><polygon class="cls-10" points="672.12 329.64 667.52 332.3 667.52 326.98 672.12 324.32 672.12 329.64"/><path class="cls-28" d="M732.72,229h0V182.35l-59,7.86-44.14-25.49c-7.74-4.47-20.3-4.47-28,0l-6.87,4.37L499,181.86v47.5h0c.11,2.85,2,5.67,5.76,7.84l97.3,56.17c7.74,4.47,20.29,4.47,28,0l96.79-56.27c3.74-2.17,5.63-5,5.76-7.82h0Z"/><path class="cls-29" d="M726.92,173.9l-97.3-56.17c-7.74-4.47-20.3-4.47-28,0L504.8,174c-7.74,4.47-7.74,11.71,0,16.18l97.3,56.18c7.74,4.47,20.29,4.47,28,0l96.79-56.28C734.66,185.62,734.66,178.37,726.92,173.9Z"/><path class="cls-10" d="M726.92,187.26l-96.79,56.28c-7.74,4.47-20.29,4.47-28,0l-97.3-56.17c-3.25-1.88-5.11-4.24-5.64-6.68-.72,3.38,1.14,6.91,5.64,9.5l97.3,56.18c7.74,4.47,20.29,4.47,28,0l96.79-56.28c4.49-2.6,6.36-6.13,5.63-9.51C732,183,730.16,185.39,726.92,187.26Z"/><polygon class="cls-10" points="643.21 258.82 638.61 261.48 638.61 256.16 643.21 253.5 643.21 258.82"/><polygon class="cls-10" points="652.85 253.25 648.24 255.91 648.24 250.6 652.85 247.94 652.85 253.25"/><polygon class="cls-10" points="662.49 247.69 657.88 250.35 657.88 245.03 662.49 242.37 662.49 247.69"/><polygon class="cls-10" points="654.61 263.02 650 265.68 650 260.36 654.61 257.7 654.61 263.02"/><polygon class="cls-10" points="663.09 258.12 658.49 260.78 658.49 255.46 663.09 252.8 663.09 258.12"/><polygon class="cls-10" points="693.39 229.85 688.79 232.5 688.79 227.19 693.39 224.53 693.39 229.85"/><polygon class="cls-10" points="719.94 214.52 715.34 217.18 715.34 211.86 719.94 209.2 719.94 214.52"/><polygon class="cls-10" points="672.12 242.13 667.52 244.79 667.52 239.47 672.12 236.81 672.12 242.13"/><path class="cls-5" d="M443.53,602.91a29.56,29.56,0,0,1-14.46-3.45l-97.3-56.18c-4-2.33-6.26-5.48-6.26-8.87s2.22-6.55,6.26-8.88l96.78-56.28c8-4.61,21-4.61,28.94,0l97.3,56.17c4,2.33,6.26,5.49,6.26,8.88s-2.22,6.55-6.26,8.88L458,599.46A29.64,29.64,0,0,1,443.53,602.91ZM443,467.58a27.72,27.72,0,0,0-13.56,3.24l-96.78,56.27c-3.46,2-5.36,4.59-5.36,7.32s1.9,5.31,5.35,7.31L430,597.89c7.48,4.32,19.65,4.32,27.13,0l96.78-56.28c3.46-2,5.36-4.59,5.36-7.31s-1.9-5.32-5.35-7.31l-97.3-56.17A27.73,27.73,0,0,0,443,467.58Z"/><path class="cls-30" d="M530.26,528l-76.2-44c-6.07-3.51-15.9-3.51-22,0l-75.81,44.07c-6.06,3.51-6.06,9.18,0,12.68l76.21,44c6.06,3.5,15.9,3.5,22,0l75.81-44.08C536.33,537.15,536.33,531.47,530.26,528Z"/><path class="cls-31" d="M560.62,503.6h0V457l-58.95,7.86-44.14-25.48c-7.74-4.47-20.3-4.47-28,0l-6.87,4.37L326.9,456.47V504h0c.11,2.84,2,5.66,5.77,7.84L430,568c7.75,4.47,20.3,4.47,28,0l96.78-56.28c3.75-2.16,5.64-5,5.76-7.81h0Z"/><path class="cls-32" d="M554.81,448.51l-97.29-56.18c-7.74-4.47-20.3-4.47-28,0L332.7,448.61c-7.74,4.47-7.74,11.72,0,16.19L430,521c7.75,4.47,20.3,4.47,28,0l96.78-56.28C562.56,460.22,562.56,453,554.81,448.51Z"/><path class="cls-10" d="M554.81,461.87,458,518.14c-7.74,4.47-20.29,4.47-28,0L332.7,462c-3.25-1.88-5.12-4.24-5.64-6.68-.72,3.38,1.14,6.91,5.64,9.51L430,521c7.75,4.47,20.3,4.47,28,0l96.78-56.28c4.5-2.59,6.37-6.12,5.64-9.5C559.93,457.63,558.06,460,554.81,461.87Z"/><polygon class="cls-10" points="471.11 533.42 466.51 536.08 466.51 530.76 471.11 528.1 471.11 533.42"/><polygon class="cls-10" points="480.75 527.86 476.14 530.52 476.14 525.2 480.75 522.54 480.75 527.86"/><polygon class="cls-10" points="490.38 522.29 485.78 524.96 485.78 519.64 490.38 516.98 490.38 522.29"/><polygon class="cls-10" points="482.51 537.62 477.9 540.28 477.9 534.96 482.51 532.3 482.51 537.62"/><polygon class="cls-10" points="490.99 532.72 486.38 535.38 486.38 530.06 490.99 527.4 490.99 532.72"/><polygon class="cls-10" points="521.29 504.45 516.69 507.11 516.69 501.79 521.29 499.13 521.29 504.45"/><polygon class="cls-10" points="547.84 489.12 543.23 491.78 543.23 486.46 547.84 483.81 547.84 489.12"/><polygon class="cls-10" points="500.02 516.73 495.42 519.39 495.42 514.07 500.02 511.41 500.02 516.73"/><path class="cls-11" d="M438.25,497.24l-65.46-37.79c-2.66-1.54-2.33-4.22.75-6l64-36.93c3.08-1.77,7.72-2,10.38-.43l65.46,37.79c2.66,1.54,2.33,4.22-.74,6l-64,36.93C445.56,498.58,440.91,498.78,438.25,497.24Z"/><path class="cls-10" d="M412.5,538.15l-54-31.19a5.58,5.58,0,0,1-2.33-4.46v-4c0-1.72,1-2.51,2.33-1.77l54,31.19a5.59,5.59,0,0,1,2.33,4.46v4C414.83,538.1,413.79,538.89,412.5,538.15Z"/><path class="cls-33" d="M560.62,416.08h0V369.43l-58.95,7.87-44.14-25.49c-7.74-4.47-20.3-4.47-28,0l-6.87,4.37L326.9,369v47.5h0c.11,2.84,2,5.67,5.77,7.84L430,480.45c7.75,4.47,20.3,4.47,28,0l96.78-56.28c3.75-2.16,5.64-5,5.76-7.81h0Z"/><path class="cls-34" d="M554.81,361l-97.29-56.17c-7.74-4.47-20.3-4.47-28,0L332.7,361.09c-7.74,4.47-7.74,11.72,0,16.19L430,433.45c7.75,4.47,20.3,4.47,28,0l96.78-56.27C562.56,372.71,562.56,365.46,554.81,361Z"/><path class="cls-11" d="M508.47,364.39l-56.7-32.73c-4.51-2.61-11.82-2.61-16.33,0L379,364.45c-4.51,2.6-4.51,6.83,0,9.43l56.7,32.73c4.51,2.61,11.82,2.61,16.33,0l56.4-32.79C513,371.22,513,367,508.47,364.39Z"/><path class="cls-10" d="M554.81,374.35,458,430.63c-7.74,4.47-20.29,4.47-28,0L332.7,374.45c-3.25-1.87-5.12-4.24-5.64-6.68-.72,3.38,1.14,6.91,5.64,9.51L430,433.46c7.75,4.46,20.3,4.46,28,0l96.78-56.28c4.5-2.6,6.37-6.13,5.64-9.51C559.93,370.11,558.06,372.48,554.81,374.35Z"/><polygon class="cls-10" points="471.11 445.91 466.51 448.57 466.51 443.25 471.11 440.59 471.11 445.91"/><polygon class="cls-10" points="480.75 440.34 476.14 443 476.14 437.68 480.75 435.02 480.75 440.34"/><polygon class="cls-10" points="490.38 434.78 485.78 437.44 485.78 432.12 490.38 429.46 490.38 434.78"/><polygon class="cls-10" points="482.51 450.11 477.9 452.76 477.9 447.45 482.51 444.79 482.51 450.11"/><polygon class="cls-10" points="490.99 445.21 486.38 447.87 486.38 442.55 490.99 439.89 490.99 445.21"/><polygon class="cls-10" points="521.29 416.93 516.69 419.59 516.69 414.27 521.29 411.62 521.29 416.93"/><polygon class="cls-10" points="547.84 401.61 543.23 404.27 543.23 398.95 547.84 396.29 547.84 401.61"/><polygon class="cls-10" points="500.02 429.22 495.42 431.88 495.42 426.56 500.02 423.9 500.02 429.22"/><path class="cls-35" d="M560.62,328.57h0V281.92l-58.95,7.86L457.52,264.3c-7.74-4.47-20.3-4.47-28,0l-6.87,4.37L326.9,281.43v47.5h0c.11,2.85,2,5.67,5.77,7.84L430,392.94c7.75,4.47,20.3,4.47,28,0l96.78-56.28c3.75-2.16,5.64-5,5.76-7.81h0Z"/><path class="cls-36" d="M554.81,273.47,457.52,217.3c-7.74-4.47-20.3-4.47-28,0L332.7,273.58c-7.74,4.47-7.74,11.71,0,16.18L430,345.94c7.75,4.47,20.3,4.47,28,0l96.78-56.28C562.56,285.19,562.56,277.94,554.81,273.47Z"/><path class="cls-10" d="M554.81,286.83,458,343.11c-7.74,4.47-20.29,4.47-28,0L332.7,286.94c-3.25-1.88-5.12-4.24-5.64-6.68-.72,3.38,1.14,6.91,5.64,9.5L430,345.94c7.75,4.47,20.3,4.47,28,0l96.78-56.28c4.5-2.59,6.37-6.12,5.64-9.51C559.93,282.6,558.06,285,554.81,286.83Z"/><polygon class="cls-10" points="471.11 358.39 466.51 361.05 466.51 355.73 471.11 353.07 471.11 358.39"/><polygon class="cls-10" points="480.75 352.83 476.14 355.49 476.14 350.17 480.75 347.51 480.75 352.83"/><polygon class="cls-10" points="490.38 347.26 485.78 349.92 485.78 344.6 490.38 341.94 490.38 347.26"/><polygon class="cls-10" points="482.51 362.59 477.9 365.25 477.9 359.93 482.51 357.27 482.51 362.59"/><polygon class="cls-10" points="490.99 357.69 486.38 360.35 486.38 355.03 490.99 352.37 490.99 357.69"/><polygon class="cls-10" points="521.29 329.42 516.69 332.08 516.69 326.76 521.29 324.1 521.29 329.42"/><polygon class="cls-10" points="547.84 314.09 543.23 316.75 543.23 311.43 547.84 308.77 547.84 314.09"/><polygon class="cls-10" points="500.02 341.7 495.42 344.36 495.42 339.04 500.02 336.38 500.02 341.7"/><rect class="cls-5" x="758.71" y="424.3" width="1.81" height="193.39" transform="translate(-71.4 918.32) rotate(-60)"/><path class="cls-5" d="M914,529.1l-53.52-30.9A44.1,44.1,0,0,0,842.24,493l-57.44-4.51a46,46,0,0,1-19-5.44l-53.52-30.9.91-1.57,53.51,30.9a44.1,44.1,0,0,0,18.22,5.2l57.44,4.52a46,46,0,0,1,19,5.44l53.51,30.9Z"/><path class="cls-5" d="M771.83,611.16l-53.51-30.9c-5.21-3-8.64-7-9.65-11.32l-7.82-33.16c-.89-3.79-4-7.4-8.79-10.16l-53.52-30.9.91-1.57L693,524.05c5.22,3,8.64,7,9.65,11.32l7.82,33.16c.9,3.8,4,7.41,8.8,10.16l53.51,30.9Z"/><path class="cls-5" d="M807.37,590.64l-57-32.93a23.65,23.65,0,0,1-6.93-5.81l-23-29.54A21.91,21.91,0,0,0,714,517l-57-32.93.9-1.57,57,32.93a23.63,23.63,0,0,1,6.93,5.81l23,29.54a21.78,21.78,0,0,0,6.41,5.35l57,32.93Z"/><path class="cls-5" d="M878.43,549.61l-57-32.93a37.9,37.9,0,0,0-9.45-3.76L760.8,499.66a40,40,0,0,1-9.9-4l-57-32.93.91-1.56,57,32.93a38,38,0,0,0,9.44,3.76l51.16,13.26a39.59,39.59,0,0,1,9.89,3.94l57,32.93Z"/><rect class="cls-5" x="-12.93" y="499.55" width="199.75" height="1.81" transform="translate(-238.32 110.3) rotate(-29.96)"/><rect class="cls-5" x="11.81" y="513.83" width="199.75" height="1.81" transform="translate(-242.15 124.57) rotate(-29.96)"/><rect class="cls-5" x="36.55" y="528.12" width="199.75" height="1.81" transform="translate(-245.97 138.83) rotate(-29.96)"/><rect class="cls-5" x="61.28" y="542.4" width="199.75" height="1.81" transform="translate(-249.8 153.09) rotate(-29.96)"/></g></g></svg>