<svg xmlns="http://www.w3.org/2000/svg" xmlns:xlink="http://www.w3.org/1999/xlink" viewBox="0 0 240.94 364.83"><defs><style>.cls-1{isolation:isolate;}.cls-2,.cls-22{opacity:0.32;mix-blend-mode:multiply;}.cls-3{fill:url(#linear-gradient);}.cls-4{fill:#1ae5ff;}.cls-5{opacity:0.53;}.cls-6{opacity:0.37;}.cls-7{fill:#8ed2ff;}.cls-8{opacity:0.47;}.cls-9{fill:#7974f5;}.cls-10{fill:url(#linear-gradient-2);}.cls-11{fill:url(#linear-gradient-3);}.cls-12{fill:url(#linear-gradient-4);}.cls-13{fill:url(#linear-gradient-5);}.cls-14{fill:url(#linear-gradient-6);}.cls-15{fill:#f9fbfc;}.cls-16{fill:#113c7a;}.cls-17{fill:#fff;}.cls-18{fill:#cfe3ff;}.cls-19{fill:url(#linear-gradient-7);}.cls-20{fill:none;}.cls-21{fill:url(#linear-gradient-8);}.cls-22{fill:url(#linear-gradient-9);}.cls-23{fill:#ff9d6f;}.cls-24{fill:url(#linear-gradient-10);}.cls-25{fill:url(#linear-gradient-11);}.cls-26{fill:#ff7c40;}.cls-27{fill:#843837;}</style><linearGradient id="linear-gradient" x1="-225.76" y1="306.99" x2="-103.28" y2="306.99" gradientTransform="matrix(-1, 0, 0, 1, -48.11, 0)" gradientUnits="userSpaceOnUse"><stop offset="0" stop-color="#5155d4"/><stop offset="1" stop-color="#45f7ff"/></linearGradient><linearGradient id="linear-gradient-2" x1="71.34" y1="46.68" x2="202.07" y2="46.68" gradientUnits="userSpaceOnUse"><stop offset="0" stop-color="#7f5eff"/><stop offset="0.24" stop-color="#8665ff"/><stop offset="0.6" stop-color="#9978ff"/><stop offset="0.94" stop-color="#b391ff"/></linearGradient><linearGradient id="linear-gradient-3" x1="194.26" y1="325.82" x2="194.26" y2="101.12" gradientUnits="userSpaceOnUse"><stop offset="0" stop-color="#5745ff"/><stop offset="0.19" stop-color="#5e49ff"/><stop offset="0.46" stop-color="#7253ff"/><stop offset="0.78" stop-color="#9164ff"/><stop offset="0.94" stop-color="#a46eff"/></linearGradient><linearGradient id="linear-gradient-4" x1="168.78" y1="389.75" x2="118.87" y2="103.18" xlink:href="#linear-gradient-2"/><linearGradient id="linear-gradient-5" x1="129.45" y1="71.31" x2="129.45" y2="87.65" xlink:href="#linear-gradient-2"/><linearGradient id="linear-gradient-6" x1="128.85" y1="308.61" x2="128.85" y2="240.26" gradientTransform="translate(151.08 -28.73) rotate(30.16)" gradientUnits="userSpaceOnUse"><stop offset="0" stop-color="#9a79ff"/><stop offset="0.94" stop-color="#b391ff"/></linearGradient><linearGradient id="linear-gradient-7" x1="113.46" y1="81.97" x2="142.5" y2="141.35" gradientUnits="userSpaceOnUse"><stop offset="0" stop-color="#9a79ff"/><stop offset="0.34" stop-color="#ba76e8"/><stop offset="0.94" stop-color="#fb6fb9"/></linearGradient><linearGradient id="linear-gradient-8" x1="124.46" y1="176.94" x2="124.46" y2="238.96" gradientTransform="matrix(1, 0, 0, 1, 0, 0)" xlink:href="#linear-gradient"/><linearGradient id="linear-gradient-9" x1="43.35" y1="345.21" x2="109.37" y2="345.21" gradientTransform="matrix(1, 0, 0, 1, 0, 0)" xlink:href="#linear-gradient"/><linearGradient id="linear-gradient-10" x1="67.4" y1="278.3" x2="59" y2="343.67" gradientUnits="userSpaceOnUse"><stop offset="0" stop-color="#6851f5"/><stop offset="1" stop-color="#00cfff"/></linearGradient><linearGradient id="linear-gradient-11" x1="63.07" y1="309.97" x2="84.49" y2="309.97" xlink:href="#linear-gradient-10"/></defs><title>details</title><g class="cls-1"><g id="Layer_2" data-name="Layer 2"><g id="OBJECTS"><g class="cls-2"><path class="cls-3" d="M57.17,283.42c-2.66,1.53-2.67,4,0,5.54l88.24,51.29a10.57,10.57,0,0,0,9.58,0l20.69-9.69c2.65-1.53,2.67-4,0-5.55L87.44,273.73a10.57,10.57,0,0,0-9.58,0Z"/></g><path class="cls-4" d="M32.87,69.13v2.2a1.69,1.69,0,0,0,2.54,1.45l10.39-6a1.69,1.69,0,0,0,.84-1.46v-2.2a1.69,1.69,0,0,0-2.53-1.46l-10.39,6A1.69,1.69,0,0,0,32.87,69.13Z"/><path class="cls-4" d="M0,99.05v2.21a1.68,1.68,0,0,0,2.53,1.45l43.29-25a1.69,1.69,0,0,0,.84-1.47v-2.2a1.68,1.68,0,0,0-2.53-1.46L.84,97.58A1.72,1.72,0,0,0,0,99.05Z"/><g class="cls-5"><path class="cls-4" d="M17.91,110.68v2.21a1.68,1.68,0,0,0,2.53,1.45L45.89,99.66a1.72,1.72,0,0,0,.84-1.47V96a1.68,1.68,0,0,0-2.53-1.45L18.75,109.21A1.72,1.72,0,0,0,17.91,110.68Z"/></g><path class="cls-4" d="M6.74,106.14v2.21a1.69,1.69,0,0,0,2.53,1.46L45.86,88.69a1.69,1.69,0,0,0,.84-1.47V85a1.69,1.69,0,0,0-2.54-1.45L7.59,104.68A1.68,1.68,0,0,0,6.74,106.14Z"/><g class="cls-6"><path class="cls-7" d="M233.1,102.49A1.88,1.88,0,0,1,234,104l0,15c0,.55-.39.77-.87.49l-19-11a1.92,1.92,0,0,1-.86-1.49l0-15c0-.55.39-.77.87-.5Z"/></g><g class="cls-8"><path class="cls-9" d="M240.08,129.18a1.91,1.91,0,0,1,.86,1.49l0,15c0,.55-.39.77-.87.49l-19-11a1.91,1.91,0,0,1-.86-1.49l0-15c0-.55.39-.77.87-.5Z"/></g><g class="cls-6"><path class="cls-7" d="M46.92,143.33a1.23,1.23,0,0,1,.56,1l0,9.69c0,.35-.25.49-.56.32l-12.27-7.09a1.23,1.23,0,0,1-.56-1l0-9.69c0-.36.25-.5.56-.32Z"/></g><g class="cls-8"><path class="cls-9" d="M51.43,160.58a1.22,1.22,0,0,1,.55,1l0,9.69c0,.35-.25.5-.55.32l-12.28-7.08a1.25,1.25,0,0,1-.55-1l0-9.69c0-.35.25-.5.56-.32Z"/></g><path class="cls-10" d="M176.69,61l.2.17c.59.48,1.17,1,1.73,1.51l.21.18c.57.55,1.13,1.11,1.68,1.69l.14.15c.59.62,1.17,1.27,1.72,1.94l0,0c.57.68,1.13,1.39,1.66,2.12h0c.49.66,1,1.35,1.42,2,.29.43.55.87.82,1.31s.46.73.68,1.1l.3.53c.35.63.7,1.26,1,1.9,0,.07.07.14.11.2.39.78.76,1.57,1.11,2.36l.05.12a38.14,38.14,0,0,1,3.41,15l9.1-5.29a37,37,0,0,0-2.72-13.29h0l-.39-1c-.1-.24-.21-.48-.31-.71l0-.12-.06-.14c-.15-.33-.29-.66-.45-1s-.34-.72-.52-1.08l-.08-.16-.11-.21-.44-.85c-.19-.35-.39-.7-.59-1-.1-.17-.19-.35-.29-.53l-.12-.21c-.18-.3-.38-.59-.56-.89s-.54-.88-.82-1.3c0-.07-.09-.15-.13-.21-.42-.63-.85-1.24-1.29-1.84h0l-.9-1.19-.76-.93,0,0h0c-.26-.32-.52-.62-.78-.92l-.8-.88-.13-.14-.14-.15-.56-.58c-.28-.29-.57-.57-.86-.85-.08-.09-.18-.17-.26-.25l-.21-.19L187.3,57c-.3-.27-.6-.54-.91-.79-.13-.12-.26-.22-.4-.33l-.2-.17-.3-.24c-.3-.24-.59-.46-.89-.68l-.66-.47-.12-.08-.11-.08c-.28-.2-.57-.39-.86-.57s-.57-.36-.86-.53l-.2-.12L94.92,2.79l-.65-.36c-.28-.15-.55-.3-.83-.43l-.54-.26-.13-.06-.15-.07-.82-.35L91,1l-.14,0-.12,0L90.17.69C89.88.6,89.6.53,89.33.46l-.4-.09-.18,0L88.49.27,87.6.12l-.54,0-.18,0L86.7,0l-1,0-.41,0H85l-.33,0a11,11,0,0,0-1.17.17h0c-.09,0-.16.05-.25.06a10.83,10.83,0,0,0-1.15.32L82,.66l-.18.08a10.91,10.91,0,0,0-1.34.63l-9.1,5.29A9.62,9.62,0,0,1,72.68,6L72.86,6a11.66,11.66,0,0,1,1.28-.37l.25-.07a10.7,10.7,0,0,1,1.52-.19h.32a11.52,11.52,0,0,1,1.55,0l.19,0a12.69,12.69,0,0,1,1.68.26l.18,0c.59.14,1.18.3,1.79.51l.12,0A19,19,0,0,1,83.68,7l.13.06c.66.31,1.33.65,2,1l86.87,50.15q1,.6,2,1.29l.11.09C175.47,60,176.08,60.51,176.69,61Z"/><path class="cls-11" d="M202.06,87.15c0-.32,0-.65-.05-1s0-.66-.08-1-.07-.66-.11-1-.09-.68-.14-1l-.18-1c-.07-.35-.14-.7-.22-1.06s-.16-.71-.25-1.06-.18-.72-.28-1.08-.2-.72-.31-1.08-.22-.7-.34-1l-.36-1c-.12-.33-.25-.66-.38-1l-9.09,5.28c.12.34.25.67.37,1s.25.69.36,1,.23.7.34,1,.21.72.31,1.07.2.72.29,1.08.17.72.24,1.07.15.71.22,1.06l.18,1c0,.34.1.68.14,1s.08.67.11,1,.06.66.08,1,0,.66.05,1,0,.62,0,.92l-.59,208.43c0,.77,0,1.51-.11,2.23a1.11,1.11,0,0,1,0,.19c-.06.66-.16,1.29-.27,1.9a2,2,0,0,0,0,.24,16.68,16.68,0,0,1-.44,1.69c0,.1-.06.2-.1.3a14.78,14.78,0,0,1-.57,1.46l-.06.15a12.3,12.3,0,0,1-.82,1.48c0,.07-.09.12-.13.18a10.44,10.44,0,0,1-.78,1l-.32.35a10.44,10.44,0,0,1-.76.73l-.33.29a9.56,9.56,0,0,1-1.18.82l9.1-5.29a10.38,10.38,0,0,0,1.18-.82l.33-.28a10.59,10.59,0,0,0,.76-.74l.31-.35a11.67,11.67,0,0,0,.79-1c0-.07.09-.12.13-.18l0,0a14.4,14.4,0,0,0,.77-1.4.08.08,0,0,1,0,0l.06-.16c.14-.31.28-.62.4-.95.06-.16.11-.34.17-.5l.1-.3.09-.27c.1-.34.19-.69.27-1,0-.13.05-.26.08-.38s0-.17,0-.25.06-.24.08-.37c0-.32.1-.64.14-1s0-.37.06-.55a1.36,1.36,0,0,0,0-.2l0-.23c0-.31,0-.63,0-1s0-.65,0-1v-.06l.59-208.43C202.07,87.77,202.07,87.46,202.06,87.15Z"/><path class="cls-12" d="M172.69,58.23C183.92,64.72,193,80.44,193,93.36l-.59,208.43c0,12.91-9.18,18.12-20.41,11.63L85.1,263.27c-11.23-6.48-20.32-22.22-20.28-35.13l.59-208.43c0-12.92,9.18-18.12,20.41-11.63Z"/><path class="cls-13" d="M140.65,59.78A5.39,5.39,0,0,1,143.11,64c0,1.57-1.11,2.2-2.47,1.42l-22.4-12.93a5.46,5.46,0,0,1-2.46-4.27c0-1.56,1.11-2.19,2.47-1.41Z"/><ellipse class="cls-14" cx="128.85" cy="265.97" rx="5.42" ry="9.36" transform="translate(-116.19 100.75) rotate(-30.16)"/><path class="cls-15" d="M184.05,103.19a4.49,4.49,0,0,1,2,3.52l-.49,174.16c0,1.3-.93,1.82-2,1.17l-109.3-63.1a4.5,4.5,0,0,1-2-3.53L72.7,41.25c0-1.3.92-1.82,2-1.17Z"/><path class="cls-15" d="M197.74,163.61h0a1.3,1.3,0,0,1-1.29-1.3V123.59a1.29,1.29,0,0,1,1.29-1.29h0a1.29,1.29,0,0,1,1.29,1.29v38.72A1.3,1.3,0,0,1,197.74,163.61Z"/><path class="cls-15" d="M197.74,211.8h0a1.29,1.29,0,0,1-1.29-1.29V171.78a1.29,1.29,0,0,1,1.29-1.29h0a1.29,1.29,0,0,1,1.29,1.29v38.73A1.29,1.29,0,0,1,197.74,211.8Z"/><path class="cls-16" d="M197.74,271h0a1.29,1.29,0,0,1-1.29-1.29V249.66a1.29,1.29,0,0,1,1.29-1.29h0a1.29,1.29,0,0,1,1.29,1.29v20.06A1.29,1.29,0,0,1,197.74,271Z"/><path class="cls-17" d="M128.13,115.38c5.59,3.22,10.12,11,10.17,17.47,0,.05,0,.1,0,.15-.24.1-4.7,1.88-10.37-1.28l-.2-.12c-4.43-2.56-8.06-7.63-9.36-9.59-.33-.5-.5-.79-.51-.8C117.89,114.73,122.48,112.12,128.13,115.38Z"/><path class="cls-18" d="M174.14,171.55a5.14,5.14,0,0,1,2.33,4l0,9.82c0,1.48-1.05,2.08-2.34,1.34L84.27,134.88a5.11,5.11,0,0,1-2.33-4L82,121c0-1.47,1-2.07,2.34-1.33Z"/><path class="cls-19" d="M143.48,113.12a31,31,0,0,1,1.11,5.22,24.32,24.32,0,0,1,.19,3c0,.31,0,.6,0,.9v.13l-.06.82a1,1,0,0,1,0,.16c0,.26,0,.53-.09.79s-.1.6-.15.84-.12.56-.18.8l0,.13c-.06.23-.13.46-.2.68l0,.12c-.07.22-.15.44-.23.66l-.29.66c-.13.28-.23.47-.33.66l-.06.1c-.11.19-.21.37-.33.54a.22.22,0,0,1-.05.08c-.12.18-.24.36-.37.53s-.27.33-.4.48l-.06.07c-.14.15-.27.29-.41.42l-.08.08-.44.38-.07.06-.46.34a5.48,5.48,0,0,1-.52.33l-.1.06-.5.26-.1,0-.54.22-.34.11c-.06-6.45-4.58-14.24-10.17-17.46s-10.24-.65-10.26,5.83l.47.73-.4-.56-.59-.87-.09-.14c-.18-.28-.36-.56-.53-.84,0,0-.07-.11-.11-.17-.18-.29-.35-.58-.52-.87l-.5-.9-.09-.17c-.16-.29-.31-.58-.46-.88l-.08-.16-.42-.85c-.18-.38-.31-.69-.45-1,0-.06,0-.12-.08-.19-.13-.3-.26-.6-.38-.91s-.27-.68-.38-1a.88.88,0,0,1-.05-.15c-.12-.3-.22-.61-.33-.92l-.06-.18c-.21-.63-.4-1.25-.56-1.88a1.33,1.33,0,0,1-.05-.19c-.09-.3-.16-.61-.23-.91a1.24,1.24,0,0,1,0-.16q-.1-.43-.18-.87c-.08-.41-.14-.71-.19-1l0-.19c-.05-.31-.09-.61-.13-.91s-.07-.67-.09-1c0-.06,0-.11,0-.16,0-.29,0-.59,0-.88,0-.06,0-.13,0-.19,0-.3,0-.6,0-.9a19.39,19.39,0,0,1,.2-2.82,14,14,0,0,1,1.13-3.92c.11-.22.22-.44.34-.66,2.73-4.89,8.49-6,15.15-2.19,6,3.45,11.21,10.07,14.17,17.2.19.47.38.94.56,1.41C143,111.72,143.27,112.42,143.48,113.12Zm-15.12.49c3.45,2,6.24.38,6.25-3.57a13.62,13.62,0,0,0-6.21-10.75c-3.43-2-6.24-.4-6.25,3.56a13.74,13.74,0,0,0,6.21,10.76"/><path class="cls-20" d="M143.48,113.12a31,31,0,0,1,1.11,5.22,24.32,24.32,0,0,1,.19,3c0,.31,0,.6,0,.9v.13l-.06.82a1,1,0,0,1,0,.16c0,.26,0,.53-.09.79s-.1.6-.15.84-.12.56-.18.8l0,.13c-.06.23-.13.46-.2.68l0,.12c-.07.22-.15.44-.23.66l-.29.66c-.13.28-.23.47-.33.66l-.06.1c-.11.19-.21.37-.33.54a.22.22,0,0,1-.05.08c-.12.18-.24.36-.37.53s-.27.33-.4.48l-.06.07c-.14.15-.27.29-.41.42l-.08.08-.44.38-.07.06-.46.34a5.48,5.48,0,0,1-.52.33l-.1.06-.5.26-.1,0-.54.22-.34.11c-.06-6.45-4.58-14.24-10.17-17.46s-10.24-.65-10.26,5.83l.47.73-.4-.56-.59-.87-.09-.14c-.18-.28-.36-.56-.53-.84,0,0-.07-.11-.11-.17-.18-.29-.35-.58-.52-.87l-.5-.9-.09-.17c-.16-.29-.31-.58-.46-.88l-.08-.16-.42-.85c-.18-.38-.31-.69-.45-1,0-.06,0-.12-.08-.19-.13-.3-.26-.6-.38-.91s-.27-.68-.38-1a.88.88,0,0,1-.05-.15c-.12-.3-.22-.61-.33-.92l-.06-.18c-.21-.63-.4-1.25-.56-1.88a1.33,1.33,0,0,1-.05-.19c-.09-.3-.16-.61-.23-.91a1.24,1.24,0,0,1,0-.16q-.1-.43-.18-.87c-.08-.41-.14-.71-.19-1l0-.19c-.05-.31-.09-.61-.13-.91s-.07-.67-.09-1c0-.06,0-.11,0-.16,0-.29,0-.59,0-.88,0-.06,0-.13,0-.19,0-.3,0-.6,0-.9a19.39,19.39,0,0,1,.2-2.82,14,14,0,0,1,1.13-3.92c.11-.22.22-.44.34-.66,2.73-4.89,8.49-6,15.15-2.19,6,3.45,11.21,10.07,14.17,17.2.19.47.38.94.56,1.41C143,111.72,143.27,112.42,143.48,113.12Zm-15.12.49c3.45,2,6.24.38,6.25-3.57a13.62,13.62,0,0,0-6.21-10.75c-3.43-2-6.24-.4-6.25,3.56a13.74,13.74,0,0,0,6.21,10.76"/><path class="cls-17" d="M128.4,99.29A13.62,13.62,0,0,1,134.61,110c0,3.95-2.8,5.55-6.25,3.57a13.74,13.74,0,0,1-6.21-10.76C122.16,98.89,125,97.3,128.4,99.29Z"/><path class="cls-18" d="M174.08,192.93a5.15,5.15,0,0,1,2.33,4l0,9.82c0,1.49-1,2.08-2.35,1.33L84.21,156.26a5.12,5.12,0,0,1-2.33-4l0-9.82c0-1.49,1.06-2.09,2.35-1.34Z"/><path class="cls-21" d="M139,208.84a12.19,12.19,0,0,1,5.53,9.58v2.25c0,3.53-2.5,5-5.57,3.18l-29-16.78a12.17,12.17,0,0,1-5.54-9.58v-2.25c0-3.52,2.51-4.94,5.57-3.17Z"/><ellipse class="cls-22" cx="76.36" cy="345.21" rx="33.01" ry="19.62"/><path class="cls-23" d="M109.87,211.92a15.89,15.89,0,0,0,2.47-2c.49-.66,1.15-4.44.49-4.6s-1.15,2.46-1.15,2.46-.16-6.9-1-7.89-3.45,4-3.62,4.77-.82,4.27-.82,4.27S107.25,211.92,109.87,211.92Z"/><path class="cls-16" d="M59.65,231.73s-5.15,5.16-1.53,11.41,28.26-9.2,30.89-11.51,19.88-17.74,20.86-19.71-1.15-3.95-3.78-3.62S93,219.8,84.73,225.06C84.73,225.06,65.13,229.52,59.65,231.73Z"/><path class="cls-16" d="M62.67,341s-.42,3.11.15,4.38a3.19,3.19,0,0,0,4.38.85,45.45,45.45,0,0,0,4.24-4s4.52-2.4,5-3.67-1.13-2.41-2.41-2.12S69,339,67.34,339,63.24,339.43,62.67,341Z"/><path class="cls-24" d="M58,274.78s4,65.3,4.45,67.2,5.63,3,6.58,0c.6-1.91,2.09-62.34,2.09-62.34Z"/><path class="cls-16" d="M75.76,344.88a1,1,0,0,0-.35.76,9,9,0,0,0,.54,3.68,3.81,3.81,0,0,0,4.92.91,105.16,105.16,0,0,0,8.61-6.14,3.38,3.38,0,0,0,1.14-1.8,1,1,0,0,0-.58-1.18,4.9,4.9,0,0,0-3.39-.39c-1.86.62-4.22,2.65-6.76,2.54A6.24,6.24,0,0,0,75.76,344.88Z"/><path class="cls-25" d="M84.49,275.48c-.28-2.71-3.53-3.59-6.52-2.67-5.71-.31-14.55-.06-14.86,4.37-.46,6.55,2.62,11.23,5.59,14.42,2.19,2.35,3.65,6.85,4.26,9,.52,17.32,1.67,41.75,2.38,44.09,1.16,3.76,6.84,3.59,7.09-.08C83.58,332.26,84.49,275.48,84.49,275.48Z"/><path class="cls-16" d="M84.51,277.53c-.67,3.35-10.22,5-15.81,4.13S57.1,278,57.3,271.55c0,0,1.06-15.48.64-18.24a76.93,76.93,0,0,1-1.49-12.72,15.05,15.05,0,0,1,3.2-8.86s3.13-3.57,13-1.56c0,0,8,1.74,11.7,7.66,0,0,2.54,6.5,1.69,20.08S84.51,277.53,84.51,277.53Z"/><path class="cls-26" d="M64.94,223s.84,5,0,7.22c-.15,1.13,4.8,4.94,9.19,4,2.54-.56,2.4-1.83,2.4-1.83s-2.12-3.54-1.84-6.93S67.9,222.28,64.94,223Z"/><path class="cls-23" d="M81.48,213a11.67,11.67,0,1,1-11.67-11.67A11.66,11.66,0,0,1,81.48,213Z"/><path class="cls-23" d="M81.48,213.79s.14,11.69-2.41,14.05-6.45-2.21-12.69-3.67,5.06-13.76,5.06-13.76Z"/><path class="cls-23" d="M107.37,231.06s-1.11-4.56-.74-4.93,1.85,1.6,1.85,1.6.74-4.68,1.35-5.17,3.08,2,3.45,3.32-1.48,6.78-2.21,6.91S107.74,233.28,107.37,231.06Z"/><path class="cls-16" d="M80.87,236.48s-5.17,2.47-3,8.87,18.73,8.88,20.7,6.91,10.6-12.08,13.06-19.72c0,0-1-3-4.93-1.73,0,0-9.36,11.83-10.84,13.07S83.34,236,80.87,236.48Z"/><path class="cls-27" d="M59.83,204.13a14.94,14.94,0,0,1,9.9-4.85c6.26-.4,9.29,1.62,11.71,1.42a3.65,3.65,0,0,1,3.84,4.84c-.81,3-2.63,6.06-6.67,6.06s-5-.61-5-.61,3.23,1.42,3.64,4.24a63.49,63.49,0,0,1,.4,7.07h-1s-.81-4.64-2.42-4.64-1.62,5.05-.2,5.85l1.41.81s-2.71,5-4.18,5.24-6.32-3.42-6.32-3.42S56.8,222.3,56,216,59.83,204.13,59.83,204.13Z"/></g></g></g></svg>