<svg xmlns="http://www.w3.org/2000/svg" viewBox="0 0 1869.73 1188.74"><defs><style>.cls-1{fill:#db5958;}.cls-2{fill:#fff;}</style></defs><title>hero_doodles</title><g id="Layer_2" data-name="Layer 2"><g id="Layer_1-2" data-name="Layer 1"><circle class="cls-1" cx="1421.79" cy="186.07" r="28.69"/><circle class="cls-1" cx="23.23" cy="827.3" r="23.23"/><path class="cls-2" d="M0,825.86v2.87H9.5C9.9,841.87,15.79,852,23.23,852S36.57,841.87,37,828.73h9.5v-2.87H37c-.4-13.14-6.29-23.23-13.74-23.23S9.9,812.72,9.5,825.86Zm12.37,2.87H21.8v20.16C16.78,847.5,12.72,839,12.37,828.73Zm12.3,20.16V828.73H34.1C33.75,839,29.69,847.5,24.67,848.89Zm9.43-23H24.67V805.7C29.69,807.09,33.75,815.64,34.1,825.86ZM21.8,805.7v20.16H12.37C12.72,815.64,16.78,807.09,21.8,805.7Z"/><path class="cls-2" d="M916.55,872.25H856.23v33h60.32Zm-6.38,26.67H862.61V878.63h47.56Z"/><path class="cls-2" d="M856.23,994.29h60.32v-33H856.23Zm6.38-26.67h47.56v20.29H862.61Z"/><path class="cls-2" d="M1052.32,940H849.88a17.24,17.24,0,0,0-17.23,17.23v41a17.25,17.25,0,0,0,17.23,17.24h202.44a17.25,17.25,0,0,0,17.24-17.24v-41A17.25,17.25,0,0,0,1052.32,940Zm10.85,58.24a10.85,10.85,0,0,1-10.85,10.85H849.88A10.85,10.85,0,0,1,839,998.27v-41a10.85,10.85,0,0,1,10.85-10.85h202.44a10.85,10.85,0,0,1,10.85,10.85Z"/><path class="cls-2" d="M1134.45,830.61A34.36,34.36,0,0,0,1102,863.14l6.37.33a28,28,0,0,1,55-5.57l.89,3.43,3.32-1.24a27.7,27.7,0,0,1,9.81-1.77,28,28,0,0,1,28,28h6.38a34.42,34.42,0,0,0-43.2-33.22,34.18,34.18,0,0,0-26.38-22,42,42,0,0,0-60.5-15.15,34.35,34.35,0,0,0-59.54-8.92,30.56,30.56,0,0,0-46.07,17.3,30.26,30.26,0,0,0-14.53-3.67A30.6,30.6,0,0,0,931,851h-81.1a17.24,17.24,0,0,0-17.23,17.23v41a17.24,17.24,0,0,0,17.23,17.23h202.44a17.25,17.25,0,0,0,17.24-17.23v-41A17.25,17.25,0,0,0,1052.32,851h-115a24.23,24.23,0,0,1,24.19-24,24,24,0,0,1,14.79,5l4.49,3.48.64-5.64a24.17,24.17,0,0,1,37.29-17.49,34.17,34.17,0,0,0-3.67,15.43h6.38a28,28,0,0,1,55.34-5.91l1.12,5.24,4.07-3.48a35.56,35.56,0,0,1,52.45,6.92Zm-71.28,37.65v41a10.85,10.85,0,0,1-10.85,10.85H849.88A10.85,10.85,0,0,1,839,909.28v-41a10.86,10.86,0,0,1,10.85-10.85h202.44A10.86,10.86,0,0,1,1063.17,868.26Z"/><circle class="cls-1" cx="948.22" cy="888.77" r="13.33" transform="translate(-130.12 163.36) rotate(-9.22)"/><circle class="cls-1" cx="992.17" cy="888.77" r="13.33" transform="translate(-129.55 170.4) rotate(-9.22)"/><circle class="cls-1" cx="1036.12" cy="888.77" r="13.33" transform="translate(-128.99 177.44) rotate(-9.22)"/><circle class="cls-1" cx="948.22" cy="977.77" r="13.33" transform="translate(-144.38 164.51) rotate(-9.22)"/><circle class="cls-1" cx="992.17" cy="977.77" r="13.33" transform="translate(-143.81 171.55) rotate(-9.22)"/><circle class="cls-1" cx="1036.12" cy="977.77" r="13.33" transform="translate(-143.24 178.59) rotate(-9.22)"/><polygon class="cls-2" points="1354.78 962.16 1151.82 962.16 1151.82 982.91 1116.31 952.18 1151.82 921.44 1151.82 942.2 1354.78 942.2 1354.78 935.82 1158.2 935.82 1158.2 907.48 1106.56 952.18 1158.2 996.87 1158.2 968.54 1354.78 968.54 1354.78 962.16"/><polygon class="cls-2" points="1410.35 991.07 1216.13 991.07 1216.13 997.45 1416.72 997.45 1416.72 976.7 1452.24 1007.43 1416.72 1038.16 1416.72 1017.41 1216.13 1017.41 1216.13 1023.79 1410.35 1023.79 1410.35 1052.12 1461.99 1007.43 1410.35 962.74 1410.35 991.07"/><path class="cls-2" d="M1399,986.19a39.73,39.73,0,0,0-24.46-58.33,39.73,39.73,0,0,0-73.41-29.7,39.5,39.5,0,0,0-31.67,19.59,39.76,39.76,0,0,0-35.32,4.57l3.57,5.29a33.34,33.34,0,0,1,32-2.93l2.8,1.22,1.34-2.74a33.22,33.22,0,0,1,29.44-18.7l2,0,.83-1.87A33.34,33.34,0,0,1,1367.33,929l-1.59,3.77,4,.63a33.35,33.35,0,0,1,23.7,49.61Z"/><path class="cls-2" d="M1186.48,1002.85a33.22,33.22,0,0,1,9.14-22.93l-4.63-4.39a39.72,39.72,0,0,0,28.83,67H1364.6v-6.38H1219.82A33.38,33.38,0,0,1,1186.48,1002.85Z"/><rect class="cls-1" x="1121.19" y="1047.46" width="41.21" height="6.38"/><path class="cls-2" d="M1643.78,904.2h-6a13.61,13.61,0,0,0,13.59,13.59h84.83v-6h-84.83A7.58,7.58,0,0,1,1643.78,904.2Z"/><path class="cls-2" d="M1837,1016.79h-34.94l-105-83.73h51.36a26.88,26.88,0,1,0-9.43-52,26.9,26.9,0,0,0-34.63-17,26.89,26.89,0,0,0-51-.15,26.9,26.9,0,0,0-16.84,16.84,26.87,26.87,0,0,0,8.62,52.33h33.69l-93.77,65.15h-12.51a15.22,15.22,0,0,0-15.2,15.2v72a15.22,15.22,0,0,0,15.2,15.2h26.9a15.22,15.22,0,0,0,15.2-15.2v-72a15.22,15.22,0,0,0-15.2-15.2h-3.84l89.15-61.93-6.83,64.83h-33.29a15.22,15.22,0,0,0-15.2,15.21v46.54a15.22,15.22,0,0,0,15.2,15.2h72a15.22,15.22,0,0,0,15.2-15.2v-46.54a15.22,15.22,0,0,0-15.2-15.21H1684l6.88-65.28,101.52,81H1765a15.22,15.22,0,0,0-15.2,15.2v30.87a15.22,15.22,0,0,0,15.2,15.2h72a15.22,15.22,0,0,0,15.21-15.2V1032A15.22,15.22,0,0,0,1837,1016.79Zm-228.35-3.38v72a9.19,9.19,0,0,1-9.18,9.18h-26.9a9.19,9.19,0,0,1-9.18-9.18v-72a9.19,9.19,0,0,1,9.18-9.18h26.9A9.19,9.19,0,0,1,1608.67,1013.41Zm117.18,2.91v46.54a9.19,9.19,0,0,1-9.18,9.18h-72a9.19,9.19,0,0,1-9.18-9.18v-46.54a9.19,9.19,0,0,1,9.18-9.18h72A9.19,9.19,0,0,1,1725.85,1016.32ZM1624.32,906.19a20.88,20.88,0,0,1,15.43-20.14l1.68-.45,0-.08h22.48v-6h-20.29a20.86,20.86,0,0,1,12.95-10.29l1.68-.45.45-1.68a20.86,20.86,0,0,1,40.66,1.67l.73,4,3.63-1.91a20.54,20.54,0,0,1,9.7-2.39A20.79,20.79,0,0,1,1734,885.77l.72,4.17,3.7-2a20.86,20.86,0,1,1,10,39.14H1645.18A20.88,20.88,0,0,1,1624.32,906.19Zm131.53,156.67V1032a9.19,9.19,0,0,1,9.18-9.18h8.53V1072H1765A9.19,9.19,0,0,1,1755.85,1062.86Zm90.36,0A9.19,9.19,0,0,1,1837,1072h-57.44v-49.23H1837a9.19,9.19,0,0,1,9.19,9.18Z"/><rect class="cls-2" x="1570.85" y="1019.11" width="30.38" height="6.02"/><rect class="cls-2" x="1570.85" y="1072.04" width="30.38" height="6.02"/><rect class="cls-2" x="1643.42" y="1019.11" width="74.51" height="6.02"/><rect class="cls-2" x="1643.42" y="1056.85" width="74.51" height="6.02"/><rect class="cls-2" x="1828.13" y="1034.99" width="6.02" height="24.87"/><path class="cls-1" d="M1489.68,884.68h-6a24,24,0,0,1,24-24v6A18,18,0,0,0,1489.68,884.68Z"/><path class="cls-1" d="M1471.9,884.68h-6a41.85,41.85,0,0,1,41.8-41.8v6A35.82,35.82,0,0,0,1471.9,884.68Z"/><path class="cls-1" d="M1456.13,884.68h-6a57.63,57.63,0,0,1,57.57-57.57v6A51.61,51.61,0,0,0,1456.13,884.68Z"/><rect class="cls-1" x="1793.3" y="889.35" width="6.02" height="25.43"/><rect class="cls-1" x="1793.3" y="953.19" width="6.02" height="21.74"/><rect class="cls-1" x="1819.19" y="909.49" width="6.02" height="43.7"/><rect class="cls-1" x="1846.21" y="872.68" width="6.02" height="29.38"/><rect class="cls-1" x="1846.21" y="932.62" width="6.02" height="55.06"/><rect class="cls-1" x="1519.38" y="806.66" width="14.92" height="6.02"/><rect class="cls-1" x="1537.53" y="847.18" width="21.33" height="6.02"/><rect class="cls-1" x="1640.08" y="1091.13" width="139.32" height="6.02"/><rect class="cls-1" x="1807.65" y="1091.13" width="36.71" height="6.02"/><path class="cls-2" d="M303.38,984.87l-51.27-25.64v51.27Zm-46.12-17.31,34.6,17.31-34.6,17.3Z"/><path class="cls-2" d="M167.32,1054.91H385v-22.75H167.32Zm154-5.15H299.91l11.66-12.45H333ZM340,1037.31h21.38l-11.66,12.45H328.34Zm-47.16,12.45H271.47l11.66-12.45h21.39Zm-28.44,0H243l11.67-12.45h21.38Zm-28.44,0H214.59l11.67-12.45h21.38Zm-28.43,0H186.15l11.67-12.45H219.2Zm172.3,0H356.78l11.67-12.45h11.39Zm-207.37-12.45h18.29l-11.66,12.45h-6.63Z"/><rect class="cls-2" x="159.53" y="869.21" width="13.24" height="5.15"/><rect class="cls-2" x="185.19" y="874.11" width="5.15" height="13.24" transform="translate(-567.78 390.74) rotate(-45)"/><rect class="cls-2" x="194.14" y="895.72" width="5.15" height="13.24"/><rect class="cls-2" x="181.14" y="921.38" width="13.24" height="5.15" transform="translate(-598.35 403.4) rotate(-45)"/><rect class="cls-2" x="159.53" y="930.34" width="13.24" height="5.15"/><rect class="cls-2" x="141.96" y="917.34" width="5.15" height="13.24" transform="translate(-610.99 372.8) rotate(-45)"/><rect class="cls-2" x="133.01" y="895.72" width="5.15" height="13.24"/><rect class="cls-2" x="137.92" y="878.16" width="13.24" height="5.15" transform="translate(-580.44 360.17) rotate(-45)"/><path class="cls-2" d="M296,861.07a21.9,21.9,0,0,0-3.34.25,25,25,0,0,0-49.2-4.3,18.14,18.14,0,0,0-13.81,12.29,18.24,18.24,0,0,0,5.61,35.6H296a21.92,21.92,0,0,0,0-43.84Zm0,38.69H235.23a13.09,13.09,0,0,1-2.94-25.84l1.58-.36.36-1.58a13,13,0,0,1,11.57-10.1l2-.18.34-1.94a19.87,19.87,0,0,1,39.44,3.42c0,.4,0,.81,0,1.2l-.26,3.77,3.61-1.15a17,17,0,0,1,5.11-.79,16.78,16.78,0,0,1,0,33.55Z"/><path class="cls-2" d="M293.08,887.89H242.15V893h50.93c12.32,0,12.32-9.79,12.32-14.49h-5.14C300.26,885.88,298.71,887.89,293.08,887.89Z"/><path class="cls-2" d="M129.6,954.58l11.88-11.88-18.19-18.19-11.88,11.88A56.56,56.56,0,0,0,94,929.19v-16.8H73.44V879.32H68.29v49.87a56.56,56.56,0,0,0-17.39,7.2l-9.31-9.3V909H36.45v18.14L20.83,942.7l11.88,11.88A56.42,56.42,0,0,0,25.51,972H13.85V879.32H8.7V997.7H25.51a56.22,56.22,0,0,0,7.2,17.39L20.83,1027,39,1045.17l11.88-11.88a56.54,56.54,0,0,0,17.39,7.19v16.81H94v-16.81a56.54,56.54,0,0,0,17.39-7.19l11.88,11.88,18.19-18.2-11.88-11.88a56.22,56.22,0,0,0,7.2-17.39h16.81V972H136.8A56.42,56.42,0,0,0,129.6,954.58Zm18.86,38H132.58l-.4,2.1a51.22,51.22,0,0,1-8,19.34l-1.19,1.76L134.2,1027l-10.91,10.91-11.22-11.22-1.76,1.2a51.65,51.65,0,0,1-19.35,8l-2.09.39v15.88H73.44v-15.88l-2.09-.39a51.65,51.65,0,0,1-19.35-8l-1.76-1.2L39,1037.88,28.11,1027l11.22-11.22L38.14,1014a51.22,51.22,0,0,1-8-19.34l-.4-2.1H13.85V977.12H29.73l.4-2.09a51.22,51.22,0,0,1,8-19.34l1.19-1.76L28.11,942.7,39,931.79,50.24,943l1.76-1.2a51.49,51.49,0,0,1,19.35-8l2.09-.4V917.54H88.87v15.87l2.09.4a51.49,51.49,0,0,1,19.35,8l1.76,1.2,11.22-11.23L134.2,942.7,123,953.93l1.19,1.76a51.22,51.22,0,0,1,8,19.34l.4,2.09h15.88Z"/><rect class="cls-2" x="341.1" y="887.82" width="5.15" height="82.25"/><rect class="cls-2" x="285.56" y="897.94" width="5.15" height="111.12" transform="translate(-701.34 838.89) rotate(-66.58)"/><rect class="cls-2" x="210.69" y="955.23" width="5.15" height="41.93" transform="translate(-505.97 282.56) rotate(-33.71)"/><rect class="cls-2" x="179.57" y="1001.35" width="40.22" height="5.15" transform="translate(-145.86 40.42) rotate(-8.48)"/><circle class="cls-1" cx="81.15" cy="984.84" r="30.24" transform="translate(-903.73 904.22) rotate(-80.61)"/><rect class="cls-1" x="288.69" y="930.29" width="28.28" height="5.15"/><rect class="cls-1" x="359.09" y="1010.44" width="24.74" height="5.15"/><rect class="cls-1" x="315.32" y="1010.44" width="17.59" height="5.15"/><circle class="cls-1" cx="343.67" cy="880.73" r="10.76"/><circle class="cls-1" cx="343.67" cy="977.56" r="10.76" transform="translate(-690.68 915.46) rotate(-67.19)"/><circle class="cls-1" cx="230.33" cy="928.46" r="10.76" transform="translate(-208.97 78.69) rotate(-13.4)"/><circle class="cls-1" cx="196.71" cy="953.01" r="10.76" transform="translate(-758.05 764.96) rotate(-67.19)"/><circle class="cls-1" cx="227.66" cy="999.08" r="10.76"/><circle class="cls-1" cx="172.77" cy="1006.34" r="10.76" transform="translate(-159.99 41.02) rotate(-9.28)"/><path class="cls-2" d="M680.42,901.19a69.65,69.65,0,0,0-52.35-1.9l-.1,0a14.87,14.87,0,0,0-8.3,8.06,13.76,13.76,0,0,0-.21,11,14.85,14.85,0,0,0,18.83,8.52c1.39-.5,2.89-1,4.88-1.55l.11,0,.7-.12c.59-.1,1.16-.21,1.74-.29l.24,0a39.68,39.68,0,0,1,7.13-.6c.52.1,1.08.15,1.64.21.79.07,1.59.17,2.36.28,1.55.22,3.11.52,4.64.89l1.48.38.45.13.11,0c1.44.53,3,1.11,4.42,1.77s2.62,1.27,3.83,2c.12.07.45.29,1,.66a5.45,5.45,0,0,0,.56.33l.62.43c1.28.91,2.53,1.9,3.71,2.93.5.43,1,.88,1.47,1.32l.5.49.1.09,0,0,.4.43.49.51c.52.61,1,1.23,1.53,1.85,1,1.27,1.93,2.6,2.8,3.95.36.57.7,1.15,1,1.72l.24.41,0,.05.43,1c.58,1.3,1.13,2.53,1.61,3.79a15.15,15.15,0,0,0,8.26,8.43,13.78,13.78,0,0,0,10.24.36l.54-.22c7.58-3.22,11.32-11.52,8.5-18.89A69.68,69.68,0,0,0,680.42,901.19Zm24.69,51.34a7.41,7.41,0,0,1-5.78-.14,8.89,8.89,0,0,1-4.79-4.83c-.54-1.43-1.15-2.8-1.75-4.12l0-.07a5.56,5.56,0,0,0-.51-1.37,5.08,5.08,0,0,0-.82-1.18c-.27-.45-.54-.9-.83-1.34-1-1.53-2-3-3.15-4.46-.56-.71-1.14-1.41-1.73-2.09l-.22-.25c-.11-.14-.22-.28-.35-.42h0a.1.1,0,0,0-.06,0,2.84,2.84,0,0,0-.24-.26c-.13-.13-.26-.24-.4-.36l-.17-.17-.55-.52c-.57-.54-1.12-1-1.64-1.49-1.34-1.16-2.75-2.27-4.19-3.3-.36-.27-.74-.52-1.12-.77s-.64-.42-.95-.64l0,0c-.26-.18-.47-.31-.63-.4-1.38-.78-2.84-1.52-4.33-2.2s-3.31-1.39-4.86-2l-.27-.09v0l-.14,0a6.52,6.52,0,0,0-1.19-.33c-.39-.1-.77-.21-1.16-.3-1.73-.41-3.49-.75-5.24-1-.87-.12-1.76-.23-2.65-.32l-.25,0v0a11.25,11.25,0,0,0-2-.17,45.64,45.64,0,0,0-8.06.67l-.24,0c-.54.08-1.07.17-1.61.27a5.89,5.89,0,0,0-1.48.16,5.44,5.44,0,0,0-1.44.53c-1.6.48-2.92.91-4.16,1.36a8.52,8.52,0,0,1-10.76-5,7.48,7.48,0,0,1,.18-5.91,8.55,8.55,0,0,1,4.67-4.62l.06,0a62.09,62.09,0,0,1,79.88,36.5C711.9,946.43,709,950.89,705.11,952.53Z"/><path class="cls-2" d="M717.45,868.51a118.36,118.36,0,0,0-66.64-20.42,115.27,115.27,0,0,0-39.13,7.25l-.06,0a14.94,14.94,0,0,0-8.35,8.12,13.72,13.72,0,0,0-.19,10.91,15,15,0,0,0,18.84,8.51c2.48-.91,4.78-1.67,7-2.31.82-.24,1.64-.46,2.47-.67l1.3-.35.44-.12.41-.08.64-.11a95.94,95.94,0,0,1,14.52-1.75c1.18,0,2.37,0,3.64,0,1.07,0,2.18,0,3.3,0l.54,0,.64,0c1.37.1,2.74.23,4.08.38a98.45,98.45,0,0,1,14,2.64c.61.16,1.23.33,1.84.51a3.35,3.35,0,0,0,.38.14l.6.18,1.35.43c2.29.79,4.57,1.68,6.79,2.63,2.07.9,4.16,1.89,6.21,2.95,1.08.56,2.16,1.15,3.2,1.74l1.33.8.89.54.37.21A101.12,101.12,0,0,1,708,898.27c1.75,1.49,3.47,3.07,5.11,4.69l.81.8.37.38.35.37.67.74c.46.51.91,1,1.36,1.55a97,97,0,0,1,9.46,13.12c.08.15.19.4.34.7a14.88,14.88,0,0,0,1.94,3.41l.7,1.44c1.18,2.48,2.28,5.09,3.37,8a15.15,15.15,0,0,0,8.22,8.42,13.82,13.82,0,0,0,10.29.37l.54-.21a14.91,14.91,0,0,0,8.5-18.88C751.62,900.76,736.48,881.35,717.45,868.51Zm31.62,67.63a7.31,7.31,0,0,1-5.81-.15,8.84,8.84,0,0,1-4.76-4.8c-1.15-3.06-2.33-5.83-3.58-8.47-.29-.6-.58-1.19-.88-1.78l-.31-.64a7,7,0,0,0-1.11-1.72c-.14-.27-.26-.53-.34-.7a12.33,12.33,0,0,0-.61-1.2,102.85,102.85,0,0,0-10.11-14c-.47-.55-.95-1.11-1.44-1.65l-.26-.29-.11-.12h0l-.16-.16a2.52,2.52,0,0,0-.21-.25l-.25-.25-.13-.14h0l-.14-.14-.36-.37-.86-.85c-1.75-1.73-3.59-3.41-5.45-5a109.38,109.38,0,0,0-11.5-8.52l-.12-.08-.19-.12,0,0-.44-.26c-.61-.37-1.25-.77-1.5-.9-1.11-.64-2.26-1.26-3.41-1.85-2.17-1.13-4.4-2.19-6.62-3.14s-4.79-2-7.23-2.82l-1.37-.43,0,0h0l-1.22-.35-2-.56a104.36,104.36,0,0,0-14.9-2.81c-1.43-.16-2.89-.3-4.35-.4l-.45,0a5.69,5.69,0,0,0-1.24-.15,5.22,5.22,0,0,0-1.31.12H652.4c-1.29,0-2.62,0-4,0A103.22,103.22,0,0,0,633,873h0a9.62,9.62,0,0,0-2.4.5h0v0l-.77.2-2.64.72c-2.37.69-4.8,1.49-7.43,2.45a8.49,8.49,0,0,1-10.75-5,7.41,7.41,0,0,1,.18-5.88,8.62,8.62,0,0,1,4.72-4.66h0a108.9,108.9,0,0,1,36.93-6.86,112.09,112.09,0,0,1,63,19.33c17.94,12.11,32.23,30.44,40.22,51.6C755.85,930.05,752.91,934.51,749.07,936.14Z"/><path class="cls-2" d="M744.89,828.51a166.67,166.67,0,0,0-94.34-28.93,164.17,164.17,0,0,0-55.81,10.32h0a14.93,14.93,0,0,0-8.37,8.13,13.74,13.74,0,0,0-.19,10.9A15,15,0,0,0,605,837.46c3.7-1.37,7.34-2.57,10.82-3.57,1.76-.5,3.59-1,5.42-1.45l.88-.19c.18,0,.43-.1.7-.18h0l.25,0,1.42-.28A145.89,145.89,0,0,1,646.74,829c2.14-.09,4.26-.07,6.49-.06,1.45,0,2.95,0,4.45,0l.22,0,2.5.15c1.91.14,3.86.32,5.76.54a144.52,144.52,0,0,1,21,3.94c1.26.33,2.54.7,3.79,1.06l.68.2,1,.3,2.71.92c3.33,1.17,6.66,2.47,9.91,3.88s6.46,3,9.59,4.58c1.57.82,3.14,1.68,4.67,2.55l2.13,1.24c.22.13.76.46,1.21.75.15.1.31.19.46.27l.05,0,.1.08c3.22,2.12,6.14,4.14,8.84,6.14s5.17,4,7.51,6c2.71,2.32,5.36,4.77,7.89,7.29l1.75,1.76a12.84,12.84,0,0,0,1.06,1c.67.68,1.34,1.49,2,2.34l1,1.22A145.68,145.68,0,0,1,767.81,895c.58,1,1.16,2,1.72,3l.74,1.33.13.26.41.79c.22.4.43.8.51,1,.52,1,1,2.06,1.53,3.1,1.8,3.78,3.53,7.84,5.12,12.08a15.07,15.07,0,0,0,8.21,8.42,13.77,13.77,0,0,0,10.29.38l.54-.22a14.91,14.91,0,0,0,8.51-18.87C793.61,874.55,772.08,847,744.89,828.51Zm49.63,90.7a7.45,7.45,0,0,1-5.83-.16,8.79,8.79,0,0,1-4.74-4.79c-1.65-4.41-3.45-8.64-5.34-12.59-.52-1.09-1.06-2.18-1.59-3.24l-.55-1.06a1.19,1.19,0,0,1-.12-.22l-.11-.23h0l-.11-.2a1.19,1.19,0,0,1-.09-.15l-.11-.19c-.06-.12-.14-.25-.21-.38l-.65-1.16c-.59-1-1.19-2.06-1.8-3.08a151,151,0,0,0-14.88-20.67l-.94-1.14c-.76-.92-1.54-1.87-2.42-2.75a9.61,9.61,0,0,0-.86-.83l-.17-.17c-.6-.62-1.21-1.24-1.82-1.84-2.64-2.63-5.41-5.18-8.24-7.61a167.14,167.14,0,0,0-17.88-13.19h0v0l-1.18-.73-2.22-1.29c-1.59-.91-3.23-1.8-4.87-2.66-3.27-1.7-6.64-3.31-10-4.77s-6.86-2.84-10.34-4c-.94-.33-1.88-.65-2.83-1l-.5-.17h0l-.83-.25-.1,0-.43-.13c-1.29-.37-2.61-.76-3.94-1.11a151.65,151.65,0,0,0-21.94-4.1c-2-.23-4-.42-6-.56l-2.49-.16a7.14,7.14,0,0,0-.83-.07h-.71v.06c-1.18,0-2.38,0-3.55,0-2.22,0-4.51,0-6.82.06a153.56,153.56,0,0,0-23.2,2.8l-1.45.3-.29.06-.21,0-.16,0-.23,0h0l-.2.06h0l-1,.23c-1.92.47-3.82,1-5.67,1.51-3.62,1-7.41,2.28-11.26,3.71a8.09,8.09,0,0,1-6.27-.26,9.06,9.06,0,0,1-4.48-4.76,7.36,7.36,0,0,1,.17-5.86,8.67,8.67,0,0,1,4.73-4.68h0A157.49,157.49,0,0,1,650.57,806a160.31,160.31,0,0,1,90.74,27.83c26.1,17.7,46.78,44.22,58.23,74.66A8.57,8.57,0,0,1,794.52,919.21Z"/><rect class="cls-1" x="772.18" y="946.58" width="34.52" height="6.39" transform="translate(-281.98 335.49) rotate(-20.44)"/><rect class="cls-1" x="705.17" y="971.56" width="34.52" height="6.39" transform="translate(-294.92 313.66) rotate(-20.44)"/><circle class="cls-1" cx="651.96" cy="963.46" r="21.26"/><path class="cls-2" d="M87.89,805.09l63.32,22.4L187.84,724l-63.31-22.41Zm40.93-94.51,50,17.69-31.92,90.21-50-17.69Z"/><rect class="cls-2" x="146.67" y="711.74" width="7.06" height="35.87" transform="translate(-587.78 627.86) rotate(-70.51)"/><rect class="cls-2" x="141.82" y="725.45" width="7.06" height="35.87" transform="translate(-603.93 632.42) rotate(-70.51)"/><circle class="cls-1" cx="127.64" cy="793.43" r="8.73" transform="translate(-662.92 649.07) rotate(-70.51)"/><rect class="cls-2" x="1316.75" y="209.57" width="12.89" height="5.01"/><rect class="cls-2" x="1341.74" y="214.34" width="5.01" height="12.89" transform="translate(237.6 1015.19) rotate(-45)"/><rect class="cls-2" x="1350.45" y="235.39" width="5.01" height="12.89"/><rect class="cls-2" x="1337.8" y="260.37" width="12.89" height="5.01" transform="translate(207.84 1027.52) rotate(-45)"/><rect class="cls-2" x="1316.75" y="269.09" width="12.89" height="5.01"/><rect class="cls-2" x="1299.65" y="256.43" width="5.01" height="12.89" transform="translate(195.51 997.76) rotate(-45)"/><rect class="cls-2" x="1290.93" y="235.39" width="5.01" height="12.89"/><rect class="cls-2" x="1295.71" y="218.28" width="12.89" height="5.01" transform="translate(225.27 985.43) rotate(-45)"/><path class="cls-2" d="M1311.37,331.84v0h54.8V309.65H1154.23V331.8h152.13v0Zm49.78-5h-49.78V314.67h49.78Zm-138.76-12.12h25.66l-12.66,12.12h-25.65Zm-19.9,12.12h-25.66l12.66-12.12h25.65Zm52.8-12.12H1281l-12.66,12.12h-25.65Zm-96,0h23l-12.65,12.12h-10.35Zm116.3,12.12,12.66-12.12h18.16v12.12Z"/><path class="cls-2" d="M431.37,786.84v0h54.8V764.65H274.23V786.8H426.36v0Zm49.78-5.05H431.37V769.67h49.78ZM342.39,769.67h25.66l-12.66,12.12H329.74Zm-19.9,12.12H296.83l12.66-12.12h25.65Zm52.8-12.12H401l-12.66,12.12H362.64Zm-96.05,0h23l-12.65,12.12H279.24Zm116.3,12.12,12.66-12.12h18.16v12.12Z"/><polygon class="cls-2" points="1435.31 186.28 1421.57 186.28 1417.43 168.71 1412.55 169.86 1417.6 191.29 1435.31 191.29 1435.31 186.28"/><path class="cls-2" d="M1720,23h-55.37V45.4H1720Zm-6,16.31h-43.29V29.08H1714Z"/><path class="cls-2" d="M1720,51.78h-55.37V74.14H1720Zm-6,16.32h-43.29V57.83H1714Z"/><path class="cls-2" d="M1582.69,17.46V138.39h67.2v10h84.89v-10H1802V17.46h-67.21V7.5h-84.89v10Zm6,114.89V23.5h61.16V132.35ZM1795.94,23.5V132.35h-61.16V23.5Zm-140-10h72.81V142.31h-72.81V13.54Z"/><path class="cls-2" d="M1595.27,50.65h48.08V30.7h-48.08Zm6-13.9h36v7.86h-36Z"/><path class="cls-2" d="M1595.27,75.15h48.08v-20h-48.08Zm6-13.91h36V69.1h-36Z"/><path class="cls-2" d="M1390.62,114.9h63.17V11.63h-63.17Zm6.64-96.63h49.89v90h-49.89Z"/><path class="cls-2" d="M1789.41,30.7h-48.09v20h48.09Zm-6.05,13.91h-36V36.75h36Z"/><path class="cls-2" d="M1789.41,55.2h-48.09v20h48.09Zm-6.05,13.9h-36V61.24h36Z"/><rect class="cls-2" x="1405.34" y="25.17" width="33.73" height="6.64"/><rect class="cls-2" x="1405.34" y="38.84" width="33.73" height="6.64"/><rect class="cls-2" x="1551.52" y="215.54" width="61.97" height="5.01" transform="translate(119.45 859.41) rotate(-31.52)"/><rect class="cls-2" x="1636.21" y="195.18" width="5.01" height="55.81" transform="translate(262.31 1139.96) rotate(-41.42)"/><rect class="cls-2" x="1667.15" y="235.96" width="52.78" height="5.01" transform="translate(23.68 607.92) rotate(-20.49)"/><circle class="cls-1" cx="1829.08" cy="252.76" r="40.65"/><path class="cls-2" d="M1788.44,250.25v5h16.62c.7,23,11,40.65,24,40.65s23.33-17.66,24-40.65h16.62v-5h-16.62c-.7-23-11-40.65-24-40.65s-23.32,17.66-24,40.65Zm21.64,5h16.5v35.28C1817.79,288.11,1810.69,273.15,1810.08,255.26Zm21.51,35.28V255.26h16.5C1847.47,273.15,1840.38,288.11,1831.59,290.54Zm16.5-40.29h-16.5V215C1840.38,217.41,1847.47,232.37,1848.09,250.25ZM1826.58,215v35.28h-16.5C1810.69,232.37,1817.79,217.41,1826.58,215Z"/><path class="cls-1" d="M1311.52,137.34h-6.64A48.42,48.42,0,0,0,1256.51,89V82.33A55.06,55.06,0,0,1,1311.52,137.34Z"/><path class="cls-1" d="M1334.23,137.34h-6.63a71.17,71.17,0,0,0-71.09-71.09V59.62A77.8,77.8,0,0,1,1334.23,137.34Z"/><path class="cls-1" d="M1358.56,137.34h-6.64a95.52,95.52,0,0,0-95.41-95.41V35.29A102.17,102.17,0,0,1,1358.56,137.34Z"/><path class="cls-1" d="M1378.4,137.34h-6.64A115.38,115.38,0,0,0,1256.51,22.09V15.45A122,122,0,0,1,1378.4,137.34Z"/><circle class="cls-1" cx="1619.31" cy="112.2" r="9.77" transform="translate(1249.17 1692.63) rotate(-80.78)"/><circle class="cls-1" cx="1765.36" cy="112.2" r="9.77" transform="translate(4.82 284.23) rotate(-9.22)"/><path class="cls-1" d="M1551.11,113h-6a24.14,24.14,0,0,1,24.11-24.11v6A18.09,18.09,0,0,0,1551.11,113Z"/><path class="cls-1" d="M1533.27,113h-6A42,42,0,0,1,1569.17,71v6A35.94,35.94,0,0,0,1533.27,113Z"/><path class="cls-1" d="M1517.44,113h-6a57.85,57.85,0,0,1,57.78-57.78v6A51.8,51.8,0,0,0,1517.44,113Z"/><rect class="cls-1" x="1611.47" y="220.71" width="5.01" height="19.78" transform="translate(886.61 1689.72) rotate(-71.64)"/><rect class="cls-1" x="1626.18" y="250.8" width="5.01" height="22.21" transform="translate(866.97 1725.12) rotate(-71.64)"/><rect class="cls-1" x="1587.92" y="239.59" width="5.01" height="19.22" transform="translate(852.83 1680.12) rotate(-71.64)"/><rect class="cls-1" x="1405.28" y="135.99" width="39.44" height="6.64"/><rect class="cls-1" x="1422.3" y="314.21" width="17.76" height="5.01"/><rect class="cls-1" x="1664.79" y="191.44" width="5.01" height="27.54" transform="translate(947.23 1722.93) rotate(-71.64)"/><rect class="cls-1" x="1541.96" width="56.33" height="6.04"/><rect class="cls-1" x="1337.29" y="13.44" width="24.45" height="6.64"/><rect class="cls-1" x="1530.25" y="23.38" width="22.26" height="6.04"/><circle class="cls-1" cx="1548.91" cy="237.47" r="10.48" transform="translate(835.52 1632.67) rotate(-71.64)"/><circle class="cls-1" cx="1616.76" cy="196.84" r="10.48" transform="translate(920.56 1669.24) rotate(-71.64)"/><circle class="cls-1" cx="1663.43" cy="247.02" r="10.48" transform="translate(1155.11 1850.03) rotate(-80.85)"/><circle class="cls-1" cx="1724.55" cy="225.05" r="10.48" transform="translate(967.61 1790.86) rotate(-71.64)"/><circle class="cls-1" cx="1692.34" cy="118.15" r="11.46"/><circle class="cls-1" cx="1422.21" cy="92.09" r="8.21"/><path class="cls-2" d="M565.62,1113.9h63.17V1010.63H565.62Zm6.64-96.63h49.89v90H572.26Z"/><rect class="cls-2" x="580.34" y="1024.17" width="33.73" height="6.64"/><rect class="cls-2" x="580.34" y="1037.84" width="33.73" height="6.64"/><path class="cls-1" d="M486.52,1136.34h-6.64A48.42,48.42,0,0,0,431.51,1088v-6.63A55.06,55.06,0,0,1,486.52,1136.34Z"/><path class="cls-1" d="M509.23,1136.34H502.6a71.17,71.17,0,0,0-71.09-71.09v-6.63A77.8,77.8,0,0,1,509.23,1136.34Z"/><path class="cls-1" d="M533.56,1136.34h-6.64a95.52,95.52,0,0,0-95.41-95.41v-6.64A102.17,102.17,0,0,1,533.56,1136.34Z"/><path class="cls-1" d="M553.4,1136.34h-6.64a115.38,115.38,0,0,0-115.25-115.25v-6.64A122,122,0,0,1,553.4,1136.34Z"/><rect class="cls-1" x="512.29" y="1012.44" width="24.45" height="6.64"/><circle class="cls-1" cx="597.21" cy="1091.09" r="8.21"/><rect class="cls-1" x="938.34" y="339.26" width="83.87" height="5.01"/><rect class="cls-1" x="1491.34" y="755.26" width="83.87" height="5.01"/><rect class="cls-1" x="1545.24" y="318.61" width="11.72" height="5.01"/><path class="cls-2" d="M1212.58,179.69l-22.85-10.21-16.12,10-3.69,9.33,25.31,12.93,4.43-10.5,28.19,28.19-10.5,4.42,12.93,25.32,9.33-3.69,10-16.12-10.21-22.85Zm23.68,61.78-3.61,1.43-8.45-16.53,12.38-5.21-38.64-38.64-5.21,12.38-16.53-8.45,1.43-3.61,12.48-7.75,19.6,8.76,25.54,25.54L1244,229Z"/><polygon class="cls-2" points="487.73 98.65 492.7 98.65 492.7 45.26 673.08 45.26 673.08 121.27 678.05 121.27 678.05 40.29 487.73 40.29 487.73 98.65"/><polygon class="cls-2" points="665.76 121.27 665.76 66.8 500.02 66.8 500.02 108.98 504.99 108.98 504.99 71.77 660.79 71.77 660.79 121.27 665.76 121.27"/><polygon class="cls-2" points="653.89 63.62 657.45 60.05 661.02 63.62 664.53 60.11 660.97 56.54 664.53 52.98 661.02 49.47 657.45 53.03 653.89 49.47 650.38 52.98 653.94 56.54 650.38 60.11 653.89 63.62"/><rect class="cls-2" x="628.63" y="50.03" width="14.45" height="4.97"/><rect class="cls-2" x="607.2" y="56.88" width="14.45" height="4.97"/><rect class="cls-2" x="502.51" y="54.06" width="83.81" height="4.97"/><rect class="cls-1" x="519.91" y="84.04" width="32.89" height="4.97"/><rect class="cls-1" x="572.59" y="84.04" width="73.23" height="4.97"/><rect class="cls-1" x="541.62" y="96.17" width="104.2" height="4.97"/><rect class="cls-1" x="555.67" y="108.29" width="27.22" height="4.97"/><rect class="cls-1" x="582.89" y="14.3" width="74.56" height="4.97"/><rect class="cls-1" x="511.39" y="14.3" width="41.4" height="4.97"/><path class="cls-2" d="M954.12,229.58a37.65,37.65,0,0,0,28.26-12.76h153V169h-5v42.9H986.1a37.55,37.55,0,0,0,5.69-17.55h85v-5h-85A37.6,37.6,0,0,0,981.59,166V126.14h51.48v-5H976.63v40.36a37.57,37.57,0,0,0-8.2-4.63V112.07L1035.9,44.6v-24h-5v22l-66.75,66.75-.73.73v45.22a37.88,37.88,0,0,0-9.34-1.17h0V57.85h35V20.58h-5v32.3h-35V154.42a37.46,37.46,0,0,0-10.25,2.85,39,39,0,0,0-1.62-4.82V20.58h-5V143.86a37.82,37.82,0,0,0-44.58-11.72,37.76,37.76,0,0,0-72.51-1.27,37.83,37.83,0,0,0-24.89,24.89A37.24,37.24,0,0,0,779,161.52V114.79H718.7v5H774v46.19a37.37,37.37,0,0,0-5.31,7.18V142.81H693.15v5h70.61v44h0a37.77,37.77,0,0,0,19.07,32.79H739.06V177.84h-5v51.74H804v33.68H730.83v5H809V229.58h15.15v60.19H748.07v5h81V229.58H904.6v31H853.87v5h55.7V229.58h22.74v25.56h105.27v-5H937.28V229.58Zm-152.61-5A32.79,32.79,0,0,1,793,160.17l1.38-.38.38-1.38a32.79,32.79,0,0,1,23.13-23.13l1.38-.37.38-1.39a32.79,32.79,0,0,1,63.91,2.63l.61,3.34,3-1.58a32.79,32.79,0,0,1,47.55,23.42l.59,3.43,3.05-1.68a32.79,32.79,0,1,1,15.78,61.53H801.51Z"/><path class="cls-2" d="M784.49,189.91h-5a26.94,26.94,0,0,0,26.91,26.91H917.23v-5H806.44A22,22,0,0,1,784.49,189.91Z"/><rect class="cls-2" x="934.79" y="211.86" width="18.2" height="4.97"/><polygon class="cls-2" points="1090.35 162.63 1007.19 162.63 1007.19 167.6 1092.4 167.6 1130.46 129.54 1183.29 129.54 1183.29 124.57 1128.41 124.57 1090.35 162.63"/><rect class="cls-1" x="1118.12" y="279.39" width="29.51" height="4.97"/><rect class="cls-1" x="1065.94" y="279.39" width="12.3" height="4.97"/><rect class="cls-1" x="1004.22" y="99.52" width="17.6" height="4.97"/><rect class="cls-1" x="1217.01" y="110.79" width="18.29" height="4.97"/><circle class="cls-1" cx="711.83" cy="117.27" r="10.38" transform="translate(-8.83 150.49) rotate(-11.99)"/><circle class="cls-1" cx="1043.8" cy="252.66" r="10.38"/><circle class="cls-1" cx="1039.44" cy="123.66" r="10.38"/><circle class="cls-1" cx="934.79" cy="12.79" r="10.38"/><circle class="cls-1" cx="1033.42" cy="12.79" r="10.38"/><circle class="cls-1" cx="986.6" cy="12.79" r="10.38"/><circle class="cls-1" cx="688.68" cy="145.3" r="10.38"/><circle class="cls-1" cx="736.58" cy="172.18" r="10.38" transform="translate(-19.86 173.84) rotate(-13.28)"/><circle class="cls-1" cx="1084.14" cy="191.82" r="10.38" transform="translate(181.9 822.79) rotate(-45)"/><circle class="cls-1" cx="1084.14" cy="191.82" r="10.38" transform="translate(181.9 822.79) rotate(-45)"/><circle class="cls-1" cx="1132.88" cy="164.2" r="10.38" transform="translate(-11.67 183.59) rotate(-9.22)"/><circle class="cls-1" cx="1190.63" cy="127.05" r="10.38"/><circle class="cls-1" cx="722.21" cy="265.75" r="10.38" transform="translate(200.32 831.29) rotate(-67.5)"/><circle class="cls-1" cx="848.44" cy="263.03" r="10.38" transform="translate(-37.74 201.97) rotate(-13.28)"/><circle class="cls-1" cx="738.99" cy="292.25" r="10.38" transform="translate(-47.38 177.6) rotate(-13.28)"/><rect class="cls-2" x="642.67" y="176.68" width="4.97" height="46.41"/><rect class="cls-2" x="557.24" y="166.3" width="80.68" height="4.97"/><rect class="cls-1" x="575.93" y="190.09" width="12.17" height="4.97"/><rect class="cls-1" x="611.4" y="198.77" width="20.2" height="4.97"/><rect class="cls-1" x="612.02" y="229.73" width="4.97" height="14.35"/><rect class="cls-1" x="552.63" y="290.04" width="4.97" height="12.05"/><rect class="cls-1" x="573.37" y="243.79" width="16.97" height="4.97"/><circle class="cls-1" cx="645.15" cy="229.73" r="10.38" transform="translate(183.32 735.4) rotate(-67.19)"/><circle class="cls-1" cx="645.15" cy="168.79" r="10.38"/><circle class="cls-1" cx="549.78" cy="168.79" r="10.38"/><path class="cls-2" d="M588.48,323.35h47.27V246.07H588.48Zm5-72.31h37.33v67.34H593.45Z"/><rect class="cls-2" x="599.49" y="256.21" width="25.24" height="4.97"/><rect class="cls-2" x="599.49" y="266.44" width="25.24" height="4.97"/><circle class="cls-1" cx="612.12" cy="306.28" r="6.15"/><rect class="cls-1" x="552.63" y="217.7" width="4.97" height="35.79"/><path class="cls-2" d="M282,263.83,249.76,296l22.29,22.29,32.2-32.2-4.82-4.82,11.2-11.2a43.29,43.29,0,0,0,23.57,7c1,0,2.07,0,3.11-.11A43.21,43.21,0,1,0,298,257.45l-11.2,11.2Zm-9.91,46.66L257.59,296,282,271.66l14.46,14.46Zm35.51-103.24a37.67,37.67,0,1,1,4.38,57h0a37.93,37.93,0,0,1-7.26-7c-.3-.38-.6-.76-.88-1.14A37.91,37.91,0,0,1,307.56,207.25Zm-6.23,54.69,0,0,.7.8.42.46c.37.41.76.81,1.15,1.2s.8.78,1.21,1.16l.51.46.74.66,0,0-10.64,10.63-4.81-4.81Z"/><path class="cls-2" d="M267.11,203.46a23,23,0,1,0-6.35,45.08h17.66V243H260.76a17.45,17.45,0,1,1,6.62-33.59l2.45,1L271,208a17.51,17.51,0,0,1,15.83-10.12h.3l2.35.1.48-2.31A17.51,17.51,0,0,1,307,181.79a17.2,17.2,0,0,1,6.06,1.09l3.47,1.3.27-3.69a17.45,17.45,0,0,1,34.71-.91l.35,2.78,2.78-.39a17.76,17.76,0,0,1,2.51-.18,17.44,17.44,0,0,1,17.33,15.4l.43,3.74,3.44-1.53a17.44,17.44,0,0,1,23.1,9.06l1.15,2.66,2.61-1.27A17.45,17.45,0,1,1,412.82,243h-23.7v5.54h23.7a23,23,0,1,0-7.51-44.72,23,23,0,0,0-19.89-11.45,22.59,22.59,0,0,0-6.09.82,23,23,0,0,0-22.82-16.93,23,23,0,0,0-44.74.49A23,23,0,0,0,285,192.43,23.11,23.11,0,0,0,267.11,203.46Z"/><circle class="cls-1" cx="334.2" cy="233.88" r="25.38"/><rect class="cls-1" x="376.43" y="135.76" width="34.53" height="5.54"/><rect class="cls-1" x="338.93" y="135.76" width="18.69" height="5.54"/><rect class="cls-1" x="453.31" y="171.37" width="5.54" height="20.98"/><rect class="cls-1" x="389.12" y="168.6" width="30.41" height="5.54"/><rect class="cls-1" x="258.64" y="163.93" width="28.15" height="5.54"/><rect class="cls-1" x="389.12" y="266.77" width="30.41" height="5.54"/><rect class="cls-1" x="354.61" y="289.13" width="39.08" height="5.54"/><rect class="cls-1" x="321.47" y="289.13" width="15.32" height="5.54"/><rect class="cls-1" x="376.43" y="311.11" width="12.7" height="5.54"/><rect class="cls-1" x="240.55" y="261.55" width="19.02" height="5.54"/><rect class="cls-1" x="226.81" y="315.07" width="19.02" height="5.54"/><rect class="cls-1" x="207.88" y="284.26" width="32.66" height="5.54"/><rect class="cls-1" x="453.31" y="208.59" width="5.54" height="37.19"/><rect class="cls-1" x="29.46" y="79.76" width="5.54" height="140.6"/><path class="cls-2" d="M93.33,13H26.92V60.22H93.33ZM83,18.57,60.13,37.81,37.28,18.57ZM32.46,54.68V21.75l27.67,23.3,27.66-23.3V54.68Z"/><path class="cls-2" d="M242.76,54.69,221.9,12.37,162.33,41.73,183.2,84.05Zm-57,22L171.16,47.11l35.11,8.66,14.51-33.13,14.56,29.53ZM174.07,42.12l41-20.21-12,27.37Z"/><path class="cls-2" d="M192.17,124.73,130.62,99.8l-17.71,43.73,61.55,24.93ZM180.49,126l-28.4,9.26-14-26.41Zm-60.37,14.51L132.48,110l16.9,32,34.38-11.21L171.4,161.25Z"/><path class="cls-2" d="M152.26,277.87a20.39,20.39,0,0,0,3.24-40.52,20.41,20.41,0,0,0-26.72-12.61,20.39,20.39,0,0,0-35.11-10.32l4.08,3.74a14.85,14.85,0,0,1,25.79,10.05c0,.28,0,.57,0,.85l-.2,5.44,4.51-3.05a14.8,14.8,0,0,1,8.31-2.54,15,15,0,0,1,14.5,11.59l.45,2,2.08.13a14.85,14.85,0,0,1-.91,29.68H43.15a14.86,14.86,0,0,1-8.26-27.2l3.41-2.29-3.41-2.3a14.86,14.86,0,0,1-6.59-12.34H22.77A20.35,20.35,0,0,0,29,242.84a20.4,20.4,0,0,0,14.19,35Z"/><rect class="cls-2" x="97.71" y="257.88" width="45.54" height="5.54"/><rect class="cls-2" x="57.93" y="257.88" width="22.77" height="5.54"/><path class="cls-1" d="M61.23,212.9c-1.85-14.46-3.59-52,20.27-88.23,26.06-39.58,65-51.93,80.59-55.41l1.21,5.4C148.41,78,111.07,89.83,86.12,127.71,63.29,162.4,65,198.35,66.72,212.2Z"/><path class="cls-1" d="M81.09,217.15c-1.25-5.74-2.52-17.05,3.08-28.17,8-15.9,26.38-25.16,46.83-23.59l-.43,5.52c-18.19-1.39-34.46,6.68-41.45,20.56-4.84,9.6-3.72,19.47-2.62,24.5Z"/><rect class="cls-1" x="55.16" y="75.96" width="5.54" height="41.47"/><rect class="cls-1" x="40.69" y="75.96" width="5.54" height="18.15"/><rect class="cls-1" x="69.64" y="75.96" width="5.54" height="18.15"/><rect class="cls-1" x="315.88" y="19.02" width="48.52" height="5.54"/><rect class="cls-1" x="265.16" y="40.45" width="79.84" height="5.54"/><rect class="cls-1" x="114.9" y="25.85" width="28.75" height="5.54" transform="translate(17.63 99.79) rotate(-45)"/><rect class="cls-1" x="106.1" y="59.92" width="28.75" height="5.54" transform="translate(-9.04 103.56) rotate(-45)"/><rect class="cls-1" x="252.89" y="19.02" width="30.58" height="5.54"/><rect class="cls-1" x="127.4" y="191.55" width="54.31" height="5.54"/><path class="cls-2" d="M422,53,372.76,8.44l-31.67,35L390.32,88Zm-11.4-2.84-29.85-1.08-4-29.6ZM348.91,43,371,18.62l4.87,35.84L412,55.76l-22.1,24.41Z"/><path class="cls-2" d="M862.52,1051.29a21.8,21.8,0,0,0-3.34.25,25,25,0,0,0-49.21-4.3,18.11,18.11,0,0,0-13.8,12.29,18.24,18.24,0,0,0,5.61,35.6h60.74a21.92,21.92,0,0,0,0-43.84Zm0,38.69H801.78a13.09,13.09,0,0,1-2.94-25.84l1.57-.36.36-1.58a13,13,0,0,1,11.57-10.1l2-.17.34-2a19.87,19.87,0,0,1,39.45,3.42c0,.4,0,.81,0,1.2l-.26,3.78,3.61-1.15a16.59,16.59,0,0,1,5.11-.79,16.77,16.77,0,0,1,0,33.54Z"/><path class="cls-2" d="M859.62,1078.11H808.7v5.15h50.92c12.33,0,12.33-9.79,12.33-14.49H866.8C866.8,1076.1,865.26,1078.11,859.62,1078.11Z"/><path class="cls-2" d="M1076.43,1086l11.88-11.88L1070.12,1056l-11.88,11.88a56.46,56.46,0,0,0-17.39-7.2v-16.8h-20.58v-33.07h-5.15v49.87a56.56,56.56,0,0,0-17.39,7.2l-9.3-9.3V1040.4h-5.15v18.14l-15.62,15.61L979.54,1086a56.66,56.66,0,0,0-7.2,17.39H960.68v-92.65h-5.14v118.38h16.8a56.46,56.46,0,0,0,7.2,17.39l-11.88,11.88,18.19,18.2,11.88-11.88a56.54,56.54,0,0,0,17.39,7.19v16.81h25.73v-16.81a56.44,56.44,0,0,0,17.39-7.19l11.88,11.88,18.19-18.2-11.88-11.88a56.22,56.22,0,0,0,7.2-17.39h16.81v-25.73h-16.81A56.42,56.42,0,0,0,1076.43,1086Zm18.86,38h-15.88l-.4,2.09a51.34,51.34,0,0,1-8,19.35l-1.2,1.76,11.22,11.22-10.91,10.91-11.22-11.22-1.76,1.2a51.4,51.4,0,0,1-19.35,8l-2.09.4v15.88h-15.43v-15.88l-2.09-.4a51.36,51.36,0,0,1-19.34-8l-1.77-1.2-11.22,11.22-10.91-10.91,11.22-11.22-1.19-1.76a51.36,51.36,0,0,1-8-19.35l-.4-2.09H960.68v-15.43h15.88l.4-2.09a51.38,51.38,0,0,1,8-19.34l1.19-1.76-11.22-11.23,10.91-10.91,11.22,11.22,1.77-1.19a51.38,51.38,0,0,1,19.34-8l2.09-.4V1049h15.43v15.87l2.09.4a51.42,51.42,0,0,1,19.35,8l1.76,1.19,11.22-11.22,10.91,10.91-11.22,11.23,1.2,1.76a51.36,51.36,0,0,1,8,19.34l.4,2.09h15.88Z"/><circle class="cls-1" cx="1027.99" cy="1116.29" r="30.24" transform="translate(-241.07 1948.36) rotate(-80.61)"/></g></g></svg>