<svg xmlns="http://www.w3.org/2000/svg" xmlns:xlink="http://www.w3.org/1999/xlink" viewBox="0 0 378.95 244.51"><defs><style>.cls-1{fill:none;}.cls-2{isolation:isolate;}.cls-3{opacity:0.67;}.cls-4{fill:#d8d7e0;}.cls-5{opacity:0.9;}.cls-6{fill:#c4c4cc;}.cls-7{mix-blend-mode:lighten;}.cls-29,.cls-30,.cls-8{fill:#e84242;}.cls-9{fill:url(#Áåçûìÿííûé_ãðàäèåíò_6);}.cls-10{fill:url(#Áåçûìÿííûé_ãðàäèåíò_5);}.cls-11{fill:#fff;}.cls-12{fill:#8a8fa2;}.cls-13{fill:#dcddf2;}.cls-14{fill:#c9cbdb;}.cls-15{fill:#06001f;}.cls-16{fill:url(#Áåçûìÿííûé_ãðàäèåíò_5-2);}.cls-17{fill:url(#Áåçûìÿííûé_ãðàäèåíò_5-3);}.cls-18{fill:url(#Áåçûìÿííûé_ãðàäèåíò_6-2);}.cls-19,.cls-28{fill:#c8c7d4;}.cls-20{fill:url(#Áåçûìÿííûé_ãðàäèåíò_6-3);}.cls-21{fill:url(#Áåçûìÿííûé_ãðàäèåíò_5-4);}.cls-22{fill:url(#Áåçûìÿííûé_ãðàäèåíò_5-5);}.cls-23{fill:url(#Áåçûìÿííûé_ãðàäèåíò_5-6);}.cls-24{fill:url(#Áåçûìÿííûé_ãðàäèåíò_6-4);}.cls-25{fill:#e6e6ff;}.cls-26{fill:url(#Áåçûìÿííûé_ãðàäèåíò_5-7);}.cls-27,.cls-28{opacity:0.51;}.cls-29{opacity:0.1;}.cls-30{opacity:0.4;}.cls-31{fill:url(#Áåçûìÿííûé_ãðàäèåíò_5-8);}.cls-32{fill:url(#Áåçûìÿííûé_ãðàäèåíò_5-9);}.cls-33{fill:url(#Áåçûìÿííûé_ãðàäèåíò_6-5);}.cls-34{fill:url(#Áåçûìÿííûé_ãðàäèåíò_6-6);}.cls-35{fill:url(#Áåçûìÿííûé_ãðàäèåíò_5-10);}.cls-36{fill:url(#Áåçûìÿííûé_ãðàäèåíò_5-11);}.cls-37{opacity:0.11;}.cls-38{clip-path:url(#clip-path);}.cls-39{fill:url(#Áåçûìÿííûé_ãðàäèåíò_5-12);}.cls-40{fill:url(#Áåçûìÿííûé_ãðàäèåíò_5-13);}.cls-41{opacity:0.8;}.cls-42{fill:url(#Áåçûìÿííûé_ãðàäèåíò_7);}.cls-43{fill:url(#Áåçûìÿííûé_ãðàäèåíò_5-14);}.cls-44{fill:url(#Áåçûìÿííûé_ãðàäèåíò_6-7);}.cls-45{fill:url(#Áåçûìÿííûé_ãðàäèåíò_6-8);}.cls-46{fill:url(#Áåçûìÿííûé_ãðàäèåíò_5-15);}.cls-47{fill:url(#Áåçûìÿííûé_ãðàäèåíò_5-16);}.cls-48{clip-path:url(#clip-path-2);}.cls-49{fill:url(#Áåçûìÿííûé_ãðàäèåíò_5-17);}.cls-50{fill:url(#Áåçûìÿííûé_ãðàäèåíò_5-18);}</style><linearGradient id="Áåçûìÿííûé_ãðàäèåíò_6" x1="2760.02" y1="80.19" x2="2899.2" y2="80.19" gradientTransform="translate(-2743.73)" gradientUnits="userSpaceOnUse"><stop offset="0" stop-color="#c4c5d7"/><stop offset="0.3" stop-color="#c8c9dc"/><stop offset="0.66" stop-color="#d4d5ea"/><stop offset="1" stop-color="#e6e6ff"/></linearGradient><linearGradient id="Áåçûìÿííûé_ãðàäèåíò_5" x1="2806.78" y1="75.55" x2="2946.04" y2="75.55" gradientTransform="translate(-2743.73)" gradientUnits="userSpaceOnUse"><stop offset="0" stop-color="#e0e0f6"/><stop offset="0.4" stop-color="#e5e5f7"/><stop offset="0.88" stop-color="#f3f3fc"/><stop offset="1" stop-color="#f8f8fd"/></linearGradient><linearGradient id="Áåçûìÿííûé_ãðàäèåíò_5-2" x1="2797.75" y1="64.83" x2="2833.39" y2="64.83" xlink:href="#Áåçûìÿííûé_ãðàäèåíò_5"/><linearGradient id="Áåçûìÿííûé_ãðàäèåíò_5-3" x1="2800.53" y1="58.41" x2="2899.08" y2="58.41" xlink:href="#Áåçûìÿííûé_ãðàäèåíò_5"/><linearGradient id="Áåçûìÿííûé_ãðàäèåíò_6-2" x1="2800.54" y1="83.68" x2="2817.46" y2="83.68" xlink:href="#Áåçûìÿííûé_ãðàäèåíò_6"/><linearGradient id="Áåçûìÿííûé_ãðàäèåíò_6-3" x1="30.33" y1="80.19" x2="169.52" y2="80.19" gradientTransform="matrix(-1, 0, 0, 1, 393.16, 0)" xlink:href="#Áåçûìÿííûé_ãðàäèåíò_6"/><linearGradient id="Áåçûìÿííûé_ãðàäèåíò_5-4" x1="77.1" y1="75.55" x2="216.36" y2="75.55" gradientTransform="matrix(-1, 0, 0, 1, 393.16, 0)" xlink:href="#Áåçûìÿííûé_ãðàäèåíò_5"/><linearGradient id="Áåçûìÿííûé_ãðàäèåíò_5-5" x1="68.06" y1="64.83" x2="103.71" y2="64.83" gradientTransform="matrix(-1, 0, 0, 1, 393.16, 0)" xlink:href="#Áåçûìÿííûé_ãðàäèåíò_5"/><linearGradient id="Áåçûìÿííûé_ãðàäèåíò_5-6" x1="70.85" y1="58.41" x2="169.4" y2="58.41" gradientTransform="matrix(-1, 0, 0, 1, 393.16, 0)" xlink:href="#Áåçûìÿííûé_ãðàäèåíò_5"/><linearGradient id="Áåçûìÿííûé_ãðàäèåíò_6-4" x1="70.85" y1="83.68" x2="87.77" y2="83.68" gradientTransform="matrix(-1, 0, 0, 1, 393.16, 0)" xlink:href="#Áåçûìÿííûé_ãðàäèåíò_6"/><linearGradient id="Áåçûìÿííûé_ãðàäèåíò_5-7" x1="229.28" y1="152.57" x2="229.28" y2="98.29" gradientTransform="matrix(1, 0, 0, 1, 0, 0)" xlink:href="#Áåçûìÿííûé_ãðàäèåíò_5"/><linearGradient id="Áåçûìÿííûé_ãðàäèåíò_5-8" x1="229.28" y1="107.56" x2="229.28" y2="53.28" gradientTransform="matrix(1, 0, 0, 1, 0, 0)" xlink:href="#Áåçûìÿííûé_ãðàäèåíò_5"/><linearGradient id="Áåçûìÿííûé_ãðàäèåíò_5-9" x1="2486.42" y1="134.91" x2="2586.71" y2="134.91" gradientTransform="translate(-2278.69)" xlink:href="#Áåçûìÿííûé_ãðàäèåíò_5"/><linearGradient id="Áåçûìÿííûé_ãðàäèåíò_6-5" x1="2486.42" y1="160.63" x2="2503.64" y2="160.63" gradientTransform="translate(-2278.69)" xlink:href="#Áåçûìÿííûé_ãðàäèåíò_6"/><linearGradient id="Áåçûìÿííûé_ãðàäèåíò_6-6" x1="2499.86" y1="189.54" x2="2641.5" y2="189.54" gradientTransform="translate(-2278.69)" xlink:href="#Áåçûìÿííûé_ãðàäèåíò_6"/><linearGradient id="Áåçûìÿííûé_ãðàäèåíò_5-10" x1="2547.45" y1="184.82" x2="2689.17" y2="184.82" gradientTransform="translate(-2278.69)" xlink:href="#Áåçûìÿííûé_ãðàäèåíò_5"/><linearGradient id="Áåçûìÿííûé_ãðàäèåíò_5-11" x1="2571.45" y1="192.87" x2="2607.73" y2="192.87" gradientTransform="translate(-2278.69)" xlink:href="#Áåçûìÿííûé_ãðàäèåíò_5"/><clipPath id="clip-path"><polygon id="SVGID" class="cls-1" points="295.92 80.58 212.24 128.9 222.61 190.08 306.24 141.8 295.92 80.58"/></clipPath><linearGradient id="Áåçûìÿííûé_ãðàäèåíò_5-12" x1="2493.31" y1="153.41" x2="2635.03" y2="153.41" gradientTransform="translate(-2278.69)" xlink:href="#Áåçûìÿííûé_ãðàäèåíò_5"/><linearGradient id="Áåçûìÿííûé_ãðàäèåíò_5-13" x1="2483.98" y1="143" x2="2520.26" y2="143" gradientTransform="translate(-2278.69)" xlink:href="#Áåçûìÿííûé_ãðàäèåíò_5"/><linearGradient id="Áåçûìÿííûé_ãðàäèåíò_7" x1="20.87" y1="198.37" x2="154.39" y2="198.37" gradientUnits="userSpaceOnUse"><stop offset="0" stop-color="#c4c5d7"/><stop offset="0.14" stop-color="#c6c1d2"/><stop offset="0.29" stop-color="#cab5c5"/><stop offset="0.45" stop-color="#d2a1af"/><stop offset="0.62" stop-color="#dc8690"/><stop offset="0.79" stop-color="#ea6268"/><stop offset="0.96" stop-color="#fb3738"/><stop offset="1" stop-color="#ff2c2c"/></linearGradient><linearGradient id="Áåçûìÿííûé_ãðàäèåíò_5-14" x1="-243.26" y1="134.91" x2="-142.97" y2="134.91" gradientTransform="matrix(-1, 0, 0, 1, -71.88, 0)" xlink:href="#Áåçûìÿííûé_ãðàäèåíò_5"/><linearGradient id="Áåçûìÿííûé_ãðàäèåíò_6-7" x1="-243.26" y1="160.63" x2="-226.04" y2="160.63" gradientTransform="matrix(-1, 0, 0, 1, -71.88, 0)" xlink:href="#Áåçûìÿííûé_ãðàäèåíò_6"/><linearGradient id="Áåçûìÿííûé_ãðàäèåíò_6-8" x1="-229.83" y1="189.54" x2="-88.18" y2="189.54" gradientTransform="matrix(-1, 0, 0, 1, -71.88, 0)" xlink:href="#Áåçûìÿííûé_ãðàäèåíò_6"/><linearGradient id="Áåçûìÿííûé_ãðàäèåíò_5-15" x1="-182.23" y1="184.82" x2="-40.51" y2="184.82" gradientTransform="matrix(-1, 0, 0, 1, -71.88, 0)" xlink:href="#Áåçûìÿííûé_ãðàäèåíò_5"/><linearGradient id="Áåçûìÿííûé_ãðàäèåíò_5-16" x1="-158.23" y1="192.87" x2="-121.95" y2="192.87" gradientTransform="matrix(-1, 0, 0, 1, -71.88, 0)" xlink:href="#Áåçûìÿííûé_ãðàäèåíò_5"/><clipPath id="clip-path-2"><polygon id="SVGID-2" data-name="SVGID" class="cls-1" points="83.2 80.58 166.88 128.9 156.5 190.08 72.88 141.8 83.2 80.58"/></clipPath><linearGradient id="Áåçûìÿííûé_ãðàäèåíò_5-17" x1="-236.38" y1="153.41" x2="-94.66" y2="153.41" gradientTransform="matrix(-1, 0, 0, 1, -71.88, 0)" xlink:href="#Áåçûìÿííûé_ãðàäèåíò_5"/><linearGradient id="Áåçûìÿííûé_ãðàäèåíò_5-18" x1="-245.71" y1="143" x2="-209.43" y2="143" gradientTransform="matrix(-1, 0, 0, 1, -71.88, 0)" xlink:href="#Áåçûìÿííûé_ãðàäèåíò_5"/></defs><title>Asset 3</title><g class="cls-2"><g id="Layer_2" data-name="Layer 2"><g id="Ñëîé_1" data-name="Ñëîé 1"><g class="cls-3"><polygon class="cls-4" points="189.48 244.51 0 135.11 189.47 25.72 378.95 135.11 189.48 244.51"/></g><g class="cls-3"><polygon class="cls-4" points="189.48 227.54 29.39 135.11 189.47 42.68 349.57 135.11 189.48 227.54"/></g><g class="cls-5"><polygon class="cls-6" points="189.48 207.83 63.53 135.11 189.48 62.4 315.43 135.11 189.48 207.83"/></g><g class="cls-7"><path class="cls-8" d="M69.25,127.35a7.63,7.63,0,0,1-3.85-1l-44.35-25.6a2.22,2.22,0,0,1-1.12-1.93,2.2,2.2,0,0,1,1.12-1.93L101.3,50.53a.43.43,0,0,1,.44,0l.37.21,47.61,27.49a2.22,2.22,0,0,1,0,3.86L73.1,126.32A7.63,7.63,0,0,1,69.25,127.35Zm32.27-75.92-80,46.2a1.32,1.32,0,0,0-.67,1.16,1.34,1.34,0,0,0,.67,1.16l44.35,25.6a7,7,0,0,0,6.82,0l76.62-44.23a1.35,1.35,0,0,0,0-2.32Z"/></g><path class="cls-9" d="M155.47,65.79l-4.65,2.43L104.13,41.27a3.38,3.38,0,0,0-3,.12L20.57,87.88c-.77-.43-4.28-2.12-4.28-2.12L18,90.2h0a1,1,0,0,0,.48.53l49.16,28.39a3.4,3.4,0,0,0,3-.13l82.39-47.57a1.44,1.44,0,0,0,.69-.73h0Z"/><path class="cls-10" d="M154.75,66.55,70.31,115.31a3.48,3.48,0,0,1-3.12.13L16.8,86.34c-.8-.46-.7-1.27.22-1.8l84.44-48.75a3.47,3.47,0,0,1,3.13-.13L155,64.75C155.78,65.21,155.68,66,154.75,66.55Z"/><path class="cls-11" d="M154.75,66.07,70.31,114.82a3.48,3.48,0,0,1-3.12.13L16.8,85.86a1,1,0,0,1-.49-.55.84.84,0,0,0,.49,1l50.39,29.1a3.48,3.48,0,0,0,3.12-.13l84.44-48.76c.63-.35.86-.84.72-1.25A1.53,1.53,0,0,1,154.75,66.07Z"/><path class="cls-12" d="M44.84,104.76v-.93c0-.08,0-.12.12-.09l3.27,1.89a.31.31,0,0,1,.12.23v.92c0,.09-.06.13-.12.09L45,105A.28.28,0,0,1,44.84,104.76Z"/><path class="cls-12" d="M49.73,107.58v-.93c0-.08.05-.12.11-.09l3.27,1.89a.28.28,0,0,1,.12.23v.92c0,.09,0,.13-.12.09l-3.27-1.88A.3.3,0,0,1,49.73,107.58Z"/><path class="cls-13" d="M45.21,93l70.17-40.52a1.51,1.51,0,0,1,1.51,0l25,14.46a.54.54,0,0,1,0,.93l-70.14,40.5a1.51,1.51,0,0,1-1.51,0l-25-14.44A.54.54,0,0,1,45.21,93Z"/><path class="cls-14" d="M45.21,93.89l.25.15,69.92-40.37a1.51,1.51,0,0,1,1.51,0L141.63,68l.25-.15a.54.54,0,0,0,0-.93l-25-14.46a1.51,1.51,0,0,0-1.51,0L45.21,93A.54.54,0,0,0,45.21,93.89Z"/><polygon class="cls-15" points="118.78 56.11 54.14 93.42 50.94 92.14 116.07 54.54 118.78 56.11"/><polygon class="cls-15" points="125.42 59.94 68.25 92.95 65.54 91.39 122.71 58.38 125.42 59.94"/><polygon class="cls-15" points="129.75 62.44 62.44 101.3 59.73 99.74 127.04 60.88 129.75 62.44"/><polygon class="cls-15" points="134.08 64.94 66.76 103.8 64.05 102.24 131.37 63.37 134.08 64.94"/><polygon class="cls-15" points="138.4 67.44 71.09 106.3 68.38 104.74 135.69 65.87 138.4 67.44"/><polygon class="cls-15" points="54.14 93.42 51.43 94.99 48.72 93.42 51.43 91.86 54.14 93.42"/><polygon class="cls-15" points="71.54 91.05 58.07 98.83 55.36 97.26 68.92 89.43 71.54 91.05"/><path class="cls-16" d="M70.19,74.8,89.11,63.88a.82.82,0,0,0,0-1.55L76.17,54.86a3,3,0,0,0-2.68,0L54.57,65.79c-.74.42-.74,1.11,0,1.54L67.51,74.8A3,3,0,0,0,70.19,74.8Z"/><path class="cls-14" d="M54.57,66.42,73.49,55.49a3,3,0,0,1,2.68,0L89.11,63a1.22,1.22,0,0,1,.47.46c.19-.37,0-.79-.47-1.09L76.17,54.86a3,3,0,0,0-2.68,0L54.57,65.79c-.51.29-.66.71-.46,1.08A1.24,1.24,0,0,1,54.57,66.42Z"/><path class="cls-17" d="M155.34,64.54,144.66,1.21l.86-.36L144.23.11h0a1,1,0,0,0-1,.07L57.93,49.44a2.41,2.41,0,0,0-1.11,2.16l10.76,63.84a.82.82,0,0,0,.45.65h0l1.26.73.22-1.18-.07,0,84.79-49A2.41,2.41,0,0,0,155.34,64.54Z"/><path class="cls-18" d="M58.41,51.17,57,50.55a2,2,0,0,0-.18,1.05l10.76,63.84a.82.82,0,0,0,.45.65h0l1.26.73.22-1.18-.07,0,4.29-2.48Z"/><path class="cls-19" d="M155.57,67.47,70.26,116.72c-.66.39-1.22.17-1.34-.52L58.16,52.37a2.43,2.43,0,0,1,1.11-2.17L144.58,1c.66-.38,1.22-.16,1.34.52L156.68,65.3A2.41,2.41,0,0,1,155.57,67.47Z"/><g class="cls-7"><path class="cls-8" d="M309.87,127.35a7.6,7.6,0,0,1-3.85-1L229.4,82.09a2.22,2.22,0,0,1,0-3.86l48-27.7a.43.43,0,0,1,.44,0l80.25,46.33a2.2,2.2,0,0,1,1.12,1.93,2.22,2.22,0,0,1-1.12,1.93l-44.35,25.6A7.66,7.66,0,0,1,309.87,127.35ZM277.6,51.43l-.15.08L229.84,79a1.34,1.34,0,0,0,0,2.32l76.62,44.23h0a6.94,6.94,0,0,0,6.81,0L357.63,100a1.35,1.35,0,0,0,.66-1.16,1.33,1.33,0,0,0-.66-1.16Z"/></g><path class="cls-20" d="M223.65,65.79l4.65,2.43L275,41.27a3.4,3.4,0,0,1,3,.12l80.52,46.49c.77-.43,4.28-2.12,4.28-2.12l-1.7,4.44h0a1,1,0,0,1-.48.53l-49.16,28.39a3.4,3.4,0,0,1-3.05-.13L226,71.41a1.51,1.51,0,0,1-.7-.73h0Z"/><path class="cls-21" d="M224.36,66.55l84.45,48.76a3.48,3.48,0,0,0,3.12.13l50.39-29.1c.8-.46.7-1.27-.22-1.8L277.65,35.79a3.45,3.45,0,0,0-3.12-.13L224.14,64.75C223.34,65.21,223.44,66,224.36,66.55Z"/><path class="cls-11" d="M224.36,66.07l84.45,48.75a3.48,3.48,0,0,0,3.12.13l50.39-29.09a1,1,0,0,0,.49-.55.85.85,0,0,1-.49,1l-50.39,29.1a3.48,3.48,0,0,1-3.12-.13L224.36,66.55c-.62-.35-.86-.84-.71-1.25A1.55,1.55,0,0,0,224.36,66.07Z"/><path class="cls-12" d="M334.28,104.76v-.93c0-.08-.06-.12-.12-.09l-3.27,1.89a.31.31,0,0,0-.12.23v.92c0,.09.06.13.12.09l3.27-1.88A.31.31,0,0,0,334.28,104.76Z"/><path class="cls-12" d="M329.39,107.58v-.93c0-.08-.05-.12-.12-.09L326,108.45a.28.28,0,0,0-.12.23v.92c0,.09.05.13.12.09l3.26-1.88A.28.28,0,0,0,329.39,107.58Z"/><path class="cls-13" d="M333.91,93,263.74,52.44a1.51,1.51,0,0,0-1.51,0l-25,14.46a.54.54,0,0,0,0,.93l70.14,40.5a1.51,1.51,0,0,0,1.51,0l25-14.44A.54.54,0,0,0,333.91,93Z"/><path class="cls-14" d="M333.91,93.89l-.25.15L263.74,53.67a1.51,1.51,0,0,0-1.51,0L237.49,68l-.25-.15a.54.54,0,0,1,0-.93l25-14.46a1.51,1.51,0,0,1,1.51,0L333.91,93A.54.54,0,0,1,333.91,93.89Z"/><polygon class="cls-15" points="260.34 56.11 324.98 93.42 328.18 92.14 263.05 54.54 260.34 56.11"/><polygon class="cls-15" points="253.7 59.94 310.87 92.95 313.58 91.39 256.41 58.38 253.7 59.94"/><polygon class="cls-15" points="249.37 62.44 316.68 101.3 319.39 99.74 252.08 60.88 249.37 62.44"/><polygon class="cls-15" points="245.04 64.94 312.36 103.8 315.07 102.24 247.75 63.37 245.04 64.94"/><polygon class="cls-15" points="240.71 67.44 308.03 106.3 310.74 104.74 243.42 65.87 240.71 67.44"/><polygon class="cls-15" points="324.98 93.42 327.69 94.99 330.4 93.42 327.69 91.86 324.98 93.42"/><polygon class="cls-15" points="307.58 91.05 321.04 98.83 323.75 97.26 310.19 89.43 307.58 91.05"/><path class="cls-22" d="M308.93,74.8,290,63.88a.82.82,0,0,1,0-1.55L303,54.86a2.92,2.92,0,0,1,2.67,0l18.92,10.93c.74.42.74,1.11,0,1.54L311.61,74.8A3,3,0,0,1,308.93,74.8Z"/><path class="cls-14" d="M324.54,66.42,305.62,55.49a3,3,0,0,0-2.67,0L290,63a1.22,1.22,0,0,0-.47.46c-.19-.37,0-.79.47-1.09L303,54.86a2.92,2.92,0,0,1,2.67,0l18.92,10.93c.52.29.66.71.47,1.08A1.2,1.2,0,0,0,324.54,66.42Z"/><path class="cls-23" d="M223.78,64.54,234.45,1.21,233.6.85l1.29-.74h0a1,1,0,0,1,1,.07l85.31,49.26a2.38,2.38,0,0,1,1.1,2.16l-10.76,63.84a.81.81,0,0,1-.44.65h0l-1.27.73-.21-1.18.07,0-84.79-49A2.41,2.41,0,0,1,223.78,64.54Z"/><path class="cls-24" d="M320.71,51.17l1.4-.62a1.84,1.84,0,0,1,.18,1.05l-10.76,63.84a.81.81,0,0,1-.44.65h0l-1.27.73-.21-1.18.07,0-4.29-2.48Z"/><path class="cls-19" d="M223.55,67.47l85.31,49.25c.66.39,1.22.17,1.34-.52L321,52.37a2.43,2.43,0,0,0-1.11-2.17L234.54,1c-.66-.38-1.22-.16-1.34.52L222.44,65.3A2.41,2.41,0,0,0,223.55,67.47Z"/><polygon class="cls-25" points="189.56 142.63 110.13 96.77 189.56 50.91 268.99 96.77 189.56 142.63"/><polygon class="cls-19" points="189.56 130.1 131.82 96.77 189.56 63.43 247.3 96.77 189.56 130.1"/><polygon class="cls-11" points="189.56 65.69 245.35 97.9 247.3 96.77 189.56 63.43 131.82 96.77 133.77 97.89 189.56 65.69"/><polygon class="cls-26" points="268.99 96.77 268.99 122.76 189.56 168.62 189.56 142.63 268.99 96.77"/><polygon class="cls-15" points="110.13 96.77 110.13 122.76 189.56 168.62 189.56 142.63 110.13 96.77"/><g class="cls-27"><polygon class="cls-19" points="115.51 108.44 115.51 116.63 184.18 156.28 184.18 148.09 115.51 108.44"/></g><polygon class="cls-11" points="189.56 141.14 111.42 96.02 110.13 96.77 189.56 142.63 268.99 96.77 267.7 96.02 189.56 141.14"/><polygon class="cls-19" points="257.08 114.98 257.08 119.64 201.47 151.74 201.47 147.09 257.08 114.98"/><polygon class="cls-28" points="110.13 96.77 110.13 122.76 189.56 168.62 189.56 142.63 110.13 96.77"/><polygon class="cls-8" points="166.37 141.25 151.99 132.94 151.99 134.66 166.37 142.96 166.37 141.25"/><polygon class="cls-8" points="149.91 131.76 146.02 129.51 146.01 131.23 149.91 133.48 149.91 131.76"/><polygon class="cls-8" points="131.66 121.22 123.68 116.62 123.68 118.33 131.66 122.94 131.66 121.22"/><polygon class="cls-8" points="138.93 125.42 133.17 122.09 133.16 123.81 138.93 127.14 138.93 125.42"/><polygon class="cls-8" points="144.34 128.55 140.44 126.3 140.44 128.01 144.34 130.26 144.34 128.55"/><polygon class="cls-8" points="189.64 74.88 187.12 73.42 189.64 71.96 192.16 73.42 189.64 74.88"/><polygon class="cls-29" points="194.69 77.79 192.16 76.33 194.69 74.88 197.21 76.33 194.69 77.79"/><polygon class="cls-30" points="199.73 80.7 197.21 79.24 199.73 77.79 202.25 79.24 199.73 80.7"/><polygon class="cls-8" points="204.78 83.61 202.25 82.16 204.78 80.7 207.3 82.16 204.78 83.61"/><polygon class="cls-30" points="209.82 86.53 207.3 85.07 209.82 83.61 212.34 85.07 209.82 86.53"/><polygon class="cls-8" points="214.86 89.44 212.34 87.98 214.86 86.53 217.39 87.98 214.86 89.44"/><polygon class="cls-8" points="219.91 92.35 217.39 90.89 219.91 89.44 222.43 90.89 219.91 92.35"/><polygon class="cls-8" points="224.95 95.26 222.43 93.81 224.95 92.35 227.48 93.81 224.95 95.26"/><polygon class="cls-29" points="230 98.17 227.48 96.72 230 95.26 232.52 96.72 230 98.17"/><polygon class="cls-8" points="184.58 77.8 182.05 76.34 184.58 74.89 187.1 76.34 184.58 77.8"/><polygon class="cls-8" points="189.62 80.71 187.1 79.26 189.62 77.8 192.14 79.26 189.62 80.71"/><polygon class="cls-8" points="194.66 83.62 192.14 82.17 194.66 80.71 197.19 82.17 194.66 83.62"/><polygon class="cls-8" points="199.71 86.54 197.19 85.08 199.71 83.62 202.23 85.08 199.71 86.54"/><polygon class="cls-8" points="204.75 89.45 202.23 87.99 204.75 86.54 207.28 87.99 204.75 89.45"/><polygon class="cls-8" points="209.8 92.36 207.28 90.91 209.8 89.45 212.32 90.91 209.8 92.36"/><polygon class="cls-8" points="214.84 95.28 212.32 93.82 214.84 92.36 217.37 93.82 214.84 95.28"/><polygon class="cls-8" points="219.89 98.19 217.37 96.73 219.89 95.28 222.41 96.73 219.89 98.19"/><polygon class="cls-8" points="224.93 101.1 222.41 99.64 224.93 98.19 227.46 99.64 224.93 101.1"/><polygon class="cls-8" points="179.51 80.72 176.99 79.27 179.51 77.81 182.03 79.27 179.51 80.72"/><polygon class="cls-8" points="184.56 83.64 182.03 82.18 184.56 80.72 187.08 82.18 184.56 83.64"/><polygon class="cls-8" points="189.6 86.55 187.08 85.09 189.6 83.64 192.12 85.09 189.6 86.55"/><polygon class="cls-29" points="194.65 89.46 192.12 88 194.65 86.55 197.17 88 194.65 89.46"/><polygon class="cls-30" points="199.69 92.37 197.17 90.92 199.69 89.46 202.21 90.92 199.69 92.37"/><polygon class="cls-30" points="204.73 95.29 202.21 93.83 204.73 92.37 207.26 93.83 204.73 95.29"/><polygon class="cls-8" points="209.78 98.2 207.26 96.74 209.78 95.29 212.3 96.74 209.78 98.2"/><polygon class="cls-8" points="214.82 101.11 212.3 99.66 214.82 98.2 217.34 99.66 214.82 101.11"/><polygon class="cls-8" points="219.87 104.02 217.35 102.57 219.87 101.11 222.39 102.57 219.87 104.02"/><polygon class="cls-30" points="174.44 83.65 171.92 82.19 174.44 80.73 176.97 82.19 174.44 83.65"/><polygon class="cls-30" points="179.49 86.56 176.97 85.1 179.49 83.65 182.01 85.1 179.49 86.56"/><polygon class="cls-29" points="184.53 89.47 182.01 88.02 184.53 86.56 187.06 88.02 184.53 89.47"/><polygon class="cls-8" points="189.58 92.39 187.06 90.93 189.58 89.47 192.1 90.93 189.58 92.39"/><polygon class="cls-8" points="194.62 95.3 192.1 93.84 194.62 92.39 197.15 93.84 194.62 95.3"/><polygon class="cls-8" points="199.67 98.21 197.15 96.75 199.67 95.3 202.19 96.75 199.67 98.21"/><polygon class="cls-30" points="204.71 101.12 202.19 99.67 204.71 98.21 207.24 99.67 204.71 101.12"/><polygon class="cls-8" points="209.76 104.04 207.24 102.58 209.76 101.12 212.28 102.58 209.76 104.04"/><polygon class="cls-8" points="214.8 106.95 212.28 105.49 214.8 104.04 217.32 105.49 214.8 106.95"/><polygon class="cls-8" points="169.38 86.57 166.86 85.12 169.38 83.66 171.9 85.12 169.38 86.57"/><polygon class="cls-8" points="174.43 89.48 171.9 88.03 174.43 86.57 176.95 88.03 174.43 89.48"/><polygon class="cls-8" points="179.47 92.4 176.95 90.94 179.47 89.48 181.99 90.94 179.47 92.4"/><polygon class="cls-8" points="184.51 95.31 181.99 93.85 184.51 92.4 187.04 93.85 184.51 95.31"/><polygon class="cls-8" points="189.56 98.22 187.04 96.77 189.56 95.31 192.08 96.77 189.56 98.22"/><polygon class="cls-8" points="194.6 101.14 192.08 99.68 194.6 98.22 197.13 99.68 194.6 101.14"/><polygon class="cls-8" points="199.65 104.05 197.13 102.59 199.65 101.14 202.17 102.59 199.65 104.05"/><polygon class="cls-8" points="204.69 106.96 202.17 105.5 204.69 104.05 207.22 105.5 204.69 106.96"/><polygon class="cls-8" points="209.74 109.87 207.22 108.42 209.74 106.96 212.26 108.42 209.74 109.87"/><polygon class="cls-8" points="164.31 89.5 161.79 88.04 164.31 86.58 166.84 88.04 164.31 89.5"/><polygon class="cls-8" points="169.36 92.41 166.84 90.95 169.36 89.5 171.88 90.95 169.36 92.41"/><polygon class="cls-30" points="174.41 95.32 171.88 93.86 174.41 92.41 176.93 93.86 174.41 95.32"/><polygon class="cls-8" points="179.45 98.23 176.93 96.78 179.45 95.32 181.97 96.78 179.45 98.23"/><polygon class="cls-29" points="184.49 101.15 181.97 99.69 184.49 98.23 187.02 99.69 184.49 101.15"/><polygon class="cls-8" points="189.54 104.06 187.02 102.6 189.54 101.15 192.06 102.6 189.54 104.06"/><polygon class="cls-8" points="194.58 106.97 192.06 105.52 194.58 104.06 197.1 105.52 194.58 106.97"/><polygon class="cls-8" points="199.63 109.88 197.11 108.43 199.63 106.97 202.15 108.43 199.63 109.88"/><polygon class="cls-8" points="204.67 112.8 202.15 111.34 204.67 109.88 207.19 111.34 204.67 112.8"/><polygon class="cls-8" points="159.25 92.42 156.73 90.97 159.25 89.51 161.77 90.97 159.25 92.42"/><polygon class="cls-8" points="164.29 95.33 161.77 93.88 164.29 92.42 166.82 93.88 164.29 95.33"/><polygon class="cls-30" points="169.34 98.25 166.82 96.79 169.34 95.33 171.86 96.79 169.34 98.25"/><polygon class="cls-8" points="174.38 101.16 171.86 99.7 174.38 98.25 176.91 99.7 174.38 101.16"/><polygon class="cls-8" points="179.43 104.07 176.91 102.61 179.43 101.16 181.95 102.61 179.43 104.07"/><polygon class="cls-29" points="184.47 106.98 181.95 105.53 184.47 104.07 187 105.53 184.47 106.98"/><polygon class="cls-30" points="189.52 109.9 187 108.44 189.52 106.98 192.04 108.44 189.52 109.9"/><polygon class="cls-8" points="194.56 112.81 192.04 111.35 194.56 109.9 197.09 111.35 194.56 112.81"/><polygon class="cls-29" points="199.61 115.72 197.09 114.27 199.61 112.81 202.13 114.27 199.61 115.72"/><polygon class="cls-8" points="154.19 95.34 151.66 93.89 154.19 92.43 156.71 93.89 154.19 95.34"/><polygon class="cls-30" points="159.23 98.26 156.71 96.8 159.23 95.34 161.75 96.8 159.23 98.26"/><polygon class="cls-8" points="164.27 101.17 161.75 99.71 164.27 98.26 166.8 99.71 164.27 101.17"/><polygon class="cls-8" points="169.32 104.08 166.8 102.63 169.32 101.17 171.84 102.63 169.32 104.08"/><polygon class="cls-8" points="174.36 107 171.84 105.54 174.36 104.08 176.89 105.54 174.36 107"/><polygon class="cls-8" points="179.41 109.91 176.89 108.45 179.41 107 181.93 108.45 179.41 109.91"/><polygon class="cls-8" points="184.45 112.82 181.93 111.36 184.45 109.91 186.97 111.36 184.45 112.82"/><polygon class="cls-30" points="189.5 115.73 186.97 114.28 189.5 112.82 192.02 114.28 189.5 115.73"/><polygon class="cls-8" points="194.54 118.65 192.02 117.19 194.54 115.73 197.06 117.19 194.54 118.65"/><polygon class="cls-8" points="149.12 98.27 146.6 96.81 149.12 95.36 151.64 96.81 149.12 98.27"/><polygon class="cls-29" points="154.16 101.18 151.64 99.73 154.16 98.27 156.69 99.73 154.16 101.18"/><polygon class="cls-8" points="159.21 104.09 156.69 102.64 159.21 101.18 161.73 102.64 159.21 104.09"/><polygon class="cls-8" points="164.25 107.01 161.73 105.55 164.25 104.09 166.78 105.55 164.25 107.01"/><polygon class="cls-8" points="169.3 109.92 166.78 108.46 169.3 107.01 171.82 108.46 169.3 109.92"/><polygon class="cls-8" points="174.34 112.83 171.82 111.38 174.34 109.92 176.87 111.38 174.34 112.83"/><polygon class="cls-30" points="179.39 115.75 176.87 114.29 179.39 112.83 181.91 114.29 179.39 115.75"/><polygon class="cls-8" points="184.43 118.66 181.91 117.2 184.43 115.75 186.96 117.2 184.43 118.66"/><polygon class="cls-8" points="189.48 121.57 186.96 120.11 189.48 118.66 192 120.11 189.48 121.57"/><polygon class="cls-25" points="189.56 97.62 110.13 51.76 189.56 5.9 268.99 51.76 189.56 97.62"/><polygon class="cls-19" points="189.56 85.09 131.82 51.76 189.56 18.42 247.3 51.76 189.56 85.09"/><polygon class="cls-11" points="189.56 20.68 245.35 52.89 247.3 51.76 189.56 18.42 131.82 51.76 133.77 52.88 189.56 20.68"/><polygon class="cls-31" points="268.99 51.76 268.99 77.75 189.56 123.61 189.56 97.62 268.99 51.76"/><polygon class="cls-15" points="110.13 51.76 110.13 77.75 189.56 123.61 189.56 97.62 110.13 51.76"/><g class="cls-27"><polygon class="cls-19" points="115.51 63.44 115.51 71.62 184.18 111.27 184.18 103.08 115.51 63.44"/></g><polygon class="cls-11" points="189.56 96.13 111.42 51.01 110.13 51.76 189.56 97.62 268.99 51.76 267.7 51.01 189.56 96.13"/><polygon class="cls-19" points="257.08 69.97 257.08 74.63 201.47 106.73 201.47 102.08 257.08 69.97"/><polygon class="cls-28" points="110.13 51.76 110.13 77.75 189.56 123.61 189.56 97.62 110.13 51.76"/><polygon class="cls-8" points="166.37 96.24 151.99 87.93 151.99 89.65 166.37 97.95 166.37 96.24"/><polygon class="cls-8" points="149.91 86.75 146.02 84.5 146.01 86.22 149.91 88.47 149.91 86.75"/><polygon class="cls-8" points="131.66 76.21 123.68 71.61 123.68 73.32 131.66 77.93 131.66 76.21"/><polygon class="cls-8" points="138.93 80.41 133.17 77.08 133.16 78.8 138.93 82.13 138.93 80.41"/><polygon class="cls-8" points="144.34 83.54 140.44 81.29 140.44 83 144.34 85.25 144.34 83.54"/><g class="cls-7"><path class="cls-8" d="M275.07,237.53a7.9,7.9,0,0,1-3.92-1L226,210.43a2.26,2.26,0,0,1,0-3.92l81.66-47.15a.45.45,0,0,1,.45,0L357,187.56a2.26,2.26,0,0,1,0,3.91l-78,45A7.86,7.86,0,0,1,275.07,237.53Zm32.84-77.27-81.45,47a1.34,1.34,0,0,0-.68,1.18,1.35,1.35,0,0,0,.68,1.19l45.14,26.06a7.09,7.09,0,0,0,6.94,0l78-45a1.36,1.36,0,0,0,.69-1.19,1.35,1.35,0,0,0-.69-1.18Z"/></g><path class="cls-32" d="M308,141.15,297.14,76.7l.88-.37-1.32-.75h0a1,1,0,0,0-1,.07l-86.81,50.12a2.43,2.43,0,0,0-1.13,2.21l10.95,65a.82.82,0,0,0,.46.66h0l1.29.74.22-1.2-.07,0,86.29-49.82A2.46,2.46,0,0,0,308,141.15Z"/><path class="cls-33" d="M209.36,127.54l-1.43-.63a1.93,1.93,0,0,0-.18,1.08l10.95,65a.82.82,0,0,0,.46.66h0l1.29.74.22-1.2-.07,0,4.36-2.52Z"/><path class="cls-15" d="M308.24,144.13l-86.82,50.13c-.67.39-1.24.16-1.36-.53l-10.95-65a2.47,2.47,0,0,1,1.13-2.21l86.82-50.12c.67-.39,1.24-.17,1.36.53l10.95,65A2.46,2.46,0,0,1,308.24,144.13Z"/><g class="cls-27"><polygon class="cls-19" points="295.92 80.58 212.24 128.9 222.61 190.08 306.24 141.8 295.92 80.58"/></g><path class="cls-34" d="M362.81,174.89l-4.73,2.47-47.51-27.43a3.47,3.47,0,0,0-3.1.13l-81.94,47.31c-.79-.44-4.36-2.16-4.36-2.16l1.73,4.52h0a1,1,0,0,0,.48.53l50,28.89a3.44,3.44,0,0,0,3.1-.13l83.85-48.41a1.44,1.44,0,0,0,.7-.74h0Z"/><path class="cls-35" d="M362.08,175.67l-85.93,49.61a3.52,3.52,0,0,1-3.18.13l-51.28-29.6c-.82-.47-.71-1.29.23-1.84l85.93-49.61a3.51,3.51,0,0,1,3.18-.13l51.28,29.6C363.12,174.3,363,175.12,362.08,175.67Z"/><path class="cls-11" d="M362.08,175.17l-85.93,49.62a3.55,3.55,0,0,1-3.18.13l-51.28-29.61a1,1,0,0,1-.5-.55.87.87,0,0,0,.5,1.05L273,225.41a3.52,3.52,0,0,0,3.18-.13l85.93-49.61c.63-.37.88-.86.73-1.28A1.53,1.53,0,0,1,362.08,175.17Z"/><path class="cls-12" d="M250.23,214.55v-.94c0-.09.05-.13.12-.09l3.32,1.91a.3.3,0,0,1,.12.24v.94c0,.09,0,.13-.12.09l-3.32-1.92A.28.28,0,0,1,250.23,214.55Z"/><path class="cls-12" d="M255.2,217.42v-.94c0-.09.05-.13.12-.09l3.32,1.91a.3.3,0,0,1,.12.24v.94c0,.09-.05.13-.12.09l-3.32-1.92A.28.28,0,0,1,255.2,217.42Z"/><path class="cls-13" d="M235.06,193l71.41-41.23a1.54,1.54,0,0,1,1.54,0l25.43,14.71a.55.55,0,0,1,0,.95l-71.38,41.21a1.57,1.57,0,0,1-1.54,0L235.06,194A.55.55,0,0,1,235.06,193Z"/><path class="cls-14" d="M235.06,194l.25.15,71.16-41.08a1.54,1.54,0,0,1,1.54,0l25.17,14.57.26-.15a.55.55,0,0,0,0-.95L308,151.81a1.54,1.54,0,0,0-1.54,0L235.06,193A.55.55,0,0,0,235.06,194Z"/><polygon class="cls-15" points="309.93 155.53 247.9 191.34 245.14 189.75 307.17 153.94 309.93 155.53"/><polygon class="cls-15" points="316.69 159.44 258.51 193.03 255.75 191.44 313.93 157.84 316.69 159.44"/><polygon class="cls-15" points="321.09 161.98 252.59 201.53 249.83 199.94 318.33 160.39 321.09 161.98"/><polygon class="cls-15" points="325.5 164.52 256.99 204.07 254.24 202.48 322.74 162.93 325.5 164.52"/><polygon class="cls-15" points="329.9 167.06 261.4 206.62 258.64 205.02 327.14 165.47 329.9 167.06"/><polygon class="cls-15" points="244.15 193.51 241.39 195.1 238.63 193.51 241.39 191.92 244.15 193.51"/><polygon class="cls-15" points="253.88 195.7 248.15 199.01 245.39 197.41 251.12 194.11 253.88 195.7"/><path class="cls-36" d="M309.22,203l19.25-11.12c.76-.43.76-1.13,0-1.57l-13.16-7.6a3,3,0,0,0-2.73,0l-19.25,11.12a.83.83,0,0,0,0,1.57l13.16,7.6A3,3,0,0,0,309.22,203Z"/><path class="cls-14" d="M293.33,194.48l19.25-11.12a3,3,0,0,1,2.73,0L328.47,191a1.13,1.13,0,0,1,.48.46c.2-.38,0-.81-.48-1.11l-13.16-7.6a3,3,0,0,0-2.73,0l-19.25,11.12c-.52.3-.68.72-.48,1.1A1.19,1.19,0,0,1,293.33,194.48Z"/><g class="cls-37"><g class="cls-38"><path class="cls-39" d="M307.94,144.26,222,193.87a3.55,3.55,0,0,1-3.18.13l-51.28-29.6c-.81-.48-.71-1.3.23-1.84L253.71,113a3.5,3.5,0,0,1,3.17-.14l51.28,29.61C309,142.89,308.88,143.71,307.94,144.26Z"/><path class="cls-40" d="M221.74,153.15,241,142a.83.83,0,0,0,0-1.57l-13.17-7.6a3,3,0,0,0-2.72,0L205.85,144a.83.83,0,0,0,0,1.57l13.17,7.6A3,3,0,0,0,221.74,153.15Z"/><path class="cls-14" d="M205.85,144.62l19.26-11.12a3,3,0,0,1,2.72,0L241,141.1a1.24,1.24,0,0,1,.47.47c.2-.38.05-.81-.47-1.11l-13.17-7.6a3,3,0,0,0-2.72,0L205.85,144c-.52.3-.67.72-.47,1.1A1.16,1.16,0,0,1,205.85,144.62Z"/><path class="cls-13" d="M197.39,170.52l71.41-41.23a1.54,1.54,0,0,1,1.54,0L295.77,144a.55.55,0,0,1,0,1l-71.38,41.21a1.57,1.57,0,0,1-1.54,0l-25.46-14.7A.55.55,0,0,1,197.39,170.52Z"/><path class="cls-14" d="M197.39,171.47l.25.15,71.16-41.08a1.52,1.52,0,0,1,1.54,0l25.17,14.56.26-.14a.55.55,0,0,0,0-1L270.34,129.3a1.54,1.54,0,0,0-1.54,0l-71.41,41.23A.55.55,0,0,0,197.39,171.47Z"/><polygon class="cls-15" points="289.11 143 226.9 178.92 229.37 180.35 291.58 144.43 289.11 143"/><polygon class="cls-15" points="282.56 139.22 223.43 173.36 225.89 174.78 285.02 140.64 282.56 139.22"/><polygon class="cls-15" points="219.01 175.91 213.49 179.1 215.95 180.52 221.47 177.33 219.01 175.91"/><polygon class="cls-15" points="223.89 180.66 220.04 182.88 222.51 184.31 226.35 182.09 223.89 180.66"/><polygon class="cls-15" points="278.45 136.85 209.38 176.73 211.84 178.15 280.92 138.27 278.45 136.85"/><polygon class="cls-15" points="274.34 134.48 205.27 174.35 207.74 175.78 276.81 135.9 274.34 134.48"/><polygon class="cls-15" points="270.24 132.11 201.17 171.98 203.63 173.41 272.7 133.53 270.24 132.11"/></g></g><g class="cls-41"><path class="cls-42" d="M104.05,237.69a8.07,8.07,0,0,1-4-1.06h0l-78-45a2.42,2.42,0,0,1,0-4.19l49.13-28.37.3.18,81.67,47.15a2.42,2.42,0,0,1,0,4.19l-45.13,26.05A8,8,0,0,1,104.05,237.69Zm-3.39-2.11a6.88,6.88,0,0,0,6.78,0l45.14-26.06a1.22,1.22,0,0,0,0-2.1l-81.37-47-.08,0-48.45,28a1.22,1.22,0,0,0,0,2.1Z"/></g><path class="cls-43" d="M71.11,141.15,82,76.7l-.88-.37,1.31-.75h0a.94.94,0,0,1,1,.07l86.82,50.12a2.47,2.47,0,0,1,1.13,2.21l-11,65a.84.84,0,0,1-.46.66h0l-1.28.74-.22-1.2.07,0L72.24,143.35A2.46,2.46,0,0,1,71.11,141.15Z"/><path class="cls-44" d="M169.76,127.54l1.43-.63a2,2,0,0,1,.18,1.08l-11,65a.84.84,0,0,1-.46.66h0l-1.28.74-.22-1.2.07,0-4.36-2.52Z"/><path class="cls-15" d="M70.88,144.13l86.82,50.13c.67.39,1.24.16,1.36-.53l10.95-65a2.47,2.47,0,0,0-1.13-2.21L82.06,76.44c-.67-.39-1.24-.17-1.36.53l-11,65A2.44,2.44,0,0,0,70.88,144.13Z"/><g class="cls-27"><polygon class="cls-19" points="83.2 80.58 166.88 128.9 156.5 190.08 72.88 141.8 83.2 80.58"/></g><path class="cls-45" d="M16.3,174.89,21,177.36l47.51-27.43a3.47,3.47,0,0,1,3.1.13l81.94,47.31c.79-.44,4.36-2.16,4.36-2.16l-1.73,4.52h0a1,1,0,0,1-.49.53l-50,28.89a3.44,3.44,0,0,1-3.1-.13L18.74,180.61a1.51,1.51,0,0,1-.71-.74h0Z"/><path class="cls-46" d="M17,175.67,103,225.28a3.51,3.51,0,0,0,3.18.13l51.28-29.6c.81-.47.71-1.29-.23-1.84L71.27,144.36a3.52,3.52,0,0,0-3.18-.13l-51.28,29.6C16,174.3,16.1,175.12,17,175.67Z"/><path class="cls-11" d="M17,175.17,103,224.79a3.55,3.55,0,0,0,3.18.13l51.28-29.61a1,1,0,0,0,.5-.55.87.87,0,0,1-.5,1.05l-51.28,29.6a3.51,3.51,0,0,1-3.18-.13L17,175.67c-.64-.37-.88-.86-.73-1.28A1.49,1.49,0,0,0,17,175.17Z"/><path class="cls-12" d="M128.89,214.55v-.94c0-.09,0-.13-.12-.09l-3.32,1.91a.3.3,0,0,0-.12.24v.94c0,.09,0,.13.12.09l3.32-1.92A.28.28,0,0,0,128.89,214.55Z"/><path class="cls-12" d="M123.92,217.42v-.94c0-.09,0-.13-.12-.09l-3.32,1.91a.31.31,0,0,0-.13.24v.94c0,.09.06.13.13.09l3.32-1.92A.28.28,0,0,0,123.92,217.42Z"/><path class="cls-13" d="M144.06,193,72.65,151.8a1.54,1.54,0,0,0-1.54,0L45.68,166.52a.55.55,0,0,0,0,.95l71.38,41.21a1.57,1.57,0,0,0,1.54,0L144.06,194A.55.55,0,0,0,144.06,193Z"/><path class="cls-14" d="M144.06,194l-.26.15L72.65,153.05a1.54,1.54,0,0,0-1.54,0L45.94,167.62l-.26-.15a.55.55,0,0,1,0-.95l25.43-14.71a1.54,1.54,0,0,1,1.54,0L144.06,193A.55.55,0,0,1,144.06,194Z"/><polygon class="cls-15" points="75.16 158.98 135.61 193.88 138.22 192.2 77.93 157.4 75.16 158.98"/><polygon class="cls-15" points="71.24 164.52 126.12 196.21 128 194.11 74 162.93 71.24 164.52"/><polygon class="cls-15" points="58.02 161.98 126.53 201.53 129.29 199.94 60.78 160.39 58.02 161.98"/><polygon class="cls-15" points="53.62 164.52 122.13 204.07 124.88 202.48 56.38 162.93 53.62 164.52"/><polygon class="cls-15" points="49.22 167.06 117.72 206.62 120.48 205.02 51.98 165.47 49.22 167.06"/><polygon class="cls-15" points="134.97 193.51 137.73 195.1 140.49 193.51 137.73 191.92 134.97 193.51"/><polygon class="cls-15" points="125.24 195.7 130.97 199.01 133.72 197.41 128 194.11 125.24 195.7"/><path class="cls-47" d="M69.9,203,50.64,191.89a.83.83,0,0,1,0-1.57l13.17-7.6a3,3,0,0,1,2.73,0l19.25,11.12a.83.83,0,0,1,0,1.57L72.62,203A3,3,0,0,1,69.9,203Z"/><path class="cls-14" d="M85.79,194.48,66.54,183.36a3,3,0,0,0-2.73,0L50.64,191a1.16,1.16,0,0,0-.47.46c-.2-.38-.05-.81.47-1.11l13.17-7.6a3,3,0,0,1,2.73,0l19.25,11.12c.52.3.67.72.47,1.1A1.15,1.15,0,0,0,85.79,194.48Z"/><g class="cls-37"><g class="cls-48"><path class="cls-49" d="M71.18,144.26l85.94,49.61a3.55,3.55,0,0,0,3.18.13l51.28-29.6c.81-.48.71-1.3-.23-1.84L125.41,113a3.52,3.52,0,0,0-3.18-.14L71,142.42C70.14,142.89,70.24,143.71,71.18,144.26Z"/><path class="cls-50" d="M157.37,153.15,138.12,142a.83.83,0,0,1,0-1.57l13.16-7.6a3,3,0,0,1,2.73,0L173.27,144a.83.83,0,0,1,0,1.57l-13.17,7.6A3,3,0,0,1,157.37,153.15Z"/><path class="cls-14" d="M173.27,144.62,154,133.5a3,3,0,0,0-2.73,0l-13.16,7.6a1.27,1.27,0,0,0-.48.47c-.19-.38,0-.81.48-1.11l13.16-7.6a3,3,0,0,1,2.73,0L173.27,144c.52.3.67.72.47,1.1A1.16,1.16,0,0,0,173.27,144.62Z"/><path class="cls-13" d="M181.73,170.52l-71.41-41.23a1.54,1.54,0,0,0-1.54,0L83.35,144a.55.55,0,0,0,0,1l71.38,41.21a1.57,1.57,0,0,0,1.54,0l25.46-14.7A.55.55,0,0,0,181.73,170.52Z"/><path class="cls-14" d="M181.73,171.47l-.26.15-71.15-41.08a1.52,1.52,0,0,0-1.54,0L83.61,145.1l-.26-.14a.55.55,0,0,1,0-1l25.43-14.71a1.54,1.54,0,0,1,1.54,0l71.41,41.23A.55.55,0,0,1,181.73,171.47Z"/><polygon class="cls-15" points="90 143 152.22 178.92 149.75 180.35 87.54 144.43 90 143"/><polygon class="cls-15" points="96.56 139.22 155.69 173.36 153.23 174.78 94.09 140.64 96.56 139.22"/><polygon class="cls-15" points="160.11 175.91 165.63 179.1 163.17 180.52 157.64 177.33 160.11 175.91"/><polygon class="cls-15" points="155.23 180.66 159.07 182.88 156.61 184.31 152.76 182.09 155.23 180.66"/><polygon class="cls-15" points="100.67 136.85 169.74 176.73 167.27 178.15 98.2 138.27 100.67 136.85"/><polygon class="cls-15" points="104.77 134.48 173.84 174.35 171.38 175.78 102.31 135.9 104.77 134.48"/><polygon class="cls-15" points="108.88 132.11 177.95 171.98 175.49 173.41 106.42 133.53 108.88 132.11"/></g></g><polygon class="cls-15" points="69.19 155.53 71.95 157.12 74.71 155.53 71.95 153.94 69.19 155.53"/><polygon class="cls-15" points="62.43 159.44 68.15 162.74 70.91 161.15 65.19 157.84 62.43 159.44"/></g></g></g></svg>