<svg xmlns="http://www.w3.org/2000/svg" xmlns:xlink="http://www.w3.org/1999/xlink" width="48" height="48" viewBox="0 0 48 48"><defs><style>.a,.f{fill:#fff;}.a{stroke:#707070;}.b{clip-path:url(#a);}.c{fill:#46b29d;}.d{fill:#28685c;}.e{fill:#fdd7ad;}</style><clipPath id="a"><rect class="a" width="48" height="48" transform="translate(352 2251)"/></clipPath></defs><g class="b" transform="translate(-352 -2251)"><g transform="translate(352 2251)"><path class="c" d="M24.586,4.068,1.01,27.838a2.058,2.058,0,0,0,0,2.909L17.66,47.4a2.058,2.058,0,0,0,2.909,0L43.525,23.821V4.068Zm10.8,11.39A3.254,3.254,0,1,1,38.644,12.2,3.254,3.254,0,0,1,35.39,15.457Z"/><path class="d" d="M35.39,5.695A6.508,6.508,0,1,0,41.9,12.2,6.509,6.509,0,0,0,35.39,5.695Zm0,9.763A3.254,3.254,0,1,1,38.644,12.2,3.254,3.254,0,0,1,35.39,15.457Z"/><path class="e" d="M35.39,13.017a.814.814,0,0,1-.575-1.389L46.2.238a.813.813,0,1,1,1.15,1.15l-11.39,11.39A.811.811,0,0,1,35.39,13.017Z"/><path class="f" d="M18.346,36.121A6.063,6.063,0,0,1,14.06,25.772a.813.813,0,0,1,1.15,1.15,4.436,4.436,0,0,0,3.508,7.556,2.408,2.408,0,0,0,1.678-.9,2.655,2.655,0,0,0,.569-1.991l-1.079-8.628a4.289,4.289,0,0,1,.919-3.218,4.019,4.019,0,0,1,2.807-1.5,6.062,6.062,0,0,1,4.793,10.327.813.813,0,0,1-1.15-1.15,4.436,4.436,0,0,0-3.508-7.556,2.408,2.408,0,0,0-1.678.9,2.654,2.654,0,0,0-.569,1.991l1.079,8.628A4.291,4.291,0,0,1,21.66,34.6a4.017,4.017,0,0,1-2.807,1.5C18.684,36.114,18.515,36.121,18.346,36.121Z"/><path class="f" d="M13.45,35.77a.814.814,0,0,1-.575-1.389L28.185,19.072a.813.813,0,0,1,1.15,1.15L14.026,35.532A.813.813,0,0,1,13.45,35.77Z"/></g></g></svg>