<svg xmlns="http://www.w3.org/2000/svg" xmlns:xlink="http://www.w3.org/1999/xlink" width="705.795" height="680.833" viewBox="0 0 705.795 680.833">
  <defs>
    <linearGradient id="linear-gradient" y1="0.5" x2="1" y2="0.5" gradientUnits="objectBoundingBox">
      <stop offset="0" stop-color="#dee2f3"/>
      <stop offset="0.118" stop-color="#ddb9c9"/>
      <stop offset="0.281" stop-color="#dd8795"/>
      <stop offset="0.443" stop-color="#dd5d6b"/>
      <stop offset="0.598" stop-color="#dd3d4a"/>
      <stop offset="0.746" stop-color="#dd2532"/>
      <stop offset="0.884" stop-color="#dd1723"/>
      <stop offset="1" stop-color="#dd131f"/>
    </linearGradient>
    <linearGradient id="linear-gradient-2" y1="0.5" x2="1" y2="0.5" gradientUnits="objectBoundingBox">
      <stop offset="0" stop-color="#dd131f"/>
      <stop offset="0.116" stop-color="#dd1723"/>
      <stop offset="0.254" stop-color="#dd2532"/>
      <stop offset="0.402" stop-color="#dd3d4a"/>
      <stop offset="0.557" stop-color="#dd5d6b"/>
      <stop offset="0.719" stop-color="#dd8795"/>
      <stop offset="0.882" stop-color="#ddb9c9"/>
      <stop offset="1" stop-color="#dee2f3"/>
    </linearGradient>
    <linearGradient id="linear-gradient-4" x1="-0.247" y1="0.5" x2="1.034" y2="0.5" gradientUnits="objectBoundingBox">
      <stop offset="0" stop-color="#dee2f3"/>
      <stop offset="0.255" stop-color="#d6dbef"/>
      <stop offset="0.627" stop-color="#c3c7e5"/>
      <stop offset="1" stop-color="#a9aed9"/>
    </linearGradient>
    <linearGradient id="linear-gradient-25" x1="-0.36" y1="0.5" x2="0.64" y2="0.5" xlink:href="#linear-gradient"/>
    <linearGradient id="linear-gradient-30" x1="-0.297" y1="0.5" x2="0.703" y2="0.5" xlink:href="#linear-gradient"/>
    <linearGradient id="linear-gradient-37" x1="-4.517" y1="3.882" x2="-3.495" y2="3.882" xlink:href="#linear-gradient"/>
    <linearGradient id="linear-gradient-38" x1="-0.236" y1="2.146" x2="0.751" y2="2.146" xlink:href="#linear-gradient"/>
    <linearGradient id="linear-gradient-39" x1="-0.256" y1="1.053" x2="0.713" y2="1.053" xlink:href="#linear-gradient"/>
  </defs>
  <g id="Group_1097" data-name="Group 1097" transform="translate(-209.664 -218.047)">
    <path id="Path_6226" data-name="Path 6226" d="M545.662,635.57a12.2,12.2,0,0,1-6.015-1.408L404.4,556.078A4.757,4.757,0,0,1,401.694,552c0-1.869,1.316-3.7,3.609-5.021l133.434-77.041c4.084-2.356,10.082-2.588,13.657-.519l135.247,78.084a4.758,4.758,0,0,1,2.706,4.072c0,1.869-1.316,3.7-3.61,5.021L553.3,633.641A15.633,15.633,0,0,1,545.662,635.57Zm-4.969-3.223c2.893,1.67,8.19,1.43,11.565-.521l133.433-77.041c1.605-.925,2.561-2.125,2.561-3.209a2.824,2.824,0,0,0-1.656-2.255L551.348,471.237c-2.891-1.664-8.186-1.424-11.565.52L406.349,548.8c-1.6.926-2.561,2.125-2.561,3.209a2.832,2.832,0,0,0,1.656,2.256Z" transform="translate(16.906 15.697)" fill="#616eb1" style="mix-blend-mode: lighten;isolation: isolate"/>
    <path id="Path_6227" data-name="Path 6227" d="M387.535,639.619a1.048,1.048,0,0,1-.523-1.956l85.436-49.326a1.047,1.047,0,1,1,1.046,1.814l-85.436,49.326A1.042,1.042,0,0,1,387.535,639.619Z" transform="translate(12.781 21.731)" opacity="0.5" fill="url(#linear-gradient)"/>
    <path id="Path_6228" data-name="Path 6228" d="M696.384,639.341a1.027,1.027,0,0,1-.523-.142l-84.956-49.048a1.047,1.047,0,1,1,1.046-1.814l84.955,49.048a1.048,1.048,0,0,1-.524,1.956Z" transform="translate(28.953 21.728)" opacity="0.5" fill="url(#linear-gradient-2)"/>
    <path id="Path_6229" data-name="Path 6229" d="M546.472,799.271a19.876,19.876,0,0,1-9.957-2.667c-34.825-20.187-150.791-87.229-153.572-88.467a1,1,0,0,1-.669-1.282,1.081,1.081,0,0,1,1.343-.7c1.806.521,152.43,87.753,153.95,88.632a17.852,17.852,0,0,0,17.833-.005L708.589,706a1.048,1.048,0,1,1,1.052,1.813L556.451,796.6A19.934,19.934,0,0,1,546.472,799.271Z" transform="translate(16.078 30.527)" opacity="0.5" fill="url(#linear-gradient)"/>
    <g id="Group_1065" data-name="Group 1065" transform="translate(418.932 426.375)">
      <g id="Group_1061" data-name="Group 1061">
        <path id="Path_6230" data-name="Path 6230" d="M689.287,493.6v16.6L545.66,593.123,402.028,510.2V493.6Z" transform="translate(-402.028 -410.676)" fill="url(#linear-gradient-4)"/>
        <path id="Path_6231" data-name="Path 6231" d="M545.66,579.792,402.028,496.866l143.627-82.923,143.632,82.926Z" transform="translate(-402.028 -413.943)" fill="#a9aed9"/>
        <path id="Path_6232" data-name="Path 6232" d="M545.66,574.624,403.708,492.668l-1.679.969L545.66,576.563,689.287,493.64l-1.679-.969Z" transform="translate(-402.028 -410.715)" fill="#fff"/>
      </g>
      <g id="Group_1064" data-name="Group 1064" transform="translate(33.157 3.079)">
        <path id="Path_6233" data-name="Path 6233" d="M544.353,559.91,433.882,496.129,544.35,432.351l110.471,63.781Z" transform="translate(-433.879 -416.267)" fill="#dee2f3"/>
        <g id="Group_1063" data-name="Group 1063" transform="translate(0)">
          <path id="Path_6234" data-name="Path 6234" d="M544.353,559.913,433.88,496.131l110.47-63.78,110.474,63.782Z" transform="translate(-433.88 -416.267)" opacity="0.5" fill="url(#linear-gradient-2)"/>
          <g id="Group_1062" data-name="Group 1062">
            <path id="Path_6235" data-name="Path 6235" d="M540,416.9l110.474,63.782v16.083L540,432.983Z" transform="translate(-429.528 -416.9)" opacity="0.5" fill="url(#linear-gradient-2)"/>
            <path id="Path_6236" data-name="Path 6236" d="M544.353,432.983,433.88,496.763V480.681L544.35,416.9Z" transform="translate(-433.88 -416.9)" opacity="0.5" fill="url(#linear-gradient-2)"/>
            <path id="Path_6237" data-name="Path 6237" d="M544.353,544.463,433.88,480.681,544.35,416.9l110.474,63.782Z" transform="translate(-433.88 -416.9)" opacity="0.5" fill="url(#linear-gradient-2)"/>
            <path id="Path_6238" data-name="Path 6238" d="M541.74,504.659,497.6,479.173l44.142-25.485,44.143,25.486Z" transform="translate(-431.267 -415.392)" fill="#dd131f" opacity="0.5"/>
            <path id="Path_6239" data-name="Path 6239" d="M541.738,456.032l42.112,24.314,2.031-1.173-44.143-25.486L497.6,479.173l2.031,1.172Z" transform="translate(-431.267 -415.392)" fill="#dd131f" opacity="0.5"/>
            <path id="Path_6240" data-name="Path 6240" d="M540,541.95v16.083l110.47-63.78V478.17Z" transform="translate(-429.528 -414.388)" opacity="0.5" fill="url(#linear-gradient-2)"/>
          </g>
          <path id="Path_6241" data-name="Path 6241" d="M433.88,478.168v16.083l110.474,63.782V541.95Z" transform="translate(-433.88 -414.388)" opacity="0.5" fill="url(#linear-gradient-2)"/>
        </g>
        <path id="Path_6242" data-name="Path 6242" d="M544.353,540.23,435.4,477.325l-1.521.878,110.474,63.782,110.47-63.78-1.52-.878Z" transform="translate(-433.879 -414.423)" fill="#dd131f" opacity="0.8"/>
      </g>
    </g>
    <g id="Group_1072" data-name="Group 1072" transform="translate(209.664 571.581)">
      <g id="Group_1066" data-name="Group 1066" transform="translate(0 56.3)" opacity="0.11">
        <path id="Path_6243" data-name="Path 6243" d="M341.072,606.894a18.708,18.708,0,0,0-18.691-.009l-111.4,64.17a2.63,2.63,0,0,0,0,4.555l112.329,64.854a16.492,16.492,0,0,0,16.495,0l112.5-64.792a2.63,2.63,0,0,0,0-4.556Z" transform="translate(-209.664 -604.388)" fill="url(#linear-gradient)"/>
      </g>
      <g id="Group_1067" data-name="Group 1067" transform="translate(0 37.533)" opacity="0.11">
        <path id="Path_6244" data-name="Path 6244" d="M341.072,588.867a18.706,18.706,0,0,0-18.691-.009l-111.4,64.169a2.63,2.63,0,0,0,0,4.556l112.329,64.854a16.5,16.5,0,0,0,16.495,0l112.5-64.792a2.631,2.631,0,0,0,0-4.557Z" transform="translate(-209.664 -586.36)" fill="url(#linear-gradient)"/>
      </g>
      <g id="Group_1068" data-name="Group 1068" transform="translate(0 18.767)" opacity="0.11">
        <path id="Path_6245" data-name="Path 6245" d="M341.072,570.839a18.708,18.708,0,0,0-18.691-.009L210.98,635a2.63,2.63,0,0,0,0,4.555l112.329,64.854a16.491,16.491,0,0,0,16.495,0l112.5-64.792a2.63,2.63,0,0,0,0-4.556Z" transform="translate(-209.664 -568.333)" fill="url(#linear-gradient)"/>
      </g>
      <g id="Group_1069" data-name="Group 1069" transform="translate(0)" opacity="0.11">
        <path id="Path_6246" data-name="Path 6246" d="M341.072,552.812a18.706,18.706,0,0,0-18.691-.009l-111.4,64.169a2.63,2.63,0,0,0,0,4.557l112.329,64.854a16.5,16.5,0,0,0,16.495,0l112.5-64.792a2.63,2.63,0,0,0,0-4.557Z" transform="translate(-209.664 -550.305)" fill="url(#linear-gradient)"/>
      </g>
      <path id="Path_6247" data-name="Path 6247" d="M452.306,617.032,341.072,552.812a18.706,18.706,0,0,0-18.691-.009l-111.4,64.169a2.6,2.6,0,0,0-1.316,2.279v37.731a2.607,2.607,0,0,0,1.316,2.279l112.329,64.852a16.492,16.492,0,0,0,16.495,0l112.5-64.792a2.605,2.605,0,0,0,1.315-2.278V619.31h0A2.605,2.605,0,0,0,452.306,617.032Z" transform="translate(-209.664 -550.305)" opacity="0.5" fill="url(#linear-gradient)"/>
      <g id="Group_1070" data-name="Group 1070" transform="translate(0)" opacity="0.11">
        <path id="Path_6248" data-name="Path 6248" d="M341.072,552.812a18.706,18.706,0,0,0-18.691-.009l-111.4,64.169a2.63,2.63,0,0,0,0,4.557l112.329,64.854a16.5,16.5,0,0,0,16.495,0l112.5-64.792a2.63,2.63,0,0,0,0-4.557Z" transform="translate(-209.664 -550.305)" fill="url(#linear-gradient)"/>
      </g>
      <g id="Group_1071" data-name="Group 1071" transform="translate(67.555 38.228)" opacity="0.5">
        <path id="Path_6249" data-name="Path 6249" d="M332.981,588.09a7.931,7.931,0,0,0-7.924,0l-49.912,28.751a1.173,1.173,0,0,0,0,2.033l50.118,28.936a7.359,7.359,0,0,0,7.36,0l50.2-28.909a1.174,1.174,0,0,0,0-2.033Z" transform="translate(-274.558 -587.028)" fill="#dd131f"/>
      </g>
      <path id="Path_6250" data-name="Path 6250" d="M275.145,618.64l49.912-28.751a7.931,7.931,0,0,1,7.924,0l49.837,28.773c.051.029.07.08.113.115a1.154,1.154,0,0,0-.113-1.918L332.981,588.09a7.931,7.931,0,0,0-7.924,0l-49.912,28.751a1.154,1.154,0,0,0-.115,1.917C275.075,618.72,275.094,618.669,275.145,618.64Z" transform="translate(-207.002 -548.799)" fill="#dd131f"/>
      <path id="Path_6251" data-name="Path 6251" d="M452.306,616.331,339.8,681.124a16.5,16.5,0,0,1-16.495,0L210.98,616.271a2.612,2.612,0,0,1-.976-.982,2.633,2.633,0,0,0,.976,3.574l112.329,64.854a16.5,16.5,0,0,0,16.495,0l112.5-64.792a2.633,2.633,0,0,0,.975-3.575A2.594,2.594,0,0,1,452.306,616.331Z" transform="translate(-209.664 -547.64)" fill="url(#linear-gradient)"/>
    </g>
    <g id="Group_1079" data-name="Group 1079" transform="translate(671.502 571.581)">
      <g id="Group_1073" data-name="Group 1073" transform="translate(0 56.3)" opacity="0.11">
        <path id="Path_6252" data-name="Path 6252" d="M767.4,606.894a18.708,18.708,0,0,0-18.691-.009l-111.4,64.17a2.63,2.63,0,0,0,0,4.555l112.33,64.854a16.492,16.492,0,0,0,16.495,0l112.5-64.792a2.63,2.63,0,0,0,0-4.556Z" transform="translate(-635.988 -604.388)" fill="url(#linear-gradient)"/>
      </g>
      <g id="Group_1074" data-name="Group 1074" transform="translate(0 37.533)" opacity="0.11">
        <path id="Path_6253" data-name="Path 6253" d="M767.4,588.867a18.706,18.706,0,0,0-18.691-.009L637.3,653.026a2.63,2.63,0,0,0,0,4.556l112.33,64.854a16.5,16.5,0,0,0,16.495,0l112.5-64.792a2.631,2.631,0,0,0,0-4.557Z" transform="translate(-635.988 -586.36)" fill="url(#linear-gradient)"/>
      </g>
      <g id="Group_1075" data-name="Group 1075" transform="translate(0 18.767)" opacity="0.11">
        <path id="Path_6254" data-name="Path 6254" d="M767.4,570.839a18.708,18.708,0,0,0-18.691-.009L637.3,635a2.63,2.63,0,0,0,0,4.555l112.33,64.854a16.491,16.491,0,0,0,16.495,0l112.5-64.792a2.63,2.63,0,0,0,0-4.556Z" transform="translate(-635.988 -568.333)" fill="url(#linear-gradient)"/>
      </g>
      <g id="Group_1076" data-name="Group 1076" opacity="0.11">
        <path id="Path_6255" data-name="Path 6255" d="M767.4,552.812a18.706,18.706,0,0,0-18.691-.009L637.3,616.971a2.63,2.63,0,0,0,0,4.557l112.33,64.854a16.5,16.5,0,0,0,16.495,0l112.5-64.792a2.63,2.63,0,0,0,0-4.557Z" transform="translate(-635.988 -550.305)" fill="url(#linear-gradient)"/>
      </g>
      <path id="Path_6256" data-name="Path 6256" d="M878.63,617.032,767.4,552.812A18.706,18.706,0,0,0,748.7,552.8L637.3,616.971a2.605,2.605,0,0,0-1.315,2.279v37.731a2.608,2.608,0,0,0,1.315,2.279l112.33,64.852a16.492,16.492,0,0,0,16.495,0l112.5-64.792a2.6,2.6,0,0,0,1.316-2.278V619.31h0A2.6,2.6,0,0,0,878.63,617.032Z" transform="translate(-635.988 -550.305)" opacity="0.5" fill="url(#linear-gradient)"/>
      <g id="Group_1077" data-name="Group 1077" opacity="0.11">
        <path id="Path_6257" data-name="Path 6257" d="M767.4,552.812a18.706,18.706,0,0,0-18.691-.009L637.3,616.971a2.63,2.63,0,0,0,0,4.557l112.33,64.854a16.5,16.5,0,0,0,16.495,0l112.5-64.792a2.63,2.63,0,0,0,0-4.557Z" transform="translate(-635.988 -550.305)" fill="url(#linear-gradient)"/>
      </g>
      <g id="Group_1078" data-name="Group 1078" transform="translate(67.555 38.228)" opacity="0.5">
        <path id="Path_6258" data-name="Path 6258" d="M759.305,588.09a7.931,7.931,0,0,0-7.924,0l-49.912,28.751a1.174,1.174,0,0,0,0,2.033l50.118,28.936a7.359,7.359,0,0,0,7.36,0l50.2-28.909a1.174,1.174,0,0,0,0-2.033Z" transform="translate(-700.882 -587.028)" fill="#dd131f"/>
      </g>
      <path id="Path_6259" data-name="Path 6259" d="M701.469,618.64l49.912-28.751a7.931,7.931,0,0,1,7.924,0l49.837,28.773c.051.029.07.08.115.115a1.154,1.154,0,0,0-.115-1.918L759.3,588.09a7.931,7.931,0,0,0-7.924,0l-49.912,28.751a1.154,1.154,0,0,0-.114,1.917C701.4,618.72,701.418,618.669,701.469,618.64Z" transform="translate(-633.327 -548.799)" fill="#dd131f"/>
      <path id="Path_6260" data-name="Path 6260" d="M878.63,616.331l-112.5,64.793a16.5,16.5,0,0,1-16.5,0L637.3,616.271a2.6,2.6,0,0,1-.975-.982,2.631,2.631,0,0,0,.975,3.574l112.329,64.854a16.5,16.5,0,0,0,16.5,0l112.5-64.792a2.632,2.632,0,0,0,.975-3.575A2.585,2.585,0,0,1,878.63,616.331Z" transform="translate(-635.988 -547.64)" fill="url(#linear-gradient)"/>
    </g>
    <g id="Group_1080" data-name="Group 1080" transform="translate(248.63 218.047)">
      <path id="Path_6261" data-name="Path 6261" d="M845.238,473.79V407.065c-1.546-22.74-10.544-44.416-25.65-64.231v66.725c15.106,19.816,24.1,41.491,25.65,64.231Zm-33.371-73.6V333.461A190.931,190.931,0,0,0,794.2,316.056v66.725a190.792,190.792,0,0,1,17.666,17.406Zm-28.6-26.3V307.164a258.259,258.259,0,0,0-22.516-15.319v66.725a258.042,258.042,0,0,1,22.516,15.318Zm-37.632-4.194V263.535c61.47,32.612,99.839,79.25,99.839,130.849V500.543c0-51.6-38.368-98.239-99.839-130.849Z" transform="translate(-208.62 -216.182)" fill="#dee2f3" opacity="0.502"/>
      <path id="Path_6262" data-name="Path 6262" d="M645.795,320.594v-19.17q-7.036-1.348-14.219-2.506v19.17q7.181,1.157,14.219,2.506ZM620.216,297.22V280.254q-7.291-1.006-14.716-1.813v16.965q7.423.807,14.716,1.813Zm50.194,9.6V283.69q-6.752-1.672-13.668-3.167v23.13q6.914,1.493,13.668,3.167Zm-76.652-12.557V260.115q-7.512-.646-15.141-1.086v34.148q7.628.439,15.141,1.086Zm-54.936-1.924V258.191q-7.723.117-15.352.449v34.148q7.626-.331,15.352-.449Zm-27.29,1.1V250.491q-7.547.5-14.984,1.2v42.948q7.436-.7,14.984-1.2Zm55.018-.819V243.491q-6.9-.242-13.871-.313-.826-.008-1.65-.014V292.29l1.65.014q6.975.07,13.871.314Zm-81.627,3.242V234.405q-7.348.859-14.571,1.914v61.455q7.22-1.056,14.571-1.914Zm-45.865-66.712a522.047,522.047,0,0,1,113.621-11.073c53.352.534,103.328,8.749,146.782,22.774V347.008c-43.454-14.026-93.43-22.24-146.782-22.774a521.979,521.979,0,0,0-113.621,11.073V229.148Z" transform="translate(-229.17 -218.047)" fill="#dee2f3" opacity="0.502"/>
      <path id="Path_6263" data-name="Path 6263" d="M266.314,371.95V350.576a129.077,129.077,0,0,0-15.086,28.479v63.3a129.07,129.07,0,0,1,15.086-28.478V392.508q2.759-3.973,5.838-7.849v11.527a172.784,172.784,0,0,1,12.77-14.322V370.338c20.026-20.154,46.7-37.83,78.27-52.067V297.714q-8.427,3.8-16.379,7.921-3.977,2.061-7.828,4.2c-20.276,11.255-37.9,24.085-52.256,38.153q-.912.893-1.806,1.794V338.254a172.768,172.768,0,0,0-12.77,14.321V364.1q-3.076,3.874-5.838,7.848Zm-19.219-.668c12.072-51.806,62.823-96.422,134.81-124.189V353.252c-71.988,27.767-122.739,72.383-134.81,124.188V371.282Z" transform="translate(-247.095 -216.856)" fill="#dee2f3" opacity="0.502"/>
      <path id="Path_6264" data-name="Path 6264" d="M284.165,347.786q.895-.9,1.806-1.794V366.55a229.347,229.347,0,0,1,37.385-29.313q7.17-4.566,14.872-8.84V307.839q3.851-2.138,7.828-4.2V324.2q7.946-4.118,16.379-7.921v0c-31.575,14.237-58.244,31.913-78.27,52.067V347.786Zm-18.608,22.17q2.759-3.972,5.838-7.848v20.557q-3.076,3.876-5.838,7.849V369.956Z" transform="translate(-246.338 -214.862)" fill="#dee2f3" opacity="0.753"/>
      <path id="Path_6265" data-name="Path 6265" d="M342.885,303.641q7.947-4.119,16.379-7.921v20.557q-8.427,3.8-16.379,7.921V303.641Z" transform="translate(-243.167 -214.862)" fill="#dee2f3" opacity="0.878"/>
      <path id="Path_6266" data-name="Path 6266" d="M285.167,345.167a229.338,229.338,0,0,1,37.385-29.312v20.557a229.345,229.345,0,0,0-37.385,29.313V345.167Z" transform="translate(-245.534 -214.037)" fill="#dee2f3" opacity="0.878"/>
      <path id="Path_6267" data-name="Path 6267" d="M321.079,316.2q7.17-4.566,14.872-8.841V327.92q-7.7,4.272-14.872,8.84V316.2Z" transform="translate(-244.061 -214.385)" fill="#dee2f3" opacity="0.973"/>
      <path id="Path_6268" data-name="Path 6268" d="M251.065,374.979A129.079,129.079,0,0,1,266.151,346.5v21.374a129.069,129.069,0,0,0-15.086,28.478v20.558a129.045,129.045,0,0,1,15.086-28.478V409.8a129.07,129.07,0,0,0-15.086,28.478v-63.3Z" transform="translate(-246.932 -212.78)" fill="#dee2f3" opacity="0.753"/>
      <path id="Path_6269" data-name="Path 6269" d="M251.065,395.51a129.07,129.07,0,0,1,15.086-28.478V387.59a129.046,129.046,0,0,0-15.086,28.478V395.51Z" transform="translate(-246.932 -211.938)" fill="#dee2f3" opacity="0.878"/>
      <path id="Path_6270" data-name="Path 6270" d="M271.165,381.068a172.949,172.949,0,0,1,12.77-14.321v11.526a172.783,172.783,0,0,0-12.77,14.322V381.068Zm0-32.084a172.773,172.773,0,0,1,12.77-14.321v11.526a172.784,172.784,0,0,0-12.77,14.322V348.984Z" transform="translate(-246.108 -213.266)" fill="#dee2f3" opacity="0.753"/>
      <path id="Path_6271" data-name="Path 6271" d="M271.165,360.057a172.8,172.8,0,0,1,12.77-14.322v20.558a172.955,172.955,0,0,0-12.77,14.321V360.057Z" transform="translate(-246.108 -212.812)" fill="#dee2f3" opacity="0.878"/>
      <path id="Path_6272" data-name="Path 6272" d="M816.675,339.71c15.106,19.816,24.1,41.491,25.65,64.231v66.725c-1.546-22.74-10.544-44.416-25.65-64.231V339.71Z" transform="translate(-205.707 -213.059)" fill="#dee2f3" opacity="0.753"/>
      <path id="Path_6273" data-name="Path 6273" d="M792.288,313.987a190.915,190.915,0,0,1,17.666,17.406v66.725a190.788,190.788,0,0,0-17.666-17.406V313.987Z" transform="translate(-206.707 -214.113)" fill="#dee2f3"/>
      <path id="Path_6274" data-name="Path 6274" d="M760.159,290.729a258.28,258.28,0,0,1,22.516,15.319v66.724a258.05,258.05,0,0,0-22.516-15.318V290.729Z" transform="translate(-208.025 -215.067)" fill="#dee2f3" opacity="0.753"/>
      <path id="Path_6275" data-name="Path 6275" d="M648.167,278.062q6.914,1.493,13.668,3.167v23.13q-6.752-1.674-13.668-3.167v-23.13Z" transform="translate(-218.208 -215.586)" fill="#dee2f3" opacity="0.753"/>
      <path id="Path_6276" data-name="Path 6276" d="M623.992,295.733q7.181,1.157,14.219,2.506v19.17q-7.036-1.348-14.219-2.506v-19.17Z" transform="translate(-219.939 -214.862)" fill="#dee2f3" opacity="0.753"/>
      <path id="Path_6277" data-name="Path 6277" d="M598.944,276.062q7.423.806,14.716,1.813v16.965q-7.291-1.006-14.716-1.813V276.062Z" transform="translate(-221.734 -215.668)" fill="#dee2f3" opacity="0.753"/>
      <path id="Path_6278" data-name="Path 6278" d="M573.119,257.415q7.628.439,15.141,1.086v34.148q-7.512-.646-15.141-1.086V257.415Z" transform="translate(-223.589 -216.433)" fill="#dee2f3" opacity="0.753"/>
      <path id="Path_6279" data-name="Path 6279" d="M546.618,242.175q.824,0,1.65.014,6.975.07,13.871.313v49.127q-6.9-.244-13.871-.314l-1.65-.014V242.175Z" transform="translate(-225.494 -217.058)" fill="#dee2f3" opacity="0.753"/>
      <path id="Path_6280" data-name="Path 6280" d="M520.145,257.059q7.626-.331,15.352-.449v34.148q-7.723.117-15.352.449V257.059Z" transform="translate(-227.405 -216.466)" fill="#dee2f3"/>
      <path id="Path_6281" data-name="Path 6281" d="M494.283,250.409q7.436-.7,14.984-1.2V292.16q-7.547.5-14.984,1.2V250.409Z" transform="translate(-229.275 -216.769)" fill="#dee2f3" opacity="0.753"/>
      <path id="Path_6282" data-name="Path 6282" d="M469.119,235.675q7.22-1.054,14.571-1.914v61.455q-7.348.859-14.571,1.914V235.675Z" transform="translate(-231.094 -217.403)" fill="#dee2f3"/>
    </g>
    <g id="Group_1095" data-name="Group 1095" transform="translate(423.015 301.633)">
      <g id="Group_1092" data-name="Group 1092" transform="translate(0 306.357)">
        <g id="Group_1085" data-name="Group 1085" transform="translate(24.376 107.947)">
          <g id="Group_1081" data-name="Group 1081" transform="translate(0 52.932)" opacity="0.11">
            <path id="Path_6283" data-name="Path 6283" d="M535.2,739.419a17.588,17.588,0,0,1,17.573-.008L657.51,799.74a2.474,2.474,0,0,1,0,4.284L551.9,865a15.508,15.508,0,0,1-15.508,0l-105.77-60.916a2.473,2.473,0,0,1,0-4.284Z" transform="translate(-429.386 -737.063)" fill="url(#linear-gradient-25)"/>
          </g>
          <g id="Group_1082" data-name="Group 1082" transform="translate(0 35.288)" opacity="0.11">
            <path id="Path_6284" data-name="Path 6284" d="M535.2,722.47a17.589,17.589,0,0,1,17.573-.008L657.51,782.791a2.474,2.474,0,0,1,0,4.284L551.9,848.047a15.508,15.508,0,0,1-15.508,0l-105.77-60.915a2.473,2.473,0,0,1,0-4.284Z" transform="translate(-429.386 -720.114)" fill="url(#linear-gradient-25)"/>
          </g>
          <g id="Group_1083" data-name="Group 1083" transform="translate(0 17.644)" opacity="0.11">
            <path id="Path_6285" data-name="Path 6285" d="M535.2,705.521a17.589,17.589,0,0,1,17.573-.008L657.51,765.842a2.474,2.474,0,0,1,0,4.284L551.9,831.1a15.509,15.509,0,0,1-15.508,0l-105.77-60.916a2.473,2.473,0,0,1,0-4.284Z" transform="translate(-429.386 -703.165)" fill="url(#linear-gradient-25)"/>
          </g>
          <g id="Group_1084" data-name="Group 1084" opacity="0.11">
            <path id="Path_6286" data-name="Path 6286" d="M535.2,688.572a17.588,17.588,0,0,1,17.573-.008L657.51,748.893a2.474,2.474,0,0,1,0,4.284L551.9,814.149a15.508,15.508,0,0,1-15.508,0l-105.77-60.915a2.473,2.473,0,0,1,0-4.284Z" transform="translate(-429.386 -686.216)" fill="url(#linear-gradient-25)"/>
          </g>
          <path id="Path_6287" data-name="Path 6287" d="M430.623,748.95,535.2,688.572a17.588,17.588,0,0,1,17.573-.008L657.51,748.893a2.451,2.451,0,0,1,1.236,2.142v52.931a2.453,2.453,0,0,1-1.236,2.142L551.9,867.082a15.508,15.508,0,0,1-15.508,0l-105.77-60.916a2.452,2.452,0,0,1-1.237-2.142V751.093h0A2.45,2.45,0,0,1,430.623,748.95Z" transform="translate(-429.386 -686.216)" opacity="0.11" fill="url(#linear-gradient-25)"/>
        </g>
        <g id="Group_1091" data-name="Group 1091">
          <g id="Group_1086" data-name="Group 1086" transform="translate(0 64.183)" opacity="0.11">
            <path id="Path_6288" data-name="Path 6288" d="M534.276,647.033a21.328,21.328,0,0,1,21.309-.01l127,73.153a3,3,0,0,1,0,5.195L554.527,799.3a18.8,18.8,0,0,1-18.8,0L407.47,725.438a3,3,0,0,1,0-5.193Z" transform="translate(-405.97 -644.175)" fill="url(#linear-gradient-30)"/>
          </g>
          <g id="Group_1087" data-name="Group 1087" transform="translate(0 42.788)" opacity="0.11">
            <path id="Path_6289" data-name="Path 6289" d="M534.276,626.481a21.328,21.328,0,0,1,21.309-.01l127,73.154a3,3,0,0,1,0,5.194L554.527,778.751a18.8,18.8,0,0,1-18.8,0L407.47,704.887a3,3,0,0,1,0-5.195Z" transform="translate(-405.97 -623.623)" fill="url(#linear-gradient-30)"/>
          </g>
          <g id="Group_1088" data-name="Group 1088" transform="translate(0 21.394)" opacity="0.11">
            <path id="Path_6290" data-name="Path 6290" d="M534.276,605.93a21.328,21.328,0,0,1,21.309-.01l127,73.153a3,3,0,0,1,0,5.195L554.527,758.2a18.8,18.8,0,0,1-18.8,0L407.47,684.335a3,3,0,0,1,0-5.193Z" transform="translate(-405.97 -603.072)" fill="url(#linear-gradient-30)"/>
          </g>
          <g id="Group_1089" data-name="Group 1089" transform="translate(0 0)" opacity="0.11">
            <path id="Path_6291" data-name="Path 6291" d="M534.276,585.378a21.332,21.332,0,0,1,21.309-.01l127,73.154a3,3,0,0,1,0,5.194L554.527,737.648a18.8,18.8,0,0,1-18.8,0L407.47,663.784a3,3,0,0,1,0-5.195Z" transform="translate(-405.97 -582.521)" fill="url(#linear-gradient-30)"/>
          </g>
          <path id="Path_6292" data-name="Path 6292" d="M407.47,658.589l126.806-73.212a21.328,21.328,0,0,1,21.308-.01l127,73.153a2.97,2.97,0,0,1,1.5,2.6V725.3a2.972,2.972,0,0,1-1.5,2.6L554.527,801.83a18.8,18.8,0,0,1-18.8,0L407.47,727.966a2.968,2.968,0,0,1-1.5-2.6V661.187h0A2.971,2.971,0,0,1,407.47,658.589Z" transform="translate(-405.97 -582.521)" opacity="0.5" fill="url(#linear-gradient-30)"/>
          <g id="Group_1090" data-name="Group 1090" transform="translate(0 0)" opacity="0.11">
            <path id="Path_6293" data-name="Path 6293" d="M534.276,585.378a21.332,21.332,0,0,1,21.309-.01l127,73.154a3,3,0,0,1,0,5.194L554.527,737.648a18.8,18.8,0,0,1-18.8,0L407.47,663.784a3,3,0,0,1,0-5.195Z" transform="translate(-405.97 -582.521)" fill="url(#linear-gradient-30)"/>
          </g>
          <path id="Path_6294" data-name="Path 6294" d="M407.47,657.791l128.253,73.863a18.8,18.8,0,0,0,18.8,0l128.056-73.932a2.97,2.97,0,0,0,1.112-1.12,3,3,0,0,1-1.112,4.075L554.527,734.61a18.8,18.8,0,0,1-18.8,0L407.47,660.746a3,3,0,0,1-1.113-4.075A2.972,2.972,0,0,0,407.47,657.791Z" transform="translate(-405.97 -579.483)" fill="url(#linear-gradient-30)"/>
        </g>
      </g>
      <ellipse id="Ellipse_156" data-name="Ellipse 156" cx="69.919" cy="40.368" rx="69.919" ry="40.368" transform="translate(69.137 341.241)" fill="#dee2f3" opacity="0.2"/>
      <g id="Group_1094" data-name="Group 1094" transform="translate(80.527)">
        <path id="Path_6295" data-name="Path 6295" d="M566.031,625.359s1.7,1.772,3.464,3.86,6.722,4.994,8.8,6.287,11.626,8.527,13.621,15.65-4.825,8.066-11.8,6.828-13.492-7.673-15.391-10-8.5-7.6-17.061-12.028-3.385-10.389-3.385-10.389Z" transform="translate(-480.889 -284.931)" fill="#dee2f3"/>
        <path id="Path_6296" data-name="Path 6296" d="M504.18,645.684a26.48,26.48,0,0,0-1.811,7.323c-.4,4.119-.976,13.049-1.19,15.662a22.1,22.1,0,0,0,4.3,15.126c4.6,6.121,6.974,8.538,13.085,6.131s5.972-12.665,4.891-17.94a146.238,146.238,0,0,1-1.975-18.318,3.664,3.664,0,0,0-.35-2.03Z" transform="translate(-482.596 -284.098)" fill="#dee2f3"/>
        <path id="Path_6297" data-name="Path 6297" d="M588.87,509.883s-1.288,47.036-12.25,72a181.526,181.526,0,0,0-8.888,48.145s1.812,4.5-.759,8.165-18.663,7.013-21.323-5.013-1.637-34.533,1.287-43.918-1.041-35.253-1.041-35.253-4.4,2.811-10.164,21.394-10.009,25.673-11.992,30.807-3.807,36.628-2.55,52.007c0,0-13.032,1.85-16.8-4.38s-5.028-38.458-4.072-48.733,5.251-43.19,4.661-53.375-2.713-18.456-.382-28.629,71.1-32.773,71.1-32.773Z" transform="translate(-482.641 -290.468)" fill="#fff"/>
        <path id="Path_6298" data-name="Path 6298" d="M504.978,551.18c-.59-10.185-2.713-18.456-.382-28.629.876-3.824,11.141-9.4,23.611-14.88,21.046-1.921,47.737-4.152,49.576-3.872,1.661.253,6.013,1.906,9.618,3.352l1.47,2.18s-.079,2.861-.36,7.531c-4.909,1.469-14.353-.048-14.353-.048-1.329,3.3-9.53,15.031-19.73,20.094s-40.047,3.325-41.76,5.25-2.045,27.674-1.855,30.948-2.813,23.888-5.588,42.115c-2.731,17.933,1.426,39.727,1.562,40.426a7.368,7.368,0,0,1-2.4-2.359c-3.767-6.229-5.028-38.458-4.072-48.733S505.568,561.365,504.978,551.18Z" transform="translate(-482.641 -289.917)" fill="#dee2f3"/>
        <path id="Path_6299" data-name="Path 6299" d="M566.342,361.576s15.256,3.48,20.389,4.685a2.642,2.642,0,0,1,1.859,1.611c1.481,3.752,5.2,15.406,2.4,32.423-3.442,20.912-2.351,34.992-2.351,34.992l7.056,36.728s8.871,34.98,8.106,35.937-20.429,15.921-26.573,13.813-4.125-5.585-4.125-5.585-4.978,25.351-27.013,25.108-40.037-.173-43.777-9.081,1.023-46.352,4.908-61.176,13.122-44.376,13.122-44.376l-32.273-35.722,27.581-21.066s6.59-12.243,9.3-13.8,4.123-.239,4.123-.239Z" transform="translate(-483.131 -296.005)" fill="#dee2f3"/>
        <g id="Group_1093" data-name="Group 1093" transform="translate(17.826 212.508)">
          <path id="Path_6300" data-name="Path 6300" d="M573.446,507.656c-.019,1.271.722,3.167,4.685,4.525,4.277,1.467,14.761-4.905,21.635-9.7-3.432,2.853-20.321,15.18-25.942,13.252a10.009,10.009,0,0,1-2.765-1.38A45.151,45.151,0,0,0,573.446,507.656Z" transform="translate(-497.554 -502.478)" fill="url(#linear-gradient-37)"/>
          <path id="Path_6301" data-name="Path 6301" d="M501.966,522.9c3.948,9.4,22.945,9.326,46.2,9.583a24.857,24.857,0,0,0,14.455-4.166,23.5,23.5,0,0,1-17.039,6.636c-22.035-.244-40.037-.173-43.777-9.081-1.227-2.924-1.535-8.932-1.262-16.2C500.49,515.581,500.9,520.356,501.966,522.9Z" transform="translate(-500.449 -502.183)" fill="url(#linear-gradient-38)"/>
        </g>
        <path id="Path_6302" data-name="Path 6302" d="M524.143,355.761s-5.633,6.819,2.473,16.02c4.991,5.664,13.575,17.879,20.892,30.563,4.569,7.922,8.792,12.146,11.187,18.954,0,0,.334-8.088.656-20.574.3-11.784.462-24.03-.066-27.113C558.2,367.258,530.371,352.672,524.143,355.761Z" transform="translate(-481.73 -296.004)" fill="#ecf4fc"/>
        <path id="Path_6303" data-name="Path 6303" d="M545.36,378.429s2.887,1.794,3.882,1.645,4.191-3.254,4.191-3.254,8-.144,8.871-3.571,1.449-6.882,2.259-8.662,4.26-10.33,4.287-13.8-.105-9.667,1.393-12.947,3.519-36.109-28.181-35.183S520.208,336.5,520.208,336.5s-2.315.986-.913,5.224,1.716,4.676,2.431,6.778,1.067,3.452,3.081,5.16l.526,3.9a15.671,15.671,0,0,0,2.436,11.755C531.709,375.115,545.36,378.429,545.36,378.429Z" transform="translate(-481.872 -298.165)" fill="#f9c6ba"/>
        <path id="Path_6304" data-name="Path 6304" d="M584.8,366.193s3.379.5,14.347,28.093c6.119,15.4,15.564,31.337,17.566,42.78s.886,23.673-1.376,24.533c-2.177.829-41.582,15.573-53.914,20.228a1.16,1.16,0,0,1-1.551-.887l-3.4-19.031,24.454-9.447s4.657-5.692,9.036-7.827c0,0-4.9-9.035-4.591-11.5s-.436-27.986,2.429-38.373S584.8,366.193,584.8,366.193Z" transform="translate(-480.326 -295.559)" fill="#fff"/>
        <path id="Path_6305" data-name="Path 6305" d="M569.925,436.431a49.235,49.235,0,0,1,4.2-2.586c.833-.322,5.336-1.86,6.2-2.244.638-.285,3.261-.067,4.575.066a1.424,1.424,0,0,1,1.119.744c1.042,1.93,3.939,7.546,3.613,9.691,0,0-8.142,5.144-9.05,7.438l-1.3.28S573.825,438.121,569.925,436.431Z" transform="translate(-479.774 -292.882)" fill="#f9c6ba"/>
        <path id="Path_6306" data-name="Path 6306" d="M506.616,466.971c.935-3.568,2.181-7.989,3.532-12.644l49.524,21.228a52.223,52.223,0,0,1-40.805,17.059,34.14,34.14,0,0,1-16.092-5.085A197.537,197.537,0,0,1,506.616,466.971Z" transform="translate(-482.528 -291.945)" fill="#fff"/>
        <path id="Path_6307" data-name="Path 6307" d="M488.262,389.53s13.06,1.8,23.611,18.523,18.243,36.079,18.243,36.079l.363,2.176a8.807,8.807,0,0,0,12.277,6.6c11.142-4.975,27.643-12.5,30.72-14.754a28.4,28.4,0,0,1,12.56,18.342c2.148,10.277,1.6,10.309,1.6,10.309s-43.977,20.524-60.96,20.324-38.531-56.042-40.9-67.584S480.787,392.791,488.262,389.53Z" transform="translate(-483.325 -294.602)" fill="#fff"/>
        <path id="Path_6308" data-name="Path 6308" d="M488.262,389.53s13.06,1.8,23.611,18.523,18.243,36.079,18.243,36.079l.363,2.176a8.807,8.807,0,0,0,12.277,6.6c11.142-4.975,27.643-12.5,30.72-14.754a28.4,28.4,0,0,1,12.56,18.342c2.148,10.277,1.6,10.309,1.6,10.309s-43.977,20.524-60.96,20.324-38.531-56.042-40.9-67.584S480.787,392.791,488.262,389.53Z" transform="translate(-483.325 -294.602)" fill="#fff"/>
        <path id="Path_6309" data-name="Path 6309" d="M535.077,453.371s-5.548,5.187-7.963,2.346-1.7-3.155-1.7-3.155-4.991-.046-5.6-3.173-3.067-1.475-3.207-4.959,4.039-2.77,4.039-2.77Z" transform="translate(-481.961 -292.466)" fill="#fff"/>
        <path id="Path_6310" data-name="Path 6310" d="M541.718,450.952s-1.525-1.42-3.493-3.084-5.15-8.553-5.686-9.161-7.175-5.7-10.374-5.786-.823,3.493-.087,4,3.861,2.058,3.861,2.058,3.213,2.7,3.578,3.094-8.934-.64-10.409.268a2.516,2.516,0,0,0-.092,3.929,3.64,3.64,0,0,0,1.839.624,3.233,3.233,0,0,0,1.743,4.1c2.79,1.3,3.432.577,3.432.577s.24,4.834,4.847,3.877Z" transform="translate(-481.899 -292.822)" fill="#f9c6ba"/>
        <path id="Path_6311" data-name="Path 6311" d="M571.006,321.233s4.14,13.174-6.753,9.425-20.746-10.021-24.167-7.632c-2.6,1.818-2.484,7.392-2.279,9.95a3.789,3.789,0,0,1-.654,2.456l-3.228,4.693a3.618,3.618,0,0,0-.626,1.789l-.23,3.265a1.639,1.639,0,0,1-1.539,1.52l-.744.043a1.637,1.637,0,0,1-1.707-1.352l-.84-4.8s-2.564-6.451-7.983-3.917c0,0-3.624-4.869-2.419-15.28s5.868-21.236,26.3-22.968S571.006,321.233,571.006,321.233Z" transform="translate(-481.92 -298.341)" fill="#996f70"/>
        <path id="Path_6312" data-name="Path 6312" d="M538.91,386.743l3.056-2.371a16.492,16.492,0,0,1,3.93,4.841c1.1,2.491,0,10.409,0,10.409l.933,1.6,1.146-2.094.968-9.364s-1.04-6.92-1.141-7.1-5.9.616-5.9.616A11.974,11.974,0,0,0,538.91,386.743Z" transform="translate(-481.046 -294.884)" fill="#b7c2ce"/>
        <path id="Path_6313" data-name="Path 6313" d="M553.029,377.63s3.267.218,4.737,1.44c0,0-3.427.169-3.971.23S553.029,377.63,553.029,377.63Z" transform="translate(-480.467 -295.09)" fill="#b7c2ce"/>
        <path id="Path_6314" data-name="Path 6314" d="M547.267,378.364l-5.482,5.124S546.6,385.7,547.942,390c0,0,5.965,1.114,6.509-1.047s-.016-7.6.7-10.016S547.267,378.364,547.267,378.364Z" transform="translate(-480.928 -295.087)" fill="#fff"/>
        <path id="Path_6315" data-name="Path 6315" d="M554.036,388.4a30.383,30.383,0,0,0,2.132,6.34c1.113,1.852,2.254,3.928,2.254,3.928l-.136,26.3s-9.674-19.941-11.773-23.979c0,0,.322-9.605,1.235-11.422S554.036,388.4,554.036,388.4Z" transform="translate(-480.734 -294.652)" fill="#fff"/>
        <path id="Path_6316" data-name="Path 6316" d="M528.959,351.056c6.355,18.337,24.236,23.779,24.236,23.779S550,377.94,549,378.089s-3.882-1.645-3.882-1.645-13.651-3.315-17.591-9.109a15.671,15.671,0,0,1-2.436-11.755l-.526-3.9A4.317,4.317,0,0,0,528.959,351.056Z" transform="translate(-481.634 -296.179)" fill="#dba195"/>
        <path id="Path_6317" data-name="Path 6317" d="M514.818,371.675s2.509,8.655,2.832,8.981,6.305-.365,6.305-.365l-2.9,5.5s30.1,32.276,36.334,49.638c0,0-14.241-22.007-39.306-48.287l3.547-5.369-6.152,1.2Z" transform="translate(-482.034 -295.334)" fill="#fff"/>
        <path id="Path_6318" data-name="Path 6318" d="M562.319,364.335l1.6,1.824-1.876,1.751,5.564,5.03s1.7,35.3-5.094,58.693c0,0,9.225-21.453,7.133-59.655l-6.023-4.084,1.972-1.939Z" transform="translate(-480.098 -295.635)" fill="#fff"/>
        <path id="Path_6319" data-name="Path 6319" d="M544.159,551.824a2.18,2.18,0,0,0-.207.164l7.8-8.3c-3.6,5.075.547,28.315.976,33.635s-4.164,16.309-5.883,29.184c-1.717,12.854,1.8,31.208,1.812,31.263a9.926,9.926,0,0,1-4.741-6.777c-2.659-12.028-1.637-34.533,1.287-43.918S544.159,551.824,544.159,551.824Z" transform="translate(-480.904 -288.28)" fill="#dee2f3"/>
        <path id="Path_6320" data-name="Path 6320" d="M526.627,486.18c-16.983-.2-38.531-56.042-40.9-67.584-.4-1.925-.794-3.956-1.156-6.012.06.168,4.461,12.224,8.7,22.911,4.274,10.764,26.969,43.39,38.567,45.515,10.46,1.918,48.083-15.645,55.369-19.112.659,3.92.378,3.958.378,3.958S543.61,486.381,526.627,486.18Z" transform="translate(-483.274 -293.656)" fill="url(#linear-gradient-39)"/>
        <path id="Path_6321" data-name="Path 6321" d="M530.786,345.8a1.636,1.636,0,0,1-1.707-1.352l-.84-4.8s-2.564-6.451-7.984-3.917c0,0-3.418-4.625-2.493-14.464,6.023,9.044,19.391,13.22,19.391,13.22l-3.228,4.694a3.609,3.609,0,0,0-.626,1.788l-.23,3.265a1.639,1.639,0,0,1-1.539,1.52Z" transform="translate(-481.92 -297.401)" fill="#805a5a"/>
      </g>
    </g>
    <g id="Group_1096" data-name="Group 1096" transform="translate(247.871 404.329)">
      <path id="Path_6322" data-name="Path 6322" d="M343.052,609.2V591.258q5.39,2.889,11.018,5.631v17.937q-5.626-2.74-11.018-5.63Zm-35.326-22.414V553.728q4.478,3.374,9.228,6.621V593.4q-4.747-3.246-9.228-6.622Zm16.838,11.634V559.428q4.953,3.143,10.158,6.147v38.987q-5.2-3-10.157-6.146Zm-45.173-37.23V517.931q3.438,3.782,7.179,7.457v43.256q-3.738-3.674-7.179-7.457Zm13.243,13.166V527.49q3.976,3.588,8.236,7.06v46.862q-4.26-3.471-8.236-7.06ZM258.877,532.9V482.09q2.284,4.127,4.907,8.166v50.806q-2.62-4.038-4.907-8.166Zm9.222,14.446V481.249q2.878,3.965,6.076,7.832v66.093q-3.2-3.868-6.076-7.833ZM251.822,517.9V443.26q1.663,4.271,3.68,8.463v74.646q-2.016-4.193-3.68-8.464Zm124.91,16.564c-71.022-28.613-120.09-73.812-130.366-125.6V515.031c10.276,51.785,59.345,96.984,130.366,125.6V534.469Z" transform="translate(-246.366 -391.598)" fill="#dee2f3" opacity="0.502"/>
      <path id="Path_6323" data-name="Path 6323" d="M577.311,647V623.057q18.327-1,36.009-3.2v23.947q-17.661,2.186-36.009,3.2Zm-57.432.109V603.473q10.984.556,22.181.67,7.65.077,15.217-.058v43.642q-7.566.133-15.217.057-11.193-.112-22.181-.67Zm-55.353-5.726V574.663q17.364,2.75,35.511,4.355v66.725q-18.128-1.593-35.511-4.354Zm167.711-.284v-70.47q17.238-2.8,33.632-6.682v70.469q-16.374,3.874-33.632,6.683Zm61.952-100.816c-45.244,13.922-97.144,21.6-152.129,21.046a517.244,517.244,0,0,1-108.584-12.347V655.145a517.24,517.24,0,0,0,108.584,12.347c54.986.551,106.885-7.124,152.129-21.046V540.288Z" transform="translate(-228.905 -386.209)" fill="#dee2f3" opacity="0.502"/>
      <path id="Path_6324" data-name="Path 6324" d="M757.836,576.72V556.162c49.542-29.251,81.79-68.253,87.062-111.641v20.558c-5.273,43.388-37.521,82.39-87.062,111.642Zm87.778-78.284V392.278c-1.58,51.924-41.713,98.275-104.475,130.233V628.67c62.762-31.958,102.9-78.309,104.475-130.233Z" transform="translate(-208.046 -392.278)" fill="#dee2f3" opacity="0.502"/>
      <path id="Path_6325" data-name="Path 6325" d="M844.24,442.463c-5.273,43.388-37.521,82.39-87.062,111.642v20.558c49.542-29.251,81.79-68.254,87.063-111.642V442.463Z" transform="translate(-207.388 -390.22)" fill="#dee2f3" opacity="0.753"/>
      <path id="Path_6326" data-name="Path 6326" d="M498.813,577.664q-18.128-1.591-35.511-4.355v66.725q17.364,2.75,35.511,4.354V577.664Z" transform="translate(-230.498 -384.855)" fill="#dee2f3"/>
      <path id="Path_6327" data-name="Path 6327" d="M607.654,616.725q-17.661,2.186-36.009,3.2V643.87q18.327-1,36.009-3.2V616.725Z" transform="translate(-222.564 -383.074)" fill="#dee2f3"/>
      <path id="Path_6328" data-name="Path 6328" d="M658.039,563.02q-16.374,3.872-33.632,6.682v70.47q17.238-2.8,33.632-6.683V563.02Z" transform="translate(-218.753 -385.277)" fill="#dee2f3"/>
      <path id="Path_6329" data-name="Path 6329" d="M553.873,601.6q-7.566.134-15.217.058-11.193-.112-22.181-.67v43.641q10.984.556,22.181.67,7.65.077,15.217-.057V601.6Z" transform="translate(-226.58 -383.72)" fill="#dee2f3" opacity="0.753"/>
      <path id="Path_6330" data-name="Path 6330" d="M255.287,450.368q-2.016-4.191-3.68-8.463V516.55q1.663,4.271,3.68,8.464V450.368Z" transform="translate(-246.151 -390.243)" fill="#dee2f3"/>
      <path id="Path_6331" data-name="Path 6331" d="M263.291,487.372q-2.62-4.038-4.907-8.166v50.806q2.284,4.125,4.907,8.166V487.372Z" transform="translate(-245.873 -388.714)" fill="#dee2f3"/>
      <path id="Path_6332" data-name="Path 6332" d="M273.319,486.231q-3.2-3.866-6.076-7.832v66.093q2.878,3.965,6.076,7.833V486.231Z" transform="translate(-245.51 -388.747)" fill="#dee2f3" opacity="0.753"/>
      <path id="Path_6333" data-name="Path 6333" d="M285.269,521.092q-3.738-3.674-7.179-7.457v43.256q3.438,3.782,7.179,7.457V521.092Z" transform="translate(-245.065 -387.302)" fill="#dee2f3"/>
      <path id="Path_6334" data-name="Path 6334" d="M299.047,529.878q-4.26-3.471-8.236-7.06V569.68q3.976,3.588,8.236,7.06V529.878Z" transform="translate(-244.544 -386.925)" fill="#dee2f3" opacity="0.753"/>
      <path id="Path_6335" data-name="Path 6335" d="M314.537,554.643q-4.747-3.245-9.228-6.621v33.054q4.478,3.375,9.228,6.622V554.643Z" transform="translate(-243.949 -385.892)" fill="#dee2f3" opacity="0.753"/>
      <path id="Path_6336" data-name="Path 6336" d="M331.641,559.645q-5.2-3-10.157-6.147v38.988q4.953,3.142,10.158,6.146V559.645Z" transform="translate(-243.286 -385.667)" fill="#dee2f3" opacity="0.753"/>
      <path id="Path_6337" data-name="Path 6337" d="M350.261,589.7q-5.626-2.742-11.018-5.631v17.938q5.39,2.887,11.018,5.63V589.7Z" transform="translate(-242.558 -384.413)" fill="#dee2f3" opacity="0.753"/>
    </g>
  </g>
</svg>
