<?xml version="1.0" encoding="utf-8"?>
<!-- Generator: Adobe Illustrator 24.0.1, SVG Export Plug-In . SVG Version: 6.00 Build 0)  -->
<svg version="1.1" id="Layer_1" xmlns="http://www.w3.org/2000/svg" xmlns:xlink="http://www.w3.org/1999/xlink" x="0px" y="0px"
	 viewBox="0 0 1080 1080" style="enable-background:new 0 0 1080 1080;" xml:space="preserve">
<style type="text/css">
	.st0{fill:#04404F;}
</style>
<g>
	<g>
		<path class="st0" d="M160.63,534.97c0-72.16,0-144.31,0-216.47c0-29.3,15.9-47.22,41.83-47.12c25.44,0.1,41.62,18.56,41.63,47.83
			c0.05,143.83,0.05,287.67,0.02,431.5c-0.01,26.08-11.87,43.37-32.42,47.78c-27.95,6-50.77-12.72-50.89-42.76
			c-0.3-73.59-0.1-147.18-0.1-220.77C160.67,534.97,160.65,534.97,160.63,534.97z"/>
		<path class="st0" d="M820.11,544.26c0-70.73-0.09-141.46,0.12-212.18c0.03-8.51,0.35-17.43,2.84-25.44
			c4.95-15.95,21.57-26.34,39.01-26.16c17.97,0.18,33.96,11.42,38.98,28.35c1.87,6.3,2.58,13.16,2.59,19.76
			c0.14,144.32,0.15,288.65,0.08,432.97c-0.01,25.36-13.11,42.94-33.92,46.32c-28.87,4.69-49.53-13.53-49.59-44.27
			c-0.15-73.12-0.05-146.23-0.05-219.35C820.14,544.26,820.12,544.26,820.11,544.26z"/>
		<path class="st0" d="M98.38,571.98c0,33.44,0.11,66.88-0.03,100.33c-0.11,25.63-17.22,43.69-40.97,43.65
			c-24.02-0.04-41.67-17.57-41.82-43.21c-0.38-66.88-0.38-133.77-0.03-200.65c0.14-25.58,17.98-43.08,42.06-42.87
			c23.94,0.2,40.64,18.02,40.75,43.86C98.48,506.05,98.38,539.01,98.38,571.98z"/>
		<path class="st0" d="M321.55,570.94c0.01-32.5-0.12-65,0.05-97.49c0.14-27.79,14.31-42.41,40.6-42.38
			c27.18,0.03,42.57,15.01,42.64,42.33c0.16,66.43,0.18,132.86-0.02,199.29c-0.08,25.81-18.44,43.79-43.28,43.26
			c-23.28-0.49-39.88-18.31-39.96-43.21C321.46,638.8,321.54,604.87,321.55,570.94z"/>
		<path class="st0" d="M758.08,581.76c0.01,32.96,0.07,65.92-0.01,98.88c-0.07,26.17-16.13,43.9-40.16,44.55
			c-24.45,0.67-42.6-17.3-42.73-43.6c-0.3-66.39-0.3-132.79-0.02-199.19c0.11-26.47,18.13-44.56,42.52-43.95
			c24.09,0.6,40.27,18.28,40.37,44.43C758.17,515.84,758.08,548.8,758.08,581.76z"/>
		<path class="st0" d="M980.99,581.36c0-32.98,0.8-65.99-0.27-98.93c-0.77-23.47,18.28-42.84,41.33-42.87
			c27.03-0.04,42.82,22.16,42.68,43.49c-0.43,65.96-0.04,131.92-0.17,197.88c-0.05,25.98-17.89,44.42-42.38,44.49
			c-23.7,0.07-40.98-18.06-41.13-43.68C980.84,648.28,980.99,614.82,980.99,581.36z"/>
		<path class="st0" d="M588.23,593.36c0,13.84,0.28,27.68-0.06,41.51c-0.66,26.5-18.41,44.44-42.84,43.74
			c-24.14-0.69-40.09-18.24-40.18-44.4c-0.09-27.67-0.21-55.35-0.01-83.02c0.19-25.82,16.62-43.24,40.91-43.92
			c23.15-0.64,41.24,17.68,42.01,43.15c0.44,14.3,0.08,28.63,0.08,42.94C588.17,593.36,588.2,593.36,588.23,593.36z"/>
	</g>
</g>
</svg>
