<svg id="Layer_5" enable-background="new 0 0 64 64" height="512" viewBox="0 0 64 64" width="512" xmlns="http://www.w3.org/2000/svg" xmlns:xlink="http://www.w3.org/1999/xlink"><linearGradient id="SVGID_1_" gradientUnits="userSpaceOnUse" x1="31.919" x2="31.919" y1="63.046" y2=".722"><stop offset="0" stop-color="#9f2fff"/><stop offset="1" stop-color="#0bb1d3"/></linearGradient><path d="m22 22v-2h2v2zm6-2h-2v2h2zm4 0h-2v2h2zm-10 14h2v-2h-2zm4 0h2v-2h-2zm4 0h2v-2h-2zm28.049 3.974.951.047v6.378c0 6.323-3.778 11.932-9.626 14.289l-.374.15-.374-.151c-5.848-2.357-9.626-7.966-9.626-14.289v-6.378l.951-.047c3.013-.148 5.905-.912 8.599-2.271l.45-.226.45.227c2.695 1.359 5.587 2.123 8.599 2.271zm-1.049 1.932c-2.785-.249-5.471-.986-8-2.196-2.529 1.21-5.214 1.947-8 2.196v4.493c0 5.367 3.127 10.142 8 12.277 4.873-2.135 8-6.91 8-12.277zm2.101-5.906h3.899v10.398c0 8.578-5.508 16.035-13.706 18.557l-.294.091-.294-.091c-5.888-1.811-10.374-6.174-12.443-11.663-2.957 1.131-6.067 1.708-9.263 1.708-14.337 0-26-11.664-26-26s11.663-26 26-26 26 11.664 26 26c0 1.904-.22 3.796-.629 5.643 2.125.89 4.411 1.357 6.73 1.357zm-8.575-2.268c.246-1.227.391-2.475.443-3.732h-10c-.059 2.034-.296 4.022-.711 5.942 2.681-.21 5.285-1.034 7.602-2.424l1.14-.684 1.141.684c.126.076.257.142.385.214zm-15.526 10.132v-1.864h-17.032c2.691 5.33 6.583 8.626 8.935 10.606.035.03.063.053.097.082.028-.024.05-.043.079-.067 2.134-1.799 5.337-4.512 7.921-8.757zm3.195-7.864c.452-1.929.711-3.938.774-6h-23.932c.117 3.879.88 7.193 2.016 10h17.947v-4zm-32.515 4h9.221c-1.057-2.847-1.757-6.159-1.864-10h-10.012c.149 3.592 1.091 6.981 2.655 10zm12.764-24h17.111c-2.978-5.565-7.034-9.381-8.555-10.699-1.521 1.318-5.577 5.134-8.556 10.699zm-.983 2c-1.329 2.956-2.284 6.32-2.434 10h23.946c-.15-3.68-1.105-7.044-2.434-10zm30.859 0h-9.57c1.229 2.974 2.089 6.328 2.224 10h10.001c-.149-3.592-1.091-6.981-2.655-10zm-33.07 0h-9.57c-1.564 3.019-2.507 6.408-2.655 10h10.001c.135-3.672.995-7.026 2.224-10zm14.591-12.826c2.193 2.111 5.545 5.839 8.005 10.826h9.312c-3.791-5.859-10.062-9.966-17.317-10.826zm-22.999 10.826h9.312c2.46-4.987 5.812-8.715 8.005-10.826-7.255.86-13.526 4.967-17.317 10.826zm17.231 36.815c-2.594-2.282-5.997-5.714-8.346-10.815h-8.885c3.776 5.836 10.012 9.933 17.231 10.815zm11.577-1.43c-.341-1.299-.545-2.649-.612-4.031-1.745 2.315-3.588 4.111-5.122 5.465 1.965-.239 3.883-.717 5.734-1.434zm25.35-13.385h-1.899c-3.518 0-6.972-.957-9.989-2.767l-.112-.067-.111.067c-2.767 1.66-5.903 2.593-9.117 2.737l-.007.027h-.771c-.031 0-.062.003-.094.003h-1.9v8.398c0 7.591 4.809 14.204 12 16.553 7.191-2.349 12-8.961 12-16.553zm-15.293 10.793-1.414 1.414 3.707 3.707 8.207-8.207-1.414-1.414-6.793 6.793zm1.328-44.747c-.573-.46-1.168-.906-1.77-1.324l-1.143 1.642c.564.392 1.122.81 1.658 1.241zm-46.198 43.383c.417.591.865 1.183 1.333 1.759l1.553-1.262c-.439-.54-.86-1.095-1.251-1.65zm2.702 3.334 1.467-1.36c5.66 6.099 13.677 9.597 21.994 9.597.401 0 .798-.021 1.196-.036.423-1.143 1.515-1.964 2.804-1.964 1.654 0 3 1.346 3 3s-1.346 3-3 3c-1.315 0-2.423-.856-2.827-2.036-.39.014-.779.036-1.173.036-8.872 0-17.423-3.731-23.461-10.237zm26.461 9.237c0 .551.448 1 1 1s1-.449 1-1-.448-1-1-1-1 .449-1 1zm26.865-33.774c-.68-7.425-4.062-14.27-9.593-19.342l1.352-1.474c5.924 5.432 9.537 12.772 10.242 20.731 1.23.375 2.134 1.507 2.134 2.859 0 1.654-1.346 3-3 3s-3-1.346-3-3c0-1.252.772-2.325 1.865-2.774zm2.135 2.774c0-.551-.448-1-1-1s-1 .449-1 1 .448 1 1 1 1-.449 1-1z" fill="url(#SVGID_1_)"/></svg>