<svg id="Capa_1" enable-background="new 0 0 512 512" height="512" viewBox="0 0 512 512" width="512" xmlns="http://www.w3.org/2000/svg" xmlns:xlink="http://www.w3.org/1999/xlink"><linearGradient id="SVGID_1_" gradientUnits="userSpaceOnUse" x1="225.816" x2="864.887" y1="253.5" y2="253.5"><stop offset=".0007011211" stop-color="#fff0d5"/><stop offset=".5112" stop-color="#ffdfff"/><stop offset="1" stop-color="#d9ceff"/></linearGradient><path d="m505.626 289.418c-11.826-34.61-38.138-60.16-69.852-72.202-16.43-6.239-27.346-21.856-27.587-39.429-.005-.384-.012-.769-.021-1.154-1.507-64.582-55.488-116.33-120.077-115.221-38.094.654-71.788 19.355-92.905 47.92-18.185 24.599-46.49 39.965-77.08 39.949-.898 0-1.797.009-2.7.029-61.917 1.354-114.567 54.478-115.393 116.403-.879 65.932 52.303 119.654 118.032 119.654 50.947 0 94.349-32.277 110.886-77.497 4.327-11.832 17.152-18.174 29.283-14.772.151.042.303.085.455.127 11.099 3.064 18.458 13.64 17.55 25.119-1.217 15.383.581 31.255 5.798 46.796 20.521 61.135 87.188 94.685 148.493 74.68 62.711-20.465 96.379-88.184 75.118-150.402z" fill="url(#SVGID_1_)"/><path d="m452.735 227.581c-.635-4.982-4.884-8.704-9.907-8.704h-23.113c-13.046-70.645-66.516-127.112-135.531-144.521.225-1.829.354-3.687.354-5.577 0-25.007-20.272-45.279-45.279-45.279s-45.279 20.272-45.279 45.279c0 1.868.126 3.705.346 5.514-19.01 4.766-36.842 12.494-52.983 22.666-4.494-1.494-9.294-2.315-14.289-2.315-25.007 0-45.279 20.272-45.279 45.279 0 4.931.799 9.673 2.256 14.116-18.084 28.444-28.564 62.196-28.564 98.398 0 101.432 82.227 183.659 183.659 183.659 32.878 0 63.733-8.648 90.429-23.78l26.369 16.396c7.271 4.521 16.479 4.521 23.75 0l67.895-42.217c2.5-1.554 4.19-4.124 4.611-7.037 2.654-18.353 4.352-46.465 4.352-77.982.001-29.261-1.463-55.589-3.797-73.895z" fill="#590bb2" opacity=".1"/><circle cx="239.126" cy="270.417" fill="#e2ccff" r="183.659"/><g fill="#d6b0ff"><path d="m172.33 172.889c0 25-20.266 45.276-45.276 45.276-24.131 0-43.838-18.867-45.196-42.649 11.027-18.238 25.14-34.399 41.61-47.773 1.189-.09 2.377-.14 3.586-.14 25.01 0 45.276 20.276 45.276 45.286z"/><path d="m284.536 101.744c0 25-20.266 45.276-45.276 45.276s-45.276-20.276-45.276-45.276c0-3.306.36-6.542 1.029-9.648 14.133-3.486 28.906-5.334 44.117-5.334 15.302 0 30.174 1.868 44.387 5.404.669 3.086 1.019 6.292 1.019 9.578z"/><path d="m422.781 270.413c0 74.931-44.856 139.374-109.19 167.939l-25.559-15.901c-2.507-1.548-4.195-4.125-4.615-7.032-2.657-18.358-4.355-46.465-4.355-77.987 0-29.265 1.468-55.594 3.805-73.892.629-4.984 4.884-8.71 9.898-8.71h129.355c.441 5.135.661 10.339.661 15.583z"/></g><circle cx="127.054" cy="157.902" fill="#fdd250" r="45.279"/><path d="m143.653 149.68c0-9.153-7.446-16.6-16.599-16.6s-16.6 7.446-16.6 16.6c0 4.512 1.815 8.604 4.747 11.6-2.932 2.995-4.747 7.087-4.747 11.6 0 2.762 2.238 5 5 5s5-2.238 5-5c0-3.639 2.961-6.6 6.6-6.6s6.599 2.961 6.599 6.6c0 2.762 2.238 5 5 5s5-2.238 5-5c0-4.512-1.815-8.604-4.747-11.6 2.932-2.996 4.747-7.088 4.747-11.6zm-16.598-6.6c3.639 0 6.599 2.961 6.599 6.6s-2.96 6.6-6.599 6.6-6.6-2.961-6.6-6.6 2.961-6.6 6.6-6.6z" fill="#f5f4f9"/><circle cx="239.259" cy="86.758" fill="#ffa052" r="45.279"/><path d="m255.858 78.535c0-9.152-7.446-16.599-16.599-16.599s-16.6 7.446-16.6 16.599c0 4.512 1.815 8.604 4.747 11.6-2.932 2.995-4.747 7.087-4.747 11.6 0 2.762 2.238 5 5 5s5-2.238 5-5c0-3.639 2.961-6.6 6.6-6.6s6.599 2.961 6.599 6.6c0 2.762 2.238 5 5 5s5-2.238 5-5c0-4.512-1.815-8.604-4.747-11.6 2.932-2.995 4.747-7.088 4.747-11.6zm-16.598-6.598c3.639 0 6.599 2.96 6.599 6.599s-2.96 6.6-6.599 6.6-6.6-2.961-6.6-6.6 2.961-6.599 6.6-6.599z" fill="#f5f4f9"/><circle cx="171.887" cy="438.221" fill="#fdd250" r="45.279"/><path d="m188.486 429.998c0-9.152-7.446-16.599-16.6-16.599-9.152 0-16.599 7.446-16.599 16.599 0 4.512 1.815 8.604 4.747 11.6-2.931 2.995-4.747 7.087-4.747 11.6 0 2.762 2.238 5 5 5s5-2.238 5-5c0-3.639 2.96-6.6 6.599-6.6s6.6 2.961 6.6 6.6c0 2.762 2.238 5 5 5s5-2.238 5-5c0-4.512-1.815-8.604-4.747-11.6 2.932-2.995 4.747-7.088 4.747-11.6zm-16.599-6.599c3.639 0 6.6 2.96 6.6 6.599s-2.961 6.6-6.6 6.6-6.599-2.961-6.599-6.6 2.96-6.599 6.599-6.599z" fill="#f5f4f9"/><path d="m447.57 404.475c2.5-1.554 4.19-4.124 4.611-7.037 2.654-18.353 4.352-46.465 4.352-77.982 0-29.264-1.464-55.591-3.798-73.898-.635-4.982-4.884-8.704-9.907-8.704h-150.057c-5.022 0-9.272 3.722-9.907 8.704-2.334 18.306-3.798 44.634-3.798 73.898 0 31.517 1.698 59.629 4.352 77.982.421 2.913 2.111 5.482 4.611 7.037l67.895 42.217c7.271 4.521 16.479 4.521 23.75 0z" fill="#c182f9"/><path d="m457.695 244.928c-.949-7.452-7.341-13.072-14.866-13.072h-89.071c-2.764-21.569-7.831-41.911-14.812-60.251 12.925-4.97 24.913-10.917 35.632-17.754 13.922 16.176 25.02 34.923 32.509 55.525.738 2.031 2.656 3.293 4.699 3.293.567 0 1.145-.097 1.708-.302 2.596-.943 3.935-3.813 2.991-6.407-20.866-57.4-68.265-101.152-126.992-117.383.022-.605.046-1.209.046-1.818 0-27.724-22.556-50.279-50.279-50.279s-50.28 22.554-50.28 50.278c0 .582.024 1.157.044 1.734-17.035 4.681-33.304 11.74-48.407 21.005-4.318-1.212-8.863-1.874-13.562-1.874-27.724 0-50.279 22.556-50.279 50.279s22.556 50.279 50.279 50.279c.502 0 .998-.023 1.496-.038-3.972 18.401-6.139 37.619-6.452 57.273h-61.559c.609-22.402 5.314-44.134 14.02-64.671 1.078-2.542-.109-5.477-2.652-6.555-2.54-1.08-5.477.108-6.555 2.652-9.878 23.303-14.886 48.056-14.886 73.573 0 30.313 6.973 59.266 20.724 86.05 12.792 24.916 31.322 47.009 53.649 64.042-2.082 5.513-3.231 11.48-3.231 17.712 0 27.724 22.555 50.279 50.278 50.279 20.741 0 38.587-12.626 46.262-30.595 6.928.766 13.974 1.171 20.978 1.171 31.558 0 62.764-7.948 90.292-22.978l23.868 14.841c4.477 2.783 9.495 4.175 14.515 4.175s10.038-1.392 14.516-4.175l67.896-42.217c3.765-2.341 6.286-6.193 6.918-10.567 2.799-19.352 4.404-48.036 4.404-78.697-.003-28.233-1.401-55.398-3.841-74.528zm-114.028-13.073h-50.897c-7.525 0-13.917 5.62-14.866 13.071-.776 6.089-1.446 12.998-2 20.49h-31.778v-76.182c30.091-.497 59.396-5.477 85.448-14.257 6.575 17.27 11.385 36.474 14.093 56.878zm-184.202 157.642c-2.487-4.619-4.817-9.423-6.984-14.393 24.848-8.302 52.829-13.014 81.645-13.503v87.277c-4.256-.332-8.496-1.088-12.675-2.258.462-2.734.715-5.537.715-8.4 0-27.724-22.556-50.279-50.279-50.279-4.286 0-8.447.542-12.422 1.556zm115.299-35.817c-10.055-1.201-20.299-1.91-30.638-2.082v-76.181h31.13c-.772 13.617-1.189 28.664-1.189 44.04-.001 11.847.242 23.391.697 34.223zm-40.638-2.082c-30.1.496-59.385 5.47-85.422 14.243-10.291-27.002-16.062-58.155-16.603-90.424h102.025zm10 10.002c10.526.181 20.94.938 31.139 2.215.75 13.109 1.833 24.85 3.206 34.338.632 4.375 3.153 8.228 6.918 10.568l14.253 8.862c-16.537 19.031-35.58 29.755-55.516 31.292zm-73.33-228.444c7.09-9.844 14.861-18.104 23.16-24.6 7.427 15.373 22.452 26.416 40.17 28.221v42.456c-20.288-.334-40.048-2.698-58.87-7.048 1.345-4.53 2.078-9.321 2.078-14.282 0-8.994-2.385-17.435-6.538-24.747zm113.694-24.457c16.636 13.078 30.777 32.839 41.308 57.016-24.864 8.309-52.864 13.028-81.672 13.518v-42.435c17.777-1.716 32.876-12.725 40.364-28.099zm83.242 37.646c-9.839 6.13-20.778 11.49-32.544 16.006-11.778-27.228-27.963-49.346-47.13-63.491.023-.093.042-.187.065-.28 30.663 8.723 58.013 25.378 79.609 47.765zm-128.472-99.866c22.21 0 40.279 18.069 40.279 40.279s-18.069 40.279-40.279 40.279-40.279-18.069-40.279-40.279 18.069-40.279 40.279-40.279zm-48.883 52.012c.015.064.029.129.045.193-9.253 6.788-17.896 15.484-25.751 25.907-3.594-4.054-7.831-7.52-12.55-10.246 12.104-6.763 24.927-12.082 38.256-15.854zm-103.602 59.411c0-22.21 18.069-40.279 40.279-40.279s40.279 18.069 40.279 40.279-18.069 40.279-40.279 40.279-40.279-18.069-40.279-40.279zm52.341 48.807c13.971-3.454 25.656-12.759 32.294-25.161 20.036 4.759 41.094 7.342 62.715 7.687v76.182h-102.025c.334-20.212 2.691-39.928 7.016-58.708zm-78.577 68.708h61.561c.543 33.399 6.523 65.714 17.201 93.814-12.892 4.959-24.86 10.885-35.564 17.705-9.229-10.716-17.211-22.496-23.649-35.036-12.262-23.882-18.826-49.589-19.549-76.483zm50.047 119.035c9.821-6.113 20.729-11.458 32.461-15.964 2.156 4.99 4.474 9.821 6.939 14.482-8.459 4.111-15.591 10.531-20.593 18.428-6.657-5.193-12.944-10.864-18.807-16.946zm61.301 84.048c-22.21 0-40.278-18.069-40.278-40.279s18.068-40.279 40.278-40.279 40.279 18.069 40.279 40.279-18.069 40.279-40.279 40.279zm115.707-36.125c7.221-5.277 14.129-11.776 20.642-19.447l11.332 7.046c-10.227 5.16-20.946 9.304-31.974 12.401zm159.638-45.651c-.21 1.448-1.049 2.727-2.303 3.506l-67.895 42.217c-5.697 3.541-12.774 3.541-18.47 0l-67.896-42.217c-1.254-.779-2.093-2.058-2.303-3.507-2.733-18.899-4.301-47.062-4.301-77.266 0-27.831 1.37-54.535 3.758-73.266.314-2.472 2.441-4.336 4.946-4.336h150.059c2.505 0 4.632 1.864 4.946 4.337 2.388 18.729 3.758 45.434 3.758 73.265.002 30.204-1.565 58.366-4.299 77.267z" fill="#590bb2"/><path d="m367.802 266.821v61.527h-58.72c-.03-2.946-.05-5.913-.05-8.889 0-17.819.574-35.082 1.615-49.861.11-1.566 1.419-2.777 2.989-2.777z" fill="#ffbe92"/><path d="m309.083 328.348h58.72v90.442l-54.607-33.953c-.787-.489-1.305-1.306-1.399-2.228-1.53-14.897-2.492-34.069-2.714-54.261z" fill="#ffd5b8"/><path d="m426.572 319.458c0 2.976-.02 5.943-.05 8.889h-58.72v-61.527h54.158c1.569 0 2.878 1.209 2.989 2.775 1.049 14.78 1.623 32.043 1.623 49.863z" fill="#ffd5b8"/><path d="m426.522 328.348c-.222 20.193-1.185 39.364-2.714 54.261-.095.921-.613 1.739-1.399 2.228l-54.606 33.953v-90.442z" fill="#ffbe92"/><path d="m437.574 193.13c-2.762 0-5-2.238-5-5 0-3.31-2.692-6.003-6.002-6.003-2.762 0-5-2.238-5-5s2.238-5 5-5c3.31 0 6.002-2.693 6.002-6.003 0-2.762 2.238-5 5-5s5 2.238 5 5c0 3.31 2.693 6.003 6.003 6.003 2.762 0 5 2.238 5 5s-2.238 5-5 5c-3.31 0-6.003 2.693-6.003 6.003 0 2.762-2.238 5-5 5z" fill="#ffe783"/><path d="m81.858 445.979c-1.326 0-2.598-.526-3.535-1.465l-10.981-10.981c-.938-.938-1.465-2.209-1.465-3.535s.527-2.598 1.465-3.536l10.981-10.98c1.951-1.951 5.119-1.952 7.07.001l10.98 10.98c1.953 1.952 1.953 5.118.001 7.07l-10.98 10.981c-.938.938-2.209 1.465-3.536 1.465zm-3.91-15.981 3.91 3.91 3.909-3.91-3.909-3.909z" fill="#ffa052"/><path d="m408.168 137.205c-1.279 0-2.56-.488-3.535-1.465l-10.98-10.98c-1.953-1.952-1.953-5.118-.001-7.07l10.98-10.981c.938-.938 2.21-1.465 3.536-1.465s2.598.526 3.535 1.465l10.981 10.981c.938.938 1.465 2.209 1.465 3.535s-.527 2.598-1.465 3.536l-10.981 10.98c-.975.976-2.256 1.464-3.535 1.464zm-3.909-15.98 3.909 3.909 3.91-3.909-3.91-3.91z" fill="#c182f9"/><path d="m154.128 72.383c-1.279 0-2.559-.488-3.535-1.464l-10.981-10.98c-.938-.938-1.465-2.21-1.465-3.536s.526-2.598 1.465-3.535l10.981-10.981c.938-.938 2.209-1.465 3.535-1.465 1.326 0 2.598.527 3.536 1.465l10.98 10.981c1.952 1.952 1.952 5.118-.001 7.07l-10.98 10.98c-.975.977-2.256 1.465-3.535 1.465zm-3.91-15.981 3.91 3.909 3.909-3.909-3.909-3.91z" fill="#c182f9"/></svg>