<?xml version="1.0" encoding="utf-8"?>
<!-- Generator: Adobe Illustrator 24.0.1, SVG Export Plug-In . SVG Version: 6.00 Build 0)  -->
<svg version="1.1" id="Layer_1" xmlns="http://www.w3.org/2000/svg" xmlns:xlink="http://www.w3.org/1999/xlink" x="0px" y="0px"
	 viewBox="0 0 1080 1080" style="enable-background:new 0 0 1080 1080;" xml:space="preserve">
<style type="text/css">
	.st0{fill:#E6332A;}
</style>
<g>
	<rect x="394.1" y="163" class="st0" width="291.8" height="191.69"/>
	<path class="st0" d="M1070.36,354.69v-8.52c0-101.16-82.01-183.18-183.18-183.18H774.29v191.69H1070.36z"/>
	<path class="st0" d="M9.64,726.37v7.45C9.64,834.99,91.65,917,192.82,917h111.82V726.37H9.64z"/>
	<path class="st0" d="M774.29,917h112.89c101.16,0,183.18-82.01,183.18-183.18v-7.45H774.29V917z"/>
	<rect x="394.1" y="726.37" class="st0" width="291.8" height="190.63"/>
	<rect x="774.29" y="444.15" class="st0" width="296.06" height="191.69"/>
	<path class="st0" d="M304.64,163H192.82C91.65,163,9.64,245.01,9.64,346.18v8.52h295V163z"/>
	<rect x="9.64" y="444.15" class="st0" width="295" height="191.69"/>
</g>
</svg>
