<svg xmlns="http://www.w3.org/2000/svg" xmlns:xlink="http://www.w3.org/1999/xlink" viewBox="0 0 76 81" fill="#fff" fill-rule="evenodd" stroke="#000" stroke-linecap="round" stroke-linejoin="round"><use xlink:href="#A" x=".5" y=".5"/><symbol id="A" overflow="visible"><path d="M24.457 40.734c.18.367.544.55.906.55.362.184.725.184 1.087.184s.725 0 .906-.184c.362-.184.543-.367.906-.734l.543-1.1c.18-.367.18-.918.18-1.65 0-.55 0-.917-.18-1.468s-.18-.917-.543-1.284c-.18-.367-.543-.55-.725-.918-.362-.183-.725-.367-1.087-.367-.544 0-.906.184-1.268.367s-.544.55-.906.734l-.544 1.1c-.18.367-.18.917-.18 1.468 0 .734 0 1.284.18 1.65l.725 1.65zm10.507 14.312c.543 0 1.268 0 1.812.183 2.9-5.872 8.696-9.725 15.4-10.092v-34.31C52.174 5.32 40.4 0 26.087 0 11.594 0 0 4.954 0 10.46V60c0 4.954 9.602 9.725 22.1 10.46-.18-.734-.18-1.468-.18-2.202 0-7.156 5.797-13.2 13.044-13.2zm9.42-10.092h-9.058V30.826h4.167V41.65h4.9v3.303zm-18.297-41.1c10.326 0 18.66 2.57 18.66 5.688s-8.333 5.688-18.66 5.688-18.66-2.57-18.66-5.688 8.333-5.688 18.66-5.688zm-7.8 37.798c0 .367-.18.734-.362 1.1s-.362.734-.725.917c-.362.367-.725.55-1.087.734s-.906.367-1.63.55c-.543.183-1.268.183-2.174.183h-1.26c-.362 0-.725 0-1.087-.183-.362 0-.725-.184-.906-.184-.362 0-.543-.184-.725-.367V40.55c.18.184.544.367.906.55s.543.367.906.55.725.184 1.087.367.725.183 1.087.183.543 0 .725-.183c.18 0 .362-.184.362-.184.18 0 .18-.184.18-.367V41.1c0-.184 0-.367-.18-.55s-.18-.367-.362-.367c-.18-.184-.362-.184-.725-.367s-.544-.183-.906-.367c-.543-.184-1.087-.55-1.63-.917-.362-.367-.725-.55-1.087-.917s-.544-.734-.544-1.1c-.18-.367-.18-.917-.18-1.285 0-.734.18-1.284.362-1.835.362-.55.725-1.1 1.087-1.468.543-.367 1.087-.734 1.812-.917s1.45-.367 2.355-.367h1.268c.362 0 .725 0 1.087.184.363 0 .544.183.906.183.18 0 .544.183.725.183v3.67c-.18-.183-.363-.183-.725-.367-.18-.183-.543-.183-.906-.367s-.543-.184-.906-.184H13.95c-.544 0-.906 0-1.087.184-.362.184-.362.367-.362.734 0 .184 0 .367.18.367 0 .184.18.184.362.367s.362.183.543.367.543.184.906.367c.543.184 1.087.55 1.63.734.543.367.906.55 1.268.918s.543.734.906 1.1c.18.367.362.917.362 1.65-.362.184-.362.55-.362.917zm1.45-.734a7.69 7.69 0 0 1-.544-2.936c0-1.1.18-2.202.544-3.12s.906-1.65 1.45-2.385 1.45-1.1 2.174-1.468a7.43 7.43 0 0 1 2.9-.55c1.088 0 1.993.183 2.717.55a6.51 6.51 0 0 1 2.174 1.468c.543.55 1.087 1.468 1.45 2.202.362.917.543 1.835.543 3.12 0 .734 0 1.65-.362 2.202-.18.734-.544 1.285-.906 1.835s-.724 1.1-1.268 1.468-.906.734-1.63 1.1l4.7 4.037h-5.42l-3.08-3.303c-.905 0-1.812-.367-2.536-.55-.725-.367-1.45-.917-1.993-1.468 0-.55-.544-1.285-.906-2.202zM75 73.2c0-3.486-2.717-6.422-6.16-6.8.18-1.1.362-2.018.362-3.12 0-9-7.246-16.33-16.123-16.33-6.703 0-12.68 4.037-15.036 10.275-.906-.184-1.812-.367-2.9-.367-6.34 0-11.413 5.138-11.413 11.56A11.52 11.52 0 0 0 34.964 80H70.3v-.183c2.717-.734 4.7-3.486 4.7-6.606zm-6.16 4.954H35.145c-5.254 0-9.602-4.404-9.602-9.725s4.348-9.725 9.602-9.725c1.087 0 2.174.183 3.08.55l.906.367.362-.917c1.993-5.872 7.428-9.908 13.587-9.908 7.97 0 14.312 6.605 14.312 14.495a14.1 14.1 0 0 1-.543 3.853l-.362 1.468 1.268-.184h.544c2.717 0 4.9 2.202 4.9 4.954 0 2.385-1.812 4.587-4.348 4.77z" fill="#0078d7" stroke="none"/></symbol></svg>