<?xml version="1.0" encoding="UTF-8"?>
<svg width="300px" height="150px" viewBox="0 0 300 150" version="1.1" xmlns="http://www.w3.org/2000/svg" xmlns:xlink="http://www.w3.org/1999/xlink">
    <!-- Generator: Sketch 55 (78076) - https://sketchapp.com -->
    <title>Logo-Azure SQL Server</title>
    <desc>Created with Sketch.</desc>
    <g id="Logo-Azure-SQL-Server" stroke="none" stroke-width="1" fill="none" fill-rule="evenodd">
        <g id="Microsoft_azure_sql_server" transform="translate(2.000000, 44.000000)" fill-rule="nonzero">
            <path d="M0,8 L0,53.3970588 C0,58.0294118 10.7865169,62 24,62 L24,8 L0,8 Z" id="Path" fill="#0072C6"></path>
            <path d="M23,62 L23.3977901,62 C36.5248619,62 47,58.1617647 47,53.3970588 L47,8 L23,8 L23,62 Z" id="Path" fill="#0072C6"></path>
            <path d="M23,62 L23.3977901,62 C36.5248619,62 47,58.1617647 47,53.3970588 L47,8 L23,8 L23,62 Z" id="Path" fill="#FFFFFF" opacity="0.15"></path>
            <path d="M47,8.5 C47,13.0769231 36.4084507,17 23.4338028,17 C10.4591549,17 0,13.2076923 0,8.5 C0,3.92307692 10.5915493,0 23.5661972,0 C36.5408451,0 47,3.92307692 47,8.5 Z" id="Path" fill="#FFFFFF"></path>
            <path d="M43,7.56470588 C43,10.5411765 34.4366197,13 24,13 C13.5633803,13 5,10.5411765 5,7.56470588 C5,4.45882353 13.5633803,2 24,2 C34.4366197,2 43,4.45882353 43,7.56470588 Z" id="Path" fill="#7FBA00"></path>
            <path d="M39.1197183,11 C41.6619718,9.95652174 43,8.91304348 43,7.60869565 C43,4.47826087 34.4366197,2 24,2 C13.5633803,2 5,4.47826087 5,7.60869565 C5,8.91304348 6.47183099,10.0869565 8.88028169,11 C12.3591549,9.69565217 17.8450704,8.91304348 23.8661972,8.91304348 C30.1549296,8.7826087 35.6408451,9.69565217 39.1197183,11 Z" id="Path" fill="#B8D432"></path>
            <path d="M7.4,40.7826087 L7.4,37.9130435 C7.93333333,38.3043478 8.46666667,38.6956522 9.13333333,38.9565217 C9.8,39.2173913 10.4666667,39.3478261 11,39.3478261 C11.4,39.3478261 11.6666667,39.3478261 11.9333333,39.2173913 C12.2,39.0869565 12.4666667,39.0869565 12.6,38.9565217 C12.7333333,38.826087 13,38.6956522 13,38.5652174 C13.1333333,38.4347826 13.1333333,38.173913 13.1333333,38.0434783 C13.1333333,37.7826087 13,37.5217391 12.8666667,37.3913043 C12.7333333,37.1304348 12.4666667,37 12.2,36.8695652 C11.9333333,36.7391304 11.6666667,36.4782609 11.2666667,36.3478261 C10.8666667,36.2173913 10.4666667,36.0869565 10.0666667,35.826087 C9,35.4347826 8.2,34.9130435 7.8,34.2608696 C7.26666667,33.6086957 7,32.9565217 7,32.0434783 C7,31.3913043 7.13333333,30.7391304 7.4,30.3478261 C7.66666667,29.826087 8.06666667,29.4347826 8.6,29.173913 C9.13333333,28.9130435 9.66666667,28.6521739 10.3333333,28.5217391 C11,28.3913043 11.6666667,28.2608696 12.3333333,28.2608696 C13,28.2608696 13.6666667,28.2608696 14.2,28.3913043 C14.7333333,28.5217391 15.2666667,28.6521739 15.6666667,28.7826087 L15.6666667,31.5217391 L14.8666667,31.1304348 C14.6,31 14.3333333,30.8695652 14.0666667,30.8695652 C13.8,30.7391304 13.5333333,30.7391304 13.2666667,30.7391304 L12.4666667,30.7391304 C12.0666667,30.7391304 11.8,30.7391304 11.5333333,30.8695652 C11.2666667,30.8695652 11,31 10.8666667,31.1304348 C10.7333333,31.2608696 10.4666667,31.3913043 10.4666667,31.5217391 C10.3333333,31.6521739 10.3333333,31.9130435 10.3333333,32.0434783 C10.3333333,32.3043478 10.3333333,32.4347826 10.4666667,32.6956522 C10.6,32.826087 10.7333333,33.0869565 11,33.2173913 L11.8,33.6086957 C12.0666667,33.7391304 12.4666667,33.8695652 12.8666667,34 C13.4,34.2608696 13.9333333,34.3913043 14.3333333,34.6521739 C14.7333333,34.9130435 15.1333333,35.173913 15.4,35.4347826 C15.6666667,35.6956522 15.9333333,36.0869565 16.0666667,36.4782609 C16.2,36.8695652 16.3333333,37.3913043 16.3333333,37.9130435 C16.3333333,38.6956522 16.2,39.2173913 15.9333333,39.7391304 C15.6666667,40.2608696 15.2666667,40.6521739 14.7333333,40.9130435 C14.2,41.173913 13.6666667,41.4347826 13,41.5652174 C12.3333333,41.6956522 11.6666667,41.826087 11,41.826087 C10.3333333,41.826087 9.53333333,41.826087 8.86666667,41.6956522 C8.46666667,41.173913 7.8,41.0434783 7.4,40.7826087 L7.4,40.7826087 Z M24.3333333,41.4347826 C22.4666667,41.4347826 20.8666667,40.7826087 19.6666667,39.6086957 C18.4666667,38.4347826 17.8,36.7391304 17.8,34.9130435 C17.8,32.826087 18.4666667,31.1304348 19.6666667,29.9565217 C20.8666667,28.6521739 22.4666667,28 24.4666667,28 C26.3333333,28 27.9333333,28.6521739 29.1333333,29.826087 C30.3333333,31 30.8666667,32.6956522 30.8666667,34.6521739 C30.8666667,36.7391304 30.2,38.3043478 29,39.6086957 L28.8666667,39.7391304 L28.7333333,39.8695652 L32.0666667,43 L27.9333333,43 L26.2,41.3043478 C25.6666667,41.4347826 25,41.4347826 24.3333333,41.4347826 L24.3333333,41.4347826 Z M24.4666667,30.4782609 C23.4,30.4782609 22.6,30.8695652 21.9333333,31.6521739 C21.2666667,32.4347826 21,33.4782609 21,34.6521739 C21,35.9565217 21.2666667,37 21.9333333,37.6521739 C22.6,38.4347826 23.4,38.826087 24.3333333,38.826087 C25.4,38.826087 26.2,38.4347826 26.7333333,37.7826087 C27.4,37 27.6666667,36.0869565 27.6666667,34.7826087 C27.6666667,33.4782609 27.4,32.4347826 26.7333333,31.6521739 C26.2,30.8695652 25.4,30.4782609 24.4666667,30.4782609 L24.4666667,30.4782609 Z M41,41.173913 L33,41.173913 L33,28.1304348 L36.0666667,28.1304348 L36.0666667,38.826087 L41,38.826087 L41,41.173913 Z" id="Shape" fill="#FFFFFF"></path>
            <g id="Group" transform="translate(60.000000, 8.000000)" fill="#0072C6">
                <path d="M21.5696629,25.38 L21.5696629,10.665 C21.5696629,9.045 21.5696629,7.695 21.702809,6.48 L21.702809,5.67 C21.4365169,6.885 21.3033708,7.695 21.0370787,8.235 L14.1134831,25.38 L11.5837079,25.38 L4.66011236,8.505 C4.52696629,8.235 4.39382022,7.29 3.99438202,5.805 C4.12752809,7.155 4.12752809,8.91 4.12752809,11.205 L4.12752809,25.38 L0.665730337,25.38 L0.665730337,2.295 L6.1247191,2.295 L11.9831461,16.875 C12.5157303,18.225 12.9151685,19.305 13.0483146,20.115 L13.1814607,20.115 C13.7140449,18.765 14.1134831,17.685 14.3797753,16.875 L20.3713483,2.295 L25.2977528,2.295 L25.2977528,25.38 L21.5696629,25.38 Z M32.6207865,5.13 C31.9550562,5.13 31.4224719,4.86 31.0230337,4.455 C30.6235955,4.05 30.3573034,3.51 30.3573034,2.97 C30.3573034,2.295 30.6235955,1.89 31.0230337,1.35 C31.4224719,0.945 31.9550562,0.675 32.6207865,0.675 C33.2865169,0.675 33.8191011,0.945 34.2185393,1.35 C34.6179775,1.755 34.8842697,2.295 34.8842697,2.97 C34.8842697,3.51 34.6179775,4.05 34.2185393,4.455 C33.6859551,4.995 33.1533708,5.13 32.6207865,5.13 Z M30.7567416,25.38 L30.7567416,8.91 L34.4848315,8.91 L34.4848315,25.38 L30.7567416,25.38 Z M50.8617978,24.705 C49.6634831,25.38 48.0657303,25.785 46.2016854,25.785 C43.8050562,25.785 41.8078652,24.975 40.3432584,23.49 C38.8786517,21.87 38.0797753,19.98 38.0797753,17.55 C38.0797753,14.715 38.8786517,12.555 40.4764045,10.935 C42.0741573,9.315 44.2044944,8.505 46.8674157,8.505 C48.3320225,8.505 49.6634831,8.775 50.7286517,9.315 L50.7286517,12.825 C49.5303371,11.88 48.3320225,11.475 47.0005618,11.475 C45.5359551,11.475 44.2044944,12.015 43.2724719,12.96 C42.3404494,13.905 41.8078652,15.39 41.8078652,17.145 C41.8078652,18.9 42.2073034,20.25 43.1393258,21.195 C44.0713483,22.14 45.2696629,22.68 46.8674157,22.68 C48.0657303,22.68 49.397191,22.275 50.7286517,21.33 L50.7286517,24.705 L50.8617978,24.705 Z M64.0432584,12.42 C63.3775281,12.015 62.7117978,11.88 61.9129213,11.88 C60.8477528,11.88 60.0488764,12.285 59.3831461,13.23 C58.7174157,14.175 58.4511236,15.39 58.4511236,16.875 L58.4511236,25.38 L54.7230337,25.38 L54.7230337,8.91 L58.4511236,8.91 L58.4511236,12.15 C59.25,9.855 60.5814607,8.64 62.5786517,8.64 C63.244382,8.64 63.7769663,8.775 64.0432584,8.91 L64.0432584,12.42 L64.0432584,12.42 Z M74.0292135,25.785 C71.4994382,25.785 69.5022472,24.975 68.0376404,23.49 C66.5730337,22.005 65.7741573,19.845 65.7741573,17.28 C65.7741573,14.58 66.5730337,12.42 68.0376404,10.8 C69.6353933,9.18 71.6325843,8.505 74.4286517,8.505 C76.958427,8.505 78.955618,9.315 80.4202247,10.8 C81.8848315,12.285 82.5505618,14.445 82.5505618,17.01 C82.5505618,19.71 81.7516854,21.87 80.2870787,23.49 C78.6893258,24.975 76.5589888,25.785 74.0292135,25.785 L74.0292135,25.785 Z M74.1623596,11.475 C72.6977528,11.475 71.6325843,12.015 70.8337079,12.96 C70.0348315,13.905 69.6353933,15.39 69.6353933,17.145 C69.6353933,18.9 70.0348315,20.25 70.8337079,21.195 C71.6325843,22.14 72.8308989,22.68 74.2955056,22.68 C77.2247191,22.68 78.8224719,20.79 78.8224719,17.01 C78.8224719,15.12 78.4230337,13.77 77.6241573,12.825 C76.6921348,12.015 75.6269663,11.475 74.1623596,11.475 Z M85.8792135,24.84 L85.8792135,21.33 C87.3438202,22.41 88.808427,22.815 90.2730337,22.815 C92.0039326,22.815 92.9359551,22.275 92.9359551,21.06 C92.9359551,20.52 92.802809,20.115 92.4033708,19.71 C92.0039326,19.305 91.2050562,18.9 89.8735955,18.36 C88.2758427,17.685 87.2106742,17.01 86.811236,16.2 C86.4117978,15.39 86.0123596,14.58 86.0123596,13.5 C86.0123596,12.015 86.5449438,10.8 87.7432584,9.855 C88.941573,8.91 90.4061798,8.505 92.2702247,8.505 C93.6016854,8.505 94.8,8.775 95.8651685,9.18 L95.8651685,12.555 C94.6668539,11.745 93.4685393,11.475 92.1370787,11.475 C91.4713483,11.475 90.805618,11.61 90.4061798,12.015 C90.0067416,12.285 89.7404494,12.825 89.7404494,13.23 C89.7404494,13.77 89.8735955,14.175 90.1398876,14.58 C90.4061798,14.85 91.2050562,15.39 92.5365169,15.93 C94.1342697,16.605 95.1994382,17.28 95.7320225,18.09 C96.3977528,18.9 96.6640449,19.845 96.6640449,20.925 C96.6640449,22.41 96.1314607,23.625 94.9331461,24.57 C93.7348315,25.515 92.1370787,26.055 90.1398876,26.055 C88.6752809,25.785 87.2106742,25.515 85.8792135,24.84 L85.8792135,24.84 Z M107.981461,25.785 C105.451685,25.785 103.454494,24.975 101.989888,23.49 C100.525281,22.005 99.7264045,19.845 99.7264045,17.28 C99.7264045,14.58 100.525281,12.42 101.989888,10.8 C103.58764,9.18 105.584831,8.505 108.380899,8.505 C110.910674,8.505 112.907865,9.315 114.372472,10.8 C115.837079,12.285 116.502809,14.445 116.502809,17.01 C116.502809,19.71 115.703933,21.87 114.239326,23.49 C112.641573,24.975 110.511236,25.785 107.981461,25.785 L107.981461,25.785 Z M108.114607,11.475 C106.65,11.475 105.584831,12.015 104.785955,12.96 C103.987079,13.905 103.58764,15.39 103.58764,17.145 C103.58764,18.9 103.987079,20.25 104.785955,21.195 C105.584831,22.14 106.783146,22.68 108.247753,22.68 C111.176966,22.68 112.774719,20.79 112.774719,17.01 C112.774719,15.12 112.375281,13.77 111.576404,12.825 C110.644382,12.015 109.579213,11.475 108.114607,11.475 Z M129.68427,3.915 C129.151685,3.645 128.485955,3.51 127.953371,3.51 C126.222472,3.51 125.423596,4.59 125.423596,6.615 L125.423596,8.775 L129.018539,8.775 L129.018539,11.745 L125.423596,11.745 L125.423596,25.245 L121.695506,25.245 L121.695506,11.745 L118.899438,11.745 L118.899438,8.775 L121.695506,8.775 L121.695506,6.345 C121.695506,4.59 122.22809,3.105 123.293258,2.025 C124.358427,0.945 125.823034,0.405 127.553933,0.405 C128.485955,0.405 129.151685,0.54 129.68427,0.675 L129.68427,3.915 L129.68427,3.915 Z M140.735393,25.245 C139.936517,25.65 139.004494,25.785 137.939326,25.785 C134.74382,25.785 133.146067,24.03 133.146067,20.52 L133.146067,11.88 L130.483146,11.88 L130.483146,8.91 L133.146067,8.91 L133.146067,5.13 L136.874157,4.05 L136.874157,9.045 L140.735393,9.045 L140.735393,12.015 L136.874157,12.015 L136.874157,19.98 C136.874157,21.06 137.007303,21.735 137.406742,22.14 C137.80618,22.545 138.338764,22.815 139.13764,22.815 C139.670225,22.815 140.202809,22.68 140.735393,22.275 L140.735393,25.245 L140.735393,25.245 Z M168.030337,25.38 L165.9,19.575 L156.712921,19.575 L154.71573,25.38 L150.588202,25.38 L159.242697,2.295 L163.503371,2.295 L172.157865,25.38 L168.030337,25.38 Z M161.639326,7.425 C161.50618,7.02 161.373034,6.48 161.373034,5.805 L161.239888,5.805 C161.239888,6.48 161.106742,7.02 160.840449,7.425 L157.77809,16.335 L164.834831,16.335 L161.639326,7.425 Z M178.282584,22.41 L187.070225,22.41 L187.070225,25.38 L173.089888,25.38 L173.089888,24.03 L182.010674,11.88 L174.155056,11.88 L174.155056,8.91 L187.070225,8.91 L187.070225,10.395 L178.282584,22.41 L178.282584,22.41 Z M200.78427,25.38 L200.78427,22.95 C199.719101,24.84 197.988202,25.785 195.857865,25.785 C191.996629,25.785 189.999438,23.49 189.999438,18.9 L189.999438,8.91 L193.727528,8.91 L193.727528,18.495 C193.727528,21.33 194.792697,22.815 197.05618,22.815 C198.121348,22.815 199.053371,22.41 199.719101,21.6 C200.384831,20.79 200.78427,19.71 200.78427,18.495 L200.78427,8.91 L204.51236,8.91 L204.51236,25.38 L200.78427,25.38 L200.78427,25.38 Z M219.291573,12.42 C218.625843,12.015 217.960112,11.88 217.161236,11.88 C216.096067,11.88 215.297191,12.285 214.631461,13.23 C213.96573,14.175 213.699438,15.39 213.699438,16.875 L213.699438,25.38 L209.971348,25.38 L209.971348,8.91 L213.699438,8.91 L213.699438,12.15 C214.498315,9.855 215.829775,8.64 217.826966,8.64 C218.492697,8.64 219.025281,8.775 219.291573,8.91 L219.291573,12.42 Z M224.617416,18.225 C224.750562,21.33 226.481461,22.815 229.54382,22.815 C231.274719,22.815 233.005618,22.275 234.470225,21.195 L234.470225,24.3 C233.005618,25.245 231.008427,25.65 228.744944,25.65 C226.215169,25.65 224.351124,24.84 223.019663,23.355 C221.688202,21.87 221.022472,19.71 221.022472,17.145 C221.022472,14.445 221.821348,12.285 223.285955,10.665 C224.750562,9.045 226.614607,8.235 228.744944,8.235 C231.008427,8.235 232.739326,8.91 233.93764,10.395 C235.135955,11.745 235.801685,13.77 235.801685,16.2 L235.801685,18.09 L224.617416,18.09 L224.617416,18.225 Z M232.073596,15.39 C232.073596,12.69 230.875281,11.34 228.611798,11.34 C227.679775,11.34 226.747753,11.745 226.082022,12.42 C225.416292,13.095 224.883708,14.175 224.617416,15.39 L232.073596,15.39 Z" id="Shape"></path>
            </g>
            <g id="Group" transform="translate(60.000000, 43.000000)" fill="#0072C6">
                <path d="M1.2,12.8153846 C2,13.3384615 3.06666667,13.7307692 4.26666667,13.7307692 C6,13.7307692 7.06666667,12.8153846 7.06666667,11.5076923 C7.06666667,10.3307692 6.4,9.54615385 4.53333333,8.89230769 C2.4,8.10769231 0.933333333,7.06153846 0.933333333,5.1 C0.933333333,3.00769231 2.66666667,1.56923077 5.33333333,1.56923077 C6.66666667,1.56923077 7.73333333,1.83076923 8.26666667,2.22307692 L7.73333333,3.66153846 C7.33333333,3.4 6.4,3.00769231 5.2,3.00769231 C3.33333333,3.00769231 2.66666667,4.05384615 2.66666667,4.96923077 C2.66666667,6.14615385 3.46666667,6.8 5.33333333,7.58461538 C7.6,8.5 8.8,9.54615385 8.8,11.5076923 C8.8,13.6 7.2,15.3 4.13333333,15.3 C2.8,15.3 1.46666667,14.9076923 0.666666667,14.5153846 L1.2,12.8153846 L1.2,12.8153846 Z M22.4,16.8692308 C20.5333333,16.3461538 18.8,15.8230769 17.2,15.3 C16.9333333,15.1692308 16.6666667,15.0384615 16.4,15.0384615 C13.2,14.9076923 10.4,12.5538462 10.4,8.36923077 C10.4,4.18461538 13.0666667,1.43846154 16.6666667,1.43846154 C20.2666667,1.43846154 22.6666667,4.18461538 22.6666667,8.10769231 C22.6666667,11.5076923 21.0666667,13.7307692 18.8,14.3846154 L18.8,14.5153846 C20.1333333,14.9076923 21.6,15.1692308 22.8,15.3 L22.4,16.8692308 L22.4,16.8692308 Z M20.9333333,8.23846154 C20.9333333,5.62307692 19.6,2.87692308 16.6666667,2.87692308 C13.7333333,2.87692308 12.2666667,5.49230769 12.2666667,8.36923077 C12.2666667,11.1153846 13.8666667,13.7307692 16.5333333,13.7307692 C19.4666667,13.7307692 20.9333333,11.2461538 20.9333333,8.23846154 L20.9333333,8.23846154 Z M25.0666667,1.7 L26.8,1.7 L26.8,13.4692308 L32.5333333,13.4692308 L32.5333333,14.9076923 L25.0666667,14.9076923 L25.0666667,1.7 Z M38.5333333,12.8153846 C39.3333333,13.3384615 40.4,13.7307692 41.6,13.7307692 C43.3333333,13.7307692 44.4,12.8153846 44.4,11.5076923 C44.4,10.3307692 43.7333333,9.54615385 41.8666667,8.89230769 C39.7333333,8.10769231 38.2666667,7.06153846 38.2666667,5.1 C38.2666667,3.00769231 40,1.56923077 42.6666667,1.56923077 C44,1.56923077 45.0666667,1.83076923 45.6,2.22307692 L45.0666667,3.66153846 C44.6666667,3.4 43.7333333,3.00769231 42.5333333,3.00769231 C40.6666667,3.00769231 40,4.05384615 40,4.96923077 C40,6.14615385 40.8,6.8 42.6666667,7.58461538 C44.9333333,8.5 46.1333333,9.54615385 46.1333333,11.5076923 C46.1333333,13.6 44.5333333,15.3 41.4666667,15.3 C40.1333333,15.3 38.8,14.9076923 38,14.5153846 L38.5333333,12.8153846 L38.5333333,12.8153846 Z M49.7333333,10.4615385 C49.7333333,12.8153846 51.3333333,13.7307692 53.0666667,13.7307692 C54.2666667,13.7307692 55.0666667,13.4692308 55.7333333,13.2076923 L56,14.3846154 C55.3333333,14.6461538 54.2666667,15.0384615 52.8,15.0384615 C49.8666667,15.0384615 48,13.0769231 48,10.2 C48,7.32307692 49.7333333,5.1 52.5333333,5.1 C55.7333333,5.1 56.5333333,7.84615385 56.5333333,9.54615385 L56.5333333,10.3307692 L49.7333333,10.3307692 L49.7333333,10.4615385 Z M54.8,9.28461538 C54.8,8.23846154 54.4,6.53846154 52.4,6.53846154 C50.6666667,6.53846154 49.8666667,8.10769231 49.7333333,9.28461538 L54.8,9.28461538 Z M58.6666667,8.36923077 C58.6666667,7.19230769 58.6666667,6.27692308 58.5333333,5.36153846 L60.1333333,5.36153846 L60.1333333,7.19230769 L60.2666667,7.19230769 C60.6666667,5.88461538 61.7333333,5.1 62.9333333,5.1 L63.4666667,5.1 L63.4666667,6.66923077 L62.8,6.66923077 C61.6,6.66923077 60.6666667,7.58461538 60.4,8.89230769 C60.4,9.15384615 60.2666667,9.41538462 60.2666667,9.67692308 L60.2666667,14.7769231 L58.6666667,14.7769231 L58.6666667,8.36923077 L58.6666667,8.36923077 Z M66.4,5.36153846 L68.2666667,10.7230769 C68.5333333,11.6384615 68.8,12.4230769 69.0666667,13.2076923 C69.3333333,12.4230769 69.6,11.6384615 69.8666667,10.7230769 L71.7333333,5.36153846 L73.6,5.36153846 L69.8666667,14.9076923 L68.1333333,14.9076923 L64.4,5.36153846 L66.4,5.36153846 L66.4,5.36153846 Z M76.1333333,10.4615385 C76.1333333,12.8153846 77.7333333,13.7307692 79.4666667,13.7307692 C80.6666667,13.7307692 81.4666667,13.4692308 82.1333333,13.2076923 L82.4,14.3846154 C81.7333333,14.6461538 80.6666667,15.0384615 79.2,15.0384615 C76.2666667,15.0384615 74.4,13.0769231 74.4,10.2 C74.4,7.32307692 76.1333333,5.1 78.9333333,5.1 C82.1333333,5.1 82.9333333,7.84615385 82.9333333,9.54615385 L82.9333333,10.3307692 L76.1333333,10.3307692 L76.1333333,10.4615385 Z M81.3333333,9.28461538 C81.3333333,8.23846154 80.9333333,6.53846154 78.9333333,6.53846154 C77.2,6.53846154 76.4,8.10769231 76.2666667,9.28461538 L81.3333333,9.28461538 Z M85.2,8.36923077 C85.2,7.19230769 85.2,6.27692308 85.0666667,5.36153846 L86.6666667,5.36153846 L86.6666667,7.19230769 L86.8,7.19230769 C87.2,5.88461538 88.2666667,5.1 89.4666667,5.1 L90,5.1 L90,6.66923077 L89.3333333,6.66923077 C88.1333333,6.66923077 87.2,7.58461538 86.9333333,8.89230769 C86.9333333,9.15384615 86.8,9.41538462 86.8,9.67692308 L86.8,14.7769231 L85.0666667,14.7769231 L85.0666667,8.36923077 L85.2,8.36923077 Z M96,1.83076923 C97.0666667,1.7 98.2666667,1.56923077 99.7333333,1.56923077 C102.266667,1.56923077 104,2.09230769 105.2,3.26923077 C106.4,4.31538462 107.066667,5.88461538 107.066667,7.97692308 C107.066667,10.2 106.4,11.9 105.066667,13.0769231 C103.866667,14.2538462 101.733333,15.0384615 99.0666667,15.0384615 C97.8666667,15.0384615 96.8,15.0384615 95.8666667,14.9076923 L95.8666667,1.83076923 L96,1.83076923 Z M97.7333333,13.6 C98.1333333,13.7307692 98.8,13.7307692 99.4666667,13.7307692 C103.2,13.7307692 105.2,11.6384615 105.2,8.10769231 C105.2,4.96923077 103.466667,3.00769231 99.7333333,3.00769231 C98.8,3.00769231 98.1333333,3.13846154 97.7333333,3.13846154 L97.7333333,13.6 L97.7333333,13.6 Z M114.666667,14.9076923 L114.533333,13.7307692 C114,14.5153846 112.933333,15.1692308 111.6,15.1692308 C109.6,15.1692308 108.666667,13.8615385 108.666667,12.4230769 C108.666667,10.0692308 110.8,8.89230769 114.533333,8.89230769 L114.533333,8.76153846 C114.533333,7.97692308 114.266667,6.53846154 112.4,6.53846154 C111.466667,6.53846154 110.533333,6.8 109.866667,7.19230769 L109.466667,6.01538462 C110.266667,5.49230769 111.466667,5.23076923 112.666667,5.23076923 C115.6,5.23076923 116.4,7.19230769 116.4,9.15384615 L116.4,12.6846154 C116.4,13.4692308 116.4,14.2538462 116.533333,14.9076923 L114.666667,14.9076923 L114.666667,14.9076923 Z M114.4,10.0692308 C112.533333,10.0692308 110.266667,10.3307692 110.266667,12.1615385 C110.266667,13.3384615 111.066667,13.8615385 111.866667,13.8615385 C113.066667,13.8615385 113.866667,13.0769231 114.266667,12.2923077 C114.266667,12.1615385 114.4,11.9 114.4,11.7692308 L114.4,10.0692308 L114.4,10.0692308 Z M120.933333,2.61538462 L120.933333,5.36153846 L123.466667,5.36153846 L123.466667,6.66923077 L120.933333,6.66923077 L120.933333,11.7692308 C120.933333,12.9461538 121.333333,13.6 122.266667,13.6 C122.666667,13.6 123.066667,13.6 123.333333,13.4692308 L123.466667,14.7769231 C123.066667,14.9076923 122.533333,15.0384615 121.866667,15.0384615 C121.066667,15.0384615 120.4,14.7769231 120,14.2538462 C119.466667,13.7307692 119.333333,12.9461538 119.333333,11.7692308 L119.333333,6.53846154 L117.866667,6.53846154 L117.866667,5.23076923 L119.333333,5.23076923 L119.333333,3.00769231 L120.933333,2.61538462 L120.933333,2.61538462 Z M130.8,14.9076923 L130.666667,13.7307692 C130.133333,14.5153846 129.066667,15.1692308 127.733333,15.1692308 C125.733333,15.1692308 124.8,13.8615385 124.8,12.4230769 C124.8,10.0692308 126.933333,8.89230769 130.666667,8.89230769 L130.666667,8.76153846 C130.666667,7.97692308 130.4,6.53846154 128.533333,6.53846154 C127.6,6.53846154 126.666667,6.8 126,7.19230769 L125.6,6.01538462 C126.4,5.49230769 127.6,5.23076923 128.8,5.23076923 C131.733333,5.23076923 132.533333,7.19230769 132.533333,9.15384615 L132.533333,12.6846154 C132.533333,13.4692308 132.533333,14.2538462 132.666667,14.9076923 L130.8,14.9076923 L130.8,14.9076923 Z M130.533333,10.0692308 C128.666667,10.0692308 126.4,10.3307692 126.4,12.1615385 C126.4,13.3384615 127.2,13.8615385 128,13.8615385 C129.2,13.8615385 130,13.0769231 130.4,12.2923077 C130.4,12.1615385 130.533333,11.9 130.533333,11.7692308 L130.533333,10.0692308 L130.533333,10.0692308 Z M135.066667,14.9076923 C135.066667,14.2538462 135.2,13.3384615 135.2,12.4230769 L135.2,0.915384615 L136.933333,0.915384615 L136.933333,6.93076923 C137.6,5.88461538 138.666667,5.23076923 140.266667,5.23076923 C142.666667,5.23076923 144.4,7.19230769 144.4,10.0692308 C144.4,13.4692308 142.266667,15.1692308 140,15.1692308 C138.666667,15.1692308 137.466667,14.6461538 136.8,13.3384615 L136.666667,14.9076923 L135.066667,14.9076923 Z M136.8,11.1153846 C136.8,11.3769231 136.8,11.5076923 136.933333,11.7692308 C137.333333,12.9461538 138.266667,13.7307692 139.6,13.7307692 C141.466667,13.7307692 142.533333,12.2923077 142.533333,10.0692308 C142.533333,8.10769231 141.466667,6.53846154 139.6,6.53846154 C138.4,6.53846154 137.333333,7.32307692 136.933333,8.63076923 C136.933333,8.89230769 136.8,9.02307692 136.8,9.28461538 L136.8,11.1153846 L136.8,11.1153846 Z M151.866667,14.9076923 L151.733333,13.7307692 C151.2,14.5153846 150.133333,15.1692308 148.8,15.1692308 C146.8,15.1692308 145.866667,13.8615385 145.866667,12.4230769 C145.866667,10.0692308 148,8.89230769 151.733333,8.89230769 L151.733333,8.76153846 C151.733333,7.97692308 151.466667,6.53846154 149.6,6.53846154 C148.666667,6.53846154 147.733333,6.8 147.066667,7.19230769 L146.666667,6.01538462 C147.466667,5.49230769 148.666667,5.23076923 149.866667,5.23076923 C152.8,5.23076923 153.6,7.19230769 153.6,9.15384615 L153.6,12.6846154 C153.6,13.4692308 153.6,14.2538462 153.733333,14.9076923 L151.866667,14.9076923 L151.866667,14.9076923 Z M151.6,10.0692308 C149.733333,10.0692308 147.466667,10.3307692 147.466667,12.1615385 C147.466667,13.3384615 148.266667,13.8615385 149.066667,13.8615385 C150.266667,13.8615385 151.066667,13.0769231 151.466667,12.2923077 C151.466667,12.1615385 151.6,11.9 151.6,11.7692308 L151.6,10.0692308 L151.6,10.0692308 Z M155.866667,13.0769231 C156.4,13.4692308 157.333333,13.7307692 158.133333,13.7307692 C159.466667,13.7307692 160,13.0769231 160,12.2923077 C160,11.5076923 159.466667,10.9846154 158.266667,10.5923077 C156.533333,9.93846154 155.733333,9.02307692 155.733333,7.84615385 C155.733333,6.27692308 156.933333,5.1 159.066667,5.1 C160,5.1 160.933333,5.36153846 161.466667,5.75384615 L161.066667,7.06153846 C160.666667,6.8 160,6.53846154 159.066667,6.53846154 C158,6.53846154 157.466667,7.19230769 157.466667,7.84615385 C157.466667,8.63076923 158,9.02307692 159.333333,9.41538462 C161.066667,10.0692308 161.866667,10.8538462 161.866667,12.2923077 C161.866667,13.9923077 160.533333,15.1692308 158.266667,15.1692308 C157.2,15.1692308 156.266667,14.9076923 155.6,14.5153846 L155.866667,13.0769231 L155.866667,13.0769231 Z M165.066667,10.4615385 C165.066667,12.8153846 166.666667,13.7307692 168.4,13.7307692 C169.6,13.7307692 170.4,13.4692308 171.066667,13.2076923 L171.333333,14.3846154 C170.666667,14.6461538 169.6,15.0384615 168.133333,15.0384615 C165.2,15.0384615 163.333333,13.0769231 163.333333,10.2 C163.333333,7.32307692 165.066667,5.1 167.866667,5.1 C171.066667,5.1 171.866667,7.84615385 171.866667,9.54615385 L171.866667,10.3307692 L165.066667,10.3307692 L165.066667,10.4615385 Z M170.133333,9.28461538 C170.133333,8.23846154 169.733333,6.53846154 167.733333,6.53846154 C166,6.53846154 165.2,8.10769231 165.066667,9.28461538 L170.133333,9.28461538 Z" id="Shape"></path>
            </g>
        </g>
    </g>
</svg>