<svg height="373pt" viewBox="-2 0 373 373.88117" width="373pt" xmlns="http://www.w3.org/2000/svg"><path d="m293.988281 155.429688h-211.628906l-68.265625 88.746093h348.160156zm0 0" fill="#d7e9ff"/><path d="m362.253906 251h-348.160156c-2.597656 0-4.972656-1.476562-6.125-3.8125-1.148438-2.332031-.875-5.113281.710938-7.171875l68.265624-88.746094c1.296876-1.679687 3.296876-2.667969 5.414063-2.667969h211.628906c2.117188 0 4.117188.988282 5.414063 2.667969l68.265625 88.746094c1.585937 2.058594 1.859375 4.839844.710937 7.171875-1.152344 2.335938-3.527344 3.8125-6.125 3.8125zm-334.292968-13.652344h320.425781l-57.761719-75.09375h-204.90625zm0 0" fill="#0e65e5"/><path d="m55.046875 230.519531c-1.425781 0-2.859375-.445312-4.085937-1.367187-3.023438-2.257813-3.636719-6.539063-1.367188-9.550782l20.480469-27.308593c2.257812-3.019531 6.546875-3.621094 9.550781-1.367188 3.023438 2.261719 3.636719 6.539063 1.367188 9.554688l-20.480469 27.304687c-1.339844 1.796875-3.386719 2.734375-5.464844 2.734375zm0 0" fill="#fff"/><path d="m96.015625 175.90625h177.492187v163.839844h-177.492187zm0 0" fill="#2a8ee6"/><g fill="#0e65e5"><path d="m273.507812 346.574219h-177.492187c-3.773437 0-6.828125-3.054688-6.828125-6.828125v-163.839844c0-3.773438 3.054688-6.824219 6.828125-6.824219h177.492187c3.773438 0 6.824219 3.050781 6.824219 6.824219v163.839844c0 3.773437-3.054687 6.828125-6.824219 6.828125zm-170.667968-13.652344h163.839844v-150.1875h-163.839844zm0 0"/><path d="m7.265625 339.746094h354.988281v27.308594h-354.988281zm0 0"/><path d="m362.253906 373.882812h-354.988281c-3.773437 0-6.824219-3.054687-6.824219-6.828124v-27.308594c0-3.773438 3.050782-6.824219 6.824219-6.824219h354.988281c3.773438 0 6.828125 3.050781 6.828125 6.824219v27.308594c0 3.773437-3.054687 6.828124-6.828125 6.828124zm-348.160156-13.65625h341.332031v-13.652343h-341.332031zm0 0"/></g><path d="m186.804688 8.316406 7.390624 22.746094c.289063.886719 1.117188 1.488281 2.046876 1.488281h23.917968c2.085938 0 2.949219 2.664063 1.265625 3.890625l-19.347656 14.058594c-.757813.546875-1.070313 1.519531-.785156 2.40625l7.394531 22.746094c.640625 1.980468-1.625 3.628906-3.308594 2.40625l-19.351562-14.058594c-.753906-.550781-1.773438-.550781-2.53125 0l-19.351563 14.054688c-1.683593 1.226562-3.953125-.421876-3.308593-2.402344l7.390624-22.75c.289063-.886719-.027343-1.855469-.78125-2.402344l-19.347656-14.0625c-1.6875-1.222656-.820312-3.890625 1.261719-3.890625h23.921875c.929688 0 1.757812-.601563 2.042969-1.484375l7.394531-22.75c.640625-1.980469 3.441406-1.980469 4.085938.003906zm0 0" fill="#94c1ff"/><path d="m162.878906 85.300781c-1.847656 0-3.6875-.574219-5.265625-1.714843-3.15625-2.285157-4.472656-6.316407-3.28125-10.03125l6.355469-19.535157-16.605469-12.050781c-3.164062-2.300781-4.46875-6.332031-3.261719-10.046875 1.207032-3.707031 4.640626-6.199219 8.539063-6.199219h20.519531l6.339844-19.523437c1.214844-3.707031 4.648438-6.199219 8.542969-6.199219 3.890625 0 7.324219 2.492188 8.53125 6.195312.007812.003907.007812.003907.007812.003907l6.339844 19.523437h20.519531c3.898438 0 7.332032 2.492188 8.539063 6.199219 1.207031 3.714844-.097657 7.746094-3.257813 10.039063l-16.605468 12.058593 6.347656 19.515625c1.199218 3.734375-.121094 7.765625-3.273438 10.054688-3.167968 2.28125-7.394531 2.273437-10.546875-.015625l-16.601562-12.058594-16.601563 12.058594c-1.582031 1.144531-3.425781 1.726562-5.28125 1.726562zm.875-45.925781 7.707032 5.59375c3.152343 2.316406 4.453124 6.34375 3.257812 10.03125l-2.945312 9.074219 7.707031-5.601563c3.164062-2.300781 7.414062-2.285156 10.554687-.003906l7.714844 5.605469-2.949219-9.0625c-1.191406-3.699219.105469-7.726563 3.234375-10.019531l7.734375-5.621094h-9.527343c-3.90625 0-7.335938-2.5-8.535157-6.210938l-2.945312-9.058594-2.949219 9.074219c-1.199219 3.699219-4.625 6.199219-8.53125 6.199219zm5.074219-10.425781v.011719zm31.859375-.007813.007812.007813zm0 0" fill="#0e65e5"/><path d="m84.40625 8.316406 7.390625 22.746094c.289063.886719 1.113281 1.488281 2.046875 1.488281h23.917969c2.085937 0 2.949219 2.664063 1.265625 3.890625l-19.351563 14.058594c-.753906.546875-1.070312 1.519531-.78125 2.40625l7.390625 22.746094c.644532 1.980468-1.625 3.628906-3.308594 2.40625l-19.351562-14.0625c-.753906-.546875-1.777344-.546875-2.53125 0l-19.347656 14.058594c-1.6875 1.226562-3.953125-.421876-3.308594-2.402344l7.390625-22.75c.289063-.886719-.027344-1.855469-.78125-2.402344l-19.351563-14.0625c-1.683593-1.222656-.816406-3.890625 1.265626-3.890625h23.917968c.933594 0 1.757813-.601563 2.046875-1.484375l7.390625-22.75c.640625-1.980469 3.445313-1.980469 4.089844.003906zm0 0" fill="#94c1ff"/><path d="m60.480469 85.300781c-1.847657 0-3.6875-.574219-5.269531-1.714843-3.152344-2.285157-4.472657-6.316407-3.277344-10.03125l6.351562-19.535157-16.605468-12.050781c-3.160157-2.300781-4.464844-6.332031-3.257813-10.046875 1.207031-3.707031 4.640625-6.199219 8.539063-6.199219h20.519531l6.339843-19.523437c1.214844-3.707031 4.648438-6.199219 8.539063-6.199219 3.894531 0 7.328125 2.492188 8.535156 6.195312.007813.003907.007813.003907.007813.003907l6.339844 19.523437h20.519531c3.898437 0 7.332031 2.492188 8.539062 6.199219 1.207031 3.714844-.101562 7.746094-3.261719 10.039063l-16.605468 12.058593 6.347656 19.515625c1.199219 3.734375-.117188 7.765625-3.273438 10.054688-3.164062 2.28125-7.390624 2.273437-10.546874-.015625l-16.601563-12.058594-16.597656 12.058594c-1.582031 1.144531-3.429688 1.726562-5.28125 1.726562zm.871093-45.925781 7.707032 5.59375c3.15625 2.316406 4.453125 6.34375 3.261718 10.03125l-2.949218 9.074219 7.710937-5.601563c3.160157-2.300781 7.40625-2.285156 10.550781-.003906l7.714844 5.605469-2.945312-9.0625c-1.195313-3.699219.105468-7.726563 3.234375-10.019531l7.730469-5.621094h-9.527344c-3.90625 0-7.332032-2.5-8.53125-6.210938l-2.949219-9.058594-2.945313 9.074219c-1.199218 3.699219-4.628906 6.199219-8.535156 6.199219zm5.074219-10.425781v.011719zm31.863281-.007813.003907.007813zm0 0" fill="#0e65e5"/><path d="m289.207031 8.316406 7.390625 22.746094c.289063.886719 1.113282 1.488281 2.046875 1.488281h23.917969c2.082031 0 2.949219 2.664063 1.265625 3.890625l-19.351563 14.058594c-.753906.546875-1.070312 1.519531-.78125 2.40625l7.390626 22.746094c.644531 1.980468-1.625 3.628906-3.308594 2.40625l-19.351563-14.058594c-.753906-.550781-1.773437-.550781-2.527343 0l-19.351563 14.054688c-1.6875 1.226562-3.957031-.421876-3.308594-2.402344l7.390625-22.75c.289063-.886719-.027344-1.855469-.78125-2.402344l-19.351562-14.0625c-1.6875-1.222656-.820313-3.890625 1.265625-3.890625h23.917969c.933593 0 1.757812-.601563 2.046874-1.484375l7.390626-22.75c.640624-1.980469 3.445312-1.980469 4.089843.003906zm0 0" fill="#94c1ff"/><path d="m265.28125 85.300781c-1.847656 0-3.6875-.574219-5.269531-1.714843-3.152344-2.285157-4.472657-6.316407-3.277344-10.03125l6.351563-19.535157-16.605469-12.050781c-3.160157-2.300781-4.464844-6.332031-3.257813-10.046875 1.203125-3.707031 4.636719-6.199219 8.539063-6.199219h20.519531l6.339844-19.523437c1.210937-3.707031 4.648437-6.199219 8.539062-6.199219 3.894532 0 7.328125 2.492188 8.535156 6.195312.003907.003907.003907.003907.003907.003907l6.339843 19.523437h20.519532c3.902344 0 7.335937 2.492188 8.542968 6.199219 1.207032 3.714844-.101562 7.746094-3.261718 10.039063l-16.605469 12.058593 6.347656 19.515625c1.199219 3.734375-.121093 7.765625-3.273437 10.054688-3.171875 2.28125-7.398438 2.273437-10.546875-.015625l-16.601563-12.058594-16.601562 12.058594c-1.578125 1.144531-3.425782 1.726562-5.277344 1.726562zm.871094-45.925781 7.707031 5.59375c3.15625 2.316406 4.453125 6.34375 3.261719 10.03125l-2.949219 9.074219 7.707031-5.601563c3.160156-2.300781 7.40625-2.285156 10.554688-.003906l7.714844 5.605469-2.949219-9.0625c-1.191407-3.699219.109375-7.726563 3.234375-10.019531l7.734375-5.621094h-9.527344c-3.90625 0-7.332031-2.5-8.53125-6.210938l-2.949219-9.058594-2.945312 9.074219c-1.203125 3.699219-4.628906 6.199219-8.535156 6.199219zm5.074218-10.425781v.011719zm31.859376-.007813.007812.007813zm0 0" fill="#0e65e5"/><path d="m185.585938 100.816406-87.921876 75.089844h175.84375zm0 0" fill="#d7e9ff"/><path d="m273.507812 182.734375h-175.847656c-2.863281 0-5.414062-1.78125-6.40625-4.464844-.988281-2.679687-.203125-5.695312 1.972656-7.554687l87.925782-75.09375c2.546875-2.171875 6.320312-2.171875 8.867187 0l87.921875 75.09375c2.171875 1.859375 2.957032 4.871094 1.972656 7.554687-.996093 2.683594-3.546874 4.464844-6.40625 4.464844zm-157.339843-13.652344h138.832031l-69.414062-59.285156zm0 0" fill="#0e65e5"/><path d="m123.320312 196.386719h27.308594v47.789062h-27.308594zm0 0" fill="#94c1ff"/><path d="m150.628906 251h-27.308594c-3.773437 0-6.828124-3.050781-6.828124-6.824219v-47.789062c0-3.773438 3.054687-6.824219 6.828124-6.824219h27.308594c3.773438 0 6.824219 3.050781 6.824219 6.824219v47.789062c0 3.773438-3.054687 6.824219-6.824219 6.824219zm-20.480468-13.652344h13.652343v-34.132812h-13.652343zm0 0" fill="#0e65e5"/><path d="m171.105469 196.386719h27.308593v47.789062h-27.308593zm0 0" fill="#94c1ff"/><path d="m198.414062 251h-27.308593c-3.773438 0-6.824219-3.050781-6.824219-6.824219v-47.789062c0-3.773438 3.050781-6.824219 6.824219-6.824219h27.308593c3.773438 0 6.828126 3.050781 6.828126 6.824219v47.789062c0 3.773438-3.054688 6.824219-6.828126 6.824219zm-20.480468-13.652344h13.652344v-34.132812h-13.652344zm0 0" fill="#0e65e5"/><path d="m218.894531 196.386719h27.304688v47.789062h-27.304688zm0 0" fill="#94c1ff"/><path d="m246.199219 251h-27.304688c-3.773437 0-6.828125-3.050781-6.828125-6.824219v-47.789062c0-3.773438 3.054688-6.824219 6.828125-6.824219h27.304688c3.773437 0 6.828125 3.050781 6.828125 6.824219v47.789062c0 3.773438-3.054688 6.824219-6.828125 6.824219zm-20.480469-13.652344h13.65625v-34.132812h-13.65625zm0 0" fill="#0e65e5"/><path d="m123.320312 264.65625h27.308594v47.785156h-27.308594zm0 0" fill="#94c1ff"/><path d="m150.628906 319.269531h-27.308594c-3.773437 0-6.828124-3.054687-6.828124-6.828125v-47.785156c0-3.773438 3.054687-6.828125 6.828124-6.828125h27.308594c3.773438 0 6.824219 3.054687 6.824219 6.828125v47.785156c0 3.773438-3.054687 6.828125-6.824219 6.828125zm-20.480468-13.65625h13.652343v-34.132812h-13.652343zm0 0" fill="#0e65e5"/><path d="m171.105469 264.65625h27.308593v47.785156h-27.308593zm0 0" fill="#94c1ff"/><path d="m198.414062 319.269531h-27.308593c-3.773438 0-6.824219-3.054687-6.824219-6.828125v-47.785156c0-3.773438 3.050781-6.828125 6.824219-6.828125h27.308593c3.773438 0 6.828126 3.054687 6.828126 6.828125v47.785156c0 3.773438-3.054688 6.828125-6.828126 6.828125zm-20.480468-13.65625h13.652344v-34.132812h-13.652344zm0 0" fill="#0e65e5"/><path d="m218.894531 264.65625h27.304688v47.785156h-27.304688zm0 0" fill="#94c1ff"/><path d="m246.199219 319.269531h-27.304688c-3.773437 0-6.828125-3.054687-6.828125-6.828125v-47.785156c0-3.773438 3.054688-6.828125 6.828125-6.828125h27.304688c3.773437 0 6.828125 3.054687 6.828125 6.828125v47.785156c0 3.773438-3.054688 6.828125-6.828125 6.828125zm-20.480469-13.65625h13.65625v-34.132812h-13.65625zm0 0" fill="#0e65e5"/><path d="m273.507812 244.175781h68.265626v95.570313h-68.265626zm0 0" fill="#2a8ee6"/><path d="m341.773438 346.574219h-68.265626c-3.773437 0-6.828124-3.054688-6.828124-6.828125v-95.570313c0-3.773437 3.054687-6.828125 6.828124-6.828125h68.265626c3.773437 0 6.828124 3.054688 6.828124 6.828125v95.570313c0 3.773437-3.054687 6.828125-6.828124 6.828125zm-61.441407-13.652344h54.613281v-81.921875h-54.613281zm0 0" fill="#0e65e5"/><path d="m293.988281 264.65625h27.304688v47.785156h-27.304688zm0 0" fill="#94c1ff"/><path d="m321.292969 319.269531h-27.304688c-3.773437 0-6.828125-3.054687-6.828125-6.828125v-47.785156c0-3.773438 3.054688-6.828125 6.828125-6.828125h27.304688c3.773437 0 6.828125 3.054687 6.828125 6.828125v47.785156c0 3.773438-3.054688 6.828125-6.828125 6.828125zm-20.480469-13.65625h13.65625v-34.132812h-13.65625zm0 0" fill="#0e65e5"/><path d="m27.746094 244.175781h68.269531v95.570313h-68.269531zm0 0" fill="#2a8ee6"/><path d="m96.015625 346.574219h-68.269531c-3.773438 0-6.824219-3.054688-6.824219-6.828125v-95.570313c0-3.773437 3.050781-6.828125 6.824219-6.828125h68.269531c3.773437 0 6.824219 3.054688 6.824219 6.828125v95.570313c0 3.773437-3.054688 6.828125-6.824219 6.828125zm-61.441406-13.652344h54.613281v-81.921875h-54.613281zm0 0" fill="#0e65e5"/><path d="m48.226562 264.65625h27.308594v47.785156h-27.308594zm0 0" fill="#94c1ff"/><path d="m75.535156 319.269531h-27.308594c-3.773437 0-6.824218-3.054687-6.824218-6.828125v-47.785156c0-3.773438 3.050781-6.828125 6.824218-6.828125h27.308594c3.773438 0 6.824219 3.054687 6.824219 6.828125v47.785156c0 3.773438-3.054687 6.828125-6.824219 6.828125zm-20.480468-13.65625h13.652343v-34.132812h-13.652343zm0 0" fill="#0e65e5"/><path d="m246.199219 367.054688c-3.773438 0-6.824219-3.054688-6.824219-6.828126v-27.304687c0-3.773437 3.050781-6.828125 6.824219-6.828125 3.773437 0 6.828125 3.054688 6.828125 6.828125v27.304687c0 3.773438-3.054688 6.828126-6.828125 6.828126zm0 0" fill="#fff"/><path d="m259.855469 353.402344h-27.308594c-3.773437 0-6.828125-3.054688-6.828125-6.828125 0-3.773438 3.054688-6.828125 6.828125-6.828125h27.308594c3.773437 0 6.824219 3.054687 6.824219 6.828125 0 3.773437-3.054688 6.828125-6.824219 6.828125zm0 0" fill="#fff"/></svg>