<svg xmlns="http://www.w3.org/2000/svg" xmlns:xlink="http://www.w3.org/1999/xlink" width="1038.307" height="693.584" viewBox="0 0 1038.307 693.584"><defs><style>.a,.b,.c,.d{fill:#b9bdc9;}.a,.f,.k{opacity:0.4;}.b{opacity:0.6;}.c,.g{opacity:0.8;}.e,.f,.g,.x{fill:#bcced3;}.h{fill:url(#a);}.i{fill:url(#b);}.j{fill:#fff;}.k{fill:#686773;}.l{fill:url(#d);}.m{fill:url(#f);}.n{fill:url(#g);}.o{fill:url(#h);}.p{fill:url(#j);}.q{fill:url(#k);}.r{fill:url(#l);}.s{fill:url(#m);}.t{fill:#db0909;}.u{fill:url(#o);}.v{fill:url(#q);}.w{fill:url(#s);}.x{opacity:0.2;}.y{fill:url(#t);}.z{fill:url(#u);}.aa{fill:url(#w);}.ab{fill:url(#y);}</style><linearGradient id="a" x1="-0.06" y1="0.5" x2="0.645" y2="0.5" gradientUnits="objectBoundingBox"><stop offset="0" stop-color="#dcecef"/><stop offset="0.59" stop-color="#c5ced6"/><stop offset="1" stop-color="#b9bdc9"/></linearGradient><radialGradient id="b" cx="-0.185" cy="-0.066" r="2.72" gradientTransform="translate(0.21) scale(0.579 1)" gradientUnits="objectBoundingBox"><stop offset="0" stop-color="#dcecef"/><stop offset="0.37" stop-color="#d2dee4"/><stop offset="1" stop-color="#b9bdc9"/></radialGradient><radialGradient id="d" cx="-0.185" cy="-0.066" r="2.719" xlink:href="#b"/><radialGradient id="f" cx="-0.185" cy="-0.066" r="2.719" xlink:href="#b"/><linearGradient id="g" x1="-0.06" y1="0.5" x2="0.645" y2="0.5" xlink:href="#a"/><radialGradient id="h" cx="-0.185" cy="-0.066" r="2.719" xlink:href="#b"/><radialGradient id="j" cx="-0.185" cy="-0.066" r="2.719" xlink:href="#b"/><linearGradient id="k" x1="-0.06" y1="0.5" x2="0.645" y2="0.5" xlink:href="#a"/><radialGradient id="l" cx="-0.185" cy="-0.066" r="2.72" xlink:href="#b"/><radialGradient id="m" cx="-0.046" cy="0.098" r="1.87" gradientTransform="translate(0.21) scale(0.579 1)" gradientUnits="objectBoundingBox"><stop offset="0" stop-color="#f9636b"/><stop offset="1" stop-color="#ff2626"/></radialGradient><radialGradient id="o" cx="-0.185" cy="-0.066" r="2.72" gradientTransform="translate(0.211) scale(0.579 1)" xlink:href="#b"/><radialGradient id="q" cx="-0.185" cy="-0.066" r="2.719" xlink:href="#b"/><radialGradient id="s" cx="-0.185" cy="-0.066" r="2.72" xlink:href="#b"/><linearGradient id="t" x1="-0.06" y1="0.5" x2="0.645" y2="0.5" xlink:href="#a"/><radialGradient id="u" cx="-0.185" cy="-0.066" r="2.719" xlink:href="#b"/><radialGradient id="w" cx="-0.185" cy="-0.066" r="2.72" gradientTransform="translate(0.211) scale(0.579 1)" xlink:href="#b"/><radialGradient id="y" cx="-0.185" cy="-0.066" r="2.719" xlink:href="#b"/></defs><g transform="translate(0.047)"><g transform="translate(-0.047)"><path class="a" d="M373.136,272.408a4.778,4.778,0,1,1-4.778-4.778A4.778,4.778,0,0,1,373.136,272.408Z" transform="translate(49.087 36.094)"/><path class="b" d="M122.683,114.422a7.082,7.082,0,1,1-7.082-7.082,7.082,7.082,0,0,1,7.082,7.082Z" transform="translate(14.689 14.476)"/><path class="c" d="M118.039,113.929a2.928,2.928,0,1,1-.858-2.082,2.939,2.939,0,0,1,.858,2.082Z" transform="translate(15.18 14.969)"/><path class="a" d="M437.9,211.918A18.93,18.93,0,1,1,418.973,193,18.93,18.93,0,0,1,437.9,211.918Z" transform="translate(54.004 26.029)"/><circle class="c" cx="7.865" cy="7.865" r="7.865" transform="translate(465.109 230.082)"/><path class="d" d="M458.614,346.964,415.75,208.84,766.99,258.025l-.227,1.543-348.8-48.845L460.1,346.5Z" transform="translate(56.123 28.165)"/><rect class="d" width="1.623" height="31.946" transform="translate(895.745 420.274)"/><rect class="e" width="1.623" height="10.236" transform="translate(895.745 459.7)"/><rect class="e" width="1.623" height="31.935" transform="translate(113.335 396.34)"/><rect class="d" width="1.623" height="9.124" transform="translate(113.335 435.618)"/><rect class="d" width="1.623" height="9.124" transform="translate(113.335 452.38)"/><rect class="d" width="1.623" height="31.935" transform="translate(332.41)"/><rect class="e" width="1.623" height="9.124" transform="translate(332.41 39.278)"/><rect class="e" width="1.623" height="9.124" transform="translate(332.41 56.04)"/><rect class="e" width="1.623" height="25.898" transform="translate(332.41 72.813)"/><rect class="d" width="1.623" height="10.236" transform="translate(697.371 674.779)"/><rect class="d" width="1.623" height="32.389" transform="translate(697.371 593.477)"/><rect class="d" width="1.623" height="10.236" transform="translate(918.692 274.24)"/><rect class="e" width="1.623" height="31.935" transform="translate(918.692 234.803)"/><rect class="d" width="1.623" height="32.389" transform="translate(918.692 192.938)"/><rect class="d" width="1.623" height="32.389" transform="translate(918.692 144.831)"/><circle class="f" cx="17.806" cy="17.806" r="17.806" transform="translate(148.891 80.632)"/><circle class="g" cx="8.75" cy="8.75" r="8.75" transform="translate(157.947 89.688)"/><path class="f" d="M265.374,548.087a12.007,12.007,0,1,1-12.007-12.007A12.007,12.007,0,0,1,265.374,548.087Z" transform="translate(32.604 72.298)"/><circle class="g" cx="5.901" cy="5.901" r="5.901" transform="translate(280.07 614.484)"/><circle class="f" cx="12.506" cy="12.506" r="12.506" transform="translate(712.623 464.25)"/><circle class="g" cx="6.151" cy="6.151" r="6.151" transform="translate(718.979 470.606)"/><path class="f" d="M361.681,186.15a9.669,9.669,0,1,1-2.832-6.848A9.68,9.68,0,0,1,361.681,186.15Z" transform="translate(46.22 23.8)"/><circle class="g" cx="4.755" cy="4.755" r="4.755" transform="translate(393.465 205.149)"/><circle class="f" cx="5.243" cy="5.243" r="5.243" transform="translate(757.155 595.441)"/><path class="f" d="M639.849,275.069a2.939,2.939,0,1,1-2.928-2.939,2.939,2.939,0,0,1,2.928,2.939Z" transform="translate(85.553 36.701)"/><path class="f" d="M287.6,482.978a2.939,2.939,0,1,1-2.928-2.928A2.939,2.939,0,0,1,287.6,482.978Z" transform="translate(38.047 64.742)"/><path class="e" d="M460.078,422.351a33.626,33.626,0,0,1-16.421-3.915L333.234,354.691c-4.539-2.644-7.1-6.23-7.1-10.078s2.519-7.433,7.1-10.078l109.832-63.87c9.079-5.22,23.832-5.22,32.843,0l110.422,63.757c4.539,2.644,7.1,6.219,7.1,10.066s-2.519,7.433-7.1,10.078L476.5,418.436a33.626,33.626,0,0,1-16.421,3.915Zm-.59-153.581a31.459,31.459,0,0,0-15.389,3.677l-109.832,63.87c-3.927,2.27-6.083,5.209-6.083,8.3s2.156,6.037,6.072,8.3l110.422,63.745c8.489,4.9,22.3,4.9,30.789,0L585.3,352.8c3.927-2.27,6.083-5.22,6.083-8.307s-2.156-6.026-6.071-8.284L474.888,272.447a31.47,31.47,0,0,0-15.4-3.677Z" transform="translate(44.037 35.975)"/><path class="h" d="M592.76,313.67h0V260.728L525.8,269.66l-50.093-28.928c-8.784-5.073-23.038-5.073-31.776,0l-7.8,4.959L327.52,260.184V314.09h0c.125,3.223,2.27,6.435,6.537,8.9l110.422,63.745c8.784,5.073,23.026,5.073,31.776,0L586.1,322.862c4.244-2.451,6.389-5.674,6.537-8.863h0Z" transform="translate(44.224 31.953)"/><path class="i" d="M586.174,257.487,475.751,193.742c-8.784-5.073-23.038-5.073-31.776,0L334.143,257.6c-8.784,5.073-8.784,13.3,0,18.373L444.565,339.72c8.784,5.073,23.026,5.073,31.776,0l109.844-63.859C594.957,270.788,594.957,262.56,586.174,257.487Z" transform="translate(44.229 25.616)"/><path class="j" d="M586.173,263.721l-109.844,63.87c-8.784,5.073-23.026,5.073-31.776,0L334.131,263.834c-3.688-2.122-5.8-4.812-6.4-7.581-.817,3.836,1.294,7.842,6.4,10.793l110.422,63.745c8.784,5.073,23.026,5.073,31.776,0l109.844-63.859c5.1-2.951,7.218-6.957,6.389-10.793C591.972,258.909,589.85,261.655,586.173,263.721Z" transform="translate(44.229 34.544)"/><path class="j" d="M472.35,335.1l-5.22,3.019v-6.037l5.22-3.019Z" transform="translate(63.053 44.379)"/><path class="j" d="M481.992,329.527l-5.232,3.019v-6.037l5.232-3.019Z" transform="translate(64.351 43.627)"/><path class="j" d="M491.632,323.967l-5.232,3.019v-6.037l5.232-3.019Z" transform="translate(65.651 42.877)"/><path class="j" d="M483.752,339.286,478.52,342.3v-6.026l5.232-3.019Z" transform="translate(64.589 44.945)"/><path class="j" d="M492.23,334.4l-5.22,3.007v-6.026l5.22-3.019Z" transform="translate(65.734 44.284)"/><path class="j" d="M522.53,306.117l-5.22,3.019V303.1l5.22-3.019Z" transform="translate(69.82 40.47)"/><path class="j" d="M549.08,290.8l-5.22,3.019v-6.037l5.22-3.019Z" transform="translate(73.401 38.404)"/><path class="j" d="M501.26,318.407l-5.22,3.019v-6.037l5.22-3.019Z" transform="translate(66.951 42.128)"/><path class="k" d="M447.94,309.276,373.652,266.39c-3.019-1.748-2.633-4.789.851-6.809l72.631-41.911c3.5-2.02,8.761-2.27,11.791-.488l74.277,42.9c3.019,1.736,2.633,4.789-.851,6.809L459.72,308.8C456.236,310.808,450.959,311.024,447.94,309.276Z" transform="translate(50.171 29.129)"/><path class="j" d="M420.717,344.723l-61.283-35.4a6.333,6.333,0,0,1-2.644-5.061v-4.539c0-1.952,1.135-2.849,2.644-2l61.283,35.4a6.332,6.332,0,0,1,2.644,5.061v4.539C423.361,344.678,422.181,345.574,420.717,344.723Z" transform="translate(48.172 40.11)"/><path class="h" d="M592.76,226.114h0v-52.9l-66.957,8.92-50.093-28.916c-8.784-5.073-23.038-5.073-31.776,0l-7.8,4.959L327.52,172.662v53.906h0c.125,3.234,2.27,6.435,6.537,8.9l110.422,63.757c8.784,5.073,23.026,5.073,31.776,0L586.1,235.352c4.244-2.451,6.389-5.674,6.537-8.875h0Z" transform="translate(44.224 20.151)"/><path class="l" d="M586.174,169.967,475.751,106.222c-8.784-5.073-23.038-5.073-31.776,0l-109.832,63.87c-8.784,5.073-8.784,13.289,0,18.362l110.422,63.757c8.784,5.073,23.026,5.073,31.776,0l109.844-63.87C594.957,183.268,594.957,175.04,586.174,169.967Z" transform="translate(44.229 13.812)"/><path class="k" d="M527,170.017l-64.336-37.144c-5.13-2.951-13.425-2.951-18.544,0l-63.995,37.212c-5.13,2.962-5.13,7.751,0,10.713l64.335,37.144c5.118,2.951,13.414,2.951,18.532,0L527,180.719C532.12,177.768,532.12,173.036,527,170.017Z" transform="translate(50.8 17.621)"/><path class="j" d="M586.173,176.2l-109.844,63.87c-8.784,5.073-23.026,5.073-31.776,0L334.131,176.326c-3.688-2.134-5.8-4.812-6.4-7.581-.817,3.836,1.294,7.842,6.4,10.781l110.422,63.757c8.784,5.073,23.026,5.073,31.776,0l109.844-63.87c5.1-2.939,7.218-6.957,6.389-10.793C591.972,171.4,589.85,174.079,586.173,176.2Z" transform="translate(44.229 22.741)"/><path class="j" d="M472.35,247.577l-5.22,3.019v-6.038l5.22-3.019Z" transform="translate(63.053 32.575)"/><path class="j" d="M481.992,242.017l-5.232,3.019V239l5.232-3.019Z" transform="translate(64.351 31.825)"/><path class="j" d="M491.632,236.447l-5.232,3.019v-6.037l5.232-3.019Z" transform="translate(65.651 31.074)"/><path class="j" d="M483.752,251.777,478.52,254.8v-6.037l5.232-3.019Z" transform="translate(64.589 33.142)"/><path class="j" d="M492.23,246.877l-5.22,3.019v-6.037l5.22-3.019Z" transform="translate(65.734 32.481)"/><path class="j" d="M522.53,218.607l-5.22,3.019v-6.037l5.22-3.019Z" transform="translate(69.82 28.668)"/><path class="j" d="M549.08,203.277l-5.22,3.019v-6.037l5.22-3.019Z" transform="translate(73.401 26.601)"/><path class="j" d="M501.26,230.887l-5.22,3.019v-6.038l5.22-3.019Z" transform="translate(66.951 30.324)"/><path class="h" d="M592.76,138.64h0V85.7L525.8,94.63,475.756,65.7c-8.784-5.073-23.038-5.073-31.776,0l-7.8,4.959L327.52,85.154v53.895h0c.125,3.223,2.27,6.435,6.537,8.9l110.422,63.745c8.784,5.073,23.026,5.073,31.776,0L586.1,147.821c4.244-2.451,6.389-5.674,6.537-8.863h0Z" transform="translate(44.224 8.348)"/><path class="m" d="M586.179,82.459,475.757,18.7c-8.784-5.073-23.038-5.073-31.776,0L334.1,82.572c-8.784,5.073-8.784,13.3,0,18.373l110.422,63.745c8.784,5.073,23.026,5.073,31.776,0l109.843-63.87C594.963,95.748,594.963,87.532,586.179,82.459Z" transform="translate(44.223 2.009)"/><path class="j" d="M586.173,88.691l-109.844,63.87c-8.784,5.073-23.026,5.073-31.776,0L334.131,88.8c-3.688-2.122-5.8-4.812-6.4-7.581-.817,3.836,1.294,7.842,6.4,10.793l110.422,63.745c8.784,5.073,23.026,5.073,31.776,0l109.844-63.87c5.1-2.939,7.218-6.945,6.389-10.781C591.972,83.879,589.85,86.557,586.173,88.691Z" transform="translate(44.229 10.939)"/><path class="j" d="M472.35,160.056l-5.22,3.019v-6.026l5.22-3.019Z" transform="translate(63.053 20.773)"/><path class="j" d="M481.992,154.5l-5.232,3.019v-6.037l5.232-3.019Z" transform="translate(64.351 20.022)"/><path class="j" d="M491.632,148.937l-5.232,3.019v-6.037l5.232-3.019Z" transform="translate(65.651 19.272)"/><path class="j" d="M483.752,164.257l-5.232,3.019v-6.037l5.232-3.019Z" transform="translate(64.589 21.338)"/><path class="j" d="M492.23,159.357l-5.22,3.019V156.35l5.22-3.03Z" transform="translate(65.734 20.677)"/><path class="j" d="M522.53,131.087l-5.22,3.019v-6.037l5.22-3.019Z" transform="translate(69.82 16.865)"/><path class="j" d="M549.08,115.767l-5.22,3.007v-6.026l5.22-3.019Z" transform="translate(73.401 14.799)"/><path class="j" d="M501.26,143.366l-5.22,3.019v-6.026l5.22-3.019Z" transform="translate(66.951 18.522)"/><path class="e" d="M287.978,521.93a33.445,33.445,0,0,1-16.421-3.9L161.134,454.28c-4.539-2.644-7.1-6.219-7.1-10.078s2.519-7.433,7.1-10.078l109.832-63.859c9.079-5.232,23.832-5.232,32.843,0l110.422,63.779c4.539,2.644,7.1,6.219,7.1,10.078s-2.519,7.422-7.1,10.078L304.4,518.026a33.5,33.5,0,0,1-16.422,3.9Zm-.59-153.593a31.458,31.458,0,0,0-15.366,3.677l-109.855,63.87c-3.927,2.27-6.083,5.209-6.083,8.3s2.156,6.037,6.072,8.3l110.422,63.757c8.489,4.891,22.3,4.891,30.789,0L413.2,452.362c3.927-2.27,6.083-5.209,6.083-8.3s-2.156-6.037-6.083-8.3L302.788,372.014A31.47,31.47,0,0,0,287.388,368.337Z" transform="translate(20.826 49.407)"/><path class="n" d="M420.661,413.24h0V360.31l-66.9,8.92L303.611,340.3c-8.784-5.073-23.038-5.073-31.776,0l-7.8,4.959-108.618,14.5v53.906h0c.125,3.234,2.27,6.435,6.548,8.9l110.411,63.745c8.8,5.073,23.038,5.073,31.776,0l109.832-63.859c4.256-2.463,6.4-5.674,6.537-8.875h.057Z" transform="translate(21.014 45.382)"/><path class="o" d="M414.068,357.023,303.611,293.312c-8.784-5.073-23.038-5.073-31.776,0L162,357.182c-8.784,5.073-8.784,13.289,0,18.362L272.414,439.3c8.8,5.073,23.038,5.073,31.776,0l109.832-63.87C422.863,370.358,422.863,362.13,414.068,357.023Z" transform="translate(21.013 39.044)"/><path class="j" d="M414.066,363.291l-109.832,63.87c-8.784,5.073-23.026,5.073-31.776,0L162,363.416c-3.688-2.134-5.8-4.812-6.4-7.581-.817,3.836,1.294,7.842,6.4,10.781l110.411,63.757c8.8,5.073,23.038,5.073,31.776,0L414.02,366.5c5.107-2.951,7.229-6.957,6.4-10.793C419.876,358.479,417.754,361.169,414.066,363.291Z" transform="translate(21.015 47.973)"/><path class="j" d="M300.25,434.667l-5.22,3.019v-6.037l5.22-3.019Z" transform="translate(39.842 57.807)"/><path class="j" d="M309.892,429.1l-5.232,3.019v-6.026l5.232-3.019Z" transform="translate(41.141 57.057)"/><path class="j" d="M319.52,423.537l-5.22,3.019v-6.038l5.22-3.019Z" transform="translate(42.441 56.306)"/><path class="j" d="M311.652,438.867l-5.232,3.019v-6.037l5.232-3.019Z" transform="translate(41.378 58.373)"/><path class="j" d="M320.132,433.967l-5.232,3.019v-6.037l5.232-3.019Z" transform="translate(42.522 57.713)"/><path class="j" d="M350.43,405.7l-5.22,3.007v-6.026l5.22-3.019Z" transform="translate(46.61 53.9)"/><path class="j" d="M376.982,390.367l-5.232,3.019v-6.037l5.232-3.019Z" transform="translate(50.189 51.832)"/><path class="j" d="M329.16,417.977,323.94,421v-6.038l5.22-3.019Z" transform="translate(43.741 55.556)"/><path class="k" d="M275.84,408.854,201.552,365.99c-3.019-1.736-2.644-4.789.851-6.809l72.631-41.911c3.5-2.02,8.761-2.27,11.78-.488L361.1,359.669c3.019,1.748,2.644,4.789-.84,6.809L287.632,408.4C284.136,410.374,278.859,410.59,275.84,408.854Z" transform="translate(26.961 42.562)"/><path class="j" d="M248.6,444.292l-61.283-35.385a6.344,6.344,0,0,1-2.644-5.061v-4.539c0-1.952,1.135-2.849,2.644-2.009l61.283,35.4a6.332,6.332,0,0,1,2.644,5.061v4.539C251.264,444.247,250.084,445.143,248.6,444.292Z" transform="translate(24.959 53.539)"/><path class="n" d="M420.661,325.73h0v-52.9l-66.9,8.92-50.15-28.962c-8.784-5.073-23.038-5.073-31.776,0l-7.8,4.959L155.42,272.244v53.929h0c.125,3.223,2.27,6.423,6.548,8.9L272.413,398.8c8.8,5.073,23.038,5.073,31.776,0l109.832-63.87c4.256-2.451,6.4-5.674,6.537-8.863h.057Z" transform="translate(21.014 33.58)"/><path class="p" d="M414.068,269.549,303.611,205.792c-8.784-5.073-23.038-5.073-31.776,0L162,269.662c-8.784,5.073-8.784,13.3,0,18.373L272.414,351.8c8.8,5.073,23.038,5.073,31.776,0l109.832-63.87C422.863,282.838,422.863,274.633,414.068,269.549Z" transform="translate(21.013 27.241)"/><path class="k" d="M354.913,269.6l-64.347-37.155c-5.118-2.951-13.414-2.951-18.532,0l-64.018,37.246c-5.118,2.951-5.118,7.74,0,10.7l64.347,37.144c5.118,2.951,13.414,2.951,18.532,0L354.913,280.3C360.02,277.338,360.02,272.549,354.913,269.6Z" transform="translate(27.59 31.05)"/><path class="j" d="M414.066,275.778,304.233,339.637c-8.784,5.073-23.026,5.073-31.776,0L162,275.914c-3.688-2.134-5.8-4.812-6.4-7.581-.817,3.836,1.294,7.842,6.4,10.793l110.411,63.745c8.8,5.073,23.038,5.073,31.776,0L414.02,279c5.107-2.939,7.229-6.945,6.4-10.781C419.876,270.966,417.754,273.645,414.066,275.778Z" transform="translate(21.015 36.173)"/><path class="j" d="M300.25,347.147l-5.22,3.019v-6.038l5.22-3.019Z" transform="translate(39.842 46.004)"/><path class="j" d="M309.892,341.587l-5.232,3.019v-6.037l5.232-3.019Z" transform="translate(41.141 45.254)"/><path class="j" d="M319.52,336.027l-5.22,3.007v-6.026l5.22-3.019Z" transform="translate(42.441 44.504)"/><path class="j" d="M311.652,351.347l-5.232,3.019v-6.038l5.232-3.019Z" transform="translate(41.378 46.57)"/><path class="j" d="M320.132,346.447l-5.232,3.019v-6.037l5.232-3.019Z" transform="translate(42.522 45.909)"/><path class="j" d="M350.43,318.177l-5.22,3.019v-6.038l5.22-3.019Z" transform="translate(46.61 42.097)"/><path class="j" d="M376.982,302.847l-5.232,3.019V299.84l5.232-3.03Z" transform="translate(50.189 40.029)"/><path class="j" d="M329.16,330.457l-5.22,3.019v-6.038l5.22-3.019Z" transform="translate(43.741 43.753)"/><path class="q" d="M420.661,238.21h0V185.268l-66.9,8.931-50.15-28.928c-8.784-5.073-23.038-5.073-31.776,0l-7.8,4.959L155.42,184.769v53.906h0c.125,3.223,2.27,6.435,6.548,8.9l110.411,63.745c8.8,5.073,23.038,5.073,31.776,0l109.832-63.87c4.256-2.451,6.4-5.674,6.537-8.863h.057Z" transform="translate(21.014 21.776)"/><path class="r" d="M414.068,182.027,303.611,118.282c-8.784-5.073-23.038-5.073-31.776,0L162,182.141c-8.784,5.073-8.784,13.3,0,18.373L272.414,264.26c8.8,5.073,23.038,5.073,31.776,0L414.022,200.4C422.863,195.328,422.863,187.1,414.068,182.027Z" transform="translate(21.013 15.439)"/><path class="s" d="M414.068,182.027,303.611,118.282c-8.784-5.073-23.038-5.073-31.776,0L162,182.141c-8.784,5.073-8.784,13.3,0,18.373L272.414,264.26c8.8,5.073,23.038,5.073,31.776,0L414.022,200.4C422.863,195.328,422.863,187.1,414.068,182.027Z" transform="translate(21.013 15.439)"/><path class="t" d="M283.075,240.7a22.947,22.947,0,0,1-11.246-2.724l-73.165-42.24c-3.28-1.9-5.084-4.539-5.084-7.331s1.8-5.436,5.084-7.331l72.768-42.308c6.321-3.654,16.206-3.654,22.527,0l73.153,42.24c3.28,1.9,5.084,4.539,5.084,7.331s-1.8,5.436-5.084,7.331l-72.768,42.319a23.026,23.026,0,0,1-11.269,2.712ZM282.7,138.9a20.076,20.076,0,0,0-9.828,2.338l-72.768,42.319c-2.361,1.362-3.654,3.076-3.654,4.846s1.294,3.484,3.643,4.846l73.165,42.24c5.413,3.121,14.231,3.121,19.645,0l72.779-42.319c2.349-1.362,3.654-3.075,3.654-4.846s-1.305-3.484-3.654-4.846l-73.165-42.24A20.031,20.031,0,0,0,282.7,138.9Z" transform="translate(26.16 18.345)"/><path class="j" d="M414.06,188.261l-109.832,63.87c-8.784,5.073-23.026,5.073-31.776,0L162.041,188.374c-3.688-2.122-5.8-4.812-6.4-7.581-.817,3.847,1.294,7.842,6.4,10.793l110.411,63.757c8.8,5.062,23.038,5.073,31.776,0l109.832-63.87c5.107-2.951,7.229-6.957,6.4-10.793C419.871,183.449,417.749,186.139,414.06,188.261Z" transform="translate(21.021 24.367)"/><path class="j" d="M300.25,259.637l-5.22,3.019v-6.037l5.22-3.019Z" transform="translate(39.842 34.202)"/><path class="j" d="M309.892,254.067l-5.232,3.019v-6.037l5.232-3.019Z" transform="translate(41.141 33.45)"/><path class="j" d="M319.52,248.507l-5.22,3.019v-6.037l5.22-3.019Z" transform="translate(42.441 32.701)"/><path class="j" d="M311.652,263.837l-5.232,3.007v-6.026l5.232-3.019Z" transform="translate(41.378 34.768)"/><path class="j" d="M320.132,258.937l-5.232,3.019v-6.037l5.232-3.019Z" transform="translate(42.522 34.107)"/><path class="j" d="M350.43,230.656l-5.22,3.019v-6.038l5.22-3.007Z" transform="translate(46.61 30.295)"/><path class="j" d="M376.982,215.337l-5.232,3.019v-6.037l5.232-3.019Z" transform="translate(50.189 28.227)"/><path class="j" d="M329.16,242.947l-5.22,3.007v-6.026l5.22-3.019Z" transform="translate(43.741 31.951)"/><path class="e" d="M631.558,521.832a33.467,33.467,0,0,1-16.421-3.927L504.714,454.16c-4.539-2.644-7.1-6.219-7.1-10.066s2.519-7.433,7.1-10.089l109.832-63.859c9.079-5.232,23.832-5.232,32.843,0l110.422,63.745c4.539,2.644,7.1,6.23,7.1,10.078s-2.519,7.422-7.1,10.078L647.979,517.906a33.5,33.5,0,0,1-16.421,3.927Zm-.59-153.592a31.459,31.459,0,0,0-15.389,3.677L505.747,435.775c-3.927,2.27-6.083,5.209-6.083,8.3s2.156,6.037,6.071,8.3l110.422,63.757c8.489,4.9,22.3,4.9,30.789,0L756.8,452.22c3.927-2.27,6.083-5.209,6.083-8.3s-2.156-6.038-6.083-8.3L646.391,371.883a31.47,31.47,0,0,0-15.423-3.643Z" transform="translate(67.163 49.39)"/><path class="h" d="M764.24,413.116h0V360.208l-66.957,8.92-50.093-28.916c-8.784-5.073-23.038-5.073-31.776,0l-7.8,4.959L499,359.652v53.906h0c.125,3.234,2.27,6.435,6.537,8.9l110.422,63.757c8.784,5.073,23.026,5.073,31.776,0l109.844-63.87c4.244-2.451,6.389-5.674,6.537-8.875h0Z" transform="translate(67.351 45.369)"/><path class="u" d="M757.659,356.957,647.237,293.212c-8.784-5.073-23.038-5.073-31.776,0L505.583,357.037c-8.784,5.073-8.784,13.289,0,18.362l110.422,63.757c8.784,5.073,23.026,5.073,31.776,0l109.844-63.87C766.443,370.258,766.443,362.03,757.659,356.957Z" transform="translate(67.35 39.031)"/><path class="j" d="M757.657,363.191l-109.844,63.87c-8.784,5.073-23.026,5.073-31.776,0L505.581,363.316c-3.688-2.134-5.8-4.812-6.4-7.581-.817,3.836,1.294,7.842,6.4,10.781L616,430.273c8.784,5.073,23.026,5.073,31.776,0L757.623,366.4c5.1-2.939,7.218-6.957,6.389-10.793C763.422,358.39,761.334,361.069,757.657,363.191Z" transform="translate(67.352 47.959)"/><path class="j" d="M643.83,434.567l-5.22,3.019v-6.038l5.22-3.019Z" transform="translate(86.179 57.794)"/><path class="j" d="M653.472,429.007l-5.232,3.019v-6.038l5.232-3.019Z" transform="translate(87.478 57.044)"/><path class="j" d="M663.112,423.437l-5.232,3.019v-6.038l5.232-3.019Z" transform="translate(88.778 56.292)"/><path class="j" d="M655.232,438.767,650,441.786v-6.037l5.232-3.019Z" transform="translate(87.715 58.36)"/><path class="j" d="M663.71,433.867l-5.22,3.019v-6.037l5.22-3.019Z" transform="translate(88.86 57.699)"/><path class="j" d="M694.01,405.6l-5.22,3.019v-6.037l5.22-3.019Z" transform="translate(92.947 53.886)"/><path class="j" d="M720.56,390.267l-5.22,3.019v-6.037l5.22-3.019Z" transform="translate(96.527 51.819)"/><path class="j" d="M672.74,417.877l-5.22,3.019v-6.038l5.22-3.019Z" transform="translate(90.078 55.543)"/><path class="k" d="M619.42,408.757l-74.288-42.9c-3.019-1.736-2.644-4.789.851-6.809l72.631-41.911c3.5-2.009,8.761-2.27,11.791-.488l74.288,42.887c3.019,1.748,2.633,4.789-.851,6.809l-72.631,41.911C627.716,410.267,622.428,410.493,619.42,408.757Z" transform="translate(73.297 42.544)"/><path class="j" d="M592.2,444.2l-61.283-35.4a6.344,6.344,0,0,1-2.644-5.061v-4.539c0-1.952,1.135-2.849,2.644-2.009l61.283,35.4a6.333,6.333,0,0,1,2.644,5.061v4.539C594.841,444.147,593.661,445.043,592.2,444.2Z" transform="translate(71.298 53.525)"/><path class="h" d="M764.24,325.63h0V272.688l-66.957,8.931-50.093-28.928c-8.784-5.073-23.038-5.073-31.776,0l-7.8,4.959L499,272.144v53.895h0c.125,3.223,2.27,6.435,6.537,8.9l110.422,63.745c8.784,5.073,23.026,5.073,31.776,0l109.844-63.87c4.244-2.451,6.389-5.674,6.537-8.863h0Z" transform="translate(67.351 33.566)"/><path class="v" d="M757.659,269.449,647.237,205.692c-8.784-5.073-23.038-5.073-31.776,0l-109.878,63.87c-8.784,5.073-8.784,13.3,0,18.373l110.422,63.745c8.784,5.073,23.026,5.073,31.776,0l109.844-63.87C766.443,282.738,766.443,274.522,757.659,269.449Z" transform="translate(67.35 27.227)"/><path class="k" d="M698.481,269.5l-64.336-37.144c-5.13-2.962-13.425-2.962-18.544,0l-63.995,37.212c-5.13,2.951-5.13,7.74,0,10.7l64.336,37.1c5.118,2.962,13.414,2.962,18.532,0l64.006-37.212C703.6,277.238,703.6,272.449,698.481,269.5Z" transform="translate(73.927 31.037)"/><path class="j" d="M757.653,275.681l-109.844,63.87c-8.784,5.073-23.026,5.073-31.776,0L505.611,275.794c-3.688-2.122-5.8-4.812-6.4-7.581-.817,3.836,1.294,7.842,6.4,10.793l110.422,63.745c8.784,5.073,23.026,5.073,31.776,0l109.844-63.87c5.1-2.939,7.218-6.945,6.389-10.781C763.418,270.869,761.33,273.547,757.653,275.681Z" transform="translate(67.356 36.157)"/><path class="j" d="M643.83,347.046l-5.22,3.019v-6.026l5.22-3.019Z" transform="translate(86.179 45.991)"/><path class="j" d="M653.472,341.487l-5.232,3.019v-6.037l5.232-3.019Z" transform="translate(87.478 45.24)"/><path class="j" d="M663.112,335.927l-5.232,3.019v-6.037l5.232-3.019Z" transform="translate(88.778 44.49)"/><path class="j" d="M655.232,351.247,650,354.266v-6.038l5.232-3.019Z" transform="translate(87.715 46.557)"/><path class="j" d="M663.71,346.346l-5.22,3.019v-6.026l5.22-3.019Z" transform="translate(88.86 45.897)"/><path class="j" d="M694.01,318.077l-5.22,3.019v-6.037l5.22-3.019Z" transform="translate(92.947 42.083)"/><path class="j" d="M720.56,302.757l-5.22,3.007v-6.026l5.22-3.019Z" transform="translate(96.527 40.017)"/><path class="j" d="M672.74,330.357l-5.22,3.019v-6.037l5.22-3.019Z" transform="translate(90.078 43.739)"/><path class="h" d="M764.24,238.121h0V185.18l-66.957,8.92-50.093-28.928c-8.784-5.073-23.038-5.073-31.776,0l-7.8,4.959L499,184.624V238.53h0c.125,3.234,2.27,6.435,6.537,8.9l110.422,63.745c8.784,5.073,23.026,5.073,31.776,0l109.844-63.859c4.244-2.463,6.389-5.674,6.537-8.875h0Z" transform="translate(67.351 21.763)"/><path class="w" d="M757.659,181.927,647.237,118.182c-8.784-5.073-23.038-5.073-31.776,0L505.583,182.041c-8.784,5.073-8.784,13.289,0,18.362L616.005,264.16c8.784,5.073,23.026,5.073,31.776,0l109.844-63.87C766.443,195.228,766.443,187,757.659,181.927Z" transform="translate(67.35 15.425)"/><path class="j" d="M757.653,188.161l-109.844,63.87c-8.784,5.073-23.026,5.073-31.776,0L505.611,188.286c-3.688-2.134-5.8-4.812-6.4-7.581-.817,3.836,1.294,7.842,6.4,10.781l110.422,63.757c8.784,5.073,23.026,5.073,31.776,0l109.844-63.87c5.1-2.951,7.218-6.957,6.389-10.793C763.418,183.326,761.33,186.039,757.653,188.161Z" transform="translate(67.356 24.354)"/><path class="j" d="M643.83,259.537l-5.22,3.019v-6.037l5.22-3.019Z" transform="translate(86.179 34.188)"/><path class="j" d="M653.472,253.966l-5.232,3.019v-6.026l5.232-3.019Z" transform="translate(87.478 33.438)"/><path class="j" d="M663.112,248.407l-5.232,3.019v-6.037l5.232-3.019Z" transform="translate(88.778 32.687)"/><path class="j" d="M655.232,263.737,650,266.756v-6.037l5.232-3.019Z" transform="translate(87.715 34.755)"/><path class="j" d="M663.71,258.837l-5.22,3.019v-6.037l5.22-3.019Z" transform="translate(88.86 34.094)"/><path class="j" d="M694.01,230.567l-5.22,3.007v-6.026l5.22-3.019Z" transform="translate(92.947 30.281)"/><path class="j" d="M720.56,215.237l-5.22,3.019v-6.037l5.22-3.019Z" transform="translate(96.527 28.214)"/><path class="j" d="M672.74,242.847l-5.22,3.019v-6.037l5.22-3.019Z" transform="translate(90.078 31.937)"/><path class="e" d="M459.447,621.4a33.545,33.545,0,0,1-16.41-3.915L332.614,553.73c-4.539-2.644-7.1-6.219-7.1-10.066s2.519-7.433,7.1-10.078l109.832-63.87c9.079-5.232,23.832-5.232,32.843,0l110.422,63.745c4.539,2.644,7.1,6.23,7.1,10.078s-2.519,7.433-7.1,10.078l-109.844,63.87A33.639,33.639,0,0,1,459.447,621.4Zm-.6-153.581a31.459,31.459,0,0,0-15.389,3.677L333.624,535.357c-3.927,2.27-6.083,5.209-6.083,8.307s2.156,6.026,6.072,8.3l110.479,63.745c8.489,4.9,22.3,4.9,30.789,0l109.832-63.87c3.927-2.27,6.083-5.209,6.083-8.3s-2.156-6.037-6.072-8.3L474.3,471.5A31.47,31.47,0,0,0,458.845,467.821Z" transform="translate(43.953 62.819)"/><path class="x" d="M554.341,534.289l-86.477-49.934c-6.889-3.983-18.044-3.983-24.967,0l-86.034,50.013c-6.877,3.983-6.877,10.418,0,14.39l86.488,49.934c6.877,3.972,18.044,3.972,24.967,0l86.034-50.025C561.229,544.673,561.229,538.227,554.341,534.289Z" transform="translate(47.486 64.919)"/><path class="y" d="M592.141,512.713h0V459.828l-66.9,8.92-50.093-28.916c-8.784-5.073-23.038-5.073-31.776,0l-7.8,4.959L326.9,459.227v53.94h0c.125,3.223,2.27,6.423,6.548,8.9L443.9,585.8c8.8,5.073,23.038,5.073,31.776,0l109.832-63.87c4.256-2.451,6.4-5.674,6.537-8.863h0Z" transform="translate(44.14 58.805)"/><path class="z" d="M585.548,456.539,475.137,392.782c-8.784-5.073-23.038-5.073-31.776,0l-109.878,63.87c-8.784,5.073-8.784,13.3,0,18.373l110.422,63.779c8.8,5.073,23.038,5.073,31.776,0l109.832-63.87C594.343,469.828,594.343,461.634,585.548,456.539Z" transform="translate(44.14 52.459)"/><path class="j" d="M585.546,462.767,475.679,526.626c-8.784,5.073-23.026,5.073-31.776,0L333.481,462.914c-3.688-2.134-5.811-4.812-6.4-7.581-.817,3.836,1.294,7.842,6.4,10.793L443.9,529.871c8.8,5.073,23.038,5.073,31.776,0L585.512,466c5.107-2.939,7.229-6.945,6.4-10.781C591.356,457.955,589.234,460.645,585.546,462.767Z" transform="translate(44.142 61.393)"/><path class="j" d="M471.73,534.137l-5.22,3.019v-6.038l5.22-3.019Z" transform="translate(62.969 71.222)"/><path class="j" d="M481.372,528.577,476.14,531.6v-6.037l5.232-3.019Z" transform="translate(64.268 70.472)"/><path class="j" d="M491,523.006l-5.22,3.03V520L491,516.98Z" transform="translate(65.568 69.722)"/><path class="j" d="M483.132,538.337l-5.232,3.019v-6.037l5.232-3.019Z" transform="translate(64.505 71.788)"/><path class="j" d="M491.612,533.437l-5.232,3.019v-6.037l5.232-3.019Z" transform="translate(65.649 71.128)"/><path class="j" d="M521.91,505.167l-5.22,3.019v-6.037l5.22-3.019Z" transform="translate(69.736 67.315)"/><path class="j" d="M548.462,489.836l-5.232,3.019v-6.037l5.232-3.007Z" transform="translate(73.316 65.249)"/><path class="j" d="M500.64,517.447l-5.22,3.019v-6.037l5.22-3.019Z" transform="translate(66.868 68.971)"/><path class="k" d="M447.32,508.326l-74.288-42.887c-3.019-1.748-2.644-4.789.851-6.809l72.631-41.911c3.5-2.009,8.761-2.27,11.78-.488l74.288,42.887c3.019,1.748,2.644,4.789-.84,6.809l-72.631,41.911C455.616,509.846,450.339,510.073,447.32,508.326Z" transform="translate(50.087 55.974)"/><path class="j" d="M420.1,543.774l-61.283-35.4a6.333,6.333,0,0,1-2.644-5.062v-4.539c0-1.952,1.135-2.849,2.644-2.009l61.283,35.4a6.344,6.344,0,0,1,2.644,5.062v4.539C422.741,543.717,421.561,544.613,420.1,543.774Z" transform="translate(48.088 66.954)"/><path class="h" d="M592.141,425.2h0V372.258l-66.9,8.931-50.093-28.928c-8.784-5.073-23.038-5.073-31.776,0l-7.8,4.959L326.9,371.77v53.906h0c.125,3.223,2.27,6.435,6.548,8.9L443.9,498.251c8.8,5.073,23.038,5.073,31.776,0l109.832-63.87c4.256-2.451,6.4-5.674,6.537-8.863h0Z" transform="translate(44.14 46.995)"/><path class="aa" d="M585.548,369.027,475.137,305.282c-8.784-5.073-23.038-5.073-31.776,0L333.483,369.13c-8.784,5.073-8.784,13.3,0,18.373l110.422,63.745c8.8,5.073,23.038,5.073,31.776,0L585.514,387.39C594.343,382.317,594.343,374.089,585.548,369.027Z" transform="translate(44.14 40.659)"/><path class="k" d="M526.387,369.068,462.04,331.924c-5.118-2.962-13.414-2.962-18.532,0l-64.052,37.212c-5.118,2.951-5.118,7.751,0,10.7L443.8,416.982c5.118,2.962,13.414,2.962,18.532,0l64.006-37.212C531.528,376.819,531.528,372.03,526.387,369.068Z" transform="translate(50.711 44.465)"/><path class="j" d="M585.546,375.251l-109.866,63.87c-8.784,5.073-23.026,5.073-31.776,0L333.481,375.364c-3.688-2.122-5.811-4.812-6.4-7.581-.817,3.836,1.294,7.842,6.4,10.793L443.9,442.333c8.8,5.061,23.038,5.061,31.776,0l109.832-63.87c5.107-2.951,7.229-6.957,6.4-10.793C591.356,370.439,589.234,373.129,585.546,375.251Z" transform="translate(44.142 49.586)"/><path class="j" d="M471.73,446.627l-5.22,3.019v-6.038l5.22-3.019Z" transform="translate(62.969 59.42)"/><path class="j" d="M481.372,441.057l-5.232,3.019v-6.038l5.232-3.019Z" transform="translate(64.268 58.669)"/><path class="j" d="M491,435.5l-5.22,3.019v-6.038L491,429.46Z" transform="translate(65.568 57.919)"/><path class="j" d="M483.132,450.827l-5.232,3.007v-6.026l5.232-3.019Z" transform="translate(64.505 59.986)"/><path class="j" d="M491.612,445.927l-5.232,3.019v-6.037l5.232-3.019Z" transform="translate(65.649 59.326)"/><path class="j" d="M521.91,417.646l-5.22,3.019v-6.037l5.22-3.007Z" transform="translate(69.736 55.513)"/><path class="j" d="M548.462,402.327l-5.232,3.019v-6.037l5.232-3.019Z" transform="translate(73.316 53.445)"/><path class="j" d="M500.64,429.937l-5.22,3.019v-6.038l5.22-3.019Z" transform="translate(66.868 57.169)"/><path class="h" d="M592.141,337.69h0V284.748l-66.9,8.92-50.1-28.916c-8.784-5.073-23.038-5.073-31.776,0l-7.8,4.959L326.9,284.192V338.1h0c.125,3.234,2.27,6.435,6.548,8.9L443.9,410.741c8.8,5.073,23.038,5.073,31.776,0l109.832-63.87c4.256-2.451,6.4-5.674,6.537-8.863h0Z" transform="translate(44.14 35.193)"/><path class="ab" d="M585.548,281.5,475.137,217.752c-8.784-5.073-23.038-5.073-31.776,0l-109.878,63.87c-8.784,5.073-8.784,13.289,0,18.362l110.422,63.757c8.8,5.073,23.038,5.073,31.776,0l109.832-63.87C594.343,294.8,594.343,286.57,585.548,281.5Z" transform="translate(44.14 28.854)"/><path class="j" d="M585.546,287.731,475.679,351.6c-8.784,5.073-23.026,5.073-31.776,0L333.481,287.856c-3.688-2.134-5.811-4.812-6.4-7.581-.817,3.836,1.294,7.842,6.4,10.781L443.9,354.813c8.8,5.073,23.038,5.073,31.776,0l109.832-63.87c5.107-2.939,7.229-6.945,6.4-10.793C591.356,282.93,589.234,285.654,585.546,287.731Z" transform="translate(44.142 37.782)"/><path class="j" d="M471.73,359.107l-5.22,3.019v-6.037l5.22-3.019Z" transform="translate(62.969 47.617)"/><path class="j" d="M481.372,353.547l-5.232,3.019v-6.037l5.232-3.019Z" transform="translate(64.268 46.867)"/><path class="j" d="M491,347.977,485.78,351v-6.037L491,341.94Z" transform="translate(65.568 46.116)"/><path class="j" d="M483.132,363.307l-5.232,3.019v-6.038l5.232-3.019Z" transform="translate(64.505 48.183)"/><path class="j" d="M491.612,358.407l-5.232,3.019v-6.037l5.232-3.019Z" transform="translate(65.649 47.522)"/><path class="j" d="M521.91,330.137l-5.22,3.019v-6.037l5.22-3.019Z" transform="translate(69.736 43.71)"/><path class="j" d="M548.462,314.807l-5.232,3.019v-6.038l5.232-3.019Z" transform="translate(73.316 41.642)"/><path class="j" d="M500.64,342.417l-5.22,3.019V339.4l5.22-3.019Z" transform="translate(66.868 45.366)"/><rect class="e" width="2.054" height="219.471" transform="translate(766.554 537.25) rotate(-60)"/><path class="e" d="M941.2,539.689l-60.738-35.067a50.049,50.049,0,0,0-20.7-5.9L794.58,493.6a52.2,52.2,0,0,1-21.562-6.174L712.28,452.362l1.033-1.782,60.727,35.067a50.048,50.048,0,0,0,20.677,5.9l65.187,5.13a52.2,52.2,0,0,1,21.562,6.174l60.727,35.067Z" transform="translate(96.115 60.767)"/><path class="e" d="M789.806,627.075l-60.727-35.067c-5.913-3.4-9.805-7.944-10.951-12.847l-8.875-37.632c-1.01-4.3-4.539-8.4-9.975-11.53L638.54,494.932l1.033-1.782,60.772,35.067c5.924,3.4,9.805,7.944,10.951,12.847l8.875,37.632c1.021,4.312,4.539,8.409,9.987,11.53l60.727,35.067Z" transform="translate(86.17 66.508)"/><path class="e" d="M827.65,605.224l-64.687-37.371a26.839,26.839,0,0,1-7.865-6.594L729,527.736a24.865,24.865,0,0,0-7.309-6.083L657,484.282l1.021-1.782,64.687,37.371a26.82,26.82,0,0,1,7.865,6.594l26.1,33.524a24.717,24.717,0,0,0,7.274,6.072l64.687,37.371Z" transform="translate(88.659 65.072)"/><path class="e" d="M903.317,561.537l-64.687-37.371A43.006,43.006,0,0,0,827.9,519.9l-58.082-15.048a45.394,45.394,0,0,1-11.235-4.539L693.9,462.94l1.033-1.77,64.687,37.371a43.121,43.121,0,0,0,10.713,4.267l58.06,15.048a44.932,44.932,0,0,1,11.224,4.471L904.3,559.7Z" transform="translate(93.636 62.195)"/><rect class="e" width="226.689" height="2.054" transform="translate(0 623.667) rotate(-29.96)"/><rect class="e" width="226.689" height="2.054" transform="translate(28.071 639.881) rotate(-29.96)"/><rect class="e" width="226.689" height="2.054" transform="translate(56.16 656.093) rotate(-29.96)"/><rect class="e" width="226.689" height="2.054" transform="translate(84.221 672.3) rotate(-29.96)"/></g></g></svg>