<svg xmlns="http://www.w3.org/2000/svg" xmlns:xlink="http://www.w3.org/1999/xlink" width="757.987" height="519.708" viewBox="0 0 757.987 519.708"><defs><style>.a{fill:none;}.b{opacity:0.36;}.c{fill:#c4c4cc;}.d,.y,.z{fill:#e84242;}.e{fill:url(#a);}.f{fill:url(#b);}.g{fill:#fff;}.h{fill:#8a8fa2;}.i{fill:#dcddf2;}.j{fill:#c9cbdb;}.k{fill:#06001f;}.l{fill:url(#c);}.m{fill:url(#d);}.n{fill:url(#e);}.o,.x{fill:#c8c7d4;}.p{fill:url(#f);}.q{fill:url(#g);}.r{fill:url(#h);}.s{fill:url(#i);}.t{fill:url(#j);}.u{fill:#e6e6ff;}.v{fill:url(#k);}.w,.x{opacity:0.51;}.y{opacity:0.1;}.z{opacity:0.4;}.aa{fill:#f32222;}.ab{fill:url(#m);}.ac{fill:url(#n);}.ad{fill:url(#o);}.ae{fill:url(#p);}.af{fill:url(#q);}.ag{opacity:0.11;}.ah{clip-path:url(#r);}.ai{fill:url(#s);}.aj{fill:url(#t);}.ak{opacity:0.8;}.al{fill:url(#u);}.am{fill:url(#v);}.an{fill:url(#w);}.ao{fill:url(#x);}.ap{fill:url(#y);}.aq{fill:url(#z);}.ar{clip-path:url(#aa);}.as{fill:url(#ab);}.at{fill:url(#ac);}</style><linearGradient id="a" x1="19.714" y1="0.5" x2="20.714" y2="0.5" gradientUnits="objectBoundingBox"><stop offset="0" stop-color="#c4c5d7"/><stop offset="0.3" stop-color="#c8c9dc"/><stop offset="0.66" stop-color="#d4d5ea"/><stop offset="1" stop-color="#e6e6ff"/></linearGradient><linearGradient id="b" x1="20.038" y1="0.5" x2="21.038" y2="0.5" gradientUnits="objectBoundingBox"><stop offset="0" stop-color="#e0e0f6"/><stop offset="0.4" stop-color="#e5e5f7"/><stop offset="0.88" stop-color="#f3f3fc"/><stop offset="1" stop-color="#f8f8fd"/></linearGradient><linearGradient id="c" x1="76.969" y1="0.5" x2="77.969" y2="0.5" xlink:href="#b"/><linearGradient id="d" x1="27.848" y1="0.5" x2="28.848" y2="0.5" xlink:href="#b"/><linearGradient id="e" x1="162.159" y1="0.5" x2="163.159" y2="0.5" xlink:href="#a"/><linearGradient id="f" x1="-1.389" y1="0.5" x2="-0.389" y2="0.5" xlink:href="#a"/><linearGradient id="g" x1="-1.052" y1="0.5" x2="-0.052" y2="0.5" xlink:href="#b"/><linearGradient id="h" x1="-6.202" y1="0.5" x2="-5.203" y2="0.5" xlink:href="#b"/><linearGradient id="i" x1="-1.552" y1="0.5" x2="-0.552" y2="0.5" xlink:href="#b"/><linearGradient id="j" x1="-13.867" y1="0.5" x2="-12.866" y2="0.5" xlink:href="#a"/><linearGradient id="k" x1="0.5" y1="0.777" x2="0.5" y2="0.021" xlink:href="#b"/><linearGradient id="m" x1="22.73" y1="0.5" x2="23.73" y2="0.5" xlink:href="#b"/><linearGradient id="n" x1="132.294" y1="0.5" x2="133.293" y2="0.5" xlink:href="#a"/><linearGradient id="o" x1="16.088" y1="0.5" x2="17.088" y2="0.5" xlink:href="#a"/><linearGradient id="p" x1="16.416" y1="0.5" x2="17.416" y2="0.5" xlink:href="#b"/><linearGradient id="q" x1="62.825" y1="0.501" x2="63.825" y2="0.501" xlink:href="#b"/><clipPath id="r"><path class="a" d="M395.212,80.58,212.24,186.235,234.915,320.01,417.778,214.442Z" transform="translate(-212.24 -80.58)"/></clipPath><linearGradient id="s" x1="16.414" y1="0.5" x2="17.414" y2="0.5" xlink:href="#b"/><linearGradient id="t" x1="62.824" y1="0.5" x2="63.825" y2="0.5" xlink:href="#b"/><linearGradient id="u" y1="0.5" x2="1" y2="0.5" gradientUnits="objectBoundingBox"><stop offset="0" stop-color="#c4c5d7"/><stop offset="0.14" stop-color="#c6c1d2"/><stop offset="0.29" stop-color="#cab5c5"/><stop offset="0.45" stop-color="#d2a1af"/><stop offset="0.62" stop-color="#dc8690"/><stop offset="0.79" stop-color="#ea6268"/><stop offset="0.96" stop-color="#fb3738"/><stop offset="1" stop-color="#ff2c2c"/></linearGradient><linearGradient id="v" x1="-3.135" y1="0.5" x2="-2.135" y2="0.5" xlink:href="#b"/><linearGradient id="w" x1="-23.02" y1="0.5" x2="-22.022" y2="0.5" xlink:href="#a"/><linearGradient id="x" x1="-1.738" y1="0.5" x2="-0.738" y2="0.5" xlink:href="#a"/><linearGradient id="y" x1="-1.4" y1="0.5" x2="-0.4" y2="0.5" xlink:href="#b"/><linearGradient id="z" x1="-5.743" y1="0.501" x2="-4.743" y2="0.501" xlink:href="#b"/><clipPath id="aa"><path class="a" d="M95.445,80.58,278.418,186.235l-22.7,133.775L72.88,214.442Z" transform="translate(-72.88 -80.58)"/></clipPath><linearGradient id="ab" x1="-2.165" y1="0.5" x2="-1.165" y2="0.5" xlink:href="#b"/><linearGradient id="ac" x1="-10.567" y1="0.5" x2="-9.567" y2="0.5" xlink:href="#b"/></defs><g transform="translate(-35.481 -0.008)"><g transform="translate(0 0.008)"><g class="b" transform="translate(138.913 136.424)"><path class="c" d="M338.929,380.393,63.53,221.386,338.929,62.4l275.4,158.986Z" transform="translate(-63.53 -62.4)"/></g><g transform="translate(43.578 110.337)"><path class="d" d="M127.772,218.574a16.684,16.684,0,0,1-8.418-2.187L22.379,160.412a4.861,4.861,0,0,1,0-8.44L197.851,50.6a.94.94,0,0,1,.962,0l.809.459,104.1,60.109a4.854,4.854,0,0,1,0,8.44L136.19,216.322A16.683,16.683,0,0,1,127.772,218.574Zm70.561-166L23.407,153.589a2.886,2.886,0,0,0-1.465,2.536,2.93,2.93,0,0,0,1.465,2.536l96.974,55.976a15.306,15.306,0,0,0,14.912,0l167.535-96.712a2.952,2.952,0,0,0,0-5.073Z" transform="translate(-19.93 -50.469)"/></g><path class="e" d="M320.617,95.234l-10.168,5.313L208.359,41.619a7.391,7.391,0,0,0-6.56.262L25.649,143.535c-1.684-.94-9.359-4.636-9.359-4.636l3.739,9.708h0a2.187,2.187,0,0,0,1.05,1.159l107.492,62.077a7.434,7.434,0,0,0,6.56-.284L315.282,107.544a3.149,3.149,0,0,0,1.509-1.6h0Z" transform="translate(19.329 48.603)"/><path class="f" d="M319.079,103.573,134.445,210.19a7.609,7.609,0,0,1-6.822.284L17.441,146.845c-1.749-1.006-1.531-2.777.481-3.936l184.634-106.6a7.588,7.588,0,0,1,6.844-.284L319.626,99.637C321.331,100.643,321.113,102.37,319.079,103.573Z" transform="translate(19.293 41.926)"/><path class="g" d="M319.055,67.019l-184.634,106.6a7.609,7.609,0,0,1-6.822.284L17.417,110.292a2.187,2.187,0,0,1-1.071-1.2,1.837,1.837,0,0,0,1.071,2.187L127.6,174.9a7.609,7.609,0,0,0,6.822-.284L319.055,68c1.378-.765,1.88-1.837,1.574-2.733A3.346,3.346,0,0,1,319.055,67.019Z" transform="translate(19.317 77.43)"/><path class="h" d="M44.84,105.982v-2.034c0-.175,0-.262.262-.2l7.15,4.133a.678.678,0,0,1,.262.5V110.4c0,.2-.131.284-.262.2l-7.063-4.089a.612.612,0,0,1-.35-.525Z" transform="translate(53.206 123.065)"/><path class="h" d="M49.73,108.8v-2.033c0-.175.109-.262.241-.2l7.15,4.133a.612.612,0,0,1,.262.5v2.012c0,.2,0,.284-.262.2l-7.15-4.111A.656.656,0,0,1,49.73,108.8Z" transform="translate(59.008 126.411)"/><path class="i" d="M45.508,141.32,198.94,52.72a3.3,3.3,0,0,1,3.3,0l54.664,31.618a1.181,1.181,0,0,1,0,2.034L103.539,174.928a3.3,3.3,0,0,1-3.3,0L45.573,143.353a1.181,1.181,0,0,1-.066-2.034Z" transform="translate(53.347 62.013)"/><path class="j" d="M45.488,143.29l.547.328L198.92,55.346a3.3,3.3,0,0,1,3.3,0l54.1,31.334.547-.328a1.181,1.181,0,0,0,0-2.033L202.2,52.7a3.3,3.3,0,0,0-3.3,0L45.488,141.344a1.181,1.181,0,0,0,0,1.946Z" transform="translate(53.367 61.99)"/><path class="k" d="M199.277,57.973,57.937,139.554l-7-2.8L193.351,54.54Z" transform="translate(60.444 64.698)"/><path class="k" d="M196.472,61.791,71.466,133.97l-5.926-3.411L190.546,58.38Z" transform="translate(77.768 69.254)"/><path class="k" d="M212.834,64.291,65.656,149.261,59.73,145.85,206.908,60.88Z" transform="translate(70.874 72.221)"/><path class="k" d="M217.176,66.8l-147.2,84.97-5.926-3.411L211.25,63.37Z" transform="translate(76 75.175)"/><path class="k" d="M221.484,69.3,74.306,154.273l-5.926-3.411L215.558,65.87Z" transform="translate(81.138 78.142)"/><path class="k" d="M60.571,95.271,54.646,98.7,48.72,95.271l5.926-3.411Z" transform="translate(57.81 108.981)"/><path class="k" d="M90.739,92.972,61.286,109.984l-5.926-3.433L85.01,89.43Z" transform="translate(65.689 106.097)"/><path class="l" d="M89.383,98.835l41.37-23.877a1.793,1.793,0,0,0,0-3.389L102.459,55.235a6.56,6.56,0,0,0-5.86,0l-41.37,23.9c-1.618.918-1.618,2.427,0,3.367L83.523,98.835A6.56,6.56,0,0,0,89.383,98.835Z" transform="translate(64.093 64.703)"/><path class="j" d="M55.217,80.512l41.37-23.9a6.56,6.56,0,0,1,5.86,0l28.294,16.421a2.667,2.667,0,0,1,1.028,1.006c.415-.809,0-1.727-1.028-2.383L102.447,55.235a6.56,6.56,0,0,0-5.86,0l-41.37,23.9c-1.115.634-1.443,1.552-1.006,2.362A2.711,2.711,0,0,1,55.217,80.512Z" transform="translate(64.104 64.703)"/><path class="m" d="M272.245,141.112,248.893,2.636l1.88-.787L247.952.231h0a2.187,2.187,0,0,0-2.187.153L59.251,108.094a5.27,5.27,0,0,0-2.427,4.723L80.352,252.408a1.793,1.793,0,0,0,.984,1.421h0l2.755,1.6.481-2.58h-.153L269.818,145.7A5.27,5.27,0,0,0,272.245,141.112Z" transform="translate(67.417 -0.008)"/><path class="n" d="M60.308,51.906,57.225,50.55a4.373,4.373,0,0,0-.394,2.3L80.359,192.437a1.793,1.793,0,0,0,.984,1.421h0l2.755,1.6.481-2.58h-.153l9.38-5.423Z" transform="translate(67.409 59.963)"/><path class="o" d="M271.158,146.561,84.622,254.25c-1.443.853-2.668.372-2.93-1.137L58.164,113.544a5.313,5.313,0,0,1,2.427-4.745L247.128,1.22c1.443-.831,2.668-.35,2.93,1.137l23.528,139.46a5.27,5.27,0,0,1-2.427,4.745Z" transform="translate(69.007 0.949)"/><g transform="translate(499.144 110.337)"><path class="d" d="M406.686,218.574a16.618,16.618,0,0,1-8.418-2.187L230.732,119.61a4.854,4.854,0,0,1,0-8.44L335.688,50.6a.94.94,0,0,1,.962,0l175.472,101.3a4.86,4.86,0,0,1,0,8.44l-96.974,55.976A16.749,16.749,0,0,1,406.686,218.574Zm-70.561-166-.328.175-104.1,60.109a2.93,2.93,0,0,0,0,5.073L399.23,214.639h0a15.175,15.175,0,0,0,14.891,0l97-55.867a2.952,2.952,0,0,0,1.443-2.536,2.908,2.908,0,0,0-1.443-2.536Z" transform="translate(-228.277 -50.469)"/></g><path class="p" d="M223.65,95.231l10.168,5.313L335.931,41.616a7.434,7.434,0,0,1,6.56.262L518.553,143.532c1.684-.94,9.359-4.636,9.359-4.636l-3.717,9.708h0a2.186,2.186,0,0,1-1.05,1.159L415.653,211.841a7.435,7.435,0,0,1-6.669-.284L228.788,107.52a3.3,3.3,0,0,1-1.531-1.6h0Z" transform="translate(265.377 48.606)"/><path class="q" d="M225.262,103.572,409.919,210.19a7.609,7.609,0,0,0,6.822.284l110.181-63.629c1.749-1.006,1.531-2.777-.481-3.936L341.785,36.314a7.544,7.544,0,0,0-6.822-.284L224.781,99.637C223.032,100.642,223.251,102.37,225.262,103.572Z" transform="translate(265.317 41.926)"/><path class="g" d="M225.254,66.984l184.656,106.6a7.609,7.609,0,0,0,6.822.284l110.181-63.607a2.187,2.187,0,0,0,1.071-1.2,1.859,1.859,0,0,1-1.071,2.187L416.732,174.869a7.609,7.609,0,0,1-6.822-.284L225.254,68.033c-1.356-.765-1.88-1.837-1.552-2.733A3.389,3.389,0,0,0,225.254,66.984Z" transform="translate(265.326 77.465)"/><path class="h" d="M338.445,105.982v-2.034c0-.175-.131-.262-.262-.2l-7.15,4.133a.678.678,0,0,0-.262.5V110.4c0,.2.131.284.262.2l7.15-4.111a.678.678,0,0,0,.262-.5Z" transform="translate(392.483 123.065)"/><path class="h" d="M333.555,108.8v-2.033c0-.175-.109-.262-.262-.2l-7.15,4.133a.612.612,0,0,0-.262.5v2.012c0,.2.109.284.262.2l7.128-4.111a.612.612,0,0,0,.284-.5Z" transform="translate(386.68 126.411)"/><path class="i" d="M448.943,141.367,295.511,52.68a3.3,3.3,0,0,0-3.3,0L237.545,84.3a1.181,1.181,0,0,0,0,2.034l153.366,88.556a3.3,3.3,0,0,0,3.3,0l54.664-31.574a1.181,1.181,0,0,0,.066-1.946Z" transform="translate(281.176 61.966)"/><path class="j" d="M448.931,143.29l-.547.328L295.5,55.346a3.3,3.3,0,0,0-3.3,0L238.1,86.679l-.547-.328a1.181,1.181,0,0,1,0-2.033L292.219,52.7a3.3,3.3,0,0,1,3.3,0l153.41,88.644a1.181,1.181,0,0,1,0,1.946Z" transform="translate(281.188 61.99)"/><path class="k" d="M260.34,57.973l141.34,81.581,7-2.8L266.266,54.54Z" transform="translate(308.912 64.698)"/><path class="k" d="M253.7,61.791,378.706,133.97l5.926-3.411L259.626,58.38Z" transform="translate(301.033 69.254)"/><path class="k" d="M249.37,64.291l147.178,84.97,5.926-3.411L255.3,60.88Z" transform="translate(295.896 72.221)"/><path class="k" d="M245.04,66.8l147.2,84.97,5.926-3.411L250.966,63.37Z" transform="translate(290.758 75.175)"/><path class="k" d="M240.71,69.3l147.2,84.97,5.926-3.411L246.636,65.87Z" transform="translate(285.62 78.142)"/><path class="k" d="M324.98,95.271l5.926,3.433,5.926-3.433-5.926-3.411Z" transform="translate(385.612 108.981)"/><path class="k" d="M307.58,92.972l29.431,17.012,5.926-3.433L313.287,89.43Z" transform="translate(364.966 106.097)"/><path class="r" d="M332.047,98.844,290.655,74.966a1.793,1.793,0,0,1,0-3.389l28.425-16.334a6.385,6.385,0,0,1,5.838,0l41.37,23.9c1.618.918,1.618,2.427,0,3.367L337.907,98.844a6.56,6.56,0,0,1-5.86,0Z" transform="translate(343.451 64.694)"/><path class="j" d="M366.168,80.52l-41.37-23.9a6.56,6.56,0,0,0-5.838,0L290.644,73.042a2.668,2.668,0,0,0-1.028,1.006c-.416-.809,0-1.727,1.028-2.383L319.07,55.243a6.385,6.385,0,0,1,5.838,0l41.37,23.9c1.137.634,1.443,1.552,1.028,2.362a2.623,2.623,0,0,0-1.137-.984Z" transform="translate(343.462 64.694)"/><path class="s" d="M223.781,141.112,247.112,2.636l-1.859-.787L248.074.231h0a2.187,2.187,0,0,1,2.187.153L436.8,108.094a5.2,5.2,0,0,1,2.405,4.723L415.675,252.408a1.771,1.771,0,0,1-.962,1.421h0l-2.777,1.6-.459-2.58h.153L226.23,145.7A5.27,5.27,0,0,1,223.781,141.112Z" transform="translate(265.53 -0.008)"/><path class="t" d="M338.888,51.906l3.061-1.356a4.024,4.024,0,0,1,.394,2.3L318.816,192.437a1.771,1.771,0,0,1-.962,1.421h0l-2.777,1.6-.459-2.58h.153l-9.38-5.423Z" transform="translate(362.367 59.963)"/><path class="o" d="M224.872,146.561,411.408,254.25c1.443.853,2.668.372,2.93-1.137l23.615-139.569a5.313,5.313,0,0,0-2.427-4.745L248.9,1.22c-1.443-.831-2.668-.35-2.93,1.137l-23.528,139.46a5.27,5.27,0,0,0,2.427,4.745Z" transform="translate(263.936 0.949)"/><path class="u" d="M283.809,251.462,110.13,151.186,283.809,50.91,457.489,151.186Z" transform="translate(130.677 60.39)"/><path class="o" d="M258.073,209.209,131.82,136.33l126.253-72.9,126.253,72.9Z" transform="translate(156.414 75.246)"/><path class="g" d="M258.073,68.372,380.062,138.8l4.264-2.471L258.073,63.43,131.82,136.33l4.264,2.449Z" transform="translate(156.414 75.246)"/><path class="v" d="M363.239,96.77V153.6L189.56,253.875V197.046Z" transform="translate(224.927 114.807)"/><path class="k" d="M110.13,96.77V153.6L283.809,253.875V197.046Z" transform="translate(130.677 114.807)"/><g class="w" transform="translate(252.571 237.094)"><path class="o" d="M115.51,108.44v17.908l150.152,86.7V195.138Z" transform="translate(-115.51 -108.44)"/></g><path class="g" d="M283.809,194.678,112.951,96.02l-2.821,1.64L283.809,197.936,457.489,97.66l-2.821-1.64Z" transform="translate(130.677 113.917)"/><path class="o" d="M323.065,114.98v10.189l-121.6,70.189V185.191Z" transform="translate(239.059 136.414)"/><path class="x" d="M110.13,96.77V153.6L283.809,253.875V197.046Z" transform="translate(130.677 114.807)"/><path class="d" d="M183.433,151.11,151.99,132.94V136.7l31.443,18.149Z" transform="translate(180.347 157.725)"/><path class="d" d="M154.538,134.43l-8.506-4.92-.022,3.761,8.528,4.92Z" transform="translate(173.251 153.655)"/><path class="d" d="M141.129,126.678,123.68,116.62v3.739l17.449,10.08Z" transform="translate(146.755 138.36)"/><path class="d" d="M145.776,129.371l-12.595-7.281-.022,3.761,12.617,7.281Z" transform="translate(158.004 144.851)"/><path class="d" d="M148.968,131.22l-8.528-4.92v3.739l8.528,4.92Z" transform="translate(166.642 149.846)"/><path class="d" d="M192.63,78.345l-5.51-3.192,5.51-3.192,5.51,3.192Z" transform="translate(222.031 85.368)"/><path class="y" d="M197.692,81.243l-5.532-3.192,5.532-3.171,5.51,3.171Z" transform="translate(228.012 88.833)"/><path class="z" d="M202.72,84.153l-5.51-3.192,5.51-3.171,5.51,3.171Z" transform="translate(234.004 92.286)"/><path class="d" d="M207.782,87.063l-5.532-3.171,5.532-3.192,5.51,3.192Z" transform="translate(239.984 95.738)"/><path class="z" d="M212.81,89.995,207.3,86.8l5.51-3.192,5.51,3.192Z" transform="translate(245.977 99.191)"/><path class="d" d="M217.85,92.893,212.34,89.7l5.51-3.171,5.532,3.171Z" transform="translate(251.957 102.656)"/><path class="d" d="M222.9,95.8l-5.51-3.192,5.51-3.171,5.51,3.171Z" transform="translate(257.949 106.109)"/><path class="d" d="M227.94,98.713l-5.51-3.171,5.51-3.192,5.532,3.192Z" transform="translate(263.929 109.562)"/><path class="y" d="M232.99,101.623l-5.51-3.171,5.51-3.192,5.51,3.192Z" transform="translate(269.922 113.015)"/><path class="d" d="M187.582,81.253l-5.532-3.192,5.532-3.171,5.51,3.171Z" transform="translate(216.016 88.844)"/><path class="d" d="M192.61,84.163l-5.51-3.171,5.51-3.192,5.51,3.192Z" transform="translate(222.008 92.297)"/><path class="d" d="M197.65,87.073,192.14,83.9l5.51-3.192,5.532,3.192Z" transform="translate(227.988 95.75)"/><path class="d" d="M202.7,90l-5.51-3.192,5.51-3.192,5.51,3.192Z" transform="translate(233.98 99.203)"/><path class="d" d="M207.74,92.9l-5.51-3.192,5.51-3.171,5.532,3.171Z" transform="translate(239.961 102.668)"/><path class="d" d="M212.79,95.813l-5.51-3.171,5.51-3.192,5.51,3.192Z" transform="translate(245.953 106.121)"/><path class="d" d="M217.83,98.745l-5.51-3.192,5.51-3.192,5.532,3.192Z" transform="translate(251.933 109.574)"/><path class="d" d="M222.88,101.643l-5.51-3.192,5.51-3.171,5.51,3.171Z" transform="translate(257.925 113.039)"/><path class="d" d="M227.92,104.553l-5.51-3.192,5.51-3.171,5.532,3.171Z" transform="translate(263.906 116.492)"/><path class="d" d="M182.5,84.173,176.99,81l5.51-3.192L188.01,81Z" transform="translate(210.011 92.309)"/><path class="d" d="M187.562,87.1l-5.532-3.192,5.532-3.192,5.51,3.192Z" transform="translate(215.992 95.762)"/><path class="d" d="M192.59,90l-5.51-3.192,5.51-3.171,5.51,3.171Z" transform="translate(221.984 99.227)"/><path class="y" d="M197.652,92.913l-5.532-3.192,5.532-3.171,5.51,3.171Z" transform="translate(227.964 102.68)"/><path class="z" d="M202.68,95.823l-5.51-3.171,5.51-3.192,5.51,3.192Z" transform="translate(233.957 106.133)"/><path class="z" d="M207.72,98.755l-5.51-3.192,5.51-3.192,5.532,3.192Z" transform="translate(239.937 109.586)"/><path class="d" d="M212.77,101.653l-5.51-3.192,5.51-3.171,5.51,3.171Z" transform="translate(245.929 113.051)"/><path class="d" d="M217.81,104.563l-5.51-3.171,5.51-3.192,5.51,3.192Z" transform="translate(251.909 116.504)"/><path class="d" d="M222.86,107.473l-5.51-3.171,5.51-3.192,5.51,3.192Z" transform="translate(257.902 119.956)"/><path class="z" d="M177.43,87.115l-5.51-3.192,5.51-3.192,5.532,3.192Z" transform="translate(203.996 95.774)"/><path class="z" d="M182.48,90.013l-5.51-3.192,5.51-3.171,5.51,3.171Z" transform="translate(209.988 99.239)"/><path class="y" d="M187.52,92.923l-5.51-3.171,5.51-3.192,5.532,3.192Z" transform="translate(215.968 102.692)"/><path class="d" d="M192.57,95.855l-5.51-3.192,5.51-3.192,5.51,3.192Z" transform="translate(221.96 106.145)"/><path class="d" d="M197.61,98.753l-5.51-3.192,5.51-3.171,5.532,3.171Z" transform="translate(227.941 109.61)"/><path class="d" d="M202.66,101.663l-5.51-3.192,5.51-3.171,5.51,3.171Z" transform="translate(233.933 113.062)"/><path class="z" d="M207.7,104.573l-5.51-3.171,5.51-3.192,5.532,3.192Z" transform="translate(239.913 116.515)"/><path class="d" d="M212.75,107.5l-5.51-3.192,5.51-3.192,5.51,3.192Z" transform="translate(245.905 119.968)"/><path class="d" d="M217.79,110.4l-5.51-3.192,5.51-3.171,5.51,3.171Z" transform="translate(251.886 123.433)"/><path class="d" d="M172.37,90.023l-5.51-3.171,5.51-3.192,5.51,3.192Z" transform="translate(197.992 99.251)"/><path class="d" d="M177.432,92.933,171.9,89.762l5.532-3.192,5.51,3.192Z" transform="translate(203.972 102.704)"/><path class="d" d="M182.46,95.865l-5.51-3.192,5.51-3.192,5.51,3.192Z" transform="translate(209.964 106.157)"/><path class="d" d="M187.5,98.763l-5.51-3.192L187.5,92.4l5.532,3.171Z" transform="translate(215.944 109.621)"/><path class="d" d="M192.55,101.673,187.04,98.5l5.51-3.192,5.51,3.192Z" transform="translate(221.937 113.074)"/><path class="d" d="M197.59,104.6l-5.51-3.192,5.51-3.192,5.532,3.192Z" transform="translate(227.917 116.527)"/><path class="d" d="M202.64,107.5l-5.51-3.192,5.51-3.171,5.51,3.171Z" transform="translate(233.909 119.992)"/><path class="d" d="M207.68,110.413l-5.51-3.192,5.51-3.171,5.532,3.171Z" transform="translate(239.889 123.445)"/><path class="d" d="M212.73,113.323l-5.51-3.171,5.51-3.192,5.51,3.192Z" transform="translate(245.882 126.898)"/><path class="d" d="M167.3,92.965l-5.51-3.192,5.51-3.192,5.532,3.192Z" transform="translate(191.976 102.716)"/><path class="d" d="M172.35,95.863l-5.51-3.192,5.51-3.171,5.51,3.171Z" transform="translate(197.968 106.18)"/><path class="z" d="M177.412,98.773l-5.532-3.192,5.532-3.171,5.51,3.171Z" transform="translate(203.948 109.633)"/><path class="d" d="M182.44,101.683l-5.51-3.171,5.51-3.192,5.51,3.192Z" transform="translate(209.94 113.086)"/><path class="y" d="M187.48,104.615l-5.51-3.192,5.51-3.192,5.532,3.192Z" transform="translate(215.921 116.539)"/><path class="d" d="M192.53,107.513l-5.51-3.192,5.51-3.171,5.51,3.171Z" transform="translate(221.913 120.004)"/><path class="d" d="M197.57,110.423l-5.51-3.171,5.51-3.192,5.51,3.192Z" transform="translate(227.893 123.457)"/><path class="d" d="M202.62,113.333l-5.51-3.171,5.51-3.192,5.51,3.192Z" transform="translate(233.885 126.91)"/><path class="d" d="M207.66,116.265l-5.51-3.192,5.51-3.192,5.51,3.192Z" transform="translate(239.866 130.363)"/><path class="d" d="M162.24,95.873,156.73,92.7l5.51-3.192,5.51,3.192Z" transform="translate(185.972 106.192)"/><path class="d" d="M167.28,98.783l-5.51-3.171,5.51-3.192,5.532,3.192Z" transform="translate(191.952 109.645)"/><path class="z" d="M172.33,101.715l-5.51-3.192,5.51-3.192,5.51,3.192Z" transform="translate(197.944 113.098)"/><path class="d" d="M177.37,104.613l-5.51-3.192,5.51-3.171,5.532,3.171Z" transform="translate(203.924 116.563)"/><path class="d" d="M182.42,107.523l-5.51-3.192,5.51-3.17,5.51,3.17Z" transform="translate(209.917 120.016)"/><path class="y" d="M187.46,110.433l-5.51-3.171,5.51-3.192,5.532,3.192Z" transform="translate(215.897 123.469)"/><path class="z" d="M192.51,113.365,187,110.172l5.51-3.192,5.51,3.192Z" transform="translate(221.889 126.922)"/><path class="d" d="M197.55,116.263l-5.51-3.192,5.51-3.171,5.532,3.171Z" transform="translate(227.869 130.386)"/><path class="y" d="M202.6,119.173,197.09,116l5.51-3.192L208.11,116Z" transform="translate(233.862 133.839)"/><path class="d" d="M157.192,98.793l-5.532-3.171,5.532-3.192,5.51,3.192Z" transform="translate(179.956 109.657)"/><path class="z" d="M162.22,101.725l-5.51-3.192,5.51-3.192,5.51,3.192Z" transform="translate(185.948 113.11)"/><path class="d" d="M167.26,104.623l-5.51-3.192,5.51-3.171,5.532,3.171Z" transform="translate(191.928 116.575)"/><path class="d" d="M172.31,107.533l-5.51-3.171,5.51-3.192,5.51,3.192Z" transform="translate(197.92 120.028)"/><path class="d" d="M177.35,110.465l-5.51-3.192,5.51-3.192,5.532,3.192Z" transform="translate(203.901 123.481)"/><path class="d" d="M182.4,113.363l-5.51-3.192L182.4,107l5.51,3.171Z" transform="translate(209.893 126.945)"/><path class="d" d="M187.44,116.273l-5.51-3.192,5.51-3.171,5.51,3.171Z" transform="translate(215.873 130.398)"/><path class="z" d="M192.5,119.183l-5.532-3.171,5.532-3.192,5.51,3.192Z" transform="translate(221.853 133.851)"/><path class="d" d="M197.53,122.115l-5.51-3.192,5.51-3.192,5.51,3.192Z" transform="translate(227.846 137.304)"/><path class="d" d="M152.11,101.723l-5.51-3.192,5.51-3.171,5.51,3.171Z" transform="translate(173.952 113.134)"/><path class="y" d="M157.15,104.633l-5.51-3.171,5.51-3.192,5.532,3.192Z" transform="translate(179.932 116.587)"/><path class="d" d="M162.2,107.543l-5.51-3.171,5.51-3.192,5.51,3.192Z" transform="translate(185.924 120.039)"/><path class="d" d="M167.24,110.475l-5.51-3.192,5.51-3.192,5.532,3.192Z" transform="translate(191.904 123.492)"/><path class="d" d="M172.29,113.373l-5.51-3.192,5.51-3.171,5.51,3.171Z" transform="translate(197.897 126.957)"/><path class="d" d="M177.33,116.283l-5.51-3.171,5.51-3.192,5.532,3.192Z" transform="translate(203.877 130.41)"/><path class="z" d="M182.38,119.215l-5.51-3.192,5.51-3.192,5.51,3.192Z" transform="translate(209.869 133.863)"/><path class="d" d="M187.42,122.113l-5.51-3.192,5.51-3.171,5.532,3.171Z" transform="translate(215.849 137.328)"/><path class="d" d="M192.47,125.023l-5.51-3.192,5.51-3.171,5.51,3.171Z" transform="translate(221.842 140.781)"/><path class="u" d="M283.809,206.452,110.13,106.176,283.809,5.9,457.489,106.176Z" transform="translate(130.677 6.983)"/><path class="aa" d="M258.073,164.2,131.82,91.32l126.253-72.9,126.253,72.9Z" transform="translate(156.414 21.839)"/><path class="g" d="M258.073,23.362,380.062,93.791l4.264-2.471L258.073,18.42,131.82,91.32l4.264,2.449Z" transform="translate(156.414 21.839)"/><path class="v" d="M363.239,51.76v56.829L189.56,208.865V152.036Z" transform="translate(224.927 61.399)"/><path class="k" d="M110.13,51.76v56.829L283.809,208.865V152.036Z" transform="translate(130.677 61.399)"/><g class="w" transform="translate(252.571 138.698)"><path class="o" d="M115.51,63.44V81.326l150.152,86.7V150.116Z" transform="translate(-115.51 -63.44)"/></g><path class="g" d="M283.809,149.668,112.951,51.01l-2.821,1.64L283.809,152.926,457.489,52.65l-2.821-1.64Z" transform="translate(130.677 60.509)"/><path class="o" d="M323.065,69.97V80.159l-121.6,70.189V140.181Z" transform="translate(239.059 83.007)"/><path class="x" d="M110.13,51.76v56.829L283.809,208.865V152.036Z" transform="translate(130.677 61.399)"/><path class="d" d="M183.433,106.1,151.99,87.93v3.761l31.443,18.149Z" transform="translate(180.347 104.317)"/><path class="d" d="M154.538,89.42l-8.506-4.92-.022,3.761,8.528,4.92Z" transform="translate(173.251 100.247)"/><path class="d" d="M141.129,81.668,123.68,71.61v3.739l17.449,10.08Z" transform="translate(146.755 84.953)"/><path class="d" d="M145.776,84.361,133.182,77.08l-.022,3.761,12.617,7.281Z" transform="translate(158.004 91.443)"/><path class="d" d="M148.968,86.21l-8.528-4.92v3.739l8.528,4.92Z" transform="translate(166.642 96.439)"/><g transform="translate(491.684 348.302)"><path class="d" d="M334.642,330.356a17.274,17.274,0,0,1-8.571-2.187L227.347,271.1a4.942,4.942,0,0,1,0-8.571L405.9,159.432a.984.984,0,0,1,.984,0l106.9,61.661a4.942,4.942,0,0,1,0,8.55l-170.553,98.4a17.186,17.186,0,0,1-8.593,2.318ZM406.449,161.4l-178.1,102.769a3,3,0,0,0,0,5.182l98.7,56.982a15.5,15.5,0,0,0,15.175,0l170.553-98.4a2.979,2.979,0,0,0,0-5.182Z" transform="translate(-224.865 -159.3)"/></g><path class="ab" d="M426.948,219.074,403.2,78.15l1.924-.809L402.24,75.7h0a2.186,2.186,0,0,0-2.187.153L210.237,185.445a5.313,5.313,0,0,0-2.471,4.832L231.709,332.4a1.793,1.793,0,0,0,1.006,1.443h0l2.821,1.618.481-2.624h-.153L424.543,223.907a5.379,5.379,0,0,0,2.405-4.832Z" transform="translate(246.517 89.542)"/><path class="ac" d="M211.288,128.288l-3.127-1.378a4.22,4.22,0,0,0-.394,2.361L231.71,271.4a1.793,1.793,0,0,0,1.006,1.443h0l2.821,1.618.481-2.624h-.153l9.533-5.51Z" transform="translate(246.493 150.57)"/><path class="k" d="M425.869,224.724,236.031,334.337c-1.465.853-2.711.35-2.974-1.159L209.114,191.051a5.4,5.4,0,0,1,2.471-4.832L401.423,76.627c1.465-.853,2.711-.372,2.974,1.159L428.34,219.913A5.379,5.379,0,0,1,425.869,224.724Z" transform="translate(248.12 90.409)"/><g class="w" transform="translate(464.078 176.176)"><path class="o" d="M395.212,80.58,212.24,186.235,234.915,320.01,417.778,214.442Z" transform="translate(-212.24 -80.58)"/></g><path class="ad" d="M530.876,204.867l-10.343,5.4L416.65,150.291a7.587,7.587,0,0,0-6.778.284L230.7,254.022c-1.727-.962-9.533-4.723-9.533-4.723l3.783,9.883h0a2.186,2.186,0,0,0,1.05,1.159l109.329,63.17a7.522,7.522,0,0,0,6.778-.284L525.453,217.375a3.148,3.148,0,0,0,1.531-1.618h0Z" transform="translate(262.434 177.524)"/><path class="ae" d="M529.317,213.354,341.425,321.83a7.7,7.7,0,0,1-6.953.284L222.344,257.392c-1.793-1.028-1.552-2.821.5-4.023L410.739,144.893a7.675,7.675,0,0,1,6.953-.284L529.82,209.331C531.591,210.359,531.329,212.152,529.317,213.354Z" transform="translate(262.397 170.743)"/><path class="g" d="M529.3,176.1l-187.892,108.5a7.762,7.762,0,0,1-6.953.284L222.326,220.133a2.186,2.186,0,0,1-1.093-1.2,1.9,1.9,0,0,0,1.093,2.3l112.193,64.723a7.7,7.7,0,0,0,6.953-.284L529.364,177.189c1.378-.809,1.924-1.88,1.6-2.8A3.346,3.346,0,0,1,529.3,176.1Z" transform="translate(262.415 206.908)"/><path class="h" d="M250.23,215.791v-2.055c0-.2.109-.284.262-.2l7.259,4.176a.656.656,0,0,1,.262.525v2.055c0,.2,0,.284-.262.2l-7.259-4.2A.612.612,0,0,1,250.23,215.791Z" transform="translate(296.916 253.321)"/><path class="h" d="M255.2,218.661v-2.055c0-.2.109-.284.262-.2l7.259,4.176a.656.656,0,0,1,.262.525v2.055c0,.2-.109.284-.262.2l-7.259-4.2A.612.612,0,0,1,255.2,218.661Z" transform="translate(302.813 256.726)"/><path class="i" d="M235.441,242.167l156.143-90.152a3.367,3.367,0,0,1,3.367,0l55.6,32.165a1.2,1.2,0,0,1,0,2.077L294.478,276.365a3.433,3.433,0,0,1-3.367,0l-55.67-32.011a1.2,1.2,0,0,1,0-2.187Z" transform="translate(278.535 179.823)"/><path class="j" d="M235.441,244.306l.547.328,155.6-89.824a3.367,3.367,0,0,1,3.367,0l55.036,31.858.569-.328a1.2,1.2,0,0,0,0-2.077l-55.627-32.208a3.367,3.367,0,0,0-3.367,0L235.441,242.12a1.2,1.2,0,0,0,0,2.187Z" transform="translate(278.535 179.871)"/><path class="k" d="M386.808,157.417l-135.633,78.3-6.035-3.477,135.633-78.3Z" transform="translate(290.876 182.643)"/><path class="k" d="M389,161.339,261.785,234.785l-6.035-3.477L382.965,157.84Z" transform="translate(303.466 187.271)"/><path class="k" d="M405.645,163.867l-149.78,86.479-6.035-3.477L399.61,160.39Z" transform="translate(296.441 190.296)"/><path class="k" d="M410.055,166.407l-149.8,86.479-6.013-3.477L404.02,162.93Z" transform="translate(301.674 193.31)"/><path class="k" d="M414.455,168.947l-149.78,86.5-6.035-3.5L408.42,165.47Z" transform="translate(306.895 196.324)"/><path class="k" d="M250.7,195.4l-6.035,3.477L238.63,195.4l6.035-3.477Z" transform="translate(283.152 227.709)"/><path class="k" d="M263.954,197.587l-12.529,7.238-6.035-3.5,12.529-7.216Z" transform="translate(291.173 230.308)"/><path class="af" d="M328.74,227.465l42.092-24.315c1.662-.94,1.662-2.471,0-3.433L342.056,183.1a6.56,6.56,0,0,0-5.969,0l-42.092,24.315a1.815,1.815,0,0,0,0,3.433l28.775,16.618A6.559,6.559,0,0,0,328.74,227.465Z" transform="translate(347.392 216.391)"/><path class="j" d="M294,208.788l42.091-24.315a6.56,6.56,0,0,1,5.969,0l28.775,16.705a2.471,2.471,0,0,1,1.05,1.006c.437-.831,0-1.771-1.05-2.427L342.059,183.14a6.56,6.56,0,0,0-5.969,0L294,207.454c-1.137.656-1.487,1.574-1.05,2.405A2.6,2.6,0,0,1,294,208.788Z" transform="translate(347.389 216.438)"/><g class="ag" transform="translate(464.078 176.176)"><g class="ah"><path class="ai" d="M475.184,181.89,287.27,290.366a7.762,7.762,0,0,1-6.953.284L168.189,225.928c-1.771-1.05-1.552-2.843.5-4.023L356.606,113.538a7.653,7.653,0,0,1,6.931-.306l112.128,64.744C477.5,178.895,477.239,180.688,475.184,181.89Z" transform="translate(-265.929 -42.649)"/><path class="aj" d="M241.26,177.648l42.113-24.38a1.815,1.815,0,0,0,0-3.433l-28.8-16.618a6.56,6.56,0,0,0-5.947,0l-42.113,24.424a1.815,1.815,0,0,0,0,3.433l28.8,16.618a6.56,6.56,0,0,0,5.947-.044Z" transform="translate(-220.487 -18.968)"/><path class="j" d="M206.509,158.961l42.113-24.315a6.56,6.56,0,0,1,5.948,0l28.8,16.618a2.711,2.711,0,0,1,1.028,1.028c.437-.831.109-1.771-1.028-2.427l-28.8-16.618a6.56,6.56,0,0,0-5.948,0l-42.113,24.358c-1.137.656-1.465,1.574-1.028,2.405A2.537,2.537,0,0,1,206.509,158.961Z" transform="translate(-220.481 -18.933)"/><path class="i" d="M197.758,219.687,353.9,129.535a3.367,3.367,0,0,1,3.367,0l55.6,32.164a1.2,1.2,0,0,1,0,2.187L256.8,253.994a3.433,3.433,0,0,1-3.367,0l-55.67-32.143a1.2,1.2,0,0,1,0-2.165Z" transform="translate(-230.229 -23.027)"/><path class="j" d="M197.7,221.753l.547.328,155.6-89.824a3.323,3.323,0,0,1,3.367,0l55.036,31.836.569-.306a1.2,1.2,0,0,0,0-2.187l-55.6-32.055a3.367,3.367,0,0,0-3.367,0L197.7,219.7a1.2,1.2,0,0,0,0,2.055Z" transform="translate(-230.174 -23.015)"/><path class="k" d="M362.927,143,226.9,221.542l5.4,3.127,136.027-78.542Z" transform="translate(-194.845 -6.514)"/><path class="k" d="M352.722,139.22,223.43,213.87l5.379,3.1L358.1,142.325Z" transform="translate(-198.962 -10.999)"/><path class="k" d="M225.56,175.91l-12.07,6.975,5.379,3.1,12.07-6.975Z" transform="translate(-210.757 32.536)"/><path class="k" d="M228.458,180.66l-8.418,4.854,5.4,3.127,8.4-4.854Z" transform="translate(-202.985 38.172)"/><path class="k" d="M360.407,136.85l-151.027,87.2,5.379,3.1,151.048-87.2Z" transform="translate(-215.634 -13.812)"/><path class="k" d="M356.3,134.48,205.27,221.659l5.4,3.127,151.027-87.2Z" transform="translate(-220.51 -16.624)"/><path class="k" d="M352.2,132.11,201.17,219.289l5.379,3.127,151.027-87.2Z" transform="translate(-225.375 -19.436)"/></g></g><g class="ak" transform="translate(45.571 347.8)"><path class="al" d="M202.783,330.978a17.65,17.65,0,0,1-8.75-2.32l0,0-170.553-98.4a5.291,5.291,0,0,1,0-9.162L130.91,159.07l.656.394,178.577,103.1a5.292,5.292,0,0,1,0,9.162l-98.68,56.96a17.492,17.492,0,0,1-8.681,2.3Zm-7.412-4.614a15.044,15.044,0,0,0,14.825,0l98.7-56.982a2.668,2.668,0,0,0,0-4.592L130.976,162.022H130.8L24.862,223.246a2.668,2.668,0,0,0,0,4.592Z" transform="translate(-20.841 -159.07)"/></g><path class="am" d="M71.114,219.086,94.926,78.162,93,77.352l2.864-1.64h0a2.055,2.055,0,0,1,2.187.153L287.891,185.457a5.4,5.4,0,0,1,2.471,4.832L266.309,332.416a1.837,1.837,0,0,1-1.006,1.443h0l-2.8,1.618-.481-2.624h.153L73.585,223.9a5.379,5.379,0,0,1-2.471-4.81Z" transform="translate(84.373 89.531)"/><path class="an" d="M188.318,128.288l3.127-1.378a4.373,4.373,0,0,1,.394,2.361L167.786,271.4a1.837,1.837,0,0,1-1.006,1.443h0l-2.8,1.618-.481-2.624h.153l-9.533-5.51Z" transform="translate(182.875 150.57)"/><path class="k" d="M72.281,224.676,262.12,334.289c1.465.853,2.711.35,2.974-1.159L289.036,191a5.4,5.4,0,0,0-2.471-4.832L96.727,76.667c-1.465-.853-2.711-.372-2.974,1.159L69.7,219.953a5.335,5.335,0,0,0,2.58,4.723Z" transform="translate(82.703 90.456)"/><g class="w" transform="translate(159.357 176.176)"><path class="o" d="M95.445,80.58,278.418,186.235l-22.7,133.775L72.88,214.442Z" transform="translate(-72.88 -80.58)"/></g><path class="ao" d="M16.3,204.867l10.277,5.4,103.884-59.978a7.587,7.587,0,0,1,6.778.284L316.407,254.022c1.727-.962,9.533-4.723,9.533-4.723l-3.783,9.883h0a2.186,2.186,0,0,1-1.071,1.159l-109.329,63.17a7.522,7.522,0,0,1-6.778-.284L21.635,217.375a3.3,3.3,0,0,1-1.552-1.618h0Z" transform="translate(19.341 177.524)"/><path class="ap" d="M17.879,213.353,205.924,321.829a7.675,7.675,0,0,0,6.953.284l112.127-64.723c1.771-1.028,1.552-2.821-.5-4.023L136.544,144.891a7.7,7.7,0,0,0-6.953-.284L17.464,209.33C15.693,210.357,15.911,212.15,17.879,213.353Z" transform="translate(19.293 170.744)"/><path class="g" d="M17.917,176.1l188.045,108.5a7.762,7.762,0,0,0,6.953.284l112.127-64.744a2.186,2.186,0,0,0,1.093-1.2,1.9,1.9,0,0,1-1.093,2.3L212.916,285.949a7.675,7.675,0,0,1-6.953-.284L17.917,177.189c-1.4-.809-1.924-1.88-1.6-2.8a3.258,3.258,0,0,0,1.6,1.706Z" transform="translate(19.254 206.908)"/><path class="h" d="M133.114,215.791v-2.055c0-.2,0-.284-.262-.2l-7.259,4.176a.656.656,0,0,0-.262.525v2.055c0,.2,0,.284.262.2l7.259-4.2A.612.612,0,0,0,133.114,215.791Z" transform="translate(148.713 253.321)"/><path class="h" d="M128.156,218.661v-2.055c0-.2,0-.284-.262-.2l-7.259,4.176a.678.678,0,0,0-.284.525v2.055c0,.2.131.284.284.2l7.259-4.2A.612.612,0,0,0,128.156,218.661Z" transform="translate(142.804 256.726)"/><path class="i" d="M261.119,242.132,104.975,152.045a3.367,3.367,0,0,0-3.367,0L46,184.231a1.2,1.2,0,0,0,0,2.077l156.078,90.109a3.433,3.433,0,0,0,3.367,0l55.67-32.1a1.2,1.2,0,0,0,0-2.187Z" transform="translate(53.879 179.859)"/><path class="j" d="M261.119,244.306l-.569.328L104.975,154.766a3.367,3.367,0,0,0-3.367,0L46.572,186.625,46,186.3a1.2,1.2,0,0,1,0-2.077l55.6-32.164a3.367,3.367,0,0,1,3.367,0L261.119,242.12a1.2,1.2,0,0,1,0,2.187Z" transform="translate(53.879 179.871)"/><path class="k" d="M75.16,160.855l132.178,76.311,5.707-3.673L81.217,157.4Z" transform="translate(89.183 186.749)"/><path class="k" d="M71.24,166.407l120,69.293,4.111-4.592L77.275,162.93Z" transform="translate(84.531 193.31)"/><path class="k" d="M58.02,163.867l149.8,86.479,6.035-3.477L64.055,160.39Z" transform="translate(68.845 190.296)"/><path class="k" d="M53.62,166.407l149.8,86.479,6.013-3.477L59.655,162.93Z" transform="translate(63.624 193.31)"/><path class="k" d="M49.22,168.947,199,255.447l6.035-3.5L55.255,165.47Z" transform="translate(58.403 196.324)"/><path class="k" d="M134.97,195.4,141,198.873l6.035-3.477L141,191.92Z" transform="translate(160.152 227.709)"/><path class="k" d="M125.24,197.587l12.529,7.238,6.013-3.5-12.507-7.216Z" transform="translate(148.606 230.308)"/><path class="aq" d="M93.418,227.454,51.3,203.161a1.815,1.815,0,0,1,0-3.433L80.1,183.11a6.56,6.56,0,0,1,5.969,0l42.092,24.315a1.815,1.815,0,0,1,0,3.433l-28.8,16.6A6.56,6.56,0,0,1,93.418,227.454Z" transform="translate(59.423 216.403)"/><path class="j" d="M128.157,208.788,86.065,184.474a6.56,6.56,0,0,0-5.969,0L51.3,201.179a2.536,2.536,0,0,0-1.028,1.006c-.437-.831-.109-1.771,1.028-2.427L80.1,183.14a6.56,6.56,0,0,1,5.969,0l42.092,24.315c1.137.656,1.465,1.574,1.028,2.405a2.515,2.515,0,0,0-1.028-1.071Z" transform="translate(59.429 216.438)"/><g class="ag" transform="translate(159.357 176.176)"><g class="ar"><path class="as" d="M72.093,181.89,260.007,290.366a7.762,7.762,0,0,0,6.953.284l112.127-64.723c1.771-1.05,1.552-2.843-.5-4.023L190.67,113.538a7.7,7.7,0,0,0-6.953-.306L71.7,177.867C69.819,178.895,70.037,180.688,72.093,181.89Z" transform="translate(-75.81 -42.649)"/><path class="at" d="M180.877,177.651l-42.092-24.38a1.815,1.815,0,0,1,0-3.433L167.56,133.22a6.56,6.56,0,0,1,5.969,0l42.113,24.424a1.815,1.815,0,0,1,0,3.433l-28.8,16.618a6.56,6.56,0,0,1-5.969-.044Z" transform="translate(3.867 -18.971)"/><path class="j" d="M215.646,158.964,173.51,134.649a6.56,6.56,0,0,0-5.969,0l-28.775,16.618a2.777,2.777,0,0,0-1.05,1.028c-.415-.831,0-1.771,1.05-2.427l28.775-16.618a6.56,6.56,0,0,1,5.969,0l42.135,24.358c1.137.656,1.465,1.574,1.028,2.405A2.536,2.536,0,0,0,215.646,158.964Z" transform="translate(3.864 -18.936)"/><path class="i" d="M298.846,219.687,142.7,129.535a3.367,3.367,0,0,0-3.367,0L83.731,161.7a1.2,1.2,0,0,0,0,2.187l156.078,90.109a3.433,3.433,0,0,0,3.367,0l55.67-32.143a1.2,1.2,0,0,0,0-2.165Z" transform="translate(-60.837 -23.027)"/><path class="j" d="M298.846,221.812l-.569.328L142.7,132.315a3.324,3.324,0,0,0-3.367,0L84.3,164.152l-.569-.306a1.2,1.2,0,0,1,0-2.187l55.6-32.164a3.367,3.367,0,0,1,3.367,0l156.143,90.152a1.2,1.2,0,0,1,0,2.165Z" transform="translate(-60.837 -23.074)"/><path class="k" d="M92.919,143l136.049,78.542-5.4,3.127L87.54,146.127Z" transform="translate(-55.485 -6.514)"/><path class="k" d="M99.491,139.22l129.292,74.65-5.379,3.1L94.09,142.325Z" transform="translate(-47.713 -10.999)"/><path class="k" d="M163.041,175.91l12.07,6.975-5.379,3.1-12.092-6.975Z" transform="translate(27.694 32.536)"/><path class="k" d="M158.161,180.66l8.4,4.854-5.379,3.127-8.418-4.854Z" transform="translate(21.903 38.172)"/><path class="k" d="M103.6,136.85l151.027,87.2-5.4,3.1L98.2,139.955Z" transform="translate(-42.836 -13.812)"/><path class="k" d="M107.689,134.48l151.027,87.179-5.379,3.127-151.027-87.2Z" transform="translate(-37.959 -16.624)"/><path class="k" d="M111.8,132.11l151.027,87.179-5.379,3.127-151.027-87.2Z" transform="translate(-33.082 -19.436)"/></g></g><path class="k" d="M69.19,157.417l6.035,3.477,6.035-3.477-6.035-3.477Z" transform="translate(82.099 182.643)"/><path class="k" d="M62.43,161.339l12.507,7.216,6.035-3.477L68.465,157.84Z" transform="translate(74.078 187.271)"/></g></g></svg>