<svg id="Capa_1" enable-background="new 0 0 512 512" height="512" viewBox="0 0 512 512" width="512" xmlns="http://www.w3.org/2000/svg" xmlns:xlink="http://www.w3.org/1999/xlink"><linearGradient id="SVGID_1_" gradientUnits="userSpaceOnUse" x1="256" x2="256" y1="452" y2="0"><stop offset="0" stop-color="#ffe59a"/><stop offset="1" stop-color="#ffffd5"/></linearGradient><linearGradient id="SVGID_2_" gradientUnits="userSpaceOnUse" x1="256" x2="256" y1="512" y2="61"><stop offset="0" stop-color="#fd5900"/><stop offset="1" stop-color="#ffde00"/></linearGradient><g><g><g><path d="m189 378h132v-178h-132zm308-107h-121c-8.284 0-15 6.716-15 15s6.716 15 15 15h121c8.284 0 15-6.716 15-15s-6.716-15-15-15zm-361 0h-121c-8.284 0-15 6.716-15 15s6.716 15 15 15h121c8.284 0 15-6.716 15-15s-6.716-15-15-15zm225-166c0-57.897-47.103-105-105-105s-105 47.103-105 105v61c0 8.284 6.716 15 15 15s15-6.716 15-15v-61c0-41.355 33.645-75 75-75s75 33.645 75 75v61c0 8.284 6.716 15 15 15s15-6.716 15-15zm15 136h91c8.284 0 15-6.716 15-15v-90c0-8.284-6.716-15-15-15s-15 6.716-15 15v75h-76c-8.284 0-15 6.716-15 15s6.716 15 15 15zm-240-30h-76v-75c0-8.284-6.716-15-15-15s-15 6.716-15 15v90c0 8.284 6.716 15 15 15h91c8.284 0 15-6.716 15-15s-6.716-15-15-15zm331 120h-91c-8.284 0-15 6.716-15 15s6.716 15 15 15h76v76c0 8.284 6.716 15 15 15s15-6.716 15-15v-91c0-8.284-6.716-15-15-15zm-331 0h-91c-8.284 0-15 6.716-15 15v91c0 8.284 6.716 15 15 15s15-6.716 15-15v-76h76c8.284 0 15-6.716 15-15s-6.716-15-15-15z" fill="url(#SVGID_1_)"/></g></g><g><g><path d="m376 151h-240c-8.284 0-15 6.716-15 15v241c0 8.284 6.716 15 15 15h240c8.284 0 15-6.716 15-15v-241c0-8.284-6.716-15-15-15zm-105 147.42v47.58c0 8.284-6.716 15-15 15s-15-6.716-15-15v-47.58c-17.459-6.192-30-22.865-30-42.42 0-24.813 20.187-45 45-45s45 20.187 45 45c0 19.555-12.541 36.228-30 42.42zm-226-237.42c-24.813 0-45 20.187-45 45s20.187 45 45 45 45-20.187 45-45-20.187-45-45-45zm422 90c24.813 0 45-20.187 45-45s-20.187-45-45-45-45 20.187-45 45 20.187 45 45 45zm-422 271c-24.813 0-45 20.187-45 45s20.187 45 45 45 45-20.187 45-45-20.187-45-45-45zm422 0c-24.813 0-45 20.187-45 45s20.187 45 45 45 45-20.187 45-45-20.187-45-45-45z" fill="url(#SVGID_2_)"/></g></g></g></svg>