<?xml version="1.0"?>
<svg xmlns="http://www.w3.org/2000/svg" id="Layer_1" data-name="Layer 1" viewBox="0 0 512 512" width="512" height="512"><path d="M501,256a245.086,245.086,0,0,1-9.21,66.77l-7.03.71c-.57.05-1.15.1-1.71.12l-5.94.27a41.177,41.177,0,0,0-36.04,24.72l-1.52,3.46a32.487,32.487,0,0,1-29.74,19.43H384.54a11.7,11.7,0,0,1-11.68-10.57l-1.01-10.1a40.943,40.943,0,0,0-18.66-30.52,14.434,14.434,0,0,1-6.63-12.17V298a19.826,19.826,0,0,1,6.7-14.85l43.16-38.12a42.545,42.545,0,0,0,12.51-44.11,43.345,43.345,0,0,0-36.16-30.43l-4.36-.54a21.282,21.282,0,0,1-13.43-7.11,12.039,12.039,0,0,1-1.47-13.82l9.04-15.46a311.66,311.66,0,0,1,39.3-53.2l9.75-13.6A244.464,244.464,0,0,1,501,256Z" style="fill:#d8ff33"/><path d="M484.76,323.48l7.03-.71C462.72,425.63,368.16,501,256,501,120.69,501,11,391.31,11,256q0-11.565,1.05-22.86l2.96.28,3.34-.66a38.754,38.754,0,0,1,40.97,18.6,39.311,39.311,0,0,0,7.04,8.84l17.42,16.4a26.148,26.148,0,0,0,11.02,6.17l2.03.56a35.421,35.421,0,0,1,24.73,24.62l9.33,33.69a33.123,33.123,0,0,0,5.56,11.18l28.29,37.09a35.82,35.82,0,0,1,6.84,15.8l7.69,46.14a6.786,6.786,0,0,0,2.38,4.23,6.544,6.544,0,0,0,6.64.93,13.008,13.008,0,0,0,7.94-10.83,46.814,46.814,0,0,1,10.82-25.6l8.2-9.85a17.084,17.084,0,0,0,3.2-5.93l8.43-27.32A40.733,40.733,0,0,1,241,357.16l25.06-19.24a8.947,8.947,0,0,0,3.46-5.59,8.49,8.49,0,0,0-1.93-6.92l-16.68-19.63c-1-1.17-1.95-2.39-2.84-3.64l-12.76-17.77c-7.05-9.84-18.33-16.36-30.44-16.04a6.453,6.453,0,0,1-3.46-.91l-26.06-15.64a25.363,25.363,0,0,0-24.91-.61l-13.73,7.36a26.993,26.993,0,0,1-35.55-9.35L87.82,228.12a29.025,29.025,0,0,1,.49-31.79,32.676,32.676,0,0,1,31.31-14.15l20.01,2.54a17.989,17.989,0,0,0,17.88-8.57,31.612,31.612,0,0,1,31.34-15.47l8.75,1.12a17.8,17.8,0,0,0,16.29-6.77l7.71-10a26.039,26.039,0,0,0,.78-30.84L205.75,90.22a76.842,76.842,0,0,0-24.34-22.55,76.5,76.5,0,0,1-7.34-4.87L160.06,52.28,142.32,38.92A245.149,245.149,0,0,1,411.6,66.76l-9.75,13.6a311.66,311.66,0,0,0-39.3,53.2l-9.04,15.46a12.039,12.039,0,0,0,1.47,13.82,21.282,21.282,0,0,0,13.43,7.11l4.36.54a43.345,43.345,0,0,1,36.16,30.43,42.545,42.545,0,0,1-12.51,44.11l-43.16,38.12a19.826,19.826,0,0,0-6.7,14.85v10.12a14.434,14.434,0,0,0,6.63,12.17,40.943,40.943,0,0,1,18.66,30.52l1.01,10.1a11.7,11.7,0,0,0,11.68,10.57h25.27a32.487,32.487,0,0,0,29.74-19.43l1.52-3.46a41.177,41.177,0,0,1,36.04-24.72l5.94-.27C483.61,323.58,484.19,323.53,484.76,323.48Z" style="fill:#55d8d8"/><path d="M267.59,325.41a8.49,8.49,0,0,1,1.93,6.92,8.947,8.947,0,0,1-3.46,5.59L241,357.16a40.733,40.733,0,0,0-14.12,20.32l-8.43,27.32a17.084,17.084,0,0,1-3.2,5.93l-8.2,9.85a46.814,46.814,0,0,0-10.82,25.6,13.008,13.008,0,0,1-7.94,10.83,6.544,6.544,0,0,1-6.64-.93,6.786,6.786,0,0,1-2.38-4.23l-7.69-46.14a35.82,35.82,0,0,0-6.84-15.8l-28.29-37.09a33.123,33.123,0,0,1-5.56-11.18l-9.33-33.69a35.421,35.421,0,0,0-24.73-24.62l-2.03-.56a26.148,26.148,0,0,1-11.02-6.17L66.36,260.2a39.311,39.311,0,0,1-7.04-8.84,38.754,38.754,0,0,0-40.97-18.6l-3.34.66-2.96-.28A245.088,245.088,0,0,1,142.32,38.92l17.74,13.36L174.07,62.8a76.5,76.5,0,0,0,7.34,4.87,76.842,76.842,0,0,1,24.34,22.55l16.63,23.97a26.039,26.039,0,0,1-.78,30.84l-7.71,10a17.8,17.8,0,0,1-16.29,6.77l-8.75-1.12a31.612,31.612,0,0,0-31.34,15.47,17.989,17.989,0,0,1-17.88,8.57l-20.01-2.54a32.676,32.676,0,0,0-31.31,14.15,29.025,29.025,0,0,0-.49,31.79l13.34,21.06a26.993,26.993,0,0,0,35.55,9.35l13.73-7.36a25.363,25.363,0,0,1,24.91.61l26.06,15.64a6.453,6.453,0,0,0,3.46.91c12.11-.32,23.39,6.2,30.44,16.04l12.76,17.77c.89,1.25,1.84,2.47,2.84,3.64Z" style="fill:#d8ff33"/><path d="M256,11A243.9,243.9,0,0,0,142.32,38.92l17.74,13.36L174.07,62.8a76.571,76.571,0,0,0,7.151,4.752l1.1-.632a245.341,245.341,0,0,1,228.664.7l.616-.86A243.877,243.877,0,0,0,256,11Z" style="fill:#6bf2ee"/><path d="M51,284q0-11.565,1.05-22.86l2.306-16.508A38.657,38.657,0,0,0,18.35,232.76l-3.34.66-2.96-.28Q11.015,244.435,11,256A244.91,244.91,0,0,0,136.321,469.81,244.436,244.436,0,0,1,51,284Z" style="fill:#6bf2ee"/><path d="M54.181,244.441a245.241,245.241,0,0,1,127-176.913A76.817,76.817,0,0,1,174.07,62.8L160.06,52.28,142.32,38.92A245.088,245.088,0,0,0,12.05,233.14l2.96.28,3.34-.66A38.657,38.657,0,0,1,54.181,244.441Z" style="fill:#f5ff92"/></svg>
