<svg id="Layer_3" enable-background="new 0 0 64 64" height="512" viewBox="0 0 64 64" width="512" xmlns="http://www.w3.org/2000/svg"><path d="m8 19h2v3h-2z" fill="#8892a0"/><path d="m54 19h2v3h-2z" fill="#8892a0"/><path d="m55 2c-3.866 0-7 3.134-7 7 0 2.791 1.637 5.193 4 6.317v4.683h6v-4.683c2.363-1.124 4-3.527 4-6.317 0-3.866-3.134-7-7-7z" fill="#a1cdfb"/><path d="m48 9c0 1.934.798 3.67 2.067 4.935 4.467-.5 7.933-4.082 7.933-8.435 0-1.086-.224-2.12-.617-3.075-.745-.27-1.545-.425-2.383-.425-3.866 0-7 3.134-7 7z" fill="#c7e2fc"/><path d="m9 2c-3.866 0-7 3.134-7 7 0 2.791 1.637 5.193 4 6.317v4.683h6v-4.683c2.363-1.124 4-3.527 4-6.317 0-3.866-3.134-7-7-7z" fill="#a1cdfb"/><path d="m2 9c0 1.934.798 3.67 2.067 4.935 4.467-.5 7.933-4.082 7.933-8.435 0-1.086-.224-2.12-.617-3.075-.745-.27-1.545-.425-2.383-.425-3.866 0-7 3.134-7 7z" fill="#c7e2fc"/><path d="m62 62v-4c0-5.523-4.477-10-10-10h-10c-5.523 0-10 4.477-10 10v4" fill="#c66b60"/><path d="m38 60c8.471 0 15.64-4.67 18.092-11.118-1.25-.562-2.633-.882-4.092-.882h-10c-5.523 0-10 4.477-10 10v1.173c1.888.529 3.901.827 6 .827z" fill="#e47c6e"/><path d="m52 58 1.945-9.808c-.63-.124-1.279-.192-1.945-.192h-1l-4 5z" fill="#c66b60"/><path d="m42 58 5-5-4-5h-1c-.666 0-1.315.068-1.945.192z" fill="#c66b60"/><path d="m43 48 4 5 4-5" fill="#db9b7c"/><path d="m40 42h-2c-1.657 0-3-1.343-3-3 0-1.657 1.343-3 3-3h2" fill="#db9b7c"/><path d="m54 36h2c1.657 0 3 1.343 3 3 0 1.657-1.343 3-3 3h-2" fill="#efbe9a"/><path d="m55 31v9c0 4.418-3.582 8-8 8-4.418 0-8-3.582-8-8v-9" fill="#db9b7c"/><path d="m45.5 47.855c3.701-.703 6.5-3.95 6.5-7.855v-10h-13v10c0 3.905 2.799 7.152 6.5 7.855z" fill="#efbe9a"/><path d="m49 29v1c0 3.314-2.686 6-6 6h-6v-5c0-3.866 3.134-7 7-7h6c3.866 0 7 3.134 7 7v5h-5c-1.657 0-3-1.343-3-3z" fill="#976947"/><path d="m53.937 25.213c-1.122-.765-2.477-1.213-3.937-1.213h-6c-3.866 0-7 3.134-7 7v5h6c3.314 0 6-2.686 6-6v3c0 1.037.526 1.951 1.326 2.49 2.262-2.274 3.674-5.458 3.674-8.99 0-.435-.022-.864-.063-1.287z" fill="#c18e59"/><path d="m32 62v-4c0-5.523-4.477-10-10-10h-10c-5.523 0-10 4.477-10 10v4" fill="#669e4f"/><path d="m8 60c8.471 0 15.64-4.67 18.092-11.118-1.25-.562-2.633-.882-4.092-.882h-10c-5.523 0-10 4.477-10 10v1.173c1.888.529 3.901.827 6 .827z" fill="#78b75b"/><path d="m22 58 1.945-9.808c-.63-.124-1.279-.192-1.945-.192h-1l-4 5z" fill="#669e4f"/><path d="m12 58 5-5-4-5h-1c-.666 0-1.315.068-1.945.192z" fill="#669e4f"/><path d="m13 48 4 5 4-5" fill="#db9b7c"/><path d="m10 42h-2c-1.657 0-3-1.343-3-3 0-1.657 1.343-3 3-3h2" fill="#db9b7c"/><path d="m24 36h2c1.657 0 3 1.343 3 3 0 1.657-1.343 3-3 3h-2" fill="#efbe9a"/><path d="m25 31v9c0 4.418-3.582 8-8 8-4.418 0-8-3.582-8-8v-9" fill="#db9b7c"/><path d="m15.5 47.855c3.701-.703 6.5-3.95 6.5-7.855v-10h-13v10c0 3.905 2.799 7.152 6.5 7.855z" fill="#efbe9a"/><path d="m19 29v1c0 3.314-2.686 6-6 6h-6v-5c0-3.866 3.134-7 7-7h6c3.866 0 7 3.134 7 7v5h-5c-1.657 0-3-1.343-3-3z" fill="#976947"/><path d="m23.937 25.213c-1.122-.765-2.477-1.213-3.937-1.213h-6c-3.866 0-7 3.134-7 7v5h6c3.314 0 6-2.686 6-6v3c0 1.037.526 1.951 1.326 2.49 2.262-2.274 3.674-5.458 3.674-8.99 0-.435-.022-.864-.063-1.287z" fill="#c18e59"/><path d="m52 17h6v3h-6z" fill="#f5b953"/><path d="m6 17h6v3h-6z" fill="#f5b953"/><path d="m12 7h-2v2h-2v-2h-2v2h-2v2h2v3h2v-3h2v3h2v-3h2v-2h-2z" fill="#fff"/><path d="m60 9h-2v-2h-2v2h-2v-2h-2v2h-2v2h2v3h2v-3h2v3h2v-3h2z" fill="#fff"/><path d="m34.843 7.751-1.938.498c.063.244.095.497.095.751 0 1.654-1.346 3-3 3h-6c-1.654 0-3-1.346-3-3s1.346-3 3-3h5v-2h-5c-2.757 0-5 2.243-5 5s2.243 5 5 5h6c2.757 0 5-2.243 5-5 0-.422-.053-.842-.157-1.249z" fill="#8892a0"/><path d="m40 4h-6c-2.757 0-5 2.243-5 5 0 .422.053.842.157 1.249l1.938-.498c-.063-.244-.095-.497-.095-.751 0-1.654 1.346-3 3-3h6c1.654 0 3 1.346 3 3s-1.346 3-3 3h-5v2h5c2.757 0 5-2.243 5-5s-2.243-5-5-5z" fill="#4d5d7a"/></svg>