<svg id="Layer_1" height="512" viewBox="0 0 512 512" width="512" xmlns="http://www.w3.org/2000/svg" data-name="Layer 1"><g id="_Path_" data-name=" Path "><path d="m309.14 43.12a75.682 75.682 0 0 0 -129.14 53.39v166.5a75.5 75.5 0 0 0 151 0v-166.5a75.059 75.059 0 0 0 -21.86-53.39z" fill="#b3d1e7"/></g><path d="m385 201v63.61a129.022 129.022 0 0 1 -106.06 127.27l-4.94.88v76.24h-36v-76.24l-4.94-.88a129.022 129.022 0 0 1 -106.06-127.27v-63.61h32v63.61c0 53.65 43.51 97.3 97 97.3s97-43.65 97-97.3v-63.61z" fill="#dfe8f4"/><path d="m180.5 136.51h151v86.5h-151z" fill="#e87187"/><path d="m210 263.01v-166.5a75.6 75.6 0 0 1 60.632-74.01 75.674 75.674 0 0 0 -90.632 74.01v166.5a75.545 75.545 0 0 0 90.5 74.005 75.519 75.519 0 0 1 -60.5-74.005z" fill="#99bace"/><path d="m180.5 136.51h30v86.5h-30z" fill="#d3627a"/><g fill="#fff"><path d="m265 161h12v38h-12z"/><path d="m235 161h12v38h-12z"/><path d="m205 161h12v38h-12z"/><path d="m295 161h12v38h-12z"/><path d="m208 96.508a47.284 47.284 0 0 1 15.3-34.654l-8.33-8.754a59.839 59.839 0 0 0 -18.97 43.408v21.492h12z"/><path d="m238.607 52.305-4.41-11.16a59.453 59.453 0 0 0 -11.036 5.765l6.639 10a47.4 47.4 0 0 1 8.807-4.605z"/></g><path d="m204 459h104v32h-104z" fill="#b3d1e7"/></svg>