<svg id="color" enable-background="new 0 0 24 24" height="512" viewBox="0 0 24 24" width="512" xmlns="http://www.w3.org/2000/svg"><path d="m12 2 5.5 2.5-5.5 2.5-5.5-2.5z" fill="#2196f3"/><path d="m6.5 4.5 5.5 2.5v6l-5.5-2.5z" fill="#64b5f6"/><path d="m12 13 5.5-2.5v-6l-5.5 2.5z" fill="#42a5f5"/><path d="m12 2-5.5 2.5 5.5 2.5z" fill="#1d83d4"/><path d="m6.5 4.5v6l5.5 2.5v-6z" fill="#579ed6"/><path d="m5.5 12 5.5 2.5-5.5 2.5-5.5-2.5z" fill="#2196f3"/><path d="m0 14.5 5.5 2.5v6l-5.5-2.5z" fill="#64b5f6"/><path d="m5.5 23 5.5-2.5v-6l-5.5 2.5z" fill="#42a5f5"/><path d="m5.5 12-5.5 2.5 5.5 2.5z" fill="#1d83d4"/><path d="m0 14.5v6l5.5 2.5v-6z" fill="#579ed6"/><path d="m18.5 12 5.5 2.5-5.5 2.5-5.5-2.5z" fill="#2196f3"/><path d="m13 14.5 5.5 2.5v6l-5.5-2.5z" fill="#64b5f6"/><path d="m18.5 23 5.5-2.5v-6l-5.5 2.5z" fill="#42a5f5"/><path d="m18.5 12-5.5 2.5 5.5 2.5z" fill="#1d83d4"/><path d="m13 14.5v6l5.5 2.5v-6z" fill="#579ed6"/></svg>