<svg id="Capa_1" enable-background="new 0 0 512 512" height="512" viewBox="0 0 512 512" width="512" xmlns="http://www.w3.org/2000/svg"><g><path d="m256 149.554-20.001 131.791 20.001 230.655 198.791-65.896v-230.654z" fill="#c48958"/><path d="m57.209 215.45v230.654l198.791 65.896v-362.446z" fill="#e3a76f"/><g fill="#ffda44"><path d="m241 0h30v100.174h-30z"/><path d="m122.957 31.63h30v100.174h-30z" transform="matrix(.866 -.5 .5 .866 -22.376 79.926)"/><path d="m323.957 66.717h100.174v30h-100.174z" transform="matrix(.5 -.866 .866 .5 116.252 364.788)"/></g><path d="m198.791 372.217 57.209-90.872-198.791-65.895-57.209 90.872z" fill="#f2d1a5"/><path d="m313.209 372.217-57.209-90.872 198.791-65.895 57.209 90.872z" fill="#e3a76f"/></g></svg>