<svg xmlns="http://www.w3.org/2000/svg" xmlns:xlink="http://www.w3.org/1999/xlink" width="48" height="48" viewBox="0 0 48 48"><defs><style>.a,.e{fill:#fff;}.a{stroke:#707070;}.b{clip-path:url(#a);}.c{fill:#00dd80;}.d{fill:#00aa63;}.f{fill:#e1ebf0;}.g{fill:#b4d2d7;}.h{fill:#6fa5aa;}</style><clipPath id="a"><rect class="a" width="48" height="48" transform="translate(352 2251)"/></clipPath></defs><g class="b" transform="translate(-352 -2251)"><g transform="translate(355.515 2251)"><path class="c" d="M38.763,32.054a24.217,24.217,0,0,1-5.8,9.036,30.36,30.36,0,0,1-11.335,6.716,3.468,3.468,0,0,1-1.1.194h-.041a3.517,3.517,0,0,1-.676-.067,3.662,3.662,0,0,1-.465-.127A30.358,30.358,0,0,1,8,41.094a24.171,24.171,0,0,1-5.8-9.034C-.146,25.7-.012,18.7.095,13.072l0-.086c.022-.465.036-.953.043-1.492A5.087,5.087,0,0,1,4.93,6.51,19.741,19.741,0,0,0,18.366.846L18.4.817a3.075,3.075,0,0,1,4.174,0L22.6.846A19.745,19.745,0,0,0,36.04,6.51a5.087,5.087,0,0,1,4.79,4.984c.008.543.022,1.03.043,1.492v.037C40.982,18.661,41.115,25.678,38.763,32.054Zm0,0"/><path class="d" d="M38.763,32.054a24.217,24.217,0,0,1-5.8,9.036,30.36,30.36,0,0,1-11.335,6.716,3.468,3.468,0,0,1-1.1.194V0a3.079,3.079,0,0,1,2.046.817L22.6.846A19.745,19.745,0,0,0,36.04,6.51a5.087,5.087,0,0,1,4.79,4.984c.008.543.022,1.03.043,1.492v.037C40.982,18.661,41.115,25.678,38.763,32.054Zm0,0"/><path class="e" d="M32.447,24A11.978,11.978,0,0,1,20.526,35.963h-.042a11.963,11.963,0,1,1,0-23.926h.042A11.978,11.978,0,0,1,32.447,24Zm0,0"/><path class="f" d="M32.447,24A11.978,11.978,0,0,1,20.526,35.963V12.037A11.978,11.978,0,0,1,32.447,24Zm0,0"/><path class="g" d="M25.914,22.277l-5.388,5.388L19.362,28.83a1.41,1.41,0,0,1-1.993,0l-2.5-2.5a1.408,1.408,0,1,1,1.991-1.992l1.508,1.508,5.557-5.556a1.408,1.408,0,0,1,1.991,1.991Zm0,0"/><path class="h" d="M25.914,22.277l-5.388,5.388V23.682l3.4-3.4a1.408,1.408,0,0,1,1.991,1.991Zm0,0"/></g></g></svg>