<?xml version="1.0" encoding="iso-8859-1"?>
<!-- Generator: Adobe Illustrator 19.0.0, SVG Export Plug-In . SVG Version: 6.00 Build 0)  -->
<svg version="1.1" id="Capa_1" xmlns="http://www.w3.org/2000/svg" xmlns:xlink="http://www.w3.org/1999/xlink" x="0px" y="0px"
	 viewBox="0 0 512 512" style="enable-background:new 0 0 512 512;" xml:space="preserve">
<rect x="181" y="361" style="fill:#0050C7;" width="150" height="121"/>
<rect x="256" y="361" style="fill:#004597;" width="75" height="121"/>
<path style="fill:#0050C7;" d="M512,45v256l-30,30H30L0,301V45C0,20.099,20.099,0,45,0h422C491.901,0,512,20.099,512,45z"/>
<path style="fill:#004597;" d="M512,45v256l-30,30H256V0h211C491.901,0,512,20.099,512,45z"/>
<path style="fill:#00E3FF;" d="M467,30H45c-8.401,0-15,6.599-15,15v316h452V45C482,36.599,475.401,30,467,30z"/>
<path style="fill:#00D0FF;" d="M482,45v316H256V30h211C475.401,30,482,36.599,482,45z"/>
<path style="fill:#007BFF;" d="M391,497c0,8.399-6.599,15-15,15H136c-8.401,0-15-6.601-15-15c0-24.901,20.099-45,45-45h180
	C370.901,452,391,472.099,391,497z"/>
<path style="fill:#0050C7;" d="M391,497c0,8.399-6.599,15-15,15H256v-60h90C370.901,452,391,472.099,391,497z"/>
<path style="fill:#007BFF;" d="M512,301v45c0,24.899-20.099,45-45,45H45c-24.901,0-45-20.101-45-45v-45H512z"/>
<path style="fill:#0050C7;" d="M512,301v45c0,24.899-20.099,45-45,45H256v-90H512z"/>
<g>
	<path style="fill:#E1E4FB;" d="M166,121h-61c-8.291,0-15-6.709-15-15s6.709-15,15-15h61c8.291,0,15,6.709,15,15
		S174.291,121,166,121z"/>
	<path style="fill:#E1E4FB;" d="M166,181h-61c-8.291,0-15-6.709-15-15s6.709-15,15-15h61c8.291,0,15,6.709,15,15
		S174.291,181,166,181z"/>
	<path style="fill:#E1E4FB;" d="M166,241h-61c-8.291,0-15-6.709-15-15s6.709-15,15-15h61c8.291,0,15,6.709,15,15
		S174.291,241,166,241z"/>
</g>
<path style="fill:#9E0A48;" d="M412.301,126.7L373.3,142.599L361,166l-30,45v15l30,45l83.32-55.547
	c4.173-2.782,6.68-7.465,6.68-12.481V113.5L412.301,126.7z"/>
<path style="fill:#DD025B;" d="M352.301,145L316,130.899L271,113.5v89.472c0,5.015,2.507,9.699,6.68,12.481L361,271V166L352.301,145
	z"/>
<path style="fill:#FF0B69;" d="M451,113.5L361,166l-90-52.5l6.301-3.9L353.5,63.1c4.501-2.701,10.499-2.701,15,0L451,113.5z"/>
<g>
</g>
<g>
</g>
<g>
</g>
<g>
</g>
<g>
</g>
<g>
</g>
<g>
</g>
<g>
</g>
<g>
</g>
<g>
</g>
<g>
</g>
<g>
</g>
<g>
</g>
<g>
</g>
<g>
</g>
</svg>
