<svg xmlns="http://www.w3.org/2000/svg" width="94.033" height="94.033" viewBox="0 0 94.033 94.033">
  <g id="speak" transform="translate(8.583 5.68)">
    <path id="Path_13662" data-name="Path 13662" d="M94.033,59.387A47.017,47.017,0,1,1,47.017,12.371,47.017,47.017,0,0,1,94.033,59.387Zm0,0" transform="translate(-8.583 -18.051)" fill="rgba(203,44,44,0.66)"/>
    <path id="Path_13668" data-name="Path 13668" d="M160.889,0h22.584a18.665,18.665,0,0,1,7.97,35.541,7.254,7.254,0,0,0-4.166,6.554v4a1.547,1.547,0,0,1-2.824.871l-4.421-6.485a7.24,7.24,0,0,0-5.983-3.161H160.889a18.662,18.662,0,0,1,0-37.324Zm0,0" transform="translate(-131.602 22.602)" fill="#efb617"/>
    <path id="Path_13669" data-name="Path 13669" d="M181.727,36.232h-13.16a18.663,18.663,0,0,1-9.6-34.666,18.663,18.663,0,0,0,1.923,37.226h13.16a7.24,7.24,0,0,1,5.982,3.162l4.421,6.484a1.547,1.547,0,0,0,2.824-.871v-4a7.206,7.206,0,0,1,.9-3.487l-.466-.682a7.238,7.238,0,0,0-5.982-3.162Zm0,0" transform="translate(-131.601 21.316)" fill="rgba(152,116,14,0.15)"/>
    <g id="Group_3222" data-name="Group 3222" transform="translate(24.501 38.174)">
      <path id="Path_13670" data-name="Path 13670" d="M367.374,90.285a3.445,3.445,0,1,1-3.445-3.445A3.445,3.445,0,0,1,367.374,90.285Zm0,0" transform="translate(-335.22 -86.84)" fill="#f8fafd"/>
      <path id="Path_13671" data-name="Path 13671" d="M296.937,90.285a3.445,3.445,0,1,1-3.444-3.445A3.445,3.445,0,0,1,296.937,90.285Zm0,0" transform="translate(-277.415 -86.84)" fill="#f8fafd"/>
      <path id="Path_13672" data-name="Path 13672" d="M226.5,90.285a3.445,3.445,0,1,1-3.445-3.445A3.445,3.445,0,0,1,226.5,90.285Zm0,0" transform="translate(-219.605 -86.84)" fill="#f8fafd"/>
    </g>
  </g>
</svg>
