<svg xmlns="http://www.w3.org/2000/svg" xmlns:xlink="http://www.w3.org/1999/xlink" width="48" height="48" viewBox="0 0 48 48"><defs><style>.a{fill:#fff;stroke:#707070;}.b{clip-path:url(#a);}.c{fill:#ebf6ff;}.d{fill:#b2dcff;}.e{fill:#ffd12b;}.f{fill:#ff8e1d;}.g{fill:#80d398;}.h{fill:#ff39b1;}.i{fill:#00345c;}.j{fill:#005ab1;}</style><clipPath id="a"><rect class="a" width="48" height="48" transform="translate(352 2251)"/></clipPath></defs><g class="b" transform="translate(-352 -2251)"><g transform="translate(352 2251)"><path class="c" d="M40.971,7.029A24,24,0,0,0,7.029,40.971,24,24,0,0,0,40.971,7.029Zm0,0"/><path class="d" d="M40.971,7.029A23.844,23.844,0,0,0,24,0V48A24,24,0,0,0,40.971,7.029Zm0,0"/><path class="e" d="M40.971,7.029a24,24,0,0,0-33.941,0,1.407,1.407,0,0,0,0,1.989l5.325,5.325a1.406,1.406,0,0,0,1.989,0,13.656,13.656,0,0,1,19.313,0,1.406,1.406,0,0,0,1.989,0l5.325-5.325a1.406,1.406,0,0,0,0-1.989Zm0,0"/><path class="f" d="M40.971,7.029A23.844,23.844,0,0,0,24,0V10.344a13.567,13.567,0,0,1,9.657,4,1.406,1.406,0,0,0,1.989,0l5.325-5.325a1.406,1.406,0,0,0,0-1.989Zm0,0"/><path class="g" d="M10.344,24a13.568,13.568,0,0,1,4-9.657,1.4,1.4,0,0,0,0-1.989L9.018,7.029a1.406,1.406,0,0,0-1.989,0,24,24,0,0,0,0,33.941,1.406,1.406,0,0,0,1.989,0l5.325-5.325a1.406,1.406,0,0,0,0-1.989A13.568,13.568,0,0,1,10.344,24Zm0,0"/><path class="h" d="M40.971,7.029a1.406,1.406,0,0,0-1.989,0l-5.325,5.325a1.406,1.406,0,0,0,0,1.989,13.658,13.658,0,0,1,0,19.313,1.406,1.406,0,0,0,0,1.989l5.325,5.325a1.406,1.406,0,0,0,1.989,0,24,24,0,0,0,0-33.941Zm0,0"/><path class="i" d="M39.454,22.649c-2.2-.638-13.284-3.821-15.454-3.821a5.172,5.172,0,0,0,0,10.344c2.17,0,13.254-3.183,15.454-3.821a1.406,1.406,0,0,0,0-2.7Zm0,0"/><path class="j" d="M18.828,24A5.178,5.178,0,0,0,24,29.172V18.828A5.178,5.178,0,0,0,18.828,24Zm0,0"/><path class="j" d="M27.119,36.057H20.881a1.406,1.406,0,0,1,0-2.812h6.239a1.406,1.406,0,0,1,0,2.813Zm0,0"/><path class="i" d="M27.119,33.245H24v2.813h3.119a1.406,1.406,0,0,0,0-2.812Zm0,0"/></g></g></svg>