<svg xmlns="http://www.w3.org/2000/svg" xmlns:xlink="http://www.w3.org/1999/xlink" width="48" height="48" viewBox="0 0 48 48"><defs><style>.a{fill:#fff;stroke:#707070;}.b{clip-path:url(#a);}.c{fill:#ff0b69;}.d{fill:#dd025b;}.e{fill:#7986e8;}.f{fill:#6e77e5;}.g{fill:#fedb41;}.h{fill:#fcbf29;}</style><clipPath id="a"><rect class="a" width="48" height="48" transform="translate(352 2251)"/></clipPath></defs><g class="b" transform="translate(-352 -2251)"><g transform="translate(352 2251)"><path class="c" d="M47.353,31.256,24.759,17.194a1.394,1.394,0,0,0-1.519,0L.647,31.256a1.4,1.4,0,0,0,0,2.362L23.241,47.775a1.394,1.394,0,0,0,1.519,0L47.353,33.619a1.4,1.4,0,0,0,0-2.362Z"/><path class="d" d="M48,32.438a1.418,1.418,0,0,1-.647,1.181L24.759,47.775A1.574,1.574,0,0,1,24,48V16.969a1.321,1.321,0,0,1,.759.225L47.353,31.256A1.418,1.418,0,0,1,48,32.438Z"/><path class="e" d="M47.353,22.819,24.759,8.756a1.394,1.394,0,0,0-1.519,0L.647,22.819a1.4,1.4,0,0,0,0,2.362L23.241,39.244a1.394,1.394,0,0,0,1.519,0L47.353,25.181a1.4,1.4,0,0,0,0-2.362Z"/><path class="f" d="M48,24a1.418,1.418,0,0,1-.647,1.181L24.759,39.244a1.574,1.574,0,0,1-.759.225V8.531a1.321,1.321,0,0,1,.759.225L47.353,22.819A1.418,1.418,0,0,1,48,24Z"/><path class="g" d="M47.353,14.381,24.759.225a1.394,1.394,0,0,0-1.519,0L.647,14.381a1.4,1.4,0,0,0,0,2.362L23.241,30.806a1.394,1.394,0,0,0,1.519,0L47.353,16.744a1.4,1.4,0,0,0,0-2.362Z"/><path class="h" d="M48,15.563a1.418,1.418,0,0,1-.647,1.181L24.759,30.806a1.574,1.574,0,0,1-.759.225V0a1.321,1.321,0,0,1,.759.225L47.353,14.381A1.418,1.418,0,0,1,48,15.563Z"/></g></g></svg>