<svg height="512pt" viewBox="0 -61 512 512" width="512pt" xmlns="http://www.w3.org/2000/svg"><path d="m503.597656 185.097656c-4.496094-5.097656-109.597656-125.097656-247.597656-125.097656s-243.101562 120-247.597656 125.097656l-8.402344 9.902344 8.402344 9.898438c4.496094 5.101562 109.597656 125.101562 247.597656 125.101562s243.101562-120 247.597656-125.101562l8.402344-9.898438zm0 0" fill="#e0f4ff"/><path d="m512 195-8.402344 9.898438c-4.496094 5.101562-109.597656 125.101562-247.597656 125.101562v-270c138 0 243.101562 120 247.597656 125.097656zm0 0" fill="#bbdcff"/><path d="m256 330c74.441406 0 135-60.558594 135-135l-25-60h-90.625l-19.375 60-30 25.625v88.75zm0 0" fill="#ff641a"/><path d="m30 90h-30v-90h91v30h-61zm0 0" fill="#537983"/><path d="m91 390h-91v-90h30v60h61zm0 0" fill="#537983"/><path d="m512 90h-30v-60h-61v-30h91zm0 0" fill="#3e5959"/><path d="m512 390h-91v-30h61v-60h30zm0 0" fill="#3e5959"/><path d="m286 240h-30v-45l-30-30h-80l-25 30c0 74.441406 60.558594 135 135 135v-60h30zm0 0" fill="#7fe881"/><path d="m256 60c-74.441406 0-135 60.558594-135 135h60v30h30v-30h45l30-21.65625v-95.21875zm0 0" fill="#537983"/><path d="m391 195c0-74.441406-60.558594-135-135-135v60h-30v30h30v45h45v-30h30v30zm0 0" fill="#00c0f1"/></svg>