<svg id="Layer_1" height="512" viewBox="0 0 512 512" width="512" xmlns="http://www.w3.org/2000/svg" data-name="Layer 1"><path d="m286.52 296.64v.01a109.268 109.268 0 0 0 -27.95 22.83 69.656 69.656 0 0 1 17.03-37.09 54.473 54.473 0 0 1 10.92 14.25z" fill="#867af4"/><path d="m152.38 11.92a80.218 80.218 0 0 1 80.04 85.74l-1.76 25.51a5.509 5.509 0 0 1 -.06.57 7.814 7.814 0 0 1 -2.39 4.58l-12.74 5.96-3.68-15.18a89.839 89.839 0 0 0 -36.84-53.16 71.661 71.661 0 0 1 -66.05 29.72l-6.04-.65a3.116 3.116 0 0 0 -3.44 2.84l-2.67 33.39c-.09 1.11-19.29-3.4-19.29-3.4a6.261 6.261 0 0 1 -3.23-4.13 4.931 4.931 0 0 1 -.16-1.02l-1.72-25.03c-.13-1.89-.19-3.76-.19-5.62a80.217 80.217 0 0 1 80.22-80.12z" fill="#6d7486"/><path d="m243.58 134.8a19.46 19.46 0 0 1 .55 4.61 19.319 19.319 0 0 1 -15.92 19.01v.12a75.9 75.9 0 0 1 -41.21 67.48v.01a75.862 75.862 0 0 1 -110.46-67.49v-.12a19.34 19.34 0 0 1 -15.4-23.62 14.537 14.537 0 0 1 13-11.07l.09-.02a6.261 6.261 0 0 0 3.23 4.13s19.2 4.51 19.29 3.4l2.67-33.39a3.116 3.116 0 0 1 3.44-2.84l6.04.65a71.661 71.661 0 0 0 66.05-29.72 89.839 89.839 0 0 1 36.84 53.16l3.68 15.18 12.74-5.96a7.814 7.814 0 0 0 2.39-4.58h.02a14.54 14.54 0 0 1 12.96 11.06z" fill="#ffd8b7"/><path d="m117.8 254.71v-28.15l.2-.41a75.934 75.934 0 0 0 69-.12v46.37l-.06.04a59.711 59.711 0 0 1 -69.14-.04z" fill="#e5bc93"/><path d="m477.65 235.95 3.05 18.17-.8.19-28.33 28.05-1.77-20.4a1.53 1.53 0 0 1 .51-1.27l26.13-25.14a.728.728 0 0 1 1.21.4z" fill="#7ce5e9"/><path d="m499.46 257.6a.725.725 0 0 1 .38 1.23l-26.36 25.56a1.555 1.555 0 0 1 -1.28.43l-20.63-2.46 28.33-28.05.8-.19z" fill="#6addc7"/><path d="m258.57 319.48a109.07 109.07 0 1 1 -27 71.76 109.268 109.268 0 0 1 27-71.76z" fill="#fb6771"/><path d="m275.6 282.39a69.656 69.656 0 0 0 -17.03 37.09 109.07 109.07 0 0 0 -25.79 88.04h-27.65v-.62l19.81-81.19-10.79-13.54 14.96-18.45-42.11-38.93v-6.96l75.66 25.55a54.509 54.509 0 0 1 12.94 9.01z" fill="#604af3"/><path d="m229.11 293.72-14.96 18.45 10.79 13.54-19.81 81.19v.62h-18.13v-.98-134.14-17.61z" fill="#867af4"/><path d="m187 406.54v.98h-69.2v-135.12a59.711 59.711 0 0 0 69.14.04l.06-.04z" fill="#d4e1f4"/><path d="m117.8 406.54v.98h-18.22v-.63l-19.8-81.18 10.78-13.54-14.96-18.45 42.2-39.01v17.69z" fill="#867af4"/><path d="m117.8 247.83v6.88l-42.2 39.01 14.96 18.45-10.78 13.54 19.8 81.18v.63h-52.21v-78a71.985 71.985 0 0 0 -17.88-47.48 54.818 54.818 0 0 1 12.56-8.66z" fill="#604af3"/><path d="m47.37 329.52v78h-35.43v-89.66a54.786 54.786 0 0 1 17.55-35.82 71.985 71.985 0 0 1 17.88 47.48z" fill="#867af4"/><path d="m379.69 353.51a54.459 54.459 0 1 1 -39.28-16.75 54.24 54.24 0 0 1 39.28 16.75z" fill="#d8ff33"/><path d="m354.28 378.67a18.712 18.712 0 1 1 -13.87-6.16 18.617 18.617 0 0 1 13.87 6.16z" fill="#c6e02d"/><path d="m148 226.15a75.962 75.962 0 0 1 -41.46-67.61v-.12l-15.4-23.62a14.769 14.769 0 0 1 1.507-3.789c-5.664-.935-15.187-3.171-15.187-3.171a6.261 6.261 0 0 1 -3.23-4.13l-.09.02a14.537 14.537 0 0 0 -13 11.07 19.34 19.34 0 0 0 15.4 23.62v.12a75.87 75.87 0 0 0 90.842 74.348 75.328 75.328 0 0 1 -19.382-6.738z" fill="#efc2a0"/><path d="m262.78 407.52a108.955 108.955 0 0 1 53.74-110.87 108.019 108.019 0 0 1 38.89-13.227 109.783 109.783 0 0 0 -15-1.033 108.845 108.845 0 1 0 0 217.69 109.7 109.7 0 0 0 14.972-1.03 108.909 108.909 0 0 1 -92.602-91.53z" fill="#ffa9b1"/><path d="m96.16 92.04a80.24 80.24 0 0 1 68.222-79.225 81.116 81.116 0 0 0 -12-.895 80.217 80.217 0 0 0 -80.222 80.12c0 1.86.06 3.73.19 5.62l1.72 25.03a4.931 4.931 0 0 0 .16 1.02 6.261 6.261 0 0 0 3.23 4.13s19.2 4.51 19.29 3.4l1.026-12.83-1.426-20.75c-.13-1.89-.19-3.76-.19-5.62z" fill="#4a5160"/><g fill="#284268"><path d="m284.515 334.661a5.975 5.975 0 0 0 3.948-1.485 78.693 78.693 0 0 1 18.62-12.125 6 6 0 0 0 -5.063-10.879 90.672 90.672 0 0 0 -21.459 13.973 6 6 0 0 0 3.954 10.516z"/><path d="m265.544 414.156a76.271 76.271 0 0 1 -3.491-21.888 6 6 0 1 0 -12 .151 88.3 88.3 0 0 0 4.04 25.329 6 6 0 1 0 11.45-3.592z"/><path d="m257.546 374.41a5.992 5.992 0 0 0 7.4-4.146 76.51 76.51 0 0 1 9.054-20.24 6 6 0 1 0 -10.129-6.432 88.454 88.454 0 0 0 -10.471 23.414 6 6 0 0 0 4.146 7.404z"/><path d="m327.435 314.69a6.174 6.174 0 0 0 .914-.069 79.776 79.776 0 0 1 19.374-.557q1.462.136 2.9.314a6 6 0 1 0 1.477-11.908q-1.615-.2-3.264-.354a91.826 91.826 0 0 0 -22.3.642 6 6 0 0 0 .9 11.932z"/><path d="m372.134 320.036a69.668 69.668 0 0 1 14.665 8.508 6 6 0 0 0 7.242-9.568 81.73 81.73 0 0 0 -17.193-9.976 6 6 0 0 0 -4.714 11.036z"/><path d="m290.064 450.621a78.262 78.262 0 0 1 -14.9-16.478 6 6 0 1 0 -9.955 6.7 90.248 90.248 0 0 0 17.179 19 6 6 0 0 0 7.671-9.228z"/><path d="m373.915 461.338a78.45 78.45 0 0 1 -21.249 6.481 6 6 0 0 0 .913 11.931 6.089 6.089 0 0 0 .927-.072 90.48 90.48 0 0 0 24.5-7.473 6 6 0 1 0 -5.089-10.867z"/><path d="m407.157 339.831a6 6 0 0 0 -1.606 8.332 77.143 77.143 0 0 1 9.676 19.97 6 6 0 0 0 11.44-3.62 89.1 89.1 0 0 0 -11.178-23.076 6 6 0 0 0 -8.332-1.606z"/><path d="m418.773 390.018q.009.582.009 1.168c0 2.421-.116 4.881-.345 7.31a77.443 77.443 0 0 1 -2.5 13.53 6 6 0 1 0 11.557 3.231 89.506 89.506 0 0 0 2.9-15.633c.264-2.8.4-5.642.4-8.438q0-.676-.01-1.35a6 6 0 1 0 -12 .182z"/><path d="m330.424 468.112a78.919 78.919 0 0 1 -21.439-5.858 6 6 0 0 0 -4.767 11.012 90.883 90.883 0 0 0 24.7 6.75 6 6 0 1 0 1.509-11.9z"/><path d="m415.205 430.419a6 6 0 0 0 -8.277 1.869 77.731 77.731 0 0 1 -14.422 16.88 6 6 0 1 0 7.923 9.013 89.75 89.75 0 0 0 16.645-19.481 6 6 0 0 0 -1.869-8.281z"/></g><path d="m309.94 391.24a54.486 54.486 0 0 1 42.476-53.14 54.476 54.476 0 1 0 0 106.265 54.483 54.483 0 0 1 -42.476-53.125z" fill="#9be147"/><path d="m500.554 251.7-14.632-2.715-2.366-14.085a6.728 6.728 0 0 0 -11.2-3.744l-.079.075-26.077 25.084a7.581 7.581 0 0 0 -2.381 6.164l1.527 17.592-27.044 26.773a114.862 114.862 0 0 0 -129.572-18.174 60.729 60.729 0 0 0 -23.391-20.659l-72.339-24.488v-13.941a81.867 81.867 0 0 0 41.093-66.621 25.357 25.357 0 0 0 15.314-29.594 20.342 20.342 0 0 0 -12.455-14.227l1.454-21.067a86.219 86.219 0 0 0 -86.026-92.153 86.267 86.267 0 0 0 -86.22 86.12c0 2.033.069 4.063.2 6.031l1.447 21.042a20.328 20.328 0 0 0 -12.5 14.269 25.517 25.517 0 0 0 -.72 6.028 25.244 25.244 0 0 0 16.068 23.57 81.2 81.2 0 0 0 23.862 53.42 82.018 82.018 0 0 0 17.283 13.2v13.918l-72.438 24.498a60.854 60.854 0 0 0 -33.4 49.345c-.014.166-.021.332-.021.5v89.66a6 6 0 0 0 6 6h215.8a114.853 114.853 0 1 0 198.95-98.086l27.039-26.775 17.709 2.111a7.531 7.531 0 0 0 6.218-2.073l26.375-25.575a6.725 6.725 0 0 0 -3.478-11.422zm-224.591 39.85c.817 1 1.584 2.042 2.32 3.105q-3.775 2.43-7.346 5.14a64.24 64.24 0 0 1 5.026-8.244zm-123.583-273.63a74.219 74.219 0 0 1 74.054 79.327l-1.76 25.51c0 .03-.011.1-.013.13a1.732 1.732 0 0 1 -.176.551l-4.912 2.3-1.952-8.05a95.84 95.84 0 0 0 -39.3-56.712 6 6 0 0 0 -8.257 1.488 65.733 65.733 0 0 1 -60.522 27.236l-6.031-.65a9.117 9.117 0 0 0 -10.072 8.327l-2.183 27.3c-3.176-.605-7.36-1.5-11.2-2.384v-.01l-1.72-25.026c-.117-1.7-.176-3.449-.176-5.208a74.254 74.254 0 0 1 74.22-74.129zm-111.01 383.6h-23.43v-83.4a48.654 48.654 0 0 1 11.124-26.948 65.965 65.965 0 0 1 12.306 38.348zm12 0v-72a77.968 77.968 0 0 0 -15.47-46.592 48.917 48.917 0 0 1 6.475-4l60.439-20.386-33.287 30.772a6 6 0 0 0 -.587 8.185l11.923 14.7-7.777 9.769a6 6 0 0 0 -1.135 5.159l18.143 74.393zm127.63 0h-57.2v-64.76a6 6 0 0 0 -12 0v64.76h-7.354l-18.14-74.374 8.948-11.239a6 6 0 0 0 -.033-7.516l-11.421-14.082 28-25.882v35.628a6 6 0 0 0 12 0v-21.172a65.755 65.755 0 0 0 57.2 0zm0-132.335a53.773 53.773 0 0 1 -57.2 0v-33.937a81.056 81.056 0 0 0 28.58 5.132 82.259 82.259 0 0 0 28.62-5.158zm3.255-48.491a69.933 69.933 0 0 1 -63.53.111 69.963 69.963 0 0 1 -38.185-62.265v-.12a6 6 0 0 0 -4.969-5.911 13.257 13.257 0 0 1 -10.981-13.1 13.535 13.535 0 0 1 .377-3.182 8.231 8.231 0 0 1 4.414-5.581 12.2 12.2 0 0 0 3.344 2.533 5.963 5.963 0 0 0 1.363.5c20.839 4.894 21.875 4.14 24.145 2.487a6.216 6.216 0 0 0 2.5-4.45l2.433-30.426 3.095.334a77.757 77.757 0 0 0 67.872-27.404 83.884 83.884 0 0 1 29.826 46.294l3.68 15.179a6 6 0 0 0 8.374 4.021l12.739-5.96a5.979 5.979 0 0 0 1.563-1.059 13.818 13.818 0 0 0 1.567-1.743 8.208 8.208 0 0 1 3.868 5.265 13.541 13.541 0 0 1 .38 3.193 13.317 13.317 0 0 1 -10.963 13.1 6 6 0 0 0 -4.957 5.909v.12a69.9 69.9 0 0 1 -37.945 62.139zm8.745 180.826v-133.01l27.908 25.8-11.419 14.082a6 6 0 0 0 -.031 7.518l8.955 11.238-18.147 74.372zm33.043 0h-13.424l18.15-74.388a6 6 0 0 0 -1.137-5.161l-7.784-9.768 11.923-14.7a6 6 0 0 0 -.588-8.185l-33.327-30.818 60.483 20.425a48.283 48.283 0 0 1 6.859 4.286 76 76 0 0 0 -14.3 33.66 114.755 114.755 0 0 0 -27.33 74.365c.002 3.441.173 6.876.475 10.284zm217.217-10.28a102.873 102.873 0 1 1 -102.85-102.85 101.934 101.934 0 0 1 69.355 26.91l-30.175 29.87a59.806 59.806 0 0 0 -39.18-14.41 60.5 60.5 0 1 0 47.5 23.057l30.227-29.917a102.2 102.2 0 0 1 25.123 67.34zm-107.1 5.371a6 6 0 0 0 8.485.043l8.2-8.115a12.815 12.815 0 1 1 -7.823-9.142l-8.817 8.729a6 6 0 0 0 -.049 8.485zm4.254-30.1a24.807 24.807 0 1 0 21.673 12.877l17.226-17.052a48.487 48.487 0 1 1 -8.294-8.675l-17.071 16.9a24.729 24.729 0 0 0 -13.538-4.051zm115.549-102.933 17.426-16.767.792 4.717-17.74 17.562zm14.856 15.035-6.194-.739 17.554-17.374 6.147 1.14z" fill="#284268"/></svg>