<svg height="512" viewBox="0 0 512 512" width="512" xmlns="http://www.w3.org/2000/svg"><g id="Flat"><rect fill="#2b7cd4" height="240" rx="16" width="224" x="24" y="136"/><rect fill="#3ea7ff" height="240" rx="16" width="192" x="24" y="136"/><circle cx="120" cy="256" fill="#808080" r="64"/><path d="m101.65723 285.65674-11.31446-11.31348 21.65723-21.65726v-36.686h16v40a8.00035 8.00035 0 0 1 -2.34277 5.65674z" fill="#65dcff"/><path d="m488 128v240h-128v-240.0001a103.9999 103.9999 0 0 0 -103.9999-103.9999h-.0001 128a104 104 0 0 1 104 104z" fill="#4d4d4d"/><path d="m360 239.99994v136.00017a111.99989 111.99989 0 0 1 -111.99989 111.99989h128a111.99989 111.99989 0 0 0 111.99989-111.99989v-136.00017a63.99994 63.99994 0 0 0 -63.99994-63.99994h-.00012a63.99994 63.99994 0 0 0 -63.99994 63.99994z" fill="#424242"/><g fill="#808080"><circle cx="424" cy="240" r="16"/><circle cx="400" cy="432" r="16"/><circle cx="424" cy="368" r="16"/><circle cx="424" cy="304" r="16"/><path d="m64 376h160v.00011a111.99989 111.99989 0 0 0 111.99989 111.99989h-160a111.99989 111.99989 0 0 1 -111.99989-111.99989z"/><path d="m224 136v-.00011a111.99989 111.99989 0 0 1 111.99989-111.99989h-160a111.99989 111.99989 0 0 0 -111.99989 111.99989v.00011z"/><circle cx="240" cy="256" r="24"/></g></g></svg>