<svg id="Layer_1" enable-background="new 0 0 256 256" height="512" viewBox="0 0 256 256" width="512" xmlns="http://www.w3.org/2000/svg"><g><g><path d="m188.51 130.86c1.279 7.002 6.18 10.305 11.47 10.07l-1.67.3c-5.97 1.07-9.94 6.78-8.87 12.75 1.198 6.925 6.129 10.306 11.44 10.08-8.431 1.519-12.044 9.187-9.95 15.6h-89.29c.158-9.401-1.16-19.807-4.81-28.34-1.15-2.68-.71-5.78 1.14-8.03l7.5-9.15c1.35-1.64 3.31-2.67 5.43-2.84 10.19-.79 15.09-5.39 17.37-10.34l14.51 14.51 28.27-28.27c6.14-6.16 6.15-16.13 0-22.3-6.16-6.16-16.14-6.16-22.3 0l-5.97 5.97-5.97-5.97c-6.16-6.16-16.14-6.16-22.3 0s-6.16 16.14 0 22.3l1.58 1.58c-1.47.12.76-.07-16.06 1.4-3.05.27-5.93 1.45-8.28 3.4l-8.76 7.27v-84.76h119.57v81.31c-1.298-.037-6.572.488-9.42 2.44-3.47 2.36-5.42 6.62-4.63 11.02z" fill="#efefef"/></g><g><g><path d="m171.05 107.2-28.27 28.27-14.51-14.51c1.28-2.75 1.75-5.6 1.86-7.97.13-2.89-2.3-5.25-5.18-4.99l-8.86.78-1.58-1.58c-6.16-6.16-6.16-16.14 0-22.3s16.14-6.16 22.3 0l5.97 5.97 5.97-5.97c6.16-6.16 16.14-6.16 22.3 0 6.15 6.17 6.14 16.14 0 22.3z" fill="#fc5d3d"/></g><g><path d="m141.013 125.924c-.977-.976-.977-2.559 0-3.535l2.315-2.315c.977-.977 2.559-.977 3.535 0 .977.976.977 2.559 0 3.535l-2.315 2.315c-.977.976-2.559.976-3.535 0zm9.386-9.386c-.977-.977-.977-2.56 0-3.536l13.217-13.218c3.294-3.306.972-9.004-3.716-9.004-1.381 0-2.5-1.119-2.5-2.5s1.119-2.5 2.5-2.5c9.122 0 13.692 11.08 7.254 17.537l-13.22 13.22c-.976.977-2.558.977-3.535.001z" fill="#ffcbc2"/></g></g><g><g><path d="m193.142 170.679h-92.067c-1.381 0-2.5-1.119-2.5-2.5s1.119-2.5 2.5-2.5h92.067c1.381 0 2.5 1.119 2.5 2.5s-1.12 2.5-2.5 2.5z" fill="#fff"/></g><g><path d="m193.142 122.35c-1.381 0-2.5-1.119-2.5-2.5v-71.448c0-1.381 1.119-2.5 2.5-2.5s2.5 1.119 2.5 2.5v71.448c0 1.38-1.12 2.5-2.5 2.5z" fill="#fff"/></g><g><path d="m202.561 20.174v15.913h-119.567v-15.913c0-7.753 6.285-14.038 14.038-14.038h91.49c7.744 0 14.039 6.286 14.039 14.038z" fill="#afafaf"/></g><g><path d="m202.56 187.12v8.46c0 7.75-6.29 14.03-14.04 14.03h-94.87c3.424-8.21 7.99-21.012 7.99-29.95h89.29c1.61 4.88 6.45 8.04 11.63 7.46z" fill="#afafaf"/></g></g><g><path d="m155.87 209.61c-.68 1.81-1.65 3.64-2.88 5.39-3.14 4.51-7.91 8.54-13.45 10.65-4.92 1.88-8.04 6.77-7.94 12.04l.22 12.17h-83.15l1.83-23.1c.79-10.02.21-20.09-1.7-29.96-5.24-27.11 13.24-77.19 34.19-95.87v19.92l8.76-7.27c2.35-1.95 5.23-3.13 8.28-3.4 16.82-1.47 14.59-1.28 16.06-1.4l8.86-.78c2.88-.26 5.31 2.1 5.18 4.99-.11 2.37-.58 5.22-1.86 7.97-2.28 4.95-7.18 9.55-17.37 10.34-2.12.17-4.08 1.2-5.43 2.84l-7.5 9.15c-1.85 2.25-2.29 5.35-1.14 8.03 3.65 8.53 4.97 18.94 4.81 28.34 0 8.94-4.57 21.74-7.99 29.95z" fill="#ffb69f"/></g><g><path d="m155.87 209.61c-.68 1.81-1.65 3.64-2.88 5.39h-61.74s1.01-2.08 2.4-5.39z" fill="#ea8f7d"/></g><g><path d="m58.214 243.352c-1.376-.109-2.404-1.313-2.295-2.689l.316-3.987c.109-1.377 1.32-2.407 2.689-2.295 1.376.109 2.404 1.313 2.295 2.689l-.316 3.987c-.109 1.38-1.318 2.405-2.689 2.295zm1.117-13.956c-1.377-.102-2.411-1.301-2.309-2.678.212-2.868.32-5.784.32-8.665 0-7.514-.727-15.08-2.161-22.489-3.332-17.254 4.584-43.462 12.012-59.753.574-1.256 2.055-1.81 3.312-1.238 1.256.573 1.811 2.056 1.238 3.312-7.582 16.628-14.626 41.326-11.652 56.729 1.494 7.72 2.252 15.606 2.252 23.438 0 3.004-.112 6.044-.334 9.034-.104 1.403-1.332 2.416-2.678 2.31z" fill="#fbe0e2"/></g><g><path d="m214.65 115.226-12.09 2.17v-23.39l8.02-1.44c6.26-1.12 12.25 3.04 13.37 9.3 1.11 6.383-3.135 12.253-9.3 13.36z" fill="#ffb69f"/></g><g><path d="m215.19 173.73c-1.198-6.925-6.129-10.306-11.44-10.08l1.65-.3c5.414-.97 10.068-5.827 8.69-13.79-.99-5.48-5.87-9.27-11.28-9.03l1.67-.3c5.212-.934 10.157-5.706 8.68-13.79-.94-5.24-5.46-8.94-10.6-9.04-1.298-.037-6.572.488-9.42 2.44-3.47 2.36-5.42 6.62-4.63 11.02 1.279 7.002 6.18 10.305 11.47 10.07l-1.67.3c-5.97 1.07-9.94 6.78-8.87 12.75 1.198 6.925 6.129 10.306 11.44 10.08-8.431 1.519-12.044 9.187-9.95 15.6 1.61 4.88 6.45 8.04 11.63 7.46.504-.042 3.234-.546 3.76-.64 5.97-1.07 9.95-6.78 8.87-12.75z" fill="#ffb69f"/></g><g><path d="m215.19 173.73c-1.198-6.925-6.129-10.306-11.44-10.08l1.65-.3c5.414-.97 10.068-5.827 8.69-13.79-.99-5.48-5.87-9.27-11.28-9.03l1.67-.3c5.212-.934 10.157-5.706 8.68-13.79-.94-5.24-5.46-8.94-10.6-9.04-1.298-.037-6.572.488-9.42 2.44-3.47 2.36-5.42 6.62-4.63 11.02 1.279 7.002 6.18 10.305 11.47 10.07l-1.67.3c-5.97 1.07-9.94 6.78-8.87 12.75 1.198 6.925 6.129 10.306 11.44 10.08-8.431 1.519-12.044 9.187-9.95 15.6 1.61 4.88 6.45 8.04 11.63 7.46.504-.042 3.234-.546 3.76-.64 5.97-1.07 9.95-6.78 8.87-12.75z" fill="#ffb69f"/></g><g><path d="m135.72 192.14c-1.38 0-2.5 1.12-2.5 2.5 0 1.37 1.12 2.49 2.5 2.49h14.11c1.38 0 2.5-1.12 2.5-2.49 0-1.38-1.12-2.5-2.5-2.5z"/><path d="m160.74 18.61h-1.14c-1.38 0-2.5 1.12-2.5 2.5s1.12 2.5 2.5 2.5h1.141c1.38 0 2.5-1.12 2.5-2.5s-1.121-2.5-2.501-2.5z"/><path d="m147.27 18.61h-22.46c-1.38 0-2.5 1.12-2.5 2.5s1.12 2.5 2.5 2.5h22.459c1.38 0 2.5-1.12 2.5-2.5s-1.12-2.5-2.499-2.5z"/><circle cx="174.03" cy="209.61" r="2.5"/><circle cx="202.56" cy="76.59" r="2.5"/><path d="m51.67 159.86c-1.33-.32-2.7.53-3.02 1.85-4.326 18.15-3.529 27.046-2.225 36.037.85 5.863 1.915 11.766 1.915 20.302 0 2.81-.11 5.68-.33 8.51l-1.83 23.1c-.129 1.44 1.029 2.7 2.49 2.7 1.3 0 2.39-1.01 2.49-2.3l1.83-23.1c.23-2.95.35-5.95.35-8.91 0-7.26-.7-14.57-2.09-21.73-1.991-10.348-.173-23.236 2.27-33.44.32-1.349-.51-2.699-1.85-3.019z"/><path d="m54.48 150.26c-1.3-.4-2.72.35-3.13 1.65-.399 1.325.34 2.721 1.65 3.13 1.398.407 2.73-.377 3.13-1.65.41-1.32-.33-2.72-1.65-3.13z"/><path d="m226.411 101.426c-1.36-7.604-8.653-12.684-16.273-11.32l-5.078.912v-4.428c0-1.38-1.12-2.5-2.5-2.5-1.37 0-2.49 1.11-2.5 2.48v.02 28.49c-1.23.142-2.737.409-4.274.875-7.519 2.218-10.841 9.104-9.736 15.355.666 3.943 2.717 7.714 6.074 9.972-4.408 3.313-5.897 8.482-5.127 13.281.651 4.057 2.915 7.85 6.393 10.037-3.868 3.063-5.867 7.949-5.5 12.56h-83.74c-.09-7.08-1.02-17.45-5.02-26.82-.775-1.791-.495-3.916.77-5.46l7.5-9.16c.92-1.11 2.27-1.81 3.7-1.93 10-.7 15.15-5.13 17.71-8.75l12.2 12.2c.985.984 2.566.962 3.54 0 1.085-1.085 26.099-26.103 28.27-28.27 7.15-7.19 7.095-18.717-.002-25.838-7.071-7.071-18.636-7.204-25.838-.002l-4.199 4.2-4.2-4.2c-7.132-7.132-18.701-7.14-25.84 0-5.973 5.972-7.396 15.95-1.881 23.592-2.227.197-5.658.497-11.049.968-3.57.31-6.91 1.69-9.66 3.97l-4.66 3.87v-76.94h114.57v28c0 1.38 1.12 2.5 2.5 2.5s2.5-1.12 2.5-2.5l.001-46.416c0-9.119-7.419-16.538-16.538-16.538h-91.49c-9.119 0-16.538 7.419-16.538 16.538l-.006 79.675c-11.395 10.65-20.271 27.868-25.82 42.451-.49 1.28.16 2.73 1.45 3.22 1.236.484 2.73-.143 3.22-1.45 5.695-15.047 13.37-28.419 21.15-37.084v12.69l-6.389 5.302c-1.063.882-1.209 2.458-.327 3.521.883 1.063 2.458 1.208 3.521.327 8.22-6.822 4.314-3.581 16.056-13.326 1.96-1.62 4.35-2.6 6.9-2.83 4.698-.405 23.924-2.092 24.925-2.18 1.354-.129 2.52.996 2.458 2.384-.122 2.602-.669 4.966-1.628 7.028-.001.003-.003.005-.005.008-1.63 3.4-4.99 8.01-15.29 8.9-2.78.22-5.4 1.59-7.17 3.74l-7.5 9.16c-2.386 2.892-3.055 6.976-1.51 10.6 3.507 8.162 4.801 18.547 4.61 27.31 0 .007.002.014.002.022-.083 9.99-6.29 26.324-10.141 34.268-.602 1.243-.083 2.738 1.159 3.34 1.237.6 2.735.088 3.34-1.159.035-.073.753-1.559 1.802-3.981h56.574c-.295.492-.603.979-.936 1.45-3.04 4.39-7.52 7.95-12.29 9.75-5.726 2.209-9.55 7.768-9.55 14.18 0 .435.212 11.985.22 12.42.021 1.35 1.141 2.45 2.5 2.45h.051c1.37-.03 2.47-1.17 2.449-2.55-.001-.049-.22-12.25-.22-12.25 0-4.551 2.703-8.202 6.33-9.58 5.76-2.2 10.95-6.3 14.61-11.55.982-1.399 1.815-2.847 2.491-4.32h6.499c1.38 0 2.5-1.12 2.5-2.5 0-1.37-1.11-2.49-2.48-2.5-.01 0-.01 0-.02 0h-66.681c3.94-10.07 6.19-18.47 6.69-24.95h85.22c2.008 4.089 6.108 7.015 10.8 7.467v5.953c-.01 6.35-5.189 11.52-11.54 11.53h-4.489c-1.381 0-2.5 1.12-2.5 2.5s1.119 2.5 2.5 2.5h4.489c9.12 0 16.54-7.42 16.54-16.53v-6.333c.386-.068.821-.146 1.332-.239 8.241-1.49 12.508-8.78 11.261-15.713-.764-4.396-2.984-7.886-6.098-9.978 3.73-2.817 6.115-7.727 4.995-14.201-.68-3.762-2.897-6.925-5.917-8.899 3.959-2.951 6.132-7.959 4.988-14.218-.545-3.037-2.104-5.687-4.28-7.639l3.75-.673c7.566-1.358 12.644-8.648 11.32-16.261zm-140.917-81.252c0-6.362 5.176-11.538 11.538-11.538h91.49c6.362 0 11.538 5.176 11.538 11.538v13.413h-114.566zm39.237 85.336-7.698.678c-6.699-6.699-5.383-14.909-.753-19.518 5.134-5.158 13.615-5.162 18.76 0l5.97 5.97c.94.94 2.59.94 3.54 0l5.97-5.97c5.068-5.086 13.527-5.252 18.761 0 5.134 5.153 5.171 13.577-.001 18.766l-26.499 26.499c-8.858-8.858-6.327-6.327-11.562-11.565.815-2.228 1.287-4.663 1.408-7.267.2-4.419-3.545-7.994-7.896-7.593zm87.997 68.647c.79 4.56-1.977 8.984-7.229 9.931-1.829.332-2.892.514-3.218.548-4.178.466-8.251-2.272-9.21-6.634-1.141-5.123 2.258-10.408 7.642-11.371.827-.149.204-.05 3.236-.483 3.555-.114 7.724 1.922 8.779 8.009zm-1.102-24.171c1.126 6.504-2.537 10.163-6.673 10.904-2.022.367-1.072.215-4.271.672-4.258.13-7.847-2.624-8.781-8.024-.835-4.655 2.302-9.034 6.85-9.848 2.049-.368 1.103-.218 4.249-.663 4.188-.128 7.883 2.839 8.626 6.959zm-7.588-12.216c-.998.179-3.687.675-4.705.663-4.443-.156-7.342-2.918-8.363-8.022-.673-3.768 1.287-7.872 5.35-9.372 1.38-.488 3.088-.828 4.371-1.005 5.527-.703 9.265 2.702 10.011 6.856 1.115 6.114-2.193 10.078-6.664 10.88zm1.022-23.363v-18.31l5.961-1.07c4.898-.877 9.594 2.389 10.467 7.268.853 4.9-2.413 9.597-7.278 10.471z"/></g></g></svg>