<svg xmlns="http://www.w3.org/2000/svg" xmlns:xlink="http://www.w3.org/1999/xlink" width="24" height="24" viewBox="0 0 24 24"><defs><style>.a,.c{fill:#fff;}.a{stroke:#707070;}.b{clip-path:url(#a);}</style><clipPath id="a"><rect class="a" width="24" height="24" transform="translate(0.237)"/></clipPath></defs><g class="b" transform="translate(-0.237)"><g transform="translate(0 2)"><path class="c" d="M16,22H14V20H10v2H8a1,1,0,0,0,0,2h8a1,1,0,0,0,0-2Z" transform="translate(0.68 -4)"/><path class="c" d="M22.249,16H1.75A1.752,1.752,0,0,1,0,14.25V1.75A1.752,1.752,0,0,1,1.75,0h20.5A1.752,1.752,0,0,1,24,1.75v12.5A1.753,1.753,0,0,1,22.249,16ZM12.75,3.03V7.969a.745.745,0,0,1-.22.53L9.04,11.99a4.864,4.864,0,0,0,2.96.98,5,5,0,0,0,.75-9.94Zm-1.5,0A5.021,5.021,0,0,0,7,7.969a4.864,4.864,0,0,0,.98,2.96l3.27-3.27V3.03Z" transform="translate(0.237)"/></g></g></svg>