<svg xmlns="http://www.w3.org/2000/svg" xmlns:xlink="http://www.w3.org/1999/xlink" width="24" height="24" viewBox="0 0 24 24"><defs><style>.a{fill:#fff;}.b{clip-path:url(#a);}</style><clipPath id="a"><rect class="a" width="24" height="24"/></clipPath></defs><g class="b"><g transform="translate(0 1.444)"><path class="a" d="M23.513,9.087H.486A.487.487,0,0,0,0,9.574v4.852a.487.487,0,0,0,.486.486H23.514A.487.487,0,0,0,24,14.426V9.574A.487.487,0,0,0,23.513,9.087Zm-3.13,4.129H13.864a1.216,1.216,0,0,1,0-2.432h6.519a1.216,1.216,0,1,1,0,2.432Z" transform="translate(0 -1.444)"/><path class="a" d="M23.513,16.731H.486A.487.487,0,0,0,0,17.217v4.852a.487.487,0,0,0,.486.486H23.514A.487.487,0,0,0,24,22.069V17.217A.487.487,0,0,0,23.513,16.731Zm-3.13,4.026H6.323a1.216,1.216,0,1,1,0-2.432h14.06a1.216,1.216,0,1,1,0,2.432Z" transform="translate(0 -1.444)"/><path class="a" d="M23.513,1.444H.486A.487.487,0,0,0,0,1.931V6.783a.487.487,0,0,0,.486.486H23.514A.487.487,0,0,0,24,6.783V1.931A.487.487,0,0,0,23.513,1.444Zm-3.13,4.231H10.848a1.216,1.216,0,1,1,0-2.432h9.535a1.216,1.216,0,1,1,0,2.432Z" transform="translate(0 -1.444)"/></g></g></svg>