<?xml version="1.0" encoding="utf-8"?>
<!-- Generator: Adobe Illustrator 24.0.1, SVG Export Plug-In . SVG Version: 6.00 Build 0)  -->
<svg version="1.1" id="Capa_1" xmlns="http://www.w3.org/2000/svg" xmlns:xlink="http://www.w3.org/1999/xlink" x="0px" y="0px"
	 viewBox="0 0 512 512" style="enable-background:new 0 0 512 512;" xml:space="preserve">
<style type="text/css">
	.st0{fill:#FFFFFF;}
</style>
<path id="XMLID_512_" class="st0" d="M427.7,0H84.3v159.2h343.4L427.7,0L427.7,0z M162.5,95.1V65h96.8v30.2H162.5z M325.4,80.1
	c0-8.3,6.8-15.1,15.1-15.1h0.3c8.3,0,15.1,6.8,15.1,15.1s-6.8,15.1-15.1,15.1h-0.3C332.1,95.1,325.4,88.4,325.4,80.1z"/>
<path id="XMLID_522_" class="st0" d="M240.9,189.4v42.9H118.7v30.2h275v-30.2H271.1v-42.9H240.9z"/>
<path id="XMLID_529_" class="st0" d="M22.1,458.4h81v23.4h-31V512h93.1v-30.2h-31.9v-23.4h81V294.8H22.1L22.1,458.4z"/>
<path id="XMLID_553_" class="st0" d="M489.9,458.4V294.8H297.6v163.6h81v23.4h-31V512h93.1v-30.2h-31.9v-23.4H489.9z"/>
</svg>
