<svg xmlns="http://www.w3.org/2000/svg" xmlns:xlink="http://www.w3.org/1999/xlink" width="24" height="24" viewBox="0 0 24 24"><defs><style>.a,.c{fill:#fff;}.a{stroke:#707070;}.b{clip-path:url(#a);}</style><clipPath id="a"><rect class="a" width="24" height="24" transform="translate(0.423)"/></clipPath></defs><g class="b" transform="translate(-0.423)"><g transform="translate(-0.093 3)"><path class="c" d="M23.8,14.147c0-.009,0-.019-.006-.028L19.485,4.48A2.5,2.5,0,0,0,17.2,3H6.8A2.5,2.5,0,0,0,4.514,4.48L.2,14.119c0,.009,0,.019-.006.028A1.978,1.978,0,0,0,0,15v4a2,2,0,0,0,2,2H22a2,2,0,0,0,2-2V15A1.979,1.979,0,0,0,23.8,14.147ZM20,18a1,1,0,1,1,1-1A1,1,0,0,1,20,18ZM2.9,13,6.34,5.3A.5.5,0,0,1,6.8,5H17.2a.5.5,0,0,1,.456.3L21.1,13Z" transform="translate(0 -3)"/></g></g></svg>