<svg xmlns="http://www.w3.org/2000/svg" xmlns:xlink="http://www.w3.org/1999/xlink" width="24" height="24" viewBox="0 0 24 24"><defs><style>.a,.c{fill:#fff;}.a{stroke:#707070;}.b{clip-path:url(#a);}</style><clipPath id="a"><rect class="a" width="24" height="24"/></clipPath></defs><g class="b"><g transform="translate(0.008)"><path class="c" d="M12.013,24A12.026,12.026,0,0,1,0,12.034C0,6.312,4.065,0,11.961,0a12,12,0,0,1,.051,24Zm9.158-7.19a19.433,19.433,0,0,1-1.808-1.283,3.637,3.637,0,0,1-.854-4.741,4.849,4.849,0,0,0,.415-1.118,1.467,1.467,0,0,0-1.816-1.784,4.253,4.253,0,0,0-1.564.876A15.612,15.612,0,0,0,14,10.437a4.76,4.76,0,0,1-6.363,1.078A5.982,5.982,0,0,1,4.8,6.573c-.033-.532-.12-1.061-.193-1.684C2.206,6.945.98,11.363,1.916,14.041a3.46,3.46,0,0,1,3.145,2c.765,1.343.537,1.627,2.566.876,2.074-.765,3.789.179,4.112,2.365a20.959,20.959,0,0,1,.025,3.056A10.223,10.223,0,0,0,21.17,16.81ZM5.712,3.786a5.668,5.668,0,0,1,.7,2.707A4.363,4.363,0,0,0,8.5,10.156a2.853,2.853,0,0,0,3.324-.03A7.506,7.506,0,0,0,13.139,8.87,8.18,8.18,0,0,1,16.4,6.262a2.965,2.965,0,0,1,4.092,2.461,4.786,4.786,0,0,1-.516,2.651,2.634,2.634,0,0,0,1.887,3.77A10.325,10.325,0,0,0,5.712,3.786ZM2.5,15.563a1.485,1.485,0,0,0-.1.246A10.126,10.126,0,0,0,9.76,22.147a.443.443,0,0,0,.369-.206A4.619,4.619,0,0,0,9.9,18.824a.99.99,0,0,0-1.407-.571c-.488.154-.966.343-1.463.465-1.634.387-2.273.081-3.048-1.4a3.09,3.09,0,0,0-.363-.642C3.283,16.305,2.912,15.97,2.5,15.563Z"/></g></g></svg>