<?xml version="1.0" encoding="utf-8"?>
<!-- Generator: Adobe Illustrator 24.0.1, SVG Export Plug-In . SVG Version: 6.00 Build 0)  -->
<svg version="1.1" id="Capa_1" xmlns="http://www.w3.org/2000/svg" xmlns:xlink="http://www.w3.org/1999/xlink" x="0px" y="0px"
	 viewBox="0 0 284.1 284.1" style="enable-background:new 0 0 284.1 284.1;" xml:space="preserve">
 
<g>
	<path    d="M254.6,43.1L153.5,2.2c-7.4-3-15.6-3-23,0L29.5,43.1C16.8,48.3,9.1,61.2,10.6,74.8
		c9.6,88.8,69.8,209.3,131.5,209.3S263.9,163.7,273.5,74.8C275,61.2,267.3,48.3,254.6,43.1z M241.2,89.7
		c-6.7,67.7-48.4,162.8-99.2,162.8c-50.7,0-92.5-95.1-99.2-162.8c-1-10.3,5-20.1,14.7-23.8l76.2-29.1c2.6-1,5.4-1.5,8.2-1.5
		c2.8,0,5.6,0.5,8.2,1.5l76.2,29.1C236.2,69.6,242.2,79.4,241.2,89.7z"/>
	<path    d="M64.7,84.6c-1.3,0.5-2.1,1.8-1.9,3.2c3.2,32.3,14.9,70.3,30.7,99.1c15.6,28.6,33.8,45.6,48.6,45.6l0,0V55.3
		c-0.4,0-0.7,0.1-1.1,0.2L64.7,84.6z"/>
</g>
</svg>
