<?xml version="1.0" encoding="utf-8"?>
<!-- Generator: Adobe Illustrator 24.2.1, SVG Export Plug-In . SVG Version: 6.00 Build 0)  -->
<svg version="1.1" id="Layer_1" xmlns="http://www.w3.org/2000/svg" xmlns:xlink="http://www.w3.org/1999/xlink" x="0px" y="0px"
	 viewBox="0 0 329.7 329.7" style="enable-background:new 0 0 329.7 329.7;" xml:space="preserve">
<style type="text/css">
	.st0{fill:#FFFFFF;}
</style>
<g>
	<path class="st0" d="M106.7,155.2v-19.4h48.5V19.4H0v116.4h48.5v19.4H0v48.5h329.7v-48.5H106.7z M87.3,155.2H67.9v-19.4h19.4V155.2
		z"/>
	<path class="st0" d="M19.4,223v106.7h290.9V223C301.3,223,31.8,223,19.4,223z M271.5,310.3H58.2v-19.4h213.3V310.3z M271.5,271.5
		H58.2v-19.4h213.3V271.5z"/>
	<circle class="st0" cx="242.4" cy="38.8" r="38.8"/>
	<path class="st0" d="M242.4,77.6c-34.1,0-62.5,25.3-67.2,58.2h134.4C304.9,102.9,276.6,77.6,242.4,77.6z"/>
</g>
</svg>
