<?xml version="1.0" encoding="utf-8"?>
<!-- Generator: Adobe Illustrator 24.2.1, SVG Export Plug-In . SVG Version: 6.00 Build 0)  -->
<svg version="1.1" id="Capa_1" xmlns="http://www.w3.org/2000/svg" xmlns:xlink="http://www.w3.org/1999/xlink" x="0px" y="0px"
	 viewBox="0 0 512 512" style="enable-background:new 0 0 512 512;" xml:space="preserve">
<style type="text/css">
	.st0{fill:#FFFFFF;}
</style>
<g>
	<g>
		<g>
			<path class="st0" d="M157.9,31.1l-20.3-20.3c-61.7,61.7-61.7,162,0,223.7l20.3-20.3C107.4,163.6,107.4,81.6,157.9,31.1z"/>
		</g>
	</g>
	<g>
		<g>
			<path class="st0" d="M361.3,10.7L341,31.1c50.5,50.5,50.5,132.6,0,183.1l20.3,20.3C423,172.8,423,72.4,361.3,10.7z"/>
		</g>
	</g>
	<g>
		<g>
			<path class="st0" d="M198.6,71.7l-20.3-20.3c-39.3,39.3-39.3,103.1,0,142.4l20.3-20.3C170.6,145.4,170.6,99.8,198.6,71.7z"/>
		</g>
	</g>
	<g>
		<g>
			<path class="st0" d="M320.6,51.4l-20.3,20.3c28,28,28,73.7,0,101.7l20.3,20.3C359.9,154.5,359.9,90.7,320.6,51.4z"/>
		</g>
	</g>
	<g>
		<g>
			<path class="st0" d="M374.8,472.5l-106.7-311c14.5-7,24.5-21.8,24.5-38.9c0-23.8-19.4-43.1-43.1-43.1s-43.1,19.4-43.1,43.1
				c0,17.1,10,31.9,24.5,38.9l-106.7,311H76.9v28.8h345.2v-28.8H374.8z M249.5,108.2c7.9,0,14.4,6.5,14.4,14.4
				c0,7.9-6.5,14.4-14.4,14.4c-7.9,0-14.4-6.5-14.4-14.4S241.5,108.2,249.5,108.2z M249.5,195.7l15.4,44.8h-30.7L249.5,195.7z
				 M224.2,269.2h50.4v0l16.1,47L249.5,356l-41.3-39.8L224.2,269.2z M197.8,346.2l30.9,29.8l-61.4,59.2L197.8,346.2z M170,472.5
				l79.4-76.5l79.4,76.5L170,472.5L170,472.5z M270.2,376l30.9-29.8l30.5,88.9L270.2,376z"/>
		</g>
	</g>
</g>
</svg>
