<?xml version="1.0" encoding="utf-8"?>
<!-- Generator: Adobe Illustrator 24.0.1, SVG Export Plug-In . SVG Version: 6.00 Build 0)  -->
<svg version="1.1" id="Layer_1" xmlns="http://www.w3.org/2000/svg" xmlns:xlink="http://www.w3.org/1999/xlink" x="0px" y="0px"
	 viewBox="0 0 512 512" style="enable-background:new 0 0 512 512;" xml:space="preserve">
 
<path    d="M464,80H208V48c0-8.8-7.2-16-16-16H16C7.2,32,0,39.2,0,48v416c0,8.8,7.2,16,16,16h176c8.8,0,16-7.2,16-16v-16
	h208c8.8,0,16-7.2,16-16s-7.2-16-16-16h-50.9l-9.6-48H464c26.5,0,48-21.5,48-48V128C512,101.5,490.5,80,464,80z M80,376
	c0-13.2,10.8-24,24-24s24,10.8,24,24s-10.8,24-24,24S80,389.2,80,376z M128,288H80c-8.8,0-16-7.2-16-16s7.2-16,16-16h48
	c8.8,0,16,7.2,16,16S136.8,288,128,288z M32,224v-32h144v32H32z M176,112v32H32v-32H176z M208,368h44.5l-9.6,48H208L208,368z
	 M208,304c0-19.3,0-166.9,0-192h256c8.8,0,16,7.2,16,16v176H208z"/>
</svg>
