<svg id="Layer_1" data-name="Layer 1" xmlns="http://www.w3.org/2000/svg" viewBox="0 0 1080 1080"><defs><style>.cls-1{fill:#f5f4f5;}.cls-2{fill:#e5e4e4;}.cls-16,.cls-3{fill:#e62c2b;}.cls-4,.cls-9{opacity:0.1;}.cls-10,.cls-11,.cls-14,.cls-15,.cls-17,.cls-18,.cls-19,.cls-20,.cls-5{fill:#fff;}.cls-6{fill:none;stroke:#e62c2b;stroke-linecap:round;stroke-linejoin:round;}.cls-7{fill:#181a30;}.cls-8{opacity:0.75;}.cls-10{opacity:0.65;}.cls-11{opacity:0.5;}.cls-12,.cls-17{opacity:0.2;}.cls-13{opacity:0.4;}.cls-14{opacity:0.15;}.cls-15{opacity:0.85;}.cls-16,.cls-19{opacity:0.8;}.cls-18{opacity:0.35;}.cls-20{opacity:0.7;}</style></defs><ellipse id="Floor" class="cls-1" cx="540.25" cy="728.44" rx="483.33" ry="262"/><path id="Shadow" class="cls-2" d="M455.73,806.9,310.4,890.75a13.9,13.9,0,0,1-12.62,0L152.64,806.91c-3.48-2-3.48-5.28,0-7.29L298,715.77a14,14,0,0,1,12.62,0l145.14,83.85C459.21,801.63,459.21,804.89,455.73,806.9Z"/><path class="cls-2" d="M732.35,784.72a20.79,20.79,0,0,1-10.42-2.64l-148.3-85.62a13.37,13.37,0,0,1,0-23.84L776.55,555.46a21.92,21.92,0,0,1,20.82,0l148.3,85.62a13.37,13.37,0,0,1,0,23.85L742.76,782.08A20.78,20.78,0,0,1,732.35,784.72Z"/><g id="Plants"><path class="cls-3" d="M894.57,608.85c.15-16.16-2.83-46,11.08-73.81,10.08-20.16,28-39.68,44.46-37.59,15.35,1.95,16.54,25.58,1.72,41.63s-28.61,43.69-33,79.41L903,639.5Z"/><g class="cls-4"><path d="M894.57,608.85c.15-16.16-2.83-46,11.08-73.81,10.08-20.16,28-39.68,44.46-37.59,15.35,1.95,16.54,25.58,1.72,41.63s-28.61,43.69-33,79.41L903,639.5Z"/></g><path class="cls-5" d="M907.34,621.47a1.13,1.13,0,0,0,.87-1.2C904,574.47,917,535.6,945.75,507.86a1.11,1.11,0,0,0,0-1.58,1.12,1.12,0,0,0-1.59,0C914.91,534.47,901.69,574,906,620.48a1.13,1.13,0,0,0,1.22,1Z"/><path class="cls-3" d="M918.25,632.29s11.31,7.22,28.61,7.2,23.47-9.27,23.47-9.27-9.17-14.77-19.46-17.68c0,0,16.77.72,31.2,7.34,0,0,10.33-1.48,11.92-17.86,0,0-7.61-8.49-28.91-10.34,0,0,12-5.12,30.65-3.4,1.44.32,3.94-20.93,4.18-30.59s-3.51-9-11.14-9.74-32.72,1.95-36.66,6.7S948,573.53,948,573.53s-5.62-7.09-5.68-14.2a23.16,23.16,0,0,0-14.55,4.39c-4.72,3.37-7.25,6.39-7.48,12.44s.52,12.55,1.67,20.32c0,0-6-9.61-4.3-24.48,0,0-13.93,9.56-14.61,18.94S901.1,619,918.25,632.29Z"/><path class="cls-5" d="M918.57,633.37a1.14,1.14,0,0,0,.76-.76c9.09-30.42,54.42-71.3,72-77.71a1.13,1.13,0,0,0,.67-1.44,1.09,1.09,0,0,0-1.44-.67C972.64,559.32,926.44,601,917.18,632a1.13,1.13,0,0,0,.75,1.4A1.16,1.16,0,0,0,918.57,633.37Z"/></g><path class="cls-6" d="M424.08,782,488,745.06a10.06,10.06,0,0,1,9.13,0l68,39.32a10.06,10.06,0,0,0,9.13,0l89.64-51.75"/><path class="cls-6" d="M407,772.18l81-46.8a10.13,10.13,0,0,1,9.13,0l68,39.23a10.06,10.06,0,0,0,9.13,0l72.51-41.86"/><path class="cls-6" d="M630.32,712.45l-56.09,32.39a10.13,10.13,0,0,1-9.13,0l-68-39.23a10.06,10.06,0,0,0-9.13,0l-98.2,56.69"/><path class="cls-6" d="M612.49,703l-38.26,22.09a10.13,10.13,0,0,1-9.13,0l-68-39.23a10.06,10.06,0,0,0-9.13,0L372.75,752.4"/><g id="Laptop"><g id="Laptop-2" data-name="Laptop"><path class="cls-2" d="M567.91,675.93a11.69,11.69,0,0,0,5.45,9.05l152.72,88.17a12,12,0,0,0,10.9,0L946,652.51a10.25,10.25,0,0,0,0-18.11L793.23,546.23a12.05,12.05,0,0,0-10.91,0l-209,120.65A11.67,11.67,0,0,0,567.91,675.93Z"/><path class="cls-7" d="M731.53,762.66v11.79a11.12,11.12,0,0,1-5.45-1.3L573.36,685a11.69,11.69,0,0,1-5.45-9.05c0-3.06,2.15-6.81,4.89-8.7-2.44,1.75-2.25,4.32.56,5.94l152.72,88.18A11.12,11.12,0,0,0,731.53,762.66Z"/><path class="cls-2" d="M562.8,667.07a11.68,11.68,0,0,1-5.12-9.25V475.57a12.06,12.06,0,0,1,5.45-9.44l209-120.64c3-1.74,7.74-1.83,10.56-.2s5.11,5.77,5.11,9.25V536.79a12,12,0,0,1-5.45,9.44l-209,120.65C570.35,668.61,565.62,668.7,562.8,667.07Z"/><path class="cls-7" d="M572.72,667.2c-3,1.41-7.29,1.39-9.92-.13a11.69,11.69,0,0,1-5.11-9.24V475.57a11,11,0,0,1,1.59-5.36l10.23,5.89h0a11.09,11.09,0,0,0-1.6,5.36V663.73C567.91,667,570,668.4,572.72,667.2Z"/><path class="cls-2" d="M567.91,481.48V663.73c0,3.47,2.44,4.88,5.45,3.15l209-120.65a12,12,0,0,0,5.45-9.44V354.54c0-3.48-2.44-4.88-5.45-3.15L573.36,472A12,12,0,0,0,567.91,481.48Z"/><path class="cls-2" d="M573.36,673.17l152.72,88.17a12,12,0,0,0,10.9,0L946,640.7c3-1.74,3-4.56,0-6.3L793.23,546.23a12.05,12.05,0,0,0-10.91,0l-209,120.65C570.35,668.61,570.35,671.43,573.36,673.17Z"/><path class="cls-7" d="M576.29,482.15,777.76,365.87c1.81-1.05,3.27-.2,3.27,1.88V525.52a7.21,7.21,0,0,1-3.27,5.66L576.29,647.47c-1.8,1-3.27.2-3.27-1.89V487.82A7.26,7.26,0,0,1,576.29,482.15Z"/><path class="cls-3" d="M591.09,668.45l194-112a6,6,0,0,1,5.45,0l9.92,5.72c1.51.87,1.51,2.28,0,3.15l-194,112a6,6,0,0,1-5.45,0l-9.89-5.71C589.58,670.73,589.58,669.32,591.09,668.45Z"/><path class="cls-7" d="M591.09,668.45l194-112a6,6,0,0,1,5.45,0l9.92,5.72c1.51.87,1.51,2.28,0,3.15l-194,112a6,6,0,0,1-5.45,0l-9.89-5.71C589.58,670.73,589.58,669.32,591.09,668.45Z"/><path class="cls-7" d="M616.65,683.21l194-112a6.08,6.08,0,0,1,5.45,0l61,35.24c1.5.87,1.5,2.27,0,3.14L683.35,721.43a6,6,0,0,1-5.46,0l-61.23-35.09C615.15,685.48,615.15,684.08,616.65,683.21Z"/><path class="cls-3" d="M790.52,621.61l6.08-3.51c.25-.15.24-.4,0-.56l-7-4a1.07,1.07,0,0,0-1,0L782.5,617c-.26.15-.24.4,0,.56l7,4.06A1.05,1.05,0,0,0,790.52,621.61Zm-12-13.93-6.07,3.5c-.26.15-.25.4,0,.56l7,4.06a1.07,1.07,0,0,0,1,0l6.07-3.51c.26-.15.25-.4,0-.56l-7-4A1.07,1.07,0,0,0,778.54,607.68ZM758.92,619l-10.28,5.94c-.26.15-.24.4,0,.56l7,4a1.07,1.07,0,0,0,1,0l10.27-5.93c.26-.15.25-.4,0-.56l-7-4.06A1.1,1.1,0,0,0,758.92,619Zm10.74-6.2-6.07,3.51c-.26.15-.24.4,0,.56l7,4a1.07,1.07,0,0,0,1,0l6.07-3.51c.26-.14.24-.4,0-.55l-7-4.06A1.07,1.07,0,0,0,769.66,612.8Zm-23.82,13.76-6.07,3.5c-.26.15-.25.4,0,.56l7,4.06a1.1,1.1,0,0,0,1,0l6.07-3.51c.26-.15.25-.4,0-.56l-7-4A1.07,1.07,0,0,0,745.84,626.56ZM737,631.68l-6.07,3.51c-.26.15-.24.4,0,.56l7,4a1.07,1.07,0,0,0,1,0l6.07-3.51c.26-.15.24-.4,0-.56l-7-4A1.07,1.07,0,0,0,737,631.68Zm27.63,16.49,6.07-3.51c.26-.15.24-.4,0-.56l-7-4.05a1.07,1.07,0,0,0-1,0l-6.07,3.5c-.26.15-.24.4,0,.56l7,4.06A1.07,1.07,0,0,0,764.59,648.17Zm-8.88,5.12,6.07-3.5c.26-.15.24-.4,0-.56l-7-4.06a1.07,1.07,0,0,0-1,0l-6.08,3.51c-.25.15-.24.4,0,.56l7,4A1.07,1.07,0,0,0,755.71,653.29Zm-8.88,5.13,6.08-3.51c.25-.15.24-.4,0-.56l-7-4.05a1.07,1.07,0,0,0-1,0l-6.07,3.5c-.26.15-.24.4,0,.56l7,4.06A1.07,1.07,0,0,0,746.83,658.42ZM738,663.54,744,660c.26-.14.24-.39,0-.55l-7-4.06a1.07,1.07,0,0,0-1,0l-6.07,3.51c-.26.15-.24.4,0,.56l7,4A1.07,1.07,0,0,0,738,663.54Zm43.69-36.81,6.07-3.5c.26-.15.24-.4,0-.56l-7-4.06a1.05,1.05,0,0,0-1,0l-6.08,3.51c-.26.15-.24.4,0,.56l7,4.05A1.07,1.07,0,0,0,781.65,626.73ZM773.46,643,787,635.22c.26-.15.24-.4,0-.56l-17.05-9.84a1.07,1.07,0,0,0-1,0l-7,4c-.25.15-.24.4,0,.56l9,5.21c.27.16.29.41,0,.56l-5.6,3.24c-.26.15-.25.4,0,.56l7,4A1.07,1.07,0,0,0,773.46,643Zm-45.37-6.24L722,640.31c-.25.15-.24.4,0,.56l7,4.06a1.1,1.1,0,0,0,1,0l6.07-3.5c.26-.15.25-.4,0-.56l-7-4.06A1.1,1.1,0,0,0,728.09,636.8Zm-8.88,5.13-6.07,3.51c-.26.14-.24.4,0,.56l7,4a1.07,1.07,0,0,0,1,0l6.08-3.51c.25-.15.24-.4,0-.56l-7-4A1.07,1.07,0,0,0,719.21,641.93Zm-44.35,57.46a1.07,1.07,0,0,0,1,0l6.07-3.5c.26-.15.24-.4,0-.56l-7-4.06a1.07,1.07,0,0,0-1,0l-6.07,3.51c-.26.15-.24.4,0,.56ZM648.2,682.93l-6.07,3.5c-.26.15-.24.4,0,.56l7,4.06a1.1,1.1,0,0,0,1,0l6.07-3.51c.26-.15.24-.4,0-.56l-7-4A1.07,1.07,0,0,0,648.2,682.93Zm14.29,12a1.07,1.07,0,0,0,1,0l6.07-3.51c.26-.15.24-.4,0-.56l-7-4a1.05,1.05,0,0,0-1,0l-6.08,3.51c-.26.15-.24.4,0,.56Zm28,7.56L696.6,699c.26-.15.24-.4,0-.56l-7-4.05a1.07,1.07,0,0,0-1,0l-6.08,3.5c-.25.15-.24.4,0,.56l7,4.06A1.07,1.07,0,0,0,690.53,702.51Zm-9.85,5.1a1.07,1.07,0,0,0,1,0l6.08-3.5c.25-.15.24-.4,0-.56l-7-4.06a1.07,1.07,0,0,0-1,0L673.63,703c-.26.15-.24.4,0,.56Zm-23.6-29.81L651,681.31c-.26.15-.25.4,0,.56l7,4a1.07,1.07,0,0,0,1,0l6.08-3.51c.25-.14.24-.39,0-.55l-7-4.06A1.07,1.07,0,0,0,657.08,677.8Zm44.38-25.62-6.07,3.5c-.26.15-.25.4,0,.56l7,4.06a1.07,1.07,0,0,0,1,0l6.07-3.51c.26-.15.25-.4,0-.56l-7-4A1.07,1.07,0,0,0,701.46,652.18ZM666,672.68l-6.08,3.5c-.26.15-.24.4,0,.56l7,4.06a1.07,1.07,0,0,0,1,0l6.07-3.51c.26-.15.24-.4,0-.56l-7-4A1.05,1.05,0,0,0,666,672.68Zm44.38-25.63-6.08,3.51c-.26.15-.24.4,0,.56l7,4a1.07,1.07,0,0,0,1,0l6.07-3.5c.26-.15.24-.4,0-.56l-7-4.06A1.08,1.08,0,0,0,710.34,647.05ZM692.58,657.3l-6.07,3.51c-.26.15-.24.4,0,.56l7,4a1.07,1.07,0,0,0,1,0l6.07-3.5c.26-.15.24-.4,0-.56l-7-4.06A1.07,1.07,0,0,0,692.58,657.3Zm-8.87,5.13-6.08,3.5c-.25.15-.24.4,0,.56l7,4.06a1.07,1.07,0,0,0,1,0l6.07-3.51c.26-.15.25-.4,0-.56l-7-4A1.07,1.07,0,0,0,683.71,662.43Zm-8.88,5.12-6.07,3.51c-.26.15-.24.4,0,.56l7,4a1.05,1.05,0,0,0,1,0l6.08-3.5c.26-.15.24-.4,0-.56l-7-4.06A1.07,1.07,0,0,0,674.83,667.55Zm45.38,6.24,6.07-3.51c.26-.14.24-.4,0-.56l-7-4.05a1.07,1.07,0,0,0-1,0l-6.07,3.51c-.26.15-.24.4,0,.56l7,4A1.07,1.07,0,0,0,720.21,673.79Zm77.95-77.44-6.07,3.5c-.26.15-.25.4,0,.56l7,4.06a1.07,1.07,0,0,0,1,0l6.08-3.51c.25-.15.24-.4,0-.56l-7-4A1.07,1.07,0,0,0,798.16,596.35Zm-10.74,6.2-6.08,3.51c-.26.15-.24.4,0,.56l7,4a1.07,1.07,0,0,0,1,0l6.07-3.5c.26-.15.24-.4,0-.56l-7-4.06A1.05,1.05,0,0,0,787.42,602.55ZM807,591.22,801,594.73c-.25.15-.24.4,0,.56l7,4.05a1.07,1.07,0,0,0,1,0l6.07-3.5c.26-.15.24-.4,0-.56l-7-4.06A1.07,1.07,0,0,0,807,591.22ZM761.09,638.6l6.08-3.51c.25-.15.24-.4,0-.56l-7-4a1.07,1.07,0,0,0-1,0L753.07,634c-.26.15-.24.4,0,.56l7,4.05A1.07,1.07,0,0,0,761.09,638.6Zm55.79-52.48a1.07,1.07,0,0,0-1,0l-6.07,3.51c-.26.14-.24.39,0,.55l7,4.06a1.05,1.05,0,0,0,1,0l6.08-3.51c.26-.15.24-.4,0-.56Zm-87.8,82.55,6.07-3.51c.26-.15.25-.4,0-.56l-7-4.05a1.07,1.07,0,0,0-1,0l-6.07,3.5c-.26.15-.25.4,0,.56l7,4.06A1.1,1.1,0,0,0,729.08,668.67Zm108.85-62.85,6.07-3.5c.26-.15.24-.4,0-.56l-7-4.06a1.05,1.05,0,0,0-1,0l-6.08,3.51c-.26.15-.24.4,0,.56l7,4A1.07,1.07,0,0,0,837.93,605.82ZM819,605.16l6.07-3.51c.26-.15.25-.4,0-.56L818,597a1.07,1.07,0,0,0-1,0l-6.07,3.5c-.26.15-.25.4,0,.56l7,4.06A1.1,1.1,0,0,0,819,605.16Zm7.89-13.25a1.07,1.07,0,0,0-1,0l-6.07,3.51c-.26.15-.24.4,0,.56l7,4a1.07,1.07,0,0,0,1,0l6.07-3.51c.26-.14.24-.39,0-.55Zm1.87-1.08,17.06,9.85a1.05,1.05,0,0,0,1,0l6.08-3.51c.25-.15.24-.4,0-.56l-17.05-9.84a1.07,1.07,0,0,0-1,0l-6.07,3.5C828.49,590.42,828.5,590.67,828.78,590.83Zm-20.59,11.31-6.07,3.51c-.26.15-.24.4,0,.56l7,4a1.05,1.05,0,0,0,1,0l6.08-3.51c.26-.15.24-.4,0-.56l-7-4.05A1.07,1.07,0,0,0,808.19,602.14Zm-66.8,38.57-6.07,3.51c-.26.14-.25.39,0,.55l7,4.06a1.07,1.07,0,0,0,1,0l6.07-3.51c.26-.15.25-.4,0-.56l-7-4A1.07,1.07,0,0,0,741.39,640.71Zm86.69-29.78a1.07,1.07,0,0,0,1,0l6.08-3.51c.25-.15.24-.4,0-.56l-7-4a1.07,1.07,0,0,0-1,0l-6.07,3.5c-.26.15-.25.4,0,.56Zm-77.82,24.65-6.07,3.51c-.26.15-.24.4,0,.56l7,4.05a1.07,1.07,0,0,0,1,0l6.07-3.5c.26-.15.24-.4,0-.56l-7-4.06A1.1,1.1,0,0,0,750.26,635.58Zm-66.53,58.69a1.07,1.07,0,0,0,1,0l6.08-3.51c.25-.15.24-.4,0-.56l-7-4.05a1.07,1.07,0,0,0-1,0l-6.07,3.5c-.26.15-.25.4,0,.56ZM670.38,681.7l-6.07,3.51c-.26.15-.24.4,0,.56l7,4.05a1.05,1.05,0,0,0,1,0l6.08-3.5c.26-.15.24-.4,0-.56l-7-4.06A1.1,1.1,0,0,0,670.38,681.7Zm23.2,7.46,6.07-3.5c.26-.15.24-.4,0-.56l-7-4.06a1.07,1.07,0,0,0-1,0l-6.07,3.51c-.26.15-.24.4,0,.56l7,4A1.07,1.07,0,0,0,693.58,689.16Zm8.87-5.12,6.08-3.51c.25-.15.24-.4,0-.56l-7-4.05a1.07,1.07,0,0,0-1,0l-6.07,3.51c-.26.14-.24.4,0,.55l7,4.06A1.05,1.05,0,0,0,702.45,684Zm8.88-5.13,6.07-3.5c.26-.15.24-.4,0-.56l-7-4.06a1.1,1.1,0,0,0-1,0l-6.08,3.5c-.25.15-.24.4,0,.56l7,4A1.07,1.07,0,0,0,711.33,678.91Zm-32.07-2.33-6.08,3.51c-.25.15-.24.4,0,.56l7,4.05a1.07,1.07,0,0,0,1,0l6.07-3.51c.26-.14.25-.4,0-.56l-7-4A1.07,1.07,0,0,0,679.26,676.58Zm8.87-5.12-6.07,3.5c-.26.15-.24.4,0,.56l7,4.06a1.1,1.1,0,0,0,1,0l6.07-3.51c.26-.15.24-.4,0-.56l-7-4A1.07,1.07,0,0,0,688.13,671.46ZM723.64,651l-6.08,3.5c-.25.15-.24.4,0,.56l7,4.06a1.07,1.07,0,0,0,1,0l6.07-3.51c.26-.15.25-.4,0-.56l-7-4A1.07,1.07,0,0,0,723.64,651Zm-8.88,5.12-6.07,3.51c-.26.15-.24.4,0,.56l7,4.05a1.07,1.07,0,0,0,1,0l6.08-3.5c.25-.15.24-.4,0-.56l-7-4.06A1.07,1.07,0,0,0,714.76,656.08Zm17.75-10.25-6.07,3.51c-.26.15-.24.4,0,.56l7,4.05a1.07,1.07,0,0,0,1,0l6.07-3.5c.26-.15.24-.4,0-.56l-7-4.06A1.07,1.07,0,0,0,732.51,645.83ZM697,666.33l-6.07,3.51c-.26.15-.25.4,0,.56l7,4.05a1.07,1.07,0,0,0,1,0L705,671c.25-.15.24-.4,0-.56l-7-4.06A1.07,1.07,0,0,0,697,666.33Zm8.87-5.12-6.07,3.5c-.26.15-.24.4,0,.56l7,4.06a1.07,1.07,0,0,0,1,0l6.07-3.51c.26-.15.24-.4,0-.56l-7-4A1.07,1.07,0,0,0,705.88,661.21Zm-6.47,36.17,6.07-3.5c.26-.15.24-.4,0-.56l-7-4.06a1.07,1.07,0,0,0-1,0l-6.07,3.51c-.26.15-.24.4,0,.56l7,4.05A1.07,1.07,0,0,0,699.41,697.38Zm-52.09-5.26-7-4a1.07,1.07,0,0,0-1,0l-6.08,3.51c-.25.15-.24.4,0,.56l7,4a1.07,1.07,0,0,0,1,0l6.07-3.51C647.61,692.53,647.6,692.28,647.32,692.12Zm13.3,3.91-7-4.06a1.07,1.07,0,0,0-1,0l-9.34,5.4c-.26.15-.25.4,0,.56l7,4.05a1.07,1.07,0,0,0,1,0l9.35-5.39C660.91,696.44,660.9,696.19,660.62,696Zm-24.08-11.74-7-4.06a1.07,1.07,0,0,0-1,0l-7.47,4.32c-.26.15-.24.4,0,.56l7,4a1.05,1.05,0,0,0,1,0l7.48-4.32C636.84,684.7,636.82,684.45,636.54,684.29Zm5.74-3.31a1.05,1.05,0,0,0,1,0l6.08-3.51c.26-.15.24-.4,0-.56l-7-4a1.07,1.07,0,0,0-1,0l-6.07,3.5c-.26.15-.24.4,0,.56ZM673,700.47l-7-4.05a1.07,1.07,0,0,0-1,0l-11.68,6.74c-.26.15-.24.4,0,.56l7,4a1.05,1.05,0,0,0,1,0L673,701C673.28,700.88,673.27,700.63,673,700.47Zm5.83,8.22-7-4.05a1.05,1.05,0,0,0-1,0l-7.48,4.31c-.26.15-.24.4,0,.56l7,4.06a1.1,1.1,0,0,0,1,0l7.47-4.32C679.11,709.1,679.09,708.85,678.82,708.69Zm29.45-65.81a1.07,1.07,0,0,0,1,0l6.07-3.51c.26-.15.24-.4,0-.56l-7-4.05a1.07,1.07,0,0,0-1,0l-6.07,3.5c-.26.15-.24.4,0,.56Zm-17.75,10.25a1.1,1.1,0,0,0,1,0l6.07-3.51c.26-.15.24-.4,0-.56l-7-4.05a1.07,1.07,0,0,0-1,0l-6.07,3.5c-.26.15-.24.4,0,.56Zm-39.37,22.72a1.07,1.07,0,0,0,1,0l6.07-3.5c.26-.15.25-.4,0-.56l-7-4.06a1.07,1.07,0,0,0-1,0l-6.08,3.51c-.25.15-.24.4,0,.56ZM699.39,648a1.07,1.07,0,0,0,1,0l6.07-3.51c.26-.14.25-.4,0-.56l-7-4.05a1.07,1.07,0,0,0-1,0l-6.07,3.51c-.26.15-.25.4,0,.56Zm-17.75,10.25a1.07,1.07,0,0,0,1,0l6.07-3.51c.26-.15.25-.4,0-.56l-7-4.05a1.07,1.07,0,0,0-1,0l-6.08,3.51c-.25.15-.24.4,0,.56Zm2.05,51.1a1.05,1.05,0,0,0-1,0l-9.35,5.39c-.26.15-.24.4,0,.56l7,4.06a1.07,1.07,0,0,0,1,0l9.34-5.4c.26-.15.24-.4,0-.56ZM668.9,665.6a1.07,1.07,0,0,0,1,0l6.07-3.5c.26-.15.25-.4,0-.56l-7-4.06a1.1,1.1,0,0,0-1,0L661.85,661c-.26.15-.25.4,0,.56ZM660,670.73a1.07,1.07,0,0,0,1,0l6.07-3.51c.26-.15.24-.4,0-.56l-7-4a1.07,1.07,0,0,0-1,0l-6.07,3.5c-.26.15-.24.4,0,.56Zm188.1-56.32a1.07,1.07,0,0,0-1,0L832.21,623c-.25.15-.24.4,0,.56l7,4.06a1.1,1.1,0,0,0,1,0l15-8.64c.26-.14.24-.39,0-.55Zm-19.62,11.33a1.07,1.07,0,0,0-1,0l-6.07,3.51c-.26.14-.24.39,0,.56l7,4.05a1.07,1.07,0,0,0,1,0l6.07-3.51c.26-.15.24-.4,0-.56ZM708.28,692.26l6.07-3.51c.26-.15.25-.4,0-.56l-7-4.05a1.07,1.07,0,0,0-1,0l-6.07,3.51c-.26.14-.25.39,0,.55l7,4.06A1.07,1.07,0,0,0,708.28,692.26ZM810.76,636a1.07,1.07,0,0,0-1,0l-6.07,3.5c-.26.15-.24.4,0,.56l7,4.06a1.07,1.07,0,0,0,1,0l6.08-3.51c.25-.15.24-.4,0-.56ZM857,609.29a1.07,1.07,0,0,0-1,0l-6.07,3.5c-.26.15-.25.4,0,.56l7,4.06a1.07,1.07,0,0,0,1,0l6.07-3.51c.26-.15.25-.4,0-.56Zm15.9-1.07-17.06-9.85a1.07,1.07,0,0,0-1,0l-6.07,3.51c-.26.15-.24.4,0,.56l17.06,9.84a1.07,1.07,0,0,0,1,0l6.07-3.5C873.2,608.63,873.18,608.38,872.91,608.22Zm-95.32,46.92a1.07,1.07,0,0,0-1,0l-7.47,4.31c-.26.15-.24.4,0,.56l7,4.06a1.05,1.05,0,0,0,1,0l7.48-4.32c.26-.15.24-.4,0-.56ZM800,642.19a1.07,1.07,0,0,0-1,0l-9.35,5.4c-.25.14-.24.4,0,.56l7,4a1.07,1.07,0,0,0,1,0l9.34-5.39c.26-.15.24-.4,0-.56ZM757,667a1.07,1.07,0,0,0-1,0l-50,28.85c-.25.15-.24.4,0,.56l7,4.06a1.07,1.07,0,0,0,1,0l50-28.86c.26-.15.25-.4,0-.56Zm-52.79,30.48a1.07,1.07,0,0,0-1,0l-7.47,4.32c-.26.15-.25.4,0,.56l7,4a1.07,1.07,0,0,0,1,0l7.48-4.31c.25-.15.24-.4,0-.56Zm63.06-36.41a1.05,1.05,0,0,0-1,0l-7.48,4.32c-.26.15-.24.4,0,.56l7,4.05a1.07,1.07,0,0,0,1,0l7.47-4.32c.26-.14.24-.39,0-.55ZM694,703.42a1.07,1.07,0,0,0-1,0l-7.47,4.31c-.26.15-.24.4,0,.56l7,4.06a1.08,1.08,0,0,0,1,0L701,708c.26-.15.24-.4,0-.56Zm93.9-54.22a1.07,1.07,0,0,0-1,0l-7.47,4.32c-.26.15-.25.4,0,.56l7,4.05a1.07,1.07,0,0,0,1,0l7.48-4.31c.25-.15.24-.4,0-.56Zm31.77-18.34a1.1,1.1,0,0,0-1,0l-6.08,3.51c-.25.15-.24.4,0,.56l7,4.05a1.07,1.07,0,0,0,1,0l6.07-3.5c.26-.15.24-.4,0-.56Zm19.44-14.12,6.08-3.51c.26-.15.24-.4,0-.56l-7-4a1.07,1.07,0,0,0-1,0l-6.07,3.51c-.26.14-.24.4,0,.56l7,4.05A1.05,1.05,0,0,0,839.08,616.74Zm-39.68-.26,6.07-3.5c.26-.15.25-.4,0-.56l-7-4.06a1.07,1.07,0,0,0-1,0l-6.08,3.51c-.25.15-.24.4,0,.56l7,4.05A1.07,1.07,0,0,0,799.4,616.48Zm-20.11,34.78L797,641c.26-.15.24-.4,0-.56l-7-4.05a1.07,1.07,0,0,0-1,0l-17.75,10.25c-.26.15-.24.4,0,.56l7,4A1.07,1.07,0,0,0,779.29,651.26Zm50-29.42a1.07,1.07,0,0,0,1,0l6.07-3.5c.26-.15.24-.4,0-.56l-7-4.06a1.08,1.08,0,0,0-1,0l-6.08,3.51c-.26.15-.24.4,0,.56Zm-9.06-5.77,6.07-3.5c.26-.15.24-.4,0-.56l-7-4.06a1.07,1.07,0,0,0-1,0l-6.07,3.51c-.26.15-.24.4,0,.56l7,4A1.07,1.07,0,0,0,820.18,616.07Zm-49.77,40.32,6.08-3.51c.25-.15.24-.4,0-.56l-7-4.05a1.07,1.07,0,0,0-1,0l-6.07,3.5c-.26.15-.25.4,0,.56l7,4.06A1.07,1.07,0,0,0,770.41,656.39Zm39.21-23.22a1.07,1.07,0,0,0,1,0l6.07-3.5c.26-.15.24-.4,0-.56l-7-4.06a1.05,1.05,0,0,0-1,0l-6.08,3.51c-.26.15-.24.4,0,.56ZM726,682l6.08-3.51c.25-.15.24-.4,0-.56l-7-4.05a1.07,1.07,0,0,0-1,0L718,677.38c-.26.15-.24.4,0,.56l7,4A1.07,1.07,0,0,0,726,682Zm8.88-5.12,6.07-3.51c.26-.15.24-.4,0-.56l-7-4.06a1.08,1.08,0,0,0-1,0l-6.08,3.5c-.25.15-.24.4,0,.56l7,4.05A1.07,1.07,0,0,0,734.91,676.89Zm-17.75,10.24,6.07-3.5c.26-.15.24-.4,0-.56l-7-4.06a1.07,1.07,0,0,0-1,0l-6.07,3.51c-.26.15-.24.4,0,.56l7,4.05A1.07,1.07,0,0,0,717.16,687.13Zm35.5-20.49,6.07-3.51c.26-.15.25-.4,0-.56l-7-4.05a1.07,1.07,0,0,0-1,0l-6.08,3.5c-.25.15-.24.4,0,.56l7,4.06A1.1,1.1,0,0,0,752.66,666.64Zm-8.88,5.12,6.08-3.51c.26-.14.24-.39,0-.56l-7-4.05a1.07,1.07,0,0,0-1,0l-6.07,3.51c-.26.15-.24.4,0,.56l7,4A1.05,1.05,0,0,0,743.78,671.76Zm17.76-10.25,6.07-3.5c.26-.15.24-.4,0-.56l-7-4.06a1.07,1.07,0,0,0-1,0l-6.07,3.51c-.26.15-.24.4,0,.56l7,4A1.07,1.07,0,0,0,761.54,661.51Zm40.6-75.81a1.07,1.07,0,0,0,1,0l6.08-3.5c.25-.15.24-.4,0-.56l-1.87-1.08a1.07,1.07,0,0,0-1,0l-6.07,3.5c-.26.15-.24.4,0,.56Zm-43.67,28.19a1.07,1.07,0,0,0,1,0l6.07-3.51c.26-.14.25-.39,0-.55l-7-4.06a1.07,1.07,0,0,0-1,0l-6.07,3.51c-.26.15-.25.4,0,.56Zm17.75-10.25a1.07,1.07,0,0,0,1,0l6.08-3.5c.25-.15.24-.4,0-.56l-7-4.06a1.07,1.07,0,0,0-1,0L769.17,599c-.26.15-.25.4,0,.56Zm-28.59,16.51a1.07,1.07,0,0,0,1,0l6.08-3.51c.25-.15.24-.4,0-.56l-7-4.05a1.07,1.07,0,0,0-1,0l-6.07,3.5c-.26.15-.25.4,0,.56Zm19.72-11.38a1.07,1.07,0,0,0,1,0l6.07-3.51c.26-.15.24-.4,0-.56l-7-4.05a1.07,1.07,0,0,0-1,0l-6.07,3.5c-.26.15-.24.4,0,.56ZM729.88,630.4a1.07,1.07,0,0,0,1,0l6.07-3.51c.26-.15.25-.4,0-.56l-7-4.05a1.07,1.07,0,0,0-1,0l-6.07,3.5c-.26.15-.25.4,0,.56Zm8.88-5.13a1.07,1.07,0,0,0,1,0l6.07-3.5c.26-.15.24-.4,0-.56l-7-4.06a1.07,1.07,0,0,0-1,0l-6.07,3.51c-.26.15-.24.4,0,.56ZM784.39,596a1.07,1.07,0,0,0,1,0l6.07-3.51c.26-.14.25-.39,0-.55l-1.87-1.08a1.07,1.07,0,0,0-1,0l-6.07,3.5c-.26.15-.24.4,0,.56ZM811,580.58a1.07,1.07,0,0,0,1,0l6.07-3.51c.26-.15.24-.4,0-.56l-1.87-1.08a1.07,1.07,0,0,0-1,0l-6.07,3.51c-.26.15-.25.4,0,.56Zm14.75,8.51a1.07,1.07,0,0,0,1,0l6.07-3.5c.26-.15.25-.4,0-.56l-7-4.06a1.1,1.1,0,0,0-1,0l-6.08,3.51c-.25.15-.24.4,0,.56ZM848,611.62l6.07-3.51c.26-.15.25-.4,0-.56l-7-4.06a1.1,1.1,0,0,0-1,0L839.93,607c-.25.15-.24.4,0,.56l7,4.06A1.1,1.1,0,0,0,848,611.62Zm-54.69-20.79a1.07,1.07,0,0,0,1,0l6.07-3.51c.26-.15.24-.4,0-.56l-1.86-1.08a1.07,1.07,0,0,0-1,0l-6.08,3.51c-.25.15-.24.4,0,.56ZM721,635.52a1.05,1.05,0,0,0,1,0l6.08-3.5c.26-.15.24-.4,0-.56l-7-4.06a1.07,1.07,0,0,0-1,0L714,630.91c-.26.15-.24.4,0,.56Z"/><path class="cls-2" d="M790.52,621.61l6.08-3.51c.25-.15.24-.4,0-.56l-7-4a1.07,1.07,0,0,0-1,0L782.5,617c-.26.15-.24.4,0,.56l7,4.06A1.05,1.05,0,0,0,790.52,621.61Zm-12-13.93-6.07,3.5c-.26.15-.25.4,0,.56l7,4.06a1.07,1.07,0,0,0,1,0l6.07-3.51c.26-.15.25-.4,0-.56l-7-4A1.07,1.07,0,0,0,778.54,607.68ZM758.92,619l-10.28,5.94c-.26.15-.24.4,0,.56l7,4a1.07,1.07,0,0,0,1,0l10.27-5.93c.26-.15.25-.4,0-.56l-7-4.06A1.1,1.1,0,0,0,758.92,619Zm10.74-6.2-6.07,3.51c-.26.15-.24.4,0,.56l7,4a1.07,1.07,0,0,0,1,0l6.07-3.51c.26-.14.24-.4,0-.55l-7-4.06A1.07,1.07,0,0,0,769.66,612.8Zm-23.82,13.76-6.07,3.5c-.26.15-.25.4,0,.56l7,4.06a1.1,1.1,0,0,0,1,0l6.07-3.51c.26-.15.25-.4,0-.56l-7-4A1.07,1.07,0,0,0,745.84,626.56ZM737,631.68l-6.07,3.51c-.26.15-.24.4,0,.56l7,4a1.07,1.07,0,0,0,1,0l6.07-3.51c.26-.15.24-.4,0-.56l-7-4A1.07,1.07,0,0,0,737,631.68Zm27.63,16.49,6.07-3.51c.26-.15.24-.4,0-.56l-7-4.05a1.07,1.07,0,0,0-1,0l-6.07,3.5c-.26.15-.24.4,0,.56l7,4.06A1.07,1.07,0,0,0,764.59,648.17Zm-8.88,5.12,6.07-3.5c.26-.15.24-.4,0-.56l-7-4.06a1.07,1.07,0,0,0-1,0l-6.08,3.51c-.25.15-.24.4,0,.56l7,4A1.07,1.07,0,0,0,755.71,653.29Zm-8.88,5.13,6.08-3.51c.25-.15.24-.4,0-.56l-7-4.05a1.07,1.07,0,0,0-1,0l-6.07,3.5c-.26.15-.24.4,0,.56l7,4.06A1.07,1.07,0,0,0,746.83,658.42ZM738,663.54,744,660c.26-.14.24-.39,0-.55l-7-4.06a1.07,1.07,0,0,0-1,0l-6.07,3.51c-.26.15-.24.4,0,.56l7,4A1.07,1.07,0,0,0,738,663.54Zm43.69-36.81,6.07-3.5c.26-.15.24-.4,0-.56l-7-4.06a1.05,1.05,0,0,0-1,0l-6.08,3.51c-.26.15-.24.4,0,.56l7,4.05A1.07,1.07,0,0,0,781.65,626.73ZM773.46,643,787,635.22c.26-.15.24-.4,0-.56l-17.05-9.84a1.07,1.07,0,0,0-1,0l-7,4c-.25.15-.24.4,0,.56l9,5.21c.27.16.29.41,0,.56l-5.6,3.24c-.26.15-.25.4,0,.56l7,4A1.07,1.07,0,0,0,773.46,643Zm-45.37-6.24L722,640.31c-.25.15-.24.4,0,.56l7,4.06a1.1,1.1,0,0,0,1,0l6.07-3.5c.26-.15.25-.4,0-.56l-7-4.06A1.1,1.1,0,0,0,728.09,636.8Zm-8.88,5.13-6.07,3.51c-.26.14-.24.4,0,.56l7,4a1.07,1.07,0,0,0,1,0l6.08-3.51c.25-.15.24-.4,0-.56l-7-4A1.07,1.07,0,0,0,719.21,641.93Zm-44.35,57.46a1.07,1.07,0,0,0,1,0l6.07-3.5c.26-.15.24-.4,0-.56l-7-4.06a1.07,1.07,0,0,0-1,0l-6.07,3.51c-.26.15-.24.4,0,.56ZM648.2,682.93l-6.07,3.5c-.26.15-.24.4,0,.56l7,4.06a1.1,1.1,0,0,0,1,0l6.07-3.51c.26-.15.24-.4,0-.56l-7-4A1.07,1.07,0,0,0,648.2,682.93Zm14.29,12a1.07,1.07,0,0,0,1,0l6.07-3.51c.26-.15.24-.4,0-.56l-7-4a1.05,1.05,0,0,0-1,0l-6.08,3.51c-.26.15-.24.4,0,.56Zm28,7.56L696.6,699c.26-.15.24-.4,0-.56l-7-4.05a1.07,1.07,0,0,0-1,0l-6.08,3.5c-.25.15-.24.4,0,.56l7,4.06A1.07,1.07,0,0,0,690.53,702.51Zm-9.85,5.1a1.07,1.07,0,0,0,1,0l6.08-3.5c.25-.15.24-.4,0-.56l-7-4.06a1.07,1.07,0,0,0-1,0L673.63,703c-.26.15-.24.4,0,.56Zm-23.6-29.81L651,681.31c-.26.15-.25.4,0,.56l7,4a1.07,1.07,0,0,0,1,0l6.08-3.51c.25-.14.24-.39,0-.55l-7-4.06A1.07,1.07,0,0,0,657.08,677.8Zm44.38-25.62-6.07,3.5c-.26.15-.25.4,0,.56l7,4.06a1.07,1.07,0,0,0,1,0l6.07-3.51c.26-.15.25-.4,0-.56l-7-4A1.07,1.07,0,0,0,701.46,652.18ZM666,672.68l-6.08,3.5c-.26.15-.24.4,0,.56l7,4.06a1.07,1.07,0,0,0,1,0l6.07-3.51c.26-.15.24-.4,0-.56l-7-4A1.05,1.05,0,0,0,666,672.68Zm44.38-25.63-6.08,3.51c-.26.15-.24.4,0,.56l7,4a1.07,1.07,0,0,0,1,0l6.07-3.5c.26-.15.24-.4,0-.56l-7-4.06A1.08,1.08,0,0,0,710.34,647.05ZM692.58,657.3l-6.07,3.51c-.26.15-.24.4,0,.56l7,4a1.07,1.07,0,0,0,1,0l6.07-3.5c.26-.15.24-.4,0-.56l-7-4.06A1.07,1.07,0,0,0,692.58,657.3Zm-8.87,5.13-6.08,3.5c-.25.15-.24.4,0,.56l7,4.06a1.07,1.07,0,0,0,1,0l6.07-3.51c.26-.15.25-.4,0-.56l-7-4A1.07,1.07,0,0,0,683.71,662.43Zm-8.88,5.12-6.07,3.51c-.26.15-.24.4,0,.56l7,4a1.05,1.05,0,0,0,1,0l6.08-3.5c.26-.15.24-.4,0-.56l-7-4.06A1.07,1.07,0,0,0,674.83,667.55Zm45.38,6.24,6.07-3.51c.26-.14.24-.4,0-.56l-7-4.05a1.07,1.07,0,0,0-1,0l-6.07,3.51c-.26.15-.24.4,0,.56l7,4A1.07,1.07,0,0,0,720.21,673.79Zm77.95-77.44-6.07,3.5c-.26.15-.25.4,0,.56l7,4.06a1.07,1.07,0,0,0,1,0l6.08-3.51c.25-.15.24-.4,0-.56l-7-4A1.07,1.07,0,0,0,798.16,596.35Zm-10.74,6.2-6.08,3.51c-.26.15-.24.4,0,.56l7,4a1.07,1.07,0,0,0,1,0l6.07-3.5c.26-.15.24-.4,0-.56l-7-4.06A1.05,1.05,0,0,0,787.42,602.55ZM807,591.22,801,594.73c-.25.15-.24.4,0,.56l7,4.05a1.07,1.07,0,0,0,1,0l6.07-3.5c.26-.15.24-.4,0-.56l-7-4.06A1.07,1.07,0,0,0,807,591.22ZM761.09,638.6l6.08-3.51c.25-.15.24-.4,0-.56l-7-4a1.07,1.07,0,0,0-1,0L753.07,634c-.26.15-.24.4,0,.56l7,4.05A1.07,1.07,0,0,0,761.09,638.6Zm55.79-52.48a1.07,1.07,0,0,0-1,0l-6.07,3.51c-.26.14-.24.39,0,.55l7,4.06a1.05,1.05,0,0,0,1,0l6.08-3.51c.26-.15.24-.4,0-.56Zm-87.8,82.55,6.07-3.51c.26-.15.25-.4,0-.56l-7-4.05a1.07,1.07,0,0,0-1,0l-6.07,3.5c-.26.15-.25.4,0,.56l7,4.06A1.1,1.1,0,0,0,729.08,668.67Zm108.85-62.85,6.07-3.5c.26-.15.24-.4,0-.56l-7-4.06a1.05,1.05,0,0,0-1,0l-6.08,3.51c-.26.15-.24.4,0,.56l7,4A1.07,1.07,0,0,0,837.93,605.82ZM819,605.16l6.07-3.51c.26-.15.25-.4,0-.56L818,597a1.07,1.07,0,0,0-1,0l-6.07,3.5c-.26.15-.25.4,0,.56l7,4.06A1.1,1.1,0,0,0,819,605.16Zm7.89-13.25a1.07,1.07,0,0,0-1,0l-6.07,3.51c-.26.15-.24.4,0,.56l7,4a1.07,1.07,0,0,0,1,0l6.07-3.51c.26-.14.24-.39,0-.55Zm1.87-1.08,17.06,9.85a1.05,1.05,0,0,0,1,0l6.08-3.51c.25-.15.24-.4,0-.56l-17.05-9.84a1.07,1.07,0,0,0-1,0l-6.07,3.5C828.49,590.42,828.5,590.67,828.78,590.83Zm-20.59,11.31-6.07,3.51c-.26.15-.24.4,0,.56l7,4a1.05,1.05,0,0,0,1,0l6.08-3.51c.26-.15.24-.4,0-.56l-7-4.05A1.07,1.07,0,0,0,808.19,602.14Zm-66.8,38.57-6.07,3.51c-.26.14-.25.39,0,.55l7,4.06a1.07,1.07,0,0,0,1,0l6.07-3.51c.26-.15.25-.4,0-.56l-7-4A1.07,1.07,0,0,0,741.39,640.71Zm86.69-29.78a1.07,1.07,0,0,0,1,0l6.08-3.51c.25-.15.24-.4,0-.56l-7-4a1.07,1.07,0,0,0-1,0l-6.07,3.5c-.26.15-.25.4,0,.56Zm-77.82,24.65-6.07,3.51c-.26.15-.24.4,0,.56l7,4.05a1.07,1.07,0,0,0,1,0l6.07-3.5c.26-.15.24-.4,0-.56l-7-4.06A1.1,1.1,0,0,0,750.26,635.58Zm-66.53,58.69a1.07,1.07,0,0,0,1,0l6.08-3.51c.25-.15.24-.4,0-.56l-7-4.05a1.07,1.07,0,0,0-1,0l-6.07,3.5c-.26.15-.25.4,0,.56ZM670.38,681.7l-6.07,3.51c-.26.15-.24.4,0,.56l7,4.05a1.05,1.05,0,0,0,1,0l6.08-3.5c.26-.15.24-.4,0-.56l-7-4.06A1.1,1.1,0,0,0,670.38,681.7Zm23.2,7.46,6.07-3.5c.26-.15.24-.4,0-.56l-7-4.06a1.07,1.07,0,0,0-1,0l-6.07,3.51c-.26.15-.24.4,0,.56l7,4A1.07,1.07,0,0,0,693.58,689.16Zm8.87-5.12,6.08-3.51c.25-.15.24-.4,0-.56l-7-4.05a1.07,1.07,0,0,0-1,0l-6.07,3.51c-.26.14-.24.4,0,.55l7,4.06A1.05,1.05,0,0,0,702.45,684Zm8.88-5.13,6.07-3.5c.26-.15.24-.4,0-.56l-7-4.06a1.1,1.1,0,0,0-1,0l-6.08,3.5c-.25.15-.24.4,0,.56l7,4A1.07,1.07,0,0,0,711.33,678.91Zm-32.07-2.33-6.08,3.51c-.25.15-.24.4,0,.56l7,4.05a1.07,1.07,0,0,0,1,0l6.07-3.51c.26-.14.25-.4,0-.56l-7-4A1.07,1.07,0,0,0,679.26,676.58Zm8.87-5.12-6.07,3.5c-.26.15-.24.4,0,.56l7,4.06a1.1,1.1,0,0,0,1,0l6.07-3.51c.26-.15.24-.4,0-.56l-7-4A1.07,1.07,0,0,0,688.13,671.46ZM723.64,651l-6.08,3.5c-.25.15-.24.4,0,.56l7,4.06a1.07,1.07,0,0,0,1,0l6.07-3.51c.26-.15.25-.4,0-.56l-7-4A1.07,1.07,0,0,0,723.64,651Zm-8.88,5.12-6.07,3.51c-.26.15-.24.4,0,.56l7,4.05a1.07,1.07,0,0,0,1,0l6.08-3.5c.25-.15.24-.4,0-.56l-7-4.06A1.07,1.07,0,0,0,714.76,656.08Zm17.75-10.25-6.07,3.51c-.26.15-.24.4,0,.56l7,4.05a1.07,1.07,0,0,0,1,0l6.07-3.5c.26-.15.24-.4,0-.56l-7-4.06A1.07,1.07,0,0,0,732.51,645.83ZM697,666.33l-6.07,3.51c-.26.15-.25.4,0,.56l7,4.05a1.07,1.07,0,0,0,1,0L705,671c.25-.15.24-.4,0-.56l-7-4.06A1.07,1.07,0,0,0,697,666.33Zm8.87-5.12-6.07,3.5c-.26.15-.24.4,0,.56l7,4.06a1.07,1.07,0,0,0,1,0l6.07-3.51c.26-.15.24-.4,0-.56l-7-4A1.07,1.07,0,0,0,705.88,661.21Zm-6.47,36.17,6.07-3.5c.26-.15.24-.4,0-.56l-7-4.06a1.07,1.07,0,0,0-1,0l-6.07,3.51c-.26.15-.24.4,0,.56l7,4.05A1.07,1.07,0,0,0,699.41,697.38Zm-52.09-5.26-7-4a1.07,1.07,0,0,0-1,0l-6.08,3.51c-.25.15-.24.4,0,.56l7,4a1.07,1.07,0,0,0,1,0l6.07-3.51C647.61,692.53,647.6,692.28,647.32,692.12Zm13.3,3.91-7-4.06a1.07,1.07,0,0,0-1,0l-9.34,5.4c-.26.15-.25.4,0,.56l7,4.05a1.07,1.07,0,0,0,1,0l9.35-5.39C660.91,696.44,660.9,696.19,660.62,696Zm-24.08-11.74-7-4.06a1.07,1.07,0,0,0-1,0l-7.47,4.32c-.26.15-.24.4,0,.56l7,4a1.05,1.05,0,0,0,1,0l7.48-4.32C636.84,684.7,636.82,684.45,636.54,684.29Zm5.74-3.31a1.05,1.05,0,0,0,1,0l6.08-3.51c.26-.15.24-.4,0-.56l-7-4a1.07,1.07,0,0,0-1,0l-6.07,3.5c-.26.15-.24.4,0,.56ZM673,700.47l-7-4.05a1.07,1.07,0,0,0-1,0l-11.68,6.74c-.26.15-.24.4,0,.56l7,4a1.05,1.05,0,0,0,1,0L673,701C673.28,700.88,673.27,700.63,673,700.47Zm5.83,8.22-7-4.05a1.05,1.05,0,0,0-1,0l-7.48,4.31c-.26.15-.24.4,0,.56l7,4.06a1.1,1.1,0,0,0,1,0l7.47-4.32C679.11,709.1,679.09,708.85,678.82,708.69Zm29.45-65.81a1.07,1.07,0,0,0,1,0l6.07-3.51c.26-.15.24-.4,0-.56l-7-4.05a1.07,1.07,0,0,0-1,0l-6.07,3.5c-.26.15-.24.4,0,.56Zm-17.75,10.25a1.1,1.1,0,0,0,1,0l6.07-3.51c.26-.15.24-.4,0-.56l-7-4.05a1.07,1.07,0,0,0-1,0l-6.07,3.5c-.26.15-.24.4,0,.56Zm-39.37,22.72a1.07,1.07,0,0,0,1,0l6.07-3.5c.26-.15.25-.4,0-.56l-7-4.06a1.07,1.07,0,0,0-1,0l-6.08,3.51c-.25.15-.24.4,0,.56ZM699.39,648a1.07,1.07,0,0,0,1,0l6.07-3.51c.26-.14.25-.4,0-.56l-7-4.05a1.07,1.07,0,0,0-1,0l-6.07,3.51c-.26.15-.25.4,0,.56Zm-17.75,10.25a1.07,1.07,0,0,0,1,0l6.07-3.51c.26-.15.25-.4,0-.56l-7-4.05a1.07,1.07,0,0,0-1,0l-6.08,3.51c-.25.15-.24.4,0,.56Zm2.05,51.1a1.05,1.05,0,0,0-1,0l-9.35,5.39c-.26.15-.24.4,0,.56l7,4.06a1.07,1.07,0,0,0,1,0l9.34-5.4c.26-.15.24-.4,0-.56ZM668.9,665.6a1.07,1.07,0,0,0,1,0l6.07-3.5c.26-.15.25-.4,0-.56l-7-4.06a1.1,1.1,0,0,0-1,0L661.85,661c-.26.15-.25.4,0,.56ZM660,670.73a1.07,1.07,0,0,0,1,0l6.07-3.51c.26-.15.24-.4,0-.56l-7-4a1.07,1.07,0,0,0-1,0l-6.07,3.5c-.26.15-.24.4,0,.56Zm188.1-56.32a1.07,1.07,0,0,0-1,0L832.21,623c-.25.15-.24.4,0,.56l7,4.06a1.1,1.1,0,0,0,1,0l15-8.64c.26-.14.24-.39,0-.55Zm-19.62,11.33a1.07,1.07,0,0,0-1,0l-6.07,3.51c-.26.14-.24.39,0,.56l7,4.05a1.07,1.07,0,0,0,1,0l6.07-3.51c.26-.15.24-.4,0-.56ZM708.28,692.26l6.07-3.51c.26-.15.25-.4,0-.56l-7-4.05a1.07,1.07,0,0,0-1,0l-6.07,3.51c-.26.14-.25.39,0,.55l7,4.06A1.07,1.07,0,0,0,708.28,692.26ZM810.76,636a1.07,1.07,0,0,0-1,0l-6.07,3.5c-.26.15-.24.4,0,.56l7,4.06a1.07,1.07,0,0,0,1,0l6.08-3.51c.25-.15.24-.4,0-.56ZM857,609.29a1.07,1.07,0,0,0-1,0l-6.07,3.5c-.26.15-.25.4,0,.56l7,4.06a1.07,1.07,0,0,0,1,0l6.07-3.51c.26-.15.25-.4,0-.56Zm15.9-1.07-17.06-9.85a1.07,1.07,0,0,0-1,0l-6.07,3.51c-.26.15-.24.4,0,.56l17.06,9.84a1.07,1.07,0,0,0,1,0l6.07-3.5C873.2,608.63,873.18,608.38,872.91,608.22Zm-95.32,46.92a1.07,1.07,0,0,0-1,0l-7.47,4.31c-.26.15-.24.4,0,.56l7,4.06a1.05,1.05,0,0,0,1,0l7.48-4.32c.26-.15.24-.4,0-.56ZM800,642.19a1.07,1.07,0,0,0-1,0l-9.35,5.4c-.25.14-.24.4,0,.56l7,4a1.07,1.07,0,0,0,1,0l9.34-5.39c.26-.15.24-.4,0-.56ZM757,667a1.07,1.07,0,0,0-1,0l-50,28.85c-.25.15-.24.4,0,.56l7,4.06a1.07,1.07,0,0,0,1,0l50-28.86c.26-.15.25-.4,0-.56Zm-52.79,30.48a1.07,1.07,0,0,0-1,0l-7.47,4.32c-.26.15-.25.4,0,.56l7,4a1.07,1.07,0,0,0,1,0l7.48-4.31c.25-.15.24-.4,0-.56Zm63.06-36.41a1.05,1.05,0,0,0-1,0l-7.48,4.32c-.26.15-.24.4,0,.56l7,4.05a1.07,1.07,0,0,0,1,0l7.47-4.32c.26-.14.24-.39,0-.55ZM694,703.42a1.07,1.07,0,0,0-1,0l-7.47,4.31c-.26.15-.24.4,0,.56l7,4.06a1.08,1.08,0,0,0,1,0L701,708c.26-.15.24-.4,0-.56Zm93.9-54.22a1.07,1.07,0,0,0-1,0l-7.47,4.32c-.26.15-.25.4,0,.56l7,4.05a1.07,1.07,0,0,0,1,0l7.48-4.31c.25-.15.24-.4,0-.56Zm31.77-18.34a1.1,1.1,0,0,0-1,0l-6.08,3.51c-.25.15-.24.4,0,.56l7,4.05a1.07,1.07,0,0,0,1,0l6.07-3.5c.26-.15.24-.4,0-.56Zm19.44-14.12,6.08-3.51c.26-.15.24-.4,0-.56l-7-4a1.07,1.07,0,0,0-1,0l-6.07,3.51c-.26.14-.24.4,0,.56l7,4.05A1.05,1.05,0,0,0,839.08,616.74Zm-39.68-.26,6.07-3.5c.26-.15.25-.4,0-.56l-7-4.06a1.07,1.07,0,0,0-1,0l-6.08,3.51c-.25.15-.24.4,0,.56l7,4.05A1.07,1.07,0,0,0,799.4,616.48Zm-20.11,34.78L797,641c.26-.15.24-.4,0-.56l-7-4.05a1.07,1.07,0,0,0-1,0l-17.75,10.25c-.26.15-.24.4,0,.56l7,4A1.07,1.07,0,0,0,779.29,651.26Zm50-29.42a1.07,1.07,0,0,0,1,0l6.07-3.5c.26-.15.24-.4,0-.56l-7-4.06a1.08,1.08,0,0,0-1,0l-6.08,3.51c-.26.15-.24.4,0,.56Zm-9.06-5.77,6.07-3.5c.26-.15.24-.4,0-.56l-7-4.06a1.07,1.07,0,0,0-1,0l-6.07,3.51c-.26.15-.24.4,0,.56l7,4A1.07,1.07,0,0,0,820.18,616.07Zm-49.77,40.32,6.08-3.51c.25-.15.24-.4,0-.56l-7-4.05a1.07,1.07,0,0,0-1,0l-6.07,3.5c-.26.15-.25.4,0,.56l7,4.06A1.07,1.07,0,0,0,770.41,656.39Zm39.21-23.22a1.07,1.07,0,0,0,1,0l6.07-3.5c.26-.15.24-.4,0-.56l-7-4.06a1.05,1.05,0,0,0-1,0l-6.08,3.51c-.26.15-.24.4,0,.56ZM726,682l6.08-3.51c.25-.15.24-.4,0-.56l-7-4.05a1.07,1.07,0,0,0-1,0L718,677.38c-.26.15-.24.4,0,.56l7,4A1.07,1.07,0,0,0,726,682Zm8.88-5.12,6.07-3.51c.26-.15.24-.4,0-.56l-7-4.06a1.08,1.08,0,0,0-1,0l-6.08,3.5c-.25.15-.24.4,0,.56l7,4.05A1.07,1.07,0,0,0,734.91,676.89Zm-17.75,10.24,6.07-3.5c.26-.15.24-.4,0-.56l-7-4.06a1.07,1.07,0,0,0-1,0l-6.07,3.51c-.26.15-.24.4,0,.56l7,4.05A1.07,1.07,0,0,0,717.16,687.13Zm35.5-20.49,6.07-3.51c.26-.15.25-.4,0-.56l-7-4.05a1.07,1.07,0,0,0-1,0l-6.08,3.5c-.25.15-.24.4,0,.56l7,4.06A1.1,1.1,0,0,0,752.66,666.64Zm-8.88,5.12,6.08-3.51c.26-.14.24-.39,0-.56l-7-4.05a1.07,1.07,0,0,0-1,0l-6.07,3.51c-.26.15-.24.4,0,.56l7,4A1.05,1.05,0,0,0,743.78,671.76Zm17.76-10.25,6.07-3.5c.26-.15.24-.4,0-.56l-7-4.06a1.07,1.07,0,0,0-1,0l-6.07,3.51c-.26.15-.24.4,0,.56l7,4A1.07,1.07,0,0,0,761.54,661.51Zm40.6-75.81a1.07,1.07,0,0,0,1,0l6.08-3.5c.25-.15.24-.4,0-.56l-1.87-1.08a1.07,1.07,0,0,0-1,0l-6.07,3.5c-.26.15-.24.4,0,.56Zm-43.67,28.19a1.07,1.07,0,0,0,1,0l6.07-3.51c.26-.14.25-.39,0-.55l-7-4.06a1.07,1.07,0,0,0-1,0l-6.07,3.51c-.26.15-.25.4,0,.56Zm17.75-10.25a1.07,1.07,0,0,0,1,0l6.08-3.5c.25-.15.24-.4,0-.56l-7-4.06a1.07,1.07,0,0,0-1,0L769.17,599c-.26.15-.25.4,0,.56Zm-28.59,16.51a1.07,1.07,0,0,0,1,0l6.08-3.51c.25-.15.24-.4,0-.56l-7-4.05a1.07,1.07,0,0,0-1,0l-6.07,3.5c-.26.15-.25.4,0,.56Zm19.72-11.38a1.07,1.07,0,0,0,1,0l6.07-3.51c.26-.15.24-.4,0-.56l-7-4.05a1.07,1.07,0,0,0-1,0l-6.07,3.5c-.26.15-.24.4,0,.56ZM729.88,630.4a1.07,1.07,0,0,0,1,0l6.07-3.51c.26-.15.25-.4,0-.56l-7-4.05a1.07,1.07,0,0,0-1,0l-6.07,3.5c-.26.15-.25.4,0,.56Zm8.88-5.13a1.07,1.07,0,0,0,1,0l6.07-3.5c.26-.15.24-.4,0-.56l-7-4.06a1.07,1.07,0,0,0-1,0l-6.07,3.51c-.26.15-.24.4,0,.56ZM784.39,596a1.07,1.07,0,0,0,1,0l6.07-3.51c.26-.14.25-.39,0-.55l-1.87-1.08a1.07,1.07,0,0,0-1,0l-6.07,3.5c-.26.15-.24.4,0,.56ZM811,580.58a1.07,1.07,0,0,0,1,0l6.07-3.51c.26-.15.24-.4,0-.56l-1.87-1.08a1.07,1.07,0,0,0-1,0l-6.07,3.51c-.26.15-.25.4,0,.56Zm14.75,8.51a1.07,1.07,0,0,0,1,0l6.07-3.5c.26-.15.25-.4,0-.56l-7-4.06a1.1,1.1,0,0,0-1,0l-6.08,3.51c-.25.15-.24.4,0,.56ZM848,611.62l6.07-3.51c.26-.15.25-.4,0-.56l-7-4.06a1.1,1.1,0,0,0-1,0L839.93,607c-.25.15-.24.4,0,.56l7,4.06A1.1,1.1,0,0,0,848,611.62Zm-54.69-20.79a1.07,1.07,0,0,0,1,0l6.07-3.51c.26-.15.24-.4,0-.56l-1.86-1.08a1.07,1.07,0,0,0-1,0l-6.08,3.51c-.25.15-.24.4,0,.56ZM721,635.52a1.05,1.05,0,0,0,1,0l6.08-3.5c.26-.15.24-.4,0-.56l-7-4.06a1.07,1.07,0,0,0-1,0L714,630.91c-.26.15-.24.4,0,.56Z"/><path class="cls-3" d="M760.37,688.8l59.93-34.6a7.24,7.24,0,0,1,6.54,0L861.2,674c1.81,1,1.81,2.73,0,3.78l-59.93,34.6a7.24,7.24,0,0,1-6.54,0l-34.36-19.84C758.56,691.53,758.56,689.84,760.37,688.8Z"/><path class="cls-7" d="M760.37,688.8l59.93-34.6a7.24,7.24,0,0,1,6.54,0L861.2,674c1.81,1,1.81,2.73,0,3.78l-59.93,34.6a7.24,7.24,0,0,1-6.54,0l-34.36-19.84C758.56,691.53,758.56,689.84,760.37,688.8Z"/><path class="cls-3" d="M562.79,667.06a8.5,8.5,0,0,0,1.68.72,7.93,7.93,0,0,1-1.68-.71,4.11,4.11,0,0,1-.51-.34A5.54,5.54,0,0,0,562.79,667.06Z"/><path class="cls-3" d="M572.34,667.58s0-.05.08-.08l-.06.06S572.35,667.58,572.34,667.58Z"/></g><g id="Window"><path class="cls-3" d="M581,627.1c0,2.58,1.81,3.62,4,2.33L769.89,522.71a8.92,8.92,0,0,0,4-7V391.29L581,502.67Z"/><g class="cls-8"><path class="cls-5" d="M581,627.1c0,2.58,1.81,3.62,4,2.33L769.89,522.71a8.92,8.92,0,0,0,4-7V391.29L581,502.67Z"/></g><path class="cls-3" d="M581,494.22a9,9,0,0,1,4-7L769.89,380.51c2.23-1.29,4-.24,4,2.33v8.45L581,502.67Z"/><path class="cls-2" d="M751.23,395.64a4.2,4.2,0,0,0-1.89,3.28c0,1.2.85,1.69,1.89,1.09a4.16,4.16,0,0,0,1.89-3.28C753.12,395.53,752.28,395,751.23,395.64Z"/><path class="cls-2" d="M757.85,391.83a4.19,4.19,0,0,0-1.89,3.28c0,1.2.85,1.69,1.89,1.09a4.19,4.19,0,0,0,1.89-3.28C759.74,391.72,758.89,391.23,757.85,391.83Z"/><path class="cls-2" d="M764.47,388a4.16,4.16,0,0,0-1.89,3.27c0,1.21.84,1.7,1.89,1.1a4.2,4.2,0,0,0,1.89-3.28C766.36,387.9,765.51,387.41,764.47,388Z"/></g><g id="www"><path class="cls-2" d="M643.41,516.49c.39-.23.69-.24.9,0a1.59,1.59,0,0,1,.43.71l2.9,12,2.9-15.38a5.73,5.73,0,0,1,.43-1.21,2.21,2.21,0,0,1,.91-1l4.85-2.81a.51.51,0,0,1,.67,0,1.15,1.15,0,0,1,.28.86,3.14,3.14,0,0,1,0,.51l-6.23,31.54A5.13,5.13,0,0,1,651,543a2.1,2.1,0,0,1-.88,1l-4.47,2.58c-.39.23-.68.23-.86,0a2.25,2.25,0,0,1-.43-.78l-2.78-11.06L638.78,549a7.92,7.92,0,0,1-.43,1.27,2,2,0,0,1-.86,1L633,553.87c-.39.22-.68.22-.88,0a1.76,1.76,0,0,1-.41-.79l-6.23-24.34a2.32,2.32,0,0,1,0-.46,2.82,2.82,0,0,1,.27-1.19,1.76,1.76,0,0,1,.67-.8l4.86-2.81c.39-.22.69-.24.9,0a1.62,1.62,0,0,1,.43.72l2.9,12,2.9-15.38a5.73,5.73,0,0,1,.43-1.21,2.2,2.2,0,0,1,.9-1Z"/><path class="cls-2" d="M679.31,495.76c.39-.23.7-.24.9,0a1.61,1.61,0,0,1,.44.71l2.89,12,2.91-15.38a5.73,5.73,0,0,1,.43-1.21,2.19,2.19,0,0,1,.9-1l4.86-2.81a.52.52,0,0,1,.67,0,1.15,1.15,0,0,1,.27.86,3.08,3.08,0,0,1,0,.51L687.31,521a6.15,6.15,0,0,1-.41,1.26,2.15,2.15,0,0,1-.88,1l-4.47,2.58c-.4.23-.68.23-.87,0a2.43,2.43,0,0,1-.43-.78L677.47,514l-2.79,14.28a7.87,7.87,0,0,1-.42,1.27,1.94,1.94,0,0,1-.87,1l-4.46,2.59c-.39.22-.69.23-.88,0a1.77,1.77,0,0,1-.42-.79L661.4,508a2.32,2.32,0,0,1,0-.46,2.69,2.69,0,0,1,.28-1.19,1.75,1.75,0,0,1,.66-.8l4.86-2.81c.39-.22.69-.24.9,0a1.55,1.55,0,0,1,.44.72l2.89,12,2.91-15.38a4.79,4.79,0,0,1,.43-1.21,2.15,2.15,0,0,1,.9-1Z"/><path class="cls-2" d="M715.21,475c.39-.23.7-.24.9,0a1.58,1.58,0,0,1,.44.72l2.89,12,2.91-15.37a5.61,5.61,0,0,1,.43-1.22,2.25,2.25,0,0,1,.9-1l4.86-2.8a.52.52,0,0,1,.67,0,1.18,1.18,0,0,1,.27.87,2.89,2.89,0,0,1,0,.5l-6.23,31.54a6,6,0,0,1-.41,1.26,2.15,2.15,0,0,1-.88,1l-4.47,2.58c-.4.23-.68.23-.87,0a2.49,2.49,0,0,1-.43-.77l-2.78-11.07-2.78,14.28a9,9,0,0,1-.43,1.27,2,2,0,0,1-.87,1l-4.46,2.58c-.39.22-.69.23-.88,0a1.67,1.67,0,0,1-.42-.79L697.3,487.3a3.28,3.28,0,0,1,0-.46,2.73,2.73,0,0,1,.28-1.19,1.75,1.75,0,0,1,.66-.8l4.86-2.8c.39-.23.69-.24.9-.05a1.6,1.6,0,0,1,.44.72l2.89,12,2.91-15.38a5.22,5.22,0,0,1,.43-1.21,2.19,2.19,0,0,1,.9-1Z"/></g></g><g id="Server"><polygon class="cls-3" points="441.22 762.29 304.19 841.4 167.16 762.29 304.19 683.17 441.22 762.29"/><polygon class="cls-9" points="441.22 762.29 304.19 841.4 167.16 762.29 304.19 683.17 441.22 762.29"/><polygon class="cls-9" points="304.2 841.39 304.19 831.51 175.73 757.34 167.15 762.28 304.2 841.39"/><path class="cls-3" d="M304.2,841.39v36.47a18.63,18.63,0,0,0,9.12-2.17h0l59.37-34.28,63-36.41a12.1,12.1,0,0,0,5.48-9.49V762.28Z"/><path class="cls-10" d="M304.2,841.39v36.47a18.63,18.63,0,0,0,9.12-2.17h0l59.37-34.28,63-36.41a12.1,12.1,0,0,0,5.48-9.49V762.28Z"/><path class="cls-3" d="M428.08,779.77,360.14,819a10.11,10.11,0,0,0-4.57,7.91v9.24c0,2.91,2.05,4.09,4.57,2.63l67.95-39.23a10.07,10.07,0,0,0,4.56-7.91v-9.23C432.65,779.5,430.61,778.32,428.08,779.77Z"/><path class="cls-7" d="M427.83,787.59v4.49a2,2,0,0,1-.91,1.58l-1,.59c-.5.29-.91,0-.91-.53v-4.48a2,2,0,0,1,.91-1.58l1-.59C427.43,786.78,427.83,787,427.83,787.59Z"/><path class="cls-7" d="M423.22,790.25v4.48a2,2,0,0,1-.91,1.59l-1,.59c-.5.29-.91.05-.91-.53V791.9a2,2,0,0,1,.91-1.58l1-.59C422.81,789.44,423.22,789.67,423.22,790.25Z"/><path class="cls-7" d="M418.61,792.91v4.48a2,2,0,0,1-.92,1.59l-1,.59c-.51.29-.92,0-.92-.53v-4.48a2,2,0,0,1,.92-1.58l1-.59C418.2,792.1,418.61,792.33,418.61,792.91Z"/><path class="cls-2" d="M414,795.57v4.48a2,2,0,0,1-.91,1.59l-1,.59c-.5.29-.91,0-.91-.53v-4.48a2,2,0,0,1,.91-1.58l1-.59C413.58,794.76,414,795,414,795.57Z"/><path class="cls-2" d="M409.38,798.23v4.48a2,2,0,0,1-.91,1.59l-1,.59c-.51.29-.91.05-.91-.53v-4.48a2,2,0,0,1,.91-1.58l1-.59C409,797.42,409.38,797.65,409.38,798.23Z"/><path class="cls-7" d="M404.76,800.89v4.48a2,2,0,0,1-.91,1.59l-1,.59c-.5.29-.91.05-.91-.53v-4.48a2,2,0,0,1,.91-1.58l1-.59C404.36,800.08,404.76,800.31,404.76,800.89Z"/><path class="cls-7" d="M400.15,803.55V808a2,2,0,0,1-.91,1.58l-1,.6c-.5.29-.91,0-.91-.53V805.2a2,2,0,0,1,.91-1.58l1-.59C399.74,802.73,400.15,803,400.15,803.55Z"/><path class="cls-7" d="M395.54,806.21v4.48a2,2,0,0,1-.92,1.58l-1,.6c-.51.29-.92,0-.92-.53v-4.48a2,2,0,0,1,.92-1.58l1-.59C395.13,805.39,395.54,805.63,395.54,806.21Z"/><path class="cls-7" d="M390.92,808.87v4.48a2,2,0,0,1-.91,1.58l-1,.6c-.5.29-.91.05-.91-.53v-4.48a2,2,0,0,1,.91-1.58l1-.59C390.51,808.05,390.92,808.29,390.92,808.87Z"/><path class="cls-7" d="M386.31,811.53V816a2,2,0,0,1-.91,1.58l-1,.6c-.5.29-.91,0-.91-.53v-4.48a2,2,0,0,1,.91-1.58l1-.59C385.9,810.71,386.31,811,386.31,811.53Z"/><path class="cls-7" d="M381.7,814.19v4.48a2,2,0,0,1-.92,1.58l-1,.6c-.51.29-.92,0-.92-.53v-4.48a2,2,0,0,1,.92-1.58l1-.6C381.29,813.37,381.7,813.61,381.7,814.19Z"/><path class="cls-7" d="M377.08,816.85v4.48a2,2,0,0,1-.91,1.58l-1,.6c-.5.29-.91,0-.91-.53V818.5a2,2,0,0,1,.91-1.58l1-.6C376.67,816,377.08,816.27,377.08,816.85Z"/><path class="cls-2" d="M372.47,819.51V824a2,2,0,0,1-.91,1.58l-1,.6c-.51.29-.92.05-.92-.53v-4.48a2,2,0,0,1,.92-1.58l1-.6C372.06,818.69,372.47,818.93,372.47,819.51Z"/><path class="cls-7" d="M367.85,822.17v4.48a2,2,0,0,1-.91,1.58l-1,.6c-.5.29-.91,0-.91-.53v-4.48a2,2,0,0,1,.91-1.58l1-.6C367.45,821.35,367.85,821.59,367.85,822.17Z"/><path class="cls-7" d="M363.24,824.83v4.48a2,2,0,0,1-.91,1.58l-1,.6c-.5.29-.91,0-.91-.53v-4.48a2,2,0,0,1,.91-1.58l1-.6C362.83,824,363.24,824.25,363.24,824.83Z"/><path class="cls-3" d="M167.15,762.28v33.23a12.13,12.13,0,0,0,5.49,9.49l54.48,31.46,67.95,39.23a18.62,18.62,0,0,0,9.13,2.17V841.39Z"/><path class="cls-11" d="M167.15,762.28v33.23a12.13,12.13,0,0,0,5.49,9.49l54.48,31.46,67.95,39.23a18.62,18.62,0,0,0,9.13,2.17V841.39Z"/><g class="cls-8"><path class="cls-5" d="M188.84,784.75l33.69,19.46a10.08,10.08,0,0,1,4.57,7.9v9.24c0,2.91-2,4.09-4.57,2.63l-33.69-19.45a10.07,10.07,0,0,1-4.56-7.9v-9.24C184.28,784.48,186.32,783.3,188.84,784.75Z"/></g><path class="cls-3" d="M193.18,795.17l2.09-1.21h0a2.81,2.81,0,0,1,2.79.29,8.76,8.76,0,0,1,4,6.87,2.82,2.82,0,0,1-1.16,2.57h0l-1.95,1.12-.35-.59a4.17,4.17,0,0,1-1.14-.44,8.8,8.8,0,0,1-4-6.88,4,4,0,0,1,.13-1Z"/><path class="cls-12" d="M193.18,795.17l2.09-1.21h0a2.81,2.81,0,0,1,2.79.29,8.76,8.76,0,0,1,4,6.87,2.82,2.82,0,0,1-1.16,2.57h0l-1.95,1.12-.35-.59a4.17,4.17,0,0,1-1.14-.44,8.8,8.8,0,0,1-4-6.88,4,4,0,0,1,.13-1Z"/><path class="cls-3" d="M196.07,795.4a8.76,8.76,0,0,1,4,6.87c0,2.53-1.78,3.55-4,2.29a8.78,8.78,0,0,1-4-6.87C192.1,795.16,193.88,794.13,196.07,795.4Z"/><path class="cls-3" d="M210.4,805.11l2.1-1.21h0a2.79,2.79,0,0,1,2.78.29,8.76,8.76,0,0,1,4,6.87,2.8,2.8,0,0,1-1.16,2.57h0l-2,1.12-.35-.59a4.29,4.29,0,0,1-1.14-.44,8.8,8.8,0,0,1-4-6.88,4.49,4.49,0,0,1,.13-1Z"/><path class="cls-12" d="M210.4,805.11l2.1-1.21h0a2.79,2.79,0,0,1,2.78.29,8.76,8.76,0,0,1,4,6.87,2.8,2.8,0,0,1-1.16,2.57h0l-2,1.12-.35-.59a4.29,4.29,0,0,1-1.14-.44,8.8,8.8,0,0,1-4-6.88,4.49,4.49,0,0,1,.13-1Z"/><path class="cls-3" d="M213.29,805.34a8.76,8.76,0,0,1,4,6.87c0,2.53-1.78,3.55-4,2.29a8.78,8.78,0,0,1-4-6.87C209.32,805.1,211.1,804.07,213.29,805.34Z"/><g class="cls-8"><path class="cls-5" d="M188.84,784.75l33.69,19.46a10.08,10.08,0,0,1,4.57,7.9v9.24c0,2.91-2,4.09-4.57,2.63l-33.69-19.45a10.07,10.07,0,0,1-4.56-7.9v-9.24C184.28,784.48,186.32,783.3,188.84,784.75Z"/></g><path class="cls-3" d="M193.18,795.17l2.09-1.21h0a2.81,2.81,0,0,1,2.79.29,8.76,8.76,0,0,1,4,6.87,2.82,2.82,0,0,1-1.16,2.57h0l-1.95,1.12-.35-.59a4.17,4.17,0,0,1-1.14-.44,8.8,8.8,0,0,1-4-6.88,4,4,0,0,1,.13-1Z"/><path class="cls-12" d="M193.18,795.17l2.09-1.21h0a2.81,2.81,0,0,1,2.79.29,8.76,8.76,0,0,1,4,6.87,2.82,2.82,0,0,1-1.16,2.57h0l-1.95,1.12-.35-.59a4.17,4.17,0,0,1-1.14-.44,8.8,8.8,0,0,1-4-6.88,4,4,0,0,1,.13-1Z"/><path class="cls-3" d="M196.07,795.4a8.76,8.76,0,0,1,4,6.87c0,2.53-1.78,3.55-4,2.29a8.78,8.78,0,0,1-4-6.87C192.1,795.16,193.88,794.13,196.07,795.4Z"/><path class="cls-3" d="M210.4,805.11l2.1-1.21h0a2.79,2.79,0,0,1,2.78.29,8.76,8.76,0,0,1,4,6.87,2.8,2.8,0,0,1-1.16,2.57h0l-2,1.12-.35-.59a4.29,4.29,0,0,1-1.14-.44,8.8,8.8,0,0,1-4-6.88,4.49,4.49,0,0,1,.13-1Z"/><path class="cls-12" d="M210.4,805.11l2.1-1.21h0a2.79,2.79,0,0,1,2.78.29,8.76,8.76,0,0,1,4,6.87,2.8,2.8,0,0,1-1.16,2.57h0l-2,1.12-.35-.59a4.29,4.29,0,0,1-1.14-.44,8.8,8.8,0,0,1-4-6.88,4.49,4.49,0,0,1,.13-1Z"/><path class="cls-3" d="M213.29,805.34a8.76,8.76,0,0,1,4,6.87c0,2.53-1.78,3.55-4,2.29a8.78,8.78,0,0,1-4-6.87C209.32,805.1,211.1,804.07,213.29,805.34Z"/><path class="cls-3" d="M343.42,835.9l-2.09-1.2h0a2.8,2.8,0,0,0-2.79.28,8.8,8.8,0,0,0-4,6.88,2.79,2.79,0,0,0,1.16,2.56h0l1.94,1.12.35-.59a3.87,3.87,0,0,0,1.14-.44,8.78,8.78,0,0,0,4-6.87,4.53,4.53,0,0,0-.12-1Z"/><path class="cls-13" d="M343.42,835.9l-2.09-1.2h0a2.8,2.8,0,0,0-2.79.28,8.8,8.8,0,0,0-4,6.88,2.79,2.79,0,0,0,1.16,2.56h0l1.94,1.12.35-.59a3.87,3.87,0,0,0,1.14-.44,8.78,8.78,0,0,0,4-6.87,4.53,4.53,0,0,0-.12-1Z"/><path class="cls-3" d="M340.53,836.13a8.77,8.77,0,0,0-4,6.87c0,2.53,1.77,3.56,4,2.29a8.76,8.76,0,0,0,4-6.87C344.5,835.89,342.72,834.86,340.53,836.13Z"/><path class="cls-12" d="M340.53,836.13a8.77,8.77,0,0,0-4,6.87c0,2.53,1.77,3.56,4,2.29a8.76,8.76,0,0,0,4-6.87C344.5,835.89,342.72,834.86,340.53,836.13Z"/><path class="cls-3" d="M326.2,845.84l-2.1-1.2h0a2.8,2.8,0,0,0-2.79.28,8.8,8.8,0,0,0-4,6.88,2.77,2.77,0,0,0,1.16,2.56h0l1.95,1.12.35-.59a4,4,0,0,0,1.14-.44,8.78,8.78,0,0,0,4-6.87,4,4,0,0,0-.13-1Z"/><path class="cls-13" d="M326.2,845.84l-2.1-1.2h0a2.8,2.8,0,0,0-2.79.28,8.8,8.8,0,0,0-4,6.88,2.77,2.77,0,0,0,1.16,2.56h0l1.95,1.12.35-.59a4,4,0,0,0,1.14-.44,8.78,8.78,0,0,0,4-6.87,4,4,0,0,0-.13-1Z"/><path class="cls-3" d="M323.31,846.07a8.78,8.78,0,0,0-4,6.87c0,2.53,1.78,3.56,4,2.29a8.76,8.76,0,0,0,4-6.87C327.28,845.83,325.5,844.8,323.31,846.07Z"/><path class="cls-12" d="M323.31,846.07a8.78,8.78,0,0,0-4,6.87c0,2.53,1.78,3.56,4,2.29a8.76,8.76,0,0,0,4-6.87C327.28,845.83,325.5,844.8,323.31,846.07Z"/><polygon class="cls-3" points="441.22 702.95 304.19 782.07 167.16 702.95 304.19 623.84 441.22 702.95"/><polygon class="cls-9" points="441.22 702.95 304.19 782.07 167.16 702.95 304.19 623.84 441.22 702.95"/><polygon class="cls-9" points="304.19 782.07 304.19 772.18 175.73 698.01 167.16 702.95 304.19 782.07"/><polygon class="cls-3" points="441.21 742.51 304.19 821.62 304.19 782.07 441.22 702.95 441.21 742.51"/><polygon class="cls-10" points="441.21 742.51 304.19 821.62 304.19 782.07 441.22 702.95 441.21 742.51"/><path class="cls-3" d="M428.08,720.45l-67.94,39.23a10.11,10.11,0,0,0-4.57,7.91v9.23c0,2.91,2.05,4.09,4.57,2.64l67.95-39.23a10.1,10.1,0,0,0,4.56-7.91v-9.23C432.65,720.17,430.61,719,428.08,720.45Z"/><path class="cls-7" d="M427.83,728.27v4.48a2,2,0,0,1-.91,1.58l-1,.6c-.5.29-.91.05-.91-.53v-4.48a2,2,0,0,1,.91-1.58l1-.6C427.43,727.45,427.83,727.69,427.83,728.27Z"/><path class="cls-2" d="M423.22,730.93v4.48a2,2,0,0,1-.91,1.58l-1,.6c-.5.29-.91,0-.91-.53v-4.48a2,2,0,0,1,.91-1.58l1-.6C422.81,730.11,423.22,730.35,423.22,730.93Z"/><path class="cls-7" d="M418.61,733.59v4.48a2,2,0,0,1-.92,1.58l-1,.6c-.51.29-.92,0-.92-.53v-4.48a2,2,0,0,1,.92-1.58l1-.6C418.2,732.77,418.61,733,418.61,733.59Z"/><path class="cls-2" d="M414,736.25v4.48a2,2,0,0,1-.91,1.58l-1,.6c-.5.29-.91.05-.91-.53V737.9a2,2,0,0,1,.91-1.58l1-.6C413.58,735.43,414,735.67,414,736.25Z"/><path class="cls-2" d="M409.38,738.91v4.48a2,2,0,0,1-.91,1.58l-1,.6c-.51.29-.91,0-.91-.53v-4.48a2,2,0,0,1,.91-1.58l1-.6C409,738.09,409.38,738.33,409.38,738.91Z"/><path class="cls-7" d="M404.76,741.57v4.48a2,2,0,0,1-.91,1.58l-1,.6c-.5.29-.91,0-.91-.53v-4.48a2,2,0,0,1,.91-1.58l1-.6C404.36,740.75,404.76,741,404.76,741.57Z"/><path class="cls-7" d="M400.15,744.23v4.48a2,2,0,0,1-.91,1.58l-1,.6c-.5.29-.91.05-.91-.53v-4.48a2,2,0,0,1,.91-1.58l1-.6C399.74,743.41,400.15,743.65,400.15,744.23Z"/><path class="cls-7" d="M395.54,746.89v4.48a2,2,0,0,1-.92,1.58l-1,.6c-.51.29-.92.05-.92-.53v-4.48a2,2,0,0,1,.92-1.58l1-.6C395.13,746.07,395.54,746.31,395.54,746.89Z"/><path class="cls-2" d="M390.92,749.55V754a2,2,0,0,1-.91,1.58l-1,.59c-.5.3-.91.06-.91-.52V751.2a2,2,0,0,1,.91-1.58l1-.6C390.51,748.73,390.92,749,390.92,749.55Z"/><path class="cls-7" d="M386.31,752.21v4.48a2,2,0,0,1-.91,1.58l-1,.59c-.5.3-.91.06-.91-.52v-4.48a2,2,0,0,1,.91-1.58l1-.6C385.9,751.39,386.31,751.63,386.31,752.21Z"/><path class="cls-2" d="M381.7,754.87v4.48a2,2,0,0,1-.92,1.58l-1,.59c-.51.3-.92.06-.92-.52v-4.48a2,2,0,0,1,.92-1.58l1-.6C381.29,754.05,381.7,754.29,381.7,754.87Z"/><path class="cls-7" d="M377.08,757.53V762a2,2,0,0,1-.91,1.58l-1,.59c-.5.3-.91.06-.91-.52v-4.48a2,2,0,0,1,.91-1.58l1-.6C376.67,756.71,377.08,757,377.08,757.53Z"/><path class="cls-2" d="M372.47,760.19v4.48a2,2,0,0,1-.91,1.58l-1,.59c-.51.29-.92.06-.92-.52v-4.48a2,2,0,0,1,.92-1.59l1-.59C372.06,759.37,372.47,759.61,372.47,760.19Z"/><path class="cls-7" d="M367.85,762.85v4.48a2,2,0,0,1-.91,1.58l-1,.59c-.5.29-.91.06-.91-.52V764.5a2,2,0,0,1,.91-1.59l1-.59C367.45,762,367.85,762.27,367.85,762.85Z"/><path class="cls-7" d="M363.24,765.51V770a2,2,0,0,1-.91,1.58l-1,.59c-.5.29-.91.06-.91-.52v-4.48a2,2,0,0,1,.91-1.59l1-.59C362.83,764.69,363.24,764.93,363.24,765.51Z"/><polygon class="cls-3" points="304.19 821.62 167.16 742.51 167.16 702.95 304.19 782.07 304.19 821.62"/><polygon class="cls-11" points="304.19 821.62 167.16 742.51 167.16 702.95 304.19 782.07 304.19 821.62"/><g class="cls-8"><path class="cls-5" d="M188.84,725.38l33.69,19.45a10.08,10.08,0,0,1,4.57,7.9V762c0,2.91-2,4.09-4.57,2.64l-33.69-19.46a10.07,10.07,0,0,1-4.56-7.9V728C184.28,725.1,186.32,723.92,188.84,725.38Z"/></g><path class="cls-3" d="M193.18,735.79l2.09-1.21h0a2.78,2.78,0,0,1,2.79.28,8.78,8.78,0,0,1,4,6.87,2.81,2.81,0,0,1-1.16,2.57h0l-1.95,1.12-.35-.59a3.87,3.87,0,0,1-1.14-.44,8.8,8.8,0,0,1-4-6.88,4,4,0,0,1,.13-1Z"/><path class="cls-12" d="M193.18,735.79l2.09-1.21h0a2.78,2.78,0,0,1,2.79.28,8.78,8.78,0,0,1,4,6.87,2.81,2.81,0,0,1-1.16,2.57h0l-1.95,1.12-.35-.59a3.87,3.87,0,0,1-1.14-.44,8.8,8.8,0,0,1-4-6.88,4,4,0,0,1,.13-1Z"/><path class="cls-3" d="M196.07,736a8.76,8.76,0,0,1,4,6.87c0,2.53-1.78,3.55-4,2.29a8.78,8.78,0,0,1-4-6.87C192.1,735.78,193.88,734.75,196.07,736Z"/><path class="cls-3" d="M210.4,745.73l2.1-1.21h0a2.76,2.76,0,0,1,2.78.28,8.78,8.78,0,0,1,4,6.87,2.79,2.79,0,0,1-1.16,2.57h0l-2,1.12-.35-.59a4,4,0,0,1-1.14-.44,8.8,8.8,0,0,1-4-6.88,4.49,4.49,0,0,1,.13-1Z"/><path class="cls-12" d="M210.4,745.73l2.1-1.21h0a2.76,2.76,0,0,1,2.78.28,8.78,8.78,0,0,1,4,6.87,2.79,2.79,0,0,1-1.16,2.57h0l-2,1.12-.35-.59a4,4,0,0,1-1.14-.44,8.8,8.8,0,0,1-4-6.88,4.49,4.49,0,0,1,.13-1Z"/><path class="cls-3" d="M213.29,746a8.76,8.76,0,0,1,4,6.87c0,2.53-1.78,3.55-4,2.29a8.78,8.78,0,0,1-4-6.87C209.32,745.72,211.1,744.69,213.29,746Z"/><polygon class="cls-2" points="424.09 762.29 424.09 752.4 304.19 821.62 304.19 831.51 424.09 762.29"/><polygon class="cls-3" points="175.72 747.45 175.73 757.34 304.19 831.51 304.19 821.62 175.72 747.45"/><polygon class="cls-2" points="175.72 747.45 175.73 757.34 304.19 831.51 304.19 821.62 175.72 747.45"/><path class="cls-3" d="M343.42,776.57l-2.09-1.21h0a2.78,2.78,0,0,0-2.79.28,8.78,8.78,0,0,0-4,6.87,2.81,2.81,0,0,0,1.16,2.57h0l1.94,1.12.35-.59a3.87,3.87,0,0,0,1.14-.44,8.78,8.78,0,0,0,4-6.87,4.53,4.53,0,0,0-.12-1Z"/><path class="cls-13" d="M343.42,776.57l-2.09-1.21h0a2.78,2.78,0,0,0-2.79.28,8.78,8.78,0,0,0-4,6.87,2.81,2.81,0,0,0,1.16,2.57h0l1.94,1.12.35-.59a3.87,3.87,0,0,0,1.14-.44,8.78,8.78,0,0,0,4-6.87,4.53,4.53,0,0,0-.12-1Z"/><path class="cls-3" d="M340.53,776.8a8.75,8.75,0,0,0-4,6.87c0,2.53,1.77,3.56,4,2.29a8.76,8.76,0,0,0,4-6.87C344.5,776.56,342.72,775.53,340.53,776.8Z"/><path class="cls-12" d="M340.53,776.8a8.75,8.75,0,0,0-4,6.87c0,2.53,1.77,3.56,4,2.29a8.76,8.76,0,0,0,4-6.87C344.5,776.56,342.72,775.53,340.53,776.8Z"/><path class="cls-3" d="M326.2,786.51l-2.1-1.21h0a2.78,2.78,0,0,0-2.79.28,8.78,8.78,0,0,0-4,6.87,2.79,2.79,0,0,0,1.16,2.57h0l1.95,1.12.35-.59a4,4,0,0,0,1.14-.44,8.78,8.78,0,0,0,4-6.87,4,4,0,0,0-.13-1Z"/><path class="cls-13" d="M326.2,786.51l-2.1-1.21h0a2.78,2.78,0,0,0-2.79.28,8.78,8.78,0,0,0-4,6.87,2.79,2.79,0,0,0,1.16,2.57h0l1.95,1.12.35-.59a4,4,0,0,0,1.14-.44,8.78,8.78,0,0,0,4-6.87,4,4,0,0,0-.13-1Z"/><path class="cls-3" d="M323.31,786.74a8.76,8.76,0,0,0-4,6.87c0,2.53,1.78,3.56,4,2.29a8.78,8.78,0,0,0,4-6.87C327.28,786.5,325.5,785.47,323.31,786.74Z"/><path class="cls-12" d="M323.31,786.74a8.76,8.76,0,0,0-4,6.87c0,2.53,1.78,3.56,4,2.29a8.78,8.78,0,0,0,4-6.87C327.28,786.5,325.5,785.47,323.31,786.74Z"/><polygon class="cls-3" points="441.22 643.62 304.19 722.73 167.16 643.62 304.19 564.51 441.22 643.62"/><polygon class="cls-9" points="441.22 643.62 304.19 722.73 167.16 643.62 304.19 564.51 441.22 643.62"/><polygon class="cls-9" points="304.19 722.73 304.19 712.84 175.73 638.67 167.16 643.62 304.19 722.73"/><polygon class="cls-3" points="441.21 683.17 304.19 762.29 304.19 722.73 441.22 643.62 441.21 683.17"/><polygon class="cls-10" points="441.21 683.17 304.19 762.29 304.19 722.73 441.22 643.62 441.21 683.17"/><path class="cls-3" d="M428.08,661.06l-67.94,39.23a10.1,10.1,0,0,0-4.57,7.91v9.23c0,2.91,2.05,4.09,4.57,2.64l67.95-39.23a10.1,10.1,0,0,0,4.56-7.91v-9.24C432.65,660.78,430.61,659.6,428.08,661.06Z"/><path class="cls-7" d="M427.83,668.88v4.48a2,2,0,0,1-.91,1.58l-1,.6c-.5.29-.91.05-.91-.53v-4.48a2,2,0,0,1,.91-1.58l1-.6C427.43,668.06,427.83,668.3,427.83,668.88Z"/><path class="cls-7" d="M423.22,671.54V676a2,2,0,0,1-.91,1.58l-1,.6c-.5.29-.91,0-.91-.53v-4.48a2,2,0,0,1,.91-1.58l1-.6C422.81,670.72,423.22,671,423.22,671.54Z"/><path class="cls-7" d="M418.61,674.2v4.48a2,2,0,0,1-.92,1.58l-1,.6c-.51.29-.92,0-.92-.53v-4.48a2,2,0,0,1,.92-1.58l1-.6C418.2,673.38,418.61,673.62,418.61,674.2Z"/><path class="cls-7" d="M414,676.86v4.48a2,2,0,0,1-.91,1.58l-1,.6c-.5.29-.91.05-.91-.53v-4.48a2,2,0,0,1,.91-1.58l1-.6C413.58,676,414,676.28,414,676.86Z"/><path class="cls-2" d="M409.38,679.52V684a2,2,0,0,1-.91,1.58l-1,.6c-.51.29-.91.05-.91-.53v-4.48a2,2,0,0,1,.91-1.58l1-.6C409,678.7,409.38,678.94,409.38,679.52Z"/><path class="cls-2" d="M404.76,682.18v4.48a2,2,0,0,1-.91,1.58l-1,.59c-.5.3-.91.06-.91-.52v-4.48a2,2,0,0,1,.91-1.58l1-.6C404.36,681.36,404.76,681.6,404.76,682.18Z"/><path class="cls-7" d="M400.15,684.84v4.48a2,2,0,0,1-.91,1.58l-1,.59c-.5.3-.91.06-.91-.52v-4.48a2,2,0,0,1,.91-1.58l1-.6C399.74,684,400.15,684.26,400.15,684.84Z"/><path class="cls-7" d="M395.54,687.5V692a2,2,0,0,1-.92,1.58l-1,.59c-.51.3-.92.06-.92-.52v-4.48a2,2,0,0,1,.92-1.58l1-.6C395.13,686.68,395.54,686.92,395.54,687.5Z"/><path class="cls-7" d="M390.92,690.16v4.48a2,2,0,0,1-.91,1.58l-1,.59c-.5.29-.91.06-.91-.52v-4.48a2,2,0,0,1,.91-1.58l1-.6C390.51,689.34,390.92,689.58,390.92,690.16Z"/><path class="cls-2" d="M386.31,692.82v4.48a2,2,0,0,1-.91,1.58l-1,.59c-.5.29-.91.06-.91-.52v-4.48a2,2,0,0,1,.91-1.59l1-.59C385.9,692,386.31,692.24,386.31,692.82Z"/><path class="cls-7" d="M381.7,695.48V700a2,2,0,0,1-.92,1.58l-1,.59c-.51.29-.92.06-.92-.52v-4.48a2,2,0,0,1,.92-1.59l1-.59C381.29,694.66,381.7,694.9,381.7,695.48Z"/><path class="cls-7" d="M377.08,698.14v4.48a2,2,0,0,1-.91,1.58l-1,.59c-.5.29-.91.06-.91-.52v-4.48a2,2,0,0,1,.91-1.59l1-.59C376.67,697.32,377.08,697.56,377.08,698.14Z"/><path class="cls-2" d="M372.47,700.8v4.48a2,2,0,0,1-.91,1.58l-1,.59c-.51.29-.92.06-.92-.52v-4.48a2,2,0,0,1,.92-1.59l1-.59C372.06,700,372.47,700.22,372.47,700.8Z"/><path class="cls-7" d="M367.85,703.46v4.48a2,2,0,0,1-.91,1.58l-1,.59c-.5.29-.91.06-.91-.52v-4.48a2,2,0,0,1,.91-1.59l1-.59C367.45,702.64,367.85,702.88,367.85,703.46Z"/><path class="cls-2" d="M363.24,706.12v4.48a2,2,0,0,1-.91,1.58l-1,.59c-.5.29-.91.06-.91-.52v-4.49a2,2,0,0,1,.91-1.58l1-.59C362.83,705.3,363.24,705.54,363.24,706.12Z"/><polygon class="cls-3" points="304.19 762.29 167.16 683.17 167.16 643.62 304.19 722.73 304.19 762.29"/><polygon class="cls-11" points="304.19 762.29 167.16 683.17 167.16 643.62 304.19 722.73 304.19 762.29"/><g class="cls-8"><path class="cls-5" d="M188.84,666l33.69,19.45a10.11,10.11,0,0,1,4.57,7.91v9.24c0,2.91-2,4.09-4.57,2.63l-33.69-19.45a10.1,10.1,0,0,1-4.56-7.91v-9.23C184.28,665.76,186.32,664.58,188.84,666Z"/></g><path class="cls-3" d="M193.18,676.45l2.09-1.21h0a2.81,2.81,0,0,1,2.79.29,8.76,8.76,0,0,1,4,6.87,2.82,2.82,0,0,1-1.16,2.57h0l-1.95,1.11-.35-.58a4.21,4.21,0,0,1-1.14-.45,8.76,8.76,0,0,1-4-6.87,3.92,3.92,0,0,1,.13-1Z"/><path class="cls-12" d="M193.18,676.45l2.09-1.21h0a2.81,2.81,0,0,1,2.79.29,8.76,8.76,0,0,1,4,6.87,2.82,2.82,0,0,1-1.16,2.57h0l-1.95,1.11-.35-.58a4.21,4.21,0,0,1-1.14-.45,8.76,8.76,0,0,1-4-6.87,3.92,3.92,0,0,1,.13-1Z"/><path class="cls-3" d="M196.07,676.67a8.8,8.8,0,0,1,4,6.88c0,2.53-1.78,3.55-4,2.29a8.8,8.8,0,0,1-4-6.88C192.1,676.43,193.88,675.41,196.07,676.67Z"/><path class="cls-3" d="M210.4,686.39l2.1-1.21h0a2.79,2.79,0,0,1,2.78.29,8.76,8.76,0,0,1,4,6.87,2.77,2.77,0,0,1-1.16,2.56h0l-2,1.11-.35-.58a4.34,4.34,0,0,1-1.14-.45,8.76,8.76,0,0,1-4-6.87,4.42,4.42,0,0,1,.13-1Z"/><path class="cls-12" d="M210.4,686.39l2.1-1.21h0a2.79,2.79,0,0,1,2.78.29,8.76,8.76,0,0,1,4,6.87,2.77,2.77,0,0,1-1.16,2.56h0l-2,1.11-.35-.58a4.34,4.34,0,0,1-1.14-.45,8.76,8.76,0,0,1-4-6.87,4.42,4.42,0,0,1,.13-1Z"/><path class="cls-3" d="M213.29,686.61a8.8,8.8,0,0,1,4,6.88c0,2.53-1.78,3.55-4,2.29a8.8,8.8,0,0,1-4-6.88C209.32,686.37,211.1,685.35,213.29,686.61Z"/><polygon class="cls-2" points="424.09 702.95 424.09 693.06 304.19 762.29 304.19 772.18 424.09 702.95"/><polygon class="cls-2" points="175.72 688.12 175.73 698.01 304.19 772.18 304.19 762.29 175.72 688.12"/><path class="cls-3" d="M343.42,717.24,341.33,716h0a2.81,2.81,0,0,0-2.79.29,8.76,8.76,0,0,0-4,6.87,2.79,2.79,0,0,0,1.16,2.56h0l1.94,1.11.35-.58a4.21,4.21,0,0,0,1.14-.45,8.76,8.76,0,0,0,4-6.87,4.37,4.37,0,0,0-.12-1Z"/><path class="cls-13" d="M343.42,717.24,341.33,716h0a2.81,2.81,0,0,0-2.79.29,8.76,8.76,0,0,0-4,6.87,2.79,2.79,0,0,0,1.16,2.56h0l1.94,1.11.35-.58a4.21,4.21,0,0,0,1.14-.45,8.76,8.76,0,0,0,4-6.87,4.37,4.37,0,0,0-.12-1Z"/><path class="cls-3" d="M340.53,717.46a8.77,8.77,0,0,0-4,6.87c0,2.54,1.77,3.56,4,2.3a8.8,8.8,0,0,0,4-6.88C344.5,717.22,342.72,716.2,340.53,717.46Z"/><path class="cls-12" d="M340.53,717.46a8.77,8.77,0,0,0-4,6.87c0,2.54,1.77,3.56,4,2.3a8.8,8.8,0,0,0,4-6.88C344.5,717.22,342.72,716.2,340.53,717.46Z"/><path class="cls-3" d="M326.2,727.18,324.1,726h0a2.81,2.81,0,0,0-2.79.29,8.76,8.76,0,0,0-4,6.87,2.77,2.77,0,0,0,1.16,2.56h0l1.95,1.11.35-.58a4.34,4.34,0,0,0,1.14-.45,8.76,8.76,0,0,0,4-6.87,3.87,3.87,0,0,0-.13-1Z"/><path class="cls-13" d="M326.2,727.18,324.1,726h0a2.81,2.81,0,0,0-2.79.29,8.76,8.76,0,0,0-4,6.87,2.77,2.77,0,0,0,1.16,2.56h0l1.95,1.11.35-.58a4.34,4.34,0,0,0,1.14-.45,8.76,8.76,0,0,0,4-6.87,3.87,3.87,0,0,0-.13-1Z"/><path class="cls-3" d="M323.31,727.4a8.78,8.78,0,0,0-4,6.87c0,2.53,1.78,3.56,4,2.3a8.8,8.8,0,0,0,4-6.88C327.28,727.16,325.5,726.14,323.31,727.4Z"/><path class="cls-12" d="M323.31,727.4a8.78,8.78,0,0,0-4,6.87c0,2.53,1.78,3.56,4,2.3a8.8,8.8,0,0,0,4-6.88C327.28,727.16,325.5,726.14,323.31,727.4Z"/><polygon class="cls-3" points="441.22 584.28 304.19 663.4 167.16 584.28 304.19 505.17 441.22 584.28"/><polygon class="cls-14" points="441.22 584.28 304.19 663.4 167.16 584.28 304.19 505.17 441.22 584.28"/><polygon class="cls-9" points="441.22 584.28 304.19 663.4 167.16 584.28 304.19 505.17 441.22 584.28"/><polygon class="cls-9" points="304.19 653.52 304.19 663.4 167.16 584.28 175.73 579.36 304.19 653.52"/><polygon class="cls-3" points="441.21 623.84 304.19 702.95 304.19 663.4 441.22 584.28 441.21 623.84"/><polygon class="cls-10" points="441.21 623.84 304.19 702.95 304.19 663.4 441.22 584.28 441.21 623.84"/><path class="cls-3" d="M428.08,601.77,360.14,641a10.11,10.11,0,0,0-4.57,7.91v9.23c0,2.91,2.05,4.09,4.57,2.64l67.95-39.23a10.1,10.1,0,0,0,4.56-7.91v-9.23C432.65,601.49,430.61,600.31,428.08,601.77Z"/><path class="cls-7" d="M427.83,609.59v4.48a2,2,0,0,1-.91,1.58l-1,.6c-.5.29-.91,0-.91-.53v-4.48a2,2,0,0,1,.91-1.58l1-.59C427.43,608.77,427.83,609,427.83,609.59Z"/><path class="cls-2" d="M423.22,612.25v4.48a2,2,0,0,1-.91,1.58l-1,.6c-.5.29-.91.05-.91-.53V613.9a2,2,0,0,1,.91-1.58l1-.59C422.81,611.43,423.22,611.67,423.22,612.25Z"/><path class="cls-7" d="M418.61,614.91v4.48a2,2,0,0,1-.92,1.58l-1,.6c-.51.29-.92,0-.92-.53v-4.48a2,2,0,0,1,.92-1.58l1-.59C418.2,614.09,418.61,614.33,418.61,614.91Z"/><path class="cls-7" d="M414,617.57v4.48a2,2,0,0,1-.91,1.58l-1,.6c-.5.29-.91,0-.91-.53v-4.48a2,2,0,0,1,.91-1.58l1-.6C413.58,616.75,414,617,414,617.57Z"/><path class="cls-7" d="M409.38,620.23v4.48a2,2,0,0,1-.91,1.58l-1,.6c-.51.29-.91.05-.91-.53v-4.48a2,2,0,0,1,.91-1.58l1-.6C409,619.41,409.38,619.65,409.38,620.23Z"/><path class="cls-2" d="M404.76,622.89v4.48a2,2,0,0,1-.91,1.58l-1,.6c-.5.29-.91.05-.91-.53v-4.48a2,2,0,0,1,.91-1.58l1-.6C404.36,622.07,404.76,622.31,404.76,622.89Z"/><path class="cls-2" d="M400.15,625.55V630a2,2,0,0,1-.91,1.58l-1,.6c-.5.29-.91,0-.91-.53V627.2a2,2,0,0,1,.91-1.58l1-.6C399.74,624.73,400.15,625,400.15,625.55Z"/><path class="cls-7" d="M395.54,628.21v4.48a2,2,0,0,1-.92,1.58l-1,.6c-.51.29-.92,0-.92-.53v-4.48a2,2,0,0,1,.92-1.58l1-.6C395.13,627.39,395.54,627.63,395.54,628.21Z"/><path class="cls-2" d="M390.92,630.87v4.48a2,2,0,0,1-.91,1.58l-1,.6c-.5.29-.91.05-.91-.53v-4.48a2,2,0,0,1,.91-1.58l1-.6C390.51,630.05,390.92,630.29,390.92,630.87Z"/><path class="cls-7" d="M386.31,633.53V638a2,2,0,0,1-.91,1.58l-1,.6c-.5.29-.91,0-.91-.53v-4.48a2,2,0,0,1,.91-1.58l1-.6C385.9,632.71,386.31,633,386.31,633.53Z"/><path class="cls-7" d="M381.7,636.19v4.48a2,2,0,0,1-.92,1.58l-1,.59c-.51.3-.92.06-.92-.52v-4.48a2,2,0,0,1,.92-1.58l1-.6C381.29,635.37,381.7,635.61,381.7,636.19Z"/><path class="cls-7" d="M377.08,638.85v4.48a2,2,0,0,1-.91,1.58l-1,.59c-.5.3-.91.06-.91-.52V640.5a2,2,0,0,1,.91-1.58l1-.6C376.67,638,377.08,638.27,377.08,638.85Z"/><path class="cls-2" d="M372.47,641.51V646a2,2,0,0,1-.91,1.58l-1,.59c-.51.3-.92.06-.92-.52v-4.48a2,2,0,0,1,.92-1.58l1-.6C372.06,640.69,372.47,640.93,372.47,641.51Z"/><path class="cls-7" d="M367.85,644.17v4.48a2,2,0,0,1-.91,1.58l-1,.59c-.5.3-.91.06-.91-.52v-4.48a2,2,0,0,1,.91-1.58l1-.6C367.45,643.35,367.85,643.59,367.85,644.17Z"/><path class="cls-7" d="M363.24,646.83v4.48a2,2,0,0,1-.91,1.58l-1,.59c-.5.29-.91.06-.91-.52v-4.48a2,2,0,0,1,.91-1.59l1-.59C362.83,646,363.24,646.25,363.24,646.83Z"/><polygon class="cls-3" points="304.19 702.95 167.16 623.84 167.16 584.28 304.19 663.4 304.19 702.95"/><polygon class="cls-11" points="304.19 702.95 167.16 623.84 167.16 584.28 304.19 663.4 304.19 702.95"/><g class="cls-8"><path class="cls-5" d="M188.84,606.76l33.69,19.46a10.08,10.08,0,0,1,4.57,7.9v9.24c0,2.91-2,4.09-4.57,2.63l-33.69-19.45a10.07,10.07,0,0,1-4.56-7.9V609.4C184.28,606.49,186.32,605.31,188.84,606.76Z"/></g><path class="cls-3" d="M193.18,617.18l2.09-1.21h0a2.81,2.81,0,0,1,2.79.29,8.76,8.76,0,0,1,4,6.87,2.82,2.82,0,0,1-1.16,2.57h0l-1.95,1.12-.35-.59a4.17,4.17,0,0,1-1.14-.44,8.8,8.8,0,0,1-4-6.88,4,4,0,0,1,.13-1Z"/><path class="cls-12" d="M193.18,617.18l2.09-1.21h0a2.81,2.81,0,0,1,2.79.29,8.76,8.76,0,0,1,4,6.87,2.82,2.82,0,0,1-1.16,2.57h0l-1.95,1.12-.35-.59a4.17,4.17,0,0,1-1.14-.44,8.8,8.8,0,0,1-4-6.88,4,4,0,0,1,.13-1Z"/><path class="cls-3" d="M196.07,617.41a8.76,8.76,0,0,1,4,6.87c0,2.53-1.78,3.55-4,2.29a8.78,8.78,0,0,1-4-6.87C192.1,617.17,193.88,616.14,196.07,617.41Z"/><path class="cls-3" d="M210.4,627.12l2.1-1.21h0a2.79,2.79,0,0,1,2.78.29,8.76,8.76,0,0,1,4,6.87,2.8,2.8,0,0,1-1.16,2.57h0l-2,1.11-.35-.58a4.29,4.29,0,0,1-1.14-.44,8.8,8.8,0,0,1-4-6.88,4.49,4.49,0,0,1,.13-1Z"/><path class="cls-12" d="M210.4,627.12l2.1-1.21h0a2.79,2.79,0,0,1,2.78.29,8.76,8.76,0,0,1,4,6.87,2.8,2.8,0,0,1-1.16,2.57h0l-2,1.11-.35-.58a4.29,4.29,0,0,1-1.14-.44,8.8,8.8,0,0,1-4-6.88,4.49,4.49,0,0,1,.13-1Z"/><path class="cls-3" d="M213.29,627.35a8.76,8.76,0,0,1,4,6.87c0,2.53-1.78,3.55-4,2.29a8.78,8.78,0,0,1-4-6.87C209.32,627.11,211.1,626.08,213.29,627.35Z"/><polygon class="cls-2" points="424.09 643.62 424.09 633.73 304.19 702.95 304.19 712.84 424.09 643.62"/><polygon class="cls-2" points="175.72 628.78 175.73 638.67 304.19 712.84 304.19 702.95 175.72 628.78"/><path class="cls-3" d="M343.42,657.9l-2.09-1.21h0a2.78,2.78,0,0,0-2.79.28,8.78,8.78,0,0,0-4,6.87,2.81,2.81,0,0,0,1.16,2.57h0l1.94,1.12.35-.59a3.87,3.87,0,0,0,1.14-.44,8.78,8.78,0,0,0,4-6.87,4.53,4.53,0,0,0-.12-1Z"/><path class="cls-13" d="M343.42,657.9l-2.09-1.21h0a2.78,2.78,0,0,0-2.79.28,8.78,8.78,0,0,0-4,6.87,2.81,2.81,0,0,0,1.16,2.57h0l1.94,1.12.35-.59a3.87,3.87,0,0,0,1.14-.44,8.78,8.78,0,0,0,4-6.87,4.53,4.53,0,0,0-.12-1Z"/><path class="cls-3" d="M340.53,658.13a8.75,8.75,0,0,0-4,6.87c0,2.53,1.77,3.56,4,2.29a8.76,8.76,0,0,0,4-6.87C344.5,657.89,342.72,656.86,340.53,658.13Z"/><path class="cls-12" d="M340.53,658.13a8.75,8.75,0,0,0-4,6.87c0,2.53,1.77,3.56,4,2.29a8.76,8.76,0,0,0,4-6.87C344.5,657.89,342.72,656.86,340.53,658.13Z"/><path class="cls-3" d="M326.2,667.84l-2.1-1.21h0a2.78,2.78,0,0,0-2.79.28,8.78,8.78,0,0,0-4,6.87,2.79,2.79,0,0,0,1.16,2.57h0l1.95,1.12.35-.59a4,4,0,0,0,1.14-.44,8.78,8.78,0,0,0,4-6.87,4,4,0,0,0-.13-1Z"/><path class="cls-13" d="M326.2,667.84l-2.1-1.21h0a2.78,2.78,0,0,0-2.79.28,8.78,8.78,0,0,0-4,6.87,2.79,2.79,0,0,0,1.16,2.57h0l1.95,1.12.35-.59a4,4,0,0,0,1.14-.44,8.78,8.78,0,0,0,4-6.87,4,4,0,0,0-.13-1Z"/><path class="cls-3" d="M323.31,668.07a8.76,8.76,0,0,0-4,6.87c0,2.53,1.78,3.56,4,2.29a8.76,8.76,0,0,0,4-6.87C327.28,667.83,325.5,666.8,323.31,668.07Z"/><path class="cls-12" d="M323.31,668.07a8.76,8.76,0,0,0-4,6.87c0,2.53,1.78,3.56,4,2.29a8.76,8.76,0,0,0,4-6.87C327.28,667.83,325.5,666.8,323.31,668.07Z"/><path class="cls-3" d="M172.63,521.8,298.79,449a12.14,12.14,0,0,1,10.95,0l126,72.79a12.17,12.17,0,0,1,5.48,9.49v33.23L304.11,643.64h0l-137-79.12V531.29A12.17,12.17,0,0,1,172.63,521.8Z"/><path class="cls-11" d="M172.63,521.8,298.79,449a12.14,12.14,0,0,1,10.95,0l126,72.79a12.17,12.17,0,0,1,5.48,9.49v33.23L304.11,643.64h0l-137-79.12V531.29A12.17,12.17,0,0,1,172.63,521.8Z"/><g class="cls-8"><path class="cls-5" d="M188.84,547.38l33.69,19.45a10.11,10.11,0,0,1,4.57,7.91V584c0,2.91-2,4.1-4.57,2.64l-33.69-19.45a10.1,10.1,0,0,1-4.56-7.91V550C184.28,547.1,186.32,545.92,188.84,547.38Z"/></g><path class="cls-3" d="M193.18,557.79l2.09-1.2h0a2.8,2.8,0,0,1,2.79.28,8.8,8.8,0,0,1,4,6.88,2.79,2.79,0,0,1-1.16,2.56h0l-1.95,1.12-.35-.59a3.87,3.87,0,0,1-1.14-.44,8.78,8.78,0,0,1-4-6.87,4,4,0,0,1,.13-1Z"/><path class="cls-12" d="M193.18,557.79l2.09-1.2h0a2.8,2.8,0,0,1,2.79.28,8.8,8.8,0,0,1,4,6.88,2.79,2.79,0,0,1-1.16,2.56h0l-1.95,1.12-.35-.59a3.87,3.87,0,0,1-1.14-.44,8.78,8.78,0,0,1-4-6.87,4,4,0,0,1,.13-1Z"/><path class="cls-3" d="M196.07,558a8.78,8.78,0,0,1,4,6.87c0,2.53-1.78,3.56-4,2.29a8.76,8.76,0,0,1-4-6.87C192.1,557.78,193.88,556.75,196.07,558Z"/><path class="cls-3" d="M210.4,567.73l2.1-1.2h0a2.78,2.78,0,0,1,2.78.28,8.8,8.8,0,0,1,4,6.88,2.77,2.77,0,0,1-1.16,2.56h0l-2,1.12-.35-.59a4,4,0,0,1-1.14-.44,8.78,8.78,0,0,1-4-6.87,4.51,4.51,0,0,1,.13-1Z"/><path class="cls-12" d="M210.4,567.73l2.1-1.2h0a2.78,2.78,0,0,1,2.78.28,8.8,8.8,0,0,1,4,6.88,2.77,2.77,0,0,1-1.16,2.56h0l-2,1.12-.35-.59a4,4,0,0,1-1.14-.44,8.78,8.78,0,0,1-4-6.87,4.51,4.51,0,0,1,.13-1Z"/><path class="cls-3" d="M213.29,568a8.78,8.78,0,0,1,4,6.87c0,2.53-1.78,3.56-4,2.29a8.76,8.76,0,0,1-4-6.87C209.32,567.72,211.1,566.69,213.29,568Z"/><path class="cls-3" d="M304.11,602.22v41.41l137.1-79.11V531.29a12.24,12.24,0,0,0-4.49-8.79c2,1.75,1.67,4.09-1,5.63L309.58,600.91A11.15,11.15,0,0,1,304.11,602.22Z"/><path class="cls-10" d="M304.11,602.22v41.41l137.1-79.11V531.29a12.24,12.24,0,0,0-4.49-8.79c2,1.75,1.67,4.09-1,5.63L309.58,600.91A11.15,11.15,0,0,1,304.11,602.22Z"/><path class="cls-3" d="M428.08,542.43l-67.94,39.23a10.11,10.11,0,0,0-4.57,7.91v9.23c0,2.92,2.05,4.1,4.57,2.64l67.95-39.23a10.1,10.1,0,0,0,4.56-7.91v-9.23C432.65,542.16,430.61,541,428.08,542.43Z"/><path class="cls-2" d="M427.83,550.25v4.48a2,2,0,0,1-.91,1.59l-1,.59c-.5.29-.91.05-.91-.53V551.9a2,2,0,0,1,.91-1.58l1-.59C427.43,549.44,427.83,549.67,427.83,550.25Z"/><path class="cls-7" d="M423.22,552.91v4.48a2,2,0,0,1-.91,1.59l-1,.59c-.5.29-.91,0-.91-.53v-4.48a2,2,0,0,1,.91-1.58l1-.59C422.81,552.1,423.22,552.33,423.22,552.91Z"/><path class="cls-2" d="M418.61,555.57v4.48a2,2,0,0,1-.92,1.58l-1,.6c-.51.29-.92,0-.92-.53v-4.48a2,2,0,0,1,.92-1.58l1-.59C418.2,554.75,418.61,555,418.61,555.57Z"/><path class="cls-2" d="M414,558.23v4.48a2,2,0,0,1-.91,1.58l-1,.6c-.5.29-.91.05-.91-.53v-4.48a2,2,0,0,1,.91-1.58l1-.59C413.58,557.41,414,557.65,414,558.23Z"/><path class="cls-2" d="M409.38,560.89v4.48a2,2,0,0,1-.91,1.58l-1,.6c-.51.29-.91.05-.91-.53v-4.48a2,2,0,0,1,.91-1.58l1-.59C409,560.07,409.38,560.31,409.38,560.89Z"/><path class="cls-7" d="M404.76,563.55V568a2,2,0,0,1-.91,1.58l-1,.6c-.5.29-.91,0-.91-.53V565.2a2,2,0,0,1,.91-1.58l1-.6C404.36,562.73,404.76,563,404.76,563.55Z"/><path class="cls-7" d="M400.15,566.21v4.48a2,2,0,0,1-.91,1.58l-1,.6c-.5.29-.91,0-.91-.53v-4.48a2,2,0,0,1,.91-1.58l1-.6C399.74,565.39,400.15,565.63,400.15,566.21Z"/><path class="cls-2" d="M395.54,568.87v4.48a2,2,0,0,1-.92,1.58l-1,.6c-.51.29-.92.05-.92-.53v-4.48a2,2,0,0,1,.92-1.58l1-.6C395.13,568.05,395.54,568.29,395.54,568.87Z"/><path class="cls-7" d="M390.92,571.53V576a2,2,0,0,1-.91,1.58l-1,.6c-.5.29-.91,0-.91-.53v-4.48a2,2,0,0,1,.91-1.58l1-.6C390.51,570.71,390.92,571,390.92,571.53Z"/><path class="cls-2" d="M386.31,574.19v4.48a2,2,0,0,1-.91,1.58l-1,.6c-.5.29-.91,0-.91-.53v-4.48a2,2,0,0,1,.91-1.58l1-.6C385.9,573.37,386.31,573.61,386.31,574.19Z"/><path class="cls-2" d="M381.7,576.85v4.48a2,2,0,0,1-.92,1.58l-1,.6c-.51.29-.92,0-.92-.53V578.5a2,2,0,0,1,.92-1.58l1-.6C381.29,576,381.7,576.27,381.7,576.85Z"/><path class="cls-2" d="M377.08,579.51V584a2,2,0,0,1-.91,1.58l-1,.6c-.5.29-.91.05-.91-.53v-4.48a2,2,0,0,1,.91-1.58l1-.6C376.67,578.69,377.08,578.93,377.08,579.51Z"/><path class="cls-7" d="M372.47,582.17v4.48a2,2,0,0,1-.91,1.58l-1,.6c-.51.29-.92,0-.92-.53v-4.48a2,2,0,0,1,.92-1.58l1-.6C372.06,581.35,372.47,581.59,372.47,582.17Z"/><path class="cls-2" d="M367.85,584.83v4.48a2,2,0,0,1-.91,1.58l-1,.59c-.5.3-.91.06-.91-.52v-4.48a2,2,0,0,1,.91-1.58l1-.6C367.45,584,367.85,584.25,367.85,584.83Z"/><path class="cls-2" d="M363.24,587.49V592a2,2,0,0,1-.91,1.58l-1,.59c-.5.3-.91.06-.91-.52v-4.48a2,2,0,0,1,.91-1.58l1-.6C362.83,586.67,363.24,586.91,363.24,587.49Z"/><path class="cls-3" d="M435.74,528.13,309.58,600.92a12.14,12.14,0,0,1-10.95,0l-126-72.79c-3-1.75-3-4.58,0-6.33L298.79,449a12.14,12.14,0,0,1,10.95,0l126,72.79C438.77,523.55,438.77,526.38,435.74,528.13Z"/><path class="cls-15" d="M435.74,528.13,309.58,600.92a12.14,12.14,0,0,1-10.95,0l-126-72.79c-3-1.75-3-4.58,0-6.33L298.79,449a12.14,12.14,0,0,1,10.95,0l126,72.79C438.77,523.55,438.77,526.38,435.74,528.13Z"/><polygon class="cls-2" points="424.09 584.3 424.09 574.41 304.19 643.63 304.19 653.52 424.09 584.3"/><polygon class="cls-2" points="175.72 569.47 175.73 579.36 304.19 653.52 304.19 643.63 175.72 569.47"/><path class="cls-3" d="M343.42,598.58l-2.09-1.2h0a2.83,2.83,0,0,0-2.79.28,8.8,8.8,0,0,0-4,6.88,2.79,2.79,0,0,0,1.16,2.56h0l1.94,1.12.35-.59a3.87,3.87,0,0,0,1.14-.44,8.76,8.76,0,0,0,4-6.87,4.53,4.53,0,0,0-.12-1Z"/><path class="cls-13" d="M343.42,598.58l-2.09-1.2h0a2.83,2.83,0,0,0-2.79.28,8.8,8.8,0,0,0-4,6.88,2.79,2.79,0,0,0,1.16,2.56h0l1.94,1.12.35-.59a3.87,3.87,0,0,0,1.14-.44,8.76,8.76,0,0,0,4-6.87,4.53,4.53,0,0,0-.12-1Z"/><path class="cls-3" d="M340.53,598.81a8.77,8.77,0,0,0-4,6.87c0,2.53,1.77,3.56,4,2.29a8.76,8.76,0,0,0,4-6.87C344.5,598.57,342.72,597.55,340.53,598.81Z"/><path class="cls-12" d="M340.53,598.81a8.77,8.77,0,0,0-4,6.87c0,2.53,1.77,3.56,4,2.29a8.76,8.76,0,0,0,4-6.87C344.5,598.57,342.72,597.55,340.53,598.81Z"/><path class="cls-3" d="M326.2,608.52l-2.1-1.2h0a2.8,2.8,0,0,0-2.79.28,8.8,8.8,0,0,0-4,6.88,2.77,2.77,0,0,0,1.16,2.56h0l1.95,1.12.35-.59a4,4,0,0,0,1.14-.44,8.76,8.76,0,0,0,4-6.87,4,4,0,0,0-.13-1Z"/><path class="cls-13" d="M326.2,608.52l-2.1-1.2h0a2.8,2.8,0,0,0-2.79.28,8.8,8.8,0,0,0-4,6.88,2.77,2.77,0,0,0,1.16,2.56h0l1.95,1.12.35-.59a4,4,0,0,0,1.14-.44,8.76,8.76,0,0,0,4-6.87,4,4,0,0,0-.13-1Z"/><path class="cls-3" d="M323.31,608.75a8.78,8.78,0,0,0-4,6.87c0,2.53,1.78,3.56,4,2.29a8.76,8.76,0,0,0,4-6.87C327.28,608.51,325.5,607.49,323.31,608.75Z"/><path class="cls-12" d="M323.31,608.75a8.78,8.78,0,0,0-4,6.87c0,2.53,1.78,3.56,4,2.29a8.76,8.76,0,0,0,4-6.87C327.28,608.51,325.5,607.49,323.31,608.75Z"/></g><path class="cls-3" d="M673,336l-9.78-18.39,7.87-22.71V281L647,294.89v13.9l10.35,17.93a1.59,1.59,0,0,0,.71.63h0Z"/><path class="cls-12" d="M673,336l-9.78-18.39,7.87-22.71V281L647,294.89v13.9l10.35,17.93a1.59,1.59,0,0,0,.71.63h0Z"/><path class="cls-3" d="M730.47,170.47A16,16,0,0,0,723.25,158l-5.87-3.39a16,16,0,0,0-14.44,0l-90.15,52.14a16,16,0,0,0-7.22,12.5V318.4a16,16,0,0,0,7.22,12.5l5.88,3.4a16,16,0,0,0,14.44,0l29-16.75,10.33,17.89a1.54,1.54,0,0,0,2.79-.26l10.92-31.52,37.12-21.5a16,16,0,0,0,7.21-12.51Z"/><path class="cls-12" d="M605.57,318.4a16,16,0,0,0,7.22,12.5l5.88,3.4c3.6,2.08,9.21,2.26,13.2.58-3.39,1.28-6-.63-6-4.75V230.94a14.8,14.8,0,0,1,2.11-7.11L607.69,212.1a14.71,14.71,0,0,0-2.12,7.11Z"/><path class="cls-11" d="M730.24,168.42c-.84-3.07-3.64-4-7-2.12L633.1,218.45a14.24,14.24,0,0,0-5.08,5.39l-20.31-11.73a14.46,14.46,0,0,1,5.09-5.38l90.12-52.16a16.06,16.06,0,0,1,14.45,0l5.9,3.41A15.92,15.92,0,0,1,730.24,168.42Z"/><polygon class="cls-5" points="709.9 236.47 678.28 209.08 646.67 272.98 663.03 263.54 663.03 296.93 693.53 279.31 693.53 245.92 709.9 236.47"/><path class="cls-3" d="M305.37,379.91a.59.59,0,0,0-.35-.48,1.82,1.82,0,0,0-1.67,0,.58.58,0,0,0-.34.48h0v14.15h0a.57.57,0,0,0,.34.48,1.82,1.82,0,0,0,1.67,0,.58.58,0,0,0,.35-.48h0V379.91Z"/><path class="cls-3" d="M305.37,398.5A.61.61,0,0,0,305,398a1.89,1.89,0,0,0-1.67,0,.59.59,0,0,0-.34.49h0v6.73h0a.57.57,0,0,0,.34.48,1.82,1.82,0,0,0,1.67,0,.58.58,0,0,0,.35-.48h0V398.5Z"/><path class="cls-3" d="M305.37,409.67a.61.61,0,0,0-.35-.49,1.89,1.89,0,0,0-1.67,0,.59.59,0,0,0-.34.49h0v6.73h0a.57.57,0,0,0,.34.48,1.82,1.82,0,0,0,1.67,0,.58.58,0,0,0,.35-.48h0v-6.73Z"/><path class="cls-3" d="M305.37,420.83a.61.61,0,0,0-.35-.48,1.89,1.89,0,0,0-1.67,0,.59.59,0,0,0-.34.48h0v6.74h0a.58.58,0,0,0,.34.48,1.82,1.82,0,0,0,1.67,0,.59.59,0,0,0,.35-.48h0v-6.74Z"/><path class="cls-3" d="M305.37,432a.59.59,0,0,0-.35-.48,1.89,1.89,0,0,0-1.67,0,.58.58,0,0,0-.34.48h0v6.74h0a.58.58,0,0,0,.34.48,1.82,1.82,0,0,0,1.67,0,.59.59,0,0,0,.35-.48h0V432Z"/><path class="cls-3" d="M305.37,443.17a.59.59,0,0,0-.35-.48,1.82,1.82,0,0,0-1.67,0,.58.58,0,0,0-.34.48h0v6.74h0a.58.58,0,0,0,.34.48,1.82,1.82,0,0,0,1.67,0,.59.59,0,0,0,.35-.48h0v-6.74Z"/><path class="cls-3" d="M305.37,454.34a.59.59,0,0,0-.35-.48,1.82,1.82,0,0,0-1.67,0,.58.58,0,0,0-.34.48h0v6.74h0a.58.58,0,0,0,.34.48,1.89,1.89,0,0,0,1.67,0,.59.59,0,0,0,.35-.48h0v-6.74Z"/><path class="cls-3" d="M305.37,465.51A.59.59,0,0,0,305,465a1.82,1.82,0,0,0-1.67,0,.58.58,0,0,0-.34.48h0v6.74h0a.59.59,0,0,0,.34.48,1.89,1.89,0,0,0,1.67,0,.61.61,0,0,0,.35-.48h0v-6.74Z"/><path class="cls-3" d="M305.37,476.68a.58.58,0,0,0-.35-.48,1.82,1.82,0,0,0-1.67,0,.57.57,0,0,0-.34.48h0v6.73h0a.59.59,0,0,0,.34.49,1.89,1.89,0,0,0,1.67,0,.61.61,0,0,0,.35-.49h0v-6.73Z"/><path class="cls-3" d="M305.37,487.85a.58.58,0,0,0-.35-.48,1.82,1.82,0,0,0-1.67,0,.57.57,0,0,0-.34.48h0v6.73h0a.59.59,0,0,0,.34.49,1.89,1.89,0,0,0,1.67,0,.61.61,0,0,0,.35-.49h0v-6.73Z"/><path class="cls-3" d="M305.37,499a.61.61,0,0,0-.35-.49,1.89,1.89,0,0,0-1.67,0,.59.59,0,0,0-.34.49h0v6.73h0a.57.57,0,0,0,.34.48,1.82,1.82,0,0,0,1.67,0,.58.58,0,0,0,.35-.48h0V499Z"/><path class="cls-3" d="M305.37,510.19a.61.61,0,0,0-.35-.49,1.89,1.89,0,0,0-1.67,0,.59.59,0,0,0-.34.49h0v6.73h0a.57.57,0,0,0,.34.48,1.82,1.82,0,0,0,1.67,0,.58.58,0,0,0,.35-.48h0v-6.73Z"/><path class="cls-3" d="M305.37,521.35a.61.61,0,0,0-.35-.48,1.89,1.89,0,0,0-1.67,0,.59.59,0,0,0-.34.48h0v6.74h0a.58.58,0,0,0,.34.48,1.82,1.82,0,0,0,1.67,0,.59.59,0,0,0,.35-.48h0v-6.74Z"/><path class="cls-2" d="M311.7,364.74a3.72,3.72,0,0,0-2.2-3.07,11.72,11.72,0,0,0-10.63,0,3.72,3.72,0,0,0-2.2,3.07h0v19.77h0a3.72,3.72,0,0,0,2.2,3.07,11.72,11.72,0,0,0,10.63,0,3.72,3.72,0,0,0,2.2-3.07h0V364.74Z"/><path class="cls-2" d="M316.3,345c0-1.79-1.18-3.58-3.55-4.95-4.73-2.73-12.4-2.73-17.13,0-2.36,1.37-3.55,3.16-3.55,4.95h0V364.4h.06c-.16,1.9,1,3.83,3.49,5.28,4.73,2.73,12.4,2.73,17.13,0,2.52-1.45,3.65-3.38,3.49-5.28h.06V345Z"/><path class="cls-3" d="M348.18,355a.61.61,0,0,0-.35-.49,1.89,1.89,0,0,0-1.67,0,.61.61,0,0,0-.35.49h0v14.15h0a.59.59,0,0,0,.35.48,1.82,1.82,0,0,0,1.67,0,.59.59,0,0,0,.35-.48h0V355Z"/><path class="cls-3" d="M348.18,373.6a.59.59,0,0,0-.35-.48,1.82,1.82,0,0,0-1.67,0,.59.59,0,0,0-.35.48h0v6.74h0a.59.59,0,0,0,.35.48,1.89,1.89,0,0,0,1.67,0,.59.59,0,0,0,.35-.48h0V373.6Z"/><path class="cls-3" d="M348.18,384.77a.59.59,0,0,0-.35-.48,1.82,1.82,0,0,0-1.67,0,.59.59,0,0,0-.35.48h0v6.74h0a.61.61,0,0,0,.35.48,1.89,1.89,0,0,0,1.67,0,.61.61,0,0,0,.35-.48h0v-6.74Z"/><path class="cls-3" d="M348.18,395.94a.58.58,0,0,0-.35-.48,1.82,1.82,0,0,0-1.67,0,.58.58,0,0,0-.35.48h0v6.73h0a.61.61,0,0,0,.35.49,1.89,1.89,0,0,0,1.67,0,.61.61,0,0,0,.35-.49h0v-6.73Z"/><path class="cls-3" d="M348.18,407.11a.58.58,0,0,0-.35-.48,1.82,1.82,0,0,0-1.67,0,.58.58,0,0,0-.35.48h0v6.73h0a.61.61,0,0,0,.35.49,1.89,1.89,0,0,0,1.67,0,.61.61,0,0,0,.35-.49h0v-6.73Z"/><path class="cls-3" d="M348.18,418.28a.61.61,0,0,0-.35-.49,1.89,1.89,0,0,0-1.67,0,.61.61,0,0,0-.35.49h0V425h0a.58.58,0,0,0,.35.48,1.82,1.82,0,0,0,1.67,0,.58.58,0,0,0,.35-.48h0v-6.73Z"/><path class="cls-3" d="M348.18,429.45a.61.61,0,0,0-.35-.49,1.89,1.89,0,0,0-1.67,0,.61.61,0,0,0-.35.49h0v6.73h0a.58.58,0,0,0,.35.48,1.82,1.82,0,0,0,1.67,0,.58.58,0,0,0,.35-.48h0v-6.73Z"/><path class="cls-3" d="M348.18,440.61a.61.61,0,0,0-.35-.48,1.89,1.89,0,0,0-1.67,0,.61.61,0,0,0-.35.48h0v6.74h0a.59.59,0,0,0,.35.48,1.82,1.82,0,0,0,1.67,0,.59.59,0,0,0,.35-.48h0v-6.74Z"/><path class="cls-3" d="M348.18,451.78a.59.59,0,0,0-.35-.48,1.89,1.89,0,0,0-1.67,0,.59.59,0,0,0-.35.48h0v6.74h0a.59.59,0,0,0,.35.48,1.82,1.82,0,0,0,1.67,0,.59.59,0,0,0,.35-.48h0v-6.74Z"/><path class="cls-3" d="M348.18,463a.59.59,0,0,0-.35-.48,1.82,1.82,0,0,0-1.67,0,.59.59,0,0,0-.35.48h0v6.74h0a.59.59,0,0,0,.35.48,1.82,1.82,0,0,0,1.67,0,.59.59,0,0,0,.35-.48h0V463Z"/><path class="cls-3" d="M348.18,474.12a.59.59,0,0,0-.35-.48,1.82,1.82,0,0,0-1.67,0,.59.59,0,0,0-.35.48h0v6.74h0a.59.59,0,0,0,.35.48,1.89,1.89,0,0,0,1.67,0,.59.59,0,0,0,.35-.48h0v-6.74Z"/><path class="cls-3" d="M348.18,485.29a.59.59,0,0,0-.35-.48,1.82,1.82,0,0,0-1.67,0,.59.59,0,0,0-.35.48h0V492h0a.61.61,0,0,0,.35.48,1.89,1.89,0,0,0,1.67,0,.61.61,0,0,0,.35-.48h0v-6.74Z"/><path class="cls-3" d="M348.18,496.46a.58.58,0,0,0-.35-.48,1.82,1.82,0,0,0-1.67,0,.58.58,0,0,0-.35.48h0v6.73h0a.61.61,0,0,0,.35.49,1.89,1.89,0,0,0,1.67,0,.61.61,0,0,0,.35-.49h0v-6.73Z"/><path class="cls-2" d="M354.51,339.84a3.73,3.73,0,0,0-2.2-3.07,11.78,11.78,0,0,0-10.63,0,3.73,3.73,0,0,0-2.2,3.07h0v19.78h0a3.73,3.73,0,0,0,2.2,3.07,11.78,11.78,0,0,0,10.63,0,3.73,3.73,0,0,0,2.2-3.07h0V339.84Z"/><path class="cls-2" d="M359.11,320.06c0-1.79-1.19-3.58-3.55-4.94-4.73-2.73-12.4-2.73-17.13,0-2.36,1.36-3.55,3.15-3.55,4.94h0V339.5h.06c-.16,1.9,1,3.83,3.49,5.29,4.73,2.73,12.4,2.73,17.13,0,2.51-1.46,3.65-3.39,3.49-5.29h.06V320.06Z"/><path class="cls-3" d="M262.53,404.25a.58.58,0,0,0-.34-.48,1.82,1.82,0,0,0-1.67,0,.59.59,0,0,0-.35.48h0V418.4h0a.61.61,0,0,0,.35.49,1.89,1.89,0,0,0,1.67,0,.59.59,0,0,0,.34-.49h0V404.25Z"/><path class="cls-3" d="M260.17,429.57h0a.58.58,0,0,0,.35.48,1.82,1.82,0,0,0,1.67,0,.57.57,0,0,0,.34-.48h0v-6.73h0a.59.59,0,0,0-.34-.49,1.89,1.89,0,0,0-1.67,0,.61.61,0,0,0-.35.49h0"/><path class="cls-3" d="M262.53,434a.59.59,0,0,0-.34-.49,1.89,1.89,0,0,0-1.67,0,.61.61,0,0,0-.35.49h0v6.73h0a.58.58,0,0,0,.35.48,1.82,1.82,0,0,0,1.67,0,.57.57,0,0,0,.34-.48h0V434Z"/><path class="cls-3" d="M262.53,445.17h0a.59.59,0,0,0-.34-.48,1.89,1.89,0,0,0-1.67,0,.61.61,0,0,0-.35.48h0v6.74h0a.59.59,0,0,0,.35.48,1.82,1.82,0,0,0,1.67,0,.58.58,0,0,0,.34-.48h0"/><path class="cls-3" d="M262.53,456.34a.58.58,0,0,0-.34-.48,1.89,1.89,0,0,0-1.67,0,.59.59,0,0,0-.35.48h0v6.74h0a.59.59,0,0,0,.35.48,1.82,1.82,0,0,0,1.67,0,.58.58,0,0,0,.34-.48h0v-6.74Z"/><path class="cls-3" d="M262.53,467.51h0a.58.58,0,0,0-.34-.48,1.82,1.82,0,0,0-1.67,0,.59.59,0,0,0-.35.48h0v6.74h0a.59.59,0,0,0,.35.48,1.82,1.82,0,0,0,1.67,0,.58.58,0,0,0,.34-.48h0"/><path class="cls-3" d="M262.53,478.68a.58.58,0,0,0-.34-.48,1.82,1.82,0,0,0-1.67,0,.59.59,0,0,0-.35.48h0v6.74h0a.59.59,0,0,0,.35.48,1.82,1.82,0,0,0,1.67,0,.58.58,0,0,0,.34-.48h0v-6.74Z"/><path class="cls-3" d="M262.53,489.85h0a.58.58,0,0,0-.34-.48,1.82,1.82,0,0,0-1.67,0,.59.59,0,0,0-.35.48h0v6.74h0a.61.61,0,0,0,.35.48,1.89,1.89,0,0,0,1.67,0,.59.59,0,0,0,.34-.48h0"/><path class="cls-3" d="M262.53,501a.57.57,0,0,0-.34-.48,1.82,1.82,0,0,0-1.67,0,.58.58,0,0,0-.35.48h0v6.73h0a.61.61,0,0,0,.35.49,1.89,1.89,0,0,0,1.67,0,.59.59,0,0,0,.34-.49h0V501Z"/><path class="cls-3" d="M262.53,512.19h0a.57.57,0,0,0-.34-.48,1.82,1.82,0,0,0-1.67,0,.58.58,0,0,0-.35.48h0v6.73h0a.61.61,0,0,0,.35.49,1.89,1.89,0,0,0,1.67,0,.59.59,0,0,0,.34-.49h0"/><path class="cls-3" d="M262.53,523.36a.57.57,0,0,0-.34-.48,1.82,1.82,0,0,0-1.67,0,.58.58,0,0,0-.35.48h0v6.73h0a.58.58,0,0,0,.35.48,1.82,1.82,0,0,0,1.67,0,.57.57,0,0,0,.34-.48h0v-6.73Z"/><path class="cls-3" d="M262.53,534.53h0a.59.59,0,0,0-.34-.49,1.89,1.89,0,0,0-1.67,0,.61.61,0,0,0-.35.49h0v6.73h0a.58.58,0,0,0,.35.48,1.82,1.82,0,0,0,1.67,0,.57.57,0,0,0,.34-.48h0"/><path class="cls-3" d="M262.53,545.7a.59.59,0,0,0-.34-.49,1.89,1.89,0,0,0-1.67,0,.61.61,0,0,0-.35.49h0v6.73h0a.59.59,0,0,0,.35.48,1.82,1.82,0,0,0,1.67,0,.58.58,0,0,0,.34-.48h0V545.7Z"/><path class="cls-2" d="M268.87,389.08a3.73,3.73,0,0,0-2.2-3.07A11.72,11.72,0,0,0,256,386a3.73,3.73,0,0,0-2.2,3.07h0v19.77h0a3.71,3.71,0,0,0,2.2,3.07,11.72,11.72,0,0,0,10.63,0,3.71,3.71,0,0,0,2.2-3.07h0V389.08Z"/><path class="cls-2" d="M273.47,369.3c0-1.79-1.19-3.58-3.55-4.95-4.73-2.73-12.4-2.73-17.13,0-2.37,1.37-3.55,3.16-3.55,4.95h0v19.44h.06c-.16,1.9,1,3.83,3.49,5.28,4.73,2.73,12.4,2.73,17.13,0,2.51-1.45,3.65-3.38,3.49-5.28h.06V369.3Z"/><g id="Cloud"><path class="cls-16" d="M469.26,185.29l0,0-1-.56c-.2-.11-.39-.23-.59-.33L446.51,172.1c0-.5,0-1,0-1.49,0-26.07-8.78-44.33-22.6-52h0L383.16,95l0,0C372,88.6,357.34,89.2,341.34,98.43a95.69,95.69,0,0,0-20.19,16,42.9,42.9,0,0,0-8.82-7h0l-39.46-22.7v0c-14.43-9.57-33.76-9.37-55,2.91-44.67,25.79-80.89,95-80.89,154.53A127,127,0,0,0,138.46,262l-5.57,3.21c-28.42,16.41-51.46,60.43-51.46,98.32h0c0,20.92,7,35.84,18.11,42.25h0l41.3,23.85h0c9,5.14,20.57,4.73,33.25-2.59l74.84-43.21L448.25,268.69c17.05-9.85,30.87-36.26,30.87-59h0C479.12,197.8,475.31,189.31,469.26,185.29Z"/><path class="cls-17" d="M469.26,185.29l0,0-1-.56c-.2-.11-.39-.23-.59-.33L446.51,172.1c0-.5,0-1,0-1.49,0-26.07-8.78-44.33-22.6-52h0L383.16,95l0,0C372,88.6,357.34,89.2,341.34,98.43a95.69,95.69,0,0,0-20.19,16,42.9,42.9,0,0,0-8.82-7h0l-39.46-22.7v0c-14.43-9.57-33.76-9.37-55,2.91-44.67,25.79-80.89,95-80.89,154.53A127,127,0,0,0,138.46,262l-5.57,3.21c-28.42,16.41-51.46,60.43-51.46,98.32h0c0,20.92,7,35.84,18.11,42.25h0l41.3,23.85h0c9,5.14,20.57,4.73,33.25-2.59l74.84-43.21L448.25,268.69c17.05-9.85,30.87-36.26,30.87-59h0C479.12,197.8,475.31,189.31,469.26,185.29Z"/><path class="cls-18" d="M424,118.59h0c-11.16-6.22-25.64-5.51-41.43,3.62a97.11,97.11,0,0,0-21.17,17l-37.42-21.74-3.67-2.13c.29-.32.61-.63.91-.93a96.44,96.44,0,0,1,20.17-16c16-9.23,30.64-9.82,41.85-3.37l0,0Z"/><path class="cls-19" d="M321.16,114.43c1,1,1.87,2,2.76,3.06l-3.67-2.13C320.54,115,320.86,114.73,321.16,114.43Z"/><path class="cls-18" d="M311.33,106.86l0,0C297.23,99,279,100,259,111.46c-20.26,11.7-38.79,32.34-53,57l-41.16-23.76c14.19-24.63,32.71-45.27,53-57,21.27-12.27,40.6-12.46,55-2.89l0,0Z"/><path class="cls-18" d="M179.64,285.74l-5.58,3.2c-19.25,11.11-36.06,34.94-44.85,60.93L88,326.09c7-20.72,19.12-40,33.5-52.67L138.47,262Z"/><path class="cls-3" d="M448.25,186.36l-2.95,1.7a129.67,129.67,0,0,0,1.23-17.45c0-47.14-28.66-68.81-64-48.4-16.4,9.47-31.36,26.34-42.68,46.4-1.6-56.76-37.16-82.35-80.81-57.14-44.67,25.79-80.88,95-80.88,154.53a125.78,125.78,0,0,0,1.49,19.73l-5.57,3.21c-28.42,16.41-51.46,60.43-51.46,98.32h0c0,37.89,23,56.14,51.46,39.73l74.84-43.21h0L448.25,268.69c17.05-9.85,30.87-36.26,30.87-59h0C479.12,187,465.3,176.51,448.25,186.36Z"/><path class="cls-20" d="M448.25,186.36l-2.95,1.7a129.67,129.67,0,0,0,1.23-17.45c0-47.14-28.66-68.81-64-48.4-16.4,9.47-31.36,26.34-42.68,46.4-1.6-56.76-37.16-82.35-80.81-57.14-44.67,25.79-80.88,95-80.88,154.53a125.78,125.78,0,0,0,1.49,19.73l-5.57,3.21c-28.42,16.41-51.46,60.43-51.46,98.32h0c0,37.89,23,56.14,51.46,39.73l74.84-43.21h0L448.25,268.69c17.05-9.85,30.87-36.26,30.87-59h0C479.12,187,465.3,176.51,448.25,186.36Z"/><path class="cls-20" d="M154,422.49c-12.67,0-20.86-13.83-20.86-35.23,0-33.89,21.15-74.73,46.19-89.19l5.57-3.22a10.52,10.52,0,0,0,5.14-10.77h0A116.16,116.16,0,0,1,188.69,266c0-56.11,33.92-121.34,75.61-145.42,9.53-5.5,18.56-8.28,26.83-8.28,22.56,0,37.19,21.68,38.17,56.6h0c.3,10.68,14.46,14.19,19.71,4.88h0c10.85-19.19,24.62-34.27,38.78-42.45,7.2-4.16,14-6.27,20.14-6.27C425,125.07,436,143,436,170.61a117.8,117.8,0,0,1-1.14,16h0a10.54,10.54,0,0,0,15.72,10.56l2.95-1.7a14.7,14.7,0,0,1,7-2.29c5.57,0,8.07,8.28,8.07,16.5,0,19-11.72,41.85-25.6,49.86L168.8,417.86c-5.33,3.07-10.3,4.63-14.78,4.63Z"/></g></svg>