<svg xmlns="http://www.w3.org/2000/svg" xmlns:xlink="http://www.w3.org/1999/xlink" width="25" height="24" viewBox="0 0 25 24"><defs><style>.a,.c{fill:#fff;}.a{stroke:#707070;}.b{clip-path:url(#a);}</style><clipPath id="a"><rect class="a" width="25" height="24" transform="translate(-0.763)"/></clipPath></defs><g class="b" transform="translate(0.763)"><path class="c" d="M12.738,19.41a.2.2,0,0,1-.338-.144V12.8a.4.4,0,0,1,.4-.4h2.711a.4.4,0,0,1,.4.433A10.231,10.231,0,0,1,12.738,19.41ZM11.2,12.4H8.506a.4.4,0,0,0-.4.443,11.7,11.7,0,0,0,3.145,6.4A.2.2,0,0,0,11.6,19.1V12.8a.4.4,0,0,0-.4-.4Zm-2.713-.8H11.2a.4.4,0,0,0,.4-.4V4.763a.2.2,0,0,0-.339-.144,10.219,10.219,0,0,0-3.172,6.549.4.4,0,0,0,.4.432ZM22.052,0a1.927,1.927,0,0,0-1.61,2.942l-3,3a8.131,8.131,0,0,0-3.577-1.874.2.2,0,0,0-.193.331,11.028,11.028,0,0,1,3.042,6.833.4.4,0,0,0,.4.37h2.594a.4.4,0,0,0,.4-.439A8.122,8.122,0,0,0,18.012,6.5L21,3.519A1.925,1.925,0,1,0,22.052,0ZM12.4,4.733V11.2a.4.4,0,0,0,.4.4h2.711a.4.4,0,0,0,.4-.433,10.231,10.231,0,0,0-3.17-6.578.2.2,0,0,0-.339.143ZM21,20.481,18.011,17.5a8.119,8.119,0,0,0,2.1-4.657.4.4,0,0,0-.4-.439H17.115a.4.4,0,0,0-.4.37A11.027,11.027,0,0,1,13.671,19.6a.2.2,0,0,0,.193.331,8.136,8.136,0,0,0,3.579-1.875l3,3A1.925,1.925,0,1,0,21,20.481ZM10.172,4.057A8.129,8.129,0,0,0,6.5,5.988L3.519,3a1.925,1.925,0,1,0-.576.555l3,3a8.116,8.116,0,0,0-2.047,4.6.4.4,0,0,0,.4.439H6.883a.4.4,0,0,0,.4-.371,10.939,10.939,0,0,1,3.082-6.84.2.2,0,0,0-.191-.331Zm.38,15.6A12.337,12.337,0,0,1,7.3,12.761a.4.4,0,0,0-.4-.361H4.292a.4.4,0,0,0-.4.439,8.116,8.116,0,0,0,2.1,4.657L3,20.481a1.925,1.925,0,1,0,.555.576l3-3a8.125,8.125,0,0,0,3.806,1.925.2.2,0,0,0,.189-.329Z" transform="translate(-0.32 0)"/></g></svg>