<svg xmlns="http://www.w3.org/2000/svg" xmlns:xlink="http://www.w3.org/1999/xlink" width="48" height="48" viewBox="0 0 48 48"><defs><style>.a{fill:#fff;stroke:#707070;}.b{clip-path:url(#a);}.c{fill:#ffd200;}</style><clipPath id="a"><rect class="a" width="48" height="48" transform="translate(352 2251)"/></clipPath></defs><g class="b" transform="translate(-352 -2251)"><g transform="translate(348 2251)"><path class="c" d="M55.684,12H19.369A5.374,5.374,0,0,0,14,17.369V53.494a5.374,5.374,0,0,0,5.369,5.369H55.684a5.374,5.374,0,0,0,5.369-5.369V17.369A5.372,5.372,0,0,0,55.684,12ZM34.28,28.63V19.014a9.741,9.741,0,1,1-7.232,17.452l6.8-6.8a1.464,1.464,0,0,0,.431-1.034Zm-2.929-9.616v9.01L24.977,34.4a9.685,9.685,0,0,1,6.374-15.384ZM50.733,51.5H26.325a1.465,1.465,0,0,1,0-2.929H50.733a1.465,1.465,0,0,1,0,2.929Zm0-6.347H26.325a1.465,1.465,0,0,1,0-2.929H50.733a1.465,1.465,0,1,1,0,2.929Zm0-8.567H47.8a1.465,1.465,0,0,1,0-2.929h2.929a1.465,1.465,0,1,1,0,2.929Zm0-5.858H47.8a1.465,1.465,0,0,1,0-2.929h2.929a1.465,1.465,0,1,1,0,2.929Zm0-5.372H47.8a1.465,1.465,0,0,1,0-2.929h2.929a1.465,1.465,0,1,1,0,2.929Z" transform="translate(-9.527 -11.432)"/></g></g></svg>