<svg height="512" viewBox="0 0 64 64" width="512" xmlns="http://www.w3.org/2000/svg"><path d="m3 13h58a0 0 0 0 1 0 0v44a4 4 0 0 1 -4 4h-50a4 4 0 0 1 -4-4v-44a0 0 0 0 1 0 0z" fill="#ffeb99"/><path d="m61 7v6h-58v-6a4 4 0 0 1 4-4h50a4 4 0 0 1 4 4z" fill="#006df0"/><path d="m59.2 35.15-2.54 2.53a14.459 14.459 0 0 0 -2.66-1.1v-3.58a2.006 2.006 0 0 0 -2-2h-4a2.006 2.006 0 0 0 -2 2v3.58a13.83 13.83 0 0 0 -2.66 1.11l-2.54-2.54a1.992 1.992 0 0 0 -2.82 0l-2.83 2.83a1.992 1.992 0 0 0 0 2.82l2.54 2.54a13.83 13.83 0 0 0 -1.11 2.66h-3.58a2.006 2.006 0 0 0 -2 2v4a2.006 2.006 0 0 0 2 2h3.58a13.83 13.83 0 0 0 1.11 2.66l-2.54 2.54a2.008 2.008 0 0 0 -.55 1.8h22.4a4 4 0 0 0 4-4v-22.4a2.008 2.008 0 0 0 -1.8.55zm-9.2 21.85a7 7 0 1 1 7-7 7 7 0 0 1 -7 7z" fill="#ffcd00"/><circle cx="9" cy="8" fill="#5eac24" r="2"/><circle cx="16" cy="8" fill="#ffcd00" r="2"/><circle cx="23" cy="8" fill="#d80027" r="2"/><circle cx="50" cy="50" fill="#ffeb99" r="7"/><path d="m3 30v27a4 4 0 0 0 4 4h30c-18.793 0-34-13.865-34-31z" fill="#ffde55"/><g fill="#ff5023"><path d="m9 32a1 1 0 0 0 1-1v-5h4v5a1 1 0 0 0 2 0v-9a4 4 0 0 0 -8 0v9a1 1 0 0 0 1 1zm3-12a2 2 0 0 1 2 2v2h-4v-2a2 2 0 0 1 2-2z"/><path d="m19 32a1 1 0 0 0 1-1v-5h3a3 3 0 0 0 3-3v-2a3 3 0 0 0 -3-3h-4a1 1 0 0 0 -1 1v12a1 1 0 0 0 1 1zm1-12h3a1 1 0 0 1 1 1v2a1 1 0 0 1 -1 1h-3z"/><path d="m29 32a1 1 0 0 0 1-1v-12a1 1 0 0 0 -2 0v12a1 1 0 0 0 1 1z"/></g><path d="m9 38h20a1 1 0 0 0 0-2h-20a1 1 0 0 0 0 2z" fill="#57a4ff"/><path d="m29 42h-20a1 1 0 0 0 0 2h20a1 1 0 0 0 0-2z" fill="#57a4ff"/><path d="m26 48h-17a1 1 0 0 0 0 2h17a1 1 0 0 0 0-2z" fill="#57a4ff"/></svg>