<svg id="Capa_1" enable-background="new 0 0 512 512" height="512" viewBox="0 0 512 512" width="512" xmlns="http://www.w3.org/2000/svg"><g><g><g><path d="m226.484 31.024h-194.09c-17.891 0-32.394 14.504-32.394 32.394v161.081c0 17.75 14.278 32.158 31.974 32.383v.01l9.026 5.108h51.5l12.083-5.107h121.898c17.891 0 32.394-14.503 32.394-32.394v-161.081c0-17.889-14.502-32.392-32.391-32.394z" fill="#6b61b1"/><g fill="#5e54ac"><path d="m288.561 31.024h-64.955c17.891 0 32.394 14.503 32.394 32.394v161.081c0 17.891-14.503 32.394-32.394 32.394h64.955c17.891 0 32.394-14.503 32.394-32.394v-161.081c0-17.89-14.503-32.394-32.394-32.394z"/><path d="m31.974 332.142c0 4.72 5.957 6.789 8.883 3.085l57.983-73.406c2.458-3.112 6.206-4.928 10.172-4.928h-77.038z"/></g><g><path d="m398.46 394.467 11.636 14.732c1.997-.074 3.617-1.593 3.879-3.574 1.169-8.851 6.81-16.466 15.067-20.35 12.638-5.945 21.387-18.789 21.387-33.681v-185.038c0-20.551-16.66-37.212-37.212-37.212h-232.697c-20.552 0-37.212 16.66-37.212 37.212v185.038c0 20.552 16.66 37.212 37.212 37.212h206.253c4.558 0 8.863 2.086 11.687 5.661z" fill="#e49542"/></g><path d="m474.788 129.344h-65.174c20.551 0 37.212 16.66 37.212 37.212v185.038c0 14.892-8.749 27.736-21.387 33.681-9.31 4.379-15.342 13.636-15.342 23.923l54.97 69.592c3.361 4.255 10.204 1.878 10.204-3.544v-86.453c20.328-.259 36.73-16.81 36.73-37.2v-185.037c-.001-20.552-16.661-37.212-37.213-37.212z" fill="#e27d47"/></g><g><g><path d="m450.246 204.642h-245.183c-4.267 0-7.726-3.459-7.726-7.726s3.459-7.726 7.726-7.726h245.183c4.267 0 7.726 3.459 7.726 7.726s-3.459 7.726-7.726 7.726z" fill="#f0f7ff"/></g><g><path d="m450.246 263.706h-245.183c-4.267 0-7.726-3.459-7.726-7.726s3.459-7.726 7.726-7.726h245.183c4.267 0 7.726 3.459 7.726 7.726 0 4.266-3.459 7.726-7.726 7.726z" fill="#f0f7ff"/></g><g><path d="m450.246 322.769h-245.183c-4.267 0-7.726-3.459-7.726-7.726s3.459-7.726 7.726-7.726h245.183c4.267 0 7.726 3.459 7.726 7.726s-3.459 7.726-7.726 7.726z" fill="#f0f7ff"/></g></g></g></g></svg>