<svg id="Layer_1" enable-background="new 0 0 512 512" height="512" viewBox="0 0 512 512" width="512" xmlns="http://www.w3.org/2000/svg"><g><g><g><path d="m512 278.116c-1.33 43.72-37.96 80.75-81.69 80.75h-348.62c-34.21 0-64.02-22.46-76.04-53.16-3.39-8.65-5.36-17.95-5.62-27.59h-.03c0-41.65 30.18-76.59 69.75-84.06-3.12-12.06-4.62-24.78-4.24-37.9 2.09-73.04 62.82-131.57 135.88-131.11 47.63.31 89.4 25.27 113.21 62.75 0 0 0 0 .01-.01 11.74-5.31 24.76-8.3 38.5-8.3 51.6 0 93.44 41.84 93.44 93.44 0 7.4-.89 14.58-2.51 21.48 16.13 3.41 30.63 11.4 42.04 22.52 15.97 15.56 25.92 37.27 25.92 61.19z" fill="#d9f9f8"/><path d="m512 278.116c-1.33 43.72-37.96 80.75-81.69 80.75h-348.62c-34.21 0-64.02-22.46-76.04-53.16 14.7 14.25 34.5 23.16 56.04 23.16h348.62c43.73 0 80.36-37.03 81.69-80.75 0-10.99-2.1-21.52-5.92-31.19 15.97 15.56 25.92 37.27 25.92 61.19z" fill="#c1eaf4"/></g></g><path d="m384.37 358.587c0 70.89-57.47 128.37-128.37 128.37-4.05 0-8.05-.19-12-.56-65.27-6.05-116.37-60.97-116.37-127.81 0-66.85 51.1-121.77 116.37-127.82 3.95-.37 7.95-.56 12-.56 70.9 0 128.37 57.48 128.37 128.38z" fill="#57f3ff"/><path d="m384.37 358.587c0 70.89-57.47 128.37-128.37 128.37-4.05 0-8.05-.19-12-.56 65.27-6.05 116.37-60.97 116.37-127.81 0-66.85-51.1-121.77-116.37-127.82 3.95-.37 7.95-.56 12-.56 70.9 0 128.37 57.48 128.37 128.38z" fill="#55d7ff"/><g fill="#fff"><path d="m239.024 367.926-19.993 19.994v-72.51c0-4.143-3.357-7.5-7.5-7.5s-7.5 3.357-7.5 7.5v72.511l-19.995-19.994c-2.928-2.928-7.677-2.929-10.606.001-2.929 2.929-2.929 7.677 0 10.606l32.799 32.797c1.464 1.464 3.384 2.196 5.303 2.196s3.839-.732 5.304-2.196l32.797-32.797c2.929-2.93 2.929-7.678 0-10.607-2.931-2.929-7.679-2.929-10.609-.001z"/><path d="m340.57 342.903-32.798-32.798c-1.407-1.406-3.314-2.196-5.304-2.196s-3.896.79-5.304 2.197l-32.797 32.797c-2.929 2.93-2.929 7.678 0 10.607 1.465 1.464 3.385 2.196 5.304 2.196s3.839-.732 5.304-2.197l19.993-19.994v72.51c0 4.143 3.357 7.5 7.5 7.5s7.5-3.357 7.5-7.5v-72.51l19.994 19.995c2.93 2.928 7.678 2.928 10.607 0 2.93-2.929 2.93-7.677.001-10.607z"/></g></g></svg>