<svg xmlns="http://www.w3.org/2000/svg" width="126.003" height="111.977" viewBox="0 0 126.003 111.977">
  <g id="graph_1_" data-name="graph (1)" transform="translate(0 -28.049)">
    <path id="Path_8474" data-name="Path 8474" d="M48.1,236.049H76.092v51.323H48.1Z" transform="translate(-34.073 -147.346)" fill="#051133"/>
    <path id="Path_8475" data-name="Path 8475" d="M192.1,140.049h27.994v79.317H192.1Z" transform="translate(-136.081 -79.34)" fill="#15c550"/>
    <path id="Path_8476" data-name="Path 8476" d="M336.1,60.049h27.994V162.695H336.1Z" transform="translate(-238.09 -22.669)" fill="#051133"/>
    <path id="Path_8477" data-name="Path 8477" d="M49.018,30.382,56.7,38.064,37.354,57.41,32,52.061a2.333,2.333,0,0,0-3.3,0L.712,80.055a2.333,2.333,0,0,0,3.241,3.356l.057-.057L30.355,57.009,35.7,62.358a2.333,2.333,0,0,0,3.3,0l21-21,7.682,7.682,2.333-21Z" transform="translate(0)" fill="#fff"/>
    <g id="Group_1365" data-name="Group 1365" transform="translate(21.024 67.708)">
      <path id="Path_8478" data-name="Path 8478" d="M74.431,365.38a2.333,2.333,0,0,1-2.333-2.333v-4.666a2.333,2.333,0,0,1,4.666,0v4.666A2.333,2.333,0,0,1,74.431,365.38Z" transform="translate(-72.098 -300.06)" fill="#fff"/>
      <path id="Path_8479" data-name="Path 8479" d="M74.431,306.046a2.333,2.333,0,0,1-2.333-2.333v-9.331a2.333,2.333,0,0,1,4.666,0v9.331A2.333,2.333,0,0,1,74.431,306.046Z" transform="translate(-72.098 -254.723)" fill="#fff"/>
      <path id="Path_8480" data-name="Path 8480" d="M218.431,365.38a2.333,2.333,0,0,1-2.333-2.333v-4.666a2.333,2.333,0,0,1,4.666,0v4.666A2.333,2.333,0,0,1,218.431,365.38Z" transform="translate(-174.107 -300.06)" fill="#fff"/>
      <path id="Path_8481" data-name="Path 8481" d="M218.431,272.043a2.333,2.333,0,0,1-2.333-2.333V246.382a2.333,2.333,0,1,1,4.666,0V269.71A2.333,2.333,0,0,1,218.431,272.043Z" transform="translate(-174.107 -220.72)" fill="#fff"/>
      <path id="Path_8482" data-name="Path 8482" d="M362.431,365.38a2.333,2.333,0,0,1-2.333-2.333v-4.666a2.333,2.333,0,0,1,4.666,0v4.666A2.333,2.333,0,0,1,362.431,365.38Z" transform="translate(-276.115 -300.06)" fill="#fff"/>
      <path id="Path_8483" data-name="Path 8483" d="M362.431,215.372a2.333,2.333,0,0,1-2.333-2.333V166.382a2.333,2.333,0,0,1,4.666,0v46.657A2.333,2.333,0,0,1,362.431,215.372Z" transform="translate(-276.115 -164.049)" fill="#fff"/>
    </g>
  </g>
</svg>
