<svg xmlns="http://www.w3.org/2000/svg" xmlns:xlink="http://www.w3.org/1999/xlink" width="48" height="48" viewBox="0 0 48 48"><defs><style>.a{fill:#fff;stroke:#707070;}.b{clip-path:url(#a);}.c{fill:#00357b;}.d{fill:#001737;}.e{fill:#ff2828;}.f{fill:#c00;}</style><clipPath id="a"><rect class="a" width="48" height="48" transform="translate(352 2251)"/></clipPath></defs><g class="b" transform="translate(-352 -2251)"><g transform="translate(352 2251)"><path class="c" d="M38.906,14.951v3.8a1.406,1.406,0,0,1-2.812,0v-3.8a12.117,12.117,0,1,0-24.234,0v3.8a1.406,1.406,0,0,1-2.812,0v-3.8a14.93,14.93,0,1,1,29.859,0Z"/><path class="d" d="M38.906,33.75v3.58a7.584,7.584,0,0,1-7.576,7.576H28.5a1.406,1.406,0,0,1,0-2.812h2.83a4.768,4.768,0,0,0,4.763-4.763V33.75A1.406,1.406,0,0,1,38.906,33.75Z"/><path class="d" d="M38.906,14.951v3.8a1.406,1.406,0,0,1-2.812,0v-3.8A12.124,12.124,0,0,0,24,2.813V0A14.936,14.936,0,0,1,38.906,14.951Z"/><path class="e" d="M14.25,17.344h-3a8.906,8.906,0,0,0,0,17.813h3a1.406,1.406,0,0,0,1.406-1.406v-15A1.406,1.406,0,0,0,14.25,17.344Z"/><path class="f" d="M36.75,17.344h-3a1.406,1.406,0,0,0-1.406,1.406v15a1.406,1.406,0,0,0,1.406,1.406h3a8.906,8.906,0,0,0,0-17.812Z"/><path class="e" d="M29.906,43.5A4.41,4.41,0,0,1,25.5,48h-3a4.453,4.453,0,0,1,0-8.906h3A4.411,4.411,0,0,1,29.906,43.5Z"/><path class="f" d="M29.906,43.5A4.41,4.41,0,0,1,25.5,48H24V39.094h1.5A4.411,4.411,0,0,1,29.906,43.5Z"/></g></g></svg>