<svg height="512" viewBox="0 0 128 128" width="512" xmlns="http://www.w3.org/2000/svg"><g id="icon"><path d="m126.164 65.841a62.167 62.167 0 0 1 -110.733 38.8 61.953 61.953 0 0 1 -13.595-38.8q0-.874.032-1.751v-.01a61.6 61.6 0 0 1 3.088-17.723 62.067 62.067 0 0 1 59.044-42.685 60.468 60.468 0 0 1 7.248.425 62.176 62.176 0 0 1 54.916 61.744z" fill="#dbe2eb"/><path d="m126.159 65.84a62.167 62.167 0 0 1 -110.733 38.8q-1.863-2.325-3.492-4.829c1.284 1.125 2.622 2.186 4 3.195a62.178 62.178 0 0 0 96.693-34.078c.36-1.348.679-2.706.944-4.086.34-1.687.605-3.4.785-5.126a59.53 59.53 0 0 0 .393-6.919c0-1.083-.032-2.155-.085-3.227a61.673 61.673 0 0 0 -10.029-30.755 61.972 61.972 0 0 1 21.524 47.025z" fill="#ccd8dd"/><path d="m126.164 65.841a61.72 61.72 0 0 1 -1.178 12.046c-.043-.722-.064-1.444-.106-2.144a120.12 120.12 0 0 0 -2.006-13.287c-.52-3.1-1.072-6.3-2.781-8.947s-4.871-4.616-7.938-3.947q1.305 6.048 2.632 12.087c.573 2.643.69 6.209-1.825 7.175-2.346.912-4.723-1.56-5.285-4.012s-.17-5.084-1.051-7.429c-1.772-4.7-7.588-6.145-12.544-6.93a6.88 6.88 0 0 0 -4.32.265c-1.294.7-1.931 2.717-.8 3.651 1.614 1.337 4.192-.976 6.071-.043 1.613.8 1.295 3.354.01 4.606s-3.13 1.773-4.584 2.813c-1.263.9-2.261 2.207-3.7 2.759-2.961 1.146-6.145-1.475-7.45-4.383s-1.581-6.23-3.2-8.967a6.752 6.752 0 0 0 -3.693-3.163 4.047 4.047 0 0 0 -4.447 1.348c-1.21 1.761-.456 4.149.329 6.134 1.188 2.982 2.377 5.975 3.566 8.957.806 2.038 1.889 4.33 4 4.9 2.016.552 4.022-.722 5.975-1.443s4.807-.489 5.327 1.538c.4 1.582-.944 3.025-2.133 4.139a75.081 75.081 0 0 0 -8.766 9.753c-1.157 1.539-2.3 3.259-2.292 5.18 0 2.165 1.475 4.223 1.093 6.357a7.644 7.644 0 0 1 -2.452 3.714l-11.116 11.178c-1.645 1.645-3.853 3.439-6.039 2.643-2.1-.775-2.706-3.471-2.558-5.7s.722-4.6-.244-6.612c-.764-1.613-2.345-2.653-3.449-4.054-2.41-3.066-2.217-7.343-2.41-11.238s-1.38-8.395-4.988-9.87c-2.557-1.05-5.5-.159-8.235-.541a18.03 18.03 0 0 1 -5.561-2.091c-1.921-.976-3.991-2.1-4.861-4.075-.8-1.794-.4-3.874 0-5.8.955-4.531 1.921-9.1 3.895-13.287 1.7-3.6 4.234-6.94 7.747-8.8s8.119-1.963 11.292.425c1.581 1.189 2.728 2.887 4.309 4.065 3.566 2.653 8.469 2.175 12.862 1.57a10.321 10.321 0 0 0 4.511-1.337 3.562 3.562 0 0 0 1.549-4.1c-.732-1.688-2.939-2.091-4.775-1.974s-3.832.5-5.413-.435c-3.162-1.89-2.5-7.652-5.964-8.883-2.271-.8-4.511 1.019-6.623 2.165s-5.656.986-5.911-1.4c-.2-1.974 2.186-3.152 4.171-3.322s4.277-.053 5.561-1.56c1.772-2.069.658-6.187 3.194-7.164 1.338-.52 2.76.319 4.054.934s3.121.881 3.906-.318c.764-1.189-.17-2.781.159-4.15a3.275 3.275 0 0 1 3.12-2.186 13.753 13.753 0 0 1 4 .754c2.494.647 5.307.806 7.482-.584s3.131-4.755 1.348-6.612c-1.5-1.57-4-1.4-6.081-2.016a2.784 2.784 0 0 1 -.308-.106 62.176 62.176 0 0 1 54.924 61.754z" fill="#6bb3d9"/><path d="m112.957 68.822a2.027 2.027 0 0 1 -.329.106c.36-1.348.679-2.706.944-4.086.34-1.687.605-3.4.785-5.126.138.648.287 1.284.425 1.932.573 2.642.69 6.208-1.825 7.174z" fill="#6bb3d9"/><path d="m126.159 65.84a61.794 61.794 0 0 1 -1.178 12.045c-.043-.722-.064-1.443-.106-2.144a120.429 120.429 0 0 0 -2.006-13.287c-.52-3.1-1.072-6.3-2.781-8.946a8.888 8.888 0 0 0 -5.423-3.938 61.673 61.673 0 0 0 -10.029-30.755 61.972 61.972 0 0 1 21.523 47.025z" fill="#4fa4d1"/><path d="m51.408 4.946a62.247 62.247 0 0 0 -46.452 41.411l.03.04a3.035 3.035 0 0 0 5.162-.541 57.561 57.561 0 0 1 6.376-9.847l7.323-9.742c1.836-2.441 3.82-5 6.675-6.092a16.1 16.1 0 0 0 3.5-1.327c1.041-.711 1.7-2.228.945-3.226 1.4 1.592 4.022 1.273 5.858.223 2.314-1.316 4.054-3.046 6.633-3.906 1.985-.668 4.182-.7 5.614-2.451 2.104-2.568.713-3.895-1.664-4.542z" fill="#6bb3d9"/><path d="m21.547 0a17.73 17.73 0 0 0 -17.73 17.73c0 9.792 17.73 34.814 17.73 34.814s17.73-25.022 17.73-34.814a17.73 17.73 0 0 0 -17.73-17.73z" fill="#ef5361"/><circle cx="21.547" cy="17.431" fill="#e1e6e9" r="11.714" transform="matrix(.999 -.045 .045 .999 -.768 .994)"/></g></svg>