<svg xmlns="http://www.w3.org/2000/svg" xmlns:xlink="http://www.w3.org/1999/xlink" width="146" height="116" viewBox="0 0 146 116">
  <defs>
    <clipPath id="clip-path">
      <rect id="Rectangle_336" data-name="Rectangle 336" width="146" height="116" transform="translate(117 2675)" fill="#fff" stroke="#707070" stroke-width="1"/>
    </clipPath>
  </defs>
  <g id="Mask_Group_52" data-name="Mask Group 52" transform="translate(-117 -2675)" clip-path="url(#clip-path)">
    <g id="rocket" transform="translate(118.248 2678.145)">
      <circle id="Ellipse_176" data-name="Ellipse 176" cx="59" cy="59" r="59" transform="translate(10.752 4.855)" fill="#798fdb" opacity="0.23"/>
      <path id="Path_8412" data-name="Path 8412" d="M208.879,344.895a8.85,8.85,0,0,1,7.465,4.076.239.239,0,0,0,.183.109h.018a.239.239,0,0,0,.179-.081,12.964,12.964,0,0,1,13.376-3.865l-4.274-10.954H210.706l-4.32,11.074A8.838,8.838,0,0,1,208.879,344.895Z" transform="translate(-148.597 -254.154)" fill="#d9eafc"/>
      <g id="Group_1357" data-name="Group 1357" transform="translate(53.82 76.025)">
        <path id="Path_8413" data-name="Path 8413" d="M212.678,334.179h-1.971l-4.32,11.074a8.871,8.871,0,0,1,2.106-.345Z" transform="translate(-201.417 -334.179)" fill="#aec1ed"/>
        <path id="Path_8414" data-name="Path 8414" d="M190.137,395.364a.377.377,0,0,0,.373.321.386.386,0,0,0,.059,0,25.632,25.632,0,0,1,4.014-.322,25.3,25.3,0,0,1,17.3,6.815.377.377,0,0,0,.514,0,25.3,25.3,0,0,1,17.3-6.815,25.635,25.635,0,0,1,4.014.322.39.39,0,0,0,.059,0,.377.377,0,0,0,.373-.321,31.173,31.173,0,0,1,5.105-13,20.787,20.787,0,0,0-29.819,1.4,14.328,14.328,0,0,0-12.06-6.584c-4.856,0-10.506,2.933-13.495,9.658C186.189,390.488,189.5,391.045,190.137,395.364Z" transform="translate(-195.402 -365.194)" fill="#aec1ed"/>
      </g>
      <path id="Path_8415" data-name="Path 8415" d="M106.538,383.042a33.56,33.56,0,0,0-61.186-13.535,98.273,98.273,0,0,0,38.473,36.566A27.328,27.328,0,0,1,106.538,383.042Z" transform="translate(-41.62 -258.573)" fill="#445ea0"/>
      <path id="Path_8416" data-name="Path 8416" d="M76.7,358.58a35.327,35.327,0,0,1,22.532,8.081,35.549,35.549,0,0,0-26.7-12.608c-11.694,0-23.292,8.457-29.3,17.527.793,1.332,3.746.571,4.6,1.861A35.432,35.432,0,0,1,76.7,358.58Z" transform="translate(-41.62 -258.573)" fill="#293d7c"/>
      <path id="Path_8417" data-name="Path 8417" d="M342.485,354.454a29.389,29.389,0,0,0-29.061,25.03,23.927,23.927,0,0,1,19.887,20.165A86.047,86.047,0,0,0,367,367.634,29.351,29.351,0,0,0,342.485,354.454Z" transform="translate(-75.939 -358.24) rotate(20)" fill="#445ea0"/>
      <g id="Group_1358" data-name="Group 1358" transform="translate(29.609 93.618)">
        <path id="Path_8419" data-name="Path 8419" d="M199.5,425.177a24.481,24.481,0,0,0-16.744,6.595,24.567,24.567,0,0,0-41.061,14.44,88.105,88.105,0,0,0,82.122,0A24.576,24.576,0,0,0,199.5,425.177Z" transform="translate(-141.693 -425.177)" fill="#293d7c"/>
      </g>
      <path id="Path_8420" data-name="Path 8420" d="M171.146,428.232a25.543,25.543,0,0,1,9.584,1.854,24.56,24.56,0,0,0-39.038,16.126q2.168,1.146,4.406,2.171A25.65,25.65,0,0,1,171.146,428.232Z" transform="translate(-112.084 -331.559)" fill="#1a2b63"/>
      <g id="Group_1359" data-name="Group 1359" transform="translate(63.311 80.025)">
        <path id="Path_8421" data-name="Path 8421" d="M267.03,334.179h-3.621l.462,3.655a1.8,1.8,0,1,0,3.564-.45Z" transform="translate(-255.276 -334.179)" fill="#aec1ed"/>
        <path id="Path_8422" data-name="Path 8422" d="M230.41,334.178l-.95,7.515a1.8,1.8,0,0,0,1.557,2.007,1.821,1.821,0,0,0,.227.014,1.8,1.8,0,0,0,1.78-1.571l1.007-7.965H230.41Z" transform="translate(-229.446 -334.178)" fill="#aec1ed"/>
      </g>
      <path id="Path_8423" data-name="Path 8423" d="M148.871,177.189q0-2.929.21-5.834c-5.762,3.245-9.731,10.473-9.731,18.841a24.129,24.129,0,0,0,3.178,12.189,1.06,1.06,0,0,0,1.316.446,23.309,23.309,0,0,1,8.679-1.715A78.15,78.15,0,0,1,148.871,177.189Z" transform="translate(-97.614 -130.321)" fill="#fe3745"/>
      <path id="Path_8424" data-name="Path 8424" d="M142.066,190.2c0-6.912,2.71-13.043,6.9-16.8.032-.683.069-1.364.117-2.044-5.762,3.245-9.731,10.473-9.731,18.841a24.129,24.129,0,0,0,3.178,12.189,1.06,1.06,0,0,0,1.316.446c.45-.184.908-.348,1.368-.5A24.141,24.141,0,0,1,142.066,190.2Z" transform="translate(-97.615 -130.321)" fill="#b7092b"/>
      <g id="Group_1360" data-name="Group 1360" transform="translate(60.5 41.034)">
        <path id="Path_8425" data-name="Path 8425" d="M321.082,171.355q.205,2.9.21,5.834a78.146,78.146,0,0,1-3.652,23.927,23.309,23.309,0,0,1,8.679,1.715,1.06,1.06,0,0,0,1.316-.446,24.126,24.126,0,0,0,3.178-12.189C330.813,181.828,326.844,174.6,321.082,171.355Z" transform="translate(-293.709 -171.355)" fill="#fe3745"/>
        <path id="Path_8426" data-name="Path 8426" d="M217.708,307.125v5.521a1.2,1.2,0,0,0,1.2,1.2H234.85a1.2,1.2,0,0,0,1.2-1.2v-5.521Z" transform="translate(-217.708 -274.612)" fill="#fe3745"/>
      </g>
      <path id="Path_8427" data-name="Path 8427" d="M221.781,312.646v-5.521h-4.073v5.521a1.2,1.2,0,0,0,1.2,1.2h4.073A1.2,1.2,0,0,1,221.781,312.646Z" transform="translate(-157.208 -233.578)" fill="#b7092b"/>
      <path id="Path_8428" data-name="Path 8428" d="M211.333,90.318H182.188a80.014,80.014,0,0,0,.344,51.462,1.06,1.06,0,0,0,1,.7h26.466a1.06,1.06,0,0,0,1-.7,80.014,80.014,0,0,0,.344-51.462Z" transform="translate(-127.091 -68.69)" fill="#eef6ff"/>
      <path id="Path_8429" data-name="Path 8429" d="M185.927,141.78a80.014,80.014,0,0,1-.344-51.462h-3.394a80.014,80.014,0,0,0,.344,51.462,1.06,1.06,0,0,0,1,.7h3.394A1.06,1.06,0,0,1,185.927,141.78Z" transform="translate(-127.092 -68.69)" fill="#d9eafc"/>
      <path id="Path_8430" data-name="Path 8430" d="M227.179,90.318v3.974a1.2,1.2,0,0,0,1.2,1.2h11.409a1.2,1.2,0,0,0,1.2-1.2V90.318Z" transform="translate(-164.411 -68.69)" fill="#ea2a3d"/>
      <path id="Path_8431" data-name="Path 8431" d="M229.894,94.292V90.318h-2.715v3.974a1.2,1.2,0,0,0,1.2,1.2h2.715A1.2,1.2,0,0,1,229.894,94.292Z" transform="translate(-164.411 -68.69)" fill="#b7092b"/>
      <path id="Path_8432" data-name="Path 8432" d="M209.454,0a1.058,1.058,0,0,0-.667.236c-5.349,4.332-9.855,10.9-13.03,19-.338.862-.655,1.741-.959,2.629H224.11c-.3-.888-.622-1.767-.959-2.629-3.175-8.1-7.68-14.671-13.03-19A1.057,1.057,0,0,0,209.454,0Z" transform="translate(-139.784)" fill="#fe3745"/>
      <path id="Path_8433" data-name="Path 8433" d="M211.151,1.108q-.51-.449-1.03-.872a1.06,1.06,0,0,0-1.334,0c-5.349,4.332-9.855,10.9-13.03,19-.338.862-.655,1.741-.959,2.629h3.394c.3-.888.622-1.767.959-2.629C202.12,11.664,206.253,5.428,211.151,1.108Z" transform="translate(-139.784)" fill="#b7092b"/>
      <circle id="Ellipse_177" data-name="Ellipse 177" cx="12.218" cy="12.218" r="12.218" transform="translate(57.452 31.109)" fill="#445ea0"/>
      <circle id="Ellipse_178" data-name="Ellipse 178" cx="7.838" cy="7.838" r="7.838" transform="translate(61.832 35.489)" fill="#69cdff"/>
      <path id="Path_8434" data-name="Path 8434" d="M226.142,156.039a7.839,7.839,0,0,0,6.4,7.7,7.838,7.838,0,1,1,0-15.409A7.839,7.839,0,0,0,226.142,156.039Z" transform="translate(-161.437 -112.711)" fill="#52bbef"/>
      <path id="Path_8435" data-name="Path 8435" d="M89.185,136.833a.679.679,0,0,1-.627-.419c-1.337-3.228-2.323-4.213-5.55-5.55a.679.679,0,0,1,0-1.255c3.228-1.337,4.213-2.323,5.55-5.551a.679.679,0,0,1,1.255,0c1.337,3.228,2.323,4.213,5.551,5.551a.679.679,0,0,1,0,1.255c-3.228,1.337-4.213,2.322-5.551,5.55a.679.679,0,0,1-.627.419Z" transform="translate(-54.445 -94.031)" fill="#ffd00d"/>
      <path id="Path_8436" data-name="Path 8436" d="M89.915,152.616c-1.337-3.228-2.323-4.213-5.55-5.55a.678.678,0,0,1-.354-.338c-.31.145-.64.291-1,.441a.679.679,0,0,0,0,1.255c3.228,1.337,4.213,2.322,5.55,5.55a.679.679,0,0,0,1.255,0c.15-.363.3-.693.441-1A.68.68,0,0,1,89.915,152.616Z" transform="translate(-54.445 -111.59)" fill="#ffaf10"/>
      <path id="Path_8437" data-name="Path 8437" d="M393.053,164.572a.6.6,0,0,1-.552-.369c-1.175-2.837-2.041-3.7-4.879-4.878a.6.6,0,0,1,0-1.1c2.837-1.176,3.7-2.042,4.879-4.879a.6.6,0,0,1,1.1,0c1.175,2.837,2.042,3.7,4.879,4.879a.6.6,0,0,1,0,1.1c-2.837,1.175-3.7,2.041-4.879,4.878a.6.6,0,0,1-.551.369Z" transform="translate(-286.153 -116.341)" fill="#fff"/>
      <path id="Path_8438" data-name="Path 8438" d="M393.694,178.443c-1.175-2.837-2.041-3.7-4.879-4.879a.6.6,0,0,1-.312-.3c-.272.127-.563.256-.882.388a.6.6,0,0,0,0,1.1c2.837,1.175,3.7,2.041,4.879,4.878a.6.6,0,0,0,1.1,0c.132-.319.26-.609.388-.882A.6.6,0,0,1,393.694,178.443Z" transform="translate(-286.152 -131.775)" fill="#d9eafc"/>
      <path id="Path_8439" data-name="Path 8439" d="M364.011,53.153a.7.7,0,0,1-.643-.429c-1.369-3.306-2.379-4.315-5.685-5.685a.7.7,0,0,1,0-1.285c3.306-1.37,4.316-2.379,5.685-5.685a.7.7,0,0,1,1.285,0c1.37,3.306,2.379,4.315,5.685,5.685a.7.7,0,0,1,0,1.285c-3.306,1.369-4.315,2.379-5.685,5.685a.7.7,0,0,1-.642.429Z" transform="translate(-263.337 -30.147)" fill="#ff9518"/>
      <path id="Path_8440" data-name="Path 8440" d="M364.758,69.318c-1.37-3.306-2.379-4.315-5.685-5.685a.7.7,0,0,1-.363-.347c-.317.149-.656.3-1.028.452a.7.7,0,0,0,0,1.285c3.306,1.369,4.316,2.379,5.685,5.685a.7.7,0,0,0,1.285,0c.154-.372.3-.71.452-1.027A.694.694,0,0,1,364.758,69.318Z" transform="translate(-263.336 -48.132)" fill="#ef8318"/>
      <path id="Path_8441" data-name="Path 8441" d="M344.262,354.508c-.588-.035-1.18-.055-1.777-.055a29.389,29.389,0,0,0-29.061,25.03,23.736,23.736,0,0,1,3.207.745A33.194,33.194,0,0,1,344.262,354.508Z" transform="translate(-75.939 -358.24) rotate(20)" fill="#293d7c"/>
    </g>
  </g>
</svg>
