<svg xmlns="http://www.w3.org/2000/svg" width="172.553" height="125.241" viewBox="0 0 172.553 125.241">
  <g id="team" transform="translate(0 -70.193)">
    <path id="Path_8442" data-name="Path 8442" d="M371.613,210.671v1.953a22.268,22.268,0,0,0,1.143,7.041l4.424,13.271h8.349V202.321h-5.566A8.35,8.35,0,0,0,371.613,210.671Z" transform="translate(-246.372 -87.598)" fill="#5a4146"/>
    <path id="Path_8443" data-name="Path 8443" d="M420.67,210.979l-4.709,16.484L393.7,207.98a5.566,5.566,0,0,1-5.566-5.566h0a8.349,8.349,0,0,1,8.349-8.349H415.96a5.566,5.566,0,0,1,5.566,5.566v5.231A22.258,22.258,0,0,1,420.67,210.979Z" transform="translate(-257.322 -82.125)" fill="#694b4b"/>
    <rect id="Rectangle_303" data-name="Rectangle 303" width="16.699" height="12.318" transform="translate(136.371 153.688)" fill="#e6af78"/>
    <path id="Path_8444" data-name="Path 8444" d="M404.645,323.047a22.083,22.083,0,0,0,16.7,0v-5.112h-16.7v5.112Z" transform="translate(-268.272 -164.248)" fill="#d29b6e"/>
    <path id="Path_8445" data-name="Path 8445" d="M396.445,341.8l-13.427-3.836-8.349,5.54-8.349-5.541L352.895,341.8a8.349,8.349,0,0,0-6.056,8.028V370.18a2.783,2.783,0,0,0,2.783,2.783h50.1a2.783,2.783,0,0,0,2.783-2.783V349.832A8.349,8.349,0,0,0,396.445,341.8Z" transform="translate(-229.948 -177.53)" fill="#d5dced"/>
    <path id="Path_8446" data-name="Path 8446" d="M426.727,383.913h-5.566l1.392-29.429h2.783Z" transform="translate(-279.222 -188.48)" fill="#afb9d2"/>
    <path id="Path_8447" data-name="Path 8447" d="M396.57,266.036h0a16.7,16.7,0,0,1-16.7-16.7v-3.261a5.568,5.568,0,0,1,1.63-3.936l5.047-5.047a5.5,5.5,0,0,1,4.041-1.636c8.9.281,16.771,2.187,21.076,6.391a5.494,5.494,0,0,1,1.6,3.942v3.546A16.7,16.7,0,0,1,396.57,266.036Z" transform="translate(-251.847 -109.566)" fill="#f0c087"/>
    <path id="Path_8448" data-name="Path 8448" d="M388.22,246.766a5.555,5.555,0,0,1,5.9-5.558c5.618.359,13.956,1.3,19.071,3.758a5.38,5.38,0,0,0-1.526-3.118c-4.3-4.2-12.18-6.11-21.076-6.391h0a5.5,5.5,0,0,0-4.04,1.636l-5.046,5.047a5.565,5.565,0,0,0-1.631,3.936v3.261a16.7,16.7,0,0,0,12.072,16.035,16.561,16.561,0,0,1-3.722-10.469v-8.136Z" transform="translate(-251.847 -109.565)" fill="#e6af78"/>
    <path id="Path_8449" data-name="Path 8449" d="M478.968,372.072a8.349,8.349,0,0,1,2.445-5.9L488.577,359a8.316,8.316,0,0,1,1.523,4.775v20.348a2.783,2.783,0,0,1-2.783,2.783h-8.349V372.072Z" transform="translate(-317.547 -191.476)" fill="#c7cfe2"/>
    <path id="Path_8450" data-name="Path 8450" d="M425.336,360.05h-2.783a1.392,1.392,0,0,1-1.392-1.392v-4.175h5.566v4.175A1.391,1.391,0,0,1,425.336,360.05Z" transform="translate(-279.222 -188.48)" fill="#959cb5"/>
    <g id="Group_1363" data-name="Group 1363" transform="translate(133.295 158.228)">
      <path id="Path_8451" data-name="Path 8451" d="M406.939,339.161l-4.717,3.6a1.67,1.67,0,0,1-2.478-.525l-4.232-7.728,1.7-2.6a1.113,1.113,0,0,1,1.688-.206Z" transform="translate(-395.512 -331.41)" fill="#c7cfe2"/>
      <path id="Path_8452" data-name="Path 8452" d="M429.419,339.162l4.717,3.6a1.67,1.67,0,0,0,2.478-.525l4.232-7.728-1.7-2.6a1.113,1.113,0,0,0-1.688-.206Z" transform="translate(-417.992 -331.411)" fill="#c7cfe2"/>
    </g>
    <path id="Path_8453" data-name="Path 8453" d="M51.183,239.619c-2.378-6.3-4.265-17.134-4.672-22.774-.775-10.733-8.863-19.482-19.8-19.482s-19.022,8.749-19.8,19.482c-.407,5.64-2.294,16.473-4.672,22.774a2.772,2.772,0,0,0,1.449,3.541,53.158,53.158,0,0,0,14.536,4.3H35.2a53.624,53.624,0,0,0,14.536-4.3A2.772,2.772,0,0,0,51.183,239.619Z" transform="translate(-1.365 -84.311)" fill="#5a4146"/>
    <path id="Path_8454" data-name="Path 8454" d="M81.913,243.161a2.772,2.772,0,0,0,1.449-3.541c-2.378-6.3-4.265-17.134-4.672-22.774-.775-10.733-8.863-19.482-19.8-19.482h-.083c-8.389.034-11.354,11.475-4.132,15.744a7.684,7.684,0,0,0,.712.38l6.326,33.971h5.662A53.662,53.662,0,0,0,81.913,243.161Z" transform="translate(-33.544 -84.312)" fill="#694b4b"/>
    <path id="Path_8455" data-name="Path 8455" d="M45.481,327.51l-9.006-4.5a5.566,5.566,0,0,1-3.077-4.979v-8.35H16.7v8.35a5.566,5.566,0,0,1-3.077,4.978l-9.006,4.5A8.348,8.348,0,0,0,0,334.977v16.447a2.783,2.783,0,0,0,2.783,2.783h44.53a2.783,2.783,0,0,0,2.783-2.783V334.977A8.349,8.349,0,0,0,45.481,327.51Z" transform="translate(0 -158.774)" fill="#e6af78"/>
    <path id="Path_8456" data-name="Path 8456" d="M57.6,320.809a22,22,0,0,0,8.5-1.717,5.487,5.487,0,0,1-.15-1.065v-8.35h-16.7v8.35a5.48,5.48,0,0,1-.15,1.07A22.109,22.109,0,0,0,57.6,320.809Z" transform="translate(-32.554 -158.773)" fill="#d29b6e"/>
    <path id="Path_8457" data-name="Path 8457" d="M45.481,356.276l-6.416-3.208a16.676,16.676,0,0,1-28.033,0l-6.416,3.208A8.349,8.349,0,0,0,0,363.744v16.447a2.783,2.783,0,0,0,2.783,2.783h44.53a2.783,2.783,0,0,0,2.783-2.783V363.744A8.349,8.349,0,0,0,45.481,356.276Z" transform="translate(0 -187.541)" fill="#d5dced"/>
    <path id="Path_8458" data-name="Path 8458" d="M41.7,272.342h0A16.7,16.7,0,0,1,25.137,257.8a2.807,2.807,0,0,1,1.487-2.893,23.233,23.233,0,0,0,4.926-3.327,16.071,16.071,0,0,0,3.808-5.011,2.755,2.755,0,0,1,3.138-1.525,47.95,47.95,0,0,1,18.891,9.679,2.692,2.692,0,0,1,.957,2.237A16.7,16.7,0,0,1,41.7,272.342Z" transform="translate(-16.649 -115.872)" fill="#f0c087"/>
    <path id="Path_8459" data-name="Path 8459" d="M57.388,254.726A47.948,47.948,0,0,0,38.5,245.048a2.755,2.755,0,0,0-3.138,1.525,15.932,15.932,0,0,1-2.543,3.713s0,.006,0,.009a14.936,14.936,0,0,1-1.263,1.289,23.219,23.219,0,0,1-4.926,3.327,2.808,2.808,0,0,0-1.487,2.893,16.725,16.725,0,0,0,14.028,14.347,12.185,12.185,0,0,1-5.818-10.942V257.24c.632-.467,1.269-.932,1.909-1.5a22.157,22.157,0,0,0,3.98-4.7,42.03,42.03,0,0,1,14.505,7.892c.527.462,1.836,1.669,3.368,3.106a16.571,16.571,0,0,0,1.235-5.075A2.692,2.692,0,0,0,57.388,254.726Z" transform="translate(-16.649 -115.871)" fill="#e6af78"/>
    <path id="Path_8460" data-name="Path 8460" d="M1.7,369.859A8.331,8.331,0,0,0,0,374.876v16.447a2.783,2.783,0,0,0,2.783,2.783h8.349V380.083a5.566,5.566,0,0,0-2.089-4.347Z" transform="translate(0 -198.673)" fill="#c7cfe2"/>
    <path id="Path_8461" data-name="Path 8461" d="M202.911,334.66l-23.286-8.468-16.7,5.567-16.7-5.566-23.286,8.468a11.132,11.132,0,0,0-7.328,10.462v17.251a2.783,2.783,0,0,0,2.783,2.783h89.06a2.783,2.783,0,0,0,2.783-2.783V345.122A11.132,11.132,0,0,0,202.911,334.66Z" transform="translate(-76.649 -169.723)" fill="#efb617"/>
    <path id="Path_8462" data-name="Path 8462" d="M242.135,359.226l-2.651,27.831h11.132l-2.651-27.831Z" transform="translate(-158.773 -191.624)" fill="#707487"/>
    <path id="Path_8463" data-name="Path 8463" d="M249.341,352.1H243.5a1.948,1.948,0,0,1-1.948-1.948v-7.442h9.74v7.442A1.948,1.948,0,0,1,249.341,352.1Z" transform="translate(-160.143 -180.673)" fill="#5b5d6e"/>
    <path id="Path_8464" data-name="Path 8464" d="M360.542,359.855a11.12,11.12,0,0,1,3,7.585v17.251a2.783,2.783,0,0,1-2.783,2.783H346.839v-9.3A11.131,11.131,0,0,1,350.1,370.3Z" transform="translate(-229.948 -192.041)" fill="#ef9f00"/>
    <path id="Path_8465" data-name="Path 8465" d="M226.39,99.074V75.759a5.566,5.566,0,0,0-5.566-5.566h-33.4a22.265,22.265,0,0,0-22.265,22.265v6.616a27.828,27.828,0,0,0,1.428,8.8l.926,2.779a8.349,8.349,0,0,1,.428,2.64v1.428h55.662v-1.428a8.349,8.349,0,0,1,.428-2.64l.926-2.779A27.822,27.822,0,0,0,226.39,99.074Z" transform="translate(-109.499)" fill="#5a4146"/>
    <path id="Path_8466" data-name="Path 8466" d="M206.452,81.5a11.306,11.306,0,0,0,11.306,11.306h1.565l.756,21.917h30.9v-1.428a8.349,8.349,0,0,1,.428-2.64l.926-2.779a27.828,27.828,0,0,0,1.428-8.8V75.759a5.566,5.566,0,0,0-5.566-5.566h-30.44A11.306,11.306,0,0,0,206.452,81.5Z" transform="translate(-136.874)" fill="#694b4b"/>
    <rect id="Rectangle_304" data-name="Rectangle 304" width="33.399" height="25.047" transform="translate(69.577 136.989)" fill="#e6af78"/>
    <path id="Path_8467" data-name="Path 8467" d="M206.451,277.8a33.2,33.2,0,0,0,33.4,0v-9.411h-33.4V277.8Z" transform="translate(-136.873 -131.398)" fill="#d29b6e"/>
    <g id="Group_1364" data-name="Group 1364" transform="translate(64.012 151.836)">
      <path id="Path_8468" data-name="Path 8468" d="M212.2,322.643l-8.876,8.876a2.783,2.783,0,0,1-4.185-.285l-9.2-12.127,2.407-5.073a2.783,2.783,0,0,1,3.974-1.176Z" transform="translate(-189.936 -312.443)" fill="#ef9f00"/>
      <path id="Path_8469" data-name="Path 8469" d="M256,322.643l8.876,8.876a2.783,2.783,0,0,0,4.185-.285l9.2-12.127-2.407-5.073a2.783,2.783,0,0,0-3.974-1.176Z" transform="translate(-233.735 -312.443)" fill="#ef9f00"/>
    </g>
    <path id="Path_8470" data-name="Path 8470" d="M201.25,189.725h0a27.831,27.831,0,0,1-27.831-27.831v-3.261a5.567,5.567,0,0,1,1.63-3.936l2.306-2.306a5.566,5.566,0,0,0,1.63-3.936v-6.672a2.761,2.761,0,0,1,2.12-2.7c6.582-1.555,27.065-5.237,41,5.015a3.57,3.57,0,0,1,1.406,2.883v1.479a5.567,5.567,0,0,0,1.63,3.936l2.306,2.306a5.566,5.566,0,0,1,1.63,3.936v3.261A27.83,27.83,0,0,1,201.25,189.725Z" transform="translate(-114.974 -44.388)" fill="#f0c087"/>
    <path id="Path_8471" data-name="Path 8471" d="M222.109,144.1c-9.8-7.211-22.827-7.523-31.991-6.535a75.07,75.07,0,0,0-9.013,1.521,2.761,2.761,0,0,0-2.119,2.7v6.671a5.567,5.567,0,0,1-1.631,3.936l-2.306,2.306a5.567,5.567,0,0,0-1.63,3.936v3.26a27.821,27.821,0,0,0,24.468,27.609,27.716,27.716,0,0,1-7.77-19.259V149.91a5.57,5.57,0,0,1,4.9-5.528c6.679-.837,18.912-1.341,28.5,4.084v-1.479A3.57,3.57,0,0,0,222.109,144.1Z" transform="translate(-114.974 -44.398)" fill="#e6af78"/>
    <path id="Path_8472" data-name="Path 8472" d="M118.609,359.855a11.12,11.12,0,0,0-3,7.585v17.251a2.783,2.783,0,0,0,2.783,2.783h13.915v-9.3a11.131,11.131,0,0,0-3.261-7.872Z" transform="translate(-76.649 -192.041)" fill="#ef9f00"/>
  </g>
</svg>
