<svg id="flat" height="512" viewBox="0 0 512 512" width="512" xmlns="http://www.w3.org/2000/svg"><path d="m384 168h72a16 16 0 0 1 16 16v32h-88z" fill="#de9400"/><path d="m208 56h176v392h-176z" fill="#d1e4ff"/><g fill="#7dafff"><path d="m240 208h16v16h-16z"/><path d="m272 208h16v16h-16z"/><path d="m304 208h16v16h-16z"/><path d="m336 208h16v16h-16z"/><path d="m240 176h16v16h-16z"/><path d="m272 176h16v16h-16z"/><path d="m304 176h16v16h-16z"/><path d="m336 176h16v16h-16z"/><path d="m240 112h16v16h-16z"/><path d="m272 112h16v16h-16z"/><path d="m304 112h16v16h-16z"/><path d="m336 112h16v16h-16z"/><path d="m240 80h16v16h-16z"/><path d="m272 80h16v16h-16z"/><path d="m304 80h16v16h-16z"/><path d="m336 80h16v16h-16z"/><path d="m240 272h16v16h-16z"/><path d="m272 272h16v16h-16z"/><path d="m304 272h16v16h-16z"/><path d="m336 272h16v16h-16z"/><path d="m336 304h16v16h-16z"/><path d="m240 304h16v16h-16z"/><path d="m272 304h16v16h-16z"/><path d="m304 304h16v16h-16z"/><path d="m240 368h16v16h-16z"/><path d="m272 368h16v16h-16z"/><path d="m304 368h16v16h-16z"/><path d="m336 368h16v16h-16z"/></g><path d="m384 448h-176l-16 16v24h208v-24z" fill="#bdd1f2"/><path d="m208 336h176v16h-176z" fill="#bdd1f2"/><path d="m208 240h176v16h-176z" fill="#bdd1f2"/><path d="m208 144h176v16h-176z" fill="#bdd1f2"/><path d="m208 56 24-32h128l24 32z" fill="#548aff"/><path d="m240 400h16v48h-16z" fill="#7dafff"/><path d="m272 400h16v48h-16z" fill="#7dafff"/><path d="m304 400h16v48h-16z" fill="#7dafff"/><path d="m336 400h16v48h-16z" fill="#7dafff"/><path d="m472 192a24 24 0 0 1 -24 24h-64v-32l-80 64 80 64v-32h64a24 24 0 0 0 24-24z" fill="#f6bb00"/><path d="m208 168h-88l24 32-24 32h88z" fill="#de9400"/><path d="m86.3999 236.7998-12.7998-9.5996 20.3999-27.2002-20.3999-27.2002 12.7998-9.5996 24 32a7.9995 7.9995 0 0 1 0 9.5996z" fill="#de9400"/><path d="m46.3999 236.7998-12.7998-9.5996 20.3999-27.2002-20.3999-27.2002 12.7998-9.5996 24 32a7.9995 7.9995 0 0 1 0 9.5996z" fill="#de9400"/></svg>