<?xml version="1.0"?>
<svg xmlns="http://www.w3.org/2000/svg" height="512px" viewBox="0 -60 496 496" width="512px" class=""><g><path d="m424.160156 46.113281c-13.972656-24.28125-40.160156-38.917969-68.160156-38.09375-36.800781 0-67.359375 22.988281-73.601562 53.253907-.40625 0-.796876-.054688-1.222657-.054688-31.574219 0-57.175781 22.117188-57.175781 49.398438 0 26 23.273438 47.265624 52.800781 49.207031v.195312h149.597657v-.195312c34.402343-1.964844 61.601562-26.605469 61.601562-56.796875 0-30.859375-28.398438-55.921875-63.839844-56.914063zm0 0" fill="#57a4ff" data-original="#57A4FF" class="active-path" data-old_color="#57a4ff" style="fill:#FF1515"/><path d="m8 311.019531c0 30.199219 27.199219 54.839844 61.601562 56.796875v.203125h149.597657v-.195312c29.527343-1.941407 52.800781-23.199219 52.800781-49.207031 0-27.28125-25.601562-49.398438-57.199219-49.398438-.417969 0-.800781.046875-1.226562.054688-6.214844-30.265626-36.773438-53.253907-73.574219-53.253907-28-.824219-54.1875 13.8125-68.160156 38.09375-35.441406.992188-63.839844 26.054688-63.839844 56.90625zm0 0" fill="#57a4ff" data-original="#57A4FF" class="active-path" data-old_color="#57a4ff" style="fill:#FF1515"/><g fill="#004fac"><path d="m428.96875 38.363281c-16.125-24.464843-43.675781-38.941406-72.96875-38.3437498-37.601562 0-70.070312 22.0859378-79.800781 53.3671878-33.597657 2.253906-60.199219 27.0625-60.199219 57.230469 0 29.304687 25.519531 54.054687 58.449219 57.046874.761719.234376 1.554687.351563 2.351562.355469h149.597657c.746093 0 1.488281-.109375 2.203124-.328125 37.933594-2.953125 67.398438-31.066406 67.398438-64.671875 0-33.914062-29.097656-61.578125-67.03125-64.65625zm-3.023438 113.476563c-.425781.023437-.851562.082031-1.265624.179687h-146.144532c-.398437-.09375-.804687-.152343-1.214844-.179687-25.417968-1.671875-45.320312-19.78125-45.320312-41.222656 0-22.824219 22.054688-41.390626 49.34375-41.390626.167969 0 .894531.046876 1.054688.046876 3.800781-.003907 7.074218-2.675782 7.832031-6.398438 5.601562-27.144531 33.257812-46.855469 65.769531-46.855469 25.011719-.777343 48.445312 12.191407 61.070312 33.796875 1.34375 2.566406 3.96875 4.207032 6.867188 4.289063 31.4375.886719 56.0625 22.398437 56.0625 48.914062 0 25.644531-23.742188 47.085938-54.054688 48.820313zm0 0" data-original="#004FAC" class="" style="fill:#FF1818" data-old_color="#004FAC"/><path d="m219.800781 261.386719c-9.730469-31.28125-42.199219-53.367188-79.800781-53.367188-29.292969-.597656-56.84375 13.878907-72.96875 38.34375-37.933594 3.078125-67.03125 30.742188-67.03125 64.65625 0 33.597657 29.433594 61.6875 67.328125 64.671875.738281.21875 1.503906.328125 2.273437.328125h149.597657c.777343 0 1.546875-.117187 2.289062-.347656 32.953125-2.964844 58.511719-27.726563 58.511719-57.054687 0-30.167969-26.574219-54.976563-60.199219-57.230469zm-1.121093 98.453125c-.402344.027344-.800782.085937-1.191407.179687h-146.144531c-.421875-.097656-.855469-.15625-1.289062-.179687-30.3125-1.734375-54.054688-23.175782-54.054688-48.820313 0-26.546875 24.625-48 56.0625-48.914062 2.898438-.082031 5.523438-1.722657 6.867188-4.289063 12.625-21.605468 36.058593-34.574218 61.070312-33.796875 32.511719 0 60.167969 19.710938 65.742188 46.863281.761718 3.722657 4.035156 6.394532 7.832031 6.398438h.160156l1.066406-.054688c27.128907 0 49.199219 18.574219 49.199219 41.398438 0 21.433594-19.902344 39.542969-45.320312 41.214844zm0 0" data-original="#004FAC" class="" style="fill:#FF1818" data-old_color="#004FAC"/><path d="m448 192.019531h-40c-4.417969 0-8 3.578125-8 8v3.878907c.144531 13.101562.425781 37.503906-12.40625 50.480468-5.3125 5.167969-12.21875 8.386719-19.59375 9.125v-15.484375c-.003906-3.125-1.820312-5.957031-4.65625-7.261719-2.835938-1.304687-6.171875-.839843-8.542969 1.1875l-56 48c-1.773437 1.519532-2.792969 3.738282-2.792969 6.074219 0 2.332031 1.019532 4.550781 2.792969 6.070313l56 48c2.371094 2.027344 5.707031 2.492187 8.542969 1.1875 2.835938-1.304688 4.652344-4.136719 4.65625-7.257813v-16.113281c28.847656-1.046875 88-12.074219 88-127.886719 0-4.421875-3.582031-8-8-8zm-88 120c-4.417969 0-8 3.578125-8 8v6.605469l-35.710938-30.605469 35.710938-30.609375v6.609375c0 4.417969 3.582031 8 8 8 14.429688.757813 28.535156-4.449219 39.007812-14.402343 16-16.191407 17.121094-41.597657 17.0625-57.597657h23.851563c-1.011719 50.070313-12.617187 104-79.921875 104zm0 0" data-original="#004FAC" class="" style="fill:#FF1818" data-old_color="#004FAC"/><path d="m48 200.019531h40c4.417969 0 8-3.582031 8-8v-3.882812c-.144531-13.101563-.425781-37.503907 12.40625-50.480469 5.3125-5.167969 12.21875-8.386719 19.59375-9.125v15.488281c.003906 3.121094 1.820312 5.953125 4.65625 7.257813 2.835938 1.304687 6.171875.839844 8.542969-1.1875l56-48c1.773437-1.519532 2.792969-3.738282 2.792969-6.070313 0-2.335937-1.019532-4.554687-2.792969-6.074219l-56-48c-2.371094-2.027343-5.707031-2.492187-8.542969-1.1875-2.835938 1.304688-4.652344 4.136719-4.65625 7.261719v16.109375c-28.847656 1.046875-88 12.074219-88 127.890625 0 4.417969 3.582031 8 8 8zm88-120c4.417969 0 8-3.582031 8-8v-6.609375l35.710938 30.609375-35.710938 30.605469v-6.605469c0-4.421875-3.582031-8-8-8-14.429688-.761719-28.535156 4.445313-39.007812 14.398438-16 16.191406-17.121094 41.601562-17.0625 57.601562h-23.851563c1.011719-50.074219 12.617187-104 79.921875-104zm0 0" data-original="#004FAC" class="" style="fill:#FF1818" data-old_color="#004FAC"/></g></g> </svg>
