<?xml version="1.0"?>
<svg xmlns="http://www.w3.org/2000/svg" height="512px" viewBox="0 0 58 58" width="512px" class=""><g><g id="Page-1" fill="none" fill-rule="evenodd"><g id="025---Cloud-Connections" fill-rule="nonzero" transform="translate(0 -1)"><path id="Shape" d="m58 26c0 6.0751322-4.9248678 11-11 11h-36c-6.07513225 0-11-4.9248678-11-11s4.92486775-11 11-11c.623565-.0030798 1.2461215.0504735 1.86.16 1.427149-3.0326141 4.4212431-5.02097 7.77-5.16 1.9678376-6.08875505 8.0738821-9.84005753 14.3946544-8.84348326s10.976386 6.4446301 10.9753456 12.84348326c.019924.3497165.019924.7002835 0 1.05.34 0 .7-.05 1-.05 6.0751322 0 11 4.9248678 11 11z" fill="#46b29d" data-original="#46B29D" class="" data-old_color="#46b29d" style="fill:#F62020"/><path id="Shape" d="m58 26c0 6.0751322-4.9248678 11-11 11h-5.11c0-24.93-21.26-27-21.26-27 1.9678376-6.08875505 8.0738821-9.84005753 14.3946544-8.84348326s10.976386 6.4446301 10.9753456 12.84348326c.019924.3497165.019924.7002835 0 1.05.34 0 .7-.05 1-.05 6.0751322 0 11 4.9248678 11 11z" fill="#81ccb8" data-original="#81CCB8" class="" data-old_color="#81ccb8" style="fill:#FF3B3B"/><path id="Shape" d="m39.83 9.15c-.2923118.00001923-.5699973-.12786225-.76-.35-1.5177498-1.77444941-3.7349995-2.79723347-6.07-2.8-.5522847 0-1-.44771525-1-1s.4477153-1 1-1c2.9180174.00022682 5.6903707 1.27499794 7.59 3.49.1724034.201559.2576705.46335301.2370412.72778336-.0206293.26443034-.145465.50983336-.3470412.68221664-.179713.15852397-.4103774.24724105-.65.25z" fill="#fff" data-original="#FFF" class="" data-old_color="#fff" style="fill:#FFFFFF"/><g fill="#3d324c"><rect id="Rectangle-path" height="12" rx="2" width="12" x="23" y="47" data-original="#3D324C" class="active-path" data-old_color="#3D324C" style="fill:#3D0505"/><rect id="Rectangle-path" height="12" rx="2" width="12" y="41" data-original="#3D324C" class="active-path" data-old_color="#3D324C" style="fill:#3D0505"/><rect id="Rectangle-path" height="12" rx="2" width="12" x="46" y="41" data-original="#3D324C" class="active-path" data-old_color="#3D324C" style="fill:#3D0505"/><circle id="Oval" cx="18" cy="27" r="3" data-original="#3D324C" class="active-path" data-old_color="#3D324C" style="fill:#3D0505"/><circle id="Oval" cx="29" cy="27" r="3" data-original="#3D324C" class="active-path" data-old_color="#3D324C" style="fill:#3D0505"/><circle id="Oval" cx="40" cy="27" r="3" data-original="#3D324C" class="active-path" data-old_color="#3D324C" style="fill:#3D0505"/></g><path id="Shape" d="m29 48c-.5522847 0-1-.4477153-1-1v-19c0-.5522847.4477153-1 1-1s1 .4477153 1 1v19c0 .5522847-.4477153 1-1 1z" fill="#95a5a5" data-original="#95A5A5" class="" data-old_color="#95a5a5" style="fill:#A59595"/><path id="Shape" d="m16 48h-4c-.5522847 0-1-.4477153-1-1s.4477153-1 1-1h4c.5522847 0 1-.4477153 1-1v-17c0-.5522847.4477153-1 1-1s1 .4477153 1 1v17c0 1.6568542-1.3431458 3-3 3z" fill="#95a5a5" data-original="#95A5A5" class="" data-old_color="#95a5a5" style="fill:#A59595"/><path id="Shape" d="m46 48h-4c-1.6568542 0-3-1.3431458-3-3v-17c0-.5522847.4477153-1 1-1s1 .4477153 1 1v17c0 .5522847.4477153 1 1 1h4c.5522847 0 1 .4477153 1 1s-.4477153 1-1 1z" fill="#95a5a5" data-original="#95A5A5" class="" data-old_color="#95a5a5" style="fill:#A59595"/></g></g></g> </svg>
