<?xml version="1.0"?>
<svg xmlns="http://www.w3.org/2000/svg" id="Capa_1" enable-background="new 0 0 512 512" height="512px" viewBox="0 0 512 512" width="512px" class=""><g><g><g><g><g><g><path d="m436 151h-180c-8.291 0-15-6.709-15-15v-121c0-8.291 6.709-15 15-15h180c8.291 0 15 6.709 15 15v121c0 8.291-6.709 15-15 15z" fill="#edf5ff" data-original="#EDF5FF" class="active-path" data-old_color="#edf5ff" style="fill:#FFEDED"/></g></g></g></g><path d="m436 151c8.291 0 15-6.709 15-15v-121c0-8.291-6.709-15-15-15h-180v151z" fill="#d5e8fe" data-original="#D5E8FE" class="" data-old_color="#d5e8fe" style="fill:#FED5D5"/><path d="m497 121h-301c-8.291 0-15 6.709-15 15v301c0 24.814-20.186 45-45 45s-45-20.186-45-45v-301c0-8.291-6.709-15-15-15h-61c-8.291 0-15 6.709-15 15v361c0 8.291 6.709 15 15 15h121 361c8.291 0 15-6.709 15-15v-361c0-8.291-6.709-15-15-15z" fill="#80bfff" data-original="#80BFFF" class="" data-old_color="#80bfff" style="fill:#FF1414"/><path d="m497 121h-241v391h241c8.291 0 15-6.709 15-15v-361c0-8.291-6.709-15-15-15z" fill="#69f" data-original="#69F" class="" data-old_color="#69f" style="fill:#FF3535"/><g id="Fax_1_"><g><g><g><g><path d="m136 512c-41.367 0-75-33.647-75-75v-301c0-41.353 33.633-75 75-75s75 33.647 75 75v301c0 41.353-33.633 75-75 75z" fill="#404a80" data-original="#404A80" class="" style="fill:#290303" data-old_color="#404a80"/></g></g></g></g><g><path d="m376 91h-60c-8.291 0-15-6.709-15-15s6.709-15 15-15h60c8.291 0 15 6.709 15 15s-6.709 15-15 15z" fill="#edf5ff" data-original="#EDF5FF" class="active-path" data-old_color="#edf5ff" style="fill:#FFEDED"/></g><g><path d="m436 272h-180c-8.291 0-15-6.709-15-15v-61c0-8.291 6.709-15 15-15h180c8.291 0 15 6.709 15 15v61c0 8.291-6.709 15-15 15z" fill="#edf5ff" data-original="#EDF5FF" class="active-path" data-old_color="#edf5ff" style="fill:#FFEDED"/></g><g><circle cx="286" cy="317" fill="#d5e8fe" r="15" data-original="#D5E8FE" class="" data-old_color="#d5e8fe" style="fill:#FED5D5"/></g><g><circle cx="346" cy="317" fill="#d5e8fe" r="15" data-original="#D5E8FE" class="" data-old_color="#d5e8fe" style="fill:#FED5D5"/></g><g><circle cx="406" cy="317" fill="#d5e8fe" r="15" data-original="#D5E8FE" class="" data-old_color="#d5e8fe" style="fill:#FED5D5"/></g><g><circle cx="286" cy="377" fill="#d5e8fe" r="15" data-original="#D5E8FE" class="" data-old_color="#d5e8fe" style="fill:#FED5D5"/></g><g><circle cx="346" cy="377" fill="#d5e8fe" r="15" data-original="#D5E8FE" class="" data-old_color="#d5e8fe" style="fill:#FED5D5"/></g><g><circle cx="406" cy="377" fill="#d5e8fe" r="15" data-original="#D5E8FE" class="" data-old_color="#d5e8fe" style="fill:#FED5D5"/></g><g><circle cx="286" cy="437" fill="#d5e8fe" r="15" data-original="#D5E8FE" class="" data-old_color="#d5e8fe" style="fill:#FED5D5"/></g><g><circle cx="346" cy="437" fill="#d5e8fe" r="15" data-original="#D5E8FE" class="" data-old_color="#d5e8fe" style="fill:#FED5D5"/></g><g><circle cx="406" cy="437" fill="#d5e8fe" r="15" data-original="#D5E8FE" class="" data-old_color="#d5e8fe" style="fill:#FED5D5"/></g></g><g><g><g><g><path d="m376 91h-60c-8.291 0-15-6.709-15-15s6.709-15 15-15h60c8.291 0 15 6.709 15 15s-6.709 15-15 15z" fill="#5c6699" data-original="#5C6699" class="" data-old_color="#5c6699" style="fill:#FF3030"/></g></g></g><path d="m436 272c8.291 0 15-6.709 15-15v-61c0-8.291-6.709-15-15-15h-180v91z" fill="#d5e8fe" data-original="#D5E8FE" class="" data-old_color="#d5e8fe" style="fill:#FED5D5"/></g></g></g> </svg>
