<svg xmlns="http://www.w3.org/2000/svg" width="488.371" height="540.576" viewBox="0 0 488.371 540.576">
  <g id="Group_1340" data-name="Group 1340" transform="translate(-2124 -7593)">
    <g id="alert-2" transform="translate(2091.979 7593)">
      <path id="Path_8294" data-name="Path 8294" d="M472.426,64.468,259.093.468a10.248,10.248,0,0,0-6.123,0l-213.333,64a10.668,10.668,0,0,0-7.616,10.219V309.354c0,94.315,143.829,178.219,220.843,202.2a10.668,10.668,0,0,0,6.4,0c76.928-23.979,220.757-107.883,220.757-202.2V74.687A10.668,10.668,0,0,0,472.426,64.468Z" fill="#f32222"/>
      <circle id="Ellipse_170" data-name="Ellipse 170" cx="117.333" cy="117.333" r="117.333" transform="translate(138.688 128.021)" fill="#c52020"/>
      <path id="XMLID_1988_" d="M124.556,73.72H3.769A3.769,3.769,0,0,0,0,77.489v69.4a3.769,3.769,0,0,0,3.769,3.769H50.874v6.9H40.707a3.769,3.769,0,0,0,0,7.537h46.91a3.769,3.769,0,0,0,0-7.537H77.451v-6.9h47.105a3.769,3.769,0,0,0,3.769-3.769v-69.4A3.769,3.769,0,0,0,124.556,73.72ZM69.914,157.554h-11.5v-6.9h11.5Zm50.874-14.435H7.537V81.257h113.25Z" transform="translate(191.859 126.874)" fill="#f3f7ff"/>
    </g>
    <g id="database" transform="translate(2370.528 7872.745)">
      <path id="Path_8298" data-name="Path 8298" d="M241.843,240.8v64.655c0,12.994-20.186,24.27-49.82,29.952a234.627,234.627,0,0,1-43.815,3.929c-51.721,0-93.636-15.158-93.636-33.881V240.8c0,18.73,41.915,33.888,93.636,33.888S241.843,259.53,241.843,240.8Z" transform="translate(0 -78.506)" fill="#f35f5f"/>
      <path id="Path_8299" data-name="Path 8299" d="M241.843,208.406v1.334c0,18.73-41.915,33.888-93.636,33.888S54.572,228.47,54.572,209.74v-64.2c0,18.723,41.915,33.888,93.636,33.888s93.636-15.165,93.636-33.888Z" transform="translate(0 -47.448)" fill="#d11d1d"/>
      <path id="Path_8300" data-name="Path 8300" d="M241.843,50.27v64.21c0,18.723-41.915,33.888-93.636,33.888S54.572,133.2,54.572,114.48V50.27c0,18.716,41.921,33.888,93.636,33.888S241.843,68.986,241.843,50.27Z" transform="translate(0 -16.389)" fill="#f35f5f"/>
      <path id="Path_8301" data-name="Path 8301" d="M148.208,0c51.714,0,93.636,15.171,93.636,33.881s-41.921,33.888-93.636,33.888S54.572,52.6,54.572,33.881,96.493,0,148.208,0Z" fill="#f37e7e"/>
      <g id="Group_1339" data-name="Group 1339" transform="translate(125.966 91.998)">
        <path id="Path_8302" data-name="Path 8302" d="M198.245,149.98h-31a6.74,6.74,0,1,1,0-13.48h31a6.74,6.74,0,1,1,0,13.48Z" transform="translate(-160.502 -136.5)" fill="#d4e1f4"/>
        <path id="Path_8303" data-name="Path 8303" d="M198.245,243.98h-31a6.74,6.74,0,1,1,0-13.48h31a6.74,6.74,0,0,1,0,13.48Z" transform="translate(-160.502 -167.146)" fill="#d4e1f4"/>
        <path id="Path_8304" data-name="Path 8304" d="M198.245,340.98h-31a6.74,6.74,0,1,1,0-13.48h31a6.74,6.74,0,1,1,0,13.48Z" transform="translate(-160.502 -198.77)" fill="#d4e1f4"/>
      </g>
    </g>
  </g>
</svg>
