<svg xmlns="http://www.w3.org/2000/svg" width="364.014" height="512" viewBox="0 0 364.014 512">
  <g id="property" transform="translate(-138.083)">
    <path id="Path_8323" data-name="Path 8323" d="M403.106,58.338a7.6,7.6,0,0,0-7.6,7.6v76.6a7.6,7.6,0,0,0,15.208,0v-76.6A7.6,7.6,0,0,0,403.106,58.338Z" fill="#722d2d"/>
    <path id="Path_8324" data-name="Path 8324" d="M415.9,171.47H390.31a7.994,7.994,0,0,1-7.994-7.994V135.51a7.994,7.994,0,0,1,7.994-7.994H415.9a7.994,7.994,0,0,1,7.994,7.994v27.966A7.994,7.994,0,0,1,415.9,171.47Z" fill="#ff4c4c"/>
    <path id="Path_8325" data-name="Path 8325" d="M452.017,252.546H354.2a7.616,7.616,0,0,1-7.616-7.615V171.1a7.615,7.615,0,0,1,7.616-7.615h97.822a7.615,7.615,0,0,1,7.615,7.615v73.834A7.615,7.615,0,0,1,452.017,252.546Z" fill="#f33a3a"/>
    <path id="Path_8326" data-name="Path 8326" d="M483.348,512H311.693V199.929h167.44a4.215,4.215,0,0,1,4.215,4.215Z" fill="#ff4c4c"/>
    <path id="Path_8327" data-name="Path 8327" d="M479.133,199.929H432.508a4.215,4.215,0,0,1,4.215,4.215V512h46.625V204.144A4.215,4.215,0,0,0,479.133,199.929Z" fill="#f33a3a"/>
    <g id="Group_1346" data-name="Group 1346">
      <path id="Path_8328" data-name="Path 8328" d="M451.246,274.316H352.884a6.3,6.3,0,0,1-6.3-6.3V253.433a6.3,6.3,0,0,1,6.3-6.3h98.362a6.3,6.3,0,0,1,6.3,6.3v14.579A6.3,6.3,0,0,1,451.246,274.316Z" fill="#e1effb"/>
      <path id="Path_8329" data-name="Path 8329" d="M451.246,336.648H352.884a6.3,6.3,0,0,1-6.3-6.3V315.765a6.3,6.3,0,0,1,6.3-6.3h98.362a6.3,6.3,0,0,1,6.3,6.3v14.579A6.3,6.3,0,0,1,451.246,336.648Z" fill="#e1effb"/>
      <path id="Path_8330" data-name="Path 8330" d="M451.246,398.98H352.884a6.3,6.3,0,0,1-6.3-6.3V378.1a6.3,6.3,0,0,1,6.3-6.3h98.362a6.3,6.3,0,0,1,6.3,6.3v14.579A6.3,6.3,0,0,1,451.246,398.98Z" fill="#e1effb"/>
      <path id="Path_8331" data-name="Path 8331" d="M451.246,461.312H352.884a6.3,6.3,0,0,1-6.3-6.3V440.429a6.3,6.3,0,0,1,6.3-6.3h98.362a6.3,6.3,0,0,1,6.3,6.3v14.579A6.3,6.3,0,0,1,451.246,461.312Z" fill="#e1effb"/>
    </g>
    <path id="Path_8332" data-name="Path 8332" d="M356.319,512H158.1a5.738,5.738,0,0,1-5.739-5.739V14.92A5.738,5.738,0,0,1,158.1,9.181h198.22a5.738,5.738,0,0,1,5.739,5.739V506.261A5.738,5.738,0,0,1,356.319,512Z" fill="#ff2525"/>
    <g id="Group_1347" data-name="Group 1347">
      <path id="Path_8333" data-name="Path 8333" d="M356.32,9.181H309.7a5.738,5.738,0,0,1,5.739,5.739V506.261A5.738,5.738,0,0,1,309.7,512H356.32a5.738,5.738,0,0,0,5.739-5.739V14.92A5.739,5.739,0,0,0,356.32,9.181Z" fill="#ff1d1d"/>
      <path id="Path_8334" data-name="Path 8334" d="M371.068,0H140.932a2.849,2.849,0,0,0-2.849,2.849V22.165a2.849,2.849,0,0,0,2.849,2.849H371.068a2.849,2.849,0,0,0,2.849-2.849V2.849A2.849,2.849,0,0,0,371.068,0Z" fill="#ff1d1d"/>
    </g>
    <g id="Group_1348" data-name="Group 1348">
      <path id="Path_8335" data-name="Path 8335" d="M209.865,93.9H181.978a3.557,3.557,0,0,1-3.557-3.557V56.293a3.557,3.557,0,0,1,3.557-3.557h27.887a3.557,3.557,0,0,1,3.557,3.557V90.344A3.557,3.557,0,0,1,209.865,93.9Z" fill="#e1effb"/>
      <path id="Path_8336" data-name="Path 8336" d="M271.153,93.9H243.266a3.557,3.557,0,0,1-3.557-3.557V56.293a3.557,3.557,0,0,1,3.557-3.557h27.887a3.557,3.557,0,0,1,3.557,3.557V90.344A3.557,3.557,0,0,1,271.153,93.9Z" fill="#e1effb"/>
      <path id="Path_8337" data-name="Path 8337" d="M332.44,93.9H304.553A3.557,3.557,0,0,1,301,90.343V56.293a3.557,3.557,0,0,1,3.557-3.557H332.44A3.557,3.557,0,0,1,336,56.293V90.344A3.556,3.556,0,0,1,332.44,93.9Z" fill="#e1effb"/>
      <path id="Path_8338" data-name="Path 8338" d="M209.865,185.753H181.978a3.557,3.557,0,0,1-3.557-3.557V148.145a3.557,3.557,0,0,1,3.557-3.557h27.887a3.557,3.557,0,0,1,3.557,3.557V182.2A3.557,3.557,0,0,1,209.865,185.753Z" fill="#e1effb"/>
      <path id="Path_8362" data-name="Path 8362" d="M209.865,185.753H181.978a3.557,3.557,0,0,1-3.557-3.557V148.145a3.557,3.557,0,0,1,3.557-3.557h27.887a3.557,3.557,0,0,1,3.557,3.557V182.2A3.557,3.557,0,0,1,209.865,185.753Z" transform="translate(0 184)" fill="#e1effb"/>
      <path id="Path_8339" data-name="Path 8339" d="M271.153,185.753H243.266a3.557,3.557,0,0,1-3.557-3.557V148.145a3.557,3.557,0,0,1,3.557-3.557h27.887a3.557,3.557,0,0,1,3.557,3.557V182.2A3.558,3.558,0,0,1,271.153,185.753Z" fill="#e1effb"/>
      <path id="Path_8340" data-name="Path 8340" d="M332.44,185.753H304.553A3.557,3.557,0,0,1,301,182.2V148.145a3.557,3.557,0,0,1,3.557-3.557H332.44A3.557,3.557,0,0,1,336,148.145V182.2A3.556,3.556,0,0,1,332.44,185.753Z" fill="#e1effb"/>
      <path id="Path_8341" data-name="Path 8341" d="M209.865,277.606H181.978a3.557,3.557,0,0,1-3.557-3.557V240a3.557,3.557,0,0,1,3.557-3.557h27.887A3.557,3.557,0,0,1,213.422,240v34.051A3.557,3.557,0,0,1,209.865,277.606Z" fill="#e1effb"/>
      <path id="Path_8361" data-name="Path 8361" d="M209.865,277.606H181.978a3.557,3.557,0,0,1-3.557-3.557V240a3.557,3.557,0,0,1,3.557-3.557h27.887A3.557,3.557,0,0,1,213.422,240v34.051A3.557,3.557,0,0,1,209.865,277.606Z" transform="translate(0 184)" fill="#e1effb"/>
      <path id="Path_8342" data-name="Path 8342" d="M271.153,277.606H243.266a3.557,3.557,0,0,1-3.557-3.557V240a3.557,3.557,0,0,1,3.557-3.557h27.887A3.557,3.557,0,0,1,274.71,240v34.051A3.558,3.558,0,0,1,271.153,277.606Z" fill="#e1effb"/>
      <path id="Path_8343" data-name="Path 8343" d="M332.44,277.606H304.553A3.557,3.557,0,0,1,301,274.049V240a3.557,3.557,0,0,1,3.557-3.557H332.44A3.557,3.557,0,0,1,336,240v34.051A3.556,3.556,0,0,1,332.44,277.606Z" fill="#e1effb"/>
      <path id="Path_8344" data-name="Path 8344" d="M271.153,369.459H243.266a3.557,3.557,0,0,1-3.557-3.557V331.851a3.557,3.557,0,0,1,3.557-3.557h27.887a3.557,3.557,0,0,1,3.557,3.557V365.9A3.558,3.558,0,0,1,271.153,369.459Z" fill="#e1effb"/>
      <path id="Path_8345" data-name="Path 8345" d="M332.44,369.459H304.553A3.557,3.557,0,0,1,301,365.9V331.851a3.557,3.557,0,0,1,3.557-3.557H332.44A3.557,3.557,0,0,1,336,331.851V365.9A3.556,3.556,0,0,1,332.44,369.459Z" fill="#e1effb"/>
      <path id="Path_8346" data-name="Path 8346" d="M271.153,461.312H243.266a3.557,3.557,0,0,1-3.557-3.557V423.7a3.557,3.557,0,0,1,3.557-3.557h27.887a3.557,3.557,0,0,1,3.557,3.557v34.051A3.558,3.558,0,0,1,271.153,461.312Z" fill="#e1effb"/>
      <path id="Path_8347" data-name="Path 8347" d="M332.44,461.312H304.553A3.557,3.557,0,0,1,301,457.755V423.7a3.557,3.557,0,0,1,3.557-3.557H332.44A3.557,3.557,0,0,1,336,423.7v34.051A3.556,3.556,0,0,1,332.44,461.312Z" fill="#e1effb"/>
    </g>
    <path id="Path_8359" data-name="Path 8359" d="M365.231,488.51H18.59c-4.8,0-8.686,5.258-8.686,11.745h0C9.9,506.742,13.793,512,18.59,512H365.232c4.8,0,8.686-5.258,8.686-11.745h0C373.917,493.769,370.029,488.51,365.231,488.51Z" transform="translate(128.179)" fill="#722d2d"/>
    <path id="Path_8360" data-name="Path 8360" d="M373.862,498.966c-.007-.078-.018-.154-.026-.232-.034-.356-.078-.708-.135-1.054-.008-.049-.019-.1-.028-.146q-.1-.568-.24-1.115l-.011-.042q-.153-.59-.35-1.149h0c-1.394-3.968-4.377-6.718-7.842-6.718h-25.8V491.5c0,5.768-3.458,10.445-7.725,10.445H18.59c-3.465,0-6.448-2.75-7.842-6.718a15.177,15.177,0,0,0-.845,5.027h0C9.9,506.74,13.793,512,18.59,512h346.64c4.8,0,8.686-5.258,8.686-11.745h0C373.917,499.819,373.9,499.389,373.862,498.966Z" transform="translate(128.179)" fill="#531111"/>
  </g>
</svg>
