<?xml version="1.0"?>
<svg xmlns="http://www.w3.org/2000/svg" xmlns:xlink="http://www.w3.org/1999/xlink" version="1.1" id="Capa_1" x="0px" y="0px" viewBox="0 0 512.001 512.001" style="enable-background:new 0 0 512.001 512.001;" xml:space="preserve" width="512px" height="512px" class=""><g><path style="fill:#FC4200" d="M192.88,397.253c-12.146,19.737-36.204,49.401-76.378,58.86l9.226-30.365  c0,0-35.62,23.708-69.838,30.365c6.657-34.335,30.365-69.838,30.365-69.838l-30.365,9.226c9.459-40.174,39.123-64.232,58.86-76.378  l84.097-17.659L192.88,397.253z" data-original="#FCC400" class="active-path" data-old_color="#FCC400"/><path style="fill:#E30E08;" d="M325.746,478.012c-43.88,43.88-114.137,45.27-159.68,4.188c17.978-1.905,37.359-16.205,40.07-41.369  c1.13-10.452-0.628-22.786-6.559-36.886l-91.521-91.521c-14.1-5.931-26.434-7.689-36.886-6.559  c-25.164,2.711-39.464,22.091-41.369,40.069c-41.081-45.542-39.693-115.798,4.188-159.68c25.948-25.948,61.141-37.033,94.985-33.252  c15.518,1.736,30.748,6.581,44.678,14.572l170.773,170.773c7.992,13.93,12.845,29.167,14.572,44.678  C362.78,416.869,351.693,452.064,325.746,478.012z" data-original="#E30E08" class=""/><path style="fill:#C40606;" d="M358.998,383.027c-45.454,30.357-97.437,49.501-152.862,57.803  c1.13-10.452-0.628-22.786-6.559-36.886l-91.521-91.521c-14.1-5.931-26.434-7.689-36.886-6.559  c8.302-55.425,27.447-107.409,57.803-152.862c15.518,1.736,30.748,6.581,44.678,14.572l170.773,170.773  C352.417,352.279,357.27,367.515,358.998,383.027z" data-original="#C40606" class=""/><path style="fill:#E3E8EC;" d="M199.574,403.947c71.236-16.361,138.889-52.277,194.384-107.772  C475.463,214.67,514.752,106.943,511.851,0.15C405.058-2.751,297.331,36.537,215.826,118.042  c-55.496,55.496-91.411,123.148-107.772,194.384L199.574,403.947z" data-original="#E3E8EC" class=""/><path style="fill:#D5D8DB;" d="M262.116,164.333c-55.492,55.492-99.66,114.905-130.276,171.874l-23.783-23.783  c16.352-71.231,52.278-138.887,107.77-194.379C297.331,36.539,405.058-2.747,511.852,0.156  C433.56,25.756,343.621,82.829,262.116,164.333z" data-original="#D5D8DB" class=""/><g>
	<path style="fill:#E30E08;" d="M488.032,148.342c-23.864-14.336-47.529-32.728-69.585-54.782   c-10.65-10.65-20.438-21.664-29.33-32.89c-9.536-12.047-18.052-24.344-25.482-36.694C411.15,6.803,461.251-1.137,511.151,0.134   c0.236,0.015,0.473,0.015,0.702,0.022l-0.007,0.007C513.204,50.285,505.279,100.606,488.032,148.342z" data-original="#E30E08" class=""/>
	<path style="fill:#E30E08;" d="M496.202,343.969c-0.007-0.007,0-0.015-0.007-0.022" data-original="#E30E08" class=""/>
</g><path style="fill:#C40606;" d="M511.852,0.156l-0.007,0.007C472.987,12.86,431.256,33.319,389.118,60.67  c-9.536-12.047-18.052-24.344-25.482-36.694C411.15,6.803,461.251-1.137,511.151,0.134C511.387,0.149,511.623,0.149,511.852,0.156z" data-original="#C40606" class=""/><circle style="fill:#E30E08;" cx="332.855" cy="179.15" r="75.26" data-original="#E30E08" class=""/><circle style="fill:#F2A0A0" cx="332.855" cy="179.15" r="50.681" data-original="#A0D9F2" class="" data-old_color="#A0D9F2"/></g> </svg>
