<?xml version="1.0"?>
<svg xmlns="http://www.w3.org/2000/svg" id="Layer_1" enable-background="new 0 0 512 512" height="512px" viewBox="0 0 512 512" width="512px" class=""><g><g fill="#42434d"><path d="m112 474c-4.418 0-8-3.582-8-8v-58c0-4.418 3.582-8 8-8h65.48c4.418 0 8 3.582 8 8s-3.582 8-8 8h-57.48v50c0 4.418-3.582 8-8 8z" data-original="#42434D" class=""/><path d="m426 493h-93.17c-4.418 0-8-3.582-8-8v-76.11c0-4.418 3.582-8 8-8s8 3.582 8 8v68.11h85.17c4.418 0 8 3.582 8 8s-3.582 8-8 8z" data-original="#42434D" class=""/><path d="m485 329c-4.418 0-8-3.582-8-8v-57h-56c-4.418 0-8-3.582-8-8s3.582-8 8-8h64c4.418 0 8 3.582 8 8v65c0 4.418-3.582 8-8 8z" data-original="#42434D" class=""/><path d="m114.36 329h-87.36c-4.418 0-8-3.582-8-8v-34c0-4.418 3.582-8 8-8s8 3.582 8 8v26h79.36c4.418 0 8 3.582 8 8s-3.582 8-8 8z" data-original="#42434D" class=""/><path d="m154.7 95h-82.7c-4.418 0-8-3.582-8-8v-41c0-4.418 3.582-8 8-8s8 3.582 8 8v33h74.7c4.418 0 8 3.582 8 8s-3.581 8-8 8z" data-original="#42434D" class=""/><path d="m398.54 142c-4.418 0-8-3.582-8-8v-93c0-4.418 3.582-8 8-8h67.46c4.418 0 8 3.582 8 8s-3.582 8-8 8h-59.46v85c0 4.418-3.582 8-8 8z" data-original="#42434D" class=""/></g><path d="m440 150.06v26.5c0 116.23-56.68 195.51-107.17 242.33-21.16 19.62-41.23 33.54-55.59 42.1-12.36 7.37-27.75 7.49-40.24.33-102.19-58.552-165-167.316-165-284.76v-26.5c0-7.86 5.72-14.48 13.47-15.79 37.801-6.423 66.53-39.289 66.53-78.87 0-5.53 4.48-10 10-10h188c5.52 0 10 4.47 10 10 0 39.667 28.821 72.448 66.53 78.87 7.75 1.31 13.47 7.93 13.47 15.79z" fill="#e2f2ff" data-original="#E2F2FF" class="active-path" data-old_color="#e2f2ff" style="fill:#FF1919"/><path d="m98.12 176.19v26.5c0 82.12 30.65 159.54 83.45 218.65-68.452-60.812-109.57-149.921-109.57-244.78v-26.5c0-7.86 5.72-14.48 13.47-15.79 37.801-6.423 66.53-39.289 66.53-78.87 0-5.53 4.48-10 10-10h188c5.52 0 10 4.47 10 10 0 5.52.56 10.91 1.63 16.12h-173.51c-5.52 0-10 4.48-10 10 0 39.584-28.718 72.455-66.53 78.88-7.75 1.31-13.47 7.93-13.47 15.79z" fill="#f1f8fe" data-original="#F1F8FE" class="" data-old_color="#f1f8fe" style="fill:#FF1818"/><path d="m379 185.18v17.72c0 110.25-76.29 170.76-108.8 190.13-8.26 4.93-18.55 5.01-26.9.22-67.9-38.89-110.3-111.37-110.3-190.35v-17.72c0-5.25 3.82-9.68 9-10.56 25.219-4.273 44.48-26.235 44.48-52.72 0-3.69 2.99-6.68 6.68-6.68 137.214 0 127.624-.84 130.4 1.96 1.21 1.2 1.96 2.88 1.96 4.72 0 26.48 19.24 48.44 44.47 52.72 5.18.88 9.01 5.31 9.01 10.56z" fill="#a4d29c" data-original="#A4D29C" class="" data-old_color="#a4d29c" style="fill:#A11F09"/><path d="m292 246c-4.418 0-8-3.582-8-8v-38c0-15.325-12.374-28-28-28-15.439 0-28 12.561-28 28v38c0 4.418-3.582 8-8 8s-8-3.582-8-8v-38c0-24.262 19.738-44 44-44 24.136 0 44 19.503 44 44v38c0 4.418-3.582 8-8 8z" fill="#e2f2ff" data-original="#E2F2FF" class="active-path" data-old_color="#e2f2ff" style="fill:#FF1919"/><path d="m308 238v52c0 5.523-4.477 10-10 10h-84c-5.523 0-10-4.477-10-10v-52c0-5.523 4.477-10 10-10h84c5.523 0 10 4.477 10 10z" fill="#fedf84" data-original="#FEDF84" class="" data-old_color="#fedf84" style="fill:#FFFFFF"/><path d="m308 238v52c0 5.52-4.48 10-10 10h-84c-5.52 0-10-4.48-10-10 0-1.447-9.195-1 83-1 5.52 0 10-4.48 10-10v-51c7.211 0 11 4.845 11 10z" fill="#fed66b" data-original="#FED66B" class="" data-old_color="#fed66b" style="fill:#FFD8D8"/><path d="m440 150.06v26.5c0 116.23-56.68 195.51-107.17 242.33-21.16 19.62-41.23 33.54-55.59 42.1-12.36 7.37-27.75 7.49-40.24.33-4.5-2.58-8.93-5.26-13.27-8.03 9.33 1.7 19.12.03 27.51-4.97 14.36-8.56 34.43-22.48 55.59-42.1 50.49-46.82 107.17-126.1 107.17-242.33 0-28.653.518-29.037-1.56-33.38 4.52 1.67 9.23 2.93 14.09 3.76 7.75 1.31 13.47 7.93 13.47 15.79z" fill="#cfebfc" data-original="#CFEBFC" class="" data-old_color="#cfebfc" style="fill:#FF2D2D"/><path d="m101 36v-18c0-9.925-8.075-18-18-18h-18c-9.925 0-18 8.075-18 18v18c0 9.925 8.075 18 18 18h18c9.925 0 18-8.075 18-18z" fill="#8ab2ff" data-original="#8AB2FF" class="" data-old_color="#8ab2ff" style="fill:#FF8A8A"/><path d="m36 241h-18c-9.925 0-18 8.075-18 18v18c0 9.925 8.075 18 18 18h18c9.925 0 18-8.075 18-18v-18c0-9.925-8.075-18-18-18z" fill="#8ab2ff" data-original="#8AB2FF" class="" data-old_color="#8ab2ff" style="fill:#FF8A8A"/><path d="m121 458h-18c-9.925 0-18 8.075-18 18v18c0 9.925 8.075 18 18 18h18c9.925 0 18-8.075 18-18v-18c0-9.925-8.075-18-18-18z" fill="#8ab2ff" data-original="#8AB2FF" class="" data-old_color="#8ab2ff" style="fill:#FF8A8A"/><path d="m454 458h-18c-9.925 0-18 8.075-18 18v18c0 9.925 8.075 18 18 18h18c9.925 0 18-8.075 18-18v-18c0-9.925-8.075-18-18-18z" fill="#8ab2ff" data-original="#8AB2FF" class="" data-old_color="#8ab2ff" style="fill:#FF8A8A"/><path d="m494 313h-18c-9.925 0-18 8.075-18 18v18c0 9.925 8.075 18 18 18h18c9.925 0 18-8.075 18-18v-18c0-9.925-8.075-18-18-18z" fill="#8ab2ff" data-original="#8AB2FF" class="" data-old_color="#8ab2ff" style="fill:#FF8A8A"/><path d="m494 14h-18c-9.925 0-18 8.075-18 18v18c0 9.925 8.075 18 18 18h18c9.925 0 18-8.075 18-18v-18c0-9.925-8.075-18-18-18z" fill="#8ab2ff" data-original="#8AB2FF" class="" data-old_color="#8ab2ff" style="fill:#FF8A8A"/><path d="m256 276c-4.418 0-8-3.582-8-8v-7c0-4.418 3.582-8 8-8s8 3.582 8 8v7c0 4.418-3.582 8-8 8z" fill="#fed66b" data-original="#FED66B" class="" data-old_color="#fed66b" style="fill:#FFD8D8"/></g> </svg>
