<?xml version="1.0"?>
<svg xmlns="http://www.w3.org/2000/svg" xmlns:xlink="http://www.w3.org/1999/xlink" version="1.1" id="Capa_1" x="0px" y="0px" viewBox="0 0 384 384" style="enable-background:new 0 0 384 384;" xml:space="preserve" width="512px" height="512px" class=""><g><g>
	<g>
		<g>
			<path d="M224,149.333h-21.333c-5.896,0-10.667,4.771-10.667,10.667s4.771,10.667,10.667,10.667H224c17.646,0,32-14.354,32-32     c0-17.646-14.354-32-32-32c-5.875,0-10.667-4.781-10.667-10.667S218.125,85.333,224,85.333h21.333     c5.896,0,10.667-4.771,10.667-10.667C256,68.771,251.229,64,245.333,64H224c-17.646,0-32,14.354-32,32s14.354,32,32,32     c5.875,0,10.667,4.781,10.667,10.667C234.667,144.552,229.875,149.333,224,149.333z" data-original="#000000" class="active-path" data-old_color="#000000" fill="#EC3A3A"/>
			<path d="M288,170.667c5.896,0,10.667-4.771,10.667-10.667V74.667C298.667,68.771,293.896,64,288,64     c-5.896,0-10.667,4.771-10.667,10.667V160C277.333,165.896,282.104,170.667,288,170.667z" data-original="#000000" class="active-path" data-old_color="#000000" fill="#EC3A3A"/>
			<path d="M330.667,170.667c5.896,0,10.667-4.771,10.667-10.667v-32H352c17.646,0,32-14.354,32-32s-14.354-32-32-32h-21.333     C324.771,64,320,68.771,320,74.667V160C320,165.896,324.771,170.667,330.667,170.667z M341.333,85.333H352     c5.875,0,10.667,4.781,10.667,10.667s-4.792,10.667-10.667,10.667h-10.667V85.333z" data-original="#000000" class="active-path" data-old_color="#000000" fill="#EC3A3A"/>
			<path d="M353.188,252.052c-23.521,0-46.604-3.677-68.479-10.906c-10.729-3.635-23.896-0.302-30.438,6.417l-43.167,32.594     c-50.063-26.729-80.917-57.563-107.292-107.26l31.667-42.073c8.229-8.229,11.146-20.219,7.604-31.427     c-7.25-22.021-10.938-45.104-10.938-68.583C132.146,13.823,118.333,0,101.333,0H30.812C13.812,0,0,13.823,0,30.812     C0,225.563,158.438,384,353.188,384c17,0,30.813-13.823,30.813-30.813v-70.323C384,265.875,370.188,252.052,353.188,252.052z" data-original="#000000" class="active-path" data-old_color="#000000" fill="#EC3A3A"/>
		</g>
	</g>
</g></g> </svg>
