<svg xmlns="http://www.w3.org/2000/svg" width="134.764" height="116.466" viewBox="0 0 134.764 116.466">
  <g id="layers_1_" data-name="layers (1)" transform="translate(0 -27.139)">
    <path id="Path_8305" data-name="Path 8305" d="M3.17,63.994l62,26.419a4.468,4.468,0,0,0,2.113.352,8.828,8.828,0,0,0,2.113-.352l62-26.419a5.421,5.421,0,0,0,0-9.864l-62-26.6a5.836,5.836,0,0,0-4.227,0l-62,26.6a5.421,5.421,0,0,0,0,9.863Z" transform="translate(0 0)" fill="#f32222"/>
    <path id="Path_8306" data-name="Path 8306" d="M127.317,263.052,67.432,288.767,7.549,263.052A5.174,5.174,0,0,0,.68,265.87,5.174,5.174,0,0,0,3.5,272.738l62,26.6a4.468,4.468,0,0,0,2.113.352,8.83,8.83,0,0,0,2.113-.352l62-26.6a5.385,5.385,0,0,0,2.818-6.869A5.872,5.872,0,0,0,127.317,263.052Z" transform="translate(-0.151 -156.082)" fill="#f9a3a3"/>
    <path id="Path_8307" data-name="Path 8307" d="M3.265,194.693l62,26.419a4.467,4.467,0,0,0,2.113.352,8.827,8.827,0,0,0,2.113-.352l62-26.419a5.321,5.321,0,0,0,2.818-6.869,5.385,5.385,0,0,0-6.869-2.818l-60.06,25.363L7.492,184.83a5.368,5.368,0,0,0-4.227,9.863Z" transform="translate(-0.094 -104.28)" fill="#d46161"/>
  </g>
</svg>
