<svg xmlns="http://www.w3.org/2000/svg" width="109.344" height="109.562" viewBox="0 0 109.344 109.562">
  <g id="town" transform="translate(-16.085 -32.062)">
    <rect id="Rectangle_258" data-name="Rectangle 258" width="67.473" height="109.561" transform="translate(36.913 32.062)" fill="#f32222"/>
    <path id="Path_8309" data-name="Path 8309" d="M52.752,293.146H73.579V217.212L52.752,227.843Z" transform="translate(-36.667 -151.523)" fill="#ee8484"/>
    <path id="Path_8311" data-name="Path 8311" d="M390.088,293.146H369.261V217.212l20.827,10.631Z" transform="translate(-264.659 -151.523)" fill="#ee8484"/>
    <g id="Group_1342" data-name="Group 1342" transform="translate(44.072 39.221)">
      <rect id="Rectangle_259" data-name="Rectangle 259" width="8.678" height="8.678" fill="#fff"/>
      <rect id="Rectangle_260" data-name="Rectangle 260" width="8.678" height="8.678" transform="translate(14.97)" fill="#fff"/>
      <rect id="Rectangle_261" data-name="Rectangle 261" width="8.678" height="8.678" transform="translate(29.723)" fill="#fff"/>
      <rect id="Rectangle_262" data-name="Rectangle 262" width="8.678" height="8.678" transform="translate(44.692)" fill="#fff"/>
      <rect id="Rectangle_263" data-name="Rectangle 263" width="8.678" height="8.678" transform="translate(0 14.319)" fill="#fff"/>
      <rect id="Rectangle_264" data-name="Rectangle 264" width="8.678" height="8.678" transform="translate(14.97 14.319)" fill="#fff"/>
      <rect id="Rectangle_265" data-name="Rectangle 265" width="8.678" height="8.678" transform="translate(29.723 14.319)" fill="#fff"/>
      <rect id="Rectangle_266" data-name="Rectangle 266" width="8.678" height="8.678" transform="translate(44.692 14.319)" fill="#fff"/>
      <rect id="Rectangle_267" data-name="Rectangle 267" width="8.678" height="8.678" transform="translate(0 29.399)" fill="#fff"/>
      <rect id="Rectangle_268" data-name="Rectangle 268" width="8.678" height="8.678" transform="translate(14.97 29.399)" fill="#fff"/>
      <rect id="Rectangle_269" data-name="Rectangle 269" width="8.678" height="8.678" transform="translate(29.723 29.399)" fill="#fff"/>
      <rect id="Rectangle_270" data-name="Rectangle 270" width="8.678" height="8.678" transform="translate(44.692 29.399)" fill="#fff"/>
      <rect id="Rectangle_271" data-name="Rectangle 271" width="8.678" height="8.678" transform="translate(0 43.988)" fill="#fff"/>
      <rect id="Rectangle_272" data-name="Rectangle 272" width="8.678" height="8.678" transform="translate(14.97 43.988)" fill="#fff"/>
      <rect id="Rectangle_273" data-name="Rectangle 273" width="8.678" height="8.678" transform="translate(29.723 43.988)" fill="#fff"/>
      <rect id="Rectangle_274" data-name="Rectangle 274" width="8.678" height="8.678" transform="translate(44.692 43.988)" fill="#fff"/>
      <rect id="Rectangle_275" data-name="Rectangle 275" width="8.678" height="8.678" transform="translate(0 58.577)" fill="#fff"/>
      <rect id="Rectangle_276" data-name="Rectangle 276" width="8.678" height="8.678" transform="translate(14.97 58.577)" fill="#fff"/>
      <rect id="Rectangle_277" data-name="Rectangle 277" width="8.678" height="8.678" transform="translate(29.723 58.577)" fill="#fff"/>
      <rect id="Rectangle_278" data-name="Rectangle 278" width="8.678" height="8.678" transform="translate(44.692 58.577)" fill="#fff"/>
      <rect id="Rectangle_279" data-name="Rectangle 279" width="21.261" height="20.394" transform="translate(16.055 82.008)" fill="#fff"/>
    </g>
    <g id="Group_1343" data-name="Group 1343" transform="translate(23.028 81.093)">
      <rect id="Rectangle_280" data-name="Rectangle 280" width="6.942" height="6.942" transform="translate(88.517 46.645)" fill="#fff"/>
      <rect id="Rectangle_281" data-name="Rectangle 281" width="6.942" height="6.942" transform="translate(88.517 34.929)" fill="#fff"/>
      <rect id="Rectangle_282" data-name="Rectangle 282" width="6.942" height="6.942" transform="translate(88.517 23.431)" fill="#fff"/>
      <rect id="Rectangle_283" data-name="Rectangle 283" width="6.942" height="6.942" transform="translate(88.517 11.716)" fill="#fff"/>
      <rect id="Rectangle_284" data-name="Rectangle 284" width="6.942" height="6.942" transform="translate(88.517)" fill="#fff"/>
      <rect id="Rectangle_285" data-name="Rectangle 285" width="6.942" height="6.942" transform="translate(0 46.645)" fill="#fff"/>
      <rect id="Rectangle_286" data-name="Rectangle 286" width="6.942" height="6.942" transform="translate(0 34.929)" fill="#fff"/>
      <rect id="Rectangle_287" data-name="Rectangle 287" width="6.942" height="6.942" transform="translate(0 23.431)" fill="#fff"/>
      <rect id="Rectangle_288" data-name="Rectangle 288" width="6.942" height="6.942" transform="translate(0 11.716)" fill="#fff"/>
      <rect id="Rectangle_289" data-name="Rectangle 289" width="6.942" height="6.942" fill="#fff"/>
    </g>
  </g>
</svg>
