<svg xmlns="http://www.w3.org/2000/svg" width="488.371" height="516.576" viewBox="0 0 488.371 516.576">
  <g id="alert" transform="translate(-32.021)">
    <path id="Path_8294" data-name="Path 8294" d="M472.426,64.468,259.093.468a10.248,10.248,0,0,0-6.123,0l-213.333,64a10.668,10.668,0,0,0-7.616,10.219V309.354c0,94.315,143.829,178.219,220.843,202.2a10.668,10.668,0,0,0,6.4,0c76.928-23.979,220.757-107.883,220.757-202.2V74.687A10.668,10.668,0,0,0,472.426,64.468Z" fill="#f32222"/>
    <circle id="Ellipse_170" data-name="Ellipse 170" cx="117.333" cy="117.333" r="117.333" transform="translate(138.688 128.021)" fill="#c52020"/>
    <g id="data_1_" data-name="data (1)" transform="translate(186.265 119.953)">
      <g id="Group_1338" data-name="Group 1338" transform="translate(0 76)">
        <path id="Path_8297" data-name="Path 8297" d="M122.284,119.461a36.792,36.792,0,0,0-67.729-25.6,28.7,28.7,0,0,0-25.551,3.534,28.381,28.381,0,0,0-12.381,22.348,28.473,28.473,0,0,0,11.986,54.355h82.017a28.476,28.476,0,0,0,11.657-54.633Zm-11.657,46.458H28.611a20.318,20.318,0,0,1-6.511-39.6l2.9-1.028-.187-3.073a20.3,20.3,0,0,1,8.826-18.09c6.308-4.343,14.047-4.643,21.131-1.431l3.682,1.67,1.71-3.663a28.616,28.616,0,0,1,54.552,12.085c0,4.667-.984,7.492-2.073,11.233a34.416,34.416,0,0,0,4.567,2.227,20.323,20.323,0,0,1-6.581,39.675Z" transform="translate(0 -76)" fill="#f3f7ff"/>
      </g>
    </g>
    <g id="database" transform="translate(278.549 255.745)">
      <path id="Path_8298" data-name="Path 8298" d="M241.843,240.8v64.655c0,12.994-20.186,24.27-49.82,29.952a234.627,234.627,0,0,1-43.815,3.929c-51.721,0-93.636-15.158-93.636-33.881V240.8c0,18.73,41.915,33.888,93.636,33.888S241.843,259.53,241.843,240.8Z" transform="translate(0 -78.506)" fill="#f35f5f"/>
      <path id="Path_8299" data-name="Path 8299" d="M241.843,208.406v1.334c0,18.73-41.915,33.888-93.636,33.888S54.572,228.47,54.572,209.74v-64.2c0,18.723,41.915,33.888,93.636,33.888s93.636-15.165,93.636-33.888Z" transform="translate(0 -47.448)" fill="#d11d1d"/>
      <path id="Path_8300" data-name="Path 8300" d="M241.843,50.27v64.21c0,18.723-41.915,33.888-93.636,33.888S54.572,133.2,54.572,114.48V50.27c0,18.716,41.921,33.888,93.636,33.888S241.843,68.986,241.843,50.27Z" transform="translate(0 -16.389)" fill="#f35f5f"/>
      <path id="Path_8301" data-name="Path 8301" d="M148.208,0c51.714,0,93.636,15.171,93.636,33.881s-41.921,33.888-93.636,33.888S54.572,52.6,54.572,33.881,96.493,0,148.208,0Z" fill="#f37e7e"/>
      <g id="Group_1339" data-name="Group 1339" transform="translate(125.966 91.998)">
        <path id="Path_8302" data-name="Path 8302" d="M198.245,149.98h-31a6.74,6.74,0,1,1,0-13.48h31a6.74,6.74,0,1,1,0,13.48Z" transform="translate(-160.502 -136.5)" fill="#d4e1f4"/>
        <path id="Path_8303" data-name="Path 8303" d="M198.245,243.98h-31a6.74,6.74,0,1,1,0-13.48h31a6.74,6.74,0,0,1,0,13.48Z" transform="translate(-160.502 -167.146)" fill="#d4e1f4"/>
        <path id="Path_8304" data-name="Path 8304" d="M198.245,340.98h-31a6.74,6.74,0,1,1,0-13.48h31a6.74,6.74,0,1,1,0,13.48Z" transform="translate(-160.502 -198.77)" fill="#d4e1f4"/>
      </g>
    </g>
  </g>
</svg>
