<svg xmlns="http://www.w3.org/2000/svg" width="129.068" height="113.439" viewBox="0 0 129.068 113.439">
  <g id="work" transform="translate(0 -31)">
    <path id="Path_8312" data-name="Path 8312" d="M203.938,42.344v7.563a3.745,3.745,0,0,1-3.781,3.781h-3.781V42.344a3.744,3.744,0,0,0-3.781-3.781h-30.25a3.744,3.744,0,0,0-3.781,3.781V53.688h-3.781A3.745,3.745,0,0,1,151,49.906V42.344A11.328,11.328,0,0,1,162.344,31h30.25A11.328,11.328,0,0,1,203.938,42.344Z" transform="translate(-112.935 0)" fill="#bbb"/>
    <path id="Path_8313" data-name="Path 8313" d="M271.125,38.563H256V31h15.125a11.328,11.328,0,0,1,11.344,11.344v7.563a3.745,3.745,0,0,1-3.781,3.781h-3.781V42.344A3.744,3.744,0,0,0,271.125,38.563Z" transform="translate(-191.466 0)" fill="#c4c4c4"/>
    <path id="Path_8314" data-name="Path 8314" d="M129.068,98.145v83.189a11.329,11.329,0,0,1-11.344,11.344H11.344A11.329,11.329,0,0,1,0,181.334V98.145A3.713,3.713,0,0,1,1.135,95.5l19.284,43.41h88.23L127.934,95.5A3.715,3.715,0,0,1,129.068,98.145Z" transform="translate(0 -48.239)" fill="#f32222"/>
    <path id="Path_8315" data-name="Path 8315" d="M320.534,98.145v83.189a11.329,11.329,0,0,1-11.344,11.344H256v-53.77h44.115L319.4,95.5A3.715,3.715,0,0,1,320.534,98.145Z" transform="translate(-191.466 -48.239)" fill="#ce1e1e"/>
    <path id="Path_8316" data-name="Path 8316" d="M131.3,92.134l-11.722,43.41a11.326,11.326,0,0,1-10.966,8.394H27.189a11.326,11.326,0,0,1-10.966-8.394L4.5,92.134A3.713,3.713,0,0,1,7.148,91H128.653A3.713,3.713,0,0,1,131.3,92.134Z" transform="translate(-3.366 -44.875)" fill="#e36565"/>
    <path id="Path_8317" data-name="Path 8317" d="M319.4,92.134l-11.722,43.41a11.326,11.326,0,0,1-10.966,8.394H256V91h60.753A3.713,3.713,0,0,1,319.4,92.134Z" transform="translate(-191.466 -44.875)" fill="#e84747"/>
    <path id="Path_8318" data-name="Path 8318" d="M215.032,256h-30.25A3.744,3.744,0,0,0,181,259.781v15.125a3.745,3.745,0,0,0,3.781,3.781h30.25a3.745,3.745,0,0,0,3.781-3.781V259.781A3.744,3.744,0,0,0,215.032,256Z" transform="translate(-135.372 -168.281)" fill="#fff"/>
    <path id="Path_8319" data-name="Path 8319" d="M274.906,259.781v15.125a3.745,3.745,0,0,1-3.781,3.781H256V256h15.125A3.744,3.744,0,0,1,274.906,259.781Z" transform="translate(-191.466 -168.281)" fill="#e8e8e8"/>
  </g>
</svg>
