<svg id="Layer_1" data-name="Layer 1" xmlns="http://www.w3.org/2000/svg" viewBox="0 0 870.93 1029.83"><defs><style>.cls-1{opacity:0.2;}.cls-10,.cls-11,.cls-12,.cls-13,.cls-2,.cls-3,.cls-4,.cls-5,.cls-6,.cls-7,.cls-8,.cls-9{fill:#dd131f;}.cls-2{fill-opacity:0;}.cls-3{opacity:0.09;}.cls-10,.cls-11,.cls-12,.cls-17,.cls-19,.cls-3,.cls-4,.cls-5,.cls-6,.cls-7,.cls-8,.cls-9{isolation:isolate;}.cls-4{opacity:0.18;}.cls-5{opacity:0.27;}.cls-6{opacity:0.36;}.cls-7{opacity:0.46;}.cls-8{opacity:0.55;}.cls-9{opacity:0.64;}.cls-10{opacity:0.73;}.cls-11{opacity:0.82;}.cls-12{opacity:0.91;}.cls-14,.cls-17{fill:#dee2f3;}.cls-15{fill:#fff;}.cls-16{opacity:0;}.cls-17,.cls-19{opacity:0.7;}.cls-18,.cls-19{fill:#c2c4cf;}.cls-20{fill:#fdfeff;}</style></defs><g id="Group_1267" data-name="Group 1267"><g id="Group_1235" data-name="Group 1235"><g id="Group_1234" data-name="Group 1234" class="cls-1"><path id="Path_7837" data-name="Path 7837" class="cls-2" d="M294.32,1029.83c14.17,0,27-3.1,37.19-9L849.6,722.66c13.56-7.83,21.33-20.22,21.33-34,0-15.09-9.36-29.15-25.69-38.58l-223.47-129c-12.83-7.4-28.86-11.48-45.16-11.48-14.17,0-27,3.1-37.18,9L21.33,816.77C7.77,824.6,0,837,0,850.75c0,15.09,9.36,29.15,25.69,38.58l223.48,129C262,1025.76,278,1029.83,294.32,1029.83Z"/><path id="Path_7838" data-name="Path 7838" class="cls-3" d="M539.84,519.45,21.75,817.66c-13,7.52-20.4,19.33-20.34,32.42.06,14.3,9,27.69,24.7,36.73L239.49,1010c.35.2,10.82,6.19,11.22,6.31,13.16,7.19,29.51,10.83,45.44,10.18a79.8,79.8,0,0,0,36.67-9.8L848.05,720.14c13-7.53,20.4-19.34,20.34-32.43-.07-14.3-9-27.69-24.7-36.73L621.55,522.73a92.88,92.88,0,0,0-16.5-7.33,95.85,95.85,0,0,0-28.21-4.61C562.78,510.65,549.9,513.64,539.84,519.45Z"/><path id="Path_7839" data-name="Path 7839" class="cls-4" d="M540.26,520.34,22.17,818.55C9.67,825.76,2.69,837,2.82,849.41c.13,13.51,8.7,26.22,23.7,34.88l214.39,123.78c.69.4,10.53,6,11.33,6.21a86.55,86.55,0,0,0,45.73,8.89c11.59,0,27.83-5.83,36.14-10.63L846.49,717.62c12.49-7.21,19.47-18.46,19.34-30.86-.12-13.51-8.69-26.22-23.7-34.88L621.33,524.4A106.27,106.27,0,0,0,605,517a95.6,95.6,0,0,0-27.94-5C563.13,511.72,550.22,514.58,540.26,520.34Z"/><path id="Path_7840" data-name="Path 7840" class="cls-5" d="M540.67,521.23,22.58,819.44C10.62,826.35,4,837,4.22,848.74c.19,12.72,8.37,24.75,22.71,33l215.4,124.37c1,.59,10.25,5.74,11.45,6.1a83.85,83.85,0,0,0,46,7.59c10.3,0,28.24-7.19,35.63-11.46L844.93,715.1c12-6.91,18.54-17.57,18.35-29.3-.19-12.72-8.36-24.75-22.71-33L621.11,526.07A123.48,123.48,0,0,0,605,518.5a95.12,95.12,0,0,0-27.68-5.3C563.47,512.79,550.55,515.53,540.67,521.23Z"/><path id="Path_7841" data-name="Path 7841" class="cls-6" d="M541.09,522.12,23,820.34C11.57,826.94,5.38,837,5.64,848.07c.25,11.93,8,23.28,21.71,31.18l216.41,125c1.38.79,10,5.51,11.57,6a81.29,81.29,0,0,0,46.3,6.28c9,0,28.64-8.55,35.1-12.29L843.38,712.58c11.42-6.6,17.61-16.69,17.36-27.73-.26-11.94-8-23.29-21.72-31.19L620.9,527.73a146.51,146.51,0,0,0-16-7.69,94.78,94.78,0,0,0-27.41-5.64C563.81,513.85,550.87,516.48,541.09,522.12Z"/><path id="Path_7842" data-name="Path 7842" class="cls-7" d="M541.5,523,23.41,821.23C12.52,827.52,6.73,837,7,847.4c.32,11.14,7.7,21.81,20.73,29.33l217.42,125.53c1.72,1,9.67,5.29,11.67,5.91,14.5,6.35,32.12,8.21,46.59,5,7.73,0,29.05-9.92,34.59-13.12l503.78-290c10.89-6.29,16.69-15.81,16.37-26.17-.32-11.15-7.69-21.81-20.72-29.34L620.69,529.4c-2.79-1.61-12.6-6.64-15.8-7.8a94,94,0,0,0-27.14-6C564.16,514.92,551.19,517.42,541.5,523Z"/><path id="Path_7843" data-name="Path 7843" class="cls-8" d="M541.92,523.91,23.83,822.12c-10.36,6-15.76,14.93-15.38,24.61.39,10.35,7.36,20.34,19.73,27.48l218.43,126.11c2.07,1.19,9.39,5.07,11.79,5.81,14.84,6.14,32.77,7.56,46.87,3.69,6.44,0,29.46-11.29,34.07-14L840.27,707.53c10.36-6,15.75-14.93,15.37-24.6-.38-10.36-7.36-20.35-19.73-27.49L620.48,531.07c-2.33-1.35-13-6.93-15.62-7.93-8.33-3.12-17.46-5.75-26.88-6.33C564.5,516,551.51,518.37,541.92,523.91Z"/><path id="Path_7844" data-name="Path 7844" class="cls-9" d="M542.33,524.8,24.24,823c-9.82,5.68-14.82,14-14.38,23,.45,9.56,7,18.87,18.74,25.63L248,998.39c2.4,1.38,9.1,4.84,11.91,5.7,15.16,5.93,33.41,6.91,47.15,2.4,5.15,0,29.85-12.65,33.55-14.78L838.71,705c9.83-5.67,14.83-14,14.39-23-.45-9.57-7-18.88-18.74-25.64L620.26,532.73c-1.86-1.07-13.34-7.22-15.45-8-8.22-3.18-17.25-6-26.61-6.67C564.84,517.05,551.83,519.32,542.33,524.8Z"/><path id="Path_7845" data-name="Path 7845" class="cls-10" d="M542.75,525.7,24.66,823.91c-9.29,5.36-13.89,13.16-13.39,21.48.51,8.77,6.69,17.4,17.74,23.78L249.46,996.45a80.68,80.68,0,0,0,12,5.61c15.5,5.71,34.06,6.25,47.44,1.1,3.86,0,30.25-14,33-15.62l495.2-285c9.29-5.37,13.89-13.17,13.38-21.48-.51-8.77-6.69-17.4-17.74-23.78L620.05,534.4c-1.4-.8-13.69-7.53-15.27-8.16-8.13-3.25-17-6.25-26.35-7C565.19,518.12,552.15,520.27,542.75,525.7Z"/><path id="Path_7846" data-name="Path 7846" class="cls-11" d="M543.16,526.59,25.08,824.8c-8.76,5.06-13,12.29-12.4,19.92.57,8,6.36,15.93,16.75,21.93L250.89,994.51A72,72,0,0,0,263,1000c15.84,5.5,34.72,5.6,47.73-.2,2.58,0,30.66-15.38,32.51-16.45L835.6,700c8.76-5.06,13-12.29,12.4-19.92-.58-8-6.36-15.93-16.75-21.93L619.83,536.06c-.93-.53-14-7.84-15.09-8.27-8-3.31-16.84-6.5-26.08-7.37C565.53,519.19,552.47,521.21,543.16,526.59Z"/><path id="Path_7847" data-name="Path 7847" class="cls-12" d="M543.58,527.48,25.49,825.69c-8.23,4.75-12,11.4-11.4,18.36.64,7.19,6,14.46,15.76,20.08L252.32,992.57A65,65,0,0,0,264.57,998c16.17,5.3,35.37,4.95,48-1.5,1.29,0,31.07-16.75,32-17.28L834.05,697.46c8.23-4.75,12-11.4,11.4-18.36-.64-7.19-6-14.46-15.76-20.08L619.61,537.73c-.46-.27-14.39-8.17-14.91-8.39-8-3.38-16.64-6.75-25.81-7.72C565.88,520.25,552.79,522.16,543.58,527.48Z"/><path id="Path_7848" data-name="Path 7848" class="cls-13" d="M314.4,993.15,832.49,694.94c15.55-9,13.6-24.66-4.35-35l-223.48-129c-17.95-10.37-45.11-11.49-60.66-2.52L25.91,826.59c-15.55,9-13.6,24.65,4.35,35l223.48,129C271.69,1001,298.85,1002.13,314.4,993.15Z"/></g><path id="Path_7849" data-name="Path 7849" class="cls-14" d="M241,938.5,32.08,817.87c-23.57-13.61-20.62-37.37,6.6-53.09L530,481.14c27.21-15.71,68.38-17.42,91.95-3.81L830.84,598c23.56,13.6,20.61,37.37-6.6,53.08L333,934.69C305.74,950.4,264.57,952.1,241,938.5Z"/><path id="Path_7850" data-name="Path 7850" class="cls-13" d="M241,934.92,32.08,814.29c-10.53-6.08-15.77-14.19-15.91-22.7,0-.75,0-17.13.08-17.89.87-9.85,8.45-4.42,22.43-12.5L530,477.56c27.21-15.71,68.38-17.42,91.95-3.81L830.84,594.38c10.52,6.07,15.75-4.62,15.9,3.88,0,.74,0,20.28-.07,21-.85,9.87-8.43,20.1-22.43,28.18L333,931.1C305.74,946.82,264.57,948.52,241,934.92Z"/><path id="Path_7851" data-name="Path 7851" class="cls-14" d="M241,917,32.08,796.39C8.51,782.78,11.46,759,38.68,743.3L530,459.66c27.21-15.71,68.38-17.42,91.95-3.81L830.84,576.47c23.56,13.61,20.61,37.38-6.6,53.09L333,913.2C305.74,928.91,264.57,930.62,241,917Z"/><path id="Path_7852" data-name="Path 7852" class="cls-14" d="M32.08,794,241,914.66c23.57,13.61,64.74,11.91,91.95-3.81L824.24,627.21c14.32-8.27,21.91-18.77,22.46-28.85.6,10.77-7,22.28-22.46,31.2L333,913.2C305.74,928.91,264.57,930.62,241,917L32.08,796.39c-11.17-6.45-16.37-15.17-15.87-24.24C16.66,780.37,21.88,788.15,32.08,794Z"/><path id="Path_7853" data-name="Path 7853" class="cls-14" d="M44.2,746.83l491.88-284c23.85-13.78,59.94-15.27,80.6-3.34l207.82,120c20.66,11.93,18.07,32.77-5.79,46.54L326.83,910c-23.85,13.78-59.94,15.27-80.6,3.35l-207.82-120C17.75,781.44,20.34,760.61,44.2,746.83Z"/><path id="Path_7854" data-name="Path 7854" class="cls-14" d="M53.73,750.93,543.17,468.35c20-11.53,50.17-12.78,67.46-2.8L814,583c17.29,10,15.13,27.42-4.84,38.95L319.74,904.51c-20,11.53-50.17,12.78-67.47,2.8L48.89,789.88C31.59,779.9,33.76,762.46,53.73,750.93Z"/><path id="Path_7855" data-name="Path 7855" class="cls-14" d="M608.86,469.3c-16.3-9.41-42.64-9.46-58.84-.11L55.19,754.89c-16.2,9.35-16.12,24.56.18,34L254.05,903.56c16.3,9.41,42.64,9.46,58.84.11L807.72,618c16.2-9.35,16.11-24.56-.18-34Z"/><path id="Path_7856" data-name="Path 7856" class="cls-15" d="M283.64,906.62c10.36,0,20-2.29,27.23-6.44L805.71,614.49c6.5-3.75,10.08-8.51,10.08-13.4s-3.65-9.77-10.27-13.6L606.84,472.79c-7.31-4.22-17.1-6.55-27.57-6.55s-20,2.29-27.23,6.44L57.2,758.37c-6.5,3.76-10.08,8.52-10.08,13.4s3.65,9.78,10.27,13.6L256.06,900.08C263.38,904.3,273.17,906.62,283.64,906.62Z"/><path id="Path_7857" data-name="Path 7857" class="cls-14" d="M731.45,698.81l22.77-13.15c2.84-1.64,5.15-6,5.15-9.83h0c0-3.79-2.3-5.53-5.15-3.89l-22.77,13.15c-2.85,1.64-5.15,6-5.15,9.83h0C726.3,698.71,728.6,700.46,731.45,698.81Z"/><path id="Path_7858" data-name="Path 7858" class="cls-14" d="M731.45,698.81l22.77-13.15c2.84-1.64,5.15-6,5.15-9.83h0c0-3.79-2.3-5.53-5.15-3.89l-22.77,13.15c-2.85,1.64-5.15,6-5.15,9.83h0C726.3,698.71,728.6,700.46,731.45,698.81Z"/><path id="Path_7859" data-name="Path 7859" class="cls-14" d="M729.4,698.09a2.88,2.88,0,0,0,1.37-.44l22.78-13.15c2.42-1.4,4.47-5.37,4.47-8.67,0-1.46-.46-3.17-1.76-3.17a2.92,2.92,0,0,0-1.37.44l-22.77,13.15c-2.43,1.4-4.48,5.37-4.48,8.67C727.64,696.38,728.11,698.09,729.4,698.09Z"/><path id="Path_7860" data-name="Path 7860" class="cls-14" d="M690.79,722.29l22.77-13.15c2.85-1.64,5.15-6,5.15-9.84h0c0-3.79-2.3-5.53-5.15-3.89l-22.77,13.15c-2.84,1.64-5.15,6.05-5.15,9.84h0C685.64,722.19,688,723.93,690.79,722.29Z"/><path id="Path_7861" data-name="Path 7861" class="cls-14" d="M690.79,722.29l22.77-13.15c2.85-1.64,5.15-6,5.15-9.84h0c0-3.79-2.3-5.53-5.15-3.89l-22.77,13.15c-2.84,1.64-5.15,6.05-5.15,9.84h0C685.64,722.19,688,723.93,690.79,722.29Z"/><path id="Path_7862" data-name="Path 7862" class="cls-14" d="M688.75,721.56a3,3,0,0,0,1.37-.44L712.89,708c2.43-1.4,4.48-5.38,4.48-8.68,0-1.46-.46-3.16-1.76-3.16a2.76,2.76,0,0,0-1.37.43l-22.78,13.15c-2.43,1.4-4.47,5.37-4.47,8.67C687,719.86,687.45,721.56,688.75,721.56Z"/><path id="Path_7863" data-name="Path 7863" class="cls-14" d="M492.32,821.59,824.24,629.11c14-8.09,21.58-18.3,22.43-28.18,0-.32.05-4.3.06-8.71,0,.08,0,20.5-.06,21.25-.85,9.87-8.43,20.09-22.43,28.17Z"/><path id="Path_7864" data-name="Path 7864" class="cls-14" d="M117.43,862.12l37.4,21.59h0c0-6.83-4.15-14.77-9.28-17.73l-18.84-10.87C121.59,852.15,117.43,855.29,117.43,862.12Z"/></g><g id="Group_1254" data-name="Group 1254"><g id="Group_1236" data-name="Group 1236" class="cls-16"><path id="Path_7865" data-name="Path 7865" class="cls-14" d="M364.66,867.46l-82-47.77L200.51,867l82.12,47.82Z"/><path id="Path_7866" data-name="Path 7866" class="cls-14" d="M282.68,847.94V819.72l-.05,0L200.51,867,224.9,881.2Z"/><path id="Path_7867" data-name="Path 7867" class="cls-14" d="M364.66,867.46l-82-47.77v28.25l57.67,33.58,24.36-14.06Z"/></g><g id="Group_1237" data-name="Group 1237"><path id="Path_7868" data-name="Path 7868" class="cls-14" d="M282.45,819.64l-82-47.77-82.13,47.29L200.41,867Z"/><path id="Path_7869" data-name="Path 7869" class="cls-14" d="M200.46,800.12V771.9l0,0-82.13,47.29,24.4,14.21Z"/><path id="Path_7870" data-name="Path 7870" class="cls-14" d="M282.45,819.64l-82-47.77v28.25l57.66,33.58,24.37-14.06Z"/></g><g id="Group_1238" data-name="Group 1238" class="cls-16"><path id="Path_7871" data-name="Path 7871" class="cls-14" d="M200.47,771.94l-82-47.78-82.13,47.3,82.12,47.82Z"/><path id="Path_7872" data-name="Path 7872" class="cls-14" d="M118.48,752.42V724.19l0,0-82.13,47.3,24.4,14.21Z"/><path id="Path_7873" data-name="Path 7873" class="cls-14" d="M200.47,771.94l-82-47.78v28.26L176.1,786l24.37-14.06Z"/></g><g id="Group_1239" data-name="Group 1239"><path id="Path_7874" data-name="Path 7874" class="cls-14" d="M446.78,820.11l-82-47.77-82.12,47.29,82.12,47.82Z"/><path id="Path_7875" data-name="Path 7875" class="cls-14" d="M364.8,800.59V772.37l-.05,0-82.12,47.29L307,833.84Z"/><path id="Path_7876" data-name="Path 7876" class="cls-14" d="M446.78,820.11l-82-47.77v28.25l57.67,33.58,24.36-14.06Z"/></g><g id="Group_1240" data-name="Group 1240"><path id="Path_7877" data-name="Path 7877" class="cls-14" d="M364.57,772.29l-82-47.77-82.13,47.29,82.12,47.83Z"/><path id="Path_7878" data-name="Path 7878" class="cls-14" d="M282.58,752.77V724.54l0,0-82.13,47.29L224.81,786Z"/><path id="Path_7879" data-name="Path 7879" class="cls-14" d="M364.57,772.29l-82-47.77v28.25l57.66,33.58,24.37-14.06Z"/></g><g id="Group_1241" data-name="Group 1241"><path id="Path_7880" data-name="Path 7880" class="cls-14" d="M282.59,724.59l-82-47.77-82.13,47.29,82.12,47.83Z"/><path id="Path_7881" data-name="Path 7881" class="cls-14" d="M200.6,705.07V676.84l0,0-82.13,47.29,24.4,14.21Z"/><path id="Path_7882" data-name="Path 7882" class="cls-14" d="M282.59,724.59l-82-47.77v28.25l57.66,33.58,24.37-14.06Z"/></g><g id="Group_1242" data-name="Group 1242" class="cls-16"><path id="Path_7883" data-name="Path 7883" class="cls-14" d="M528.9,772.76l-82-47.77-82.13,47.29,82.12,47.82Z"/><path id="Path_7884" data-name="Path 7884" class="cls-14" d="M446.92,753.24V725l0,0-82.13,47.29,24.4,14.21Z"/><path id="Path_7885" data-name="Path 7885" class="cls-14" d="M528.9,772.76l-82-47.77v28.25l57.66,33.58,24.37-14.06Z"/></g><g id="Group_1243" data-name="Group 1243"><path id="Path_7886" data-name="Path 7886" class="cls-14" d="M446.69,724.94l-82-47.77-82.13,47.29,82.12,47.82Z"/><path id="Path_7887" data-name="Path 7887" class="cls-14" d="M364.7,705.42V677.2l0,0-82.13,47.29,24.4,14.21Z"/><path id="Path_7888" data-name="Path 7888" class="cls-14" d="M446.69,724.94l-82-47.77v28.25L422.32,739l24.37-14.06Z"/></g><g id="Group_1244" data-name="Group 1244"><path id="Path_7889" data-name="Path 7889" class="cls-14" d="M364.71,677.23l-82-47.77-82.13,47.3,82.13,47.82Z"/><path id="Path_7890" data-name="Path 7890" class="cls-14" d="M282.73,657.72V629.49l-.05,0-82.13,47.3L225,691Z"/><path id="Path_7891" data-name="Path 7891" class="cls-14" d="M364.71,677.23l-82-47.77v28.26l57.66,33.58,24.37-14.06Z"/></g><g id="Group_1245" data-name="Group 1245"><path id="Path_7892" data-name="Path 7892" class="cls-14" d="M611,725.41l-82-47.77-82.12,47.29L529,772.75Z"/><path id="Path_7893" data-name="Path 7893" class="cls-14" d="M529,705.89V677.67l0,0-82.12,47.29,24.4,14.21Z"/><path id="Path_7894" data-name="Path 7894" class="cls-14" d="M611,725.41l-82-47.77v28.25l57.67,33.58L611,725.41Z"/></g><g id="Group_1246" data-name="Group 1246"><path id="Path_7895" data-name="Path 7895" class="cls-14" d="M528.81,677.59l-82-47.77-82.13,47.29,82.13,47.82Z"/><path id="Path_7896" data-name="Path 7896" class="cls-14" d="M446.82,658.07V629.84l0,0-82.13,47.29,24.4,14.21Z"/><path id="Path_7897" data-name="Path 7897" class="cls-14" d="M528.81,677.59l-82-47.77v28.25l57.66,33.58,24.37-14.06Z"/></g><g id="Group_1247" data-name="Group 1247"><path id="Path_7898" data-name="Path 7898" class="cls-14" d="M446.83,629.89l-82-47.78-82.12,47.3,82.12,47.82Z"/><path id="Path_7899" data-name="Path 7899" class="cls-14" d="M364.85,610.37V582.14l-.05,0-82.12,47.3,24.4,14.21Z"/><path id="Path_7900" data-name="Path 7900" class="cls-14" d="M446.83,629.89l-82-47.78v28.26L422.46,644l24.37-14.06Z"/></g><g id="Group_1248" data-name="Group 1248"><path id="Path_7901" data-name="Path 7901" class="cls-14" d="M693.14,678.06l-82-47.77L529,677.58l82.12,47.82Z"/><path id="Path_7902" data-name="Path 7902" class="cls-14" d="M611.16,658.54V630.32l0,0L529,677.59l24.4,14.21Z"/><path id="Path_7903" data-name="Path 7903" class="cls-14" d="M693.14,678.06l-82-47.77v28.25l57.67,33.58,24.36-14.06Z"/></g><g id="Group_1249" data-name="Group 1249"><path id="Path_7904" data-name="Path 7904" class="cls-14" d="M610.93,630.24l-82-47.77-82.12,47.29,82.12,47.82Z"/><path id="Path_7905" data-name="Path 7905" class="cls-14" d="M528.94,610.72V582.49l0,0-82.12,47.29L471.18,644Z"/><path id="Path_7906" data-name="Path 7906" class="cls-14" d="M610.93,630.24l-82-47.77v28.25l57.66,33.58,24.37-14.06Z"/></g><g id="Group_1250" data-name="Group 1250"><path id="Path_7907" data-name="Path 7907" class="cls-14" d="M529,582.53l-82-47.77-82.13,47.3,82.12,47.82Z"/><path id="Path_7908" data-name="Path 7908" class="cls-14" d="M447,563V534.79l0,0-82.13,47.29,24.4,14.21Z"/><path id="Path_7909" data-name="Path 7909" class="cls-14" d="M529,582.53l-82-47.77V563l57.66,33.58L529,582.54Z"/></g><g id="Group_1251" data-name="Group 1251"><path id="Path_7910" data-name="Path 7910" class="cls-14" d="M775.26,630.71l-82-47.77-82.12,47.29,82.12,47.82Z"/><path id="Path_7911" data-name="Path 7911" class="cls-14" d="M693.28,611.19V583l0,0-82.12,47.29,24.4,14.22Z"/><path id="Path_7912" data-name="Path 7912" class="cls-14" d="M775.26,630.71l-82-47.77v28.25l57.66,33.58,24.37-14.06Z"/></g><g id="Group_1252" data-name="Group 1252"><path id="Path_7913" data-name="Path 7913" class="cls-14" d="M693.05,582.89l-82-47.77-82.13,47.29L611,630.23Z"/><path id="Path_7914" data-name="Path 7914" class="cls-14" d="M611.07,563.37V535.15l-.05,0-82.13,47.29,24.4,14.21Z"/><path id="Path_7915" data-name="Path 7915" class="cls-14" d="M693.05,582.89l-82-47.77v28.25L668.68,597l24.37-14.06Z"/></g><g id="Group_1253" data-name="Group 1253"><path id="Path_7916" data-name="Path 7916" class="cls-14" d="M611.07,535.19l-82-47.77-82.12,47.29L529,582.53Z"/><path id="Path_7917" data-name="Path 7917" class="cls-14" d="M529.09,515.67V487.44l-.05,0-82.12,47.3,24.4,14.21Z"/><path id="Path_7918" data-name="Path 7918" class="cls-14" d="M611.07,535.19l-82-47.77v28.25l57.66,33.58,24.37-14.06Z"/></g></g><g id="Group_1255" data-name="Group 1255"><path id="Path_7919" data-name="Path 7919" class="cls-17" d="M609.88,123l-81.41,47.8-81.39-47.4V538.17l81.37,47.44v0h0v0l81.39-47.79Z"/><path id="Path_7920" data-name="Path 7920" class="cls-17" d="M587,150.47l-58.47,34.34-58.46-34V551.54l58.44,34.07v0h0v0L587,551.29Z"/><path id="Path_7921" data-name="Path 7921" class="cls-15" d="M528.45,95.27v82.81l81.43-47.82V47.46Z"/><path id="Path_7922" data-name="Path 7922" class="cls-14" d="M528.49,95.27v82.81l-81.41-47.46V47.87Z"/><path id="Path_7923" data-name="Path 7923" class="cls-14" d="M447.08,47.87l81.41,47.4,81.39-47.81L528.39,0Z"/><path id="Path_7924" data-name="Path 7924" class="cls-14" d="M530.3,93.84a3.59,3.59,0,0,1-3.61,0L448.16,48.11l-1.08.64,79.6,47a3.59,3.59,0,0,0,3.61,0l79.59-47.42-1.08-.63Z"/></g><g id="Group_1256" data-name="Group 1256"><path id="Path_7925" data-name="Path 7925" class="cls-14" d="M772.78,596.18,691.37,644,610,596.58V630.3l81.37,47.43v0l0,0,0,0v0l81.39-47.79Z"/><path id="Path_7926" data-name="Path 7926" class="cls-14" d="M749.85,623.62,691.38,658l-58.46-34v19.76l58.44,34.07v0h0v0l58.46-34.33Z"/><path id="Path_7927" data-name="Path 7927" class="cls-14" d="M691,568.77v82.8l81.44-47.81V521Z"/><path id="Path_7928" data-name="Path 7928" class="cls-14" d="M691,568.77v82.8l-81.41-47.46V521.37Z"/><path id="Path_7929" data-name="Path 7929" class="cls-14" d="M609.63,521.37,691,568.77,772.43,521l-81.5-47.46Z"/><path id="Path_7930" data-name="Path 7930" class="cls-14" d="M692.84,567.34a3.59,3.59,0,0,1-3.61,0L610.7,521.61l-1.07.64,79.6,47a3.59,3.59,0,0,0,3.61,0l79.59-47.42-1.08-.63Z"/></g><g id="Group_1257" data-name="Group 1257"><path id="Path_7931" data-name="Path 7931" class="cls-18" d="M528.61,397.71l-81.41,47.8-81.39-47.39v185.3l81.37,47.43v0h0v0l81.39-47.79Z"/><path id="Path_7932" data-name="Path 7932" class="cls-18" d="M505.68,425.15,447.2,459.48l-58.46-34V596.79l58.44,34.07v0h0v0l58.46-34.32Z"/><path id="Path_7933" data-name="Path 7933" class="cls-14" d="M447.24,370.3v82.8l81.44-47.82v-82.8Z"/><path id="Path_7934" data-name="Path 7934" class="cls-14" d="M447.28,370.3v82.8l-81.41-47.46V322.89Z"/><path id="Path_7935" data-name="Path 7935" class="cls-14" d="M365.87,322.89l81.41,47.41,81.4-47.82L447.18,275Z"/><path id="Path_7936" data-name="Path 7936" class="cls-14" d="M449.08,368.86a3.56,3.56,0,0,1-3.61,0L367,323.14l-1.08.63,79.6,47a3.56,3.56,0,0,0,3.61,0l79.6-47.42-1.08-.62Z"/></g><g id="Group_1258" data-name="Group 1258"><path id="Path_7937" data-name="Path 7937" class="cls-18" d="M446.16,572l-81.41,47.8-81.39-47.4v152.3l81.37,47.43v0l0,0,0,0v0l81.39-47.79Z"/><path id="Path_7938" data-name="Path 7938" class="cls-18" d="M423.23,599.47l-58.48,34.34-58.46-34V738.1l58.45,34.07v0h0v0l58.46-34.33Z"/><path id="Path_7939" data-name="Path 7939" class="cls-14" d="M364.49,544v82.8L445.93,579v-82.8Z"/><path id="Path_7940" data-name="Path 7940" class="cls-14" d="M364.54,544v82.8l-81.41-47.46V496.63Z"/><path id="Path_7941" data-name="Path 7941" class="cls-14" d="M283.13,496.63,364.54,544l81.39-47.82-81.5-47.46Z"/><path id="Path_7942" data-name="Path 7942" class="cls-14" d="M366.34,542.6a3.56,3.56,0,0,1-3.61,0L284.2,496.88l-1.08.63,79.6,47a3.56,3.56,0,0,0,3.61,0l79.59-47.41-1.08-.63Z"/></g><g id="Group_1259" data-name="Group 1259"><path id="Path_7943" data-name="Path 7943" class="cls-14" d="M610.43,401.05v82.8L691.86,436v-82.8Z"/><path id="Path_7944" data-name="Path 7944" class="cls-14" d="M610.48,401.05v82.8l-81.41-47.46V353.64Z"/><path id="Path_7945" data-name="Path 7945" class="cls-14" d="M529.06,353.64l81.41,47.41,81.39-47.82-81.5-47.46Z"/><path id="Path_7946" data-name="Path 7946" class="cls-14" d="M612.28,399.61a3.59,3.59,0,0,1-3.61,0l-78.53-45.73-1.08.63,79.6,47a3.56,3.56,0,0,0,3.61,0l79.59-47.42-1.08-.62Z"/></g><g id="Group_1260" data-name="Group 1260"><path id="Path_7947" data-name="Path 7947" class="cls-19" d="M609.18,318.09l-81.42,47.8-81.39-47.4v313.2l81.37,47.43v0l0,0,0,0v0l81.39-47.79Z"/><path id="Path_7948" data-name="Path 7948" class="cls-19" d="M586.24,345.53l-58.47,34.33-58.46-34V645.07l58.44,34.07h0l58.46-34.33Z"/><path id="Path_7949" data-name="Path 7949" class="cls-15" d="M527.74,290.33v82.8l81.44-47.82v-82.8Z"/><path id="Path_7950" data-name="Path 7950" class="cls-14" d="M527.79,290.33v82.8l-81.41-47.46V242.92Z"/><path id="Path_7951" data-name="Path 7951" class="cls-14" d="M446.38,242.92l81.41,47.41,81.39-47.82-81.5-47.46Z"/><path id="Path_7952" data-name="Path 7952" class="cls-14" d="M529.59,288.89a3.56,3.56,0,0,1-3.61,0l-78.53-45.73-1.07.63,79.6,47a3.56,3.56,0,0,0,3.61,0l79.59-47.42-1.08-.62Z"/></g><g id="Group_1261" data-name="Group 1261"><path id="Path_7953" data-name="Path 7953" class="cls-18" d="M691.51,535.4,610.1,583.2l-81.39-47.4V678.2l81.37,47.43v0h0v0l81.39-47.79Z"/><path id="Path_7954" data-name="Path 7954" class="cls-18" d="M668.58,562.84,610.1,597.18l-58.46-34V691.57l58.44,34.07v0h0v0l58.46-34.32Z"/><path id="Path_7955" data-name="Path 7955" class="cls-20" d="M609.72,504.46v82.8l81.44-47.81v-82.8Z"/><path id="Path_7956" data-name="Path 7956" class="cls-14" d="M609.76,504.46v82.8l-81.4-47.46V457.05Z"/><path id="Path_7957" data-name="Path 7957" class="cls-15" d="M528.36,457.05l81.41,47.41,81.39-47.81-81.5-47.46Z"/><path id="Path_7958" data-name="Path 7958" class="cls-14" d="M611.57,503a3.59,3.59,0,0,1-3.61,0L529.43,457.3l-1.07.64L608,505a3.59,3.59,0,0,0,3.61,0l79.59-47.42-1.07-.63Z"/></g><g id="Group_1262" data-name="Group 1262"><path id="Path_7959" data-name="Path 7959" class="cls-18" d="M610.94,648.48l-81.41,47.8-81.39-47.4V725l81.37,47.43v0h0v0L611,724.64Z"/><path id="Path_7960" data-name="Path 7960" class="cls-18" d="M588,675.92l-58.48,34.34-58.45-34v62.16l58.44,34.07v0h0v0L588,738.11Z"/><path id="Path_7961" data-name="Path 7961" class="cls-18" d="M529.15,621.07v82.8l81.44-47.82V573.26Z"/><path id="Path_7962" data-name="Path 7962" class="cls-14" d="M529.2,621.07v82.8l-81.41-47.46V573.66Z"/><path id="Path_7963" data-name="Path 7963" class="cls-15" d="M447.79,573.66l81.41,47.41,81.39-47.81-81.5-47.46Z"/><path id="Path_7964" data-name="Path 7964" class="cls-14" d="M531,619.63a3.56,3.56,0,0,1-3.61,0l-78.52-45.73-1.08.63,79.6,47a3.59,3.59,0,0,0,3.61,0l79.59-47.42-1.08-.63Z"/></g><g id="Group_1263" data-name="Group 1263"><path id="Path_7965" data-name="Path 7965" class="cls-18" d="M282,341.41l-81.42,47.8-81.38-47.4V723.59L200.53,771v0l0,0,0,0v0L282,723.23Z"/><path id="Path_7966" data-name="Path 7966" class="cls-18" d="M200.55,389.21l-81.38-47.4V723.59L200.53,771v0l0,0,0,0v0Z"/><path id="Path_7967" data-name="Path 7967" class="cls-18" d="M259,368.85l-58.47,34.33-58.46-34V737L200.54,771v0h0v0L259,736.7Z"/><path id="Path_7968" data-name="Path 7968" class="cls-15" d="M199.83,314.36v82.8l81.43-47.82v-82.8Z"/><path id="Path_7969" data-name="Path 7969" class="cls-14" d="M199.87,314.36v82.8L118.46,349.7V267Z"/><path id="Path_7970" data-name="Path 7970" class="cls-18" d="M118.46,267l81.41,47.41,81.39-47.82-81.5-47.46Z"/><path id="Path_7971" data-name="Path 7971" class="cls-14" d="M201.68,312.92a3.59,3.59,0,0,1-3.61,0L119.54,267.2l-1.08.63,79.6,47a3.56,3.56,0,0,0,3.61,0l79.59-47.42-1.08-.63Z"/></g><g id="Group_1264" data-name="Group 1264"><path id="Path_7972" data-name="Path 7972" class="cls-18" d="M364.18,512.67l-81.41,47.8-81.39-47.4V771.41l81.37,47.43v0l0,0,0,0v0l81.39-47.79Z"/><path id="Path_7973" data-name="Path 7973" class="cls-18" d="M341.25,540.11l-58.47,34.33-58.46-34V784.78l58.44,34.07v0h0v0l58.46-34.33Z"/><path id="Path_7974" data-name="Path 7974" class="cls-15" d="M282.51,486.09v82.8L364,521.07v-82.8Z"/><path id="Path_7975" data-name="Path 7975" class="cls-14" d="M282.56,486.09v82.8l-81.41-47.46V438.68Z"/><path id="Path_7976" data-name="Path 7976" class="cls-18" d="M201.15,438.68l81.41,47.41L364,438.27l-81.5-47.46Z"/><path id="Path_7977" data-name="Path 7977" class="cls-14" d="M284.36,484.65a3.56,3.56,0,0,1-3.61,0l-78.53-45.73-1.07.63,79.6,47a3.56,3.56,0,0,0,3.61,0l79.58-47.42-1.07-.62Z"/></g><g id="Group_1265" data-name="Group 1265"><path id="Path_7978" data-name="Path 7978" class="cls-14" d="M364.49,744.75v82.8l81.44-47.82v-82.8Z"/><path id="Path_7979" data-name="Path 7979" class="cls-14" d="M364.54,744.75v82.8l-81.41-47.46V697.34Z"/><path id="Path_7980" data-name="Path 7980" class="cls-14" d="M283.13,697.34l81.41,47.41,81.39-47.82-81.5-47.46Z"/><path id="Path_7981" data-name="Path 7981" class="cls-14" d="M366.34,743.31a3.59,3.59,0,0,1-3.61,0L284.2,697.59l-1.08.63,79.6,47a3.56,3.56,0,0,0,3.61,0l79.59-47.42-1.08-.62Z"/><path id="Path_7982" data-name="Path 7982" class="cls-15" d="M445.93,772.15,364.51,820l-81.38-47.4V820l81.36,47.43v0l0,0,0,0v0l81.39-47.79Z"/><path id="Path_7983" data-name="Path 7983" class="cls-15" d="M423,799.59l-58.47,34.34-58.46-34v33.52l58.44,34.06v0h0v0L423,833.15Z"/></g><g id="Group_1266" data-name="Group 1266"><path id="Path_7984" data-name="Path 7984" class="cls-18" d="M281.26,670l-81.41,47.8-81.39-47.4V819.89l81.37,47.43v0h0v0l81.39-47.79Z"/><path id="Path_7985" data-name="Path 7985" class="cls-18" d="M258.33,697.47l-58.48,34.34-58.46-34V833.27l58.44,34.07v0h0v0L258.33,833Z"/><path id="Path_7986" data-name="Path 7986" class="cls-15" d="M199.83,642.27v82.8l81.43-47.81v-82.8Z"/><path id="Path_7987" data-name="Path 7987" class="cls-14" d="M199.87,642.27v82.8l-81.41-47.46V594.86Z"/><path id="Path_7988" data-name="Path 7988" class="cls-15" d="M118.46,594.86l81.41,47.41,81.39-47.81L199.76,547Z"/><path id="Path_7989" data-name="Path 7989" class="cls-14" d="M201.68,640.84a3.59,3.59,0,0,1-3.61,0l-78.53-45.73-1.08.64,79.6,47a3.59,3.59,0,0,0,3.61,0l79.59-47.42-1.08-.63Z"/></g></g></svg>