<svg xmlns="http://www.w3.org/2000/svg" xmlns:xlink="http://www.w3.org/1999/xlink" width="968.9" height="1080.026" viewBox="0 0 968.9 1080.026">
  <defs>
    <linearGradient id="linear-gradient" x1="0.967" y1="0.061" x2="0.128" y2="0.837" gradientUnits="objectBoundingBox">
      <stop offset="0.092" stop-color="#5f4797"/>
      <stop offset="1" stop-color="#5f4797" stop-opacity="0"/>
    </linearGradient>
    <linearGradient id="linear-gradient-2" x1="0.587" y1="0.236" x2="0.379" y2="0.867" xlink:href="#linear-gradient"/>
    <linearGradient id="linear-gradient-3" y1="0.5" x2="1" y2="0.5" gradientUnits="objectBoundingBox">
      <stop offset="0.002" stop-color="#a6d9e4"/>
      <stop offset="0.152" stop-color="#abc3db"/>
      <stop offset="0.413" stop-color="#b197c4"/>
      <stop offset="0.534" stop-color="#b382b8"/>
      <stop offset="0.541" stop-color="#b281b8"/>
      <stop offset="0.704" stop-color="#9462a6"/>
      <stop offset="0.834" stop-color="#81509b"/>
      <stop offset="0.914" stop-color="#7a4a97"/>
    </linearGradient>
    <linearGradient id="linear-gradient-4" x1="0.001" y1="0.5" x2="1" y2="0.5" xlink:href="#linear-gradient-3"/>
    <linearGradient id="linear-gradient-5" x1="-0.001" y1="0.499" x2="1.001" y2="0.499" gradientUnits="objectBoundingBox">
      <stop offset="0.142" stop-color="#efd0e5"/>
      <stop offset="0.229" stop-color="#ebcae2"/>
      <stop offset="0.344" stop-color="#e1bbd9"/>
      <stop offset="0.476" stop-color="#d0a1ca"/>
      <stop offset="0.618" stop-color="#bb7db4"/>
      <stop offset="0.664" stop-color="#b470ac"/>
    </linearGradient>
    <linearGradient id="linear-gradient-6" x1="0.002" y1="0.5" x2="1" y2="0.5" xlink:href="#linear-gradient-5"/>
    <linearGradient id="linear-gradient-7" x1="-0.001" y1="0.5" x2="1" y2="0.5" xlink:href="#linear-gradient-5"/>
    <linearGradient id="linear-gradient-8" x1="0.002" y1="0.5" x2="1" y2="0.5" xlink:href="#linear-gradient-5"/>
    <linearGradient id="linear-gradient-9" x1="0.01" y1="0.503" x2="0.997" y2="0.503" xlink:href="#linear-gradient-5"/>
    <linearGradient id="linear-gradient-10" x1="-0.001" y1="0.5" x2="1" y2="0.5" xlink:href="#linear-gradient-3"/>
    <linearGradient id="linear-gradient-11" x1="0" y1="0.5" x2="1" y2="0.5" xlink:href="#linear-gradient-3"/>
    <linearGradient id="linear-gradient-12" x1="0.5" y1="0.249" x2="0.5" y2="1.092" gradientUnits="objectBoundingBox">
      <stop offset="0" stop-color="#b963a4"/>
      <stop offset="0.988" stop-color="#4e5aa5"/>
    </linearGradient>
    <linearGradient id="linear-gradient-13" x1="0.001" y1="0.5" x2="1" y2="0.5" xlink:href="#linear-gradient-12"/>
    <linearGradient id="linear-gradient-14" x1="0.008" y1="0.505" x2="1.009" y2="0.505" xlink:href="#linear-gradient-3"/>
    <linearGradient id="linear-gradient-15" x1="-0.003" y1="0.5" x2="0.999" y2="0.5" xlink:href="#linear-gradient-3"/>
    <linearGradient id="linear-gradient-16" x1="0.002" y1="0.501" x2="0.999" y2="0.501" xlink:href="#linear-gradient-3"/>
    <linearGradient id="linear-gradient-17" x1="-0.001" y1="0.501" x2="1" y2="0.501" xlink:href="#linear-gradient-3"/>
    <linearGradient id="linear-gradient-18" x1="0.555" y1="0.231" x2="0.409" y2="0.934" xlink:href="#linear-gradient-5"/>
    <linearGradient id="linear-gradient-19" x1="0.5" y1="0.103" x2="0.5" y2="0.934" xlink:href="#linear-gradient-3"/>
    <linearGradient id="linear-gradient-20" x1="0.001" y1="0.501" x2="0.999" y2="0.501" xlink:href="#linear-gradient-3"/>
    <linearGradient id="linear-gradient-21" x1="0.001" y1="0.499" x2="1.001" y2="0.499" xlink:href="#linear-gradient-3"/>
    <linearGradient id="linear-gradient-22" x1="0.001" y1="0.5" x2="1" y2="0.5" xlink:href="#linear-gradient-3"/>
    <linearGradient id="linear-gradient-23" x1="0" y1="0.5" x2="1.001" y2="0.5" xlink:href="#linear-gradient-3"/>
    <linearGradient id="linear-gradient-24" x1="0.051" y1="-0.087" x2="1.026" y2="1.221" xlink:href="#linear-gradient-5"/>
    <linearGradient id="linear-gradient-25" x1="0.35" y1="0.02" x2="0.921" y2="1.212" xlink:href="#linear-gradient-5"/>
    <linearGradient id="linear-gradient-26" x1="0.299" y1="0.229" x2="1.025" y2="1.158" xlink:href="#linear-gradient-12"/>
    <linearGradient id="linear-gradient-27" x1="0.266" y1="-0.199" x2="0.931" y2="1.305" xlink:href="#linear-gradient-12"/>
    <linearGradient id="linear-gradient-28" x1="0.102" y1="-0.046" x2="0.948" y2="1.103" xlink:href="#linear-gradient-5"/>
    <linearGradient id="linear-gradient-29" x1="0.249" y1="-0.125" x2="0.947" y2="1.173" xlink:href="#linear-gradient-5"/>
    <linearGradient id="linear-gradient-30" x1="0.376" y1="0.188" x2="0.921" y2="0.964" gradientUnits="objectBoundingBox">
      <stop offset="0" stop-color="#f3fafc"/>
      <stop offset="0.673" stop-color="#a6d9e4"/>
    </linearGradient>
    <linearGradient id="linear-gradient-31" x1="0.322" y1="-0.164" x2="0.825" y2="1.224" xlink:href="#linear-gradient-12"/>
    <linearGradient id="linear-gradient-32" x1="0.145" y1="-0.005" x2="0.926" y2="1.143" xlink:href="#linear-gradient-30"/>
    <linearGradient id="linear-gradient-33" x1="0.295" y1="0.008" x2="0.951" y2="1.078" xlink:href="#linear-gradient-30"/>
    <linearGradient id="linear-gradient-35" x1="0.484" y1="0.301" x2="0.986" y2="1.248" xlink:href="#linear-gradient-12"/>
    <linearGradient id="linear-gradient-36" x1="0.855" y1="0.982" x2="0.254" y2="0.062" gradientUnits="objectBoundingBox">
      <stop offset="0.158" stop-color="#222c57"/>
      <stop offset="0.318" stop-color="#2b3f68"/>
      <stop offset="0.675" stop-color="#447ea0"/>
      <stop offset="1" stop-color="#73c8df"/>
    </linearGradient>
    <linearGradient id="linear-gradient-37" x1="0.135" y1="0.016" x2="1.032" y2="1.206" xlink:href="#linear-gradient-30"/>
    <linearGradient id="linear-gradient-38" x1="0.982" y1="-0.013" x2="-0.753" y2="1.692" xlink:href="#linear-gradient-12"/>
    <linearGradient id="linear-gradient-39" x1="-36.352" y1="0.016" x2="-35.452" y2="1.205" xlink:href="#linear-gradient-5"/>
    <linearGradient id="linear-gradient-40" x1="1.288" y1="-1.131" x2="1.288" y2="-0.447" xlink:href="#linear-gradient-3"/>
    <linearGradient id="linear-gradient-41" x1="1.047" y1="-1.589" x2="1.73" y2="-0.306" xlink:href="#linear-gradient-30"/>
    <linearGradient id="linear-gradient-45" x1="0.018" y1="0.631" x2="2.012" y2="-0.128" xlink:href="#linear-gradient-36"/>
    <linearGradient id="linear-gradient-46" x1="0.67" y1="0.756" x2="0.164" y2="0.048" xlink:href="#linear-gradient-30"/>
    <linearGradient id="linear-gradient-47" x1="0.62" y1="0.096" x2="0.018" y2="1.953" xlink:href="#linear-gradient-30"/>
    <linearGradient id="linear-gradient-48" x1="0.739" y1="-0.052" x2="0.303" y2="0.891" xlink:href="#linear-gradient-30"/>
    <linearGradient id="linear-gradient-49" x1="0.709" y1="-0.147" x2="-0.093" y2="2.696" xlink:href="#linear-gradient-30"/>
    <linearGradient id="linear-gradient-50" x1="0.199" y1="0.815" x2="1.006" y2="-0.21" xlink:href="#linear-gradient-36"/>
    <linearGradient id="linear-gradient-51" x1="0.567" y1="0.389" x2="0.326" y2="0.791" xlink:href="#linear-gradient"/>
    <linearGradient id="linear-gradient-52" x1="0.272" y1="0.853" x2="1.426" y2="-0.586" xlink:href="#linear-gradient-36"/>
    <linearGradient id="linear-gradient-53" x1="0.812" y1="-0.05" x2="0.086" y2="1.233" xlink:href="#linear-gradient"/>
    <linearGradient id="linear-gradient-54" x1="0.648" y1="0.287" x2="-0.36" y2="1.589" xlink:href="#linear-gradient-30"/>
    <linearGradient id="linear-gradient-55" x1="0.697" y1="0.09" x2="-0.154" y2="1.403" xlink:href="#linear-gradient-30"/>
    <linearGradient id="linear-gradient-56" x1="0.267" y1="0.79" x2="0.845" y2="-0.237" xlink:href="#linear-gradient-30"/>
    <linearGradient id="linear-gradient-57" x1="0.377" y1="0.327" x2="0.082" y2="-0.19" xlink:href="#linear-gradient-30"/>
    <linearGradient id="linear-gradient-58" x1="1.268" y1="0.694" x2="-0.889" y2="0.019" gradientUnits="objectBoundingBox">
      <stop offset="0.336" stop-color="#b470ac"/>
      <stop offset="0.382" stop-color="#bb7db4"/>
      <stop offset="0.524" stop-color="#d0a1ca"/>
      <stop offset="0.656" stop-color="#e1bbd9"/>
      <stop offset="0.771" stop-color="#ebcae2"/>
      <stop offset="0.858" stop-color="#efd0e5"/>
    </linearGradient>
    <linearGradient id="linear-gradient-59" x1="1.095" y1="-0.89" x2="0.314" y2="0.841" gradientUnits="objectBoundingBox">
      <stop offset="0" stop-color="#f3fafc"/>
      <stop offset="0.282" stop-color="#cee9f0"/>
      <stop offset="0.673" stop-color="#a6d9e4"/>
    </linearGradient>
    <linearGradient id="linear-gradient-60" x1="0.367" y1="0.787" x2="0.206" y2="1.252" xlink:href="#linear-gradient-30"/>
    <linearGradient id="linear-gradient-61" x1="-0.977" y1="3.41" x2="2.211" y2="-2.811" xlink:href="#linear-gradient-36"/>
    <linearGradient id="linear-gradient-62" x1="0.334" y1="-0.176" x2="0.867" y2="1.039" xlink:href="#linear-gradient-5"/>
    <linearGradient id="linear-gradient-63" x1="0.326" y1="-0.088" x2="0.635" y2="0.935" xlink:href="#linear-gradient-12"/>
    <linearGradient id="linear-gradient-64" x1="0" y1="0.501" x2="0.998" y2="0.501" xlink:href="#linear-gradient-30"/>
    <linearGradient id="linear-gradient-65" x1="0.642" y1="0.319" x2="-0.005" y2="1.144" xlink:href="#linear-gradient"/>
    <linearGradient id="linear-gradient-66" x1="0.641" y1="0.324" x2="-0.004" y2="1.145" xlink:href="#linear-gradient"/>
    <linearGradient id="linear-gradient-67" x1="5.486" y1="-1.644" x2="4.838" y2="-2.338" xlink:href="#linear-gradient-58"/>
    <linearGradient id="linear-gradient-68" x1="0.988" y1="-0.03" x2="0.056" y2="0.96" xlink:href="#linear-gradient-58"/>
    <linearGradient id="linear-gradient-69" x1="0.165" y1="1.03" x2="0.768" y2="0.033" xlink:href="#linear-gradient-12"/>
    <linearGradient id="linear-gradient-70" x1="0.474" y1="0.727" x2="0.453" y2="1.074" xlink:href="#linear-gradient-30"/>
    <linearGradient id="linear-gradient-71" x1="-0.425" y1="0.121" x2="2.719" y2="1.089" xlink:href="#linear-gradient-36"/>
    <linearGradient id="linear-gradient-72" x1="0.32" y1="0.162" x2="0.952" y2="1.188" xlink:href="#linear-gradient-36"/>
    <linearGradient id="linear-gradient-73" x1="1.483" y1="-0.569" x2="0.123" y2="1.274" xlink:href="#linear-gradient-58"/>
    <linearGradient id="linear-gradient-74" x1="0.362" y1="0.83" x2="0.347" y2="0.872" gradientUnits="objectBoundingBox">
      <stop offset="0" stop-color="#5f4797"/>
      <stop offset="1" stop-color="#5f4797" stop-opacity="0"/>
    </linearGradient>
    <linearGradient id="linear-gradient-75" x1="-0.002" y1="0.5" x2="0.999" y2="0.5" xlink:href="#linear-gradient-3"/>
    <linearGradient id="linear-gradient-76" x1="0.373" y1="0.749" x2="0.834" y2="-0.429" xlink:href="#linear-gradient-30"/>
  </defs>
  <g id="Collaborative_Services2-01" data-name="Collaborative Services2-01" transform="translate(-4 0.026)">
    <path id="Path_12186" data-name="Path 12186" d="M880.1,960.2,906,945.1l59.9-19.9-3.9-1.7-249.4,80.7,5.7,3.3,19.8-6.6-20.4,11.9-48.9,15.9,5.7,3.3L922,949.6l-3.9-1.7Zm-13.9,4.5-35.6,11.5,24.2-14.1,36.8-12.2Zm-49.5,16.1-35.6,11.5,22.6-13.1L840.5,967Zm-64.2,15.4L789.3,984l-22.1,12.8-35.6,11.5Z" opacity="0.3" fill="url(#linear-gradient)"/>
    <g id="Group_2992" data-name="Group 2992">
      <path id="Path_12187" data-name="Path 12187" d="M376.9,608.4,87.1,776.8a4.456,4.456,0,0,0,0,7.7l514.6,294.6a6.5,6.5,0,0,0,6.6,0L901.4,908.8Z" opacity="0.3" fill="url(#linear-gradient-2)"/>
      <g id="Group_2933" data-name="Group 2933">
        <path id="Path_12188" data-name="Path 12188" d="M771.4,749.8l-5.6,3.2c-.7.4-1.7.3-3.1-.3a6.072,6.072,0,0,1-1-.7c-1.9-1.5-3.6-4.1-5.3-6.8-.4-.6-.8-1.3-1.2-1.9-.8-1.3-1.6-2.6-2.5-3.8-.5-.7-1-1.3-1.5-1.9l-.6-.6a29.413,29.413,0,0,0-6.7-5.4,13.567,13.567,0,0,0-5.7-1.8h-.6a4.895,4.895,0,0,0-2.5.7l5.6-3.2a5.2,5.2,0,0,1,2.5-.7h.6a13.567,13.567,0,0,1,5.7,1.8,27.4,27.4,0,0,1,6.7,5.4l.6.6c.5.6,1,1.2,1.5,1.9.8,1.1,1.6,2.4,2.5,3.8.4.6.8,1.3,1.2,1.9,1.7,2.7,3.4,5.3,5.3,6.8a6.072,6.072,0,0,0,1,.7C769.7,750.1,770.7,750.2,771.4,749.8Zm49-37.2c-.5-.3-1-.5-1.5-.8a2.185,2.185,0,0,1-.5-.3l-.6.3.6-.3-43.4-25h0a1.11,1.11,0,0,0-1.1-.1l-5.6,3.2a1.11,1.11,0,0,1,1.1.1l5-2.9-5,2.9,43.4,25h0a2.185,2.185,0,0,1,.5.3,10.932,10.932,0,0,0,1.5.8c5.3,3,8.6,4.7,10.1,3.7l5.6-3.2C828.9,717.2,825.7,715.6,820.4,712.6Zm85.2,49.2-43.4-25a2.185,2.185,0,0,1-.5-.3c-.5-.3-1-.6-1.9-1.1-7-4.1-10.4-6.5-10.8-11.3v-.7c.1-4.9,5.7-5.6,7.4-8.9a15.631,15.631,0,0,0,1.6-7.2,26.18,26.18,0,0,0-1.5-8.4c-3-8.3-10.2-13.7-16-17.1-4.9-2.8-10.7-5.3-14.2-3.2l-5.6,3.2c3.5-2.1,9.4.4,14.2,3.2,5.8,3.4,13,8.8,16,17.1a23.711,23.711,0,0,1,1.5,8.4,15.937,15.937,0,0,1-1.6,7.2c-1.7,3.3-7.3,4.1-7.4,8.9v.7c.4,4.8,3.8,7.2,10.8,11.3.9.5,1.4.8,1.9,1.1a2.185,2.185,0,0,1,.5.3L900,765a3.531,3.531,0,0,1,1.5,2.6l-.4,134.2c0,4.8-1.7,8.2-4.5,9.8l5.6-3.2c2.7-1.6,4.5-5,4.5-9.8l.4-134.2A3.531,3.531,0,0,0,905.6,761.8Z" fill="url(#linear-gradient-3)"/>
      </g>
      <g id="Group_2934" data-name="Group 2934">
        <path id="Path_12189" data-name="Path 12189" d="M423.4,464.4a29.747,29.747,0,0,1-1.5-9,12.187,12.187,0,0,1,1.6-6.6,5.162,5.162,0,0,1,1.8-1.8c-1.7,1-3.9,2.3-5.6,3.2a5.162,5.162,0,0,0-1.8,1.8,12.187,12.187,0,0,0-1.6,6.6,33.211,33.211,0,0,0,1.5,9c1.7,5.2,7.1,12.2,7.3,17.1v.5l5.6-3.2v-.5C430.5,476.6,425.1,469.6,423.4,464.4Zm-1,.6c-.4.2-.8.5-1.2.7.6-.4,1.3-.7,1.9-1.1h0C422.9,464.7,422.6,464.9,422.4,465Zm47.1-31.9c0,6.6,1.1,15.3,6.5,22-1.9,1.1-3.7,2.2-5.6,3.2-5.5-6.7-6.5-15.4-6.5-22,0-5.6.8-11.7,4.3-13.8l5.6-3.2C470.3,421.4,469.5,427.5,469.5,433.1Zm-44.4,52.2,5.6-3.2v.2a3.521,3.521,0,0,1-1.2,2.6l-5.6,3.2c.7-.4,1.1-1.2,1.2-2.6Zm76.4-23.7h0c-.2-.1-.3-.2-.4-.2-.2-.1-.5-.2-.7-.3-3-1.1-5.7,1-8.3,1.9a5.359,5.359,0,0,1-2.3.3h-.3a19.848,19.848,0,0,1-3-.6,26.761,26.761,0,0,1-3.6-1.6c-.1,0-.2-.1-.3-.1-.6.4-1.3.8-2,1.2l2-1.2a25.508,25.508,0,0,1-5.8-4.8c-.2-.2-.3-.4-.5-.5-.5.3-1,.6-1.6.9l1.6-.9c-.1-.1-.2-.2-.2-.3-1.9,1.1-3.7,2.2-5.6,3.2.1.1.2.2.2.3.2.2.3.4.5.5a23.13,23.13,0,0,0,5.8,4.8c.1,0,.2.1.3.1a26.76,26.76,0,0,0,3.6,1.6,17.692,17.692,0,0,0,3,.6h.3a7.117,7.117,0,0,0,2.3-.3c2.7-.9,5.3-2.9,8.3-1.9.2.1.5.2.7.3.1,0,.2.1.3.2a.1.1,0,0,1,.1.1c4.8,3.4,4.8,8.2,4.8,18l-.1,49.8a1.333,1.333,0,0,1-.4,1l5.6-3.2a1.053,1.053,0,0,0,.4-1l.1-49.8C506.3,469.8,506.4,465,501.5,461.6Zm-10.8,2.1h0c.2-.1.5-.3.7-.4h0A4.352,4.352,0,0,1,490.7,463.7ZM419.5,327.3c.7.4,1.2.7,1.6.9-1.9,1.1-3.7,2.2-5.6,3.2-.4-.2-.9-.5-1.6-.9-.3-.2-.7-.4-1.7-1l-43.4-25a1.11,1.11,0,0,0-1.1-.1l5.6-3.2a1.11,1.11,0,0,1,1.1.1l43.4,25C418.8,326.9,419.2,327.1,419.5,327.3Zm-4,4.1c1.9-1.1,3.7-2.2,5.6-3.2a14.132,14.132,0,0,1,1.5.9h0c3.6,2,6.1,3,7.4,2.2l-5.6,3.2c-1.3.8-3.7-.2-7.4-2.2h0A14.139,14.139,0,0,0,415.5,331.4Zm91.1,47.9-.1,49.8-2,1.2c.7-.4,1.4-.8,2-1.2,0,7.3,0,11.9-1.8,12.9l-5.6,3.2c1.8-1,1.8-5.6,1.8-12.9l.1-49.8a3.362,3.362,0,0,0-1.5-2.6l-43.9-25.4c-.4-.2-.8-.5-1.4-.8-.2-.1-.3-.2-.5-.3h-.1c-6.9-4-10.3-6.5-10.7-11.3v-.7c.1-4.9,5.7-5.6,7.4-8.9a15.631,15.631,0,0,0,1.6-7.2,26.18,26.18,0,0,0-1.5-8.4c-3-8.3-10.2-13.7-16-17.1a46.506,46.506,0,0,0-5.5-2.7c-3.3-1.3-6.4-1.8-8.7-.5,1.7-1,3.9-2.3,5.6-3.2,2.3-1.3,5.4-.8,8.7.5a35.076,35.076,0,0,1,5.5,2.7l-2.8,1.6c1-.6,2-1.1,2.8-1.6,5.8,3.4,13,8.8,16,17.1a23.71,23.71,0,0,1,1.5,8.4,15.937,15.937,0,0,1-1.6,7.2c-1.7,3.3-7.3,4-7.4,8.9v.7c.4,4.8,3.8,7.2,10.7,11.3h.1c.2.1.3.2.5.3.6.3,1,.6,1.4.8l43.9,25.4A3.531,3.531,0,0,1,506.6,379.3Z" fill="url(#linear-gradient-4)"/>
      </g>
      <path id="Path_12190" data-name="Path 12190" d="M501,595.2a6.072,6.072,0,0,1-1-.7c-3.3-2.6-6.1-8.5-9-12.5a24.931,24.931,0,0,0-1.9-2.3,29.186,29.186,0,0,0-6.9-5.6,13.757,13.757,0,0,0-5.4-1.8H476a4.895,4.895,0,0,0-2.5.7l-5.6,3.2a5.2,5.2,0,0,1,2.5-.7h.8a13.257,13.257,0,0,1,5.4,1.8,29.187,29.187,0,0,1,6.9,5.6c.9,1,1.4,1.7,1.9,2.3,2.9,4,5.7,9.9,9,12.5a6.072,6.072,0,0,0,1,.7c1.4.6,2.4.7,3.1.3l5.6-3.2C503.4,595.9,502.4,595.8,501,595.2Z" fill="url(#linear-gradient-5)"/>
      <path id="Path_12191" data-name="Path 12191" d="M555.2,559.4c-.4-.2-.9-.5-2.5-1.4-.4-.2-.7-.4-1.1-.6l-.6-.3-43.4-25a1.11,1.11,0,0,0-1.1-.1l-5.6,3.2a1.11,1.11,0,0,1,1.1.1l43.4,25,.6.3a10.916,10.916,0,0,1,1.1.6c1.6.9,2,1.2,2.5,1.4,4,2.2,6.6,3.4,8,2.6l5.6-3.2C561.8,562.8,559.2,561.7,555.2,559.4Z" fill="url(#linear-gradient-6)"/>
      <path id="Path_12192" data-name="Path 12192" d="M638.3,607.5l-43.4-25-.6-.3c-.4-.2-.7-.4-4.8-2.9a32.92,32.92,0,0,1-5.4-4.1,8.129,8.129,0,0,1-2.4-5.4v-.7c.1-4.9,5.6-5.6,7.4-8.9a15.631,15.631,0,0,0,1.6-7.2,26.18,26.18,0,0,0-1.5-8.4c-3-8.3-10.2-13.7-16-17.1-4.9-2.8-10.7-5.2-14.2-3.2l-5.6,3.2c3.5-2.1,9.3.4,14.2,3.2,5.8,3.4,13,8.8,16,17.1a23.711,23.711,0,0,1,1.5,8.4,15.937,15.937,0,0,1-1.6,7.2c-1.7,3.3-7.3,4.1-7.4,8.9v.7a8.685,8.685,0,0,0,2.4,5.4,34.573,34.573,0,0,0,5.4,4.1c4.1,2.4,4.5,2.6,4.8,2.9l.6.3,43.4,25a3.531,3.531,0,0,1,1.5,2.6l-.1,49.8c0,7.3,0,11.8-1.8,12.9l5.6-3.2c1.8-1,1.8-5.6,1.8-12.9l.1-49.8A3.209,3.209,0,0,0,638.3,607.5Z" fill="url(#linear-gradient-7)"/>
      <path id="Path_12193" data-name="Path 12193" d="M634.7,692.3h0c-.2-.1-.3-.2-.4-.2-.2-.1-.5-.2-.7-.3-3-1.1-5.7,1-8.3,1.9a5.359,5.359,0,0,1-2.3.3h-.3a12.461,12.461,0,0,1-3.5-.8,27.312,27.312,0,0,1-3.1-1.4c-.1,0-.1-.1-.2-.1a.1.1,0,0,1-.1-.1,25.917,25.917,0,0,1-6.3-5.4c-5.7-6.8-6.8-15.6-6.8-22.3h0c0-5.6.8-11.7,4.3-13.8-1.7,1-3.9,2.3-5.6,3.2-3.5,2-4.3,8.2-4.3,13.8,0,6.7,1.1,15.6,6.8,22.3a24.19,24.19,0,0,0,6.3,5.4.1.1,0,0,1,.1.1c.1,0,.1.1.2.1a16.616,16.616,0,0,0,3.1,1.4,15.933,15.933,0,0,0,3.5.8h.3a7.116,7.116,0,0,0,2.3-.3c2.7-.9,5.3-2.9,8.3-1.9.2.1.5.2.7.3.1,0,.2.1.3.2h0a.1.1,0,0,1,.1.1c4.8,3.4,4.8,8.2,4.8,18l-.1,49.8a1.333,1.333,0,0,1-.4,1l5.6-3.2a1.053,1.053,0,0,0,.4-1l.1-49.8C639.6,700.5,639.6,695.7,634.7,692.3Z" fill="url(#linear-gradient-8)"/>
      <path id="Path_12194" data-name="Path 12194" d="M422.7,148.3a13.2,13.2,0,0,1,1.2-5.9h-1.3a.367.367,0,0,0-.3.1h0a.367.367,0,0,0-.3.1h0c-.1,0-.2.1-.3.1h-.1c-.1,0-.2.1-.3.1h0c-.1,0-.2.1-.3.1h0c-.1,0-.2.1-.3.2h-.1c-.1,0-.1.1-.2.1h-.1c-.1.1-.2.1-.2.2h0c-.1,0-.1.1-.2.1l-.1.1c-.1,0-.1.1-.2.1l-.1.1-.2.2h0l-.2.2-.1.1c0,.1-.1.1-.1.2l-.1.1c-.1.1-.1.2-.2.3a12.187,12.187,0,0,0-1.6,6.6,33.211,33.211,0,0,0,1.5,9c1.7,5.3,7.4,12.6,7.3,17.6v.9a.367.367,0,0,1-.1.3h0c0,.1,0,.2-.1.2v.1c0,.1,0,.2-.1.2h0c0,.1,0,.1-.1.2h0c0,.1-.1.1-.1.2h0c0,.1-.1.1-.1.2h0a.1.1,0,0,1-.1.1h0l-.1.1h0l-.1.1h0l5.6-3.2a2.817,2.817,0,0,0,1.1-2.3v-.5c.1-5-5.6-12.3-7.3-17.6A27.775,27.775,0,0,1,422.7,148.3Z" fill="url(#linear-gradient-9)"/>
      <g id="Group_2935" data-name="Group 2935">
        <path id="Path_12195" data-name="Path 12195" d="M504.6,441.9l-5.6,3.2c-.7.4-1.7.3-3.1-.3a6.07,6.07,0,0,1-1-.7c-3.3-2.6-6.1-8.5-9-12.5a24.931,24.931,0,0,0-1.9-2.3,29.187,29.187,0,0,0-6.9-5.6,13.757,13.757,0,0,0-5.4-1.8h-.8a4.895,4.895,0,0,0-2.5.7l5.6-3.2a5.2,5.2,0,0,1,2.5-.7h.8a13.258,13.258,0,0,1,5.4,1.8,29.187,29.187,0,0,1,6.9,5.6c.9,1,1.4,1.7,1.9,2.3,2.9,4,5.7,9.9,9,12.5a6.072,6.072,0,0,0,1,.7A3.528,3.528,0,0,0,504.6,441.9Zm53.5-30.2,5.6-3.2c-1.4.8-4-.3-8-2.6-.4-.2-.8-.5-2.1-1.2-.1-.1-.2-.1-.3-.2a2.184,2.184,0,0,0-.5-.3,9.663,9.663,0,0,0-1.2-.7l-43.4-25a1.11,1.11,0,0,0-1.1-.1l-5.6,3.2a1.11,1.11,0,0,1,1.1.1l43.4,25a9.664,9.664,0,0,1,1.2.7c.2.1.3.2.5.3.1.1.2.1.3.2,1.3.7,1.7,1,2.1,1.2C554.1,411.3,556.7,412.5,558.1,411.7Zm9.9-40.6c-3.3-1.3-6.4-1.8-8.7-.5-1.7,1-3.9,2.3-5.6,3.2,2.3-1.3,5.4-.8,8.7.5a39.989,39.989,0,0,1,5.5,2.7l2.8-1.6,2.8-1.6A35.07,35.07,0,0,0,568,371.1Zm-9.1,153.1c-1.7,1-3.9,2.3-5.6,3.2a5.162,5.162,0,0,0-1.8,1.8,12.187,12.187,0,0,0-1.6,6.6c1.9-1.1,3.7-2.2,5.6-3.2a12.187,12.187,0,0,1,1.6-6.6A5.161,5.161,0,0,1,558.9,524.2Zm5.3,33.5c-.8-4.8-5.6-11.3-7.2-16.1a29.747,29.747,0,0,1-1.5-9c-1.9,1.1-3.7,2.2-5.6,3.2a33.21,33.21,0,0,0,1.5,9c1.5,4.8,6.3,11.2,7.2,16.1a4.1,4.1,0,0,1,.1,1.1v.7a3.52,3.52,0,0,1-1.2,2.6l5.6-3.2c.7-.4,1.1-1.2,1.2-2.6v-.7A3.75,3.75,0,0,0,564.2,557.7Zm71-19h0l-5.7,3.2a.1.1,0,0,1,.1.1c4.8,3.4,4.8,8.2,4.8,18l-.1,49.8a1.333,1.333,0,0,1-.4,1l5.6-3.2a1.053,1.053,0,0,0,.4-1l.1-49.8C640,546.9,640,542.1,635.2,538.7Zm3.5-84.8-44-25.4h0c-.1-.1-.2-.1-.4-.2-.5-.3-1.5-.9-4.4-2.6-.5-.3-.9-.6-1.4-.9a29.346,29.346,0,0,1-2.7-2.1c-.4-.3-.8-.7-1.3-1.1-1.1.6-2.3,1.3-3.5,2.1l3.5-2.1a5.5,5.5,0,0,1-.7-.9,8.834,8.834,0,0,1-1.7-4.5v-.7c.1-4.9,5.6-5.6,7.4-8.9a15.631,15.631,0,0,0,1.6-7.2,26.18,26.18,0,0,0-1.5-8.4c-3-8.3-10.2-13.7-16-17.1-.8.5-1.8,1.1-2.8,1.6-1,.6-2,1.1-2.8,1.6,5.8,3.4,13,8.8,16,17.1a23.711,23.711,0,0,1,1.5,8.4,15.937,15.937,0,0,1-1.6,7.2c-1.7,3.3-7.3,4-7.4,8.9v.7a8.5,8.5,0,0,0,1.7,4.5c.2.3.5.6.7.9.5.4.9.8,1.3,1.1a29.338,29.338,0,0,0,2.7,2.1c.5.3.9.6,1.4.9,3,1.8,4,2.4,4.4,2.6.2.1.3.2.4.2h0l44,25.4a3.531,3.531,0,0,1,1.5,2.6l-.1,49.8c0,7.3,0,11.9-1.8,12.9l5.6-3.2c1.8-1,1.8-5.6,1.8-12.9-.6.4-1.3.8-2,1.2l2-1.2.1-49.8A3.111,3.111,0,0,0,638.7,453.9Zm-15.6,86.5a12.461,12.461,0,0,1-3.5-.8,27.312,27.312,0,0,1-3.1-1.4h0c-.1,0-.1-.1-.2-.1-.5.3-1.1.6-1.7,1l1.7-1a.1.1,0,0,1-.1-.1,25.917,25.917,0,0,1-6.3-5.4c-5.7-6.8-6.8-15.6-6.8-22.3-.8.5-1.8,1.1-2.8,1.6l2.8-1.6c0-5.6.8-11.7,4.3-13.8-1.7,1-3.9,2.3-5.6,3.2-3.5,2-4.3,8.2-4.3,13.8,0,6.7,1.1,15.6,6.8,22.3a24.19,24.19,0,0,0,6.3,5.4.1.1,0,0,1,.1.1l2-1.2c-.7.4-1.4.8-2,1.2.1,0,.1.1.2.1a16.616,16.616,0,0,0,3.1,1.4,15.933,15.933,0,0,0,3.5.8h.3c1.9-1.1,3.7-2.2,5.6-3.2Zm11.7-1.9c.1,0,.2.1.3.2l-5.6,3.2c-.1-.1-.2-.1-.3-.2-.2-.1-.5-.2-.7-.3-3-1.1-5.7,1-8.3,1.9a5.359,5.359,0,0,1-2.3.3c1.8-1.1,3.6-2.1,5.4-3.2l.1-.1a7.116,7.116,0,0,0,2.3-.3c2.7-.9,5.3-2.9,8.3-1.9h0A3,3,0,0,0,634.8,538.5Zm-10.4,2.3Z" fill="url(#linear-gradient-10)"/>
      </g>
      <g id="Group_2936" data-name="Group 2936">
        <path id="Path_12196" data-name="Path 12196" d="M638.2,519l-5.6,3.2c-.7.4-1.7.3-3.1-.3a6.072,6.072,0,0,1-1-.7c-3.3-2.6-6.1-8.5-9-12.5a24.927,24.927,0,0,0-1.9-2.3,27.839,27.839,0,0,0-6.8-5.5A12.827,12.827,0,0,0,605,499h-.6a4.895,4.895,0,0,0-2.5.7l5.6-3.2a5.2,5.2,0,0,1,2.5-.7h.6a12.827,12.827,0,0,1,5.8,1.9,32.8,32.8,0,0,1,6.8,5.5c.9,1,1.4,1.7,1.9,2.3,2.9,4,5.7,9.9,9,12.5a6.072,6.072,0,0,0,1,.7C636.5,519.4,637.5,519.5,638.2,519ZM691,489.1a1.445,1.445,0,0,0,.7-.2l5.6-3.2a1.445,1.445,0,0,1-.7.2c-1.8.2-4.8-1.3-9.4-4h0a.1.1,0,0,1-.1-.1c-.4-.2-.9-.5-1.9-1.1-.5.3-1.1.6-1.7,1l1.7-1-43.4-25a1.11,1.11,0,0,0-1.1-.1l-5.6,3.2a1.11,1.11,0,0,1,1.1.1l43.4,25c1,.6,1.4.8,1.9,1.1a.1.1,0,0,1,.1.1h0C686.2,487.7,689.3,489.3,691,489.1Zm1.6,112.3c-1.7,1-3.9,2.3-5.6,3.2a5.162,5.162,0,0,0-1.8,1.8c1.9-1.1,3.7-2.2,5.6-3.2A4.455,4.455,0,0,1,692.6,601.4Zm-3.4,8.4a12.187,12.187,0,0,1,1.6-6.6c-1.9,1.1-3.7,2.2-5.6,3.2a12.187,12.187,0,0,0-1.6,6.6,30.014,30.014,0,0,0,1.6,9c1.7,5.2,7.2,12.4,7.3,17.4v.7a2.669,2.669,0,0,1-1.1,2.3l5.6-3.2a2.817,2.817,0,0,0,1.1-2.3c-.5.3-1.1.6-1.7,1l1.7-1v-.7c-.1-4.9-5.6-12.1-7.3-17.4A27.18,27.18,0,0,1,689.2,609.8Zm79.6,6.1h0l-5.7,3.2a.1.1,0,0,1,.1.1c4.8,3.4,4.8,8.2,4.8,18l-.1,49.8a1.333,1.333,0,0,1-.4,1l5.6-3.2a1.053,1.053,0,0,0,.4-1l.1-49.8C773.7,624.1,773.7,619.3,768.8,615.9Zm-.4-.2c.1,0,.2.1.3.2l-5.6,3.2c-.1-.1-.2-.1-.3-.2-.2-.1-.5-.2-.7-.3-3-1.1-5.7,1-8.3,1.9.9-.5,1.9-1.1,2.8-1.6.1,0,.1-.1.2-.1-1,.6-2,1.2-3,1.7a5.582,5.582,0,0,1-2.2.3c.9-.5,1.9-1.1,2.8-1.6.8-.5,1.6-.9,2.4-1.4-1.7,1-3.4,2-5.2,3H751a18.452,18.452,0,0,1-6.5-2.2c-.1,0-.2-.1-.3-.2l-.1-.1A24.679,24.679,0,0,1,738,613c-5.7-6.8-6.8-15.6-6.8-22.3,0-5.6.8-11.7,4.3-13.8,1.7-1,3.9-2.3,5.6-3.2-3.5,2-4.3,8.2-4.3,13.8l-2,1.2c.7-.4,1.4-.8,2-1.2,0,6.7,1.1,15.6,6.8,22.3a24.68,24.68,0,0,0,6.1,5.3l.1.1c.1.1.2.1.3.2a16.623,16.623,0,0,0,6.5,2.2h.6a8.329,8.329,0,0,0,2.2-.3c2.7-.9,5.3-2.9,8.3-1.9A.908.908,0,0,1,768.4,615.7ZM756,617.9h0c-.2.1-.5.3-.7.4h0C755.5,618.2,755.8,618,756,617.9Zm2.4-.1Zm14-86.8-43.9-25.4c-.4-.2-.8-.5-1.4-.8-.2-.1-.3-.2-.5-.3h-.1c-6.9-4-10.3-6.5-10.7-11.3v-.7c.1-4.9,5.7-5.6,7.4-8.9a15.631,15.631,0,0,0,1.6-7.2,26.18,26.18,0,0,0-1.5-8.4c-3-8.3-10.2-13.7-16-17.1-1.1.6-2.3,1.3-3.5,2.1l3.5-2.1c-4.9-2.8-10.7-5.2-14.2-3.2-1.7,1-3.9,2.3-5.6,3.2,3.5-2.1,9.3.4,14.2,3.2,5.8,3.4,13,8.8,16,17.1a23.711,23.711,0,0,1,1.5,8.4,15.937,15.937,0,0,1-1.6,7.2c-1.7,3.3-7.3,4-7.4,8.9v.7c.4,4.8,3.8,7.2,10.7,11.3h.1c.2.1.3.2.5.3.6.3,1,.6,1.4.8l43.9,25.4a3.531,3.531,0,0,1,1.5,2.6l-.1,49.8c0,7.3,0,11.8-1.8,12.9l5.6-3.2c1.8-1,1.8-5.6,1.8-12.9-.4.3-.9.5-1.4.8l1.4-.8.1-49.8A3.531,3.531,0,0,0,772.4,531Z" fill="url(#linear-gradient-11)"/>
      </g>
      <g id="Group_2937" data-name="Group 2937">
        <path id="Path_12197" data-name="Path 12197" d="M771.9,596.2l-5.6,3.2c-.7.4-1.7.3-3.1-.3a6.072,6.072,0,0,1-1-.7c-1.9-1.5-3.6-4.1-5.3-6.8-.4-.6-.8-1.3-1.2-1.9-.8-1.3-1.6-2.6-2.5-3.8-.5-.7-1-1.3-1.5-1.9l-.6-.6a29.413,29.413,0,0,0-6.7-5.4,13.567,13.567,0,0,0-5.7-1.8h-.6a4.895,4.895,0,0,0-2.5.7l5.6-3.2a5.2,5.2,0,0,1,2.5-.7h.6a13.567,13.567,0,0,1,5.7,1.8,27.4,27.4,0,0,1,6.7,5.4l.6.6c.5.6,1,1.2,1.5,1.9.8,1.1,1.6,2.4,2.5,3.8.4.6.8,1.3,1.2,1.9,1.7,2.7,3.4,5.3,5.3,6.8a6.072,6.072,0,0,0,1,.7C770.2,596.5,771.2,596.6,771.9,596.2Zm43.3-34h0a.1.1,0,0,1-.1-.1c-.4-.2-.9-.5-1.9-1.1l-43.4-25a1.11,1.11,0,0,0-1.1-.1l5.6-3.2a1.11,1.11,0,0,1,1.1.1l43.4,25-2.8,1.6c1-.6,2-1.1,2.8-1.6,1,.6,1.4.8,1.9,1.1a.1.1,0,0,1,.1.1h0c4.6,2.6,7.7,4.2,9.4,4a1.445,1.445,0,0,0,.7-.2l-5.6,3.2a1.446,1.446,0,0,1-.7.2C822.9,566.5,819.8,564.9,815.2,562.2Zm13.2,1.9c.1,0,.1-.1.2-.1.1-.1.2-.1.4-.2s.5-.3.7-.4h0A5.387,5.387,0,0,0,828.4,564.1Zm28.4-18.9c-3-8.3-10.2-13.7-16-17.1-.5.3-1.1.6-1.7,1l1.7-1c-4.9-2.8-10.7-5.3-14.2-3.2-1.7,1-3.9,2.3-5.6,3.2,3.5-2.1,9.4.4,14.2,3.2l2-1.2c-.7.4-1.4.8-2,1.2,5.8,3.4,13,8.8,16,17.1a23.711,23.711,0,0,1,1.5,8.4,15.937,15.937,0,0,1-1.6,7.2c1.9-1.1,3.7-2.2,5.6-3.2a15.631,15.631,0,0,0,1.6-7.2A21.992,21.992,0,0,0,856.8,545.2ZM822.8,687a12.187,12.187,0,0,1,1.6-6.6,5.162,5.162,0,0,1,1.8-1.8c-1.7,1-3.9,2.3-5.6,3.2a5.162,5.162,0,0,0-1.8,1.8,12.187,12.187,0,0,0-1.6,6.6,30.014,30.014,0,0,0,1.6,9c1.7,5.2,7.2,12.4,7.3,17.4v.7a2.669,2.669,0,0,1-1.1,2.3l5.6-3.2a2.817,2.817,0,0,0,1.1-2.3c-.8.5-1.8,1.1-2.8,1.6l2.8-1.6v-.7c-.1-4.9-5.6-12.1-7.3-17.4A30.563,30.563,0,0,1,822.8,687ZM906,608.2l-43.9-25.4c-.4-.2-.8-.5-1.4-.8-.2-.1-.3-.2-.5-.3h-.1c-6.9-4-10.3-6.5-10.7-11.3v-.7c.1-4.9,5.7-5.6,7.4-8.9-1.9,1.1-3.7,2.2-5.6,3.2-1.7,3.3-7.3,4-7.4,8.9v.7c.4,4.8,3.8,7.2,10.7,11.3h.1c.2.1.3.2.5.3.6.3,1,.6,1.4.8l43.9,25.4a3.531,3.531,0,0,1,1.5,2.6l-.4,150.1a1.333,1.333,0,0,1-.4,1l5.6-3.2a1.053,1.053,0,0,0,.4-1l.4-150.1A3.013,3.013,0,0,0,906,608.2Z" fill="url(#linear-gradient-12)"/>
      </g>
      <g id="Group_2938" data-name="Group 2938">
        <path id="Path_12198" data-name="Path 12198" d="M429.5,484.8l-5.6,3.2c-1.3.8-3.7-.2-7.4-2.2-.2-.1-.4-.2-3.1-1.8a10.907,10.907,0,0,0-1.1-.6l-.6-.3h0l-43.4-25h0a1.11,1.11,0,0,0-1.1-.1l5.6-3.2a1.11,1.11,0,0,1,1.1.1h0l43.4,25h0l.6.3c.4.2.7.4,1.1.6a21.394,21.394,0,0,1,3.1,1.8C425.8,484.6,428.2,485.6,429.5,484.8Zm76.4,148.4-.1,49.8a1.333,1.333,0,0,1-.4,1l-5.6,3.2a1.053,1.053,0,0,0,.4-1l.1-49.8c0-9.8,0-14.6-4.8-18a.1.1,0,0,1-.1-.1c-.1-.1-.2-.1-.3-.2-.2-.1-.5-.2-.7-.3-3-1.1-5.7,1-8.3,1.9a5.359,5.359,0,0,1-2.3.3h-.3a19.848,19.848,0,0,1-3-.6,26.772,26.772,0,0,1-3.6-1.6c.2-.1.5-.3.7-.4-.2.1-.5.3-.7.4-.1,0-.2-.1-.3-.1a25.508,25.508,0,0,1-5.8-4.8c-.2-.2-.3-.4-.5-.5-.1-.1-.2-.2-.2-.3-5.5-6.7-6.5-15.4-6.5-22,0-5.6.8-11.7,4.3-13.8l5.6-3.2c-3.5,2-4.3,8.2-4.3,13.8,0,6.6,1.1,15.3,6.5,22,.1.1.2.2.2.3l-1.6.9c.5-.3,1.1-.6,1.6-.9.2.2.3.4.5.5a23.13,23.13,0,0,0,5.8,4.8l-2,1.2c.7-.4,1.4-.8,2-1.2.1,0,.2.1.3.1a26.755,26.755,0,0,0,3.6,1.6,17.689,17.689,0,0,0,3,.6h.3a7.116,7.116,0,0,0,2.3-.3c2.7-.9,5.3-2.9,8.3-1.9.2.1.5.2.7.3.1,0,.2.1.3.2a.1.1,0,0,1,.1.1C505.9,618.6,505.9,623.3,505.9,633.2ZM491,616.9h0c-.2.1-.3.2-.5.3C490.7,617,490.8,616.9,491,616.9Zm13.6-86.6-43.4-25a2.187,2.187,0,0,1-.5-.3c-.5-.3-1-.6-1.9-1.1-7-4.1-10.4-6.5-10.8-11.3v-.7c.1-4.8,5.7-5.6,7.4-8.9a15.631,15.631,0,0,0,1.6-7.2,26.18,26.18,0,0,0-1.5-8.4c-3-8.3-10.2-13.7-16-17.1-4.9-2.8-10.7-5.2-14.2-3.2l-5.6,3.2c3.6-2.1,9.3.4,14.2,3.2,5.8,3.4,13,8.8,16,17.1a23.71,23.71,0,0,1,1.5,8.4,15.937,15.937,0,0,1-1.6,7.2c-1.7,3.3-7.3,4.1-7.4,8.9v.7c.4,4.8,3.8,7.2,10.8,11.3.9.5,1.4.8,1.9,1.1a2.187,2.187,0,0,1,.5.3l43.4,25a3.531,3.531,0,0,1,1.5,2.6l-.1,49.8c0,7.3,0,11.8-1.8,12.9l5.6-3.2c1.8-1,1.8-5.6,1.8-12.9-.8.5-1.8,1.1-2.8,1.6l2.8-1.6.1-49.8A3.014,3.014,0,0,0,504.6,530.3Z" fill="url(#linear-gradient-13)"/>
      </g>
      <g id="Group_2940" data-name="Group 2940">
        <g id="Group_2939" data-name="Group 2939">
          <path id="Path_12199" data-name="Path 12199" d="M422.3,301.9a13.2,13.2,0,0,1,1.2-5.9h-2.7a.1.1,0,0,0-.1.1h-.1a.1.1,0,0,0-.1.1h-.1a.1.1,0,0,0-.1.1h-.1c-.1,0-.1.1-.2.1h-.1c-.1.1-.2.1-.2.2h0c-.1,0-.1.1-.2.1l-.1.1c-.1,0-.1.1-.2.1l-.1.1-.2.2h0l-.2.2a.1.1,0,0,1-.1.1c0,.1-.1.1-.1.2a.1.1,0,0,1-.1.1c-.1.1-.1.2-.2.3a12.187,12.187,0,0,0-1.6,6.6,33.211,33.211,0,0,0,1.5,9c1.7,5.3,7.4,12.6,7.3,17.6a3.27,3.27,0,0,1-1.2,2.7l5.6-3.2q1.05-.6,1.2-2.7c.1-5-5.6-12.3-7.3-17.6A31.574,31.574,0,0,1,422.3,301.9Z" fill="url(#linear-gradient-14)"/>
          <path id="Path_12200" data-name="Path 12200" d="M502,308c-.1,0-.1-.1,0,0-.2-.1-.3-.2-.4-.2-.2-.1-.5-.2-.7-.3-3-1.1-5.7,1-8.3,1.9a5.583,5.583,0,0,1-2.2.3,11.018,11.018,0,0,1-1.8-.2,12.089,12.089,0,0,1-1.8-.5,18.009,18.009,0,0,1-3.1-1.4c-.2-.1-.5-.3-.7-.4-.1-.1-.2-.1-.3-.2a28.657,28.657,0,0,1-4-3.1,5.241,5.241,0,0,1-1-1.1c-.3-.3-.5-.6-.8-.9-5.7-6.7-6.8-15.6-6.8-22.3,0-5.5.8-11.6,4.5-13.7-1.7,1-3.9,2.3-5.6,3.2-3.7,2.1-4.4,8.2-4.5,13.7,0,6.7,1.1,15.6,6.8,22.3.3.3.5.6.8.9h0c.3.4.7.7,1,1.1a22.676,22.676,0,0,0,4,3.1c.1.1.2.1.3.2a4.349,4.349,0,0,1,.7.4,18.008,18.008,0,0,0,3.1,1.4,12.091,12.091,0,0,0,1.8.5,11.019,11.019,0,0,0,1.8.2,8.33,8.33,0,0,0,2.2-.3c2.7-.9,5.3-2.9,8.3-1.9.2.1.5.2.7.3.1,0,.2.1.3.2a.1.1,0,0,1,.1.1h0c4.8,3.4,4.8,8.2,4.8,18l-.1,49.8a1.333,1.333,0,0,1-.4,1l5.6-3.2a1.053,1.053,0,0,0,.4-1l.1-49.8C506.8,316.2,506.8,311.4,502,308Z" fill="url(#linear-gradient-15)"/>
          <path id="Path_12201" data-name="Path 12201" d="M419.2,177.7c.1,0,.1-.1.2-.1a18.578,18.578,0,0,1-1.9,1.1h0c3.6,2,6.1,3,7.4,2.2l5.6-3.2c-1.3.8-3.7-.2-7.4-2.2h0a12.055,12.055,0,0,0-1.6-.9c-.4-.2-.9-.5-1.6-.9-.3-.2-.7-.4-1.7-1l-43.4-25a1.11,1.11,0,0,0-1.1-.1l-5.6,3.2a1.11,1.11,0,0,1,1.1.1l43.4,25c1,.6,1.3.8,1.7,1,.7.4,1.2.7,1.6.9,1.3.7,1.4.8,1.6.9C418.1,178.4,418.6,178,419.2,177.7Zm3.6-2.1h0c-.1,0-.1,0-2,1.2C421.5,176.4,422.2,176,422.8,175.6Z" fill="url(#linear-gradient-16)"/>
          <path id="Path_12202" data-name="Path 12202" d="M505.5,223.1l-43.9-25.4c-.4-.2-.8-.5-1.4-.8-.2-.1-.3-.2-.5-.3h-.1c-6.9-4-10.3-6.5-10.7-11.3v-.7c.1-4.9,5.7-5.6,7.4-8.9a15.631,15.631,0,0,0,1.6-7.2,26.18,26.18,0,0,0-1.5-8.4c-3-8.3-10.2-13.7-16-17.1-4.9-2.8-10.7-5.3-14.2-3.2-1.7,1-3.9,2.3-5.6,3.2,3.6-2.1,9.4.4,14.2,3.2,5.8,3.4,13,8.8,16,17.1h0a23.71,23.71,0,0,1,1.5,8.4,15.937,15.937,0,0,1-1.6,7.2c-1.7,3.3-7.3,4-7.4,8.9v.7c.4,4.8,3.8,7.2,10.7,11.3h.1c.2.1.3.2.5.3.6.3,1,.6,1.4.8l43.9,25.4a3.531,3.531,0,0,1,1.5,2.6l-.1,49.8c0,7.3,0,11.8-1.8,12.9l5.6-3.2c1.8-1,1.8-5.6,1.8-12.9-.6.4-1.3.8-2,1.2l2-1.2.1-49.8A3.248,3.248,0,0,0,505.5,223.1Z" fill="url(#linear-gradient-17)"/>
        </g>
      </g>
      <path id="Path_12203" data-name="Path 12203" d="M500.4,72.8,383.5,5.3c-4.3-2.5-8.1-2.7-10.9-1.1L378.2,1c2.8-1.6,6.6-1.4,10.9,1.1L505.9,69.5a3.552,3.552,0,0,1,1.5,2.7l-.1,49.8c0,7.3,0,11.8-1.8,12.9l-5.6,3.2c1.8-1,1.8-5.6,1.8-12.9l.1-49.8A3.143,3.143,0,0,0,500.4,72.8Zm6.8,99.6-.1,49.8a1.1,1.1,0,0,1-.5,1l-5.6,3.2c.3-.2.4-.5.5-1l.1-49.8c0-9.8,0-14.6-4.8-18l-.1-.1c-.1-.1-.2-.1-.4-.2a6.894,6.894,0,0,0-1-.4c-3.1-.8-5.9,1.6-8.6,2.2a3.812,3.812,0,0,1-1.5.1,8.753,8.753,0,0,1-1.6-.2,12.09,12.09,0,0,1-1.8-.5,13.566,13.566,0,0,1-2.3-.9c-.5-.2-.9-.5-1.4-.7a.758.758,0,0,0-.4-.2l-.1-.1c-.9-.6-1.9-1.3-2.8-2a4.35,4.35,0,0,0-.7-.6h0a20.616,20.616,0,0,1-2.5-2.6c-5.7-6.7-6.8-15.6-6.8-22.3,0-5.5.8-11.5,4.5-13.7,1.7-1,3.9-2.3,5.6-3.2-3.7,2.1-4.4,8.2-4.5,13.7,0,6.7,1.1,15.6,6.8,22.3a30.7,30.7,0,0,0,2.5,2.6,4.35,4.35,0,0,0,.7.6,17.909,17.909,0,0,0,2.8,2l.1.1a.758.758,0,0,0,.4.2,9.143,9.143,0,0,0,1.4.7,10.947,10.947,0,0,0,2.3.9,12.092,12.092,0,0,0,1.8.5,9.971,9.971,0,0,0,1.6.2,7.568,7.568,0,0,0,1.5-.1c2.8-.6,5.5-3,8.6-2.2a4.18,4.18,0,0,1,1,.4c.1.1.2.1.4.2l.1.1C507.2,157.8,507.2,162.6,507.2,172.4Z" fill="url(#linear-gradient-18)"/>
      <g id="Group_2941" data-name="Group 2941">
        <path id="Path_12204" data-name="Path 12204" d="M505,288.3l-5.6,3.2c-.7.4-1.7.3-3.1-.3a12.132,12.132,0,0,1-1.4-1c-2.1-1.9-4.1-5.1-6-8.1a42.994,42.994,0,0,0-4.1-5.9,29.214,29.214,0,0,0-5.7-5c-.5-.3-.9-.6-1.8-1.1a11.671,11.671,0,0,0-6.1-1.7,4.895,4.895,0,0,0-2.5.7l5.6-3.2a5.2,5.2,0,0,1,2.5-.7,13.333,13.333,0,0,1,6.1,1.7c.9.5,1.3.8,1.8,1.1a32.964,32.964,0,0,1,5.7,5,35.718,35.718,0,0,1,4.1,5.9c1.9,3.1,3.8,6.2,6,8.1a12.132,12.132,0,0,0,1.4,1C503.3,288.6,504.3,288.7,505,288.3Zm53.5-30.2,5.6-3.2c-1.4.8-4-.3-8-2.6-.4-.2-.8-.5-2.1-1.2-.1-.1-.2-.1-.3-.2a2.185,2.185,0,0,0-.5-.3,9.664,9.664,0,0,0-1.2-.7l-43.4-25a1.11,1.11,0,0,0-1.1-.1l-5.6,3.2a1.11,1.11,0,0,1,1.1.1l43.4,25a9.668,9.668,0,0,1,1.2.7c.2.1.3.2.5.3.1.1.2.1.3.2,1.3.7,1.7,1,2.1,1.2C554.5,257.8,557.1,258.9,558.5,258.1Zm10-40.6c-3.3-1.3-6.4-1.8-8.7-.5-1.7,1-3.9,2.3-5.6,3.2,2.3-1.3,5.4-.8,8.7.5a39.987,39.987,0,0,1,5.5,2.7l2.8-1.6,2.8-1.6C572.2,219.2,570.3,218.3,568.5,217.5ZM555.9,379a12.188,12.188,0,0,1,1.6-6.6,5.162,5.162,0,0,1,1.8-1.8l-5.6,3.2a5.162,5.162,0,0,0-1.8,1.8,12.188,12.188,0,0,0-1.6,6.6,33.21,33.21,0,0,0,1.5,9c1.7,5.3,7.4,12.6,7.3,17.6a3.27,3.27,0,0,1-1.2,2.7l5.6-3.2q1.05-.6,1.2-2.7c.1-5-5.6-12.3-7.3-17.6A33.21,33.21,0,0,1,555.9,379Zm49.5,3.9a15.379,15.379,0,0,0,1.2,1.3c1.9-1.1,3.7-2.2,5.6-3.2a15.379,15.379,0,0,1-1.2-1.3,4.346,4.346,0,0,1-.6-.7c-1.9,1.1-3.7,2.2-5.6,3.2A4.345,4.345,0,0,0,605.4,382.9Zm1.2,1.3c1.9-1.1,3.7-2.2,5.6-3.2a22.116,22.116,0,0,0,4.3,3.4l.1.1c.1.1.2.1.3.2a18.143,18.143,0,0,0,3.3,1.5,12.09,12.09,0,0,0,1.8.5,11.018,11.018,0,0,0,1.8.2,8.33,8.33,0,0,0,2.2-.3c2.7-.9,5.3-2.9,8.3-1.9h0c.2.1.5.2.7.3-1.9,1.1-3.7,2.2-5.6,3.2-.2-.1-.5-.2-.7-.3-3-1.1-5.7,1-8.3,1.9a5.583,5.583,0,0,1-2.2.3,11.018,11.018,0,0,1-1.8-.2c.9-.5,1.9-1.1,2.8-1.6.6-.3,1.2-.7,1.8-1h0c-1.5.9-3.1,1.8-4.6,2.7a12.09,12.09,0,0,1-1.8-.5,18.143,18.143,0,0,1-3.3-1.5c-.1-.1-.2-.1-.3-.2l-.1-.1A33.054,33.054,0,0,1,606.6,384.2Zm17.2,3.7h0a1.237,1.237,0,0,1-.3.2C623.6,388,623.7,387.9,623.8,387.9Zm1.7-1c-.2.1-.3.2-.5.3.2-.2.4-.2.5-.3ZM610.4,379c-5.7-6.7-6.8-15.6-6.8-22.3-.8.5-1.8,1.1-2.8,1.6l2.8-1.6c0-5.6.8-11.7,4.3-13.8l-5.6,3.2c-3.5,2-4.3,8.2-4.3,13.8,0,6.7,1.1,15.6,6.8,22.3C606.7,381.2,608.5,380.1,610.4,379Zm19.5,9.3,5.6-3.2c-.1-.1-.2-.1-.3-.2-1.9,1.1-3.7,2.2-5.6,3.2C629.7,388.2,629.8,388.3,629.9,388.3Zm.1.1c4.8,3.4,4.8,8.2,4.8,18l-.1,49.8a1.333,1.333,0,0,1-.4,1l5.6-3.2a1.053,1.053,0,0,0,.4-1l.1-49.8c0-9.8,0-14.6-4.8-18a.1.1,0,0,1-.1-.1l-5.5,3.3Zm5.1-82.2L635,356c0,7.3,0,11.8-1.8,12.9l5.6-3.2c1.8-1,1.8-5.6,1.8-12.9-.6.4-1.3.8-2,1.2l2-1.2.1-49.8a3.209,3.209,0,0,0-1.5-2.6l-44-25.4c-.1-.1-.2-.1-.4-.2-.5-.3-1.5-.9-4.4-2.6-.5-.3-.9-.6-1.4-.9a29.346,29.346,0,0,1-2.7-2.1c-.4-.3-.8-.7-1.3-1.1-.5.3-1,.6-1.6.9l1.6-.9a5.5,5.5,0,0,1-.7-.9,8.834,8.834,0,0,1-1.7-4.5V262c.1-4.9,5.6-5.6,7.4-8.9a15.631,15.631,0,0,0,1.6-7.2,26.18,26.18,0,0,0-1.5-8.4c-3-8.3-10.2-13.7-16-17.1-.8.5-1.8,1.1-2.8,1.6-1,.6-2,1.1-2.8,1.6,5.8,3.4,13,8.8,16,17.1a23.711,23.711,0,0,1,1.5,8.4,15.937,15.937,0,0,1-1.6,7.2c-1.7,3.3-7.3,4-7.4,8.9v.7a8.5,8.5,0,0,0,1.7,4.5c.2.3.5.6.7.9.5.4.9.8,1.3,1.1a29.338,29.338,0,0,0,2.7,2.1c.5.3.9.6,1.4.9,3,1.8,4,2.4,4.4,2.6.2.1.3.2.4.2l44,25.4A3.209,3.209,0,0,1,635.1,306.2Z" fill="url(#linear-gradient-19)"/>
      </g>
      <g id="Group_2942" data-name="Group 2942">
        <path id="Path_12205" data-name="Path 12205" d="M634.7,672.3a6.072,6.072,0,0,1-1-.7c-3.3-2.6-6.1-8.5-9-12.5a24.927,24.927,0,0,0-1.9-2.3,27.839,27.839,0,0,0-6.8-5.5,12.828,12.828,0,0,0-5.8-1.9h-.6a4.895,4.895,0,0,0-2.5.7l-5.6,3.2a5.2,5.2,0,0,1,2.5-.7h.6a12.826,12.826,0,0,1,5.8,1.9,32.8,32.8,0,0,1,6.8,5.5c.9,1,1.4,1.7,1.9,2.3,2.9,4,5.7,9.9,9,12.5a6.072,6.072,0,0,0,1,.7c1.4.6,2.4.7,3.1.3l5.6-3.2C637.1,673,636.1,673,634.7,672.3Z" fill="url(#linear-gradient-20)"/>
        <path id="Path_12206" data-name="Path 12206" d="M686.7,635.4c-.5-.3-1-.5-1.5-.8a2.185,2.185,0,0,1-.5-.3l-43.4-25a1.11,1.11,0,0,0-1.1-.1l-5.6,3.2a1.11,1.11,0,0,1,1.1.1l43.4,25a2.185,2.185,0,0,1,.5.3,10.932,10.932,0,0,0,1.5.8c5.3,3,8.6,4.7,10.1,3.8l5.6-3.2C695.3,640.1,692,638.4,686.7,635.4Z" fill="url(#linear-gradient-21)"/>
        <path id="Path_12207" data-name="Path 12207" d="M768.4,769.5c0-.1-.1-.1,0,0-.2-.1-.3-.2-.4-.2-.2-.1-.5-.2-.7-.3-3-1.1-5.7,1-8.3,1.9a5.582,5.582,0,0,1-2.2.3h-.6a18.452,18.452,0,0,1-6.5-2.2c-.1,0-.2-.1-.3-.2l-.1-.1a24.679,24.679,0,0,1-6.1-5.3c-5.7-6.8-6.8-15.6-6.8-22.3,0-5.6.8-11.7,4.3-13.8-1.7,1-3.9,2.3-5.6,3.2-3.5,2-4.3,8.2-4.3,13.8,0,6.7,1.1,15.6,6.8,22.3a24.68,24.68,0,0,0,6.1,5.3l.1.1c.1.1.2.1.3.2a16.623,16.623,0,0,0,6.5,2.2h.6a8.329,8.329,0,0,0,2.2-.3c2.7-.9,5.3-2.9,8.3-1.9.2.1.5.2.7.3.1,0,.2.1.3.2h0a.1.1,0,0,1,.1.1c4.8,3.4,4.8,8.2,4.8,18l-.1,49.8a1.333,1.333,0,0,1-.4,1l5.6-3.2a1.053,1.053,0,0,0,.4-1l.1-49.8C773.2,777.7,773.2,772.9,768.4,769.5Z" fill="url(#linear-gradient-22)"/>
        <path id="Path_12208" data-name="Path 12208" d="M771.9,684.6l-43.4-25a2.185,2.185,0,0,1-.5-.3c-.5-.3-1-.6-1.9-1.1-7-4.1-10.4-6.5-10.8-11.3v-.7c.1-4.9,5.7-5.6,7.4-8.9a15.631,15.631,0,0,0,1.6-7.2,26.18,26.18,0,0,0-1.5-8.4c-3-8.3-10.2-13.7-16-17.1-4.9-2.8-10.7-5.2-14.2-3.2l-5.6,3.2c3.5-2.1,9.3.4,14.2,3.2,5.8,3.4,13,8.8,16,17.1a23.711,23.711,0,0,1,1.5,8.4,15.937,15.937,0,0,1-1.6,7.2c-1.7,3.3-7.3,4.1-7.4,8.9v.7c.4,4.8,3.8,7.2,10.8,11.3.9.5,1.4.8,1.9,1.1a2.185,2.185,0,0,1,.5.3l43.4,25a3.531,3.531,0,0,1,1.5,2.6l-.1,49.8c0,7.3,0,11.8-1.8,12.9l5.6-3.2c1.8-1,1.8-5.6,1.8-12.9l.1-49.8A3.014,3.014,0,0,0,771.9,684.6Z" fill="url(#linear-gradient-23)"/>
      </g>
      <g id="Group_2943" data-name="Group 2943">
        <path id="Path_12209" data-name="Path 12209" d="M496,464.8l-.8-.4c-.1,0-.2-.1-.3-.1-3-1.1-5.7,1-8.3,1.9a5.583,5.583,0,0,1-2.2.3H484a12.473,12.473,0,0,1-3.1-.7h-.1c-.4-.1-.8-.3-1.2-.4-.5-.2-.9-.4-1.4-.6-.1-.1-.2-.1-.3-.2s-.3-.1-.4-.2c-.1,0-.1-.1-.2-.1a.367.367,0,0,0-.3-.1,25.508,25.508,0,0,1-5.8-4.8c-.2-.2-.3-.4-.5-.5-5.7-6.8-6.8-15.6-6.8-22.3s1.2-14.3,6.9-14.5h.8a5.019,5.019,0,0,1,1.2.2h.2l.9.3c.4.1.7.3,1.1.4h0c.7.3,1.3.6,2,.9.1,0,.1.1.2.1.1.1.2.1.3.2a21.273,21.273,0,0,1,3.2,2.3l.1.1a10.951,10.951,0,0,1,1.1,1,9.265,9.265,0,0,1,1.4,1.4l.2.2.4.4c.1.1.1.2.2.2l.2.2a10.627,10.627,0,0,1,.9,1.1c.2.3.4.5.6.8s.5.7.7,1c.5.7,1,1.5,1.4,2.2s.9,1.4,1.3,2.1c.5.8,1,1.5,1.5,2.3a24.928,24.928,0,0,0,2.3,3.1,15.374,15.374,0,0,0,1.2,1.3,2.651,2.651,0,0,0,.6.5c.2.1.3.3.5.4s.3.2.5.3c4.6,2.1,4.9-2,5-10.6v-1.8l.1-49.8a3.362,3.362,0,0,0-1.5-2.6l-43.4-25a1.381,1.381,0,0,1-.4-.3l-.1-.1a7.255,7.255,0,0,0-.9-.5l-.6-.3h0c-.1-.1-.2-.1-.4-.2-7-4.1-10.4-6.5-10.8-11.3v-.7c.1-4.9,5.7-5.6,7.4-8.9a15.631,15.631,0,0,0,1.6-7.2,26.18,26.18,0,0,0-1.5-8.4c-3-8.3-10.2-13.7-16-17.1s-13-6.2-16-1.4a12.187,12.187,0,0,0-1.6,6.6,33.211,33.211,0,0,0,1.5,9c1.7,5.3,7.4,12.6,7.3,17.6v.5c-.4,3.7-3,3.1-8.2.3-.1,0-.2-.1-.3-.1h-.1c-.2-.1-.3-.2-.5-.3-.5-.3-.9-.5-1.3-.7-.3-.2-.8-.4-1.2-.7-.3-.2-.7-.4-1.7-1l-43.4-25c-.8-.5-1.5-.1-1.5.9l-.4,150.1a3.362,3.362,0,0,0,1.5,2.6l43.4,25,.6.3a19.955,19.955,0,0,0,2.4,1.3c1,.6,1.4.8,1.6.9.1,0,.1.1.2.1a.367.367,0,0,0,.3.1c5.1,2.7,7.7,3.4,8.2-.5,0-5.1-4.9-11.7-6.9-16.8-.1-.3-.3-.7-.4-1a29.747,29.747,0,0,1-1.5-9,12.187,12.187,0,0,1,1.6-6.6c3-4.8,10.2-2,16,1.4s13,8.8,16,17.1a23.71,23.71,0,0,1,1.5,8.4,15.937,15.937,0,0,1-1.6,7.2c-1.7,3.3-7.3,4.1-7.4,8.9v.7c.4,4.8,3.8,7.2,11.2,11.5.1,0,.1.1.2.1.4.2.8.5,1.3.7a2.187,2.187,0,0,1,.5.3l43.4,25c.8.5,1.5.1,1.5-.9l.1-49.8C500.8,473,500.8,468.3,496,464.8Z" fill="url(#linear-gradient-24)"/>
      </g>
      <g id="Group_2944" data-name="Group 2944">
        <path id="Path_12210" data-name="Path 12210" d="M900.5,611.5l-43.4-25a2.185,2.185,0,0,1-.5-.3h0c-.1-.1-.2-.1-.4-.2a6.4,6.4,0,0,0-1.1-.6.1.1,0,0,1-.1-.1c-.1-.1-.2-.1-.3-.2-4.9-2.9-8.1-5-9.7-7.6,0-.1-.1-.1-.1-.2-.1-.1-.1-.3-.2-.4s-.1-.3-.2-.4c0-.1-.1-.2-.1-.3-.1-.2-.1-.4-.2-.6v-.1c-.1-.2-.1-.5-.2-.7h0c0-.3-.1-.6-.1-.9v-.7c.1-4.9,5.7-5.6,7.4-8.9a15.631,15.631,0,0,0,1.6-7.2,26.18,26.18,0,0,0-1.5-8.4c-3-8.3-10.2-13.7-16-17.1s-13-6.2-16-1.4a12.187,12.187,0,0,0-1.6,6.6,30.014,30.014,0,0,0,1.6,9c1.7,5.2,7.2,12.4,7.3,17.4v.7a5.414,5.414,0,0,1-.4,1.5c-1.1,2.3-4.5.7-10.4-2.7-.1-.1-.2-.1-.3-.2a.1.1,0,0,1-.1-.1c-.2-.1-.5-.3-.7-.4s-.3-.2-.5-.3h-.1l-.1-.1h0c-.2-.1-.3-.2-.5-.3l-43.4-25c-.8-.5-1.5-.1-1.5.9l-.1,49.8c0,9.9,0,14.7-5,12.4a6.072,6.072,0,0,1-1-.7c-1.9-1.5-3.6-4.1-5.3-6.8-.4-.6-.8-1.3-1.2-1.9-.8-1.3-1.6-2.6-2.5-3.8-.5-.7-1-1.3-1.5-1.9l-.6-.6a29.413,29.413,0,0,0-6.7-5.4,13.567,13.567,0,0,0-5.7-1.8h-.6c-5.7.2-6.8,7.8-6.9,14.5,0,6.7,1.1,15.6,6.8,22.3a24.115,24.115,0,0,0,6.7,5.6,16.714,16.714,0,0,0,6.3,2.1h.6a8.329,8.329,0,0,0,2.2-.3c2.7-.9,5.3-2.9,8.3-1.9a7.581,7.581,0,0,1,1.5.8c4.4,3.1,4.4,7.9,4.4,17.8l-.1,49.8a3.362,3.362,0,0,0,1.5,2.6l43.4,25a2.185,2.185,0,0,1,.5.3c.5.3,1,.6,1.9,1.1,7,4,10.4,5.5,10.8,1.2v-.7c-.1-4.9-5.6-12.1-7.3-17.4a33.523,33.523,0,0,1-1.6-9,12.187,12.187,0,0,1,1.6-6.6c3-4.8,10.2-2,16,1.4s13,8.8,16,17.1a23.711,23.711,0,0,1,1.5,8.4,15.937,15.937,0,0,1-1.6,7.2c-1.7,3.3-7.3,4.1-7.4,8.9v.7c.4,4.8,3.8,7.2,11.2,11.5a10.932,10.932,0,0,0,1.5.8,2.185,2.185,0,0,1,.5.3l43.4,25c.8.5,1.5.1,1.5-.9l.4-150.1A3.58,3.58,0,0,0,900.5,611.5Z" fill="url(#linear-gradient-25)"/>
      </g>
      <g id="Group_2945" data-name="Group 2945">
        <path id="Path_12211" data-name="Path 12211" d="M500.4,72.8a3.552,3.552,0,0,1,1.5,2.7l-.1,49.8c0,9.9,0,14.7-4.4,12.7a9.8,9.8,0,0,1-1.9-1.3c-2.1-1.9-4.1-5.1-6-8.1a43,43,0,0,0-4.1-5.9,29.214,29.214,0,0,0-5.7-5c-.5-.3-.9-.6-1.4-.9a.758.758,0,0,0-.4-.2,11.316,11.316,0,0,0-5.6-1.7c-6.2.2-7.3,7.8-7.3,14.5s1.1,15.6,6.8,22.3a30.7,30.7,0,0,0,2.5,2.6,4.35,4.35,0,0,0,.7.6,26.4,26.4,0,0,0,2.9,2.1.758.758,0,0,0,.4.2,9.143,9.143,0,0,0,1.4.7,10.947,10.947,0,0,0,2.3.9,12.092,12.092,0,0,0,1.8.5,9.971,9.971,0,0,0,1.6.2,7.568,7.568,0,0,0,1.5-.1c2.8-.6,5.5-3,8.6-2.2a4.235,4.235,0,0,1,1.4.6c4.9,3.4,4.9,8.2,4.9,18.1l-.1,49.8c0,1-.7,1.4-1.5.9l-43.4-25c-.3-.2-.4-.2-.5-.3a10.929,10.929,0,0,0-1.5-.8c-7.4-4.3-10.8-6.7-11.2-11.6v-.7c.1-4.9,5.7-5.6,7.4-8.9a15.631,15.631,0,0,0,1.6-7.2,26.18,26.18,0,0,0-1.5-8.4c-3-8.3-10.2-13.7-16-17.1s-13-6.2-16-1.4a12.187,12.187,0,0,0-1.6,6.6,33.211,33.211,0,0,0,1.5,9c1.7,5.3,7.4,12.6,7.3,17.6v.5c-.4,3.8-3.1,3.1-8.5.1l-.6-.3c-2.9-1.6-3.2-1.8-3.6-2-.2-.1-.3-.2-.5-.3L369.3,151a3.552,3.552,0,0,1-1.5-2.7l.4-134.2c0-9.7,6.9-13.6,15.4-8.8Z" fill="url(#linear-gradient-26)"/>
      </g>
      <g id="Group_2946" data-name="Group 2946">
        <path id="Path_12212" data-name="Path 12212" d="M738.1,576.2h.8a14.058,14.058,0,0,1,5.9,2.1,29.992,29.992,0,0,1,6.3,5.2l.6.6c.5.6,1,1.2,1.5,1.9.8,1.1,1.6,2.4,2.5,3.8.4.6.8,1.3,1.2,1.9,1.7,2.7,3.4,5.3,5.3,6.8a9.319,9.319,0,0,0,1.5,1c4.4,2,4.4-2.8,4.5-12.7l.1-49.8a3.209,3.209,0,0,0-1.5-2.6L722.9,509c-.5-.3-1-.6-1.9-1.1-7-4.1-10.4-6.5-10.8-11.3v-.7c.1-4.9,5.7-5.6,7.4-8.9a15.631,15.631,0,0,0,1.6-7.2,26.18,26.18,0,0,0-1.5-8.4c-3-8.3-10.2-13.7-16-17.1s-13-6.2-16-1.4a12.188,12.188,0,0,0-1.6,6.6,30.015,30.015,0,0,0,1.6,9c1.7,5.2,7.2,12.4,7.3,17.4v.7c-.4,4.3-3.9,2.8-11.2-1.4a20.28,20.28,0,0,1-2-1.2l-43.4-25c-.8-.5-1.5-.1-1.5.9l-.1,49.8c0,9.9,0,14.7-5,12.4a6.072,6.072,0,0,1-1-.7c-3.3-2.6-6.1-8.5-9-12.5a24.927,24.927,0,0,0-1.9-2.3,27.839,27.839,0,0,0-6.8-5.5,12.827,12.827,0,0,0-5.8-1.9h-.6c-5.7.2-6.8,7.8-6.9,14.5,0,6.7,1.1,15.6,6.8,22.3a25.317,25.317,0,0,0,6.7,5.6,16.944,16.944,0,0,0,6.9,2.2,7.8,7.8,0,0,0,2.2-.3c2.7-.9,5.3-2.9,8.3-1.9a7.581,7.581,0,0,1,1.5.8c4.4,3.1,4.4,7.9,4.4,17.7l-.1,49.8a3.209,3.209,0,0,0,1.5,2.6l43.4,25a2.185,2.185,0,0,1,.5.3c.5.3,1,.6,1.9,1.1,7,4,10.4,5.5,10.8,1.2v-.7c-.1-4.9-5.6-12.1-7.3-17.4a33.523,33.523,0,0,1-1.6-9,12.187,12.187,0,0,1,1.6-6.6c3-4.8,10.2-2,16,1.4s13,8.8,16,17.1a23.711,23.711,0,0,1,1.5,8.4,15.937,15.937,0,0,1-1.6,7.2c-1.7,3.3-7.3,4.1-7.4,8.9v.7c.4,4.8,3.8,7.2,11.2,11.5a10.932,10.932,0,0,0,1.5.8,2.185,2.185,0,0,1,.5.3l43.4,25c.8.5,1.5.1,1.5-.9L768,637c0-9.9,0-14.7-4.9-18.1-.3-.2-.7-.3-1-.5-3-1.1-5.7,1-8.3,1.9a5.582,5.582,0,0,1-2.2.3H751a16.905,16.905,0,0,1-6.8-2.4,25.917,25.917,0,0,1-6.3-5.4c-5.7-6.8-6.8-15.6-6.8-22.3C731.3,584,732.4,576.4,738.1,576.2Z" fill="url(#linear-gradient-27)"/>
      </g>
      <g id="Group_2947" data-name="Group 2947">
        <path id="Path_12213" data-name="Path 12213" d="M433.9,453.5c5.8,3.4,13,8.8,16,17.1a23.71,23.71,0,0,1,1.5,8.4,15.937,15.937,0,0,1-1.6,7.2c-1.7,3.3-7.3,4.1-7.4,8.9v.7c.4,4.8,3.8,7.2,10.8,11.3.9.5,1.4.8,1.9,1.1a2.187,2.187,0,0,1,.5.3l43.4,25a3.531,3.531,0,0,1,1.5,2.6l-.1,49.8c0,9.9,0,14.7-4.4,12.7a2.186,2.186,0,0,1-.5-.3,6.072,6.072,0,0,1-1-.7c-3.3-2.6-6.1-8.5-9-12.5-.5-.7-1-1.3-1.5-1.9a31.211,31.211,0,0,0-6.9-5.8,13.613,13.613,0,0,0-5.9-2.1h-.8c-5.7.2-6.9,7.8-6.9,14.5s1.1,15.6,6.8,22.3c.2.2.3.4.5.5a23.13,23.13,0,0,0,5.8,4.8,17.8,17.8,0,0,0,6.9,2.4,6.382,6.382,0,0,0,2.6-.3c2.7-.9,5.3-2.9,8.3-1.9a4.669,4.669,0,0,1,1,.5c4.9,3.4,4.9,8.2,4.9,18.1l-.1,49.8c0,1-.7,1.4-1.5.9L381.9,619.5c-8.4-4.9-15.3-16.7-15.3-26.4l.4-134.2c0-1,.7-1.4,1.5-.9l43.4,25,.6.3c.4.2.7.4,1.1.6a21.394,21.394,0,0,1,3.1,1.8c5.4,2.9,8.1,3.7,8.5-.1.1-5.4-5.5-12.7-7.3-18.1a29.747,29.747,0,0,1-1.5-9,12.187,12.187,0,0,1,1.6-6.6C420.9,447.3,428,450.1,433.9,453.5Z" fill="url(#linear-gradient-28)"/>
      </g>
      <g id="Group_2948" data-name="Group 2948">
        <path id="Path_12214" data-name="Path 12214" d="M834.9,685c5.8,3.4,13,8.8,16,17.1a23.711,23.711,0,0,1,1.5,8.4,15.937,15.937,0,0,1-1.6,7.2c-1.7,3.3-7.3,4.1-7.4,8.9v.7c.4,4.8,3.8,7.2,10.8,11.3.9.5,1.4.8,1.9,1.1a2.185,2.185,0,0,1,.5.3L900,765a3.531,3.531,0,0,1,1.5,2.6l-.4,134.2c0,9.7-6.9,13.6-15.4,8.8L769,843.2a3.531,3.531,0,0,1-1.5-2.6l.1-49.8c0-9.9,0-14.7-4.4-17.8a12.294,12.294,0,0,0-1.5-.8c-3-1.1-5.7,1-8.3,1.9a5.582,5.582,0,0,1-2.2.3h-.6a16.168,16.168,0,0,1-6.3-2.1,24.116,24.116,0,0,1-6.7-5.6c-5.7-6.8-6.8-15.6-6.8-22.3s1.2-14.3,6.9-14.5h.6a13.567,13.567,0,0,1,5.7,1.8,27.4,27.4,0,0,1,6.7,5.4l.6.6c.5.6,1,1.2,1.5,1.9.8,1.1,1.6,2.4,2.5,3.8.4.6.8,1.3,1.2,1.9,1.7,2.7,3.4,5.3,5.3,6.8a6.072,6.072,0,0,0,1,.7c4.9,2.3,5-2.5,5-12.4l.1-49.8c0-1,.7-1.4,1.5-.9l43.4,25a2.185,2.185,0,0,1,.5.3,10.932,10.932,0,0,0,1.5.8c7.4,4.2,10.8,5.7,11.2,1.4v-.7c-.1-4.9-5.6-12.1-7.3-17.4a33.523,33.523,0,0,1-1.6-9,12.187,12.187,0,0,1,1.6-6.6C821.9,678.8,829,681.6,834.9,685Z" fill="url(#linear-gradient-29)"/>
      </g>
      <g id="Group_2949" data-name="Group 2949">
        <path id="Path_12215" data-name="Path 12215" d="M604.5,499h.8a14.058,14.058,0,0,1,5.9,2.1,33.653,33.653,0,0,1,6.9,5.8c.5.6,1,1.2,1.5,1.9,2.9,4,5.7,9.9,9,12.5a9.319,9.319,0,0,0,1.5,1c4.4,2,4.4-2.8,4.4-12.7l.1-49.8a3.362,3.362,0,0,0-1.5-2.6l-44-25.4c-.4-.2-.7-.4-4.8-2.9a32.918,32.918,0,0,1-5.4-4.1,8.129,8.129,0,0,1-2.4-5.4v-.7c.1-4.9,5.6-5.6,7.4-8.9a15.631,15.631,0,0,0,1.6-7.2,26.18,26.18,0,0,0-1.5-8.4c-3-8.3-10.2-13.7-16-17.1s-13-6.2-16-1.4a12.188,12.188,0,0,0-1.6,6.6,33.21,33.21,0,0,0,1.5,9c1.7,5.3,7.4,12.6,7.3,18.1-.4,3.9-3.3,3-9.1-.2-.4-.2-.9-.5-2.5-1.4-.4-.2-.7-.4-1.7-1l-43.4-25c-.8-.5-1.5-.1-1.5.9l-.1,49.8c0,9.9,0,14.7-5,12.4a6.07,6.07,0,0,1-1-.7c-3.3-2.6-6.1-8.5-9-12.5a24.931,24.931,0,0,0-1.9-2.3,29.187,29.187,0,0,0-6.9-5.6,13.757,13.757,0,0,0-5.4-1.8h-.8c-5.7.2-6.9,7.8-6.9,14.5s1.1,15.6,7.2,22.9a25.594,25.594,0,0,0,6.2,5.1,16.944,16.944,0,0,0,6.9,2.2,7.8,7.8,0,0,0,2.2-.3c2.7-.9,5.3-2.9,8.3-1.9a7.583,7.583,0,0,1,1.5.8c4.4,3.1,4.4,7.9,4.4,17.7l-.1,49.8a3.362,3.362,0,0,0,1.5,2.6l43.4,25,.6.3a20.249,20.249,0,0,1,2.2,1.3c.5.3.9.5,1.4.8,5.8,3.2,8.7,4.2,9.1-.3.1-5-5.6-12.3-7.3-17.6a29.747,29.747,0,0,1-1.5-9,12.187,12.187,0,0,1,1.6-6.6c3-4.8,10.2-2,16,1.4s13,8.8,16,17.1a23.711,23.711,0,0,1,1.5,8.4,15.937,15.937,0,0,1-1.6,7.2c-1.7,3.3-7.3,4.1-7.4,8.9v.7c.2,2.2,1,3.9,3.9,6.8,1.1.9,2.3,1.7,7.6,4.9a10.9,10.9,0,0,0,1.1.6l.6.3,43.4,25c.8.5,1.5.1,1.5-.9l.1-49.8c0-9.9,0-14.7-4.9-18.1-.3-.2-.7-.3-1-.5-3-1.1-5.7,1-8.3,1.9a6.633,6.633,0,0,1-2.6.3,18.187,18.187,0,0,1-6.8-2.3,26.282,26.282,0,0,1-6.4-5.4c-5.7-6.8-6.8-15.6-6.8-22.3C597.6,506.8,598.8,499.3,604.5,499Z" fill="url(#linear-gradient-30)"/>
      </g>
      <g id="Group_2950" data-name="Group 2950">
        <path id="Path_12216" data-name="Path 12216" d="M567.5,530.6c5.8,3.4,13,8.8,16,17.1a23.711,23.711,0,0,1,1.5,8.4,15.937,15.937,0,0,1-1.6,7.2c-1.7,3.3-7.3,4.1-7.4,8.9v.7a8.685,8.685,0,0,0,2.4,5.4,34.573,34.573,0,0,0,5.4,4.1c4.1,2.4,4.5,2.6,4.8,2.9l.6.3,43.4,25a3.531,3.531,0,0,1,1.5,2.6L634,663c0,9.9,0,14.7-4.4,12.7a6.126,6.126,0,0,1-1.5-1c-3.3-2.6-6.1-8.5-9-12.5-.5-.7-1-1.3-1.5-1.9a29.106,29.106,0,0,0-6.9-5.8,14.546,14.546,0,0,0-5.9-2.1H604c-5.7.2-6.8,7.8-6.9,14.5,0,6.7,1.1,15.6,6.8,22.3a24.227,24.227,0,0,0,6.4,5.4,17.634,17.634,0,0,0,6.8,2.3,6.382,6.382,0,0,0,2.6-.3c2.7-.9,5.3-2.9,8.3-1.9a4.669,4.669,0,0,1,1,.5c4.9,3.4,4.9,8.2,4.9,18.1l-.1,49.8c0,1-.7,1.4-1.5.9L501.7,688.6a3.531,3.531,0,0,1-1.5-2.6l.1-49.8c0-9.9,0-14.7-4.4-17.8a12.291,12.291,0,0,0-1.5-.8c-3-1.1-5.7,1-8.3,1.9a5.582,5.582,0,0,1-2.2.3,15.973,15.973,0,0,1-6.9-2.2,25.6,25.6,0,0,1-6.2-5.1c-6.1-7.3-7.3-16.2-7.2-22.9,0-6.7,1.2-14.3,6.9-14.5h.8a13.257,13.257,0,0,1,5.4,1.8,29.187,29.187,0,0,1,6.9,5.6c.9,1,1.4,1.7,1.9,2.3,2.9,4,5.7,9.9,9,12.5a6.072,6.072,0,0,0,1,.7c4.9,2.3,4.9-2.5,5-12.4l.1-49.8c0-1,.7-1.4,1.5-.9l43.4,25,.6.3a10.916,10.916,0,0,1,1.1.6c1.6.9,2,1.2,2.5,1.4,5.8,3.2,8.7,4.2,9.1.2.1-5.4-5.5-12.7-7.3-18.1a29.747,29.747,0,0,1-1.5-9,12.187,12.187,0,0,1,1.6-6.6C554.5,524.5,561.7,527.3,567.5,530.6Z" fill="url(#linear-gradient-31)"/>
      </g>
      <g id="Group_2951" data-name="Group 2951">
        <path id="Path_12217" data-name="Path 12217" d="M499.9,226.4l-43.4-25c-.3-.2-.4-.2-.5-.3-.4-.2-.7-.4-1.3-.7-.1,0-.1-.1-.2-.1h-.1c-.1-.1-.2-.1-.4-.2-7-4.1-10.4-6.5-10.8-11.3v-.7c.1-4.9,5.7-5.6,7.4-8.9a15.631,15.631,0,0,0,1.6-7.2,26.18,26.18,0,0,0-1.5-8.4c-3-8.3-10.2-13.7-16-17.1s-13-6.2-16-1.4a12.187,12.187,0,0,0-1.6,6.6,33.211,33.211,0,0,0,1.5,9,4.18,4.18,0,0,0,.4,1c2,5.2,7,11.9,6.9,16.6v.5c-.4,3.8-3.1,3.1-8.5.1a.1.1,0,0,1-.1-.1c-.2-.1-.3-.2-.5-.3-.5-.3-.9-.5-1.2-.7-.4-.2-.8-.4-1.3-.7a4.453,4.453,0,0,1-.8-.5,207338554991.345,207338554991.345,0,0,1-.2-.2h0c-.1-.1-.2-.1-.3-.2-.1,0-.1-.1-.2-.1h0a.1.1,0,0,1-.1-.1l-43.4-25c-.8-.5-1.5-.1-1.5.9L367.4,302a3.362,3.362,0,0,0,1.5,2.6l44,25.4c.4.2.7.4,3.6,2l.6.3c5.4,2.9,8.1,3.7,8.5-.6.1-5-5.6-12.3-7.3-17.6a29.747,29.747,0,0,1-1.5-9,12.187,12.187,0,0,1,1.6-6.6c3-4.8,10.2-2,16,1.4s13,8.8,16,17.1a23.71,23.71,0,0,1,1.5,8.4,15.937,15.937,0,0,1-1.6,7.2c-1.7,3.3-7.3,4-7.4,8.9v.7c.4,4.8,3.8,7.2,11.2,11.6l2,1.2,43.4,25c.8.5,1.5.1,1.5-.9l.1-49.8c0-9.9,0-14.7-4.9-18.1-.3-.2-.7-.3-1-.5-3-1.1-5.7,1-8.3,1.9a5.583,5.583,0,0,1-2.2.3,11.018,11.018,0,0,1-1.8-.2,12.089,12.089,0,0,1-1.8-.5,19.692,19.692,0,0,1-3.8-1.8,25.952,25.952,0,0,1-4.3-3.3,5.241,5.241,0,0,1-1-1.1c-.3-.3-.5-.6-.8-.9-5.7-6.7-6.8-15.6-6.8-22.3s1.2-14.3,7.3-14.5a12.471,12.471,0,0,1,6,2c.5.3.9.6,1.4.9a32.964,32.964,0,0,1,5.7,5,35.718,35.718,0,0,1,4.1,5.9c1.9,3.1,3.8,6.2,6,8.1a14.643,14.643,0,0,0,1.9,1.3c4.4,2,4.4-2.8,4.4-12.7l.1-49.8A2.637,2.637,0,0,0,499.9,226.4Z" fill="url(#linear-gradient-32)"/>
      </g>
      <g id="Group_2952" data-name="Group 2952">
        <path id="Path_12218" data-name="Path 12218" d="M701.2,607.8c5.8,3.4,13,8.8,16,17.1a23.711,23.711,0,0,1,1.5,8.4,15.937,15.937,0,0,1-1.6,7.2c-1.7,3.3-7.3,4.1-7.4,8.9v.7c.4,4.8,3.8,7.2,10.8,11.3.9.5,1.4.8,1.9,1.1a2.185,2.185,0,0,1,.5.3l43.4,25a3.531,3.531,0,0,1,1.5,2.6l-.1,49.8c0,9.9,0,14.7-4.5,12.7a6.126,6.126,0,0,1-1.5-1c-1.9-1.5-3.6-4.1-5.3-6.8-.4-.6-.8-1.3-1.2-1.9-.8-1.3-1.6-2.6-2.5-3.8-.5-.7-1-1.3-1.5-1.9l-.6-.6a29.993,29.993,0,0,0-6.3-5.2,13.613,13.613,0,0,0-5.9-2.1h-.8c-5.7.2-6.8,7.8-6.9,14.5,0,6.7,1.1,15.6,6.8,22.3a24.19,24.19,0,0,0,6.3,5.4,16.905,16.905,0,0,0,6.8,2.4h.6a8.329,8.329,0,0,0,2.2-.3c2.7-.9,5.3-2.9,8.3-1.9a4.669,4.669,0,0,1,1,.5c4.9,3.4,4.9,8.2,4.9,18.1l-.1,49.8c0,1-.7,1.4-1.5.9L635.3,766a3.531,3.531,0,0,1-1.5-2.6l.1-49.8c0-9.9,0-14.7-4.4-17.8a12.294,12.294,0,0,0-1.5-.8c-3-1.1-5.7,1-8.3,1.9a5.582,5.582,0,0,1-2.2.3,15.973,15.973,0,0,1-6.9-2.2,27.371,27.371,0,0,1-6.7-5.6c-5.7-6.8-6.8-15.6-6.8-22.3s1.2-14.3,6.9-14.5h.6a12.826,12.826,0,0,1,5.8,1.9,32.8,32.8,0,0,1,6.8,5.5c.9,1,1.4,1.7,1.9,2.3,2.9,4,5.7,9.9,9,12.5a6.072,6.072,0,0,0,1,.7c4.9,2.3,4.9-2.5,5-12.4l.1-49.8c0-1,.7-1.4,1.5-.9l43.4,25a2.185,2.185,0,0,1,.5.3,10.932,10.932,0,0,0,1.5.8c7.4,4.2,10.8,5.7,11.2,1.4v-.7c-.1-4.9-5.6-12.1-7.3-17.4a33.523,33.523,0,0,1-1.6-9,12.187,12.187,0,0,1,1.6-6.6C688.2,601.6,695.4,604.4,701.2,607.8Z" fill="url(#linear-gradient-33)"/>
      </g>
      <g id="Group_2955" data-name="Group 2955">
        <rect id="Rectangle_323" data-name="Rectangle 323" width="213" height="281" transform="translate(576 582)" fill="none" opacity="0.5"/>
        <g id="Group_2954" data-name="Group 2954">
          <g id="Group_2953" data-name="Group 2953">
            <path id="Path_12219" data-name="Path 12219" d="M701.2,607.8c5.8,3.4,13,8.8,16,17.1a23.711,23.711,0,0,1,1.5,8.4,15.937,15.937,0,0,1-1.6,7.2c-1.7,3.3-7.3,4.1-7.4,8.9v.7c.4,4.8,3.8,7.2,10.8,11.3.9.5,1.4.8,1.9,1.1a2.185,2.185,0,0,1,.5.3l43.4,25a3.531,3.531,0,0,1,1.5,2.6l-.1,49.8c0,9.9,0,14.7-4.5,12.7a6.126,6.126,0,0,1-1.5-1c-1.9-1.5-3.6-4.1-5.3-6.8-.4-.6-.8-1.3-1.2-1.9-.8-1.3-1.6-2.6-2.5-3.8-.5-.7-1-1.3-1.5-1.9l-.6-.6a29.993,29.993,0,0,0-6.3-5.2,13.613,13.613,0,0,0-5.9-2.1h-.8c-5.7.2-6.8,7.8-6.9,14.5,0,6.7,1.1,15.6,6.8,22.3a24.19,24.19,0,0,0,6.3,5.4,16.905,16.905,0,0,0,6.8,2.4h.6a8.329,8.329,0,0,0,2.2-.3c2.7-.9,5.3-2.9,8.3-1.9a4.669,4.669,0,0,1,1,.5c4.9,3.4,4.9,8.2,4.9,18.1l-.1,49.8c0,1-.7,1.4-1.5.9L635.3,766a3.531,3.531,0,0,1-1.5-2.6l.1-49.8c0-9.9,0-14.7-4.4-17.8a12.294,12.294,0,0,0-1.5-.8c-3-1.1-5.7,1-8.3,1.9a5.582,5.582,0,0,1-2.2.3,15.973,15.973,0,0,1-6.9-2.2,27.371,27.371,0,0,1-6.7-5.6c-5.7-6.8-6.8-15.6-6.8-22.3s1.2-14.3,6.9-14.5h.6a12.826,12.826,0,0,1,5.8,1.9,32.8,32.8,0,0,1,6.8,5.5c.9,1,1.4,1.7,1.9,2.3,2.9,4,5.7,9.9,9,12.5a6.072,6.072,0,0,0,1,.7c4.9,2.3,4.9-2.5,5-12.4l.1-49.8c0-1,.7-1.4,1.5-.9l43.4,25a2.185,2.185,0,0,1,.5.3,10.932,10.932,0,0,0,1.5.8c7.4,4.2,10.8,5.7,11.2,1.4v-.7c-.1-4.9-5.6-12.1-7.3-17.4a33.523,33.523,0,0,1-1.6-9,12.187,12.187,0,0,1,1.6-6.6C688.2,601.6,695.4,604.4,701.2,607.8Z" fill="url(#linear-gradient-33)"/>
          </g>
        </g>
      </g>
      <g id="Group_2956" data-name="Group 2956">
        <path id="Path_12220" data-name="Path 12220" d="M633.6,303.5l-44-25.4c-.4-.2-.7-.4-4.8-2.9a32.918,32.918,0,0,1-5.4-4.1,8.129,8.129,0,0,1-2.4-5.4V265c.1-4.9,5.6-5.6,7.4-8.9a15.631,15.631,0,0,0,1.6-7.2,26.18,26.18,0,0,0-1.5-8.4c-3-8.3-10.2-13.7-16-17.1s-13-6.2-16-1.4a12.187,12.187,0,0,0-1.6,6.6,33.21,33.21,0,0,0,1.5,9c1.7,5.3,7.4,12.6,7.3,18.1-.4,3.9-3.3,3-9.1-.2-.4-.2-.9-.5-2.5-1.4-.4-.2-.7-.4-1.7-1l-43.4-25c-.8-.5-1.5-.1-1.5.9l-.1,49.8c0,9.9,0,14.7-5,12.4a12.132,12.132,0,0,1-1.4-1c-2.1-1.9-4.1-5.1-6-8.1a42.994,42.994,0,0,0-4.1-5.9,29.214,29.214,0,0,0-5.7-5c-.5-.3-.9-.6-1.8-1.1a11.671,11.671,0,0,0-6.1-1.7c-5.7.2-6.9,7.8-6.9,14.5s1.1,15.6,6.8,22.3a6.471,6.471,0,0,0,.8.9c.3.4.7.7,1,1.1a29.305,29.305,0,0,0,5.1,3.8,19.444,19.444,0,0,0,3,1.3,12.091,12.091,0,0,0,1.8.5,11.019,11.019,0,0,0,1.8.2,8.33,8.33,0,0,0,2.2-.3c2.7-.9,5.3-2.9,8.3-1.9a7.583,7.583,0,0,1,1.5.8c4.4,3.1,4.4,7.9,4.4,17.7l-.1,49.8a3.209,3.209,0,0,0,1.5,2.6l43.4,25,.6.3a20.243,20.243,0,0,1,2.2,1.3c.5.3.9.5,1.4.8,5.8,3.2,8.7,4.2,9.1-.3.1-5-5.6-12.3-7.3-17.6a29.747,29.747,0,0,1-1.5-9,12.188,12.188,0,0,1,1.6-6.6c3-4.8,10.2-2,16,1.4s13,8.8,16,17.1a23.711,23.711,0,0,1,1.5,8.4,15.937,15.937,0,0,1-1.6,7.2c-1.7,3.3-7.3,4-7.4,8.9v.7c.2,2.2,1,3.9,3.9,6.8,1.1.9,2.3,1.7,7.6,4.9.3.2.7.4,1.7,1l43.4,25c.8.5,1.5.1,1.5-.9l.1-49.8c0-9.9,0-14.7-4.9-18.1-.3-.2-.7-.3-1-.5-3-1.1-5.7,1-8.3,1.9a5.583,5.583,0,0,1-2.2.3,11.018,11.018,0,0,1-1.8-.2,12.09,12.09,0,0,1-1.8-.5,21.837,21.837,0,0,1-3.6-1.7,27.478,27.478,0,0,1-4.5-3.5,15.379,15.379,0,0,1-1.2-1.3,4.346,4.346,0,0,1-.6-.7c-5.7-6.7-6.8-15.6-6.8-22.3s1.2-14.3,6.9-14.5h1c.2,0,.5.1.7.1a14.552,14.552,0,0,1,4.7,1.8,15.02,15.02,0,0,1,2.3,1.5,28.14,28.14,0,0,1,4.8,4.4,35.715,35.715,0,0,1,4.1,5.9c1.9,3.1,3.8,6.2,6,8.1a14.644,14.644,0,0,0,1.9,1.3c4.4,2,4.4-2.8,4.4-12.7l.1-49.8C635.1,305.2,634.4,304,633.6,303.5Z" fill="url(#linear-gradient-35)"/>
      </g>
      <g id="Group_2958" data-name="Group 2958">
        <path id="Path_12221" data-name="Path 12221" d="M965.9,925.3l-3.9-1.7-2.9-23.1,3.9,1.7Zm-9.2-72.8-3.9-1.7,5.2,41.3-36.9,20.5,3.9,1.7,36.9-20.5Zm-5-10-37,20.5,3.9,1.7,36.9-20.5-5.2-41.3-3.9-1.7Zm-6.3-49.6-36.9,20.5,3.9,1.7,36.9-20.5-5.2-41.3-3.9-1.7Zm-6.3-49.6-36.9,20.5,3.9,1.7L943,745l-5.2-41.3-3.9-1.7Zm-11.6-90.9,5.2,41.3-36.9,20.5,3.9,1.7,36.9-20.5-5.2-41.3Zm-38,12.2,3.9,1.7,36.9-20.5-2.9-23.2,7-3.9-3.9-1.7-6.9,3.9,2.9,23.2Zm1-21.5-3.9-1.7-6.9,3.9L918.2,948l3.9,1.7L883.6,647Z" fill="url(#linear-gradient-36)"/>
        <g id="Group_2957" data-name="Group 2957">
          <path id="Path_12222" data-name="Path 12222" d="M893.5,666.2l36.9-20.5-2.9-23.2,6.9-3.9,38.5,302.7-6.9,3.9-2.9-23.1L926,922.6l2.9,23.1-6.9,3.9L883.5,646.9l6.9-3.9Zm31.5,248,36.9-20.5-5.2-41.3-37,20.6,5.3,41.2M906.1,765.4,943,745l-5.2-41.3-36.9,20.5,5.2,41.2m12.6,99.3,36.9-20.5-5.2-41.3-36.9,20.5,5.2,41.3M912.4,815l36.9-20.5-5.2-41.3-36.9,20.5,5.2,41.3m-12.6-99.2,36.9-20.5L931.5,654l-36.9,20.5,5.2,41.3" fill="url(#linear-gradient-37)"/>
        </g>
      </g>
      <g id="Group_2960" data-name="Group 2960">
        <path id="Path_12223" data-name="Path 12223" d="M633.7,811l3.9-1.7-2.9,23.1-3.9,1.7Zm1.1-8.3,36.9,20.5,3.9-1.7L638.7,801l5.2-41.3-3.9,1.7Zm15.4-92.5-3.9,1.7-5.2,41.3L678,773.7l3.9-1.7L645,751.4Zm6.3-49.7-3.9,1.7-5.2,41.3L684.3,724l3.9-1.7-36.9-20.5Zm6.3-49.5-3.9,1.7L653.7,654l36.9,20.5,3.9-1.7-36.9-20.5Zm2.4-48L660,604.3l36.9,20.5,3.9-1.7-36.9-20.5,5.2-41.3Zm5-10,2.9-23.2-6.9-3.9-3.9,1.7,7,3.9-2.9,23.2,36.9,20.5,3.9-1.7Zm42.9,2.8L674.6,858.5l3.9-1.7L717,554.2l-6.9-3.9-3.9,1.7Z" fill="url(#linear-gradient-38)"/>
        <g id="Group_2959" data-name="Group 2959">
          <path id="Path_12224" data-name="Path 12224" d="M706.1,552l6.9,3.9L674.5,858.6l-6.9-3.9,2.9-23.1L633.7,811l-2.9,23.1-6.9-3.9,38.5-302.7,6.9,3.9-2.9,23.2,36.9,20.5ZM671.7,823.1l5.2-41.3L640,761.4l-5.2,41.3,36.9,20.4m18.9-148.8,5.2-41.3-36.9-20.5-5.2,41.3,36.9,20.5M678,773.5l5.2-41.3-36.9-20.5L641.1,753,678,773.5m6.3-49.6,5.2-41.3-36.9-20.5-5.2,41.3,36.9,20.5m12.6-99.2,5.2-41.3L665.2,563,660,604.3l36.9,20.4" fill="url(#linear-gradient-39)"/>
        </g>
      </g>
      <g id="Group_2961" data-name="Group 2961">
        <path id="Path_12225" data-name="Path 12225" d="M816.5,394.6l-6.1,2c-.8.3-1.7,0-3-.9a10.948,10.948,0,0,1-1-1.1c-1.8-2.3-3.1-5.9-4.4-9.4a37.24,37.24,0,0,0-2.9-6.6,35.41,35.41,0,0,0-3.4-4.9l-.6-.6-.8-.8c-.3-.3-.6-.6-1.3-1.2a12.66,12.66,0,0,0-5-2.8,4.329,4.329,0,0,1-.5-.1,4.5,4.5,0,0,0-2.6.2l6.1-2a5.651,5.651,0,0,1,2.6-.2,4.329,4.329,0,0,1,.5.1,12.022,12.022,0,0,1,5,2.8c.7.6,1,.9,1.3,1.2l.8.8.6.6a30.271,30.271,0,0,1,3.4,4.9,40.8,40.8,0,0,1,2.9,6.6c1.3,3.5,2.6,7.1,4.4,9.4a5.241,5.241,0,0,0,1,1.1C814.8,394.6,815.7,394.9,816.5,394.6ZM874.3,376a1.483,1.483,0,0,0,.7-.1l6.1-2a1.7,1.7,0,0,1-.7.1c-1.8-.1-4.5-2.3-8.4-5.8h0l-.1-.1c-.4-.3-.8-.7-1.6-1.4l-37.4-33.3a1.071,1.071,0,0,0-1-.3l-6.1,2a1.015,1.015,0,0,1,1,.3l37.4,33.3c.8.7,1.2,1.1,1.6,1.4l.1.1h0C869.8,373.7,872.5,375.8,874.3,376ZM906,398.4c.2.1.3.3.4.4-2,.7-4.1,1.4-6.1,2-.1-.1-.3-.2-.4-.4h0c-6-5.4-8.8-8.4-8.2-13.2,0-.3.1-.5.1-.7,1.1-4.7,6.7-4.4,9-7.2,2-.7,4.1-1.4,6.1-2-2.3,2.9-7.9,2.5-9,7.2a1.7,1.7,0,0,0-.1.7c-.7,4.7,2.2,7.8,8.2,13.2Zm-.4.1h0c-.8.3-1.5.5-2.3.8.1,0,.3-.1.4-.1.5-.2,1-.3,1.5-.5A.758.758,0,0,1,905.6,398.5Zm4.4-36.6c-1.3-8.7-7.2-15.5-12.2-19.9-.6.2-1.2.4-1.9.6l1.9-.6c-4.2-3.7-9.4-7.3-13.3-6-1.8.6-4.3,1.4-6.1,2,3.9-1.3,9.1,2.3,13.3,6l2.2-.7c-.8.3-1.5.5-2.2.7,5,4.5,10.9,11.3,12.2,19.9a24.538,24.538,0,0,1-.2,8.6,15.932,15.932,0,0,1-3,6.7c2-.7,4.1-1.4,6.1-2a15.932,15.932,0,0,0,3-6.7A22.366,22.366,0,0,0,910,361.9ZM848,493.8a13.048,13.048,0,0,1,2.4-5.6,5.947,5.947,0,0,0-3.5.1h-.1c-.1,0-.2.1-.3.1h0c-.1.1-.2.1-.4.2a.1.1,0,0,0-.1.1c-.1.1-.2.1-.3.2h0l-.3.3a.1.1,0,0,0-.1.1l-.3.3a11.979,11.979,0,0,0-2.9,6.2,30.3,30.3,0,0,0-.3,9.1c.6,5.5,4.6,13.6,3.6,18.5a1.853,1.853,0,0,1-.2.7c0,.1-.1.3-.1.4v.1a.349.349,0,0,1-.1.2.1.1,0,0,1-.1.1c0,.1-.1.1-.1.2a.1.1,0,0,1-.1.1c0,.1-.1.1-.1.2a.1.1,0,0,1-.1.1l-.1.1-.1.1-.1.1-.1.1c-.1,0-.1.1-.2.1h0a.349.349,0,0,0-.2.1h0l6.1-2c.7-.2,1.2-.9,1.6-2.1.1-.2.1-.5.2-.7.9-4.9-3-13-3.6-18.5A22.7,22.7,0,0,1,848,493.8Zm97.5-60.2-37.9-33.7c-.3-.3-.7-.6-1.2-1.1-2,.7-4.1,1.4-6.1,2a10.974,10.974,0,0,0,1.2,1.1l37.9,33.7a3.379,3.379,0,0,1,1,2.9L909.6,585.4q-.15.75-.6.9l6.1-2q.45-.15.6-.9l30.8-146.9A3.7,3.7,0,0,0,945.5,433.6Z" fill="url(#linear-gradient-40)"/>
      </g>
      <g id="Group_2962" data-name="Group 2962">
        <path id="Path_12226" data-name="Path 12226" d="M891.7,344c5,4.5,10.9,11.3,12.2,19.9a24.538,24.538,0,0,1-.2,8.6,15.932,15.932,0,0,1-3,6.7c-2.3,2.9-7.9,2.5-9,7.2a1.7,1.7,0,0,0-.1.7c-.6,4.8,2.3,7.9,8.3,13.3.8.7,1.2,1.1,1.6,1.4l37.9,33.7a3.379,3.379,0,0,1,1,2.9L909.6,585.3a.939.939,0,0,1-1.7.5l-37.4-33.3c-.9-.8-1.3-1.2-1.7-1.5-6.4-5.7-9.2-8.8-8.6-13.6,0-.3.1-.5.1-.7,1.1-4.7,6.7-4.4,9-7.2a15.932,15.932,0,0,0,3-6.7,23.971,23.971,0,0,0,.2-8.5c-1.3-8.7-7.2-15.5-12.2-20s-11.5-8.7-15.4-4.6a11.979,11.979,0,0,0-2.9,6.2,30.3,30.3,0,0,0-.3,9.1c.6,5.5,4.6,13.6,3.6,18.5a1.853,1.853,0,0,1-.2.7c-1.3,4.1-4.4,1.9-10.4-3.4-.8-.7-1.2-1-1.6-1.4l-37.9-33.7a3.484,3.484,0,0,1-1-2.9L804.4,434c2-9.7,3-14.3-.7-18.3a7.267,7.267,0,0,0-1.3-1.1c-2.8-1.7-5.8-.2-8.5.2a5.366,5.366,0,0,1-2.2-.1,7.838,7.838,0,0,1-1.4-.5,18.22,18.22,0,0,1-5.1-3.2,26.721,26.721,0,0,1-3.9-4.5,13.024,13.024,0,0,0-1-1.5,5.946,5.946,0,0,1-.4-.8c-4.2-7.8-3.5-16.7-2.1-23.2,1.4-6.6,4-13.7,9.7-12.8a4.329,4.329,0,0,1,.5.1,12.022,12.022,0,0,1,5,2.8c.7.6,1,.9,1.3,1.2l.8.8.6.6a30.271,30.271,0,0,1,3.4,4.9,40.8,40.8,0,0,1,2.9,6.6c1.3,3.5,2.6,7.1,4.4,9.4a5.241,5.241,0,0,0,1,1.1c4.4,3.2,5.4-1.4,7.4-11.1L825,335.8c.2-1,.9-1.2,1.7-.5l37.4,33.3c.9.8,1.3,1.2,1.7,1.5,6.4,5.6,9.4,7.8,10.7,3.7.1-.2.1-.5.2-.7.9-4.9-3-13-3.6-18.5a30.3,30.3,0,0,1,.3-9.1,12.375,12.375,0,0,1,2.9-6.2C880.3,335.3,886.7,339.5,891.7,344Z" fill="url(#linear-gradient-41)"/>
      </g>
      <g id="Group_2965" data-name="Group 2965">
        <rect id="Rectangle_324" data-name="Rectangle 324" width="214" height="280" transform="translate(442 352)" fill="none" opacity="0.5"/>
        <g id="Group_2964" data-name="Group 2964">
          <g id="Group_2963" data-name="Group 2963">
            <path id="Path_12227" data-name="Path 12227" d="M604.5,499h.8a14.058,14.058,0,0,1,5.9,2.1,33.653,33.653,0,0,1,6.9,5.8c.5.6,1,1.2,1.5,1.9,2.9,4,5.7,9.9,9,12.5a9.319,9.319,0,0,0,1.5,1c4.4,2,4.4-2.8,4.4-12.7l.1-49.8a3.362,3.362,0,0,0-1.5-2.6l-44-25.4c-.4-.2-.7-.4-4.8-2.9a32.918,32.918,0,0,1-5.4-4.1,8.129,8.129,0,0,1-2.4-5.4v-.7c.1-4.9,5.6-5.6,7.4-8.9a15.631,15.631,0,0,0,1.6-7.2,26.18,26.18,0,0,0-1.5-8.4c-3-8.3-10.2-13.7-16-17.1s-13-6.2-16-1.4a12.188,12.188,0,0,0-1.6,6.6,33.21,33.21,0,0,0,1.5,9c1.7,5.3,7.4,12.6,7.3,18.1-.4,3.9-3.3,3-9.1-.2-.4-.2-.9-.5-2.5-1.4-.4-.2-.7-.4-1.7-1l-43.4-25c-.8-.5-1.5-.1-1.5.9l-.1,49.8c0,9.9,0,14.7-5,12.4a6.07,6.07,0,0,1-1-.7c-3.3-2.6-6.1-8.5-9-12.5a24.931,24.931,0,0,0-1.9-2.3,29.187,29.187,0,0,0-6.9-5.6,13.757,13.757,0,0,0-5.4-1.8h-.8c-5.7.2-6.9,7.8-6.9,14.5s1.1,15.6,7.2,22.9a25.594,25.594,0,0,0,6.2,5.1,16.944,16.944,0,0,0,6.9,2.2,7.8,7.8,0,0,0,2.2-.3c2.7-.9,5.3-2.9,8.3-1.9a7.583,7.583,0,0,1,1.5.8c4.4,3.1,4.4,7.9,4.4,17.7l-.1,49.8a3.362,3.362,0,0,0,1.5,2.6l43.4,25,.6.3a20.249,20.249,0,0,1,2.2,1.3c.5.3.9.5,1.4.8,5.8,3.2,8.7,4.2,9.1-.3.1-5-5.6-12.3-7.3-17.6a29.747,29.747,0,0,1-1.5-9,12.187,12.187,0,0,1,1.6-6.6c3-4.8,10.2-2,16,1.4s13,8.8,16,17.1a23.711,23.711,0,0,1,1.5,8.4,15.937,15.937,0,0,1-1.6,7.2c-1.7,3.3-7.3,4.1-7.4,8.9v.7c.2,2.2,1,3.9,3.9,6.8,1.1.9,2.3,1.7,7.6,4.9a10.9,10.9,0,0,0,1.1.6l.6.3,43.4,25c.8.5,1.5.1,1.5-.9l.1-49.8c0-9.9,0-14.7-4.9-18.1-.3-.2-.7-.3-1-.5-3-1.1-5.7,1-8.3,1.9a6.633,6.633,0,0,1-2.6.3,18.187,18.187,0,0,1-6.8-2.3,26.282,26.282,0,0,1-6.4-5.4c-5.7-6.8-6.8-15.6-6.8-22.3C597.6,506.8,598.8,499.3,604.5,499Z" fill="url(#linear-gradient-30)"/>
          </g>
        </g>
      </g>
      <g id="Group_2968" data-name="Group 2968">
        <rect id="Rectangle_325" data-name="Rectangle 325" width="177" height="281" transform="translate(346 121)" fill="none" opacity="0.5"/>
        <g id="Group_2967" data-name="Group 2967">
          <g id="Group_2966" data-name="Group 2966">
            <path id="Path_12228" data-name="Path 12228" d="M499.9,226.4l-43.4-25c-.3-.2-.4-.2-.5-.3-.4-.2-.7-.4-1.3-.7-.1,0-.1-.1-.2-.1h-.1c-.1-.1-.2-.1-.4-.2-7-4.1-10.4-6.5-10.8-11.3v-.7c.1-4.9,5.7-5.6,7.4-8.9a15.631,15.631,0,0,0,1.6-7.2,26.18,26.18,0,0,0-1.5-8.4c-3-8.3-10.2-13.7-16-17.1s-13-6.2-16-1.4a12.187,12.187,0,0,0-1.6,6.6,33.211,33.211,0,0,0,1.5,9,4.18,4.18,0,0,0,.4,1c2,5.2,7,11.9,6.9,16.6v.5c-.4,3.8-3.1,3.1-8.5.1a.1.1,0,0,1-.1-.1c-.2-.1-.3-.2-.5-.3-.5-.3-.9-.5-1.2-.7-.4-.2-.8-.4-1.3-.7a4.453,4.453,0,0,1-.8-.5,207338554991.345,207338554991.345,0,0,1-.2-.2h0c-.1-.1-.2-.1-.3-.2-.1,0-.1-.1-.2-.1h0a.1.1,0,0,1-.1-.1l-43.4-25c-.8-.5-1.5-.1-1.5.9L367.4,302a3.362,3.362,0,0,0,1.5,2.6l44,25.4c.4.2.7.4,3.6,2l.6.3c5.4,2.9,8.1,3.7,8.5-.6.1-5-5.6-12.3-7.3-17.6a29.747,29.747,0,0,1-1.5-9,12.187,12.187,0,0,1,1.6-6.6c3-4.8,10.2-2,16,1.4s13,8.8,16,17.1a23.71,23.71,0,0,1,1.5,8.4,15.937,15.937,0,0,1-1.6,7.2c-1.7,3.3-7.3,4-7.4,8.9v.7c.4,4.8,3.8,7.2,11.2,11.6l2,1.2,43.4,25c.8.5,1.5.1,1.5-.9l.1-49.8c0-9.9,0-14.7-4.9-18.1-.3-.2-.7-.3-1-.5-3-1.1-5.7,1-8.3,1.9a5.583,5.583,0,0,1-2.2.3,11.018,11.018,0,0,1-1.8-.2,12.089,12.089,0,0,1-1.8-.5,19.692,19.692,0,0,1-3.8-1.8,25.952,25.952,0,0,1-4.3-3.3,5.241,5.241,0,0,1-1-1.1c-.3-.3-.5-.6-.8-.9-5.7-6.7-6.8-15.6-6.8-22.3s1.2-14.3,7.3-14.5a12.471,12.471,0,0,1,6,2c.5.3.9.6,1.4.9a32.964,32.964,0,0,1,5.7,5,35.718,35.718,0,0,1,4.1,5.9c1.9,3.1,3.8,6.2,6,8.1a14.643,14.643,0,0,0,1.9,1.3c4.4,2,4.4-2.8,4.4-12.7l.1-49.8A2.637,2.637,0,0,0,499.9,226.4Z" fill="url(#linear-gradient-32)"/>
          </g>
        </g>
      </g>
      <g id="Group_2971" data-name="Group 2971">
        <rect id="Rectangle_326" data-name="Rectangle 326" width="207" height="295" transform="translate(755 313)" fill="none" opacity="0.5"/>
        <g id="Group_2970" data-name="Group 2970">
          <g id="Group_2969" data-name="Group 2969">
            <path id="Path_12229" data-name="Path 12229" d="M891.7,344c5,4.5,10.9,11.3,12.2,19.9a24.538,24.538,0,0,1-.2,8.6,15.932,15.932,0,0,1-3,6.7c-2.3,2.9-7.9,2.5-9,7.2a1.7,1.7,0,0,0-.1.7c-.6,4.8,2.3,7.9,8.3,13.3.8.7,1.2,1.1,1.6,1.4l37.9,33.7a3.379,3.379,0,0,1,1,2.9L909.6,585.3a.939.939,0,0,1-1.7.5l-37.4-33.3c-.9-.8-1.3-1.2-1.7-1.5-6.4-5.7-9.2-8.8-8.6-13.6,0-.3.1-.5.1-.7,1.1-4.7,6.7-4.4,9-7.2a15.932,15.932,0,0,0,3-6.7,23.971,23.971,0,0,0,.2-8.5c-1.3-8.7-7.2-15.5-12.2-20s-11.5-8.7-15.4-4.6a11.979,11.979,0,0,0-2.9,6.2,30.3,30.3,0,0,0-.3,9.1c.6,5.5,4.6,13.6,3.6,18.5a1.853,1.853,0,0,1-.2.7c-1.3,4.1-4.4,1.9-10.4-3.4-.8-.7-1.2-1-1.6-1.4l-37.9-33.7a3.484,3.484,0,0,1-1-2.9L804.4,434c2-9.7,3-14.3-.7-18.3a7.267,7.267,0,0,0-1.3-1.1c-2.8-1.7-5.8-.2-8.5.2a5.366,5.366,0,0,1-2.2-.1,7.838,7.838,0,0,1-1.4-.5,18.22,18.22,0,0,1-5.1-3.2,26.721,26.721,0,0,1-3.9-4.5,13.024,13.024,0,0,0-1-1.5,5.946,5.946,0,0,1-.4-.8c-4.2-7.8-3.5-16.7-2.1-23.2,1.4-6.6,4-13.7,9.7-12.8a4.329,4.329,0,0,1,.5.1,12.022,12.022,0,0,1,5,2.8c.7.6,1,.9,1.3,1.2l.8.8.6.6a30.271,30.271,0,0,1,3.4,4.9,40.8,40.8,0,0,1,2.9,6.6c1.3,3.5,2.6,7.1,4.4,9.4a5.241,5.241,0,0,0,1,1.1c4.4,3.2,5.4-1.4,7.4-11.1L825,335.8c.2-1,.9-1.2,1.7-.5l37.4,33.3c.9.8,1.3,1.2,1.7,1.5,6.4,5.6,9.4,7.8,10.7,3.7.1-.2.1-.5.2-.7.9-4.9-3-13-3.6-18.5a30.3,30.3,0,0,1,.3-9.1,12.375,12.375,0,0,1,2.9-6.2C880.3,335.3,886.7,339.5,891.7,344Z" fill="url(#linear-gradient-41)"/>
          </g>
        </g>
      </g>
      <g id="Group_2975" data-name="Group 2975">
        <g id="Group_2974" data-name="Group 2974">
          <g id="Group_2973" data-name="Group 2973">
            <g id="Group_2972" data-name="Group 2972">
              <path id="Path_12230" data-name="Path 12230" d="M915.2,765.5s-10-6.5-10.2-8.1,2.1-3.3,3.8-3.2,8.7.6,8.7.6l2.3,2.6C919.8,757.5,923.8,767.1,915.2,765.5Z" fill="#191e39"/>
              <path id="Path_12231" data-name="Path 12231" d="M937,757.4s-10-6.5-10.2-8.1c-.3-1.6,2.1-3.3,3.8-3.2s8.7.6,8.7.6l2.3,2.6S945.6,759,937,757.4Z" fill="#191e39"/>
              <path id="Path_12232" data-name="Path 12232" d="M911.9,674.8l-.3,82.1a10.015,10.015,0,0,0,9.8-.2s9.3-70.9,9.5-72.6c.1-1.6,1.3,64.7,1.3,64.7s5.8,3.3,10.1-1.2l5.2-78.5Z" fill="url(#linear-gradient-45)"/>
              <path id="Path_12233" data-name="Path 12233" d="M922.1,566.2l-3.5-5.4a32.094,32.094,0,0,0-4.3-3c-1.2-.5-2.1-1.8-1.5-2.4s5,1.1,5,1.1,1.8-8.3,2-9.9,1-2.5,1.8-1a64.873,64.873,0,0,1,3,5.9c.7,1.9-.1,4.8,0,6s3.1,8.7,3.1,8.7h-5.6Z" fill="#fff"/>
              <path id="Path_12234" data-name="Path 12234" d="M947.5,624.9c-3.6-22-19.3-60.9-19.3-60.9l-8.1,2.2s14.1,52.1,16.6,56.5C939.2,627.2,947.5,624.9,947.5,624.9Z" fill="url(#linear-gradient-46)"/>
              <path id="Path_12235" data-name="Path 12235" d="M920.1,613.5s-4.2.9-9.6,5.4l1.5,56s7.1,5.2,21.5,1.4c11.8-3.1,14.9-8,14.9-8s1.1-26.8,0-38.2a50.822,50.822,0,0,0-5.7-19.2c-2.6-.8-8.2-.5-8.2-.5Z" fill="url(#linear-gradient-47)"/>
              <path id="Path_12236" data-name="Path 12236" d="M911.9,674.8s7.1,5.2,21.5,1.4c11.8-3.1,14.9-8,14.9-8s.2-3.9.3-9.3a11.494,11.494,0,0,1-6,2.8c-2.6.3-6-.3-7.1,2.1,5.1-7.7,4.3-15.8,6.5-23.8-3.5,6.4-7.3,13.1-13.6,16.7-2.5,1.4-5.9,2.2-8.1.3-1.6-1.3-2-3.5-2.4-5.5-1.4-8.3.3-19.8-2.4-26.3l-6.2,6.9Z" fill="url(#linear-gradient-48)"/>
              <path id="Path_12237" data-name="Path 12237" d="M933.1,610.1l.3-10.9a2.536,2.536,0,0,0,2.3-3.2c-.5-3-3.3-1-3.8-.1,0,0-.6-10.4-6.1-11.4s-7.8-.2-7.9,2.5-.3,12,0,15.5,0,5.3,5,5.1l.4,3.6s2.3,2.1,9.3.4Z" fill="#fff"/>
            </g>
            <path id="Path_12238" data-name="Path 12238" d="M930.9,684.1h0v5a24.4,24.4,0,0,0,.1,2.6v.4c.4,17.3,1.1,56.7,1.1,56.7a10.112,10.112,0,0,0,5,1.2h.1a44.55,44.55,0,0,1-1.7-13.6c.6-10.6,2.1-21.8-1-32.8s2-22.7,2-22.7Z" fill="#191e39"/>
          </g>
        </g>
        <path id="Path_12239" data-name="Path 12239" d="M920.1,613.5c0-2.1.4-3.3,5.3-3.9,5-.6,9-1.9,9.5,0s-.5,3.1-5.5,3.5C924.5,613.5,920.1,613.5,920.1,613.5Z" fill="#fff"/>
        <path id="Path_12240" data-name="Path 12240" d="M910.4,618.9c-2.1.9-6.3,32.4-6.3,32.4l-12.7-8.2-2.9,5.2s14.2,18.7,21.8,13.3C918,656.1,921.1,614.6,910.4,618.9Z" fill="url(#linear-gradient-49)"/>
        <path id="Path_12241" data-name="Path 12241" d="M889.4,640.2c-1.5-1.6-1.5-4.4-2.8-4.1s-1.3,2.4-1.3,2.4-2.9-4.3-3.8-3.9-.6,2.8-.6,2.8a4.444,4.444,0,0,0-1,2.3,10.966,10.966,0,0,0,2.8,5.8c2,2.2,6,2.7,6,2.7l2.9-5.2C891.5,643,890.8,641.8,889.4,640.2Z" fill="#fff"/>
        <path id="Path_12242" data-name="Path 12242" d="M923.8,594.8a1.888,1.888,0,0,1,1.9-.8c1,.2,1.2,1.4,1,2.2-.1.3-2.1,2.6-2.2,2.3a23.582,23.582,0,0,0,5.3,6.9,4.924,4.924,0,0,0,1.5,1,1.534,1.534,0,0,0,1.7-.4c4.3-4.9,7.3-13,3.6-19.1a9.67,9.67,0,0,0-5.9-4.4c-2.2-.5-4.5-.3-6.7-1-1.4-.5-2.7-1.4-4.1-1.4-1.5-.1-3.1,1.3-2.6,2.6-1.2-1.1-3.4-.3-4.1,1.1a4.191,4.191,0,0,0,.9,4.5c2.3,2.7,6.6,2.9,7.7,6.8a14.459,14.459,0,0,1,.4,2.9A7.876,7.876,0,0,1,923.8,594.8Z" fill="url(#linear-gradient-50)"/>
      </g>
      <g id="Group_2987" data-name="Group 2987">
        <path id="Path_12243" data-name="Path 12243" d="M332,885.5c-4,2.3,13.9,16.4,39.9,31.5s50.3,25.5,54.3,23.2-13.9-16.4-39.9-31.5S336,883.2,332,885.5Z" opacity="0.3" fill="url(#linear-gradient-51)"/>
        <g id="Group_2978" data-name="Group 2978">
          <path id="Path_12244" data-name="Path 12244" d="M307.1,718.1a31.207,31.207,0,0,0-5.8,5.1c-3.2,3.7-5.8,7.9-9.3,11.4-3.1,3-7,4.8-7.1,9.8-.1,3.2,1.9,6.2,1.9,9.4.1,4.1-2.7,7.6-3.5,11.6-.8,4.2.9,8.6,3.7,11.9a20.76,20.76,0,0,0,36.5-16c-.5-3.8-2-7.4-2.1-11.2-.1-3.7,1.2-7.3,2.6-10.8,3-7.8,5.4-21.2-5.9-23.8C314.2,714.6,310.4,715.9,307.1,718.1Z" fill="url(#linear-gradient-52)"/>
          <path id="Path_12245" data-name="Path 12245" d="M329.4,866.7c7.9,4.6,8,12,.1,16.6s-20.7,4.6-28.7,0-8-12-.1-16.6S321.5,862.1,329.4,866.7Z" opacity="0.3" fill="url(#linear-gradient-53)"/>
          <g id="Group_2977" data-name="Group 2977">
            <g id="Group_2976" data-name="Group 2976">
              <path id="Path_12246" data-name="Path 12246" d="M354.3,785.3v.1a2.127,2.127,0,0,1-1.9,1.9,3.168,3.168,0,0,1-1.5-.6c-2.6-1.7-4.9-3.9-7.3-5.8l2.6-3.5a27.883,27.883,0,0,1,5.8.7,1.6,1.6,0,0,1,1,.5.675.675,0,0,1,.1,1c-.2.2-.4.3-.6.5a1.051,1.051,0,0,0,0,1.2,3.451,3.451,0,0,0,.8.9A3.906,3.906,0,0,1,354.3,785.3Z" fill="#fff"/>
            </g>
          </g>
          <path id="Path_12247" data-name="Path 12247" d="M323.1,744.6c-4.4-1.1-.1,24.3.8,27.3.9,2.9,17.9,10.9,20.9,11.8l1.9-6.8-14-9.1s-1-16.2-2.6-19S324.4,744.9,323.1,744.6Z" fill="url(#linear-gradient-54)"/>
          <path id="Path_12248" data-name="Path 12248" d="M345.7,780.6c-2.7-1.3-5.7-2.1-8.5-3.4-3.2-1.5-6.2-4-6.8-7.5-.4-2.3.4-4.6.7-7a15.983,15.983,0,0,0-3.4-11.9l-6.4,4.4a125.713,125.713,0,0,0,2.5,16.6c.9,2.9,17.9,10.9,20.9,11.8Z" fill="#a6d9e4"/>
          <path id="Path_12249" data-name="Path 12249" d="M307.2,744.9s-6,1.4-6.8,2.4c0,0-.6,12.8,1.8,20.1s2.1,11.9,2.1,11.9,5.1,8.2,22.2-.1c0,0,1.6-9.6,2.6-14.2s2.7-4.9.3-10.3a60.287,60.287,0,0,0-5.8-10,19.264,19.264,0,0,0-5-.6Z" fill="url(#linear-gradient-55)"/>
          <path id="Path_12250" data-name="Path 12250" d="M297.2,857.1c-1.9,2.1-2.2,3.9-1.8,5.4.5,1.5,4.3,11.1,7,10.6,2.7-.6,0-14.6,0-14.6Z" fill="#222c57"/>
          <path id="Path_12251" data-name="Path 12251" d="M329.6,825.8c.3,3.6-25.8,30.1-27.1,32.7,0,0,.2,7.6-.5,8.7-.7,1.2-4.8-7.6-4.8-10.2,0-2.5,15.2-25.7,15.2-25.7Z" fill="url(#linear-gradient-56)"/>
          <path id="Path_12252" data-name="Path 12252" d="M309.4,832.7s18.7,39.9,19.8,41.8,5.4-2.6,5.4-2.6l-15.7-46.2Z" fill="url(#linear-gradient-57)"/>
          <path id="Path_12253" data-name="Path 12253" d="M304.3,779.4c-.6,3.3-5.2,8.3-7,17.6s12,35.8,12,35.8,14.7-3,20.2-7c0,0-.3-32.2-3-46.4Z" fill="url(#linear-gradient-58)"/>
          <path id="Path_12254" data-name="Path 12254" d="M324.8,766.6c-1.5,0-2.8-1.1-4.3-1.4a11.363,11.363,0,0,0-4.5,0c-1.3.3-2.6.9-4,1.2a6.846,6.846,0,0,1-5.3-1.4c-2.7-2.1-2.5-4.4-1.7-7.3l-3.8,5.8a13.745,13.745,0,0,0,1,4c2.4,7.3,2.1,11.9,2.1,11.9s5.1,8.2,22.2-.1c0,0,1.6-9.6,2.6-14.2.1-.6.3-1,.4-1.5C328.2,765.1,326.7,766.6,324.8,766.6Z" fill="url(#linear-gradient-59)"/>
          <path id="Path_12255" data-name="Path 12255" d="M309.3,742.1l-.2-9.3a2.2,2.2,0,0,1-1.9-2.8c.4-2.6,2.8-.9,3.2-.1,0,0,.6-8.8,5.3-9.7,4.7-.8,9.2.2,9.3,2.5s0,9.3-1.3,13.3c-1,2.9-1.4,4-5.7,3.9l.4,5.5s-2.3.9-8.3-.7Z" fill="url(#linear-gradient-60)"/>
          <path id="Path_12256" data-name="Path 12256" d="M318.1,741.6a2.8,2.8,0,0,1,1.1.2,5.7,5.7,0,0,1,2,3.8,13.227,13.227,0,0,1-.8,4l-3.9-3.5-2.5,4.7a9.908,9.908,0,0,1-3.6-1.9,13.228,13.228,0,0,1-3.3-3.9c.7-1.7,1.1-2.7,1.1-2.7.2-.4.9-.6.9-.6s4.1,3.8,7.3,4C316.6,745.6,317.8,745.1,318.1,741.6Z" fill="#fff"/>
          <path id="Path_12257" data-name="Path 12257" d="M318,740a24.062,24.062,0,0,1-6.4-.9,15.268,15.268,0,0,0,6.5,1.9Z" fill="#95d5f5"/>
          <path id="Path_12258" data-name="Path 12258" d="M329.2,874.5s10.6-8.5,11.9-8,.6,3.7-2.4,8-5.7,5-7.2,4.5C330,878.6,329.2,874.5,329.2,874.5Z" fill="#222c57"/>
          <path id="Path_12259" data-name="Path 12259" d="M311.1,735.5A46.418,46.418,0,0,1,310,729a11.876,11.876,0,0,1,.1-4.6,5.534,5.534,0,0,1,2.5-3.8c2.5-1.6,6.3-1.2,9.1-.8a4.473,4.473,0,0,1,2.5.9,4.618,4.618,0,0,1,1.1,3c.3,3.2.5,6.5-.7,9.4a29.083,29.083,0,0,0-.7-7.8c-2.9,2.1-6.4,2.9-9.7,4.3C311.8,730.8,311.8,733.4,311.1,735.5Z" fill="url(#linear-gradient-61)"/>
        </g>
        <g id="Group_2981" data-name="Group 2981">
          <g id="Group_2980" data-name="Group 2980">
            <path id="Path_12260" data-name="Path 12260" d="M389,694.2l-5.6,3.2c-1.3.8-3.7-.2-7.4-2.2-.2-.1-.4-.2-3.1-1.8a10.9,10.9,0,0,0-1.1-.6l-.6-.3h0l-43.4-25h0a1.11,1.11,0,0,0-1.1-.1l5.6-3.2a1.11,1.11,0,0,1,1.1.1h0l43.4,25h0l.6.3c.4.2.7.4,1.1.6a21.39,21.39,0,0,1,3.1,1.8C385.3,694,387.7,694.9,389,694.2Zm76.3,148.3-.1,49.8a1.333,1.333,0,0,1-.4,1l-5.6,3.2a1.053,1.053,0,0,0,.4-1l.1-49.8c0-9.8,0-14.6-4.8-18a.1.1,0,0,1-.1-.1c-.1-.1-.2-.1-.3-.2-.2-.1-.5-.2-.7-.3-3-1.1-5.7,1-8.3,1.9a5.359,5.359,0,0,1-2.3.3h-.3a19.848,19.848,0,0,1-3-.6,26.772,26.772,0,0,1-3.6-1.6c.2-.1.5-.3.7-.4-.2.1-.5.3-.7.4-.1,0-.2-.1-.3-.1a25.508,25.508,0,0,1-5.8-4.8c-.2-.2-.3-.4-.5-.5-.1-.1-.2-.2-.2-.3-5.5-6.7-6.5-15.4-6.5-22,0-5.6.8-11.7,4.3-13.8l5.6-3.2c-3.5,2-4.3,8.2-4.3,13.8,0,6.6,1.1,15.3,6.5,22,.1.1.2.2.2.3l-1.6.9c.5-.3,1.1-.6,1.6-.9.2.2.3.4.5.5a23.13,23.13,0,0,0,5.8,4.8l-2,1.2c.7-.4,1.4-.8,2-1.2.1,0,.2.1.3.1a26.755,26.755,0,0,0,3.6,1.6,17.689,17.689,0,0,0,3,.6h.3a7.116,7.116,0,0,0,2.3-.3c2.7-.9,5.3-2.9,8.3-1.9.2.1.5.2.7.3.1,0,.2.1.3.2a.1.1,0,0,1,.1.1C465.4,827.9,465.4,832.7,465.3,842.5Zm-14.8-16.3h0c-.2.1-.3.2-.5.3C450.2,826.4,450.3,826.3,450.5,826.2Zm13.6-86.6-43.4-25a2.186,2.186,0,0,1-.5-.3c-.5-.3-1-.6-1.9-1.1-7-4.1-10.4-6.5-10.8-11.3v-.7c.1-4.8,5.7-5.6,7.4-8.9a15.631,15.631,0,0,0,1.6-7.2,26.18,26.18,0,0,0-1.5-8.4c-3-8.3-10.2-13.7-16-17.1-4.9-2.8-10.7-5.2-14.2-3.2l-5.6,3.2c3.6-2.1,9.3.4,14.2,3.2,5.8,3.4,13,8.8,16,17.1a23.71,23.71,0,0,1,1.5,8.4,15.937,15.937,0,0,1-1.6,7.2c-1.7,3.3-7.3,4.1-7.4,8.9v.7c.4,4.8,3.8,7.2,10.8,11.3.9.5,1.4.8,1.9,1.1a2.186,2.186,0,0,1,.5.3l43.4,25a3.531,3.531,0,0,1,1.5,2.6l-.1,49.8c0,7.3,0,11.8-1.8,12.9l5.6-3.2c1.8-1,1.8-5.6,1.8-12.9-.8.5-1.8,1.1-2.8,1.6l2.8-1.6.1-49.8A3.531,3.531,0,0,0,464.1,739.6Z" fill="url(#linear-gradient-62)"/>
            <g id="Group_2979" data-name="Group 2979">
              <path id="Path_12261" data-name="Path 12261" d="M393.3,662.8c5.8,3.4,13,8.8,16,17.1a23.71,23.71,0,0,1,1.5,8.4,15.937,15.937,0,0,1-1.6,7.2c-1.7,3.3-7.3,4.1-7.4,8.9v.7c.4,4.8,3.8,7.2,10.8,11.3.9.5,1.4.8,1.9,1.1a2.186,2.186,0,0,1,.5.3l43.4,25a3.531,3.531,0,0,1,1.5,2.6l-.1,49.8c0,9.9,0,14.7-4.4,12.7a2.186,2.186,0,0,1-.5-.3,6.072,6.072,0,0,1-1-.7c-3.3-2.6-6.1-8.5-9-12.5-.5-.7-1-1.3-1.5-1.9a31.211,31.211,0,0,0-6.9-5.8,13.613,13.613,0,0,0-5.9-2.1h-.8c-5.7.2-6.9,7.8-6.9,14.5s1.1,15.6,6.8,22.3c.2.2.3.4.5.5a23.13,23.13,0,0,0,5.8,4.8,17.8,17.8,0,0,0,6.9,2.4,6.382,6.382,0,0,0,2.6-.3c2.7-.9,5.3-2.9,8.3-1.9a4.669,4.669,0,0,1,1,.5c4.9,3.4,4.9,8.2,4.9,18.1l-.1,49.8c0,1-.7,1.4-1.5.9L341.3,829c-8.4-4.9-15.3-16.7-15.3-26.4l.4-134.2c0-1,.7-1.4,1.5-.9l43.4,25,.6.3c.4.2.7.4,1.1.6a21.39,21.39,0,0,1,3.1,1.8c5.4,2.9,8.1,3.7,8.5-.1.1-5.4-5.5-12.7-7.3-18.1a29.747,29.747,0,0,1-1.5-9,12.187,12.187,0,0,1,1.6-6.6C380.3,656.6,387.5,659.5,393.3,662.8Z" fill="url(#linear-gradient-63)"/>
            </g>
          </g>
          <path id="Path_12262" data-name="Path 12262" d="M300.4,747.3c-11.6,6.5,8,33.4,10.6,36.8s21,13.8,21,13.8l2.7-5.7-17.1-14.9s-7.2-16.4-9.8-21.8A20.851,20.851,0,0,0,300.4,747.3Z" fill="url(#linear-gradient-64)"/>
          <path id="Path_12263" data-name="Path 12263" d="M334.6,792.2s5.3,1.5,6.2,2-1.6,1.2-1.6,1.2,5.2,3.4,5.1,4.3c-.2.9-3.2,1.6-3.2,1.6a5.669,5.669,0,0,1-3,.3,59.563,59.563,0,0,1-6.1-3.7Z" fill="#fff"/>
        </g>
        <g id="Group_2986" data-name="Group 2986">
          <g id="Group_2984" data-name="Group 2984">
            <path id="Path_12264" data-name="Path 12264" d="M483.6,961.8c5,2.9,5.1,7.6.1,10.5s-13.2,2.9-18.2,0-5.1-7.6-.1-10.6C470.4,958.9,478.6,958.9,483.6,961.8Z" opacity="0.3" fill="url(#linear-gradient-65)"/>
            <path id="Path_12265" data-name="Path 12265" d="M420.8,944.4c3.3,1.9,3.3,5,0,6.9a13.134,13.134,0,0,1-11.9,0c-3.3-1.9-3.3-5,0-6.9A13.134,13.134,0,0,1,420.8,944.4Z" opacity="0.3" fill="url(#linear-gradient-66)"/>
            <g id="Group_2983" data-name="Group 2983">
              <g id="Group_2982" data-name="Group 2982">
                <path id="Path_12266" data-name="Path 12266" d="M465.7,786.6l-2.9-5.8a34.939,34.939,0,0,0-4-3.4c-1.2-.6-1.9-2-1.3-2.5s4.8,1.6,4.8,1.6,2.6-8.1,3-9.6,1.2-2.4,1.9-.8a44.532,44.532,0,0,1,2.4,6.2c.5,2-.6,4.8-.6,6s2.2,9,2.2,9Z" fill="#fff"/>
                <path id="Path_12267" data-name="Path 12267" d="M485.1,847.5C483.7,825.3,472,785,472,785l-8.3,1.4s8.8,53.2,10.9,57.9C476.6,849,485.1,847.5,485.1,847.5Z" fill="url(#linear-gradient-67)"/>
                <path id="Path_12268" data-name="Path 12268" d="M461.1,835.1s-3.7.8-8.4,4.7l1.3,48.6s6.1,4.5,18.7,1.2c10.2-2.7,12.9-7,12.9-7s.9-23.3,0-33.2a43.875,43.875,0,0,0-5-16.6c-2.2-.7-7.2-.4-7.2-.4Z" fill="url(#linear-gradient-68)"/>
                <path id="Path_12269" data-name="Path 12269" d="M454,888.4s6.1,4.5,18.7,1.2c10.2-2.7,12.9-7,12.9-7s.1-3.4.2-8a9.275,9.275,0,0,1-5.2,2.4c-2.3.2-5.2-.3-6.2,1.8,4.4-6.6,3.8-13.8,5.6-20.6-3,5.5-6.3,11.4-11.8,14.5-2.2,1.2-5.1,1.9-7.1.3-1.4-1.1-1.8-3.1-2.1-4.8-1.2-7.2.3-17.2-2.1-22.9l-5.4,6Z" fill="url(#linear-gradient-69)"/>
                <path id="Path_12270" data-name="Path 12270" d="M472.5,832.1l.3-9.5a2.245,2.245,0,0,0,2-2.8c-.4-2.6-2.9-.9-3.3-.1,0,0-.6-9-5.3-9.9-4.8-.9-6.8-.2-6.9,2.2-.1,2.3-.3,10.5,0,13.5s0,4.6,4.4,4.5l.4,3.2s2,1.8,8.1.4Z" fill="url(#linear-gradient-70)"/>
              </g>
            </g>
          </g>
          <g id="Group_2985" data-name="Group 2985">
            <path id="Path_12271" data-name="Path 12271" d="M478.1,962.3l-2.9,3.7s-3.6-.2-4.3.8,6.3,4,6.9,4,7.5-3.1,7.7-4.6c.2-1.4-2.3-6-2.3-6Z" fill="#191e39"/>
            <path id="Path_12272" data-name="Path 12272" d="M485.6,882.6c1.8,9.2-1.3,15.2-4.7,20.9,0,0-2.7,16-4,22.2l7.3,34.5s-2,3.4-7.1,2.5c0,0-11.4-34-11.8-36.7s-3.5-28.5-3.5-28.5Z" fill="url(#linear-gradient-71)"/>
            <path id="Path_12273" data-name="Path 12273" d="M416.3,941.5s-6.8-2-7.6-1.7c-.7.3-1.4,2.4-.6,3.2.9.9,8.7,7.9,9.7,7.8s4.1-4.3,4.1-4.3Z" fill="#191e39"/>
            <path id="Path_12274" data-name="Path 12274" d="M454,888.9s-19.2,22.7-21.5,25.7c-2.3,3.1-16.3,26.9-16.3,26.9s3.1,5.8,6.4,6.1c0,0,21.7-27.2,22.8-28.3s25.5-16.1,30.9-20.5c5.3-4.4,9.1-7.5,9.4-16.2Z" fill="url(#linear-gradient-72)"/>
          </g>
          <path id="Path_12275" data-name="Path 12275" d="M461.1,835.1c0-1.9.3-2.9,4.6-3.4s7.8-1.6,8.3,0c.4,1.6-.4,2.7-4.8,3C465,835.1,461.1,835.1,461.1,835.1Z" fill="#fff"/>
          <path id="Path_12276" data-name="Path 12276" d="M452.8,839.7c-1.9.7-5.4,29.5-5.4,29.5l-19,6.8.8,5.2s16.9.2,23.5-4.5C459.3,872.1,462.1,836.1,452.8,839.7Z" fill="url(#linear-gradient-73)"/>
          <path id="Path_12277" data-name="Path 12277" d="M464.2,818.8a1.832,1.832,0,0,1,1.7-.6c.9.2,1,1.2.8,1.9-.1.3-1.8,2.2-1.9,2a20.464,20.464,0,0,0,4.6,6,3.805,3.805,0,0,0,1.3.9,1.4,1.4,0,0,0,1.5-.3c3.6-4.2,5.5-9.6,4.3-15a4.822,4.822,0,0,0-1.2-2.6,2.62,2.62,0,0,0-2.6-.8c.3-.1-1.9-1.9-2-2a9.072,9.072,0,0,0-3.3-1,49.551,49.551,0,0,1-5.4-.6,6.341,6.341,0,0,1-4.4-2.8,7.069,7.069,0,0,0,1.7,4.6,4.6,4.6,0,0,1-2.9-2.2,6.669,6.669,0,0,0-.2,5,6.857,6.857,0,0,0,3.4,3.7c.8.4,1.7.6,2.1,1.3a3.287,3.287,0,0,1,.4,1.7c.1,1.8.3,3.6.4,5.4C462.7,822.4,463.1,819.9,464.2,818.8Z" fill="#222c57"/>
          <path id="Path_12278" data-name="Path 12278" d="M428.6,877.2a26.528,26.528,0,0,1-3.1-1.2c-1.1-.6-4.7-1.5-2.7.5l-1.9-1s-.4,2.5.9,4a25.878,25.878,0,0,0,4,2.3l3.5-.5Z" fill="#fff"/>
        </g>
      </g>
      <g id="Group_2991" data-name="Group 2991">
        <path id="Path_12279" data-name="Path 12279" d="M259.3,923.2c.2-.4,0-.8-.5-1.1l-40-23.1c-2.9-1.7-5.3-3.1-6.9-4.2.1,0,.1-.1.2-.1a.6.6,0,0,1,.4-.1c.1,0,.2-.1.4-.1a7.493,7.493,0,0,1,1.6-.4h.2a9.855,9.855,0,0,1,1.7-.2h.1a12.1,12.1,0,0,1,1.9-.1h.3c.6,0,1.3-.1,1.9-.1h1.6a12.754,12.754,0,0,0,1.9-.1h.3c.6,0,1.1-.1,1.6-.1h.2c.5-.1,1-.1,1.5-.2h.2c.2,0,.3-.1.5-.1.9-.2,1.8-.5,2.7-.7.1,0,.2-.1.3-.1.2-.1.5-.2.7-.3.1-.1.3-.1.4-.2a12.2,12.2,0,0,0,1.7-.7c.1,0,.2-.1.3-.1.4-.2.9-.4,1.3-.6a.758.758,0,0,1,.4-.2c.1-.1.2-.1.4-.2s.4-.3.6-.4.3-.2.5-.3a8.745,8.745,0,0,0,1-.8c.1-.1.2-.1.2-.2h0c.2-.2.3-.4.5-.5l.6-.6h0a6.07,6.07,0,0,0,.7-1c0-.1.1-.1.1-.2l.3-.6c0-.1.1-.3.1-.4s0-.2.1-.2v-.1a2.2,2.2,0,0,0,.1-.8v-5.7c.2-3.9-4.5-7.4-9.1-10.1-5.4-3.1-13-6.3-21-4.9-5.9,1-10.3,4-12.4,7.2-1.9,3,.3,8.1-4.3,10.3-4.5,2.1-8.3-.1-16.3-4.7l-40-23.1a2.8,2.8,0,0,0-2.8,0L95.7,876.1c-7.9,4.6-11.7,6.8-16.7,4.4-4-2.3-2-7.2-3.9-10a15.35,15.35,0,0,0-5.1-4.6,23.107,23.107,0,0,0-7.4-2.6c-8-1.4-15.6,1.8-21,4.9-4.7,2.7-9.5,6.4-9,10.4v5.2a4.645,4.645,0,0,0,.6,2.3,12.038,12.038,0,0,0,4.6,4.3c.5.3,1.1.6,1.7.9a1.422,1.422,0,0,0,.6.2c.3.1.6.3.9.4.1,0,.2.1.3.1a18.289,18.289,0,0,0,2.5.8h0a15.979,15.979,0,0,0,2.1.5H46a.367.367,0,0,1,.3.1c.2,0,.4.1.7.1h.3a4.87,4.87,0,0,0,1.2.1h.3c.6,0,1.2.1,1.8.1H51a14.087,14.087,0,0,1,2,.1,14.772,14.772,0,0,1,2.1.1h.2c.7,0,1.3.1,1.9.1h.1a8.749,8.749,0,0,1,1.6.2.6.6,0,0,1,.4.1c.3,0,.5.1.8.1.1,0,.3.1.4.1a4.332,4.332,0,0,1,.5.1c.2,0,.3.1.5.1.2.1.4.1.5.2.1,0,.3.1.4.1s.1.1.2.1c-1.6,1.2-4,2.5-6.9,4.2L15.9,922.4a.938.938,0,0,0-.6.8h0V929a.938.938,0,0,0,.6.8L56,953c.8.5,1.5.9,2.2,1.3.1.1.2.1.3.2.7.4,1.3.7,2,1.1.1.1.2.1.3.2.6.3,1.2.6,1.7.9.1,0,.2.1.3.1.6.3,1.1.5,1.6.7h.2a5.639,5.639,0,0,0,1.2.4c.1,0,.1,0,.2.1h.1c.1,0,.3.1.4.1s.2.1.4.1h3.3a1.853,1.853,0,0,0,.7-.2h.3a3.551,3.551,0,0,0,.9-.4l.6-.3a.1.1,0,0,0,.1-.1,5.551,5.551,0,0,0,.8-.6h0l.3-.3c.1-.1.2-.2.2-.3h0c.1-.1.1-.2.2-.3s.1-.2.2-.3h0v-.1a4.877,4.877,0,0,0,.3-.7v-.2c.1-.3.2-.7.3-1h0a3.083,3.083,0,0,0,.1-1v-.3c0-.3.1-.6.1-.9s.1-.6.1-1V950c0-.3.1-.6.1-.8v-.1l.3-.9a.349.349,0,0,1,.1-.2c.1-.1.1-.3.2-.4s.1-.3.2-.4a7.628,7.628,0,0,1,.8-1.1c.1-.1.1-.2.2-.3a9.013,9.013,0,0,0,.9-1l.1-.1c.3-.3.7-.6,1-.9.1-.1.2-.1.2-.2.5-.3.9-.7,1.5-1a11.4,11.4,0,0,1,1.9-1l.6-.3,1.5-.6c.4-.1.7-.2,1.1-.3.2,0,.3-.1.5-.1a11.8,11.8,0,0,1,2-.4,8.755,8.755,0,0,1,1.6-.2,1.7,1.7,0,0,0,.7-.1,2.2,2.2,0,0,0,.8-.1h2.9a.9.9,0,0,1,.5.1c.3,0,.7.1,1,.1a.9.9,0,0,1,.5.1c.4.1.8.1,1.2.2.2,0,.3.1.5.1a14.614,14.614,0,0,1,2,.5c.1,0,.1,0,.2.1.5.1.9.3,1.3.4.2.1.3.1.5.2a4.178,4.178,0,0,1,1,.4c.2.1.3.1.5.2.5.2.9.4,1.3.6.1,0,.1,0,.2.1a6.111,6.111,0,0,1,1.4.7c.1.1.3.1.4.2.3.2.7.3,1,.5.1.1.3.1.4.2.4.2.9.5,1.3.7,3.3,1.9,6.6,4.3,8.2,6.9-2,3.1-6.8,5.5-12.1,6.7-5.2,1.1-14.1-.2-17.8,2.5-1.1.8-1.5,1.6-1.3,2.4,0-.1-.1-.3-.1-.4h0v5.8c0,1.9,3.6,4,9.4,7.4l40.1,23.2a.367.367,0,0,0,.3.1.349.349,0,0,1,.2.1h1.9c.2-.1.3-.1.4-.2l39.8-23.1c.7-.4,1.3-.8,1.9-1.1a.1.1,0,0,0,.1-.1c.6-.3,1.2-.7,1.7-1a.1.1,0,0,0,.1-.1h0a7.46,7.46,0,0,1,1.2-.7c.1-.1.2-.1.2-.2a8.65,8.65,0,0,0,1-.7.1.1,0,0,0,.1-.1,5.551,5.551,0,0,0,.8-.6l.1-.1a4.352,4.352,0,0,0,.7-.6l.1-.1.1-.1.6-.6h0a.1.1,0,0,1,.1-.1c.1-.1.1-.2.2-.3v-.1a.1.1,0,0,1,.1-.1c0-.1.1-.1.1-.2V969h0v-.3h0v-5.5h0c.2-.8-.2-1.6-1.3-2.4-.2-.1-.3-.2-.5-.3-4-2.3-12.3-1.2-17.3-2.2a28.119,28.119,0,0,1-8-2.9,12.078,12.078,0,0,1-4.2-3.8,6.07,6.07,0,0,1,.7-1l.1-.1a5.008,5.008,0,0,1,.7-.8l.2-.2.6-.6.2-.2a3.916,3.916,0,0,1,1-.8c.1,0,.1-.1.2-.1a3.592,3.592,0,0,1,1-.7c.1,0,.1-.1.2-.1.4-.3.7-.5,1.1-.8.1-.1.2-.1.3-.2a7.46,7.46,0,0,1,1.2-.7c.3-.2.5-.3.8-.5a15.047,15.047,0,0,0,1.7-1,.349.349,0,0,0,.2-.1l1.8-.9c.1-.1.2-.1.3-.2a10.839,10.839,0,0,1,1.9-.8c.1,0,.2-.1.3-.1a15.876,15.876,0,0,1,2-.7c.1,0,.2-.1.3-.1.5-.1,1-.3,1.4-.4.1,0,.3-.1.4-.1.6-.1,1.2-.3,1.8-.4h.2a9.855,9.855,0,0,1,1.7-.2.9.9,0,0,0,.5-.1,3.4,3.4,0,0,0,1-.1h2.7a1.95,1.95,0,0,1,.8.1,1.269,1.269,0,0,1,.6.1,5.018,5.018,0,0,1,1.2.2c.5.1,1,.2,1.6.3.2.1.5.1.7.2.3.1.5.2.8.3.4.1.9.3,1.3.4s.7.3,1.1.4c.2.1.3.1.5.2a10.932,10.932,0,0,1,1.5.8,14.427,14.427,0,0,1,5.1,4.6c1.9,2.9-.1,7.7,4.4,10.3.2.1.3.1.5.2.1,0,.1,0,.2.1.1,0,.3.1.4.1a.349.349,0,0,1,.2.1c.1,0,.2,0,.2.1h.3c.2,0,.3.1.5.1H207c.2,0,.5-.1.7-.1h0a7.363,7.363,0,0,0,1.4-.4h.2c.2-.1.3-.1.5-.2.1-.1.3-.1.4-.2a1.69,1.69,0,0,1,.5-.2c.2-.1.3-.1.5-.2l.6-.3c.2-.1.3-.2.5-.2l.6-.3c.2-.1.3-.2.5-.3s.5-.3.7-.4.3-.2.5-.3c.3-.1.5-.3.8-.4.2-.1.3-.2.5-.3.3-.2.7-.4,1-.6.1-.1.2-.1.4-.2a10.932,10.932,0,0,1,1.5-.8l39.8-23.1h0c.1-.1.2-.1.3-.2l.1-.1h0v-.1a.1.1,0,0,1,.1-.1V929h0v-5.8C259.4,923,259.3,923.1,259.3,923.2Z" opacity="0.3" fill="url(#linear-gradient-74)"/>
        <g id="Group_2990" data-name="Group 2990">
          <g id="Group_2989" data-name="Group 2989">
            <path id="Path_12280" data-name="Path 12280" d="M220,890.7c0,.2-.1.3-.1.5v-5.8h0v-.6h0c0-.1.1-.2.1-.3l.1-.1a248844254542.146,248844254542.146,0,0,0,.2-.2c.1-.1.1-.2.2-.2l.1-.1h0c.2-.1.3-.3.5-.4.1-.1.3-.2.4-.3.1,0,.1-.1.2-.1.1-.1.2-.1.3-.2.2-.1.3-.1.5-.2.1,0,.3-.1.4-.1s.1-.1.2-.1h.2a7.493,7.493,0,0,1,1.6-.4h.3a9.855,9.855,0,0,1,1.7-.2h.1a12.1,12.1,0,0,1,1.9-.1h.3c.6,0,1.3-.1,1.9-.1h1.6a12.754,12.754,0,0,0,1.9-.1h.3c.6,0,1.1-.1,1.6-.1h.2c.5-.1,1-.1,1.5-.2.2,0,.5-.1.7-.1.9-.2,1.8-.5,2.7-.7.4-.1.7-.2,1.1-.3.1-.1.3-.1.4-.2a12.2,12.2,0,0,0,1.7-.7c.1,0,.2-.1.3-.1.4-.2.9-.4,1.3-.6a.758.758,0,0,1,.4-.2c.3-.2.7-.4,1-.6.2-.1.3-.2.5-.3a8.745,8.745,0,0,0,1-.8c.1-.1.2-.1.2-.2a2.653,2.653,0,0,0,.5-.6l.6-.6a8.341,8.341,0,0,0,.8-1.2,4.179,4.179,0,0,0,.4-1c0-.1,0-.2.1-.2a3.4,3.4,0,0,0,.1-1v5.9a2.2,2.2,0,0,1-.1.8v.1c0,.1,0,.2-.1.2,0,.1-.1.3-.1.4l-.3.6c0,.1-.1.1-.1.2a6.07,6.07,0,0,1-.7,1h0l-.6.6c-.2.2-.3.4-.5.5h0c-.1.1-.2.1-.2.2-.3.3-.7.5-1,.8-.2.1-.3.2-.5.3s-.4.3-.6.4c-.1.1-.2.1-.4.2a.758.758,0,0,1-.4.2c-.4.2-.8.4-1.3.6-.1,0-.2.1-.3.1-.5.2-1.1.5-1.7.7-.1.1-.3.1-.4.2-.2.1-.5.2-.7.3-.1,0-.2.1-.3.1a26.814,26.814,0,0,1-2.7.7c-.2,0-.3.1-.5.1h-.2a7.721,7.721,0,0,1-1.5.2h-.2c-.5,0-1.1.1-1.6.1h-.3c-.6,0-1.2.1-1.9.1h-1.6a12.1,12.1,0,0,0-1.9.1H229c-.7,0-1.3.1-1.9.1H227c-.6.1-1.2.1-1.7.2h-.2a7.489,7.489,0,0,0-1.6.4c-.1,0-.3.1-.4.1s-.3.1-.4.1c-.2.1-.3.1-.5.2-.1.1-.2.1-.4.2a2.092,2.092,0,0,0-.6.4c-.2.2-.4.3-.6.5l-.1.1-.3.3a.1.1,0,0,1-.1.1c.1,0,0,.2-.1.4Zm-171.5-7c.5.3,1.1.6,1.7.9a1.422,1.422,0,0,0,.6.2c.3.1.6.3.9.4.1,0,.2.1.3.1a18.289,18.289,0,0,0,2.5.8h0a15.979,15.979,0,0,0,2.1.5h.1a.367.367,0,0,1,.3.1c.2,0,.4.1.7.1H58a4.87,4.87,0,0,0,1.2.1h.3c.6,0,1.2.1,1.8.1h.4a14.087,14.087,0,0,1,2,.1,14.772,14.772,0,0,1,2.1.1H66c.7,0,1.3.1,1.9.1H68a8.749,8.749,0,0,1,1.6.2.6.6,0,0,1,.4.1c.3,0,.5.1.8.1.1,0,.3.1.4.1a4.332,4.332,0,0,1,.5.1c.2,0,.3.1.5.1.2.1.4.1.5.2.1,0,.3.1.4.1.3.1.6.3.9.4.2.1.3.2.5.3.9.7,1.4,1.3,1.4,2v-5.8c0-.7-.4-1.3-1.4-2-.2-.1-.3-.2-.5-.3a3.553,3.553,0,0,0-.9-.4H73c-.1,0-.2-.1-.3-.1-.2-.1-.4-.1-.5-.2h-.1c-.1,0-.2-.1-.4-.1s-.3-.1-.5-.1h-.1a.367.367,0,0,1-.3-.1c-.2,0-.5-.1-.7-.1h-.4c-.5-.1-1-.1-1.6-.2H68c-.6,0-1.3-.1-1.9-.1h-.2c-.7,0-1.4-.1-2.1-.1a13.405,13.405,0,0,1-2-.1h-.4c-.6,0-1.2-.1-1.8-.1h-.3c-.4,0-.8-.1-1.2-.1h-.3c-.2,0-.4-.1-.7-.1-.2,0-.3-.1-.5-.1-.7-.2-1.4-.3-2.1-.5a18.289,18.289,0,0,1-2.5-.8,3.7,3.7,0,0,1-1.1-.5,1.422,1.422,0,0,0-.6-.2c-.6-.3-1.1-.6-1.7-.9a11.334,11.334,0,0,1-4.6-4.3,5.253,5.253,0,0,1-.6-2.3v5.8a4.645,4.645,0,0,0,.6,2.3A11.533,11.533,0,0,0,48.5,883.7ZM270,917.1h0a.781.781,0,0,1-.4.4l-39.8,23.1c-.5.3-1,.6-1.4.8-.2.1-.3.2-.5.3a4.052,4.052,0,0,1-.9.5c-.2.1-.3.2-.5.3-.3.1-.5.3-.8.4-.2.1-.3.2-.5.3s-.5.3-.7.4-.3.2-.5.3l-.6.3c-.2.1-.3.2-.5.2l-.6.3c-.2.1-.3.1-.5.2a1.69,1.69,0,0,1-.5.2c-.2.1-.3.1-.5.2s-.4.1-.5.2c-.1,0-.2.1-.3.1a10.265,10.265,0,0,1-1.4.4,2.2,2.2,0,0,1-.8.1h-1.7c-.2,0-.5-.1-.7-.1h-.2c-.2,0-.3-.1-.5-.1-.1,0-.3-.1-.4-.1a4.875,4.875,0,0,0-.7-.3c-4.5-2.6-2.6-7.4-4.4-10.3a15.35,15.35,0,0,0-5.1-4.6c-.5-.3-1-.5-1.5-.8-.2-.1-.3-.1-.5-.2-.3-.1-.5-.2-.8-.3-.1,0-.2-.1-.3-.1a4.952,4.952,0,0,0-1.3-.4c-.2-.1-.4-.1-.6-.2-.1,0-.2,0-.2-.1-.2-.1-.5-.1-.7-.2-.3-.1-.5-.1-.8-.2-.2,0-.5-.1-.7-.1s-.5-.1-.7-.1h-.4a1.269,1.269,0,0,1-.6-.1h-3.5a3.4,3.4,0,0,0-1,.1H190c-.6.1-1.1.1-1.7.2H188a11.623,11.623,0,0,0-1.8.4c-.1,0-.3.1-.4.1-.5.1-1,.3-1.4.4-.1,0-.2,0-.2.1h-.1c-.7.2-1.4.5-2,.7-.1,0-.2.1-.3.1-.6.3-1.3.5-1.9.8-.1,0-.2.1-.3.1l-1.8.9a.349.349,0,0,0-.2.1,9.493,9.493,0,0,0-1.7,1c-.3.2-.5.3-.8.5h0c-.4.2-.8.5-1.2.7-.1.1-.2.1-.3.2a10.476,10.476,0,0,0-1.1.8c-.1,0-.1.1-.2.1-.3.2-.7.5-1,.7-.1,0-.1.1-.2.1a7.008,7.008,0,0,1-1,.8l-.1.1-.1.1-.6.6-.2.2c-.2.3-.5.5-.7.8h0c-.3.4-.5.7-.8,1.1v.1h0a3.551,3.551,0,0,0-.4.9v.3c-.1.2-.1.4-.2.6v.3a.9.9,0,0,1-.1.5v.3h0v5.5a.9.9,0,0,1,.1-.5.367.367,0,0,1,.1-.3,1.421,1.421,0,0,1,.2-.6c0-.1.1-.2.1-.3.1-.3.3-.6.4-.9v-.1a7.628,7.628,0,0,1,.8-1.1l.1-.1a5.008,5.008,0,0,1,.7-.8l.2-.2.6-.6.2-.2a3.916,3.916,0,0,1,1-.8c.1,0,.1-.1.2-.1a3.592,3.592,0,0,1,1-.7c.1,0,.1-.1.2-.1.4-.3.7-.5,1.1-.8.1-.1.2-.1.3-.2a7.46,7.46,0,0,1,1.2-.7c.3-.2.5-.3.8-.5a15.047,15.047,0,0,0,1.7-1,.349.349,0,0,0,.2-.1l1.8-.9c.1-.1.2-.1.3-.2a10.839,10.839,0,0,1,1.9-.8c.1,0,.2-.1.3-.1a15.876,15.876,0,0,1,2-.7c.1,0,.2-.1.3-.1.5-.1,1-.3,1.4-.4.1,0,.3-.1.4-.1.6-.1,1.2-.3,1.8-.4h.2a9.855,9.855,0,0,1,1.7-.2.9.9,0,0,0,.5-.1,3.4,3.4,0,0,0,1-.1h2.7a1.95,1.95,0,0,1,.8.1,1.269,1.269,0,0,1,.6.1,5.018,5.018,0,0,1,1.2.2c.5.1,1,.2,1.6.3.2.1.5.1.7.2.3.1.5.2.8.3.4.1.9.3,1.3.4s.7.3,1.1.4c.2.1.3.1.5.2a10.932,10.932,0,0,1,1.5.8,14.427,14.427,0,0,1,5.1,4.6c1.9,2.9-.1,7.7,4.4,10.3.2.1.3.1.5.2.1,0,.1,0,.2.1.1,0,.3.1.4.1a.349.349,0,0,1,.2.1c.1,0,.2,0,.2.1h.3c.2,0,.3.1.5.1h1.9c.2,0,.5-.1.7-.1h0a7.363,7.363,0,0,0,1.4-.4h.2c.2-.1.3-.1.5-.2.1-.1.3-.1.4-.2a1.69,1.69,0,0,1,.5-.2c.2-.1.3-.1.5-.2l.6-.3c.2-.1.3-.2.5-.2l.6-.3c.2-.1.3-.2.5-.3s.5-.3.7-.4.3-.2.5-.3c.3-.1.5-.3.8-.4.2-.1.3-.2.5-.3.3-.2.7-.4,1-.6.1-.1.2-.1.4-.2a10.932,10.932,0,0,1,1.5-.8l39.8-23.1h0c.1-.1.2-.1.3-.2l.1-.1h0V923a.1.1,0,0,1,.1-.1v-.2h0v-5.8C270.1,916.8,270.1,916.9,270,917.1ZM86,945.8c0-.3.1-.6.1-.9s.1-.6.1-1v-.2c0-.3.1-.6.1-.8v-.1l.3-.9a.349.349,0,0,1,.1-.2c.1-.1.1-.3.2-.4s.1-.3.2-.4a7.628,7.628,0,0,1,.8-1.1c.1-.1.1-.2.2-.3a9.013,9.013,0,0,0,.9-1l.1-.1c.3-.3.7-.6,1-.9.1-.1.2-.1.2-.2.5-.3.9-.7,1.5-1a11.4,11.4,0,0,1,1.9-1l.6-.3,1.5-.6c.4-.1.7-.2,1.1-.3.2,0,.3-.1.5-.1a11.8,11.8,0,0,1,2-.4,8.755,8.755,0,0,1,1.6-.2,1.7,1.7,0,0,0,.7-.1,2.2,2.2,0,0,0,.8-.1h2.9a.9.9,0,0,1,.5.1c.3,0,.7.1,1,.1a.9.9,0,0,1,.5.1c.4.1.8.1,1.2.2.2,0,.3.1.5.1a14.614,14.614,0,0,1,2,.5c.1,0,.1,0,.2.1.5.1.9.3,1.3.4.2.1.3.1.5.2a4.178,4.178,0,0,1,1,.4c.2.1.3.1.5.2.5.2.9.4,1.3.6.1,0,.1,0,.2.1a6.111,6.111,0,0,1,1.4.7c.1.1.3.1.4.2.3.2.7.3,1,.5.1.1.3.1.4.2.4.2.9.5,1.3.7,4.5,2.6,9.1,6.1,9.1,9.9v-5.8c0-3.8-4.6-7.3-9.1-9.9-.4-.2-.8-.5-1.3-.7-.1-.1-.3-.1-.4-.2-.3-.2-.7-.3-1-.5-.1-.1-.3-.1-.4-.2-.5-.2-.9-.5-1.4-.7-.1,0-.1,0-.2-.1-.4-.2-.9-.4-1.3-.6-.1,0-.1-.1-.2-.1s-.2-.1-.3-.1c-.3-.1-.7-.3-1-.4-.2-.1-.3-.1-.5-.2a5.733,5.733,0,0,0-1.4-.4H111c-.6-.2-1.3-.3-2-.5-.1,0-.2,0-.2-.1h-.2c-.4-.1-.8-.1-1.2-.2a.367.367,0,0,1-.3-.1H107c-.3,0-.7-.1-1-.1h-3.5a2.2,2.2,0,0,0-.8.1H101c-.5.1-1.1.1-1.6.2h-.1c-.6.1-1.3.3-1.9.4-.2,0-.3.1-.5.1-.2.1-.5.1-.7.2-.1,0-.2.1-.4.1l-1.5.6-.6.3a11.4,11.4,0,0,0-1.9,1h0a7.1,7.1,0,0,0-1.4,1c-.1.1-.2.1-.2.2-.4.3-.7.6-1,.8h0l-.1.1a9.013,9.013,0,0,0-.9,1c-.1.1-.1.2-.2.3l-.2.2-.6.9c0,.1-.1.1-.1.2s-.1.1-.1.2c-.1.1-.1.2-.2.4a.1.1,0,0,1-.1.1v.1l-.3.9h0v.1a2.485,2.485,0,0,0-.1.8v.2c0,.3-.1.6-.1,1,0,.3-.1.6-.1.9v.3c0,.3-.1.6-.1,1v.1c-.1.3-.2.7-.3,1,0,.1,0,.1-.1.2a4.877,4.877,0,0,0-.3.7v.1c-.1.1-.1.2-.2.3s-.1.2-.2.3l-.2.2-.3.3a5.542,5.542,0,0,1-.8.6,4.353,4.353,0,0,1-.7.4c-.3.1-.6.3-.9.4-.1,0-.2.1-.3.1-.2.1-.5.1-.7.2-.1,0-.3.1-.4.1H78.8c-.2,0-.5-.1-.7-.1h-.2c-.2,0-.3-.1-.5-.1-.1,0-.3-.1-.4-.1s-.2-.1-.3-.1c-.4-.1-.8-.3-1.2-.4-.1,0-.1,0-.2-.1a11.114,11.114,0,0,1-1.6-.7c-.1,0-.2-.1-.3-.1-.6-.3-1.1-.6-1.7-.9-.1-.1-.2-.1-.3-.2-.6-.3-1.3-.7-2-1.1-.1-.1-.2-.1-.3-.2-.7-.4-1.4-.8-2.2-1.3L26.8,917.7a.781.781,0,0,1-.4-.4.6.6,0,0,1-.1-.4h0v5.8a.938.938,0,0,0,.6.8L67,946.7c.8.5,1.5.9,2.2,1.3.1.1.2.1.3.2.7.4,1.3.7,2,1.1.1.1.2.1.3.2.6.3,1.2.6,1.7.9.1,0,.2.1.3.1.6.3,1.1.5,1.6.7h.2a5.639,5.639,0,0,0,1.2.4c.1,0,.1,0,.2.1h.1c.1,0,.3.1.4.1s.2.1.4.1h3.3a1.853,1.853,0,0,0,.7-.2h.3a3.551,3.551,0,0,0,.9-.4l.6-.3a.1.1,0,0,0,.1-.1,5.551,5.551,0,0,0,.8-.6h0l.3-.3c.1-.1.2-.2.2-.3h0c.1-.1.1-.2.2-.3s.1-.2.2-.3h0V949a4.877,4.877,0,0,0,.3-.7v-.2c.1-.3.2-.7.3-1h0a3.083,3.083,0,0,0,.1-1C86,946,86,945.9,86,945.8ZM198.9,957c0,.1,0,.2-.1.2,0,.1,0,.1-.1.2,0,.1-.1.1-.1.2-.1.1-.1.2-.2.3l-.1.1-.6.6-.1.1a4.346,4.346,0,0,1-.7.6.349.349,0,0,1-.2.1c-.3.2-.5.4-.8.6a.1.1,0,0,0-.1.1,6.072,6.072,0,0,0-1,.7c-.1.1-.2.1-.2.2-.4.2-.8.5-1.2.7l-.1.1c-.5.3-1.1.7-1.7,1a.1.1,0,0,0-.1.1c-.6.4-1.3.7-1.9,1.1l-39.8,23a1.422,1.422,0,0,1-.6.2h-.1c-.2,0-.5.1-.7.1h0a1.7,1.7,0,0,1-.7-.1h0c-.2-.1-.5-.1-.7-.2l-40.1-23.2c-2.6-1.5-4.7-2.7-6.3-3.8a24.557,24.557,0,0,1-2.2-1.7l-.4-.4a2.4,2.4,0,0,1-.6-1.5h0v5.8c0,1.9,3.6,4,9.4,7.4l40.1,23.2a.367.367,0,0,0,.3.1.349.349,0,0,1,.2.1h1.9c.2-.1.3-.1.4-.2l39.8-23.1c.7-.4,1.3-.8,1.9-1.1a.1.1,0,0,0,.1-.1c.6-.3,1.2-.7,1.7-1a.1.1,0,0,0,.1-.1h0a7.46,7.46,0,0,1,1.2-.7c.1-.1.2-.1.2-.2a8.65,8.65,0,0,0,1-.7.1.1,0,0,0,.1-.1,5.551,5.551,0,0,0,.8-.6l.1-.1a4.352,4.352,0,0,0,.7-.6l.1-.1.1-.1.6-.6h0a.1.1,0,0,1,.1-.1c.1-.1.1-.2.2-.3v-.1a.1.1,0,0,1,.1-.1c0-.1.1-.1.1-.2v-.4h0v-.3h0v-5.8c.3.4.3.5.2.7C199,956.9,198.9,956.9,198.9,957Z" fill="url(#linear-gradient-75)"/>
            <g id="Group_2988" data-name="Group 2988">
              <path id="Path_12281" data-name="Path 12281" d="M243.1,861.4c5.4,3.1,10.9,7.5,8.5,12.2-1.8,3.4-6.8,6-12.5,7.2-5.2,1.1-14.1-.2-17.8,2.5-3.6,2.6.2,4.8,8.2,9.4l40,23.1c.8.5.8,1.2,0,1.6l-39.8,23.1c-7.9,4.6-11.7,6.8-16.2,4.7-4.5-2.6-2.6-7.4-4.4-10.3a15.35,15.35,0,0,0-5.1-4.6,23.107,23.107,0,0,0-7.4-2.6c-8-1.4-15.6,1.8-21,4.9-5.3,3.1-10.9,7.5-8.4,12.2a12.038,12.038,0,0,0,4.6,4.3,27.052,27.052,0,0,0,8,2.9c5,1.1,13.4-.1,17.3,2.2.2.1.3.2.5.3,3.6,2.6-.2,4.8-8.1,9.4L149.8,987a3.072,3.072,0,0,1-2.8,0l-40.1-23.2c-7.8-4.5-11.6-6.7-8.1-9.3,3.7-2.7,12.6-1.4,17.8-2.5,5.6-1.2,10.7-3.8,12.5-7.2,2.4-4.6-3.1-9.1-8.5-12.2s-13-6.3-21-4.9c-5.9,1-10.3,4-12.4,7.2-1.9,3,.3,8.1-4.3,10.3-4.5,2.1-8.3-.1-16.1-4.6L26.7,917.4c-.8-.5-.8-1.2,0-1.6l39.8-23.1c7.9-4.6,11.7-6.8,8.1-9.4-.2-.1-.3-.2-.5-.3-4-2.3-12.3-1.2-17.3-2.2a28.119,28.119,0,0,1-8-2.9,11.334,11.334,0,0,1-4.6-4.3c-2.5-4.6,3-9.1,8.4-12.2,5.3-3.1,13-6.3,21-4.9a23.108,23.108,0,0,1,7.4,2.6,14.427,14.427,0,0,1,5.1,4.6c1.9,2.9-.1,7.7,3.9,10,5,2.4,8.8.1,16.7-4.4l39.8-23.1a3.416,3.416,0,0,1,2.8,0l40,23.1c7.9,4.6,11.8,6.8,16.3,4.7,4.6-2.2,2.4-7.3,4.3-10.3,2.1-3.3,6.6-6.2,12.4-7.2C230,855.1,237.7,858.3,243.1,861.4Z" fill="url(#linear-gradient-76)"/>
            </g>
          </g>
        </g>
      </g>
    </g>
    <g id="Group_2995" data-name="Group 2995">
      <rect id="Rectangle_327" data-name="Rectangle 327" width="288" height="185" transform="translate(4 824)" fill="none" opacity="0.5"/>
      <g id="Group_2994" data-name="Group 2994">
        <g id="Group_2993" data-name="Group 2993">
          <path id="Path_12282" data-name="Path 12282" d="M243.1,861.4c5.4,3.1,10.9,7.5,8.5,12.2-1.8,3.4-6.8,6-12.5,7.2-5.2,1.1-14.1-.2-17.8,2.5-3.6,2.6.2,4.8,8.2,9.4l40,23.1c.8.5.8,1.2,0,1.6l-39.8,23.1c-7.9,4.6-11.7,6.8-16.2,4.7-4.5-2.6-2.6-7.4-4.4-10.3a15.35,15.35,0,0,0-5.1-4.6,23.107,23.107,0,0,0-7.4-2.6c-8-1.4-15.6,1.8-21,4.9-5.3,3.1-10.9,7.5-8.4,12.2a12.038,12.038,0,0,0,4.6,4.3,27.052,27.052,0,0,0,8,2.9c5,1.1,13.4-.1,17.3,2.2.2.1.3.2.5.3,3.6,2.6-.2,4.8-8.1,9.4L149.8,987a3.072,3.072,0,0,1-2.8,0l-40.1-23.2c-7.8-4.5-11.6-6.7-8.1-9.3,3.7-2.7,12.6-1.4,17.8-2.5,5.6-1.2,10.7-3.8,12.5-7.2,2.4-4.6-3.1-9.1-8.5-12.2s-13-6.3-21-4.9c-5.9,1-10.3,4-12.4,7.2-1.9,3,.3,8.1-4.3,10.3-4.5,2.1-8.3-.1-16.1-4.6L26.7,917.4c-.8-.5-.8-1.2,0-1.6l39.8-23.1c7.9-4.6,11.7-6.8,8.1-9.4-.2-.1-.3-.2-.5-.3-4-2.3-12.3-1.2-17.3-2.2a28.119,28.119,0,0,1-8-2.9,11.334,11.334,0,0,1-4.6-4.3c-2.5-4.6,3-9.1,8.4-12.2,5.3-3.1,13-6.3,21-4.9a23.108,23.108,0,0,1,7.4,2.6,14.427,14.427,0,0,1,5.1,4.6c1.9,2.9-.1,7.7,3.9,10,5,2.4,8.8.1,16.7-4.4l39.8-23.1a3.416,3.416,0,0,1,2.8,0l40,23.1c7.9,4.6,11.8,6.8,16.3,4.7,4.6-2.2,2.4-7.3,4.3-10.3,2.1-3.3,6.6-6.2,12.4-7.2C230,855.1,237.7,858.3,243.1,861.4Z" fill="url(#linear-gradient-76)"/>
        </g>
      </g>
    </g>
  </g>
</svg>
