<svg id="Layer_1" data-name="Layer 1" xmlns="http://www.w3.org/2000/svg" xmlns:xlink="http://www.w3.org/1999/xlink" viewBox="0 0 840.41 952.82"><defs><style>.cls-1{opacity:0.74;}.cls-2{fill:#050606;opacity:0.2;isolation:isolate;}.cls-3{fill:url(#linear-gradient);}.cls-4{fill:url(#linear-gradient-2);}.cls-5{fill:#dee2f3;}.cls-6{fill:#fff;}.cls-7{fill:#dd131f;}.cls-8{fill:url(#linear-gradient-3);}.cls-9{fill:#006c81;}.cls-10{fill:url(#linear-gradient-4);}.cls-11{fill:url(#linear-gradient-5);}.cls-12{fill:url(#linear-gradient-6);}.cls-13{fill:#f9f9f9;}.cls-14{fill:url(#linear-gradient-7);}.cls-15{fill:url(#linear-gradient-8);}.cls-16{fill:url(#linear-gradient-9);}.cls-17{fill:url(#linear-gradient-10);}</style><linearGradient id="linear-gradient" x1="-537.38" y1="1016.56" x2="-538.38" y2="1016.16" gradientTransform="matrix(827.03, 0, 0, -492.36, 445235.28, 501061.69)" gradientUnits="userSpaceOnUse"><stop offset="0" stop-color="#e1e3f4"/><stop offset="1" stop-color="#dd131f"/></linearGradient><linearGradient id="linear-gradient-2" x1="-537.54" y1="1015.74" x2="-537.54" y2="1016.77" gradientTransform="matrix(563.58, 0, 0, -483.52, 303376.49, 492074.71)" gradientUnits="userSpaceOnUse"><stop offset="0.02" stop-color="#fff"/><stop offset="0.96" stop-color="#fff" stop-opacity="0"/></linearGradient><linearGradient id="linear-gradient-3" x1="-536.99" y1="1016.9" x2="-538.41" y2="1015.87" gradientTransform="matrix(827.02, 0, 0, -319.48, 445233.04, 325244.84)" gradientUnits="userSpaceOnUse"><stop offset="0" stop-color="#fff"/><stop offset="1" stop-color="#fff" stop-opacity="0"/></linearGradient><linearGradient id="linear-gradient-4" x1="-529.82" y1="1014.3" x2="-532.44" y2="1016.1" gradientTransform="matrix(67.94, 0, 0, -36.62, 36702.7, 37652.41)" xlink:href="#linear-gradient-3"/><linearGradient id="linear-gradient-5" x1="-527.73" y1="1011.26" x2="-529.81" y2="1012.97" gradientTransform="matrix(85.49, 0, 0, -38.7, 45670.22, 40054.22)" xlink:href="#linear-gradient-3"/><linearGradient id="linear-gradient-6" x1="-498.04" y1="995.46" x2="-508.42" y2="1006.86" gradientTransform="matrix(17.17, 0, 0, -5.79, 9265.29, 6252.97)" xlink:href="#linear-gradient-3"/><linearGradient id="linear-gradient-7" x1="-529.68" y1="1015.32" x2="-530.47" y2="1014.57" gradientTransform="matrix(64.96, 0, 0, -37.51, 34992.82, 38398.17)" gradientUnits="userSpaceOnUse"><stop offset="0.02" stop-color="#324b98"/><stop offset="0.96" stop-color="#fff" stop-opacity="0"/></linearGradient><linearGradient id="linear-gradient-8" x1="-530.5" y1="1014.47" x2="-529.76" y2="1015.34" gradientTransform="matrix(64.96, 0, 0, -37.51, 34769.4, 38677.36)" xlink:href="#linear-gradient-7"/><linearGradient id="linear-gradient-9" x1="-530.5" y1="1014.47" x2="-529.76" y2="1015.34" gradientTransform="matrix(64.96, 0, 0, -37.51, 34894.67, 38567.76)" xlink:href="#linear-gradient-7"/><linearGradient id="linear-gradient-10" x1="-536.68" y1="1016.89" x2="-537.64" y2="1015.86" gradientTransform="matrix(401.91, 0, 0, -636.49, 216383.39, 647258.84)" xlink:href="#linear-gradient"/></defs><g id="Group_1198" data-name="Group 1198"><g id="Group_1181" data-name="Group 1181" class="cls-1"><path id="Path_7590" data-name="Path 7590" class="cls-2" d="M824.91,648.82,314,943.76a17.57,17.57,0,0,1-17.6,0L15.5,781.57a17.62,17.62,0,0,1,0-30.5L526.36,456.13a17.57,17.57,0,0,1,17.6,0L824.9,618.33a17.6,17.6,0,0,1,0,30.49Z"/></g><g id="Group_1197" data-name="Group 1197"><g id="Group_1196" data-name="Group 1196"><g id="Group_1184" data-name="Group 1184"><path id="Path_7591" data-name="Path 7591" class="cls-3" d="M825.18,590.8,314.32,885.74a17.62,17.62,0,0,1-17.6,0L15.78,723.54a17.6,17.6,0,0,1,0-30.49L526.64,398.1a17.57,17.57,0,0,1,17.6,0L825.18,560.3a17.6,17.6,0,0,1,0,30.5Z"/><path id="Path_7592" data-name="Path 7592" class="cls-4" d="M526.64,398.1,338.88,506.5V871.56L605,717.91V433.18L544.24,398.1A17.57,17.57,0,0,0,526.64,398.1ZM145.33,798.34l140.16,80.92V537.33L145.33,618.25Zm513.9-333.85V686.6l49.68-28.69V493.17Z"/><path id="Path_7593" data-name="Path 7593" class="cls-5" d="M13.74,693.59l1.62-.26a17.58,17.58,0,0,0,.42,30.21l280.93,162.2a17.57,17.57,0,0,0,17.6,0l510.87-295A17.57,17.57,0,0,0,826.23,561l1-.16a21.44,21.44,0,0,1,10.84,18.77v12.22a21.46,21.46,0,0,1-10.84,18.78L316.35,905.56a21.69,21.69,0,0,1-21.68,0L13.74,743.36A21.46,21.46,0,0,1,2.9,724.58V712.36A21.46,21.46,0,0,1,13.74,693.59Z"/><g id="Group_1182" data-name="Group 1182"><path id="Path_7594" data-name="Path 7594" class="cls-6" d="M15.78,693.05l30.71-17.74,1.35.58L363,857.63h0l-48.68,28.11a17.62,17.62,0,0,1-17.6,0L15.78,723.54a17.59,17.59,0,0,1,0-30.49Z"/><path id="Path_7595" data-name="Path 7595" class="cls-6" d="M478.57,425.85l48.07-27.75a17.62,17.62,0,0,1,17.6,0L825.18,560.3a17.61,17.61,0,0,1,0,30.49l-31.07,17.94h0Z"/></g><path id="Path_7596" data-name="Path 7596" class="cls-7" d="M623.57,477.48,681,510.66a8.27,8.27,0,0,0,7.41-.3h0c2.19-1.26,2.43-3.19.54-4.28L631.51,472.9a8.24,8.24,0,0,0-7.41.3h0C621.92,474.46,621.68,476.39,623.57,477.48Z"/><path id="Path_7597" data-name="Path 7597" class="cls-7" d="M135.58,774.74l50.57,29.2c6.3,3.64,17.4,3.18,24.68-1h0c7.27-4.2,8.07-10.61,1.77-14.25L162,759.47c-6.3-3.63-17.4-3.17-24.68,1h0C130.08,764.69,129.28,771.11,135.58,774.74Z"/><path id="Path_7598" data-name="Path 7598" class="cls-7" d="M253.87,871.52a12.87,12.87,0,0,0-5.81-10.07c-3.2-1.84-5.81-.33-5.81,3.36a12.88,12.88,0,0,0,5.81,10.07C251.26,876.73,253.87,875.22,253.87,871.52Z"/><path id="Path_7599" data-name="Path 7599" class="cls-7" d="M138.28,809.85l33.58,19.39c1.22.71,2.23,0,2.23-1.69h0a5.4,5.4,0,0,0-2.23-4.27L138.28,803.9c-1.23-.71-2.23.05-2.23,1.69h0A5.38,5.38,0,0,0,138.28,809.85Z"/><path id="Path_7600" data-name="Path 7600" class="cls-8" d="M825.18,574.15,544.24,412a17.62,17.62,0,0,0-17.6,0L15.78,706.89a17.42,17.42,0,0,0-7.39,8.33,17.59,17.59,0,0,1,7.39-22.17L526.64,398.1a17.57,17.57,0,0,1,17.6,0L825.18,560.3a17.57,17.57,0,0,1,7.38,22.17A17.33,17.33,0,0,0,825.18,574.15Z"/><path id="Path_7601" data-name="Path 7601" class="cls-9" d="M564.64,436c3.35-1.93,3.35-5.1,0-7a13.53,13.53,0,0,0-12.18,0c-3.35,1.93-3.35,5.1,0,7A13.53,13.53,0,0,0,564.64,436Z"/><g id="Group_1183" data-name="Group 1183"><path id="Path_7602" data-name="Path 7602" class="cls-10" d="M624.1,473.2a8.29,8.29,0,0,1,7.42-.31L689,506.08a2,2,0,0,1,1.11,2.6s0,.07-.05.1a2.64,2.64,0,0,0-1.06-1.06l-57.47-33.18a8.29,8.29,0,0,0-7.42.31,3.79,3.79,0,0,0-1.6,1.57C622,475.38,622.51,474.12,624.1,473.2Z"/><path id="Path_7603" data-name="Path 7603" class="cls-11" d="M212.6,790.32,162,761.12c-6.3-3.64-17.4-3.18-24.68,1-3.57,2.06-5.57,4.66-5.94,7.2-.42-3,1.59-6.33,5.94-8.85,7.28-4.2,18.38-4.66,24.68-1l50.57,29.2c3.2,1.85,4.56,4.42,4.18,7.05C216.49,793.68,215.13,791.78,212.6,790.32Z"/><path id="Path_7604" data-name="Path 7604" class="cls-12" d="M552.46,429a13.53,13.53,0,0,1,12.18,0c2,1.18,2.82,2.81,2.38,4.34a4.81,4.81,0,0,0-2.38-2.69,13.47,13.47,0,0,0-12.18,0,4.76,4.76,0,0,0-2.37,2.69C549.64,431.82,550.42,430.19,552.46,429Z"/></g><path id="Path_7606" data-name="Path 7606" class="cls-6" d="M363.56,697.66,258.48,758.33,103.86,669.06l105.08-60.67Z"/></g><g id="Group_1195" data-name="Group 1195"><g id="Group_1191" data-name="Group 1191"><g id="Group_1186" data-name="Group 1186"><path id="Path_7607" data-name="Path 7607" class="cls-6" d="M655.5,321.42l-77.62,44.82c-5.66,3.27-15.64,2.85-22.18-.92l-74.44-43c-6.54-3.77-7.25-9.54-1.59-12.8l77.63-44.82c5.66-3.27,15.63-2.86,22.17.92l74.44,43C660.45,312.39,661.16,318.15,655.5,321.42Z"/><g id="Group_1185" data-name="Group 1185"><path id="Path_7608" data-name="Path 7608" class="cls-13" d="M659.22,600.4V316.89h0a7,7,0,0,1-3.71,4.53l-77.63,44.82a20.12,20.12,0,0,1-10.3,2.18V653.93a20.12,20.12,0,0,0,10.3-2.18l77.63-44.82C658.46,605.22,659.67,602.83,659.22,600.4Z"/><path id="Path_7609" data-name="Path 7609" class="cls-5" d="M555.7,365.32l-74.44-43c-3.12-1.8-4.9-4-5.3-6.27V599.58c-.57,2.8,1.24,5.92,5.3,8.27l74.44,43a25.57,25.57,0,0,0,11.88,3.09V368.41A25.57,25.57,0,0,1,555.7,365.32Z"/></g></g><g id="Group_1188" data-name="Group 1188"><path id="Path_7610" data-name="Path 7610" class="cls-6" d="M533.08,490.36l-77.63,44.82c-5.66,3.27-15.63,2.86-22.17-.92l-74.44-43c-6.54-3.77-7.25-9.53-1.59-12.8l77.62-44.82c5.66-3.26,15.64-2.85,22.18.92l74.44,43C538,481.33,538.74,487.1,533.08,490.36Z"/><g id="Group_1187" data-name="Group 1187"><path id="Path_7611" data-name="Path 7611" class="cls-6" d="M536.79,670.88v-185h0a7,7,0,0,1-3.71,4.53l-77.63,44.82a20.1,20.1,0,0,1-10.3,2.18v187a20.19,20.19,0,0,0,10.3-2.17l77.63-44.82C536,675.7,537.24,673.31,536.79,670.88Z"/><path id="Path_7612" data-name="Path 7612" class="cls-5" d="M433.28,534.26l-74.44-43c-3.12-1.8-4.9-4-5.3-6.27v185c-.58,2.81,1.23,5.93,5.3,8.28l74.44,43a25.57,25.57,0,0,0,11.88,3.09v-187A25.58,25.58,0,0,1,433.28,534.26Z"/></g></g><g id="Group_1190" data-name="Group 1190"><path id="Path_7613" data-name="Path 7613" class="cls-6" d="M413.36,630.58l-77.63,44.81c-5.66,3.27-15.63,2.86-22.17-.92l-74.45-43c-6.53-3.77-7.25-9.53-1.59-12.8l77.63-44.82c5.66-3.27,15.64-2.85,22.17.92l74.45,43C418.3,621.55,419,627.31,413.36,630.58Z"/><g id="Group_1189" data-name="Group 1189"><path id="Path_7614" data-name="Path 7614" class="cls-6" d="M417.07,740v-114h0a7,7,0,0,1-3.71,4.53L335.73,675.4a20.09,20.09,0,0,1-10.3,2.17v116a20,20,0,0,0,10.3-2.17l77.63-44.82C416.32,744.83,417.52,742.44,417.07,740Z"/><path id="Path_7615" data-name="Path 7615" class="cls-5" d="M313.56,674.48l-74.45-43c-3.11-1.8-4.89-4-5.29-6.27v114c-.58,2.81,1.23,5.92,5.29,8.27l74.45,43a25.66,25.66,0,0,0,11.87,3.1v-116A25.53,25.53,0,0,1,313.56,674.48Z"/></g></g></g><g id="Group_1194" data-name="Group 1194"><g id="Group_1192" data-name="Group 1192"><path id="Path_7616" data-name="Path 7616" class="cls-14" d="M559.61,317.58l22.63,13.07-42.33,24.44L517.28,342Z"/><path id="Path_7617" data-name="Path 7617" class="cls-15" d="M335.67,596.78l22.63,13.06L316,634.28l-22.62-13.06Z"/><path id="Path_7618" data-name="Path 7618" class="cls-16" d="M460.41,486.12,483,499.18,440.7,523.63l-22.62-13.07Z"/></g><path id="Path_7619" data-name="Path 7619" class="cls-17" d="M692.69,88.43l-1-76.91-57.62,73,18.43,1.22-66.41,176-43.2-99.49L439.38,466l-57.89-79.9-10.38,29c-.2.55-20,55.88-39.59,110.94-41.14,115.84-39.43,116.38-40.74,122,0,0,24.39-11.16,24.32-10.88,2.72-9.94,39.51-113.59,67.73-192.51l58.58,80.86,99.19-291.1,41.79,96.25L674.26,87.21Z"/><g id="Group_1193" data-name="Group 1193"><path id="Path_7620" data-name="Path 7620" class="cls-7" d="M371.11,415.07l10.34-28.86-20.56-11.63-10.39,29c-.2.55-20,55.88-39.59,110.94-41.14,115.84-39.43,116.38-40.74,122L290.78,648c1.31-5.61-.4-6.15,40.74-122C351.07,471,370.91,415.62,371.11,415.07Z"/><path id="Path_7621" data-name="Path 7621" class="cls-7" d="M652.48,85.77l-18.43-1.22,57.62-73L671.06,0,613.44,73l15.62,8.67L572.72,231l-29.85-68.74,43.2,99.49Z"/><path id="Path_7622" data-name="Path 7622" class="cls-7" d="M542.87,162.24l-20.61-11.52L422.69,443l-41.2-56.87L439.37,466Z"/><path id="Path_7623" data-name="Path 7623" class="cls-7" d="M378.78,456l42,58,0-.11,20.57,11.63-58.58-80.87Z"/><path id="Path_7624" data-name="Path 7624" class="cls-7" d="M533.74,254.52l28,64.6,20.61,11.51L540.6,234.38Z"/></g></g></g></g></g></g></svg>