<svg xmlns="http://www.w3.org/2000/svg" width="1010.025" height="302.758" viewBox="0 0 1010.025 302.758">
  <g id="Group_1268" data-name="Group 1268" transform="translate(0)">
    <g id="Group_1026" data-name="Group 1026" transform="translate(259.249 0)">
      <g id="Group_1025" data-name="Group 1025" transform="translate(0)">
        <g id="Group_1018" data-name="Group 1018" transform="translate(0 135.791)" opacity="0.4">
          <path id="Path_6100" data-name="Path 6100" d="M551.653,589.1H600.6l54.487-31.458c7.018-4.052,19.275-3.543,27.379,1.134L734.99,589.1h48.923v32.86H783.9c.2,2.743-1.33,5.389-4.7,7.336l-98.7,56.983c-7.017,4.052-19.275,3.543-27.378-1.134l-94.764-54.712c-4.209-2.431-6.45-5.507-6.667-8.472h-.036Z" transform="translate(-551.653 -522.046)" fill="#dee2f3"/>
          <path id="Path_6101" data-name="Path 6101" d="M780.809,624.225h.015v-32.86H731.9l-52.522-30.323c-8.1-4.678-20.361-5.186-27.378-1.134l-54.488,31.458H551.653V589.1H600.6l54.487-31.458c7.018-4.052,19.275-3.543,27.379,1.134L734.99,589.1h48.923v32.86H783.9c.2,2.743-1.33,5.388-4.7,7.336l-.556.32A6.881,6.881,0,0,0,780.809,624.225Z" transform="translate(-551.653 -522.046)" fill="#dee2f3"/>
          <path id="Path_6102" data-name="Path 6102" d="M680.481,657.919l98.7-56.983c7.017-4.052,6.136-11.128-1.966-15.807l-94.763-54.712c-8.1-4.678-20.361-5.186-27.379-1.134l-98.7,56.983c-7.017,4.052-6.138,11.128,1.965,15.807L653.1,656.785C661.206,661.462,673.464,661.971,680.481,657.919Z" transform="translate(-551.636 -526.547)" fill="#dee2f3"/>
          <path id="Path_6103" data-name="Path 6103" d="M654.234,586.264l98.7-56.983c3.635-2.1,8.676-2.963,13.816-2.67a22.907,22.907,0,0,0-9.954,2.67l-98.7,56.983c-7.017,4.052-6.138,11.129,1.966,15.807l94.763,54.712a31.224,31.224,0,0,0,13.562,3.8,32.226,32.226,0,0,1-17.424-3.8L656.2,602.071C648.1,597.394,647.216,590.316,654.234,586.264Z" transform="translate(-649.496 -526.546)" fill="#dee2f3"/>
          <path id="Path_6104" data-name="Path 6104" d="M664.435,642.115a18.918,18.918,0,0,0,9.272-2.132l73.481-42.424c2.546-1.47,3.95-3.546,3.95-5.842,0-2.709-1.973-5.4-5.412-7.387L675.172,543.6c-6.251-3.611-15.771-3.992-21.226-.845l-73.478,42.425c-2.547,1.47-3.95,3.543-3.95,5.841,0,2.709,1.973,5.4,5.412,7.387l70.55,40.732A24.555,24.555,0,0,0,664.435,642.115Zm-1.217-99.834a22.832,22.832,0,0,1,11.11,2.777l70.553,40.733c2.9,1.677,4.57,3.836,4.57,5.926,0,1.669-1.1,3.225-3.107,4.381l-73.482,42.424c-4.982,2.878-13.748,2.5-19.539-.845l-70.55-40.732c-2.9-1.677-4.569-3.836-4.569-5.927,0-1.669,1.1-3.223,3.106-4.381l73.478-42.425A17.207,17.207,0,0,1,663.219,542.281Z" transform="translate(-547.686 -524.314)" fill="#dee2f3"/>
          <path id="Path_6105" data-name="Path 6105" d="M563.012,657.919l98.7-56.983c7.018-4.052,6.138-11.128-1.965-15.807l-94.763-54.712a31.129,31.129,0,0,0-13.345-3.789,32.285,32.285,0,0,1,17.772,3.789l94.763,54.712c8.1,4.679,8.984,11.755,1.966,15.807l-98.7,56.983c-3.686,2.128-8.818,2.986-14.034,2.655A22.65,22.65,0,0,0,563.012,657.919Z" transform="translate(-438.594 -526.547)" fill="#dee2f3"/>
          <g id="Group_1017" data-name="Group 1017" transform="translate(53.496 30.886)">
            <path id="Path_6106" data-name="Path 6106" d="M667.3,624.063l53.236-30.736c3.785-2.185,3.31-6-1.06-8.526L668.365,555.29c-4.371-2.523-10.982-2.8-14.767-.612l-53.237,30.736c-3.785,2.185-3.31,6,1.06,8.526l51.114,29.511C656.906,625.975,663.518,626.248,667.3,624.063Z" transform="translate(-597.805 -553.203)" fill="#dee2f3"/>
          </g>
        </g>
        <g id="Group_1020" data-name="Group 1020" transform="translate(0 90.528)" opacity="0.5">
          <path id="Path_6107" data-name="Path 6107" d="M551.653,550.037H600.6l54.487-31.459c7.018-4.052,19.275-3.543,27.379,1.134l52.522,30.325h48.923V582.9H783.9c.2,2.743-1.33,5.389-4.7,7.336l-98.7,56.983c-7.017,4.052-19.275,3.543-27.378-1.134l-94.764-54.712c-4.209-2.431-6.45-5.507-6.667-8.472h-.036Z" transform="translate(-551.653 -482.982)" fill="#dee2f3"/>
          <path id="Path_6108" data-name="Path 6108" d="M780.809,585.161h.015V552.3H731.9l-52.522-30.323c-8.1-4.678-20.361-5.186-27.378-1.134L597.512,552.3H551.653v-2.265H600.6l54.487-31.458c7.018-4.052,19.275-3.543,27.379,1.134l52.522,30.323h48.923V582.9H783.9c.2,2.743-1.33,5.389-4.7,7.336l-.556.32A6.881,6.881,0,0,0,780.809,585.161Z" transform="translate(-551.653 -482.982)" fill="#dee2f3"/>
          <path id="Path_6109" data-name="Path 6109" d="M680.481,618.855l98.7-56.983c7.017-4.052,6.136-11.128-1.966-15.807l-94.763-54.712c-8.1-4.678-20.361-5.186-27.379-1.134l-98.7,56.983c-7.017,4.052-6.138,11.13,1.965,15.807L653.1,617.721C661.206,622.4,673.464,622.907,680.481,618.855Z" transform="translate(-551.636 -487.483)" fill="#dee2f3"/>
          <path id="Path_6110" data-name="Path 6110" d="M654.234,547.2l98.7-56.983c3.635-2.1,8.676-2.963,13.816-2.67a22.909,22.909,0,0,0-9.954,2.67L658.1,547.2c-7.017,4.052-6.138,11.129,1.966,15.807l94.763,54.712a31.224,31.224,0,0,0,13.562,3.8,32.217,32.217,0,0,1-17.424-3.8L656.2,563.007C648.1,558.33,647.216,551.252,654.234,547.2Z" transform="translate(-649.496 -487.482)" fill="#dee2f3"/>
          <path id="Path_6111" data-name="Path 6111" d="M664.435,603.052a18.91,18.91,0,0,0,9.272-2.133l73.481-42.425c2.546-1.469,3.95-3.543,3.95-5.839,0-2.71-1.973-5.4-5.412-7.389l-70.554-40.732c-6.256-3.612-15.777-3.988-21.226-.846l-73.478,42.424c-2.549,1.47-3.95,3.546-3.95,5.843,0,2.709,1.973,5.4,5.412,7.387l70.55,40.732A24.567,24.567,0,0,0,664.435,603.052Zm8.427-3.593c-4.982,2.874-13.748,2.5-19.539-.846l-70.55-40.732c-2.9-1.677-4.569-3.837-4.569-5.926,0-1.669,1.1-3.226,3.106-4.382l73.478-42.424c4.984-2.877,13.749-2.5,19.539.845l70.553,40.732c2.9,1.678,4.57,3.838,4.57,5.928,0,1.669-1.1,3.224-3.107,4.38Z" transform="translate(-547.686 -485.25)" fill="#dee2f3"/>
          <path id="Path_6112" data-name="Path 6112" d="M563.012,618.855l98.7-56.983c7.018-4.052,6.138-11.128-1.965-15.807l-94.763-54.712a31.131,31.131,0,0,0-13.345-3.789,32.288,32.288,0,0,1,17.772,3.789l94.763,54.712c8.1,4.679,8.984,11.755,1.966,15.807l-98.7,56.983c-3.686,2.129-8.818,2.986-14.034,2.655A22.65,22.65,0,0,0,563.012,618.855Z" transform="translate(-438.594 -487.483)" fill="#dee2f3"/>
          <g id="Group_1019" data-name="Group 1019" transform="translate(53.496 30.886)">
            <path id="Path_6113" data-name="Path 6113" d="M667.3,585l53.236-30.736c3.785-2.185,3.31-6-1.06-8.526l-51.114-29.511c-4.371-2.523-10.982-2.8-14.767-.612L600.361,546.35c-3.785,2.185-3.31,6,1.06,8.526l51.114,29.511C656.906,586.911,663.518,587.184,667.3,585Z" transform="translate(-597.805 -514.139)" fill="#dee2f3"/>
          </g>
        </g>
        <g id="Group_1022" data-name="Group 1022" transform="translate(0 45.264)" opacity="0.7">
          <path id="Path_6114" data-name="Path 6114" d="M551.653,510.973H600.6l54.487-31.459c7.018-4.052,19.275-3.543,27.379,1.134l52.522,30.325h48.923v32.859H783.9c.2,2.743-1.33,5.389-4.7,7.336L680.5,608.15c-7.017,4.052-19.275,3.543-27.378-1.134L558.356,552.3c-4.209-2.431-6.45-5.507-6.667-8.473h-.036Z" transform="translate(-551.653 -443.918)" fill="#dee2f3"/>
          <path id="Path_6115" data-name="Path 6115" d="M780.809,546.1h.015v-32.86H731.9l-52.522-30.323c-8.1-4.678-20.361-5.186-27.378-1.134l-54.488,31.458H551.653v-2.265H600.6l54.487-31.458c7.018-4.052,19.275-3.543,27.379,1.134l52.522,30.323h48.923v32.86H783.9c.2,2.743-1.33,5.389-4.7,7.336l-.556.321A6.885,6.885,0,0,0,780.809,546.1Z" transform="translate(-551.653 -443.918)" fill="#dee2f3"/>
          <path id="Path_6116" data-name="Path 6116" d="M680.481,579.791l98.7-56.983c7.017-4.052,6.136-11.128-1.966-15.807l-94.763-54.712c-8.1-4.678-20.361-5.186-27.379-1.134l-98.7,56.983c-7.017,4.052-6.138,11.129,1.965,15.807L653.1,578.657C661.206,583.334,673.464,583.843,680.481,579.791Z" transform="translate(-551.636 -448.419)" fill="#dee2f3"/>
          <path id="Path_6117" data-name="Path 6117" d="M654.234,508.136l98.7-56.983c3.635-2.1,8.676-2.963,13.816-2.67a22.927,22.927,0,0,0-9.954,2.67l-98.7,56.983c-7.017,4.052-6.138,11.129,1.966,15.807l94.763,54.712a31.226,31.226,0,0,0,13.562,3.8,32.217,32.217,0,0,1-17.424-3.8L656.2,523.943C648.1,519.266,647.216,512.188,654.234,508.136Z" transform="translate(-649.496 -448.418)" fill="#dee2f3"/>
          <path id="Path_6118" data-name="Path 6118" d="M664.433,563.987a18.921,18.921,0,0,0,9.274-2.132l73.481-42.424c2.546-1.47,3.95-3.546,3.95-5.842,0-2.709-1.973-5.4-5.412-7.388l-70.554-40.732c-6.251-3.612-15.771-3.992-21.226-.845l-73.478,42.425c-2.547,1.47-3.95,3.543-3.95,5.841,0,2.709,1.973,5.4,5.412,7.387l70.55,40.732A24.54,24.54,0,0,0,664.433,563.987Zm8.43-3.593c-4.982,2.875-13.748,2.5-19.539-.845l-70.55-40.732c-2.9-1.677-4.569-3.836-4.569-5.927,0-1.668,1.1-3.223,3.106-4.381l73.478-42.425c4.984-2.875,13.749-2.5,19.539.846l70.553,40.732c2.9,1.678,4.57,3.838,4.57,5.927,0,1.668-1.1,3.225-3.107,4.382Z" transform="translate(-547.686 -446.186)" fill="#dee2f3"/>
          <path id="Path_6119" data-name="Path 6119" d="M563.012,579.791l98.7-56.983c7.018-4.052,6.138-11.128-1.965-15.807l-94.763-54.712a31.131,31.131,0,0,0-13.345-3.789,32.287,32.287,0,0,1,17.772,3.789L664.172,507c8.1,4.679,8.984,11.755,1.966,15.807l-98.7,56.983c-3.686,2.129-8.818,2.986-14.034,2.655A22.65,22.65,0,0,0,563.012,579.791Z" transform="translate(-438.594 -448.419)" fill="#dee2f3"/>
          <g id="Group_1021" data-name="Group 1021" transform="translate(53.496 30.886)">
            <path id="Path_6120" data-name="Path 6120" d="M667.3,545.935,720.539,515.2c3.785-2.185,3.31-6-1.06-8.526l-51.114-29.511c-4.371-2.523-10.982-2.8-14.767-.612l-53.237,30.736c-3.785,2.185-3.31,6,1.06,8.526l51.114,29.511C656.906,547.847,663.518,548.12,667.3,545.935Z" transform="translate(-597.805 -475.075)" fill="#dee2f3"/>
          </g>
        </g>
        <g id="Group_1024" data-name="Group 1024">
          <path id="Path_6121" data-name="Path 6121" d="M551.653,471.909H600.6l54.487-31.459c7.018-4.052,19.275-3.543,27.379,1.134l52.522,30.325h48.923v32.859H783.9c.2,2.743-1.33,5.389-4.7,7.336l-98.7,56.983c-7.017,4.052-19.275,3.543-27.378-1.134L558.356,513.24c-4.209-2.431-6.45-5.507-6.667-8.473h-.036Z" transform="translate(-551.653 -404.854)" fill="#dee2f3"/>
          <path id="Path_6122" data-name="Path 6122" d="M780.809,507.032h.015v-32.86H731.9l-52.522-30.323c-8.1-4.678-20.361-5.186-27.378-1.134l-54.488,31.458H551.653v-2.265H600.6l54.487-31.458c7.018-4.052,19.275-3.543,27.379,1.134l52.522,30.323h48.923v32.86H783.9c.2,2.743-1.33,5.389-4.7,7.336l-.556.321A6.885,6.885,0,0,0,780.809,507.032Z" transform="translate(-551.653 -404.854)" fill="#dee2f3"/>
          <path id="Path_6123" data-name="Path 6123" d="M680.481,540.727l98.7-56.983c7.017-4.052,6.136-11.128-1.966-15.807l-94.763-54.712c-8.1-4.678-20.361-5.186-27.379-1.134l-98.7,56.983c-7.017,4.052-6.138,11.129,1.965,15.807L653.1,539.593C661.206,544.27,673.464,544.779,680.481,540.727Z" transform="translate(-551.636 -409.355)" fill="#dee2f3"/>
          <path id="Path_6124" data-name="Path 6124" d="M654.234,469.072l98.7-56.983c3.635-2.1,8.676-2.963,13.816-2.67a22.924,22.924,0,0,0-9.954,2.67l-98.7,56.983c-7.017,4.052-6.138,11.129,1.966,15.807l94.763,54.712a31.223,31.223,0,0,0,13.562,3.8,32.216,32.216,0,0,1-17.424-3.8L656.2,484.879C648.1,480.2,647.216,473.124,654.234,469.072Z" transform="translate(-649.496 -409.354)" fill="#dee2f3"/>
          <path id="Path_6125" data-name="Path 6125" d="M664.435,524.924a18.912,18.912,0,0,0,9.272-2.133l73.481-42.425c2.546-1.468,3.95-3.543,3.95-5.839,0-2.71-1.973-5.4-5.412-7.389l-70.554-40.732c-6.251-3.609-15.775-3.991-21.226-.846l-73.478,42.424c-2.549,1.47-3.95,3.547-3.95,5.843,0,2.709,1.973,5.4,5.412,7.386l70.55,40.733A24.568,24.568,0,0,0,664.435,524.924Zm8.427-3.593c-4.982,2.874-13.748,2.5-19.539-.845l-70.55-40.734c-2.9-1.677-4.569-3.835-4.569-5.924,0-1.669,1.1-3.226,3.106-4.382l73.478-42.424c4.984-2.879,13.749-2.5,19.539.845L744.881,468.6c2.9,1.678,4.57,3.838,4.57,5.928,0,1.669-1.1,3.225-3.107,4.38Z" transform="translate(-547.686 -407.122)" fill="#dee2f3"/>
          <path id="Path_6126" data-name="Path 6126" d="M563.012,540.727l98.7-56.983c7.018-4.052,6.138-11.128-1.965-15.807l-94.763-54.712a31.13,31.13,0,0,0-13.345-3.789,32.286,32.286,0,0,1,17.772,3.789l94.763,54.712c8.1,4.679,8.984,11.755,1.966,15.807l-98.7,56.983c-3.686,2.129-8.818,2.986-14.034,2.655A22.649,22.649,0,0,0,563.012,540.727Z" transform="translate(-438.594 -409.355)" fill="#dee2f3"/>
          <g id="Group_1023" data-name="Group 1023" transform="translate(53.496 30.886)">
            <path id="Path_6127" data-name="Path 6127" d="M667.3,506.871l53.236-30.736c3.785-2.185,3.31-6-1.06-8.526L668.365,438.1c-4.371-2.523-10.982-2.8-14.767-.612l-53.237,30.736c-3.785,2.185-3.31,6,1.06,8.526l51.114,29.511C656.906,508.783,663.518,509.056,667.3,506.871Z" transform="translate(-597.805 -436.011)" fill="#dee2f3"/>
          </g>
        </g>
      </g>
      <path id="Path_6128" data-name="Path 6128" d="M680.481,540.727l98.7-56.983c7.017-4.052,6.136-11.128-1.966-15.807l-94.763-54.712c-8.1-4.678-20.361-5.186-27.379-1.134l-98.7,56.983c-7.017,4.052-6.138,11.129,1.965,15.807L653.1,539.593C661.206,544.27,673.464,544.779,680.481,540.727Z" transform="translate(-551.636 -409.355)" fill="#dd131f"/>
      <path id="Path_6129" data-name="Path 6129" d="M671.15,516.757l66.511-38.4c4.729-2.73,4.135-7.5-1.326-10.651l-63.858-36.869c-5.461-3.153-13.721-3.5-18.45-.765l-66.51,38.4c-4.73,2.73-4.137,7.5,1.324,10.652L652.7,515.992C658.161,519.144,666.422,519.487,671.15,516.757Z" transform="translate(-546.449 -406.36)" fill="#dee2f3"/>
    </g>
    <g id="Group_1036" data-name="Group 1036" transform="translate(0 0)">
      <g id="Group_1035" data-name="Group 1035">
        <g id="Group_1028" data-name="Group 1028" transform="translate(0 135.791)" opacity="0.4">
          <path id="Path_6130" data-name="Path 6130" d="M775.392,589.1h48.949l54.487-31.458c7.018-4.052,19.275-3.543,27.379,1.134L958.729,589.1h48.923v32.86h-.015c.2,2.743-1.33,5.389-4.7,7.336l-98.7,56.983c-7.017,4.052-19.275,3.543-27.378-1.134L782.1,630.432c-4.21-2.431-6.45-5.507-6.666-8.472h-.037Z" transform="translate(-775.392 -522.046)" fill="#dee2f3"/>
          <path id="Path_6131" data-name="Path 6131" d="M1004.548,624.225h.015v-32.86H955.64l-52.522-30.323c-8.1-4.678-20.361-5.186-27.378-1.134l-54.488,31.458H775.392V589.1h48.949l54.487-31.458c7.018-4.052,19.276-3.543,27.379,1.134L958.729,589.1h48.923v32.86h-.015c.2,2.743-1.33,5.388-4.7,7.336l-.556.32A6.882,6.882,0,0,0,1004.548,624.225Z" transform="translate(-775.392 -522.046)" fill="#dee2f3"/>
          <path id="Path_6132" data-name="Path 6132" d="M904.22,657.919l98.7-56.983c7.017-4.052,6.136-11.128-1.966-15.807L906.19,530.417c-8.1-4.678-20.361-5.186-27.379-1.134l-98.7,56.983c-7.017,4.052-6.138,11.128,1.965,15.807l94.764,54.712C884.945,661.462,897.2,661.971,904.22,657.919Z" transform="translate(-775.375 -526.547)" fill="#dee2f3"/>
          <path id="Path_6133" data-name="Path 6133" d="M877.972,586.264l98.7-56.983c3.635-2.1,8.676-2.963,13.816-2.67a22.9,22.9,0,0,0-9.953,2.67l-98.7,56.983c-7.017,4.052-6.138,11.129,1.966,15.807l94.763,54.712a31.223,31.223,0,0,0,13.562,3.8,32.226,32.226,0,0,1-17.423-3.8l-94.764-54.712C871.835,597.394,870.955,590.316,877.972,586.264Z" transform="translate(-873.234 -526.546)" fill="#dee2f3"/>
          <path id="Path_6134" data-name="Path 6134" d="M888.178,642.116a18.905,18.905,0,0,0,9.272-2.133l73.478-42.424c2.548-1.47,3.95-3.546,3.95-5.842,0-2.709-1.974-5.4-5.414-7.387L898.914,543.6c-6.251-3.611-15.775-3.994-21.227-.845l-73.481,42.425c-2.547,1.47-3.95,3.545-3.95,5.841,0,2.709,1.973,5.4,5.412,7.387l70.553,40.733A24.6,24.6,0,0,0,888.178,642.116Zm-1.217-99.836a22.85,22.85,0,0,1,11.11,2.777l70.55,40.733c2.9,1.678,4.569,3.837,4.569,5.926,0,1.667-1.1,3.225-3.105,4.381L896.6,638.522c-4.984,2.877-13.746,2.5-19.539-.844l-70.553-40.733c-2.9-1.678-4.569-3.837-4.569-5.927,0-1.67,1.1-3.224,3.107-4.381l73.481-42.425A17.208,17.208,0,0,1,886.961,542.281Z" transform="translate(-771.427 -524.314)" fill="#dee2f3"/>
          <path id="Path_6135" data-name="Path 6135" d="M786.751,657.919l98.7-56.983c7.017-4.052,6.136-11.128-1.966-15.807l-94.763-54.712a31.127,31.127,0,0,0-13.345-3.789,32.285,32.285,0,0,1,17.772,3.789l94.763,54.712c8.1,4.679,8.984,11.755,1.966,15.807l-98.7,56.983c-3.686,2.128-8.818,2.986-14.033,2.655A22.65,22.65,0,0,0,786.751,657.919Z" transform="translate(-662.333 -526.547)" fill="#dee2f3"/>
          <g id="Group_1027" data-name="Group 1027" transform="translate(53.497 30.886)">
            <path id="Path_6136" data-name="Path 6136" d="M891.042,624.063l53.236-30.736c3.786-2.185,3.31-6-1.06-8.526L892.1,555.29c-4.371-2.523-10.982-2.8-14.767-.612L824.1,585.414c-3.784,2.185-3.31,6,1.06,8.526l51.114,29.511C880.644,625.975,887.256,626.248,891.042,624.063Z" transform="translate(-821.544 -553.203)" fill="#dee2f3"/>
          </g>
        </g>
        <g id="Group_1030" data-name="Group 1030" transform="translate(0 90.528)" opacity="0.5">
          <path id="Path_6137" data-name="Path 6137" d="M775.392,550.037h48.949l54.487-31.459c7.018-4.052,19.275-3.543,27.379,1.134l52.522,30.325h48.923V582.9h-.015c.2,2.743-1.33,5.389-4.7,7.336l-98.7,56.983c-7.017,4.052-19.275,3.543-27.378-1.134L782.1,591.368c-4.21-2.431-6.45-5.507-6.666-8.472h-.037Z" transform="translate(-775.392 -482.982)" fill="#dee2f3"/>
          <path id="Path_6138" data-name="Path 6138" d="M1004.548,585.161h.015V552.3H955.64l-52.522-30.323c-8.1-4.678-20.361-5.186-27.378-1.134L821.251,552.3H775.392v-2.265h48.949l54.487-31.458c7.018-4.052,19.276-3.543,27.379,1.134l52.522,30.323h48.923V582.9h-.015c.2,2.743-1.33,5.389-4.7,7.336l-.556.32A6.882,6.882,0,0,0,1004.548,585.161Z" transform="translate(-775.392 -482.982)" fill="#dee2f3"/>
          <path id="Path_6139" data-name="Path 6139" d="M904.22,618.855l98.7-56.983c7.017-4.052,6.136-11.128-1.966-15.807L906.19,491.353c-8.1-4.678-20.361-5.186-27.379-1.134l-98.7,56.983c-7.017,4.052-6.138,11.13,1.965,15.807l94.764,54.712C884.945,622.4,897.2,622.907,904.22,618.855Z" transform="translate(-775.375 -487.483)" fill="#dee2f3"/>
          <path id="Path_6140" data-name="Path 6140" d="M877.972,547.2l98.7-56.983c3.635-2.1,8.676-2.963,13.816-2.67a22.9,22.9,0,0,0-9.953,2.67l-98.7,56.983c-7.017,4.052-6.138,11.129,1.966,15.807l94.763,54.712a31.223,31.223,0,0,0,13.562,3.8,32.217,32.217,0,0,1-17.423-3.8l-94.764-54.712C871.835,558.33,870.955,551.252,877.972,547.2Z" transform="translate(-873.234 -487.482)" fill="#dee2f3"/>
          <path id="Path_6141" data-name="Path 6141" d="M888.178,603.051a18.909,18.909,0,0,0,9.272-2.132l73.478-42.425c2.546-1.47,3.95-3.543,3.95-5.841,0-2.709-1.974-5.4-5.414-7.387l-70.55-40.732c-6.254-3.611-15.775-3.992-21.227-.846l-73.481,42.424c-2.547,1.47-3.95,3.546-3.95,5.842,0,2.709,1.973,5.4,5.412,7.387l70.553,40.732A24.569,24.569,0,0,0,888.178,603.051Zm8.427-3.592c-4.988,2.874-13.752,2.493-19.539-.846L806.513,557.88c-2.9-1.677-4.569-3.836-4.569-5.926,0-1.669,1.1-3.225,3.107-4.381l73.481-42.424c4.984-2.877,13.747-2.5,19.539.845l70.55,40.732c2.9,1.677,4.569,3.836,4.569,5.927,0,1.669-1.1,3.223-3.105,4.381Z" transform="translate(-771.427 -485.25)" fill="#dee2f3"/>
          <path id="Path_6142" data-name="Path 6142" d="M786.751,618.855l98.7-56.983c7.017-4.052,6.136-11.128-1.966-15.807l-94.763-54.712a31.13,31.13,0,0,0-13.345-3.789,32.288,32.288,0,0,1,17.772,3.789l94.763,54.712c8.1,4.679,8.984,11.755,1.966,15.807l-98.7,56.983c-3.686,2.129-8.818,2.986-14.033,2.655A22.65,22.65,0,0,0,786.751,618.855Z" transform="translate(-662.333 -487.483)" fill="#dee2f3"/>
          <g id="Group_1029" data-name="Group 1029" transform="translate(53.497 30.886)">
            <path id="Path_6143" data-name="Path 6143" d="M891.042,585l53.236-30.736c3.786-2.185,3.31-6-1.06-8.526L892.1,516.226c-4.371-2.523-10.982-2.8-14.767-.612L824.1,546.35c-3.784,2.185-3.31,6,1.06,8.526l51.114,29.511C880.644,586.911,887.256,587.184,891.042,585Z" transform="translate(-821.544 -514.139)" fill="#dee2f3"/>
          </g>
        </g>
        <g id="Group_1032" data-name="Group 1032" transform="translate(0 45.264)" opacity="0.7">
          <path id="Path_6144" data-name="Path 6144" d="M775.392,510.973h48.949l54.487-31.459c7.018-4.052,19.275-3.543,27.379,1.134l52.522,30.325h48.923v32.859h-.015c.2,2.743-1.33,5.389-4.7,7.336l-98.7,56.983c-7.017,4.052-19.275,3.543-27.378-1.134L782.1,552.3c-4.21-2.431-6.45-5.507-6.666-8.473h-.037Z" transform="translate(-775.392 -443.918)" fill="#dee2f3"/>
          <path id="Path_6145" data-name="Path 6145" d="M1004.548,546.1h.015v-32.86H955.64l-52.522-30.323c-8.1-4.678-20.361-5.186-27.378-1.134l-54.488,31.458H775.392v-2.265h48.949l54.487-31.458c7.018-4.052,19.276-3.543,27.379,1.134l52.522,30.323h48.923v32.86h-.015c.2,2.743-1.33,5.389-4.7,7.336l-.556.321A6.886,6.886,0,0,0,1004.548,546.1Z" transform="translate(-775.392 -443.918)" fill="#dee2f3"/>
          <path id="Path_6146" data-name="Path 6146" d="M904.22,579.791l98.7-56.983c7.017-4.052,6.136-11.128-1.966-15.807L906.19,452.289c-8.1-4.678-20.361-5.186-27.379-1.134l-98.7,56.983c-7.017,4.052-6.138,11.129,1.965,15.807l94.764,54.712C884.945,583.334,897.2,583.843,904.22,579.791Z" transform="translate(-775.375 -448.419)" fill="#dee2f3"/>
          <path id="Path_6147" data-name="Path 6147" d="M877.972,508.136l98.7-56.983c3.635-2.1,8.676-2.963,13.816-2.67a22.917,22.917,0,0,0-9.953,2.67l-98.7,56.983c-7.017,4.052-6.138,11.129,1.966,15.807l94.763,54.712a31.225,31.225,0,0,0,13.562,3.8,32.217,32.217,0,0,1-17.423-3.8l-94.764-54.712C871.835,519.266,870.955,512.188,877.972,508.136Z" transform="translate(-873.234 -448.418)" fill="#dee2f3"/>
          <path id="Path_6148" data-name="Path 6148" d="M888.175,563.987a18.919,18.919,0,0,0,9.274-2.132l73.478-42.424c2.548-1.47,3.95-3.546,3.95-5.843,0-2.709-1.974-5.4-5.414-7.387l-70.55-40.732c-6.251-3.613-15.775-3.992-21.227-.845l-73.481,42.425c-2.547,1.469-3.95,3.543-3.95,5.84,0,2.709,1.973,5.4,5.412,7.388l70.553,40.732A24.541,24.541,0,0,0,888.175,563.987Zm8.43-3.593c-4.986,2.876-13.748,2.5-19.539-.845l-70.553-40.732c-2.9-1.678-4.569-3.838-4.569-5.927,0-1.67,1.1-3.225,3.107-4.381l73.481-42.425c4.984-2.874,13.747-2.5,19.539.846l70.55,40.732c2.9,1.677,4.569,3.837,4.569,5.926,0,1.669-1.1,3.226-3.105,4.384Z" transform="translate(-771.427 -446.186)" fill="#dee2f3"/>
          <path id="Path_6149" data-name="Path 6149" d="M786.751,579.791l98.7-56.983c7.017-4.052,6.136-11.128-1.966-15.807l-94.763-54.712a31.129,31.129,0,0,0-13.345-3.789,32.286,32.286,0,0,1,17.772,3.789L887.911,507c8.1,4.679,8.984,11.755,1.966,15.807l-98.7,56.983c-3.686,2.129-8.818,2.986-14.033,2.655A22.65,22.65,0,0,0,786.751,579.791Z" transform="translate(-662.333 -448.419)" fill="#dee2f3"/>
          <g id="Group_1031" data-name="Group 1031" transform="translate(53.497 30.886)">
            <path id="Path_6150" data-name="Path 6150" d="M891.042,545.935,944.277,515.2c3.786-2.185,3.31-6-1.06-8.526L892.1,477.162c-4.371-2.523-10.982-2.8-14.767-.612L824.1,507.286c-3.784,2.185-3.31,6,1.06,8.526l51.114,29.511C880.644,547.847,887.256,548.12,891.042,545.935Z" transform="translate(-821.544 -475.075)" fill="#dee2f3"/>
          </g>
        </g>
        <g id="Group_1034" data-name="Group 1034">
          <path id="Path_6151" data-name="Path 6151" d="M775.392,471.909h48.949l54.487-31.459c7.018-4.052,19.275-3.543,27.379,1.134l52.522,30.325h48.923v32.859h-.015c.2,2.743-1.33,5.389-4.7,7.336l-98.7,56.983c-7.017,4.052-19.275,3.543-27.378-1.134L782.1,513.24c-4.21-2.431-6.45-5.507-6.666-8.473h-.037Z" transform="translate(-775.392 -404.854)" fill="#dd131f"/>
          <path id="Path_6152" data-name="Path 6152" d="M1004.548,507.032h.015v-32.86H955.64l-52.522-30.323c-8.1-4.678-20.361-5.186-27.378-1.134l-54.488,31.458H775.392v-2.265h48.949l54.487-31.458c7.018-4.052,19.276-3.543,27.379,1.134l52.522,30.323h48.923v32.86h-.015c.2,2.743-1.33,5.389-4.7,7.336l-.556.321A6.886,6.886,0,0,0,1004.548,507.032Z" transform="translate(-775.392 -404.854)" fill="#dee2f3"/>
          <path id="Path_6153" data-name="Path 6153" d="M904.22,540.727l98.7-56.983c7.017-4.052,6.136-11.128-1.966-15.807L906.19,413.225c-8.1-4.678-20.361-5.186-27.379-1.134l-98.7,56.983c-7.017,4.052-6.138,11.129,1.965,15.807l94.764,54.712C884.945,544.27,897.2,544.779,904.22,540.727Z" transform="translate(-775.375 -409.355)" fill="#dee2f3"/>
          <path id="Path_6154" data-name="Path 6154" d="M877.972,469.072l98.7-56.983c3.635-2.1,8.676-2.963,13.816-2.67a22.915,22.915,0,0,0-9.953,2.67l-98.7,56.983c-7.017,4.052-6.138,11.129,1.966,15.807l94.763,54.712a31.222,31.222,0,0,0,13.562,3.8,32.216,32.216,0,0,1-17.423-3.8l-94.764-54.712C871.835,480.2,870.955,473.124,877.972,469.072Z" transform="translate(-873.234 -409.354)" fill="#dee2f3"/>
          <path id="Path_6155" data-name="Path 6155" d="M888.178,524.924a18.911,18.911,0,0,0,9.272-2.133l73.478-42.425c2.546-1.47,3.95-3.543,3.95-5.841,0-2.709-1.974-5.4-5.414-7.387l-70.55-40.732c-6.254-3.611-15.775-3.992-21.227-.846l-73.481,42.424c-2.547,1.47-3.95,3.546-3.95,5.842,0,2.709,1.973,5.4,5.412,7.387l70.553,40.733A24.569,24.569,0,0,0,888.178,524.924Zm8.427-3.593c-4.984,2.876-13.746,2.5-19.539-.845l-70.553-40.734c-2.9-1.677-4.569-3.835-4.569-5.926,0-1.668,1.1-3.225,3.107-4.381l73.481-42.424c4.984-2.877,13.747-2.5,19.539.845l70.55,40.732c2.9,1.677,4.569,3.836,4.569,5.927,0,1.669-1.1,3.224-3.105,4.381Z" transform="translate(-771.427 -407.122)" fill="#dee2f3"/>
          <path id="Path_6156" data-name="Path 6156" d="M786.751,540.727l98.7-56.983c7.017-4.052,6.136-11.128-1.966-15.807l-94.763-54.712a31.129,31.129,0,0,0-13.345-3.789,32.285,32.285,0,0,1,17.772,3.789l94.763,54.712c8.1,4.679,8.984,11.755,1.966,15.807l-98.7,56.983c-3.686,2.129-8.818,2.986-14.033,2.655A22.649,22.649,0,0,0,786.751,540.727Z" transform="translate(-662.333 -409.355)" fill="#dee2f3"/>
          <g id="Group_1033" data-name="Group 1033" transform="translate(13.779 93.573)">
            <path id="Path_6157" data-name="Path 6157" d="M974.381,546.206l-83.488-48.29a3.314,3.314,0,0,1-1.383-2.643v-3.95c0-1.018.62-1.487,1.383-1.046l83.488,48.292a3.309,3.309,0,0,1,1.382,2.642v3.951C975.763,546.18,975.144,546.648,974.381,546.206Z" transform="translate(-889.509 -490.111)" fill="#dee2f3"/>
            <path id="Path_6158" data-name="Path 6158" d="M892.719,496.871a3.31,3.31,0,0,1-1.382-2.642v-3.7l-.445-.257c-.764-.44-1.383.028-1.383,1.046v3.95a3.314,3.314,0,0,0,1.383,2.643l83.488,48.29c.764.441,1.382-.027,1.382-1.045v-.256Z" transform="translate(-889.509 -490.111)" fill="#dee2f3"/>
          </g>
        </g>
      </g>
      <path id="Path_6159" data-name="Path 6159" d="M904.22,540.727l98.7-56.983c7.017-4.052,6.136-11.128-1.966-15.807L906.19,413.225c-8.1-4.678-20.361-5.186-27.379-1.134l-98.7,56.983c-7.017,4.052-6.138,11.129,1.965,15.807l94.764,54.712C884.945,544.27,897.2,544.779,904.22,540.727Z" transform="translate(-775.375 -409.355)" fill="#dee2f3"/>
    </g>
    <g id="Group_1047" data-name="Group 1047" transform="translate(518.329 0)">
      <g id="Group_1046" data-name="Group 1046" transform="translate(0)">
        <g id="Group_1038" data-name="Group 1038" transform="translate(0 135.791)" opacity="0.4">
          <path id="Path_6160" data-name="Path 6160" d="M328.06,589.1h48.947L431.5,557.642c7.017-4.052,19.275-3.543,27.378,1.134L511.4,589.1H560.32v32.86H560.3c.2,2.743-1.329,5.389-4.7,7.336l-98.7,56.983c-7.018,4.052-19.275,3.543-27.379-1.134l-94.763-54.712c-4.21-2.431-6.451-5.507-6.667-8.472h-.036Z" transform="translate(-328.06 -522.046)" fill="#dee2f3"/>
          <path id="Path_6161" data-name="Path 6161" d="M557.216,624.225h.015v-32.86H508.308l-52.523-30.323c-8.1-4.678-20.361-5.186-27.378-1.134l-54.488,31.458H328.06V589.1h48.947L431.5,557.642c7.017-4.052,19.275-3.543,27.378,1.134L511.4,589.1H560.32v32.86H560.3c.2,2.743-1.329,5.388-4.7,7.336l-.556.32A6.887,6.887,0,0,0,557.216,624.225Z" transform="translate(-328.06 -522.046)" fill="#dee2f3"/>
          <path id="Path_6162" data-name="Path 6162" d="M456.889,657.919l98.7-56.983c7.017-4.052,6.138-11.128-1.966-15.807l-94.763-54.712c-8.1-4.678-20.361-5.186-27.378-1.134l-98.7,56.983c-7.017,4.052-6.136,11.128,1.966,15.807l94.763,54.712C437.612,661.462,449.87,661.971,456.889,657.919Z" transform="translate(-328.043 -526.547)" fill="#dee2f3"/>
          <path id="Path_6163" data-name="Path 6163" d="M430.64,586.264l98.7-56.983c3.634-2.1,8.675-2.963,13.815-2.67a22.9,22.9,0,0,0-9.953,2.67l-98.7,56.983c-7.018,4.052-6.138,11.129,1.965,15.807l94.763,54.712a31.228,31.228,0,0,0,13.561,3.8,32.227,32.227,0,0,1-17.423-3.8l-94.763-54.712C424.5,597.394,423.623,590.316,430.64,586.264Z" transform="translate(-425.903 -526.546)" fill="#dee2f3"/>
          <path id="Path_6164" data-name="Path 6164" d="M440.845,642.115a18.906,18.906,0,0,0,9.271-2.132L523.6,597.558c2.546-1.468,3.946-3.543,3.946-5.84,0-2.712-1.971-5.4-5.41-7.389L451.582,543.6c-6.257-3.609-15.779-3.99-21.226-.844l-73.479,42.422c-2.548,1.47-3.95,3.546-3.95,5.844,0,2.709,1.974,5.4,5.413,7.387l70.55,40.731A24.565,24.565,0,0,0,440.845,642.115Zm8.427-3.592c-4.986,2.875-13.752,2.5-19.539-.846l-70.55-40.732c-2.9-1.677-4.569-3.835-4.569-5.926,0-1.67,1.1-3.227,3.105-4.383L431.2,544.213c4.984-2.878,13.746-2.5,19.539.843l70.553,40.733c2.9,1.677,4.567,3.835,4.567,5.928,0,1.667-1.1,3.222-3.1,4.379Z" transform="translate(-324.096 -524.314)" fill="#dee2f3"/>
          <path id="Path_6165" data-name="Path 6165" d="M339.42,657.919l98.7-56.983c7.017-4.052,6.138-11.128-1.966-15.807l-94.763-54.712a31.129,31.129,0,0,0-13.345-3.789,32.286,32.286,0,0,1,17.772,3.789l94.763,54.712c8.1,4.679,8.983,11.755,1.966,15.807l-98.7,56.983c-3.686,2.128-8.818,2.986-14.033,2.655A22.66,22.66,0,0,0,339.42,657.919Z" transform="translate(-215.002 -526.547)" fill="#dee2f3"/>
          <g id="Group_1037" data-name="Group 1037" transform="translate(53.496 30.886)">
            <path id="Path_6166" data-name="Path 6166" d="M443.708,624.063l53.237-30.736c3.784-2.185,3.31-6-1.06-8.526L444.771,555.29c-4.371-2.523-10.982-2.8-14.768-.612l-53.236,30.736c-3.786,2.185-3.31,6,1.06,8.526l51.113,29.511C433.311,625.975,439.923,626.248,443.708,624.063Z" transform="translate(-374.212 -553.203)" fill="#dee2f3"/>
          </g>
        </g>
        <g id="Group_1040" data-name="Group 1040" transform="translate(0 90.528)" opacity="0.5">
          <path id="Path_6167" data-name="Path 6167" d="M328.06,550.037h48.947L431.5,518.578c7.017-4.052,19.275-3.543,27.378,1.134L511.4,550.037H560.32V582.9H560.3c.2,2.743-1.329,5.389-4.7,7.336l-98.7,56.983c-7.018,4.052-19.275,3.543-27.379-1.134l-94.763-54.712c-4.21-2.431-6.451-5.507-6.667-8.472h-.036Z" transform="translate(-328.06 -482.982)" fill="#dee2f3"/>
          <path id="Path_6168" data-name="Path 6168" d="M557.216,585.161h.015V552.3H508.308l-52.523-30.323c-8.1-4.678-20.361-5.186-27.378-1.134L373.918,552.3H328.06v-2.265h48.947L431.5,518.578c7.017-4.052,19.275-3.543,27.378,1.134L511.4,550.035H560.32V582.9H560.3c.2,2.743-1.329,5.389-4.7,7.336l-.556.32A6.887,6.887,0,0,0,557.216,585.161Z" transform="translate(-328.06 -482.982)" fill="#dee2f3"/>
          <path id="Path_6169" data-name="Path 6169" d="M456.889,618.855l98.7-56.983c7.017-4.052,6.138-11.128-1.966-15.807l-94.763-54.712c-8.1-4.678-20.361-5.186-27.378-1.134L332.78,547.2c-7.017,4.052-6.136,11.13,1.966,15.807l94.763,54.712C437.612,622.4,449.87,622.907,456.889,618.855Z" transform="translate(-328.043 -487.483)" fill="#dee2f3"/>
          <path id="Path_6170" data-name="Path 6170" d="M430.64,547.2l98.7-56.983c3.634-2.1,8.675-2.963,13.815-2.67a22.9,22.9,0,0,0-9.953,2.67L434.5,547.2c-7.018,4.052-6.138,11.129,1.965,15.807l94.763,54.712a31.228,31.228,0,0,0,13.561,3.8,32.217,32.217,0,0,1-17.423-3.8l-94.763-54.712C424.5,558.33,423.623,551.252,430.64,547.2Z" transform="translate(-425.903 -487.482)" fill="#dee2f3"/>
          <path id="Path_6171" data-name="Path 6171" d="M440.843,603.052a18.919,18.919,0,0,0,9.273-2.134L523.6,558.494c2.546-1.47,3.946-3.543,3.946-5.841,0-2.708-1.971-5.4-5.41-7.387l-70.553-40.733c-6.257-3.613-15.779-3.988-21.226-.845l-73.479,42.424c-2.548,1.47-3.95,3.546-3.95,5.843,0,2.709,1.974,5.4,5.413,7.387l70.55,40.732A24.562,24.562,0,0,0,440.843,603.052Zm-1.214-99.836a22.842,22.842,0,0,1,11.11,2.777l70.553,40.732c2.9,1.677,4.567,3.836,4.567,5.927,0,1.669-1.1,3.225-3.1,4.381l-73.481,42.424c-4.981,2.874-13.749,2.5-19.539-.845l-70.55-40.732c-2.9-1.677-4.569-3.836-4.569-5.926,0-1.67,1.1-3.226,3.105-4.383L431.2,505.149A17.2,17.2,0,0,1,439.629,503.216Z" transform="translate(-324.096 -485.25)" fill="#dee2f3"/>
          <path id="Path_6172" data-name="Path 6172" d="M339.42,618.855l98.7-56.983c7.017-4.052,6.138-11.128-1.966-15.807l-94.763-54.712a31.131,31.131,0,0,0-13.345-3.789,32.289,32.289,0,0,1,17.772,3.789l94.763,54.712c8.1,4.679,8.983,11.755,1.966,15.807l-98.7,56.983c-3.686,2.129-8.818,2.986-14.033,2.655A22.66,22.66,0,0,0,339.42,618.855Z" transform="translate(-215.002 -487.483)" fill="#dee2f3"/>
          <g id="Group_1039" data-name="Group 1039" transform="translate(53.496 30.886)">
            <path id="Path_6173" data-name="Path 6173" d="M443.708,585l53.237-30.736c3.784-2.185,3.31-6-1.06-8.526l-51.114-29.511c-4.371-2.523-10.982-2.8-14.768-.612L376.767,546.35c-3.786,2.185-3.31,6,1.06,8.526l51.113,29.511C433.311,586.911,439.923,587.184,443.708,585Z" transform="translate(-374.212 -514.139)" fill="#dee2f3"/>
          </g>
        </g>
        <g id="Group_1042" data-name="Group 1042" transform="translate(0 45.264)" opacity="0.7">
          <path id="Path_6174" data-name="Path 6174" d="M328.06,510.973h48.947L431.5,479.514c7.017-4.052,19.275-3.543,27.378,1.134L511.4,510.973H560.32v32.859H560.3c.2,2.743-1.329,5.389-4.7,7.336L456.9,608.15c-7.018,4.052-19.275,3.543-27.379-1.134L334.763,552.3c-4.21-2.431-6.451-5.507-6.667-8.473h-.036Z" transform="translate(-328.06 -443.918)" fill="#dee2f3"/>
          <path id="Path_6175" data-name="Path 6175" d="M557.216,546.1h.015v-32.86H508.308l-52.523-30.323c-8.1-4.678-20.361-5.186-27.378-1.134l-54.488,31.458H328.06v-2.265h48.947L431.5,479.514c7.017-4.052,19.275-3.543,27.378,1.134L511.4,510.971H560.32v32.86H560.3c.2,2.743-1.329,5.389-4.7,7.336l-.556.321A6.891,6.891,0,0,0,557.216,546.1Z" transform="translate(-328.06 -443.918)" fill="#dee2f3"/>
          <path id="Path_6176" data-name="Path 6176" d="M456.889,579.791l98.7-56.983c7.017-4.052,6.138-11.128-1.966-15.807l-94.763-54.712c-8.1-4.678-20.361-5.186-27.378-1.134l-98.7,56.983c-7.017,4.052-6.136,11.129,1.966,15.807l94.763,54.712C437.612,583.334,449.87,583.843,456.889,579.791Z" transform="translate(-328.043 -448.419)" fill="#dee2f3"/>
          <path id="Path_6177" data-name="Path 6177" d="M430.64,508.136l98.7-56.983c3.634-2.1,8.675-2.963,13.815-2.67a22.918,22.918,0,0,0-9.953,2.67l-98.7,56.983c-7.018,4.052-6.138,11.129,1.965,15.807l94.763,54.712a31.23,31.23,0,0,0,13.561,3.8,32.217,32.217,0,0,1-17.423-3.8l-94.763-54.712C424.5,519.266,423.623,512.188,430.64,508.136Z" transform="translate(-425.903 -448.418)" fill="#dee2f3"/>
          <path id="Path_6178" data-name="Path 6178" d="M440.845,563.987a18.915,18.915,0,0,0,9.271-2.133L523.6,519.431c2.546-1.47,3.946-3.546,3.946-5.842,0-2.709-1.971-5.4-5.41-7.387l-70.553-40.733c-6.255-3.61-15.775-3.992-21.226-.845l-73.479,42.425c-2.546,1.47-3.95,3.544-3.95,5.841,0,2.71,1.974,5.4,5.413,7.387l70.55,40.732A24.551,24.551,0,0,0,440.845,563.987Zm-1.217-99.834a22.847,22.847,0,0,1,11.11,2.776l70.553,40.734c2.9,1.675,4.567,3.836,4.567,5.925,0,1.669-1.1,3.225-3.1,4.381l-73.481,42.424c-4.984,2.877-13.747,2.5-19.539-.845l-70.55-40.732c-2.9-1.677-4.569-3.837-4.569-5.927,0-1.668,1.1-3.223,3.105-4.381L431.2,466.084A17.2,17.2,0,0,1,439.629,464.153Z" transform="translate(-324.096 -446.186)" fill="#dee2f3"/>
          <path id="Path_6179" data-name="Path 6179" d="M339.42,579.791l98.7-56.983c7.017-4.052,6.138-11.128-1.966-15.807l-94.763-54.712a31.131,31.131,0,0,0-13.345-3.789,32.287,32.287,0,0,1,17.772,3.789L440.578,507c8.1,4.679,8.983,11.755,1.966,15.807l-98.7,56.983c-3.686,2.129-8.818,2.986-14.033,2.655A22.66,22.66,0,0,0,339.42,579.791Z" transform="translate(-215.002 -448.419)" fill="#dee2f3"/>
          <g id="Group_1041" data-name="Group 1041" transform="translate(53.496 30.886)">
            <path id="Path_6180" data-name="Path 6180" d="M443.708,545.935,496.945,515.2c3.784-2.185,3.31-6-1.06-8.526l-51.114-29.511c-4.371-2.523-10.982-2.8-14.768-.612l-53.236,30.736c-3.786,2.185-3.31,6,1.06,8.526l51.113,29.511C433.311,547.847,439.923,548.12,443.708,545.935Z" transform="translate(-374.212 -475.075)" fill="#dee2f3"/>
          </g>
        </g>
        <g id="Group_1045" data-name="Group 1045">
          <path id="Path_6181" data-name="Path 6181" d="M328.06,471.909h48.947L431.5,440.45c7.017-4.052,19.275-3.543,27.378,1.134L511.4,471.909H560.32v32.859H560.3c.2,2.743-1.329,5.389-4.7,7.336l-98.7,56.983c-7.018,4.052-19.275,3.543-27.379-1.134L334.763,513.24c-4.21-2.431-6.451-5.507-6.667-8.473h-.036Z" transform="translate(-328.06 -404.854)" fill="#dee2f3"/>
          <path id="Path_6182" data-name="Path 6182" d="M557.216,507.032h.015v-32.86H508.308l-52.523-30.323c-8.1-4.678-20.361-5.186-27.378-1.134l-54.488,31.458H328.06v-2.265h48.947L431.5,440.45c7.017-4.052,19.275-3.543,27.378,1.134L511.4,471.907H560.32v32.86H560.3c.2,2.743-1.329,5.389-4.7,7.336l-.556.321A6.891,6.891,0,0,0,557.216,507.032Z" transform="translate(-328.06 -404.854)" fill="#dee2f3"/>
          <path id="Path_6183" data-name="Path 6183" d="M456.889,540.727l98.7-56.983c7.017-4.052,6.138-11.128-1.966-15.807l-94.763-54.712c-8.1-4.678-20.361-5.186-27.378-1.134l-98.7,56.983c-7.017,4.052-6.136,11.129,1.966,15.807l94.763,54.712C437.612,544.27,449.87,544.779,456.889,540.727Z" transform="translate(-328.043 -409.355)" fill="#dee2f3"/>
          <path id="Path_6184" data-name="Path 6184" d="M430.64,469.072l98.7-56.983c3.634-2.1,8.675-2.963,13.815-2.67a22.916,22.916,0,0,0-9.953,2.67l-98.7,56.983c-7.018,4.052-6.138,11.129,1.965,15.807l94.763,54.712a31.227,31.227,0,0,0,13.561,3.8,32.217,32.217,0,0,1-17.423-3.8l-94.763-54.712C424.5,480.2,423.623,473.124,430.64,469.072Z" transform="translate(-425.903 -409.354)" fill="#dee2f3"/>
          <path id="Path_6185" data-name="Path 6185" d="M440.845,524.924a18.907,18.907,0,0,0,9.271-2.133L523.6,480.366c2.546-1.47,3.946-3.543,3.946-5.84,0-2.709-1.971-5.4-5.41-7.388l-70.553-40.732c-6.257-3.612-15.779-3.991-21.226-.846l-73.479,42.424c-2.548,1.47-3.95,3.546-3.95,5.843,0,2.709,1.974,5.4,5.413,7.387l70.55,40.732A24.565,24.565,0,0,0,440.845,524.924Zm8.427-3.593c-4.984,2.875-13.747,2.5-19.539-.845l-70.55-40.733c-2.9-1.677-4.569-3.837-4.569-5.926,0-1.669,1.1-3.226,3.105-4.382L431.2,427.021c4.986-2.876,13.746-2.5,19.539.845L521.291,468.6c2.9,1.677,4.567,3.836,4.567,5.928,0,1.667-1.1,3.223-3.1,4.38Z" transform="translate(-324.096 -407.122)" fill="#dee2f3"/>
          <path id="Path_6186" data-name="Path 6186" d="M342.048,540.727l95.863-56.983c6.816-4.052,5.96-11.128-1.909-15.807l-92.041-54.712A29.586,29.586,0,0,0,331,409.436a30.609,30.609,0,0,1,17.261,3.789L440.3,467.937c7.87,4.679,8.725,11.755,1.91,15.807L346.35,540.727c-3.58,2.129-8.565,2.986-13.631,2.655A21.514,21.514,0,0,0,342.048,540.727Z" transform="translate(-217.959 -409.355)" fill="#dee2f3"/>
          <g id="Group_1043" data-name="Group 1043" transform="translate(53.496 30.886)">
            <path id="Path_6187" data-name="Path 6187" d="M443.708,506.871l53.237-30.736c3.784-2.185,3.31-6-1.06-8.526L444.771,438.1c-4.371-2.523-10.982-2.8-14.768-.612l-53.236,30.736c-3.786,2.185-3.31,6,1.06,8.526l51.113,29.511C433.311,508.783,439.923,509.056,443.708,506.871Z" transform="translate(-374.212 -436.011)" fill="#dee2f3"/>
          </g>
          <g id="Group_1044" data-name="Group 1044" transform="translate(131.834 93.573)">
            <path id="Path_6188" data-name="Path 6188" d="M341.675,546.206l83.488-48.29a3.314,3.314,0,0,0,1.382-2.643v-3.95c0-1.018-.619-1.487-1.382-1.046l-83.488,48.292a3.311,3.311,0,0,0-1.383,2.642v3.951C340.292,546.18,340.912,546.648,341.675,546.206Z" transform="translate(-340.292 -490.111)" fill="#dd131f"/>
            <path id="Path_6189" data-name="Path 6189" d="M423.336,496.871a3.311,3.311,0,0,0,1.383-2.642v-3.7l.445-.257c.764-.44,1.382.028,1.382,1.046v3.95a3.314,3.314,0,0,1-1.382,2.643l-83.488,48.29c-.764.441-1.383-.027-1.383-1.045v-.256Z" transform="translate(-340.292 -490.111)" fill="#dd131f"/>
          </g>
        </g>
      </g>
      <path id="Path_6190" data-name="Path 6190" d="M456.889,540.727l98.7-56.983c7.017-4.052,6.138-11.128-1.966-15.807l-94.763-54.712c-8.1-4.678-20.361-5.186-27.378-1.134l-98.7,56.983c-7.017,4.052-6.136,11.129,1.966,15.807l94.763,54.712C437.612,544.27,449.87,544.779,456.889,540.727Z" transform="translate(-328.043 -409.355)" fill="#dd131f"/>
    </g>
    <g id="Group_1059" data-name="Group 1059" transform="translate(777.745 0)">
      <g id="Group_1058" data-name="Group 1058" transform="translate(0)">
        <g id="Group_1049" data-name="Group 1049" transform="translate(0 135.791)" opacity="0.4">
          <path id="Path_6191" data-name="Path 6191" d="M104.175,589.1h48.947l54.488-31.458c7.017-4.052,19.275-3.543,27.378,1.134L287.512,589.1h48.923v32.86h-.015c.2,2.743-1.33,5.389-4.7,7.336l-98.7,56.983c-7.018,4.052-19.275,3.543-27.379-1.134l-94.763-54.712c-4.21-2.431-6.451-5.507-6.667-8.472h-.036Z" transform="translate(-104.175 -522.046)" fill="#dee2f3"/>
          <path id="Path_6192" data-name="Path 6192" d="M333.331,624.225h.015v-32.86H284.423L231.9,561.041c-8.1-4.678-20.361-5.186-27.379-1.134l-54.488,31.458H104.175V589.1h48.947l54.488-31.458c7.017-4.052,19.275-3.543,27.378,1.134L287.512,589.1h48.923v32.86h-.015c.2,2.743-1.33,5.388-4.7,7.336l-.555.32A6.886,6.886,0,0,0,333.331,624.225Z" transform="translate(-104.175 -522.046)" fill="#dee2f3"/>
          <path id="Path_6193" data-name="Path 6193" d="M233,657.919l98.7-56.983c7.017-4.052,6.138-11.128-1.965-15.807l-94.764-54.712c-8.1-4.678-20.361-5.186-27.378-1.134l-98.7,56.983c-7.018,4.052-6.138,11.128,1.965,15.807l94.763,54.712C213.729,661.462,225.986,661.971,233,657.919Z" transform="translate(-104.159 -526.547)" fill="#dee2f3"/>
          <path id="Path_6194" data-name="Path 6194" d="M206.756,586.264l98.7-56.983c3.635-2.1,8.675-2.963,13.816-2.67a22.9,22.9,0,0,0-9.954,2.67l-98.7,56.983c-7.017,4.052-6.138,11.129,1.965,15.807l94.764,54.712a31.219,31.219,0,0,0,13.562,3.8,32.233,32.233,0,0,1-17.425-3.8l-94.763-54.712C200.618,597.394,199.738,590.316,206.756,586.264Z" transform="translate(-202.018 -526.546)" fill="#dee2f3"/>
          <path id="Path_6195" data-name="Path 6195" d="M216.963,642.115a18.906,18.906,0,0,0,9.271-2.132l73.48-42.425c2.546-1.468,3.949-3.543,3.949-5.84,0-2.709-1.973-5.4-5.412-7.389L227.7,543.6c-6.251-3.609-15.772-3.994-21.226-.846l-73.482,42.423c-2.546,1.47-3.95,3.546-3.95,5.842,0,2.709,1.974,5.4,5.413,7.389l70.553,40.731A24.569,24.569,0,0,0,216.963,642.115Zm8.427-3.592c-4.988,2.875-13.749,2.495-19.539-.846L135.3,596.946c-2.9-1.678-4.569-3.839-4.569-5.929,0-1.667,1.1-3.224,3.105-4.381l73.482-42.424c4.988-2.874,13.749-2.494,19.539.846l70.55,40.732c2.9,1.677,4.569,3.839,4.569,5.928,0,1.667-1.1,3.225-3.107,4.379Z" transform="translate(-100.212 -524.314)" fill="#dee2f3"/>
          <path id="Path_6196" data-name="Path 6196" d="M115.536,657.919l98.7-56.983c7.018-4.052,6.138-11.128-1.965-15.807L117.5,530.417a31.129,31.129,0,0,0-13.345-3.789,32.281,32.281,0,0,1,17.772,3.789L216.7,585.129c8.1,4.679,8.982,11.755,1.965,15.807l-98.7,56.983c-3.686,2.128-8.818,2.986-14.034,2.655A22.651,22.651,0,0,0,115.536,657.919Z" transform="translate(8.882 -526.547)" fill="#dee2f3"/>
          <g id="Group_1048" data-name="Group 1048" transform="translate(53.496 30.886)">
            <path id="Path_6197" data-name="Path 6197" d="M219.824,624.063l53.237-30.736c3.786-2.185,3.31-6-1.06-8.526L220.887,555.29c-4.371-2.523-10.982-2.8-14.768-.612l-53.236,30.736c-3.785,2.185-3.31,6,1.06,8.526l51.114,29.511C209.428,625.975,216.04,626.248,219.824,624.063Z" transform="translate(-150.328 -553.203)" fill="#dee2f3"/>
          </g>
        </g>
        <g id="Group_1051" data-name="Group 1051" transform="translate(0 90.528)" opacity="0.5">
          <path id="Path_6198" data-name="Path 6198" d="M104.175,550.037h48.947l54.488-31.459c7.017-4.052,19.275-3.543,27.378,1.134l52.523,30.325h48.923V582.9h-.015c.2,2.743-1.33,5.389-4.7,7.336l-98.7,56.983c-7.018,4.052-19.275,3.543-27.379-1.134l-94.763-54.712c-4.21-2.431-6.451-5.507-6.667-8.472h-.036Z" transform="translate(-104.175 -482.982)" fill="#dee2f3"/>
          <path id="Path_6199" data-name="Path 6199" d="M333.331,585.161h.015V552.3H284.423L231.9,521.977c-8.1-4.678-20.361-5.186-27.379-1.134L150.033,552.3H104.175v-2.265h48.947l54.488-31.458c7.017-4.052,19.275-3.543,27.378,1.134l52.523,30.323h48.923V582.9h-.015c.2,2.743-1.33,5.389-4.7,7.336l-.555.32A6.885,6.885,0,0,0,333.331,585.161Z" transform="translate(-104.175 -482.982)" fill="#dee2f3"/>
          <path id="Path_6200" data-name="Path 6200" d="M233,618.855l98.7-56.983c7.017-4.052,6.138-11.128-1.965-15.807l-94.764-54.712c-8.1-4.678-20.361-5.186-27.378-1.134L108.9,547.2c-7.018,4.052-6.138,11.13,1.965,15.807l94.763,54.712C213.729,622.4,225.986,622.907,233,618.855Z" transform="translate(-104.159 -487.483)" fill="#dee2f3"/>
          <path id="Path_6201" data-name="Path 6201" d="M206.756,547.2l98.7-56.983c3.635-2.1,8.675-2.963,13.816-2.67a22.9,22.9,0,0,0-9.954,2.67l-98.7,56.983c-7.017,4.052-6.138,11.129,1.965,15.807l94.764,54.712a31.219,31.219,0,0,0,13.562,3.8,32.223,32.223,0,0,1-17.425-3.8l-94.763-54.712C200.618,558.33,199.738,551.252,206.756,547.2Z" transform="translate(-202.018 -487.482)" fill="#dee2f3"/>
          <path id="Path_6202" data-name="Path 6202" d="M216.96,603.052a18.915,18.915,0,0,0,9.273-2.134l73.48-42.424c2.546-1.468,3.949-3.542,3.949-5.839,0-2.709-1.973-5.4-5.412-7.389L227.7,504.531c-6.257-3.612-15.784-3.986-21.226-.844l-73.482,42.424c-2.546,1.47-3.95,3.546-3.95,5.842,0,2.709,1.974,5.4,5.413,7.386l70.553,40.734A24.566,24.566,0,0,0,216.96,603.052Zm-1.214-99.834a22.846,22.846,0,0,1,11.11,2.775l70.55,40.733c2.9,1.678,4.569,3.839,4.569,5.929,0,1.667-1.1,3.224-3.107,4.379L225.39,599.457c-4.984,2.874-13.749,2.5-19.539-.845L135.3,557.88c-2.9-1.675-4.569-3.836-4.569-5.926,0-1.669,1.1-3.225,3.105-4.382l73.482-42.423A17.19,17.19,0,0,1,215.746,503.217Z" transform="translate(-100.212 -485.25)" fill="#dee2f3"/>
          <path id="Path_6203" data-name="Path 6203" d="M115.536,618.855l98.7-56.983c7.018-4.052,6.138-11.128-1.965-15.807L117.5,491.353a31.131,31.131,0,0,0-13.345-3.789,32.284,32.284,0,0,1,17.772,3.789L216.7,546.065c8.1,4.679,8.982,11.755,1.965,15.807l-98.7,56.983c-3.686,2.129-8.818,2.986-14.034,2.655A22.651,22.651,0,0,0,115.536,618.855Z" transform="translate(8.882 -487.483)" fill="#dee2f3"/>
          <g id="Group_1050" data-name="Group 1050" transform="translate(53.496 30.886)">
            <path id="Path_6204" data-name="Path 6204" d="M219.824,585l53.237-30.736c3.786-2.185,3.31-6-1.06-8.526l-51.114-29.511c-4.371-2.523-10.982-2.8-14.768-.612L152.883,546.35c-3.785,2.185-3.31,6,1.06,8.526l51.114,29.511C209.428,586.911,216.04,587.184,219.824,585Z" transform="translate(-150.328 -514.139)" fill="#dee2f3"/>
          </g>
        </g>
        <g id="Group_1053" data-name="Group 1053" transform="translate(0 45.264)" opacity="0.7">
          <path id="Path_6205" data-name="Path 6205" d="M104.175,510.973h48.947l54.488-31.459c7.017-4.052,19.275-3.543,27.378,1.134l52.523,30.325h48.923v32.859h-.015c.2,2.743-1.33,5.389-4.7,7.336l-98.7,56.983c-7.018,4.052-19.275,3.543-27.379-1.134L110.878,552.3c-4.21-2.431-6.451-5.507-6.667-8.473h-.036Z" transform="translate(-104.175 -443.918)" fill="#dee2f3"/>
          <path id="Path_6206" data-name="Path 6206" d="M333.331,546.1h.015v-32.86H284.423L231.9,482.913c-8.1-4.678-20.361-5.186-27.379-1.134l-54.488,31.458H104.175v-2.265h48.947l54.488-31.458c7.017-4.052,19.275-3.543,27.378,1.134l52.523,30.323h48.923v32.86h-.015c.2,2.743-1.33,5.389-4.7,7.336l-.555.321A6.89,6.89,0,0,0,333.331,546.1Z" transform="translate(-104.175 -443.918)" fill="#dee2f3"/>
          <path id="Path_6207" data-name="Path 6207" d="M233,579.791l98.7-56.983c7.017-4.052,6.138-11.128-1.965-15.807l-94.764-54.712c-8.1-4.678-20.361-5.186-27.378-1.134l-98.7,56.983c-7.018,4.052-6.138,11.129,1.965,15.807l94.763,54.712C213.729,583.334,225.986,583.843,233,579.791Z" transform="translate(-104.159 -448.419)" fill="#dee2f3"/>
          <path id="Path_6208" data-name="Path 6208" d="M206.756,508.136l98.7-56.983c3.635-2.1,8.675-2.963,13.816-2.67a22.922,22.922,0,0,0-9.954,2.67l-98.7,56.983c-7.017,4.052-6.138,11.129,1.965,15.807l94.764,54.712a31.221,31.221,0,0,0,13.562,3.8,32.224,32.224,0,0,1-17.425-3.8l-94.763-54.712C200.618,519.266,199.738,512.188,206.756,508.136Z" transform="translate(-202.018 -448.418)" fill="#dee2f3"/>
          <path id="Path_6209" data-name="Path 6209" d="M216.963,563.988a18.9,18.9,0,0,0,9.271-2.134l73.48-42.423c2.546-1.47,3.949-3.546,3.949-5.842,0-2.709-1.973-5.4-5.412-7.387L227.7,465.469c-6.251-3.611-15.772-3.994-21.226-.845l-73.482,42.425c-2.546,1.47-3.95,3.544-3.95,5.841,0,2.709,1.974,5.4,5.413,7.387l70.553,40.733A24.6,24.6,0,0,0,216.963,563.988Zm-1.217-99.835a22.847,22.847,0,0,1,11.11,2.776l70.55,40.734c2.9,1.678,4.569,3.836,4.569,5.926,0,1.67-1.1,3.225-3.107,4.381L225.39,560.394c-4.984,2.879-13.746,2.5-19.539-.844L135.3,518.817c-2.9-1.678-4.569-3.837-4.569-5.927,0-1.67,1.1-3.223,3.105-4.381l73.482-42.425A17.2,17.2,0,0,1,215.746,464.153Z" transform="translate(-100.212 -446.186)" fill="#dee2f3"/>
          <path id="Path_6210" data-name="Path 6210" d="M115.536,579.791l98.7-56.983c7.018-4.052,6.138-11.128-1.965-15.807L117.5,452.289a31.13,31.13,0,0,0-13.345-3.789,32.283,32.283,0,0,1,17.772,3.789L216.7,507c8.1,4.679,8.982,11.755,1.965,15.807l-98.7,56.983c-3.686,2.129-8.818,2.986-14.034,2.655A22.651,22.651,0,0,0,115.536,579.791Z" transform="translate(8.882 -448.419)" fill="#dee2f3"/>
          <g id="Group_1052" data-name="Group 1052" transform="translate(53.496 30.886)">
            <path id="Path_6211" data-name="Path 6211" d="M219.824,545.935,273.061,515.2c3.786-2.185,3.31-6-1.06-8.526l-51.114-29.511c-4.371-2.523-10.982-2.8-14.768-.612l-53.236,30.736c-3.785,2.185-3.31,6,1.06,8.526l51.114,29.511C209.428,547.847,216.04,548.12,219.824,545.935Z" transform="translate(-150.328 -475.075)" fill="#dee2f3"/>
          </g>
        </g>
        <g id="Group_1057" data-name="Group 1057">
          <path id="Path_6212" data-name="Path 6212" d="M104.175,471.909h48.947l54.488-31.459c7.017-4.052,19.275-3.543,27.378,1.134l52.523,30.325h48.923v32.859h-.015c.2,2.743-1.33,5.389-4.7,7.336l-98.7,56.983c-7.018,4.052-19.275,3.543-27.379-1.134L110.878,513.24c-4.21-2.431-6.451-5.507-6.667-8.473h-.036Z" transform="translate(-104.175 -404.854)" fill="#dee2f3"/>
          <path id="Path_6213" data-name="Path 6213" d="M333.331,507.032h.015v-32.86H284.423L231.9,443.849c-8.1-4.678-20.361-5.186-27.379-1.134l-54.488,31.458H104.175v-2.265h48.947l54.488-31.458c7.017-4.052,19.275-3.543,27.378,1.134l52.523,30.323h48.923v32.86h-.015c.2,2.743-1.33,5.389-4.7,7.336l-.555.321A6.889,6.889,0,0,0,333.331,507.032Z" transform="translate(-104.175 -404.854)" fill="#dee2f3"/>
          <path id="Path_6214" data-name="Path 6214" d="M233,540.727l98.7-56.983c7.017-4.052,6.138-11.128-1.965-15.807l-94.764-54.712c-8.1-4.678-20.361-5.186-27.378-1.134l-98.7,56.983c-7.018,4.052-6.138,11.129,1.965,15.807l94.763,54.712C213.729,544.27,225.986,544.779,233,540.727Z" transform="translate(-104.159 -409.355)" fill="#dee2f3"/>
          <path id="Path_6215" data-name="Path 6215" d="M206.756,469.072l98.7-56.983c3.635-2.1,8.675-2.963,13.816-2.67a22.92,22.92,0,0,0-9.954,2.67l-98.7,56.983c-7.017,4.052-6.138,11.129,1.965,15.807l94.764,54.712a31.218,31.218,0,0,0,13.562,3.8,32.223,32.223,0,0,1-17.425-3.8l-94.763-54.712C200.618,480.2,199.738,473.124,206.756,469.072Z" transform="translate(-202.018 -409.354)" fill="#dee2f3"/>
          <path id="Path_6216" data-name="Path 6216" d="M216.916,524.55a18.56,18.56,0,0,0,9.1-2.093l73.48-42.426c2.437-1.408,3.782-3.379,3.782-5.55,0-2.586-1.912-5.174-5.245-7.1l-70.55-40.732c-6.162-3.558-15.537-3.937-20.89-.846l-73.482,42.424c-2.44,1.408-3.782,3.38-3.782,5.553,0,2.585,1.912,5.174,5.245,7.1l70.553,40.732A24.248,24.248,0,0,0,216.916,524.55ZM215.7,424.713a23.172,23.172,0,0,1,11.278,2.818l70.55,40.732c3.009,1.738,4.737,4,4.737,6.218,0,1.794-1.164,3.451-3.274,4.67l-73.478,42.424c-5.07,2.93-13.988,2.554-19.875-.846L135.083,480c-3.009-1.738-4.737-4-4.737-6.216,0-1.794,1.164-3.453,3.275-4.672L207.1,426.686A17.533,17.533,0,0,1,215.7,424.713Z" transform="translate(-100.165 -407.077)" fill="#dee2f3"/>
          <path id="Path_6217" data-name="Path 6217" d="M115.536,540.727l98.7-56.983c7.018-4.052,6.138-11.128-1.965-15.807L117.5,413.225a31.13,31.13,0,0,0-13.345-3.789,32.282,32.282,0,0,1,17.772,3.789L216.7,467.937c8.1,4.679,8.982,11.755,1.965,15.807l-98.7,56.983c-3.686,2.129-8.818,2.986-14.034,2.655A22.65,22.65,0,0,0,115.536,540.727Z" transform="translate(8.882 -409.355)" fill="#dee2f3"/>
          <g id="Group_1054" data-name="Group 1054" transform="translate(53.496 30.886)">
            <path id="Path_6218" data-name="Path 6218" d="M219.824,506.871l53.237-30.736c3.786-2.185,3.31-6-1.06-8.526L220.887,438.1c-4.371-2.523-10.982-2.8-14.768-.612l-53.236,30.736c-3.785,2.185-3.31,6,1.06,8.526l51.114,29.511C209.428,508.783,216.04,509.056,219.824,506.871Z" transform="translate(-150.328 -436.011)" fill="#dee2f3"/>
          </g>
          <g id="Group_1055" data-name="Group 1055" transform="translate(13.779 93.573)">
            <path id="Path_6219" data-name="Path 6219" d="M303.164,546.206l-83.49-48.29a3.314,3.314,0,0,1-1.382-2.643v-3.95c0-1.018.619-1.487,1.382-1.046l83.49,48.292a3.309,3.309,0,0,1,1.382,2.642v3.951C304.546,546.18,303.928,546.648,303.164,546.206Z" transform="translate(-218.292 -490.111)" fill="#dd131f"/>
            <path id="Path_6220" data-name="Path 6220" d="M221.5,496.871a3.311,3.311,0,0,1-1.383-2.642v-3.7l-.445-.257c-.764-.44-1.382.028-1.382,1.046v3.95a3.314,3.314,0,0,0,1.382,2.643l83.49,48.29c.764.441,1.382-.027,1.382-1.045v-.256Z" transform="translate(-218.292 -490.111)" fill="#dee2f3"/>
          </g>
          <g id="Group_1056" data-name="Group 1056" transform="translate(131.641 93.573)">
            <path id="Path_6221" data-name="Path 6221" d="M117.956,546.206l83.49-48.29a3.314,3.314,0,0,0,1.382-2.643v-3.95c0-1.018-.619-1.487-1.382-1.046l-83.49,48.292a3.309,3.309,0,0,0-1.382,2.642v3.951C116.574,546.18,117.193,546.648,117.956,546.206Z" transform="translate(-116.574 -490.111)" fill="#dd131f"/>
            <path id="Path_6222" data-name="Path 6222" d="M199.617,496.871A3.311,3.311,0,0,0,201,494.229v-3.7l.445-.257c.764-.44,1.382.028,1.382,1.046v3.95a3.314,3.314,0,0,1-1.382,2.643l-83.49,48.29c-.764.441-1.382-.027-1.382-1.045v-.256Z" transform="translate(-116.574 -490.111)" fill="#dee2f3"/>
          </g>
        </g>
      </g>
      <path id="Path_6223" data-name="Path 6223" d="M233,540.727l98.7-56.983c7.017-4.052,6.138-11.128-1.965-15.807l-94.764-54.712c-8.1-4.678-20.361-5.186-27.378-1.134l-98.7,56.983c-7.018,4.052-6.138,11.129,1.965,15.807l94.763,54.712C213.729,544.27,225.986,544.779,233,540.727Z" transform="translate(-104.159 -409.355)" fill="#dd131f"/>
      <path id="Path_6224" data-name="Path 6224" d="M221.408,510.94l58.7-33.89c4.174-2.41,3.65-6.62-1.169-9.4l-56.36-32.539c-4.819-2.782-12.11-3.085-16.282-.676l-58.7,33.891c-4.174,2.409-3.65,6.619,1.169,9.4l56.36,32.539C209.945,513.046,217.234,513.349,221.408,510.94Z" transform="translate(-97.712 -405.633)" fill="#dee2f3"/>
      <path id="Path_6225" data-name="Path 6225" d="M280.556,476.739a11.767,11.767,0,0,0-1.593-1.1L222.6,443.1c-4.819-2.782-12.109-3.084-16.282-.674l-58.7,33.89c-.165.1-.275.209-.425.309-3.281-2.7-3.23-6.194.425-8.3l58.7-33.891c4.174-2.409,11.463-2.106,16.282.676l56.36,32.539C283.592,470.321,284.211,474.293,280.556,476.739Z" transform="translate(-97.736 -405.633)" fill="#fff"/>
    </g>
  </g>
</svg>
