<svg id="Layer_1" data-name="Layer 1" xmlns="http://www.w3.org/2000/svg" xmlns:xlink="http://www.w3.org/1999/xlink" viewBox="0 0 1080 1080"><defs><style>.cls-1{fill:#e5e4e4;}.cls-2,.cls-5{fill:#e62c2b;}.cls-3{fill:#fff;}.cls-4{fill:#171930;}.cls-5{opacity:0.4;}.cls-6{fill:url(#Áåçûìÿííûé_ãðàäèåíò_2);}.cls-7{fill:#eaeaea;}.cls-8{fill:#f8c0b0;}.cls-9{fill:#eb9d93;}</style><radialGradient id="Áåçûìÿííûé_ãðàäèåíò_2" cx="-12.32" cy="520.9" r="132.42" gradientUnits="userSpaceOnUse"><stop offset="0" stop-color="#39bde5"/><stop offset="0.1" stop-color="#34b3df"/><stop offset="0.27" stop-color="#269acf"/><stop offset="0.45" stop-color="#1378b9"/><stop offset="1" stop-color="#171930"/></radialGradient></defs><path class="cls-1" d="M710.47,361.26a2.61,2.61,0,0,1-2.61-2.61V251.21a2.62,2.62,0,0,1,5.23,0V358.65A2.61,2.61,0,0,1,710.47,361.26Z"/><rect class="cls-1" x="701.14" y="244.46" width="18.67" height="40.28"/><path class="cls-1" d="M717.07,288.55a14.59,14.59,0,0,1-13.2,0c-3.64-2.1-3.64-5.51,0-7.62a14.62,14.62,0,0,1,13.2,0C720.72,283,720.72,286.44,717.07,288.55Z"/><rect class="cls-1" x="695.35" y="188.32" width="30.25" height="63.17"/><path class="cls-1" d="M701.14,251.08v13.63a24.09,24.09,0,0,0,18.67,0V251.08A24.18,24.18,0,0,0,701.14,251.08Z"/><path class="cls-1" d="M721.17,257.67c-5.91,3.41-15.48,3.41-21.39,0s-5.91-8.94,0-12.35,15.48-3.41,21.39,0S727.07,254.26,721.17,257.67Z"/><path class="cls-1" d="M815.25,420.21a2.61,2.61,0,0,1-2.62-2.61V310.17a2.62,2.62,0,1,1,5.23,0V417.6A2.61,2.61,0,0,1,815.25,420.21Z"/><rect class="cls-1" x="805.91" y="303.41" width="18.67" height="40.28"/><path class="cls-1" d="M821.85,347.5a14.62,14.62,0,0,1-13.2,0c-3.65-2.11-3.65-5.52,0-7.62a14.55,14.55,0,0,1,13.2,0C825.49,342,825.49,345.39,821.85,347.5Z"/><rect class="cls-1" x="800.12" y="247.27" width="30.25" height="63.17"/><path class="cls-1" d="M805.91,310v13.63a24.18,24.18,0,0,0,18.67,0V310A24.09,24.09,0,0,0,805.91,310Z"/><path class="cls-1" d="M825.94,316.62c-5.9,3.41-15.48,3.41-21.39,0s-5.9-8.94,0-12.35,15.48-3.41,21.39,0S831.85,313.21,825.94,316.62Z"/><polygon class="cls-1" points="917.09 352.09 957.65 328.21 919.02 280 908.87 296.59 917.09 352.09"/><path class="cls-1" d="M622.63,87.53,687.35,50.3s-2.43,37.16-2.43,37.23-37.19,11.52-37.19,11.52Z"/><path class="cls-1" d="M928.36,230.88a40.7,40.7,0,0,0-14-5.19c-6.53-34.3-30.39-70.72-58.84-87.15-8.56-4.94-16.7-7.58-24.08-8.15-3.89-41.56-32.79-88.81-67.89-109.07-18.34-10.59-35-11.84-47.25-5.36v0l-.6.34-.93.54L676.61,39.35l12.68,10c-11.38,5-18.57,17.74-18.57,36.61,0,34.81,24.43,77.13,54.57,94.53l203.07,145c22.64,13.07,41,2.47,41-23.66S951,244,928.36,230.88Z"/><path class="cls-1" d="M672.6,70.66l87.6-51.18c-17-8.87-32.37-9.6-43.9-3.52v0l-.6.34-.93.54L676.61,39.35l12.68,10C681.34,52.85,675.44,60.14,672.6,70.66Z"/><path class="cls-1" d="M834.37,221.22l63.91-37.5c-11-19-26-35.53-42.76-45.18q-3.33-1.9-6.55-3.36l-81.29,47.54Z"/><path class="cls-2" d="M694.62,43.54,723.1,60l52.17-30.72a103.72,103.72,0,0,0-11.72-7.94,73.35,73.35,0,0,0-18.23-7.66Z"/><path class="cls-2" d="M891.24,172.68l-51,30.06L858,222.53l46.3-27.34A148.68,148.68,0,0,0,891.24,172.68Z"/><path class="cls-2" d="M888.29,254.48a40.83,40.83,0,0,0-14-5.19c-6.53-34.29-30.39-70.71-58.84-87.14-8.56-4.94-16.7-7.58-24.08-8.15-3.89-41.57-32.79-88.81-67.89-109.08-37.75-21.79-68.35-4.12-68.35,39.46,0,1.48,0,3,.11,4.47-27.6-12.8-49.17,1.62-49.17,34.32,0,34.8,24.44,77.12,54.58,94.52L888.29,349.12c22.64,13.07,41,2.48,41-23.66S910.93,267.55,888.29,254.48Z"/><path class="cls-3" d="M655.24,88.85c-.07-1.5-.11-3-.11-4.47,0-.06,0-.12,0-.18-15.25-5.93-28.36-3.35-36.58,6.16C627.49,83,640.48,82,655.24,88.85Z"/><path class="cls-3" d="M891.63,251.23a41,41,0,0,0-14-5.19c-6.52-34.29-30.39-70.71-58.84-87.14-8.56-4.94-16.7-7.58-24.08-8.15-3.89-41.57-32.79-88.81-67.89-109.08-23.52-13.57-44.25-11.83-56.55,1.95,12.53-10.71,31.71-11.12,53.22,1.3,35.1,20.27,64,67.51,67.89,109.08,7.38.57,15.52,3.21,24.08,8.15,28.45,16.43,52.31,52.85,58.84,87.14a40.83,40.83,0,0,1,14,5.19c22.64,13.07,41,44.85,41,71,0,9.43-2.42,16.8-6.54,21.8,6.14-4.72,9.87-13.3,9.87-25.05C932.61,296.08,914.26,264.3,891.63,251.23Z"/><path class="cls-1" d="M650.43,99.23l17.11,7.93-.87-18.84c-.06-1.32-.1-2.64-.1-3.94,0-16.82,5.08-29,14.3-34.34s22.32-3.62,36.89,4.79c31.32,18.09,58.65,62.11,62.21,100.23l.9,9.61,9.62.74c5.91.45,12.38,2.69,19.24,6.65,24.88,14.36,47.3,47.74,53.32,79.37l1.51,7.92,8,1.24a29.63,29.63,0,0,1,10.05,3.8c19.12,11,35.26,39,35.26,61.07,0,8.26-2.29,14.32-6.28,16.63s-10.38,1.25-17.54-2.87L666.37,207.79c-26.48-15.29-48.85-54-48.85-84.62,0-12,3.53-21.14,9.71-25.09a16.59,16.59,0,0,1,9.07-2.42A34.17,34.17,0,0,1,650.43,99.23Z"/><polygon class="cls-1" points="764.04 241.9 770.05 238.89 764.14 234.41 764.04 241.9"/><polygon class="cls-1" points="746.01 160.78 751.84 157.83 751.95 160.88 746.01 160.78"/><polygon class="cls-1" points="781.17 222.94 787.26 219.88 775.55 208.74 781.17 222.94"/><path class="cls-1" d="M768.29,238.69,739.86,222a6,6,0,0,1-2.6-4.78l.09-32.92L771,204.08l-.1,32.91C770.91,238.78,769.74,239.54,768.29,238.69Z"/><path class="cls-1" d="M751.78,157.87l-30.71,19.76c-1.3.84-.25,4,1.73,5.13l31.36,18.47,31.36,18.47c2,1.16,3.05-.71,1.75-3.08l-30.49-55.8C755.46,158.41,753.1,157,751.78,157.87Z"/><path class="cls-2" d="M762.2,241.76,733.76,225a6.08,6.08,0,0,1-2.6-4.78l.09-32.92,33.66,19.83-.09,32.91C764.81,241.85,763.64,242.61,762.2,241.76Z"/><path class="cls-2" d="M745.68,160.94,715,180.7c-1.3.84-.25,4,1.73,5.13l31.36,18.47,31.36,18.47c2,1.16,3.05-.71,1.76-3.08l-30.5-55.8C749.37,161.48,747,160.09,745.68,160.94Z"/><path class="cls-2" d="M707.61,277.75c0,1.86-1.3,2.61-2.91,1.68a6.43,6.43,0,0,1-2.9-5c0-1.85,1.3-2.61,2.9-1.68A6.42,6.42,0,0,1,707.61,277.75Z"/><path class="cls-2" d="M812.63,337.56c0,1.86-1.3,2.61-2.91,1.68a6.42,6.42,0,0,1-2.9-5c0-1.85,1.3-2.6,2.9-1.68A6.42,6.42,0,0,1,812.63,337.56Z"/><path class="cls-2" d="M625,743.76l-133-75.86c-4.86-2.81-4.25-7.72,1.37-11l76.54-44.19c5.62-3.25,14.12-3.6,19-.79l133,75.86c4.86,2.81,4.25,7.71-1.37,11L644,743C638.34,746.21,629.84,746.56,625,743.76Z"/><path class="cls-1" d="M733.73,662.28h0V351.7L610.26,319.39l-22.74-13.13c-5.22-3-14.34-2.64-20.37.84l-21.21,12.25-65.86,0,19.5,299.81c-.15,2,1,4,3.5,5.46l123.21,93c5.22,3,14.34,2.64,20.37-.84l82.11-47.41C732.25,667.3,733.92,664.7,733.73,662.28Z"/><path class="cls-2" d="M578.07,304.24a23.47,23.47,0,0,0-10.92,2.86l-21.21,12.25-65.86,0V630.73c-.15,2,1,4,3.5,5.45l142.71,81.38a18.38,18.38,0,0,0,9.45,2l1.47-313.36Z"/><path class="cls-1" d="M627.6,718.2c4.5,1.93,11,1.82,16.28-.18V402.52H627.6Z"/><path class="cls-2" d="M626.29,406.26,483.58,324.88c-5.22-3-4.57-8.28,1.46-11.76l82.11-47.41c6-3.47,15.15-3.85,20.37-.84l142.71,81.38c5.22,3,4.57,8.28-1.46,11.75l-82.11,47.41C640.63,408.89,631.51,409.27,626.29,406.26Z"/><path class="cls-1" d="M728.77,352.23l-82.11,47.41c-6,3.48-15.15,3.86-20.37.84L483.58,319.11A8,8,0,0,1,481,316.8c-1.79,2.88-1,6,2.61,8.08l142.71,81.38c5.22,3,14.34,2.63,20.37-.85L728.77,358c4.68-2.7,6.11-6.48,4.07-9.44A11.46,11.46,0,0,1,728.77,352.23Z"/><path class="cls-4" d="M630.33,373.28l-95-55.08c-2.44-1.41-2.13-3.87.69-5.5l38.42-22.19c2.82-1.63,7.09-1.8,9.53-.39l95,55.08c2.44,1.41,2.13,3.87-.69,5.5l-38.42,22.18C637,374.51,632.77,374.69,630.33,373.28Z"/><path class="cls-2" d="M579,320.67l-5.5-3.18c-.34-.19-.3-.53.09-.76l5.32-3.07a1.47,1.47,0,0,1,1.32-.05l5.5,3.18c.34.19.3.53-.09.76l-5.32,3.07A1.47,1.47,0,0,1,579,320.67Z"/><path class="cls-2" d="M597.43,331.25l-5.51-3.18c-.34-.2-.29-.54.1-.76l5.31-3.07a1.47,1.47,0,0,1,1.32-.06l5.51,3.18c.33.2.29.54-.1.76l-5.31,3.07A1.47,1.47,0,0,1,597.43,331.25Z"/><path class="cls-2" d="M615.82,341.83l-5.5-3.18c-.34-.2-.3-.54.09-.76l5.32-3.07a1.47,1.47,0,0,1,1.32-.06l5.5,3.18c.34.2.3.54-.09.76l-5.32,3.07A1.47,1.47,0,0,1,615.82,341.83Z"/><path class="cls-2" d="M634.22,352.4l-5.51-3.18c-.34-.19-.3-.53.09-.76l5.32-3.07a1.47,1.47,0,0,1,1.32-.05l5.51,3.18c.33.19.29.53-.1.76l-5.32,3.07A1.45,1.45,0,0,1,634.22,352.4Z"/><path class="cls-1" d="M535.31,318.2l.12.06a5.16,5.16,0,0,1,.57-.39l38.42-22.18c2.82-1.63,7.09-1.81,9.53-.4l94.91,55c2.25-1.61,2.36-3.8.11-5.1l-95-55.08c-2.44-1.41-6.71-1.24-9.53.39L536,312.7C533.18,314.33,532.87,316.79,535.31,318.2Z"/><path class="cls-4" d="M662.69,467.79l54-30.93c3-1.76,5.51-6.46,5.51-10.52V407c0-4-2.47-5.91-5.51-4.16l-54,30.93c-3,1.76-5.51,6.47-5.51,10.52v19.32C657.18,467.68,659.65,469.55,662.69,467.79Z"/><path class="cls-3" d="M719.39,402.28a5.38,5.38,0,0,1,1.38,4v19.32c0,4.05-2.47,8.76-5.51,10.51l-54,30.94a4,4,0,0,1-2.67.58c1,1,2.47,1.09,4.12.14l54-30.93c3-1.76,5.51-6.47,5.51-10.52V407C722.22,404.27,721.07,402.56,719.39,402.28Z"/><path class="cls-1" d="M678.94,446.8l4.95-2.86a2.85,2.85,0,0,0,1.2-2.29v-5.29c0-.89-.53-1.29-1.2-.91l-4.95,2.86a2.85,2.85,0,0,0-1.2,2.29v5.3C677.74,446.78,678.27,447.19,678.94,446.8Z"/><path class="cls-3" d="M695.51,437.24l5-2.86a2.87,2.87,0,0,0,1.2-2.3v-5.29c0-.88-.53-1.29-1.2-.91l-5,2.86a2.87,2.87,0,0,0-1.2,2.3v5.29C694.31,437.21,694.84,437.62,695.51,437.24Z"/><path class="cls-4" d="M662.69,607.39l54-30.93c3-1.75,5.51-6.46,5.51-10.51V546.63c0-4.06-2.47-5.92-5.51-4.16l-54,30.93c-3,1.75-5.51,6.46-5.51,10.51v19.32C657.18,607.29,659.65,609.15,662.69,607.39Z"/><path class="cls-3" d="M719.39,541.88a5.4,5.4,0,0,1,1.38,4v19.32c0,4-2.47,8.76-5.51,10.52l-54,30.93a4,4,0,0,1-2.67.58c1,1,2.47,1.1,4.12.14l54-30.93c3-1.75,5.51-6.46,5.51-10.51V546.63C722.22,543.87,721.07,542.17,719.39,541.88Z"/><path class="cls-1" d="M678.94,586.41l4.95-2.86a2.87,2.87,0,0,0,1.2-2.3V576c0-.88-.53-1.29-1.2-.91l-4.95,2.86a2.87,2.87,0,0,0-1.2,2.3v5.29C677.74,586.38,678.27,586.79,678.94,586.41Z"/><path class="cls-3" d="M695.51,576.84l5-2.86a2.85,2.85,0,0,0,1.2-2.29v-5.3c0-.88-.53-1.29-1.2-.9l-5,2.86a2.85,2.85,0,0,0-1.2,2.29v5.29C694.31,576.82,694.84,577.22,695.51,576.84Z"/><path class="cls-4" d="M662.69,677.2l54-30.93c3-1.76,5.51-6.47,5.51-10.52V616.43c0-4-2.47-5.92-5.51-4.16l-54,30.93c-3,1.75-5.51,6.46-5.51,10.52V673C657.18,677.09,659.65,679,662.69,677.2Z"/><path class="cls-3" d="M719.39,611.69a5.37,5.37,0,0,1,1.38,4V635c0,4.06-2.47,8.77-5.51,10.52l-54,30.93a3.9,3.9,0,0,1-2.67.58c1,1,2.47,1.1,4.12.15l54-30.93c3-1.76,5.51-6.47,5.51-10.52V616.43C722.22,613.68,721.07,612,719.39,611.69Z"/><path class="cls-1" d="M678.94,656.21l4.95-2.86a2.85,2.85,0,0,0,1.2-2.29v-5.3c0-.88-.53-1.29-1.2-.9l-4.95,2.86a2.85,2.85,0,0,0-1.2,2.29v5.29C677.74,656.19,678.27,656.59,678.94,656.21Z"/><path class="cls-3" d="M695.51,646.64l5-2.86a2.85,2.85,0,0,0,1.2-2.29V636.2c0-.89-.53-1.29-1.2-.91l-5,2.86a2.85,2.85,0,0,0-1.2,2.29v5.3C694.31,646.62,694.84,647,695.51,646.64Z"/><path class="cls-4" d="M662.69,537.59l54-30.93c3-1.75,5.51-6.46,5.51-10.52V476.82c0-4.05-2.47-5.91-5.51-4.16l-54,30.93c-3,1.76-5.51,6.47-5.51,10.52v19.32C657.18,537.48,659.65,539.35,662.69,537.59Z"/><path class="cls-3" d="M719.39,472.08a5.4,5.4,0,0,1,1.38,4v19.32c0,4.05-2.47,8.76-5.51,10.52l-54,30.93a4,4,0,0,1-2.67.58c1,.95,2.47,1.09,4.12.14l54-30.93c3-1.75,5.51-6.46,5.51-10.52V476.82C722.22,474.07,721.07,472.37,719.39,472.08Z"/><path class="cls-1" d="M678.94,516.61l4.95-2.87a2.84,2.84,0,0,0,1.2-2.29v-5.29c0-.88-.53-1.29-1.2-.91l-4.95,2.86a2.86,2.86,0,0,0-1.2,2.29v5.3C677.74,516.58,678.27,517,678.94,516.61Z"/><path class="cls-3" d="M695.51,507l5-2.86a2.87,2.87,0,0,0,1.2-2.3v-5.29c0-.88-.53-1.29-1.2-.91l-5,2.87a2.84,2.84,0,0,0-1.2,2.29v5.29C694.31,507,694.84,507.42,695.51,507Z"/><path class="cls-1" d="M615.9,448l-124.64-72c-2.79-1.61-5.05-5.93-5.05-9.65V342.64c0-3.72,2.26-5.43,5.05-3.82l124.64,72c2.79,1.61,5.05,5.93,5.05,9.65v23.76C621,447.91,618.69,449.62,615.9,448Z"/><path class="cls-5" d="M612.32,439.68,494.84,371.85a6.11,6.11,0,0,1-2.56-4.89V349.09c0-1.89,1.14-2.76,2.56-1.94L612.32,415a6.16,6.16,0,0,1,2.56,4.9v17.86C614.88,439.63,613.73,440.5,612.32,439.68Z"/><path class="cls-2" d="M519.32,377l-17.53-10.13a5.93,5.93,0,0,1-2.49-4.75h0c0-1.83,1.11-2.68,2.49-1.88l17.53,10.12a5.93,5.93,0,0,1,2.49,4.75h0C521.81,376.91,520.7,377.75,519.32,377Z"/><path class="cls-4" d="M534.26,382.26c0,1.84-1.28,2.58-2.87,1.66a6.33,6.33,0,0,1-2.88-5c0-1.84,1.29-2.58,2.88-1.66A6.32,6.32,0,0,1,534.26,382.26Z"/><path class="cls-4" d="M544.4,388.12c0,1.83-1.29,2.57-2.87,1.66a6.37,6.37,0,0,1-2.88-5c0-1.83,1.29-2.58,2.88-1.66A6.37,6.37,0,0,1,544.4,388.12Z"/><path class="cls-2" d="M554.54,394c0,1.83-1.29,2.57-2.88,1.66a6.38,6.38,0,0,1-2.87-5c0-1.83,1.29-2.57,2.87-1.66A6.37,6.37,0,0,1,554.54,394Z"/><path class="cls-4" d="M564.67,399.82c0,1.83-1.28,2.58-2.87,1.66a6.34,6.34,0,0,1-2.87-5c0-1.83,1.28-2.57,2.87-1.65A6.32,6.32,0,0,1,564.67,399.82Z"/><path class="cls-4" d="M607.38,429.73l-5.91-3.41a3.82,3.82,0,0,1-1.59-3.05V417c0-1.17.71-1.72,1.59-1.21l5.91,3.41a3.84,3.84,0,0,1,1.59,3.06v6.24C609,429.7,608.26,430.24,607.38,429.73Z"/><path class="cls-1" d="M615.9,489.92,491.26,418c-2.79-1.61-5.05-5.93-5.05-9.65V384.55c0-3.72,2.26-5.43,5.05-3.82l124.64,72c2.79,1.61,5.05,5.93,5.05,9.65V486.1C621,489.82,618.69,491.53,615.9,489.92Z"/><path class="cls-5" d="M612.32,481.59,494.84,413.76a6.12,6.12,0,0,1-2.56-4.89V391c0-1.89,1.14-2.76,2.56-1.94l117.48,67.83a6.16,6.16,0,0,1,2.56,4.9v17.86C614.88,481.54,613.73,482.41,612.32,481.59Z"/><path class="cls-2" d="M519.32,418.86l-17.53-10.12A5.93,5.93,0,0,1,499.3,404h0c0-1.83,1.11-2.68,2.49-1.88l17.53,10.12a5.93,5.93,0,0,1,2.49,4.75h0C521.81,418.82,520.7,419.66,519.32,418.86Z"/><path class="cls-3" d="M534.26,424.17c0,1.84-1.28,2.58-2.87,1.66a6.33,6.33,0,0,1-2.88-5c0-1.83,1.29-2.57,2.88-1.65A6.32,6.32,0,0,1,534.26,424.17Z"/><path class="cls-4" d="M544.4,430c0,1.83-1.29,2.57-2.87,1.65a6.33,6.33,0,0,1-2.88-5c0-1.84,1.29-2.58,2.88-1.66A6.35,6.35,0,0,1,544.4,430Z"/><path class="cls-2" d="M554.54,435.88c0,1.83-1.29,2.57-2.88,1.66a6.38,6.38,0,0,1-2.87-5c0-1.83,1.29-2.57,2.87-1.66A6.37,6.37,0,0,1,554.54,435.88Z"/><path class="cls-4" d="M564.67,441.73c0,1.83-1.28,2.58-2.87,1.66a6.34,6.34,0,0,1-2.87-5c0-1.83,1.28-2.57,2.87-1.66A6.35,6.35,0,0,1,564.67,441.73Z"/><path class="cls-4" d="M607.38,471.64l-5.91-3.41a3.82,3.82,0,0,1-1.59-3.05v-6.25c0-1.18.71-1.72,1.59-1.21l5.91,3.41a3.83,3.83,0,0,1,1.59,3.05v6.25C609,471.61,608.26,472.15,607.38,471.64Z"/><path class="cls-1" d="M615.9,531.83l-124.64-72c-2.79-1.61-5.05-5.93-5.05-9.65V426.46c0-3.72,2.26-5.43,5.05-3.82l124.64,72c2.79,1.61,5.05,5.93,5.05,9.65V528C621,531.73,618.69,533.44,615.9,531.83Z"/><path class="cls-5" d="M612.32,523.5,494.84,455.67a6.12,6.12,0,0,1-2.56-4.89V432.91c0-1.89,1.14-2.76,2.56-1.94L612.32,498.8a6.15,6.15,0,0,1,2.56,4.89v17.87C614.88,523.45,613.73,524.32,612.32,523.5Z"/><path class="cls-2" d="M519.32,460.77l-17.53-10.12a5.93,5.93,0,0,1-2.49-4.75h0c0-1.84,1.11-2.68,2.49-1.88l17.53,10.12a5.93,5.93,0,0,1,2.49,4.75h0C521.81,460.73,520.7,461.57,519.32,460.77Z"/><path class="cls-3" d="M534.26,466.08c0,1.83-1.28,2.58-2.87,1.66a6.35,6.35,0,0,1-2.88-5c0-1.83,1.29-2.57,2.88-1.65A6.32,6.32,0,0,1,534.26,466.08Z"/><path class="cls-4" d="M544.4,471.94c0,1.83-1.29,2.57-2.87,1.65a6.33,6.33,0,0,1-2.88-5c0-1.84,1.29-2.58,2.88-1.66A6.35,6.35,0,0,1,544.4,471.94Z"/><path class="cls-2" d="M554.54,477.79c0,1.83-1.29,2.57-2.88,1.66a6.38,6.38,0,0,1-2.87-5c0-1.83,1.29-2.58,2.87-1.66A6.37,6.37,0,0,1,554.54,477.79Z"/><path class="cls-4" d="M564.67,483.64c0,1.83-1.28,2.58-2.87,1.66a6.35,6.35,0,0,1-2.87-5c0-1.83,1.28-2.57,2.87-1.66A6.35,6.35,0,0,1,564.67,483.64Z"/><path class="cls-4" d="M607.38,513.55l-5.91-3.41a3.83,3.83,0,0,1-1.59-3.05v-6.25c0-1.18.71-1.72,1.59-1.21l5.91,3.41a3.83,3.83,0,0,1,1.59,3v6.25C609,513.52,608.26,514.06,607.38,513.55Z"/><path class="cls-1" d="M615.9,573.74l-124.64-72c-2.79-1.61-5.05-5.93-5.05-9.65V468.37c0-3.72,2.26-5.43,5.05-3.82l124.64,72c2.79,1.61,5.05,5.93,5.05,9.65v23.76C621,573.64,618.69,575.35,615.9,573.74Z"/><path class="cls-5" d="M612.32,565.41,494.84,497.58a6.13,6.13,0,0,1-2.56-4.9V474.82c0-1.89,1.14-2.76,2.56-1.94l117.48,67.83a6.14,6.14,0,0,1,2.56,4.89v17.87C614.88,565.36,613.73,566.23,612.32,565.41Z"/><path class="cls-2" d="M519.32,502.68l-17.53-10.12a5.93,5.93,0,0,1-2.49-4.75h0c0-1.84,1.11-2.68,2.49-1.89l17.53,10.13a5.93,5.93,0,0,1,2.49,4.75h0C521.81,502.63,520.7,503.48,519.32,502.68Z"/><path class="cls-4" d="M534.26,508c0,1.83-1.28,2.58-2.87,1.66a6.35,6.35,0,0,1-2.88-5c0-1.83,1.29-2.57,2.88-1.66A6.35,6.35,0,0,1,534.26,508Z"/><path class="cls-4" d="M544.4,513.84c0,1.84-1.29,2.58-2.87,1.66a6.33,6.33,0,0,1-2.88-5c0-1.84,1.29-2.58,2.88-1.66A6.35,6.35,0,0,1,544.4,513.84Z"/><path class="cls-2" d="M554.54,519.7c0,1.83-1.29,2.57-2.88,1.66a6.38,6.38,0,0,1-2.87-5c0-1.83,1.29-2.58,2.87-1.66A6.35,6.35,0,0,1,554.54,519.7Z"/><path class="cls-4" d="M564.67,525.55c0,1.83-1.28,2.58-2.87,1.66a6.35,6.35,0,0,1-2.87-5c0-1.83,1.28-2.57,2.87-1.66A6.35,6.35,0,0,1,564.67,525.55Z"/><path class="cls-2" d="M607.38,555.46l-5.91-3.41a3.83,3.83,0,0,1-1.59-3v-6.25c0-1.18.71-1.72,1.59-1.21l5.91,3.41a3.83,3.83,0,0,1,1.59,3v6.25C609,555.43,608.26,556,607.38,555.46Z"/><path class="cls-1" d="M615.9,615.65l-124.64-72c-2.79-1.61-5.05-5.93-5.05-9.65V510.27c0-3.72,2.26-5.42,5.05-3.81l124.64,72c2.79,1.61,5.05,5.93,5.05,9.65v23.76C621,615.55,618.69,617.26,615.9,615.65Z"/><path class="cls-5" d="M612.32,607.32,494.84,539.49a6.13,6.13,0,0,1-2.56-4.9V516.73c0-1.89,1.14-2.76,2.56-1.94l117.48,67.83a6.14,6.14,0,0,1,2.56,4.89v17.87C614.88,607.27,613.73,608.13,612.32,607.32Z"/><path class="cls-2" d="M519.32,544.59l-17.53-10.12a5.93,5.93,0,0,1-2.49-4.75h0c0-1.84,1.11-2.68,2.49-1.89L519.32,538a5.93,5.93,0,0,1,2.49,4.75h0C521.81,544.54,520.7,545.39,519.32,544.59Z"/><path class="cls-4" d="M534.26,549.9c0,1.83-1.28,2.58-2.87,1.66a6.37,6.37,0,0,1-2.88-5c0-1.83,1.29-2.57,2.88-1.66A6.35,6.35,0,0,1,534.26,549.9Z"/><path class="cls-3" d="M544.4,555.75c0,1.84-1.29,2.58-2.87,1.66a6.33,6.33,0,0,1-2.88-5c0-1.84,1.29-2.58,2.88-1.66A6.35,6.35,0,0,1,544.4,555.75Z"/><path class="cls-2" d="M554.54,561.61c0,1.83-1.29,2.57-2.88,1.66a6.38,6.38,0,0,1-2.87-5c0-1.83,1.29-2.58,2.87-1.66A6.35,6.35,0,0,1,554.54,561.61Z"/><path class="cls-3" d="M564.67,567.46c0,1.83-1.28,2.57-2.87,1.66a6.35,6.35,0,0,1-2.87-5c0-1.83,1.28-2.57,2.87-1.66A6.35,6.35,0,0,1,564.67,567.46Z"/><path class="cls-2" d="M607.38,597.37,601.47,594a3.83,3.83,0,0,1-1.59-3.05v-6.25c0-1.18.71-1.72,1.59-1.21l5.91,3.41a3.83,3.83,0,0,1,1.59,3v6.25C609,597.34,608.26,597.88,607.38,597.37Z"/><path class="cls-1" d="M615.9,657.56l-124.64-72c-2.79-1.61-5.05-5.93-5.05-9.65V552.18c0-3.72,2.26-5.43,5.05-3.81l124.64,72c2.79,1.61,5.05,5.94,5.05,9.66v23.76C621,657.46,618.69,659.17,615.9,657.56Z"/><path class="cls-5" d="M612.32,649.23,494.84,581.4a6.13,6.13,0,0,1-2.56-4.9V558.64c0-1.89,1.14-2.76,2.56-1.94l117.48,67.83a6.14,6.14,0,0,1,2.56,4.89v17.87C614.88,649.18,613.73,650,612.32,649.23Z"/><path class="cls-2" d="M519.32,586.5l-17.53-10.12a5.94,5.94,0,0,1-2.49-4.76h0c0-1.83,1.11-2.67,2.49-1.88l17.53,10.13a5.93,5.93,0,0,1,2.49,4.75h0C521.81,586.45,520.7,587.3,519.32,586.5Z"/><path class="cls-4" d="M534.26,591.81c0,1.83-1.28,2.58-2.87,1.66a6.37,6.37,0,0,1-2.88-5c0-1.83,1.29-2.57,2.88-1.66A6.35,6.35,0,0,1,534.26,591.81Z"/><path class="cls-4" d="M544.4,597.66c0,1.84-1.29,2.58-2.87,1.66a6.33,6.33,0,0,1-2.88-5c0-1.83,1.29-2.57,2.88-1.65A6.35,6.35,0,0,1,544.4,597.66Z"/><path class="cls-2" d="M554.54,603.52c0,1.83-1.29,2.57-2.88,1.65a6.35,6.35,0,0,1-2.87-5c0-1.83,1.29-2.58,2.87-1.66A6.33,6.33,0,0,1,554.54,603.52Z"/><path class="cls-4" d="M564.67,609.37c0,1.83-1.28,2.57-2.87,1.66a6.35,6.35,0,0,1-2.87-5c0-1.83,1.28-2.58,2.87-1.66A6.35,6.35,0,0,1,564.67,609.37Z"/><path class="cls-4" d="M607.38,639.28l-5.91-3.41a3.83,3.83,0,0,1-1.59-3v-6.25c0-1.18.71-1.72,1.59-1.21l5.91,3.41a3.83,3.83,0,0,1,1.59,3.05v6.25C609,639.25,608.26,639.79,607.38,639.28Z"/><path class="cls-1" d="M615.9,699.47l-124.64-72c-2.79-1.61-5.05-5.93-5.05-9.65V594.09c0-3.72,2.26-5.43,5.05-3.82l124.64,72c2.79,1.61,5.05,5.94,5.05,9.65v23.77C621,699.37,618.69,701.08,615.9,699.47Z"/><path class="cls-5" d="M612.32,691.14,494.84,623.31a6.13,6.13,0,0,1-2.56-4.9V600.55c0-1.89,1.14-2.76,2.56-1.94l117.48,67.83a6.12,6.12,0,0,1,2.56,4.89V689.2C614.88,691.09,613.73,692,612.32,691.14Z"/><path class="cls-2" d="M519.32,628.41l-17.53-10.12a5.94,5.94,0,0,1-2.49-4.76h0c0-1.83,1.11-2.67,2.49-1.88l17.53,10.13a5.93,5.93,0,0,1,2.49,4.75h0C521.81,628.36,520.7,629.2,519.32,628.41Z"/><path class="cls-3" d="M599.88,672.39c0,3.46-2.43,4.87-5.43,3.14a12,12,0,0,1-5.43-9.4c0-3.47,2.43-4.87,5.43-3.14A12,12,0,0,1,599.88,672.39Z"/><path class="cls-4" d="M534.26,634.24c0,1.84-1.28,2.58-2.87,1.66a6.33,6.33,0,0,1-2.88-5c0-1.84,1.29-2.58,2.88-1.66A6.32,6.32,0,0,1,534.26,634.24Z"/><path class="cls-2" d="M544.4,640.1c0,1.83-1.29,2.57-2.87,1.65a6.33,6.33,0,0,1-2.88-5c0-1.83,1.29-2.58,2.88-1.66A6.37,6.37,0,0,1,544.4,640.1Z"/><path class="cls-4" d="M554.54,646c0,1.83-1.29,2.57-2.88,1.66a6.38,6.38,0,0,1-2.87-5c0-1.83,1.29-2.57,2.87-1.66A6.37,6.37,0,0,1,554.54,646Z"/><path class="cls-2" d="M801.79,845.09l-133-75.85c-4.86-2.81-4.25-7.72,1.37-11l76.54-44.2c5.62-3.24,14.12-3.59,19-.78l133,75.85c4.86,2.81,4.25,7.72-1.37,11l-76.54,44.2C815.15,847.55,806.65,847.9,801.79,845.09Z"/><path class="cls-1" d="M910.54,763.62h0V453L787.07,420.73,764.33,407.6c-5.22-3-14.34-2.64-20.37.84l-21.21,12.25-65.86,0,19.5,299.82c-.15,2,1,4,3.5,5.46l123.21,93c5.22,3,14.34,2.63,20.36-.85l82.12-47.4C909.06,768.64,910.73,766,910.54,763.62Z"/><path class="cls-2" d="M754.88,405.58A23.44,23.44,0,0,0,744,408.44l-21.21,12.25-65.86,0V732.07c-.15,2,1,4,3.5,5.45L803.1,818.9a18.48,18.48,0,0,0,9.45,2L814,507.56Z"/><path class="cls-1" d="M804.41,819.54c4.5,1.93,11,1.82,16.28-.19V503.86H804.41Z"/><path class="cls-2" d="M803.1,507.6,660.39,426.22c-5.22-3-4.57-8.28,1.46-11.76L744,367.05c6-3.48,15.15-3.85,20.37-.84L907,447.59c5.22,3,4.57,8.27-1.46,11.75l-82.12,47.41C817.44,510.23,808.32,510.61,803.1,507.6Z"/><path class="cls-1" d="M905.58,453.57,823.46,501c-6,3.48-15.14,3.85-20.36.84L660.39,420.44a7.86,7.86,0,0,1-2.61-2.31c-1.79,2.89-1,6,2.61,8.09L803.1,507.6c5.22,3,14.34,2.63,20.36-.85l82.12-47.41c4.68-2.7,6.11-6.48,4.07-9.44A11.46,11.46,0,0,1,905.58,453.57Z"/><path class="cls-4" d="M807.14,474.61l-95-55.07c-2.44-1.41-2.13-3.88.69-5.5l38.42-22.19c2.82-1.63,7.09-1.81,9.53-.39l95,55.07c2.44,1.41,2.13,3.88-.69,5.5l-38.42,22.19C813.85,475.85,809.58,476,807.14,474.61Z"/><path class="cls-2" d="M755.84,422l-5.5-3.18c-.34-.19-.3-.53.09-.76l5.32-3.07a1.47,1.47,0,0,1,1.32-.05l5.5,3.17c.34.2.3.54-.09.77L757.16,422A1.47,1.47,0,0,1,755.84,422Z"/><path class="cls-2" d="M774.24,432.59l-5.51-3.18c-.34-.2-.29-.54.1-.76l5.31-3.07a1.47,1.47,0,0,1,1.32-.06L781,428.7c.33.2.29.54-.1.76l-5.31,3.07A1.47,1.47,0,0,1,774.24,432.59Z"/><path class="cls-2" d="M792.63,443.16l-5.5-3.18c-.34-.19-.3-.53.09-.76l5.32-3.07a1.45,1.45,0,0,1,1.31,0l5.51,3.18c.34.19.3.53-.09.76L794,443.11A1.47,1.47,0,0,1,792.63,443.16Z"/><path class="cls-2" d="M811,453.74l-5.51-3.18c-.34-.19-.3-.53.09-.76l5.32-3.07a1.47,1.47,0,0,1,1.32-.05l5.5,3.18c.34.19.3.53-.09.76l-5.32,3.07A1.45,1.45,0,0,1,811,453.74Z"/><path class="cls-1" d="M712.12,419.54l.12.06a5.16,5.16,0,0,1,.57-.39L751.23,397c2.82-1.62,7.09-1.8,9.53-.39l94.91,55c2.25-1.61,2.36-3.8.11-5.11l-95-55.07c-2.44-1.42-6.71-1.24-9.53.39L712.81,414C710,415.66,709.68,418.13,712.12,419.54Z"/><path class="cls-4" d="M839.5,569.13l54-30.93c3-1.76,5.51-6.47,5.51-10.52V508.36c0-4.05-2.47-5.92-5.51-4.16l-54,30.93c-3,1.76-5.51,6.46-5.51,10.52V565C834,569,836.46,570.88,839.5,569.13Z"/><path class="cls-3" d="M896.2,503.62a5.42,5.42,0,0,1,1.38,4V527c0,4-2.47,8.76-5.51,10.51l-54,30.93a4,4,0,0,1-2.67.59c1,1,2.47,1.09,4.12.14l54-30.93c3-1.76,5.51-6.47,5.51-10.52V508.36C899,505.61,897.88,503.9,896.2,503.62Z"/><path class="cls-1" d="M855.75,548.14l5-2.86a2.88,2.88,0,0,0,1.2-2.29v-5.3c0-.88-.54-1.29-1.2-.9l-5,2.86a2.85,2.85,0,0,0-1.2,2.29v5.29C854.55,548.12,855.08,548.52,855.75,548.14Z"/><path class="cls-3" d="M872.32,538.57l4.95-2.86a2.85,2.85,0,0,0,1.2-2.29v-5.29c0-.89-.53-1.29-1.2-.91l-4.95,2.86a2.85,2.85,0,0,0-1.2,2.29v5.3C871.12,538.55,871.65,539,872.32,538.57Z"/><path class="cls-4" d="M839.5,708.73l54-30.93c3-1.75,5.51-6.46,5.51-10.52V648c0-4.05-2.47-5.91-5.51-4.16l-54,30.93c-3,1.76-5.51,6.47-5.51,10.52v19.32C834,708.62,836.46,710.49,839.5,708.73Z"/><path class="cls-3" d="M896.2,643.22a5.44,5.44,0,0,1,1.38,4v19.32c0,4.05-2.47,8.76-5.51,10.52l-54,30.93a4,4,0,0,1-2.67.58c1,.95,2.47,1.1,4.12.14l54-30.93c3-1.75,5.51-6.46,5.51-10.52V648C899,645.21,897.88,643.51,896.2,643.22Z"/><path class="cls-1" d="M855.75,687.75l5-2.87a2.86,2.86,0,0,0,1.2-2.29V677.3c0-.88-.54-1.29-1.2-.91l-5,2.86a2.87,2.87,0,0,0-1.2,2.3v5.29C854.55,687.72,855.08,688.13,855.75,687.75Z"/><path class="cls-3" d="M872.32,678.18l4.95-2.86a2.86,2.86,0,0,0,1.2-2.29v-5.3c0-.88-.53-1.29-1.2-.91l-4.95,2.87a2.84,2.84,0,0,0-1.2,2.29v5.29C871.12,678.16,871.65,678.56,872.32,678.18Z"/><path class="cls-4" d="M839.5,778.53l54-30.93c3-1.75,5.51-6.46,5.51-10.51V717.77c0-4.06-2.47-5.92-5.51-4.16l-54,30.93c-3,1.75-5.51,6.46-5.51,10.51v19.32C834,778.43,836.46,780.29,839.5,778.53Z"/><path class="cls-3" d="M896.2,713a5.44,5.44,0,0,1,1.38,4v19.32c0,4.06-2.47,8.76-5.51,10.52l-54,30.93a4,4,0,0,1-2.67.58c1,1,2.47,1.1,4.12.14l54-30.93c3-1.75,5.51-6.46,5.51-10.51V717.77C899,715,897.88,713.31,896.2,713Z"/><path class="cls-1" d="M855.75,757.55l5-2.86a2.9,2.9,0,0,0,1.2-2.3V747.1c0-.88-.54-1.29-1.2-.91l-5,2.86a2.87,2.87,0,0,0-1.2,2.3v5.29C854.55,757.52,855.08,757.93,855.75,757.55Z"/><path class="cls-3" d="M872.32,748l4.95-2.86a2.85,2.85,0,0,0,1.2-2.29v-5.3c0-.88-.53-1.29-1.2-.9l-4.95,2.86a2.85,2.85,0,0,0-1.2,2.29v5.29C871.12,748,871.65,748.36,872.32,748Z"/><path class="cls-4" d="M839.5,638.93l54-30.93c3-1.76,5.51-6.46,5.51-10.52V578.16c0-4-2.47-5.91-5.51-4.16l-54,30.93c-3,1.76-5.51,6.47-5.51,10.52v19.32C834,638.82,836.46,640.69,839.5,638.93Z"/><path class="cls-3" d="M896.2,573.42a5.44,5.44,0,0,1,1.38,4v19.32c0,4-2.47,8.76-5.51,10.51l-54,30.94a4,4,0,0,1-2.67.58c1,1,2.47,1.09,4.12.14l54-30.93c3-1.76,5.51-6.47,5.51-10.52V578.16C899,575.41,897.88,573.7,896.2,573.42Z"/><path class="cls-1" d="M855.75,617.94l5-2.86a2.88,2.88,0,0,0,1.2-2.29V607.5c0-.89-.54-1.29-1.2-.91l-5,2.86a2.85,2.85,0,0,0-1.2,2.29V617C854.55,617.92,855.08,618.33,855.75,617.94Z"/><path class="cls-3" d="M872.32,608.38l4.95-2.86a2.87,2.87,0,0,0,1.2-2.3v-5.29c0-.88-.53-1.29-1.2-.91l-4.95,2.86a2.87,2.87,0,0,0-1.2,2.3v5.29C871.12,608.35,871.65,608.76,872.32,608.38Z"/><path class="cls-1" d="M792.71,549.35l-124.64-72c-2.79-1.61-5.05-5.93-5.05-9.65V444c0-3.72,2.26-5.43,5.05-3.82l124.64,72c2.79,1.61,5,5.93,5,9.65v23.76C797.76,549.25,795.5,551,792.71,549.35Z"/><path class="cls-5" d="M789.13,541,671.65,473.19a6.13,6.13,0,0,1-2.56-4.9V450.43c0-1.89,1.14-2.76,2.56-1.94l117.48,67.83a6.14,6.14,0,0,1,2.56,4.89v17.87C791.69,541,790.54,541.84,789.13,541Z"/><path class="cls-2" d="M696.13,478.29,678.6,468.17a5.93,5.93,0,0,1-2.49-4.75h0c0-1.84,1.11-2.68,2.49-1.88l17.53,10.12a5.93,5.93,0,0,1,2.49,4.75h0C698.62,478.25,697.51,479.09,696.13,478.29Z"/><path class="cls-4" d="M711.07,483.6c0,1.83-1.29,2.58-2.87,1.66a6.35,6.35,0,0,1-2.88-5c0-1.83,1.29-2.57,2.88-1.66A6.38,6.38,0,0,1,711.07,483.6Z"/><path class="cls-4" d="M721.21,489.45c0,1.84-1.29,2.58-2.87,1.66a6.33,6.33,0,0,1-2.88-5c0-1.84,1.29-2.58,2.88-1.66A6.35,6.35,0,0,1,721.21,489.45Z"/><path class="cls-2" d="M731.35,495.31c0,1.83-1.29,2.57-2.88,1.66a6.38,6.38,0,0,1-2.87-5c0-1.83,1.29-2.58,2.87-1.66A6.35,6.35,0,0,1,731.35,495.31Z"/><path class="cls-4" d="M741.48,501.16c0,1.83-1.28,2.58-2.87,1.66a6.35,6.35,0,0,1-2.87-5c0-1.83,1.28-2.57,2.87-1.66A6.35,6.35,0,0,1,741.48,501.16Z"/><path class="cls-4" d="M784.19,531.07l-5.91-3.41a3.84,3.84,0,0,1-1.6-3v-6.25c0-1.18.72-1.72,1.6-1.21l5.91,3.41a3.83,3.83,0,0,1,1.59,3.05v6.25C785.78,531,785.07,531.58,784.19,531.07Z"/><path class="cls-1" d="M792.71,591.26l-124.64-72c-2.79-1.61-5.05-5.93-5.05-9.65V485.88c0-3.71,2.26-5.42,5.05-3.81l124.64,72c2.79,1.61,5,5.93,5,9.65v23.76C797.76,591.16,795.5,592.87,792.71,591.26Z"/><path class="cls-5" d="M789.13,582.93,671.65,515.1a6.13,6.13,0,0,1-2.56-4.9V492.34c0-1.89,1.14-2.76,2.56-1.94l117.48,67.83a6.14,6.14,0,0,1,2.56,4.89V581C791.69,582.88,790.54,583.74,789.13,582.93Z"/><path class="cls-2" d="M696.13,520.2,678.6,510.08a5.93,5.93,0,0,1-2.49-4.75h0c0-1.84,1.11-2.68,2.49-1.89l17.53,10.13a5.93,5.93,0,0,1,2.49,4.75h0C698.62,520.15,697.51,521,696.13,520.2Z"/><path class="cls-3" d="M711.07,525.51c0,1.83-1.29,2.58-2.87,1.66a6.35,6.35,0,0,1-2.88-5c0-1.83,1.29-2.57,2.88-1.66A6.38,6.38,0,0,1,711.07,525.51Z"/><path class="cls-4" d="M721.21,531.36c0,1.84-1.29,2.58-2.87,1.66a6.33,6.33,0,0,1-2.88-5c0-1.84,1.29-2.58,2.88-1.66A6.35,6.35,0,0,1,721.21,531.36Z"/><path class="cls-2" d="M731.35,537.22c0,1.83-1.29,2.57-2.88,1.66a6.38,6.38,0,0,1-2.87-5c0-1.83,1.29-2.58,2.87-1.66A6.35,6.35,0,0,1,731.35,537.22Z"/><path class="cls-4" d="M741.48,543.07c0,1.83-1.28,2.57-2.87,1.66a6.35,6.35,0,0,1-2.87-5c0-1.83,1.28-2.57,2.87-1.66A6.35,6.35,0,0,1,741.48,543.07Z"/><path class="cls-4" d="M784.19,573l-5.91-3.41a3.84,3.84,0,0,1-1.6-3.05v-6.25c0-1.18.72-1.72,1.6-1.21l5.91,3.41a3.83,3.83,0,0,1,1.59,3v6.25C785.78,573,785.07,573.49,784.19,573Z"/><path class="cls-1" d="M792.71,633.17l-124.64-72c-2.79-1.61-5.05-5.93-5.05-9.65V527.79c0-3.72,2.26-5.43,5.05-3.81l124.64,71.95c2.79,1.62,5,5.94,5,9.66v23.76C797.76,633.07,795.5,634.78,792.71,633.17Z"/><path class="cls-5" d="M789.13,624.84,671.65,557a6.13,6.13,0,0,1-2.56-4.9V534.25c0-1.89,1.14-2.76,2.56-1.94l117.48,67.83a6.14,6.14,0,0,1,2.56,4.89V622.9C791.69,624.79,790.54,625.65,789.13,624.84Z"/><path class="cls-2" d="M696.13,562.11,678.6,552a5.94,5.94,0,0,1-2.49-4.76h0c0-1.83,1.11-2.67,2.49-1.88l17.53,10.13a5.93,5.93,0,0,1,2.49,4.75h0C698.62,562.06,697.51,562.91,696.13,562.11Z"/><path class="cls-3" d="M711.07,567.42c0,1.83-1.29,2.58-2.87,1.66a6.37,6.37,0,0,1-2.88-5c0-1.83,1.29-2.57,2.88-1.66A6.38,6.38,0,0,1,711.07,567.42Z"/><path class="cls-4" d="M721.21,573.27c0,1.84-1.29,2.58-2.87,1.66a6.33,6.33,0,0,1-2.88-5c0-1.83,1.29-2.57,2.88-1.65A6.35,6.35,0,0,1,721.21,573.27Z"/><path class="cls-2" d="M731.35,579.13c0,1.83-1.29,2.57-2.88,1.65a6.35,6.35,0,0,1-2.87-5c0-1.83,1.29-2.58,2.87-1.66A6.35,6.35,0,0,1,731.35,579.13Z"/><path class="cls-4" d="M741.48,585c0,1.83-1.28,2.57-2.87,1.66a6.35,6.35,0,0,1-2.87-5c0-1.83,1.28-2.57,2.87-1.66A6.35,6.35,0,0,1,741.48,585Z"/><path class="cls-4" d="M784.19,614.89l-5.91-3.41a3.84,3.84,0,0,1-1.6-3.05v-6.25c0-1.18.72-1.72,1.6-1.21l5.91,3.41a3.83,3.83,0,0,1,1.59,3v6.25C785.78,614.86,785.07,615.4,784.19,614.89Z"/><path class="cls-1" d="M792.71,675.08l-124.64-72c-2.79-1.61-5.05-5.93-5.05-9.65V569.7c0-3.72,2.26-5.43,5.05-3.82l124.64,72c2.79,1.61,5,5.94,5,9.65v23.77C797.76,675,795.5,676.69,792.71,675.08Z"/><path class="cls-5" d="M789.13,666.75,671.65,598.92a6.13,6.13,0,0,1-2.56-4.9V576.16c0-1.89,1.14-2.76,2.56-1.94l117.48,67.83a6.12,6.12,0,0,1,2.56,4.89v17.87C791.69,666.7,790.54,667.56,789.13,666.75Z"/><path class="cls-2" d="M696.13,604,678.6,593.9a5.94,5.94,0,0,1-2.49-4.76h0c0-1.83,1.11-2.67,2.49-1.88l17.53,10.13a5.93,5.93,0,0,1,2.49,4.75h0C698.62,604,697.51,604.81,696.13,604Z"/><path class="cls-4" d="M711.07,609.33c0,1.83-1.29,2.57-2.87,1.66a6.37,6.37,0,0,1-2.88-5c0-1.83,1.29-2.57,2.88-1.66A6.38,6.38,0,0,1,711.07,609.33Z"/><path class="cls-4" d="M721.21,615.18c0,1.83-1.29,2.58-2.87,1.66a6.33,6.33,0,0,1-2.88-5c0-1.83,1.29-2.57,2.88-1.65A6.35,6.35,0,0,1,721.21,615.18Z"/><path class="cls-2" d="M731.35,621c0,1.83-1.29,2.57-2.88,1.65a6.35,6.35,0,0,1-2.87-5c0-1.84,1.29-2.58,2.87-1.66A6.33,6.33,0,0,1,731.35,621Z"/><path class="cls-4" d="M741.48,626.89c0,1.83-1.28,2.57-2.87,1.66a6.35,6.35,0,0,1-2.87-5c0-1.83,1.28-2.58,2.87-1.66A6.35,6.35,0,0,1,741.48,626.89Z"/><path class="cls-2" d="M784.19,656.8l-5.91-3.41a3.84,3.84,0,0,1-1.6-3v-6.25c0-1.18.72-1.72,1.6-1.21l5.91,3.41a3.82,3.82,0,0,1,1.59,3.05v6.25C785.78,656.77,785.07,657.31,784.19,656.8Z"/><path class="cls-1" d="M792.71,717,668.07,645c-2.79-1.61-5.05-5.93-5.05-9.65V611.61c0-3.72,2.26-5.43,5.05-3.82l124.64,72c2.79,1.61,5,5.93,5,9.65v23.77C797.76,716.89,795.5,718.6,792.71,717Z"/><path class="cls-5" d="M789.13,708.66,671.65,640.83a6.13,6.13,0,0,1-2.56-4.9V618.06c0-1.88,1.14-2.75,2.56-1.93L789.13,684a6.16,6.16,0,0,1,2.56,4.9v17.87C791.69,708.61,790.54,709.47,789.13,708.66Z"/><path class="cls-2" d="M696.13,645.93,678.6,635.81a6,6,0,0,1-2.49-4.76h0c0-1.83,1.11-2.67,2.49-1.88l17.53,10.12a6,6,0,0,1,2.49,4.76h0C698.62,645.88,697.51,646.72,696.13,645.93Z"/><path class="cls-4" d="M711.07,651.24c0,1.83-1.29,2.57-2.87,1.66a6.37,6.37,0,0,1-2.88-5c0-1.83,1.29-2.57,2.88-1.66A6.38,6.38,0,0,1,711.07,651.24Z"/><path class="cls-3" d="M721.21,657.09c0,1.83-1.29,2.58-2.87,1.66a6.35,6.35,0,0,1-2.88-5c0-1.83,1.29-2.57,2.88-1.66A6.38,6.38,0,0,1,721.21,657.09Z"/><path class="cls-2" d="M731.35,662.94c0,1.84-1.29,2.58-2.88,1.66a6.35,6.35,0,0,1-2.87-5c0-1.84,1.29-2.58,2.87-1.66A6.33,6.33,0,0,1,731.35,662.94Z"/><path class="cls-3" d="M741.48,668.8c0,1.83-1.28,2.57-2.87,1.66a6.35,6.35,0,0,1-2.87-5c0-1.83,1.28-2.58,2.87-1.66A6.34,6.34,0,0,1,741.48,668.8Z"/><path class="cls-2" d="M784.19,698.71l-5.91-3.41a3.84,3.84,0,0,1-1.6-3.06V686c0-1.18.72-1.72,1.6-1.21l5.91,3.41a3.82,3.82,0,0,1,1.59,3v6.25C785.78,698.67,785.07,699.22,784.19,698.71Z"/><path class="cls-1" d="M792.71,758.9l-124.64-72c-2.79-1.61-5.05-5.93-5.05-9.65V653.52c0-3.72,2.26-5.43,5.05-3.82l124.64,72c2.79,1.61,5,5.93,5,9.65v23.77C797.76,758.8,795.5,760.51,792.71,758.9Z"/><path class="cls-5" d="M789.13,750.56,671.65,682.74a6.13,6.13,0,0,1-2.56-4.9V660c0-1.88,1.14-2.75,2.56-1.93l117.48,67.82a6.16,6.16,0,0,1,2.56,4.9v17.87C791.69,750.51,790.54,751.38,789.13,750.56Z"/><path class="cls-2" d="M696.13,687.84,678.6,677.72a6,6,0,0,1-2.49-4.76h0c0-1.83,1.11-2.67,2.49-1.88l17.53,10.12a6,6,0,0,1,2.49,4.76h0C698.62,687.79,697.51,688.63,696.13,687.84Z"/><path class="cls-4" d="M711.07,693.15c0,1.83-1.29,2.57-2.87,1.66a6.37,6.37,0,0,1-2.88-5c0-1.83,1.29-2.58,2.88-1.66A6.38,6.38,0,0,1,711.07,693.15Z"/><path class="cls-4" d="M721.21,699c0,1.83-1.29,2.58-2.87,1.66a6.35,6.35,0,0,1-2.88-5c0-1.83,1.29-2.57,2.88-1.66A6.38,6.38,0,0,1,721.21,699Z"/><path class="cls-2" d="M731.35,704.85c0,1.84-1.29,2.58-2.88,1.66a6.35,6.35,0,0,1-2.87-5c0-1.84,1.29-2.58,2.87-1.66A6.33,6.33,0,0,1,731.35,704.85Z"/><path class="cls-4" d="M741.48,710.71c0,1.83-1.28,2.57-2.87,1.66a6.35,6.35,0,0,1-2.87-5c0-1.83,1.28-2.58,2.87-1.66A6.34,6.34,0,0,1,741.48,710.71Z"/><path class="cls-4" d="M784.19,740.62l-5.91-3.41a3.84,3.84,0,0,1-1.6-3.06v-6.24c0-1.18.72-1.72,1.6-1.21l5.91,3.41a3.82,3.82,0,0,1,1.59,3v6.25C785.78,740.58,785.07,741.12,784.19,740.62Z"/><path class="cls-1" d="M792.71,800.81l-124.64-72c-2.79-1.61-5.05-5.93-5.05-9.65V695.43c0-3.72,2.26-5.43,5.05-3.82l124.64,72c2.79,1.61,5,5.93,5,9.65V797C797.76,800.71,795.5,802.42,792.71,800.81Z"/><path class="cls-5" d="M789.13,792.47,671.65,724.65a6.13,6.13,0,0,1-2.56-4.9V701.88c0-1.88,1.14-2.75,2.56-1.93l117.48,67.82a6.16,6.16,0,0,1,2.56,4.9v17.87C791.69,792.42,790.54,793.29,789.13,792.47Z"/><path class="cls-2" d="M696.13,729.75,678.6,719.63a6,6,0,0,1-2.49-4.76h0c0-1.83,1.11-2.67,2.49-1.88l17.53,10.12a6,6,0,0,1,2.49,4.76h0C698.62,729.7,697.51,730.54,696.13,729.75Z"/><ellipse class="cls-3" cx="708.85" cy="734.19" rx="4.43" ry="7.68" transform="translate(-272.14 452.83) rotate(-30)"/><path class="cls-4" d="M735.27,749.61c0,1.83-1.28,2.58-2.87,1.66a6.34,6.34,0,0,1-2.87-5c0-1.83,1.28-2.57,2.87-1.65A6.32,6.32,0,0,1,735.27,749.61Z"/><path class="cls-2" d="M745.41,755.46c0,1.84-1.29,2.58-2.87,1.66a6.33,6.33,0,0,1-2.88-5c0-1.84,1.29-2.58,2.88-1.66A6.35,6.35,0,0,1,745.41,755.46Z"/><path class="cls-4" d="M755.55,761.32c0,1.83-1.29,2.57-2.88,1.66a6.38,6.38,0,0,1-2.87-5c0-1.83,1.29-2.58,2.87-1.66A6.37,6.37,0,0,1,755.55,761.32Z"/><path class="cls-2" d="M784.19,782.52l-5.91-3.41a3.81,3.81,0,0,1-1.6-3.05v-6.24c0-1.18.72-1.72,1.6-1.21l5.91,3.41a3.82,3.82,0,0,1,1.59,3.05v6.25C785.78,782.49,785.07,783,784.19,782.52Z"/><path class="cls-1" d="M585.4,766.7a1.81,1.81,0,0,1-.91-3.38l24.58-14.21a9.09,9.09,0,0,0,4.52-7.84v-13a1.82,1.82,0,0,1,3.63,0v13a12.7,12.7,0,0,1-6.34,11L586.3,766.46A1.76,1.76,0,0,1,585.4,766.7Z"/><rect class="cls-1" x="566.43" y="755.28" width="14.97" height="32.29" transform="translate(957.64 -110.18) rotate(60.17)"/><path class="cls-1" d="M593.2,766.47a11.72,11.72,0,0,0-5.26-9.18c-2.92-1.7-5.29-.34-5.3,3a11.7,11.7,0,0,0,5.26,9.18C590.82,771.2,593.19,769.84,593.2,766.47Z"/><rect class="cls-1" x="530.7" y="763.93" width="24.25" height="50.65" transform="translate(957.47 -74.26) rotate(60.17)"/><path class="cls-1" d="M560.79,770.33l9.48-5.44a19.39,19.39,0,0,1,7.44,13l-9.48,5.43A19.34,19.34,0,0,1,560.79,770.33Z"/><path class="cls-1" d="M573.36,781.63c0-5.46-3.81-12.12-8.53-14.87s-8.58-.55-8.59,4.92,3.8,12.13,8.53,14.88S573.34,787.1,573.36,781.63Z"/><path class="cls-2" d="M584.36,763c1.38-.78,1.38-2.07,0-2.86a5.46,5.46,0,0,0-5,0c-1.38.79-1.38,2.07,0,2.87A5.49,5.49,0,0,0,584.36,763Z"/><path class="cls-1" d="M207,769.8a1.74,1.74,0,0,1-.9-.24l-21.53-12.39a5.68,5.68,0,0,1,.1-9.91l139.54-76.4a40.08,40.08,0,0,0,20.84-35.17V462.29a8.41,8.41,0,0,0-12.43-7.38L286.1,480.28a1.81,1.81,0,0,1-1.73-3.18l46.52-25.37a12,12,0,0,1,17.78,10.56v173.4A43.69,43.69,0,0,1,326,674l-139.53,76.4a2.06,2.06,0,0,0,0,3.59l21.53,12.39a1.81,1.81,0,0,1-.91,3.38Z"/><rect class="cls-1" x="273.29" y="465.96" width="14.97" height="32.29" transform="translate(559.32 -1.29) rotate(60.17)"/><path class="cls-1" d="M300.06,477.15A11.67,11.67,0,0,0,294.8,468c-2.92-1.7-5.29-.34-5.3,3a11.69,11.69,0,0,0,5.26,9.18C297.68,481.88,300.05,480.52,300.06,477.15Z"/><rect class="cls-1" x="237.56" y="474.61" width="24.25" height="50.65" transform="translate(559.17 34.64) rotate(60.17)"/><path class="cls-1" d="M267.65,481l9.48-5.44a19.35,19.35,0,0,1,7.45,13L275.1,494A19.38,19.38,0,0,1,267.65,481Z"/><path class="cls-1" d="M280.22,492.31c0-5.47-3.8-12.13-8.53-14.88s-8.57-.54-8.59,4.93,3.8,12.13,8.53,14.87S280.2,497.78,280.22,492.31Z"/><path class="cls-2" d="M291.23,473.68c1.37-.79,1.37-2.07,0-2.87a5.49,5.49,0,0,0-5,0c-1.37.79-1.38,2.07,0,2.86A5.48,5.48,0,0,0,291.23,473.68Z"/><rect class="cls-1" x="203.32" y="753.24" width="14.97" height="32.29" transform="translate(983.11 969.24) rotate(119.83)"/><path class="cls-1" d="M191.52,764.42a11.7,11.7,0,0,1,5.26-9.18c2.92-1.69,5.29-.33,5.3,3a11.69,11.69,0,0,1-5.26,9.18C193.9,769.16,191.53,767.8,191.52,764.42Z"/><rect class="cls-1" x="229.76" y="761.88" width="24.25" height="50.65" transform="translate(1045.12 968.96) rotate(119.83)"/><path class="cls-1" d="M223.93,768.28l-9.48-5.43a19.35,19.35,0,0,0-7.45,13l9.48,5.44A19.4,19.4,0,0,0,223.93,768.28Z"/><path class="cls-1" d="M211.36,779.59c0-5.47,3.8-12.13,8.53-14.88s8.57-.54,8.59,4.93-3.8,12.12-8.53,14.87S211.38,785.05,211.36,779.59Z"/><path class="cls-2" d="M200.35,761c-1.37-.79-1.37-2.07,0-2.87a5.49,5.49,0,0,1,5,0c1.37.78,1.38,2.07,0,2.86A5.48,5.48,0,0,1,200.35,761Z"/><path class="cls-2" d="M468.37,1064.87,159.05,886.28c-8.75-5-7.66-13.88,2.45-19.71L372.13,745c10.1-5.83,25.39-6.46,34.14-1.41L715.59,922.18c8.75,5.05,7.66,13.88-2.45,19.71L502.51,1063.46C492.41,1069.29,477.12,1069.92,468.37,1064.87Z"/><path class="cls-4" d="M721.49,888.83l-42.28-5.58L406.27,725.66c-8.75-5-24-4.42-34.14,1.42L178.72,838.7l-25.57-3.38v14.51h0c-.17,3.36,1.74,6.58,5.87,9l309.32,178.59c8.75,5,24,4.41,34.14-1.42L713.14,914.4c5.69-3.28,8.52-7.51,8.35-11.48h0Z"/><path class="cls-1" d="M516.41,789.25,497,778.06H283.82L178.72,838.7l-25.57-3.38v14.51h0c-.17,3.36,1.74,6.58,5.87,9l309.32,178.59c4.63,2.66,11.08,3.73,17.62,3.3Z"/><path class="cls-1" d="M164.5,836.82l-11.35-1.5v14.51h0c-.17,3.36,1.74,6.58,5.87,9l5.45,3.14Z"/><path class="cls-1" d="M471.49,1038.83c8.29,3.15,20.15,2.46,29-1.8v-32.36h-29Z"/><path class="cls-1" d="M468.37,1022.9,159.05,844.31c-8.75-5.06-7.66-13.88,2.45-19.71L372.13,703c10.1-5.83,25.39-6.47,34.14-1.42L715.59,880.2c8.75,5.06,7.66,13.88-2.45,19.71L502.51,1021.48C492.41,1027.31,477.12,1028,468.37,1022.9Z"/><path class="cls-3" d="M713.14,894.62,502.51,1016.18c-10.1,5.83-25.39,6.47-34.14,1.42L159.05,839a11.51,11.51,0,0,1-5.44-6c-1.37,4.14.37,8.32,5.44,11.25L468.37,1022.9c8.75,5.05,24,4.41,34.14-1.42L713.14,899.91c6.79-3.92,9.5-9.19,7.89-13.76C720,889.17,717.4,892.16,713.14,894.62Z"/><path class="cls-4" d="M290.61,785.18l-14-8.08c-1.12-.65-1-1.78.32-2.53L293.45,765a4.86,4.86,0,0,1,4.38-.18l14,8.08c1.12.65,1,1.78-.32,2.53L295,785A4.86,4.86,0,0,1,290.61,785.18Z"/><path class="cls-4" d="M312.22,797.66l-14-8.08c-1.13-.65-1-1.78.31-2.53l16.52-9.54a4.88,4.88,0,0,1,4.39-.18l14,8.08c1.12.65,1,1.78-.31,2.53l-16.52,9.54A4.88,4.88,0,0,1,312.22,797.66Z"/><path class="cls-4" d="M333.84,810.14l-14-8.08c-1.12-.65-1-1.78.31-2.53L336.67,790a4.88,4.88,0,0,1,4.39-.18l14,8.08c1.13.65,1,1.78-.31,2.53L338.22,810A4.86,4.86,0,0,1,333.84,810.14Z"/><path class="cls-4" d="M363.73,799.83l-14-8.08c-1.12-.65-1-1.78.32-2.53l13.87-8a4.86,4.86,0,0,1,4.38-.19l14,8.08c1.12.65,1,1.79-.32,2.54l-13.87,8A4.86,4.86,0,0,1,363.73,799.83Z"/><path class="cls-4" d="M385.34,812.31l-14-8.08c-1.13-.65-1-1.78.31-2.53l13.87-8a4.89,4.89,0,0,1,4.38-.18l14,8.08c1.12.65,1,1.79-.32,2.53l-13.86,8A4.88,4.88,0,0,1,385.34,812.31Z"/><path class="cls-4" d="M407,824.79l-14-8.08c-1.12-.65-1-1.78.32-2.53l13.86-8a4.88,4.88,0,0,1,4.39-.18l14,8.08c1.13.65,1,1.78-.31,2.53l-13.87,8A4.86,4.86,0,0,1,407,824.79Z"/><path class="cls-4" d="M428.57,837.27l-14-8.08c-1.12-.65-1-1.78.32-2.53l13.87-8a4.86,4.86,0,0,1,4.38-.18l14,8.08c1.12.65,1,1.78-.32,2.53l-13.87,8A4.86,4.86,0,0,1,428.57,837.27Z"/><path class="cls-4" d="M450.18,849.75l-14-8.08c-1.13-.65-1-1.78.31-2.53l13.87-8a4.86,4.86,0,0,1,4.38-.18l14,8.08c1.12.65,1,1.78-.31,2.53l-13.87,8A4.88,4.88,0,0,1,450.18,849.75Z"/><path class="cls-4" d="M471.8,862.23l-14-8.08c-1.12-.65-1-1.79.32-2.53l13.86-8a4.88,4.88,0,0,1,4.39-.18l14,8.08c1.13.65,1,1.78-.31,2.53l-13.87,8A4.89,4.89,0,0,1,471.8,862.23Z"/><path class="cls-4" d="M493.41,874.71l-14-8.08c-1.13-.65-1-1.79.31-2.54l13.87-8a4.86,4.86,0,0,1,4.38-.18L512,864c1.12.65,1,1.78-.32,2.53l-13.86,8A4.91,4.91,0,0,1,493.41,874.71Z"/><path class="cls-4" d="M515,887.18l-14-8.08c-1.12-.64-1-1.78.31-2.53l13.87-8a4.91,4.91,0,0,1,4.39-.19l14,8.09c1.13.64,1,1.78-.31,2.53l-13.87,8A4.88,4.88,0,0,1,515,887.18Z"/><path class="cls-4" d="M536.64,899.66l-14-8.08c-1.12-.65-1-1.78.32-2.53l13.87-8a4.86,4.86,0,0,1,4.38-.19l14,8.08c1.12.65,1,1.79-.32,2.53l-13.87,8A4.86,4.86,0,0,1,536.64,899.66Z"/><path class="cls-4" d="M558.25,912.14l-14-8.08c-1.13-.65-1-1.78.31-2.53l13.87-8a4.86,4.86,0,0,1,4.38-.18l14,8.08c1.12.65,1,1.78-.32,2.53l-13.86,8A4.88,4.88,0,0,1,558.25,912.14Z"/><path class="cls-2" d="M395.58,793.93l-14-8.08c-1.12-.65-1-1.79.31-2.54l13.87-8a4.88,4.88,0,0,1,4.39-.18l14,8.08c1.13.65,1,1.78-.31,2.53l-13.87,8A4.89,4.89,0,0,1,395.58,793.93Z"/><path class="cls-2" d="M373.64,781.26l-14-8.08c-1.12-.65-1-1.78.32-2.53l13.87-8a4.86,4.86,0,0,1,4.38-.18l14,8.08c1.12.65,1,1.78-.32,2.53l-13.87,8A4.86,4.86,0,0,1,373.64,781.26Z"/><path class="cls-4" d="M351.67,768.58l-30.15-17.41c-1.12-.65-1-1.78.32-2.53l13.87-8a4.89,4.89,0,0,1,4.38-.18l30.14,17.41c1.13.64,1,1.78-.31,2.53l-13.87,8A4.89,4.89,0,0,1,351.67,768.58Z"/><path class="cls-4" d="M367,753.15,342.56,739c-1.12-.64-1-1.78.32-2.53l13.87-8a4.86,4.86,0,0,1,4.38-.18l24.46,14.12c1.13.65,1,1.78-.31,2.53l-13.87,8A4.86,4.86,0,0,1,367,753.15Z"/><path class="cls-2" d="M417.19,806.4l-14-8.08c-1.12-.64-1-1.78.32-2.53l13.87-8a4.89,4.89,0,0,1,4.38-.19l14,8.09c1.12.64,1,1.78-.32,2.53l-13.87,8A4.86,4.86,0,0,1,417.19,806.4Z"/><path class="cls-4" d="M438.8,818.88l-14-8.08c-1.13-.65-1-1.78.31-2.53l13.87-8a4.86,4.86,0,0,1,4.38-.19l14,8.08c1.12.65,1,1.79-.32,2.53l-13.86,8A4.88,4.88,0,0,1,438.8,818.88Z"/><path class="cls-4" d="M460.42,831.36l-14-8.08c-1.12-.65-1-1.78.32-2.53l13.86-8a4.88,4.88,0,0,1,4.39-.18l14,8.08c1.13.65,1,1.78-.31,2.53l-13.87,8A4.86,4.86,0,0,1,460.42,831.36Z"/><path class="cls-4" d="M482,843.84l-14-8.08c-1.12-.65-1-1.78.32-2.53l13.87-8a4.86,4.86,0,0,1,4.38-.18l14,8.08c1.12.65,1,1.78-.32,2.53l-13.87,8A4.86,4.86,0,0,1,482,843.84Z"/><path class="cls-4" d="M503.64,856.32l-14-8.08c-1.13-.65-1-1.78.31-2.53l13.87-8a4.86,4.86,0,0,1,4.38-.18l14,8.08c1.12.65,1,1.78-.31,2.53l-13.87,8A4.88,4.88,0,0,1,503.64,856.32Z"/><path class="cls-4" d="M525.26,868.8l-14-8.08c-1.12-.65-1-1.78.32-2.53l13.86-8a4.88,4.88,0,0,1,4.39-.18l14,8.08c1.13.65,1,1.78-.31,2.53l-13.87,8A4.86,4.86,0,0,1,525.26,868.8Z"/><path class="cls-4" d="M546.87,881.28l-14-8.08c-1.13-.65-1-1.79.31-2.54l13.87-8a4.86,4.86,0,0,1,4.38-.18l14,8.08c1.12.65,1,1.78-.32,2.53l-13.86,8A4.88,4.88,0,0,1,546.87,881.28Z"/><path class="cls-4" d="M568.49,893.76l-14-8.09c-1.12-.64-1-1.78.31-2.53l13.87-8a4.88,4.88,0,0,1,4.39-.18l14,8.08c1.13.64,1,1.78-.31,2.53l-13.87,8A4.89,4.89,0,0,1,568.49,893.76Z"/><path class="cls-4" d="M590.1,906.23l-14-8.08c-1.12-.65-1-1.78.32-2.53l13.87-8a4.89,4.89,0,0,1,4.38-.19l14,8.08c1.12.65,1,1.79-.32,2.54l-13.87,8A4.86,4.86,0,0,1,590.1,906.23Z"/><path class="cls-4" d="M628.52,928.42,598,910.79c-1.13-.65-1-1.78.31-2.53l13.87-8a4.86,4.86,0,0,1,4.38-.18l30.54,17.63c1.12.65,1,1.78-.32,2.53l-13.86,8A4.88,4.88,0,0,1,628.52,928.42Z"/><path class="cls-4" d="M670.6,904.12l-25.77-14.88c-1.13-.65-1-1.78.31-2.53l13.87-8a4.86,4.86,0,0,1,4.38-.19l25.78,14.88c1.12.65,1,1.79-.32,2.54l-13.86,8A4.88,4.88,0,0,1,670.6,904.12Z"/><path class="cls-4" d="M455,804l-14-8.08c-1.12-.65-1-1.78.32-2.53l13.87-8a4.89,4.89,0,0,1,4.38-.18l14,8.08c1.12.65,1,1.79-.32,2.53l-13.87,8A4.86,4.86,0,0,1,455,804Z"/><path class="cls-4" d="M432.89,791.17l-14-8.08c-1.12-.65-1-1.78.32-2.53l13.86-8a4.91,4.91,0,0,1,4.39-.19l14,8.08c1.13.65,1,1.79-.31,2.54l-13.87,8A4.86,4.86,0,0,1,432.89,791.17Z"/><path class="cls-2" d="M410.74,778.38l-14-8.08c-1.12-.64-1-1.78.32-2.53l13.86-8a4.91,4.91,0,0,1,4.39-.19l14,8.09c1.13.64,1,1.78-.31,2.53l-13.87,8A4.86,4.86,0,0,1,410.74,778.38Z"/><path class="cls-4" d="M388.58,765.6l-14-8.08c-1.12-.65-1-1.79.31-2.54l13.87-8a4.88,4.88,0,0,1,4.39-.18l14,8.08c1.13.65,1,1.78-.31,2.53l-13.87,8A4.91,4.91,0,0,1,388.58,765.6Z"/><path class="cls-4" d="M476.65,816.44l-14-8.08c-1.13-.65-1-1.78.31-2.53l13.87-8a4.86,4.86,0,0,1,4.38-.18l14,8.08c1.12.65,1,1.78-.32,2.53l-13.86,8A4.88,4.88,0,0,1,476.65,816.44Z"/><path class="cls-4" d="M498.27,828.92l-14-8.08c-1.12-.65-1-1.78.32-2.53l13.86-8a4.88,4.88,0,0,1,4.39-.18l14,8.08c1.13.65,1,1.78-.31,2.53l-13.87,8A4.86,4.86,0,0,1,498.27,828.92Z"/><path class="cls-4" d="M519.88,841.4l-14-8.08c-1.12-.65-1-1.78.32-2.53l13.87-8a4.86,4.86,0,0,1,4.38-.18l14,8.08c1.12.65,1,1.78-.32,2.53l-13.87,8A4.86,4.86,0,0,1,519.88,841.4Z"/><path class="cls-4" d="M541.49,853.88l-14-8.08c-1.13-.65-1-1.78.31-2.53l13.87-8a4.86,4.86,0,0,1,4.38-.18l14,8.08c1.12.65,1,1.78-.31,2.53l-13.87,8A4.88,4.88,0,0,1,541.49,853.88Z"/><path class="cls-4" d="M563.11,866.36l-14-8.08c-1.12-.65-1-1.79.32-2.54l13.86-8a4.88,4.88,0,0,1,4.39-.18l14,8.08c1.13.65,1,1.78-.31,2.53l-13.87,8A4.86,4.86,0,0,1,563.11,866.36Z"/><path class="cls-4" d="M584.72,878.83l-14-8.08c-1.13-.64-1-1.78.31-2.53l13.87-8a4.86,4.86,0,0,1,4.38-.18l14,8.08c1.12.64,1,1.78-.32,2.53l-13.86,8A4.88,4.88,0,0,1,584.72,878.83Z"/><path class="cls-4" d="M606.34,891.31l-14-8.08c-1.12-.65-1-1.78.31-2.53l13.87-8a4.88,4.88,0,0,1,4.39-.19l14,8.08c1.13.65,1,1.79-.31,2.54l-13.87,8A4.86,4.86,0,0,1,606.34,891.31Z"/><path class="cls-4" d="M628,903.79l-14-8.08c-1.12-.65-1-1.78.32-2.53l13.87-8a4.89,4.89,0,0,1,4.38-.18l14,8.08c1.12.65,1,1.79-.32,2.53l-13.87,8A4.86,4.86,0,0,1,628,903.79Z"/><path class="cls-4" d="M649.56,916.27l-14-8.08c-1.13-.65-1-1.78.31-2.53l13.87-8a4.86,4.86,0,0,1,4.38-.18l14,8.08c1.12.65,1,1.78-.32,2.53l-13.86,8A4.88,4.88,0,0,1,649.56,916.27Z"/><path class="cls-4" d="M443.66,773.1l-14-8.08c-1.12-.65-1-1.78.32-2.53l13.86-8a4.88,4.88,0,0,1,4.39-.18l14,8.08c1.13.65,1,1.78-.31,2.53l-13.87,8A4.86,4.86,0,0,1,443.66,773.1Z"/><path class="cls-4" d="M422.15,760.68l-14-8.08c-1.13-.65-1-1.78.31-2.53l13.87-8a4.86,4.86,0,0,1,4.38-.18l14,8.08c1.12.65,1,1.78-.32,2.53l-13.86,8A4.88,4.88,0,0,1,422.15,760.68Z"/><path class="cls-4" d="M400.65,748.26l-14-8.08c-1.12-.64-1-1.78.31-2.53l13.87-8a4.91,4.91,0,0,1,4.39-.19l14,8.08c1.13.65,1,1.79-.31,2.54l-13.87,8A4.86,4.86,0,0,1,400.65,748.26Z"/><path class="cls-4" d="M379.14,735.85l-14-8.08c-1.12-.65-1-1.78.32-2.53l13.87-8a4.86,4.86,0,0,1,4.38-.18l14,8.08c1.12.65,1,1.78-.32,2.53l-13.87,8A4.86,4.86,0,0,1,379.14,735.85Z"/><path class="cls-4" d="M401.25,723.08l-14-8.08c-1.13-.65-1-1.78.31-2.53l4.59-2.65a4.86,4.86,0,0,1,4.38-.18l14,8.08c1.12.65,1,1.78-.32,2.53l-4.58,2.65A4.88,4.88,0,0,1,401.25,723.08Z"/><path class="cls-4" d="M429.32,739.28l-14-8.08c-1.12-.65-1-1.78.32-2.53l4.58-2.64a4.88,4.88,0,0,1,4.39-.19l14,8.08c1.13.65,1,1.79-.31,2.54l-4.59,2.64A4.86,4.86,0,0,1,429.32,739.28Z"/><path class="cls-4" d="M450.74,751.65l-14-8.08c-1.12-.65-1-1.78.32-2.53l4.58-2.65a4.86,4.86,0,0,1,4.38-.18l14,8.08c1.12.65,1,1.78-.31,2.53l-4.59,2.65A4.86,4.86,0,0,1,450.74,751.65Z"/><path class="cls-4" d="M472.15,764l-14-8.08c-1.13-.65-1-1.78.31-2.53l4.59-2.65a4.89,4.89,0,0,1,4.38-.18l14,8.08c1.12.65,1,1.79-.32,2.53l-4.58,2.65A4.88,4.88,0,0,1,472.15,764Z"/><path class="cls-4" d="M493.57,776.38l-14-8.08c-1.12-.65-1-1.78.32-2.53l4.58-2.65a4.88,4.88,0,0,1,4.39-.18l14,8.08c1.13.65,1,1.78-.31,2.53L498,776.2A4.86,4.86,0,0,1,493.57,776.38Z"/><path class="cls-4" d="M613.14,845.41l-14-8.08c-1.12-.65-1-1.78.31-2.53l4.59-2.65a4.86,4.86,0,0,1,4.38-.18l14,8.08c1.12.65,1,1.78-.32,2.53l-4.58,2.65A4.86,4.86,0,0,1,613.14,845.41Z"/><path class="cls-4" d="M634.55,857.77l-14-8.08c-1.13-.65-1-1.78.31-2.53l4.59-2.64a4.89,4.89,0,0,1,4.38-.19l14,8.08c1.12.65,1,1.79-.32,2.54l-4.58,2.64A4.88,4.88,0,0,1,634.55,857.77Z"/><path class="cls-4" d="M656,870.14l-14-8.08c-1.12-.65-1-1.78.32-2.53l4.58-2.65a4.88,4.88,0,0,1,4.39-.18l14,8.08c1.13.65,1,1.78-.31,2.53L660.35,870A4.86,4.86,0,0,1,656,870.14Z"/><path class="cls-4" d="M677.39,882.5l-14-8.08c-1.12-.65-1-1.78.31-2.53l4.59-2.64a4.86,4.86,0,0,1,4.38-.19l14,8.08c1.12.65,1,1.79-.32,2.54l-4.58,2.64A4.86,4.86,0,0,1,677.39,882.5Z"/><path class="cls-4" d="M465.27,785.58l-14-8.08c-1.13-.65-1-1.79.31-2.54l13.87-8a4.86,4.86,0,0,1,4.38-.18l14,8.08c1.12.65,1,1.78-.32,2.53l-13.86,8A4.88,4.88,0,0,1,465.27,785.58Z"/><path class="cls-4" d="M486.89,798.05l-14-8.08c-1.12-.64-1-1.78.31-2.53l13.87-8a4.88,4.88,0,0,1,4.39-.18l14,8.08c1.13.64,1,1.78-.31,2.53l-13.87,8A4.86,4.86,0,0,1,486.89,798.05Z"/><path class="cls-4" d="M508.5,810.53l-14-8.08c-1.12-.65-1-1.78.32-2.53l13.87-8a4.89,4.89,0,0,1,4.38-.19l14,8.08c1.12.65,1,1.79-.32,2.54l-13.87,8A4.86,4.86,0,0,1,508.5,810.53Z"/><path class="cls-4" d="M530.11,823l-14-8.08c-1.13-.65-1-1.78.31-2.53l13.87-8a4.89,4.89,0,0,1,4.38-.18l14,8.08c1.12.65,1,1.79-.32,2.53l-13.86,8A4.88,4.88,0,0,1,530.11,823Z"/><path class="cls-4" d="M551.73,835.49l-14-8.08c-1.12-.65-1-1.78.32-2.53l13.86-8a4.88,4.88,0,0,1,4.39-.18l14,8.08c1.13.65,1,1.78-.31,2.53l-13.87,8A4.86,4.86,0,0,1,551.73,835.49Z"/><path class="cls-4" d="M573.34,848l-14-8.08c-1.12-.65-1-1.78.32-2.53l13.87-8a4.86,4.86,0,0,1,4.38-.18l14,8.08c1.12.65,1,1.78-.32,2.53l-13.87,8A4.86,4.86,0,0,1,573.34,848Z"/><path class="cls-4" d="M595,860.45l-14-8.08c-1.13-.65-1-1.78.31-2.53l13.87-8a4.88,4.88,0,0,1,4.39-.18l14,8.08c1.12.65,1,1.78-.31,2.53l-13.87,8A4.88,4.88,0,0,1,595,860.45Z"/><path class="cls-4" d="M616.57,872.93l-14-8.08c-1.12-.65-1-1.79.32-2.53l13.86-8a4.88,4.88,0,0,1,4.39-.18l14,8.08c1.13.65,1,1.78-.31,2.53l-13.87,8A4.89,4.89,0,0,1,616.57,872.93Z"/><path class="cls-4" d="M638.18,885.41l-14-8.08c-1.13-.65-1-1.79.31-2.54l13.87-8a4.86,4.86,0,0,1,4.38-.18l14,8.08c1.12.65,1,1.78-.32,2.53l-13.86,8A4.91,4.91,0,0,1,638.18,885.41Z"/><path class="cls-4" d="M341.7,787.12l-41.22-23.8c-1.12-.65-1-1.78.32-2.53l13.87-8a4.86,4.86,0,0,1,4.38-.18l41.22,23.8c1.12.65,1,1.78-.32,2.53l-13.86,8A4.91,4.91,0,0,1,341.7,787.12Z"/><path class="cls-4" d="M607.23,940.42,566,916.62c-1.12-.65-1-1.78.32-2.53l13.87-8a4.86,4.86,0,0,1,4.38-.19l41.22,23.8c1.12.65,1,1.78-.32,2.53l-13.86,8A4.88,4.88,0,0,1,607.23,940.42Z"/><path class="cls-4" d="M520.8,918.08l-14-8.08c-1.12-.65-1-1.78.32-2.53l16.52-9.54a4.86,4.86,0,0,1,4.38-.18l14,8.08c1.12.65,1,1.78-.32,2.53l-16.52,9.54A4.86,4.86,0,0,1,520.8,918.08Z"/><path class="cls-4" d="M363.84,827.46l-22.39-12.92c-1.12-.65-1-1.78.32-2.53l16.52-9.54a4.86,4.86,0,0,1,4.38-.18l22.39,12.92c1.12.65,1,1.78-.32,2.53l-16.52,9.54A4.86,4.86,0,0,1,363.84,827.46Z"/><path class="cls-4" d="M500,906.06l-22.38-12.93c-1.13-.64-1-1.78.31-2.53l16.52-9.53a4.88,4.88,0,0,1,4.39-.19l22.38,12.93c1.12.65,1,1.78-.31,2.53l-16.52,9.54A4.91,4.91,0,0,1,500,906.06Z"/><path class="cls-4" d="M395,845.46l-22.38-12.92c-1.13-.65-1-1.78.31-2.53l16.52-9.54a4.88,4.88,0,0,1,4.39-.18l22.38,12.92c1.12.65,1,1.79-.31,2.53l-16.52,9.54A4.88,4.88,0,0,1,395,845.46Z"/><path class="cls-4" d="M394,820.38l97.31,56.18a1.34,1.34,0,0,1,0,2.53l-16.84,9.72a4.81,4.81,0,0,1-4.37,0l-97.32-56.18Z"/><path class="cls-4" d="M581.2,940.71l15.59,9c.92.53.81,1.46-.25,2.07l-6.76,3.9a4,4,0,0,1-3.6.15l-15.59-9c-.92-.53-.8-1.46.26-2.07l6.76-3.91A4,4,0,0,1,581.2,940.71Z"/><path class="cls-4" d="M559.41,928.12l15.59,9c.92.54.81,1.47-.26,2.08L568,943.1a4,4,0,0,1-3.59.15l-15.59-9c-.92-.53-.8-1.46.26-2.08l6.76-3.9A4,4,0,0,1,559.41,928.12Z"/><path class="cls-4" d="M537.8,915.65l15.59,9c.92.53.8,1.46-.26,2.07l-6.76,3.9a4,4,0,0,1-3.59.15l-15.59-9c-.92-.53-.81-1.46.26-2.07l6.75-3.91A4,4,0,0,1,537.8,915.65Z"/><path class="cls-4" d="M571.35,921.23l15.59,9c.92.54.8,1.46-.26,2.08l-6.76,3.9a4,4,0,0,1-3.59.15l-15.59-9c-.92-.53-.81-1.46.25-2.08l6.76-3.9A4,4,0,0,1,571.35,921.23Z"/><path class="cls-1" d="M387.94,955.69a13.31,13.31,0,0,1-6.52-1.53l-108-62.38a5.49,5.49,0,0,1-3.1-4.72c0-2.16,1.47-4.24,4-5.72l71.51-41.29c4.39-2.53,10.86-2.77,14.72-.54l108,62.37a5.5,5.5,0,0,1,3.1,4.73c0,2.15-1.47,4.24-4,5.72l-71.52,41.29A16.76,16.76,0,0,1,387.94,955.69ZM354.08,841.35a13.5,13.5,0,0,0-6.55,1.62L276,884.26c-1.47.85-2.35,1.9-2.35,2.8s.89,1.5,1.42,1.8l108,62.38h0c2.82,1.62,8,1.38,11.34-.54L466,909.41c1.47-.85,2.35-1.9,2.35-2.8s-.89-1.5-1.41-1.8l-108-62.38A9.92,9.92,0,0,0,354.08,841.35Z"/><path class="cls-3" d="M363,887.73l10.59-5.93a4.35,4.35,0,0,1,3.84.18h0c1.14.65,1.26,1.63.28,2.18l-10.59,5.93a4.35,4.35,0,0,1-3.84-.18h0C362.13,889.26,362,888.28,363,887.73Z"/><path class="cls-3" d="M340.5,900.33l15.61-8.75a4.35,4.35,0,0,1,3.84.18h0c1.14.66,1.26,1.63.28,2.18l-15.62,8.75a4.3,4.3,0,0,1-3.83-.19h0C339.64,901.85,339.52,900.88,340.5,900.33Z"/><path class="cls-3" d="M398,907.19l20.22-11.33a4.3,4.3,0,0,1,3.83.19h0c1.14.65,1.26,1.62.28,2.17l-20.21,11.32a4.35,4.35,0,0,1-3.84-.18h0C397.17,908.71,397,907.74,398,907.19Z"/><path class="cls-3" d="M394.38,889.69,401,886a4.35,4.35,0,0,1,3.84.18h0c1.13.66,1.26,1.63.28,2.18l-6.62,3.71a4.35,4.35,0,0,1-3.84-.19h0C393.52,891.21,393.39,890.24,394.38,889.69Z"/><path class="cls-3" d="M379.5,878.48l4.25-2.38a4.33,4.33,0,0,1,3.83.18h0c1.14.65,1.26,1.63.28,2.18l-4.25,2.38a4.33,4.33,0,0,1-3.83-.18h0C378.64,880,378.52,879,379.5,878.48Z"/><path class="cls-3" d="M361.23,869.17l5.27-2.95a4.35,4.35,0,0,1,3.84.18h0c1.13.65,1.26,1.63.28,2.18l-5.28,2.95a4.33,4.33,0,0,1-3.83-.18h0C360.37,870.7,360.24,869.72,361.23,869.17Z"/><path class="cls-3" d="M340.71,880.67l13.91-7.79a4.33,4.33,0,0,1,3.83.18h0c1.14.65,1.26,1.63.28,2.18L344.83,883a4.35,4.35,0,0,1-3.84-.18h0C339.86,882.19,339.73,881.22,340.71,880.67Z"/><path class="cls-3" d="M347.88,866.88l10-5.6a4.33,4.33,0,0,1,3.83.18h0c1.14.65,1.27,1.63.28,2.18l-10,5.6a4.32,4.32,0,0,1-3.84-.19h0C347,868.4,346.9,867.43,347.88,866.88Z"/><path class="cls-3" d="M369.77,903.47l17.67-9.9a4.33,4.33,0,0,1,3.83.19h0c1.14.65,1.27,1.62.28,2.17l-17.67,9.9a4.33,4.33,0,0,1-3.83-.18h0C368.91,905,368.79,904,369.77,903.47Z"/><path class="cls-3" d="M378.82,908.17l30.79-17.25a4.35,4.35,0,0,1,3.84.18h0c1.14.66,1.26,1.63.28,2.18l-30.79,17.25a4.35,4.35,0,0,1-3.84-.18h0C378,909.7,377.84,908.72,378.82,908.17Z"/><path class="cls-3" d="M374.7,890.94l17.67-9.9a4.33,4.33,0,0,1,3.83.18h0c1.14.65,1.27,1.63.28,2.18l-17.66,9.9a4.35,4.35,0,0,1-3.84-.18h0C373.84,892.46,373.72,891.49,374.7,890.94Z"/><path class="cls-3" d="M356.37,911l6.42-3.6a4.33,4.33,0,0,1,3.83.19h0c1.14.65,1.27,1.62.28,2.17l-6.42,3.6a4.33,4.33,0,0,1-3.83-.18h0C355.51,912.51,355.39,911.53,356.37,911Z"/><path class="cls-3" d="M353.88,883.06l21.24-11.9a4.35,4.35,0,0,1,3.84.18h0c1.14.65,1.26,1.63.28,2.18L358,885.42a4.32,4.32,0,0,1-3.84-.19h0C353,884.58,352.9,883.61,353.88,883.06Z"/><path class="cls-2" d="M225.12,678.42a44,44,0,0,0-5.61-2.68h.06L208.77,671l.82,1.89a69.68,69.68,0,0,0-25.31-.27l.5-2.09-12.7,5.62h.08a43.52,43.52,0,0,0-4.75,2.31c-15.94,9.2-15.94,24.12,0,33.32s41.78,9.2,57.71,0S241.06,687.63,225.12,678.42Z"/><path class="cls-1" d="M209.79,687.11c-7.47,4.31-19.58,4.31-27,0s-7.46-11.3,0-15.61,19.58-4.31,27,0S217.26,682.8,209.79,687.11Z"/><path class="cls-1" d="M196.27,682.28h0a6.5,6.5,0,0,1-6.5-6.5V593.6h13v82.18A6.5,6.5,0,0,1,196.27,682.28Z"/><path class="cls-1" d="M200.84,596.59a10.4,10.4,0,0,1-9.38,0c-2.6-1.5-2.6-3.93,0-5.42a10.34,10.34,0,0,1,9.38,0C203.43,592.66,203.43,595.09,200.84,596.59Z"/><path class="cls-2" d="M196.27,596.42h0a5.27,5.27,0,0,1-5.27-5.27V513.91h10.54v77.24A5.27,5.27,0,0,1,196.27,596.42Z"/><path class="cls-1" d="M272,554.38v-3l4.27-.62,4.79-3.58a3.21,3.21,0,0,1,3.15-.11l3.53,2,3.5-.5v3.06h0a1.16,1.16,0,0,1-.8.93l-11.14,5a3.5,3.5,0,0,1-2.92-.11l-3.71-2.14a1.07,1.07,0,0,1-.63-.9Z"/><path class="cls-1" d="M272.5,550.55l8.6-6.44a3.21,3.21,0,0,1,3.15-.11l6.41,3.7c.9.52.8,1.37-.2,1.82l-11.14,5a3.46,3.46,0,0,1-2.92-.11l-3.71-2.14C271.9,551.78,271.82,551.06,272.5,550.55Z"/><path class="cls-2" d="M258,565.14a6.94,6.94,0,0,0,3.44-.85l13.36-7.71a1.54,1.54,0,0,0-1.55-2.67l-13.35,7.71a4.44,4.44,0,0,1-3.8,0l-22.21-12.86a1.54,1.54,0,0,0-1.54,2.67l22.21,12.86A6.94,6.94,0,0,0,258,565.14Z"/><polygon class="cls-6" points="129.55 536.88 151 524.41 138.98 518.98 128.7 526.27 129.55 536.88"/><path class="cls-1" d="M267.3,518.37a27.62,27.62,0,0,1-3.61-2.25L218,482.62c-8.25-6.05-16.75-7.6-23.32-4.27a4.8,4.8,0,0,0-.48.3l-.05,0L131,515.26l5.67,1.89,22.11,10,30.07,21.34,23.74,12.6,1.08.22c5.53-4.66,11.73-8.66,15.13-15.45,5.87-10.29,22.24-13.23,31.86-21.57,1,.62,1.94,1.19,2.91,1.69C265.56,524.05,266.1,521.27,267.3,518.37Z"/><path class="cls-1" d="M287.35,503.26a4.2,4.2,0,0,0-2.59.91v0L223,539.91l2.26,9.24,2.32-1.1c-3.54,5.52-9,9.14-13.88,13.28l7,1.48,60.5-35.2c.28-.12.57-.22.84-.36a15.58,15.58,0,0,0,2.33-1.48l.11-.07h0c4.6-3.56,7.21-9.75,7.21-17.47v-.73A4.26,4.26,0,0,0,287.35,503.26Z"/><path class="cls-7" d="M202.75,476.64a25.9,25.9,0,0,1,12.13,3.93A25.9,25.9,0,0,0,202.75,476.64Z"/><path class="cls-1" d="M230.88,542.79v-.72a4.25,4.25,0,1,0-8.49,0v.72c0,5.68-1.8,9.85-4.95,11.44-3.56,1.8-9,.48-14.46-3.55l-45.71-33.5c-7-5.15-14.24-7-20.28-5.4l37.75-21.9L131,515.26l5.67,1.89,22.11,10,30.07,21.34,23.74,12.6,1.08.22c5.53-4.66,11.73-8.66,15.13-15.45a17.57,17.57,0,0,1,2.07-2.85C230.87,543,230.88,542.87,230.88,542.79Z"/><path class="cls-2" d="M212.57,564.89c-5,0-10.51-2-15.91-6L151,525.4c-5.5-4-10.9-5.35-14.46-3.55-3.15,1.6-5,5.76-5,11.44a4.25,4.25,0,1,1-8.49,0c0-9,3.5-15.92,9.61-19,6.56-3.33,15.06-1.77,23.32,4.28l45.71,33.49c5.49,4,10.9,5.35,14.46,3.56,3.14-1.6,5-5.77,5-11.44v-.73a4.25,4.25,0,0,1,8.49,0v.73c0,9-3.5,15.91-9.6,19A16.24,16.24,0,0,1,212.57,564.89Z"/><path class="cls-4" d="M176.64,639.78s-8.6-4.34-13.89,2.13-12.85,21.72-13.08,32,8.16,9.62,13.15,7.18,19.57-23.59,20.45-27.73-1-9.75-2.44-10.84S176.64,639.78,176.64,639.78Z"/><path class="cls-1" d="M178.52,637.71l.4,8.92a5.06,5.06,0,0,1-2.52,4.64,9.91,9.91,0,0,1-6.64,1c-6.49-1-7.06-2.89-7.53-11.81S178.52,637.71,178.52,637.71Z"/><path class="cls-4" d="M145.13,622.63s-8.61-4.34-13.9,2.13-12.84,21.72-13.07,32,8.16,9.62,13.15,7.18,19.56-23.59,20.45-27.73-1-9.75-2.45-10.84S145.13,622.63,145.13,622.63Z"/><path class="cls-1" d="M147,620.56l.4,8.92a5.08,5.08,0,0,1-2.52,4.64,9.92,9.92,0,0,1-6.64,1c-6.49-1-7.07-2.89-7.53-11.81S147,620.56,147,620.56Z"/><path class="cls-2" d="M223.83,456.81c-2.55-41.46-44.9,6.1-44.9,6.1l-29,28.41L123.84,520a25.7,25.7,0,0,0-6.48,20.67l10.56,80.4a7.91,7.91,0,0,0,7.92,6.87,25.87,25.87,0,0,0,3.91-.35c9.42-1.46,8.73-10.42,8.73-10.42L146.55,542l54.81-33S226.38,498.27,223.83,456.81Z"/><path class="cls-2" d="M255.34,472.6c-2.55-41.46-44.9,6.1-44.9,6.1l-29,28.41-26.11,28.68a25.77,25.77,0,0,0-6.48,20.67l10.56,80.4a7.89,7.89,0,0,0,7.92,6.86,27.33,27.33,0,0,0,3.92-.34C180.68,641.91,180,633,180,633l-1.93-75.2,54.82-33S257.89,514.06,255.34,472.6Z"/><path class="cls-1" d="M230.29,339.52c32.11,13.31,31.46,32.29,31.46,32.29s-6.29,69.58-4.14,116.05c.9,19.43-103.21,20.91-87.69-30.92,18.31-61.11,11.45-110.58,20-118S222,336.07,230.29,339.52Z"/><path class="cls-8" d="M240.62,356.35c-1.68,6.51-10.22,9.95-19.08,7.67s-14.68-9.42-13-15.94,10.22-9.95,19.08-7.67S242.3,349.83,240.62,356.35Z"/><path class="cls-3" d="M227,366.26a23.34,23.34,0,0,1-5.86-.76c-9.66-2.48-16-10.47-14.1-17.8.93-3.64,3.69-6.54,7.76-8.18a22.49,22.49,0,0,1,24.44,6.3c2.77,3.4,3.78,7.27,2.84,10.91s-3.69,6.54-7.76,8.18A19.64,19.64,0,0,1,227,366.26Zm-4.89-25a16.67,16.67,0,0,0-6.17,1.13c-3.14,1.26-5.24,3.43-5.93,6.1-1.47,5.69,3.87,12,11.89,14.06a18.3,18.3,0,0,0,11.28-.47c3.13-1.27,5.24-3.43,5.93-6.1h0c.69-2.66-.11-5.58-2.25-8.2a18.25,18.25,0,0,0-9.64-5.86A20.19,20.19,0,0,0,222.13,341.24Z"/><path class="cls-8" d="M217.41,338.07s.28,1.29-.27,11.46c-.18,3.2,11,6.19,13.92,3.29s1.73-5.9,2.43-16.79S217.41,338.07,217.41,338.07Z"/><path class="cls-9" d="M233.49,336s-2.76,10.09-16.36,14l.21-9.17Z"/><circle class="cls-8" cx="218.17" cy="316.57" r="24.72" transform="matrix(0.51, -0.86, 0.86, 0.51, -165.33, 343.86)"/><path class="cls-9" d="M223.85,317.48s-13.61,5.83-23,5.89-7.35-7.82-7.35-7.82l28-4Z"/><path class="cls-4" d="M198,319s11.85-5,22.25-2.93a10.91,10.91,0,0,1,6.29,3.73,3.66,3.66,0,0,0,1.9,1.38c1.84.42,4.86-7.23,8.45-7.41s6,2.37,3,7.07-1.94,10-.59,10.73,15.69-10.23,3-35.29-44.79-11.57-49.78-6.49c0,0-5.27,4.59-9.55.51C183.05,290.31,178.25,326.26,198,319Z"/><path class="cls-8" d="M243.74,422.64v18.81a7.67,7.67,0,0,1-2.5,5.66l-38.62,35.21L207,489l51-37a10.39,10.39,0,0,0,4.23-7.31l3.44-32.79Z"/><path class="cls-1" d="M259,362.41s11.72,17.62,16.09,64c0,0-20,6.48-31.38,2.8S259,362.41,259,362.41Z"/><path class="cls-1" d="M241.6,384.69s-4.59,24.55-4.85,36.09a7.37,7.37,0,0,0,4.85,7.11h0Z"/><path class="cls-4" d="M231.58,506.77,223,505.64l-55.1-31.81a7.67,7.67,0,0,0-6.9.28l-39,22.54-5.16-.68v5.14h0a2,2,0,0,0,1.18,1.81L180.48,539a7.68,7.68,0,0,0,6.89-.28l42.52-24.55a2.78,2.78,0,0,0,1.69-2.31h0Z"/><path class="cls-1" d="M190.17,486.67l-3.91-2.26h-43L122,496.65l-5.16-.68v5.14h0a2,2,0,0,0,1.18,1.81L180.48,539a6.4,6.4,0,0,0,3.55.67Z"/><path class="cls-1" d="M119.12,496.27l-2.29-.3v5.14h0a2,2,0,0,0,1.18,1.81l1.1.63Z"/><path class="cls-1" d="M181.1,539.26a8,8,0,0,0,5.86-.36v-8.74H181.1Z"/><path class="cls-3" d="M180.48,533.84,118,497.78c-1.76-1-1.54-2.8.5-4L161,469.26a7.67,7.67,0,0,1,6.9-.29L230.39,505c1.76,1,1.54,2.8-.5,4l-42.52,24.54A7.65,7.65,0,0,1,180.48,533.84Z"/><path class="cls-2" d="M179.42,528.37l-51.93-30c-1.47-.85-1.28-2.33.41-3.31l22.79-12.81a6.36,6.36,0,0,1,5.73-.24l51.93,30c1.47.85,1.28,2.33-.41,3.31l-22.79,12.81A6.36,6.36,0,0,1,179.42,528.37Z"/><path class="cls-8" d="M163.46,468.07l-.65,4.31a32,32,0,0,0,.28,11.05l.77,3.8a5.35,5.35,0,0,0,4.28,4.19h0a2.94,2.94,0,0,0,3.46-2.57l1-9.21s2.35,3.09,3.49,3.09-1.27-9.23-3.85-14.45S163.46,468.07,163.46,468.07Z"/><path class="cls-8" d="M184.63,399.59l-6.7,13.26a26,26,0,0,0-2.75,10.07l-2.91,45.36-8.81-.21-4-50.94a18.56,18.56,0,0,1,.22-4.71l4.58-25.84Z"/><path class="cls-4" d="M178.36,537.3l-5.24-6.84-55.06-31.88a7.66,7.66,0,0,1-3.2-6.11l0-45.09-3.16-4.13,3-1.73h0a2,2,0,0,1,2.16.12l62.41,36.14a7.62,7.62,0,0,1,3.19,6.11l0,49.1a2.78,2.78,0,0,1-1.17,2.62h0Z"/><path class="cls-1" d="M140.28,511.45l-3.91-2.27-21.48-37.3,0-24.5-3.16-4.13,3-1.73h0a2,2,0,0,1,2.16.12l62.41,36.14a6.45,6.45,0,0,1,2.35,2.75Z"/><path class="cls-1" d="M113.15,445.08l-1.4-1.83,3-1.73h0a2,2,0,0,1,2.16.12l1.1.64Z"/><path class="cls-1" d="M179.86,478.18a8.06,8.06,0,0,1,2.61,5.26l-6.1,3.52-2.93-5.07Z"/><path class="cls-1" d="M176.32,479.51l-62.41-36.14c-1.77-1-3.2.06-3.2,2.42l0,49.1a7.62,7.62,0,0,0,3.19,6.11l62.41,36.14c1.76,1,3.19-.06,3.2-2.42l0-49.1A7.68,7.68,0,0,0,176.32,479.51Z"/><path class="cls-8" d="M207,489l-1,2.07a13.88,13.88,0,0,1-5.21,5.79l-6.2,3.82a6.17,6.17,0,0,1-6.33.14l-.21-.12a3.73,3.73,0,0,1-.53-5.73l6.48-6.66s-3.64,2.79-4.66,1.66c-.75-.82,3.53-4.84,6.81-5s6.47-2.71,6.47-2.71Z"/><path class="cls-1" d="M190.58,338.8s-23.75,25.84-33.33,49.55c0,0,8.12,14.63,28,20.37S190.58,338.8,190.58,338.8Z"/><path class="cls-1" d="M180.78,407.19,184.63,370l-9.07,34.84A51.53,51.53,0,0,0,180.78,407.19Z"/><path class="cls-3" d="M208.37,333.59,202,331.84s3.05,4.79,7.5,6,5.14-2.54,5.14-2.54Z"/><path class="cls-1" d="M669.17,758.81a13.71,13.71,0,0,1-6.86-1.84L567,701.8a9.62,9.62,0,0,1-.16-16.54l26.36-16a1.81,1.81,0,1,1,1.88,3.1l-26.36,16a6,6,0,0,0,.1,10.3l95.29,55.17a10.08,10.08,0,0,0,10.31-.13l32.81-20.05a1.82,1.82,0,1,1,1.89,3.1l-32.81,20A13.7,13.7,0,0,1,669.17,758.81Z"/><path class="cls-4" d="M415.21,370.25l-62.52-36.09a3.19,3.19,0,0,0-3.23-.26v0l-6.06,3.5,4.26,1.56v45.53c0,3.7,2.25,8,5,9.61l59.76,34.5v5.34l6.12-3.53h0c1-.63,1.7-2,1.7-4V379.86C420.24,376.16,418,371.86,415.21,370.25Z"/><path class="cls-2" d="M409,433.71l-62.51-36.09c-2.78-1.61-5-5.91-5-9.61V341.52c0-3.7,2.26-5.41,5-3.8L409,373.81c2.78,1.61,5,5.91,5,9.61v46.49C414.06,433.61,411.81,435.32,409,433.71Z"/><path class="cls-3" d="M367.54,381.6c0,2.69-1.89,3.78-4.22,2.43a9.31,9.31,0,0,1-4.22-7.3c0-2.69,1.89-3.78,4.22-2.44A9.34,9.34,0,0,1,367.54,381.6Z"/><path class="cls-3" d="M380.32,389c0,2.69-1.89,3.78-4.22,2.43a9.32,9.32,0,0,1-4.22-7.3c0-2.7,1.89-3.79,4.22-2.44A9.32,9.32,0,0,1,380.32,389Z"/><path class="cls-3" d="M393.1,396.35c0,2.69-1.89,3.78-4.22,2.44a9.34,9.34,0,0,1-4.22-7.31c0-2.69,1.89-3.78,4.22-2.43A9.31,9.31,0,0,1,393.1,396.35Z"/><path class="cls-2" d="M379.63,311.8l-62.52-36.09a3.21,3.21,0,0,0-3.23-.26v0l-6.06,3.5,4.26,1.56V326c0,3.7,2.25,8,5,9.61l59.76,34.5v5.34l6.12-3.53h0c1-.63,1.7-2,1.7-4V321.41C384.66,317.71,382.41,313.41,379.63,311.8Z"/><path class="cls-4" d="M373.45,375.26l-62.51-36.09c-2.78-1.61-5-5.91-5-9.61V283.07c0-3.7,2.25-5.4,5-3.8l62.51,36.09c2.78,1.61,5,5.91,5,9.61v46.49C378.48,375.16,376.23,376.87,373.45,375.26Z"/><path class="cls-3" d="M332,323.15c0,2.69-1.89,3.78-4.22,2.43a9.31,9.31,0,0,1-4.22-7.3c0-2.69,1.89-3.78,4.22-2.44A9.34,9.34,0,0,1,332,323.15Z"/><path class="cls-3" d="M344.74,330.53c0,2.69-1.89,3.78-4.22,2.43a9.31,9.31,0,0,1-4.22-7.3c0-2.69,1.89-3.78,4.22-2.44A9.34,9.34,0,0,1,344.74,330.53Z"/><path class="cls-3" d="M357.52,337.9c0,2.69-1.89,3.79-4.22,2.44a9.32,9.32,0,0,1-4.22-7.31c0-2.69,1.89-3.78,4.22-2.43A9.31,9.31,0,0,1,357.52,337.9Z"/></svg>