<svg xmlns="http://www.w3.org/2000/svg" xmlns:xlink="http://www.w3.org/1999/xlink" viewBox="0 0 1080 1080"><defs><style>.cls-1{isolation:isolate;}.cls-2,.cls-3{opacity:0.2;}.cls-2{fill:url(#linear-gradient);}.cls-10,.cls-11,.cls-12,.cls-13,.cls-14,.cls-15,.cls-4,.cls-5,.cls-6,.cls-7,.cls-8,.cls-9{fill:#010101;}.cls-4{opacity:0;}.cls-5{opacity:0.09;}.cls-6{opacity:0.18;}.cls-7{opacity:0.27;}.cls-8{opacity:0.36;}.cls-9{opacity:0.45;}.cls-10{opacity:0.55;}.cls-11{opacity:0.64;}.cls-12{opacity:0.73;}.cls-13{opacity:0.82;}.cls-14{opacity:0.91;}.cls-16{fill:url(#linear-gradient-2);}.cls-17{fill:url(#linear-gradient-3);}.cls-18{opacity:0.82;fill:url(#New_Gradient_Swatch_1);}.cls-18,.cls-22,.cls-28,.cls-30{mix-blend-mode:multiply;}.cls-19,.cls-24{opacity:0.6;}.cls-19,.cls-24,.cls-31,.cls-35{mix-blend-mode:screen;}.cls-19{fill:url(#radial-gradient);}.cls-20{fill:url(#New_Gradient_Swatch_copy_3);}.cls-21{fill:url(#linear-gradient-4);}.cls-22,.cls-35{fill:#e5e4e4;}.cls-23{fill:url(#linear-gradient-5);}.cls-24{fill:url(#radial-gradient-2);}.cls-25{opacity:0.15;}.cls-26,.cls-28,.cls-29,.cls-31{fill:#171930;}.cls-27{opacity:0.95;}.cls-29,.cls-32,.cls-34{mix-blend-mode:color-dodge;}.cls-32,.cls-34{opacity:0.5;}.cls-33,.cls-34{fill:#e62c2b;}</style><linearGradient id="linear-gradient" x1="497.97" y1="840.71" x2="876.15" y2="840.71" gradientUnits="userSpaceOnUse"><stop offset="0.06" stop-color="#e62c2b"/><stop offset="0.41" stop-color="#e62c2b"/><stop offset="0.47" stop-color="#e62c2b"/><stop offset="0.53" stop-color="#e62c2b"/><stop offset="0.63" stop-color="#e62c2b"/><stop offset="0.81" stop-color="#e62c2b"/><stop offset="1" stop-color="#e62c2b"/></linearGradient><linearGradient id="linear-gradient-2" x1="497.97" y1="783.04" x2="876.15" y2="783.04" xlink:href="#linear-gradient"/><linearGradient id="linear-gradient-3" x1="599.17" y1="807.36" x2="770.6" y2="712.52" gradientUnits="userSpaceOnUse"><stop offset="0" stop-color="#e62c2b"/><stop offset="0.49" stop-color="#e62c2b"/><stop offset="1" stop-color="#e62c2b"/></linearGradient><linearGradient id="New_Gradient_Swatch_1" x1="690.09" y1="762.52" x2="723.74" y2="706.1" gradientUnits="userSpaceOnUse"><stop offset="0" stop-color="#fff"/><stop offset="1" stop-color="#010101"/></linearGradient><radialGradient id="radial-gradient" cx="691.21" cy="839.2" r="134.55" gradientUnits="userSpaceOnUse"><stop offset="0" stop-color="#e62c2b"/><stop offset="1" stop-color="#e5e4e4"/></radialGradient><linearGradient id="New_Gradient_Swatch_copy_3" x1="967.62" y1="873.96" x2="388.88" y2="73.13" xlink:href="#linear-gradient-3"/><linearGradient id="linear-gradient-4" x1="467.14" y1="152.89" x2="959.53" y2="893.29" gradientUnits="userSpaceOnUse"><stop offset="0.01" stop-color="#e5e4e4"/><stop offset="0.43" stop-color="#e5e4e4"/><stop offset="0.9" stop-color="#e5e4e4"/></linearGradient><linearGradient id="linear-gradient-5" x1="1090.58" y1="891.36" x2="635.04" y2="163.48" xlink:href="#linear-gradient"/><radialGradient id="radial-gradient-2" cx="961.35" cy="476.85" r="77.54" xlink:href="#radial-gradient"/></defs><g class="cls-1"><g id="Layer_1" data-name="Layer 1"><path class="cls-2" d="M842.13,776.38c0,5.08-3.68,10.43-10.93,14.61L726.52,890.9c-13.24,7.64-33.27,8.47-44.74,1.85L491.34,782.15c-5.54-3.2-8-7.56-7.68-12.07a7.33,7.33,0,0,0-.06.79v14.39c.08,4.13,2.63,8.06,7.74,11l190.44,110.6c11.47,6.62,31.5,5.79,44.74-1.85L831.2,805.11c7.35-4.24,11.07-9.69,11-14.83C842.14,789.41,842.28,779.93,842.13,776.38Z"/><g class="cls-3"><path class="cls-4" d="M701.21,905.05c-10.45,0-19.93-2.29-27.42-6.61L483.35,787.84c-10-5.78-15.74-14.92-15.73-25.07,0-11.13,6.9-21.5,18.94-28.45L653.69,670a67.52,67.52,0,0,1,33.3-8.47c10.45,0,19.94,2.29,27.43,6.61l128,75c10,5.77,15.73,14.91,15.73,25.06,0,11.13-6.9,21.5-18.94,28.46l-104.68,99.9A67.56,67.56,0,0,1,701.21,905.05Z"/><path class="cls-5" d="M487.29,735.57l167.13-64.29c9.41-5.43,21.27-8.35,33.15-8.23A62.71,62.71,0,0,1,702,664.9,53.44,53.44,0,0,1,714.71,670l123.51,72.36c.12.06,3.68,2.17,3.77,2.25,9.78,5.86,14.24,15,13.7,24.91-.54,10.1-8.17,21.35-19.11,27.67l-102.79,98.1c-9.24,5.34-20.8,8.26-32.5,8.27-10.19,0-19.48-2.2-26.78-6.41L484.08,786.58c-9.61-5.55-15.05-14.26-15-23.92C469.12,752.12,475.73,742.24,487.29,735.57Z"/><path class="cls-6" d="M488,736.83l167.12-64.29c9.38-5.41,21.27-8.24,33-8A55.27,55.27,0,0,1,715,671.88l122.84,72c.23.13,3.56,2.11,3.73,2.27,9.57,6,12.75,15,11.67,24.76-1,9-9.43,21.2-19.28,26.89l-100.9,96.3a64.63,64.63,0,0,1-31.7,8.07c-9.93,0-19-2.11-26.12-6.22L484.8,785.32c-9.21-5.32-14.36-13.61-14.27-22.76C470.63,752.59,477,743.22,488,736.83Z"/><path class="cls-7" d="M488.74,738.09,655.87,673.8c9.34-5.39,21.26-8.13,32.85-7.77a60.5,60.5,0,0,1,14.19,2.29,71.47,71.47,0,0,1,12.38,5.41l122.17,71.58c.35.2,3.43,2.05,3.7,2.29,9.34,6,11.26,15,9.64,24.61-1.35,8-10.7,21-19.46,26.1l-99,94.5a63.36,63.36,0,0,1-30.9,7.88c-9.67,0-18.55-2-25.47-6L485.53,784.06c-8.82-5.09-13.68-13-13.54-21.61C472.14,753.07,478.16,744.2,488.74,738.09Z"/><path class="cls-8" d="M489.47,739.35,656.6,675.06c9.29-5.37,21.24-8,32.7-7.55A59.92,59.92,0,0,1,703.35,670a84.12,84.12,0,0,1,12.23,5.55l121.5,71.18c.47.27,3.31,2,3.66,2.3,9.12,6.14,11.88,15.54,7.61,24.46,0,7.09-12,20.91-19.62,25.33l-97.12,92.69c-8.57,5-19.34,7.64-30.1,7.68-9.41,0-18.09-1.94-24.82-5.83L486.26,782.8c-8.43-4.86-13-12.31-12.81-20.45C473.64,753.55,479.37,745.18,489.47,739.35Z"/><path class="cls-9" d="M490.2,740.61l167.12-64.29c9.26-5.34,21.24-7.91,32.55-7.32a58.72,58.72,0,0,1,13.92,2.75,101.6,101.6,0,0,1,12.08,5.69L836.7,748.23c.59.34,3.18,1.93,3.62,2.32,8.91,6.23,10.91,15.69,5.58,24.31,0,6.07-13.22,20.75-19.79,24.55l-95.23,90.88c-8.35,4.82-18.85,7.43-29.29,7.49-9.15.05-17.63-1.86-24.17-5.64L487,781.54c-8-4.64-12.3-11.66-12.07-19.3C475.15,754,480.59,746.16,490.2,740.61Z"/><path class="cls-10" d="M490.92,741.87l167.13-64.29c9.22-5.32,21.23-7.81,32.4-7.09a58.12,58.12,0,0,1,13.78,3,126.68,126.68,0,0,1,11.92,5.83l120.17,70.4a41.22,41.22,0,0,1,3.59,2.34c8.68,6.32,9.94,15.85,3.54,24.16,0,5.06-14.48,20.6-20,23.76L730.16,889a58.94,58.94,0,0,1-28.5,7.3c-8.88.06-17.17-1.78-23.51-5.44L487.71,780.28c-7.64-4.41-11.62-11-11.34-18.14C476.65,754.5,481.8,747.13,490.92,741.87Z"/><path class="cls-11" d="M491.65,743.13l167.13-64.29C668,673.54,680,671.14,691,672a57,57,0,0,1,13.64,3.19c1.66.56,10.39,5.18,11.77,6l119.5,70a35.85,35.85,0,0,1,3.55,2.36c8.46,6.41,9,16,1.51,24,0,4.05-15.75,20.45-20.12,23l-91.45,87.27c-7.91,4.57-17.89,7-27.69,7.1-8.63.07-16.71-1.69-22.87-5.24L488.44,779c-7.25-4.19-10.94-10.37-10.61-17C478.16,755,483,748.11,491.65,743.13Z"/><path class="cls-12" d="M492.38,744.38,659.5,680.09c9.14-5.27,21.21-7.58,32.1-6.62a55.91,55.91,0,0,1,13.51,3.41c1.24.43,10.58,5.52,11.62,6.12l118.83,69.62a28.64,28.64,0,0,1,3.51,2.37c8.25,6.5,8,16.16-.52,23.86,0,3-17,20.3-20.29,22.19L728.7,886.51c-7.68,4.44-17.4,6.81-26.89,6.91-8.36.08-16.25-1.61-22.21-5L489.16,777.77c-6.85-4-10.24-9.71-9.87-15.85C479.67,755.46,484.23,749.09,492.38,744.38Z"/><path class="cls-13" d="M493.1,745.64l167.13-64.29c9.1-5.25,21.2-7.47,31.95-6.39,5,.5,9.35,2.17,13.37,3.63.82.3,10.78,5.86,11.47,6.26l118.16,69.23a25.15,25.15,0,0,1,3.47,2.39c8,6.58,7.06,16.31-2.55,23.71,0,2-18.27,20.14-20.46,21.41L728,885.26a54.69,54.69,0,0,1-26.1,6.7c-8.1.1-15.78-1.52-21.55-4.85L489.89,776.51c-6.46-3.73-9.56-9.06-9.14-14.69C481.17,755.93,485.44,750.07,493.1,745.64Z"/><path class="cls-14" d="M493.83,746.9,661,682.61c9-5.23,21.19-7.36,31.79-6.17,4.93.56,9.26,2.35,13.24,3.86.41.16,11,6.21,11.32,6.41L834.8,755.54a23,23,0,0,1,3.44,2.41c7.8,6.67,6.09,16.47-4.59,23.55,0,1-19.53,20-20.63,20.63L727.25,884c-7.24,4.18-16.43,6.39-25.29,6.51-7.84.1-15.33-1.44-20.91-4.66L490.62,775.25c-6.07-3.5-8.88-8.41-8.41-13.54C482.68,756.41,486.65,751,493.83,746.9Z"/><path class="cls-15" d="M681.78,884.59,491.34,774c-11.47-6.62-10-18.18,3.22-25.83l167.12-64.29c13.25-7.65,33.28-8.48,44.75-1.85l128,75c11.46,6.62,10,18.19-3.22,25.83L726.52,882.74C713.28,890.38,693.25,891.21,681.78,884.59Z"/></g><path class="cls-16" d="M681.78,884.33,491.34,773.73c-5.11-3-7.66-6.89-7.74-11V748.33c.09-5,3.8,3.69,11-.44L661.68,683.6c13.25-7.64,33.28-8.47,44.75-1.85l128,75c3.82,2.21,6.6-7.17,7.59-4.18.33,1,.12,14.15.15,15.18.11,5.14-3.61,10.59-11,14.84l-104.68,99.9C713.28,890.12,693.25,891,681.78,884.33Z"/><path class="cls-17" d="M681.78,870.21,491.34,759.61c-11.47-6.63-10-18.19,3.22-25.84l167.12-64.29c13.25-7.64,33.28-8.47,44.75-1.85l128,75c11.46,6.63,10,18.19-3.22,25.84l-104.68,99.9C713.28,876,693.25,876.83,681.78,870.21Z"/><path class="cls-18" d="M834.42,742.61l-128-75c-11.47-6.62-31.5-5.79-44.75,1.85l-84.2,32.39a21.49,21.49,0,0,0,2.62,1.81l190.43,110.6a32.52,32.52,0,0,0,9.11,3.38l51.56-49.21C844.45,760.8,845.88,749.23,834.42,742.61Z"/><path class="cls-19" d="M831.2,766.05,726.52,866c-13.24,7.65-33.27,8.48-44.74,1.86L491.34,757.21c-4.75-2.75-7.26-6.35-7.65-10.17-.6,4.69,1.91,9.25,7.65,12.57l190.44,110.6c11.47,6.62,31.5,5.79,44.74-1.86l104.68-99.9c7.75-4.48,11.43-10.29,10.87-15.67C841.48,757.44,837.81,762.23,831.2,766.05Z"/><path class="cls-20" d="M930.58,870.82,462.88,600.57c-23.91-13.8-43.3-50.84-43.3-82.72V160.15c0-31.88,19.39-46.53,43.3-32.73l467.7,270.25c23.91,13.8,43.3,50.84,43.3,82.72v357.7C973.88,870,954.49,884.63,930.58,870.82Z"/><path class="cls-21" d="M936.16,845.92,475.05,579.52c-19.25-12.23-31.15-36.67-31.15-61.67v-360a7.68,7.68,0,0,1,11.56-6.61l1.36.79,461.6,266.74c22.91,13.21,31.14,36.67,31.14,61.67V839.31a8.29,8.29,0,0,1-12.39,7.19Z"/><path class="cls-22" d="M918.42,418.72,456.82,152l-1.36-.79a7.68,7.68,0,0,0-11.56,6.61V517.85c0,25,11.9,49.44,31.15,61.67l461.11,266.4,1,.58a8.29,8.29,0,0,0,12.39-7.19V480.39C949.56,455.39,941.33,431.93,918.42,418.72ZM944.7,839.31a3.44,3.44,0,0,1-3.44,3.42,3.3,3.3,0,0,1-1.68-.46l-462.1-267c-17.38-11-28.72-33.64-28.72-57.46v-360a2.83,2.83,0,0,1,2.83-2.81,2.7,2.7,0,0,1,1.41.4L916,422.93c23.74,13.68,28.72,38.8,28.72,57.46Z"/><path class="cls-23" d="M942.85,391.15,475.15,120.9c-9.46-5.46-18.21-6.47-25.33-3.71-.91.35-13,6.76-13.83,7.23l-.07,0c7.4-3.6,16.76-2.93,27,3l467.7,270.25c23.91,13.8,43.3,50.84,43.3,82.72v357.7c0,19.9-7.55,33.08-19,36.83a7.27,7.27,0,0,0,3.79-1.29c.55-.32,13.65-7.71,14.17-8.08,8.23-5.76,13.35-17.59,13.35-34V473.87C986.15,442,966.76,405,942.85,391.15Z"/><path class="cls-24" d="M932.66,396.63,465,126.38c-9.81-5.66-18.82-6.46-26.08-3.33,6.19-1,13.31.52,20.88,4.89L927.47,398.19c23.91,13.8,43.29,50.84,43.29,82.72v357.7c0,18.81-6.77,31.55-17.22,36.06C966.9,872.55,976,858.83,976,837.05V479.36C976,447.47,956.57,410.44,932.66,396.63Z"/><g class="cls-25"><polygon class="cls-26" points="263.57 630.12 289.7 645.21 289.7 634.59 263.57 619.5 263.57 630.12"/><polygon class="cls-26" points="289.7 645.21 315.84 630.12 315.84 619.5 289.7 634.59 289.7 645.21"/></g><g class="cls-25"><polygon class="cls-26" points="301.04 663.25 327.18 678.34 327.18 657.21 301.04 642.12 301.04 663.25"/><polygon class="cls-26" points="327.18 678.34 353.31 663.25 353.31 642.12 327.18 657.21 327.18 678.34"/></g><g class="cls-25"><polygon class="cls-26" points="338.96 693.89 365.1 708.98 365.1 677.33 338.96 662.24 338.96 693.89"/><polygon class="cls-26" points="365.09 708.98 391.23 693.89 391.23 662.24 365.09 677.33 365.09 708.98"/></g><g class="cls-25"><polygon class="cls-26" points="376.44 727.03 402.57 742.12 402.57 699.95 376.44 684.86 376.44 727.03"/><polygon class="cls-26" points="402.57 742.12 428.71 727.03 428.71 684.86 402.57 699.95 402.57 742.12"/></g><g class="cls-25"><polygon class="cls-26" points="415.23 757.71 441.37 772.8 441.37 720.11 415.23 705.02 415.23 757.71"/><polygon class="cls-26" points="441.36 772.8 467.5 757.71 467.5 705.02 441.36 720.11 441.36 772.8"/></g><g class="cls-27"><polygon class="cls-26" points="289.71 574.43 263.59 589.53 289.71 604.62 315.84 589.52 289.71 574.43"/><polygon class="cls-26" points="263.57 615.91 289.7 631 289.7 604.61 263.57 589.52 263.57 615.91"/><polygon class="cls-26" points="289.7 631 315.84 615.91 315.84 589.52 289.7 604.61 289.7 631"/><polygon class="cls-28" points="289.7 631 315.84 615.91 315.84 589.52 289.7 604.61 289.7 631"/></g><polygon class="cls-29" points="315.84 589.52 289.83 603.52 263.57 589.52 288.91 605.18 289.7 631 290.94 605 315.84 589.52"/><g class="cls-27"><polygon class="cls-26" points="327.19 540.38 301.06 555.48 327.19 570.57 353.31 555.47 327.19 540.38"/><polygon class="cls-26" points="301.04 638.92 327.18 654.02 327.18 570.56 301.04 555.47 301.04 638.92"/><polygon class="cls-26" points="327.18 654.02 353.31 638.92 353.31 555.47 327.18 570.56 327.18 654.02"/><polygon class="cls-28" points="327.18 654.02 353.31 638.92 353.31 555.47 327.18 570.56 327.18 654.02"/></g><polygon class="cls-29" points="353.31 555.47 327.31 569.48 301.04 555.47 326.39 571.14 327.18 654.02 328.42 570.95 353.31 555.47"/><g class="cls-27"><polygon class="cls-26" points="364.93 504.01 338.8 519.11 364.93 534.2 391.05 519.1 364.93 504.01"/><polygon class="cls-26" points="338.78 659.25 364.92 674.34 364.92 534.19 338.78 519.1 338.78 659.25"/><polygon class="cls-26" points="364.91 674.34 391.05 659.25 391.05 519.1 364.91 534.19 364.91 674.34"/><polygon class="cls-28" points="364.91 674.34 391.05 659.25 391.05 519.1 364.91 534.19 364.91 674.34"/></g><polygon class="cls-29" points="391.05 519.1 365.05 533.1 338.78 519.1 364.13 534.76 364.91 674.34 366.16 534.58 391.05 519.1"/><g class="cls-27"><polygon class="cls-26" points="402.8 466.7 376.67 481.8 402.8 496.89 428.92 481.79 402.8 466.7"/><polygon class="cls-26" points="376.65 680.87 402.79 695.96 402.79 496.88 376.65 481.79 376.65 680.87"/><polygon class="cls-26" points="402.78 695.96 428.92 680.87 428.92 481.79 402.78 496.88 402.78 695.96"/><polygon class="cls-28" points="402.78 695.96 428.92 680.87 428.92 481.79 402.78 496.88 402.78 695.96"/></g><polygon class="cls-29" points="428.92 481.79 402.92 495.79 376.65 481.79 402 497.45 402.78 695.96 404.03 497.27 428.92 481.79"/><g class="cls-27"><polygon class="cls-26" points="441.68 430.07 415.55 445.17 441.68 460.26 467.8 445.16 441.68 430.07"/><polygon class="cls-26" points="415.53 702.5 441.67 717.59 441.67 460.25 415.53 445.16 415.53 702.5"/><polygon class="cls-26" points="441.66 717.59 467.8 702.5 467.8 445.16 441.66 460.25 441.66 717.59"/><polygon class="cls-28" points="441.66 717.59 467.8 702.5 467.8 445.16 441.66 460.25 441.66 717.59"/></g><polygon class="cls-29" points="467.8 445.16 441.8 459.16 415.53 445.16 440.88 460.82 441.66 717.59 442.91 460.64 467.8 445.16"/><path class="cls-26" d="M445.52,773H388.34V781h0c0,.08,0,.15,0,.23,0,9.19,12.8,16.65,28.59,16.65s28.59-7.46,28.59-16.65a1.77,1.77,0,0,0,0-.23h0Z"/><g class="cls-30"><path class="cls-26" d="M388.34,780v.23c0-.08,0-.15,0-.23Z"/><path class="cls-26" d="M416.93,796.12c-15.79,0-28.59-7.46-28.59-16.65V781h0c0,.08,0,.15,0,.23,0,9.19,12.8,16.65,28.59,16.65s28.59-7.46,28.59-16.65a1.77,1.77,0,0,0,0-.23h0v-1.55C445.52,788.66,432.72,796.12,416.93,796.12Z"/><path class="cls-26" d="M445.52,780.18V780h0A1.77,1.77,0,0,1,445.52,780.18Z"/></g><g class="cls-30"><path class="cls-26" d="M425.69,797.1l.8-.18V775.78h-.8Z"/><path class="cls-26" d="M429.28,796.25l.8-.23V775.78h-.8Z"/><path class="cls-26" d="M432.87,795.07c.28-.11.54-.23.8-.35V775.78h-.8Z"/><path class="cls-26" d="M422.1,797.61l.8-.08V775.78h-.8Z"/><path class="cls-26" d="M440.06,791c.27-.22.54-.43.8-.66V775.78h-.8Z"/><path class="cls-26" d="M443.65,787.14a13.45,13.45,0,0,0,.8-1.42v-9.94h-.8Z"/><path class="cls-26" d="M436.46,793.38c.27-.14.55-.28.81-.43V775.78h-.81Z"/><path class="cls-26" d="M418.51,797.85l.8,0V775.78h-.8Z"/><path class="cls-26" d="M414.91,797.84l.8,0V775.78h-.8Z"/><path class="cls-26" d="M407.73,797l.8.17V775.78h-.8Z"/><path class="cls-26" d="M411.32,797.57l.8.07V775.78h-.8Z"/><path class="cls-26" d="M404.14,796.12l.8.23V775.78h-.8Z"/><path class="cls-26" d="M389.77,786.43a13.53,13.53,0,0,0,.8,1.28V775.78h-.8Z"/><path class="cls-26" d="M393.36,790.67c.25.21.53.41.8.62V775.78h-.8Z"/><path class="cls-26" d="M400.54,794.88l.81.32V775.78h-.81Z"/><path class="cls-26" d="M397,793.15c.26.15.54.28.8.42V775.78H397Z"/></g><path class="cls-26" d="M445.52,773.07c0,9.19-12.8,16.65-28.59,16.65s-28.59-7.46-28.59-16.65,12.8-16.65,28.59-16.65S445.52,763.87,445.52,773.07Z"/><path class="cls-31" d="M416.93,789.27c-15.45,0-28-7.15-28.54-16.07,0,.19-.05.38-.05.58,0,9.19,12.8,16.65,28.59,16.65s28.59-7.46,28.59-16.65a5.44,5.44,0,0,0,0-.58C445,782.12,432.39,789.27,416.93,789.27Z"/><path class="cls-26" d="M438.3,773.07c0,6.87-9.56,12.44-21.37,12.44s-21.37-5.57-21.37-12.44,9.57-12.45,21.37-12.45S438.3,766.19,438.3,773.07Z"/><path class="cls-31" d="M417.64,761.24c11.42,0,20.72,5.22,21.32,11.78,0-.22.06-.44.06-.67,0-6.87-9.57-12.44-21.38-12.44s-21.37,5.57-21.37,12.44c0,.23,0,.45.06.67C396.93,766.46,406.23,761.24,417.64,761.24Z"/><path class="cls-28" d="M416.93,762c11.42,0,20.72,5.22,21.32,11.78,0-.22.05-.44.05-.66,0-6.88-9.56-12.45-21.37-12.45s-21.37,5.57-21.37,12.45c0,.22,0,.44.05.66C396.21,767.17,405.51,762,416.93,762Z"/><path class="cls-28" d="M423.45,770.22l7.24,1.31c1.21.22,1.47,1.14.43,1.56L425,775.61c-.41.16-.65.44-.64.73l.12,4.37c0,.73-1.42,1.15-2.44.72l-6.08-2.63a2.48,2.48,0,0,0-1.41-.13l-7.17,1.39c-1.19.23-2.34-.43-1.94-1.12l2.41-4.14a.6.6,0,0,0-.23-.81L403,770.47c-.76-.58,0-1.42,1.24-1.41l7.57.07a2,2,0,0,0,1.27-.37l4.35-3.56c.73-.6,2.34-.45,2.72.25l2.27,4.18A1.42,1.42,0,0,0,423.45,770.22Z"/><path class="cls-26" d="M423.45,769.4l7.24,1.31c1.21.22,1.47,1.14.43,1.57L425,774.79c-.41.17-.65.44-.64.73l.12,4.37c0,.73-1.42,1.16-2.44.72L415.91,778a2.57,2.57,0,0,0-1.41-.13l-7.17,1.39c-1.19.23-2.34-.43-1.94-1.12L407.8,774a.6.6,0,0,0-.23-.81L403,769.66c-.76-.59,0-1.42,1.24-1.41l7.57.07a2.11,2.11,0,0,0,1.27-.37l4.35-3.57c.73-.59,2.34-.44,2.72.26l2.27,4.18A1.45,1.45,0,0,0,423.45,769.4Z"/><path class="cls-29" d="M423.45,769.4l7.24,1.31c1.21.22,1.47,1.14.43,1.57L425,774.79c-.41.17-.65.44-.64.73l.12,4.37c0,.73-1.42,1.16-2.44.72L415.91,778a2.57,2.57,0,0,0-1.41-.13l-7.17,1.39c-1.19.23-2.34-.43-1.94-1.12L407.8,774a.6.6,0,0,0-.23-.81L403,769.66c-.76-.59,0-1.42,1.24-1.41l7.57.07a2.11,2.11,0,0,0,1.27-.37l4.35-3.57c.73-.59,2.34-.44,2.72.26l2.27,4.18A1.45,1.45,0,0,0,423.45,769.4Z"/><path class="cls-26" d="M497.88,805H440.69v8.07h0c0,.08,0,.15,0,.23,0,9.2,12.81,16.65,28.6,16.65s28.59-7.45,28.59-16.65c0-.08,0-.15,0-.23h0Z"/><g class="cls-30"><path class="cls-26" d="M440.69,812v.23c0-.07,0-.15,0-.23Z"/><path class="cls-26" d="M469.29,828.2c-15.79,0-28.6-7.45-28.6-16.65v1.55h0c0,.08,0,.15,0,.23,0,9.2,12.81,16.65,28.6,16.65s28.59-7.45,28.59-16.65c0-.08,0-.15,0-.23h0v-1.55C497.88,820.75,485.08,828.2,469.29,828.2Z"/><path class="cls-26" d="M497.88,812.26V812h0C497.87,812.11,497.88,812.19,497.88,812.26Z"/></g><g class="cls-30"><path class="cls-26" d="M478,829.18l.81-.17V807.87H478Z"/><path class="cls-26" d="M481.64,828.33l.8-.22V807.87h-.8Z"/><path class="cls-26" d="M485.23,827.15l.8-.34V807.87h-.8Z"/><path class="cls-26" d="M474.45,829.7c.27,0,.54-.05.8-.09V807.87h-.8Z"/><path class="cls-26" d="M492.41,823.09c.28-.21.55-.43.8-.66V807.87h-.8Z"/><path class="cls-26" d="M496,819.22a12.52,12.52,0,0,0,.8-1.42v-9.93H496Z"/><path class="cls-26" d="M488.82,825.47c.27-.15.55-.29.8-.44V807.87h-.8Z"/><path class="cls-26" d="M470.86,829.93l.8,0v-22h-.8Z"/><path class="cls-26" d="M467.27,829.92l.8,0V807.87h-.8Z"/><path class="cls-26" d="M460.08,829.08l.81.17V807.87h-.81Z"/><path class="cls-26" d="M463.68,829.66l.8.07V807.87h-.8Z"/><path class="cls-26" d="M456.49,828.21l.8.22V807.87h-.8Z"/><path class="cls-26" d="M442.12,818.51a14.46,14.46,0,0,0,.81,1.28V807.87h-.81Z"/><path class="cls-26" d="M445.72,822.75c.25.21.53.42.8.62v-15.5h-.8Z"/><path class="cls-26" d="M452.9,827l.8.32V807.87h-.8Z"/><path class="cls-26" d="M449.31,825.23c.26.15.53.28.8.43V807.87h-.8Z"/></g><path class="cls-26" d="M497.88,805.15c0,9.19-12.8,16.65-28.59,16.65s-28.6-7.46-28.6-16.65,12.81-16.65,28.6-16.65S497.88,796,497.88,805.15Z"/><path class="cls-31" d="M469.29,821.35c-15.46,0-28-7.14-28.55-16.07,0,.2-.05.39-.05.58,0,9.2,12.81,16.65,28.6,16.65s28.59-7.45,28.59-16.65c0-.19,0-.38-.05-.58C497.3,814.21,484.74,821.35,469.29,821.35Z"/><path class="cls-26" d="M490.66,805.15c0,6.87-9.57,12.45-21.37,12.45s-21.38-5.58-21.38-12.45,9.57-12.45,21.38-12.45S490.66,798.27,490.66,805.15Z"/><path class="cls-31" d="M470,793.33c11.42,0,20.72,5.21,21.32,11.77,0-.22.05-.44.05-.66,0-6.88-9.57-12.45-21.37-12.45s-21.37,5.57-21.37,12.45c0,.22,0,.44.05.66C449.28,798.54,458.58,793.33,470,793.33Z"/><path class="cls-28" d="M469.29,794c11.41,0,20.71,5.21,21.31,11.78,0-.23.06-.45.06-.67,0-6.88-9.57-12.45-21.37-12.45s-21.38,5.57-21.38,12.45c0,.22,0,.44.06.67C448.57,799.25,457.87,794,469.29,794Z"/><path class="cls-28" d="M476.24,802.4l7.24,1.31c1.21.22,1.47,1.15.44,1.57l-6.17,2.51c-.41.17-.65.44-.65.74l.13,4.37c0,.73-1.43,1.15-2.45.71L468.7,811a2.39,2.39,0,0,0-1.41-.13l-7.16,1.39c-1.2.23-2.35-.43-1.95-1.13l2.41-4.13a.61.61,0,0,0-.23-.82l-4.54-3.51c-.77-.59,0-1.42,1.23-1.41l7.58.07a2,2,0,0,0,1.26-.37l4.36-3.56c.73-.6,2.33-.45,2.71.25l2.27,4.18A1.38,1.38,0,0,0,476.24,802.4Z"/><path class="cls-26" d="M476.24,801.59l7.24,1.31c1.21.22,1.47,1.14.44,1.56L477.75,807c-.41.16-.65.44-.65.73l.13,4.37c0,.73-1.43,1.15-2.45.72l-6.08-2.63a2.47,2.47,0,0,0-1.41-.13l-7.16,1.39c-1.2.23-2.35-.43-1.95-1.12l2.41-4.14a.59.59,0,0,0-.23-.81l-4.54-3.52c-.77-.58,0-1.42,1.23-1.41l7.58.07a2,2,0,0,0,1.26-.37l4.36-3.56c.73-.6,2.33-.45,2.71.25l2.27,4.18A1.42,1.42,0,0,0,476.24,801.59Z"/><path class="cls-29" d="M476.24,801.59l7.24,1.31c1.21.22,1.47,1.14.44,1.56L477.75,807c-.41.16-.65.44-.65.73l.13,4.37c0,.73-1.43,1.15-2.45.72l-6.08-2.63a2.47,2.47,0,0,0-1.41-.13l-7.16,1.39c-1.2.23-2.35-.43-1.95-1.12l2.41-4.14a.59.59,0,0,0-.23-.81l-4.54-3.52c-.77-.58,0-1.42,1.23-1.41l7.58.07a2,2,0,0,0,1.26-.37l4.36-3.56c.73-.6,2.33-.45,2.71.25l2.27,4.18A1.42,1.42,0,0,0,476.24,801.59Z"/><path class="cls-26" d="M548.29,834.4H491.1v8.07h0c0,.08,0,.15,0,.23,0,9.2,12.8,16.65,28.6,16.65s28.59-7.45,28.59-16.65c0-.08,0-.15,0-.23h0Z"/><g class="cls-30"><path class="cls-26" d="M491.1,841.4v.23c0-.08,0-.15,0-.23Z"/><path class="cls-26" d="M519.7,857.57c-15.8,0-28.6-7.46-28.6-16.65v1.55h0c0,.08,0,.15,0,.23,0,9.19,12.8,16.65,28.6,16.65s28.59-7.46,28.59-16.65c0-.08,0-.15,0-.23h0v-1.55C548.29,850.11,535.49,857.57,519.7,857.57Z"/><path class="cls-26" d="M548.29,841.63v-.23h0C548.28,841.48,548.29,841.55,548.29,841.63Z"/></g><g class="cls-30"><path class="cls-26" d="M528.45,858.55l.8-.17V837.23h-.8Z"/><path class="cls-26" d="M532.05,857.7l.8-.23V837.23h-.8Z"/><path class="cls-26" d="M535.64,856.52l.8-.34V837.23h-.8Z"/><path class="cls-26" d="M524.86,859.06l.8-.08V837.23h-.8Z"/><path class="cls-26" d="M542.82,852.46c.27-.22.55-.43.8-.66V837.23h-.8Z"/><path class="cls-26" d="M546.41,848.59a13.56,13.56,0,0,0,.81-1.42v-9.94h-.81Z"/><path class="cls-26" d="M539.23,854.83c.27-.14.54-.28.8-.43V837.23h-.8Z"/><path class="cls-26" d="M521.27,859.3l.8,0v-22h-.8Z"/><path class="cls-26" d="M517.68,859.29l.8,0V837.23h-.8Z"/><path class="cls-26" d="M510.49,858.45l.81.17V837.23h-.81Z"/><path class="cls-26" d="M514.09,859l.8.07V837.23h-.8Z"/><path class="cls-26" d="M506.9,857.57l.8.23V837.23h-.8Z"/><path class="cls-26" d="M492.53,847.88c.25.43.5.86.8,1.28V837.23h-.8Z"/><path class="cls-26" d="M496.13,852.12c.25.21.53.41.8.62V837.23h-.8Z"/><path class="cls-26" d="M503.31,856.33l.8.32V837.23h-.8Z"/><path class="cls-26" d="M499.72,854.6c.26.15.53.28.8.42V837.23h-.8Z"/></g><path class="cls-26" d="M548.29,834.52c0,9.19-12.8,16.65-28.59,16.65s-28.6-7.46-28.6-16.65,12.8-16.65,28.6-16.65S548.29,825.32,548.29,834.52Z"/><path class="cls-31" d="M519.7,850.72c-15.46,0-28-7.14-28.55-16.07,0,.19,0,.38,0,.58,0,9.2,12.8,16.65,28.6,16.65s28.59-7.45,28.59-16.65c0-.2,0-.39,0-.58C547.71,843.58,535.15,850.72,519.7,850.72Z"/><ellipse class="cls-26" cx="519.7" cy="834.52" rx="21.37" ry="12.45"/><path class="cls-31" d="M520.41,822.69c11.42,0,20.71,5.22,21.31,11.78,0-.22.06-.44.06-.67,0-6.87-9.57-12.44-21.37-12.44S499,826.93,499,833.8c0,.23,0,.45.06.67C499.69,827.91,509,822.69,520.41,822.69Z"/><path class="cls-28" d="M519.7,823.41c11.41,0,20.71,5.21,21.31,11.77,0-.22.06-.44.06-.66,0-6.88-9.57-12.45-21.37-12.45s-21.38,5.57-21.38,12.45c0,.22,0,.44.06.66C499,828.62,508.28,823.41,519.7,823.41Z"/><path class="cls-28" d="M526.65,831.77l7.24,1.31c1.21.22,1.47,1.15.44,1.57l-6.17,2.51c-.41.17-.65.44-.65.73l.12,4.38c0,.73-1.42,1.15-2.44.71l-6.08-2.63a2.57,2.57,0,0,0-1.41-.13l-7.16,1.39c-1.2.24-2.35-.43-2-1.12l2.41-4.14a.6.6,0,0,0-.23-.81L506.22,832c-.76-.59,0-1.42,1.24-1.41l7.58.07a2,2,0,0,0,1.26-.37l4.36-3.56c.73-.6,2.33-.45,2.71.25l2.27,4.18A1.38,1.38,0,0,0,526.65,831.77Z"/><path class="cls-26" d="M526.65,831l7.24,1.32c1.21.22,1.47,1.14.44,1.56l-6.17,2.51c-.41.17-.65.45-.65.74l.12,4.37c0,.73-1.42,1.15-2.44.71l-6.08-2.62a2.4,2.4,0,0,0-1.41-.13l-7.16,1.39c-1.2.23-2.35-.43-2-1.13l2.41-4.13a.61.61,0,0,0-.23-.82l-4.55-3.51c-.76-.59,0-1.42,1.24-1.41l7.58.07a2,2,0,0,0,1.26-.37l4.36-3.56c.73-.6,2.33-.45,2.71.25l2.27,4.18A1.38,1.38,0,0,0,526.65,831Z"/><path class="cls-29" d="M526.65,831l7.24,1.32c1.21.22,1.47,1.14.44,1.56l-6.17,2.51c-.41.17-.65.45-.65.74l.12,4.37c0,.73-1.42,1.15-2.44.71l-6.08-2.62a2.4,2.4,0,0,0-1.41-.13l-7.16,1.39c-1.2.23-2.35-.43-2-1.13l2.41-4.13a.61.61,0,0,0-.23-.82l-4.55-3.51c-.76-.59,0-1.42,1.24-1.41l7.58.07a2,2,0,0,0,1.26-.37l4.36-3.56c.73-.6,2.33-.45,2.71.25l2.27,4.18A1.38,1.38,0,0,0,526.65,831Z"/><path class="cls-26" d="M380.45,791.94H323.26V800h0c0,.08,0,.15,0,.23,0,9.19,12.8,16.65,28.59,16.65s28.6-7.46,28.6-16.65c0-.08,0-.15,0-.23h0Z"/><g class="cls-30"><path class="cls-26" d="M323.26,798.94v.23c0-.08,0-.15,0-.23Z"/><path class="cls-26" d="M351.85,815.11c-15.79,0-28.59-7.46-28.59-16.65V800h0c0,.08,0,.15,0,.23,0,9.19,12.8,16.65,28.59,16.65s28.6-7.46,28.6-16.65c0-.08,0-.15,0-.23h0v-1.55C380.45,807.65,367.64,815.11,351.85,815.11Z"/><path class="cls-26" d="M380.45,799.17v-.23h0C380.44,799,380.45,799.09,380.45,799.17Z"/></g><g class="cls-30"><path class="cls-26" d="M360.61,816.09l.8-.18V794.77h-.8Z"/><path class="cls-26" d="M364.2,815.24l.8-.23V794.77h-.8Z"/><path class="cls-26" d="M367.79,814.06l.81-.34v-19h-.81Z"/><path class="cls-26" d="M357,816.6l.8-.08V794.77H357Z"/><path class="cls-26" d="M375,810c.27-.22.55-.43.8-.66V794.77H375Z"/><path class="cls-26" d="M378.57,806.13a13.45,13.45,0,0,0,.8-1.42v-9.94h-.8Z"/><path class="cls-26" d="M371.39,812.37c.26-.14.54-.28.8-.43V794.77h-.8Z"/><path class="cls-26" d="M353.43,816.84l.8,0V794.77h-.8Z"/><path class="cls-26" d="M349.83,816.83l.81,0V794.77h-.81Z"/><path class="cls-26" d="M342.65,816l.8.17V794.77h-.8Z"/><path class="cls-26" d="M346.24,816.56l.8.08V794.77h-.8Z"/><path class="cls-26" d="M339.06,815.11l.8.23V794.77h-.8Z"/><path class="cls-26" d="M324.69,805.42a13.53,13.53,0,0,0,.8,1.28V794.77h-.8Z"/><path class="cls-26" d="M328.28,809.66l.8.62V794.77h-.8Z"/><path class="cls-26" d="M335.47,813.87l.8.32V794.77h-.8Z"/><path class="cls-26" d="M331.87,812.14c.26.15.54.28.81.42V794.77h-.81Z"/></g><path class="cls-26" d="M380.45,792.06c0,9.19-12.81,16.65-28.6,16.65s-28.59-7.46-28.59-16.65,12.8-16.65,28.59-16.65S380.45,782.86,380.45,792.06Z"/><path class="cls-31" d="M351.85,808.26c-15.45,0-28-7.14-28.54-16.07,0,.19-.05.38-.05.58,0,9.19,12.8,16.65,28.59,16.65s28.6-7.46,28.6-16.65c0-.2,0-.39-.05-.58C379.87,801.12,367.31,808.26,351.85,808.26Z"/><ellipse class="cls-26" cx="351.85" cy="792.06" rx="21.37" ry="12.45"/><path class="cls-31" d="M352.56,780.23c11.42,0,20.72,5.22,21.32,11.78,0-.22.06-.44.06-.67,0-6.87-9.57-12.44-21.38-12.44s-21.37,5.57-21.37,12.44c0,.23,0,.45.06.67C331.85,785.45,341.15,780.23,352.56,780.23Z"/><path class="cls-28" d="M351.85,781c11.42,0,20.72,5.21,21.32,11.77,0-.22.06-.44.06-.66,0-6.88-9.57-12.45-21.38-12.45s-21.37,5.57-21.37,12.45c0,.22,0,.44.06.66C331.14,786.16,340.44,781,351.85,781Z"/><path class="cls-28" d="M358.81,789.31l7.24,1.31c1.21.22,1.47,1.15.43,1.57l-6.17,2.51c-.41.17-.65.44-.64.73l.12,4.38c0,.73-1.42,1.15-2.44.71l-6.08-2.63a2.57,2.57,0,0,0-1.41-.13l-7.17,1.39c-1.2.24-2.35-.43-1.94-1.12l2.41-4.14a.6.6,0,0,0-.23-.81l-4.55-3.51c-.76-.59,0-1.42,1.24-1.41l7.57.07a2.11,2.11,0,0,0,1.27-.37l4.35-3.56c.73-.6,2.34-.45,2.72.25l2.27,4.18A1.4,1.4,0,0,0,358.81,789.31Z"/><path class="cls-26" d="M358.81,788.49l7.24,1.32c1.21.21,1.47,1.14.43,1.56l-6.17,2.51c-.41.17-.65.44-.64.74l.12,4.37c0,.73-1.42,1.15-2.44.71l-6.08-2.62a2.4,2.4,0,0,0-1.41-.13l-7.17,1.39c-1.2.23-2.35-.43-1.94-1.13l2.41-4.13a.62.62,0,0,0-.23-.82l-4.55-3.51c-.76-.59,0-1.42,1.24-1.41l7.57.07a2,2,0,0,0,1.27-.37l4.35-3.56c.73-.6,2.34-.45,2.72.25l2.27,4.18A1.36,1.36,0,0,0,358.81,788.49Z"/><path class="cls-29" d="M358.81,788.49l7.24,1.32c1.21.21,1.47,1.14.43,1.56l-6.17,2.51c-.41.17-.65.44-.64.74l.12,4.37c0,.73-1.42,1.15-2.44.71l-6.08-2.62a2.4,2.4,0,0,0-1.41-.13l-7.17,1.39c-1.2.23-2.35-.43-1.94-1.13l2.41-4.13a.62.62,0,0,0-.23-.82l-4.55-3.51c-.76-.59,0-1.42,1.24-1.41l7.57.07a2,2,0,0,0,1.27-.37l4.35-3.56c.73-.6,2.34-.45,2.72.25l2.27,4.18A1.36,1.36,0,0,0,358.81,788.49Z"/><path class="cls-26" d="M472.44,847.35H415.25v8.07h0c0,.07,0,.15,0,.23,0,9.19,12.8,16.65,28.59,16.65s28.6-7.46,28.6-16.65c0-.08,0-.16,0-.23h0Z"/><g class="cls-30"><path class="cls-26" d="M415.25,854.35v.23c0-.08,0-.16,0-.23Z"/><path class="cls-26" d="M443.84,870.52c-15.79,0-28.59-7.46-28.59-16.66v1.56h0c0,.07,0,.15,0,.23,0,9.19,12.8,16.65,28.59,16.65s28.6-7.46,28.6-16.65c0-.08,0-.16,0-.23h0v-1.56C472.44,863.06,459.63,870.52,443.84,870.52Z"/><path class="cls-26" d="M472.44,854.58v-.23h0C472.43,854.42,472.44,854.5,472.44,854.58Z"/></g><g class="cls-30"><path class="cls-26" d="M452.6,871.49l.8-.17V850.18h-.8Z"/><path class="cls-26" d="M456.19,870.65l.81-.23V850.18h-.81Z"/><path class="cls-26" d="M459.79,869.47l.8-.35V850.18h-.8Z"/><path class="cls-26" d="M449,872l.8-.08V850.18H449Z"/><path class="cls-26" d="M467,865.41c.27-.22.55-.44.8-.66V850.18H467Z"/><path class="cls-26" d="M470.56,861.53a12.39,12.39,0,0,0,.8-1.41v-9.94h-.8Z"/><path class="cls-26" d="M463.38,867.78c.26-.14.54-.28.8-.44V850.18h-.8Z"/><path class="cls-26" d="M445.42,872.25l.8,0V850.18h-.8Z"/><path class="cls-26" d="M441.83,872.24l.8,0V850.18h-.8Z"/><path class="cls-26" d="M434.64,871.4l.8.16V850.18h-.8Z"/><path class="cls-26" d="M438.23,872l.8.07V850.18h-.8Z"/><path class="cls-26" d="M431.05,870.52l.8.23V850.18h-.8Z"/><path class="cls-26" d="M416.68,860.83a12.24,12.24,0,0,0,.8,1.27V850.18h-.8Z"/><path class="cls-26" d="M420.27,865.06c.26.22.53.42.8.63V850.18h-.8Z"/><path class="cls-26" d="M427.46,869.28l.8.31V850.18h-.8Z"/><path class="cls-26" d="M423.87,867.55l.8.42V850.18h-.8Z"/></g><ellipse class="cls-26" cx="443.84" cy="847.46" rx="28.59" ry="16.65"/><path class="cls-31" d="M443.84,863.67c-15.45,0-28-7.15-28.54-16.07,0,.19-.05.38-.05.58,0,9.19,12.8,16.65,28.59,16.65s28.6-7.46,28.6-16.65c0-.2,0-.39-.05-.58C471.86,856.52,459.3,863.67,443.84,863.67Z"/><ellipse class="cls-26" cx="443.84" cy="847.46" rx="21.37" ry="12.45"/><path class="cls-31" d="M444.56,835.64c11.41,0,20.71,5.22,21.31,11.78,0-.22.06-.44.06-.67,0-6.87-9.57-12.45-21.37-12.45s-21.38,5.58-21.38,12.45c0,.23,0,.45.06.67C423.84,840.86,433.14,835.64,444.56,835.64Z"/><path class="cls-28" d="M443.84,836.35c11.42,0,20.72,5.22,21.32,11.78,0-.22.06-.44.06-.67,0-6.87-9.57-12.44-21.38-12.44s-21.37,5.57-21.37,12.44c0,.23,0,.45.06.67C423.13,841.57,432.43,836.35,443.84,836.35Z"/><path class="cls-29" d="M458.86,831.43c6.42,2.18,10.75,6.54,9.67,9.72s-7.17,4-13.59,1.8-10.76-6.54-9.67-9.72S452.44,829.24,458.86,831.43Z"/><path class="cls-28" d="M450.36,844.61l7.24,1.32c1.21.21,1.47,1.14.44,1.56L451.87,850c-.41.17-.65.44-.65.74l.12,4.37c0,.73-1.42,1.15-2.44.71l-6.08-2.62a2.4,2.4,0,0,0-1.41-.13l-7.16,1.39c-1.2.23-2.35-.43-1.95-1.13l2.41-4.13a.61.61,0,0,0-.23-.82l-4.55-3.51c-.76-.59,0-1.42,1.24-1.41l7.58.07a2,2,0,0,0,1.26-.37l4.36-3.56c.73-.6,2.33-.45,2.71.25l2.27,4.18A1.38,1.38,0,0,0,450.36,844.61Z"/><path class="cls-26" d="M450.36,843.8l7.24,1.31c1.21.22,1.47,1.14.44,1.56l-6.17,2.52c-.41.16-.65.44-.65.73l.12,4.37c0,.73-1.42,1.16-2.44.72l-6.08-2.63a2.48,2.48,0,0,0-1.41-.13l-7.16,1.39c-1.2.23-2.35-.43-1.95-1.12l2.41-4.14a.59.59,0,0,0-.23-.81l-4.55-3.52c-.76-.58,0-1.42,1.24-1.41l7.58.07a2,2,0,0,0,1.26-.37l4.36-3.56c.73-.6,2.33-.45,2.71.25l2.27,4.18A1.42,1.42,0,0,0,450.36,843.8Z"/><path class="cls-29" d="M450.36,843.8l7.24,1.31c1.21.22,1.47,1.14.44,1.56l-6.17,2.52c-.41.16-.65.44-.65.73l.12,4.37c0,.73-1.42,1.16-2.44.72l-6.08-2.63a2.48,2.48,0,0,0-1.41-.13l-7.16,1.39c-1.2.23-2.35-.43-1.95-1.12l2.41-4.14a.59.59,0,0,0-.23-.81l-4.55-3.52c-.76-.58,0-1.42,1.24-1.41l7.58.07a2,2,0,0,0,1.26-.37l4.36-3.56c.73-.6,2.33-.45,2.71.25l2.27,4.18A1.42,1.42,0,0,0,450.36,843.8Z"/><path class="cls-26" d="M523.06,866.42H465.88v8.06h0c0,.08,0,.16,0,.23,0,9.2,12.8,16.65,28.59,16.65s28.59-7.45,28.59-16.65a1.85,1.85,0,0,0,0-.23h0Z"/><g class="cls-30"><path class="cls-26" d="M465.88,873.41v.23c0-.07,0-.15,0-.23Z"/><path class="cls-26" d="M494.47,889.58c-15.79,0-28.59-7.45-28.59-16.65v1.55h0c0,.08,0,.16,0,.23,0,9.2,12.8,16.65,28.59,16.65s28.59-7.45,28.59-16.65a1.85,1.85,0,0,0,0-.23h0v-1.55C523.06,882.13,510.26,889.58,494.47,889.58Z"/><path class="cls-26" d="M523.06,873.64v-.23h0A1.85,1.85,0,0,1,523.06,873.64Z"/></g><g class="cls-30"><path class="cls-26" d="M503.23,890.56l.8-.17V869.25h-.8Z"/><path class="cls-26" d="M506.82,889.71l.8-.22V869.25h-.8Z"/><path class="cls-26" d="M510.41,888.54c.28-.11.54-.24.8-.35V869.25h-.8Z"/><path class="cls-26" d="M499.64,891.08l.8-.09V869.25h-.8Z"/><path class="cls-26" d="M517.6,884.48c.27-.22.54-.44.8-.67V869.25h-.8Z"/><path class="cls-26" d="M521.19,880.6a11.71,11.71,0,0,0,.8-1.42v-9.93h-.8Z"/><path class="cls-26" d="M514,886.85l.8-.44V869.25H514Z"/><path class="cls-26" d="M496.05,891.32l.8,0v-22h-.8Z"/><path class="cls-26" d="M492.45,891.3l.8,0V869.25h-.8Z"/><path class="cls-26" d="M485.27,890.47l.8.16V869.25h-.8Z"/><path class="cls-26" d="M488.86,891l.8.07V869.25h-.8Z"/><path class="cls-26" d="M481.68,889.59l.8.22V869.25h-.8Z"/><path class="cls-26" d="M467.31,879.9a12.24,12.24,0,0,0,.8,1.27V869.25h-.8Z"/><path class="cls-26" d="M470.9,884.13c.25.22.53.42.8.63V869.25h-.8Z"/><path class="cls-26" d="M478.08,888.35l.81.31V869.25h-.81Z"/><path class="cls-26" d="M474.49,886.61c.26.15.54.29.8.43V869.25h-.8Z"/></g><ellipse class="cls-26" cx="494.47" cy="866.53" rx="28.59" ry="16.65"/><path class="cls-31" d="M494.47,882.74c-15.46,0-28-7.15-28.54-16.08,0,.2-.05.39-.05.58,0,9.2,12.8,16.65,28.59,16.65s28.59-7.45,28.59-16.65c0-.19,0-.38,0-.58C522.49,875.59,509.93,882.74,494.47,882.74Z"/><ellipse class="cls-26" cx="494.47" cy="866.53" rx="21.37" ry="12.45"/><path class="cls-31" d="M495.18,854.71c11.42,0,20.72,5.22,21.32,11.78,0-.23.06-.45.06-.67,0-6.88-9.57-12.45-21.38-12.45s-21.37,5.57-21.37,12.45c0,.22,0,.44.06.67C474.47,859.93,483.77,854.71,495.18,854.71Z"/><path class="cls-28" d="M494.47,855.42c11.42,0,20.72,5.22,21.32,11.78,0-.22.05-.44.05-.67,0-6.87-9.56-12.45-21.37-12.45s-21.37,5.58-21.37,12.45c0,.23,0,.45,0,.67C473.75,860.64,483.05,855.42,494.47,855.42Z"/><path class="cls-28" d="M501,863.68l7.24,1.31c1.21.22,1.47,1.15.43,1.57l-6.17,2.51c-.41.17-.65.44-.64.73l.12,4.38c0,.73-1.42,1.15-2.44.71l-6.08-2.63a2.57,2.57,0,0,0-1.41-.13l-7.17,1.39c-1.19.24-2.34-.43-1.94-1.12l2.41-4.14a.61.61,0,0,0-.23-.81l-4.55-3.51c-.76-.59,0-1.42,1.24-1.41l7.57.07a2,2,0,0,0,1.27-.37l4.35-3.56c.73-.6,2.34-.45,2.72.25L500,863.1A1.42,1.42,0,0,0,501,863.68Z"/><path class="cls-26" d="M501,862.86l7.24,1.32c1.21.22,1.47,1.14.43,1.56l-6.17,2.51c-.41.17-.65.45-.64.74l.12,4.37c0,.73-1.42,1.15-2.44.71l-6.08-2.62a2.4,2.4,0,0,0-1.41-.13l-7.17,1.39c-1.19.23-2.34-.43-1.94-1.13l2.41-4.13a.62.62,0,0,0-.23-.82l-4.55-3.51c-.76-.59,0-1.42,1.24-1.41l7.57.07a2,2,0,0,0,1.27-.37l4.35-3.56c.73-.6,2.34-.45,2.72.25l2.27,4.18A1.38,1.38,0,0,0,501,862.86Z"/><path class="cls-29" d="M501,862.86l7.24,1.32c1.21.22,1.47,1.14.43,1.56l-6.17,2.51c-.41.17-.65.45-.64.74l.12,4.37c0,.73-1.42,1.15-2.44.71l-6.08-2.62a2.4,2.4,0,0,0-1.41-.13l-7.17,1.39c-1.19.23-2.34-.43-1.94-1.13l2.41-4.13a.62.62,0,0,0-.23-.82l-4.55-3.51c-.76-.59,0-1.42,1.24-1.41l7.57.07a2,2,0,0,0,1.27-.37l4.35-3.56c.73-.6,2.34-.45,2.72.25l2.27,4.18A1.38,1.38,0,0,0,501,862.86Z"/><path class="cls-26" d="M504,838.8H446.81v8.07h0c0,.08,0,.15,0,.23,0,9.19,12.8,16.65,28.59,16.65S504,856.29,504,847.1c0-.08,0-.15,0-.23h0Z"/><g class="cls-30"><path class="cls-26" d="M446.81,845.8V846c0-.08,0-.15,0-.23Z"/><path class="cls-26" d="M475.4,862c-15.79,0-28.59-7.46-28.59-16.65v1.55h0c0,.08,0,.15,0,.23,0,9.19,12.8,16.65,28.59,16.65S504,856.29,504,847.1c0-.08,0-.15,0-.23h0v-1.55C504,854.51,491.19,862,475.4,862Z"/><path class="cls-26" d="M504,846v-.23h0C504,845.88,504,846,504,846Z"/></g><g class="cls-30"><path class="cls-26" d="M484.16,863l.8-.18V841.63h-.8Z"/><path class="cls-26" d="M487.75,862.1l.81-.23V841.63h-.81Z"/><path class="cls-26" d="M491.35,860.92l.8-.34v-19h-.8Z"/><path class="cls-26" d="M480.57,863.46l.8-.08V841.63h-.8Z"/><path class="cls-26" d="M498.53,856.86c.27-.22.55-.43.8-.66V841.63h-.8Z"/><path class="cls-26" d="M502.12,853a13.45,13.45,0,0,0,.8-1.42v-9.94h-.8Z"/><path class="cls-26" d="M494.94,859.23c.26-.14.54-.28.8-.43V841.63h-.8Z"/><path class="cls-26" d="M477,863.7l.8,0v-22H477Z"/><path class="cls-26" d="M473.39,863.69l.8,0V841.63h-.8Z"/><path class="cls-26" d="M466.2,862.85l.8.17V841.63h-.8Z"/><path class="cls-26" d="M469.79,863.42l.8.08V841.63h-.8Z"/><path class="cls-26" d="M462.61,862l.8.23V841.63h-.8Z"/><path class="cls-26" d="M448.24,852.28a13.53,13.53,0,0,0,.8,1.28V841.63h-.8Z"/><path class="cls-26" d="M451.83,856.52l.8.62V841.63h-.8Z"/><path class="cls-26" d="M459,860.73l.8.32V841.63H459Z"/><path class="cls-26" d="M455.43,859c.25.15.53.28.8.42V841.63h-.8Z"/></g><ellipse class="cls-26" cx="475.4" cy="838.92" rx="28.59" ry="16.65"/><path class="cls-31" d="M475.4,855.12c-15.45,0-28-7.14-28.54-16.07,0,.19-.05.38-.05.58,0,9.19,12.8,16.65,28.59,16.65s28.6-7.46,28.6-16.65c0-.2,0-.39-.05-.58C503.42,848,490.86,855.12,475.4,855.12Z"/><ellipse class="cls-26" cx="475.4" cy="838.92" rx="21.37" ry="12.45"/><path class="cls-31" d="M476.12,827.09c11.41,0,20.71,5.22,21.31,11.78,0-.22.06-.44.06-.67,0-6.87-9.57-12.44-21.37-12.44s-21.38,5.57-21.38,12.44c0,.23,0,.45.06.67C455.4,832.31,464.7,827.09,476.12,827.09Z"/><path class="cls-28" d="M475.4,827.8c11.42,0,20.72,5.22,21.32,11.78,0-.22.06-.44.06-.66,0-6.88-9.57-12.45-21.38-12.45S454,832,454,838.92c0,.22,0,.44.06.66C454.69,833,464,827.8,475.4,827.8Z"/><path class="cls-28" d="M481.92,836.07l7.24,1.31c1.21.22,1.47,1.14.44,1.56l-6.17,2.52c-.41.16-.65.44-.65.73l.12,4.37c0,.73-1.42,1.15-2.44.72l-6.08-2.63a2.48,2.48,0,0,0-1.41-.13l-7.16,1.39c-1.2.23-2.35-.43-1.95-1.12l2.41-4.14a.59.59,0,0,0-.23-.81l-4.54-3.52c-.77-.58,0-1.42,1.23-1.41l7.58.07a2,2,0,0,0,1.26-.37l4.36-3.56c.73-.6,2.33-.45,2.71.25l2.27,4.18A1.42,1.42,0,0,0,481.92,836.07Z"/><path class="cls-26" d="M481.92,835.25l7.24,1.31c1.21.22,1.47,1.14.44,1.57l-6.17,2.51c-.41.17-.65.44-.65.73l.12,4.37c0,.74-1.42,1.16-2.44.72l-6.08-2.63a2.57,2.57,0,0,0-1.41-.13l-7.16,1.39c-1.2.23-2.35-.43-1.95-1.12l2.41-4.14A.59.59,0,0,0,466,839l-4.54-3.51c-.77-.59,0-1.42,1.23-1.41l7.58.07a2.09,2.09,0,0,0,1.26-.37l4.36-3.57c.73-.59,2.33-.44,2.71.26l2.27,4.18A1.45,1.45,0,0,0,481.92,835.25Z"/><path class="cls-29" d="M481.92,835.25l7.24,1.31c1.21.22,1.47,1.14.44,1.57l-6.17,2.51c-.41.17-.65.44-.65.73l.12,4.37c0,.74-1.42,1.16-2.44.72l-6.08-2.63a2.57,2.57,0,0,0-1.41-.13l-7.16,1.39c-1.2.23-2.35-.43-1.95-1.12l2.41-4.14A.59.59,0,0,0,466,839l-4.54-3.51c-.77-.59,0-1.42,1.23-1.41l7.58.07a2.09,2.09,0,0,0,1.26-.37l4.36-3.57c.73-.59,2.33-.44,2.71.26l2.27,4.18A1.45,1.45,0,0,0,481.92,835.25Z"/><path class="cls-26" d="M424.54,822.43H367.36v8.07h0a1.69,1.69,0,0,0,0,.23c0,9.19,12.8,16.65,28.59,16.65s28.59-7.46,28.59-16.65c0-.08,0-.16,0-.23h0Z"/><g class="cls-30"><path class="cls-26" d="M367.36,829.43v.23a1.69,1.69,0,0,1,0-.23Z"/><path class="cls-26" d="M396,845.6c-15.79,0-28.59-7.46-28.59-16.65v1.55h0a1.69,1.69,0,0,0,0,.23c0,9.19,12.8,16.65,28.59,16.65s28.59-7.46,28.59-16.65c0-.08,0-.16,0-.23h0V829C424.54,838.14,411.74,845.6,396,845.6Z"/><path class="cls-26" d="M424.54,829.66v-.23h0C424.53,829.5,424.54,829.58,424.54,829.66Z"/></g><g class="cls-30"><path class="cls-26" d="M404.71,846.57l.8-.17V825.26h-.8Z"/><path class="cls-26" d="M408.3,845.73l.8-.23V825.26h-.8Z"/><path class="cls-26" d="M411.89,844.55c.28-.11.53-.23.8-.35V825.26h-.8Z"/><path class="cls-26" d="M401.12,847.09l.8-.08V825.26h-.8Z"/><path class="cls-26" d="M419.08,840.49l.8-.66V825.26h-.8Z"/><path class="cls-26" d="M422.67,836.62a13.45,13.45,0,0,0,.8-1.42v-9.94h-.8Z"/><path class="cls-26" d="M415.48,842.86c.27-.14.55-.28.81-.44V825.26h-.81Z"/><path class="cls-26" d="M397.52,847.33l.81,0v-22h-.81Z"/><path class="cls-26" d="M393.93,847.32l.8,0V825.26h-.8Z"/><path class="cls-26" d="M386.75,846.48c.27,0,.53.12.8.16V825.26h-.8Z"/><path class="cls-26" d="M390.34,847.05l.8.07V825.26h-.8Z"/><path class="cls-26" d="M383.16,845.6l.8.23V825.26h-.8Z"/><path class="cls-26" d="M368.79,835.91a12.24,12.24,0,0,0,.8,1.27V825.26h-.8Z"/><path class="cls-26" d="M372.38,840.14c.25.22.53.42.8.63V825.26h-.8Z"/><path class="cls-26" d="M379.56,844.36l.81.32V825.26h-.81Z"/><path class="cls-26" d="M376,842.63l.8.42V825.26H376Z"/></g><path class="cls-26" d="M424.54,822.54c0,9.2-12.8,16.65-28.59,16.65s-28.59-7.45-28.59-16.65,12.8-16.65,28.59-16.65S424.54,813.35,424.54,822.54Z"/><path class="cls-31" d="M396,838.75c-15.46,0-28-7.15-28.54-16.07,0,.19-.05.38-.05.58,0,9.19,12.8,16.65,28.59,16.65s28.59-7.46,28.59-16.65c0-.2,0-.39-.05-.58C424,831.6,411.41,838.75,396,838.75Z"/><path class="cls-26" d="M417.32,822.54c0,6.88-9.57,12.45-21.37,12.45s-21.37-5.57-21.37-12.45S384.15,810.1,396,810.1,417.32,815.67,417.32,822.54Z"/><path class="cls-31" d="M396.66,810.72c11.42,0,20.72,5.22,21.32,11.78,0-.22.06-.44.06-.67,0-6.87-9.57-12.45-21.38-12.45s-21.37,5.58-21.37,12.45c0,.23,0,.45.06.67C376,815.94,385.24,810.72,396.66,810.72Z"/><path class="cls-28" d="M396,811.43c11.42,0,20.72,5.22,21.32,11.78,0-.22.05-.44.05-.67,0-6.87-9.57-12.44-21.37-12.44s-21.37,5.57-21.37,12.44c0,.23,0,.45.05.67C375.23,816.65,384.53,811.43,396,811.43Z"/><path class="cls-28" d="M402.47,819.69,409.7,821c1.22.22,1.48,1.14.44,1.56L404,825.08c-.41.17-.65.45-.64.74l.12,4.37c0,.73-1.42,1.15-2.44.71l-6.08-2.62a2.4,2.4,0,0,0-1.41-.13l-7.17,1.39c-1.2.23-2.35-.43-1.94-1.13l2.41-4.13a.62.62,0,0,0-.23-.82L382,820c-.76-.59,0-1.42,1.24-1.41l7.57.07a2,2,0,0,0,1.27-.37l4.35-3.56c.73-.6,2.33-.45,2.71.25l2.28,4.18A1.36,1.36,0,0,0,402.47,819.69Z"/><path class="cls-26" d="M402.47,818.88l7.23,1.31c1.22.22,1.48,1.14.44,1.56L404,824.27c-.41.16-.65.44-.64.73l.12,4.37c0,.73-1.42,1.16-2.44.72l-6.08-2.63a2.57,2.57,0,0,0-1.41-.13l-7.17,1.39c-1.2.23-2.35-.43-1.94-1.12l2.41-4.14a.6.6,0,0,0-.23-.81L382,819.13c-.76-.58,0-1.42,1.24-1.4l7.57.06a2,2,0,0,0,1.27-.37l4.35-3.56c.73-.59,2.33-.45,2.71.25l2.28,4.18A1.4,1.4,0,0,0,402.47,818.88Z"/><path class="cls-29" d="M402.47,818.88l7.23,1.31c1.22.22,1.48,1.14.44,1.56L404,824.27c-.41.16-.65.44-.64.73l.12,4.37c0,.73-1.42,1.16-2.44.72l-6.08-2.63a2.57,2.57,0,0,0-1.41-.13l-7.17,1.39c-1.2.23-2.35-.43-1.94-1.12l2.41-4.14a.6.6,0,0,0-.23-.81L382,819.13c-.76-.58,0-1.42,1.24-1.4l7.57.06a2,2,0,0,0,1.27-.37l4.35-3.56c.73-.59,2.33-.45,2.71.25l2.28,4.18A1.4,1.4,0,0,0,402.47,818.88Z"/><path class="cls-26" d="M461.8,814.1H404.62v8.07h0a1.77,1.77,0,0,0,0,.23c0,9.19,12.8,16.65,28.59,16.65s28.59-7.46,28.59-16.65c0-.08,0-.15,0-.23h0Z"/><g class="cls-30"><path class="cls-26" d="M404.62,821.1v.23a1.77,1.77,0,0,1,0-.23Z"/><path class="cls-26" d="M433.21,837.27c-15.79,0-28.59-7.46-28.59-16.65v1.55h0a1.77,1.77,0,0,0,0,.23c0,9.19,12.8,16.65,28.59,16.65s28.59-7.46,28.59-16.65c0-.08,0-.15,0-.23h0v-1.55C461.8,829.81,449,837.27,433.21,837.27Z"/><path class="cls-26" d="M461.8,821.33v-.23h0C461.79,821.18,461.8,821.25,461.8,821.33Z"/></g><g class="cls-30"><path class="cls-26" d="M442,838.25l.8-.18V816.93H442Z"/><path class="cls-26" d="M445.56,837.4l.8-.23V816.93h-.8Z"/><path class="cls-26" d="M449.15,836.22c.28-.11.53-.23.8-.35V816.93h-.8Z"/><path class="cls-26" d="M438.37,838.76l.81-.08V816.93h-.81Z"/><path class="cls-26" d="M456.33,832.16c.28-.22.55-.43.81-.66V816.93h-.81Z"/><path class="cls-26" d="M459.93,828.29a13.45,13.45,0,0,0,.8-1.42v-9.94h-.8Z"/><path class="cls-26" d="M452.74,834.53c.27-.14.55-.28.8-.43V816.93h-.8Z"/><path class="cls-26" d="M434.78,839l.8,0V816.93h-.8Z"/><path class="cls-26" d="M431.19,839l.8,0V816.93h-.8Z"/><path class="cls-26" d="M424,838.15l.8.17V816.93H424Z"/><path class="cls-26" d="M427.6,838.72l.8.07V816.93h-.8Z"/><path class="cls-26" d="M420.41,837.27l.81.23V816.93h-.81Z"/><path class="cls-26" d="M406.05,827.58a13.53,13.53,0,0,0,.8,1.28V816.93h-.8Z"/><path class="cls-26" d="M409.64,831.82c.25.21.53.41.8.62V816.93h-.8Z"/><path class="cls-26" d="M416.82,836l.8.32V816.93h-.8Z"/><path class="cls-26" d="M413.23,834.3c.26.15.53.28.8.42V816.93h-.8Z"/></g><ellipse class="cls-26" cx="433.21" cy="814.22" rx="28.59" ry="16.65"/><path class="cls-31" d="M433.21,830.42c-15.46,0-28-7.15-28.54-16.07a5.44,5.44,0,0,0-.05.58c0,9.19,12.8,16.65,28.59,16.65s28.59-7.46,28.59-16.65c0-.2,0-.39-.05-.58C461.22,823.27,448.66,830.42,433.21,830.42Z"/><ellipse class="cls-26" cx="433.21" cy="814.22" rx="21.37" ry="12.45"/><path class="cls-31" d="M433.92,802.39c11.42,0,20.72,5.22,21.32,11.78,0-.22.05-.44.05-.67,0-6.87-9.57-12.44-21.37-12.44s-21.37,5.57-21.37,12.44c0,.23,0,.45.05.67C413.2,807.61,422.5,802.39,433.92,802.39Z"/><path class="cls-28" d="M433.21,803.1c11.42,0,20.71,5.22,21.31,11.78,0-.22.06-.44.06-.66,0-6.88-9.57-12.45-21.37-12.45s-21.38,5.57-21.38,12.45c0,.22,0,.44.06.66C412.49,808.32,421.79,803.1,433.21,803.1Z"/><path class="cls-28" d="M439.72,811.37l7.24,1.31c1.22.22,1.47,1.14.44,1.56l-6.17,2.52c-.41.16-.65.44-.64.73l.12,4.37c0,.73-1.42,1.15-2.44.71L432.18,820a2.44,2.44,0,0,0-1.4-.13l-7.17,1.39c-1.2.23-2.35-.43-1.94-1.12l2.41-4.14a.6.6,0,0,0-.23-.81l-4.55-3.52c-.76-.58,0-1.42,1.24-1.41l7.57.07a2,2,0,0,0,1.27-.37l4.35-3.56c.73-.6,2.33-.45,2.71.25l2.27,4.18A1.42,1.42,0,0,0,439.72,811.37Z"/><path class="cls-26" d="M439.72,810.55l7.24,1.31c1.22.22,1.47,1.14.44,1.57l-6.17,2.51c-.41.17-.65.44-.64.73l.12,4.37c0,.73-1.42,1.16-2.44.72l-6.09-2.63a2.53,2.53,0,0,0-1.4-.13l-7.17,1.39c-1.2.23-2.35-.43-1.94-1.12l2.41-4.14a.6.6,0,0,0-.23-.81l-4.55-3.51c-.76-.59,0-1.42,1.24-1.41l7.57.07a2.13,2.13,0,0,0,1.27-.37l4.35-3.57c.73-.59,2.33-.44,2.71.26l2.27,4.18A1.45,1.45,0,0,0,439.72,810.55Z"/><path class="cls-29" d="M439.72,810.55l7.24,1.31c1.22.22,1.47,1.14.44,1.57l-6.17,2.51c-.41.17-.65.44-.64.73l.12,4.37c0,.73-1.42,1.16-2.44.72l-6.09-2.63a2.53,2.53,0,0,0-1.4-.13l-7.17,1.39c-1.2.23-2.35-.43-1.94-1.12l2.41-4.14a.6.6,0,0,0-.23-.81l-4.55-3.51c-.76-.59,0-1.42,1.24-1.41l7.57.07a2.13,2.13,0,0,0,1.27-.37l4.35-3.57c.73-.59,2.33-.44,2.71.26l2.27,4.18A1.45,1.45,0,0,0,439.72,810.55Z"/><path class="cls-26" d="M519.66,811H462.48v8.07h0a1.77,1.77,0,0,0,0,.23c0,9.2,12.8,16.65,28.59,16.65s28.59-7.45,28.59-16.65c0-.08,0-.15,0-.23h0Z"/><g class="cls-30"><path class="cls-26" d="M462.48,818v.23a1.77,1.77,0,0,1,0-.23Z"/><path class="cls-26" d="M491.07,834.2c-15.79,0-28.59-7.46-28.59-16.65v1.55h0a1.77,1.77,0,0,0,0,.23c0,9.2,12.8,16.65,28.59,16.65s28.59-7.45,28.59-16.65c0-.08,0-.15,0-.23h0v-1.55C519.66,826.74,506.86,834.2,491.07,834.2Z"/><path class="cls-26" d="M519.66,818.26V818h0C519.65,818.11,519.66,818.18,519.66,818.26Z"/></g><g class="cls-30"><path class="cls-26" d="M499.83,835.18l.8-.17V813.86h-.8Z"/><path class="cls-26" d="M503.42,834.33l.8-.23V813.86h-.8Z"/><path class="cls-26" d="M507,833.15l.8-.34V813.86H507Z"/><path class="cls-26" d="M496.23,835.69l.81-.08V813.86h-.81Z"/><path class="cls-26" d="M514.19,829.09c.28-.22.55-.43.81-.66V813.86h-.81Z"/><path class="cls-26" d="M517.79,825.22a13.45,13.45,0,0,0,.8-1.42v-9.94h-.8Z"/><path class="cls-26" d="M510.6,831.47c.27-.15.55-.29.8-.44V813.86h-.8Z"/><path class="cls-26" d="M492.64,835.93l.8,0v-22h-.8Z"/><path class="cls-26" d="M489.05,835.92l.8,0V813.86h-.8Z"/><path class="cls-26" d="M481.87,835.08l.8.17V813.86h-.8Z"/><path class="cls-26" d="M485.46,835.66l.8.07V813.86h-.8Z"/><path class="cls-26" d="M478.27,834.2l.81.23V813.86h-.81Z"/><path class="cls-26" d="M463.91,824.51a13.53,13.53,0,0,0,.8,1.28V813.86h-.8Z"/><path class="cls-26" d="M467.5,828.75c.25.21.53.41.8.62V813.86h-.8Z"/><path class="cls-26" d="M474.68,833l.8.32V813.86h-.8Z"/><path class="cls-26" d="M471.09,831.23c.26.15.53.28.8.42V813.86h-.8Z"/></g><path class="cls-26" d="M519.66,811.15c0,9.19-12.8,16.65-28.59,16.65s-28.59-7.46-28.59-16.65,12.8-16.65,28.59-16.65S519.66,802,519.66,811.15Z"/><path class="cls-31" d="M491.07,827.35c-15.46,0-28-7.14-28.54-16.07a5.44,5.44,0,0,0,0,.58c0,9.2,12.8,16.65,28.59,16.65s28.59-7.45,28.59-16.65c0-.2,0-.39,0-.58C519.08,820.21,506.52,827.35,491.07,827.35Z"/><path class="cls-26" d="M512.44,811.15c0,6.87-9.57,12.44-21.37,12.44s-21.38-5.57-21.38-12.44,9.57-12.45,21.38-12.45S512.44,804.27,512.44,811.15Z"/><path class="cls-31" d="M491.78,799.32c11.42,0,20.72,5.22,21.32,11.78,0-.22,0-.44,0-.67,0-6.87-9.56-12.44-21.37-12.44s-21.37,5.57-21.37,12.44c0,.23,0,.45,0,.67C471.06,804.54,480.36,799.32,491.78,799.32Z"/><path class="cls-28" d="M491.07,800c11.42,0,20.71,5.21,21.31,11.78,0-.23.06-.45.06-.67,0-6.88-9.57-12.45-21.37-12.45s-21.38,5.57-21.38,12.45c0,.22,0,.44.06.67C470.35,805.25,479.65,800,491.07,800Z"/><path class="cls-28" d="M497.58,808.3l7.24,1.31c1.22.22,1.47,1.14.44,1.56l-6.17,2.52c-.41.17-.65.44-.64.73l.12,4.37c0,.73-1.42,1.16-2.44.72L490,816.88a2.53,2.53,0,0,0-1.4-.13l-7.17,1.39c-1.2.23-2.35-.43-1.94-1.12l2.41-4.14a.6.6,0,0,0-.23-.81l-4.55-3.51c-.76-.59,0-1.43,1.24-1.41l7.57.07a2,2,0,0,0,1.27-.38l4.35-3.56c.73-.59,2.33-.44,2.71.26l2.27,4.17A1.45,1.45,0,0,0,497.58,808.3Z"/><path class="cls-26" d="M497.58,807.48l7.24,1.31c1.22.22,1.47,1.15.44,1.57l-6.17,2.51c-.41.17-.65.44-.64.73l.12,4.37c0,.74-1.42,1.16-2.44.72L490,816.06a2.53,2.53,0,0,0-1.4-.13l-7.17,1.39c-1.2.24-2.35-.43-1.94-1.12l2.41-4.14a.6.6,0,0,0-.23-.81l-4.55-3.51c-.76-.59,0-1.42,1.24-1.41l7.57.07a2.11,2.11,0,0,0,1.27-.37l4.35-3.56c.73-.6,2.33-.45,2.71.25l2.27,4.18A1.44,1.44,0,0,0,497.58,807.48Z"/><path class="cls-29" d="M497.58,807.48l7.24,1.31c1.22.22,1.47,1.15.44,1.57l-6.17,2.51c-.41.17-.65.44-.64.73l.12,4.37c0,.74-1.42,1.16-2.44.72L490,816.06a2.53,2.53,0,0,0-1.4-.13l-7.17,1.39c-1.2.24-2.35-.43-1.94-1.12l2.41-4.14a.6.6,0,0,0-.23-.81l-4.55-3.51c-.76-.59,0-1.42,1.24-1.41l7.57.07a2.11,2.11,0,0,0,1.27-.37l4.35-3.56c.73-.6,2.33-.45,2.71.25l2.27,4.18A1.44,1.44,0,0,0,497.58,807.48Z"/><path class="cls-26" d="M549,779H491.84v8.07h0c0,.08,0,.15,0,.23,0,9.2,12.81,16.65,28.6,16.65S549,796.53,549,787.33c0-.08,0-.15,0-.23h0Z"/><g class="cls-30"><path class="cls-26" d="M491.84,786v.23c0-.07,0-.15,0-.23Z"/><path class="cls-26" d="M520.44,802.2c-15.79,0-28.6-7.45-28.6-16.65v1.55h0c0,.08,0,.15,0,.23,0,9.2,12.81,16.65,28.6,16.65S549,796.53,549,787.33c0-.08,0-.15,0-.23h0v-1.55C549,794.75,536.23,802.2,520.44,802.2Z"/><path class="cls-26" d="M549,786.26V786h0C549,786.11,549,786.19,549,786.26Z"/></g><g class="cls-30"><path class="cls-26" d="M529.19,803.18,530,803V781.87h-.81Z"/><path class="cls-26" d="M532.79,802.33l.8-.22V781.87h-.8Z"/><path class="cls-26" d="M536.38,801.15c.28-.1.53-.23.8-.34V781.87h-.8Z"/><path class="cls-26" d="M525.6,803.7c.27,0,.54-.05.8-.09V781.87h-.8Z"/><path class="cls-26" d="M543.56,797.09c.28-.21.55-.43.8-.66V781.87h-.8Z"/><path class="cls-26" d="M547.16,793.22a12.52,12.52,0,0,0,.8-1.42v-9.93h-.8Z"/><path class="cls-26" d="M540,799.47c.27-.15.55-.29.8-.44V781.87H540Z"/><path class="cls-26" d="M522,803.94l.8,0v-22H522Z"/><path class="cls-26" d="M518.42,803.92l.8,0V781.87h-.8Z"/><path class="cls-26" d="M511.24,803.08l.8.17V781.87h-.8Z"/><path class="cls-26" d="M514.83,803.66l.8.07V781.87h-.8Z"/><path class="cls-26" d="M507.64,802.21l.8.22V781.87h-.8Z"/><path class="cls-26" d="M493.27,792.51a14.46,14.46,0,0,0,.81,1.28V781.87h-.81Z"/><path class="cls-26" d="M496.87,796.75c.25.21.53.42.8.62v-15.5h-.8Z"/><path class="cls-26" d="M504.05,801l.8.32V781.87h-.8Z"/><path class="cls-26" d="M500.46,799.23c.26.15.53.29.8.43V781.87h-.8Z"/></g><path class="cls-26" d="M549,779.15c0,9.19-12.8,16.65-28.59,16.65s-28.6-7.46-28.6-16.65,12.81-16.65,28.6-16.65S549,770,549,779.15Z"/><path class="cls-31" d="M520.44,795.35c-15.46,0-28-7.14-28.55-16.07,0,.2-.05.39-.05.58,0,9.2,12.81,16.65,28.6,16.65S549,789.06,549,779.86c0-.19,0-.38,0-.58C548.45,788.21,535.89,795.35,520.44,795.35Z"/><path class="cls-26" d="M541.81,779.15c0,6.87-9.57,12.45-21.37,12.45s-21.38-5.58-21.38-12.45,9.57-12.45,21.38-12.45S541.81,772.27,541.81,779.15Z"/><path class="cls-31" d="M521.15,767.33c11.42,0,20.72,5.21,21.32,11.77,0-.22,0-.44,0-.66,0-6.88-9.57-12.45-21.37-12.45s-21.37,5.57-21.37,12.45c0,.22,0,.44.05.66C500.43,772.54,509.73,767.33,521.15,767.33Z"/><path class="cls-28" d="M520.44,768c11.41,0,20.71,5.22,21.31,11.78,0-.23.06-.45.06-.67,0-6.88-9.57-12.45-21.37-12.45s-21.38,5.57-21.38,12.45c0,.22,0,.44.06.67C499.72,773.26,509,768,520.44,768Z"/><path class="cls-28" d="M527,776.3l7.24,1.31c1.21.22,1.47,1.15.44,1.57l-6.17,2.51c-.41.17-.65.44-.64.73l.12,4.37c0,.74-1.42,1.16-2.44.72l-6.09-2.63a2.53,2.53,0,0,0-1.4-.13l-7.17,1.39c-1.2.24-2.35-.43-1.95-1.12l2.41-4.14a.6.6,0,0,0-.22-.81l-4.55-3.51c-.76-.59,0-1.42,1.24-1.41l7.57.07a2.13,2.13,0,0,0,1.27-.37l4.35-3.57c.73-.59,2.33-.44,2.71.26l2.27,4.18A1.45,1.45,0,0,0,527,776.3Z"/><path class="cls-26" d="M527,775.48l7.24,1.31c1.21.22,1.47,1.15.44,1.57l-6.17,2.51c-.41.17-.65.44-.64.73l.12,4.38c0,.73-1.42,1.15-2.44.71l-6.09-2.63a2.53,2.53,0,0,0-1.4-.13l-7.17,1.39c-1.2.24-2.35-.43-1.95-1.12l2.41-4.14a.6.6,0,0,0-.22-.81l-4.55-3.51c-.76-.59,0-1.42,1.24-1.41l7.57.07a2.06,2.06,0,0,0,1.27-.37l4.35-3.56c.73-.6,2.33-.45,2.71.25l2.27,4.18A1.42,1.42,0,0,0,527,775.48Z"/><path class="cls-29" d="M527,775.48l7.24,1.31c1.21.22,1.47,1.15.44,1.57l-6.17,2.51c-.41.17-.65.44-.64.73l.12,4.38c0,.73-1.42,1.15-2.44.71l-6.09-2.63a2.53,2.53,0,0,0-1.4-.13l-7.17,1.39c-1.2.24-2.35-.43-1.95-1.12l2.41-4.14a.6.6,0,0,0-.22-.81l-4.55-3.51c-.76-.59,0-1.42,1.24-1.41l7.57.07a2.06,2.06,0,0,0,1.27-.37l4.35-3.56c.73-.6,2.33-.45,2.71.25l2.27,4.18A1.42,1.42,0,0,0,527,775.48Z"/><path class="cls-26" d="M496.64,771.2H439.45v8.06h0c0,.08,0,.16,0,.23,0,9.2,12.8,16.66,28.6,16.66s28.59-7.46,28.59-16.66c0-.07,0-.15,0-.23h0Z"/><g class="cls-30"><path class="cls-26" d="M439.45,778.2v.23c0-.08,0-.16,0-.23Z"/><path class="cls-26" d="M468.05,794.36c-15.8,0-28.6-7.45-28.6-16.65v1.55h0c0,.08,0,.16,0,.23,0,9.2,12.8,16.65,28.6,16.65s28.59-7.45,28.59-16.65c0-.07,0-.15,0-.23h0v-1.55C496.64,786.91,483.84,794.36,468.05,794.36Z"/><path class="cls-26" d="M496.64,778.43v-.23h0C496.63,778.27,496.64,778.35,496.64,778.43Z"/></g><g class="cls-30"><path class="cls-26" d="M476.8,795.34l.8-.17V774h-.8Z"/><path class="cls-26" d="M480.4,794.49l.8-.22V774h-.8Z"/><path class="cls-26" d="M484,793.32l.8-.35V774H484Z"/><path class="cls-26" d="M473.21,795.86l.8-.08V774h-.8Z"/><path class="cls-26" d="M491.17,789.26c.27-.22.55-.44.8-.67V774h-.8Z"/><path class="cls-26" d="M494.76,785.38a11.79,11.79,0,0,0,.81-1.42V774h-.81Z"/><path class="cls-26" d="M487.58,791.63l.8-.44V774h-.8Z"/><path class="cls-26" d="M469.62,796.1c.27,0,.54,0,.8,0V774h-.8Z"/><path class="cls-26" d="M466,796.09l.8,0V774H466Z"/><path class="cls-26" d="M458.84,795.25l.81.16V774h-.81Z"/><path class="cls-26" d="M462.44,795.82l.8.07V774h-.8Z"/><path class="cls-26" d="M455.25,794.37l.8.22V774h-.8Z"/><path class="cls-26" d="M440.88,784.68a14.19,14.19,0,0,0,.8,1.27V774h-.8Z"/><path class="cls-26" d="M444.48,788.91c.25.22.53.42.8.63V774h-.8Z"/><path class="cls-26" d="M451.66,793.13l.8.31V774h-.8Z"/><path class="cls-26" d="M448.07,791.4l.8.42V774h-.8Z"/></g><ellipse class="cls-26" cx="468.05" cy="771.31" rx="28.59" ry="16.65"/><path class="cls-31" d="M468.05,787.52c-15.46,0-28-7.15-28.55-16.07,0,.19-.05.38-.05.57,0,9.2,12.8,16.66,28.6,16.66s28.59-7.46,28.59-16.66c0-.19,0-.38-.05-.57C496.06,780.37,483.5,787.52,468.05,787.52Z"/><ellipse class="cls-26" cx="468.05" cy="771.31" rx="21.37" ry="12.45"/><path class="cls-31" d="M468.76,759.49c11.42,0,20.71,5.22,21.31,11.78,0-.22.06-.44.06-.67,0-6.87-9.57-12.45-21.37-12.45s-21.38,5.58-21.38,12.45c0,.23,0,.45.06.67C448,764.71,457.34,759.49,468.76,759.49Z"/><path class="cls-28" d="M468.05,760.2c11.41,0,20.71,5.22,21.31,11.78,0-.22.06-.44.06-.67,0-6.87-9.57-12.44-21.37-12.44s-21.38,5.57-21.38,12.44c0,.23,0,.45.06.67C447.33,765.42,456.63,760.2,468.05,760.2Z"/><path class="cls-28" d="M474.56,768.46l7.24,1.31c1.21.22,1.47,1.15.44,1.57l-6.17,2.51c-.41.17-.65.44-.64.73l.12,4.38c0,.73-1.43,1.15-2.44.71L467,777.05a2.47,2.47,0,0,0-1.41-.14l-7.16,1.4c-1.2.23-2.35-.44-1.95-1.13l2.41-4.13a.61.61,0,0,0-.22-.82l-4.55-3.51c-.76-.59,0-1.42,1.24-1.41l7.57.07a2,2,0,0,0,1.27-.37l4.35-3.56c.73-.6,2.33-.45,2.71.25l2.27,4.18A1.38,1.38,0,0,0,474.56,768.46Z"/><path class="cls-26" d="M474.56,767.65,481.8,769c1.21.22,1.47,1.14.44,1.56L476.07,773c-.41.16-.65.44-.64.73l.12,4.37c0,.73-1.43,1.15-2.44.71L467,776.23a2.39,2.39,0,0,0-1.41-.13l-7.16,1.39c-1.2.23-2.35-.43-1.95-1.13l2.41-4.13a.6.6,0,0,0-.22-.81l-4.55-3.52c-.76-.59,0-1.42,1.24-1.41l7.57.07a2,2,0,0,0,1.27-.37l4.35-3.56c.73-.6,2.33-.45,2.71.25l2.27,4.18A1.42,1.42,0,0,0,474.56,767.65Z"/><path class="cls-29" d="M474.56,767.65,481.8,769c1.21.22,1.47,1.14.44,1.56L476.07,773c-.41.16-.65.44-.64.73l.12,4.37c0,.73-1.43,1.15-2.44.71L467,776.23a2.39,2.39,0,0,0-1.41-.13l-7.16,1.39c-1.2.23-2.35-.43-1.95-1.13l2.41-4.13a.6.6,0,0,0-.22-.81l-4.55-3.52c-.76-.59,0-1.42,1.24-1.41l7.57.07a2,2,0,0,0,1.27-.37l4.35-3.56c.73-.6,2.33-.45,2.71.25l2.27,4.18A1.42,1.42,0,0,0,474.56,767.65Z"/><path class="cls-26" d="M492.69,735.69H435.51v8.07h0c0,.08,0,.15,0,.23,0,9.2,12.8,16.65,28.59,16.65s28.59-7.45,28.59-16.65c0-.08,0-.15,0-.23h0Z"/><g class="cls-30"><path class="cls-26" d="M435.51,742.69v.23c0-.08,0-.15,0-.23Z"/><path class="cls-26" d="M464.1,758.86c-15.79,0-28.59-7.46-28.59-16.65v1.55h0c0,.08,0,.15,0,.23,0,9.19,12.8,16.65,28.59,16.65s28.59-7.46,28.59-16.65c0-.08,0-.15,0-.23h0v-1.55C492.69,751.4,479.89,758.86,464.1,758.86Z"/><path class="cls-26" d="M492.69,742.92v-.23h0C492.68,742.77,492.69,742.84,492.69,742.92Z"/></g><g class="cls-30"><path class="cls-26" d="M472.86,759.84l.8-.17V738.52h-.8Z"/><path class="cls-26" d="M476.45,759l.8-.23V738.52h-.8Z"/><path class="cls-26" d="M480,757.81l.8-.34v-19H480Z"/><path class="cls-26" d="M469.27,760.35l.8-.08V738.52h-.8Z"/><path class="cls-26" d="M487.23,753.75c.27-.22.54-.43.8-.66V738.52h-.8Z"/><path class="cls-26" d="M490.82,749.88a13.45,13.45,0,0,0,.8-1.42v-9.94h-.8Z"/><path class="cls-26" d="M483.63,756.13l.81-.44V738.52h-.81Z"/><path class="cls-26" d="M465.67,760.59l.81,0V738.52h-.81Z"/><path class="cls-26" d="M462.08,760.58l.8,0V738.52h-.8Z"/><path class="cls-26" d="M454.9,759.74l.8.17V738.52h-.8Z"/><path class="cls-26" d="M458.49,760.32l.8.07V738.52h-.8Z"/><path class="cls-26" d="M451.31,758.86l.8.23V738.52h-.8Z"/><path class="cls-26" d="M436.94,749.17a13.53,13.53,0,0,0,.8,1.28V738.52h-.8Z"/><path class="cls-26" d="M440.53,753.41c.25.21.53.41.8.62V738.52h-.8Z"/><path class="cls-26" d="M447.71,757.62l.81.32V738.52h-.81Z"/><path class="cls-26" d="M444.12,755.89c.26.15.54.28.8.42V738.52h-.8Z"/></g><ellipse class="cls-26" cx="464.1" cy="735.81" rx="28.59" ry="16.65"/><path class="cls-31" d="M464.1,752c-15.46,0-28-7.14-28.54-16.07,0,.19-.05.38-.05.58,0,9.2,12.8,16.65,28.59,16.65s28.59-7.45,28.59-16.65c0-.2,0-.39-.05-.58C492.11,744.87,479.56,752,464.1,752Z"/><ellipse class="cls-26" cx="464.1" cy="735.81" rx="21.37" ry="12.45"/><path class="cls-31" d="M464.81,724c11.42,0,20.72,5.22,21.32,11.78,0-.22.06-.44.06-.67,0-6.87-9.57-12.44-21.38-12.44s-21.37,5.57-21.37,12.44c0,.23,0,.45.06.67C444.1,729.2,453.4,724,464.81,724Z"/><path class="cls-28" d="M464.1,724.7c11.42,0,20.72,5.21,21.32,11.77,0-.22.05-.44.05-.66,0-6.88-9.57-12.45-21.37-12.45s-21.37,5.57-21.37,12.45c0,.22,0,.44,0,.66C443.38,729.91,452.68,724.7,464.1,724.7Z"/><path class="cls-28" d="M470.62,733l7.24,1.31c1.21.22,1.47,1.14.43,1.56l-6.17,2.52c-.41.17-.65.44-.64.73l.12,4.37c0,.73-1.42,1.16-2.44.72l-6.08-2.63a2.57,2.57,0,0,0-1.41-.13l-7.17,1.39c-1.2.23-2.35-.43-1.94-1.12l2.41-4.14a.6.6,0,0,0-.23-.81l-4.55-3.51c-.76-.59,0-1.43,1.24-1.41l7.57.07a2,2,0,0,0,1.27-.38l4.35-3.56a2.14,2.14,0,0,1,2.72.25l2.27,4.18A1.4,1.4,0,0,0,470.62,733Z"/><path class="cls-26" d="M470.62,732.14l7.24,1.31c1.21.22,1.47,1.15.43,1.57l-6.17,2.51c-.41.17-.65.44-.64.73l.12,4.37c0,.74-1.42,1.16-2.44.72l-6.08-2.63a2.57,2.57,0,0,0-1.41-.13L454.5,742c-1.2.24-2.35-.43-1.94-1.12l2.41-4.14a.6.6,0,0,0-.23-.81l-4.55-3.51c-.76-.59,0-1.42,1.24-1.41l7.57.07a2.11,2.11,0,0,0,1.27-.37l4.35-3.56a2.12,2.12,0,0,1,2.72.25l2.27,4.18A1.4,1.4,0,0,0,470.62,732.14Z"/><path class="cls-29" d="M470.62,732.14l7.24,1.31c1.21.22,1.47,1.15.43,1.57l-6.17,2.51c-.41.17-.65.44-.64.73l.12,4.37c0,.74-1.42,1.16-2.44.72l-6.08-2.63a2.57,2.57,0,0,0-1.41-.13L454.5,742c-1.2.24-2.35-.43-1.94-1.12l2.41-4.14a.6.6,0,0,0-.23-.81l-4.55-3.51c-.76-.59,0-1.42,1.24-1.41l7.57.07a2.11,2.11,0,0,0,1.27-.37l4.35-3.56a2.12,2.12,0,0,1,2.72.25l2.27,4.18A1.4,1.4,0,0,0,470.62,732.14Z"/><g class="cls-25"><path class="cls-26" d="M466.1,877.37v.12s0-.08,0-.12Z"/><path class="cls-26" d="M523.27,877.37s0,.08,0,.12v-.12Z"/><path class="cls-26" d="M494.69,894.14c-15.79,0-28.59-7.45-28.59-16.65v5.32h0c0,.08,0,.16,0,.23,0,9.2,12.8,16.65,28.59,16.65s28.59-7.45,28.59-16.65c0-.07,0-.15,0-.23h0v-5.32C523.28,886.69,510.48,894.14,494.69,894.14Z"/></g><g class="cls-25"><path class="cls-26" d="M414.81,858.53v.11s0-.07,0-.11Z"/><path class="cls-26" d="M472,858.53s0,.07,0,.11v-.11Z"/><path class="cls-26" d="M443.4,875.29c-15.79,0-28.59-7.45-28.59-16.65V864h0c0,.08,0,.16,0,.23,0,9.2,12.8,16.65,28.59,16.65s28.6-7.45,28.6-16.65c0-.07,0-.15,0-.23h0v-5.32C472,867.84,459.2,875.29,443.4,875.29Z"/></g><g class="cls-25"><path class="cls-26" d="M367,833.32v.12s0-.08,0-.12Z"/><path class="cls-26" d="M424.21,833.32s0,.08,0,.12v-.12Z"/><path class="cls-26" d="M395.63,850.09c-15.8,0-28.6-7.46-28.6-16.65v5.32h0c0,.08,0,.15,0,.23,0,9.2,12.8,16.65,28.6,16.65s28.59-7.45,28.59-16.65c0-.08,0-.15,0-.23h0v-5.32C424.22,842.63,411.42,850.09,395.63,850.09Z"/><path class="cls-26" d="M416,800.77c-15.79,0-28.59-7.45-28.59-16.65v5.33h0a1.69,1.69,0,0,0,0,.23c0,9.19,12.8,16.65,28.59,16.65s28.59-7.46,28.59-16.65c0-.08,0-.16,0-.23h0v-5.33C444.6,793.32,431.8,800.77,416,800.77Z"/><path class="cls-26" d="M546.85,777.76c-15.79,0-28.59-7.45-28.59-16.65v5.32h0c0,.08,0,.16,0,.23,0,9.2,12.8,16.65,28.59,16.65s28.6-7.45,28.6-16.65a2,2,0,0,0,0-.23h0v-5.32C575.45,770.31,562.64,777.76,546.85,777.76Z"/></g><g class="cls-25"><path class="cls-26" d="M491.08,845.6v.11s0-.08,0-.11Z"/><path class="cls-26" d="M548.26,845.6s0,.07,0,.11v-.11Z"/><path class="cls-26" d="M519.68,862.36c-15.8,0-28.6-7.45-28.6-16.65V851h0c0,.08,0,.16,0,.23,0,9.2,12.8,16.65,28.6,16.65s28.59-7.45,28.59-16.65c0-.07,0-.15,0-.23h0v-5.32C548.27,854.91,535.47,862.36,519.68,862.36Z"/></g><g class="cls-25"><path class="cls-26" d="M352.23,819.49c-15.79,0-28.59-7.45-28.59-16.65v5.32h0c0,.08,0,.16,0,.23,0,9.2,12.8,16.65,28.59,16.65s28.59-7.45,28.59-16.65a1.85,1.85,0,0,0,0-.23h0v-5.32C380.82,812,368,819.49,352.23,819.49Z"/><path class="cls-26" d="M323.64,803.52v.11s0-.08,0-.11Z"/><path class="cls-26" d="M380.81,803.52s0,.07,0,.11v-.11Z"/></g><g class="cls-32"><path class="cls-33" d="M290.74,492.37l-34.58-20a3.77,3.77,0,0,0-1.91-.58c-1.71,0-2.91,1.58-2.91,4.22v18.88c0,3.55,2.16,7.68,4.82,9.22l34.58,20a3.9,3.9,0,0,0,1.91.58c1.72,0,2.91-1.58,2.91-4.23V501.59C295.56,498,293.4,493.91,290.74,492.37Zm3,25.23L253.2,494.21v-15.3l40.51,23.39Zm-11.08-15.07-18.36-10.6v2.7l18.36,10.6Z"/></g><path class="cls-34" d="M278.53,310.16q-2.71-5.27-10.2-11.92v-14a14.57,14.57,0,0,1,3.74,7.88l7.89,3.38a27.67,27.67,0,0,0-11.63-19.17v-3.55l-4.53-2.61v3.54q-5.35-2.49-8.59-.36c-2.15,1.42-3.23,4.08-3.23,8a25.58,25.58,0,0,0,2.85,11.51,39.4,39.4,0,0,0,9,11.24v15a20.51,20.51,0,0,1-3.05-4.77,21.84,21.84,0,0,1-1.88-6l-8.14-3.7A35,35,0,0,0,255,318a30.68,30.68,0,0,0,8.76,9.68v6.52l4.53,2.61v-6.7q6.07,2.52,9.5.05t3.41-8.95A23.89,23.89,0,0,0,278.53,310.16ZM263.8,293.91a16.35,16.35,0,0,1-3-4.38,9.91,9.91,0,0,1-1-4.1,4.26,4.26,0,0,1,1.09-3.16,3.09,3.09,0,0,1,2.93-.74Zm8.33,28a3.76,3.76,0,0,1-3.8.29v-14a18.17,18.17,0,0,1,4,5,10.73,10.73,0,0,1,1.23,4.85A4.54,4.54,0,0,1,272.13,321.93Z"/><path class="cls-35" d="M259.86,332v-6.52a30.71,30.71,0,0,1-8.77-9.68,35,35,0,0,1-4.3-13.4l13.07,5.85v-6.36a39.05,39.05,0,0,1-9-11.24A25.58,25.58,0,0,1,248,279.17c0-3.92,1.07-6.58,3.23-8s5-1.3,8.59.36v-3.22l-82.71-47.75V285l84.85,49v-.68Z"/><path class="cls-35" d="M252.85,504.69a9.08,9.08,0,0,1-4.1-7.09v-25a2.65,2.65,0,0,1,1.5-2.74l-69.08-36.36v33.79l93.66,50.12Z"/><polygon class="cls-35" points="130.46 337.52 144.26 345.5 144.26 328.82 158.07 336.79 158.07 323.82 61.07 272.75 61.07 322.9 130.46 360.03 130.46 337.52"/><path class="cls-34" d="M133.09,362.1l8.72,5v-20l-8.72-5Zm13.81,8,8.72,5V338.41l-8.72-5Zm13.8-45.4V378l8.73,5V329.7Z"/><path class="cls-35" d="M306.33,178.74a36.36,36.36,0,0,1-1.89-3.26l-4.71-1.43-.47-1.19a39.53,39.53,0,0,1-2-6.54l-.56-2.78,4.37-.55v-.12a14.49,14.49,0,0,1,.07-1.45L297,156.08l.34-1.26a14.56,14.56,0,0,1,2.23-4.86l1.67-2.32,4.87,4.16-.67-3.62L244.1,115.89v32.58l61.59,33Z"/><path class="cls-34" d="M330.16,178.12a19.8,19.8,0,0,0-.17-2.41l4-.51a36.36,36.36,0,0,0-1.83-6.11l-4.59-1.38a32.28,32.28,0,0,0-2.86-4.93l1.1-4.64a36.59,36.59,0,0,0-4.4-4.63L319,156.7a21.64,21.64,0,0,0-2-1.36,16.07,16.07,0,0,0-2-1l-2.47-6.05a12.48,12.48,0,0,0-4.4-.45l1.1,5.91a6.36,6.36,0,0,0-2.86,1.63l-4.59-3.91a11.84,11.84,0,0,0-1.83,4l4,5.16a15.51,15.51,0,0,0-.17,2.22,20.11,20.11,0,0,0,.17,2.42l-4,.51a36,36,0,0,0,1.83,6.1l4.59,1.39a32.28,32.28,0,0,0,2.86,4.93l-1.1,4.63a36,36,0,0,0,4.4,4.64l2.47-3.2a18.32,18.32,0,0,0,2,1.36,14.79,14.79,0,0,0,2,1l2.47,6.06a12.21,12.21,0,0,0,4.4.44l-1.1-5.91a6.25,6.25,0,0,0,2.86-1.62l4.59,3.91a11.93,11.93,0,0,0,1.83-4l-4-5.17A15.51,15.51,0,0,0,330.16,178.12ZM317,176.58a11.68,11.68,0,0,1-5.31-9.15c0-3.36,2.38-4.71,5.31-3a11.68,11.68,0,0,1,5.3,9.15C322.25,176.92,319.88,178.28,317,176.58Z"/><path class="cls-35" d="M358.69,295.62a8.6,8.6,0,0,1-1.16-6.38,4.65,4.65,0,0,1,2.13-2.86l10.83-6.17a4.36,4.36,0,0,1,2.19-.57,5.74,5.74,0,0,1,2.72.74c-3.86-10.3-2.4-19.84,3.89-23.43a10.16,10.16,0,0,1,1-.48L293.82,211v50.14l65,34.8Z"/><path class="cls-34" d="M367.74,300.34l10.82-6.18c1.14-.64,1.31-2.52.54-4.49l3.18-1.8c6.28,9.08,15.25,13.72,21,10.46,6.26-3.57,6.26-15.22,0-26s-16.41-16.65-22.67-13.08c-5.72,3.26-6.19,13.29-1.44,23.24L376,284.29c-1.33-1.65-3.05-2.44-4.18-1.8L361,288.67c-1.36.77-1.36,3.29,0,5.63l1.86,3.2C364.18,299.84,366.38,301.11,367.74,300.34ZM384.46,283c-4.12-7.11-4.12-14.78,0-17.13s10.81,1.5,14.93,8.62,4.12,14.78,0,17.13S388.58,290.15,384.46,283Z"/><path class="cls-35" d="M338.09,400.62l-.45-6-53.22-28V399.2l65.51,35.06C343.43,423.42,339,413.11,338.09,400.62Z"/><path class="cls-34" d="M370.64,414a49.3,49.3,0,0,1-15-14l-.06,0c-4.38,1-9.62-.18-15-3.32l-.21-.12.29,3.85c1,13.56,6.31,24.68,14.82,37.86l.21.12c8.51-3.35,13.8-8.36,14.82-20.74l.29-3.52Zm-7.36,4.05c-.52,6.34-3.23,8.91-7.59,10.62l-.11-.06c-4.36-6.74-7.07-12.44-7.59-19.38l-.15-2,.11.06c2.74,1.61,5.42,2.21,7.67,1.7l0,0a25.35,25.35,0,0,0,7.67,7.16l.11.06Z"/></g></g></svg>