<?xml version="1.0" encoding="utf-8"?>
<!-- Generator: Adobe Illustrator 24.2.1, SVG Export Plug-In . SVG Version: 6.00 Build 0)  -->
<svg version="1.1" id="Capa_1" xmlns="http://www.w3.org/2000/svg" xmlns:xlink="http://www.w3.org/1999/xlink" x="0px" y="0px"
	 viewBox="0 0 57 57" style="enable-background:new 0 0 57 57;" xml:space="preserve">
<style type="text/css">
	.st0{fill:#FFFFFF;}
</style>
<g>
	<path class="st0" d="M22.7,0H3.3C1.5,0,0,1.5,0,3.3v19.3C0,24.5,1.5,26,3.3,26h19.3c1.8,0,3.3-1.5,3.3-3.3V3.3
		C26,1.5,24.5,0,22.7,0z"/>
	<path class="st0" d="M33.3,26h19.3c1.8,0,3.3-1.5,3.3-3.3V3.3C56,1.5,54.5,0,52.7,0H33.3C31.5,0,30,1.5,30,3.3v19.3
		C30,24.5,31.5,26,33.3,26z"/>
	<path class="st0" d="M22.7,30H3.3C1.5,30,0,31.5,0,33.3v19.3C0,54.5,1.5,56,3.3,56h19.3c1.8,0,3.3-1.5,3.3-3.3V33.3
		C26,31.5,24.5,30,22.7,30z"/>
	<path class="st0" d="M55,41H45V31c0-1.1-0.9-2-2-2s-2,0.9-2,2v10H31c-1.1,0-2,0.9-2,2s0.9,2,2,2h10v10c0,1.1,0.9,2,2,2s2-0.9,2-2
		V45h10c1.1,0,2-0.9,2-2S56.1,41,55,41z"/>
</g>
</svg>
