<?xml version="1.0" encoding="utf-8"?>
<!-- Generator: Adobe Illustrator 24.0.1, SVG Export Plug-In . SVG Version: 6.00 Build 0)  -->
<svg version="1.1" id="Layer_1" xmlns="http://www.w3.org/2000/svg" xmlns:xlink="http://www.w3.org/1999/xlink" x="0px" y="0px"
	 viewBox="0 0 576 512" style="enable-background:new 0 0 576 512;" xml:space="preserve">
<style type="text/css">
	.st0{fill:#FFFFFF;}
</style>
<path class="st0" d="M550.5,241l-50.1-86.8c1.1-2.1,1.9-4.6,1.9-7.2c0-8-6.7-14.7-14.7-15l-55.4-95.9c0.5-1.6,1.1-3.2,1.1-4.8
	c0-8.6-7-15.3-15.3-15.3c-4.8,0-8.8,2.1-11.8,5.6H299.5c-2.7-3.5-6.7-5.6-11.5-5.6s-8.8,2.1-11.5,5.6H170.4c-2.9-3.5-7-5.6-11.8-5.6
	c-8.3,0-15.3,6.7-15.3,15.3c0,1.6,0.5,3.5,1.1,4.8l-56,97.2c-5.4,2.4-9.1,7.5-9.1,13.7c0,0.5,0.3,1.1,0.3,1.6l-53.3,92.1
	c-7.2,1.3-12.6,7.5-12.6,15c0,7.2,5.1,13.4,12.1,15l55.2,95.4c-0.5,1.6-0.8,2.9-0.8,4.8c0,7.2,5.1,13.4,12.1,14.7l51.7,89.7
	c-0.5,1.6-1.1,3.5-1.1,5.4c0,8.6,7,15.3,15.3,15.3c4.8,0,8.8-2.1,11.5-5.4h106.9c2.7,3.2,7,5.4,11.5,5.4s8.8-2.1,11.5-5.4h107.1
	c2.7,2.9,6.7,4.8,11,4.8c8.6,0,15.3-7,15.3-15.3c0-1.6-0.3-2.9-0.8-4.3l51.7-90.3c7-1.3,12.1-7.5,12.1-14.7c0-1.6-0.3-3.2-0.8-4.8
	l54.9-95.4c7-1.3,12.3-7.5,12.3-15C562.3,248.5,557.2,242.3,550.5,241z M153.5,450.7l-43.7-75.8h43.7V450.7z M153.5,366.9h-43.7
	c-0.3-1.1-0.8-2.1-1.3-3.2l45-47.4V366.9z M153.5,304.5l-50.4,53.3c-1.3-0.5-2.7-1.3-4-1.6l-55.7-96.4c0.5-1.3,0.5-2.7,0.5-4
	s0-2.4-0.3-3.5l52-90c2.7-0.3,5.4-1.1,7.8-2.7l50.1,52L153.5,304.5L153.5,304.5z M153.5,202.2l-45.8-47.4c1.3-2.1,2.1-4.8,2.1-7.8
	c0-0.3-0.3-0.8-0.3-1.1l43.9-15.8V202.2z M153.5,121.5l-43.7,15.8l43.7-75.5V121.5z M480.1,160.6l0.8,1.3l-35.4,167.1l-63.8-67.2
	l98-101.5L480.1,160.6z M291.8,355.1l11.5,11.8h-22.8L291.8,355.1z M291.5,343.9l-83.3-85.4l79.6-84.4l83,87.6L291.5,343.9z
	 M296.8,349.8l79.3-82.2l67.5,71.3l-5.9,28.1h-124L296.8,349.8z M410.4,44.4c1.1,0.5,2.1,1.1,3.5,1.3l57.9,100.7v0.5
	c0,2.9,0.8,5.6,2.1,7.8L376.4,256l-83-87.6L410.4,44.4z M401.3,42.3L287.7,162.5l-57.1-60.3l166.3-60H401.3L401.3,42.3z M277.8,42.3
	c2.7,2.7,6.2,4.3,10.2,4.3s7.5-1.6,10.2-4.3h75L224.8,95.8l-50.9-53.6H277.8z M161.6,47.9l1.1-2.1c0.9-0.2,1.8-0.5,2.7-0.8
	l51.2,53.8l-54.9,19.8V47.9z M161.6,127.2l60.8-22l59.7,63.2l-79.6,84.1l-41-42.1C161.6,210.5,161.6,127.2,161.6,127.2z
	 M161.6,219.8l36.4,37.8l-36.4,38.3L161.6,219.8L161.6,219.8z M161.6,307.7l42.1-44.5l82.8,86l-17.1,17.7H161.6L161.6,307.7
	L161.6,307.7z M168.5,469.8c-1.6-1.6-3.5-2.7-5.9-3.5l-1.1-1.6v-89.7h99.9l-91.6,94.8H168.5z M298.4,469.8
	c-2.7-2.4-6.4-4.3-10.4-4.3s-7.8,1.9-10.4,4.3h-96.4l91.6-94.8H311l91.6,94.8H298.4L298.4,469.8z M418.4,458l-4.3,7.5
	c-1.3,0.3-2.4,0.8-3.5,1.3l-89.2-91.9h114.4L418.4,458L418.4,458z M431.3,435.7l12.9-60.8h22L431.3,435.7z M466.1,366.9h-20.4
	l4.6-21.2l17.1,18.2C466.9,364.8,466.4,365.8,466.1,366.9L466.1,366.9z M532.3,259.5l-55.4,96.7c-1.3,0.5-2.7,1.1-4,1.9l-20.6-22
	l34.6-163.9l45.8,79.3c-0.3,1.3-0.8,2.7-0.8,4.3C531.8,257.1,532,258.1,532.3,259.5z"/>
</svg>
