<svg id="Capa_1" enable-background="new 0 0 509.268 509.268" height="512" viewBox="0 0 509.268 509.268" width="512" xmlns="http://www.w3.org/2000/svg"><path id="XMLID_512_" d="m425.443 0h-341.618v158.384h341.617v-158.384zm-263.783 94.627v-30h96.264v30zm161.974-15c0-8.284 6.716-15 15-15h.336c8.284 0 15 6.716 15 15s-6.716 15-15 15h-.336c-8.284 0-15-6.716-15-15z"/><path id="XMLID_522_" d="m239.634 188.405v42.646h-121.555v30h273.555v-30h-122v-42.646z"/><path id="XMLID_529_" d="m22.031 455.964h80.603v23.304h-30.868v30h92.627v-30h-31.759v-23.304h80.604v-162.774h-191.207z"/><path id="XMLID_553_" d="m487.238 455.964v-162.774h-191.207v162.774h80.603v23.304h-30.868v30h92.627v-30h-31.759v-23.304z"/></svg>