<?xml version="1.0" encoding="utf-8"?>
<!-- Generator: Adobe Illustrator 24.0.1, SVG Export Plug-In . SVG Version: 6.00 Build 0)  -->
<svg version="1.1" id="Capa_1" xmlns="http://www.w3.org/2000/svg" xmlns:xlink="http://www.w3.org/1999/xlink" x="0px" y="0px"
	 viewBox="0 0 371 371" style="enable-background:new 0 0 371 371;" xml:space="preserve">
 
<g>
	<g>
		<path    d="M281,14.2C255.6,5.1,221.7,0,185.5,0S115.4,5.1,90,14.2c-22.2,8-35.4,18.5-35.4,28s13.2,20,35.4,28l0,0
			c25.4,9.2,59.3,14.2,95.5,14.2s70.1-5.1,95.5-14.2c22.2-8,35.4-18.5,35.4-28C316.4,32.7,303.2,22.3,281,14.2z"/>
	</g>
</g>
<g>
	<g>
		<path    d="M185.5,291.1c-51.3,0-105-10.6-131-30.7v68.3c0,9.5,13.3,20,35.5,28c25.4,9.2,59.4,14.2,95.6,14.2
			c21.3,0.1,42.6-1.8,63.5-5.7c39.7-7.6,67.5-22.7,67.5-36.6v-68.3C290.5,280.5,236.8,291.1,185.5,291.1z M208.5,337.5h-46
			c-4.4,0-8-3.6-8-8s3.6-8,8-8h46c4.4,0,8,3.6,8,8S212.9,337.5,208.5,337.5z"/>
	</g>
</g>
<g>
	<g>
		<path    d="M185.5,195.8c-51.3,0-105-10.6-131-30.7v67.7c0,9.5,13.3,20,35.5,28c25.4,9.2,59.4,14.2,95.6,14.2
			s70.2-5.1,95.5-14.2c22.2-8,35.4-18.5,35.4-28v-67.7C290.5,185.2,236.8,195.8,185.5,195.8z M208.5,240.5h-46c-4.4,0-8-3.6-8-8
			s3.6-8,8-8h46c4.4,0,8,3.6,8,8S212.9,240.5,208.5,240.5z"/>
	</g>
</g>
<g>
	<g>
		<path    d="M185.5,100.6c-51.3,0-105-10.6-131-30.7v67.7c0,9.5,13.3,20,35.5,28c25.4,9.2,59.4,14.2,95.6,14.2
			s70.2-5.1,95.5-14.2c22.2-8,35.4-18.5,35.4-28V69.9C290.5,89.9,236.8,100.6,185.5,100.6z M208.5,146.5h-46c-4.4,0-8-3.6-8-8
			s3.6-8,8-8h46c4.4,0,8,3.6,8,8S212.9,146.5,208.5,146.5z"/>
	</g>
</g>
</svg>
