<svg height="464pt" viewBox="0 -48 464 464" width="464pt" xmlns="http://www.w3.org/2000/svg"><path d="m304 168h-108.527344c-9.234375 0-18.410156.648438-27.472656 1.910156v38.089844h-16v-35.152344c-21.910156 4.894532-42.945312 13.425782-62.191406 25.457032-6.144532 3.847656-9.808594 10.457031-9.808594 17.695312s3.664062 13.847656 9.808594 17.695312c19.246094 12.03125 40.28125 20.5625 62.191406 25.457032v-35.152344h16v38.089844c9.0625 1.261718 18.238281 1.910156 27.472656 1.910156h108.527344v-18.238281l-34.945312-11.648438c-7.808594-2.609375-13.054688-9.890625-13.054688-18.113281s5.246094-15.503906 13.046875-18.121094l34.953125-11.640625zm0 0"/><path d="m352.609375 208h-.609375v23.488281c12.800781-1.464843 24.832031-6.382812 34.929688-14.382812-10.441407-5.96875-22.210938-9.105469-34.320313-9.105469zm0 0"/><path d="m320 184h16v64h-16zm0 0"/><path d="m368 0h-368v48h368zm-336 32h-16v-16h16zm32 0h-16v-16h16zm32 0h-16v-16h16zm0 0"/><path d="m320 264v16h-24v21.191406c0 10.367188-8.441406 18.808594-18.808594 18.808594-5.742187 0-11.09375-2.566406-14.6875-7.054688l-26.351562-32.945312h-40.679688c-40.410156 0-79.878906-11.320312-114.152344-32.742188-10.839843-6.777343-17.320312-18.457031-17.320312-31.257812s6.480469-24.480469 17.328125-31.257812c34.265625-21.421876 73.734375-32.742188 114.144531-32.742188h40.679688l26.351562-32.945312c3.59375-4.488282 8.945313-7.054688 14.6875-7.054688 10.367188 0 18.808594 8.441406 18.808594 18.808594v21.191406h24v16h22.113281l25.886719-12.945312v-91.054688h-368v304h368v-91.054688l-25.886719-12.945312zm-144-136h-72v-16h72zm-160-48h160v16h-160zm0 32h72v16h-72zm0 32h80v16h-80zm0 128h80v16h-80zm0 32h72v16h-72zm160 48h-160v-16h160zm0-32h-72v-16h72zm0 0"/><path d="m464 216-40-16 16-24-40 10.246094 8-34.246094-56 28.945312v11.054688h.609375c16.886719 0 33.238281 4.953125 47.285156 14.320312l12.648438 8.421876-8.253907 8.28125c-14.210937 14.207031-32.546874 22.761718-52.296874 24.585937v3.445313l56.007812 28.945312-8-34.246094 40 10.246094-16-24zm0 0"/><path d="m272 216c0 1.335938.855469 2.511719 2.128906 2.945312l29.871094 9.957032v-25.804688l-29.878906 9.957032c-1.265625.433593-2.121094 1.609374-2.121094 2.945312zm0 0"/><path d="m275 129.054688-18.351562 22.945312h23.351562v-21.191406c0-2.402344-3.503906-3.632813-5-1.753906zm0 0"/><path d="m280 301.191406v-21.191406h-23.351562l18.351562 22.945312c1.496094 1.886719 5 .65625 5-1.753906zm0 0"/></svg>