<?xml version="1.0" encoding="utf-8"?>
<!-- Generator: Adobe Illustrator 24.2.1, SVG Export Plug-In . SVG Version: 6.00 Build 0)  -->
<svg version="1.1" id="Layer_1" xmlns="http://www.w3.org/2000/svg" xmlns:xlink="http://www.w3.org/1999/xlink" x="0px" y="0px"
	 viewBox="0 0 512 512" style="enable-background:new 0 0 512 512;" xml:space="preserve">

<g>
	<path d="M370,128H142c-7.7,0-14,6.3-14,14v228c0,7.7,6.3,14,14,14h228c7.7,0,14-6.3,14-14V142
		C384,134.3,377.7,128,370,128z M168,360c-8.8,0-16-7.2-16-16s7.2-16,16-16h0c8.8,0,16,7.2,16,16S176.9,360,168,360L168,360z
		 M168,184c-8.8,0-16-7.2-16-16s7.2-16,16-16h0c8.8,0,16,7.2,16,16S176.9,184,168,184L168,184z M344,360c-8.8,0-16-7.2-16-16
		s7.2-16,16-16h0c8.8,0,16,7.2,16,16S352.9,360,344,360z M344,184c-8.8,0-16-7.2-16-16s7.2-16,16-16h0c8.8,0,16,7.2,16,16
		S352.9,184,344,184z"/>
	<path d="M496,208c8.8,0,16-7.2,16-16s-7.2-16-16-16h-24v-32h24c8.8,0,16-7.2,16-16s-7.2-16-16-16h-24V86
		c0-25.4-20.6-46-46-46h-26V16c0-8.8-7.2-16-16-16s-16,7.2-16,16v24h-32V16c0-8.8-7.2-16-16-16s-16,7.2-16,16v24h-32V16
		c0-8.8-7.2-16-16-16c-8.8,0-16,7.2-16,16v24h-32V16c0-8.8-7.2-16-16-16s-16,7.2-16,16v24h-32V16c0-8.8-7.2-16-16-16s-16,7.2-16,16
		v24H86c-25.4,0-46,20.6-46,46v26H16c-8.8,0-16,7.2-16,16s7.2,16,16,16h24v32H16c-8.8,0-16,7.2-16,16s7.2,16,16,16h24v32H16
		c-8.8,0-16,7.2-16,16s7.2,16,16,16h24v32H16c-8.8,0-16,7.2-16,16s7.2,16,16,16h24v32H16c-8.8,0-16,7.2-16,16s7.2,16,16,16h24v26
		c0,25.4,20.6,46,46,46h26v24c0,8.8,7.2,16,16,16s16-7.2,16-16v-24h32v24c0,8.8,7.2,16,16,16s16-7.2,16-16v-24h32v24
		c0,8.8,7.2,16,16,16c8.8,0,16-7.2,16-16v-24h32v24c0,8.8,7.2,16,16,16s16-7.2,16-16v-24h32v24c0,8.8,7.2,16,16,16s16-7.2,16-16v-24
		h26c25.4,0,46-20.6,46-46v-26h24c8.8,0,16-7.2,16-16s-7.2-16-16-16h-24v-32h24c8.8,0,16-7.2,16-16s-7.2-16-16-16h-24v-32h24
		c8.8,0,16-7.2,16-16s-7.2-16-16-16h-24v-32H496z M416,370c0,25.4-20.6,46-46,46H142c-25.4,0-46-20.6-46-46V142
		c0-25.4,20.6-46,46-46h228c25.4,0,46,20.6,46,46V370z"/>
</g>
</svg>
