<?xml version="1.0" encoding="utf-8"?>
<!-- Generator: Adobe Illustrator 24.0.1, SVG Export Plug-In . SVG Version: 6.00 Build 0)  -->
<svg version="1.1" id="Layer_1" xmlns="http://www.w3.org/2000/svg" xmlns:xlink="http://www.w3.org/1999/xlink" x="0px" y="0px"
	 viewBox="0 0 1080 1080" enable-background="new 0 0 1080 1080" xml:space="preserve">
<g>
	<path d="M442.2,616l-114.5,19.6c17,47.5,49.6,87.1,89.7,112.8l44-105.8c1.7-3.5,1.7-7,0.9-11.3
		C460.1,621.6,451.4,615.1,442.2,616z"/>
	<path d="M577.6,460.1c6.5,7.8,17.4,9.6,25.3,4.4l94.5-66.6c-34.8-34.8-80.1-57-129.7-62.7l6.5,117.1
		C574.6,454.9,575.4,457.9,577.6,460.1z"/>
	<path d="M485.8,467.9c10.9,0,18.7-8.7,19.6-18.7l6.5-114.9c-7.8,1.3-15.2,3-23.1,4.4
		c-40.9,9.6-77.9,29.6-107.5,58.8l95.8,68.4C479.2,467.1,482.7,467.9,485.8,467.9z"/>
	<polygon points="508,583.8 539.7,599 571.5,583.8 578.9,549.8 557.2,522.4 521.9,522.4 500.1,549.8 	"/>
	<path d="M434.8,543.7c6.5-7.8,5.7-20-2.2-26.6L346.9,441c-25.7,42.2-36.6,91.9-32.2,140.6l111.5-32.2
		C429.6,548.9,432.6,546.7,434.8,543.7z"/>
	<path d="M1077.9,646l-89.7-390.5c-5.7-26.1-22.6-47-46.6-58.3l-364-173.3c-11.8-5.7-24.4-8.7-37.4-8.7
		c-13.1,0-26.1,3-37.4,8.7L138.8,198c-23.5,11.8-40.9,32.7-46.6,58.3L2.5,646.9C-4,672.6,2.5,699.1,19,720l251.6,312.6
		c16.5,20.9,41.4,32.2,67,32.2l404.9-0.9c26.1,0,50.5-12.2,67-32.2l251.6-312.6C1077.9,698.7,1083.5,671.7,1077.9,646z M902.9,659.5
		c-2.2,0-3.5,0-5.7-0.9c-0.9-0.9-1.3-0.9-2.2-0.9c-1.3,0-3-0.9-4.4-0.9c-5.2-1.7-8.7-3-13.1-5.2c-2.2-0.9-4.4-2.2-6.5-3h-0.9
		c-13.5-5.2-26.1-9.6-37.4-10.9h-1.3c-3.9,0-6.1,2.2-9.1,3.5c-0.4,0-0.4,0.9-1.3,0.9l-8.7-1.3c-7,22.6-17,44.8-30,64.9
		c-24.4,38.7-56.6,70.5-94.9,92.7l3.5,8.7c0,0.4-0.9,0.4-0.9,1.3c-0.9,3.5-2.2,6.1-0.9,11.3c3.5,10.9,10.9,21.8,18.7,34v0.9
		c1.3,2.2,3,3.5,4.4,5.7c2.6,3.5,5.7,7,7.8,11.3c0.9,0.4,1.3,2.2,2.2,3.5c0,0.4,0.9,0.4,0.9,1.3c2.6,5.7,3,12.2,1.3,17.9
		s-5.7,10-10.9,13.1c-3,1.3-5.7,2.2-8.7,2.2c-8.7,0-17.4-4.8-21.8-13.5c0,0-0.9-0.4-0.9-1.3c-0.9-1.3-1.3-2.2-2.2-3.5
		c-2.2-4.4-3-8.7-4.4-13.1c-0.9-2.2-1.3-4.4-2.2-6.5v-0.9c-5.2-13.9-9.6-26.1-15.2-36.1c-2.6-4.4-5.7-5.7-9.1-6.5
		c-0.4-0.9-0.4-0.9-1.3-0.9l-4.4-7.8c-12.2,4.4-24.4,7.8-37.4,10.9c-20.5,5.2-41.8,7.4-62.7,7.4c-34.4,0-68.8-6.5-100.6-18.7
		l-5.2,9.1c-0.4,0.9-0.4,0.9-1.3,0.9c-2.6,1.3-6.1,2.2-9.1,6.5c-6.5,10.4-10,21.8-15.2,36.1c-0.9,2.2-1.3,4.4-2.2,6.5
		c-1.3,4.4-2.2,7.8-4.4,13.1c-0.9,0.4-1.3,2.2-2.2,3.5c0,0-0.9,0.4-0.9,1.3c-4.4,7.8-13.1,13.5-21.8,13.5c-3,0-5.7-0.9-8.7-2.2
		c-10.4-5.2-14.8-18.7-9.1-30.9c0,0,0.9-0.4,0.9-1.3c0.9-1.3,1.3-2.6,2.2-3.5c2.6-3.9,4.8-7.8,7.8-11.3c1.3-2.2,3-3.5,4.4-5.7v-0.9
		c7.8-12.2,14.4-23.1,18.7-34c1.7-4.8,0-8.3-1.3-11.3c0-0.4-0.9-0.4-0.9-1.3l4.4-9.1c-10.9-6.5-20.9-13.1-30.9-20.9
		c-43.5-34.8-76.6-82.3-94-135.4l-10,1.3c-0.4,0-0.4-0.9-1.3-0.9c-1.7-1.3-4.8-3.5-9.1-3.5H252c-11.8,1.7-23.9,5.7-37.4,10.9h-0.9
		c-2.2,0.9-4.4,2.2-6.5,3c-4.4,2.2-7.8,3.9-13.1,5.2c-1.3,0-3,0.9-4.4,0.9c0,0.9-0.4,0.9-1.3,0.9c-2.2,0.9-3.5,0.9-5.7,0.9
		c-11.8,0-20.9-6.5-23.1-16.5c-2.2-11.3,5.7-23.5,18.7-26.6c0.9-0.9,1.3-0.9,2.2-0.9c1.3,0,3-0.9,4.4-0.9c4.8-0.4,9.1-1.3,13.5-1.3
		c2.2-0.9,5.2-0.9,7.4-0.9h0.9c14.8-1.3,27.9-3,38.7-6.5c4.4-2.2,6.5-4.8,7.8-7.8c0-0.4,0.9-0.4,0.9-1.3l9.1-3
		c-9.6-66.2,3.9-133.2,40.1-189.8c0.4-2.2,2.2-3.5,3.5-5.7l-7-7.4v-1.3c0-3.5,0-7.4-3.5-10.9c-8.3-7.8-19.2-14.4-32.2-22.2
		c-2.2-1.3-4.4-2.6-6.5-3.5c-4.4-2.2-7.8-4.4-12.2-7.4c-1.3-0.9-2.2-2.2-3.5-3c-0.4,0-0.4-0.9-1.3-0.9c-10.4-8.3-12.6-23.1-5.2-32.2
		c3.5-4.8,10-7.8,16.5-7.8c5.7,0,11.3,2.2,15.7,5.7c0,0.4,0.4,0.4,1.3,1.3c1.3,1.7,2.6,2.2,3.5,3c3.5,3.5,6.1,6.5,9.1,10
		c2.2,1.7,3.9,3.9,5.2,5.2c10,10.9,19.6,20,28.7,26.6c2.2,1.3,4.4,2.2,6.5,2.2c1.3,0,3-0.9,4.4-0.9h1.3l7.4,5.2
		c38.3-40.5,87.1-68.4,142.4-80.5c13.1-2.6,25.7-4.4,38.7-5.7l0.9-9.1c0.4-0.4,0.4-0.4,1.3-1.3c2.2-1.7,4.8-3.9,5.7-9.1
		c1.3-11.3-0.9-24.4-2.2-38.7v-0.9c-0.4-3-0.4-5.2-1.3-7.4c-1.3-4.4-2.2-8.3-2.2-13.5v-4.4v-1.3c0-6.5,2.2-12.2,6.5-16.5
		c4.4-4.4,10-7.4,15.7-7.4c12.2,0,22.2,10.9,22.2,23.9v2.2v4.4c-0.9,4.8-1.3,9.1-2.2,13.5c-0.4,2.2-1.3,5.2-1.3,7.4v1.3
		c-1.3,14.4-3,27.4-2.2,38.7c0.4,4.8,3.5,7,5.7,9.1c0.4,0.4,0.4,0.4,1.3,1.3l0.9,9.1c54.4,4.8,107.1,25.7,150.2,59.6
		c10,8.7,20.5,17.4,29.6,27.4l8.7-5.7h1.3c1.3,0.9,3,0.9,4.4,0.9c2.2,0,4.4-0.9,6.5-2.2c9.1-6.1,18.7-14.8,28.7-25.7
		c2.2-1.7,3.9-3.9,5.2-5.2c2.6-3.5,5.7-6.5,9.1-10c1.3-0.9,2.2-2.2,3.5-3c0.4-0.4,0.4-0.4,1.3-1.3c4.8-3.5,10-5.7,15.7-5.7
		c6.5,0,13.1,2.6,16.5,7.8c7,9.1,4.8,23.5-5.2,32.2c0,0.4-0.4,0.4-1.3,1.3c-1.3,1.7-2.6,2.2-3.5,3c-4.4,3-7.8,5.2-12.2,7.4
		c-2.2,1.3-4.4,2.2-6.5,3.5c-12.6,7.8-23.5,14.4-32.2,22.2c-2.6,3.5-3.5,7.4-3.5,10.9v1.3l-7.4,6.1c18.3,28.7,31.8,60.1,40.1,94
		c8.3,34,9.6,68.4,5.2,101.4l9.1,3c0,0.4,0.9,0.4,0.9,1.3c1.3,2.6,2.6,5.7,7.8,7.8c11.3,3.5,23.5,5.2,38.7,6.5h0.9
		c3,0.9,5.2,0.9,7.4,0.9c4.4,0,8.3,0.4,13.5,1.3c1.3,0,3,0.9,4.4,0.9c0,0.9,0.4,0.9,1.3,0.9h0.5c0,0,0.1,0,0.3,0
		c13.1,3.9,20.9,15.2,21.8,23.9C922.9,652.1,913.7,659.5,902.9,659.5z"/>
	<path d="M546.7,665.2c-7.8-3.9-17.4-1.3-23.1,5.2L467,773.1c23.1,7,47.5,11.3,72.7,11.3c17.4,0,34-2.2,50.5-5.7
		c7-2.2,14.4-3.5,20.5-5.7L555.4,673C553.2,670.4,550.2,667.3,546.7,665.2z"/>
	<path d="M732.2,441l-87.1,78.4c-2.2,2.2-3.5,4.8-4.4,7.8c-2.2,10,3.5,20,13.5,23.1L764.4,582
		c2.2-23.9,0.4-48.3-5.2-72.7C753.1,484.1,743.9,461,732.2,441z"/>
	<path d="M626,617.7c-8.7,4.4-12.2,13.5-10,22.2l45.3,108.4c27.4-17.9,51.4-40.9,69.2-69.7
		c9.1-13.5,16.5-27.9,20.5-43.5L636,615.5C632.5,615.5,629,616.4,626,617.7z"/>
</g>
</svg>
