<?xml version="1.0" encoding="utf-8"?>
<!-- Generator: Adobe Illustrator 24.0.1, SVG Export Plug-In . SVG Version: 6.00 Build 0)  -->
<svg version="1.1" id="Layer_1" xmlns="http://www.w3.org/2000/svg" xmlns:xlink="http://www.w3.org/1999/xlink" x="0px" y="0px"
	 viewBox="0 0 448 512" style="enable-background:new 0 0 448 512;" xml:space="preserve">
 
<path    d="M156.8,126.8c37.6,60.6,64.2,113.1,84.3,162.5c-8.3,33.8-18.8,66.5-31.3,98.3c-13.2-52.3-26.5-101.3-56-148.5
	C160.3,202.7,156.1,165.5,156.8,126.8L156.8,126.8z M109.3,200H16.1c-6.5,0-10.5,7.5-6.5,12.7C51.8,267,81.3,330.5,101.3,400h103.5
	c-16.2-69.7-38.7-133.7-82.5-193.5C119.3,202.5,114.3,200,109.3,200z M157.1,112c68.5,108,130,234.5,138.2,368H409
	c-12-138-68.4-265-143.2-368H157.1z M408.9,43.5c-1.8-6.8-8.2-11.5-15.2-11.5h-88.3c-5.3,0-9,5-7.8,10.3
	c13.2,46.5,22.3,95.5,26.5,146c48.2,86.2,79.7,178.3,90.6,270.8c15.8-60.5,25.3-133.5,25.3-203C440,182.5,427.9,111,408.9,43.5
	L408.9,43.5z"/>
</svg>
