<?xml version="1.0" encoding="utf-8"?>
<!-- Generator: Adobe Illustrator 24.0.1, SVG Export Plug-In . SVG Version: 6.00 Build 0)  -->
<svg version="1.1" id="Layer_1" xmlns="http://www.w3.org/2000/svg" xmlns:xlink="http://www.w3.org/1999/xlink" x="0px" y="0px"
	 viewBox="0 0 640 512" style="enable-background:new 0 0 640 512;" xml:space="preserve">
 
<path    d="M111.4,256.3l5.8,65l-5.8,68.3c-0.3,2.5-2.2,4.4-4.4,4.4s-4.2-1.9-4.2-4.4l-5.6-68.3l5.6-65
	c0-2.2,1.9-4.2,4.2-4.2C109.2,252.1,111.1,254.1,111.4,256.3z M132.8,210.7c-2.8,0-4.7,2.2-5,5l-5,105.6l5,68.3c0.3,2.8,2.2,5,5,5
	c2.5,0,4.7-2.2,4.7-5l5.8-68.3l-5.8-105.6C137.5,212.9,135.3,210.7,132.8,210.7z M158.3,186.6c-3.1,0-5.3,2.2-5.6,5.3l-4.4,130
	l4.4,67.8c0.3,3.1,2.5,5.3,5.6,5.3c2.8,0,5.3-2.2,5.3-5.3l5.3-67.8l-5.3-130C163.6,188.8,161.1,186.6,158.3,186.6L158.3,186.6z
	 M7.2,283.2c-1.4,0-2.2,1.1-2.5,2.5L0,321.3l4.7,35c0.3,1.4,1.1,2.5,2.5,2.5s2.2-1.1,2.5-2.5l5.6-35l-5.6-35.6
	C9.4,284.3,8.6,283.2,7.2,283.2L7.2,283.2z M30.8,261.3c-1.4,0-2.5,1.1-2.5,2.5l-6.4,57.5l6.4,56.1c0,1.7,1.1,2.8,2.5,2.8
	c1.4,0,2.5-1.1,2.8-2.5l7.2-56.4l-7.2-57.5C33.3,262.4,32.2,261.3,30.8,261.3z M56.1,249.9c-1.7,0-3.1,1.4-3.3,3.3L47,321.3
	l5.8,65.8c0.3,1.7,1.7,3.1,3.3,3.1c1.7,0,3.1-1.4,3.1-3.1l6.9-65.8l-6.9-68.1C59.2,251.3,57.8,249.9,56.1,249.9L56.1,249.9z
	 M81.4,247.7c-1.9,0-3.6,1.4-3.6,3.6l-5.8,70l5.8,67.8c0,2.2,1.7,3.6,3.6,3.6s3.6-1.4,3.9-3.6l6.4-67.8l-6.4-70
	C85,249.1,83.3,247.7,81.4,247.7L81.4,247.7z M322.8,136.8c-1.1-0.8-2.8-1.4-4.2-1.4c-2.2,0-4.2,0.8-5.6,1.9
	c-1.9,1.7-3.1,4.2-3.3,6.7v0.8l-3.3,176.7l1.7,32.5l1.7,31.7c0.3,4.7,4.2,8.6,8.9,8.6s8.6-3.9,8.6-8.6l3.9-64.2L327.3,144
	C326.9,141,325.3,138.2,322.8,136.8L322.8,136.8z M296.1,152.1c-1.4-0.8-2.8-1.4-4.4-1.4s-3.1,0.6-4.4,1.4c-2.2,1.4-3.6,3.9-3.6,6.7
	l-0.3,1.7l-2.8,160.8c0,0,0,0.3,3.1,65.6v0.3c0,1.7,0.6,3.3,1.7,4.7c1.7,1.9,3.9,3.1,6.4,3.1c2.2,0,4.2-1.1,5.6-2.5
	c1.7-1.4,2.5-3.3,2.5-5.6l0.3-6.7l3.1-58.6L300,158.8C299.7,156,298.3,153.5,296.1,152.1L296.1,152.1z M184.7,174.6
	c-3.1,0-5.8,2.8-5.8,6.1l-4.4,140.6l4.4,67.2c0.3,3.3,2.8,5.8,5.8,5.8c3.3,0,5.8-2.5,6.1-5.8l5-67.2l-5-140.6
	C190.6,177.4,188.1,174.6,184.7,174.6L184.7,174.6z M561.4,237.4c-10.8,0-21.1,2.2-30.6,6.1c-6.4-70.8-65.8-126.4-138.3-126.4
	c-17.8,0-35,3.3-50.3,9.4c-6.1,2.2-7.8,4.4-7.8,9.2v249.7c0,5,3.9,8.6,8.6,9.2h218.3c43.3,0,78.6-35,78.6-78.3
	C640,272.7,604.7,237.4,561.4,237.4L561.4,237.4z M264.7,177.1c-4.2,0-7.5,3.3-7.8,7.8l-3.3,136.7l3.3,65.6c0.3,4.2,3.6,7.5,7.8,7.5
	c4.2,0,7.5-3.3,7.5-7.5l3.9-65.6l-3.9-136.7C271.9,180.4,268.9,177.1,264.7,177.1L264.7,177.1z M211.1,169.3c-3.3,0-6.4,3.1-6.4,6.7
	l-3.9,145.3l3.9,66.9c0.3,3.6,3.1,6.4,6.4,6.4c3.6,0,6.4-2.8,6.7-6.4l4.4-66.9L217.8,176C217.5,172.4,214.7,169.3,211.1,169.3z
	 M237.8,172.7c-3.9,0-6.9,3.1-6.9,6.9L227,321.3l3.9,66.4c0.3,3.9,3.1,6.9,6.9,6.9s6.9-3.1,6.9-6.9l4.2-66.4l-4.2-141.7
	C244.7,175.7,241.7,172.7,237.8,172.7L237.8,172.7z"/>
</svg>
