<?xml version="1.0" encoding="utf-8"?>
<!-- Generator: Adobe Illustrator 24.2.1, SVG Export Plug-In . SVG Version: 6.00 Build 0)  -->
<svg version="1.1" id="_x31__x2C_5" xmlns="http://www.w3.org/2000/svg" xmlns:xlink="http://www.w3.org/1999/xlink" x="0px"
	 y="0px" viewBox="0 0 512 469.3" style="enable-background:new 0 0 512 469.3;" xml:space="preserve">
<style type="text/css">
	.st0{fill:#FFFFFF;}
</style>
<path class="st0" d="M453.3,469.3H58.7C26.3,469.3,0,443,0,410.7v-352C0,26.3,26.3,0,58.7,0h394.7C485.7,0,512,26.3,512,58.7v352
	C512,443,485.7,469.3,453.3,469.3z M58.7,32C44,32,32,44,32,58.7v352c0,14.7,12,26.7,26.7,26.7h394.7c14.7,0,26.7-12,26.7-26.7v-352
	C480,44,468,32,453.3,32H58.7z"/>
<path class="st0" d="M496,106.7H16c-8.8,0-16-7.2-16-16s7.2-16,16-16h480c8.8,0,16,7.2,16,16S504.8,106.7,496,106.7z"/>
<path class="st0" d="M325.3,330.7c-3.7,0-7.4-1.3-10.4-3.9c-6.7-5.8-7.5-15.9-1.7-22.6l23.1-26.9l-23.1-26.9
	c-5.8-6.7-5-16.8,1.7-22.6c6.7-5.8,16.8-5,22.6,1.7l32,37.3c5.1,6,5.1,14.8,0,20.8l-32,37.3C334.3,328.8,329.8,330.7,325.3,330.7
	L325.3,330.7z"/>
<path class="st0" d="M186.7,330.7c-4.5,0-9-1.9-12.2-5.6l-32-37.3c-5.1-6-5.1-14.8,0-20.8l32-37.3c5.8-6.7,15.9-7.5,22.6-1.7
	c6.7,5.8,7.5,15.9,1.7,22.6l-23.1,26.9l23.1,26.9c5.8,6.7,5,16.8-1.7,22.6C194.1,329.4,190.4,330.7,186.7,330.7L186.7,330.7z"/>
<path class="st0" d="M240,362.7c-1.2,0-2.4-0.1-3.6-0.4c-8.6-2-14-10.6-12-19.2l32-138.7c2-8.6,10.6-13.9,19.2-12
	c8.6,2,14,10.6,12,19.2l-32,138.7C253.9,357.7,247.3,362.7,240,362.7L240,362.7z"/>
</svg>
