<?xml version="1.0" encoding="utf-8"?>
<!-- Generator: Adobe Illustrator 24.0.1, SVG Export Plug-In . SVG Version: 6.00 Build 0)  -->
<svg version="1.1" id="Layer_1" xmlns="http://www.w3.org/2000/svg" xmlns:xlink="http://www.w3.org/1999/xlink" x="0px" y="0px"
	 viewBox="0 0 640 512" style="enable-background:new 0 0 640 512;" xml:space="preserve">
 
<path    d="M616,160h-67.3C511.2,70.7,422.9,8,320,8C183,8,72,119,72,256c0,16.4,1.6,32.5,4.7,48H24c-13.3,0-24,10.8-24,24
	c0,13.3,10.7,24,24,24h67.3c37.5,89.3,125.8,152,228.7,152c137,0,248-111,248-248c0-16.4-1.6-32.5-4.7-48H616c13.3,0,24-10.8,24-24
	C640,170.7,629.3,160,616,160z M520,256c0,110.5-89.5,200-200,200c-75.7,0-141.6-42-175.5-104H424c13.3,0,24-10.8,24-24
	c0-13.3-10.7-24-24-24H125.8c-3.8-15.4-5.8-31.4-5.8-48c0-110.5,89.5-200,200-200c75.7,0,141.6,42,175.5,104H216
	c-13.3,0-24,10.8-24,24c0,13.3,10.7,24,24,24h298.2C518,223.4,520,239.4,520,256z M216,232h208c13.3,0,24,10.7,24,24
	c0,13.2-10.7,24-24,24H216c-13.3,0-24-10.7-24-24C192,242.8,202.7,232,216,232z"/>
</svg>
