<?xml version="1.0" encoding="utf-8"?>
<!-- Generator: Adobe Illustrator 24.0.1, SVG Export Plug-In . SVG Version: 6.00 Build 0)  -->
<svg version="1.1" id="Capa_1" xmlns="http://www.w3.org/2000/svg" xmlns:xlink="http://www.w3.org/1999/xlink" x="0px" y="0px"
	 viewBox="0 0 512 512" style="enable-background:new 0 0 512 512;" xml:space="preserve">
<style type="text/css">
	.st0{fill:#FFFFFF;}
</style>
<g>
	<path class="st0" d="M392.5,294.5c4.6,4.7,5.7,11.8,2.6,17.6c-10.9,19.7-38,28.5-58.6,13.3c-47.9-35.5-113.6-35.1-161,0
		c-20.5,15.2-47.7,6.5-58.6-13.3c-3.2-5.7-2.1-12.9,2.6-17.6C194.7,218.6,317.3,218.5,392.5,294.5L392.5,294.5z"/>
	<path class="st0" d="M412,271.9c-87.6-86.1-225.6-84.8-312,0c-3.8,3.7-9.1,5.2-14.2,3.9c-15.8-4-27.7-17.5-29.2-33.9
		c-0.4-4.5,1.2-8.9,4.5-12.1c108.6-105.9,281.4-105.8,389.9,0c3.2,3.1,4.9,7.6,4.5,12.1c-1.5,16.3-13.4,29.9-29.2,33.9
		C421.1,277.1,415.7,275.6,412,271.9L412,271.9z"/>
	<path class="st0" d="M500.5,209.9c-1.3,1.3-2.6,2.5-4,3.5c-5.9,4.6-14.4,4-19.7-1.4c-121.4-123.1-320-123.1-441.6,0.1
		c-5.4,5.5-14.1,5.9-20.1,1.1c-1-0.8-1.9-1.6-2.8-2.5c-17.9-17.6-15.2-43.5,1.2-57.5c139.3-118.9,345.7-118.9,485,0
		C515.7,167.9,516.5,194,500.5,209.9L500.5,209.9z"/>
	<circle class="st0" cx="256" cy="408" r="40"/>
</g>
</svg>
