<?xml version="1.0" encoding="utf-8"?>
<!-- Generator: Adobe Illustrator 24.0.1, SVG Export Plug-In . SVG Version: 6.00 Build 0)  -->
<svg version="1.1" id="Layer_1" xmlns="http://www.w3.org/2000/svg" xmlns:xlink="http://www.w3.org/1999/xlink" x="0px" y="0px"
	 viewBox="0 0 640 512" style="enable-background:new 0 0 640 512;" xml:space="preserve">
<style type="text/css">
	.st0{fill:#FFFFFF;}
</style>
<path class="st0" d="M634.9,154.9C457.7-9,182.2-8.9,5.1,154.9c-6.7,6.2-6.8,16.6-0.3,23l34.2,34c6.1,6.1,16,6.2,22.4,0.4
	c145.9-133.7,371.3-133.7,517.3,0c6.4,5.9,16.3,5.7,22.4-0.4l34.2-34C641.7,171.5,641.6,161,634.9,154.9L634.9,154.9z M320,352
	c-35.4,0-64,28.6-64,64s28.6,64,64,64s64-28.6,64-64S355.4,352,320,352z M522.7,268.4c-115.3-101.9-290.2-101.8-405.3,0
	c-6.9,6.1-7.1,16.7-0.6,23.1l34.4,34c6,5.9,15.7,6.3,22.1,0.8c83.9-72.6,209.7-72.4,293.5,0c6.4,5.5,16,5.1,22-0.8l34.4-34
	C529.8,285.1,529.6,274.5,522.7,268.4z"/>
</svg>
