<?xml version="1.0" encoding="utf-8"?>
<!-- Generator: Adobe Illustrator 24.0.1, SVG Export Plug-In . SVG Version: 6.00 Build 0)  -->
<svg version="1.1" id="Layer_1" xmlns="http://www.w3.org/2000/svg" xmlns:xlink="http://www.w3.org/1999/xlink" x="0px" y="0px"
	 viewBox="0 0 512 512" style="enable-background:new 0 0 512 512;" xml:space="preserve">
<style type="text/css">
	.st0{fill:#FFFFFF;}
</style>
<path class="st0" d="M96,480h320V128h-32V80c0-26.5-21.5-48-48-48H176c-26.5,0-48,21.5-48,48v48H96V480z M192,96h128v32H192V96z
	 M512,176v256c0,26.5-21.5,48-48,48h-16V128h16C490.5,128,512,149.5,512,176z M64,480H48c-26.5,0-48-21.5-48-48V176
	c0-26.5,21.5-48,48-48h16V480z M352,272v32c0,8.8-7.2,16-16,16h-48v48c0,8.8-7.2,16-16,16h-32c-8.8,0-16-7.2-16-16v-48h-48
	c-8.8,0-16-7.2-16-16v-32c0-8.8,7.2-16,16-16h48v-48c0-8.8,7.2-16,16-16h32c8.8,0,16,7.2,16,16v48h48C344.8,256,352,263.2,352,272z"
	/>
</svg>
