<?xml version="1.0" encoding="utf-8"?>
<!-- Generator: Adobe Illustrator 24.0.1, SVG Export Plug-In . SVG Version: 6.00 Build 0)  -->
<svg version="1.1" id="Layer_1" xmlns="http://www.w3.org/2000/svg" xmlns:xlink="http://www.w3.org/1999/xlink" x="0px" y="0px"
	 viewBox="0 0 448 512" style="enable-background:new 0 0 448 512;" xml:space="preserve">
<style type="text/css">
	.st0{fill:#FFFFFF;}
</style>
<path class="st0" d="M400,224h-24v-72C376,68.2,307.8,0,224,0S72,68.2,72,152v72H48c-26.5,0-48,21.5-48,48v192c0,26.5,21.5,48,48,48
	h352c26.5,0,48-21.5,48-48V272C448,245.5,426.5,224,400,224z M296,224H152v-72c0-39.7,32.3-72,72-72s72,32.3,72,72V224z"/>
</svg>
