<svg xmlns="http://www.w3.org/2000/svg" width="448" height="512.042" viewBox="0 0 448 512.042">
  <g id="alert" transform="translate(-32.021)">
    <path id="Path_8294" data-name="Path 8294" d="M472.426,64.468,259.093.468a10.248,10.248,0,0,0-6.123,0l-213.333,64a10.668,10.668,0,0,0-7.616,10.219V309.354c0,94.315,143.829,178.219,220.843,202.2a10.668,10.668,0,0,0,6.4,0c76.928-23.979,220.757-107.883,220.757-202.2V74.687A10.668,10.668,0,0,0,472.426,64.468Z" fill="#f32222"/>
    <circle id="Ellipse_170" data-name="Ellipse 170" cx="117.333" cy="117.333" r="117.333" transform="translate(138.688 128.021)" fill="#c52020"/>
    <g id="data_1_" data-name="data (1)" transform="translate(186.265 119.953)">
      <g id="Group_1338" data-name="Group 1338" transform="translate(0 76)">
        <path id="Path_8297" data-name="Path 8297" d="M122.284,119.461a36.792,36.792,0,0,0-67.729-25.6,28.7,28.7,0,0,0-25.551,3.534,28.381,28.381,0,0,0-12.381,22.348,28.473,28.473,0,0,0,11.986,54.355h82.017a28.476,28.476,0,0,0,11.657-54.633Zm-11.657,46.458H28.611a20.318,20.318,0,0,1-6.511-39.6l2.9-1.028-.187-3.073a20.3,20.3,0,0,1,8.826-18.09c6.308-4.343,14.047-4.643,21.131-1.431l3.682,1.67,1.71-3.663a28.616,28.616,0,0,1,54.552,12.085c0,4.667-.984,7.492-2.073,11.233a34.416,34.416,0,0,0,4.567,2.227,20.323,20.323,0,0,1-6.581,39.675Z" transform="translate(0 -76)" fill="#f3f7ff"/>
      </g>
    </g>
  </g>
</svg>
