<svg xmlns="http://www.w3.org/2000/svg" width="448" height="512.042" viewBox="0 0 448 512.042">
  <g id="alert-2" transform="translate(-32.021)">
    <path id="Path_8294" data-name="Path 8294" d="M472.426,64.468,259.093.468a10.248,10.248,0,0,0-6.123,0l-213.333,64a10.668,10.668,0,0,0-7.616,10.219V309.354c0,94.315,143.829,178.219,220.843,202.2a10.668,10.668,0,0,0,6.4,0c76.928-23.979,220.757-107.883,220.757-202.2V74.687A10.668,10.668,0,0,0,472.426,64.468Z" fill="#f32222"/>
    <circle id="Ellipse_170" data-name="Ellipse 170" cx="117.333" cy="117.333" r="117.333" transform="translate(138.688 128.021)" fill="#c52020"/>
    <path id="XMLID_1988_" d="M124.556,73.72H3.769A3.769,3.769,0,0,0,0,77.489v69.4a3.769,3.769,0,0,0,3.769,3.769H50.874v6.9H40.707a3.769,3.769,0,0,0,0,7.537h46.91a3.769,3.769,0,0,0,0-7.537H77.451v-6.9h47.105a3.769,3.769,0,0,0,3.769-3.769v-69.4A3.769,3.769,0,0,0,124.556,73.72ZM69.914,157.554h-11.5v-6.9h11.5Zm50.874-14.435H7.537V81.257h113.25Z" transform="translate(191.859 126.874)" fill="#f3f7ff"/>
  </g>
</svg>
