<?xml version="1.0"?>
<svg xmlns="http://www.w3.org/2000/svg" xmlns:xlink="http://www.w3.org/1999/xlink" xmlns:svgjs="http://svgjs.com/svgjs" version="1.1" width="512" height="512" x="0" y="0" viewBox="0 0 64 64" style="enable-background:new 0 0 512 512" xml:space="preserve" class=""><g transform="matrix(1,0,0,1,1.0658141036401503e-14,0)"><g xmlns="http://www.w3.org/2000/svg"><path d="m60 46h-26l-2-2-2 2h-26c-1.105 0-2-.895-2-2v-28c0-1.105.895-2 2-2h26l2 2 2-2h26c1.105 0 2 .895 2 2v28c0 1.105-.895 2-2 2z" fill="#bd3d3d" data-original="#3d54bd" style="" class=""/><path d="m59 14h-25l-2 2-2-2h-26c-.366 0-.705.106-1 .277v28.723h56z" fill="#ed5454" data-original="#546ded" style="" class=""/><path d="m50 42h-20c-1.105 0-2-.895-2-2v-2c0-1.105.895-2 2-2h20c1.105 0 2 .895 2 2v2c0 1.105-.895 2-2 2z" fill="#f87f7f" data-original="#7fa3f8" style="" class=""/><path d="m35 26h-22c-1.105 0-2-.895-2-2v-5c0-1.105.895-2 2-2h22c1.105 0 2 .895 2 2v5c0 1.105-.895 2-2 2z" fill="#f87f7f" data-original="#7fa3f8" style="" class=""/><path d="m6 30c0-5.523 4.477-10 10-10s10 4.477 10 10-4.477 10-10 10-10-4.477-10-10" fill="#6e4c4c" data-original="#4c506e" style="" class=""/><path d="m16 20c-5.523 0-10 4.477-10 10 0 1.824.496 3.528 1.349 5h11.651c1.105 0 2-.895 2-2v-11.651c-1.472-.853-3.176-1.349-5-1.349z" fill="#aa7878" data-original="#787faa" style="" class=""/><g><path d="m57 17h2v2h-2z" fill="#4f3636" data-original="#363a4f" style="" class=""/></g><g><path d="m57 41h2v2h-2z" fill="#4f3636" data-original="#363a4f" style="" class=""/></g><g><path d="m5 17h2v2h-2z" fill="#4f3636" data-original="#363a4f" style="" class=""/></g><g><path d="m5 41h2v2h-2z" fill="#4f3636" data-original="#363a4f" style="" class=""/></g><g><path d="m7 14h-2v-3h-4v-2h5c.553 0 1 .447 1 1z" fill="#4f3636" data-original="#363a4f" style="" class=""/></g><path d="m4 46v4h8v-4" fill="#4f3636" data-original="#363a4f" style="" class=""/><path d="m37 46v4h8v-4" fill="#4f3636" data-original="#363a4f" style="" class=""/><g><path d="m15 46h2v5h-2z" fill="#4f3636" data-original="#363a4f" style="" class=""/></g><g><path d="m54 51h-5c-.553 0-1-.447-1-1v-4h2v3h4z" fill="#4f3636" data-original="#363a4f" style="" class=""/></g><g><path d="m14.6 40.8-1.2-1.6 1.812-1.359c1.12-.84 1.788-2.177 1.788-3.575 0-.779-.205-1.55-.594-2.227l1.734-.996c.563.98.86 2.095.86 3.223 0 2.024-.967 3.959-2.587 5.175z" fill="#edc8c8" data-original="#c8cded" style="" class=""/></g><g><path d="m13.86 28.958c-.562-.979-.86-2.094-.86-3.224v-.469c0-1.729.673-3.353 1.895-4.574l1.398-1.398 1.414 1.414-1.398 1.398c-.844.844-1.309 1.966-1.309 3.161v.469c0 .78.205 1.55.595 2.226z" fill="#edc8c8" data-original="#c8cded" style="" class=""/></g><g><path d="m11.734 33c-2.024 0-3.959-.967-5.175-2.587l-1.359-1.813 1.6-1.2 1.359 1.812c.84 1.12 2.177 1.788 3.575 1.788.78 0 1.55-.205 2.227-.594l.996 1.734c-.978.563-2.094.86-3.223.86z" fill="#edc8c8" data-original="#c8cded" style="" class=""/></g><g><path d="m25.293 31.707-1.398-1.398c-.844-.844-1.966-1.309-3.161-1.309h-.469c-.78 0-1.551.206-2.228.595l-.996-1.734c.979-.562 2.094-.86 3.224-.86h.469c1.729 0 3.353.673 4.574 1.895l1.398 1.398z" fill="#edc8c8" data-original="#c8cded" style="" class=""/></g><g><path d="m10.52 37.031c-.301 0-.603-.021-.903-.063l-2.243-.32.283-1.98 2.243.32c1.381.201 2.802-.275 3.792-1.264.552-.553.951-1.242 1.153-1.994l1.932.521c-.294 1.089-.872 2.087-1.67 2.887-1.219 1.216-2.884 1.893-4.587 1.893z" fill="#edc8c8" data-original="#c8cded" style="" class=""/></g><g><path d="m17.155 28.271-1.932-.521c.295-1.09.872-2.088 1.671-2.887l.333-.332c1.22-1.222 2.845-1.895 4.573-1.895h1.978v2h-1.978c-1.177 0-2.328.478-3.16 1.31l-.333.332c-.55.55-.949 1.24-1.152 1.993z" fill="#edc8c8" data-original="#c8cded" style="" class=""/></g><g><path d="m22.647 38.627-1.98-.283.32-2.243c.198-1.385-.274-2.802-1.264-3.792-.553-.552-1.242-.951-1.994-1.153l.521-1.932c1.089.294 2.087.872 2.887 1.67 1.432 1.434 2.116 3.485 1.83 5.49z" fill="#edc8c8" data-original="#c8cded" style="" class=""/></g><g><path d="m13.746 30.775c-1.087-.294-2.084-.871-2.884-1.669l-.332-.334c-1.222-1.22-1.895-2.845-1.895-4.573v-1.978h2v1.978c0 1.177.478 2.328 1.31 3.16l.332.333c.551.55 1.24.949 1.99 1.151z" fill="#edc8c8" data-original="#c8cded" style="" class=""/></g><g><path d="m30 30h-2c0-6.617-5.383-12-12-12v-2c7.72 0 14 6.28 14 14z" fill="#4f3636" data-original="#363a4f" style="" class=""/></g><g><path d="m48 44c-7.72 0-14-6.28-14-14h2c0 6.617 5.383 12 12 12z" fill="#4f3636" data-original="#363a4f" style="" class=""/></g><path d="m58 30c0 5.523-4.477 10-10 10s-10-4.477-10-10 4.477-10 10-10 10 4.477 10 10" fill="#f6b940" data-original="#f6b940" style="" class=""/><path d="m48 20c-5.523 0-10 4.477-10 10 0 1.824.496 3.528 1.349 5h12.651c1.105 0 2-.895 2-2v-10.986c-1.673-1.259-3.746-2.014-6-2.014z" fill="#fad85d" data-original="#fad85d" style="" class=""/><path d="m53 28c0-1.302-.839-2.402-2-2.816v-2.184h-2v2h-1v-2h-2v2h-2v2h1v6h-1v2h2v2h2v-2h1v2h2v-2.184c1.161-.414 2-1.514 2-2.816 0-.771-.301-1.468-.78-2 .479-.532.78-1.229.78-2zm-3-1c.552 0 1 .449 1 1s-.448 1-1 1h-3v-2zm0 6h-3v-2h3c.552 0 1 .449 1 1s-.448 1-1 1z" fill="#ffffff" data-original="#ffffff" style="" class=""/><g><path d="m16 41c-6.065 0-11-4.935-11-11s4.935-11 11-11 11 4.935 11 11-4.935 11-11 11zm0-20c-4.963 0-9 4.037-9 9s4.037 9 9 9 9-4.037 9-9-4.037-9-9-9z" fill="#bf9d9d" data-original="#9da1bf" style="" class=""/></g><g><path d="m16 33c-1.654 0-3-1.346-3-3s1.346-3 3-3 3 1.346 3 3-1.346 3-3 3zm0-4c-.552 0-1 .448-1 1s.448 1 1 1 1-.448 1-1-.448-1-1-1z" fill="#6e4c4c" data-original="#4c506e" style="" class=""/></g><g fill="#4c506e"><path d="m39 47c0 .552.448 1 1 1h5v-2h-6z" fill="#6e4c4c" data-original="#4c506e" style="" class=""/><path d="m6 47c0 .552.448 1 1 1h5v-2h-6z" fill="#6e4c4c" data-original="#4c506e" style="" class=""/></g></g></g></svg>
